<?xml version="1.0" standalone="no"?>
<!DOCTYPE svg PUBLIC "-//W3C//DTD SVG 1.1//EN" "http://www.w3.org/Graphics/SVG/1.1/DTD/svg11.dtd" >
<svg xmlns="http://www.w3.org/2000/svg" xmlns:xlink="http://www.w3.org/1999/xlink" version="1.1">
<metadata>
Created by FontForge 20190801 at Sun Jan 20 01:00:00 2019
 By Jimmy Wärting
Copyright (c) 2017 by Nizar Kazan-Grandchamp. All rights reserved.
</metadata>
<defs>
<font id="Lausanne-300Italic" horiz-adv-x="612" >
  <font-face 
    font-family="Lausanne 300"
    font-weight="400"
    font-style="italic"
    font-stretch="normal"
    units-per-em="1000"
    panose-1="2 0 5 3 4 0 0 2 0 4"
    ascent="800"
    descent="-200"
    x-height="517"
    cap-height="714"
    bbox="-212 -214 1386 985"
    underline-thickness="60"
    underline-position="-400"
    slope="-10"
    unicode-range="U+001D-FB02"
  />
<missing-glyph horiz-adv-x="804" 
d="M758 714v-713h-712v713h712zM634 440h-148v150h-165v-150h-151v-165h151v-150h165v150h148v165zM447 400h147v-87h-147v-148h-87v148h-150v87h150v150h87v-150z" />
    <glyph glyph-name="fi" unicode="fi" horiz-adv-x="528" 
d="M245 578l-11 -61h88l-13 -74h-88l-78 -443h-88l78 443h-70l13 74h70l13 71c15 84 63 126 144 126h59l-13 -76h-30c-42 0 -67 -20 -74 -60zM449 710h96l-18 -100h-96zM326 0l92 517h90l-92 -517h-90z" />
    <glyph glyph-name="fl" unicode="fl" horiz-adv-x="532" 
d="M245 578l-11 -61h88l-13 -74h-88l-78 -443h-88l78 443h-70l13 74h70l13 71c15 84 63 126 144 126h59l-13 -76h-30c-42 0 -67 -20 -74 -60zM454 714h90l-126 -714h-90z" />
    <glyph glyph-name=".notdef" horiz-adv-x="804" 
d="M758 714v-713h-712v713h712zM634 440h-148v150h-165v-150h-151v-165h151v-150h165v150h148v165zM447 400h147v-87h-147v-148h-87v148h-150v87h150v150h87v-150z" />
    <glyph glyph-name=".null" horiz-adv-x="512" 
 />
    <glyph glyph-name=".null" horiz-adv-x="512" 
 />
    <glyph glyph-name="space" unicode=" " horiz-adv-x="196" 
 />
    <glyph glyph-name="exclam" unicode="!" horiz-adv-x="248" 
d="M171 464l-23 -274h-49l-23 274v250h95v-250zM72 114h104v-114h-104v114z" />
    <glyph glyph-name="quotedbl" unicode="&#x22;" horiz-adv-x="448" 
d="M98 714h92v-238h-92v238zM258 714h92v-238h-92v238z" />
    <glyph glyph-name="numbersign" unicode="#" horiz-adv-x="568" 
d="M137 206h-97v68h107l21 150h-102v68h111l29 205h69l-29 -205h124l29 205h69l-29 -205h89v-68h-98l-21 -150h91v-68h-101l-29 -206h-69l29 206h-124l-29 -206h-69zM237 424l-21 -150h124l21 150h-124z" />
    <glyph glyph-name="dollar" unicode="$" horiz-adv-x="609" 
d="M494 529c0 71 -30 111 -90 120l-45 -253c65 -17 105 -30 122 -38c62 -29 89 -78 81 -147c-1 -5 -1 -10 -2 -15c-8 -45 -27 -83 -56 -115c-30 -32 -63 -55 -100 -70s-76 -24 -117 -27l-15 -85h-62l15 85c-67 5 -118 26 -154 63c-36 36 -50 89 -42 158h95
c-8 -83 30 -129 115 -140l46 260c-28 7 -52 15 -72 24s-40 21 -60 36s-34 34 -42 57c-9 23 -11 49 -6 80c10 63 39 112 87 147c47 35 102 56 164 61l12 68h62l-12 -68c59 -5 104 -24 135 -57s43 -81 38 -144h-97zM203 537c-6 -33 -1 -59 15 -77c15 -18 43 -33 82 -46l42 235
c-35 -4 -66 -15 -91 -33c-26 -18 -42 -44 -48 -79zM464 193c3 19 3 36 -1 50c-5 14 -14 25 -27 34c-14 8 -27 14 -39 19c-13 5 -30 10 -53 15l-43 -247c41 3 76 15 107 36c30 20 49 51 56 93z" />
    <glyph glyph-name="percent" unicode="%" horiz-adv-x="954" 
d="M745 725h98l-607 -749h-98zM308 714c53 0 91 -20 114 -61s30 -89 20 -145s-34 -105 -71 -147c-38 -42 -83 -63 -136 -63s-90 21 -113 63s-30 91 -20 147s34 104 71 145s82 61 135 61zM248 370c26 0 49 13 69 40c19 27 32 60 39 99s5 71 -5 96c-11 25 -29 37 -55 37
s-49 -12 -68 -37c-20 -25 -33 -57 -40 -96s-5 -72 6 -99c10 -27 28 -40 54 -40zM752 406c53 0 91 -20 114 -61s29 -89 20 -145c-10 -56 -34 -105 -71 -147c-38 -42 -83 -63 -136 -63s-90 21 -113 63s-30 91 -20 147c9 56 33 104 71 145c37 41 82 61 135 61zM691 62
c25 0 48 13 68 40s34 60 41 99s5 71 -6 96s-29 37 -55 37s-49 -12 -68 -37s-32 -57 -39 -96s-6 -72 5 -99c10 -27 28 -40 54 -40z" />
    <glyph glyph-name="ampersand" unicode="&#x26;" horiz-adv-x="652" 
d="M438 96c-57 -72 -131 -108 -221 -108c-31 0 -58 3 -81 10c-24 7 -43 16 -56 28c-13 11 -24 24 -33 38c-9 13 -14 28 -17 43s-4 29 -4 41s1 24 3 35c9 51 31 92 66 124s84 63 145 92c-3 6 -8 14 -15 25c-7 10 -11 18 -14 23s-7 11 -12 20s-8 16 -9 23c-2 6 -4 13 -6 22
s-3 18 -3 27s1 18 3 28c7 41 28 75 62 104c33 29 75 43 125 43c48 0 87 -13 116 -38c29 -26 40 -62 32 -108c-13 -72 -69 -134 -167 -185l98 -154c13 23 26 54 39 93h76c-14 -45 -38 -96 -72 -154l115 -168h-111zM311 435c21 12 38 23 52 32c13 9 28 23 43 41
c15 17 24 36 27 55c3 21 -1 39 -13 54c-13 15 -31 22 -56 22c-22 0 -42 -6 -61 -19s-30 -32 -34 -57c-3 -13 -1 -29 4 -46s9 -30 14 -39s13 -23 24 -43zM277 346c-24 -13 -42 -24 -54 -31s-27 -18 -44 -32c-18 -14 -32 -29 -41 -45s-16 -34 -19 -54c-6 -35 3 -63 26 -86
s53 -35 89 -35c21 0 40 2 55 6c15 3 30 11 44 22s24 19 31 25c6 6 17 18 32 36z" />
    <glyph glyph-name="quotesingle" unicode="'" horiz-adv-x="286" 
d="M98 714h90v-238h-90v238z" />
    <glyph glyph-name="parenleft" unicode="(" horiz-adv-x="286" 
d="M127 -198c-25 53 -44 102 -57 149c-14 46 -23 97 -28 153s-1 111 10 166c14 80 42 160 83 240s92 154 155 221h79c-127 -171 -203 -325 -227 -461c-11 -51 -15 -105 -10 -162s13 -108 25 -154c11 -46 28 -97 49 -152h-79z" />
    <glyph glyph-name="parenright" unicode=")" horiz-adv-x="286" 
d="M-1 -198h-79c62 85 112 165 150 240c38 74 64 150 78 228c25 137 3 290 -65 461h79c39 -68 66 -142 79 -223s12 -160 -3 -238c-15 -83 -42 -162 -81 -236c-40 -75 -93 -152 -158 -232z" />
    <glyph glyph-name="asterisk" unicode="*" horiz-adv-x="364" 
d="M205 598l109 43l20 -48l-112 -37l69 -92l-41 -31l-68 102l-66 -102l-45 31l68 92l-109 37l18 48l108 -43l-2 116h53z" />
    <glyph glyph-name="plus" unicode="+" 
d="M346 311h212v-76h-212v-215h-80v215h-212v76h212v215h80v-215z" />
    <glyph glyph-name="comma" unicode="," horiz-adv-x="240" 
d="M62 121h100l-112 -234h-80z" />
    <glyph glyph-name="hyphen" unicode="-" horiz-adv-x="445" 
d="M73 320h321l-15 -84h-321z" />
    <glyph glyph-name="period" unicode="." horiz-adv-x="242" 
d="M41 114h110l-21 -114h-110z" />
    <glyph glyph-name="slash" unicode="/" horiz-adv-x="341" 
d="M244 771h85l-244 -868h-85z" />
    <glyph glyph-name="zero" unicode="0" horiz-adv-x="600" 
d="M374 718c37 0 70 -7 97 -20c27 -14 49 -32 65 -55c15 -23 27 -51 35 -83c7 -32 11 -65 10 -100s-4 -71 -11 -109c-8 -47 -20 -92 -36 -133s-36 -80 -61 -115s-55 -63 -92 -84s-77 -31 -122 -31c-46 0 -84 11 -115 33c-31 21 -53 50 -66 85s-21 75 -24 120s0 90 10 137
c9 47 21 91 37 132c16 40 36 77 61 112c24 35 54 62 91 82c37 19 77 29 121 29zM259 64c39 0 75 16 108 48c32 31 57 69 75 112s31 89 40 139c6 35 9 68 10 99c0 31 -3 61 -10 89s-19 50 -37 67c-19 16 -42 24 -71 24c-30 0 -58 -9 -84 -26s-48 -40 -65 -69
c-18 -29 -33 -59 -45 -92s-21 -68 -28 -104c-6 -35 -9 -69 -9 -101c-1 -32 2 -62 9 -91c6 -29 18 -52 37 -69c18 -17 41 -26 70 -26z" />
    <glyph glyph-name="one" unicode="1" horiz-adv-x="420" 
d="M320 714h74l-126 -714h-90l94 529h-170l12 68c55 0 98 8 131 23c32 15 57 47 75 94z" />
    <glyph glyph-name="two" unicode="2" horiz-adv-x="583" 
d="M366 261c-17 -11 -41 -25 -72 -42c-32 -18 -57 -32 -75 -43s-37 -26 -57 -44c-21 -18 -36 -37 -46 -56h383l-14 -76h-492c4 22 10 43 19 64s17 39 26 54s22 30 39 47s30 29 40 38c9 9 25 21 48 36s38 24 45 29c7 4 23 13 48 28c75 40 129 76 162 107s53 70 62 118
c7 36 1 65 -18 88c-19 22 -49 33 -91 33c-49 0 -88 -14 -118 -43c-31 -29 -50 -66 -59 -112h-89c11 73 41 130 89 171c48 40 109 60 182 60c70 0 123 -18 158 -55s46 -88 34 -155c-5 -29 -14 -56 -25 -79c-12 -24 -29 -46 -50 -67c-22 -21 -41 -38 -57 -50
c-17 -13 -41 -30 -72 -51z" />
    <glyph glyph-name="three" unicode="3" horiz-adv-x="577" 
d="M549 520c-7 -38 -24 -69 -53 -94s-65 -42 -106 -51v-2c47 -8 83 -29 106 -63c23 -35 31 -74 23 -118c-12 -67 -41 -118 -87 -152c-46 -35 -105 -52 -177 -52c-74 0 -130 17 -168 50s-56 83 -53 150h90c-5 -39 5 -70 30 -91c24 -22 58 -33 101 -33c47 0 86 13 118 38
c31 25 51 59 59 104c7 42 0 73 -22 94s-56 31 -102 31c-19 0 -36 0 -51 -1l7 80c9 -1 21 -1 34 -1c39 0 75 11 107 33c31 22 50 51 56 87s0 64 -17 84c-18 19 -46 29 -85 29c-85 0 -133 -38 -145 -115l-2 -13h-88c7 62 32 112 73 149s96 55 164 55c67 0 118 -17 153 -50
c35 -34 46 -83 35 -148z" />
    <glyph glyph-name="four" unicode="4" horiz-adv-x="583" 
d="M536 714l-81 -458h80l-14 -75h-79l-32 -181h-90l32 181h-330l13 73l419 460h82zM130 256h236l55 311h-7z" />
    <glyph glyph-name="five" unicode="5" horiz-adv-x="582" 
d="M549 638h-292l-77 -241c17 23 39 42 68 57s59 23 90 23c71 0 126 -23 164 -68c37 -46 49 -107 36 -183c-12 -67 -44 -123 -97 -169s-115 -69 -188 -69c-66 0 -119 18 -160 53s-58 82 -52 142h86c0 -37 11 -66 34 -87c22 -21 53 -32 92 -32c45 0 87 16 126 47
c38 31 62 73 71 127c9 47 1 86 -24 116s-60 45 -105 45c-62 0 -112 -27 -151 -81l-93 13l123 383h362z" />
    <glyph glyph-name="six" unicode="6" horiz-adv-x="593" 
d="M352 477c69 0 122 -24 159 -73s49 -108 36 -179c-12 -68 -46 -124 -101 -169s-118 -68 -187 -68c-175 0 -240 120 -197 360c9 48 21 93 37 136c16 42 37 81 62 118c25 36 55 65 92 86s77 32 122 32c69 0 119 -16 151 -48c32 -33 49 -76 52 -129h-87c-3 17 -6 29 -8 37
c-3 8 -8 18 -15 30s-18 21 -32 26c-15 5 -33 8 -54 8c-31 0 -60 -8 -85 -24c-26 -16 -48 -38 -66 -65c-18 -28 -33 -57 -44 -86c-12 -30 -22 -63 -31 -98l-3 -12c19 33 46 61 81 84s75 34 118 34zM459 237c8 45 0 83 -24 115c-25 31 -59 47 -104 47c-47 0 -88 -16 -124 -48
c-37 -32 -59 -73 -68 -122c-1 -1 -1 -2 -1 -4c-7 -45 0 -83 23 -114c22 -31 55 -47 98 -47c47 0 90 17 129 51s63 75 71 122z" />
    <glyph glyph-name="seven" unicode="7" horiz-adv-x="523" 
d="M102 714h459l-14 -84c-84 -71 -162 -166 -235 -285c-73 -120 -123 -235 -149 -345h-90c32 131 87 258 166 380c78 122 159 208 244 258h-394z" />
    <glyph glyph-name="eight" unicode="8" horiz-adv-x="597" 
d="M574 536c-7 -39 -24 -73 -53 -102s-63 -48 -101 -57c39 -11 70 -33 95 -67c24 -35 32 -75 24 -122c-11 -62 -43 -111 -95 -146c-52 -36 -113 -54 -184 -54c-77 0 -136 19 -178 58c-43 38 -58 89 -46 154c9 45 31 84 68 117c36 32 75 53 117 62c-34 10 -60 31 -78 62
s-24 66 -17 107c9 52 37 94 84 125c46 31 101 47 165 47c67 0 120 -17 158 -50c37 -34 51 -79 41 -134zM482 529c4 32 -3 59 -22 82c-19 22 -47 33 -85 33c-43 0 -79 -11 -110 -34s-48 -52 -53 -86c-4 -31 4 -58 23 -81s47 -35 85 -35c42 0 78 12 109 36c31 23 48 52 53 85z
M452 209c7 38 -1 69 -23 94c-23 24 -59 36 -108 36c-53 0 -97 -13 -132 -40s-57 -62 -64 -103c-7 -39 2 -70 25 -95s59 -37 109 -37c53 0 96 14 131 41c34 27 55 62 62 104z" />
    <glyph glyph-name="nine" unicode="9" horiz-adv-x="593" 
d="M545 638c38 -48 45 -141 20 -278c-19 -109 -55 -199 -107 -268s-119 -104 -200 -104c-67 0 -119 17 -156 50c-38 33 -57 76 -58 127h87c9 -67 49 -101 121 -101c105 0 178 91 218 273v2c-14 -28 -38 -53 -72 -75s-72 -33 -113 -33c-72 0 -127 24 -166 72s-52 108 -39 180
c12 68 46 125 101 170s118 67 187 67c82 0 141 -27 177 -82zM295 309c47 0 89 17 128 51c39 33 63 72 72 115c0 1 0 3 1 5v3c8 46 0 84 -25 115s-59 46 -103 46c-47 0 -90 -17 -129 -51s-63 -75 -71 -122c-8 -45 0 -83 24 -114c24 -32 58 -48 103 -48z" />
    <glyph glyph-name="colon" unicode=":" horiz-adv-x="250" 
d="M197 357h-110l22 120h110zM136 10h-110l21 120h110z" />
    <glyph glyph-name="semicolon" unicode=";" horiz-adv-x="250" 
d="M197 357h-110l22 120h110zM56 121h110l-122 -234h-80z" />
    <glyph glyph-name="less" unicode="&#x3c;" 
d="M560 446l-425 -193l425 -193v-68l-508 230v62l508 230v-68z" />
    <glyph glyph-name="equal" unicode="=" 
d="M558 320h-504v68h504v-68zM54 186h504v-68h-504v68z" />
    <glyph glyph-name="greater" unicode="&#x3e;" 
d="M52 60l425 193l-425 193v68l508 -230v-62l-508 -230v68z" />
    <glyph glyph-name="question" unicode="?" horiz-adv-x="533" 
d="M84 484l5 31c11 65 40 118 87 157c46 39 100 59 163 59c65 0 114 -19 147 -57c33 -39 45 -88 34 -149c-1 -9 -3 -17 -5 -25c-3 -8 -6 -16 -10 -24s-7 -15 -9 -20c-3 -5 -7 -12 -13 -20c-7 -8 -11 -14 -13 -17s-7 -9 -15 -17c-9 -9 -13 -14 -14 -15l-17 -17l-15 -14
c-23 -18 -40 -32 -52 -43s-25 -25 -38 -44s-22 -39 -26 -59l-3 -20h-90l6 34c5 30 16 57 32 82s34 46 54 63c19 17 39 33 59 49c19 15 37 33 52 54c15 20 25 42 29 65c6 35 1 64 -15 86c-17 21 -43 32 -78 32c-39 0 -74 -13 -104 -40s-49 -63 -57 -106l-4 -25h-90zM184 114
h104l-21 -114h-104z" />
    <glyph glyph-name="at" unicode="@" horiz-adv-x="825" 
d="M658 -8c-61 -38 -132 -57 -214 -57c-118 0 -215 36 -291 107c-77 71 -115 164 -115 277c0 117 38 212 114 287c75 75 168 112 277 112c108 0 195 -32 260 -96s98 -147 98 -249c0 -74 -16 -134 -48 -179c-32 -46 -74 -69 -125 -69c-32 0 -57 8 -74 24s-27 38 -28 66
c-7 -29 -21 -52 -43 -71s-49 -28 -80 -28c-51 0 -92 18 -123 53s-47 83 -47 143c0 61 19 113 57 154s82 62 132 62c35 0 62 -9 81 -28s30 -43 34 -72l7 81h73l-25 -248c-1 -9 -2 -16 -2 -21c0 -17 3 -29 10 -36c6 -7 16 -11 30 -11c29 0 53 17 71 51c18 33 27 76 27 129
c0 84 -25 151 -74 200s-120 74 -211 74s-166 -30 -224 -90c-58 -61 -87 -140 -87 -238c0 -93 29 -169 87 -226c58 -58 138 -87 239 -87c73 0 134 16 184 48zM512 345c0 33 -9 60 -26 80s-41 30 -72 30c-35 0 -62 -13 -83 -39s-32 -60 -32 -101c0 -42 7 -74 22 -95
s41 -32 78 -32c35 0 62 14 83 43c20 29 30 67 30 114z" />
    <glyph glyph-name="A" unicode="A" horiz-adv-x="707" 
d="M547 0l-42 213h-315l-118 -213h-100l402 714h119l150 -714h-96zM233 291h256l-67 338h-3z" />
    <glyph glyph-name="B" unicode="B" horiz-adv-x="606" 
d="M30 0l126 714h212c43 0 67 -1 70 -2c58 -5 101 -24 128 -59s35 -80 26 -136c-6 -33 -24 -64 -54 -93s-67 -48 -112 -55l-7 -1c49 -5 88 -24 116 -55s38 -70 30 -117c-9 -51 -34 -95 -73 -132s-89 -59 -149 -64h-55h-258zM197 404h143c43 0 78 11 106 32s46 52 53 93
c6 37 0 64 -19 81c-19 16 -49 24 -92 24h-151zM140 80h171c41 0 76 12 106 35s48 54 55 93c7 36 0 64 -20 85c-21 21 -51 31 -91 31h-178z" />
    <glyph glyph-name="C" unicode="C" horiz-adv-x="787" 
d="M736 216c-25 -65 -68 -120 -129 -165c-62 -45 -136 -68 -221 -68c-115 0 -202 37 -260 111c-59 74 -79 164 -60 269c19 104 66 191 141 262s169 106 280 106c87 0 155 -21 204 -63s79 -97 92 -164h-92c-11 49 -33 85 -66 110s-79 37 -139 37c-87 0 -159 -29 -217 -87
c-59 -58 -95 -129 -110 -213c-13 -80 0 -148 41 -204c40 -56 102 -84 187 -84c118 0 203 51 254 153h95z" />
    <glyph glyph-name="D" unicode="D" horiz-adv-x="706" 
d="M368 714c116 0 201 -32 256 -95c54 -63 71 -149 52 -256c-19 -106 -66 -193 -141 -261s-169 -102 -280 -102h-225l126 714h212zM583 375c15 86 3 151 -38 194s-100 65 -179 65h-129l-98 -554h126c76 0 144 26 204 78c60 51 98 124 114 217z" />
    <glyph glyph-name="E" unicode="E" horiz-adv-x="580" 
d="M591 634h-354l-41 -231h333l-14 -80h-333l-43 -243h358l-15 -80h-452l126 714h449z" />
    <glyph glyph-name="F" unicode="F" horiz-adv-x="546" 
d="M582 634h-346l-41 -231h317l-14 -80h-317l-56 -323h-95l126 714h440z" />
    <glyph glyph-name="G" unicode="G" horiz-adv-x="793" 
d="M408 286l14 78h320l-73 -364h-60l11 126c-21 -49 -51 -85 -90 -108s-91 -35 -158 -35c-57 0 -108 11 -152 32c-45 21 -79 49 -102 84c-24 35 -41 75 -52 121s-11 94 0 143c18 103 63 190 136 261s164 107 273 107c87 0 154 -22 203 -65c48 -43 75 -97 81 -162h-92
c-5 45 -24 80 -56 107s-78 40 -137 40c-84 0 -154 -29 -209 -88c-56 -59 -91 -129 -106 -212c-13 -77 -1 -145 38 -202c38 -57 97 -86 176 -86c74 0 133 17 177 52s74 89 90 164l1 9z" />
    <glyph glyph-name="H" unicode="H" horiz-adv-x="686" 
d="M595 714h95l-126 -714h-95l56 318h-344l-56 -318h-95l126 714h95l-56 -316h344z" />
    <glyph glyph-name="I" unicode="I" horiz-adv-x="263" 
d="M164 714h95l-126 -714h-95z" />
    <glyph glyph-name="J" unicode="J" horiz-adv-x="502" 
d="M108 177c-11 -76 16 -114 80 -114c37 0 67 11 90 33s37 52 44 91l93 527h95l-92 -522c-25 -139 -101 -209 -230 -209c-65 0 -113 17 -142 50s-40 81 -32 144h94z" />
    <glyph glyph-name="K" unicode="K" horiz-adv-x="631" 
d="M704 714l-338 -301l217 -413h-111l-178 350l-127 -114l-42 -236h-95l126 714h95l-63 -360l392 360h124z" />
    <glyph glyph-name="L" unicode="L" horiz-adv-x="548" 
d="M141 80h346l-15 -80h-442l126 714h95z" />
    <glyph glyph-name="M" unicode="M" horiz-adv-x="871" 
d="M714 714h161l-126 -714h-95l109 620l-317 -620h-110l-99 620h-3l-109 -620h-95l126 714l159 -1l93 -607z" />
    <glyph glyph-name="N" unicode="N" horiz-adv-x="719" 
d="M156 714h113l198 -453c35 -79 54 -121 57 -128c3 15 13 65 28 149l76 432h95l-126 -714h-115l-197 450c-6 13 -15 33 -27 62c-12 28 -22 49 -29 63c-4 -19 -14 -70 -29 -154l-75 -421h-95z" />
    <glyph glyph-name="O" unicode="O" horiz-adv-x="836" 
d="M485 731c76 0 141 -17 194 -52s91 -82 112 -139c21 -58 25 -121 13 -189c-19 -104 -66 -191 -141 -262s-168 -106 -277 -106c-76 0 -141 18 -194 53s-91 81 -112 139c-21 57 -26 120 -14 188c19 104 66 191 141 262s168 106 278 106zM387 63c86 0 158 29 216 88
c57 59 93 129 108 212c9 50 6 97 -7 140c-14 43 -40 79 -78 107c-39 27 -86 41 -142 41c-86 0 -158 -29 -216 -88s-94 -130 -109 -212c-14 -77 0 -145 41 -202s103 -86 187 -86z" />
    <glyph glyph-name="P" unicode="P" horiz-adv-x="588" 
d="M397 714c71 0 125 -21 163 -62c37 -42 50 -95 39 -159c-11 -61 -41 -112 -91 -151s-110 -59 -180 -58h-153l-50 -284h-95l126 714h241zM506 505c16 86 -26 129 -126 129h-143l-48 -270h136c51 -1 92 12 123 37s51 59 58 104z" />
    <glyph glyph-name="Q" unicode="Q" horiz-adv-x="836" 
d="M804 351c-21 -118 -76 -212 -163 -281c28 -25 55 -40 82 -47l-40 -61c-18 1 -53 24 -106 67c-58 -31 -122 -46 -191 -46c-76 0 -141 18 -194 53s-91 81 -112 139c-21 57 -26 120 -14 188c19 104 66 191 141 262s168 106 278 106c76 0 141 -17 194 -52s91 -82 112 -139
c21 -58 25 -121 13 -189zM159 351c-14 -77 0 -145 41 -202s103 -86 187 -86c45 0 86 9 124 26c-34 33 -67 56 -99 71l46 58c30 -13 70 -42 120 -88c71 57 115 134 133 233c9 50 6 97 -7 140c-14 43 -40 79 -78 107c-39 27 -86 41 -142 41c-86 0 -158 -29 -216 -88
s-94 -130 -109 -212z" />
    <glyph glyph-name="R" unicode="R" horiz-adv-x="659" 
d="M636 505c-7 -42 -27 -80 -60 -114c-33 -35 -73 -57 -120 -67c26 -9 45 -27 58 -53c12 -27 21 -64 26 -113c1 -3 2 -9 4 -20c1 -11 2 -17 3 -19c0 -3 1 -8 2 -17s3 -15 4 -18s2 -8 4 -15c1 -7 3 -13 5 -16c1 -3 3 -8 5 -14s4 -11 7 -16l9 -15v-8l-105 2
c-8 15 -14 31 -17 50c-4 19 -7 41 -9 68s-4 45 -6 56c-5 19 -9 35 -13 47c-5 11 -11 23 -19 35c-9 12 -20 21 -35 26s-32 8 -53 8h-149l-52 -292h-95l126 714h271c78 0 135 -20 171 -59s49 -89 38 -150zM542 517c6 35 0 64 -19 85s-57 32 -113 32h-173l-46 -262h172
c49 0 90 13 121 39s50 61 58 106z" />
    <glyph glyph-name="S" unicode="S" horiz-adv-x="611" 
d="M496 509c-1 41 -14 75 -39 102c-26 27 -60 40 -101 40c-47 0 -85 -10 -114 -29c-30 -19 -45 -51 -45 -96c0 -32 9 -55 28 -70c18 -15 51 -30 98 -47c4 -1 15 -5 33 -11c17 -7 29 -11 34 -13s15 -6 31 -12c15 -7 26 -12 32 -15c5 -4 14 -10 27 -17c12 -8 21 -15 26 -21
s11 -14 20 -23c8 -10 14 -20 17 -30s6 -21 9 -34s4 -27 4 -41c0 -46 -13 -85 -39 -118s-58 -56 -95 -70s-78 -21 -122 -21c-85 0 -151 21 -200 62s-71 101 -66 181h94c-1 -55 15 -95 46 -122s73 -41 127 -41c46 0 84 12 115 35s46 56 46 99c0 14 -2 27 -7 38s-11 20 -17 27
s-16 14 -29 21s-24 13 -32 16s-21 7 -38 14c-18 6 -31 10 -38 13c-5 2 -15 6 -31 12c-16 5 -27 9 -33 12c-6 2 -16 6 -29 13c-14 6 -24 11 -29 16c-6 4 -14 10 -24 18c-11 7 -18 15 -23 23s-10 17 -15 28c-6 11 -10 23 -12 36s-3 27 -3 42c0 63 24 113 71 150s108 55 184 55
c72 0 129 -22 172 -66s63 -96 62 -157z" />
    <glyph glyph-name="T" unicode="T" horiz-adv-x="573" 
d="M633 714l-14 -80h-218l-113 -634h-95l113 634h-220l14 80h533z" />
    <glyph glyph-name="U" unicode="U" horiz-adv-x="670" 
d="M603 251c-14 -77 -46 -141 -95 -192s-116 -76 -199 -76c-91 0 -158 26 -200 78c-43 52 -57 117 -43 196l80 457h95l-81 -463c-9 -54 -1 -99 24 -134c25 -36 67 -54 126 -54c57 0 102 18 135 55c33 36 54 82 64 139l80 457h95z" />
    <glyph glyph-name="V" unicode="V" horiz-adv-x="666" 
d="M635 714h106l-393 -713l-121 -1l-140 714h102l112 -617h4z" />
    <glyph glyph-name="W" unicode="W" horiz-adv-x="918" 
d="M888 714h101l-313 -714h-128l-23 518c-1 13 -2 47 -2 100c-5 -11 -11 -29 -20 -53s-15 -41 -20 -52l-212 -513h-127l-53 714h99l29 -553c1 -28 3 -49 4 -62l26 67l224 548h130l23 -539c2 -51 3 -76 3 -77c12 27 23 55 34 83z" />
    <glyph glyph-name="X" unicode="X" horiz-adv-x="637" 
d="M700 714l-311 -352l197 -362h-119l-143 288l-251 -288h-116l324 371l-181 343h117l129 -270l239 270h115z" />
    <glyph glyph-name="Y" unicode="Y" horiz-adv-x="628" 
d="M690 714l-325 -422l-52 -292h-95l52 297l-172 417h107l127 -332l245 332h113z" />
    <glyph glyph-name="Z" unicode="Z" horiz-adv-x="620" 
d="M644 714l-14 -86l-489 -544h404l-15 -84h-520l14 86l492 544h-372l14 84h486z" />
    <glyph glyph-name="bracketleft" unicode="[" horiz-adv-x="275" 
d="M336 663h-107l-140 -793h107l-11 -68h-187l163 929h187z" />
    <glyph glyph-name="backslash" unicode="\" horiz-adv-x="345" 
d="M308 -17h-73l-164 748h73z" />
    <glyph glyph-name="bracketright" unicode="]" horiz-adv-x="275" 
d="M-59 -130h107l140 793h-107l12 68h187l-163 -929h-187z" />
    <glyph glyph-name="asciicircum" unicode="^" 
d="M274 697h64l218 -433h-70l-181 360l-178 -360h-71z" />
    <glyph glyph-name="underscore" unicode="_" horiz-adv-x="572" 
d="M-53 -75h560l-9 -50h-560z" />
    <glyph glyph-name="grave" unicode="`" horiz-adv-x="234" 
d="M182 714l65 -139h-66l-113 139h114z" />
    <glyph glyph-name="a" unicode="a" horiz-adv-x="542" 
d="M296 530c36 0 68 -4 95 -13s47 -20 61 -34c13 -14 24 -30 33 -48c8 -18 12 -36 11 -53c-1 -18 -2 -35 -3 -52l-35 -195c-4 -23 -7 -68 -10 -135h-98c1 27 4 53 8 78l2 12c-13 -26 -34 -49 -62 -70s-64 -32 -108 -32c-61 0 -107 17 -138 50s-43 72 -35 118
c5 30 17 55 35 75c17 20 42 35 74 44s56 15 72 18s40 5 73 8c4 1 7 1 8 1c79 7 122 33 131 78c3 21 -6 39 -27 53s-50 21 -85 21c-72 0 -115 -30 -129 -90h-90c9 46 31 85 67 118c36 32 86 48 150 48zM206 61c43 0 82 15 116 46c33 30 56 75 67 136l13 69
c-10 -21 -26 -38 -49 -52s-60 -24 -111 -31c-43 -5 -76 -14 -98 -25c-23 -12 -36 -31 -40 -56c-4 -26 3 -47 20 -63s44 -24 82 -24z" />
    <glyph glyph-name="b" unicode="b" horiz-adv-x="605" 
d="M374 529c74 0 129 -25 164 -76s45 -117 30 -199c-14 -79 -46 -143 -95 -192c-50 -49 -110 -74 -181 -74c-45 0 -81 12 -110 37c-29 24 -47 51 -53 81l-2 -3l-19 -103h-90l126 714h90l-52 -298c16 30 42 56 77 79s73 34 115 34zM480 266c10 56 4 101 -17 136
c-21 34 -57 51 -107 51c-55 0 -100 -19 -136 -57s-59 -84 -69 -139s-5 -100 16 -137c20 -37 56 -55 107 -55c55 0 100 19 136 56s59 85 70 145z" />
    <glyph glyph-name="c" unicode="c" horiz-adv-x="570" 
d="M516 158c-47 -113 -130 -170 -250 -170c-81 0 -143 26 -186 78s-57 118 -43 198c14 78 48 142 102 191s120 74 197 74c65 0 115 -15 151 -46s56 -72 61 -121h-87c-13 62 -55 93 -128 93c-53 0 -98 -19 -136 -57c-38 -39 -62 -87 -72 -146c-9 -54 -1 -99 24 -135
s63 -54 114 -54c71 0 124 32 161 95h92z" />
    <glyph glyph-name="d" unicode="d" horiz-adv-x="599" 
d="M531 714h90l-126 -714h-90l19 103l-1 -3c-15 -32 -38 -59 -70 -80c-33 -21 -72 -32 -118 -32c-74 0 -129 26 -165 79c-36 52 -47 118 -33 199c14 77 46 141 97 190s112 73 183 73c49 0 86 -12 113 -35s42 -52 46 -85h1zM249 65c61 0 108 19 141 56s55 84 65 142v3
c9 53 4 98 -17 134c-21 35 -56 53 -107 53c-54 0 -99 -19 -136 -58s-60 -86 -70 -141c-9 -54 -4 -99 17 -135c20 -36 56 -54 107 -54z" />
    <glyph glyph-name="e" unicode="e" horiz-adv-x="577" 
d="M536 232h-416c-3 -53 7 -95 32 -124c25 -30 60 -45 106 -45c77 0 131 30 163 91h92c-23 -54 -57 -95 -101 -123c-45 -29 -95 -43 -152 -43c-78 0 -138 26 -179 78c-41 51 -56 118 -43 201c13 81 46 145 99 192s116 70 191 70c46 0 85 -9 117 -27c31 -18 54 -41 67 -69
c13 -29 23 -61 28 -96s3 -70 -4 -105zM326 455c-45 0 -84 -14 -119 -42s-59 -64 -74 -109h323c4 45 -6 82 -30 110c-24 27 -57 41 -100 41z" />
    <glyph glyph-name="f" unicode="f" horiz-adv-x="306" 
d="M319 638c-42 0 -67 -20 -74 -60l-11 -61h88l-13 -74h-88l-78 -443h-88l78 443h-70l13 74h70l13 71c15 84 63 126 144 126h59l-13 -76h-30z" />
    <glyph glyph-name="g" unicode="g" horiz-adv-x="605" 
d="M497 517h90l-90 -496c-13 -73 -45 -127 -94 -164s-106 -55 -170 -55c-67 0 -121 16 -160 47c-40 31 -58 74 -54 129h89c-1 -35 9 -61 31 -76c21 -16 53 -24 94 -24c97 0 156 50 175 149l16 81c-15 -31 -38 -55 -70 -74s-71 -28 -117 -28c-73 0 -128 26 -164 78
s-47 118 -33 198c13 76 45 136 95 181c49 44 110 66 182 66c49 0 86 -12 113 -35s42 -52 46 -85h2zM251 83c60 0 107 17 140 51s55 77 64 129v3c9 53 4 98 -17 134c-21 35 -56 53 -107 53c-55 0 -100 -17 -135 -51c-36 -34 -59 -78 -68 -132c-9 -53 -4 -98 17 -133
c20 -36 55 -54 106 -54z" />
    <glyph glyph-name="h" unicode="h" horiz-adv-x="554" 
d="M350 529c65 0 111 -18 137 -55c25 -37 33 -85 22 -142l-59 -332h-90l58 329c8 45 5 77 -8 96s-37 28 -72 28c-44 0 -82 -14 -115 -43s-55 -76 -66 -139v8l-49 -279h-90l126 714h90l-53 -302h1c12 33 33 60 63 83c29 23 64 34 105 34z" />
    <glyph glyph-name="i" unicode="i" horiz-adv-x="222" 
d="M221 610h-96l18 100h96zM20 0l92 517h90l-92 -517h-90z" />
    <glyph glyph-name="j" unicode="j" horiz-adv-x="242" 
d="M240 610h-96l18 100h96zM222 517l-104 -588c-15 -84 -63 -126 -144 -126h-64l13 76h35c23 0 40 4 51 12s18 23 22 46l103 580h88z" />
    <glyph glyph-name="k" unicode="k" horiz-adv-x="540" 
d="M558 517l-266 -201l193 -316h-103l-157 265l-81 -62l-36 -203h-90l126 714h90l-72 -408l273 211h123z" />
    <glyph glyph-name="l" unicode="l" horiz-adv-x="226" 
d="M148 714h90l-126 -714h-90z" />
    <glyph glyph-name="m" unicode="m" horiz-adv-x="824" 
d="M638 529c60 0 101 -18 124 -55c22 -37 28 -85 17 -142l-59 -332h-90l58 329c7 43 5 74 -6 94s-33 30 -65 30c-81 0 -132 -61 -153 -182v6l-49 -277h-89l58 329c7 43 6 74 -5 94s-33 30 -64 30c-85 0 -137 -61 -158 -182v5l-49 -276h-90l92 517h90l-19 -105
c12 33 32 60 59 83s60 34 97 34c83 0 130 -36 140 -109h2c13 29 34 54 63 76s61 33 96 33z" />
    <glyph glyph-name="n" unicode="n" horiz-adv-x="554" 
d="M350 529c65 0 111 -18 137 -55c25 -37 33 -85 22 -142l-59 -332h-90l58 329c8 45 5 77 -8 96s-37 28 -72 28c-44 0 -82 -14 -115 -43s-55 -76 -66 -139v5l-49 -276h-90l92 517h90l-19 -105h1c12 33 33 60 63 83c29 23 64 34 105 34z" />
    <glyph glyph-name="o" unicode="o" horiz-adv-x="602" 
d="M266 -12c-81 0 -143 26 -186 78s-57 118 -43 198c14 78 48 142 102 191s120 74 197 74c81 0 143 -26 186 -78c43 -53 57 -119 43 -199c-14 -78 -48 -141 -102 -190s-120 -74 -197 -74zM266 64c53 0 99 19 138 57c39 37 63 85 73 143c9 54 1 99 -25 135
c-27 36 -65 54 -116 54c-53 0 -99 -19 -138 -57s-63 -86 -73 -144c-9 -54 -1 -99 26 -134c26 -36 64 -54 115 -54z" />
    <glyph glyph-name="p" unicode="p" horiz-adv-x="605" 
d="M370 529c75 0 130 -26 166 -77c35 -52 46 -118 32 -198c-14 -77 -46 -141 -97 -191s-112 -75 -183 -75c-49 0 -86 12 -113 35s-42 50 -46 83l-2 -3l-54 -303h-90l127 717h90l-18 -102c15 33 38 60 71 82c32 21 71 32 117 32zM480 266c9 53 4 97 -17 133s-56 54 -107 54
c-54 0 -99 -19 -135 -57c-37 -39 -60 -85 -70 -139c-23 -129 18 -193 123 -193c55 0 100 20 137 59c36 39 59 86 69 143z" />
    <glyph glyph-name="q" unicode="q" horiz-adv-x="605" 
d="M497 517h90l-127 -717h-90l54 303l-1 -3c-15 -32 -38 -59 -70 -80c-33 -21 -72 -32 -118 -32c-74 0 -129 26 -165 79c-36 52 -47 118 -33 199c14 77 46 141 97 190s112 73 183 73c49 0 86 -12 113 -35s42 -52 46 -85h2zM249 64c60 0 107 19 141 57c33 37 55 85 65 142v3
c9 53 4 98 -17 134c-21 35 -56 53 -107 53c-54 0 -99 -19 -136 -58s-60 -86 -70 -141c-9 -54 -4 -99 16 -135c20 -37 56 -55 108 -55z" />
    <glyph glyph-name="r" unicode="r" horiz-adv-x="345" 
d="M179 397c20 45 46 78 78 100c31 22 66 31 104 27l-17 -88c-49 -1 -91 -18 -124 -51c-34 -34 -57 -82 -68 -143l-44 -242h-90l92 517h90z" />
    <glyph glyph-name="s" unicode="s" horiz-adv-x="495" 
d="M373 366c-3 58 -36 87 -99 87c-69 0 -107 -23 -112 -68c-1 -11 0 -21 5 -30s10 -17 17 -23s17 -12 32 -17c15 -6 27 -10 37 -13c9 -3 24 -7 43 -12c105 -27 153 -80 144 -158c-3 -27 -11 -50 -25 -69s-31 -34 -52 -45s-42 -18 -64 -23c-23 -5 -46 -7 -71 -7
c-34 0 -66 6 -95 17s-55 31 -76 60c-22 28 -33 62 -33 102h88c9 -69 49 -103 119 -103c32 0 59 6 82 19c23 12 35 31 38 56c1 13 -1 24 -6 34c-6 9 -16 18 -31 25s-28 13 -40 17c-13 4 -31 9 -54 16c-23 6 -42 12 -57 19c-16 7 -32 16 -49 28s-28 28 -35 47s-9 42 -6 67
c7 46 30 80 69 103s84 34 135 34c57 0 101 -13 134 -40s49 -68 49 -123h-87z" />
    <glyph glyph-name="t" unicode="t" horiz-adv-x="310" 
d="M213 443l-53 -301c-8 -45 6 -68 41 -68h35l-13 -74h-47c-43 0 -72 14 -89 41s-22 61 -15 101l53 301h-76l13 74h76l22 127l92 40h4l-30 -167h100l-13 -74h-100z" />
    <glyph glyph-name="u" unicode="u" horiz-adv-x="556" 
d="M448 517h90l-92 -517h-90l19 105h-1c-12 -33 -33 -60 -62 -83c-30 -23 -65 -34 -106 -34c-65 0 -111 19 -136 56c-26 37 -34 84 -23 141l59 332h90l-58 -329c-8 -45 -5 -76 8 -95s37 -29 72 -29c44 0 83 15 116 44s54 75 65 138v-5z" />
    <glyph glyph-name="v" unicode="v" horiz-adv-x="547" 
d="M69 517h96l78 -421l229 421h100l-294 -517h-99z" />
    <glyph glyph-name="w" unicode="w" horiz-adv-x="781" 
d="M710 517h93l-244 -517h-95l-40 445l-198 -445h-95l-61 517h91l32 -425l184 425h116l34 -425z" />
    <glyph glyph-name="x" unicode="x" horiz-adv-x="536" 
d="M558 517l-241 -247l158 -270h-106l-114 203l-182 -203h-106l250 268l-152 249h106l108 -182l174 182h105z" />
    <glyph glyph-name="y" unicode="y" horiz-adv-x="528" 
d="M469 517h98l-344 -620c-35 -65 -83 -97 -146 -97h-73l14 76h53c15 0 29 4 41 11c11 7 20 15 25 22s11 19 20 35l28 48l-122 525h94l87 -428z" />
    <glyph glyph-name="z" unicode="z" horiz-adv-x="512" 
d="M516 517l-9 -54l-381 -387h320l-14 -76h-436l10 61l376 380h-286l14 76h406z" />
    <glyph glyph-name="braceleft" unicode="{" horiz-adv-x="345" 
d="M388 671h-50c-33 0 -54 -29 -63 -86l-33 -183c-7 -41 -22 -72 -46 -94c-24 -23 -45 -36 -64 -40l-1 -3c18 -3 35 -15 51 -36s20 -54 13 -98l-33 -183c-10 -57 1 -86 33 -86h50l-10 -60h-70c-27 0 -50 12 -68 36c-19 23 -24 55 -17 95l32 182c6 35 3 64 -10 85
s-30 32 -53 32l12 68c22 0 43 11 64 34c21 22 34 50 40 84l32 182c7 40 24 72 51 96c26 23 53 35 80 35h70z" />
    <glyph glyph-name="bar" unicode="|" horiz-adv-x="234" 
d="M83 786h68v-1000h-68v1000z" />
    <glyph glyph-name="braceright" unicode="}" horiz-adv-x="345" 
d="M-40 -138h50c33 0 54 29 63 86l33 183c7 41 22 72 46 95c24 22 45 35 64 39l1 3c-18 3 -35 15 -51 36c-17 21 -21 54 -13 98l32 181c11 59 0 88 -32 88h-50l10 60h70c27 0 50 -12 69 -35c18 -24 23 -56 16 -96l-32 -182c-6 -35 -3 -64 10 -85c12 -22 29 -33 52 -33
l-12 -68c-22 0 -43 -11 -63 -33c-21 -23 -34 -51 -40 -84l-32 -182c-7 -40 -24 -72 -50 -95c-27 -24 -54 -36 -81 -36h-70z" />
    <glyph glyph-name="asciitilde" unicode="~" 
d="M539 269c-23 -27 -45 -48 -66 -63s-46 -23 -74 -23c-31 0 -63 11 -96 33c-40 26 -76 39 -109 39s-65 -25 -97 -76l-27 50c37 57 84 86 140 86c25 0 60 -11 105 -32c6 -3 17 -8 32 -16c15 -9 27 -15 37 -18c9 -4 18 -6 26 -6c6 0 12 1 17 2s11 4 16 7s10 7 14 10
s9 7 15 13s10 11 13 14s7 8 14 15s11 12 13 15z" />
    <glyph glyph-name="uni00A0" unicode="&#xa0;" horiz-adv-x="290" 
 />
    <glyph glyph-name="exclamdown" unicode="&#xa1;" horiz-adv-x="250" 
d="M96 405l20 114h104l-20 -114h-104zM133 55l-44 -250h-95l44 250l71 274h49z" />
    <glyph glyph-name="cent" unicode="&#xa2;" horiz-adv-x="568" 
d="M449 351c-2 63 -35 97 -98 102l-69 -389c36 3 66 17 91 40c24 23 42 51 53 85h85c-15 -53 -44 -98 -85 -136c-42 -39 -94 -60 -157 -64l-18 -104h-39l18 104c-69 4 -119 29 -152 74s-42 108 -27 189c13 75 44 138 92 191c48 52 109 81 182 86l17 95h39l-17 -94
c121 -5 179 -65 172 -179h-87zM141 252c-11 -59 -6 -103 13 -134s49 -49 90 -54l68 389c-43 -5 -79 -24 -109 -57s-51 -81 -62 -144z" />
    <glyph glyph-name="sterling" unicode="&#xa3;" horiz-adv-x="568" 
d="M573 514h-91c5 49 -1 85 -19 108c-19 22 -51 33 -96 33c-40 0 -76 -12 -108 -37s-51 -56 -58 -93c-2 -13 -3 -24 -3 -35c-1 -11 0 -22 3 -34c3 -13 5 -22 6 -27s5 -15 10 -30l9 -27h173l-8 -45h-150c7 -26 9 -51 6 -75c-7 -41 -25 -76 -53 -103c-29 -27 -73 -60 -133 -97
l1 -2c51 27 96 40 135 40c35 0 70 -5 105 -14c37 -12 64 -18 81 -18c28 0 60 12 95 37l39 -65c-41 -31 -95 -47 -162 -47c-23 0 -55 7 -95 20c-39 14 -83 21 -131 21c-33 0 -68 -12 -107 -35l-28 59c1 1 8 6 21 16s21 16 24 19c3 2 10 8 22 17s20 16 24 21c3 4 10 11 20 20
c9 9 16 16 20 22c3 6 8 13 14 22c6 8 11 16 14 24s5 16 6 25c4 29 1 60 -9 93h-95l8 45h69c-22 56 -29 108 -20 156c11 61 41 111 92 148s108 55 171 55c153 0 219 -72 198 -217z" />
    <glyph glyph-name="currency" unicode="&#xa4;" horiz-adv-x="568" 
d="M534 351c0 -55 -17 -105 -52 -150l55 -56l-47 -47l-54 57c-45 -36 -95 -54 -150 -54c-57 0 -108 18 -153 54l-54 -58l-48 48l54 58c-34 45 -51 93 -51 146c0 55 17 105 52 150l-55 56l49 49l56 -56c45 34 95 51 151 51c53 0 101 -16 144 -49l56 55l50 -51l-55 -55
c35 -45 52 -95 52 -148zM286 176c46 0 85 17 116 51s47 75 47 124c0 47 -16 88 -47 122s-70 51 -115 51c-47 0 -87 -17 -119 -50c-33 -34 -49 -76 -49 -125s16 -90 49 -123c32 -33 71 -50 118 -50z" />
    <glyph glyph-name="yen" unicode="&#xa5;" horiz-adv-x="568" 
d="M223 174h-141l11 60h141l7 42l-12 33h-123l10 60h92l-122 345h109l112 -353l231 353h104l-239 -345h93l-10 -60h-126l-24 -33l-7 -42h144l-11 -60h-144l-31 -174h-95z" />
    <glyph glyph-name="brokenbar" unicode="&#xa6;" horiz-adv-x="234" 
d="M151 411h-68v250h68v-250zM83 161h68v-250h-68v250z" />
    <glyph glyph-name="section" unicode="&#xa7;" horiz-adv-x="568" 
d="M446 551c5 31 -1 56 -18 76c-17 19 -41 29 -73 29c-28 0 -52 -7 -72 -22c-21 -15 -33 -36 -38 -64c-3 -14 -1 -27 4 -39s15 -24 30 -37s28 -23 38 -30s28 -17 53 -32c7 -4 12 -7 15 -9c23 -14 41 -26 56 -36c14 -11 29 -24 44 -40s25 -34 30 -53c5 -20 6 -42 2 -65
c-5 -31 -21 -58 -48 -82s-58 -43 -93 -56c42 -32 58 -75 49 -129c-9 -47 -33 -86 -73 -115c-40 -30 -87 -45 -142 -45c-61 0 -107 16 -140 49s-46 78 -39 136h85c-5 -33 2 -60 23 -80c20 -20 47 -30 82 -30c27 0 51 7 74 22s36 35 41 61c3 15 2 28 -2 41
c-5 12 -15 25 -30 38s-27 23 -36 29s-27 17 -52 32c-11 7 -20 13 -26 16c-24 14 -43 27 -58 38s-30 25 -45 42c-16 17 -27 37 -32 58c-6 21 -7 45 -2 71c5 30 22 57 49 82c27 24 56 40 89 49c-31 34 -42 72 -34 113c9 49 34 89 76 118s88 44 137 44c57 0 101 -15 131 -45
c29 -30 39 -75 30 -135h-85zM135 329c-3 -18 -1 -35 7 -50c7 -15 16 -27 26 -35c10 -9 23 -19 40 -30c5 -3 9 -6 11 -7c48 -27 90 -55 125 -83c52 20 82 51 89 93c3 5 3 10 1 17c-2 6 -3 11 -2 15c0 3 -2 8 -6 14c-4 5 -7 10 -8 13s-5 7 -10 12s-9 8 -11 11
c-3 2 -7 5 -13 10c-6 4 -10 7 -12 9c-3 2 -7 5 -13 9s-10 7 -12 8c-63 43 -104 71 -123 85c-21 -7 -40 -18 -57 -35s-28 -35 -32 -56z" />
    <glyph glyph-name="dieresis" unicode="&#xa8;" horiz-adv-x="338" 
d="M94 714h90l-18 -104h-90zM274 714h90l-18 -104h-90z" />
    <glyph glyph-name="copyright" unicode="&#xa9;" horiz-adv-x="820" 
d="M411 -44c-106 0 -197 37 -272 111c-75 73 -113 164 -113 272c0 107 38 197 114 270c75 73 166 109 271 109s196 -36 271 -109s112 -163 112 -270c0 -108 -37 -199 -112 -272c-75 -74 -166 -111 -271 -111zM411 18c87 0 160 31 219 92s88 138 88 229c0 89 -29 165 -88 226
s-132 91 -219 91c-88 0 -161 -30 -220 -91s-89 -137 -89 -226c0 -91 30 -168 89 -229s132 -92 220 -92zM602 266c-8 -37 -29 -70 -62 -99s-75 -44 -125 -44c-64 0 -116 21 -155 64c-40 42 -60 93 -60 152s20 110 59 152s91 63 156 63c47 0 86 -14 117 -41
c31 -28 54 -62 67 -101h-70c-10 25 -23 45 -40 59c-17 13 -42 20 -74 20c-46 0 -81 -14 -106 -41c-25 -28 -37 -65 -37 -111c0 -45 13 -82 39 -110c25 -29 60 -43 104 -42c35 1 61 8 79 21s31 33 39 58h69z" />
    <glyph glyph-name="guillemotleft" unicode="&#xab;" horiz-adv-x="414" 
d="M11 266l165 214h80l-150 -214l75 -214h-80zM186 266l165 214h80l-150 -214l75 -214h-80z" />
    <glyph glyph-name="logicalnot" unicode="&#xac;" 
d="M558 109h-68v211h-436v68h504v-279z" />
    <glyph glyph-name="uni00AD" unicode="&#xad;" horiz-adv-x="401" 
d="M66 318h289l-14 -80h-289z" />
    <glyph glyph-name="registered" unicode="&#xae;" horiz-adv-x="820" 
d="M411 718c105 0 196 -36 271 -109s112 -163 112 -270c0 -108 -37 -199 -112 -272c-75 -74 -166 -111 -271 -111c-106 0 -197 37 -272 111c-75 73 -113 164 -113 272c0 107 38 197 114 270c75 73 166 109 271 109zM411 18c87 0 160 31 219 92s88 138 88 229
c0 89 -29 165 -88 226s-132 91 -219 91c-88 0 -161 -30 -220 -91s-89 -137 -89 -226c0 -91 30 -168 89 -229s132 -92 220 -92zM534 291c14 -21 23 -42 28 -63c9 -37 21 -67 38 -88v-6h-67c-7 10 -13 21 -17 32s-8 23 -11 37c-4 13 -7 23 -9 29c-15 44 -43 66 -83 66h-87
v-164h-67v409h186c42 0 74 -11 96 -33s33 -48 33 -78c0 -65 -32 -100 -97 -107c25 -4 44 -15 57 -34zM326 357h106c29 0 50 6 62 18c11 12 17 31 17 56c0 40 -26 60 -79 60h-106v-134z" />
    <glyph glyph-name="macron" unicode="&#xaf;" horiz-adv-x="401" 
d="M85 682h341l-10 -55h-341z" />
    <glyph glyph-name="degree" unicode="&#xb0;" horiz-adv-x="412" 
d="M206 709c39 0 73 -14 102 -42c28 -29 42 -63 42 -102c0 -40 -14 -74 -42 -102s-62 -42 -102 -42c-41 0 -75 14 -102 42c-28 27 -42 61 -42 102c0 40 14 74 42 102s62 42 102 42zM206 471c28 0 51 10 68 29s26 40 26 65s-9 47 -26 66s-40 28 -68 28s-51 -9 -68 -28
s-26 -41 -26 -66s9 -46 26 -65s40 -29 68 -29z" />
    <glyph glyph-name="plusminus" unicode="&#xb1;" 
d="M54 339h218v166h68v-166h218v-68h-218v-167h-68v167h-218v68zM54 68h504v-68h-504v68z" />
    <glyph glyph-name="acute" unicode="&#xb4;" horiz-adv-x="255" 
d="M182 714h114l-161 -139h-66z" />
    <glyph glyph-name="uni00B5" unicode="&#xb5;" horiz-adv-x="568" 
d="M498 0h-80v102h-2c-7 -44 -23 -74 -47 -90s-57 -24 -99 -24c-30 0 -55 8 -75 25c-20 16 -33 37 -38 63h-2v-274h-85v715h85v-330c0 -43 10 -75 31 -94c21 -20 49 -30 84 -30c49 0 86 15 109 44s34 69 34 118v292h85v-517z" />
    <glyph glyph-name="paragraph" unicode="&#xb6;" 
d="M449 -155h-66l144 814h-125l-144 -814h-66l81 461c-60 0 -107 20 -141 60s-46 87 -36 140c11 65 41 116 89 153c47 37 106 55 177 55h240z" />
    <glyph glyph-name="periodcentered" unicode="&#xb7;" horiz-adv-x="290" 
d="M145 375c17 0 32 -6 45 -19s19 -28 19 -45c0 -16 -6 -31 -19 -44s-28 -20 -44 -20c-17 0 -32 6 -45 19s-20 28 -20 45s6 32 19 45s28 19 45 19z" />
    <glyph glyph-name="cedilla" unicode="&#xb8;" horiz-adv-x="260" 
d="M-30 -141c17 -13 36 -19 57 -19c16 0 31 3 45 8c13 5 21 12 23 23c1 9 -2 17 -9 23c-8 5 -19 8 -33 8c-11 0 -25 -3 -42 -8l-20 39l71 67h53l-51 -53l2 -2c7 5 19 7 34 7c23 0 42 -6 56 -19s19 -31 15 -54c-5 -31 -22 -53 -49 -67c-28 -15 -58 -22 -91 -22s-63 7 -89 20z
" />
    <glyph glyph-name="guillemotright" unicode="&#xbb;" horiz-adv-x="414" 
d="M230 266l-164 -214h-80l149 214l-74 214h80zM405 266l-164 -214h-80l149 214l-74 214h80z" />
    <glyph glyph-name="questiondown" unicode="&#xbf;" horiz-adv-x="563" 
d="M411 405h-104l41 114h104zM446 35l-11 -31c-23 -65 -61 -118 -114 -157s-111 -59 -174 -59c-65 0 -110 19 -137 58c-27 38 -29 87 -8 148c9 25 22 49 41 72c18 23 32 40 43 49c10 9 29 25 57 48c26 18 46 32 60 43c13 10 29 25 46 44s29 39 36 59l6 20h90l-11 -34
c-11 -30 -26 -57 -46 -82c-21 -25 -42 -45 -65 -62s-46 -34 -68 -49c-23 -16 -43 -34 -62 -54c-19 -21 -32 -43 -41 -66c-12 -35 -12 -64 1 -85c13 -22 37 -33 72 -33c39 0 76 14 111 41s60 62 75 105l9 25h90z" />
    <glyph glyph-name="Agrave" unicode="&#xc0;" horiz-adv-x="707" 
d="M529 772h-100l-140 113h134zM547 0l-42 213h-315l-118 -213h-100l402 714h119l150 -714h-96zM233 291h256l-67 338h-3z" />
    <glyph glyph-name="Aacute" unicode="&#xc1;" horiz-adv-x="707" 
d="M613 885l-180 -113h-100l146 113h134zM547 0l-42 213h-315l-118 -213h-100l402 714h119l150 -714h-96zM233 291h256l-67 338h-3z" />
    <glyph glyph-name="Acircumflex" unicode="&#xc2;" horiz-adv-x="707" 
d="M454 842l-76 -78h-100l135 127h100l91 -127h-100zM547 0l-42 213h-315l-118 -213h-100l402 714h119l150 -714h-96zM233 291h256l-67 338h-3z" />
    <glyph glyph-name="Atilde" unicode="&#xc3;" horiz-adv-x="707" 
d="M369 819c-21 0 -40 -14 -56 -42h-52c29 73 70 110 125 110c19 0 42 -7 70 -20s49 -20 62 -20c22 0 40 15 54 44h52c-11 -33 -26 -60 -47 -80c-21 -21 -45 -31 -73 -31c-19 0 -43 7 -72 20s-50 19 -63 19zM547 0l-42 213h-315l-118 -213h-100l402 714h119l150 -714h-96z
M233 291h256l-67 338h-3z" />
    <glyph glyph-name="Adieresis" unicode="&#xc4;" horiz-adv-x="707" 
d="M403 886l-18 -104h-90l18 104h90zM571 886l-18 -104h-90l18 104h90zM547 0l-42 213h-315l-118 -213h-100l402 714h119l150 -714h-96zM233 291h256l-67 338h-3z" />
    <glyph glyph-name="Aring" unicode="&#xc5;" horiz-adv-x="707" 
d="M432 769c-29 0 -53 11 -70 32c-18 21 -24 46 -19 76s20 56 45 77s52 31 82 31c29 0 53 -10 70 -31s24 -47 19 -77s-20 -55 -45 -76s-53 -32 -82 -32zM390 876c-3 -18 0 -33 9 -44c9 -12 23 -18 41 -18s34 6 47 18c13 11 22 26 25 44s0 33 -9 45c-10 11 -24 17 -42 17
s-33 -6 -46 -17c-13 -12 -22 -27 -25 -45zM547 0l-42 213h-315l-118 -213h-100l402 714h119l150 -714h-96zM233 291h256l-67 338h-3z" />
    <glyph glyph-name="AE" unicode="&#xc6;" horiz-adv-x="1005" 
d="M1016 634h-354l-41 -231h333l-14 -80h-333l-43 -243h358l-15 -80h-452l39 221h-250l-162 -221h-110l531 714h527zM301 299h207l59 335h-21z" />
    <glyph glyph-name="Ccedilla" unicode="&#xc7;" horiz-adv-x="791" 
d="M387 63c118 0 203 51 254 153h95c-23 -63 -64 -116 -122 -160c-58 -45 -128 -69 -209 -73l-36 -32c8 2 16 3 25 3c25 0 45 -7 59 -21c13 -15 15 -34 6 -58c-11 -29 -30 -50 -59 -63s-59 -20 -90 -20c-34 0 -64 7 -90 21l32 48c13 -11 32 -17 56 -17c39 0 63 12 74 37
c3 8 2 14 -3 18c-5 3 -14 5 -27 5s-28 -3 -46 -9l-18 40l61 49c-104 9 -181 49 -232 122c-51 72 -68 158 -51 257c19 104 66 191 141 262s169 106 280 106c87 0 155 -21 204 -63s79 -97 92 -164h-92c-11 49 -33 85 -66 110s-79 37 -139 37c-87 0 -159 -29 -217 -87
c-59 -58 -95 -129 -110 -213c-13 -80 0 -148 41 -204c40 -56 102 -84 187 -84z" />
    <glyph glyph-name="Egrave" unicode="&#xc8;" horiz-adv-x="580" 
d="M456 772h-100l-140 113h134zM591 634h-354l-41 -231h333l-14 -80h-333l-43 -243h358l-15 -80h-452l126 714h449z" />
    <glyph glyph-name="Eacute" unicode="&#xc9;" horiz-adv-x="580" 
d="M609 885l-180 -113h-100l146 113h134zM605 714l-14 -80h-354l-41 -231h333l-14 -80h-333l-43 -243h358l-15 -80h-452l126 714h449z" />
    <glyph glyph-name="Ecircumflex" unicode="&#xca;" horiz-adv-x="580" 
d="M408 842l-76 -78h-100l135 127h100l91 -127h-100zM591 634h-354l-41 -231h333l-14 -80h-333l-43 -243h358l-15 -80h-452l126 714h449z" />
    <glyph glyph-name="Edieresis" unicode="&#xcb;" horiz-adv-x="580" 
d="M374 886l-18 -104h-90l18 104h90zM542 886l-18 -104h-90l18 104h90zM591 634h-354l-41 -231h333l-14 -80h-333l-43 -243h358l-15 -80h-452l126 714h449z" />
    <glyph glyph-name="Igrave" unicode="&#xcc;" horiz-adv-x="263" 
d="M186 885l106 -113h-100l-140 113h134zM164 714h95l-126 -714h-95z" />
    <glyph glyph-name="Iacute" unicode="&#xcd;" horiz-adv-x="263" 
d="M297 885h134l-180 -113h-100zM164 714h95l-126 -714h-95z" />
    <glyph glyph-name="Icircumflex" unicode="&#xce;" horiz-adv-x="263" 
d="M292 891l91 -127h-100l-50 78l-76 -78h-100l135 127h100zM38 0l126 714h95l-126 -714h-95z" />
    <glyph glyph-name="Idieresis" unicode="&#xcf;" horiz-adv-x="263" 
d="M108 886h90l-18 -104h-90zM276 886h90l-18 -104h-90zM164 714h95l-126 -714h-95z" />
    <glyph glyph-name="Eth" unicode="&#xd0;" horiz-adv-x="705" 
d="M367 714c116 0 201 -32 256 -95c54 -63 71 -149 52 -256c-19 -106 -66 -193 -141 -261s-169 -102 -280 -102h-225l56 319h-92v68h104l58 327h212zM582 375c15 86 3 151 -38 194s-100 65 -179 65h-129l-44 -247h180v-68h-192l-42 -239h126c76 0 144 26 204 78
c60 51 98 124 114 217z" />
    <glyph glyph-name="Ntilde" unicode="&#xd1;" horiz-adv-x="719" 
d="M648 891c-11 -33 -26 -60 -47 -80c-21 -21 -45 -31 -73 -31c-19 0 -43 7 -72 20s-50 19 -63 19c-21 0 -40 -14 -56 -42h-52c29 73 70 110 125 110c19 0 42 -7 70 -20s49 -20 62 -20c22 0 40 15 54 44h52zM156 714h113l198 -453c35 -79 54 -121 57 -128c3 15 13 65 28 149
l76 432h95l-126 -714h-115l-197 450c-6 13 -15 33 -27 62c-12 28 -22 49 -29 63c-4 -19 -14 -70 -29 -154l-75 -421h-95z" />
    <glyph glyph-name="Ograve" unicode="&#xd2;" horiz-adv-x="836" 
d="M490 885l106 -113h-100l-140 113h134zM485 731c76 0 141 -17 194 -52s91 -82 112 -139c21 -58 25 -121 13 -189c-19 -104 -66 -191 -141 -262s-168 -106 -277 -106c-76 0 -141 18 -194 53s-91 81 -112 139c-21 57 -26 120 -14 188c19 104 66 191 141 262s168 106 278 106
zM387 63c86 0 158 29 216 88c57 59 93 129 108 212c9 50 6 97 -7 140c-14 43 -40 79 -78 107c-39 27 -86 41 -142 41c-86 0 -158 -29 -216 -88s-94 -130 -109 -212c-14 -77 0 -145 41 -202s103 -86 187 -86z" />
    <glyph glyph-name="Oacute" unicode="&#xd3;" horiz-adv-x="836" 
d="M559 885h134l-180 -113h-100zM485 731c76 0 141 -17 194 -52s91 -82 112 -139c21 -58 25 -121 13 -189c-19 -104 -66 -191 -141 -262s-168 -106 -277 -106c-76 0 -141 18 -194 53s-91 81 -112 139c-21 57 -26 120 -14 188c19 104 66 191 141 262s168 106 278 106zM387 63
c86 0 158 29 216 88c57 59 93 129 108 212c9 50 6 97 -7 140c-14 43 -40 79 -78 107c-39 27 -86 41 -142 41c-86 0 -158 -29 -216 -88s-94 -130 -109 -212c-14 -77 0 -145 41 -202s103 -86 187 -86z" />
    <glyph glyph-name="Ocircumflex" unicode="&#xd4;" horiz-adv-x="836" 
d="M515 842l-76 -78h-100l135 127h100l91 -127h-100zM485 731c76 0 141 -17 194 -52s91 -82 112 -139c21 -58 25 -121 13 -189c-19 -104 -66 -191 -141 -262s-168 -106 -277 -106c-76 0 -141 18 -194 53s-91 81 -112 139c-21 57 -26 120 -14 188c19 104 66 191 141 262
s168 106 278 106zM711 363c9 50 6 97 -7 140c-14 43 -40 79 -78 107c-39 27 -86 41 -142 41c-86 0 -158 -29 -216 -88s-94 -130 -109 -212c-14 -77 0 -145 41 -202s103 -86 187 -86c86 0 158 29 216 88c57 59 93 129 108 212z" />
    <glyph glyph-name="Otilde" unicode="&#xd5;" horiz-adv-x="836" 
d="M699 891c-11 -33 -26 -60 -47 -80c-21 -21 -45 -31 -73 -31c-19 0 -43 7 -72 20s-50 19 -63 19c-21 0 -40 -14 -56 -42h-52c29 73 70 110 125 110c19 0 42 -7 70 -20s49 -20 62 -20c22 0 40 15 54 44h52zM485 731c76 0 141 -17 194 -52s91 -82 112 -139
c21 -58 25 -121 13 -189c-19 -104 -66 -191 -141 -262s-168 -106 -277 -106c-76 0 -141 18 -194 53s-91 81 -112 139c-21 57 -26 120 -14 188c19 104 66 191 141 262s168 106 278 106zM387 63c86 0 158 29 216 88c57 59 93 129 108 212c9 50 6 97 -7 140
c-14 43 -40 79 -78 107c-39 27 -86 41 -142 41c-86 0 -158 -29 -216 -88s-94 -130 -109 -212c-14 -77 0 -145 41 -202s103 -86 187 -86z" />
    <glyph glyph-name="Odieresis" unicode="&#xd6;" horiz-adv-x="836" 
d="M390 886h90l-18 -104h-90zM558 886h90l-18 -104h-90zM485 731c76 0 141 -17 194 -52s91 -82 112 -139c21 -58 25 -121 13 -189c-19 -104 -66 -191 -141 -262s-168 -106 -277 -106c-76 0 -141 18 -194 53s-91 81 -112 139c-21 57 -26 120 -14 188c19 104 66 191 141 262
s168 106 278 106zM387 63c86 0 158 29 216 88c57 59 93 129 108 212c9 50 6 97 -7 140c-14 43 -40 79 -78 107c-39 27 -86 41 -142 41c-86 0 -158 -29 -216 -88s-94 -130 -109 -212c-14 -77 0 -145 41 -202s103 -86 187 -86z" />
    <glyph glyph-name="multiply" unicode="&#xd7;" 
d="M74 76l179 178l-178 177l54 54l178 -177l177 178l54 -54l-177 -178l178 -179l-54 -54l-178 180l-179 -179z" />
    <glyph glyph-name="Oslash" unicode="&#xd8;" horiz-adv-x="836" 
d="M744 619c59 -72 79 -161 60 -268c-19 -104 -66 -191 -141 -262s-168 -106 -277 -106c-88 0 -161 24 -219 71l-74 -73l-32 30l74 73c-31 35 -53 77 -65 126c-12 48 -13 99 -4 153c19 104 66 191 141 262s168 106 278 106c94 0 170 -27 229 -80l40 39l31 -31zM159 351
c-14 -80 0 -148 42 -203l449 441c-41 41 -97 62 -166 62c-86 0 -158 -29 -216 -88s-94 -130 -109 -212zM711 363c13 74 2 138 -33 191l-447 -438c41 -35 93 -53 156 -53c86 0 158 29 216 88c57 59 93 129 108 212z" />
    <glyph glyph-name="Ugrave" unicode="&#xd9;" horiz-adv-x="670" 
d="M397 885l106 -113h-100l-140 113h134zM603 251c-14 -77 -46 -141 -95 -192s-116 -76 -199 -76c-91 0 -158 26 -200 78c-43 52 -57 117 -43 196l80 457h95l-81 -463c-9 -54 -1 -99 24 -134c25 -36 67 -54 126 -54c57 0 102 18 135 55c33 36 54 82 64 139l80 457h95z" />
    <glyph glyph-name="Uacute" unicode="&#xda;" horiz-adv-x="670" 
d="M491 885h134l-180 -113h-100zM603 251c-14 -77 -46 -141 -95 -192s-116 -76 -199 -76c-91 0 -158 26 -200 78c-43 52 -57 117 -43 196l80 457h95l-81 -463c-9 -54 -1 -99 24 -134c25 -36 67 -54 126 -54c57 0 102 18 135 55c33 36 54 82 64 139l80 457h95z" />
    <glyph glyph-name="Ucircumflex" unicode="&#xdb;" horiz-adv-x="670" 
d="M434 842l-76 -78h-100l135 127h100l91 -127h-100zM589 714h95l-81 -463c-14 -77 -46 -141 -95 -192s-116 -76 -199 -76c-91 0 -158 26 -200 78c-43 52 -57 117 -43 196l80 457h95l-81 -463c-9 -54 -1 -99 24 -134c25 -36 67 -54 126 -54c57 0 102 18 135 55
c33 36 54 82 64 139z" />
    <glyph glyph-name="Udieresis" unicode="&#xdc;" horiz-adv-x="670" 
d="M317 886h90l-18 -104h-90zM485 886h90l-18 -104h-90zM603 251c-14 -77 -46 -141 -95 -192s-116 -76 -199 -76c-91 0 -158 26 -200 78c-43 52 -57 117 -43 196l80 457h95l-81 -463c-9 -54 -1 -99 24 -134c25 -36 67 -54 126 -54c57 0 102 18 135 55c33 36 54 82 64 139
l80 457h95z" />
    <glyph glyph-name="Yacute" unicode="&#xdd;" horiz-adv-x="628" 
d="M614 885l-180 -113h-100l146 113h134zM690 714l-325 -422l-52 -292h-95l52 297l-172 417h107l127 -332l245 332h113z" />
    <glyph glyph-name="Thorn" unicode="&#xde;" horiz-adv-x="660" 
d="M38 0l126 714h95l-20 -114h218c71 0 122 -18 153 -55s40 -90 29 -157c-12 -67 -40 -119 -84 -156s-101 -55 -172 -54h-218l-32 -178h-95zM179 258h186c104 -1 164 43 179 130c7 44 0 77 -21 99s-59 33 -112 33h-186z" />
    <glyph glyph-name="germandbls" unicode="&#xdf;" horiz-adv-x="550" 
d="M245 416c93 3 140 45 140 125c0 36 -10 64 -29 84c-19 19 -45 29 -77 29c-39 0 -68 -10 -88 -31c-21 -21 -31 -57 -31 -109v-514h-90v531c0 59 19 108 57 145c37 37 86 55 146 55c57 0 105 -16 144 -47s58 -75 58 -130c0 -107 -58 -162 -174 -164v-4
c69 1 122 -16 157 -50c35 -35 52 -79 52 -134c0 -64 -21 -115 -62 -154s-95 -58 -161 -58c-35 0 -63 3 -82 8v78c17 -6 42 -9 73 -9c48 0 84 12 108 37s36 59 36 102c0 57 -12 95 -36 114c-25 19 -65 29 -121 32c-2 0 -5 0 -9 1h-11v63z" />
    <glyph glyph-name="agrave" unicode="&#xe0;" horiz-adv-x="550" 
d="M381 577h-66l-113 139h114zM296 530c36 0 68 -4 95 -13s47 -20 61 -34c13 -14 24 -30 33 -48c8 -18 12 -36 11 -53c-1 -18 -2 -35 -3 -52l-35 -195c-4 -23 -7 -68 -10 -135h-98c1 27 4 53 8 78l2 12c-13 -26 -34 -49 -62 -70s-64 -32 -108 -32c-61 0 -107 17 -138 50
s-43 72 -35 118c5 30 17 55 35 75c17 20 42 35 74 44s56 15 72 18s40 5 73 8c4 1 7 1 8 1c79 7 122 33 131 78c3 21 -6 39 -27 53s-50 21 -85 21c-72 0 -115 -30 -129 -90h-90c9 46 31 85 67 118c36 32 86 48 150 48zM206 61c43 0 82 15 116 46c33 30 56 75 67 136l13 69
c-10 -21 -26 -38 -49 -52s-60 -24 -111 -31c-43 -5 -76 -14 -98 -25c-23 -12 -36 -31 -40 -56c-4 -26 3 -47 20 -63s44 -24 82 -24z" />
    <glyph glyph-name="aacute" unicode="&#xe1;" horiz-adv-x="550" 
d="M496 716l-161 -139h-66l113 139h114zM296 530c36 0 68 -4 95 -13s47 -20 61 -34c13 -14 24 -30 33 -48c8 -18 12 -36 11 -53c-1 -18 -2 -35 -3 -52l-35 -195c-4 -23 -7 -68 -10 -135h-98c1 27 4 53 8 78l2 12c-13 -26 -34 -49 -62 -70s-64 -32 -108 -32
c-61 0 -107 17 -138 50s-43 72 -35 118c5 30 17 55 35 75c17 20 42 35 74 44s56 15 72 18s40 5 73 8c4 1 7 1 8 1c79 7 122 33 131 78c3 21 -6 39 -27 53s-50 21 -85 21c-72 0 -115 -30 -129 -90h-90c9 46 31 85 67 118c36 32 86 48 150 48zM206 61c43 0 82 15 116 46
c33 30 56 75 67 136l13 69c-10 -21 -26 -38 -49 -52s-60 -24 -111 -31c-43 -5 -76 -14 -98 -25c-23 -12 -36 -31 -40 -56c-4 -26 3 -47 20 -63s44 -24 82 -24z" />
    <glyph glyph-name="acircumflex" unicode="&#xe2;" horiz-adv-x="550" 
d="M332 669l-81 -84h-94l136 131h94l90 -131h-94zM296 530c36 0 68 -4 95 -13s47 -20 61 -34c13 -14 24 -30 33 -48c8 -18 12 -36 11 -53c-1 -18 -2 -35 -3 -52l-35 -195c-4 -23 -7 -68 -10 -135h-98c1 27 4 53 8 78l2 12c-13 -26 -34 -49 -62 -70s-64 -32 -108 -32
c-61 0 -107 17 -138 50s-43 72 -35 118c5 30 17 55 35 75c17 20 42 35 74 44s56 15 72 18s40 5 73 8c4 1 7 1 8 1c79 7 122 33 131 78c3 21 -6 39 -27 53s-50 21 -85 21c-72 0 -115 -30 -129 -90h-90c9 46 31 85 67 118c36 32 86 48 150 48zM206 61c43 0 82 15 116 46
c33 30 56 75 67 136l13 69c-10 -21 -26 -38 -49 -52s-60 -24 -111 -31c-43 -5 -76 -14 -98 -25c-23 -12 -36 -31 -40 -56c-4 -26 3 -47 20 -63s44 -24 82 -24z" />
    <glyph glyph-name="atilde" unicode="&#xe3;" horiz-adv-x="550" 
d="M282 647c-21 0 -39 -14 -56 -42h-52c29 73 70 110 125 110c19 0 42 -7 70 -20s49 -20 62 -20c22 0 40 15 54 44h52c-9 -29 -24 -55 -46 -79c-19 -21 -44 -32 -75 -32c-21 0 -44 7 -71 20c-25 13 -46 19 -63 19zM296 530c36 0 68 -4 95 -13s47 -20 61 -34
c13 -14 24 -30 33 -48c8 -18 12 -36 11 -53c-1 -18 -2 -35 -3 -52l-35 -195c-4 -23 -7 -68 -10 -135h-98c1 27 4 53 8 78l2 12c-13 -26 -34 -49 -62 -70s-64 -32 -108 -32c-61 0 -107 17 -138 50s-43 72 -35 118c5 30 17 55 35 75c17 20 42 35 74 44s56 15 72 18s40 5 73 8
c4 1 7 1 8 1c79 7 122 33 131 78c3 21 -6 39 -27 53s-50 21 -85 21c-72 0 -115 -30 -129 -90h-90c9 46 31 85 67 118c36 32 86 48 150 48zM206 61c43 0 82 15 116 46c33 30 56 75 67 136l13 69c-10 -21 -26 -38 -49 -52s-60 -24 -111 -31c-43 -5 -76 -14 -98 -25
c-23 -12 -36 -31 -40 -56c-4 -26 3 -47 20 -63s44 -24 82 -24z" />
    <glyph glyph-name="adieresis" unicode="&#xe4;" horiz-adv-x="550" 
d="M300 716l-18 -104h-90l18 104h90zM480 716l-18 -104h-90l18 104h90zM296 530c36 0 68 -4 95 -13s47 -20 61 -34c13 -14 24 -30 33 -48c8 -18 12 -36 11 -53c-1 -18 -2 -35 -3 -52l-35 -195c-4 -23 -7 -68 -10 -135h-98c1 27 4 53 8 78l2 12c-13 -26 -34 -49 -62 -70
s-64 -32 -108 -32c-61 0 -107 17 -138 50s-43 72 -35 118c5 30 17 55 35 75c17 20 42 35 74 44s56 15 72 18s40 5 73 8c4 1 7 1 8 1c79 7 122 33 131 78c3 21 -6 39 -27 53s-50 21 -85 21c-72 0 -115 -30 -129 -90h-90c9 46 31 85 67 118c36 32 86 48 150 48zM206 61
c43 0 82 15 116 46c33 30 56 75 67 136l13 69c-10 -21 -26 -38 -49 -52s-60 -24 -111 -31c-43 -5 -76 -14 -98 -25c-23 -12 -36 -31 -40 -56c-4 -26 3 -47 20 -63s44 -24 82 -24z" />
    <glyph glyph-name="aring" unicode="&#xe5;" horiz-adv-x="550" 
d="M335 571c-31 0 -55 11 -73 33c-19 22 -26 48 -21 79s21 57 48 79c26 22 54 33 85 33s55 -11 74 -33c18 -22 24 -48 19 -79s-20 -57 -46 -79c-27 -22 -55 -33 -86 -33zM287 682c-3 -19 0 -35 11 -48c10 -13 25 -20 44 -20s37 7 52 20s24 29 27 48s0 36 -10 49
c-11 13 -26 19 -45 19s-36 -6 -51 -19s-25 -30 -28 -49zM296 530c36 0 68 -4 95 -13s47 -20 61 -34c13 -14 24 -30 33 -48c8 -18 12 -36 11 -53c-1 -18 -2 -35 -3 -52l-35 -195c-4 -23 -7 -68 -10 -135h-98c1 27 4 53 8 78l2 12c-13 -26 -34 -49 -62 -70s-64 -32 -108 -32
c-61 0 -107 17 -138 50s-43 72 -35 118c5 30 17 55 35 75c17 20 42 35 74 44s56 15 72 18s40 5 73 8c4 1 7 1 8 1c79 7 122 33 131 78c3 21 -6 39 -27 53s-50 21 -85 21c-72 0 -115 -30 -129 -90h-90c9 46 31 85 67 118c36 32 86 48 150 48zM206 61c43 0 82 15 116 46
c33 30 56 75 67 136l13 69c-10 -21 -26 -38 -49 -52s-60 -24 -111 -31c-43 -5 -76 -14 -98 -25c-23 -12 -36 -31 -40 -56c-4 -26 3 -47 20 -63s44 -24 82 -24z" />
    <glyph glyph-name="ae" unicode="&#xe6;" horiz-adv-x="908" 
d="M477 232l-1 -7c-3 -52 6 -92 27 -120s54 -42 98 -42c69 0 120 30 152 91h89c-48 -111 -128 -166 -239 -166c-54 0 -98 13 -132 39c-34 25 -57 61 -68 108c-40 -98 -111 -147 -213 -147c-61 0 -107 17 -138 50s-43 72 -35 118c5 30 17 55 35 75c17 20 42 35 74 44
s56 15 72 18s40 5 73 8c4 1 7 1 8 1c79 7 122 33 131 78c3 21 -6 39 -27 53s-50 21 -85 21c-72 0 -115 -30 -129 -90h-90c9 46 31 85 67 118c36 32 86 48 150 48c87 0 146 -30 177 -90c51 59 117 89 198 89c37 0 69 -6 96 -17c27 -12 48 -28 63 -47c14 -20 25 -43 33 -68
c8 -26 12 -53 11 -81s-4 -56 -7 -84h-390zM669 455c-44 0 -82 -14 -113 -41c-31 -28 -54 -65 -67 -110h296c3 47 -5 84 -24 111s-50 40 -92 40zM206 61c43 0 82 15 116 46c33 30 56 75 67 136l13 69c-10 -21 -26 -38 -49 -52s-60 -24 -111 -31c-43 -5 -76 -14 -98 -25
c-23 -12 -36 -31 -40 -56c-4 -26 3 -47 20 -63s44 -24 82 -24z" />
    <glyph glyph-name="ccedilla" unicode="&#xe7;" horiz-adv-x="578" 
d="M263 63c71 0 124 32 161 95h92c-45 -109 -124 -166 -237 -170l-38 -39l2 -2c7 5 19 7 34 7c23 0 42 -6 56 -19s19 -31 15 -54c-5 -31 -22 -53 -49 -67c-28 -15 -58 -22 -91 -22s-63 7 -89 20l28 49c17 -13 36 -19 57 -19c16 0 31 3 45 8c13 5 21 12 23 23
c1 9 -2 17 -9 23c-8 5 -19 8 -33 8c-11 0 -25 -3 -42 -8l-20 39l59 55c-70 9 -122 38 -157 89c-35 50 -46 112 -33 185c14 78 48 142 102 191s120 74 197 74c65 0 115 -15 151 -46s56 -72 61 -121h-87c-13 62 -55 93 -128 93c-53 0 -98 -19 -136 -57
c-38 -39 -62 -87 -72 -146c-9 -54 -1 -99 24 -135s63 -54 114 -54z" />
    <glyph glyph-name="egrave" unicode="&#xe8;" horiz-adv-x="585" 
d="M381 577h-66l-113 139h114zM536 232h-416c-3 -53 7 -95 32 -124c25 -30 60 -45 106 -45c77 0 131 30 163 91h92c-23 -54 -57 -95 -101 -123c-45 -29 -95 -43 -152 -43c-78 0 -138 26 -179 78c-41 51 -56 118 -43 201c13 81 46 145 99 192s116 70 191 70
c46 0 85 -9 117 -27c31 -18 54 -41 67 -69c13 -29 23 -61 28 -96s3 -70 -4 -105zM326 455c-45 0 -84 -14 -119 -42s-59 -64 -74 -109h323c4 45 -6 82 -30 110c-24 27 -57 41 -100 41z" />
    <glyph glyph-name="eacute" unicode="&#xe9;" horiz-adv-x="585" 
d="M496 716l-161 -139h-66l113 139h114zM536 232h-416c-3 -53 7 -95 32 -124c25 -30 60 -45 106 -45c77 0 131 30 163 91h92c-23 -54 -57 -95 -101 -123c-45 -29 -95 -43 -152 -43c-78 0 -138 26 -179 78c-41 51 -56 118 -43 201c13 81 46 145 99 192s116 70 191 70
c46 0 85 -9 117 -27c31 -18 54 -41 67 -69c13 -29 23 -61 28 -96s3 -70 -4 -105zM326 455c-45 0 -84 -14 -119 -42s-59 -64 -74 -109h323c4 45 -6 82 -30 110c-24 27 -57 41 -100 41z" />
    <glyph glyph-name="ecircumflex" unicode="&#xea;" horiz-adv-x="585" 
d="M337 669l-81 -84h-94l136 131h94l90 -131h-94zM536 232h-416c-3 -53 7 -95 32 -124c25 -30 60 -45 106 -45c77 0 131 30 163 91h92c-23 -54 -57 -95 -101 -123c-45 -29 -95 -43 -152 -43c-78 0 -138 26 -179 78c-41 51 -56 118 -43 201c13 81 46 145 99 192
s116 70 191 70c46 0 85 -9 117 -27c31 -18 54 -41 67 -69c13 -29 23 -61 28 -96s3 -70 -4 -105zM326 455c-45 0 -84 -14 -119 -42s-59 -64 -74 -109h323c4 45 -6 82 -30 110c-24 27 -57 41 -100 41z" />
    <glyph glyph-name="edieresis" unicode="&#xeb;" horiz-adv-x="585" 
d="M310 716l-18 -104h-90l18 104h90zM490 716l-18 -104h-90l18 104h90zM536 232h-416c-3 -53 7 -95 32 -124c25 -30 60 -45 106 -45c77 0 131 30 163 91h92c-23 -54 -57 -95 -101 -123c-45 -29 -95 -43 -152 -43c-78 0 -138 26 -179 78c-41 51 -56 118 -43 201
c13 81 46 145 99 192s116 70 191 70c46 0 85 -9 117 -27c31 -18 54 -41 67 -69c13 -29 23 -61 28 -96s3 -70 -4 -105zM326 455c-45 0 -84 -14 -119 -42s-59 -64 -74 -109h323c4 45 -6 82 -30 110c-24 27 -57 41 -100 41z" />
    <glyph glyph-name="igrave" unicode="&#xec;" horiz-adv-x="226" 
d="M126 716l65 -139h-66l-113 139h114zM20 0l92 517h90l-92 -517h-90z" />
    <glyph glyph-name="iacute" unicode="&#xed;" horiz-adv-x="226" 
d="M209 716h114l-161 -139h-66zM20 0l92 517h90l-92 -517h-90z" />
    <glyph glyph-name="icircumflex" unicode="&#xee;" horiz-adv-x="226" 
d="M210 716l90 -131h-94l-51 84l-81 -84h-94l136 131h94zM20 0l92 517h90l-92 -517h-90z" />
    <glyph glyph-name="idieresis" unicode="&#xef;" horiz-adv-x="226" 
d="M38 716h90l-18 -104h-90zM218 716h90l-18 -104h-90zM20 0l92 517h90l-92 -517h-90z" />
    <glyph glyph-name="eth" unicode="&#xf0;" horiz-adv-x="586" 
d="M446 412h2c-15 35 -39 73 -72 112s-60 64 -79 77l-115 -54l-38 40l109 51c-22 19 -49 35 -80 47l80 46c28 -19 54 -37 77 -56l120 56l35 -37l-115 -53c116 -96 174 -224 174 -383c0 -79 -22 -143 -66 -194s-106 -76 -185 -76s-141 25 -185 76s-66 115 -66 194
c0 69 21 127 64 176c42 48 99 72 172 72c78 0 134 -31 168 -94zM132 258c0 -61 15 -108 46 -143s69 -52 115 -52s84 17 115 52s46 82 46 143c0 50 -14 91 -41 124c-28 33 -70 49 -125 49c-50 0 -88 -16 -115 -47s-41 -73 -41 -126z" />
    <glyph glyph-name="ntilde" unicode="&#xf1;" horiz-adv-x="560" 
d="M282 647c-21 0 -39 -14 -56 -42h-52c29 73 70 110 125 110c19 0 42 -7 70 -20s49 -20 62 -20c22 0 40 15 54 44h52c-9 -29 -24 -55 -46 -79c-19 -21 -44 -32 -75 -32c-21 0 -44 7 -71 20c-25 13 -46 19 -63 19zM350 529c65 0 111 -18 137 -55c25 -37 33 -85 22 -142
l-59 -332h-90l58 329c8 45 5 77 -8 96s-37 28 -72 28c-44 0 -82 -14 -115 -43s-55 -76 -66 -139v5l-49 -276h-90l92 517h90l-19 -105h1c12 33 33 60 63 83c29 23 64 34 105 34z" />
    <glyph glyph-name="ograve" unicode="&#xf2;" horiz-adv-x="614" 
d="M312 716l65 -139h-66l-113 139h114zM266 -12c-81 0 -143 26 -186 78s-57 118 -43 198c14 78 48 142 102 191s120 74 197 74c81 0 143 -26 186 -78c43 -53 57 -119 43 -199c-14 -78 -48 -141 -102 -190s-120 -74 -197 -74zM266 64c53 0 99 19 138 57c39 37 63 85 73 143
c9 54 1 99 -25 135c-27 36 -65 54 -116 54c-53 0 -99 -19 -138 -57s-63 -86 -73 -144c-9 -54 -1 -99 26 -134c26 -36 64 -54 115 -54z" />
    <glyph glyph-name="oacute" unicode="&#xf3;" horiz-adv-x="614" 
d="M380 716h114l-161 -139h-66zM266 -12c-81 0 -143 26 -186 78s-57 118 -43 198c14 78 48 142 102 191s120 74 197 74c81 0 143 -26 186 -78c43 -53 57 -119 43 -199c-14 -78 -48 -141 -102 -190s-120 -74 -197 -74zM266 64c53 0 99 19 138 57c39 37 63 85 73 143
c9 54 1 99 -25 135c-27 36 -65 54 -116 54c-53 0 -99 -19 -138 -57s-63 -86 -73 -144c-9 -54 -1 -99 26 -134c26 -36 64 -54 115 -54z" />
    <glyph glyph-name="ocircumflex" unicode="&#xf4;" horiz-adv-x="614" 
d="M351 669l-81 -84h-94l136 131h94l90 -131h-94zM336 529c81 0 143 -26 186 -78c43 -53 57 -119 43 -199c-14 -78 -48 -141 -102 -190s-120 -74 -197 -74c-81 0 -143 26 -186 78s-57 118 -43 198c14 78 48 142 102 191s120 74 197 74zM477 264c9 54 1 99 -25 135
c-27 36 -65 54 -116 54c-53 0 -99 -19 -138 -57s-63 -86 -73 -144c-9 -54 -1 -99 26 -134c26 -36 64 -54 115 -54c53 0 99 19 138 57c39 37 63 85 73 143z" />
    <glyph glyph-name="otilde" unicode="&#xf5;" horiz-adv-x="614" 
d="M485 719h52c-9 -29 -24 -55 -46 -79c-19 -21 -44 -32 -75 -32c-21 0 -44 7 -71 20c-25 13 -46 19 -63 19c-21 0 -39 -14 -56 -42h-52c29 73 70 110 125 110c19 0 42 -7 70 -20s49 -20 62 -20c22 0 40 15 54 44zM266 -12c-81 0 -143 26 -186 78s-57 118 -43 198
c14 78 48 142 102 191s120 74 197 74c81 0 143 -26 186 -78c43 -53 57 -119 43 -199c-14 -78 -48 -141 -102 -190s-120 -74 -197 -74zM266 64c53 0 99 19 138 57c39 37 63 85 73 143c9 54 1 99 -25 135c-27 36 -65 54 -116 54c-53 0 -99 -19 -138 -57s-63 -86 -73 -144
c-9 -54 -1 -99 26 -134c26 -36 64 -54 115 -54z" />
    <glyph glyph-name="odieresis" unicode="&#xf6;" horiz-adv-x="614" 
d="M220 716h90l-18 -104h-90zM400 716h90l-18 -104h-90zM266 -12c-81 0 -143 26 -186 78s-57 118 -43 198c14 78 48 142 102 191s120 74 197 74c81 0 143 -26 186 -78c43 -53 57 -119 43 -199c-14 -78 -48 -141 -102 -190s-120 -74 -197 -74zM266 64c53 0 99 19 138 57
c39 37 63 85 73 143c9 54 1 99 -25 135c-27 36 -65 54 -116 54c-53 0 -99 -19 -138 -57s-63 -86 -73 -144c-9 -54 -1 -99 26 -134c26 -36 64 -54 115 -54z" />
    <glyph glyph-name="divide" unicode="&#xf7;" 
d="M306 523c17 0 32 -6 45 -19s19 -28 19 -45c0 -16 -6 -31 -19 -44s-27 -20 -44 -20s-32 6 -45 19s-20 28 -20 45s6 32 19 45s28 19 45 19zM54 287h504v-68h-504v68zM306 111c17 0 32 -6 45 -19s19 -28 19 -45c0 -16 -6 -31 -19 -44s-27 -20 -44 -20s-32 6 -45 19
s-20 28 -20 45s6 32 19 45s28 19 45 19z" />
    <glyph glyph-name="oslash" unicode="&#xf8;" horiz-adv-x="574" 
d="M504 470c55 -53 75 -125 59 -216c-14 -78 -48 -141 -102 -190s-120 -74 -197 -74c-60 0 -110 15 -151 45l-51 -57l-28 24l52 57c-49 52 -66 121 -51 207c14 78 48 142 102 191s120 74 197 74c55 0 103 -13 142 -39l38 43l26 -26zM123 254c-9 -52 -2 -95 22 -129l275 305
c-24 17 -53 25 -86 25c-53 0 -99 -19 -138 -57s-63 -86 -73 -144zM475 266c10 57 1 103 -28 139l-278 -308c26 -21 58 -31 95 -31c53 0 99 19 138 57c39 37 63 85 73 143z" />
    <glyph glyph-name="ugrave" unicode="&#xf9;" horiz-adv-x="560" 
d="M366 577h-66l-113 139h114zM448 517h90l-92 -517h-90l19 105h-1c-12 -33 -33 -60 -62 -83c-30 -23 -65 -34 -106 -34c-65 0 -111 19 -136 56c-26 37 -34 84 -23 141l59 332h90l-58 -329c-8 -45 -5 -76 8 -95s37 -29 72 -29c44 0 83 15 116 44s54 75 65 138v-5z" />
    <glyph glyph-name="uacute" unicode="&#xfa;" horiz-adv-x="560" 
d="M492 716l-161 -139h-66l113 139h114zM448 517h90l-92 -517h-90l19 105h-1c-12 -33 -33 -60 -62 -83c-30 -23 -65 -34 -106 -34c-65 0 -111 19 -136 56c-26 37 -34 84 -23 141l59 332h90l-58 -329c-8 -45 -5 -76 8 -95s37 -29 72 -29c44 0 83 15 116 44s54 75 65 138v-5z
" />
    <glyph glyph-name="ucircumflex" unicode="&#xfb;" horiz-adv-x="560" 
d="M336 669l-81 -84h-94l136 131h94l90 -131h-94zM448 517h90l-92 -517h-90l19 105h-1c-12 -33 -33 -60 -62 -83c-30 -23 -65 -34 -106 -34c-65 0 -111 19 -136 56c-26 37 -34 84 -23 141l59 332h90l-58 -329c-8 -45 -5 -76 8 -95s37 -29 72 -29c44 0 83 15 116 44
s54 75 65 138v-5z" />
    <glyph glyph-name="udieresis" unicode="&#xfc;" horiz-adv-x="560" 
d="M295 716l-18 -104h-90l18 104h90zM475 716l-18 -104h-90l18 104h90zM448 517h90l-92 -517h-90l19 105h-1c-12 -33 -33 -60 -62 -83c-30 -23 -65 -34 -106 -34c-65 0 -111 19 -136 56c-26 37 -34 84 -23 141l59 332h90l-58 -329c-8 -45 -5 -76 8 -95s37 -29 72 -29
c44 0 83 15 116 44s54 75 65 138v-5z" />
    <glyph glyph-name="yacute" unicode="&#xfd;" horiz-adv-x="532" 
d="M475 716l-161 -139h-66l113 139h114zM469 517h98l-344 -620c-35 -65 -83 -97 -146 -97h-73l14 76h53c15 0 29 4 41 11c11 7 20 15 25 22s11 19 20 35l28 48l-122 525h94l87 -428z" />
    <glyph glyph-name="thorn" unicode="&#xfe;" horiz-adv-x="605" 
d="M158 417h2c28 75 83 112 165 112c76 0 135 -26 176 -78s62 -117 62 -194s-20 -141 -61 -192s-99 -77 -175 -77c-33 0 -65 9 -96 26s-55 45 -71 85h-2v-297h-85v912h85v-297zM313 454c-53 0 -93 -19 -119 -57s-39 -84 -39 -138c0 -55 14 -102 41 -139
c27 -38 67 -57 122 -57c54 0 93 19 118 58c25 38 37 85 37 142c0 53 -14 98 -41 135s-67 56 -119 56z" />
    <glyph glyph-name="ydieresis" unicode="&#xff;" horiz-adv-x="532" 
d="M280 716l-18 -104h-90l18 104h90zM460 716l-18 -104h-90l18 104h90zM469 517h98l-344 -620c-35 -65 -83 -97 -146 -97h-73l14 76h53c15 0 29 4 41 11c11 7 20 15 25 22s11 19 20 35l28 48l-122 525h94l87 -428z" />
    <glyph glyph-name="Amacron" unicode="&#x100;" horiz-adv-x="707" 
d="M616 859l-10 -55h-341l10 55h341zM547 0l-42 213h-315l-118 -213h-100l402 714h119l150 -714h-96zM233 291h256l-67 338h-3z" />
    <glyph glyph-name="amacron" unicode="&#x101;" horiz-adv-x="550" 
d="M172 684h341l-10 -55h-341zM296 530c36 0 68 -4 95 -13s47 -20 61 -34c13 -14 24 -30 33 -48c8 -18 12 -36 11 -53c-1 -18 -2 -35 -3 -52l-35 -195c-4 -23 -7 -68 -10 -135h-98c1 27 4 53 8 78l2 12c-13 -26 -34 -49 -62 -70s-64 -32 -108 -32c-61 0 -107 17 -138 50
s-43 72 -35 118c5 30 17 55 35 75c17 20 42 35 74 44s56 15 72 18s40 5 73 8c4 1 7 1 8 1c79 7 122 33 131 78c3 21 -6 39 -27 53s-50 21 -85 21c-72 0 -115 -30 -129 -90h-90c9 46 31 85 67 118c36 32 86 48 150 48zM206 61c43 0 82 15 116 46c33 30 56 75 67 136l13 69
c-10 -21 -26 -38 -49 -52s-60 -24 -111 -31c-43 -5 -76 -14 -98 -25c-23 -12 -36 -31 -40 -56c-4 -26 3 -47 20 -63s44 -24 82 -24z" />
    <glyph glyph-name="Abreve" unicode="&#x102;" horiz-adv-x="707" 
d="M443 774c-83 0 -126 41 -128 122h52c4 -23 12 -40 25 -51c12 -11 32 -16 60 -16s50 5 66 16s30 28 43 51h52c-31 -81 -87 -122 -170 -122zM547 0l-42 213h-315l-118 -213h-100l402 714h119l150 -714h-96zM233 291h256l-67 338h-3z" />
    <glyph glyph-name="abreve" unicode="&#x103;" horiz-adv-x="550" 
d="M325 593c-46 0 -80 12 -102 36c-23 23 -33 57 -32 102h50c6 -55 37 -83 93 -83c27 0 49 7 67 21c18 13 35 34 51 62h51c-15 -43 -38 -77 -69 -101c-31 -25 -68 -37 -109 -37zM296 530c36 0 68 -4 95 -13s47 -20 61 -34c13 -14 24 -30 33 -48c8 -18 12 -36 11 -53
c-1 -18 -2 -35 -3 -52l-35 -195c-4 -23 -7 -68 -10 -135h-98c1 27 4 53 8 78l2 12c-13 -26 -34 -49 -62 -70s-64 -32 -108 -32c-61 0 -107 17 -138 50s-43 72 -35 118c5 30 17 55 35 75c17 20 42 35 74 44s56 15 72 18s40 5 73 8c4 1 7 1 8 1c79 7 122 33 131 78
c3 21 -6 39 -27 53s-50 21 -85 21c-72 0 -115 -30 -129 -90h-90c9 46 31 85 67 118c36 32 86 48 150 48zM206 61c43 0 82 15 116 46c33 30 56 75 67 136l13 69c-10 -21 -26 -38 -49 -52s-60 -24 -111 -31c-43 -5 -76 -14 -98 -25c-23 -12 -36 -31 -40 -56
c-4 -26 3 -47 20 -63s44 -24 82 -24z" />
    <glyph glyph-name="Aogonek" unicode="&#x104;" horiz-adv-x="707" 
d="M513 -158c26 0 48 10 67 30l29 -18c-31 -41 -70 -62 -119 -62c-61 0 -86 27 -77 82c3 20 17 42 40 66c23 23 57 43 103 60h-9l-42 213h-315l-118 -213h-100l402 714h119l150 -714h-59c-61 -44 -95 -83 -101 -116c-2 -11 -1 -21 4 -29c5 -9 13 -13 26 -13zM233 291h256
l-67 338h-3z" />
    <glyph glyph-name="aogonek" unicode="&#x105;" horiz-adv-x="584" 
d="M458 137c-4 -23 -7 -68 -10 -135h-11l3 -1c-36 -9 -66 -29 -89 -58c-19 -25 -27 -48 -23 -70s18 -33 42 -33c25 0 46 10 62 30l32 -18c-24 -41 -60 -62 -108 -62c-25 0 -46 7 -64 20c-19 13 -28 34 -28 61c0 31 13 59 38 84c21 21 47 36 78 45l13 2h-43c1 27 4 53 8 78
l2 12c-13 -26 -34 -49 -62 -70s-64 -32 -108 -32c-61 0 -107 17 -138 50s-43 72 -35 118c5 30 17 55 35 75c17 20 42 35 74 44s56 15 72 18s40 5 73 8c4 1 7 1 8 1c79 7 122 33 131 78c3 21 -6 39 -27 53s-50 21 -85 21c-72 0 -115 -30 -129 -90h-90c9 46 31 85 67 118
c36 32 86 48 150 48c36 0 68 -4 95 -13s47 -20 61 -34c13 -14 24 -30 33 -48c8 -18 12 -36 11 -53c-1 -18 -2 -35 -3 -52zM206 63c43 0 82 15 116 46c33 30 56 75 67 136l13 69c-10 -21 -26 -38 -49 -52s-60 -24 -111 -31c-43 -5 -76 -14 -98 -25c-23 -12 -36 -31 -40 -56
c-4 -26 3 -47 20 -63s44 -24 82 -24z" />
    <glyph glyph-name="Cacute" unicode="&#x106;" horiz-adv-x="787" 
d="M570 885h134l-180 -113h-100zM736 216c-25 -65 -68 -120 -129 -165c-62 -45 -136 -68 -221 -68c-115 0 -202 37 -260 111c-59 74 -79 164 -60 269c19 104 66 191 141 262s169 106 280 106c87 0 155 -21 204 -63s79 -97 92 -164h-92c-11 49 -33 85 -66 110s-79 37 -139 37
c-87 0 -159 -29 -217 -87c-59 -58 -95 -129 -110 -213c-13 -80 0 -148 41 -204c40 -56 102 -84 187 -84c118 0 203 51 254 153h95z" />
    <glyph glyph-name="cacute" unicode="&#x107;" horiz-adv-x="578" 
d="M382 716h114l-161 -139h-66zM516 158c-47 -113 -130 -170 -250 -170c-81 0 -143 26 -186 78s-57 118 -43 198c14 78 48 142 102 191s120 74 197 74c65 0 115 -15 151 -46s56 -72 61 -121h-87c-13 62 -55 93 -128 93c-53 0 -98 -19 -136 -57c-38 -39 -62 -87 -72 -146
c-9 -54 -1 -99 24 -135s63 -54 114 -54c71 0 124 32 161 95h92z" />
    <glyph glyph-name="Ccircumflex" unicode="&#x108;" horiz-adv-x="787" 
d="M511 842l-76 -78h-100l135 127h100l91 -127h-100zM387 63c118 0 203 51 254 153h95c-25 -65 -68 -120 -129 -165c-62 -45 -136 -68 -221 -68c-115 0 -202 37 -260 111c-59 74 -79 164 -60 269c19 104 66 191 141 262s169 106 280 106c87 0 155 -21 204 -63
s79 -97 92 -164h-92c-11 49 -33 85 -66 110s-79 37 -139 37c-87 0 -159 -29 -217 -87c-59 -58 -95 -129 -110 -213c-13 -80 0 -148 41 -204c40 -56 102 -84 187 -84z" />
    <glyph glyph-name="ccircumflex" unicode="&#x109;" horiz-adv-x="578" 
d="M335 669l-81 -84h-94l136 131h94l90 -131h-94zM263 63c71 0 124 32 161 95h92c-47 -113 -130 -170 -250 -170c-81 0 -143 26 -186 78s-57 118 -43 198c14 78 48 142 102 191s120 74 197 74c65 0 115 -15 151 -46s56 -72 61 -121h-87c-13 62 -55 93 -128 93
c-53 0 -98 -19 -136 -57c-38 -39 -62 -87 -72 -146c-9 -54 -1 -99 24 -135s63 -54 114 -54z" />
    <glyph glyph-name="Cdotaccent" unicode="&#x10a;" horiz-adv-x="787" 
d="M475 892h90l-17 -100h-90zM736 216c-25 -65 -68 -120 -129 -165c-62 -45 -136 -68 -221 -68c-115 0 -202 37 -260 111c-59 74 -79 164 -60 269c19 104 66 191 141 262s169 106 280 106c87 0 155 -21 204 -63s79 -97 92 -164h-92c-11 49 -33 85 -66 110s-79 37 -139 37
c-87 0 -159 -29 -217 -87c-59 -58 -95 -129 -110 -213c-13 -80 0 -148 41 -204c40 -56 102 -84 187 -84c118 0 203 51 254 153h95z" />
    <glyph glyph-name="cdotaccent" unicode="&#x10b;" horiz-adv-x="569" 
d="M344 606h-90v104h90v-104zM516 160c-47 -113 -130 -170 -250 -170c-81 0 -143 26 -186 78s-57 118 -43 198c14 78 48 142 102 191s120 74 197 74c65 0 115 -15 151 -46s56 -72 61 -121h-87c-13 62 -55 93 -128 93c-53 0 -98 -19 -136 -57c-38 -39 -62 -87 -72 -146
c-9 -54 -1 -99 24 -135s63 -54 114 -54c71 0 124 32 161 95h92z" />
    <glyph glyph-name="Ccaron" unicode="&#x10c;" horiz-adv-x="787" 
d="M537 760h-93l-99 135h89l65 -89l94 89h92zM387 63c118 0 203 51 254 153h95c-25 -65 -68 -120 -129 -165c-62 -45 -136 -68 -221 -68c-115 0 -202 37 -260 111c-59 74 -79 164 -60 269c19 104 66 191 141 262s169 106 280 106c87 0 155 -21 204 -63s79 -97 92 -164h-92
c-11 49 -33 85 -66 110s-79 37 -139 37c-87 0 -159 -29 -217 -87c-59 -58 -95 -129 -110 -213c-13 -80 0 -148 41 -204c40 -56 102 -84 187 -84z" />
    <glyph glyph-name="ccaron" unicode="&#x10d;" horiz-adv-x="578" 
d="M376 581h-93l-100 135h89l66 -89l93 89h92zM263 63c71 0 124 32 161 95h92c-47 -113 -130 -170 -250 -170c-81 0 -143 26 -186 78s-57 118 -43 198c14 78 48 142 102 191s120 74 197 74c65 0 115 -15 151 -46s56 -72 61 -121h-87c-13 62 -55 93 -128 93
c-53 0 -98 -19 -136 -57c-38 -39 -62 -87 -72 -146c-9 -54 -1 -99 24 -135s63 -54 114 -54z" />
    <glyph glyph-name="Dcaron" unicode="&#x10e;" horiz-adv-x="706" 
d="M442 760h-93l-99 135h89l65 -89l94 89h92zM368 714c116 0 201 -32 256 -95c54 -63 71 -149 52 -256c-19 -106 -66 -193 -141 -261s-169 -102 -280 -102h-225l126 714h212zM583 375c15 86 3 151 -38 194s-100 65 -179 65h-129l-98 -554h126c76 0 144 26 204 78
c60 51 98 124 114 217z" />
    <glyph glyph-name="dcaron" unicode="&#x10f;" horiz-adv-x="638" 
d="M478 411l54 305h90l-126 -714h-90l19 103l-1 -3c-15 -32 -38 -59 -70 -80c-33 -21 -72 -32 -118 -32c-74 0 -129 26 -165 79c-36 52 -47 118 -33 199c14 77 46 141 97 190s112 73 183 73c49 0 86 -12 113 -35s42 -52 46 -85h1zM677 714h109l-75 -143h-60zM250 67
c61 0 108 19 141 56s55 84 65 142v3c9 53 4 98 -17 134c-21 35 -56 53 -107 53c-54 0 -99 -19 -136 -58s-60 -86 -70 -141c-9 -54 -4 -99 17 -135c20 -36 56 -54 107 -54z" />
    <glyph glyph-name="Dcroat" unicode="&#x110;" horiz-adv-x="705" 
d="M367 714c116 0 201 -32 256 -95c54 -63 71 -149 52 -256c-19 -106 -66 -193 -141 -261s-169 -102 -280 -102h-225l56 320h-92v68h104l58 326h212zM582 375c15 86 3 151 -38 194s-100 65 -179 65h-129l-44 -246h180v-68h-192l-42 -240h126c76 0 144 26 204 78
c60 51 98 124 114 217z" />
    <glyph glyph-name="dcroat" unicode="&#x111;" horiz-adv-x="589" 
d="M717 639v-56h-118l-103 -581h-90l19 103l-1 -3c-15 -32 -38 -59 -70 -80c-33 -21 -72 -32 -118 -32c-74 0 -129 26 -165 79c-36 52 -47 118 -33 199c14 77 46 141 97 190s112 73 183 73c49 0 86 -12 113 -35s42 -52 46 -85h1l31 172h-133v56h142l14 77h90l-14 -77h109z
M250 67c61 0 108 19 141 56s55 84 65 142v3c9 53 4 98 -17 134c-21 35 -56 53 -107 53c-54 0 -99 -19 -136 -58s-60 -86 -70 -141c-9 -54 -4 -99 17 -135c20 -36 56 -54 107 -54z" />
    <glyph glyph-name="Emacron" unicode="&#x112;" horiz-adv-x="580" 
d="M579 859l-10 -55h-341l10 55h341zM591 634h-354l-41 -231h333l-14 -80h-333l-43 -243h358l-15 -80h-452l126 714h449z" />
    <glyph glyph-name="emacron" unicode="&#x113;" horiz-adv-x="585" 
d="M522 684l-10 -55h-341l10 55h341zM536 232h-416c-3 -53 7 -95 32 -124c25 -30 60 -45 106 -45c77 0 131 30 163 91h92c-23 -54 -57 -95 -101 -123c-45 -29 -95 -43 -152 -43c-78 0 -138 26 -179 78c-41 51 -56 118 -43 201c13 81 46 145 99 192s116 70 191 70
c46 0 85 -9 117 -27c31 -18 54 -41 67 -69c13 -29 23 -61 28 -96s3 -70 -4 -105zM326 455c-45 0 -84 -14 -119 -42s-59 -64 -74 -109h323c4 45 -6 82 -30 110c-24 27 -57 41 -100 41z" />
    <glyph glyph-name="Ebreve" unicode="&#x114;" horiz-adv-x="580" 
d="M391 774c-83 0 -126 41 -128 122h52c4 -23 12 -40 25 -51c12 -11 32 -16 60 -16s50 5 66 16s30 28 43 51h52c-31 -81 -87 -122 -170 -122zM591 634h-354l-41 -231h333l-14 -80h-333l-43 -243h358l-15 -80h-452l126 714h449z" />
    <glyph glyph-name="ebreve" unicode="&#x115;" horiz-adv-x="585" 
d="M347 593c-46 0 -80 12 -102 36c-23 23 -33 57 -32 102h50c6 -55 37 -83 93 -83c27 0 49 7 67 21c18 13 35 34 51 62h51c-15 -43 -38 -77 -69 -101c-31 -25 -68 -37 -109 -37zM536 232h-416c-3 -53 7 -95 32 -124c25 -30 60 -45 106 -45c77 0 131 30 163 91h92
c-23 -54 -57 -95 -101 -123c-45 -29 -95 -43 -152 -43c-78 0 -138 26 -179 78c-41 51 -56 118 -43 201c13 81 46 145 99 192s116 70 191 70c46 0 85 -9 117 -27c31 -18 54 -41 67 -69c13 -29 23 -61 28 -96s3 -70 -4 -105zM326 455c-45 0 -84 -14 -119 -42s-59 -64 -74 -109
h323c4 45 -6 82 -30 110c-24 27 -57 41 -100 41z" />
    <glyph glyph-name="Edotaccent" unicode="&#x116;" horiz-adv-x="580" 
d="M449 892l-17 -100h-90l17 100h90zM591 634h-354l-41 -231h333l-14 -80h-333l-43 -243h358l-15 -80h-452l126 714h449z" />
    <glyph glyph-name="edotaccent" unicode="&#x117;" horiz-adv-x="576" 
d="M381 708v-104h-90v104h90zM536 234h-416c-3 -53 7 -95 32 -124c25 -30 60 -45 106 -45c77 0 131 30 163 91h92c-23 -54 -57 -95 -101 -123c-45 -29 -95 -43 -152 -43c-78 0 -138 26 -179 78c-41 51 -56 118 -43 201c13 81 46 145 99 192s116 70 191 70
c46 0 85 -9 117 -27c31 -18 54 -41 67 -69c13 -29 23 -61 28 -96s3 -70 -4 -105zM326 457c-45 0 -84 -14 -119 -42s-59 -64 -74 -109h323c4 45 -6 82 -30 110c-24 27 -57 41 -100 41z" />
    <glyph glyph-name="Eogonek" unicode="&#x118;" horiz-adv-x="580" 
d="M591 634h-354l-41 -231h333l-14 -80h-333l-43 -243h358l-15 -80h-22c-53 -41 -83 -76 -89 -107c-2 -11 -1 -21 4 -29c5 -9 13 -13 26 -13c26 0 48 10 67 30l29 -18c-31 -41 -70 -62 -119 -62c-61 0 -86 27 -77 82c3 17 14 37 34 59c19 22 48 41 87 58h-392l126 714h449z
" />
    <glyph glyph-name="eogonek" unicode="&#x119;" horiz-adv-x="576" 
d="M536 234h-416c-3 -53 7 -95 32 -124c25 -30 60 -45 106 -45c77 0 131 30 163 91h92c-23 -53 -56 -93 -99 -121c-43 -29 -91 -44 -146 -45l-28 -28c-28 -28 -42 -55 -42 -80c0 -11 3 -21 10 -29c6 -9 15 -13 28 -13c25 0 46 10 62 30l32 -18c-24 -41 -60 -62 -108 -62
c-61 0 -92 27 -92 82c0 27 18 56 53 88c11 9 25 20 43 32c-68 8 -119 37 -154 88s-46 114 -34 189c13 81 46 145 99 192s116 70 191 70c46 0 85 -9 117 -27c31 -18 54 -41 67 -69c13 -29 23 -61 28 -96s3 -70 -4 -105zM326 457c-45 0 -84 -14 -119 -42s-59 -64 -74 -109h323
c4 45 -6 82 -30 110c-24 27 -57 41 -100 41z" />
    <glyph glyph-name="Ecaron" unicode="&#x11a;" horiz-adv-x="580" 
d="M436 760h-93l-99 135h89l65 -89l94 89h92zM591 634h-354l-41 -231h333l-14 -80h-333l-43 -243h358l-15 -80h-452l126 714h449z" />
    <glyph glyph-name="ecaron" unicode="&#x11b;" horiz-adv-x="585" 
d="M378 581h-93l-100 135h89l66 -89l93 89h92zM536 232h-416c-3 -53 7 -95 32 -124c25 -30 60 -45 106 -45c77 0 131 30 163 91h92c-23 -54 -57 -95 -101 -123c-45 -29 -95 -43 -152 -43c-78 0 -138 26 -179 78c-41 51 -56 118 -43 201c13 81 46 145 99 192s116 70 191 70
c46 0 85 -9 117 -27c31 -18 54 -41 67 -69c13 -29 23 -61 28 -96s3 -70 -4 -105zM326 455c-45 0 -84 -14 -119 -42s-59 -64 -74 -109h323c4 45 -6 82 -30 110c-24 27 -57 41 -100 41z" />
    <glyph glyph-name="Gcircumflex" unicode="&#x11c;" horiz-adv-x="793" 
d="M492 842l-76 -78h-100l135 127h100l91 -127h-100zM408 286l14 78h320l-73 -364h-60l11 126c-21 -49 -51 -85 -90 -108s-91 -35 -158 -35c-57 0 -108 11 -152 32c-45 21 -79 49 -102 84c-24 35 -41 75 -52 121s-11 94 0 143c18 103 63 190 136 261s164 107 273 107
c87 0 154 -22 203 -65c48 -43 75 -97 81 -162h-92c-5 45 -24 80 -56 107s-78 40 -137 40c-84 0 -154 -29 -209 -88c-56 -59 -91 -129 -106 -212c-13 -77 -1 -145 38 -202c38 -57 97 -86 176 -86c74 0 133 17 177 52s74 89 90 164l1 9z" />
    <glyph glyph-name="gcircumflex" unicode="&#x11d;" horiz-adv-x="603" 
d="M334 669l-81 -84h-94l136 131h94l90 -131h-94zM497 517h90l-90 -496c-13 -73 -45 -127 -94 -164s-106 -55 -170 -55c-67 0 -121 16 -160 47c-40 31 -58 74 -54 129h89c-1 -35 9 -61 31 -76c21 -16 53 -24 94 -24c97 0 156 50 175 149l16 81c-15 -31 -38 -55 -70 -74
s-71 -28 -117 -28c-73 0 -128 26 -164 78s-47 118 -33 198c13 76 45 136 95 181c49 44 110 66 182 66c49 0 86 -12 113 -35s42 -52 46 -85h2zM251 83c60 0 107 17 140 51s55 77 64 129v3c9 53 4 98 -17 134c-21 35 -56 53 -107 53c-55 0 -100 -17 -135 -51
c-36 -34 -59 -78 -68 -132c-9 -53 -4 -98 17 -133c20 -36 55 -54 106 -54z" />
    <glyph glyph-name="Gbreve" unicode="&#x11e;" horiz-adv-x="793" 
d="M476 774c-83 0 -126 41 -128 122h52c4 -23 12 -40 25 -51c12 -11 32 -16 60 -16s50 5 66 16s30 28 43 51h52c-31 -81 -87 -122 -170 -122zM408 286l14 78h320l-73 -364h-60l11 126c-21 -49 -51 -85 -90 -108s-91 -35 -158 -35c-57 0 -108 11 -152 32
c-45 21 -79 49 -102 84c-24 35 -41 75 -52 121s-11 94 0 143c18 103 63 190 136 261s164 107 273 107c87 0 154 -22 203 -65c48 -43 75 -97 81 -162h-92c-5 45 -24 80 -56 107s-78 40 -137 40c-84 0 -154 -29 -209 -88c-56 -59 -91 -129 -106 -212c-13 -77 -1 -145 38 -202
c38 -57 97 -86 176 -86c74 0 133 17 177 52s74 89 90 164l1 9z" />
    <glyph glyph-name="gbreve" unicode="&#x11f;" horiz-adv-x="603" 
d="M333 593c-46 0 -80 12 -102 36c-23 23 -33 57 -32 102h50c6 -55 37 -83 93 -83c27 0 49 7 67 21c18 13 35 34 51 62h51c-15 -43 -38 -77 -69 -101c-31 -25 -68 -37 -109 -37zM497 517h90l-90 -496c-13 -73 -45 -127 -94 -164s-106 -55 -170 -55c-67 0 -121 16 -160 47
c-40 31 -58 74 -54 129h89c-1 -35 9 -61 31 -76c21 -16 53 -24 94 -24c97 0 156 50 175 149l16 81c-15 -31 -38 -55 -70 -74s-71 -28 -117 -28c-73 0 -128 26 -164 78s-47 118 -33 198c13 76 45 136 95 181c49 44 110 66 182 66c49 0 86 -12 113 -35s42 -52 46 -85h2z
M251 83c60 0 107 17 140 51s55 77 64 129v3c9 53 4 98 -17 134c-21 35 -56 53 -107 53c-55 0 -100 -17 -135 -51c-36 -34 -59 -78 -68 -132c-9 -53 -4 -98 17 -133c20 -36 55 -54 106 -54z" />
    <glyph glyph-name="Gdotaccent" unicode="&#x120;" horiz-adv-x="793" 
d="M549 892l-17 -100h-90l17 100h90zM408 286l14 78h320l-73 -364h-60l11 126c-21 -49 -51 -85 -90 -108s-91 -35 -158 -35c-57 0 -108 11 -152 32c-45 21 -79 49 -102 84c-24 35 -41 75 -52 121s-11 94 0 143c18 103 63 190 136 261s164 107 273 107c87 0 154 -22 203 -65
c48 -43 75 -97 81 -162h-92c-5 45 -24 80 -56 107s-78 40 -137 40c-84 0 -154 -29 -209 -88c-56 -59 -91 -129 -106 -212c-13 -77 -1 -145 38 -202c38 -57 97 -86 176 -86c74 0 133 17 177 52s74 89 90 164l1 9z" />
    <glyph glyph-name="gdotaccent" unicode="&#x121;" horiz-adv-x="605" 
d="M338 708v-104h-90v104h90zM497 519h90l-90 -496c-13 -73 -45 -127 -94 -164s-106 -55 -170 -55c-67 0 -121 16 -160 47c-40 31 -58 74 -54 129h89c-1 -35 9 -61 31 -76c21 -16 53 -24 94 -24c97 0 156 50 175 149l16 81c-15 -31 -38 -55 -70 -74s-71 -28 -117 -28
c-73 0 -128 26 -164 78s-47 118 -33 198c13 76 45 136 95 181c49 44 110 66 182 66c49 0 86 -12 113 -35s42 -52 46 -85h2zM251 85c60 0 107 17 140 51s55 77 64 129v3c9 53 4 98 -17 134c-21 35 -56 53 -107 53c-55 0 -100 -17 -135 -51c-36 -34 -59 -78 -68 -132
c-9 -53 -4 -98 17 -133c20 -36 55 -54 106 -54z" />
    <glyph glyph-name="uni0122" unicode="&#x122;" horiz-adv-x="793" 
d="M408 286l14 78h320l-73 -364h-60l11 126c-21 -49 -51 -85 -90 -108s-91 -35 -158 -35c-57 0 -108 11 -152 32c-45 21 -79 49 -102 84c-24 35 -41 75 -52 121s-11 94 0 143c18 103 63 190 136 261s164 107 273 107c87 0 154 -22 203 -65c48 -43 75 -97 81 -162h-92
c-5 45 -24 80 -56 107s-78 40 -137 40c-84 0 -154 -29 -209 -88c-56 -59 -91 -129 -106 -212c-13 -77 -1 -145 38 -202c38 -57 97 -86 176 -86c74 0 133 17 177 52s74 89 90 164l1 9zM345 -138v88h111v-77c0 -27 -9 -48 -26 -62c-18 -14 -42 -21 -73 -21v35c13 3 22 8 29 13
c6 5 9 8 10 11s1 7 1 13h-52z" />
    <glyph glyph-name="uni0123" unicode="&#x123;" horiz-adv-x="605" 
d="M347 714v-88h-111v77c0 27 9 48 27 62c17 14 41 21 72 21v-35c-13 -3 -22 -7 -28 -12c-7 -5 -10 -9 -11 -12s-1 -7 -1 -13h52zM497 519h90l-90 -496c-13 -73 -45 -127 -94 -164s-106 -55 -170 -55c-67 0 -121 16 -160 47c-40 31 -58 74 -54 129h89c-1 -35 9 -61 31 -76
c21 -16 53 -24 94 -24c97 0 156 50 175 149l16 81c-15 -31 -38 -55 -70 -74s-71 -28 -117 -28c-73 0 -128 26 -164 78s-47 118 -33 198c13 76 45 136 95 181c49 44 110 66 182 66c49 0 86 -12 113 -35s42 -52 46 -85h2zM251 85c60 0 107 17 140 51s55 77 64 129v3
c9 53 4 98 -17 134c-21 35 -56 53 -107 53c-55 0 -100 -17 -135 -51c-36 -34 -59 -78 -68 -132c-9 -53 -4 -98 17 -133c20 -36 55 -54 106 -54z" />
    <glyph glyph-name="Hcircumflex" unicode="&#x124;" horiz-adv-x="686" 
d="M444 842l-76 -78h-100l135 127h100l91 -127h-100zM595 714h95l-126 -714h-95l56 318h-344l-56 -318h-95l126 714h95l-56 -316h344z" />
    <glyph glyph-name="hcircumflex" unicode="&#x125;" horiz-adv-x="560" 
d="M377 842l-76 -78h-100l135 127h100l91 -127h-100zM350 529c65 0 111 -18 137 -55c25 -37 33 -85 22 -142l-59 -332h-90l58 329c8 45 5 77 -8 96s-37 28 -72 28c-44 0 -82 -14 -115 -43s-55 -76 -66 -139v8l-49 -279h-90l126 714h90l-53 -302h1c12 33 33 60 63 83
c29 23 64 34 105 34z" />
    <glyph glyph-name="Hbar" unicode="&#x126;" horiz-adv-x="686" 
d="M595 714h95l-126 -714h-95l56 318h-344l-56 -318h-95l126 714h95l-35 -198h344zM195 398h344l12 64h-344z" />
    <glyph glyph-name="hbar" unicode="&#x127;" horiz-adv-x="575" 
d="M348 531c65 0 111 -18 137 -55c25 -37 33 -85 22 -142l-59 -332h-90l58 329c8 45 5 77 -8 96s-37 28 -72 28c-44 0 -82 -14 -115 -43s-55 -76 -66 -139v8l-49 -279h-90l103 581h-97v56h106l14 77h90l-14 -77h113v-56h-122l-30 -169h1c12 33 33 60 63 83
c29 23 64 34 105 34z" />
    <glyph glyph-name="Itilde" unicode="&#x128;" horiz-adv-x="263" 
d="M405 891c-11 -33 -26 -60 -47 -80c-21 -21 -45 -31 -73 -31c-19 0 -43 7 -72 20s-50 19 -63 19c-21 0 -40 -14 -56 -42h-52c29 73 70 110 125 110c19 0 42 -7 70 -20s49 -20 62 -20c22 0 40 15 54 44h52zM164 714h95l-126 -714h-95z" />
    <glyph glyph-name="itilde" unicode="&#x129;" horiz-adv-x="226" 
d="M299 719h52c-9 -29 -24 -55 -46 -79c-19 -21 -44 -32 -75 -32c-21 0 -44 7 -71 20c-25 13 -46 19 -63 19c-21 0 -39 -14 -56 -42h-52c29 73 70 110 125 110c19 0 42 -7 70 -20s49 -20 62 -20c22 0 40 15 54 44zM20 0l92 517h90l-92 -517h-90z" />
    <glyph glyph-name="Imacron" unicode="&#x12a;" horiz-adv-x="263" 
d="M76 859h341l-10 -55h-341zM164 714h95l-126 -714h-95z" />
    <glyph glyph-name="imacron" unicode="&#x12b;" horiz-adv-x="226" 
d="M-3 684h341l-10 -55h-341zM20 0l92 517h90l-92 -517h-90z" />
    <glyph glyph-name="Iogonek" unicode="&#x12e;" horiz-adv-x="263" 
d="M56 -150c26 0 48 10 67 30l29 -18c-31 -41 -70 -62 -119 -62c-61 0 -86 27 -77 82c3 18 14 38 34 60s50 41 89 58h-41l126 714h95l-126 -714h-17c-54 -40 -84 -76 -90 -108c-2 -11 -1 -21 4 -29c5 -9 13 -13 26 -13z" />
    <glyph glyph-name="iogonek" unicode="&#x12f;" horiz-adv-x="213" 
d="M158 610h-92v104h92v-104zM18 2l92 517h90l-92 -517h-90zM145 5v-5c-29 -28 -49 -50 -59 -67c-11 -17 -16 -34 -16 -51c0 -11 3 -21 9 -29c5 -9 14 -13 25 -13c23 0 42 10 56 30l28 -18c-21 -41 -54 -62 -97 -62c-55 0 -83 27 -83 82c0 9 2 19 7 31s17 28 36 49
s43 40 73 57z" />
    <glyph glyph-name="Idot" unicode="&#x130;" horiz-adv-x="271" 
d="M199 892h90l-17 -100h-90zM164 714h95l-126 -714h-95z" />
    <glyph glyph-name="dotlessi" unicode="&#x131;" horiz-adv-x="222" 
d="M20 0l92 517h90l-92 -517h-90z" />
    <glyph glyph-name="ij" unicode="&#x133;" horiz-adv-x="464" 
d="M221 610h-96l18 100h96zM462 610h-96l18 100h96zM20 0l92 517h90l-92 -517h-90zM444 517l-104 -588c-15 -84 -63 -126 -144 -126h-64l13 76h35c23 0 40 4 51 12s18 23 22 46l103 580h88z" />
    <glyph glyph-name="Jcircumflex" unicode="&#x134;" horiz-adv-x="502" 
d="M538 891l91 -127h-100l-50 78l-76 -78h-100l135 127h100zM322 187l93 527h95l-92 -522c-25 -139 -101 -209 -230 -209c-65 0 -113 17 -142 50s-40 81 -32 144h94c-11 -76 16 -114 80 -114c37 0 67 11 90 33s37 52 44 91z" />
    <glyph glyph-name="jcircumflex" unicode="&#x135;" horiz-adv-x="244" 
d="M227 716l90 -131h-94l-51 84l-81 -84h-94l136 131h94zM31 -63l103 580h88l-104 -588c-15 -84 -63 -126 -144 -126h-64l13 76h35c23 0 40 4 51 12s18 23 22 46z" />
    <glyph glyph-name="uni0136" unicode="&#x136;" horiz-adv-x="631" 
d="M704 714l-338 -301l217 -413h-111l-178 350l-127 -114l-42 -236h-95l126 714h95l-63 -360l392 360h124zM246 -138v88h111v-77c0 -27 -9 -48 -26 -62c-18 -14 -42 -21 -73 -21v35c13 3 22 8 29 13c6 5 9 8 10 11s1 7 1 13h-52z" />
    <glyph glyph-name="uni0137" unicode="&#x137;" horiz-adv-x="522" 
d="M556 519l-266 -201l193 -316h-103l-157 265l-81 -62l-36 -203h-90l126 714h90l-72 -408l273 211h123zM213 -138v88h111v-77c0 -27 -9 -48 -26 -62c-18 -14 -42 -21 -73 -21v35c13 3 22 8 29 13c6 5 9 8 10 11s1 7 1 13h-52z" />
    <glyph glyph-name="Lacute" unicode="&#x139;" horiz-adv-x="548" 
d="M442 885l-180 -113h-100l146 113h134zM141 80h346l-15 -80h-442l126 714h95z" />
    <glyph glyph-name="lacute" unicode="&#x13a;" horiz-adv-x="226" 
d="M256 885h134l-180 -113h-100zM148 714h90l-126 -714h-90z" />
    <glyph glyph-name="uni013B" unicode="&#x13b;" horiz-adv-x="548" 
d="M141 80h346l-15 -80h-442l126 714h95zM198 -138v88h111v-77c0 -27 -9 -48 -26 -62c-18 -14 -42 -21 -73 -21v35c13 3 22 8 29 13c6 5 9 8 10 11s1 7 1 13h-52z" />
    <glyph glyph-name="uni013C" unicode="&#x13c;" horiz-adv-x="222" 
d="M146 716h90l-126 -714h-90zM56 -50h111v-77c0 -27 -9 -48 -26 -62c-18 -14 -42 -21 -73 -21v35c13 3 22 8 29 13c6 5 9 8 10 11s1 7 1 13h-52v88z" />
    <glyph glyph-name="Lcaron" unicode="&#x13d;" horiz-adv-x="548" 
d="M141 80h346l-15 -80h-442l126 714h95zM480 714l-75 -143h-60l26 143h109z" />
    <glyph glyph-name="lcaron" unicode="&#x13e;" horiz-adv-x="222" 
d="M146 716h90l-126 -714h-90zM273 714h109l-75 -143h-60z" />
    <glyph glyph-name="Ldot" unicode="&#x13f;" horiz-adv-x="548" 
d="M141 80h346l-15 -80h-442l126 714h95zM485 548l-17 -100h-90l17 100h90z" />
    <glyph glyph-name="ldot" unicode="&#x140;" horiz-adv-x="222" 
d="M146 716h90l-126 -714h-90zM301 413h-90v104h90v-104z" />
    <glyph glyph-name="Lslash" unicode="&#x141;" horiz-adv-x="548" 
d="M141 80h346l-15 -80h-442l48 270l-128 -86v76l143 96l63 358h95l-50 -285l171 115v-76l-186 -125z" />
    <glyph glyph-name="lslash" unicode="&#x142;" horiz-adv-x="222" 
d="M245 445l-66 -53l-69 -390h-90l54 307l-54 -43v71l69 55l57 324h90l-42 -239l50 40z" />
    <glyph glyph-name="Nacute" unicode="&#x143;" horiz-adv-x="719" 
d="M537 885h134l-180 -113h-100zM156 714h113l198 -453c35 -79 54 -121 57 -128c3 15 13 65 28 149l76 432h95l-126 -714h-115l-197 450c-6 13 -15 33 -27 62c-12 28 -22 49 -29 63c-4 -19 -14 -70 -29 -154l-75 -421h-95z" />
    <glyph glyph-name="nacute" unicode="&#x144;" horiz-adv-x="555" 
d="M452 732l-131 -143h-64l86 143h109zM351 531c65 0 111 -18 137 -55c25 -37 33 -85 22 -142l-59 -332h-90l58 329c8 45 5 77 -8 96s-37 28 -72 28c-44 0 -82 -14 -115 -43s-55 -76 -66 -139v5l-49 -276h-90l92 517h90l-19 -105h1c12 33 33 60 63 83c29 23 64 34 105 34z
" />
    <glyph glyph-name="uni0145" unicode="&#x145;" horiz-adv-x="719" 
d="M156 714h113l198 -453c35 -79 54 -121 57 -128c3 15 13 65 28 149l76 432h95l-126 -714h-115l-197 450c-6 13 -15 33 -27 62c-12 28 -22 49 -29 63c-4 -19 -14 -70 -29 -154l-75 -421h-95zM256 -50h111v-77c0 -27 -9 -48 -26 -62c-18 -14 -42 -21 -73 -21v35
c13 3 22 8 29 13c6 5 9 8 10 11s1 7 1 13h-52v88z" />
    <glyph glyph-name="uni0146" unicode="&#x146;" horiz-adv-x="552" 
d="M348 531c65 0 111 -18 137 -55c25 -37 33 -85 22 -142l-59 -332h-90l58 329c8 45 5 77 -8 96s-37 28 -72 28c-44 0 -82 -14 -115 -43s-55 -76 -66 -139v5l-49 -276h-90l92 517h90l-19 -105h1c12 33 33 60 63 83c29 23 64 34 105 34zM233 -138v88h111v-77
c0 -27 -9 -48 -26 -62c-18 -14 -42 -21 -73 -21v35c13 3 22 8 29 13c6 5 9 8 10 11s1 7 1 13h-52z" />
    <glyph glyph-name="Ncaron" unicode="&#x147;" horiz-adv-x="719" 
d="M495 760h-93l-99 135h89l65 -89l94 89h92zM628 714h95l-126 -714h-115l-197 450c-6 13 -15 33 -27 62c-12 28 -22 49 -29 63c-4 -19 -14 -70 -29 -154l-75 -421h-95l126 714h113l198 -453c35 -79 54 -121 57 -128c3 15 13 65 28 149z" />
    <glyph glyph-name="ncaron" unicode="&#x148;" horiz-adv-x="560" 
d="M381 581h-93l-100 135h89l66 -89l93 89h92zM350 529c65 0 111 -18 137 -55c25 -37 33 -85 22 -142l-59 -332h-90l58 329c8 45 5 77 -8 96s-37 28 -72 28c-44 0 -82 -14 -115 -43s-55 -76 -66 -139v5l-49 -276h-90l92 517h90l-19 -105h1c12 33 33 60 63 83
c29 23 64 34 105 34z" />
    <glyph glyph-name="napostrophe" unicode="&#x149;" horiz-adv-x="556" 
d="M30 677c13 3 22 8 29 13c6 5 9 8 10 11s1 7 1 13h-52v88h111v-77c0 -27 -9 -48 -26 -62c-18 -14 -42 -21 -73 -21v35zM352 531c65 0 111 -18 137 -55c25 -37 33 -85 22 -142l-59 -332h-90l58 329c8 45 5 77 -8 96s-37 28 -72 28c-44 0 -82 -14 -115 -43s-55 -76 -66 -139
v5l-49 -276h-90l92 517h90l-19 -105h1c12 33 33 60 63 83c29 23 64 34 105 34z" />
    <glyph glyph-name="Omacron" unicode="&#x14c;" horiz-adv-x="836" 
d="M354 859h341l-10 -55h-341zM485 731c76 0 141 -17 194 -52s91 -82 112 -139c21 -58 25 -121 13 -189c-19 -104 -66 -191 -141 -262s-168 -106 -277 -106c-76 0 -141 18 -194 53s-91 81 -112 139c-21 57 -26 120 -14 188c19 104 66 191 141 262s168 106 278 106zM387 63
c86 0 158 29 216 88c57 59 93 129 108 212c9 50 6 97 -7 140c-14 43 -40 79 -78 107c-39 27 -86 41 -142 41c-86 0 -158 -29 -216 -88s-94 -130 -109 -212c-14 -77 0 -145 41 -202s103 -86 187 -86z" />
    <glyph glyph-name="omacron" unicode="&#x14d;" horiz-adv-x="602" 
d="M197 682h341v-55h-341v55zM266 -10c-81 0 -143 26 -186 78s-57 118 -43 198c14 78 48 142 102 191s120 74 197 74c81 0 143 -26 186 -78c43 -53 57 -119 43 -199c-14 -78 -48 -141 -102 -190s-120 -74 -197 -74zM266 66c53 0 99 19 138 57c39 37 63 85 73 143
c9 54 1 99 -25 135c-27 36 -65 54 -116 54c-53 0 -99 -19 -138 -57s-63 -86 -73 -144c-9 -54 -1 -99 26 -134c26 -36 64 -54 115 -54z" />
    <glyph glyph-name="Obreve" unicode="&#x14e;" horiz-adv-x="836" 
d="M675 896c-31 -81 -87 -122 -170 -122s-126 41 -128 122h52c4 -23 12 -40 25 -51c12 -11 32 -16 60 -16s50 5 66 16s30 28 43 51h52zM485 731c76 0 141 -17 194 -52s91 -82 112 -139c21 -58 25 -121 13 -189c-19 -104 -66 -191 -141 -262s-168 -106 -277 -106
c-76 0 -141 18 -194 53s-91 81 -112 139c-21 57 -26 120 -14 188c19 104 66 191 141 262s168 106 278 106zM387 63c86 0 158 29 216 88c57 59 93 129 108 212c9 50 6 97 -7 140c-14 43 -40 79 -78 107c-39 27 -86 41 -142 41c-86 0 -158 -29 -216 -88s-94 -130 -109 -212
c-14 -77 0 -145 41 -202s103 -86 187 -86z" />
    <glyph glyph-name="obreve" unicode="&#x14f;" horiz-adv-x="602" 
d="M263 731c6 -55 37 -83 93 -83c27 0 49 7 67 21c18 13 35 34 51 62h51c-15 -43 -38 -77 -69 -101c-31 -25 -68 -37 -109 -37c-46 0 -80 12 -102 36c-23 23 -33 57 -32 102h50zM266 -12c-81 0 -143 26 -186 78s-57 118 -43 198c14 78 48 142 102 191s120 74 197 74
c81 0 143 -26 186 -78c43 -53 57 -119 43 -199c-14 -78 -48 -141 -102 -190s-120 -74 -197 -74zM266 64c53 0 99 19 138 57c39 37 63 85 73 143c9 54 1 99 -25 135c-27 36 -65 54 -116 54c-53 0 -99 -19 -138 -57s-63 -86 -73 -144c-9 -54 -1 -99 26 -134
c26 -36 64 -54 115 -54z" />
    <glyph glyph-name="Ohungarumlaut" unicode="&#x150;" horiz-adv-x="836" 
d="M478 885h111l-146 -113h-76zM634 885h111l-146 -113h-76zM485 731c76 0 141 -17 194 -52s91 -82 112 -139c21 -58 25 -121 13 -189c-19 -104 -66 -191 -141 -262s-168 -106 -277 -106c-76 0 -141 18 -194 53s-91 81 -112 139c-21 57 -26 120 -14 188
c19 104 66 191 141 262s168 106 278 106zM387 63c86 0 158 29 216 88c57 59 93 129 108 212c9 50 6 97 -7 140c-14 43 -40 79 -78 107c-39 27 -86 41 -142 41c-86 0 -158 -29 -216 -88s-94 -130 -109 -212c-14 -77 0 -145 41 -202s103 -86 187 -86z" />
    <glyph glyph-name="ohungarumlaut" unicode="&#x151;" horiz-adv-x="602" 
d="M328 732h105l-120 -143h-66zM484 732h105l-120 -143h-66zM266 -10c-81 0 -143 26 -186 78s-57 118 -43 198c14 78 48 142 102 191s120 74 197 74c81 0 143 -26 186 -78c43 -53 57 -119 43 -199c-14 -78 -48 -141 -102 -190s-120 -74 -197 -74zM266 66c53 0 99 19 138 57
c39 37 63 85 73 143c9 54 1 99 -25 135c-27 36 -65 54 -116 54c-53 0 -99 -19 -138 -57s-63 -86 -73 -144c-9 -54 -1 -99 26 -134c26 -36 64 -54 115 -54z" />
    <glyph glyph-name="OE" unicode="&#x152;" horiz-adv-x="1135" 
d="M1146 634h-338l-41 -231h317l-14 -80h-317l-43 -243h342l-15 -80h-436l17 93c-69 -73 -156 -110 -262 -110c-108 0 -188 37 -240 111c-52 73 -69 163 -50 269c18 103 64 191 139 262s165 106 270 106c113 0 191 -40 234 -119l18 102h433zM357 63c81 0 150 30 207 89
s92 129 107 211c14 79 4 147 -29 204c-34 56 -90 84 -168 84c-81 0 -150 -29 -207 -88s-93 -130 -108 -212c-14 -79 -4 -146 30 -203s90 -85 168 -85z" />
    <glyph glyph-name="oe" unicode="&#x153;" horiz-adv-x="969" 
d="M928 232h-396c-4 -54 5 -96 27 -125s56 -44 101 -44c70 0 121 30 153 91h92c-48 -111 -129 -166 -243 -166c-89 0 -152 33 -188 100c-55 -67 -127 -100 -218 -100c-81 0 -141 26 -180 78c-40 51 -53 117 -39 198c14 79 47 143 98 192s114 73 191 73c89 0 154 -32 193 -96
c53 64 124 96 211 96c37 0 69 -6 96 -17c27 -12 48 -28 63 -47c15 -20 26 -43 35 -68c8 -26 12 -53 11 -81s-4 -56 -7 -84zM728 455c-44 0 -82 -14 -114 -41c-33 -28 -56 -65 -70 -110h304c5 46 -3 83 -24 110s-53 41 -96 41zM457 264c10 55 3 101 -20 136
c-24 35 -61 53 -111 53c-53 0 -97 -19 -132 -56s-58 -86 -69 -145c-10 -55 -3 -100 21 -135c23 -35 60 -53 110 -53c52 0 96 19 132 56c35 37 58 85 69 144z" />
    <glyph glyph-name="Racute" unicode="&#x154;" horiz-adv-x="659" 
d="M596 885l-180 -113h-100l146 113h134zM636 505c-7 -42 -27 -80 -60 -114c-33 -35 -73 -57 -120 -67c26 -9 45 -27 58 -53c12 -27 21 -64 26 -113c1 -3 2 -9 4 -20c1 -11 2 -17 3 -19c0 -3 1 -8 2 -17s3 -15 4 -18s2 -8 4 -15c1 -7 3 -13 5 -16c1 -3 3 -8 5 -14
s4 -11 7 -16l9 -15v-8l-105 2c-8 15 -14 31 -17 50c-4 19 -7 41 -9 68s-4 45 -6 56c-5 19 -9 35 -13 47c-5 11 -11 23 -19 35c-9 12 -20 21 -35 26s-32 8 -53 8h-149l-52 -292h-95l126 714h271c78 0 135 -20 171 -59s49 -89 38 -150zM542 517c6 35 0 64 -19 85
s-57 32 -113 32h-173l-46 -262h172c49 0 90 13 121 39s50 61 58 106z" />
    <glyph glyph-name="racute" unicode="&#x155;" horiz-adv-x="360" 
d="M334 716l-161 -139h-66l113 139h114zM179 397c20 45 46 78 78 100c31 22 66 31 104 27l-17 -88c-49 -1 -91 -18 -124 -51c-34 -34 -57 -82 -68 -143l-44 -242h-90l92 517h90z" />
    <glyph glyph-name="uni0156" unicode="&#x156;" horiz-adv-x="659" 
d="M636 505c-7 -42 -27 -80 -60 -114c-33 -35 -73 -57 -120 -67c26 -9 45 -27 58 -53c12 -27 21 -64 26 -113c1 -3 2 -9 4 -20c1 -11 2 -17 3 -19c0 -3 1 -8 2 -17s3 -15 4 -18s2 -8 4 -15c1 -7 3 -13 5 -16c1 -3 3 -8 5 -14s4 -11 7 -16l9 -15v-8l-105 2
c-8 15 -14 31 -17 50c-4 19 -7 41 -9 68s-4 45 -6 56c-5 19 -9 35 -13 47c-5 11 -11 23 -19 35c-9 12 -20 21 -35 26s-32 8 -53 8h-149l-52 -292h-95l126 714h271c78 0 135 -20 171 -59s49 -89 38 -150zM542 517c6 35 0 64 -19 85s-57 32 -113 32h-173l-46 -262h172
c49 0 90 13 121 39s50 61 58 106zM232 -138l16 88h111l-14 -77c-10 -55 -48 -83 -114 -83l7 35c13 3 24 8 31 13s11 8 12 11s2 7 3 13h-52z" />
    <glyph glyph-name="uni0157" unicode="&#x157;" horiz-adv-x="379" 
d="M177 399c20 45 46 78 78 100c31 22 66 31 104 27l-17 -88c-49 -1 -91 -18 -124 -51c-34 -34 -57 -82 -68 -143l-44 -242h-90l92 517h90zM60 -138v88h111v-77c0 -27 -9 -48 -26 -62c-18 -14 -42 -21 -73 -21v35c13 3 22 8 29 13c6 5 9 8 10 11s1 7 1 13h-52z" />
    <glyph glyph-name="Rcaron" unicode="&#x158;" horiz-adv-x="659" 
d="M454 760h-93l-99 135h89l65 -89l94 89h92zM636 505c-7 -42 -27 -80 -60 -114c-33 -35 -73 -57 -120 -67c26 -9 45 -27 58 -53c12 -27 21 -64 26 -113c1 -3 2 -9 4 -20c1 -11 2 -17 3 -19c0 -3 1 -8 2 -17s3 -15 4 -18s2 -8 4 -15c1 -7 3 -13 5 -16c1 -3 3 -8 5 -14
s4 -11 7 -16l9 -15v-8l-105 2c-8 15 -14 31 -17 50c-4 19 -7 41 -9 68s-4 45 -6 56c-5 19 -9 35 -13 47c-5 11 -11 23 -19 35c-9 12 -20 21 -35 26s-32 8 -53 8h-149l-52 -292h-95l126 714h271c78 0 135 -20 171 -59s49 -89 38 -150zM542 517c6 35 0 64 -19 85
s-57 32 -113 32h-173l-46 -262h172c49 0 90 13 121 39s50 61 58 106z" />
    <glyph glyph-name="rcaron" unicode="&#x159;" horiz-adv-x="432" 
d="M321 581h-93l-100 135h89l66 -89l93 89h92zM179 397c20 45 46 78 78 100c31 22 66 31 104 27l-17 -88c-49 -1 -91 -18 -124 -51c-34 -34 -57 -82 -68 -143l-44 -242h-90l92 517h90z" />
    <glyph glyph-name="Sacute" unicode="&#x15a;" horiz-adv-x="611" 
d="M423 885h134l-180 -113h-100zM496 509c-1 41 -14 75 -39 102c-26 27 -60 40 -101 40c-47 0 -85 -10 -114 -29c-30 -19 -45 -51 -45 -96c0 -32 9 -55 28 -70c18 -15 51 -30 98 -47c4 -1 15 -5 33 -11c17 -7 29 -11 34 -13s15 -6 31 -12c15 -7 26 -12 32 -15
c5 -4 14 -10 27 -17c12 -8 21 -15 26 -21s11 -14 20 -23c8 -10 14 -20 17 -30s6 -21 9 -34s4 -27 4 -41c0 -46 -13 -85 -39 -118s-58 -56 -95 -70s-78 -21 -122 -21c-85 0 -151 21 -200 62s-71 101 -66 181h94c-1 -55 15 -95 46 -122s73 -41 127 -41c46 0 84 12 115 35
s46 56 46 99c0 14 -2 27 -7 38s-11 20 -17 27s-16 14 -29 21s-24 13 -32 16s-21 7 -38 14c-18 6 -31 10 -38 13c-5 2 -15 6 -31 12c-16 5 -27 9 -33 12c-6 2 -16 6 -29 13c-14 6 -24 11 -29 16c-6 4 -14 10 -24 18c-11 7 -18 15 -23 23s-10 17 -15 28c-6 11 -10 23 -12 36
s-3 27 -3 42c0 63 24 113 71 150s108 55 184 55c72 0 129 -22 172 -66s63 -96 62 -157z" />
    <glyph glyph-name="sacute" unicode="&#x15b;" horiz-adv-x="504" 
d="M334 716h114l-161 -139h-66zM373 366c-3 58 -36 87 -99 87c-69 0 -107 -23 -112 -68c-1 -11 0 -21 5 -30s10 -17 17 -23s17 -12 32 -17c15 -6 27 -10 37 -13c9 -3 24 -7 43 -12c105 -27 153 -80 144 -158c-3 -27 -11 -50 -25 -69s-31 -34 -52 -45s-42 -18 -64 -23
c-23 -5 -46 -7 -71 -7c-34 0 -66 6 -95 17s-55 31 -76 60c-22 28 -33 62 -33 102h88c9 -69 49 -103 119 -103c32 0 59 6 82 19c23 12 35 31 38 56c1 13 -1 24 -6 34c-6 9 -16 18 -31 25s-28 13 -40 17c-13 4 -31 9 -54 16c-23 6 -42 12 -57 19c-16 7 -32 16 -49 28
s-28 28 -35 47s-9 42 -6 67c7 46 30 80 69 103s84 34 135 34c57 0 101 -13 134 -40s49 -68 49 -123h-87z" />
    <glyph glyph-name="Scircumflex" unicode="&#x15c;" horiz-adv-x="611" 
d="M378 842l-76 -78h-100l135 127h100l91 -127h-100zM356 651c-47 0 -85 -10 -114 -29c-30 -19 -45 -51 -45 -96c0 -32 9 -55 28 -70c18 -15 51 -30 98 -47c4 -1 15 -5 33 -11c17 -7 29 -11 34 -13s15 -6 31 -12c15 -7 26 -12 32 -15c5 -4 14 -10 27 -17
c12 -8 21 -15 26 -21s11 -14 20 -23c8 -10 14 -20 17 -30s6 -21 9 -34s4 -27 4 -41c0 -46 -13 -85 -39 -118s-58 -56 -95 -70s-78 -21 -122 -21c-85 0 -151 21 -200 62s-71 101 -66 181h94c-1 -55 15 -95 46 -122s73 -41 127 -41c46 0 84 12 115 35s46 56 46 99
c0 14 -2 27 -7 38s-11 20 -17 27s-16 14 -29 21s-24 13 -32 16s-21 7 -38 14c-18 6 -31 10 -38 13c-5 2 -15 6 -31 12c-16 5 -27 9 -33 12c-6 2 -16 6 -29 13c-14 6 -24 11 -29 16c-6 4 -14 10 -24 18c-11 7 -18 15 -23 23s-10 17 -15 28c-6 11 -10 23 -12 36s-3 27 -3 42
c0 63 24 113 71 150s108 55 184 55c72 0 129 -22 172 -66s63 -96 62 -157l-95 1c-1 41 -14 75 -39 102c-26 27 -60 40 -101 40z" />
    <glyph glyph-name="scircumflex" unicode="&#x15d;" horiz-adv-x="504" 
d="M306 669l-81 -84h-94l136 131h94l90 -131h-94zM296 290c105 -27 153 -80 144 -158c-3 -27 -11 -50 -25 -69s-31 -34 -52 -45s-42 -18 -64 -23c-23 -5 -46 -7 -71 -7c-34 0 -66 6 -95 17s-55 31 -76 60c-22 28 -33 62 -33 102h88c9 -69 49 -103 119 -103c32 0 59 6 82 19
c23 12 35 31 38 56c1 13 -1 24 -6 34c-6 9 -16 18 -31 25s-28 13 -40 17c-13 4 -31 9 -54 16c-23 6 -42 12 -57 19c-16 7 -32 16 -49 28s-28 28 -35 47s-9 42 -6 67c7 46 30 80 69 103s84 34 135 34c57 0 101 -13 134 -40s49 -68 49 -123h-87c-3 58 -36 87 -99 87
c-69 0 -107 -23 -112 -68c-1 -11 0 -21 5 -30s10 -17 17 -23s17 -12 32 -17c15 -6 27 -10 37 -13c9 -3 24 -7 43 -12z" />
    <glyph glyph-name="Scedilla" unicode="&#x15e;" horiz-adv-x="611" 
d="M356 651c-47 0 -85 -10 -114 -29c-30 -19 -45 -51 -45 -96c0 -32 9 -55 28 -70c18 -15 51 -30 98 -47c4 -1 15 -5 33 -11c17 -7 29 -11 34 -13s15 -6 31 -12c15 -7 26 -12 32 -15c5 -4 14 -10 27 -17c12 -8 21 -15 26 -21s11 -14 20 -23c8 -10 14 -20 17 -30s6 -21 9 -34
s4 -27 4 -41c0 -61 -21 -110 -63 -145s-94 -56 -156 -62l-38 -34c8 2 16 3 25 3c25 0 45 -7 59 -21c13 -15 15 -34 6 -58c-11 -29 -30 -50 -59 -63s-59 -20 -90 -20c-34 0 -64 7 -90 21l32 48c13 -11 32 -17 56 -17c39 0 63 12 74 37c3 8 2 14 -3 18c-5 3 -14 5 -27 5
s-28 -3 -46 -9l-18 40l60 48c-78 4 -139 26 -184 67s-65 99 -60 176h94c-1 -55 15 -95 46 -122s73 -41 127 -41c46 0 84 12 115 35s46 56 46 99c0 14 -2 27 -7 38s-11 20 -17 27s-16 14 -29 21s-24 13 -32 16s-21 7 -38 14c-18 6 -31 10 -38 13c-5 2 -15 6 -31 12
c-16 5 -27 9 -33 12c-6 2 -16 6 -29 13c-14 6 -24 11 -29 16c-6 4 -14 10 -24 18c-11 7 -18 15 -23 23s-10 17 -15 28c-6 11 -10 23 -12 36s-3 27 -3 42c0 63 24 113 71 150s108 55 184 55c72 0 129 -22 172 -66s63 -96 62 -157l-95 1c-1 41 -14 75 -39 102
c-26 27 -60 40 -101 40z" />
    <glyph glyph-name="scedilla" unicode="&#x15f;" horiz-adv-x="504" 
d="M296 290c105 -27 153 -80 144 -158c-3 -26 -11 -49 -24 -68c-14 -20 -31 -35 -52 -45c-21 -11 -42 -18 -64 -23s-45 -8 -69 -8l-38 -39l2 -2c7 5 19 7 34 7c23 0 42 -6 56 -19s19 -31 15 -54c-5 -31 -22 -53 -49 -67c-28 -15 -58 -22 -91 -22s-63 7 -89 20l28 49
c17 -13 36 -19 57 -19c16 0 31 3 45 8c13 5 21 12 23 23c1 9 -2 17 -9 23c-8 5 -19 8 -33 8c-11 0 -25 -3 -42 -8l-20 39l61 57c-45 9 -82 28 -112 57s-45 68 -45 118h88c9 -69 49 -103 119 -103c32 0 59 6 82 19c23 12 35 31 38 56c1 13 -1 24 -6 34c-6 9 -16 18 -31 25
s-28 13 -40 17c-13 4 -31 9 -54 16c-23 6 -42 12 -57 19c-16 7 -32 16 -49 28s-28 28 -35 47s-9 42 -6 67c7 46 30 80 69 103s84 34 135 34c57 0 101 -13 134 -40s49 -68 49 -123h-87c-3 58 -36 87 -99 87c-69 0 -107 -23 -112 -68c-1 -11 0 -21 5 -30s10 -17 17 -23
s17 -12 32 -17c15 -6 27 -10 37 -13c9 -3 24 -7 43 -12z" />
    <glyph glyph-name="Scaron" unicode="&#x160;" horiz-adv-x="611" 
d="M401 760h-93l-99 135h89l65 -89l94 89h92zM356 651c-47 0 -85 -10 -114 -29c-30 -19 -45 -51 -45 -96c0 -32 9 -55 28 -70c18 -15 51 -30 98 -47c4 -1 15 -5 33 -11c17 -7 29 -11 34 -13s15 -6 31 -12c15 -7 26 -12 32 -15c5 -4 14 -10 27 -17c12 -8 21 -15 26 -21
s11 -14 20 -23c8 -10 14 -20 17 -30s6 -21 9 -34s4 -27 4 -41c0 -46 -13 -85 -39 -118s-58 -56 -95 -70s-78 -21 -122 -21c-85 0 -151 21 -200 62s-71 101 -66 181h94c-1 -55 15 -95 46 -122s73 -41 127 -41c46 0 84 12 115 35s46 56 46 99c0 14 -2 27 -7 38s-11 20 -17 27
s-16 14 -29 21s-24 13 -32 16s-21 7 -38 14c-18 6 -31 10 -38 13c-5 2 -15 6 -31 12c-16 5 -27 9 -33 12c-6 2 -16 6 -29 13c-14 6 -24 11 -29 16c-6 4 -14 10 -24 18c-11 7 -18 15 -23 23s-10 17 -15 28c-6 11 -10 23 -12 36s-3 27 -3 42c0 63 24 113 71 150s108 55 184 55
c72 0 129 -22 172 -66s63 -96 62 -157l-95 1c-1 41 -14 75 -39 102c-26 27 -60 40 -101 40z" />
    <glyph glyph-name="scaron" unicode="&#x161;" horiz-adv-x="504" 
d="M347 581h-93l-100 135h89l66 -89l93 89h92zM274 453c-69 0 -107 -23 -112 -68c-1 -11 0 -21 5 -30s10 -17 17 -23s17 -12 32 -17c15 -6 27 -10 37 -13c9 -3 24 -7 43 -12c105 -27 153 -80 144 -158c-3 -27 -11 -50 -25 -69s-31 -34 -52 -45s-42 -18 -64 -23
c-23 -5 -46 -7 -71 -7c-34 0 -66 6 -95 17s-55 31 -76 60c-22 28 -33 62 -33 102h88c9 -69 49 -103 119 -103c32 0 59 6 82 19c23 12 35 31 38 56c1 13 -1 24 -6 34c-6 9 -16 18 -31 25s-28 13 -40 17c-13 4 -31 9 -54 16c-23 6 -42 12 -57 19c-16 7 -32 16 -49 28
s-28 28 -35 47s-9 42 -6 67c7 46 30 80 69 103s84 34 135 34c57 0 101 -13 134 -40s49 -68 49 -123h-87c-3 58 -36 87 -99 87z" />
    <glyph glyph-name="Tcaron" unicode="&#x164;" horiz-adv-x="573" 
d="M420 760h-93l-99 135h89l65 -89l94 89h92zM633 714l-14 -80h-218l-113 -634h-95l113 634h-220l14 80h533z" />
    <glyph glyph-name="tcaron" unicode="&#x165;" horiz-adv-x="332" 
d="M315 714h109l-75 -143h-60zM256 686l-30 -167h100l-13 -74h-100l-53 -301c-8 -45 6 -68 41 -68h35l-13 -74h-47c-43 0 -72 14 -89 41s-22 61 -15 101l53 301h-76l13 74h76l22 127l92 40h4z" />
    <glyph glyph-name="Tbar" unicode="&#x166;" horiz-adv-x="573" 
d="M619 634h-218l-27 -148h141v-55h-150l-77 -431h-95l77 431h-136v55h145l27 148h-220l14 80h533z" />
    <glyph glyph-name="tbar" unicode="&#x167;" horiz-adv-x="334" 
d="M311 445h-100l-18 -101h117v-53h-126l-26 -147c-8 -45 6 -68 41 -68h35l-13 -74h-47c-43 0 -72 14 -89 41s-22 61 -15 101l26 147h-86v53h95l18 101h-76l13 74h76l22 127l92 40h4l-30 -167h100z" />
    <glyph glyph-name="Utilde" unicode="&#x168;" horiz-adv-x="670" 
d="M615 891c-11 -33 -26 -60 -47 -80c-21 -21 -45 -31 -73 -31c-19 0 -43 7 -72 20s-50 19 -63 19c-21 0 -40 -14 -56 -42h-52c29 73 70 110 125 110c19 0 42 -7 70 -20s49 -20 62 -20c22 0 40 15 54 44h52zM603 251c-14 -77 -46 -141 -95 -192s-116 -76 -199 -76
c-91 0 -158 26 -200 78c-43 52 -57 117 -43 196l80 457h95l-81 -463c-9 -54 -1 -99 24 -134c25 -36 67 -54 126 -54c57 0 102 18 135 55c33 36 54 82 64 139l80 457h95z" />
    <glyph glyph-name="utilde" unicode="&#x169;" horiz-adv-x="560" 
d="M279 647c-21 0 -39 -14 -56 -42h-52c29 73 70 110 125 110c19 0 42 -7 70 -20s49 -20 62 -20c22 0 40 15 54 44h52c-9 -29 -24 -55 -46 -79c-19 -21 -44 -32 -75 -32c-21 0 -44 7 -71 20c-25 13 -46 19 -63 19zM448 517h90l-92 -517h-90l19 105h-1
c-12 -33 -33 -60 -62 -83c-30 -23 -65 -34 -106 -34c-65 0 -111 19 -136 56c-26 37 -34 84 -23 141l59 332h90l-58 -329c-8 -45 -5 -76 8 -95s37 -29 72 -29c44 0 83 15 116 44s54 75 65 138v-5z" />
    <glyph glyph-name="Umacron" unicode="&#x16a;" horiz-adv-x="670" 
d="M273 859h341l-10 -55h-341zM603 251c-14 -77 -46 -141 -95 -192s-116 -76 -199 -76c-91 0 -158 26 -200 78c-43 52 -57 117 -43 196l80 457h95l-81 -463c-9 -54 -1 -99 24 -134c25 -36 67 -54 126 -54c57 0 102 18 135 55c33 36 54 82 64 139l80 457h95z" />
    <glyph glyph-name="umacron" unicode="&#x16b;" horiz-adv-x="569" 
d="M476 682v-55h-341v55h341zM461 519h90l-92 -517h-90l19 105h-1c-12 -33 -33 -60 -62 -83c-30 -23 -65 -34 -106 -34c-65 0 -111 19 -136 56c-26 37 -34 84 -23 141l59 332h90l-58 -329c-8 -45 -5 -76 8 -95s37 -29 72 -29c44 0 83 15 116 44s54 75 65 138v-5z" />
    <glyph glyph-name="Ubreve" unicode="&#x16c;" horiz-adv-x="670" 
d="M594 896c-31 -81 -87 -122 -170 -122s-126 41 -128 122h52c4 -23 12 -40 25 -51c12 -11 32 -16 60 -16s50 5 66 16s30 28 43 51h52zM603 251c-14 -77 -46 -141 -95 -192s-116 -76 -199 -76c-91 0 -158 26 -200 78c-43 52 -57 117 -43 196l80 457h95l-81 -463
c-9 -54 -1 -99 24 -134c25 -36 67 -54 126 -54c57 0 102 18 135 55c33 36 54 82 64 139l80 457h95z" />
    <glyph glyph-name="ubreve" unicode="&#x16d;" horiz-adv-x="567" 
d="M297 591c-89 0 -141 46 -154 138h50c16 -55 53 -83 112 -83c27 0 47 7 61 20s27 34 38 63h51c-7 -43 -25 -77 -52 -101c-27 -25 -63 -37 -106 -37zM459 519h90l-92 -517h-90l19 105h-1c-12 -33 -33 -60 -62 -83c-30 -23 -65 -34 -106 -34c-65 0 -111 19 -136 56
c-26 37 -34 84 -23 141l59 332h90l-58 -329c-8 -45 -5 -76 8 -95s37 -29 72 -29c44 0 83 15 116 44s54 75 65 138v-5z" />
    <glyph glyph-name="Uring" unicode="&#x16e;" horiz-adv-x="670" 
d="M460 985c29 0 53 -10 70 -31s24 -47 19 -77s-20 -55 -45 -76s-53 -32 -82 -32s-53 11 -70 32c-18 21 -24 46 -19 76s20 56 45 77s52 31 82 31zM430 814c18 0 34 6 47 18c13 11 22 26 25 44s0 33 -9 45c-10 11 -24 17 -42 17s-33 -6 -46 -17c-13 -12 -22 -27 -25 -45
s0 -33 9 -44c9 -12 23 -18 41 -18zM603 251c-14 -77 -46 -141 -95 -192s-116 -76 -199 -76c-91 0 -158 26 -200 78c-43 52 -57 117 -43 196l80 457h95l-81 -463c-9 -54 -1 -99 24 -134c25 -36 67 -54 126 -54c57 0 102 18 135 55c33 36 54 82 64 139l80 457h95z" />
    <glyph glyph-name="uring" unicode="&#x16f;" horiz-adv-x="556" 
d="M288 569c-31 0 -57 11 -79 33c-23 22 -34 48 -34 79s11 57 34 79c22 22 48 33 79 33s57 -11 80 -33c22 -22 33 -48 33 -79s-11 -57 -33 -79c-23 -22 -49 -33 -80 -33zM288 748c-19 0 -35 -6 -48 -19s-19 -30 -19 -49s6 -35 19 -48s29 -20 48 -20s35 7 48 20s19 29 19 48
s-6 36 -19 49s-29 19 -48 19zM448 519h90l-92 -517h-90l19 105h-1c-12 -33 -33 -60 -62 -83c-30 -23 -65 -34 -106 -34c-65 0 -111 19 -136 56c-26 37 -34 84 -23 141l59 332h90l-58 -329c-8 -45 -5 -76 8 -95s37 -29 72 -29c44 0 83 15 116 44s54 75 65 138v-5z" />
    <glyph glyph-name="Uhungarumlaut" unicode="&#x170;" horiz-adv-x="670" 
d="M405 885h111l-146 -113h-76zM561 885h111l-146 -113h-76zM603 251c-14 -77 -46 -141 -95 -192s-116 -76 -199 -76c-91 0 -158 26 -200 78c-43 52 -57 117 -43 196l80 457h95l-81 -463c-9 -54 -1 -99 24 -134c25 -36 67 -54 126 -54c57 0 102 18 135 55
c33 36 54 82 64 139l80 457h95z" />
    <glyph glyph-name="uhungarumlaut" unicode="&#x171;" horiz-adv-x="556" 
d="M359 732l-120 -143h-66l81 143h105zM395 589h-66l81 143h105zM448 519h90l-92 -517h-90l19 105h-1c-12 -33 -33 -60 -62 -83c-30 -23 -65 -34 -106 -34c-65 0 -111 19 -136 56c-26 37 -34 84 -23 141l59 332h90l-58 -329c-8 -45 -5 -76 8 -95s37 -29 72 -29
c44 0 83 15 116 44s54 75 65 138v-5z" />
    <glyph glyph-name="Uogonek" unicode="&#x172;" horiz-adv-x="670" 
d="M589 714h95l-81 -463c-14 -75 -45 -138 -92 -188c-48 -51 -112 -77 -192 -80c-48 -37 -74 -70 -79 -99c-2 -11 -1 -21 4 -29c5 -9 13 -13 26 -13c26 0 48 10 67 30l29 -18c-31 -41 -70 -62 -119 -62c-61 0 -86 27 -77 82c3 17 13 35 30 56c17 20 42 38 76 54
c-80 7 -138 36 -174 87c-37 51 -49 113 -36 186l80 457h95l-81 -463c-9 -54 -1 -99 24 -134c25 -36 67 -54 126 -54c57 0 102 18 135 55c33 36 54 82 64 139z" />
    <glyph glyph-name="uogonek" unicode="&#x173;" horiz-adv-x="654" 
d="M424 -160c25 0 46 10 62 30l32 -18c-24 -41 -60 -62 -108 -62c-61 0 -92 27 -92 82c0 7 2 16 6 27s14 25 31 44c16 18 37 35 64 51l15 8h-78l19 105h-1c-12 -33 -33 -60 -62 -83c-30 -23 -65 -34 -106 -34c-65 0 -111 19 -136 56c-26 37 -34 84 -23 141l59 332h90
l-58 -329c-8 -45 -5 -76 8 -95s37 -29 72 -29c44 0 83 15 116 44s54 75 65 138v-5l49 276h90l-91 -514l31 1l-13 -10c-53 -45 -79 -83 -79 -114c0 -11 3 -21 10 -29c6 -9 15 -13 28 -13z" />
    <glyph glyph-name="Wcircumflex" unicode="&#x174;" horiz-adv-x="918" 
d="M558 842l-76 -78h-100l135 127h100l91 -127h-100zM888 714h101l-313 -714h-128l-23 518c-1 13 -2 47 -2 100c-5 -11 -11 -29 -20 -53s-15 -41 -20 -52l-212 -513h-127l-53 714h99l29 -553c1 -28 3 -49 4 -62l26 67l224 548h130l23 -539c2 -51 3 -76 3 -77
c12 27 23 55 34 83z" />
    <glyph glyph-name="wcircumflex" unicode="&#x175;" horiz-adv-x="750" 
d="M433 669l-81 -84h-94l136 131h94l90 -131h-94zM710 517h93l-244 -517h-95l-40 445l-198 -445h-95l-61 517h91l32 -425l184 425h116l34 -425z" />
    <glyph glyph-name="Ycircumflex" unicode="&#x176;" horiz-adv-x="628" 
d="M422 842l-76 -78h-100l135 127h100l91 -127h-100zM690 714l-325 -422l-52 -292h-95l52 297l-172 417h107l127 -332l245 332h113z" />
    <glyph glyph-name="ycircumflex" unicode="&#x177;" horiz-adv-x="532" 
d="M310 669l-81 -84h-94l136 131h94l90 -131h-94zM469 517h98l-344 -620c-35 -65 -83 -97 -146 -97h-73l14 76h53c15 0 29 4 41 11c11 7 20 15 25 22s11 19 20 35l28 48l-122 525h94l87 -428z" />
    <glyph glyph-name="Ydieresis" unicode="&#x178;" horiz-adv-x="628" 
d="M382 886l-18 -104h-90l18 104h90zM550 886l-18 -104h-90l18 104h90zM690 714l-325 -422l-52 -292h-95l52 297l-172 417h107l127 -332l245 332h113z" />
    <glyph glyph-name="Zacute" unicode="&#x179;" horiz-adv-x="620" 
d="M609 885l-180 -113h-100l146 113h134zM644 714l-14 -86l-489 -544h404l-15 -84h-520l14 86l492 544h-372l14 84h486z" />
    <glyph glyph-name="zacute" unicode="&#x17a;" horiz-adv-x="516" 
d="M455 716l-161 -139h-66l113 139h114zM516 517l-9 -54l-381 -387h320l-14 -76h-436l10 61l376 380h-286l14 76h406z" />
    <glyph glyph-name="Zdotaccent" unicode="&#x17b;" horiz-adv-x="620" 
d="M460 892l-17 -100h-90l17 100h90zM644 714l-14 -86l-489 -544h404l-15 -84h-520l14 86l492 544h-372l14 84h486z" />
    <glyph glyph-name="zdotaccent" unicode="&#x17c;" horiz-adv-x="513" 
d="M297 708v-104h-90v104h90zM517 519l-9 -54l-381 -387h320l-14 -76h-436l10 61l376 380h-286l14 76h406z" />
    <glyph glyph-name="Zcaron" unicode="&#x17d;" horiz-adv-x="620" 
d="M452 760h-93l-99 135h89l65 -89l94 89h92zM644 714l-14 -86l-489 -544h404l-15 -84h-520l14 86l492 544h-372l14 84h486z" />
    <glyph glyph-name="zcaron" unicode="&#x17e;" horiz-adv-x="516" 
d="M370 581h-93l-100 135h89l66 -89l93 89h92zM96 441l14 76h406l-9 -54l-381 -387h320l-14 -76h-436l10 61l376 380h-286z" />
    <glyph glyph-name="florin" unicode="&#x192;" horiz-adv-x="568" 
d="M504 714h74l-27 -75h-59c-33 0 -57 -17 -71 -52l-54 -138h101l-26 -68h-101l-109 -311c-31 -90 -64 -152 -97 -185c-34 -33 -79 -50 -135 -50h-66l28 75c53 0 88 6 106 17s35 40 51 85l135 369h-92l24 68h92l50 136c15 39 37 71 68 94s67 35 108 35z" />
    <glyph glyph-name="uni0218" unicode="&#x218;" horiz-adv-x="611" 
d="M496 509c-1 41 -14 75 -39 102c-26 27 -60 40 -101 40c-47 0 -85 -10 -114 -29c-30 -19 -45 -51 -45 -96c0 -32 9 -55 28 -70c18 -15 51 -30 98 -47c4 -1 15 -5 33 -11c17 -7 29 -11 34 -13s15 -6 31 -12c15 -7 26 -12 32 -15c5 -4 14 -10 27 -17c12 -8 21 -15 26 -21
s11 -14 20 -23c8 -10 14 -20 17 -30s6 -21 9 -34s4 -27 4 -41c0 -46 -13 -85 -39 -118s-58 -56 -95 -70s-78 -21 -122 -21c-85 0 -151 21 -200 62s-71 101 -66 181h94c-1 -55 15 -95 46 -122s73 -41 127 -41c46 0 84 12 115 35s46 56 46 99c0 14 -2 27 -7 38s-11 20 -17 27
s-16 14 -29 21s-24 13 -32 16s-21 7 -38 14c-18 6 -31 10 -38 13c-5 2 -15 6 -31 12c-16 5 -27 9 -33 12c-6 2 -16 6 -29 13c-14 6 -24 11 -29 16c-6 4 -14 10 -24 18c-11 7 -18 15 -23 23s-10 17 -15 28c-6 11 -10 23 -12 36s-3 27 -3 42c0 63 24 113 71 150s108 55 184 55
c72 0 129 -22 172 -66s63 -96 62 -157zM240 -50h111l-14 -77c-10 -55 -48 -83 -114 -83l7 35c13 3 24 8 31 13s11 8 12 11s2 7 3 13h-52z" />
    <glyph glyph-name="uni0219" unicode="&#x219;" horiz-adv-x="494" 
d="M373 368c-3 58 -36 87 -99 87c-69 0 -107 -23 -112 -68c-1 -11 0 -21 5 -30s10 -17 17 -23s17 -12 32 -17c15 -6 27 -10 37 -13c9 -3 24 -7 43 -12c105 -27 153 -80 144 -158c-3 -27 -11 -50 -25 -69s-31 -34 -52 -45s-42 -18 -64 -23c-23 -5 -46 -7 -71 -7
c-34 0 -66 6 -95 17s-55 31 -76 60c-22 28 -33 62 -33 102h88c9 -69 49 -103 119 -103c32 0 59 6 82 19c23 12 35 31 38 56c1 13 -1 24 -6 34c-6 9 -16 18 -31 25s-28 13 -40 17c-13 4 -31 9 -54 16c-23 6 -42 12 -57 19c-16 7 -32 16 -49 28s-28 28 -35 47s-9 42 -6 67
c7 46 30 80 69 103s84 34 135 34c57 0 101 -13 134 -40s49 -68 49 -123h-87zM204 -50h111v-77c0 -27 -9 -48 -26 -62c-18 -14 -42 -21 -73 -21v35c13 3 22 8 29 13c6 5 9 8 10 11s1 7 1 13h-52v88z" />
    <glyph glyph-name="uni021A" unicode="&#x21a;" horiz-adv-x="573" 
d="M633 714l-14 -80h-218l-113 -634h-95l113 634h-220l14 80h533zM175 -138v88h111v-77c0 -27 -9 -48 -26 -62c-18 -14 -42 -21 -73 -21v35c13 3 22 8 29 13c6 5 9 8 10 11s1 7 1 13h-52z" />
    <glyph glyph-name="uni021B" unicode="&#x21b;" horiz-adv-x="350" 
d="M226 519h100l-13 -74h-100l-53 -301c-8 -45 6 -68 41 -68h35l-13 -74h-47c-43 0 -72 14 -89 41s-22 61 -15 101l53 301h-76l13 74h76l22 127l92 40h4zM139 -138v88h111v-77c0 -27 -9 -48 -26 -62c-18 -14 -42 -21 -73 -21v35c13 3 22 8 29 13c6 5 9 8 10 11s1 7 1 13h-52
z" />
    <glyph glyph-name="circumflex" unicode="&#x2c6;" horiz-adv-x="400" 
d="M387 583h-94l-51 84l-81 -84h-94l136 131h94z" />
    <glyph glyph-name="caron" unicode="&#x2c7;" horiz-adv-x="400" 
d="M338 714h92l-147 -135h-93l-100 135h89l66 -89z" />
    <glyph glyph-name="uni02C9" unicode="&#x2c9;" horiz-adv-x="401" 
d="M105 682h341l-10 -55h-341z" />
    <glyph glyph-name="breve" unicode="&#x2d8;" horiz-adv-x="372" 
d="M147 729c6 -55 37 -83 93 -83c27 0 49 7 67 21c18 13 35 34 51 62h51c-15 -43 -38 -77 -69 -101c-31 -25 -68 -37 -109 -37c-46 0 -80 12 -102 36c-23 23 -33 57 -32 102h50z" />
    <glyph glyph-name="dotaccent" unicode="&#x2d9;" horiz-adv-x="150" 
d="M181 604h-90l18 104h90z" />
    <glyph glyph-name="ring" unicode="&#x2da;" horiz-adv-x="286" 
d="M237 793c31 0 55 -11 74 -33c18 -22 24 -48 19 -79s-20 -57 -46 -79c-27 -22 -55 -33 -86 -33s-55 11 -73 33c-19 22 -26 48 -21 79s21 57 48 79c26 22 54 33 85 33zM205 612c19 0 37 7 52 20s24 29 27 48s0 36 -10 49c-11 13 -26 19 -45 19s-36 -6 -51 -19
s-25 -30 -28 -49s0 -35 11 -48c10 -13 25 -20 44 -20z" />
    <glyph glyph-name="ogonek" unicode="&#x2db;" horiz-adv-x="260" 
d="M140 3c-67 -47 -103 -87 -108 -121c-2 -11 -1 -21 4 -29c5 -9 13 -13 26 -13c26 0 48 10 67 30l29 -18c-31 -41 -70 -62 -119 -62c-61 0 -86 27 -77 82c3 21 18 44 43 69s64 45 115 62h20z" />
    <glyph glyph-name="tilde" unicode="&#x2dc;" 
d="M483 717h52c-9 -29 -24 -55 -46 -79c-19 -21 -44 -32 -75 -32c-21 0 -44 7 -71 20c-25 13 -46 19 -63 19c-21 0 -39 -14 -56 -42h-52c29 73 70 110 125 110c19 0 42 -7 70 -20s49 -20 62 -20c22 0 40 15 54 44z" />
    <glyph glyph-name="hungarumlaut" unicode="&#x2dd;" horiz-adv-x="402" 
d="M194 732h105l-145 -143h-66zM350 732h105l-145 -143h-66z" />
    <glyph glyph-name="uni0326" unicode="&#x326;" horiz-adv-x="0" 
d="M-195 -50h111l-14 -77c-10 -55 -48 -83 -114 -83l7 35c13 3 24 8 31 13s11 8 12 11s2 7 3 13h-52z" />
    <glyph glyph-name="uni0394" unicode="&#x394;" horiz-adv-x="686" 
d="M19 0l279 712h83l287 -712h-649zM339 628l-213 -556h430z" />
    <glyph glyph-name="uni03A9" unicode="&#x3a9;" horiz-adv-x="760" 
d="M438 0v183c57 11 100 37 131 78c30 40 45 90 45 149c0 69 -23 127 -68 172s-103 67 -172 67s-126 -23 -172 -68s-69 -102 -69 -171c0 -59 16 -109 47 -150c31 -42 74 -68 130 -77v-183h-257v67h193v72c-60 17 -107 50 -141 101c-35 51 -52 108 -52 173
c0 89 31 162 94 221c63 58 138 87 227 87s165 -29 227 -86c62 -58 93 -131 93 -220c0 -66 -17 -124 -50 -174c-34 -51 -81 -85 -142 -102v-72h192v-67h-256z" />
    <glyph glyph-name="uni03BC" unicode="&#x3bc;" horiz-adv-x="568" 
d="M498 0h-80v102h-2c-7 -44 -23 -74 -47 -90s-57 -24 -99 -24c-30 0 -55 8 -75 25c-20 16 -33 37 -38 63h-2v-274h-85v715h85v-330c0 -43 10 -75 31 -94c21 -20 49 -30 84 -30c49 0 86 15 109 44s34 69 34 118v292h85v-517z" />
    <glyph glyph-name="pi" unicode="&#x3c0;" horiz-adv-x="582" 
d="M553 11c-24 -11 -47 -17 -69 -17c-19 0 -35 3 -47 9c-13 6 -21 15 -26 28c-5 12 -9 24 -10 36c-2 12 -3 28 -3 47v296h-246v-410h-75v410h-69v69h541v-69h-76v-299c0 -17 2 -30 7 -39s15 -14 31 -14c14 0 28 3 42 10v-57z" />
    <glyph glyph-name="endash" unicode="&#x2013;" horiz-adv-x="584" 
d="M52 318h500l-14 -80h-500z" />
    <glyph glyph-name="emdash" unicode="&#x2014;" horiz-adv-x="812" 
d="M46 318h740l-14 -80h-740z" />
    <glyph glyph-name="quoteleft" unicode="&#x2018;" horiz-adv-x="217" 
d="M176 480h-95l106 234h80z" />
    <glyph glyph-name="quoteright" unicode="&#x2019;" horiz-adv-x="217" 
d="M172 714h95l-106 -234h-80z" />
    <glyph glyph-name="quotesinglbase" unicode="&#x201a;" horiz-adv-x="217" 
d="M68 121h95l-107 -234h-80z" />
    <glyph glyph-name="quotedblleft" unicode="&#x201c;" horiz-adv-x="397" 
d="M176 480h-95l106 234h80zM356 480h-95l106 234h80z" />
    <glyph glyph-name="quotedblright" unicode="&#x201d;" horiz-adv-x="397" 
d="M172 714h95l-106 -234h-80zM352 714h95l-106 -234h-80z" />
    <glyph glyph-name="quotedblbase" unicode="&#x201e;" horiz-adv-x="397" 
d="M68 121h95l-107 -234h-80zM248 121h95l-107 -234h-80z" />
    <glyph glyph-name="dagger" unicode="&#x2020;" horiz-adv-x="568" 
d="M566 517l-14 -75h-198l-105 -597h-80l105 597h-194l14 75h193l35 197h80l-35 -197h199z" />
    <glyph glyph-name="daggerdbl" unicode="&#x2021;" horiz-adv-x="568" 
d="M552 442h-198l-57 -325h198l-13 -75h-198l-35 -197h-80l35 197h-194l13 75h194l57 325h-194l14 75h193l35 197h80l-35 -197h199z" />
    <glyph glyph-name="bullet" unicode="&#x2022;" horiz-adv-x="501" 
d="M255 455c51 0 95 -18 131 -53c35 -35 53 -79 53 -130s-18 -95 -53 -131c-36 -37 -80 -55 -131 -55s-95 18 -131 55c-36 36 -54 80 -54 131s18 95 54 130s80 53 131 53z" />
    <glyph glyph-name="ellipsis" unicode="&#x2026;" horiz-adv-x="680" 
d="M42 120h108l-22 -120h-108zM262 120h108l-22 -120h-108zM482 120h108l-22 -120h-108z" />
    <glyph glyph-name="perthousand" unicode="&#x2030;" horiz-adv-x="1160" 
d="M670 725h74l-567 -749h-74zM304 714c45 0 76 -17 92 -51c15 -34 18 -75 9 -124s-27 -91 -54 -126s-64 -53 -109 -53c-31 0 -55 9 -73 28c-18 18 -28 40 -30 67c-3 27 -2 55 2 84c9 49 28 91 55 125c27 33 63 50 108 50zM252 420c41 0 69 40 84 120c13 77 -1 116 -42 116
c-22 0 -40 -11 -53 -33c-14 -22 -24 -50 -29 -83c-15 -80 -1 -120 40 -120zM613 352c45 0 76 -17 92 -51c15 -34 19 -75 10 -124s-27 -91 -54 -126c-28 -35 -65 -53 -110 -53c-31 0 -55 9 -72 28c-18 18 -28 40 -30 67c-3 27 -2 55 2 84c9 49 27 90 54 124s63 51 108 51z
M922 352c45 0 76 -17 92 -51c15 -34 19 -75 10 -124s-27 -91 -54 -126c-28 -35 -65 -53 -110 -53c-31 0 -55 9 -72 28c-18 18 -28 40 -30 67c-3 27 -2 55 2 84c9 49 27 90 54 124s63 51 108 51zM562 58c41 0 68 40 83 120c13 77 -1 116 -42 116c-22 0 -40 -11 -53 -33
c-14 -22 -24 -50 -29 -83c-7 -31 -8 -58 -1 -83c6 -25 20 -37 42 -37zM871 58c41 0 68 40 83 120c13 77 -1 116 -42 116c-22 0 -40 -11 -53 -33c-14 -22 -24 -50 -29 -83c-7 -31 -8 -58 -1 -83c6 -25 20 -37 42 -37z" />
    <glyph glyph-name="guilsinglleft" unicode="&#x2039;" horiz-adv-x="239" 
d="M11 266l165 214h80l-150 -214l75 -214h-80z" />
    <glyph glyph-name="guilsinglright" unicode="&#x203a;" horiz-adv-x="239" 
d="M230 266l-164 -214h-80l149 214l-74 214h80z" />
    <glyph glyph-name="fraction" unicode="&#x2044;" horiz-adv-x="179" 
d="M275 725h74l-435 -749h-74z" />
    <glyph glyph-name="Euro" unicode="&#x20ac;" horiz-adv-x="716" 
d="M572 655c-68 0 -129 -19 -182 -56c-54 -37 -95 -86 -124 -145h369l-38 -72h-358c-1 -5 -4 -16 -7 -31c-1 -6 -3 -15 -4 -27h339l-39 -72h-299c7 -57 30 -104 69 -139c38 -36 90 -54 155 -54c75 0 140 19 195 56l-10 -89c-56 -29 -118 -43 -185 -43c-93 0 -167 25 -222 75
c-55 49 -86 114 -93 194h-107l36 72h71c1 9 2 22 5 39c1 9 3 16 4 19h-98l40 72h80c33 81 85 148 156 200c71 51 153 77 247 77c75 0 137 -17 186 -51l-34 -67c-37 28 -88 42 -152 42z" />
    <glyph glyph-name="uni2113" unicode="&#x2113;" horiz-adv-x="512" 
d="M291 -14c-38 0 -69 11 -92 33s-35 54 -35 95v114l-58 -62h-2l-41 37l101 84v259c0 54 12 97 37 128c24 31 55 47 92 47c33 0 59 -11 80 -34c20 -23 30 -55 30 -94c0 -95 -57 -201 -171 -318v-150c0 -31 7 -54 22 -67s32 -20 53 -20c15 0 31 6 49 17c17 11 31 26 41 45
l24 -59c-39 -37 -83 -55 -130 -55zM293 673c-17 0 -31 -10 -43 -30s-18 -49 -18 -86v-222c76 88 114 172 114 253c0 25 -5 46 -15 62c-10 15 -23 23 -38 23z" />
    <glyph glyph-name="trademark" unicode="&#x2122;" horiz-adv-x="1002" 
d="M396 659h-129v-357h-68v357h-129v55h326v-55zM933 302h-68v348h-2l-131 -348h-51l-131 348h-2v-348h-68v412h105l123 -329l121 329h104v-412z" />
    <glyph glyph-name="uni2126" unicode="&#x2126;" horiz-adv-x="760" 
d="M438 0v183c57 11 100 37 131 78c30 40 45 90 45 149c0 69 -23 127 -68 172s-103 67 -172 67s-126 -23 -172 -68s-69 -102 -69 -171c0 -59 16 -109 47 -150c31 -42 74 -68 130 -77v-183h-257v67h193v72c-60 17 -107 50 -141 101c-35 51 -52 108 -52 173
c0 89 31 162 94 221c63 58 138 87 227 87s165 -29 227 -86c62 -58 93 -131 93 -220c0 -66 -17 -124 -50 -174c-34 -51 -81 -85 -142 -102v-72h192v-67h-256z" />
    <glyph glyph-name="estimated" unicode="&#x212e;" 
d="M173 259v-189c22 -19 43 -32 63 -39c20 -8 44 -12 72 -12c81 0 146 40 193 120l35 -21c-31 -48 -63 -82 -98 -103s-78 -32 -130 -32c-77 0 -139 26 -186 79c-48 53 -72 118 -72 197s24 145 71 198c47 52 110 78 187 78s139 -26 187 -77c47 -51 71 -118 72 -199h-394z
M444 295v159c-20 18 -40 30 -61 37c-21 6 -46 9 -76 9c-55 0 -100 -15 -134 -46v-159h271z" />
    <glyph glyph-name="arrowleft" unicode="&#x2190;" horiz-adv-x="826" 
d="M177 284l121 -117l47 -48c51 -51 90 -90 117 -119h-127c-11 12 -57 61 -138 147s-138 146 -171 179c31 31 86 89 165 172s127 134 144 152h127c-27 -29 -66 -68 -117 -119l-92 -94c-35 -33 -60 -57 -76 -71h603v-82h-603z" />
    <glyph glyph-name="arrowup" unicode="&#x2191;" horiz-adv-x="732" 
d="M407 0h-82v591c-14 -16 -38 -41 -71 -76l-94 -92c-51 -51 -90 -90 -119 -117v127c18 17 69 65 152 144s141 134 172 165c33 -33 93 -90 179 -171s135 -127 147 -138v-127c-29 27 -68 66 -119 117l-48 47l-117 121v-591z" />
    <glyph glyph-name="arrowright" unicode="&#x2192;" horiz-adv-x="826" 
d="M46 284v82h603c-16 14 -41 38 -76 71l-92 94c-51 51 -90 90 -117 119h127c17 -18 65 -69 144 -152s134 -141 165 -172c-33 -33 -90 -93 -171 -179s-127 -135 -138 -147h-127c27 29 66 68 117 119l47 48l121 117h-603z" />
    <glyph glyph-name="arrowdown" unicode="&#x2193;" horiz-adv-x="732" 
d="M325 715h82v-591c14 16 38 41 71 76l94 92c51 51 90 90 119 117v-127c-18 -17 -69 -65 -152 -144s-141 -134 -172 -165c-33 33 -93 90 -179 171s-135 127 -147 138v127c29 -27 68 -66 119 -117l48 -47l117 -121v591z" />
    <glyph glyph-name="uni2196" unicode="&#x2196;" horiz-adv-x="754" 
d="M208 400l-2 -229c0 -71 -1 -126 -2 -165l-85 83c0 34 1 108 3 222s3 191 3 232c41 0 118 1 232 3s188 3 221 3l85 -84c-79 -1 -134 -2 -165 -2l-229 -2l413 -413l-61 -61z" />
    <glyph glyph-name="uni2197" unicode="&#x2197;" horiz-adv-x="754" 
d="M133 -1l-61 61l413 413l-229 2c-31 0 -86 1 -165 2l85 84c33 0 107 -1 221 -3s191 -3 232 -3c0 -41 1 -118 3 -232s3 -188 3 -222l-85 -83c-1 39 -2 94 -2 165l-2 229z" />
    <glyph glyph-name="uni2198" unicode="&#x2198;" horiz-adv-x="754" 
d="M546 148l2 229c0 71 1 126 2 165l85 -83c0 -34 -1 -108 -3 -222s-3 -191 -3 -232c-41 0 -118 -1 -232 -3s-188 -3 -221 -3l-85 84c79 1 134 2 165 2l229 2l-413 413l61 61z" />
    <glyph glyph-name="uni2199" unicode="&#x2199;" horiz-adv-x="754" 
d="M621 561l61 -61l-413 -413l229 -2c31 0 86 -1 165 -2l-85 -84c-33 0 -107 1 -221 3s-191 3 -232 3c0 41 -1 118 -3 232s-3 188 -3 222l85 83c1 -39 2 -94 2 -165l2 -229z" />
    <glyph glyph-name="partialdiff" unicode="&#x2202;" horiz-adv-x="523" 
d="M243 -12c-61 0 -111 22 -148 66s-56 97 -56 159c0 61 18 112 55 153c36 41 84 61 144 61c34 0 65 -8 94 -25c28 -17 50 -43 66 -78c0 5 0 17 1 36s1 31 1 36c0 29 -3 58 -9 87s-15 57 -27 84c-13 27 -31 49 -54 66c-24 17 -52 25 -83 25c-39 0 -74 -17 -107 -52l-49 55
c45 40 96 60 153 60c38 0 72 -7 102 -22c29 -15 53 -34 72 -57c18 -24 33 -52 45 -84c12 -33 20 -65 25 -97s7 -65 7 -99c0 -35 -2 -67 -5 -98s-10 -64 -20 -99s-23 -65 -39 -90c-17 -25 -39 -45 -68 -62s-62 -25 -100 -25zM247 365c-42 0 -75 -15 -98 -45
c-24 -31 -36 -67 -36 -110s12 -80 35 -113s56 -49 97 -49c35 0 64 14 88 41c23 27 40 58 49 91s13 67 13 100c-21 31 -43 53 -66 66s-51 19 -82 19z" />
    <glyph glyph-name="uni2206" unicode="&#x2206;" horiz-adv-x="686" 
d="M19 0l279 712h83l287 -712h-649zM339 628l-213 -556h430z" />
    <glyph glyph-name="product" unicode="&#x220f;" horiz-adv-x="731" 
d="M578 -214v928h-426v-928h-78v1000h582v-1000h-78z" />
    <glyph glyph-name="summation" unicode="&#x2211;" horiz-adv-x="627" 
d="M31 -214v64l322 440l-308 432v64h538v-72h-437l301 -424l-319 -432h467v-72h-564z" />
    <glyph glyph-name="minus" unicode="&#x2212;" 
d="M54 287h504v-68h-504v68z" />
    <glyph glyph-name="uni2215" unicode="&#x2215;" horiz-adv-x="179" 
d="M275 725h64l-435 -753h-64z" />
    <glyph glyph-name="uni2219" unicode="&#x2219;" horiz-adv-x="290" 
d="M145 375c17 0 32 -6 45 -19s19 -28 19 -45c0 -16 -6 -31 -19 -44s-28 -20 -44 -20c-17 0 -32 6 -45 19s-20 28 -20 45s6 32 19 45s28 19 45 19z" />
    <glyph glyph-name="radical" unicode="&#x221a;" horiz-adv-x="516" 
d="M309 -214h-75l-162 334l-47 -22l-28 60l112 52l151 -317l184 893h76z" />
    <glyph glyph-name="infinity" unicode="&#x221e;" horiz-adv-x="771" 
d="M576 98c-58 0 -121 36 -190 109c-2 -2 -10 -9 -23 -21c-14 -13 -23 -20 -26 -23c-4 -3 -12 -10 -23 -19c-12 -9 -21 -16 -28 -19s-16 -8 -27 -13s-21 -9 -31 -10c-11 -2 -22 -3 -33 -3c-44 0 -79 14 -106 43s-41 65 -41 110c0 44 13 81 40 111c26 30 61 45 105 45
c25 0 51 -7 77 -20c25 -13 45 -26 58 -38s33 -31 58 -56l18 18c9 9 16 15 19 18s9 8 18 17s15 15 20 18c4 3 10 7 19 14c9 6 16 10 23 13c6 3 13 6 22 9c8 3 16 6 25 7c8 1 16 2 25 2c44 0 80 -15 107 -44s41 -66 41 -111s-13 -83 -40 -112c-27 -30 -62 -45 -107 -45z
M576 342c-8 0 -16 -1 -23 -3c-8 -2 -16 -5 -24 -9c-9 -5 -16 -9 -22 -12s-13 -9 -22 -16c-9 -8 -16 -14 -19 -17c-4 -3 -11 -9 -20 -18c-10 -9 -16 -15 -17 -16c21 -20 37 -34 46 -42s24 -17 45 -27c20 -11 40 -16 59 -16c25 0 44 8 58 25c14 16 21 36 21 61
c0 27 -7 48 -21 65c-15 17 -35 25 -61 25zM193 341c-25 0 -44 -9 -58 -26c-15 -17 -22 -38 -22 -63c0 -26 7 -47 22 -62c15 -16 35 -24 61 -24c41 0 90 28 147 85c-19 18 -34 32 -45 41s-27 19 -48 31s-40 18 -57 18z" />
    <glyph glyph-name="integral" unicode="&#x222b;" horiz-adv-x="566" 
d="M384 692c-12 0 -23 7 -34 22c-11 14 -18 21 -22 21c-5 0 -10 -2 -14 -7c-5 -5 -8 -11 -10 -18c-2 -8 -4 -16 -5 -25s-2 -19 -2 -29v-27c0 -8 0 -16 1 -23v-12l1 -39v-511c0 -79 -5 -135 -15 -167c-18 -60 -55 -90 -111 -90c-17 0 -33 5 -47 14c-15 9 -22 21 -22 38
c0 9 4 18 12 25c7 7 16 11 25 11c12 0 23 -7 33 -21c9 -14 16 -21 19 -21c5 0 9 3 13 8c3 5 6 11 8 20s4 18 5 28c1 9 2 20 3 31v29v23l-1 12v517v39c-1 20 -1 36 -1 47s1 26 2 46c1 19 4 35 7 47s7 26 14 41c6 15 14 26 23 35c9 8 20 15 34 21c13 6 29 9 47 9
c21 0 39 -5 55 -14s24 -23 24 -42c0 -11 -4 -20 -12 -27s-18 -11 -30 -11z" />
    <glyph glyph-name="approxequal" unicode="&#x2248;" horiz-adv-x="605" 
d="M567 415c-5 -42 -18 -77 -39 -104c-21 -28 -52 -42 -91 -42c-31 0 -78 12 -143 36c-65 23 -107 35 -128 35c-20 0 -37 -7 -50 -22s-22 -34 -26 -55h-51c5 41 18 76 39 105s51 43 90 43c29 0 76 -12 140 -35c63 -24 108 -36 134 -36c40 0 65 25 75 75h50zM566 234
c-5 -42 -17 -77 -38 -104s-52 -41 -91 -41c-30 0 -78 12 -143 36s-108 36 -129 36s-38 -8 -51 -23s-21 -34 -24 -55h-52c15 99 58 148 129 148c30 0 77 -12 141 -35c63 -24 108 -36 133 -36c40 0 65 25 75 74h50z" />
    <glyph glyph-name="notequal" unicode="&#x2260;" horiz-adv-x="605" 
d="M269 114l-76 -146l-62 32l59 114h-141v72h178l67 127h-245v71h283l77 148l62 -32l-61 -116h146v-71h-183l-67 -127h250v-72h-287z" />
    <glyph glyph-name="lessequal" unicode="&#x2264;" horiz-adv-x="605" 
d="M49 266v75l507 187v-78l-408 -146l408 -145v-77zM49 -30v72h507v-72h-507z" />
    <glyph glyph-name="greaterequal" unicode="&#x2265;" horiz-adv-x="605" 
d="M49 82v77l408 145l-408 146v78l507 -187v-75zM49 -30v72h507v-72h-507z" />
    <glyph glyph-name="lozenge" unicode="&#x25ca;" horiz-adv-x="605" 
d="M338 -35h-72l-171 391l171 391h72l172 -391zM302 671l-131 -315l131 -315l132 315z" />
    <glyph glyph-name="uniE0D6" unicode="&#xe0d6;" horiz-adv-x="242" 
d="M222 517l-104 -588c-15 -84 -63 -126 -144 -126h-64l13 76h35c23 0 40 4 51 12s18 23 22 46l103 580h88z" />
    <glyph glyph-name="uniF8FF" unicode="&#xf8ff;" horiz-adv-x="804" 
d="M758 714v-713h-712v713h712zM634 440h-148v150h-165v-150h-151v-165h151v-150h165v150h148v165zM447 400h147v-87h-147v-148h-87v148h-150v87h150v150h87v-150z" />
    <glyph glyph-name="CR" horiz-adv-x="12" 
 />
    <glyph glyph-name="nonmarkingreturn" horiz-adv-x="333" 
 />
    <glyph glyph-name="Adieresis.ss03" horiz-adv-x="707" 
d="M358 773c-19 0 -33 7 -44 20s-15 28 -12 46c3 15 11 28 24 39c12 10 25 15 40 15c18 0 32 -6 43 -19s14 -29 11 -47c-3 -15 -10 -27 -22 -38s-25 -16 -40 -16zM536 773c-19 0 -33 7 -44 20s-15 28 -12 46c3 15 11 28 24 39c12 10 25 15 40 15c18 0 32 -6 43 -19
s14 -29 11 -47c-3 -15 -10 -27 -22 -38s-25 -16 -40 -16zM547 0l-42 213h-315l-118 -213h-100l402 714h119l150 -714h-96zM233 291h256l-67 338h-3z" />
    <glyph glyph-name="Cdotaccent.ss03" horiz-adv-x="787" 
d="M475 892h90l-17 -100h-90zM736 216c-25 -65 -68 -120 -129 -165c-62 -45 -136 -68 -221 -68c-115 0 -202 37 -260 111c-59 74 -79 164 -60 269c19 104 66 191 141 262s169 106 280 106c87 0 155 -21 204 -63s79 -97 92 -164h-92c-11 49 -33 85 -66 110s-79 37 -139 37
c-87 0 -159 -29 -217 -87c-59 -58 -95 -129 -110 -213c-13 -80 0 -148 41 -204c40 -56 102 -84 187 -84c118 0 203 51 254 153h95z" />
    <glyph glyph-name="Edieresis.ss03" horiz-adv-x="580" 
d="M308 773c-19 0 -33 7 -44 20s-15 28 -12 46c3 15 11 28 24 39c12 10 25 15 40 15c18 0 32 -6 43 -19s14 -29 11 -47c-3 -15 -10 -27 -22 -38s-25 -16 -40 -16zM486 773c-19 0 -33 7 -44 20s-15 28 -12 46c3 15 11 28 24 39c12 10 25 15 40 15c18 0 32 -6 43 -19
s14 -29 11 -47c-3 -15 -10 -27 -22 -38s-25 -16 -40 -16zM591 634h-354l-41 -231h333l-14 -80h-333l-43 -243h358l-15 -80h-452l126 714h449z" />
    <glyph glyph-name="Edotaccent.ss03" horiz-adv-x="580" 
d="M459 892l-17 -100h-90l17 100h90zM591 634h-354l-41 -231h333l-14 -80h-333l-43 -243h358l-15 -80h-452l126 714h449z" />
    <glyph glyph-name="Gdotaccent.ss03" horiz-adv-x="793" 
d="M549 892l-17 -100h-90l17 100h90zM408 286l14 78h320l-73 -364h-60l11 126c-21 -49 -51 -85 -90 -108s-91 -35 -158 -35c-57 0 -108 11 -152 32c-45 21 -79 49 -102 84c-24 35 -41 75 -52 121s-11 94 0 143c18 103 63 190 136 261s164 107 273 107c87 0 154 -22 203 -65
c48 -43 75 -97 81 -162h-92c-5 45 -24 80 -56 107s-78 40 -137 40c-84 0 -154 -29 -209 -88c-56 -59 -91 -129 -106 -212c-13 -77 -1 -145 38 -202c38 -57 97 -86 176 -86c74 0 133 17 177 52s74 89 90 164l1 9z" />
    <glyph glyph-name="Idieresis.ss03" horiz-adv-x="263" 
d="M131 773c-19 0 -33 7 -44 20s-15 28 -12 46c3 15 11 28 24 39c12 10 25 15 40 15c18 0 32 -6 43 -19s14 -29 11 -47c-3 -15 -10 -27 -22 -38s-25 -16 -40 -16zM309 773c-19 0 -33 7 -44 20s-15 28 -12 46c3 15 11 28 24 39c12 10 25 15 40 15c18 0 32 -6 43 -19
s14 -29 11 -47c-3 -15 -10 -27 -22 -38s-25 -16 -40 -16zM164 714h95l-126 -714h-95z" />
    <glyph glyph-name="Odieresis.ss03" horiz-adv-x="836" 
d="M417 773c-19 0 -33 7 -44 20s-15 28 -12 46c3 15 11 28 24 39c12 10 25 15 40 15c18 0 32 -6 43 -19s14 -29 11 -47c-3 -15 -10 -27 -22 -38s-25 -16 -40 -16zM595 773c-19 0 -33 7 -44 20s-15 28 -12 46c3 15 11 28 24 39c12 10 25 15 40 15c18 0 32 -6 43 -19
s14 -29 11 -47c-3 -15 -10 -27 -22 -38s-25 -16 -40 -16zM485 731c76 0 141 -17 194 -52s91 -82 112 -139c21 -58 25 -121 13 -189c-19 -104 -66 -191 -141 -262s-168 -106 -277 -106c-76 0 -141 18 -194 53s-91 81 -112 139c-21 57 -26 120 -14 188c19 104 66 191 141 262
s168 106 278 106zM387 63c86 0 158 29 216 88c57 59 93 129 108 212c9 50 6 97 -7 140c-14 43 -40 79 -78 107c-39 27 -86 41 -142 41c-86 0 -158 -29 -216 -88s-94 -130 -109 -212c-14 -77 0 -145 41 -202s103 -86 187 -86z" />
    <glyph glyph-name="Udieresis.ss03" horiz-adv-x="670" 
d="M340 773c-19 0 -33 7 -44 20s-15 28 -12 46c3 15 11 28 24 39c12 10 25 15 40 15c18 0 32 -6 43 -19s14 -29 11 -47c-3 -15 -10 -27 -22 -38s-25 -16 -40 -16zM518 773c-19 0 -33 7 -44 20s-15 28 -12 46c3 15 11 28 24 39c12 10 25 15 40 15c18 0 32 -6 43 -19
s14 -29 11 -47c-3 -15 -10 -27 -22 -38s-25 -16 -40 -16zM603 251c-14 -77 -46 -141 -95 -192s-116 -76 -199 -76c-91 0 -158 26 -200 78c-43 52 -57 117 -43 196l80 457h95l-81 -463c-9 -54 -1 -99 24 -134c25 -36 67 -54 126 -54c57 0 102 18 135 55c33 36 54 82 64 139
l80 457h95z" />
    <glyph glyph-name="Ydieresis.ss03" horiz-adv-x="628" 
d="M308 773c-19 0 -33 7 -44 20s-15 28 -12 46c3 15 11 28 24 39c12 10 25 15 40 15c18 0 32 -6 43 -19s14 -29 11 -47c-3 -15 -10 -27 -22 -38s-25 -16 -40 -16zM486 773c-19 0 -33 7 -44 20s-15 28 -12 46c3 15 11 28 24 39c12 10 25 15 40 15c18 0 32 -6 43 -19
s14 -29 11 -47c-3 -15 -10 -27 -22 -38s-25 -16 -40 -16zM690 714l-325 -422l-52 -292h-95l52 297l-172 417h107l127 -332l245 332h113z" />
    <glyph glyph-name="Zdotaccent.ss03" horiz-adv-x="620" 
d="M469 892l-17 -100h-90l17 100h90zM644 714l-14 -86l-489 -544h404l-15 -84h-520l14 86l492 544h-372l14 84h486z" />
    <glyph glyph-name="Ldot.ss03" horiz-adv-x="548" 
d="M251 714l-110 -634h346l-15 -80h-442l126 714h95zM425 548h90l-17 -100h-90z" />
    <glyph glyph-name="Aacute.ss10" horiz-adv-x="707" 
d="M561 833l-8 -51l-247 -30l3 14zM547 0l-42 213h-315l-118 -213h-100l402 714h119l150 -714h-96zM233 291h256l-67 338h-3z" />
    <glyph glyph-name="Abreve.ss10" horiz-adv-x="707" 
d="M442 752c-37 0 -66 8 -86 25c-21 17 -31 35 -31 56h51c1 -13 8 -23 20 -31s28 -12 48 -12c39 0 66 14 79 43h56c-8 -22 -24 -41 -47 -57s-53 -24 -90 -24zM547 0l-42 213h-315l-118 -213h-100l402 714h119l150 -714h-96zM233 291h256l-67 338h-3z" />
    <glyph glyph-name="Acircumflex.ss10" horiz-adv-x="707" 
d="M569 748l-125 34l-136 -34l2 14l142 71l118 -71zM547 0l-42 213h-315l-118 -213h-100l402 714h119l150 -714h-96zM233 291h256l-67 338h-3z" />
    <glyph glyph-name="Adieresis.ss10" horiz-adv-x="707" 
d="M422 818l-9 -48h-91l9 48h91zM564 818l-9 -48h-91l9 48h91zM547 0l-42 213h-315l-118 -213h-100l402 714h119l150 -714h-96zM233 291h256l-67 338h-3z" />
    <glyph glyph-name="Agrave.ss10" horiz-adv-x="707" 
d="M564 766l-2 -14l-236 30l9 51zM547 0l-42 213h-315l-118 -213h-100l402 714h119l150 -714h-96zM233 291h256l-67 338h-3z" />
    <glyph glyph-name="Amacron.ss10" horiz-adv-x="707" 
d="M626 805l-7 -35h-342l6 35h343zM547 0l-42 213h-315l-118 -213h-100l402 714h119l150 -714h-96zM233 291h256l-67 338h-3z" />
    <glyph glyph-name="Aogonek.ss10" horiz-adv-x="707" 
d="M533 -41c31 -11 69 -10 114 3l-1 -38c-25 -11 -56 -15 -93 -13s-71 9 -102 22l-6 5c37 30 71 51 102 64l-42 211h-315l-118 -213h-100l402 714h119l150 -714h-63c-21 -15 -37 -29 -47 -41zM233 291h256l-67 338h-3z" />
    <glyph glyph-name="Aring.ss10" horiz-adv-x="707" 
d="M547 0l-42 213h-315l-118 -213h-100l402 714h32c-21 11 -30 30 -26 56c3 17 12 32 26 45c13 12 29 18 46 18s31 -6 42 -18c11 -13 15 -28 12 -45c-5 -26 -19 -45 -42 -56h29l150 -714h-96zM414 770c-1 -9 0 -16 5 -21c5 -6 12 -9 21 -9c18 0 29 10 32 30c1 9 0 16 -5 22
c-5 5 -12 8 -21 8c-18 0 -29 -10 -32 -30zM233 291h256l-67 338h-3z" />
    <glyph glyph-name="Atilde.ss10" horiz-adv-x="707" 
d="M395 775c-21 0 -40 -7 -56 -22l-57 4c25 37 60 55 106 55c21 0 41 -4 59 -11s31 -11 40 -11c20 0 36 8 49 23l56 -5c-9 -18 -22 -32 -39 -41c-18 -10 -38 -15 -60 -15c-17 0 -35 4 -56 12c-21 7 -35 11 -42 11zM547 0l-42 213h-315l-118 -213h-100l402 714h119l150 -714
h-96zM233 291h256l-67 338h-3z" />
    <glyph glyph-name="Cacute.ss10" horiz-adv-x="787" 
d="M621 833l-8 -51l-247 -30l3 14zM736 216c-25 -65 -68 -120 -129 -165c-62 -45 -136 -68 -221 -68c-115 0 -202 37 -260 111c-59 74 -79 164 -60 269c19 104 66 191 141 262s169 106 280 106c87 0 155 -21 204 -63s79 -97 92 -164h-92c-11 49 -33 85 -66 110
s-79 37 -139 37c-87 0 -159 -29 -217 -87c-59 -58 -95 -129 -110 -213c-13 -80 0 -148 41 -204c40 -56 102 -84 187 -84c118 0 203 51 254 153h95z" />
    <glyph glyph-name="Ccaron.ss10" horiz-adv-x="787" 
d="M369 833l124 -34l137 34l-1 -14l-143 -71l-118 71zM736 216c-25 -65 -68 -120 -129 -165c-62 -45 -136 -68 -221 -68c-115 0 -202 37 -260 111c-59 74 -79 164 -60 269c19 104 66 191 141 262s169 106 280 106c87 0 155 -21 204 -63s79 -97 92 -164h-92
c-11 49 -33 85 -66 110s-79 37 -139 37c-87 0 -159 -29 -217 -87c-59 -58 -95 -129 -110 -213c-13 -80 0 -148 41 -204c40 -56 102 -84 187 -84c118 0 203 51 254 153h95z" />
    <glyph glyph-name="Ccedilla.ss10" horiz-adv-x="787" 
d="M387 63c118 0 203 51 254 153h95c-23 -62 -63 -115 -119 -158c-57 -44 -124 -69 -203 -74c-11 -8 -21 -18 -32 -29c24 -5 44 -20 61 -45h6c-33 -13 -70 -21 -109 -22c-40 -1 -70 4 -90 15l2 40c39 -15 77 -18 114 -9l7 1c-17 6 -34 10 -51 12l-9 3c13 10 33 21 60 33
c-111 3 -195 42 -250 115c-56 73 -75 162 -57 265c19 104 66 191 141 262s169 106 280 106c87 0 155 -21 204 -63s79 -97 92 -164h-92c-11 49 -33 85 -66 110s-79 37 -139 37c-87 0 -159 -29 -217 -87c-59 -58 -95 -129 -110 -213c-13 -80 0 -148 41 -204
c40 -56 102 -84 187 -84z" />
    <glyph glyph-name="Ccircumflex.ss10" horiz-adv-x="787" 
d="M364 748l2 14l142 71l118 -71l-1 -14l-125 34zM736 216c-25 -65 -68 -120 -129 -165c-62 -45 -136 -68 -221 -68c-115 0 -202 37 -260 111c-59 74 -79 164 -60 269c19 104 66 191 141 262s169 106 280 106c87 0 155 -21 204 -63s79 -97 92 -164h-92
c-11 49 -33 85 -66 110s-79 37 -139 37c-87 0 -159 -29 -217 -87c-59 -58 -95 -129 -110 -213c-13 -80 0 -148 41 -204c40 -56 102 -84 187 -84c118 0 203 51 254 153h95z" />
    <glyph glyph-name="Cdotaccent.ss10" horiz-adv-x="787" 
d="M453 822h92l-9 -48h-91zM736 216c-25 -65 -68 -120 -129 -165c-62 -45 -136 -68 -221 -68c-115 0 -202 37 -260 111c-59 74 -79 164 -60 269c19 104 66 191 141 262s169 106 280 106c87 0 155 -21 204 -63s79 -97 92 -164h-92c-11 49 -33 85 -66 110s-79 37 -139 37
c-87 0 -159 -29 -217 -87c-59 -58 -95 -129 -110 -213c-13 -80 0 -148 41 -204c40 -56 102 -84 187 -84c118 0 203 51 254 153h95z" />
    <glyph glyph-name="Dcaron.ss10" horiz-adv-x="706" 
d="M556 819l-143 -71l-118 71l1 14l124 -34l137 34zM368 714c116 0 201 -32 256 -95c54 -63 71 -149 52 -256c-19 -106 -66 -193 -141 -261s-169 -102 -280 -102h-225l126 714h212zM583 375c15 86 3 151 -38 194s-100 65 -179 65h-129l-98 -554h126c76 0 144 26 204 78
c60 51 98 124 114 217z" />
    <glyph glyph-name="Eacute.ss10" horiz-adv-x="580" 
d="M535 833l-8 -51l-247 -30l3 14zM591 634h-354l-41 -231h333l-14 -80h-333l-43 -243h358l-15 -80h-452l126 714h449z" />
    <glyph glyph-name="Ebreve.ss10" horiz-adv-x="580" 
d="M394 752c-37 0 -66 8 -86 25c-21 17 -31 35 -31 56h51c1 -13 8 -23 20 -31s28 -12 48 -12c39 0 66 14 79 43h56c-8 -22 -24 -41 -47 -57s-53 -24 -90 -24zM591 634h-354l-41 -231h333l-14 -80h-333l-43 -243h358l-15 -80h-452l126 714h449z" />
    <glyph glyph-name="Ecaron.ss10" horiz-adv-x="580" 
d="M526 819l-143 -71l-118 71l1 14l124 -34l137 34zM591 634h-354l-41 -231h333l-14 -80h-333l-43 -243h358l-15 -80h-452l126 714h449z" />
    <glyph glyph-name="Ecircumflex.ss10" horiz-adv-x="580" 
d="M516 748l-125 34l-136 -34l2 14l142 71l118 -71zM591 634h-354l-41 -231h333l-14 -80h-333l-43 -243h358l-15 -80h-452l126 714h449z" />
    <glyph glyph-name="Edieresis.ss10" horiz-adv-x="580" 
d="M378 818l-9 -48h-91l9 48h91zM520 818l-9 -48h-91l9 48h91zM591 634h-354l-41 -231h333l-14 -80h-333l-43 -243h358l-15 -80h-452l126 714h449z" />
    <glyph glyph-name="Edotaccent.ss10" horiz-adv-x="580" 
d="M446 822l-9 -48h-91l8 48h92zM591 634h-354l-41 -231h333l-14 -80h-333l-43 -243h358l-15 -80h-452l126 714h449z" />
    <glyph glyph-name="Egrave.ss10" horiz-adv-x="580" 
d="M517 766l-2 -14l-236 30l9 51zM591 634h-354l-41 -231h333l-14 -80h-333l-43 -243h358l-15 -80h-452l126 714h449z" />
    <glyph glyph-name="Emacron.ss10" horiz-adv-x="580" 
d="M581 805l-7 -35h-342l6 35h343zM591 634h-354l-41 -231h333l-14 -80h-333l-43 -243h358l-15 -80h-452l126 714h449z" />
    <glyph glyph-name="Eogonek.ss10" horiz-adv-x="580" 
d="M591 634h-354l-41 -231h333l-14 -80h-333l-43 -243h358l-15 -80h-65c-21 -15 -37 -29 -47 -41c31 -11 69 -10 114 3l-1 -38c-25 -11 -56 -15 -93 -13s-71 9 -102 22l-6 5c34 28 67 49 98 62h-350l126 714h449z" />
    <glyph glyph-name="Gbreve.ss10" horiz-adv-x="793" 
d="M480 752c-37 0 -66 8 -86 25c-21 17 -31 35 -31 56h51c1 -13 8 -23 20 -31s28 -12 48 -12c39 0 66 14 79 43h56c-8 -22 -24 -41 -47 -57s-53 -24 -90 -24zM408 286l14 78h320l-73 -364h-60l11 126c-21 -49 -51 -85 -90 -108s-91 -35 -158 -35c-57 0 -108 11 -152 32
c-45 21 -79 49 -102 84c-24 35 -41 75 -52 121s-11 94 0 143c18 103 63 190 136 261s164 107 273 107c87 0 154 -22 203 -65c48 -43 75 -97 81 -162h-92c-5 45 -24 80 -56 107s-78 40 -137 40c-84 0 -154 -29 -209 -88c-56 -59 -91 -129 -106 -212c-13 -77 -1 -145 38 -202
c38 -57 97 -86 176 -86c74 0 133 17 177 52s74 89 90 164l1 9z" />
    <glyph glyph-name="uni0122.ss10" horiz-adv-x="793" 
d="M408 286l14 78h320l-73 -364h-60l11 126c-21 -49 -51 -85 -90 -108s-91 -35 -158 -35c-57 0 -108 11 -152 32c-45 21 -79 49 -102 84c-24 35 -41 75 -52 121s-11 94 0 143c18 103 63 190 136 261s164 107 273 107c87 0 154 -22 203 -65c48 -43 75 -97 81 -162h-92
c-5 45 -24 80 -56 107s-78 40 -137 40c-84 0 -154 -29 -209 -88c-56 -59 -91 -129 -106 -212c-13 -77 -1 -145 38 -202c38 -57 97 -86 176 -86c74 0 133 17 177 52s74 89 90 164l1 9zM315 -138v88h111v-77c0 -27 -9 -48 -26 -62c-18 -14 -42 -21 -73 -21v35c13 3 22 8 29 13
c6 5 9 8 10 11s1 7 1 13h-52z" />
    <glyph glyph-name="Gcircumflex.ss10" horiz-adv-x="793" 
d="M605 748l-125 34l-136 -34l2 14l142 71l118 -71zM408 286l14 78h320l-73 -364h-60l11 126c-21 -49 -51 -85 -90 -108s-91 -35 -158 -35c-57 0 -108 11 -152 32c-45 21 -79 49 -102 84c-24 35 -41 75 -52 121s-11 94 0 143c18 103 63 190 136 261s164 107 273 107
c87 0 154 -22 203 -65c48 -43 75 -97 81 -162h-92c-5 45 -24 80 -56 107s-78 40 -137 40c-84 0 -154 -29 -209 -88c-56 -59 -91 -129 -106 -212c-13 -77 -1 -145 38 -202c38 -57 97 -86 176 -86c74 0 133 17 177 52s74 89 90 164l1 9z" />
    <glyph glyph-name="Gdotaccent.ss10" horiz-adv-x="793" 
d="M555 892l-17 -100h-90l17 100h90zM408 286l14 78h320l-73 -364h-60l11 126c-21 -49 -51 -85 -90 -108s-91 -35 -158 -35c-57 0 -108 11 -152 32c-45 21 -79 49 -102 84c-24 35 -41 75 -52 121s-11 94 0 143c18 103 63 190 136 261s164 107 273 107c87 0 154 -22 203 -65
c48 -43 75 -97 81 -162h-92c-5 45 -24 80 -56 107s-78 40 -137 40c-84 0 -154 -29 -209 -88c-56 -59 -91 -129 -106 -212c-13 -77 -1 -145 38 -202c38 -57 97 -86 176 -86c74 0 133 17 177 52s74 89 90 164l1 9z" />
    <glyph glyph-name="Hcircumflex.ss10" horiz-adv-x="686" 
d="M562 748l-125 34l-136 -34l2 14l142 71l118 -71zM595 714h95l-126 -714h-95l56 318h-344l-56 -318h-95l126 714h95l-56 -316h344z" />
    <glyph glyph-name="Iacute.ss10" horiz-adv-x="263" 
d="M346 833l-8 -51l-247 -30l3 14zM164 714h95l-126 -714h-95z" />
    <glyph glyph-name="Icircumflex.ss10" horiz-adv-x="263" 
d="M84 748l2 14l142 71l118 -71l-1 -14l-125 34zM164 714h95l-126 -714h-95z" />
    <glyph glyph-name="Idieresis.ss10" horiz-adv-x="263" 
d="M108 818h91l-9 -48h-91zM250 818h91l-9 -48h-91zM164 714h95l-126 -714h-95z" />
    <glyph glyph-name="Igrave.ss10" horiz-adv-x="263" 
d="M113 833l229 -67l-2 -14l-236 30zM164 714h95l-126 -714h-95z" />
    <glyph glyph-name="Imacron.ss10" horiz-adv-x="263" 
d="M57 805h343l-7 -35h-342zM164 714h95l-126 -714h-95z" />
    <glyph glyph-name="Iogonek.ss10" horiz-adv-x="263" 
d="M64 -44c31 -11 69 -10 114 3l-1 -38c-25 -11 -56 -15 -93 -13s-71 9 -102 22l-6 5c39 32 75 54 106 65h-44l126 714h95l-126 -714h-18c-21 -15 -38 -29 -51 -44z" />
    <glyph glyph-name="Itilde.ss10" horiz-adv-x="263" 
d="M380 808c-9 -18 -22 -32 -39 -41c-18 -10 -38 -15 -60 -15c-17 0 -35 4 -56 12c-21 7 -35 11 -42 11c-21 0 -40 -7 -56 -22l-57 4c25 37 60 55 106 55c21 0 41 -4 59 -11s31 -11 40 -11c20 0 36 8 49 23zM164 714h95l-126 -714h-95z" />
    <glyph glyph-name="Jcircumflex.ss10" horiz-adv-x="502" 
d="M333 748l2 14l142 71l118 -71l-1 -14l-125 34zM108 177c-11 -76 16 -114 80 -114c37 0 67 11 90 33s37 52 44 91l93 527h95l-92 -522c-25 -139 -101 -209 -230 -209c-65 0 -113 17 -142 50s-40 81 -32 144h94z" />
    <glyph glyph-name="uni0136.ss10" horiz-adv-x="631" 
d="M704 714l-338 -301l217 -413h-111l-178 350l-127 -114l-42 -236h-95l126 714h95l-63 -360l392 360h124zM239 -138v88h111v-77c0 -27 -9 -48 -26 -62c-18 -14 -42 -21 -73 -21v35c13 3 22 8 29 13c6 5 9 8 10 11s1 7 1 13h-52z" />
    <glyph glyph-name="Lacute.ss10" horiz-adv-x="548" 
d="M401 833l-8 -51l-247 -30l3 14zM141 80h346l-15 -80h-442l126 714h95z" />
    <glyph glyph-name="Lcaron.ss10" horiz-adv-x="548" 
d="M251 714l-110 -634h346l-15 -80h-442l126 714h95zM500 714l-75 -143h-60l26 143h109z" />
    <glyph glyph-name="uni013B.ss10" horiz-adv-x="548" 
d="M141 80h346l-15 -80h-442l126 714h95zM207 -138v88h111v-77c0 -27 -9 -48 -26 -62c-18 -14 -42 -21 -73 -21v35c13 3 22 8 29 13c6 5 9 8 10 11s1 7 1 13h-52z" />
    <glyph glyph-name="Nacute.ss10" horiz-adv-x="719" 
d="M593 833l-8 -51l-247 -30l3 14zM156 714h113l198 -453c35 -79 54 -121 57 -128c3 15 13 65 28 149l76 432h95l-126 -714h-115l-197 450c-6 13 -15 33 -27 62c-12 28 -22 49 -29 63c-4 -19 -14 -70 -29 -154l-75 -421h-95z" />
    <glyph glyph-name="Ncaron.ss10" horiz-adv-x="719" 
d="M326 833l124 -34l137 34l-1 -14l-143 -71l-118 71zM156 714h113l198 -453c35 -79 54 -121 57 -128c3 15 13 65 28 149l76 432h95l-126 -714h-115l-197 450c-6 13 -15 33 -27 62c-12 28 -22 49 -29 63c-4 -19 -14 -70 -29 -154l-75 -421h-95z" />
    <glyph glyph-name="uni0145.ss10" horiz-adv-x="719" 
d="M156 714h113l198 -453c35 -79 54 -121 57 -128c3 15 13 65 28 149l76 432h95l-126 -714h-115l-197 450c-6 13 -15 33 -27 62c-12 28 -22 49 -29 63c-4 -19 -14 -70 -29 -154l-75 -421h-95zM269 -50h111v-77c0 -27 -9 -48 -26 -62c-18 -14 -42 -21 -73 -21v35
c13 3 22 8 29 13c6 5 9 8 10 11s1 7 1 13h-52v88z" />
    <glyph glyph-name="Ntilde.ss10" horiz-adv-x="719" 
d="M619 808c-9 -18 -22 -32 -39 -41c-18 -10 -38 -15 -60 -15c-17 0 -35 4 -56 12c-21 7 -35 11 -42 11c-21 0 -40 -7 -56 -22l-57 4c25 37 60 55 106 55c21 0 41 -4 59 -11s31 -11 40 -11c20 0 36 8 49 23zM156 714h113l198 -453c35 -79 54 -121 57 -128c3 15 13 65 28 149
l76 432h95l-126 -714h-115l-197 450c-6 13 -15 33 -27 62c-12 28 -22 49 -29 63c-4 -19 -14 -70 -29 -154l-75 -421h-95z" />
    <glyph glyph-name="Oacute.ss10" horiz-adv-x="836" 
d="M622 833l-8 -51l-247 -30l3 14zM485 731c76 0 141 -17 194 -52s91 -82 112 -139c21 -58 25 -121 13 -189c-19 -104 -66 -191 -141 -262s-168 -106 -277 -106c-76 0 -141 18 -194 53s-91 81 -112 139c-21 57 -26 120 -14 188c19 104 66 191 141 262s168 106 278 106z
M387 63c86 0 158 29 216 88c57 59 93 129 108 212c9 50 6 97 -7 140c-14 43 -40 79 -78 107c-39 27 -86 41 -142 41c-86 0 -158 -29 -216 -88s-94 -130 -109 -212c-14 -77 0 -145 41 -202s103 -86 187 -86z" />
    <glyph glyph-name="Obreve.ss10" horiz-adv-x="836" 
d="M376 833h51c1 -13 8 -23 20 -31s28 -12 48 -12c39 0 66 14 79 43h56c-8 -22 -24 -41 -47 -57s-53 -24 -90 -24s-66 8 -86 25c-21 17 -31 35 -31 56zM485 731c76 0 141 -17 194 -52s91 -82 112 -139c21 -58 25 -121 13 -189c-19 -104 -66 -191 -141 -262
s-168 -106 -277 -106c-76 0 -141 18 -194 53s-91 81 -112 139c-21 57 -26 120 -14 188c19 104 66 191 141 262s168 106 278 106zM387 63c86 0 158 29 216 88c57 59 93 129 108 212c9 50 6 97 -7 140c-14 43 -40 79 -78 107c-39 27 -86 41 -142 41c-86 0 -158 -29 -216 -88
s-94 -130 -109 -212c-14 -77 0 -145 41 -202s103 -86 187 -86z" />
    <glyph glyph-name="Ocircumflex.ss10" horiz-adv-x="836" 
d="M362 748l2 14l142 71l118 -71l-1 -14l-125 34zM485 731c76 0 141 -17 194 -52s91 -82 112 -139c21 -58 25 -121 13 -189c-19 -104 -66 -191 -141 -262s-168 -106 -277 -106c-76 0 -141 18 -194 53s-91 81 -112 139c-21 57 -26 120 -14 188c19 104 66 191 141 262
s168 106 278 106zM387 63c86 0 158 29 216 88c57 59 93 129 108 212c9 50 6 97 -7 140c-14 43 -40 79 -78 107c-39 27 -86 41 -142 41c-86 0 -158 -29 -216 -88s-94 -130 -109 -212c-14 -77 0 -145 41 -202s103 -86 187 -86z" />
    <glyph glyph-name="Odieresis.ss10" horiz-adv-x="836" 
d="M402 818h91l-9 -48h-91zM544 818h91l-9 -48h-91zM485 731c76 0 141 -17 194 -52s91 -82 112 -139c21 -58 25 -121 13 -189c-19 -104 -66 -191 -141 -262s-168 -106 -277 -106c-76 0 -141 18 -194 53s-91 81 -112 139c-21 57 -26 120 -14 188c19 104 66 191 141 262
s168 106 278 106zM387 63c86 0 158 29 216 88c57 59 93 129 108 212c9 50 6 97 -7 140c-14 43 -40 79 -78 107c-39 27 -86 41 -142 41c-86 0 -158 -29 -216 -88s-94 -130 -109 -212c-14 -77 0 -145 41 -202s103 -86 187 -86z" />
    <glyph glyph-name="Ohungarumlaut.ss10" horiz-adv-x="836" 
d="M516 833l-10 -61l-119 -20l2 14zM644 833l-10 -61l-119 -20l2 14zM485 731c76 0 141 -17 194 -52s91 -82 112 -139c21 -58 25 -121 13 -189c-19 -104 -66 -191 -141 -262s-168 -106 -277 -106c-76 0 -141 18 -194 53s-91 81 -112 139c-21 57 -26 120 -14 188
c19 104 66 191 141 262s168 106 278 106zM387 63c86 0 158 29 216 88c57 59 93 129 108 212c9 50 6 97 -7 140c-14 43 -40 79 -78 107c-39 27 -86 41 -142 41c-86 0 -158 -29 -216 -88s-94 -130 -109 -212c-14 -77 0 -145 41 -202s103 -86 187 -86z" />
    <glyph glyph-name="Ograve.ss10" horiz-adv-x="836" 
d="M402 833l229 -67l-2 -14l-236 30zM485 731c76 0 141 -17 194 -52s91 -82 112 -139c21 -58 25 -121 13 -189c-19 -104 -66 -191 -141 -262s-168 -106 -277 -106c-76 0 -141 18 -194 53s-91 81 -112 139c-21 57 -26 120 -14 188c19 104 66 191 141 262s168 106 278 106z
M387 63c86 0 158 29 216 88c57 59 93 129 108 212c9 50 6 97 -7 140c-14 43 -40 79 -78 107c-39 27 -86 41 -142 41c-86 0 -158 -29 -216 -88s-94 -130 -109 -212c-14 -77 0 -145 41 -202s103 -86 187 -86z" />
    <glyph glyph-name="Omacron.ss10" horiz-adv-x="840" 
d="M347 805h343l-7 -35h-342zM485 731c76 0 141 -17 194 -52s91 -82 112 -139c21 -58 25 -121 13 -189c-19 -104 -66 -191 -141 -262s-168 -106 -277 -106c-76 0 -141 18 -194 53s-91 81 -112 139c-21 57 -26 120 -14 188c19 104 66 191 141 262s168 106 278 106zM387 63
c86 0 158 29 216 88c57 59 93 129 108 212c9 50 6 97 -7 140c-14 43 -40 79 -78 107c-39 27 -86 41 -142 41c-86 0 -158 -29 -216 -88s-94 -130 -109 -212c-14 -77 0 -145 41 -202s103 -86 187 -86z" />
    <glyph glyph-name="Otilde.ss10" horiz-adv-x="836" 
d="M657 808c-9 -18 -22 -32 -39 -41c-18 -10 -38 -15 -60 -15c-17 0 -35 4 -56 12c-21 7 -35 11 -42 11c-21 0 -40 -7 -56 -22l-57 4c25 37 60 55 106 55c21 0 41 -4 59 -11s31 -11 40 -11c20 0 36 8 49 23zM485 731c76 0 141 -17 194 -52s91 -82 112 -139
c21 -58 25 -121 13 -189c-19 -104 -66 -191 -141 -262s-168 -106 -277 -106c-76 0 -141 18 -194 53s-91 81 -112 139c-21 57 -26 120 -14 188c19 104 66 191 141 262s168 106 278 106zM387 63c86 0 158 29 216 88c57 59 93 129 108 212c9 50 6 97 -7 140
c-14 43 -40 79 -78 107c-39 27 -86 41 -142 41c-86 0 -158 -29 -216 -88s-94 -130 -109 -212c-14 -77 0 -145 41 -202s103 -86 187 -86z" />
    <glyph glyph-name="Racute.ss10" horiz-adv-x="659" 
d="M539 833l-8 -51l-247 -30l3 14zM636 505c-7 -42 -27 -80 -60 -114c-33 -35 -73 -57 -120 -67c26 -9 45 -27 58 -53c12 -27 21 -64 26 -113c1 -3 2 -9 4 -20c1 -11 2 -17 3 -19c0 -3 1 -8 2 -17s3 -15 4 -18s2 -8 4 -15c1 -7 3 -13 5 -16c1 -3 3 -8 5 -14s4 -11 7 -16
l9 -15v-8l-105 2c-8 15 -14 31 -17 50c-4 19 -7 41 -9 68s-4 45 -6 56c-5 19 -9 35 -13 47c-5 11 -11 23 -19 35c-9 12 -20 21 -35 26s-32 8 -53 8h-149l-52 -292h-95l126 714h271c78 0 135 -20 171 -59s49 -89 38 -150zM542 517c6 35 0 64 -19 85s-57 32 -113 32h-173
l-46 -262h172c49 0 90 13 121 39s50 61 58 106z" />
    <glyph glyph-name="Rcaron.ss10" horiz-adv-x="659" 
d="M533 819l-143 -71l-118 71l1 14l124 -34l137 34zM636 505c-7 -42 -27 -80 -60 -114c-33 -35 -73 -57 -120 -67c26 -9 45 -27 58 -53c12 -27 21 -64 26 -113c1 -3 2 -9 4 -20c1 -11 2 -17 3 -19c0 -3 1 -8 2 -17s3 -15 4 -18s2 -8 4 -15c1 -7 3 -13 5 -16c1 -3 3 -8 5 -14
s4 -11 7 -16l9 -15v-8l-105 2c-8 15 -14 31 -17 50c-4 19 -7 41 -9 68s-4 45 -6 56c-5 19 -9 35 -13 47c-5 11 -11 23 -19 35c-9 12 -20 21 -35 26s-32 8 -53 8h-149l-52 -292h-95l126 714h271c78 0 135 -20 171 -59s49 -89 38 -150zM542 517c6 35 0 64 -19 85
s-57 32 -113 32h-173l-46 -262h172c49 0 90 13 121 39s50 61 58 106z" />
    <glyph glyph-name="uni0156.ss10" horiz-adv-x="659" 
d="M636 505c-7 -42 -27 -80 -60 -114c-33 -35 -73 -57 -120 -67c26 -9 45 -27 58 -53c12 -27 21 -64 26 -113c1 -3 2 -9 4 -20c1 -11 2 -17 3 -19c0 -3 1 -8 2 -17s3 -15 4 -18s2 -8 4 -15c1 -7 3 -13 5 -16c1 -3 3 -8 5 -14s4 -11 7 -16l9 -15v-8l-105 2
c-8 15 -14 31 -17 50c-4 19 -7 41 -9 68s-4 45 -6 56c-5 19 -9 35 -13 47c-5 11 -11 23 -19 35c-9 12 -20 21 -35 26s-32 8 -53 8h-149l-52 -292h-95l126 714h271c78 0 135 -20 171 -59s49 -89 38 -150zM542 517c6 35 0 64 -19 85s-57 32 -113 32h-173l-46 -262h172
c49 0 90 13 121 39s50 61 58 106zM254 -138v88h111v-77c0 -27 -9 -48 -26 -62c-18 -14 -42 -21 -73 -21v35c13 3 22 8 29 13c6 5 9 8 10 11s1 7 1 13h-52z" />
    <glyph glyph-name="Sacute.ss10" horiz-adv-x="611" 
d="M487 833l-8 -51l-247 -30l3 14zM496 509c-1 41 -14 75 -39 102c-26 27 -60 40 -101 40c-47 0 -85 -10 -114 -29c-30 -19 -45 -51 -45 -96c0 -32 9 -55 28 -70c18 -15 51 -30 98 -47c4 -1 15 -5 33 -11c17 -7 29 -11 34 -13s15 -6 31 -12c15 -7 26 -12 32 -15
c5 -4 14 -10 27 -17c12 -8 21 -15 26 -21s11 -14 20 -23c8 -10 14 -20 17 -30s6 -21 9 -34s4 -27 4 -41c0 -46 -13 -85 -39 -118s-58 -56 -95 -70s-78 -21 -122 -21c-85 0 -151 21 -200 62s-71 101 -66 181h94c-1 -55 15 -95 46 -122s73 -41 127 -41c46 0 84 12 115 35
s46 56 46 99c0 14 -2 27 -7 38s-11 20 -17 27s-16 14 -29 21s-24 13 -32 16s-21 7 -38 14c-18 6 -31 10 -38 13c-5 2 -15 6 -31 12c-16 5 -27 9 -33 12c-6 2 -16 6 -29 13c-14 6 -24 11 -29 16c-6 4 -14 10 -24 18c-11 7 -18 15 -23 23s-10 17 -15 28c-6 11 -10 23 -12 36
s-3 27 -3 42c0 63 24 113 71 150s108 55 184 55c72 0 129 -22 172 -66s63 -96 62 -157z" />
    <glyph glyph-name="Scaron.ss10" horiz-adv-x="611" 
d="M230 833l124 -34l137 34l-1 -14l-143 -71l-118 71zM496 509c-1 41 -14 75 -39 102c-26 27 -60 40 -101 40c-47 0 -85 -10 -114 -29c-30 -19 -45 -51 -45 -96c0 -32 9 -55 28 -70c18 -15 51 -30 98 -47c4 -1 15 -5 33 -11c17 -7 29 -11 34 -13s15 -6 31 -12
c15 -7 26 -12 32 -15c5 -4 14 -10 27 -17c12 -8 21 -15 26 -21s11 -14 20 -23c8 -10 14 -20 17 -30s6 -21 9 -34s4 -27 4 -41c0 -46 -13 -85 -39 -118s-58 -56 -95 -70s-78 -21 -122 -21c-85 0 -151 21 -200 62s-71 101 -66 181h94c-1 -55 15 -95 46 -122s73 -41 127 -41
c46 0 84 12 115 35s46 56 46 99c0 14 -2 27 -7 38s-11 20 -17 27s-16 14 -29 21s-24 13 -32 16s-21 7 -38 14c-18 6 -31 10 -38 13c-5 2 -15 6 -31 12c-16 5 -27 9 -33 12c-6 2 -16 6 -29 13c-14 6 -24 11 -29 16c-6 4 -14 10 -24 18c-11 7 -18 15 -23 23s-10 17 -15 28
c-6 11 -10 23 -12 36s-3 27 -3 42c0 63 24 113 71 150s108 55 184 55c72 0 129 -22 172 -66s63 -96 62 -157z" />
    <glyph glyph-name="Scedilla.ss10" horiz-adv-x="611" 
d="M356 651c-47 0 -85 -10 -114 -29c-30 -19 -45 -51 -45 -96c0 -32 9 -55 28 -70c18 -15 51 -30 98 -47c4 -1 15 -5 33 -11c17 -7 29 -11 34 -13s15 -6 31 -12c15 -7 26 -12 32 -15c5 -4 14 -10 27 -17c12 -8 21 -15 26 -21s11 -14 20 -23c8 -10 14 -20 17 -30s6 -21 9 -34
s4 -27 4 -41c0 -61 -21 -108 -62 -143s-92 -57 -153 -64c-11 -7 -22 -17 -34 -30c24 -5 44 -20 61 -45h6c-33 -13 -70 -21 -109 -22c-40 -1 -70 4 -90 15l2 40c39 -15 77 -18 114 -9l7 1c-17 6 -34 10 -51 12l-9 3c15 11 34 22 59 33c-83 1 -149 21 -197 62
c-49 41 -71 101 -66 181h94c-1 -55 15 -95 46 -122s73 -41 127 -41c46 0 84 12 115 35s46 56 46 99c0 14 -2 27 -7 38s-11 20 -17 27s-16 14 -29 21s-24 13 -32 16s-21 7 -38 14c-18 6 -31 10 -38 13c-5 2 -15 6 -31 12c-16 5 -27 9 -33 12c-6 2 -16 6 -29 13
c-14 6 -24 11 -29 16c-6 4 -14 10 -24 18c-11 7 -18 15 -23 23s-10 17 -15 28c-6 11 -10 23 -12 36s-3 27 -3 42c0 63 24 113 71 150s108 55 184 55c72 0 129 -22 172 -66s63 -96 62 -157l-95 1c-1 41 -14 75 -39 102c-26 27 -60 40 -101 40z" />
    <glyph glyph-name="Scircumflex.ss10" horiz-adv-x="611" 
d="M225 748l2 14l142 71l118 -71l-1 -14l-125 34zM496 509c-1 41 -14 75 -39 102c-26 27 -60 40 -101 40c-47 0 -85 -10 -114 -29c-30 -19 -45 -51 -45 -96c0 -32 9 -55 28 -70c18 -15 51 -30 98 -47c4 -1 15 -5 33 -11c17 -7 29 -11 34 -13s15 -6 31 -12
c15 -7 26 -12 32 -15c5 -4 14 -10 27 -17c12 -8 21 -15 26 -21s11 -14 20 -23c8 -10 14 -20 17 -30s6 -21 9 -34s4 -27 4 -41c0 -46 -13 -85 -39 -118s-58 -56 -95 -70s-78 -21 -122 -21c-85 0 -151 21 -200 62s-71 101 -66 181h94c-1 -55 15 -95 46 -122s73 -41 127 -41
c46 0 84 12 115 35s46 56 46 99c0 14 -2 27 -7 38s-11 20 -17 27s-16 14 -29 21s-24 13 -32 16s-21 7 -38 14c-18 6 -31 10 -38 13c-5 2 -15 6 -31 12c-16 5 -27 9 -33 12c-6 2 -16 6 -29 13c-14 6 -24 11 -29 16c-6 4 -14 10 -24 18c-11 7 -18 15 -23 23s-10 17 -15 28
c-6 11 -10 23 -12 36s-3 27 -3 42c0 63 24 113 71 150s108 55 184 55c72 0 129 -22 172 -66s63 -96 62 -157z" />
    <glyph glyph-name="uni0218.ss10" horiz-adv-x="611" 
d="M496 509c-1 41 -14 75 -39 102c-26 27 -60 40 -101 40c-47 0 -85 -10 -114 -29c-30 -19 -45 -51 -45 -96c0 -32 9 -55 28 -70c18 -15 51 -30 98 -47c4 -1 15 -5 33 -11c17 -7 29 -11 34 -13s15 -6 31 -12c15 -7 26 -12 32 -15c5 -4 14 -10 27 -17c12 -8 21 -15 26 -21
s11 -14 20 -23c8 -10 14 -20 17 -30s6 -21 9 -34s4 -27 4 -41c0 -46 -13 -85 -39 -118s-58 -56 -95 -70s-78 -21 -122 -21c-85 0 -151 21 -200 62s-71 101 -66 181h94c-1 -55 15 -95 46 -122s73 -41 127 -41c46 0 84 12 115 35s46 56 46 99c0 14 -2 27 -7 38s-11 20 -17 27
s-16 14 -29 21s-24 13 -32 16s-21 7 -38 14c-18 6 -31 10 -38 13c-5 2 -15 6 -31 12c-16 5 -27 9 -33 12c-6 2 -16 6 -29 13c-14 6 -24 11 -29 16c-6 4 -14 10 -24 18c-11 7 -18 15 -23 23s-10 17 -15 28c-6 11 -10 23 -12 36s-3 27 -3 42c0 63 24 113 71 150s108 55 184 55
c72 0 129 -22 172 -66s63 -96 62 -157zM241 -50h111v-77c0 -27 -9 -48 -26 -62c-18 -14 -42 -21 -73 -21v35c13 3 22 8 29 13c6 5 9 8 10 11s1 7 1 13h-52v88z" />
    <glyph glyph-name="Tcaron.ss10" horiz-adv-x="573" 
d="M510 819l-143 -71l-118 71l1 14l124 -34l137 34zM633 714l-14 -80h-218l-113 -634h-95l113 634h-220l14 80h533z" />
    <glyph glyph-name="uni021A.ss10" horiz-adv-x="573" 
d="M633 714l-14 -80h-218l-113 -634h-95l113 634h-220l14 80h533zM182 -138v88h111v-77c0 -27 -9 -48 -26 -62c-18 -14 -42 -21 -73 -21v35c13 3 22 8 29 13c6 5 9 8 10 11s1 7 1 13h-52z" />
    <glyph glyph-name="Uacute.ss10" horiz-adv-x="670" 
d="M556 833l-8 -51l-247 -30l3 14zM603 251c-14 -77 -46 -141 -95 -192s-116 -76 -199 -76c-91 0 -158 26 -200 78c-43 52 -57 117 -43 196l80 457h95l-81 -463c-9 -54 -1 -99 24 -134c25 -36 67 -54 126 -54c57 0 102 18 135 55c33 36 54 82 64 139l80 457h95z" />
    <glyph glyph-name="Ubreve.ss10" horiz-adv-x="670" 
d="M309 833h51c1 -13 8 -23 20 -31s28 -12 48 -12c39 0 66 14 79 43h56c-8 -22 -24 -41 -47 -57s-53 -24 -90 -24s-66 8 -86 25c-21 17 -31 35 -31 56zM603 251c-14 -77 -46 -141 -95 -192s-116 -76 -199 -76c-91 0 -158 26 -200 78c-43 52 -57 117 -43 196l80 457h95
l-81 -463c-9 -54 -1 -99 24 -134c25 -36 67 -54 126 -54c57 0 102 18 135 55c33 36 54 82 64 139l80 457h95z" />
    <glyph glyph-name="Ucircumflex.ss10" horiz-adv-x="670" 
d="M296 748l2 14l142 71l118 -71l-1 -14l-125 34zM603 251c-14 -77 -46 -141 -95 -192s-116 -76 -199 -76c-91 0 -158 26 -200 78c-43 52 -57 117 -43 196l80 457h95l-81 -463c-9 -54 -1 -99 24 -134c25 -36 67 -54 126 -54c57 0 102 18 135 55c33 36 54 82 64 139l80 457
h95z" />
    <glyph glyph-name="Udieresis.ss10" horiz-adv-x="670" 
d="M327 818h91l-9 -48h-91zM469 818h91l-9 -48h-91zM603 251c-14 -77 -46 -141 -95 -192s-116 -76 -199 -76c-91 0 -158 26 -200 78c-43 52 -57 117 -43 196l80 457h95l-81 -463c-9 -54 -1 -99 24 -134c25 -36 67 -54 126 -54c57 0 102 18 135 55c33 36 54 82 64 139l80 457
h95z" />
    <glyph glyph-name="Uhungarumlaut.ss10" horiz-adv-x="670" 
d="M441 833l-10 -61l-119 -20l2 14zM569 833l-10 -61l-119 -20l2 14zM603 251c-14 -77 -46 -141 -95 -192s-116 -76 -199 -76c-91 0 -158 26 -200 78c-43 52 -57 117 -43 196l80 457h95l-81 -463c-9 -54 -1 -99 24 -134c25 -36 67 -54 126 -54c57 0 102 18 135 55
c33 36 54 82 64 139l80 457h95z" />
    <glyph glyph-name="Ugrave.ss10" horiz-adv-x="670" 
d="M326 833l229 -67l-2 -14l-236 30zM603 251c-14 -77 -46 -141 -95 -192s-116 -76 -199 -76c-91 0 -158 26 -200 78c-43 52 -57 117 -43 196l80 457h95l-81 -463c-9 -54 -1 -99 24 -134c25 -36 67 -54 126 -54c57 0 102 18 135 55c33 36 54 82 64 139l80 457h95z" />
    <glyph glyph-name="Umacron.ss10" horiz-adv-x="670" 
d="M264 805h343l-7 -35h-342zM603 251c-14 -77 -46 -141 -95 -192s-116 -76 -199 -76c-91 0 -158 26 -200 78c-43 52 -57 117 -43 196l80 457h95l-81 -463c-9 -54 -1 -99 24 -134c25 -36 67 -54 126 -54c57 0 102 18 135 55c33 36 54 82 64 139l80 457h95z" />
    <glyph glyph-name="Uogonek.ss10" horiz-adv-x="670" 
d="M589 714h95l-81 -463c-13 -74 -43 -136 -89 -186c-47 -51 -109 -78 -187 -82c-49 -39 -75 -72 -79 -99c-2 -11 -1 -21 4 -29c5 -9 13 -13 26 -13c26 0 48 10 67 30l29 -18c-31 -41 -70 -62 -119 -62c-61 0 -86 27 -77 82c3 16 13 34 30 55c17 20 42 38 75 55
c-83 5 -143 34 -180 85c-38 51 -50 114 -37 188l80 457h95l-81 -463c-9 -54 -1 -99 24 -134c25 -36 67 -54 126 -54c57 0 102 18 135 55c33 36 54 82 64 139z" />
    <glyph glyph-name="Uring.ss10" horiz-adv-x="670" 
d="M433 833c17 0 31 -6 42 -18c11 -13 15 -28 12 -45s-12 -32 -25 -44c-14 -13 -30 -19 -47 -19s-31 6 -42 19c-11 12 -15 27 -12 44s12 32 26 45c13 12 29 18 46 18zM421 740c18 0 29 10 32 30c1 9 0 16 -5 22c-5 5 -12 8 -21 8c-18 0 -29 -10 -32 -30c-1 -9 0 -16 5 -21
c5 -6 12 -9 21 -9zM603 251c-14 -77 -46 -141 -95 -192s-116 -76 -199 -76c-91 0 -158 26 -200 78c-43 52 -57 117 -43 196l80 457h95l-81 -463c-9 -54 -1 -99 24 -134c25 -36 67 -54 126 -54c57 0 102 18 135 55c33 36 54 82 64 139l80 457h95z" />
    <glyph glyph-name="Utilde.ss10" horiz-adv-x="670" 
d="M597 808c-9 -18 -22 -32 -39 -41c-18 -10 -38 -15 -60 -15c-17 0 -35 4 -56 12c-21 7 -35 11 -42 11c-21 0 -40 -7 -56 -22l-57 4c25 37 60 55 106 55c21 0 41 -4 59 -11s31 -11 40 -11c20 0 36 8 49 23zM603 251c-14 -77 -46 -141 -95 -192s-116 -76 -199 -76
c-91 0 -158 26 -200 78c-43 52 -57 117 -43 196l80 457h95l-81 -463c-9 -54 -1 -99 24 -134c25 -36 67 -54 126 -54c57 0 102 18 135 55c33 36 54 82 64 139l80 457h95z" />
    <glyph glyph-name="Wcircumflex.ss10" horiz-adv-x="918" 
d="M670 748l-125 34l-136 -34l2 14l142 71l118 -71zM888 714h101l-313 -714h-128l-23 518c-1 13 -2 47 -2 100c-5 -11 -11 -29 -20 -53s-15 -41 -20 -52l-212 -513h-127l-53 714h99l29 -553c1 -28 3 -49 4 -62l26 67l224 548h130l23 -539c2 -51 3 -76 3 -77
c12 27 23 55 34 83z" />
    <glyph glyph-name="Yacute.ss10" horiz-adv-x="628" 
d="M533 833l-8 -51l-247 -30l3 14zM690 714l-325 -422l-52 -292h-95l52 297l-172 417h107l127 -332l245 332h113z" />
    <glyph glyph-name="Ycircumflex.ss10" horiz-adv-x="628" 
d="M526 748l-125 34l-136 -34l2 14l142 71l118 -71zM690 714l-325 -422l-52 -292h-95l52 297l-172 417h107l127 -332l245 332h113z" />
    <glyph glyph-name="Ydieresis.ss10" horiz-adv-x="628" 
d="M384 818l-9 -48h-91l9 48h91zM526 818l-9 -48h-91l9 48h91zM690 714l-325 -422l-52 -292h-95l52 297l-172 417h107l127 -332l245 332h113z" />
    <glyph glyph-name="Zacute.ss10" horiz-adv-x="620" 
d="M540 833l-8 -51l-247 -30l3 14zM644 714l-14 -86l-489 -544h404l-15 -84h-520l14 86l492 544h-372l14 84h486z" />
    <glyph glyph-name="Zcaron.ss10" horiz-adv-x="620" 
d="M548 819l-143 -71l-118 71l1 14l124 -34l137 34zM644 714l-14 -86l-489 -544h404l-15 -84h-520l14 86l492 544h-372l14 84h486z" />
    <glyph glyph-name="Zdotaccent.ss10" horiz-adv-x="620" 
d="M455 822l-9 -48h-91l8 48h92zM644 714l-14 -86l-489 -544h404l-15 -84h-520l14 86l492 544h-372l14 84h486z" />
    <glyph glyph-name="Ldot.ss10" horiz-adv-x="548" 
d="M251 714l-110 -634h346l-15 -80h-442l126 714h95zM445 548h90l-17 -100h-90z" />
    <glyph glyph-name="adieresis.ss03" horiz-adv-x="542" 
d="M262 600c-19 0 -33 7 -44 20s-15 28 -12 46c3 15 10 28 23 39c12 10 26 15 41 15c17 0 31 -6 42 -19s15 -29 12 -47c-3 -15 -11 -28 -22 -38c-12 -11 -25 -16 -40 -16zM452 720c17 0 31 -6 42 -19s15 -29 12 -47c-3 -15 -11 -28 -22 -38c-12 -11 -25 -16 -40 -16
c-19 0 -33 7 -44 20s-15 28 -12 46c3 15 10 28 22 39c12 10 26 15 42 15zM296 530c36 0 68 -4 95 -13s47 -20 61 -34c13 -14 24 -30 33 -48c8 -18 12 -36 11 -53c-1 -18 -2 -35 -3 -52l-35 -195c-4 -23 -7 -68 -10 -135h-98c1 27 4 53 8 78l2 12c-13 -26 -34 -49 -62 -70
s-64 -32 -108 -32c-61 0 -107 17 -138 50s-43 72 -35 118c5 30 17 55 35 75c17 20 42 35 74 44s56 15 72 18s40 5 73 8c4 1 7 1 8 1c79 7 122 33 131 78c3 21 -6 39 -27 53s-50 21 -85 21c-72 0 -115 -30 -129 -90h-90c9 46 31 85 67 118c36 32 86 48 150 48zM206 61
c43 0 82 15 116 46c33 30 56 75 67 136l13 69c-10 -21 -26 -38 -49 -52s-60 -24 -111 -31c-43 -5 -76 -14 -98 -25c-23 -12 -36 -31 -40 -56c-4 -26 3 -47 20 -63s44 -24 82 -24z" />
    <glyph glyph-name="edieresis.ss03" horiz-adv-x="573" 
d="M264 600c-19 0 -33 7 -44 20s-15 28 -12 46c3 15 10 28 23 39c12 10 26 15 41 15c17 0 31 -6 42 -19s15 -29 12 -47c-3 -15 -11 -28 -22 -38c-12 -11 -25 -16 -40 -16zM446 600c-19 0 -33 7 -44 20s-15 28 -12 46c3 15 10 28 22 39c12 10 26 15 42 15c17 0 31 -6 42 -19
s15 -29 12 -47c-3 -15 -11 -28 -22 -38c-12 -11 -25 -16 -40 -16zM536 232h-416c-3 -53 7 -95 32 -124c25 -30 60 -45 106 -45c77 0 131 30 163 91h92c-23 -54 -57 -95 -101 -123c-45 -29 -95 -43 -152 -43c-78 0 -138 26 -179 78c-41 51 -56 118 -43 201
c13 81 46 145 99 192s116 70 191 70c46 0 85 -9 117 -27c31 -18 54 -41 67 -69c13 -29 23 -61 28 -96s3 -70 -4 -105zM326 455c-45 0 -84 -14 -119 -42s-59 -64 -74 -109h323c4 45 -6 82 -30 110c-24 27 -57 41 -100 41z" />
    <glyph glyph-name="i.ss03" horiz-adv-x="222" 
d="M173 602c-17 0 -31 6 -40 18c-10 11 -14 25 -11 42s12 31 26 43c14 11 29 17 46 17c16 0 29 -6 38 -17c9 -12 13 -26 10 -43s-12 -31 -25 -42c-13 -12 -28 -18 -44 -18zM20 0l92 517h90l-92 -517h-90z" />
    <glyph glyph-name="idieresis.ss03" horiz-adv-x="222" 
d="M88 600c-19 0 -33 7 -44 20s-15 28 -12 46c3 15 10 28 23 39c12 10 26 15 41 15c17 0 31 -6 42 -19s15 -29 12 -47c-3 -15 -11 -28 -22 -38c-12 -11 -25 -16 -40 -16zM270 600c-19 0 -33 7 -44 20s-15 28 -12 46c3 15 10 28 22 39c12 10 26 15 42 15c17 0 31 -6 42 -19
s15 -29 12 -47c-3 -15 -11 -28 -22 -38c-12 -11 -25 -16 -40 -16zM20 0l92 517h90l-92 -517h-90z" />
    <glyph glyph-name="j.ss03" horiz-adv-x="242" 
d="M191 602c-17 0 -31 6 -40 18c-10 11 -14 25 -11 42s12 31 26 43c14 11 29 17 46 17c16 0 29 -6 38 -17c9 -12 13 -26 10 -43s-12 -31 -25 -42c-13 -12 -28 -18 -44 -18zM222 517l-104 -588c-15 -84 -63 -126 -144 -126h-64l13 76h35c23 0 40 4 51 12s18 23 22 46l103 580
h88z" />
    <glyph glyph-name="odieresis.ss03" horiz-adv-x="602" 
d="M278 600c-19 0 -33 7 -44 20s-15 28 -12 46c3 15 10 28 23 39c12 10 26 15 41 15c17 0 31 -6 42 -19s15 -29 12 -47c-3 -15 -11 -28 -22 -38c-12 -11 -25 -16 -40 -16zM460 600c-19 0 -33 7 -44 20s-15 28 -12 46c3 15 10 28 22 39c12 10 26 15 42 15c17 0 31 -6 42 -19
s15 -29 12 -47c-3 -15 -11 -28 -22 -38c-12 -11 -25 -16 -40 -16zM266 -12c-81 0 -143 26 -186 78s-57 118 -43 198c14 78 48 142 102 191s120 74 197 74c81 0 143 -26 186 -78c43 -53 57 -119 43 -199c-14 -78 -48 -141 -102 -190s-120 -74 -197 -74zM266 64
c53 0 99 19 138 57c39 37 63 85 73 143c9 54 1 99 -25 135c-27 36 -65 54 -116 54c-53 0 -99 -19 -138 -57s-63 -86 -73 -144c-9 -54 -1 -99 26 -134c26 -36 64 -54 115 -54z" />
    <glyph glyph-name="udieresis.ss03" horiz-adv-x="556" 
d="M254 600c-19 0 -33 7 -44 20s-15 28 -12 46c3 15 10 28 23 39c12 10 26 15 41 15c17 0 31 -6 42 -19s15 -29 12 -47c-3 -15 -11 -28 -22 -38c-12 -11 -25 -16 -40 -16zM436 600c-19 0 -33 7 -44 20s-15 28 -12 46c3 15 10 28 22 39c12 10 26 15 42 15c17 0 31 -6 42 -19
s15 -29 12 -47c-3 -15 -11 -28 -22 -38c-12 -11 -25 -16 -40 -16zM448 517h90l-92 -517h-90l19 105h-1c-12 -33 -33 -60 -62 -83c-30 -23 -65 -34 -106 -34c-65 0 -111 19 -136 56c-26 37 -34 84 -23 141l59 332h90l-58 -329c-8 -45 -5 -76 8 -95s37 -29 72 -29
c44 0 83 15 116 44s54 75 65 138v-5z" />
    <glyph glyph-name="ydieresis.ss03" horiz-adv-x="528" 
d="M245 600c-19 0 -33 7 -44 20s-15 28 -12 46c3 15 10 28 23 39c12 10 26 15 41 15c17 0 31 -6 42 -19s15 -29 12 -47c-3 -15 -11 -28 -22 -38c-12 -11 -25 -16 -40 -16zM427 600c-19 0 -33 7 -44 20s-15 28 -12 46c3 15 10 28 22 39c12 10 26 15 42 15c17 0 31 -6 42 -19
s15 -29 12 -47c-3 -15 -11 -28 -22 -38c-12 -11 -25 -16 -40 -16zM469 517h98l-344 -620c-35 -65 -83 -97 -146 -97h-73l14 76h53c15 0 29 4 41 11c11 7 20 15 25 22s11 19 20 35l28 48l-122 525h94l87 -428z" />
    <glyph glyph-name="uni0326.alt" horiz-adv-x="0" 
d="M38 646h-111l14 77c10 55 48 83 114 83l-7 -35c-13 -3 -23 -7 -30 -12s-12 -9 -13 -12s-2 -7 -3 -13h52z" />
    <glyph glyph-name="uni0326.cap.ss10" horiz-adv-x="0" 
d="M35 626h-112l14 80c9 53 46 80 111 80v-36c-13 -3 -24 -7 -31 -12c-8 -5 -13 -10 -14 -13c-2 -4 -3 -9 -4 -14l52 3z" />
    <glyph glyph-name="circumflex.cap" horiz-adv-x="406" 
d="M433 762h-100l-50 78l-76 -78h-100l135 127h100z" />
    <glyph glyph-name="caron.cap" horiz-adv-x="400" 
d="M368 893h92l-148 -135h-93l-99 135h89l65 -89z" />
    <glyph glyph-name="circumflex.cap.ss10" horiz-adv-x="292" 
d="M102 746l2 14l142 71l118 -71l-1 -14l-125 34z" />
    <glyph glyph-name="caron.cap.ss10" horiz-adv-x="292" 
d="M116 831l124 -34l137 34l-1 -14l-143 -71l-118 71z" />
    <glyph glyph-name="grave.cap" horiz-adv-x="255" 
d="M237 883l106 -113h-100l-140 113h134z" />
    <glyph glyph-name="dieresis.cap" horiz-adv-x="318" 
d="M140 884h90l-18 -104h-90zM308 884h90l-18 -104h-90z" />
    <glyph glyph-name="macron.cap" horiz-adv-x="401" 
d="M136 857h341l-10 -55h-341z" />
    <glyph glyph-name="acute.cap" horiz-adv-x="255" 
d="M242 883h134l-180 -113h-100z" />
    <glyph glyph-name="cedilla.cap" horiz-adv-x="260" 
d="M109 -48c25 0 45 -7 59 -21c13 -15 15 -34 6 -58c-11 -29 -30 -50 -59 -63s-59 -20 -90 -20c-34 0 -64 7 -90 21l32 48c13 -11 32 -17 56 -17c39 0 63 12 74 37c3 8 2 14 -3 18c-5 3 -14 5 -27 5s-28 -3 -46 -9l-18 40l83 67h55l-57 -51c8 2 16 3 25 3z" />
    <glyph glyph-name="breve.cap" horiz-adv-x="372" 
d="M449 894c-31 -81 -87 -122 -170 -122s-126 41 -128 122h52c4 -23 12 -40 25 -51c12 -11 32 -16 60 -16s50 5 66 16s30 28 43 51h52z" />
    <glyph glyph-name="dotaccent.cap" horiz-adv-x="150" 
d="M141 890h90l-17 -100h-90z" />
    <glyph glyph-name="ring.cap" horiz-adv-x="286" 
d="M271 983c29 0 53 -10 70 -31s24 -47 19 -77s-20 -55 -45 -76s-53 -32 -82 -32c-30 0 -54 11 -71 32s-23 46 -18 76s20 56 45 77s52 31 82 31zM241 812c18 0 34 6 47 18c13 11 22 26 25 44s0 33 -9 45c-10 11 -24 17 -42 17s-33 -6 -46 -17c-13 -12 -22 -27 -25 -45
s0 -33 9 -44c9 -12 23 -18 41 -18z" />
    <glyph glyph-name="tilde.cap" horiz-adv-x="403" 
d="M483 889c-11 -33 -26 -60 -47 -80c-21 -21 -45 -31 -73 -31c-19 0 -43 7 -72 20s-50 19 -63 19c-21 0 -40 -14 -56 -42h-52c29 73 70 110 125 110c19 0 42 -7 70 -20s49 -20 62 -20c22 0 40 15 54 44h52z" />
    <glyph glyph-name="hungarumlaut.cap" horiz-adv-x="402" 
d="M229 883h111l-146 -113h-76zM385 883h111l-146 -113h-76z" />
    <glyph glyph-name="dieresis.cap.ss03" horiz-adv-x="338" 
d="M178 773c-19 0 -33 7 -44 20s-15 28 -12 46c3 15 11 28 24 39c12 10 25 15 40 15c18 0 32 -6 43 -19s14 -29 11 -47c-3 -15 -10 -27 -22 -38s-25 -16 -40 -16zM356 773c-19 0 -33 7 -44 20s-15 28 -12 46c3 15 11 28 24 39c12 10 25 15 40 15c18 0 32 -6 43 -19
s14 -29 11 -47c-3 -15 -10 -27 -22 -38s-25 -16 -40 -16z" />
    <glyph glyph-name="grave.cap.ss10" horiz-adv-x="272" 
d="M116 831l229 -67l-2 -14l-236 30z" />
    <glyph glyph-name="dieresis.cap.ss10" horiz-adv-x="270" 
d="M117 816h91l-9 -48h-91zM259 816h91l-9 -48h-91z" />
    <glyph glyph-name="macron.cap.ss10" horiz-adv-x="353" 
d="M101 803h343l-7 -35h-342z" />
    <glyph glyph-name="acute.cap.ss10" horiz-adv-x="272" 
d="M357 831l-8 -51l-247 -30l3 14z" />
    <glyph glyph-name="cedilla.cap.ss10" horiz-adv-x="276" 
d="M138 5l26 -3c-15 -10 -28 -22 -41 -35c24 -5 44 -20 61 -45h6c-33 -13 -70 -21 -109 -22c-40 -1 -70 4 -90 15l2 40c39 -15 77 -18 114 -9l7 1c-17 6 -34 10 -51 12l-9 3c27 19 55 33 84 43z" />
    <glyph glyph-name="breve.cap.ss10" horiz-adv-x="370" 
d="M159 831h51c1 -13 8 -23 20 -31s28 -12 48 -12c39 0 66 14 79 43h56c-8 -22 -24 -41 -47 -57s-53 -24 -90 -24s-66 8 -86 25c-21 17 -31 35 -31 56z" />
    <glyph glyph-name="dotaccent.cap.ss10" horiz-adv-x="150" 
d="M128 820h92l-9 -48h-91z" />
    <glyph glyph-name="ring.cap.ss10" horiz-adv-x="286" 
d="M242 831c17 0 31 -6 42 -18c11 -13 15 -28 12 -45s-12 -32 -25 -44c-14 -13 -30 -19 -47 -19s-31 6 -42 19c-11 12 -15 27 -12 44s12 32 26 45c13 12 29 18 46 18zM230 738c18 0 29 10 32 30c1 9 0 16 -5 22c-5 5 -12 8 -21 8c-18 0 -29 -10 -32 -30c-1 -9 0 -16 5 -21
c5 -6 12 -9 21 -9z" />
    <glyph glyph-name="ogonek.cap.ss10" horiz-adv-x="260" 
d="M108 1c-21 -15 -38 -29 -51 -44c31 -11 69 -10 114 3l-1 -38c-25 -11 -56 -15 -93 -13s-71 9 -102 22l-6 5c41 33 79 56 114 68z" />
    <glyph glyph-name="tilde.cap.ss10" horiz-adv-x="403" 
d="M447 806c-9 -18 -22 -32 -39 -41c-18 -10 -38 -15 -60 -15c-17 0 -35 4 -56 12c-21 7 -35 11 -42 11c-21 0 -40 -7 -56 -22l-57 4c25 37 60 55 106 55c21 0 41 -4 59 -11s31 -11 40 -11c20 0 36 8 49 23z" />
    <glyph glyph-name="hungarumlaut.cap.ss10" horiz-adv-x="256" 
d="M222 831l-10 -61l-119 -20l2 14zM350 831l-10 -61l-119 -20l2 14z" />
    <glyph glyph-name="dieresis.ss03" horiz-adv-x="338" 
d="M146 600c-19 0 -33 7 -44 20s-15 28 -12 46c3 15 10 28 23 39c12 10 26 15 41 15c17 0 31 -6 42 -19s15 -29 12 -47c-3 -15 -11 -28 -22 -38c-12 -11 -25 -16 -40 -16zM328 600c-19 0 -33 7 -44 20s-15 28 -12 46c3 15 10 28 22 39c12 10 26 15 42 15c17 0 31 -6 42 -19
s15 -29 12 -47c-3 -15 -11 -28 -22 -38c-12 -11 -25 -16 -40 -16z" />
    <glyph glyph-name="zero.dnom" horiz-adv-x="402" 
d="M228 412c39 0 70 -10 93 -31s36 -46 39 -76c3 -31 2 -64 -3 -99c-11 -59 -33 -108 -66 -149s-79 -62 -136 -62c-39 0 -70 11 -92 33c-23 21 -35 48 -38 79s-3 64 2 99c11 58 33 107 66 147c33 39 78 59 135 59zM165 55c63 0 104 51 122 152c17 98 -6 147 -69 147
c-64 0 -104 -49 -121 -147c-18 -101 5 -152 68 -152z" />
    <glyph glyph-name="one.dnom" horiz-adv-x="256" 
d="M165 407h57l-72 -407h-70l53 299h-106l9 49c35 0 64 4 85 13s35 24 44 46z" />
    <glyph glyph-name="two.dnom" horiz-adv-x="367" 
d="M222 154c-7 -5 -30 -18 -70 -39c-41 -21 -67 -40 -78 -56h228l-11 -60h-301c3 21 10 40 20 58c9 17 18 31 27 42s22 22 41 35c18 13 30 21 37 25c7 3 20 11 41 22c41 23 70 42 85 56s25 32 29 55c3 16 -1 29 -12 40s-27 16 -46 16c-20 0 -38 -7 -55 -20s-28 -31 -32 -52
h-70c7 41 28 73 61 97c33 23 68 35 106 35c37 0 68 -10 92 -31c23 -21 32 -49 26 -85c-1 -7 -3 -14 -5 -21c-3 -7 -5 -12 -6 -17c-2 -5 -5 -11 -10 -16c-5 -6 -8 -11 -10 -14c-2 -4 -6 -9 -12 -14c-7 -5 -11 -9 -13 -11c-2 -3 -7 -7 -15 -12c-8 -6 -13 -10 -14 -11
c-2 -1 -8 -5 -17 -11c-9 -7 -15 -10 -16 -11z" />
    <glyph glyph-name="three.dnom" horiz-adv-x="366" 
d="M324 313c-9 -50 -43 -82 -102 -96l-1 -1c29 -4 52 -15 68 -33c15 -19 21 -42 16 -69c-7 -39 -26 -68 -56 -88c-31 -21 -68 -31 -111 -31c-45 0 -80 11 -103 33s-31 53 -23 93h70c-3 -23 1 -39 12 -49c11 -11 29 -16 54 -16c23 0 42 5 58 16c15 11 25 26 28 46
c3 19 -1 35 -13 48c-13 12 -30 18 -51 18c-7 0 -17 -1 -29 -2l11 64h11h10c45 0 71 19 78 57c3 15 0 27 -8 36c-9 9 -24 13 -46 13c-43 0 -68 -20 -75 -59h-70c8 37 25 66 52 87s61 32 104 32c39 0 70 -9 92 -26c21 -17 29 -42 24 -73z" />
    <glyph glyph-name="four.dnom" horiz-adv-x="367" 
d="M322 152l-10 -58h-59l-17 -97h-70l17 97h-190l9 50l235 266h72l-46 -258h59zM80 152h113l29 165z" />
    <glyph glyph-name="five.dnom" horiz-adv-x="371" 
d="M145 351l-41 -120l1 -1c10 13 24 24 42 33c18 8 36 12 53 12c43 0 75 -12 98 -35c22 -23 29 -58 22 -103c-7 -41 -26 -74 -57 -101s-71 -40 -121 -40c-40 0 -73 11 -100 33c-27 21 -37 50 -31 86h70c-1 -18 5 -32 18 -42c13 -11 30 -16 53 -16c27 0 49 7 66 22
s27 35 32 60c4 24 1 43 -10 58s-29 22 -54 22c-34 0 -62 -14 -85 -43l-66 13l70 222h230l-11 -60h-179z" />
    <glyph glyph-name="six.dnom" horiz-adv-x="370" 
d="M204 352c-53 0 -89 -46 -108 -138c11 16 26 29 45 39c19 9 38 14 57 14c41 0 72 -13 93 -39s28 -58 21 -97c-7 -35 -25 -67 -54 -94c-29 -28 -69 -42 -118 -42c-30 0 -54 6 -73 19c-19 12 -32 28 -38 47s-10 40 -11 63s1 44 6 65c11 64 32 117 65 160c32 42 76 63 132 63
c39 0 67 -10 84 -30c17 -21 25 -47 23 -79h-68c-1 9 -1 15 -2 19c-1 3 -2 8 -5 14s-9 10 -17 13c-8 2 -19 3 -32 3zM177 209c-24 0 -44 -7 -61 -22s-28 -35 -33 -60c-3 -21 1 -38 13 -51c12 -14 30 -21 54 -21c25 0 46 7 62 20c15 13 25 32 29 55c5 24 2 43 -9 58
c-11 14 -30 21 -55 21z" />
    <glyph glyph-name="seven.dnom" horiz-adv-x="309" 
d="M42 407h291l-8 -48c-119 -99 -192 -219 -217 -359h-70c14 77 42 147 85 210c42 63 91 109 146 137h-237z" />
    <glyph glyph-name="eight.dnom" horiz-adv-x="361" 
d="M322 306c-3 -21 -15 -39 -34 -55c-20 -16 -43 -27 -70 -33c28 -5 51 -16 69 -33c17 -18 24 -40 19 -66c-6 -38 -25 -68 -58 -90c-33 -23 -70 -34 -112 -34c-44 0 -78 11 -103 33c-25 21 -35 52 -28 91c5 25 19 47 43 65s50 29 78 34c-24 6 -43 17 -56 33
c-14 16 -20 34 -17 55c5 31 22 56 49 76s62 30 105 30c45 0 77 -10 96 -29c19 -20 25 -46 19 -77zM255 303c3 17 -1 30 -11 39s-26 13 -47 13c-19 0 -35 -5 -50 -14s-24 -22 -27 -38c-3 -17 1 -31 13 -42c11 -11 27 -16 47 -16s37 5 50 16c13 10 22 24 25 42zM237 120
c3 19 -1 34 -13 47s-31 19 -56 19c-23 0 -44 -6 -61 -19s-28 -29 -31 -47c-3 -19 2 -34 15 -46s31 -18 55 -18s44 6 61 18s27 27 30 46z" />
    <glyph glyph-name="nine.dnom" horiz-adv-x="370" 
d="M211 412c30 0 55 -6 74 -18c19 -13 31 -28 37 -47s10 -40 11 -63s-1 -45 -6 -66c-5 -29 -13 -57 -22 -82c-10 -25 -23 -49 -38 -70c-15 -22 -35 -39 -58 -52s-50 -19 -79 -19c-39 0 -67 10 -84 31s-25 47 -23 79h68c1 -9 1 -15 2 -18c0 -4 2 -9 5 -15s9 -10 17 -12
c7 -3 18 -4 31 -4c27 0 50 13 69 39c18 25 31 58 40 99c-10 -15 -25 -26 -44 -35s-39 -14 -58 -14c-41 0 -72 12 -93 37s-28 56 -21 94c7 35 25 67 54 95c29 27 69 41 118 41zM172 203c26 0 48 7 65 21s27 33 31 56c3 22 -1 40 -13 53c-13 13 -32 19 -57 19
c-51 0 -80 -25 -89 -75c-9 -49 12 -74 63 -74z" />
    <glyph glyph-name="zero.numr" horiz-adv-x="402" 
d="M282 719c39 0 70 -10 93 -31s36 -46 39 -76c3 -31 2 -64 -3 -99c-11 -58 -33 -107 -66 -148s-79 -62 -136 -62c-30 0 -55 6 -75 19c-21 12 -35 28 -43 48s-13 43 -15 68c-3 25 -1 50 5 75c11 58 33 107 66 147c33 39 78 59 135 59zM219 363c63 0 104 50 122 151
c18 98 -5 147 -69 147c-63 0 -103 -49 -121 -147c-18 -101 5 -151 68 -151z" />
    <glyph glyph-name="one.numr" horiz-adv-x="256" 
d="M219 714h57l-71 -407h-70l52 299h-106l9 49c35 0 64 4 85 13s35 24 44 46z" />
    <glyph glyph-name="two.numr" horiz-adv-x="367" 
d="M276 461c-7 -5 -30 -18 -70 -39c-41 -21 -67 -40 -78 -56h228l-11 -60h-301c3 21 10 40 20 58c9 17 18 31 27 42s22 22 41 35c18 13 30 21 37 25c7 3 20 11 41 22c41 23 70 42 85 56s25 32 29 55c3 16 -1 29 -12 40s-27 16 -46 16c-20 0 -38 -7 -55 -20s-28 -31 -32 -52
h-70c7 41 28 73 61 97c33 23 69 35 106 35s68 -10 92 -31c23 -21 32 -49 26 -85c-1 -7 -3 -14 -5 -21c-3 -7 -5 -12 -6 -17c-2 -5 -5 -11 -10 -16c-5 -6 -8 -11 -10 -14c-2 -4 -6 -9 -12 -14c-7 -5 -11 -9 -13 -11c-2 -3 -7 -7 -15 -12c-8 -6 -13 -10 -14 -11
c-2 -1 -8 -5 -17 -11c-9 -7 -15 -10 -16 -11z" />
    <glyph glyph-name="three.numr" horiz-adv-x="366" 
d="M378 620c-9 -50 -43 -82 -102 -96v-1c29 -4 51 -15 67 -33c15 -19 21 -42 16 -69c-7 -39 -25 -68 -56 -88s-68 -30 -111 -30c-45 0 -80 11 -103 33c-23 21 -31 52 -23 92h70c-3 -23 2 -39 13 -49c11 -11 28 -16 53 -16c23 0 42 5 58 16c15 11 25 26 28 46
c3 19 -1 35 -13 48c-13 12 -30 18 -51 18c-7 0 -17 -1 -29 -2l11 64h11h10c45 0 71 19 78 57c3 15 0 27 -8 36s-23 13 -45 13c-42 0 -67 -20 -76 -59h-70c8 37 25 66 52 87s61 32 104 32c39 0 70 -9 92 -26c21 -17 29 -42 24 -73z" />
    <glyph glyph-name="four.numr" horiz-adv-x="367" 
d="M376 459l-10 -58h-59l-17 -97h-70l17 97h-190l9 50l235 266h72l-46 -258h59zM134 459h113l29 165z" />
    <glyph glyph-name="five.numr" horiz-adv-x="371" 
d="M200 658l-41 -120v-1c10 13 24 24 42 33c18 8 36 12 53 12c43 0 75 -12 98 -35c22 -23 29 -58 22 -103c-7 -40 -26 -73 -57 -100s-71 -40 -121 -40c-40 0 -73 11 -99 32c-27 21 -37 50 -32 86h70c-1 -18 5 -32 18 -42c13 -11 31 -16 54 -16c27 0 48 7 65 22s27 35 32 60
c4 24 1 43 -10 58s-29 22 -54 22c-35 0 -63 -14 -84 -43l-67 13l70 222h230l-11 -60h-178z" />
    <glyph glyph-name="six.numr" horiz-adv-x="370" 
d="M259 660c-52 0 -88 -46 -109 -138c10 16 25 29 45 39c19 9 39 14 58 14c41 0 72 -13 93 -39c20 -26 27 -58 20 -97c-7 -35 -25 -67 -54 -94c-29 -28 -69 -42 -118 -42c-30 0 -54 6 -73 19c-19 12 -32 28 -38 47s-10 40 -11 63s1 44 6 65c11 64 33 117 65 160
c32 42 76 63 132 63c39 0 67 -10 84 -30c17 -21 25 -47 23 -79h-68c-1 9 -1 15 -1 19c-1 3 -3 8 -6 14s-9 10 -16 13c-8 2 -19 3 -32 3zM232 517c-24 0 -45 -7 -62 -22s-28 -35 -33 -60c-3 -21 1 -38 13 -51c12 -14 30 -21 54 -21c25 0 46 7 62 20s26 32 30 55
c4 24 1 43 -10 58c-11 14 -29 21 -54 21z" />
    <glyph glyph-name="seven.numr" horiz-adv-x="309" 
d="M96 714h291l-8 -48c-120 -99 -192 -219 -216 -359h-70c13 77 41 147 84 210c42 63 91 109 146 137h-237z" />
    <glyph glyph-name="eight.numr" horiz-adv-x="361" 
d="M377 613c-4 -21 -16 -39 -35 -55c-20 -16 -43 -27 -70 -33c28 -5 51 -16 69 -33c17 -18 24 -40 20 -66c-7 -38 -26 -68 -59 -90s-70 -33 -112 -33c-44 0 -78 11 -103 32s-34 52 -27 91c4 25 18 47 42 65s50 29 78 34c-24 6 -43 17 -56 33c-14 16 -19 34 -16 55
c5 31 21 56 48 76s62 30 105 30c45 0 77 -10 96 -29c19 -20 25 -46 20 -77zM309 610c3 17 -1 30 -11 39s-26 13 -47 13c-19 0 -35 -5 -50 -14s-24 -22 -27 -38c-3 -17 2 -31 14 -42c11 -11 27 -16 46 -16c20 0 37 5 51 16c13 10 21 24 24 42zM291 427c3 19 -1 34 -13 47
s-31 19 -56 19c-23 0 -44 -6 -61 -19s-28 -29 -31 -47c-3 -19 2 -34 15 -46s31 -18 55 -18s44 6 61 18s27 27 30 46z" />
    <glyph glyph-name="nine.numr" horiz-adv-x="370" 
d="M265 719c30 0 55 -6 74 -18c19 -13 31 -28 37 -47s10 -40 11 -63s-1 -45 -6 -66c-11 -63 -33 -116 -65 -158c-32 -43 -76 -64 -132 -64c-39 0 -67 10 -84 31c-17 20 -25 46 -23 78h68c1 -9 1 -15 2 -18c0 -4 2 -9 5 -15s9 -10 17 -12c7 -3 18 -4 31 -4c27 0 50 13 69 39
c18 25 31 58 40 99c-10 -15 -25 -26 -44 -35s-39 -14 -58 -14c-41 0 -72 12 -93 37s-28 56 -21 94c7 35 25 67 54 95c29 27 69 41 118 41zM226 510c26 0 48 7 65 21s27 33 31 56c4 22 0 40 -12 53s-31 19 -57 19c-50 0 -80 -25 -90 -75c-9 -49 12 -74 63 -74z" />
    <glyph glyph-name="zero.subs" horiz-adv-x="402" 
d="M193 212c57 0 96 -20 115 -59c19 -40 23 -89 13 -147s-32 -108 -65 -149c-34 -41 -80 -62 -137 -62c-30 0 -55 6 -75 19s-34 29 -42 49s-13 43 -15 68c-3 25 -1 50 4 75c10 58 32 107 66 147c33 39 79 59 136 59zM130 -145c63 0 104 51 122 152c17 98 -6 147 -69 147
c-64 0 -104 -49 -121 -147c-18 -101 5 -152 68 -152z" />
    <glyph glyph-name="one.subs" horiz-adv-x="256" 
d="M130 207h57l-72 -407h-70l53 299h-106l9 49c35 0 64 4 85 13s35 24 44 46z" />
    <glyph glyph-name="two.subs" horiz-adv-x="367" 
d="M186 -46c-13 -9 -30 -18 -52 -29c-23 -11 -42 -22 -58 -32c-16 -11 -28 -22 -37 -34h228l-11 -60h-301c3 21 10 40 20 58c9 17 18 31 27 42s22 22 41 35c18 13 30 21 37 25c7 3 20 11 41 22c41 23 70 42 85 56s25 32 29 55c3 16 -1 29 -12 40s-27 16 -46 16
c-20 0 -38 -7 -55 -20s-28 -31 -32 -52h-70c7 41 28 73 61 97c33 23 68 35 106 35c37 0 68 -10 92 -31c23 -21 32 -49 26 -85c-4 -21 -12 -40 -23 -57s-23 -30 -35 -39s-29 -21 -50 -35c-5 -3 -8 -6 -11 -7z" />
    <glyph glyph-name="three.subs" horiz-adv-x="366" 
d="M288 113c-9 -50 -43 -82 -102 -96v-1c29 -4 52 -15 67 -34s21 -42 16 -69c-7 -39 -25 -68 -56 -88s-68 -30 -111 -30c-45 0 -80 11 -103 32s-31 52 -23 93h70c-3 -23 2 -39 13 -49c11 -11 29 -16 54 -16c23 0 42 5 58 16c15 11 25 26 28 46c3 19 -1 35 -14 48
c-13 12 -30 18 -51 18c-7 0 -17 -1 -29 -2l12 65h11h10c45 0 71 19 78 57c3 15 0 27 -8 36c-9 9 -24 13 -46 13c-43 0 -68 -20 -75 -59h-70c8 37 25 66 52 87s61 32 104 32c39 0 70 -9 92 -26c21 -17 29 -42 23 -73z" />
    <glyph glyph-name="four.subs" horiz-adv-x="367" 
d="M287 -48l-10 -58h-59l-17 -97h-70l17 97h-190l9 50l234 266h72l-45 -258h59zM45 -48h113l29 165z" />
    <glyph glyph-name="five.subs" horiz-adv-x="371" 
d="M110 151l-41 -120c11 13 25 24 44 32c18 8 35 12 52 12c43 0 75 -12 98 -35c22 -23 29 -58 21 -104c-7 -40 -25 -73 -56 -100s-72 -40 -122 -40c-40 0 -73 11 -99 32c-27 21 -37 50 -32 86h70c-1 -18 6 -32 19 -42c13 -11 30 -16 53 -16c27 0 49 7 66 22s27 35 31 60
c5 24 2 44 -9 59s-29 22 -54 22c-35 0 -63 -14 -85 -43l-67 12l71 223h230l-11 -60h-179z" />
    <glyph glyph-name="six.subs" horiz-adv-x="370" 
d="M169 152c-27 0 -50 -13 -68 -38c-19 -26 -32 -60 -41 -101c11 16 26 29 45 39s39 15 58 15c41 0 72 -13 93 -39c20 -26 27 -58 20 -97c-6 -35 -24 -67 -53 -94c-30 -28 -70 -42 -119 -42c-99 0 -137 65 -116 194c11 64 33 117 66 160c32 42 76 63 132 63
c39 0 67 -10 84 -30c17 -21 25 -47 23 -79h-68c-1 9 -1 15 -2 19c-1 3 -2 8 -5 14s-9 10 -17 13c-8 2 -19 3 -32 3zM142 9c-24 0 -44 -7 -61 -22s-28 -35 -33 -60c-4 -21 0 -38 13 -51c12 -14 30 -21 54 -21c25 0 46 7 62 20c15 13 25 32 29 55c4 24 1 43 -10 58
c-11 14 -29 21 -54 21z" />
    <glyph glyph-name="seven.subs" horiz-adv-x="309" 
d="M7 207h291l-9 -48c-119 -100 -191 -220 -216 -359h-70c14 77 42 147 85 210c42 63 91 109 146 137h-238z" />
    <glyph glyph-name="eight.subs" horiz-adv-x="361" 
d="M287 106c-3 -20 -15 -38 -35 -54c-20 -17 -43 -28 -69 -34c28 -5 51 -17 69 -34c17 -18 24 -40 19 -66c-7 -38 -26 -68 -59 -90s-70 -33 -112 -33c-44 0 -78 11 -103 32s-34 52 -27 91c4 25 18 47 42 66c24 18 50 29 79 34c-24 6 -43 17 -56 33c-14 16 -20 34 -17 55
c5 31 22 56 49 76s62 30 105 30c45 0 76 -10 95 -29c19 -20 25 -46 20 -77zM220 103c3 17 -1 30 -11 39c-11 9 -26 13 -47 13c-19 0 -35 -5 -50 -14s-24 -22 -27 -38c-3 -17 1 -31 12 -42s27 -16 47 -16s37 5 51 16c13 10 22 24 25 42zM201 -81c3 19 -1 34 -13 47
s-30 19 -55 19c-23 0 -44 -6 -61 -19c-18 -13 -29 -29 -32 -47c-3 -19 2 -34 15 -46s32 -18 56 -18s44 6 61 18c16 12 26 27 29 46z" />
    <glyph glyph-name="nine.subs" horiz-adv-x="370" 
d="M176 212c99 0 137 -65 116 -194c-11 -64 -33 -117 -65 -159c-33 -43 -77 -64 -133 -64c-39 0 -67 10 -84 31c-17 20 -25 46 -23 78h68c1 -9 1 -15 2 -18c1 -4 3 -9 6 -15s8 -10 16 -12c8 -3 19 -4 32 -4c27 0 50 13 69 39c18 25 32 59 41 100c-11 -15 -25 -27 -44 -36
s-39 -14 -59 -14c-41 0 -72 13 -93 38s-28 56 -21 94c6 35 24 67 54 95c29 27 69 41 118 41zM137 3c26 0 47 7 64 21c17 13 27 32 32 56c3 22 -1 40 -13 53c-13 13 -32 19 -57 19c-51 0 -80 -25 -89 -75c-9 -49 12 -74 63 -74z" />
    <glyph glyph-name="zero.sups" horiz-adv-x="402" 
d="M296 800c39 0 70 -10 93 -31s36 -46 39 -76c3 -31 2 -64 -3 -99c-10 -58 -32 -107 -65 -148c-34 -41 -80 -62 -137 -62c-30 0 -55 6 -75 19s-34 29 -42 49s-13 42 -15 67c-3 25 -1 50 4 75c11 58 33 107 66 147c33 39 78 59 135 59zM234 444c64 0 104 50 121 151
c18 98 -5 147 -69 147c-63 0 -103 -49 -121 -147c-17 -101 6 -151 69 -151z" />
    <glyph glyph-name="one.sups" horiz-adv-x="256" 
d="M234 800h57l-71 -407h-70l52 299h-106l9 49c35 0 64 4 85 13s35 24 44 46z" />
    <glyph glyph-name="two.sups" horiz-adv-x="367" 
d="M291 546c-7 -5 -30 -18 -70 -39c-41 -21 -67 -40 -78 -56h228l-11 -60h-301c3 21 10 40 20 58c9 17 18 31 27 42s22 22 41 35c18 13 30 21 37 25c7 3 20 11 41 22c41 23 70 42 85 56s25 32 29 55c3 16 -1 29 -12 40s-27 16 -46 16c-20 0 -38 -7 -55 -20s-28 -31 -32 -52
h-70c7 41 28 73 61 97c33 23 69 35 106 35s68 -10 92 -31c23 -21 32 -49 26 -85c-1 -7 -3 -14 -5 -21c-3 -7 -5 -12 -6 -17c-2 -5 -5 -11 -10 -16c-5 -6 -8 -11 -10 -14c-2 -4 -6 -9 -12 -14c-7 -5 -11 -9 -13 -11c-2 -3 -7 -7 -15 -12c-8 -6 -13 -10 -14 -11
c-2 -1 -8 -5 -17 -11c-9 -7 -15 -10 -16 -11z" />
    <glyph glyph-name="three.sups" horiz-adv-x="366" 
d="M392 701c-9 -51 -43 -83 -102 -96v-1c29 -4 52 -15 67 -33c15 -19 21 -42 16 -69c-7 -39 -25 -68 -56 -88s-68 -30 -111 -30c-45 0 -80 11 -103 32s-31 52 -23 93h70c-3 -23 2 -39 13 -49c11 -11 29 -16 54 -16c23 0 42 5 57 16s25 26 29 46c3 19 -1 35 -14 48
c-13 12 -30 18 -51 18c-7 0 -17 -1 -29 -2l11 64h11h10c21 0 38 5 53 15c14 10 22 24 25 42c3 15 0 27 -8 36s-23 13 -45 13c-42 0 -67 -20 -76 -59h-70c8 37 25 66 52 87s61 32 104 32c39 0 70 -9 92 -26c21 -17 29 -42 24 -73z" />
    <glyph glyph-name="four.sups" horiz-adv-x="367" 
d="M391 542l-10 -58h-59l-17 -97h-70l17 97h-190l9 50l234 266h72l-45 -258h59zM149 542h113l29 165z" />
    <glyph glyph-name="five.sups" horiz-adv-x="371" 
d="M214 740l-41 -120v-1c11 13 25 24 43 33c18 8 36 12 53 12c43 0 75 -12 98 -35c22 -23 29 -58 21 -103c-7 -40 -25 -73 -56 -100s-72 -40 -122 -40c-40 0 -73 11 -99 32c-27 21 -37 50 -32 86h70c-1 -18 6 -32 19 -42c13 -11 30 -16 53 -16c27 0 49 7 66 22s27 35 32 60
c4 24 1 43 -10 58s-29 22 -54 22c-35 0 -64 -14 -85 -42l-67 12l70 222h230l-10 -60h-179z" />
    <glyph glyph-name="six.sups" horiz-adv-x="370" 
d="M290 801c39 0 68 -10 85 -31s24 -47 21 -78h-68c0 8 0 14 -1 19c-1 4 -2 9 -5 14s-9 9 -17 12s-19 4 -32 4c-27 0 -50 -13 -68 -38c-19 -26 -32 -60 -41 -101c11 16 26 29 45 39s39 15 58 15c41 0 72 -13 93 -39c20 -26 27 -58 20 -97c-6 -35 -24 -67 -53 -94
c-30 -28 -70 -42 -119 -42c-99 0 -137 65 -116 194c11 64 33 117 66 160c32 42 76 63 132 63zM246 598c-24 0 -45 -7 -62 -22s-28 -35 -33 -60c-3 -21 1 -38 14 -51c12 -14 30 -21 54 -21c25 0 46 7 62 20c15 13 25 32 29 55c4 24 1 43 -10 58c-11 14 -29 21 -54 21z" />
    <glyph glyph-name="seven.sups" horiz-adv-x="309" 
d="M111 800h291l-8 -48c-120 -101 -192 -220 -216 -359h-70c13 77 41 147 84 210c42 63 91 109 146 137h-237z" />
    <glyph glyph-name="eight.sups" horiz-adv-x="361" 
d="M391 694c-3 -20 -15 -38 -35 -54c-20 -17 -43 -28 -69 -34c28 -5 51 -16 68 -33c17 -18 24 -40 20 -66c-7 -38 -26 -68 -59 -90s-70 -33 -112 -33c-44 0 -78 11 -103 32s-34 52 -27 91c4 25 18 47 42 65s50 29 79 34c-24 6 -43 17 -56 33c-14 16 -20 34 -17 55
c5 31 21 56 48 76s62 30 105 30c45 0 77 -10 96 -29c19 -20 25 -46 20 -77zM323 691c3 17 -1 30 -11 39s-26 13 -47 13c-19 0 -35 -5 -50 -14s-24 -22 -27 -38c-3 -17 2 -31 14 -42c11 -11 27 -16 46 -16c20 0 37 5 51 16c13 10 21 24 24 42zM305 508c3 19 -1 34 -13 47
s-30 19 -55 19c-23 0 -44 -6 -61 -19c-18 -13 -29 -29 -32 -47c-3 -19 2 -34 15 -46s32 -18 56 -18s44 6 61 18c16 12 26 27 29 46z" />
    <glyph glyph-name="nine.sups" horiz-adv-x="370" 
d="M279 800c30 0 55 -6 74 -18c19 -13 31 -28 37 -47s10 -40 11 -63s-1 -45 -6 -66c-11 -63 -32 -116 -64 -158c-33 -43 -77 -64 -133 -64c-39 0 -67 10 -84 31c-17 20 -25 46 -23 78h68c1 -9 1 -15 2 -18c1 -4 3 -9 6 -15s8 -10 16 -12c8 -3 19 -4 32 -4c27 0 50 13 69 39
c18 25 31 58 40 99c-11 -15 -26 -26 -45 -35s-39 -14 -58 -14c-41 0 -72 12 -93 37s-27 56 -20 94c6 35 24 67 53 95c29 27 69 41 118 41zM241 591c26 0 47 7 64 21c17 13 27 32 31 56c4 22 0 40 -12 53s-31 19 -57 19c-51 0 -80 -25 -89 -75c-9 -49 12 -74 63 -74z" />
    <glyph glyph-name="zero.tf" 
d="M380 718c46 0 85 -10 116 -31s53 -49 66 -83c13 -35 21 -74 24 -118s0 -89 -10 -135c-8 -47 -20 -92 -36 -133s-36 -80 -61 -115s-55 -63 -92 -84s-77 -31 -122 -31c-37 0 -69 7 -96 22c-28 14 -50 33 -65 57c-15 23 -27 51 -34 84c-8 33 -12 67 -11 102s4 71 11 110
c9 47 21 91 37 132c16 40 36 77 61 112c24 35 54 62 91 82c37 19 77 29 121 29zM265 64c39 0 75 16 108 48c32 31 57 69 75 112s31 89 40 139c6 35 9 68 10 99c0 31 -3 61 -10 89s-19 50 -37 67c-19 16 -42 24 -71 24c-30 0 -58 -9 -84 -26s-48 -40 -65 -69
c-18 -29 -33 -59 -45 -92s-21 -68 -28 -104c-6 -35 -9 -69 -9 -101c-1 -32 2 -62 9 -91c6 -29 18 -52 37 -69c18 -17 41 -26 70 -26z" />
    <glyph glyph-name="one.tf" 
d="M329 78h181l-14 -78h-452l14 78h181l80 451h-170l12 68c55 0 98 8 131 23c32 15 57 47 75 94h74z" />
    <glyph glyph-name="two.tf" 
d="M386 261c-17 -11 -41 -25 -72 -42c-32 -18 -57 -32 -75 -43s-37 -26 -57 -44c-21 -18 -36 -37 -46 -56h383l-14 -76h-492c7 38 19 73 36 104s40 59 68 84c28 24 53 43 76 58c22 15 50 31 85 50c74 40 128 76 161 107s54 70 63 118c7 36 1 65 -18 88c-19 22 -49 33 -91 33
c-49 0 -88 -14 -118 -43c-31 -29 -50 -66 -59 -112h-89c11 73 41 130 89 171c48 40 109 60 182 60c69 0 122 -18 157 -55s46 -88 35 -155c-9 -55 -31 -101 -64 -136c-33 -36 -80 -73 -140 -111z" />
    <glyph glyph-name="three.tf" 
d="M560 520c-7 -38 -24 -69 -53 -94s-65 -42 -106 -51v-2c47 -8 83 -29 106 -63c23 -35 31 -74 23 -118c-12 -67 -41 -118 -87 -152c-46 -35 -105 -52 -177 -52c-74 0 -130 17 -168 50s-56 83 -53 150h90c-5 -39 5 -70 30 -91c24 -22 58 -33 101 -33c47 0 86 13 118 38
c31 25 51 59 59 104c7 42 0 73 -22 94s-56 31 -102 31c-19 0 -36 0 -51 -1l7 80c9 -1 21 -1 34 -1c39 0 75 11 107 33c31 22 50 51 56 87s0 64 -17 84c-18 19 -46 29 -85 29c-85 0 -133 -38 -145 -115l-2 -13h-88c7 62 32 112 73 149s96 55 164 55c67 0 118 -17 153 -50
c35 -34 46 -83 35 -148z" />
    <glyph glyph-name="four.tf" 
d="M548 714l-81 -458h80l-14 -75h-79l-32 -181h-90l32 181h-330l13 73l419 460h82zM142 256h236l55 311h-7z" />
    <glyph glyph-name="five.tf" 
d="M559 638h-292l-77 -241c17 23 39 42 68 57s59 23 90 23c71 0 126 -23 164 -68c37 -46 49 -107 36 -183c-12 -67 -44 -123 -97 -169s-115 -69 -188 -69c-66 0 -119 18 -160 53s-58 82 -52 142h86c0 -37 11 -66 34 -87c22 -21 53 -32 92 -32c45 0 87 16 126 47
c38 31 62 73 71 127c9 47 1 86 -24 116s-60 45 -105 45c-62 0 -112 -27 -151 -81l-93 13l123 383h362z" />
    <glyph glyph-name="six.tf" 
d="M361 477c69 0 122 -24 159 -73s49 -108 36 -179c-12 -68 -46 -124 -101 -169s-118 -68 -187 -68c-173 0 -239 120 -197 360c9 48 21 93 37 136c16 42 37 81 62 118c25 36 55 65 92 86s77 32 122 32c69 0 119 -16 151 -48c32 -33 49 -76 52 -129h-87c-3 17 -6 29 -8 37
c-3 8 -8 18 -15 30s-18 21 -32 26c-15 5 -33 8 -54 8c-31 0 -60 -8 -85 -24c-26 -16 -48 -38 -66 -65c-18 -28 -33 -57 -44 -86c-12 -30 -22 -63 -31 -98l-3 -12c19 33 46 61 81 84s75 34 118 34zM468 237c8 45 0 83 -24 115c-25 31 -59 47 -104 47c-47 0 -88 -16 -124 -48
c-37 -32 -59 -73 -68 -122c-1 -1 -1 -2 -1 -4c-7 -45 0 -83 23 -114c22 -31 55 -47 98 -47c47 0 90 17 129 51s62 75 71 122z" />
    <glyph glyph-name="seven.tf" 
d="M162 714h459l-14 -84c-84 -71 -162 -166 -235 -285c-73 -120 -123 -235 -149 -345h-90c32 131 87 258 166 380c78 122 159 208 244 258h-394z" />
    <glyph glyph-name="eight.tf" 
d="M580 536c-7 -39 -24 -73 -53 -102s-63 -48 -101 -57c39 -11 70 -33 95 -67c25 -35 33 -75 24 -122c-11 -62 -43 -111 -95 -146c-52 -36 -113 -54 -184 -54c-77 0 -136 19 -178 57c-43 38 -58 90 -46 155c9 45 31 84 68 117c36 32 75 53 117 62c-34 10 -60 31 -78 62
s-24 66 -17 107c9 52 36 94 83 125s102 47 166 47c67 0 120 -17 158 -50c37 -34 51 -79 41 -134zM488 529c4 32 -3 59 -22 82c-19 22 -47 33 -85 33c-43 0 -79 -11 -110 -34s-48 -52 -53 -86c-4 -31 4 -58 23 -81s47 -35 85 -35c42 0 78 12 109 36c31 23 48 52 53 85z
M458 209c7 38 -1 69 -23 94c-23 24 -59 36 -108 36c-53 0 -97 -13 -132 -40s-57 -62 -64 -103c-7 -39 2 -70 25 -95s59 -37 109 -37c52 0 95 14 130 41c34 27 55 62 63 104z" />
    <glyph glyph-name="nine.tf" 
d="M557 638c38 -48 45 -141 20 -278c-19 -109 -55 -199 -107 -268s-119 -104 -200 -104c-67 0 -119 17 -156 50c-38 33 -57 76 -58 127h87c9 -67 49 -101 121 -101c56 0 101 24 135 71s62 114 83 202v2c-14 -28 -38 -53 -72 -75s-72 -33 -113 -33c-72 0 -127 24 -166 72
s-52 108 -39 180c12 68 46 125 101 170s118 67 187 67c75 0 134 -27 177 -82zM307 309c47 0 89 17 128 51c39 33 63 72 72 115c0 1 0 3 1 5v3c8 46 0 84 -25 115s-59 46 -103 46c-47 0 -90 -17 -129 -51s-62 -75 -71 -122c-8 -45 0 -83 24 -114c24 -32 58 -48 103 -48z" />
    <glyph glyph-name="hyphen.case" horiz-adv-x="451" 
d="M80 374h331l-14 -80h-331z" />
    <glyph glyph-name="endash.case" horiz-adv-x="600" 
d="M70 370h500l-14 -80h-500z" />
    <glyph glyph-name="emdash.case" horiz-adv-x="812" 
d="M56 370h740l-14 -80h-740z" />
    <glyph glyph-name="parenleft.case" horiz-adv-x="293" 
d="M131 -28c-38 75 -62 140 -72 195c-11 55 -10 119 3 193c23 131 91 258 205 381h87c-106 -123 -171 -250 -194 -381c-6 -33 -9 -64 -9 -93c-1 -29 2 -60 8 -91c5 -32 13 -63 22 -93s21 -67 37 -111h-87z" />
    <glyph glyph-name="bracketleft.case" horiz-adv-x="287" 
d="M230 60l-13 -72h-187l131 743h187l-12 -72h-103l-106 -599h103z" />
    <glyph glyph-name="braceleft.case" horiz-adv-x="345" 
d="M395 687h-50c-32 0 -53 -27 -63 -82l-20 -113c-5 -28 -15 -53 -30 -74c-16 -21 -31 -36 -44 -44c-14 -9 -26 -14 -36 -16l-1 -3c7 -1 14 -3 22 -8c7 -5 16 -12 25 -22c9 -11 14 -24 17 -41s2 -38 -1 -63l-20 -113c-9 -55 2 -82 34 -82h50l-11 -65h-74
c-27 0 -50 12 -68 36c-19 24 -24 56 -17 96l20 112c6 35 3 64 -10 85s-30 32 -53 32l12 68c22 0 43 11 64 34c21 22 34 50 40 84l20 112c7 40 24 72 51 96c26 23 53 35 80 35h74z" />
    <glyph glyph-name="parenleft.case.ss05" horiz-adv-x="224" 
d="M58 360c23 127 90 251 201 371h26c-111 -119 -178 -242 -201 -371s1 -252 70 -371h-26c-69 121 -93 245 -70 371z" />
    <glyph glyph-name="bracketleft.case.ss05" horiz-adv-x="287" 
d="M223 20l-4 -22h-157l128 723h157l-4 -22h-133l-120 -679h133z" />
    <glyph glyph-name="parenleft.ss05" horiz-adv-x="269" 
d="M61 266c28 158 112 313 253 465h26c-72 -77 -129 -155 -171 -235c-42 -81 -69 -157 -82 -230c-28 -163 2 -318 89 -466h-26c-87 152 -117 307 -89 466z" />
    <glyph glyph-name="parenright.case" horiz-adv-x="293" 
d="M60 -28h-87c63 87 108 158 137 212c28 53 48 112 59 176c23 129 3 256 -60 381h87c38 -66 63 -131 74 -194s10 -126 -3 -187c-13 -71 -34 -135 -64 -191c-31 -57 -78 -122 -143 -197z" />
    <glyph glyph-name="bracketright.case" horiz-adv-x="287" 
d="M-13 60h103l106 599h-103l12 72h187l-131 -743h-187z" />
    <glyph glyph-name="braceright.case" horiz-adv-x="345" 
d="M102 687l11 64h74c27 0 50 -12 69 -35c18 -24 23 -56 16 -96l-20 -112c-6 -34 -3 -62 10 -84c13 -23 30 -34 52 -34l-12 -68c-23 0 -44 -11 -64 -32s-33 -50 -39 -85l-20 -112c-7 -40 -24 -72 -50 -96c-27 -24 -54 -36 -81 -36h-74l11 65h50c32 0 53 27 62 82l20 113
c8 44 24 77 48 98c23 21 44 33 63 36l1 3c-18 4 -35 17 -50 40c-16 22 -21 53 -14 94l20 113c10 55 -1 82 -33 82h-50z" />
    <glyph glyph-name="parenright.case.ss05" horiz-adv-x="224" 
d="M202 360c-23 -128 -90 -252 -202 -371h-26c112 119 179 243 202 371c23 127 -1 251 -71 371h26c70 -121 94 -245 71 -371z" />
    <glyph glyph-name="bracketright.case.ss05" horiz-adv-x="289" 
d="M-20 20h133l120 679h-133l4 22h157l-128 -723h-157z" />
    <glyph glyph-name="parenright.ss05" horiz-adv-x="269" 
d="M210 266c-28 -159 -112 -314 -253 -466h-26c73 77 130 156 172 237c41 80 68 156 81 229c29 161 -1 316 -89 465h26c87 -152 117 -307 89 -465z" />
    <glyph glyph-name="guillemotleft.case" horiz-adv-x="414" 
d="M25 346l165 214h80l-150 -214l75 -214h-80zM200 346l165 214h80l-150 -214l75 -214h-80z" />
    <glyph glyph-name="guilsinglleft.case" horiz-adv-x="262" 
d="M60 290l16 96l184 144l-18 -104l-108 -88l77 -88l-19 -104z" />
    <glyph glyph-name="guillemotright.case" horiz-adv-x="414" 
d="M244 346l-164 -214h-80l149 214l-74 214h80zM419 346l-164 -214h-80l149 214l-74 214h80z" />
    <glyph glyph-name="guilsinglright.case" horiz-adv-x="262" 
d="M214 290l-184 -144l19 104l107 88l-76 88l18 104l132 -144z" />
    <glyph glyph-name="bullet.5" horiz-adv-x="637" 
d="M319 9c72 0 133 25 183 76s75 112 75 185c0 72 -25 133 -75 182s-111 74 -183 74s-133 -25 -183 -74c-51 -49 -76 -110 -76 -182c0 -73 25 -134 76 -185c50 -51 111 -76 183 -76zM319 469c56 0 104 -19 143 -58s58 -86 58 -141c0 -57 -19 -105 -58 -144
c-39 -40 -87 -60 -143 -60s-104 20 -143 60c-39 39 -59 87 -59 144c0 55 20 102 59 141s87 58 143 58z" />
    <glyph glyph-name="bullet.5.case" horiz-adv-x="637" 
d="M319 72c72 0 133 25 183 76s75 112 75 185c0 72 -25 133 -75 182s-111 74 -183 74s-133 -25 -183 -74c-51 -49 -76 -110 -76 -182c0 -73 25 -134 76 -185c50 -51 111 -76 183 -76zM319 532c56 0 104 -19 143 -58s58 -86 58 -141c0 -57 -19 -105 -58 -144
c-39 -40 -87 -60 -143 -60s-104 20 -143 60c-39 39 -59 87 -59 144c0 55 20 102 59 141s87 58 143 58z" />
    <glyph glyph-name="bullet.6" horiz-adv-x="493" 
d="M247 76c51 0 95 18 132 55c36 37 54 81 54 133s-18 96 -54 132c-36 35 -80 53 -132 53s-96 -18 -132 -53c-37 -36 -55 -80 -55 -132s18 -96 55 -133c36 -37 80 -55 132 -55zM247 398c37 0 69 -13 96 -39c26 -27 39 -58 39 -95c0 -38 -13 -70 -39 -97
c-27 -27 -59 -40 -96 -40c-38 0 -70 13 -96 40c-27 27 -40 59 -40 97c0 37 13 69 40 95c26 26 58 39 96 39z" />
    <glyph glyph-name="bullet.6.case" horiz-adv-x="493" 
d="M247 144c51 0 95 18 132 55c36 37 54 81 54 133s-18 96 -54 132c-36 35 -80 53 -132 53s-96 -18 -132 -53c-37 -36 -55 -80 -55 -132s18 -96 55 -133c36 -37 80 -55 132 -55zM247 466c37 0 69 -13 96 -39c26 -27 39 -58 39 -95c0 -38 -13 -70 -39 -97
c-27 -27 -59 -40 -96 -40c-38 0 -70 13 -96 40c-27 27 -40 59 -40 97c0 37 13 69 40 95c26 26 58 39 96 39z" />
    <glyph glyph-name="slash.case" horiz-adv-x="351" 
d="M332 744h93l-359 -774h-93z" />
    <glyph glyph-name="exclam.ss03" horiz-adv-x="248" 
d="M208 464l-71 -274h-49l25 274l44 250h95zM79 -4c-17 0 -30 6 -40 18c-11 12 -15 26 -12 43s12 31 26 43s30 18 47 18c16 0 29 -6 39 -18c9 -12 13 -26 10 -43s-11 -31 -25 -43s-29 -18 -45 -18z" />
    <glyph glyph-name="period.ss03" horiz-adv-x="250" 
d="M80 -4c-17 0 -31 6 -41 18c-11 12 -14 27 -11 44s11 32 26 45c15 12 31 18 48 18s30 -6 40 -18c9 -13 13 -28 10 -45s-11 -31 -25 -43c-15 -13 -30 -19 -47 -19z" />
    <glyph glyph-name="colon.ss03" horiz-adv-x="264" 
d="M150 355c-17 0 -31 6 -41 18c-11 12 -14 27 -11 44s11 32 26 45c15 12 31 18 48 18s30 -6 40 -18c9 -13 13 -28 10 -45s-11 -31 -25 -43c-15 -13 -30 -19 -47 -19zM87 -4c-17 0 -31 6 -41 18c-11 12 -14 27 -11 44s11 32 26 45c15 12 31 18 48 18s30 -6 40 -18
c9 -13 13 -28 10 -45s-11 -31 -25 -43c-15 -13 -30 -19 -47 -19z" />
    <glyph glyph-name="semicolon.ss03" horiz-adv-x="264" 
d="M150 355c-17 0 -31 6 -41 18c-11 12 -14 27 -11 44s11 32 26 45c15 12 31 18 48 18s30 -6 40 -18c9 -13 13 -28 10 -45s-11 -31 -25 -43c-15 -13 -30 -19 -47 -19zM63 121h110l-122 -234h-80z" />
    <glyph glyph-name="question.ss03" horiz-adv-x="533" 
d="M84 484l5 28c11 65 41 118 89 159c47 40 103 60 167 60c63 0 111 -19 144 -56c32 -37 43 -85 32 -144c-5 -26 -14 -50 -28 -73c-15 -23 -27 -40 -38 -51s-27 -26 -50 -47c-24 -21 -41 -35 -51 -44s-22 -24 -35 -43c-13 -20 -22 -40 -25 -60l-4 -23h-90l5 31
c5 30 16 57 32 82s34 46 54 63s40 33 59 48s37 33 52 53s25 41 29 64c7 37 1 67 -16 90c-18 23 -46 34 -83 34c-38 0 -71 -13 -99 -39c-29 -26 -47 -61 -54 -104l-5 -28h-90zM216 -4c-17 0 -30 6 -40 18c-11 12 -15 26 -12 43s12 31 26 43s30 18 47 18c16 0 29 -6 39 -18
c9 -12 13 -26 10 -43s-11 -31 -25 -43s-29 -18 -45 -18z" />
    <glyph glyph-name="slash.zero" horiz-adv-x="588" 
d="M463 642l63 -33l-370 -565l-63 32z" />
    <glyph glyph-name="plus.case" horiz-adv-x="636" 
d="M358 396h212v-76h-212v-215h-80v215h-212v76h212v215h80v-215z" />
    <glyph glyph-name="equal.case" 
d="M558 395h-504v74h504v-74zM54 265h504v-74h-504v74z" />
    <glyph glyph-name="plus.case.ss05" horiz-adv-x="636" 
d="M334 372h236v-28h-236v-239h-32v239h-236v28h236v239h32v-239z" />
    <glyph glyph-name="plus.ss05" 
d="M322 287h236v-28h-236v-239h-32v239h-236v28h236v239h32v-239z" />
    </font>
</defs>
</svg>
