<?xml version="1.0" standalone="no"?>
<!DOCTYPE svg PUBLIC "-//W3C//DTD SVG 1.1//EN" "http://www.w3.org/Graphics/SVG/1.1/DTD/svg11.dtd" >
<svg xmlns="http://www.w3.org/2000/svg" xmlns:xlink="http://www.w3.org/1999/xlink" version="1.1">
<metadata>
Created by FontForge 20190801 at Wed Oct 25 22:36:21 2017
 By Jimmy Wärting
Copyright \(c\) 2017 Swiss Typefaces Sarl. All rights reserved.
</metadata>
<defs>
<font id="SangBleuKingdom-Italic" horiz-adv-x="0" >
  <font-face 
    font-family="SangBleu Kingdom"
    font-weight="400"
    font-style="italic"
    font-stretch="normal"
    units-per-em="1000"
    panose-1="2 4 5 4 8 0 0 0 0 4"
    ascent="800"
    descent="-200"
    x-height="502"
    cap-height="758"
    bbox="-457 -403 1478 1059"
    underline-thickness="47"
    underline-position="-130"
    slope="-17"
    stemh="23"
    stemv="69"
    unicode-range="U+0020-FEFF"
  />
<missing-glyph horiz-adv-x="640" 
d="M70 0v758h500v-758h-500zM103 739l217 -343l217 343h-434zM89 728v-698l221 349zM331 379l220 -349v698zM103 19h434l-217 343z" />
    <glyph glyph-name="f_f006" unicode="ff" horiz-adv-x="664" 
d="M383 65l84 386h-227l-49 -222c-100 -448 -240 -486 -313 -486c-35 0 -56 20 -56 47s19 45 44 46c31 -19 62 -34 91 -34c37 0 58 35 98 214l95 435h-78l8 23c73 5 86 -1 147 121c59 123 147 162 208 162c47 0 62 -24 62 -51c0 -21 -13 -43 -36 -54c-35 17 -64 24 -91 24
c-77 0 -124 -61 -124 -121c0 -29 6 -53 41 -53h154c55 0 74 53 103 115c59 123 147 162 208 162c47 0 62 -24 62 -51c0 -21 -13 -43 -36 -54c-35 17 -64 24 -91 24c-77 0 -124 -60 -124 -136c0 -28 6 -60 41 -60h145l-31 -51h-161l-38 -173c-100 -450 -239 -486 -313 -486
c-35 0 -56 20 -56 47s19 45 44 46c31 -19 62 -34 91 -34c37 0 58 35 98 214z" />
    <glyph glyph-name="fi007" unicode="fi" horiz-adv-x="601" 
d="M534 722c0 33 30 63 63 63c35 0 65 -30 65 -63c0 -35 -30 -65 -65 -65c-33 0 -63 30 -63 65zM-122 -257c-35 0 -56 20 -56 47s19 45 44 46c31 -19 62 -34 91 -34c37 0 58 35 98 214l95 435h-78l8 23c73 5 86 21 147 143c59 123 147 162 208 162c47 0 62 -24 62 -51
c0 -21 -13 -43 -36 -54c-35 17 -64 24 -91 24c-77 0 -124 -60 -124 -136c0 -28 6 -60 41 -60h288l-158 -411c-20 -51 -17 -65 3 -65c31 0 95 38 148 138l21 -9c-56 -107 -129 -167 -221 -167c-65 0 -71 35 -47 99l140 364h-221l-49 -222c-100 -448 -240 -486 -313 -486z" />
    <glyph glyph-name="f_f_i008" unicode="ffi" horiz-adv-x="918" 
d="M852 722c0 33 30 63 63 63c35 0 64 -30 64 -63c0 -35 -29 -65 -64 -65c-33 0 -63 30 -63 65zM-122 -257c-35 0 -56 20 -56 47s19 45 44 46c31 -19 62 -34 91 -34c37 0 58 35 98 214l95 435h-78l8 23c73 5 86 -1 147 121c59 123 147 162 208 162c47 0 62 -24 62 -51
c0 -21 -13 -43 -36 -54c-35 17 -64 24 -91 24c-77 0 -124 -61 -124 -121c0 -29 6 -53 41 -53h154c55 0 74 53 103 115c59 123 147 162 208 162c47 0 62 -24 62 -51c0 -21 -13 -43 -36 -54c-35 17 -64 24 -91 24c-77 0 -124 -60 -124 -136c0 -28 6 -60 41 -60h289l-159 -411
c-20 -51 -17 -65 4 -65c31 0 95 38 148 138l20 -9c-56 -107 -129 -167 -221 -167c-64 0 -70 35 -46 99l140 364h-222l-38 -173c-100 -450 -239 -486 -313 -486c-35 0 -56 20 -56 47s19 45 44 46c31 -19 62 -34 91 -34c37 0 58 35 98 214l84 386h-227l-49 -222
c-100 -448 -240 -486 -313 -486z" />
    <glyph glyph-name="fl009" unicode="fl" horiz-adv-x="617" 
d="M-122 -257c-35 0 -56 20 -56 47s19 45 44 46c31 -19 62 -34 91 -34c37 0 58 35 98 214l95 435h-78l8 23c73 5 86 21 147 143c59 123 147 162 208 162c37 0 53 -15 60 -34l182 40l-238 -694c-19 -52 -17 -65 3 -65c31 0 95 38 148 138l21 -9c-56 -107 -129 -167 -221 -167
c-65 0 -68 35 -47 99l209 609l-55 27c-3 -20 -15 -40 -36 -49c-35 17 -64 24 -91 24c-77 0 -124 -60 -124 -136c0 -28 6 -60 41 -60h145l-31 -51h-161l-49 -222c-100 -448 -240 -486 -313 -486z" />
    <glyph glyph-name="f_f_l010" unicode="ffl" horiz-adv-x="934" 
d="M-122 -257c-35 0 -56 20 -56 47s19 45 44 46c31 -19 62 -34 91 -34c37 0 58 35 98 214l95 435h-78l8 23c73 5 86 -1 147 121c59 123 147 162 208 162c47 0 62 -24 62 -51c0 -21 -13 -43 -36 -54c-35 17 -64 24 -91 24c-77 0 -124 -61 -124 -121c0 -29 6 -53 41 -53h154
c55 0 74 53 103 115c59 123 147 162 208 162c37 0 53 -15 60 -34l182 40l-238 -694c-19 -52 -17 -65 3 -65c31 0 95 38 148 138l21 -9c-56 -107 -129 -167 -221 -167c-65 0 -68 35 -47 99l209 609l-55 27c-3 -20 -15 -40 -36 -49c-35 17 -64 24 -91 24
c-77 0 -124 -60 -124 -136c0 -28 6 -60 41 -60h145l-31 -51h-161l-38 -173c-100 -450 -239 -486 -313 -486c-35 0 -56 20 -56 47s19 45 44 46c31 -19 62 -34 91 -34c37 0 58 35 98 214l84 386h-227l-49 -222c-100 -448 -240 -486 -313 -486z" />
    <glyph glyph-name=".notdef" horiz-adv-x="640" 
d="M70 0v758h500v-758h-500zM103 739l217 -343l217 343h-434zM89 728v-698l221 349zM331 379l220 -349v698zM103 19h434l-217 343z" />
    <glyph glyph-name="_001" 
 />
    <glyph glyph-name="_002" horiz-adv-x="240" 
 />
    <glyph glyph-name="space" unicode=" " horiz-adv-x="240" 
 />
    <glyph glyph-name="exclam" unicode="!" horiz-adv-x="295" 
d="M145 218h-24c80 281 60 347 120 535c8 30 123 28 113 -6c-56 -184 -113 -248 -209 -529zM91 -12c-36 0 -65 30 -65 67c0 36 29 66 65 66c39 0 67 -30 67 -66c0 -37 -28 -67 -67 -67z" />
    <glyph glyph-name="quotedbl" unicode="&#x22;" horiz-adv-x="417" 
d="M151 479l57 260c7 27 17 36 56 36s46 -12 29 -49l-114 -247h-28zM361 479l57 260c7 27 17 36 56 36s46 -12 29 -49l-114 -247h-28z" />
    <glyph glyph-name="numbersign" unicode="#" horiz-adv-x="805" 
d="M123 0l83 205h-182l20 48h182l103 254h-182l19 48h182l90 221h52l-90 -221h229l90 221h51l-90 -221h182l-19 -48h-182l-103 -254h181l-19 -48h-182l-83 -205h-51l83 205h-229l-83 -205h-52zM278 253h229l103 254h-229z" />
    <glyph glyph-name="dollar" unicode="$" horiz-adv-x="572" 
d="M474 886h33l-35 -111c100 -3 169 -52 169 -116c0 -43 -37 -75 -97 -66c15 88 -10 145 -81 152l-96 -310l16 -15c75 -67 124 -118 124 -201c0 -120 -111 -222 -279 -230l-34 -109h-33l34 108c-107 3 -194 62 -194 133c0 43 36 75 99 64c-17 -100 20 -158 104 -167l104 334
l-39 34c-61 55 -91 107 -91 175c0 118 121 202 261 213zM337 461l4 -3l89 287c-96 -8 -172 -65 -172 -146c0 -48 28 -93 79 -138zM422 182c0 60 -40 103 -88 147l-97 -312c104 3 185 65 185 165z" />
    <glyph glyph-name="percent" unicode="%" horiz-adv-x="969" 
d="M68 0l836 758h69l-835 -758h-70zM242 332c-84 0 -124 65 -124 141c0 133 117 297 234 297c84 0 124 -65 124 -140c0 -134 -117 -298 -234 -298zM243 353c87 0 164 208 164 312c0 53 -17 84 -57 84c-88 0 -163 -208 -163 -311c0 -52 16 -85 56 -85zM698 -9
c-84 0 -124 65 -124 141c0 133 117 297 234 297c84 0 124 -65 124 -140c0 -134 -117 -298 -234 -298zM699 12c87 0 164 208 164 312c0 53 -17 84 -57 84c-88 0 -163 -208 -163 -311c0 -52 16 -85 56 -85z" />
    <glyph glyph-name="ampersand" unicode="&#x26;" horiz-adv-x="1056" 
d="M572 261c-52 0 -88 32 -88 84c0 83 74 179 167 179c31 0 74 -11 122 -43l104 -70c47 -31 84 -59 127 -59c35 0 54 27 62 47c8 19 7 37 -114 61c-13 56 25 91 63 91c52 0 88 -32 88 -84c0 -83 -74 -179 -167 -179c-31 0 -75 13 -126 48l-20 13
c-74 -148 -196 -361 -425 -361c-198 0 -287 158 -287 306c0 208 126 330 206 330c71 0 97 -73 81 -142l31 23c112 83 132 161 140 281c15 12 35 20 54 20c27 0 42 -14 42 -34c0 -55 -93 -187 -176 -248l-302 -225c32 -128 135 -208 264 -208c145 0 271 95 355 270l-63 43
c-47 32 -84 56 -127 56c-35 0 -54 -27 -62 -47c-7 -20 -8 -37 114 -61c11 -56 -23 -91 -63 -91zM145 380c0 -20 2 -39 5 -58l65 49l-1 -1c82 64 85 210 27 210c-68 0 -96 -123 -96 -200z" />
    <glyph glyph-name="quotesingle" unicode="'" horiz-adv-x="207" 
d="M151 479l57 260c7 27 17 36 56 36s46 -12 29 -49l-114 -247h-28z" />
    <glyph glyph-name="parenleft" unicode="(" horiz-adv-x="327" 
d="M159 -226l-18 -13c-64 83 -115 204 -115 341c0 253 161 522 457 719l14 -18c-253 -192 -396 -516 -396 -752c0 -109 15 -197 58 -277z" />
    <glyph glyph-name="parenright" unicode=")" horiz-adv-x="327" 
d="M194 808l18 13c64 -83 115 -204 115 -341c0 -253 -161 -522 -457 -719l-14 18c253 192 396 516 396 752c0 109 -15 197 -58 277z" />
    <glyph glyph-name="asterisk" unicode="*" horiz-adv-x="475" 
d="M184 485l-12 16l123 105l-115 112l12 16l138 -85l70 144l19 -6l-38 -157l159 -24v-20l-161 -12l27 -158l-19 -6l-61 150z" />
    <glyph glyph-name="plus" unicode="+" horiz-adv-x="653" 
d="M305 0v237h-239v49h239v230h52v-230h238v-49h-238v-237h-52z" />
    <glyph glyph-name="comma" unicode="," horiz-adv-x="266" 
d="M-61 -193l-11 23c88 55 137 117 137 164c0 29 -18 48 -55 57c8 47 41 67 76 67c37 0 67 -25 67 -69c0 -60 -64 -162 -214 -242z" />
    <glyph glyph-name="hyphen" unicode="-" horiz-adv-x="437" 
d="M66 235l18 53h294l-18 -53h-294z" />
    <glyph glyph-name="period" unicode="." horiz-adv-x="252" 
d="M75 -12c-36 0 -65 30 -65 67c0 36 29 66 65 66c39 0 67 -30 67 -66c0 -37 -28 -67 -67 -67z" />
    <glyph glyph-name="slash" unicode="/" horiz-adv-x="548" 
d="M-54 -52l660 846h71l-661 -846h-70z" />
    <glyph glyph-name="zero" unicode="0" horiz-adv-x="675" 
d="M277 -12c-145 0 -208 110 -208 249c0 232 191 538 410 538c144 0 209 -111 209 -249c0 -233 -193 -538 -411 -538zM284 18c183 0 311 368 311 558c0 104 -39 169 -123 169c-183 0 -311 -368 -311 -558c0 -104 39 -169 123 -169z" />
    <glyph glyph-name="one" unicode="1" horiz-adv-x="375" 
d="M93 60l221 639l-170 -62l9 30l279 102l-245 -709c-9 -25 0 -33 28 -36l32 -2l-7 -22h-258l7 22l52 3c31 3 43 10 52 35z" />
    <glyph glyph-name="two" unicode="2" horiz-adv-x="600" 
d="M-68 0l1 5c431 303 601 459 601 593c0 72 -41 124 -125 124c-87 0 -173 -55 -200 -183h-24c21 144 119 236 260 236c127 0 187 -63 187 -158c0 -129 -109 -230 -384 -414l-181 -120h294c56 0 74 4 102 40l59 75h24l-122 -198h-492z" />
    <glyph glyph-name="three" unicode="3" horiz-adv-x="569" 
d="M521 280c0 -148 -146 -292 -325 -292c-137 0 -201 80 -201 140c0 43 37 70 92 59c5 -95 39 -169 139 -169c113 0 205 86 205 218c0 115 -73 177 -148 177c-15 0 -29 -1 -42 -4l-3 26l44 9c131 27 226 82 226 174c0 64 -46 104 -125 104c-71 0 -155 -36 -181 -147h-24
c23 131 117 200 242 200c115 0 181 -57 181 -133c0 -83 -85 -151 -202 -175v-3c75 -31 122 -99 122 -184z" />
    <glyph glyph-name="four" unicode="4" horiz-adv-x="675" 
d="M328 0l70 202h-407l610 558h83l-169 -489h146l-24 -69h-145l-70 -202h-94zM110 271h311l142 411z" />
    <glyph glyph-name="five" unicode="5" horiz-adv-x="555" 
d="M190 -12c-137 0 -201 80 -201 140c0 43 37 70 92 59c5 -95 45 -162 145 -162c102 0 198 59 198 175c0 103 -90 192 -269 256l170 302h332l-50 -88h-300l-75 -135c183 -67 265 -168 265 -281c0 -164 -150 -266 -307 -266z" />
    <glyph glyph-name="six" unicode="6" horiz-adv-x="626" 
d="M272 -12c-136 0 -223 95 -223 240c0 215 262 497 695 577l4 -23c-258 -50 -459 -211 -547 -387c52 43 118 63 178 63c111 0 192 -70 192 -189c0 -166 -156 -281 -299 -281zM151 203c0 -109 39 -186 130 -186c114 0 188 110 188 234c0 107 -67 162 -148 162
c-44 0 -88 -13 -131 -41c-26 -57 -39 -114 -39 -169z" />
    <glyph glyph-name="seven" unicode="7" horiz-adv-x="608" 
d="M258 758h504l-423 -429c-133 -136 -187 -216 -239 -289c-26 -36 -37 -42 -61 -45l-46 -6c-24 -3 -32 11 -4 42c202 210 384 386 653 639h-323c-60 0 -75 -6 -110 -49l-52 -65h-24z" />
    <glyph glyph-name="eight" unicode="8" horiz-adv-x="600" 
d="M256 -12c-136 0 -228 77 -228 191c0 110 100 196 257 225c-48 53 -78 108 -78 177c0 108 95 193 232 193c119 0 199 -64 199 -157c0 -101 -113 -168 -225 -195l10 -10c59 -59 108 -121 108 -200c0 -120 -119 -224 -275 -224zM99 188c0 -112 73 -167 169 -167
c107 0 183 58 183 143c0 59 -48 122 -101 175l-52 52c-128 -29 -199 -111 -199 -203zM375 461l25 -25c101 27 174 92 174 175c0 81 -52 131 -143 131c-89 0 -149 -45 -149 -117c0 -61 38 -108 93 -164z" />
    <glyph glyph-name="nine" unicode="9" horiz-adv-x="614" 
d="M13 -43l-4 24c264 56 423 223 493 392c-55 -44 -123 -68 -192 -68c-111 0 -192 77 -192 196c0 157 146 274 293 274c136 0 228 -94 228 -252c0 -191 -191 -477 -626 -566zM220 518c0 -108 65 -168 148 -168c49 0 98 14 142 45c19 53 28 106 28 154
c0 129 -45 197 -133 197c-111 0 -185 -101 -185 -228z" />
    <glyph glyph-name="colon" unicode=":" horiz-adv-x="295" 
d="M79 -12c-36 0 -65 30 -65 67c0 36 29 66 65 66c39 0 67 -30 67 -66c0 -37 -28 -67 -67 -67zM217 385c-36 0 -65 30 -65 67c0 36 29 66 65 66c39 0 67 -30 67 -66c0 -37 -28 -67 -67 -67z" />
    <glyph glyph-name="semicolon" unicode=";" horiz-adv-x="307" 
d="M-53 -193l-11 23c88 55 137 117 137 164c0 29 -18 48 -55 57c8 47 41 67 76 67c37 0 67 -25 67 -69c0 -60 -64 -162 -214 -242zM221 385c-36 0 -65 30 -65 67c0 36 29 66 65 66c39 0 67 -30 67 -66c0 -37 -28 -67 -67 -67z" />
    <glyph glyph-name="less" unicode="&#x3c;" horiz-adv-x="653" 
d="M45 238v46l514 226v-54l-445 -195l445 -196v-54z" />
    <glyph glyph-name="equal" unicode="=" horiz-adv-x="653" 
d="M76 350v49h503v-49h-503zM76 116v49h503v-49h-503z" />
    <glyph glyph-name="greater" unicode="&#x3e;" horiz-adv-x="653" 
d="M615 284v-46l-514 -227v54l445 196l-445 195v54z" />
    <glyph glyph-name="question" unicode="?" horiz-adv-x="596" 
d="M407 743c-81 0 -146 -35 -159 -125c-40 -5 -85 10 -85 51c0 65 100 106 220 106c149 0 259 -79 259 -219c0 -101 -61 -165 -202 -184l-144 -18c-34 -5 -39 -6 -53 -42l-38 -99h-23l39 158c16 70 42 77 105 85l112 12c113 12 160 50 160 122c0 92 -92 153 -191 153z
M158 -12c-36 0 -65 30 -65 67c0 36 29 66 65 66c39 0 67 -30 67 -66c0 -37 -28 -67 -67 -67z" />
    <glyph glyph-name="at" unicode="@" horiz-adv-x="933" 
d="M610 163c-33 0 -53 8 -53 28c0 12 7 32 18 59l32 81h-4c-63 -98 -147 -167 -229 -167c-60 0 -102 34 -102 101c0 167 226 352 373 352c49 0 93 -23 129 -38l-129 -325c-9 -23 -14 -38 -14 -44c0 -7 2 -12 21 -12c92 0 262 88 262 289c0 176 -150 258 -310 258
c-249 0 -456 -208 -456 -445c0 -186 129 -295 310 -295c108 0 177 26 221 47l9 -21c-49 -24 -125 -54 -237 -54c-201 0 -367 119 -367 320c0 244 246 478 521 478c173 0 344 -92 344 -288c0 -197 -166 -324 -339 -324zM414 212c60 0 170 73 229 222l54 138
c-11 13 -32 19 -57 19c-120 0 -284 -172 -284 -311c0 -45 19 -68 58 -68z" />
    <glyph glyph-name="A" unicode="A" horiz-adv-x="816" 
d="M-141 0l8 24l44 3c31 3 58 11 82 34l792 721h18l-178 -719c-7 -28 5 -33 34 -36l44 -3l-7 -24h-282l7 24l46 3c31 3 49 8 56 36l55 216h-293l-238 -218c-23 -21 -28 -31 4 -34l60 -3l-8 -24h-244zM329 319h259l79 309z" />
    <glyph glyph-name="B" unicode="B" horiz-adv-x="747" 
d="M-22 0l7 24l46 3c31 3 47 8 56 36l193 632c9 28 -6 33 -34 36l-44 3l8 24h279c168 0 265 -35 265 -134c-3 -104 -104 -202 -275 -218v-1c120 -5 220 -50 220 -151c0 -123 -132 -254 -399 -254h-322zM297 416h118c157 0 231 122 231 209c0 75 -56 102 -156 102h-99z
M178 31h117c213 0 291 127 291 234c0 87 -67 120 -178 120h-121z" />
    <glyph glyph-name="C" unicode="C" horiz-adv-x="793" 
d="M384 -12c-161 0 -305 91 -305 302c0 258 238 485 507 485c88 0 184 -22 232 -51l3 -211h-18l-64 149c-22 51 -32 62 -66 72c-23 7 -56 9 -83 9c-243 0 -392 -219 -392 -490c0 -153 67 -233 191 -233c33 0 61 1 88 8c13 3 28 12 44 26l217 197h18l-138 -221
c-48 -21 -146 -42 -234 -42z" />
    <glyph glyph-name="D" unicode="D" horiz-adv-x="855" 
d="M-22 0l7 24l46 3c31 3 47 8 56 36l193 632c9 28 -6 33 -34 36l-44 3l8 24h252c245 0 398 -90 398 -274c0 -267 -250 -484 -591 -484h-291zM178 31h97c281 0 472 214 472 469c0 153 -102 227 -281 227h-75z" />
    <glyph glyph-name="E" unicode="E" horiz-adv-x="751" 
d="M-22 0l7 24l46 3c31 3 48 8 56 36l194 632c8 28 -6 33 -34 36l-44 3l7 24h557l-35 -222h-18l-46 174c-4 15 -7 16 -24 16h-253l-96 -313h150c17 0 19 2 26 13l76 118h18l-90 -297h-18l-5 117c0 11 -1 13 -18 13h-150l-105 -345h296c16 0 19 2 32 14l195 178h18l-137 -224
h-605z" />
    <glyph glyph-name="F" unicode="F" horiz-adv-x="704" 
d="M-22 0l7 24l46 3c31 3 48 8 56 36l194 632c8 28 -6 33 -34 36l-44 3l7 24h590l-34 -222h-18l-47 174c-4 15 -7 16 -23 16h-287l-96 -313h158c16 0 19 2 26 13l75 118h18l-90 -297h-18l-4 117c0 11 -2 13 -18 13h-158l-96 -314c-8 -28 5 -34 36 -35l85 -2l-8 -26h-323z
" />
    <glyph glyph-name="G" unicode="G" horiz-adv-x="875" 
d="M407 -12c-167 0 -327 91 -327 302c0 258 238 485 517 485c87 0 179 -22 227 -51l3 -211h-18l-64 149c-22 51 -32 62 -66 72c-23 7 -51 9 -78 9c-252 0 -402 -219 -402 -490c0 -153 87 -232 216 -232c60 0 128 15 184 40l83 224c11 28 -4 34 -33 35l-139 3l10 28h378
l-10 -30l-91 -1l-77 -206l-21 -71c-113 -13 -187 -55 -292 -55z" />
    <glyph glyph-name="H" unicode="H" horiz-adv-x="898" 
d="M-22 0l7 24l46 3c31 3 47 8 56 36l193 632c9 28 -6 33 -34 36l-44 3l8 24h282l-8 -24l-46 -3c-31 -3 -48 -8 -56 -36l-84 -277h406l85 277c9 28 -6 33 -35 36l-43 3l7 24h282l-7 -24l-46 -3c-31 -3 -48 -8 -57 -36l-193 -632c-9 -28 6 -33 34 -36l44 -3l-7 -24h-282l7 24
l46 3c31 3 47 8 56 36l97 315h-407l-97 -315c-9 -28 6 -33 35 -36l44 -3l-7 -24h-282z" />
    <glyph glyph-name="I" unicode="I" horiz-adv-x="389" 
d="M-22 0l7 24l46 3c31 3 47 8 56 36l193 632c9 28 -6 33 -34 36l-44 3l8 24h282l-8 -24l-46 -3c-31 -3 -47 -8 -56 -36l-194 -632c-9 -28 6 -33 35 -36l44 -3l-7 -24h-282z" />
    <glyph glyph-name="J" unicode="J" horiz-adv-x="388" 
d="M-90 -115l-13 24c156 98 188 119 225 239l168 549c8 27 -5 31 -34 32l-50 2l9 27h289l-8 -27l-51 -2c-31 -1 -45 -5 -53 -32l-161 -522c-32 -108 -59 -141 -166 -208c-35 -21 -108 -58 -155 -82z" />
    <glyph glyph-name="K" unicode="K" horiz-adv-x="828" 
d="M-22 0l7 24l46 3c31 3 47 8 56 36l193 632c9 28 -6 33 -34 36l-44 3l8 24h282l-8 -24l-46 -3c-31 -3 -47 -8 -56 -36l-96 -314l490 326c17 12 13 21 -19 24l-63 3l8 24h270l-7 -24l-53 -3c-40 -3 -59 -10 -87 -29l-437 -290l369 -412h-127l-346 376l-96 -313
c-9 -28 6 -33 35 -36l44 -3l-7 -24h-282z" />
    <glyph glyph-name="L" unicode="L" horiz-adv-x="701" 
d="M-22 0l7 24l46 3c31 3 48 8 56 36l194 632c8 28 -6 33 -34 36l-44 3l7 24h282l-7 -24l-46 -3c-31 -3 -49 -8 -57 -36l-203 -663h257c16 0 19 2 32 14l195 178h18l-137 -224h-566z" />
    <glyph glyph-name="M" unicode="M" horiz-adv-x="1032" 
d="M-22 0l7 24l46 3c31 3 47 8 56 36l193 632c9 28 -6 33 -34 36l-44 3l8 24h209l103 -488l399 488h213l-8 -24l-46 -3c-31 -3 -47 -8 -56 -36l-194 -632c-9 -28 6 -33 35 -36l44 -3l-7 -24h-282l7 24l46 3c31 3 47 8 56 36l199 653l-477 -588h-6l-120 587l-199 -652
c-9 -28 6 -33 34 -36l44 -3l-7 -24h-219z" />
    <glyph glyph-name="N" unicode="N" horiz-adv-x="885" 
d="M666 -19l-351 701l-189 -619c-9 -28 6 -33 34 -36l44 -3l-7 -24h-219l7 24l46 3c31 3 47 8 56 36l194 632c9 28 -6 33 -34 36l-44 3l7 24h183l292 -590l163 527c9 28 -6 33 -34 36l-44 3l8 24h219l-8 -24l-46 -3c-31 -3 -47 -8 -56 -36l-218 -714h-3z" />
    <glyph glyph-name="O" unicode="O" horiz-adv-x="881" 
d="M371 -12c-164 0 -298 103 -298 284c0 225 215 503 518 503c164 0 298 -103 298 -284c0 -225 -214 -503 -518 -503zM389 17c206 0 382 225 382 476c0 152 -71 252 -198 252c-206 0 -382 -224 -382 -475c0 -153 71 -253 198 -253z" />
    <glyph glyph-name="P" unicode="P" horiz-adv-x="725" 
d="M-22 0l7 24l46 3c31 3 47 8 56 36l193 632c9 28 -6 33 -34 36l-44 3l8 24h309c155 0 276 -34 276 -151c0 -143 -136 -257 -394 -257h-99l9 32h94c187 0 277 110 277 228c0 85 -68 117 -172 117h-119l-203 -664c-9 -28 6 -34 35 -35l86 -3l-8 -25h-323z" />
    <glyph glyph-name="Q" unicode="Q" horiz-adv-x="881" 
d="M371 -12c-21 0 -40 2 -60 5l-210 -75c40 11 84 12 100 12c155 0 205 -85 308 -85c61 0 117 25 176 111l22 -13c-72 -117 -154 -180 -230 -180c-132 0 -184 145 -319 145c-24 0 -47 -3 -66 -11c-12 -37 -31 -51 -51 -51c-15 0 -24 10 -24 23c0 25 35 53 143 92l113 40
c-116 34 -200 127 -200 271c0 225 215 503 518 503c164 0 298 -103 298 -284c0 -225 -214 -503 -518 -503zM389 17c206 0 382 225 382 476c0 152 -71 252 -198 252c-206 0 -382 -224 -382 -475c0 -153 71 -253 198 -253z" />
    <glyph glyph-name="R" unicode="R" horiz-adv-x="770" 
d="M-22 0l7 24l46 3c31 3 47 8 56 36l193 632c9 28 -6 33 -34 36l-44 3l8 24h280c164 0 273 -43 273 -150c0 -120 -107 -207 -291 -223l259 -385h-123l-248 373h-76l-96 -310c-9 -28 6 -33 35 -36l44 -3l-7 -24h-282zM293 404h89c181 0 268 98 268 210
c0 81 -66 113 -170 113h-89z" />
    <glyph glyph-name="S" unicode="S" horiz-adv-x="609" 
d="M202 -12c-63 0 -146 19 -205 56l58 205h18l20 -176c3 -27 19 -36 30 -40c27 -9 59 -14 96 -14c92 0 207 51 207 156c0 57 -24 97 -73 156l-67 78c-44 52 -73 99 -73 159c0 124 132 207 265 207c83 0 150 -18 193 -50l-39 -188h-18l-37 160c-5 23 -13 31 -28 36
c-19 7 -41 10 -65 10c-85 0 -179 -39 -179 -123c0 -55 26 -86 58 -125l67 -78c56 -64 96 -114 96 -182c0 -125 -132 -247 -324 -247z" />
    <glyph glyph-name="T" unicode="T" horiz-adv-x="757" 
d="M147 0l8 25l60 3c31 3 48 7 56 35l204 666h-170c-17 0 -22 -1 -33 -16l-151 -189h-18l96 234h671l-47 -234h-18l-26 189c-3 15 -8 16 -24 16h-179l-203 -666c-9 -28 6 -32 35 -35l59 -3l-8 -25h-312z" />
    <glyph glyph-name="U" unicode="U" horiz-adv-x="863" 
d="M379 -12c-200 0 -305 96 -236 317l119 390c8 28 -6 33 -35 36l-43 3l7 24h282l-7 -24l-46 -3c-31 -3 -48 -8 -57 -36l-122 -401c-51 -168 0 -247 161 -247c165 0 266 89 317 256l120 392c9 28 -6 33 -34 36l-50 3l7 24h225l-7 -24l-46 -3c-31 -3 -47 -8 -56 -36
l-122 -398c-63 -203 -178 -309 -377 -309z" />
    <glyph glyph-name="V" unicode="V" horiz-adv-x="810" 
d="M92 -24l178 719c7 28 -6 33 -34 36l-44 3l7 24h282l-7 -24l-46 -3c-31 -3 -49 -8 -56 -36l-142 -562l613 564c23 21 28 31 -3 34l-61 3l7 24h246l-8 -24l-44 -3c-31 -3 -58 -11 -82 -34l-788 -721h-18z" />
    <glyph glyph-name="W" unicode="W" horiz-adv-x="1256" 
d="M92 -24l178 719c7 28 -6 33 -34 36l-44 3l7 24h282l-7 -24l-46 -3c-31 -3 -49 -8 -56 -36l-142 -562l447 410l53 215h221l-7 -24l-70 -3c-31 -1 -49 -8 -56 -36l-142 -562l613 564c23 21 28 31 -3 34l-61 3l7 24h246l-8 -24l-44 -3c-31 -3 -58 -11 -82 -34l-788 -721h-18
l123 503l-551 -503h-18z" />
    <glyph glyph-name="X" unicode="X" horiz-adv-x="844" 
d="M-105 0l11 24l43 3c31 2 59 13 84 34l399 322l-92 314c-7 23 -18 31 -45 34l-42 3l11 24h281l-11 -24l-51 -4c-32 -3 -46 -10 -39 -33l72 -247l307 247c27 21 29 30 -2 33l-48 4l11 24h234l-11 -24l-43 -3c-30 -2 -58 -13 -83 -34l-354 -285l103 -351
c7 -23 18 -31 46 -34l41 -3l-11 -24h-281l11 24l51 4c33 3 47 10 40 33l-83 284l-353 -284c-27 -23 -30 -30 1 -33l49 -4l-11 -24h-235z" />
    <glyph glyph-name="Y" unicode="Y" horiz-adv-x="779" 
d="M158 0l8 25l60 3c31 3 47 7 56 35l86 279l-140 355c-9 24 -13 31 -44 34l-43 3l8 24h283l-8 -24l-50 -3c-32 -3 -50 -11 -41 -34l123 -315l317 315c24 23 16 31 -15 34l-61 3l7 24h243l-8 -24l-44 -3c-31 -3 -46 -11 -70 -34l-356 -355l-86 -279c-9 -28 6 -34 35 -35
l60 -3l-8 -25h-312z" />
    <glyph glyph-name="Z" unicode="Z" horiz-adv-x="743" 
d="M-48 0l3 10l745 717h-317c-19 0 -21 -3 -36 -16l-186 -177h-18l138 224h566l-4 -11l-742 -716h362c19 0 21 1 36 16l186 177h18l-138 -224h-613z" />
    <glyph glyph-name="bracketleft" unicode="[" horiz-adv-x="308" 
d="M-58 -227l358 1040h165l-8 -24l-43 -2c-47 -3 -65 -14 -80 -57l-301 -875c-15 -43 -6 -54 41 -57l42 -2l-9 -23h-165z" />
    <glyph glyph-name="backslash" unicode="\" horiz-adv-x="734" 
d="M626 -52h-65l-379 846h65z" />
    <glyph glyph-name="bracketright" unicode="]" horiz-adv-x="308" 
d="M393 813l-358 -1040h-165l8 24l43 2c47 3 65 14 80 57l301 875c15 43 6 54 -41 57l-42 2l9 23h165z" />
    <glyph glyph-name="asciicircum" unicode="^" horiz-adv-x="653" 
d="M129 361l352 415h50l66 -415h-49l-57 360l-305 -360h-57z" />
    <glyph glyph-name="underscore" unicode="_" horiz-adv-x="573" 
d="M-94 -102l16 47h545l-16 -47h-545z" />
    <glyph glyph-name="grave" unicode="`" 
d="M59 597h-17l-113 172l3 7h85z" />
    <glyph glyph-name="a" unicode="a" horiz-adv-x="567" 
d="M103 -12c-60 0 -93 41 -93 105c0 180 200 425 350 425c47 0 68 -34 71 -71h1l24 66h88l-155 -422c-19 -51 -15 -65 4 -65c32 0 86 38 141 138l20 -9c-56 -107 -122 -167 -213 -167c-64 0 -61 38 -37 102l36 95h-2c-80 -129 -155 -197 -235 -197zM153 39
c70 0 178 141 231 281c45 123 29 175 -24 175c-116 0 -248 -245 -248 -391c0 -41 14 -65 41 -65z" />
    <glyph glyph-name="b" unicode="b" horiz-adv-x="551" 
d="M153 -12c-85 0 -152 28 -104 167l186 541l-77 39l2 6l200 44l-126 -366l-47 -114h2c83 139 168 212 256 212c71 0 101 -45 101 -109c0 -184 -221 -420 -393 -420zM169 11c121 0 272 235 272 388c0 45 -16 67 -49 67c-72 0 -194 -145 -242 -284c-47 -128 -41 -171 19 -171
z" />
    <glyph glyph-name="c" unicode="c" horiz-adv-x="452" 
d="M160 -12c-84 0 -134 53 -134 149c0 184 167 380 333 380c67 0 100 -33 100 -81c0 -49 -35 -81 -94 -72c22 73 19 130 -24 130c-95 0 -212 -167 -212 -337c0 -86 41 -123 87 -123c55 0 104 41 155 149l20 -8c-59 -133 -131 -187 -231 -187z" />
    <glyph glyph-name="d" unicode="d" horiz-adv-x="588" 
d="M108 -12c-60 0 -97 40 -97 111c0 180 203 419 352 419c47 0 71 -28 76 -71h1l84 249l-81 39l2 6l203 44l-235 -694c-19 -52 -17 -65 4 -65c32 0 88 38 141 138l20 -9c-56 -107 -122 -167 -214 -167c-64 0 -59 38 -38 102l35 100h-2c-81 -136 -159 -202 -251 -202zM167 39
c69 0 182 141 230 274c44 121 24 182 -32 182c-120 0 -250 -233 -250 -382c0 -49 17 -74 52 -74z" />
    <glyph glyph-name="e" unicode="e" horiz-adv-x="465" 
d="M158 -12c-84 0 -134 53 -134 149c0 191 196 380 345 380c76 0 106 -38 106 -90c0 -41 -27 -89 -78 -116l-238 -2c-20 -47 -32 -97 -32 -152c0 -87 40 -123 85 -123c56 0 113 49 166 153l21 -7c-63 -129 -132 -192 -241 -192zM365 495c-70 0 -151 -69 -198 -167h54
c116 0 197 57 197 122c0 30 -18 45 -53 45z" />
    <glyph glyph-name="f" unicode="f" horiz-adv-x="347" 
d="M-122 -257c-35 0 -56 20 -56 47s19 45 44 46c31 -19 62 -34 91 -34c37 0 58 35 98 214l95 435h-78l8 23c73 5 86 21 147 143c59 123 147 162 208 162c47 0 62 -24 62 -51c0 -21 -13 -43 -36 -54c-35 17 -64 24 -91 24c-77 0 -124 -60 -124 -136c0 -28 6 -60 41 -60h145
l-31 -51h-161l-49 -222c-100 -448 -240 -486 -313 -486z" />
    <glyph glyph-name="g" unicode="g" horiz-adv-x="495" 
d="M219 164c-21 0 -38 2 -53 7l-70 -68l154 -93c74 -45 117 -75 117 -133c0 -92 -123 -137 -241 -137c-151 0 -253 50 -253 126c0 66 85 106 209 143l-41 74l99 97c-45 21 -73 60 -73 111c0 119 121 226 248 226c45 0 85 -14 112 -37l36 65h105l-41 -73h-91
c21 -21 34 -50 34 -82c0 -119 -124 -226 -251 -226zM237 188c69 0 134 78 134 194c0 68 -25 112 -74 112c-70 0 -134 -78 -134 -194c0 -69 25 -112 74 -112zM-47 -120c0 -69 72 -118 193 -118c84 0 146 26 146 74c0 29 -21 52 -90 95l-107 65c-89 -35 -142 -63 -142 -116z
" />
    <glyph glyph-name="h" unicode="h" horiz-adv-x="563" 
d="M264 -12c-51 0 -91 27 -91 70c0 37 37 59 74 55c27 -96 29 -100 41 -100c72 0 150 207 150 348c0 75 -16 105 -51 105c-79 0 -180 -163 -236 -305c-20 -52 -43 -107 -58 -154l-96 -17l244 705l-74 40l3 6l196 44l-127 -366l-52 -134h2c85 159 158 232 251 232
c63 0 100 -44 100 -136c0 -159 -150 -393 -276 -393z" />
    <glyph glyph-name="i" unicode="i" horiz-adv-x="324" 
d="M257 722c0 33 29 63 64 63s64 -30 64 -63c0 -35 -29 -65 -64 -65s-64 30 -64 65zM91 -12c-64 0 -70 35 -46 99l144 374l-92 4l8 21l200 32l-165 -427c-20 -51 -17 -65 4 -65c32 0 88 38 141 138l20 -9c-56 -107 -122 -167 -214 -167z" />
    <glyph glyph-name="j" unicode="j" horiz-adv-x="285" 
d="M-219 -260l-8 17c129 82 178 115 242 274l174 430l-91 4l8 21l200 32l-203 -502c-45 -109 -62 -143 -156 -191zM266 722c0 33 29 63 64 63s64 -30 64 -63c0 -35 -29 -65 -64 -65s-64 30 -64 65z" />
    <glyph glyph-name="k" unicode="k" horiz-adv-x="584" 
d="M407 -38c-52 0 -86 32 -127 111l-94 182c131 0 254 70 254 177c0 33 -14 55 -45 55c-78 0 -183 -152 -223 -264l-32 -92l-40 -122l-103 -19l243 706l-78 39l3 6l200 44l-109 -316l-48 -126h2c67 112 129 181 227 181c69 0 92 -39 92 -80c0 -84 -112 -155 -235 -190
l108 -205c24 -47 32 -54 48 -54c18 0 51 17 80 105l21 -6c-35 -107 -79 -132 -144 -132z" />
    <glyph glyph-name="l" unicode="l" horiz-adv-x="308" 
d="M80 -12c-64 0 -69 35 -46 99l209 609l-78 39l3 6l200 44l-239 -694c-17 -52 -17 -65 4 -65c32 0 88 38 141 138l20 -9c-56 -107 -122 -167 -214 -167z" />
    <glyph glyph-name="m" unicode="m" horiz-adv-x="895" 
d="M655 -12c-65 0 -79 38 -50 99l108 230c49 104 60 152 17 152c-40 0 -86 -52 -142 -127c-69 -91 -152 -228 -192 -333l-99 -19l127 327c41 105 58 152 17 152c-39 0 -85 -52 -141 -125c-69 -93 -152 -230 -192 -335l-102 -19l181 471l-91 4l8 21l199 32l-142 -358h1
c43 84 93 161 133 216c72 97 128 141 196 141c83 0 76 -71 23 -199l-65 -158h1c43 84 94 161 134 216c72 97 128 141 196 141c84 0 89 -71 29 -199l-106 -227c-23 -51 -16 -65 4 -65c33 0 89 38 142 138l20 -9c-56 -107 -122 -167 -214 -167z" />
    <glyph glyph-name="n" unicode="n" horiz-adv-x="607" 
d="M367 -12c-65 0 -79 38 -50 99l108 230c49 104 59 152 16 152c-39 0 -85 -52 -141 -125c-69 -93 -152 -230 -192 -335l-102 -19l181 471l-91 4l8 21l199 32l-142 -358h1c43 84 93 161 133 216c72 97 128 141 196 141c84 0 90 -71 30 -199l-106 -227c-23 -51 -16 -65 4 -65
c32 0 87 38 142 138l20 -9c-56 -107 -122 -167 -214 -167z" />
    <glyph glyph-name="o" unicode="o" horiz-adv-x="543" 
d="M183 -12c-96 0 -155 65 -155 156c0 180 162 373 334 373c96 0 155 -64 155 -155c0 -181 -160 -374 -334 -374zM215 16c92 0 198 148 198 346c0 87 -30 127 -81 127c-93 0 -199 -147 -199 -345c0 -88 31 -128 82 -128z" />
    <glyph glyph-name="p" unicode="p" horiz-adv-x="569" 
d="M-61 -248l244 709l-92 4l8 21l198 32l-28 -81c43 49 105 80 161 80c79 0 126 -47 126 -127c0 -192 -205 -412 -441 -400l-82 -238h-94zM368 463c-36 0 -75 -16 -106 -47l-139 -404c178 -12 329 208 329 351c0 72 -33 100 -84 100z" />
    <glyph glyph-name="q" unicode="q" horiz-adv-x="551" 
d="M199 -248l108 316l39 97h-2c-80 -121 -151 -177 -236 -177c-60 0 -97 40 -97 111c0 180 203 419 352 419c47 0 74 -28 79 -71h2l23 66h88l-262 -761h-94zM115 113c0 -49 17 -74 52 -74c69 0 182 141 230 274c44 121 24 182 -32 182c-120 0 -250 -233 -250 -382z" />
    <glyph glyph-name="r" unicode="r" horiz-adv-x="449" 
d="M7 -10l181 471l-92 4l8 21l199 32l-132 -340h1c56 109 97 182 122 219c56 84 100 120 149 120c37 0 57 -30 57 -62c0 -33 -21 -67 -68 -72l-45 87c-79 -61 -174 -258 -257 -407l-21 -54z" />
    <glyph glyph-name="s" unicode="s" horiz-adv-x="391" 
d="M112 -12c-77 0 -121 40 -121 87c0 37 39 60 82 56c32 -117 34 -118 51 -118c33 0 101 23 101 88c0 32 -13 54 -38 89l-44 59c-28 37 -42 74 -42 106c0 91 98 162 198 162c60 0 99 -29 99 -72c0 -35 -25 -62 -78 -59c-24 103 -25 105 -43 105c-40 0 -104 -27 -104 -74
c0 -25 13 -55 38 -89l44 -59c27 -37 45 -75 45 -112c0 -104 -104 -169 -188 -169z" />
    <glyph glyph-name="t" unicode="t" horiz-adv-x="377" 
d="M93 -12c-65 0 -72 36 -47 99l147 364h-119l20 51h120l45 113h94l-45 -113h143l-20 -51h-144l-144 -359c-21 -51 -18 -66 2 -66c32 0 93 38 146 138l20 -9c-56 -107 -126 -167 -218 -167z" />
    <glyph glyph-name="u" unicode="u" horiz-adv-x="606" 
d="M310 518l-141 -329c-45 -107 -56 -153 -17 -153s86 53 142 128c67 91 147 225 192 333l99 15l-162 -421c-20 -51 -17 -65 3 -65c32 0 88 38 141 138l21 -9c-56 -107 -122 -167 -214 -167c-65 0 -72 35 -47 99l98 248h-1c-39 -77 -88 -153 -127 -205
c-71 -96 -126 -142 -195 -142c-83 0 -89 63 -30 200l116 273l-92 4l8 21z" />
    <glyph glyph-name="v" unicode="v" horiz-adv-x="560" 
d="M538 423c0 -222 -159 -435 -341 -435c-89 0 -129 54 -129 120c0 93 85 206 224 310h-200l-47 -81h-22l74 165h311c-128 -104 -254 -220 -254 -332c0 -67 37 -94 97 -94c109 0 220 102 257 264l-79 106c-7 45 21 71 52 71c32 0 57 -19 57 -94z" />
    <glyph glyph-name="w" unicode="w" horiz-adv-x="820" 
d="M171 -12c-69 0 -103 42 -103 111c0 93 75 203 227 319h-204l-47 -81h-22l74 165h316c-128 -106 -260 -216 -260 -337c0 -56 32 -89 92 -89c37 0 74 12 113 35c-7 28 -11 57 -11 87c0 148 103 319 196 319c35 0 56 -22 56 -67c0 -49 -23 -139 -100 -238
c-24 -31 -50 -61 -78 -89c27 -31 64 -47 110 -47c104 0 209 100 230 264l-79 106c-7 45 21 71 52 71c32 0 57 -19 57 -94c0 -195 -115 -435 -293 -435c-63 0 -104 36 -128 89c-64 -52 -134 -89 -198 -89zM378 250c0 -41 9 -76 26 -105c25 22 49 47 71 75
c63 76 79 130 79 165c0 36 -20 55 -49 55c-56 0 -127 -79 -127 -190z" />
    <glyph glyph-name="x" unicode="x" horiz-adv-x="586" 
d="M39 -12c-43 0 -67 29 -67 60c0 40 29 75 77 78c7 -67 14 -92 31 -92c41 0 109 83 173 187l-24 181c-7 44 -11 74 -34 74c-31 0 -76 -46 -119 -117l-18 13c55 88 108 145 177 145c39 0 72 -12 85 -111l11 -86c91 145 160 197 221 197c43 0 67 -29 67 -60
c0 -40 -29 -75 -77 -78c-7 67 -14 92 -31 92c-43 0 -108 -85 -175 -190l23 -177c7 -44 12 -74 35 -74c31 0 76 45 120 116l17 -12c-55 -88 -109 -146 -177 -146c-39 0 -72 14 -85 111l-11 83c-91 -144 -159 -194 -219 -194z" />
    <glyph glyph-name="y" unicode="y" horiz-adv-x="575" 
d="M-92 -260c-49 0 -74 18 -74 54c0 19 10 37 30 50c25 -23 47 -33 82 -33c52 0 110 29 217 168l-5 478h-88l1 21l181 40l2 -419l180 237c101 135 137 181 181 181c24 0 43 -17 43 -44c0 -16 -5 -31 -14 -38c-81 -24 -130 -46 -207 -145l-241 -313
c-96 -126 -205 -237 -288 -237z" />
    <glyph glyph-name="z" unicode="z" horiz-adv-x="510" 
d="M83 329l68 173h405l-319 -269l60 -134c33 -75 53 -98 84 -98c40 0 71 46 31 165l19 8c47 -135 14 -204 -74 -204c-64 0 -113 29 -166 133l-32 63l-94 -79c-27 -23 -24 -42 -12 -89c-38 -19 -80 -4 -80 25c0 16 9 31 48 63l393 332h-266l-45 -89h-20z" />
    <glyph glyph-name="braceleft" unicode="{" horiz-adv-x="346" 
d="M159 -216l-8 -20c-109 16 -197 108 -114 263l54 102c59 115 23 157 -56 171l9 24c88 13 154 55 173 171l16 102c24 157 143 218 274 218l1 -22c-117 -3 -166 -56 -183 -169l-13 -88c-21 -145 -116 -207 -216 -223v-3c85 -16 145 -77 65 -222l-48 -88
c-61 -111 -47 -197 46 -216z" />
    <glyph glyph-name="bar" unicode="|" horiz-adv-x="331" 
d="M150 -227v1040h60v-1040h-60z" />
    <glyph glyph-name="braceright" unicode="}" horiz-adv-x="346" 
d="M213 794l8 20c109 -16 197 -108 114 -263l-54 -102c-59 -115 -23 -157 56 -171l-9 -24c-88 -13 -154 -55 -173 -171l-16 -102c-24 -157 -143 -218 -274 -218l-1 22c117 3 166 56 183 169l13 88c21 145 116 207 216 223v3c-85 16 -145 77 -65 222l48 88
c61 111 47 197 -46 216z" />
    <glyph glyph-name="asciitilde" unicode="~" horiz-adv-x="653" 
d="M212 331c110 0 160 -93 238 -93c38 0 83 16 91 89h50c-8 -90 -72 -134 -142 -134c-98 0 -149 92 -237 92c-38 0 -83 -15 -91 -88h-50c9 89 70 134 141 134z" />
    <glyph glyph-name="uni00A0" unicode="&#xa0;" horiz-adv-x="240" 
 />
    <glyph glyph-name="exclamdown" unicode="&#xa1;" horiz-adv-x="276" 
d="M141 291h29c-80 -281 -66 -341 -122 -530c-8 -29 -123 -31 -113 6c56 184 110 241 206 524zM197 518c36 0 65 -30 65 -67c0 -36 -29 -66 -65 -66c-39 0 -67 30 -67 66c0 37 28 67 67 67z" />
    <glyph glyph-name="cent" unicode="&#xa2;" horiz-adv-x="453" 
d="M96 -120l39 110c-69 9 -110 59 -110 147c0 174 149 357 306 378l39 105h32l-39 -103c64 -3 95 -34 95 -81c0 -49 -35 -81 -94 -72c22 73 19 130 -24 130c-95 0 -212 -167 -212 -337c0 -86 41 -123 87 -123c55 0 104 41 155 149l20 -8c-59 -131 -127 -184 -224 -187
l-38 -108h-32z" />
    <glyph glyph-name="sterling" unicode="&#xa3;" horiz-adv-x="623" 
d="M-40 0l1 4l150 104c119 83 163 146 163 210v8h-177l12 37h159c-3 11 -7 21 -11 32l-25 64c-13 35 -21 69 -21 102c0 115 151 214 308 214c105 0 160 -42 160 -93c0 -39 -34 -69 -93 -64c8 85 -50 124 -118 124c-81 0 -160 -53 -160 -141c0 -24 6 -50 17 -78l25 -64
c12 -31 22 -61 22 -93v-3h185l-12 -37h-179c-16 -57 -70 -120 -191 -201l-67 -45h422l-47 -80h-523z" />
    <glyph glyph-name="yen" unicode="&#xa5;" horiz-adv-x="836" 
d="M201 0l7 23l45 1c31 1 48 11 55 36l39 128h-211l11 37h212l23 76h-212l11 37h213l1 4l-139 358c-9 23 -12 30 -41 33l-43 3l7 22h278l-7 -22l-51 -3c-31 -3 -52 -10 -43 -33l122 -318l318 318c23 23 8 30 -23 33l-49 3l7 22h228l-7 -22l-45 -3c-31 -3 -37 -9 -61 -33
l-357 -358l-1 -4h211l-11 -37h-212l-23 -76h212l-11 -37h-213l-39 -128c-7 -25 5 -35 33 -36l45 -1l-7 -23h-272z" />
    <glyph glyph-name="brokenbar" unicode="&#xa6;" horiz-adv-x="331" 
d="M150 403v410h60v-410h-60zM150 -227v410h60v-410h-60z" />
    <glyph glyph-name="section" unicode="&#xa7;" horiz-adv-x="616" 
d="M254 198l-45 75c-39 64 -62 124 -62 197c0 165 166 305 363 305c127 0 178 -62 178 -112c0 -58 -58 -78 -109 -70c25 99 -5 152 -96 152c-99 0 -146 -65 -146 -150c0 -52 22 -108 57 -167l44 -75c45 -77 81 -144 81 -225c0 -164 -169 -324 -369 -324
c-131 0 -202 73 -202 137c1 57 49 80 109 75c-21 -100 5 -186 104 -186c101 0 158 91 158 180c0 60 -21 115 -65 188zM271 -150c123 53 194 164 194 266c0 76 -37 149 -76 213l-45 76c-32 55 -52 109 -52 157s15 112 79 160c-109 -48 -173 -144 -173 -239
c0 -60 21 -118 52 -169l46 -76c45 -78 73 -129 73 -196c0 -60 -26 -135 -98 -192z" />
    <glyph glyph-name="dieresis" unicode="&#xa8;" 
d="M-116 642c-35 0 -64 30 -64 65c0 33 29 63 64 63s64 -30 64 -63c0 -35 -29 -65 -64 -65zM116 642c-35 0 -64 30 -64 65c0 33 29 63 64 63s64 -30 64 -63c0 -35 -29 -65 -64 -65z" />
    <glyph glyph-name="copyright" unicode="&#xa9;" horiz-adv-x="907" 
d="M494 -12c-225 0 -392 166 -392 393c0 228 167 394 392 394c223 0 392 -166 392 -394c0 -227 -169 -393 -392 -393zM494 21c192 0 352 139 352 360c0 222 -160 361 -352 361s-352 -139 -352 -361c0 -221 160 -360 352 -360zM508 163c-141 0 -246 88 -246 224
s105 224 249 224c48 0 99 -9 134 -25l25 -132h-6l-66 99c-11 16 -19 21 -27 25c-12 7 -36 12 -63 12c-84 0 -171 -53 -171 -189c0 -121 62 -216 177 -216c27 0 51 5 64 12c8 4 16 8 27 25l67 99h6l-30 -133c-35 -16 -91 -25 -140 -25z" />
    <glyph glyph-name="ordfeminine" unicode="&#xaa;" horiz-adv-x="531" 
d="M193 354c-48 0 -76 34 -76 85c0 147 168 343 291 343c36 0 55 -26 56 -54h2l18 51h77l-125 -339c-15 -41 -14 -53 3 -53c26 0 74 30 119 112l17 -8c-45 -87 -106 -137 -183 -137c-52 0 -52 30 -31 85l28 73h-2c-65 -108 -121 -158 -194 -158zM241 398
c48 0 145 116 185 224c37 99 23 141 -18 141c-92 0 -202 -196 -202 -315c0 -33 12 -50 35 -50z" />
    <glyph glyph-name="guillemotleft" unicode="&#xab;" horiz-adv-x="555" 
d="M136 252l78 -216l-14 -7l-151 226l306 225l9 -11zM342 252l78 -216l-14 -7l-151 226l306 225l9 -11z" />
    <glyph glyph-name="uni00AD" unicode="&#xad;" horiz-adv-x="437" 
d="M66 235l18 53h294l-18 -53h-294z" />
    <glyph glyph-name="registered" unicode="&#xae;" horiz-adv-x="907" 
d="M494 -12c-225 0 -392 166 -392 393c0 228 167 394 392 394c223 0 392 -166 392 -394c0 -227 -169 -393 -392 -393zM494 21c192 0 352 139 352 360c0 222 -160 361 -352 361s-352 -139 -352 -361c0 -221 160 -360 352 -360zM299 179v17l23 2c19 3 28 4 28 23v346
c0 19 -9 21 -28 24l-23 2v16h168c106 0 181 -24 181 -104c0 -56 -41 -94 -117 -107l191 -219h-83l-180 211h-42v-169c0 -19 9 -20 28 -23l23 -2v-17h-169zM417 411h46c71 0 110 28 110 89s-39 88 -110 88h-46v-177z" />
    <glyph glyph-name="macron" unicode="&#xaf;" 
d="M-150 668l16 45h283l-15 -45h-284z" />
    <glyph glyph-name="degree" unicode="&#xb0;" horiz-adv-x="438" 
d="M322 437c-96 0 -170 75 -170 169s74 169 170 169s170 -75 170 -169s-74 -169 -170 -169zM322 479c65 0 123 50 123 127c0 76 -58 126 -123 126s-123 -50 -123 -126c0 -77 58 -127 123 -127z" />
    <glyph glyph-name="plusminus" unicode="&#xb1;" horiz-adv-x="653" 
d="M283 104v187h-227v50h227v183h52v-183h226v-50h-226v-187h-52zM56 0v50h505v-50h-505z" />
    <glyph glyph-name="twosuperior" unicode="&#xb2;" horiz-adv-x="352" 
d="M60 401l1 3c216 155 320 247 320 327c0 40 -24 63 -67 63c-48 0 -90 -29 -103 -97h-16c8 80 62 133 146 133c68 0 106 -37 106 -90c0 -68 -55 -124 -209 -225l-87 -57h147c38 0 44 4 64 27l25 33l14 -4l-68 -113h-273z" />
    <glyph glyph-name="threesuperior" unicode="&#xb3;" horiz-adv-x="342" 
d="M394 556c0 -83 -88 -164 -188 -164c-69 0 -110 44 -110 80c0 23 23 39 54 34c4 -53 25 -91 78 -91c52 0 101 40 101 112c0 65 -37 98 -76 98c-9 0 -16 -1 -23 -3l-2 17l26 6c64 11 119 43 119 94c0 35 -22 55 -65 55c-39 0 -80 -19 -95 -78h-16c12 72 64 114 137 114
c67 0 102 -33 102 -74c0 -48 -42 -79 -107 -94v-1c41 -20 65 -58 65 -105z" />
    <glyph glyph-name="acute" unicode="&#xb4;" 
d="M-126 597l144 179h111l-3 -7l-231 -172h-21z" />
    <glyph glyph-name="paragraph" unicode="&#xb6;" horiz-adv-x="584" 
d="M151 -207l150 493h-11c-115 0 -187 64 -187 161c0 172 168 311 435 311h157l-7 -25l-46 -3c-31 -3 -49 -8 -58 -36l-238 -779l-83 -51l133 441c-20 -7 -40 -13 -61 -16l-143 -470z" />
    <glyph glyph-name="periodcentered" unicode="&#xb7;" horiz-adv-x="276" 
d="M140 195c-36 0 -65 30 -65 67c0 36 29 66 65 66c39 0 67 -30 67 -66c0 -37 -28 -67 -67 -67z" />
    <glyph glyph-name="cedilla" unicode="&#xb8;" 
d="M-34 -257c-64 0 -103 34 -103 65c0 23 21 34 42 23c-3 -44 29 -66 68 -66c36 0 58 14 58 39c0 28 -37 52 -84 87l140 109h33l-109 -86c35 -25 63 -52 63 -91c0 -47 -44 -80 -108 -80z" />
    <glyph glyph-name="onesuperior" unicode="&#xb9;" horiz-adv-x="245" 
d="M88 401l5 18l32 2c19 3 26 6 31 22l114 330l-94 -34l8 26l169 61l-132 -383c-5 -15 0 -23 15 -24l27 -1l-5 -17h-170z" />
    <glyph glyph-name="ordmasculine" unicode="&#xba;" horiz-adv-x="460" 
d="M252 354c-77 0 -124 53 -124 125c0 146 130 303 272 303c77 0 124 -52 124 -124c0 -147 -131 -304 -272 -304zM283 379c68 0 150 117 150 287c0 60 -26 91 -63 91c-70 0 -151 -117 -151 -287c0 -60 25 -91 64 -91z" />
    <glyph glyph-name="guillemotright" unicode="&#xbb;" horiz-adv-x="555" 
d="M217 257l-78 216l14 7l151 -226l-306 -225l-9 11zM423 257l-78 216l14 7l151 -226l-306 -225l-9 11z" />
    <glyph glyph-name="onequarter" unicode="&#xbc;" horiz-adv-x="870" 
d="M70 341l5 18l32 2c19 3 26 6 31 22l114 330l-94 -34l8 26l169 61l-132 -383c-5 -15 0 -23 15 -24l27 -1l-5 -17h-170zM-32 0l835 758h70l-836 -758h-69zM624 0l37 108h-215l330 309h57l-90 -262h77l-17 -47h-77l-37 -108h-65zM522 155h156l72 209z" />
    <glyph glyph-name="onehalf" unicode="&#xbd;" horiz-adv-x="831" 
d="M70 341l5 18l32 2c19 3 26 6 31 22l114 330l-94 -34l8 26l169 61l-132 -383c-5 -15 0 -23 15 -24l27 -1l-5 -17h-170zM-32 0l835 758h70l-836 -758h-69zM417 0l1 3c216 155 320 247 320 327c0 40 -24 63 -67 63c-48 0 -90 -29 -103 -97h-16c8 80 62 133 146 133
c68 0 106 -37 106 -90c0 -68 -55 -124 -209 -225l-87 -57h147c38 0 44 4 64 27l25 33l14 -4l-68 -113h-273z" />
    <glyph glyph-name="threequarters" unicode="&#xbe;" horiz-adv-x="933" 
d="M376 496c0 -83 -88 -164 -188 -164c-69 0 -110 44 -110 80c0 23 23 39 54 34c4 -53 25 -91 78 -91c52 0 101 40 101 112c0 65 -37 98 -76 98c-9 0 -16 -1 -23 -3l-2 17l26 6c64 11 119 43 119 94c0 35 -22 55 -65 55c-39 0 -80 -19 -95 -78h-16c12 72 64 114 137 114
c67 0 102 -33 102 -74c0 -48 -42 -79 -107 -94v-1c41 -20 65 -58 65 -105zM31 0l835 758h70l-836 -758h-69zM687 0l37 108h-215l330 309h57l-90 -262h77l-17 -47h-77l-37 -108h-65zM585 155h156l72 209z" />
    <glyph glyph-name="questiondown" unicode="&#xbf;" horiz-adv-x="590" 
d="M207 -229c81 0 146 35 159 125c40 5 85 -10 85 -50c0 -65 -96 -106 -220 -106c-149 0 -259 78 -259 218c0 91 49 165 202 184l145 18c33 3 40 8 53 42l37 94h23l-39 -152c-19 -72 -40 -77 -104 -85l-113 -13c-113 -13 -160 -50 -160 -122c0 -92 92 -153 191 -153z
M456 518c36 0 65 -30 65 -67c0 -36 -29 -66 -65 -66c-39 0 -67 30 -67 66c0 37 28 67 67 67z" />
    <glyph glyph-name="Agrave" unicode="&#xc0;" horiz-adv-x="816" 
d="M-141 0l8 24l44 3c31 3 58 11 82 34l792 721h18l-178 -719c-7 -28 5 -33 34 -36l44 -3l-7 -24h-282l7 24l46 3c31 3 49 8 56 36l55 216h-293l-238 -218c-23 -21 -28 -31 4 -34l60 -3l-8 -24h-244zM329 319h259l79 309zM834 839h-17l-163 131l1 2h114z" />
    <glyph glyph-name="Aacute" unicode="&#xc1;" horiz-adv-x="816" 
d="M-141 0l8 24l44 3c31 3 58 11 82 34l792 721h18l-178 -719c-7 -28 5 -33 34 -36l44 -3l-7 -24h-282l7 24l46 3c31 3 49 8 56 36l55 216h-293l-238 -218c-23 -21 -28 -31 4 -34l60 -3l-8 -24h-244zM329 319h259l79 309zM763 839l147 133h127l-1 -2l-253 -131h-20z" />
    <glyph glyph-name="Acircumflex" unicode="&#xc2;" horiz-adv-x="816" 
d="M-141 0l8 24l44 3c31 3 58 11 82 34l792 721h18l-178 -719c-7 -28 5 -33 34 -36l44 -3l-7 -24h-282l7 24l46 3c31 3 49 8 56 36l55 216h-293l-238 -218c-23 -21 -28 -31 4 -34l60 -3l-8 -24h-244zM329 319h259l79 309zM635 833l216 148h10l80 -148h-17l-83 73l-185 -73
h-21z" />
    <glyph glyph-name="Atilde" unicode="&#xc3;" horiz-adv-x="816" 
d="M-141 0l8 24l44 3c31 3 58 11 82 34l792 721h18l-178 -719c-7 -28 5 -33 34 -36l44 -3l-7 -24h-282l7 24l46 3c31 3 49 8 56 36l55 216h-293l-238 -218c-23 -21 -28 -31 4 -34l60 -3l-8 -24h-244zM329 319h259l79 309zM884 832c-69 0 -95 68 -151 68
c-32 0 -58 -17 -73 -61h-17c15 80 51 131 107 131c68 0 87 -68 148 -68c31 0 54 20 67 59h16c-19 -93 -54 -129 -97 -129z" />
    <glyph glyph-name="Adieresis" unicode="&#xc4;" horiz-adv-x="816" 
d="M-141 0l8 24l44 3c31 3 58 11 82 34l792 721h18l-178 -719c-7 -28 5 -33 34 -36l44 -3l-7 -24h-282l7 24l46 3c31 3 49 8 56 36l55 216h-293l-238 -218c-23 -21 -28 -31 4 -34l60 -3l-8 -24h-244zM329 319h259l79 309zM934 854c-35 0 -64 29 -64 64c0 33 29 64 64 64
s64 -31 64 -64c0 -35 -29 -64 -64 -64zM702 854c-35 0 -64 29 -64 64c0 33 29 64 64 64s64 -31 64 -64c0 -35 -29 -64 -64 -64z" />
    <glyph glyph-name="Aring" unicode="&#xc5;" horiz-adv-x="816" 
d="M-141 0l8 24l44 3c31 3 58 11 82 34l792 721h18l-178 -719c-7 -28 5 -33 34 -36l44 -3l-7 -24h-282l7 24l46 3c31 3 49 8 56 36l55 216h-293l-238 -218c-23 -21 -28 -31 4 -34l60 -3l-8 -24h-244zM329 319h259l79 309zM827 835c-63 0 -115 48 -115 112
c0 61 52 112 115 112c65 0 117 -51 117 -112c0 -64 -52 -112 -117 -112zM827 871c45 0 76 31 76 76c0 44 -31 74 -76 74c-44 0 -75 -30 -75 -74c0 -45 31 -76 75 -76z" />
    <glyph glyph-name="AE" unicode="&#xc6;" horiz-adv-x="1157" 
d="M-135 0l7 24l45 3c31 3 57 11 81 34l709 697h457l-35 -222h-10l-46 174c-4 15 -7 16 -24 16h-249l-96 -313h160c17 0 19 2 26 13l74 118h10l-91 -297h-10l-2 117c0 11 -2 13 -18 13h-160l-106 -345h303c15 0 20 3 32 14l196 178h10l-131 -224h-611l8 24l45 3
c31 3 47 8 56 36l66 216h-290l-225 -218c-23 -21 -26 -31 5 -34l60 -3l-8 -24h-238zM310 319h264l112 369z" />
    <glyph glyph-name="Ccedilla" unicode="&#xc7;" horiz-adv-x="793" 
d="M384 -12c-161 0 -305 91 -305 302c0 258 238 485 507 485c88 0 184 -22 232 -51l3 -211h-18l-64 149c-22 51 -32 62 -66 72c-23 7 -56 9 -83 9c-243 0 -392 -219 -392 -490c0 -153 67 -233 191 -233c33 0 61 1 88 8c13 3 28 12 44 26l217 197h18l-138 -221
c-48 -21 -146 -42 -234 -42zM268 -257c-62 0 -102 34 -102 65c0 23 20 34 41 23c-3 -44 32 -66 71 -66c37 0 55 13 55 39c0 28 -37 52 -84 87l136 109h37l-109 -86c35 -25 63 -52 63 -85c0 -52 -44 -86 -108 -86z" />
    <glyph glyph-name="Egrave" unicode="&#xc8;" horiz-adv-x="751" 
d="M-22 0l7 24l46 3c31 3 48 8 56 36l194 632c8 28 -6 33 -34 36l-44 3l7 24h557l-35 -222h-18l-46 174c-4 15 -7 16 -24 16h-253l-96 -313h150c17 0 19 2 26 13l76 118h18l-90 -297h-18l-5 117c0 11 -1 13 -18 13h-150l-105 -345h296c16 0 19 2 32 14l195 178h18l-137 -224
h-605zM596 839h-17l-163 131l1 2h114z" />
    <glyph glyph-name="Eacute" unicode="&#xc9;" horiz-adv-x="751" 
d="M-22 0l7 24l46 3c31 3 48 8 56 36l194 632c8 28 -6 33 -34 36l-44 3l7 24h557l-35 -222h-18l-46 174c-4 15 -7 16 -24 16h-253l-96 -313h150c17 0 19 2 26 13l76 118h18l-90 -297h-18l-5 117c0 11 -1 13 -18 13h-150l-105 -345h296c16 0 19 2 32 14l195 178h18l-137 -224
h-605zM525 839l147 133h127l-1 -2l-253 -131h-20z" />
    <glyph glyph-name="Ecircumflex" unicode="&#xca;" horiz-adv-x="751" 
d="M-22 0l7 24l46 3c31 3 48 8 56 36l194 632c8 28 -6 33 -34 36l-44 3l7 24h557l-35 -222h-18l-46 174c-4 15 -7 16 -24 16h-253l-96 -313h150c17 0 19 2 26 13l76 118h18l-90 -297h-18l-5 117c0 11 -1 13 -18 13h-150l-105 -345h296c16 0 19 2 32 14l195 178h18l-137 -224
h-605zM397 833l216 148h10l80 -148h-17l-83 73l-185 -73h-21z" />
    <glyph glyph-name="Edieresis" unicode="&#xcb;" horiz-adv-x="751" 
d="M-22 0l7 24l46 3c31 3 48 8 56 36l194 632c8 28 -6 33 -34 36l-44 3l7 24h557l-35 -222h-18l-46 174c-4 15 -7 16 -24 16h-253l-96 -313h150c17 0 19 2 26 13l76 118h18l-90 -297h-18l-5 117c0 11 -1 13 -18 13h-150l-105 -345h296c16 0 19 2 32 14l195 178h18l-137 -224
h-605zM696 854c-35 0 -64 29 -64 64c0 33 29 64 64 64s64 -31 64 -64c0 -35 -29 -64 -64 -64zM464 854c-35 0 -64 29 -64 64c0 33 29 64 64 64s64 -31 64 -64c0 -35 -29 -64 -64 -64z" />
    <glyph glyph-name="Igrave" unicode="&#xcc;" horiz-adv-x="389" 
d="M-22 0l7 24l46 3c31 3 47 8 56 36l193 632c9 28 -6 33 -34 36l-44 3l8 24h282l-8 -24l-46 -3c-31 -3 -47 -8 -56 -36l-194 -632c-9 -28 6 -33 35 -36l44 -3l-7 -24h-282zM424 839h-17l-163 131l1 2h114z" />
    <glyph glyph-name="Iacute" unicode="&#xcd;" horiz-adv-x="389" 
d="M-22 0l7 24l46 3c31 3 47 8 56 36l193 632c9 28 -6 33 -34 36l-44 3l8 24h282l-8 -24l-46 -3c-31 -3 -47 -8 -56 -36l-194 -632c-9 -28 6 -33 35 -36l44 -3l-7 -24h-282zM353 839l147 133h127l-1 -2l-253 -131h-20z" />
    <glyph glyph-name="Icircumflex" unicode="&#xce;" horiz-adv-x="389" 
d="M-22 0l7 24l46 3c31 3 47 8 56 36l193 632c9 28 -6 33 -34 36l-44 3l8 24h282l-8 -24l-46 -3c-31 -3 -47 -8 -56 -36l-194 -632c-9 -28 6 -33 35 -36l44 -3l-7 -24h-282zM225 833l216 148h10l80 -148h-17l-83 73l-185 -73h-21z" />
    <glyph glyph-name="Idieresis" unicode="&#xcf;" horiz-adv-x="389" 
d="M-22 0l7 24l46 3c31 3 47 8 56 36l193 632c9 28 -6 33 -34 36l-44 3l8 24h282l-8 -24l-46 -3c-31 -3 -47 -8 -56 -36l-194 -632c-9 -28 6 -33 35 -36l44 -3l-7 -24h-282zM524 854c-35 0 -64 29 -64 64c0 33 29 64 64 64s64 -31 64 -64c0 -35 -29 -64 -64 -64zM292 854
c-35 0 -64 29 -64 64c0 33 29 64 64 64s64 -31 64 -64c0 -35 -29 -64 -64 -64z" />
    <glyph glyph-name="Eth" unicode="&#xd0;" horiz-adv-x="855" 
d="M-22 0l7 24l46 3c31 3 47 8 56 36l193 632c9 28 -6 33 -34 36l-44 3l8 24h252c245 0 398 -90 398 -274c0 -267 -250 -484 -591 -484h-291zM178 31h97c281 0 472 214 472 469c0 153 -102 227 -281 227h-75zM89 378l12 40h374l-13 -40h-373z" />
    <glyph glyph-name="Ntilde" unicode="&#xd1;" horiz-adv-x="885" 
d="M666 -19l-351 701l-189 -619c-9 -28 6 -33 34 -36l44 -3l-7 -24h-219l7 24l46 3c31 3 47 8 56 36l194 632c9 28 -6 33 -34 36l-44 3l7 24h183l292 -590l163 527c9 28 -6 33 -34 36l-44 3l8 24h219l-8 -24l-46 -3c-31 -3 -47 -8 -56 -36l-218 -714h-3zM719 832
c-69 0 -95 68 -151 68c-32 0 -58 -17 -73 -61h-17c15 80 51 131 107 131c68 0 87 -68 148 -68c31 0 54 20 67 59h16c-19 -93 -54 -129 -97 -129z" />
    <glyph glyph-name="Ograve" unicode="&#xd2;" horiz-adv-x="881" 
d="M371 -12c-164 0 -298 103 -298 284c0 225 215 503 518 503c164 0 298 -103 298 -284c0 -225 -214 -503 -518 -503zM389 17c206 0 382 225 382 476c0 152 -71 252 -198 252c-206 0 -382 -224 -382 -475c0 -153 71 -253 198 -253zM675 839h-17l-163 131l1 2h114z" />
    <glyph glyph-name="Oacute" unicode="&#xd3;" horiz-adv-x="881" 
d="M371 -12c-164 0 -298 103 -298 284c0 225 215 503 518 503c164 0 298 -103 298 -284c0 -225 -214 -503 -518 -503zM389 17c206 0 382 225 382 476c0 152 -71 252 -198 252c-206 0 -382 -224 -382 -475c0 -153 71 -253 198 -253zM604 839l147 133h127l-1 -2l-253 -131h-20
z" />
    <glyph glyph-name="Ocircumflex" unicode="&#xd4;" horiz-adv-x="881" 
d="M371 -12c-164 0 -298 103 -298 284c0 225 215 503 518 503c164 0 298 -103 298 -284c0 -225 -214 -503 -518 -503zM389 17c206 0 382 225 382 476c0 152 -71 252 -198 252c-206 0 -382 -224 -382 -475c0 -153 71 -253 198 -253zM476 833l216 148h10l80 -148h-17l-83 73
l-185 -73h-21z" />
    <glyph glyph-name="Otilde" unicode="&#xd5;" horiz-adv-x="881" 
d="M371 -12c-164 0 -298 103 -298 284c0 225 215 503 518 503c164 0 298 -103 298 -284c0 -225 -214 -503 -518 -503zM389 17c206 0 382 225 382 476c0 152 -71 252 -198 252c-206 0 -382 -224 -382 -475c0 -153 71 -253 198 -253zM725 832c-69 0 -95 68 -151 68
c-32 0 -58 -17 -73 -61h-17c15 80 51 131 107 131c68 0 87 -68 148 -68c31 0 54 20 67 59h16c-19 -93 -54 -129 -97 -129z" />
    <glyph glyph-name="Odieresis" unicode="&#xd6;" horiz-adv-x="881" 
d="M371 -12c-164 0 -298 103 -298 284c0 225 215 503 518 503c164 0 298 -103 298 -284c0 -225 -214 -503 -518 -503zM389 17c206 0 382 225 382 476c0 152 -71 252 -198 252c-206 0 -382 -224 -382 -475c0 -153 71 -253 198 -253zM775 854c-35 0 -64 29 -64 64
c0 33 29 64 64 64s64 -31 64 -64c0 -35 -29 -64 -64 -64zM543 854c-35 0 -64 29 -64 64c0 33 29 64 64 64s64 -31 64 -64c0 -35 -29 -64 -64 -64z" />
    <glyph glyph-name="multiply" unicode="&#xd7;" horiz-adv-x="653" 
d="M136 32l-36 35l193 193l-193 194l36 35l193 -193l193 193l35 -35l-193 -193l193 -194l-35 -36l-193 194z" />
    <glyph glyph-name="Oslash" unicode="&#xd8;" horiz-adv-x="881" 
d="M371 -12c-164 0 -298 103 -298 284c0 225 215 503 518 503c164 0 298 -103 298 -284c0 -225 -214 -503 -518 -503zM389 17c206 0 382 225 382 476c0 152 -71 252 -198 252c-206 0 -382 -224 -382 -475c0 -153 71 -253 198 -253zM53 -68l-30 30l886 871l29 -29z" />
    <glyph glyph-name="Ugrave" unicode="&#xd9;" horiz-adv-x="863" 
d="M379 -12c-200 0 -305 96 -236 317l119 390c8 28 -6 33 -35 36l-43 3l7 24h282l-7 -24l-46 -3c-31 -3 -48 -8 -57 -36l-122 -401c-51 -168 0 -247 161 -247c165 0 266 89 317 256l120 392c9 28 -6 33 -34 36l-50 3l7 24h225l-7 -24l-46 -3c-31 -3 -47 -8 -56 -36
l-122 -398c-63 -203 -178 -309 -377 -309zM668 839h-17l-163 131l1 2h114z" />
    <glyph glyph-name="Uacute" unicode="&#xda;" horiz-adv-x="863" 
d="M379 -12c-200 0 -305 96 -236 317l119 390c8 28 -6 33 -35 36l-43 3l7 24h282l-7 -24l-46 -3c-31 -3 -48 -8 -57 -36l-122 -401c-51 -168 0 -247 161 -247c165 0 266 89 317 256l120 392c9 28 -6 33 -34 36l-50 3l7 24h225l-7 -24l-46 -3c-31 -3 -47 -8 -56 -36
l-122 -398c-63 -203 -178 -309 -377 -309zM597 839l147 133h127l-1 -2l-253 -131h-20z" />
    <glyph glyph-name="Ucircumflex" unicode="&#xdb;" horiz-adv-x="863" 
d="M379 -12c-200 0 -305 96 -236 317l119 390c8 28 -6 33 -35 36l-43 3l7 24h282l-7 -24l-46 -3c-31 -3 -48 -8 -57 -36l-122 -401c-51 -168 0 -247 161 -247c165 0 266 89 317 256l120 392c9 28 -6 33 -34 36l-50 3l7 24h225l-7 -24l-46 -3c-31 -3 -47 -8 -56 -36
l-122 -398c-63 -203 -178 -309 -377 -309zM469 833l216 148h10l80 -148h-17l-83 73l-185 -73h-21z" />
    <glyph glyph-name="Udieresis" unicode="&#xdc;" horiz-adv-x="863" 
d="M379 -12c-200 0 -305 96 -236 317l119 390c8 28 -6 33 -35 36l-43 3l7 24h282l-7 -24l-46 -3c-31 -3 -48 -8 -57 -36l-122 -401c-51 -168 0 -247 161 -247c165 0 266 89 317 256l120 392c9 28 -6 33 -34 36l-50 3l7 24h225l-7 -24l-46 -3c-31 -3 -47 -8 -56 -36
l-122 -398c-63 -203 -178 -309 -377 -309zM768 854c-35 0 -64 29 -64 64c0 33 29 64 64 64s64 -31 64 -64c0 -35 -29 -64 -64 -64zM536 854c-35 0 -64 29 -64 64c0 33 29 64 64 64s64 -31 64 -64c0 -35 -29 -64 -64 -64z" />
    <glyph glyph-name="Yacute" unicode="&#xdd;" horiz-adv-x="779" 
d="M158 0l8 25l60 3c31 3 47 7 56 35l86 279l-140 355c-9 24 -13 31 -44 34l-43 3l8 24h283l-8 -24l-50 -3c-32 -3 -50 -11 -41 -34l123 -315l317 315c24 23 16 31 -15 34l-61 3l7 24h243l-8 -24l-44 -3c-31 -3 -46 -11 -70 -34l-356 -355l-86 -279c-9 -28 6 -34 35 -35
l60 -3l-8 -25h-312zM553 839l147 133h127l-1 -2l-253 -131h-20z" />
    <glyph glyph-name="Thorn" unicode="&#xde;" horiz-adv-x="730" 
d="M202 734l8 24h281l-7 -24l-46 -3c-31 -3 -48 -8 -55 -32l-34 -110h117c155 0 276 -33 276 -150c0 -143 -136 -257 -394 -257h-123l-37 -119c-9 -28 6 -34 35 -35l86 -3l-8 -25h-323l7 24l46 3c31 3 47 8 56 36l193 632c9 28 -6 33 -34 36zM234 213h117
c188 0 278 110 278 229c0 85 -68 117 -172 117h-118z" />
    <glyph glyph-name="germandbls" unicode="&#xdf;" horiz-adv-x="668" 
d="M-165 -260c-56 0 -85 36 -85 66c0 27 22 52 59 55c21 -37 54 -82 83 -82c34 0 56 29 104 167l174 505h-73l7 23c49 3 75 11 90 40l8 17c56 122 148 250 324 250c95 0 152 -35 152 -98c0 -60 -46 -96 -118 -128l-45 -20c-48 -21 -72 -41 -72 -68c0 -25 20 -54 56 -97
l24 -29c44 -53 75 -100 75 -157c0 -116 -107 -196 -248 -196c-102 0 -156 55 -156 98c0 36 42 55 78 45c5 -72 30 -116 101 -116c76 0 147 43 147 120c0 49 -30 90 -65 134l-23 29c-51 64 -69 93 -69 130c0 47 34 84 117 117l15 6c72 29 108 71 108 126c0 51 -38 79 -93 79
c-84 0 -162 -59 -207 -188l-167 -483c-88 -254 -218 -345 -301 -345z" />
    <glyph glyph-name="agrave" unicode="&#xe0;" horiz-adv-x="567" 
d="M103 -12c-60 0 -93 41 -93 105c0 180 200 425 350 425c47 0 68 -34 71 -71h1l24 66h88l-155 -422c-19 -51 -15 -65 4 -65c32 0 86 38 141 138l20 -9c-56 -107 -122 -167 -213 -167c-64 0 -61 38 -37 102l36 95h-2c-80 -129 -155 -197 -235 -197zM153 39
c70 0 178 141 231 281c45 123 29 175 -24 175c-116 0 -248 -245 -248 -391c0 -41 14 -65 41 -65zM408 597h-17l-113 172l3 7h85z" />
    <glyph glyph-name="aacute" unicode="&#xe1;" horiz-adv-x="567" 
d="M103 -12c-60 0 -93 41 -93 105c0 180 200 425 350 425c47 0 68 -34 71 -71h1l24 66h88l-155 -422c-19 -51 -15 -65 4 -65c32 0 86 38 141 138l20 -9c-56 -107 -122 -167 -213 -167c-64 0 -61 38 -37 102l36 95h-2c-80 -129 -155 -197 -235 -197zM153 39
c70 0 178 141 231 281c45 123 29 175 -24 175c-116 0 -248 -245 -248 -391c0 -41 14 -65 41 -65zM364 597l144 179h111l-3 -7l-231 -172h-21z" />
    <glyph glyph-name="acircumflex" unicode="&#xe2;" horiz-adv-x="567" 
d="M103 -12c-60 0 -93 41 -93 105c0 180 200 425 350 425c47 0 68 -34 71 -71h1l24 66h88l-155 -422c-19 -51 -15 -65 4 -65c32 0 86 38 141 138l20 -9c-56 -107 -122 -167 -213 -167c-64 0 -61 38 -37 102l36 95h-2c-80 -129 -155 -197 -235 -197zM153 39
c70 0 178 141 231 281c45 123 29 175 -24 175c-116 0 -248 -245 -248 -391c0 -41 14 -65 41 -65zM239 597l239 193h8l68 -193h-19l-77 105l-198 -105h-21z" />
    <glyph glyph-name="atilde" unicode="&#xe3;" horiz-adv-x="567" 
d="M103 -12c-60 0 -93 41 -93 105c0 180 200 425 350 425c47 0 68 -34 71 -71h1l24 66h88l-155 -422c-19 -51 -15 -65 4 -65c32 0 86 38 141 138l20 -9c-56 -107 -122 -167 -213 -167c-64 0 -61 38 -37 102l36 95h-2c-80 -129 -155 -197 -235 -197zM153 39
c70 0 178 141 231 281c45 123 29 175 -24 175c-116 0 -248 -245 -248 -391c0 -41 14 -65 41 -65zM515 629c-69 0 -95 68 -151 68c-32 0 -58 -16 -73 -61h-17c15 80 51 131 107 131c68 0 87 -68 148 -68c31 0 54 20 67 59h16c-19 -92 -54 -129 -97 -129z" />
    <glyph glyph-name="adieresis" unicode="&#xe4;" horiz-adv-x="567" 
d="M103 -12c-60 0 -93 41 -93 105c0 180 200 425 350 425c47 0 68 -34 71 -71h1l24 66h88l-155 -422c-19 -51 -15 -65 4 -65c32 0 86 38 141 138l20 -9c-56 -107 -122 -167 -213 -167c-64 0 -61 38 -37 102l36 95h-2c-80 -129 -155 -197 -235 -197zM153 39
c70 0 178 141 231 281c45 123 29 175 -24 175c-116 0 -248 -245 -248 -391c0 -41 14 -65 41 -65zM325 642c-35 0 -64 30 -64 65c0 33 29 63 64 63s64 -30 64 -63c0 -35 -29 -65 -64 -65zM557 642c-35 0 -64 30 -64 65c0 33 29 63 64 63s64 -30 64 -63c0 -35 -29 -65 -64 -65
z" />
    <glyph glyph-name="aring" unicode="&#xe5;" horiz-adv-x="567" 
d="M103 -12c-60 0 -93 41 -93 105c0 180 200 425 350 425c47 0 68 -34 71 -71h1l24 66h88l-155 -422c-19 -51 -15 -65 4 -65c32 0 86 38 141 138l20 -9c-56 -107 -122 -167 -213 -167c-64 0 -61 38 -37 102l36 95h-2c-80 -129 -155 -197 -235 -197zM153 39
c70 0 178 141 231 281c45 123 29 175 -24 175c-116 0 -248 -245 -248 -391c0 -41 14 -65 41 -65zM438 585c-63 0 -115 49 -115 111c0 61 52 112 115 112c65 0 117 -51 117 -112c0 -62 -52 -111 -117 -111zM438 621c45 0 76 31 76 75s-31 75 -76 75c-44 0 -75 -31 -75 -75
s31 -75 75 -75z" />
    <glyph glyph-name="ae" unicode="&#xe6;" horiz-adv-x="746" 
d="M659 187l21 -7c-63 -129 -132 -192 -241 -192c-76 0 -126 44 -133 127c-53 -72 -126 -127 -199 -127c-64 0 -104 37 -104 112c0 119 100 259 275 339c113 53 228 78 372 78c76 0 106 -38 106 -90c0 -41 -27 -89 -78 -116l-238 -2c-20 -47 -32 -97 -32 -152
c0 -87 40 -123 85 -123c56 0 113 49 166 153zM108 111c0 -47 18 -72 53 -72c44 0 97 34 144 105c3 151 127 299 251 352c-93 -11 -174 -35 -250 -78c-132 -77 -198 -199 -198 -307zM699 450c0 30 -18 45 -53 45c-70 0 -151 -69 -198 -167h54c116 0 197 57 197 122z" />
    <glyph glyph-name="ccedilla" unicode="&#xe7;" horiz-adv-x="452" 
d="M160 -12c-84 0 -134 53 -134 149c0 184 167 380 333 380c67 0 100 -33 100 -81c0 -49 -35 -81 -94 -72c22 73 19 130 -24 130c-95 0 -212 -167 -212 -337c0 -86 41 -123 87 -123c55 0 104 41 155 149l20 -8c-59 -133 -131 -187 -231 -187zM56 -257c-64 0 -103 34 -103 65
c0 23 21 34 42 23c-3 -44 29 -66 68 -66c36 0 58 14 58 39c0 28 -37 52 -84 87l140 109h33l-109 -86c35 -25 63 -52 63 -91c0 -47 -44 -80 -108 -80z" />
    <glyph glyph-name="egrave" unicode="&#xe8;" horiz-adv-x="465" 
d="M158 -12c-84 0 -134 53 -134 149c0 191 196 380 345 380c76 0 106 -38 106 -90c0 -41 -27 -89 -78 -116l-238 -2c-20 -47 -32 -97 -32 -152c0 -87 40 -123 85 -123c56 0 113 49 166 153l21 -7c-63 -129 -132 -192 -241 -192zM365 495c-70 0 -151 -69 -198 -167h54
c116 0 197 57 197 122c0 30 -18 45 -53 45zM404 597h-17l-113 172l3 7h85z" />
    <glyph glyph-name="eacute" unicode="&#xe9;" horiz-adv-x="465" 
d="M158 -12c-84 0 -134 53 -134 149c0 191 196 380 345 380c76 0 106 -38 106 -90c0 -41 -27 -89 -78 -116l-238 -2c-20 -47 -32 -97 -32 -152c0 -87 40 -123 85 -123c56 0 113 49 166 153l21 -7c-63 -129 -132 -192 -241 -192zM365 495c-70 0 -151 -69 -198 -167h54
c116 0 197 57 197 122c0 30 -18 45 -53 45zM360 597l144 179h111l-3 -7l-231 -172h-21z" />
    <glyph glyph-name="ecircumflex" unicode="&#xea;" horiz-adv-x="465" 
d="M158 -12c-84 0 -134 53 -134 149c0 191 196 380 345 380c76 0 106 -38 106 -90c0 -41 -27 -89 -78 -116l-238 -2c-20 -47 -32 -97 -32 -152c0 -87 40 -123 85 -123c56 0 113 49 166 153l21 -7c-63 -129 -132 -192 -241 -192zM365 495c-70 0 -151 -69 -198 -167h54
c116 0 197 57 197 122c0 30 -18 45 -53 45zM235 597l239 193h8l68 -193h-19l-77 105l-198 -105h-21z" />
    <glyph glyph-name="edieresis" unicode="&#xeb;" horiz-adv-x="465" 
d="M158 -12c-84 0 -134 53 -134 149c0 191 196 380 345 380c76 0 106 -38 106 -90c0 -41 -27 -89 -78 -116l-238 -2c-20 -47 -32 -97 -32 -152c0 -87 40 -123 85 -123c56 0 113 49 166 153l21 -7c-63 -129 -132 -192 -241 -192zM365 495c-70 0 -151 -69 -198 -167h54
c116 0 197 57 197 122c0 30 -18 45 -53 45zM321 642c-35 0 -64 30 -64 65c0 33 29 63 64 63s64 -30 64 -63c0 -35 -29 -65 -64 -65zM553 642c-35 0 -64 30 -64 65c0 33 29 63 64 63s64 -30 64 -63c0 -35 -29 -65 -64 -65z" />
    <glyph glyph-name="igrave" unicode="&#xec;" horiz-adv-x="324" 
d="M91 -12c-64 0 -70 35 -46 99l144 374l-92 4l8 21l200 32l-165 -427c-20 -51 -17 -65 4 -65c32 0 88 38 141 138l20 -9c-56 -107 -122 -167 -214 -167zM281 597h-17l-113 172l3 7h85z" />
    <glyph glyph-name="iacute" unicode="&#xed;" horiz-adv-x="324" 
d="M91 -12c-64 0 -70 35 -46 99l144 374l-92 4l8 21l200 32l-165 -427c-20 -51 -17 -65 4 -65c32 0 88 38 141 138l20 -9c-56 -107 -122 -167 -214 -167zM237 597l144 179h111l-3 -7l-231 -172h-21z" />
    <glyph glyph-name="icircumflex" unicode="&#xee;" horiz-adv-x="324" 
d="M91 -12c-64 0 -70 35 -46 99l144 374l-92 4l8 21l200 32l-165 -427c-20 -51 -17 -65 4 -65c32 0 88 38 141 138l20 -9c-56 -107 -122 -167 -214 -167zM112 597l239 193h8l68 -193h-19l-77 105l-198 -105h-21z" />
    <glyph glyph-name="idieresis" unicode="&#xef;" horiz-adv-x="324" 
d="M91 -12c-64 0 -70 35 -46 99l144 374l-92 4l8 21l200 32l-165 -427c-20 -51 -17 -65 4 -65c32 0 88 38 141 138l20 -9c-56 -107 -122 -167 -214 -167zM214 642c-35 0 -64 30 -64 65c0 33 29 63 64 63s64 -30 64 -63c0 -35 -29 -65 -64 -65zM414 642c-35 0 -64 30 -64 65
c0 33 29 63 64 63s64 -30 64 -63c0 -35 -29 -65 -64 -65z" />
    <glyph glyph-name="eth" unicode="&#xf0;" horiz-adv-x="527" 
d="M158 -12c-81 0 -138 45 -138 133c0 156 159 396 310 396c26 0 47 -7 63 -21c-13 61 -39 120 -83 171l-147 -68l-14 31l137 63c-32 31 -71 59 -119 83l14 19c59 -20 111 -47 154 -80l165 76l14 -30l-150 -69c93 -81 141 -187 141 -292c0 -219 -168 -412 -347 -412z
M122 113c0 -60 22 -97 70 -97c101 0 209 148 209 393c0 11 0 22 -1 33c-7 35 -30 54 -65 54c-112 0 -213 -233 -213 -383z" />
    <glyph glyph-name="ntilde" unicode="&#xf1;" horiz-adv-x="607" 
d="M367 -12c-65 0 -79 38 -50 99l108 230c49 104 59 152 16 152c-39 0 -85 -52 -141 -125c-69 -93 -152 -230 -192 -335l-102 -19l181 471l-91 4l8 21l199 32l-142 -358h1c43 84 93 161 133 216c72 97 128 141 196 141c84 0 90 -71 30 -199l-106 -227c-23 -51 -16 -65 4 -65
c32 0 87 38 142 138l20 -9c-56 -107 -122 -167 -214 -167zM568 629c-69 0 -95 68 -151 68c-32 0 -58 -16 -73 -61h-17c15 80 51 131 107 131c68 0 87 -68 148 -68c31 0 54 20 67 59h16c-19 -92 -54 -129 -97 -129z" />
    <glyph glyph-name="ograve" unicode="&#xf2;" horiz-adv-x="543" 
d="M183 -12c-96 0 -155 65 -155 156c0 180 162 373 334 373c96 0 155 -64 155 -155c0 -181 -160 -374 -334 -374zM215 16c92 0 198 148 198 346c0 87 -30 127 -81 127c-93 0 -199 -147 -199 -345c0 -88 31 -128 82 -128zM401 597h-17l-113 172l3 7h85z" />
    <glyph glyph-name="oacute" unicode="&#xf3;" horiz-adv-x="543" 
d="M183 -12c-96 0 -155 65 -155 156c0 180 162 373 334 373c96 0 155 -64 155 -155c0 -181 -160 -374 -334 -374zM215 16c92 0 198 148 198 346c0 87 -30 127 -81 127c-93 0 -199 -147 -199 -345c0 -88 31 -128 82 -128zM357 597l144 179h111l-3 -7l-231 -172h-21z" />
    <glyph glyph-name="ocircumflex" unicode="&#xf4;" horiz-adv-x="543" 
d="M183 -12c-96 0 -155 65 -155 156c0 180 162 373 334 373c96 0 155 -64 155 -155c0 -181 -160 -374 -334 -374zM215 16c92 0 198 148 198 346c0 87 -30 127 -81 127c-93 0 -199 -147 -199 -345c0 -88 31 -128 82 -128zM232 597l239 193h8l68 -193h-19l-77 105l-198 -105
h-21z" />
    <glyph glyph-name="otilde" unicode="&#xf5;" horiz-adv-x="543" 
d="M183 -12c-96 0 -155 65 -155 156c0 180 162 373 334 373c96 0 155 -64 155 -155c0 -181 -160 -374 -334 -374zM215 16c92 0 198 148 198 346c0 87 -30 127 -81 127c-93 0 -199 -147 -199 -345c0 -88 31 -128 82 -128zM508 629c-69 0 -95 68 -151 68
c-32 0 -58 -16 -73 -61h-17c15 80 51 131 107 131c68 0 87 -68 148 -68c31 0 54 20 67 59h16c-19 -92 -54 -129 -97 -129z" />
    <glyph glyph-name="odieresis" unicode="&#xf6;" horiz-adv-x="543" 
d="M183 -12c-96 0 -155 65 -155 156c0 180 162 373 334 373c96 0 155 -64 155 -155c0 -181 -160 -374 -334 -374zM215 16c92 0 198 148 198 346c0 87 -30 127 -81 127c-93 0 -199 -147 -199 -345c0 -88 31 -128 82 -128zM318 642c-35 0 -64 30 -64 65c0 33 29 63 64 63
s64 -30 64 -63c0 -35 -29 -65 -64 -65zM550 642c-35 0 -64 30 -64 65c0 33 29 63 64 63s64 -30 64 -63c0 -35 -29 -65 -64 -65z" />
    <glyph glyph-name="divide" unicode="&#xf7;" horiz-adv-x="653" 
d="M332 386c-35 0 -64 30 -64 65c0 33 29 63 64 63s64 -30 64 -63c0 -35 -29 -65 -64 -65zM70 237v49h523v-49h-523zM332 10c-35 0 -64 30 -64 65c0 33 29 63 64 63s64 -30 64 -63c0 -35 -29 -65 -64 -65z" />
    <glyph glyph-name="oslash" unicode="&#xf8;" horiz-adv-x="583" 
d="M203 -12c-96 0 -155 65 -155 156c0 180 162 373 334 373c96 0 155 -64 155 -155c0 -181 -160 -374 -334 -374zM235 16c92 0 198 148 198 346c0 87 -30 127 -81 127c-93 0 -199 -147 -199 -345c0 -88 31 -128 82 -128zM618 561l23 -26l-673 -589l-23 26z" />
    <glyph glyph-name="ugrave" unicode="&#xf9;" horiz-adv-x="606" 
d="M310 518l-141 -329c-45 -107 -56 -153 -17 -153s86 53 142 128c67 91 147 225 192 333l99 15l-162 -421c-20 -51 -17 -65 3 -65c32 0 88 38 141 138l21 -9c-56 -107 -122 -167 -214 -167c-65 0 -72 35 -47 99l98 248h-1c-39 -77 -88 -153 -127 -205
c-71 -96 -126 -142 -195 -142c-83 0 -89 63 -30 200l116 273l-92 4l8 21zM422 597h-17l-113 172l3 7h85z" />
    <glyph glyph-name="uacute" unicode="&#xfa;" horiz-adv-x="606" 
d="M310 518l-141 -329c-45 -107 -56 -153 -17 -153s86 53 142 128c67 91 147 225 192 333l99 15l-162 -421c-20 -51 -17 -65 3 -65c32 0 88 38 141 138l21 -9c-56 -107 -122 -167 -214 -167c-65 0 -72 35 -47 99l98 248h-1c-39 -77 -88 -153 -127 -205
c-71 -96 -126 -142 -195 -142c-83 0 -89 63 -30 200l116 273l-92 4l8 21zM378 597l144 179h111l-3 -7l-231 -172h-21z" />
    <glyph glyph-name="ucircumflex" unicode="&#xfb;" horiz-adv-x="606" 
d="M310 518l-141 -329c-45 -107 -56 -153 -17 -153s86 53 142 128c67 91 147 225 192 333l99 15l-162 -421c-20 -51 -17 -65 3 -65c32 0 88 38 141 138l21 -9c-56 -107 -122 -167 -214 -167c-65 0 -72 35 -47 99l98 248h-1c-39 -77 -88 -153 -127 -205
c-71 -96 -126 -142 -195 -142c-83 0 -89 63 -30 200l116 273l-92 4l8 21zM253 597l239 193h8l68 -193h-19l-77 105l-198 -105h-21z" />
    <glyph glyph-name="udieresis" unicode="&#xfc;" horiz-adv-x="606" 
d="M310 518l-141 -329c-45 -107 -56 -153 -17 -153s86 53 142 128c67 91 147 225 192 333l99 15l-162 -421c-20 -51 -17 -65 3 -65c32 0 88 38 141 138l21 -9c-56 -107 -122 -167 -214 -167c-65 0 -72 35 -47 99l98 248h-1c-39 -77 -88 -153 -127 -205
c-71 -96 -126 -142 -195 -142c-83 0 -89 63 -30 200l116 273l-92 4l8 21zM339 642c-35 0 -64 30 -64 65c0 33 29 63 64 63s64 -30 64 -63c0 -35 -29 -65 -64 -65zM571 642c-35 0 -64 30 -64 65c0 33 29 63 64 63s64 -30 64 -63c0 -35 -29 -65 -64 -65z" />
    <glyph glyph-name="yacute" unicode="&#xfd;" horiz-adv-x="575" 
d="M-92 -260c-49 0 -74 18 -74 54c0 19 10 37 30 50c25 -23 47 -33 82 -33c52 0 110 29 217 168l-5 478h-88l1 21l181 40l2 -419l180 237c101 135 137 181 181 181c24 0 43 -17 43 -44c0 -16 -5 -31 -14 -38c-81 -24 -130 -46 -207 -145l-241 -313
c-96 -126 -205 -237 -288 -237zM396 597l144 179h111l-3 -7l-231 -172h-21z" />
    <glyph glyph-name="thorn" unicode="&#xfe;" horiz-adv-x="545" 
d="M365 785l-119 -347c43 48 104 79 160 79c79 0 126 -47 126 -127c0 -189 -205 -412 -440 -400l-82 -238h-94l324 944l-78 39l3 6zM344 463c-36 0 -74 -16 -106 -47l-139 -404c178 -8 329 206 329 351c0 72 -33 100 -84 100z" />
    <glyph glyph-name="ydieresis" unicode="&#xff;" horiz-adv-x="575" 
d="M-92 -260c-49 0 -74 18 -74 54c0 19 10 37 30 50c25 -23 47 -33 82 -33c52 0 110 29 217 168l-5 478h-88l1 21l181 40l2 -419l180 237c101 135 137 181 181 181c24 0 43 -17 43 -44c0 -16 -5 -31 -14 -38c-81 -24 -130 -46 -207 -145l-241 -313
c-96 -126 -205 -237 -288 -237zM357 642c-35 0 -64 30 -64 65c0 33 29 63 64 63s64 -30 64 -63c0 -35 -29 -65 -64 -65zM589 642c-35 0 -64 30 -64 65c0 33 29 63 64 63s64 -30 64 -63c0 -35 -29 -65 -64 -65z" />
    <glyph glyph-name="Abreve" unicode="&#x102;" horiz-adv-x="816" 
d="M-141 0l8 24l44 3c31 3 58 11 82 34l792 721h18l-178 -719c-7 -28 5 -33 34 -36l44 -3l-7 -24h-282l7 24l46 3c31 3 49 8 56 36l55 216h-293l-238 -218c-23 -21 -28 -31 4 -34l60 -3l-8 -24h-244zM329 319h259l79 309zM800 830c-71 0 -140 40 -113 156h37
c-17 -84 18 -120 83 -120c61 0 118 32 145 120h39c-38 -126 -118 -156 -191 -156z" />
    <glyph glyph-name="Amacron" unicode="&#x100;" horiz-adv-x="816" 
d="M-141 0l8 24l44 3c31 3 58 11 82 34l792 721h18l-178 -719c-7 -28 5 -33 34 -36l44 -3l-7 -24h-282l7 24l46 3c31 3 49 8 56 36l55 216h-293l-238 -218c-23 -21 -28 -31 4 -34l60 -3l-8 -24h-244zM329 319h259l79 309zM664 882l15 44h281l-15 -44h-281z" />
    <glyph glyph-name="Aogonek" unicode="&#x104;" horiz-adv-x="816" 
d="M-141 0l8 24l44 3c31 3 58 11 82 34l792 721h18l-178 -719c-7 -28 5 -33 34 -36l44 -3l-7 -24h-282l7 24l46 3c31 3 49 8 56 36l55 216h-293l-238 -218c-23 -21 -28 -31 4 -34l60 -3l-8 -24h-244zM329 319h259l79 309zM499 -233c-49 0 -84 22 -84 65
c0 62 108 131 180 168h25c-56 -43 -142 -94 -142 -150c0 -31 21 -48 60 -48c24 0 50 8 70 16l-5 -22c-27 -17 -68 -29 -104 -29z" />
    <glyph glyph-name="Cacute" unicode="&#x106;" horiz-adv-x="793" 
d="M384 -12c-161 0 -305 91 -305 302c0 258 238 485 507 485c88 0 184 -22 232 -51l3 -211h-18l-64 149c-22 51 -32 62 -66 72c-23 7 -56 9 -83 9c-243 0 -392 -219 -392 -490c0 -153 67 -233 191 -233c33 0 61 1 88 8c13 3 28 12 44 26l217 197h18l-138 -221
c-48 -21 -146 -42 -234 -42zM623 839l147 133h127l-1 -2l-253 -131h-20z" />
    <glyph glyph-name="Ccaron" unicode="&#x10c;" horiz-adv-x="793" 
d="M384 -12c-161 0 -305 91 -305 302c0 258 238 485 507 485c88 0 184 -22 232 -51l3 -211h-18l-64 149c-22 51 -32 62 -66 72c-23 7 -56 9 -83 9c-243 0 -392 -219 -392 -490c0 -153 67 -233 191 -233c33 0 61 1 88 8c13 3 28 12 44 26l217 197h18l-138 -221
c-48 -21 -146 -42 -234 -42zM633 833l-80 149h17l82 -73l186 73h21l-216 -149h-10z" />
    <glyph glyph-name="Ccircumflex" unicode="&#x108;" horiz-adv-x="793" 
d="M384 -12c-161 0 -305 91 -305 302c0 258 238 485 507 485c88 0 184 -22 232 -51l3 -211h-18l-64 149c-22 51 -32 62 -66 72c-23 7 -56 9 -83 9c-243 0 -392 -219 -392 -490c0 -153 67 -233 191 -233c33 0 61 1 88 8c13 3 28 12 44 26l217 197h18l-138 -221
c-48 -21 -146 -42 -234 -42zM495 833l216 148h10l80 -148h-17l-83 73l-185 -73h-21z" />
    <glyph glyph-name="Cdotaccent" unicode="&#x10a;" horiz-adv-x="793" 
d="M384 -12c-161 0 -305 91 -305 302c0 258 238 485 507 485c88 0 184 -22 232 -51l3 -211h-18l-64 149c-22 51 -32 62 -66 72c-23 7 -56 9 -83 9c-243 0 -392 -219 -392 -490c0 -153 67 -233 191 -233c33 0 61 1 88 8c13 3 28 12 44 26l217 197h18l-138 -221
c-48 -21 -146 -42 -234 -42zM664 854c-35 0 -64 29 -64 64c0 33 29 64 64 64s64 -31 64 -64c0 -35 -29 -64 -64 -64z" />
    <glyph glyph-name="Dcaron" unicode="&#x10e;" horiz-adv-x="855" 
d="M-22 0l7 24l46 3c31 3 47 8 56 36l193 632c9 28 -6 33 -34 36l-44 3l8 24h252c245 0 398 -90 398 -274c0 -267 -250 -484 -591 -484h-291zM178 31h97c281 0 472 214 472 469c0 153 -102 227 -281 227h-75zM608 833l-80 149h17l82 -73l186 73h21l-216 -149h-10z" />
    <glyph glyph-name="Dcroat" unicode="&#x110;" horiz-adv-x="855" 
d="M-22 0l7 24l46 3c31 3 47 8 56 36l193 632c9 28 -6 33 -34 36l-44 3l8 24h252c245 0 398 -90 398 -274c0 -267 -250 -484 -591 -484h-291zM178 31h97c281 0 472 214 472 469c0 153 -102 227 -281 227h-75zM89 378l12 40h374l-13 -40h-373z" />
    <glyph glyph-name="Ebreve" unicode="&#x114;" horiz-adv-x="751" 
d="M-22 0l7 24l46 3c31 3 48 8 56 36l194 632c8 28 -6 33 -34 36l-44 3l7 24h557l-35 -222h-18l-46 174c-4 15 -7 16 -24 16h-253l-96 -313h150c17 0 19 2 26 13l76 118h18l-90 -297h-18l-5 117c0 11 -1 13 -18 13h-150l-105 -345h296c16 0 19 2 32 14l195 178h18l-137 -224
h-605zM562 830c-71 0 -140 40 -113 156h37c-17 -84 18 -120 83 -120c61 0 118 32 145 120h39c-38 -126 -118 -156 -191 -156z" />
    <glyph glyph-name="Ecaron" unicode="&#x11a;" horiz-adv-x="751" 
d="M-22 0l7 24l46 3c31 3 48 8 56 36l194 632c8 28 -6 33 -34 36l-44 3l7 24h557l-35 -222h-18l-46 174c-4 15 -7 16 -24 16h-253l-96 -313h150c17 0 19 2 26 13l76 118h18l-90 -297h-18l-5 117c0 11 -1 13 -18 13h-150l-105 -345h296c16 0 19 2 32 14l195 178h18l-137 -224
h-605zM535 833l-80 149h17l82 -73l186 73h21l-216 -149h-10z" />
    <glyph glyph-name="Emacron" unicode="&#x112;" horiz-adv-x="751" 
d="M-22 0l7 24l46 3c31 3 48 8 56 36l194 632c8 28 -6 33 -34 36l-44 3l7 24h557l-35 -222h-18l-46 174c-4 15 -7 16 -24 16h-253l-96 -313h150c17 0 19 2 26 13l76 118h18l-90 -297h-18l-5 117c0 11 -1 13 -18 13h-150l-105 -345h296c16 0 19 2 32 14l195 178h18l-137 -224
h-605zM426 882l15 44h281l-15 -44h-281z" />
    <glyph glyph-name="Eogonek" unicode="&#x118;" horiz-adv-x="751" 
d="M-22 0l7 24l46 3c31 3 48 8 56 36l194 632c8 28 -6 33 -34 36l-44 3l7 24h557l-35 -222h-18l-46 174c-4 15 -7 16 -24 16h-253l-96 -313h150c17 0 19 2 26 13l76 118h18l-90 -297h-18l-5 117c0 11 -1 13 -18 13h-150l-105 -345h296c16 0 19 2 32 14l195 178h18l-137 -224
h-605zM462 -233c-49 0 -84 22 -84 65c0 62 108 131 180 168h25c-56 -43 -142 -94 -142 -150c0 -31 21 -48 60 -48c24 0 50 8 70 16l-5 -22c-27 -17 -68 -29 -104 -29z" />
    <glyph glyph-name="Edotaccent" unicode="&#x116;" horiz-adv-x="751" 
d="M-22 0l7 24l46 3c31 3 48 8 56 36l194 632c8 28 -6 33 -34 36l-44 3l7 24h557l-35 -222h-18l-46 174c-4 15 -7 16 -24 16h-253l-96 -313h150c17 0 19 2 26 13l76 118h18l-90 -297h-18l-5 117c0 11 -1 13 -18 13h-150l-105 -345h296c16 0 19 2 32 14l195 178h18l-137 -224
h-605zM566 854c-35 0 -64 29 -64 64c0 33 29 64 64 64s64 -31 64 -64c0 -35 -29 -64 -64 -64z" />
    <glyph glyph-name="Gbreve" unicode="&#x11e;" horiz-adv-x="875" 
d="M407 -12c-167 0 -327 91 -327 302c0 258 238 485 517 485c87 0 179 -22 227 -51l3 -211h-18l-64 149c-22 51 -32 62 -66 72c-23 7 -51 9 -78 9c-252 0 -402 -219 -402 -490c0 -153 87 -232 216 -232c60 0 128 15 184 40l83 224c11 28 -4 34 -33 35l-139 3l10 28h378
l-10 -30l-91 -1l-77 -206l-21 -71c-113 -13 -187 -55 -292 -55zM654 830c-71 0 -140 40 -113 156h37c-17 -84 18 -120 83 -120c61 0 118 32 145 120h39c-38 -126 -118 -156 -191 -156z" />
    <glyph glyph-name="Gcircumflex" unicode="&#x11c;" horiz-adv-x="875" 
d="M407 -12c-167 0 -327 91 -327 302c0 258 238 485 517 485c87 0 179 -22 227 -51l3 -211h-18l-64 149c-22 51 -32 62 -66 72c-23 7 -51 9 -78 9c-252 0 -402 -219 -402 -490c0 -153 87 -232 216 -232c60 0 128 15 184 40l83 224c11 28 -4 34 -33 35l-139 3l10 28h378
l-10 -30l-91 -1l-77 -206l-21 -71c-113 -13 -187 -55 -292 -55zM489 833l216 148h10l80 -148h-17l-83 73l-185 -73h-21z" />
    <glyph glyph-name="uni0122" unicode="&#x122;" horiz-adv-x="875" 
d="M407 -12c-167 0 -327 91 -327 302c0 258 238 485 517 485c87 0 179 -22 227 -51l3 -211h-18l-64 149c-22 51 -32 62 -66 72c-23 7 -51 9 -78 9c-252 0 -402 -219 -402 -490c0 -153 87 -232 216 -232c60 0 128 15 184 40l83 224c11 28 -4 34 -33 35l-139 3l10 28h378
l-10 -30l-91 -1l-77 -206l-21 -71c-113 -13 -187 -55 -292 -55zM226 -343l-10 22c85 51 133 100 133 140c0 27 -17 42 -45 49c-1 32 21 56 52 56c37 1 67 -25 67 -65c0 -63 -76 -135 -197 -202z" />
    <glyph glyph-name="Gdotaccent" unicode="&#x120;" horiz-adv-x="875" 
d="M407 -12c-167 0 -327 91 -327 302c0 258 238 485 517 485c87 0 179 -22 227 -51l3 -211h-18l-64 149c-22 51 -32 62 -66 72c-23 7 -51 9 -78 9c-252 0 -402 -219 -402 -490c0 -153 87 -232 216 -232c60 0 128 15 184 40l83 224c11 28 -4 34 -33 35l-139 3l10 28h378
l-10 -30l-91 -1l-77 -206l-21 -71c-113 -13 -187 -55 -292 -55zM658 854c-35 0 -64 29 -64 64c0 33 29 64 64 64s64 -31 64 -64c0 -35 -29 -64 -64 -64z" />
    <glyph glyph-name="Hbar" unicode="&#x126;" horiz-adv-x="898" 
d="M-22 0l7 24l46 3c31 3 47 8 56 36l193 632c9 28 -6 33 -34 36l-44 3l8 24h282l-8 -24l-46 -3c-31 -3 -48 -8 -56 -36l-84 -277h406l85 277c9 28 -6 33 -35 36l-43 3l7 24h282l-7 -24l-46 -3c-31 -3 -48 -8 -57 -36l-193 -632c-9 -28 6 -33 34 -36l44 -3l-7 -24h-282l7 24
l46 3c31 3 47 8 56 36l97 315h-407l-97 -315c-9 -28 6 -33 35 -36l44 -3l-7 -24h-282zM146 552l12 40h791l-13 -40h-790z" />
    <glyph glyph-name="Hcircumflex" unicode="&#x124;" horiz-adv-x="898" 
d="M-22 0l7 24l46 3c31 3 47 8 56 36l193 632c9 28 -6 33 -34 36l-44 3l8 24h282l-8 -24l-46 -3c-31 -3 -48 -8 -56 -36l-84 -277h406l85 277c9 28 -6 33 -35 36l-43 3l7 24h282l-7 -24l-46 -3c-31 -3 -48 -8 -57 -36l-193 -632c-9 -28 6 -33 34 -36l44 -3l-7 -24h-282l7 24
l46 3c31 3 47 8 56 36l97 315h-407l-97 -315c-9 -28 6 -33 35 -36l44 -3l-7 -24h-282zM476 833l216 148h10l80 -148h-17l-83 73l-185 -73h-21z" />
    <glyph glyph-name="Ibreve" unicode="&#x12c;" horiz-adv-x="389" 
d="M-22 0l7 24l46 3c31 3 47 8 56 36l193 632c9 28 -6 33 -34 36l-44 3l8 24h282l-8 -24l-46 -3c-31 -3 -47 -8 -56 -36l-194 -632c-9 -28 6 -33 35 -36l44 -3l-7 -24h-282zM390 830c-71 0 -140 40 -113 156h37c-17 -84 18 -120 83 -120c61 0 118 32 145 120h39
c-38 -126 -118 -156 -191 -156z" />
    <glyph glyph-name="Idotaccent" unicode="&#x130;" horiz-adv-x="389" 
d="M-22 0l7 24l46 3c31 3 47 8 56 36l193 632c9 28 -6 33 -34 36l-44 3l8 24h282l-8 -24l-46 -3c-31 -3 -47 -8 -56 -36l-194 -632c-9 -28 6 -33 35 -36l44 -3l-7 -24h-282zM394 854c-35 0 -64 29 -64 64c0 33 29 64 64 64s64 -31 64 -64c0 -35 -29 -64 -64 -64z" />
    <glyph glyph-name="Imacron" unicode="&#x12a;" horiz-adv-x="389" 
d="M-22 0l7 24l46 3c31 3 47 8 56 36l193 632c9 28 -6 33 -34 36l-44 3l8 24h282l-8 -24l-46 -3c-31 -3 -47 -8 -56 -36l-194 -632c-9 -28 6 -33 35 -36l44 -3l-7 -24h-282zM254 882l15 44h281l-15 -44h-281z" />
    <glyph glyph-name="Iogonek" unicode="&#x12e;" horiz-adv-x="389" 
d="M-22 0l7 24l46 3c31 3 47 8 56 36l193 632c9 28 -6 33 -34 36l-44 3l8 24h282l-8 -24l-46 -3c-31 -3 -47 -8 -56 -36l-194 -632c-9 -28 6 -33 35 -36l44 -3l-7 -24h-282zM59 -233c-49 0 -84 22 -84 65c0 62 108 131 180 168h25c-56 -43 -142 -94 -142 -150
c0 -31 21 -48 60 -48c24 0 50 8 70 16l-5 -22c-27 -17 -68 -29 -104 -29z" />
    <glyph glyph-name="Itilde" unicode="&#x128;" horiz-adv-x="389" 
d="M-22 0l7 24l46 3c31 3 47 8 56 36l193 632c9 28 -6 33 -34 36l-44 3l8 24h282l-8 -24l-46 -3c-31 -3 -47 -8 -56 -36l-194 -632c-9 -28 6 -33 35 -36l44 -3l-7 -24h-282zM474 832c-69 0 -95 68 -151 68c-32 0 -58 -17 -73 -61h-17c15 80 51 131 107 131
c68 0 87 -68 148 -68c31 0 54 20 67 59h16c-19 -93 -54 -129 -97 -129z" />
    <glyph glyph-name="uni1ECA" unicode="&#x1eca;" horiz-adv-x="389" 
d="M-22 0l7 24l46 3c31 3 47 8 56 36l193 632c9 28 -6 33 -34 36l-44 3l8 24h282l-8 -24l-46 -3c-31 -3 -47 -8 -56 -36l-194 -632c-9 -28 6 -33 35 -36l44 -3l-7 -24h-282zM68 -236c-35 0 -64 29 -64 64c0 33 29 64 64 64s64 -31 64 -64c0 -35 -29 -64 -64 -64z" />
    <glyph glyph-name="Jcircumflex" unicode="&#x134;" horiz-adv-x="388" 
d="M-90 -115l-13 24c156 98 188 119 225 239l168 549c8 27 -5 31 -34 32l-50 2l9 27h289l-8 -27l-51 -2c-31 -1 -45 -5 -53 -32l-161 -522c-32 -108 -59 -141 -166 -208c-35 -21 -108 -58 -155 -82zM227 833l216 148h10l80 -148h-17l-83 73l-185 -73h-21z" />
    <glyph glyph-name="uni0136" unicode="&#x136;" horiz-adv-x="828" 
d="M-22 0l7 24l46 3c31 3 47 8 56 36l193 632c9 28 -6 33 -34 36l-44 3l8 24h282l-8 -24l-46 -3c-31 -3 -47 -8 -56 -36l-96 -314l490 326c17 12 13 21 -19 24l-63 3l8 24h270l-7 -24l-53 -3c-40 -3 -59 -10 -87 -29l-437 -290l369 -412h-127l-346 376l-96 -313
c-9 -28 6 -33 35 -36l44 -3l-7 -24h-282zM242 -343l-10 22c85 51 133 100 133 140c0 27 -17 42 -45 49c-1 32 21 56 52 56c37 1 67 -25 67 -65c0 -63 -76 -135 -197 -202z" />
    <glyph glyph-name="Lacute" unicode="&#x139;" horiz-adv-x="701" 
d="M-22 0l7 24l46 3c31 3 48 8 56 36l194 632c8 28 -6 33 -34 36l-44 3l7 24h282l-7 -24l-46 -3c-31 -3 -49 -8 -57 -36l-203 -663h257c16 0 19 2 32 14l195 178h18l-137 -224h-566zM342 839l147 133h127l-1 -2l-253 -131h-20z" />
    <glyph glyph-name="Lcaron" unicode="&#x13d;" horiz-adv-x="701" 
d="M-22 0l7 24l46 3c31 3 48 8 56 36l194 632c8 28 -6 33 -34 36l-44 3l7 24h282l-7 -24l-46 -3c-31 -3 -49 -8 -57 -36l-203 -663h257c16 0 19 2 32 14l195 178h18l-137 -224h-566zM496 521l-10 22c85 51 133 100 133 140c0 25 -17 42 -45 49c-1 32 21 56 52 56
c37 1 67 -25 67 -65c0 -63 -76 -135 -197 -202z" />
    <glyph glyph-name="uni013B" unicode="&#x13b;" horiz-adv-x="701" 
d="M-22 0l7 24l46 3c31 3 48 8 56 36l194 632c8 28 -6 33 -34 36l-44 3l7 24h282l-7 -24l-46 -3c-31 -3 -49 -8 -57 -36l-203 -663h257c16 0 19 2 32 14l195 178h18l-137 -224h-566zM127 -343l-10 22c85 51 133 100 133 140c0 27 -17 42 -45 49c-1 32 21 56 52 56
c37 1 67 -25 67 -65c0 -63 -76 -135 -197 -202z" />
    <glyph glyph-name="Ldot" unicode="&#x13f;" horiz-adv-x="701" 
d="M-22 0l7 24l46 3c31 3 48 8 56 36l194 632c8 28 -6 33 -34 36l-44 3l7 24h282l-7 -24l-46 -3c-31 -3 -49 -8 -57 -36l-203 -663h257c16 0 19 2 32 14l195 178h18l-137 -224h-566zM597 342c-35 0 -64 29 -64 64c0 33 29 64 64 64s64 -31 64 -64c0 -35 -29 -64 -64 -64z
" />
    <glyph glyph-name="_223" horiz-adv-x="701" 
d="M-22 0l7 24l46 3c31 3 48 8 56 36l194 632c8 28 -6 33 -34 36l-44 3l7 24h282l-7 -24l-46 -3c-31 -3 -49 -8 -57 -36l-203 -663h257c16 0 19 2 32 14l195 178h18l-137 -224h-566zM597 342c-35 0 -64 29 -64 64c0 33 29 64 64 64s64 -31 64 -64c0 -35 -29 -64 -64 -64z
" />
    <glyph glyph-name="Lslash" unicode="&#x141;" horiz-adv-x="701" 
d="M-22 0l7 24l46 3c31 3 48 8 56 36l194 632c8 28 -6 33 -34 36l-44 3l7 24h282l-7 -24l-46 -3c-31 -3 -49 -8 -57 -36l-203 -663h257c16 0 19 2 32 14l195 178h18l-137 -224h-566zM10 235l16 53l431 226l-16 -52z" />
    <glyph glyph-name="Eng" unicode="&#x14a;" horiz-adv-x="884" 
d="M522 -175l-166 -85l-9 17c128 80 191 110 239 264l22 70l-291 595l-191 -623c-9 -28 6 -33 34 -36l44 -3l-7 -24h-219l7 24l46 3c31 3 47 8 56 36l194 632c9 28 -6 33 -34 36l-44 3l7 24h183l291 -596l164 533c9 28 -6 33 -34 36l-44 3l8 24h219l-8 -24l-46 -3
c-31 -3 -47 -8 -56 -36l-210 -679c-35 -113 -63 -143 -155 -191z" />
    <glyph glyph-name="Nacute" unicode="&#x143;" horiz-adv-x="885" 
d="M666 -19l-351 701l-189 -619c-9 -28 6 -33 34 -36l44 -3l-7 -24h-219l7 24l46 3c31 3 47 8 56 36l194 632c9 28 -6 33 -34 36l-44 3l7 24h183l292 -590l163 527c9 28 -6 33 -34 36l-44 3l8 24h219l-8 -24l-46 -3c-31 -3 -47 -8 -56 -36l-218 -714h-3zM598 839l147 133
h127l-1 -2l-253 -131h-20z" />
    <glyph glyph-name="Ncaron" unicode="&#x147;" horiz-adv-x="885" 
d="M666 -19l-351 701l-189 -619c-9 -28 6 -33 34 -36l44 -3l-7 -24h-219l7 24l46 3c31 3 47 8 56 36l194 632c9 28 -6 33 -34 36l-44 3l7 24h183l292 -590l163 527c9 28 -6 33 -34 36l-44 3l8 24h219l-8 -24l-46 -3c-31 -3 -47 -8 -56 -36l-218 -714h-3zM608 833l-80 149h17
l82 -73l186 73h21l-216 -149h-10z" />
    <glyph glyph-name="uni0145" unicode="&#x145;" horiz-adv-x="885" 
d="M666 -19l-351 701l-189 -619c-9 -28 6 -33 34 -36l44 -3l-7 -24h-219l7 24l46 3c31 3 47 8 56 36l194 632c9 28 -6 33 -34 36l-44 3l7 24h183l292 -590l163 527c9 28 -6 33 -34 36l-44 3l8 24h219l-8 -24l-46 -3c-31 -3 -47 -8 -56 -36l-218 -714h-3zM228 -343l-10 22
c85 51 133 100 133 140c0 27 -17 42 -45 49c-1 32 21 56 52 56c37 1 67 -25 67 -65c0 -63 -76 -135 -197 -202z" />
    <glyph glyph-name="OE" unicode="&#x152;" horiz-adv-x="1325" 
d="M589 775c131 0 219 -67 250 -182l50 165h442l-34 -222h-10l-46 174c-4 15 -7 16 -24 16h-249l-96 -313h160c17 0 19 2 26 13l74 118h10l-91 -297h-10l-2 117c1 11 -2 13 -18 13h-160l-105 -345h302c15 0 20 3 32 14l196 178h10l-131 -224h-507l44 145
c-83 -91 -197 -157 -333 -157c-164 0 -298 97 -298 278c0 225 215 509 518 509zM769 493c0 152 -71 252 -198 252c-206 0 -382 -224 -382 -475c0 -153 71 -253 198 -253c206 0 382 225 382 476z" />
    <glyph glyph-name="Obreve" unicode="&#x14e;" horiz-adv-x="881" 
d="M371 -12c-164 0 -298 103 -298 284c0 225 215 503 518 503c164 0 298 -103 298 -284c0 -225 -214 -503 -518 -503zM389 17c206 0 382 225 382 476c0 152 -71 252 -198 252c-206 0 -382 -224 -382 -475c0 -153 71 -253 198 -253zM641 830c-71 0 -140 40 -113 156h37
c-17 -84 18 -120 83 -120c61 0 118 32 145 120h39c-38 -126 -118 -156 -191 -156z" />
    <glyph glyph-name="Ohungarumlaut" unicode="&#x150;" horiz-adv-x="881" 
d="M371 -12c-164 0 -298 103 -298 284c0 225 215 503 518 503c164 0 298 -103 298 -284c0 -225 -214 -503 -518 -503zM389 17c206 0 382 225 382 476c0 152 -71 252 -198 252c-206 0 -382 -224 -382 -475c0 -153 71 -253 198 -253zM515 839l149 133h127l-1 -2l-252 -131h-23
zM700 839l148 133h127l-1 -2l-252 -131h-22z" />
    <glyph glyph-name="Omacron" unicode="&#x14c;" horiz-adv-x="881" 
d="M371 -12c-164 0 -298 103 -298 284c0 225 215 503 518 503c164 0 298 -103 298 -284c0 -225 -214 -503 -518 -503zM389 17c206 0 382 225 382 476c0 152 -71 252 -198 252c-206 0 -382 -224 -382 -475c0 -153 71 -253 198 -253zM505 882l15 44h281l-15 -44h-281z" />
    <glyph glyph-name="uni1ECC" unicode="&#x1ecc;" horiz-adv-x="881" 
d="M371 -12c-164 0 -298 103 -298 284c0 225 215 503 518 503c164 0 298 -103 298 -284c0 -225 -214 -503 -518 -503zM389 17c206 0 382 225 382 476c0 152 -71 252 -198 252c-206 0 -382 -224 -382 -475c0 -153 71 -253 198 -253zM323 -236c-35 0 -64 29 -64 64
c0 33 29 64 64 64s64 -31 64 -64c0 -35 -29 -64 -64 -64z" />
    <glyph glyph-name="Racute" unicode="&#x154;" horiz-adv-x="770" 
d="M-22 0l7 24l46 3c31 3 47 8 56 36l193 632c9 28 -6 33 -34 36l-44 3l8 24h280c164 0 273 -43 273 -150c0 -120 -107 -207 -291 -223l259 -385h-123l-248 373h-76l-96 -310c-9 -28 6 -33 35 -36l44 -3l-7 -24h-282zM293 404h89c181 0 268 98 268 210
c0 81 -66 113 -170 113h-89zM516 839l147 133h127l-1 -2l-253 -131h-20z" />
    <glyph glyph-name="Rcaron" unicode="&#x158;" horiz-adv-x="770" 
d="M-22 0l7 24l46 3c31 3 47 8 56 36l193 632c9 28 -6 33 -34 36l-44 3l8 24h280c164 0 273 -43 273 -150c0 -120 -107 -207 -291 -223l259 -385h-123l-248 373h-76l-96 -310c-9 -28 6 -33 35 -36l44 -3l-7 -24h-282zM293 404h89c181 0 268 98 268 210
c0 81 -66 113 -170 113h-89zM526 833l-80 149h17l82 -73l186 73h21l-216 -149h-10z" />
    <glyph glyph-name="uni0156" unicode="&#x156;" horiz-adv-x="770" 
d="M-22 0l7 24l46 3c31 3 47 8 56 36l193 632c9 28 -6 33 -34 36l-44 3l8 24h280c164 0 273 -43 273 -150c0 -120 -107 -207 -291 -223l259 -385h-123l-248 373h-76l-96 -310c-9 -28 6 -33 35 -36l44 -3l-7 -24h-282zM293 404h89c181 0 268 98 268 210
c0 81 -66 113 -170 113h-89zM244 -343l-10 22c85 51 133 100 133 140c0 27 -17 42 -45 49c-1 32 21 56 52 56c37 1 67 -25 67 -65c0 -63 -76 -135 -197 -202z" />
    <glyph glyph-name="Sacute" unicode="&#x15a;" horiz-adv-x="609" 
d="M202 -12c-63 0 -146 19 -205 56l58 205h18l20 -176c3 -27 19 -36 30 -40c27 -9 59 -14 96 -14c92 0 207 51 207 156c0 57 -24 97 -73 156l-67 78c-44 52 -73 99 -73 159c0 124 132 207 265 207c83 0 150 -18 193 -50l-39 -188h-18l-37 160c-5 23 -13 31 -28 36
c-19 7 -41 10 -65 10c-85 0 -179 -39 -179 -123c0 -55 26 -86 58 -125l67 -78c56 -64 96 -114 96 -182c0 -125 -132 -247 -324 -247zM495 839l147 133h127l-1 -2l-253 -131h-20z" />
    <glyph glyph-name="Scaron" unicode="&#x160;" horiz-adv-x="609" 
d="M202 -12c-63 0 -146 19 -205 56l58 205h18l20 -176c3 -27 19 -36 30 -40c27 -9 59 -14 96 -14c92 0 207 51 207 156c0 57 -24 97 -73 156l-67 78c-44 52 -73 99 -73 159c0 124 132 207 265 207c83 0 150 -18 193 -50l-39 -188h-18l-37 160c-5 23 -13 31 -28 36
c-19 7 -41 10 -65 10c-85 0 -179 -39 -179 -123c0 -55 26 -86 58 -125l67 -78c56 -64 96 -114 96 -182c0 -125 -132 -247 -324 -247zM505 833l-80 149h17l82 -73l186 73h21l-216 -149h-10z" />
    <glyph glyph-name="Scedilla" unicode="&#x15e;" horiz-adv-x="609" 
d="M202 -12c-63 0 -146 19 -205 56l58 205h18l20 -176c3 -27 19 -36 30 -40c27 -9 59 -14 96 -14c92 0 207 51 207 156c0 57 -24 97 -73 156l-67 78c-44 52 -73 99 -73 159c0 124 132 207 265 207c83 0 150 -18 193 -50l-39 -188h-18l-37 160c-5 23 -13 31 -28 36
c-19 7 -41 10 -65 10c-85 0 -179 -39 -179 -123c0 -55 26 -86 58 -125l67 -78c56 -64 96 -114 96 -182c0 -125 -132 -247 -324 -247zM130 -257c-62 0 -102 34 -102 65c0 23 20 34 41 23c-3 -44 32 -66 71 -66c37 0 55 13 55 39c0 28 -37 52 -84 87l136 109h37l-109 -86
c35 -25 63 -52 63 -85c0 -52 -44 -86 -108 -86z" />
    <glyph glyph-name="Scircumflex" unicode="&#x15c;" horiz-adv-x="609" 
d="M202 -12c-63 0 -146 19 -205 56l58 205h18l20 -176c3 -27 19 -36 30 -40c27 -9 59 -14 96 -14c92 0 207 51 207 156c0 57 -24 97 -73 156l-67 78c-44 52 -73 99 -73 159c0 124 132 207 265 207c83 0 150 -18 193 -50l-39 -188h-18l-37 160c-5 23 -13 31 -28 36
c-19 7 -41 10 -65 10c-85 0 -179 -39 -179 -123c0 -55 26 -86 58 -125l67 -78c56 -64 96 -114 96 -182c0 -125 -132 -247 -324 -247zM367 833l216 148h10l80 -148h-17l-83 73l-185 -73h-21z" />
    <glyph glyph-name="uni0218" unicode="&#x218;" horiz-adv-x="609" 
d="M202 -12c-63 0 -146 19 -205 56l58 205h18l20 -176c3 -27 19 -36 30 -40c27 -9 59 -14 96 -14c92 0 207 51 207 156c0 57 -24 97 -73 156l-67 78c-44 52 -73 99 -73 159c0 124 132 207 265 207c83 0 150 -18 193 -50l-39 -188h-18l-37 160c-5 23 -13 31 -28 36
c-19 7 -41 10 -65 10c-85 0 -179 -39 -179 -123c0 -55 26 -86 58 -125l67 -78c56 -64 96 -114 96 -182c0 -125 -132 -247 -324 -247zM65 -343l-10 22c85 51 133 100 133 140c0 27 -17 42 -45 49c-1 32 21 56 52 56c37 1 67 -25 67 -65c0 -63 -76 -135 -197 -202z" />
    <glyph glyph-name="Tbar" unicode="&#x166;" horiz-adv-x="757" 
d="M147 0l8 25l60 3c31 3 48 7 56 35l204 666h-170c-17 0 -22 -1 -33 -16l-151 -189h-18l96 234h671l-47 -234h-18l-26 189c-3 15 -8 16 -24 16h-179l-203 -666c-9 -28 6 -32 35 -35l59 -3l-8 -25h-312zM190 379l12 40h456l-13 -40h-455z" />
    <glyph glyph-name="Tcaron" unicode="&#x164;" horiz-adv-x="757" 
d="M147 0l8 25l60 3c31 3 48 7 56 35l204 666h-170c-17 0 -22 -1 -33 -16l-151 -189h-18l96 234h671l-47 -234h-18l-26 189c-3 15 -8 16 -24 16h-179l-203 -666c-9 -28 6 -32 35 -35l59 -3l-8 -25h-312zM550 833l-80 149h17l82 -73l186 73h21l-216 -149h-10z" />
    <glyph glyph-name="uni0162" unicode="&#x162;" horiz-adv-x="757" 
d="M147 0l8 25l60 3c31 3 48 7 56 35l204 666h-170c-17 0 -22 -1 -33 -16l-151 -189h-18l96 234h671l-47 -234h-18l-26 189c-3 15 -8 16 -24 16h-179l-203 -666c-9 -28 6 -32 35 -35l59 -3l-8 -25h-312zM116 -343l-10 22c85 51 133 100 133 140c0 27 -17 42 -45 49
c-1 32 21 56 52 56c37 1 67 -25 67 -65c0 -63 -76 -135 -197 -202z" />
    <glyph glyph-name="uni021A" unicode="&#x21a;" horiz-adv-x="757" 
d="M147 0l8 25l60 3c31 3 48 7 56 35l204 666h-170c-17 0 -22 -1 -33 -16l-151 -189h-18l96 234h671l-47 -234h-18l-26 189c-3 15 -8 16 -24 16h-179l-203 -666c-9 -28 6 -32 35 -35l59 -3l-8 -25h-312zM116 -343l-10 22c85 51 133 100 133 140c0 27 -17 42 -45 49
c-1 32 21 56 52 56c37 1 67 -25 67 -65c0 -63 -76 -135 -197 -202z" />
    <glyph glyph-name="Ubreve" unicode="&#x16c;" horiz-adv-x="863" 
d="M379 -12c-200 0 -305 96 -236 317l119 390c8 28 -6 33 -35 36l-43 3l7 24h282l-7 -24l-46 -3c-31 -3 -48 -8 -57 -36l-122 -401c-51 -168 0 -247 161 -247c165 0 266 89 317 256l120 392c9 28 -6 33 -34 36l-50 3l7 24h225l-7 -24l-46 -3c-31 -3 -47 -8 -56 -36
l-122 -398c-63 -203 -178 -309 -377 -309zM634 830c-71 0 -140 40 -113 156h37c-17 -84 18 -120 83 -120c61 0 118 32 145 120h39c-38 -126 -118 -156 -191 -156z" />
    <glyph glyph-name="Uhungarumlaut" unicode="&#x170;" horiz-adv-x="863" 
d="M379 -12c-200 0 -305 96 -236 317l119 390c8 28 -6 33 -35 36l-43 3l7 24h282l-7 -24l-46 -3c-31 -3 -48 -8 -57 -36l-122 -401c-51 -168 0 -247 161 -247c165 0 266 89 317 256l120 392c9 28 -6 33 -34 36l-50 3l7 24h225l-7 -24l-46 -3c-31 -3 -47 -8 -56 -36
l-122 -398c-63 -203 -178 -309 -377 -309zM508 839l149 133h127l-1 -2l-252 -131h-23zM693 839l148 133h127l-1 -2l-252 -131h-22z" />
    <glyph glyph-name="Umacron" unicode="&#x16a;" horiz-adv-x="863" 
d="M379 -12c-200 0 -305 96 -236 317l119 390c8 28 -6 33 -35 36l-43 3l7 24h282l-7 -24l-46 -3c-31 -3 -48 -8 -57 -36l-122 -401c-51 -168 0 -247 161 -247c165 0 266 89 317 256l120 392c9 28 -6 33 -34 36l-50 3l7 24h225l-7 -24l-46 -3c-31 -3 -47 -8 -56 -36
l-122 -398c-63 -203 -178 -309 -377 -309zM498 882l15 44h281l-15 -44h-281z" />
    <glyph glyph-name="Uogonek" unicode="&#x172;" horiz-adv-x="863" 
d="M301 -233c-49 0 -84 22 -84 65c0 56 86 117 157 156c-197 3 -300 96 -231 317l119 390c8 28 -6 33 -35 36l-43 3l7 24h282l-7 -24l-46 -3c-31 -3 -48 -8 -57 -36l-122 -401c-51 -168 0 -247 161 -247c165 0 266 89 317 256l120 392c9 28 -6 33 -34 36l-50 3l7 24h225
l-7 -24l-46 -3c-31 -3 -47 -8 -56 -36l-122 -398c-60 -196 -169 -301 -356 -308c-54 -41 -120 -88 -120 -139c0 -31 21 -48 60 -48c24 0 50 8 70 16l-5 -22c-27 -17 -68 -29 -104 -29z" />
    <glyph glyph-name="Uring" unicode="&#x16e;" horiz-adv-x="863" 
d="M379 -12c-200 0 -305 96 -236 317l119 390c8 28 -6 33 -35 36l-43 3l7 24h282l-7 -24l-46 -3c-31 -3 -48 -8 -57 -36l-122 -401c-51 -168 0 -247 161 -247c165 0 266 89 317 256l120 392c9 28 -6 33 -34 36l-50 3l7 24h225l-7 -24l-46 -3c-31 -3 -47 -8 -56 -36
l-122 -398c-63 -203 -178 -309 -377 -309zM661 835c-63 0 -115 48 -115 112c0 61 52 112 115 112c65 0 117 -51 117 -112c0 -64 -52 -112 -117 -112zM661 871c45 0 76 31 76 76c0 44 -31 74 -76 74c-44 0 -75 -30 -75 -74c0 -45 31 -76 75 -76z" />
    <glyph glyph-name="Utilde" unicode="&#x168;" horiz-adv-x="863" 
d="M379 -12c-200 0 -305 96 -236 317l119 390c8 28 -6 33 -35 36l-43 3l7 24h282l-7 -24l-46 -3c-31 -3 -48 -8 -57 -36l-122 -401c-51 -168 0 -247 161 -247c165 0 266 89 317 256l120 392c9 28 -6 33 -34 36l-50 3l7 24h225l-7 -24l-46 -3c-31 -3 -47 -8 -56 -36
l-122 -398c-63 -203 -178 -309 -377 -309zM718 832c-69 0 -95 68 -151 68c-32 0 -58 -17 -73 -61h-17c15 80 51 131 107 131c68 0 87 -68 148 -68c31 0 54 20 67 59h16c-19 -93 -54 -129 -97 -129z" />
    <glyph glyph-name="uni1EE4" unicode="&#x1ee4;" horiz-adv-x="863" 
d="M379 -12c-200 0 -305 96 -236 317l119 390c8 28 -6 33 -35 36l-43 3l7 24h282l-7 -24l-46 -3c-31 -3 -48 -8 -57 -36l-122 -401c-51 -168 0 -247 161 -247c165 0 266 89 317 256l120 392c9 28 -6 33 -34 36l-50 3l7 24h225l-7 -24l-46 -3c-31 -3 -47 -8 -56 -36
l-122 -398c-63 -203 -178 -309 -377 -309zM322 -236c-35 0 -64 29 -64 64c0 33 29 64 64 64s64 -31 64 -64c0 -35 -29 -64 -64 -64z" />
    <glyph glyph-name="Wacute" unicode="&#x1e82;" horiz-adv-x="1256" 
d="M92 -24l178 719c7 28 -6 33 -34 36l-44 3l7 24h282l-7 -24l-46 -3c-31 -3 -49 -8 -56 -36l-142 -562l447 410l53 215h221l-7 -24l-70 -3c-31 -1 -49 -8 -56 -36l-142 -562l613 564c23 21 28 31 -3 34l-61 3l7 24h246l-8 -24l-44 -3c-31 -3 -58 -11 -82 -34l-788 -721h-18
l123 503l-551 -503h-18zM829 839l147 133h127l-1 -2l-253 -131h-20z" />
    <glyph glyph-name="Wcircumflex" unicode="&#x174;" horiz-adv-x="1256" 
d="M92 -24l178 719c7 28 -6 33 -34 36l-44 3l7 24h282l-7 -24l-46 -3c-31 -3 -49 -8 -56 -36l-142 -562l447 410l53 215h221l-7 -24l-70 -3c-31 -1 -49 -8 -56 -36l-142 -562l613 564c23 21 28 31 -3 34l-61 3l7 24h246l-8 -24l-44 -3c-31 -3 -58 -11 -82 -34l-788 -721h-18
l123 503l-551 -503h-18zM701 833l216 148h10l80 -148h-17l-83 73l-185 -73h-21z" />
    <glyph glyph-name="Wdieresis" unicode="&#x1e84;" horiz-adv-x="1256" 
d="M92 -24l178 719c7 28 -6 33 -34 36l-44 3l7 24h282l-7 -24l-46 -3c-31 -3 -49 -8 -56 -36l-142 -562l447 410l53 215h221l-7 -24l-70 -3c-31 -1 -49 -8 -56 -36l-142 -562l613 564c23 21 28 31 -3 34l-61 3l7 24h246l-8 -24l-44 -3c-31 -3 -58 -11 -82 -34l-788 -721h-18
l123 503l-551 -503h-18zM1000 854c-35 0 -64 29 -64 64c0 33 29 64 64 64s64 -31 64 -64c0 -35 -29 -64 -64 -64zM768 854c-35 0 -64 29 -64 64c0 33 29 64 64 64s64 -31 64 -64c0 -35 -29 -64 -64 -64z" />
    <glyph glyph-name="Wgrave" unicode="&#x1e80;" horiz-adv-x="1256" 
d="M92 -24l178 719c7 28 -6 33 -34 36l-44 3l7 24h282l-7 -24l-46 -3c-31 -3 -49 -8 -56 -36l-142 -562l447 410l53 215h221l-7 -24l-70 -3c-31 -1 -49 -8 -56 -36l-142 -562l613 564c23 21 28 31 -3 34l-61 3l7 24h246l-8 -24l-44 -3c-31 -3 -58 -11 -82 -34l-788 -721h-18
l123 503l-551 -503h-18zM900 839h-17l-163 131l1 2h114z" />
    <glyph glyph-name="Ycircumflex" unicode="&#x176;" horiz-adv-x="779" 
d="M158 0l8 25l60 3c31 3 47 7 56 35l86 279l-140 355c-9 24 -13 31 -44 34l-43 3l8 24h283l-8 -24l-50 -3c-32 -3 -50 -11 -41 -34l123 -315l317 315c24 23 16 31 -15 34l-61 3l7 24h243l-8 -24l-44 -3c-31 -3 -46 -11 -70 -34l-356 -355l-86 -279c-9 -28 6 -34 35 -35
l60 -3l-8 -25h-312zM425 833l216 148h10l80 -148h-17l-83 73l-185 -73h-21z" />
    <glyph glyph-name="Ydieresis" unicode="&#x178;" horiz-adv-x="779" 
d="M158 0l8 25l60 3c31 3 47 7 56 35l86 279l-140 355c-9 24 -13 31 -44 34l-43 3l8 24h283l-8 -24l-50 -3c-32 -3 -50 -11 -41 -34l123 -315l317 315c24 23 16 31 -15 34l-61 3l7 24h243l-8 -24l-44 -3c-31 -3 -46 -11 -70 -34l-356 -355l-86 -279c-9 -28 6 -34 35 -35
l60 -3l-8 -25h-312zM724 854c-35 0 -64 29 -64 64c0 33 29 64 64 64s64 -31 64 -64c0 -35 -29 -64 -64 -64zM492 854c-35 0 -64 29 -64 64c0 33 29 64 64 64s64 -31 64 -64c0 -35 -29 -64 -64 -64z" />
    <glyph glyph-name="Ygrave" unicode="&#x1ef2;" horiz-adv-x="779" 
d="M158 0l8 25l60 3c31 3 47 7 56 35l86 279l-140 355c-9 24 -13 31 -44 34l-43 3l8 24h283l-8 -24l-50 -3c-32 -3 -50 -11 -41 -34l123 -315l317 315c24 23 16 31 -15 34l-61 3l7 24h243l-8 -24l-44 -3c-31 -3 -46 -11 -70 -34l-356 -355l-86 -279c-9 -28 6 -34 35 -35
l60 -3l-8 -25h-312zM624 839h-17l-163 131l1 2h114z" />
    <glyph glyph-name="uni0232" unicode="&#x232;" horiz-adv-x="779" 
d="M158 0l8 25l60 3c31 3 47 7 56 35l86 279l-140 355c-9 24 -13 31 -44 34l-43 3l8 24h283l-8 -24l-50 -3c-32 -3 -50 -11 -41 -34l123 -315l317 315c24 23 16 31 -15 34l-61 3l7 24h243l-8 -24l-44 -3c-31 -3 -46 -11 -70 -34l-356 -355l-86 -279c-9 -28 6 -34 35 -35
l60 -3l-8 -25h-312zM454 882l15 44h281l-15 -44h-281z" />
    <glyph glyph-name="Zacute" unicode="&#x179;" horiz-adv-x="743" 
d="M-48 0l3 10l745 717h-317c-19 0 -21 -3 -36 -16l-186 -177h-18l138 224h566l-4 -11l-742 -716h362c19 0 21 1 36 16l186 177h18l-138 -224h-613zM549 839l147 133h127l-1 -2l-253 -131h-20z" />
    <glyph glyph-name="Zcaron" unicode="&#x17d;" horiz-adv-x="743" 
d="M-48 0l3 10l745 717h-317c-19 0 -21 -3 -36 -16l-186 -177h-18l138 224h566l-4 -11l-742 -716h362c19 0 21 1 36 16l186 177h18l-138 -224h-613zM559 833l-80 149h17l82 -73l186 73h21l-216 -149h-10z" />
    <glyph glyph-name="Zdotaccent" unicode="&#x17b;" horiz-adv-x="743" 
d="M-48 0l3 10l745 717h-317c-19 0 -21 -3 -36 -16l-186 -177h-18l138 224h566l-4 -11l-742 -716h362c19 0 21 1 36 16l186 177h18l-138 -224h-613zM590 854c-35 0 -64 29 -64 64c0 33 29 64 64 64s64 -31 64 -64c0 -35 -29 -64 -64 -64z" />
    <glyph glyph-name="uni018F" unicode="&#x18f;" horiz-adv-x="816" 
d="M355 -12c-191 0 -294 121 -275 303h610c16 48 25 100 25 153c0 180 -111 265 -253 265c-156 0 -272 -98 -334 -251h-24c64 209 229 317 405 317c175 0 308 -108 308 -295c0 -231 -192 -492 -462 -492zM366 18c133 0 249 97 308 231h-493c-11 -153 56 -231 185 -231z" />
    <glyph glyph-name="abreve" unicode="&#x103;" horiz-adv-x="567" 
d="M103 -12c-60 0 -93 41 -93 105c0 180 200 425 350 425c47 0 68 -34 71 -71h1l24 66h88l-155 -422c-19 -51 -15 -65 4 -65c32 0 86 38 141 138l20 -9c-56 -107 -122 -167 -213 -167c-64 0 -61 38 -37 102l36 95h-2c-80 -129 -155 -197 -235 -197zM153 39
c70 0 178 141 231 281c45 123 29 175 -24 175c-116 0 -248 -245 -248 -391c0 -41 14 -65 41 -65zM406 614c-71 0 -140 42 -113 157h37c-17 -84 18 -120 83 -120c61 0 118 32 145 120h39c-37 -125 -118 -157 -191 -157z" />
    <glyph glyph-name="amacron" unicode="&#x101;" horiz-adv-x="567" 
d="M103 -12c-60 0 -93 41 -93 105c0 180 200 425 350 425c47 0 68 -34 71 -71h1l24 66h88l-155 -422c-19 -51 -15 -65 4 -65c32 0 86 38 141 138l20 -9c-56 -107 -122 -167 -213 -167c-64 0 -61 38 -37 102l36 95h-2c-80 -129 -155 -197 -235 -197zM153 39
c70 0 178 141 231 281c45 123 29 175 -24 175c-116 0 -248 -245 -248 -391c0 -41 14 -65 41 -65zM286 668l16 45h283l-15 -45h-284z" />
    <glyph glyph-name="aogonek" unicode="&#x105;" horiz-adv-x="567" 
d="M103 -12c-60 0 -93 41 -93 105c0 180 200 425 350 425c47 0 68 -34 71 -71h1l24 66h88l-155 -422c-19 -51 -15 -65 4 -65c32 0 86 38 141 138l20 -9c-45 -87 -97 -142 -165 -161c-55 -39 -129 -92 -129 -144c0 -31 21 -48 60 -48c24 0 50 8 70 16l-5 -22
c-27 -17 -68 -29 -104 -29c-49 0 -84 22 -84 65c0 58 86 117 158 157c-5 -1 -10 -1 -14 -1c-64 0 -61 38 -37 102l36 95h-2c-80 -129 -155 -197 -235 -197zM153 39c70 0 178 141 231 281c45 123 29 175 -24 175c-116 0 -248 -245 -248 -391c0 -41 14 -65 41 -65z" />
    <glyph glyph-name="cacute" unicode="&#x107;" horiz-adv-x="452" 
d="M160 -12c-84 0 -134 53 -134 149c0 184 167 380 333 380c67 0 100 -33 100 -81c0 -49 -35 -81 -94 -72c22 73 19 130 -24 130c-95 0 -212 -167 -212 -337c0 -86 41 -123 87 -123c55 0 104 41 155 149l20 -8c-59 -133 -131 -187 -231 -187zM344 597l144 179h111l-3 -7
l-231 -172h-21z" />
    <glyph glyph-name="ccaron" unicode="&#x10d;" horiz-adv-x="452" 
d="M160 -12c-84 0 -134 53 -134 149c0 184 167 380 333 380c67 0 100 -33 100 -81c0 -49 -35 -81 -94 -72c22 73 19 130 -24 130c-95 0 -212 -167 -212 -337c0 -86 41 -123 87 -123c55 0 104 41 155 149l20 -8c-59 -133 -131 -187 -231 -187zM360 597l-68 193h19l76 -105
l199 105h21l-239 -193h-8z" />
    <glyph glyph-name="ccircumflex" unicode="&#x109;" horiz-adv-x="452" 
d="M160 -12c-84 0 -134 53 -134 149c0 184 167 380 333 380c67 0 100 -33 100 -81c0 -49 -35 -81 -94 -72c22 73 19 130 -24 130c-95 0 -212 -167 -212 -337c0 -86 41 -123 87 -123c55 0 104 41 155 149l20 -8c-59 -133 -131 -187 -231 -187zM219 597l239 193h8l68 -193h-19
l-77 105l-198 -105h-21z" />
    <glyph glyph-name="cdotaccent" unicode="&#x10b;" horiz-adv-x="452" 
d="M160 -12c-84 0 -134 53 -134 149c0 184 167 380 333 380c67 0 100 -33 100 -81c0 -49 -35 -81 -94 -72c22 73 19 130 -24 130c-95 0 -212 -167 -212 -337c0 -86 41 -123 87 -123c55 0 104 41 155 149l20 -8c-59 -133 -131 -187 -231 -187zM421 657c-35 0 -64 29 -64 64
c0 33 29 64 64 64s64 -31 64 -64c0 -35 -29 -64 -64 -64z" />
    <glyph glyph-name="dcaron" unicode="&#x10f;" horiz-adv-x="623" 
d="M108 -12c-60 0 -97 40 -97 111c0 180 203 419 352 419c47 0 71 -28 76 -71h1l84 249l-81 39l2 6l203 44l-235 -694c-19 -52 -17 -65 4 -65c32 0 88 38 141 138l20 -9c-56 -107 -122 -167 -214 -167c-64 0 -59 38 -38 102l35 100h-2c-81 -136 -159 -202 -251 -202zM167 39
c69 0 182 141 230 274c44 121 24 182 -32 182c-120 0 -250 -233 -250 -382c0 -49 17 -74 52 -74zM660 521l-10 22c85 51 133 100 133 140c0 25 -17 42 -45 49c-1 32 21 56 52 56c37 1 67 -25 67 -65c0 -63 -76 -135 -197 -202z" />
    <glyph glyph-name="dcroat" unicode="&#x111;" horiz-adv-x="588" 
d="M108 -12c-60 0 -97 40 -97 111c0 180 203 419 352 419c47 0 71 -28 76 -71h1l84 249l-81 39l2 6l203 44l-235 -694c-19 -52 -17 -65 4 -65c32 0 88 38 141 138l20 -9c-56 -107 -122 -167 -214 -167c-64 0 -59 38 -38 102l35 100h-2c-81 -136 -159 -202 -251 -202zM167 39
c69 0 182 141 230 274c44 121 24 182 -32 182c-120 0 -250 -233 -250 -382c0 -49 17 -74 52 -74zM368 588l13 36h291l-13 -36h-291z" />
    <glyph glyph-name="ebreve" unicode="&#x115;" horiz-adv-x="465" 
d="M158 -12c-84 0 -134 53 -134 149c0 191 196 380 345 380c76 0 106 -38 106 -90c0 -41 -27 -89 -78 -116l-238 -2c-20 -47 -32 -97 -32 -152c0 -87 40 -123 85 -123c56 0 113 49 166 153l21 -7c-63 -129 -132 -192 -241 -192zM365 495c-70 0 -151 -69 -198 -167h54
c116 0 197 57 197 122c0 30 -18 45 -53 45zM402 614c-71 0 -140 42 -113 157h37c-17 -84 18 -120 83 -120c61 0 118 32 145 120h39c-37 -125 -118 -157 -191 -157z" />
    <glyph glyph-name="ecaron" unicode="&#x11b;" horiz-adv-x="465" 
d="M158 -12c-84 0 -134 53 -134 149c0 191 196 380 345 380c76 0 106 -38 106 -90c0 -41 -27 -89 -78 -116l-238 -2c-20 -47 -32 -97 -32 -152c0 -87 40 -123 85 -123c56 0 113 49 166 153l21 -7c-63 -129 -132 -192 -241 -192zM365 495c-70 0 -151 -69 -198 -167h54
c116 0 197 57 197 122c0 30 -18 45 -53 45zM376 597l-68 193h19l76 -105l199 105h21l-239 -193h-8z" />
    <glyph glyph-name="emacron" unicode="&#x113;" horiz-adv-x="465" 
d="M158 -12c-84 0 -134 53 -134 149c0 191 196 380 345 380c76 0 106 -38 106 -90c0 -41 -27 -89 -78 -116l-238 -2c-20 -47 -32 -97 -32 -152c0 -87 40 -123 85 -123c56 0 113 49 166 153l21 -7c-63 -129 -132 -192 -241 -192zM365 495c-70 0 -151 -69 -198 -167h54
c116 0 197 57 197 122c0 30 -18 45 -53 45zM282 668l16 45h283l-15 -45h-284z" />
    <glyph glyph-name="eogonek" unicode="&#x119;" horiz-adv-x="465" 
d="M217 -182l-5 -22c-27 -17 -68 -29 -104 -29c-49 0 -84 22 -84 65c0 60 96 121 168 158c-8 -1 -25 -2 -34 -2c-84 0 -134 53 -134 149c0 191 196 380 345 380c76 0 106 -38 106 -90c0 -41 -27 -89 -78 -116l-238 -2c-20 -47 -32 -97 -32 -152c0 -87 40 -123 85 -123
c56 0 113 49 166 153l21 -7c-48 -103 -99 -150 -165 -184c-67 -37 -147 -89 -147 -146c0 -31 21 -48 60 -48c24 0 50 8 70 16zM365 495c-70 0 -151 -69 -198 -167h54c116 0 197 57 197 122c0 30 -18 45 -53 45z" />
    <glyph glyph-name="edotaccent" unicode="&#x117;" horiz-adv-x="465" 
d="M158 -12c-84 0 -134 53 -134 149c0 191 196 380 345 380c76 0 106 -38 106 -90c0 -41 -27 -89 -78 -116l-238 -2c-20 -47 -32 -97 -32 -152c0 -87 40 -123 85 -123c56 0 113 49 166 153l21 -7c-63 -129 -132 -192 -241 -192zM365 495c-70 0 -151 -69 -198 -167h54
c116 0 197 57 197 122c0 30 -18 45 -53 45zM437 657c-35 0 -64 29 -64 64c0 33 29 64 64 64s64 -31 64 -64c0 -35 -29 -64 -64 -64z" />
    <glyph glyph-name="gbreve" unicode="&#x11f;" horiz-adv-x="495" 
d="M219 164c-21 0 -38 2 -53 7l-70 -68l154 -93c74 -45 117 -75 117 -133c0 -92 -123 -137 -241 -137c-151 0 -253 50 -253 126c0 66 85 106 209 143l-41 74l99 97c-45 21 -73 60 -73 111c0 119 121 226 248 226c45 0 85 -14 112 -37l36 65h105l-41 -73h-91
c21 -21 34 -50 34 -82c0 -119 -124 -226 -251 -226zM237 188c69 0 134 78 134 194c0 68 -25 112 -74 112c-70 0 -134 -78 -134 -194c0 -69 25 -112 74 -112zM-47 -120c0 -69 72 -118 193 -118c84 0 146 26 146 74c0 29 -21 52 -90 95l-107 65c-89 -35 -142 -63 -142 -116z
M350 614c-71 0 -140 42 -113 157h37c-17 -84 18 -120 83 -120c61 0 118 32 145 120h39c-37 -125 -118 -157 -191 -157z" />
    <glyph glyph-name="gcircumflex" unicode="&#x11d;" horiz-adv-x="495" 
d="M219 164c-21 0 -38 2 -53 7l-70 -68l154 -93c74 -45 117 -75 117 -133c0 -92 -123 -137 -241 -137c-151 0 -253 50 -253 126c0 66 85 106 209 143l-41 74l99 97c-45 21 -73 60 -73 111c0 119 121 226 248 226c45 0 85 -14 112 -37l36 65h105l-41 -73h-91
c21 -21 34 -50 34 -82c0 -119 -124 -226 -251 -226zM237 188c69 0 134 78 134 194c0 68 -25 112 -74 112c-70 0 -134 -78 -134 -194c0 -69 25 -112 74 -112zM-47 -120c0 -69 72 -118 193 -118c84 0 146 26 146 74c0 29 -21 52 -90 95l-107 65c-89 -35 -142 -63 -142 -116z
M183 597l239 193h8l68 -193h-19l-77 105l-198 -105h-21z" />
    <glyph glyph-name="uni0123" unicode="&#x123;" horiz-adv-x="495" 
d="M219 164c-21 0 -38 2 -53 7l-70 -68l154 -93c74 -45 117 -75 117 -133c0 -92 -123 -137 -241 -137c-151 0 -253 50 -253 126c0 66 85 106 209 143l-41 74l99 97c-45 21 -73 60 -73 111c0 119 121 226 248 226c45 0 85 -14 112 -37l36 65h105l-41 -73h-91
c21 -21 34 -50 34 -82c0 -119 -124 -226 -251 -226zM237 188c69 0 134 78 134 194c0 68 -25 112 -74 112c-70 0 -134 -78 -134 -194c0 -69 25 -112 74 -112zM-47 -120c0 -69 72 -118 193 -118c84 0 146 26 146 74c0 29 -21 52 -90 95l-107 65c-89 -35 -142 -63 -142 -116z
M480 850l11 -21c-87 -51 -134 -101 -134 -141c0 -25 18 -41 46 -48c0 -33 -22 -56 -53 -57c-37 -1 -66 26 -66 65c0 63 75 135 196 202z" />
    <glyph glyph-name="gdotaccent" unicode="&#x121;" horiz-adv-x="495" 
d="M219 164c-21 0 -38 2 -53 7l-70 -68l154 -93c74 -45 117 -75 117 -133c0 -92 -123 -137 -241 -137c-151 0 -253 50 -253 126c0 66 85 106 209 143l-41 74l99 97c-45 21 -73 60 -73 111c0 119 121 226 248 226c45 0 85 -14 112 -37l36 65h105l-41 -73h-91
c21 -21 34 -50 34 -82c0 -119 -124 -226 -251 -226zM237 188c69 0 134 78 134 194c0 68 -25 112 -74 112c-70 0 -134 -78 -134 -194c0 -69 25 -112 74 -112zM-47 -120c0 -69 72 -118 193 -118c84 0 146 26 146 74c0 29 -21 52 -90 95l-107 65c-89 -35 -142 -63 -142 -116z
M385 657c-35 0 -64 29 -64 64c0 33 29 64 64 64s64 -31 64 -64c0 -35 -29 -64 -64 -64z" />
    <glyph glyph-name="hbar" unicode="&#x127;" horiz-adv-x="563" 
d="M264 -12c-51 0 -91 27 -91 70c0 37 37 59 74 55c27 -96 29 -100 41 -100c72 0 150 207 150 348c0 75 -16 105 -51 105c-79 0 -180 -163 -236 -305c-20 -52 -43 -107 -58 -154l-96 -17l244 705l-74 40l3 6l196 44l-127 -366l-52 -134h2c85 159 158 232 251 232
c63 0 100 -44 100 -136c0 -159 -150 -393 -276 -393zM123 588l13 36h291l-13 -36h-291z" />
    <glyph glyph-name="hcircumflex" unicode="&#x125;" horiz-adv-x="563" 
d="M264 -12c-51 0 -91 27 -91 70c0 37 37 59 74 55c27 -96 29 -100 41 -100c72 0 150 207 150 348c0 75 -16 105 -51 105c-79 0 -180 -163 -236 -305c-20 -52 -43 -107 -58 -154l-96 -17l244 705l-74 40l3 6l196 44l-127 -366l-52 -134h2c85 159 158 232 251 232
c63 0 100 -44 100 -136c0 -159 -150 -393 -276 -393zM172 833l216 148h10l80 -148h-17l-83 73l-185 -73h-21z" />
    <glyph glyph-name="dotlessi" unicode="&#x131;" horiz-adv-x="324" 
d="M91 -12c-64 0 -70 35 -46 99l144 374l-92 4l8 21l200 32l-165 -427c-20 -51 -17 -65 4 -65c32 0 88 38 141 138l20 -9c-56 -107 -122 -167 -214 -167z" />
    <glyph glyph-name="ibreve" unicode="&#x12d;" horiz-adv-x="324" 
d="M91 -12c-64 0 -70 35 -46 99l144 374l-92 4l8 21l200 32l-165 -427c-20 -51 -17 -65 4 -65c32 0 88 38 141 138l20 -9c-56 -107 -122 -167 -214 -167zM279 614c-71 0 -140 42 -113 157h37c-17 -84 18 -120 83 -120c61 0 118 32 145 120h39c-37 -125 -118 -157 -191 -157z
" />
    <glyph glyph-name="imacron" unicode="&#x12b;" horiz-adv-x="324" 
d="M91 -12c-64 0 -70 35 -46 99l144 374l-92 4l8 21l200 32l-165 -427c-20 -51 -17 -65 4 -65c32 0 88 38 141 138l20 -9c-56 -107 -122 -167 -214 -167zM159 668l16 45h283l-15 -45h-284z" />
    <glyph glyph-name="iogonek" unicode="&#x12f;" horiz-adv-x="324" 
d="M257 722c0 33 29 63 64 63s64 -30 64 -63c0 -35 -29 -65 -64 -65s-64 30 -64 65zM91 -12c-64 0 -70 35 -46 99l144 374l-92 4l8 21l200 32l-165 -427c-20 -51 -17 -65 4 -65c32 0 88 38 141 138l20 -9c-56 -107 -122 -167 -214 -167zM14 -233c-49 0 -84 22 -84 65
c0 62 108 131 180 168h25c-56 -43 -142 -94 -142 -150c0 -31 21 -48 60 -48c24 0 50 8 70 16l-5 -22c-27 -17 -68 -29 -104 -29z" />
    <glyph glyph-name="itilde" unicode="&#x129;" horiz-adv-x="324" 
d="M91 -12c-64 0 -70 35 -46 99l144 374l-92 4l8 21l200 32l-165 -427c-20 -51 -17 -65 4 -65c32 0 88 38 141 138l20 -9c-56 -107 -122 -167 -214 -167zM388 629c-69 0 -95 68 -151 68c-32 0 -58 -16 -73 -61h-17c15 80 51 131 107 131c68 0 87 -68 148 -68
c31 0 54 20 67 59h16c-19 -92 -54 -129 -97 -129z" />
    <glyph glyph-name="uni1ECB" unicode="&#x1ecb;" horiz-adv-x="324" 
d="M257 722c0 33 29 63 64 63s64 -30 64 -63c0 -35 -29 -65 -64 -65s-64 30 -64 65zM91 -12c-64 0 -70 35 -46 99l144 374l-92 4l8 21l200 32l-165 -427c-20 -51 -17 -65 4 -65c32 0 88 38 141 138l20 -9c-56 -107 -122 -167 -214 -167zM1 -234c-35 0 -64 29 -64 64
c0 33 29 64 64 64s64 -31 64 -64c0 -35 -29 -64 -64 -64z" />
    <glyph glyph-name="uni0237" unicode="&#x237;" horiz-adv-x="285" 
d="M-219 -260l-8 17c129 82 178 115 242 274l174 430l-91 4l8 21l200 32l-203 -502c-45 -109 -62 -143 -156 -191z" />
    <glyph glyph-name="jcircumflex" unicode="&#x135;" horiz-adv-x="285" 
d="M-219 -260l-8 17c129 82 178 115 242 274l174 430l-91 4l8 21l200 32l-203 -502c-45 -109 -62 -143 -156 -191zM92 597l239 193h8l68 -193h-19l-77 105l-198 -105h-21z" />
    <glyph glyph-name="uni0137" unicode="&#x137;" horiz-adv-x="584" 
d="M407 -38c-52 0 -86 32 -127 111l-94 182c131 0 254 70 254 177c0 33 -14 55 -45 55c-78 0 -183 -152 -223 -264l-32 -92l-40 -122l-103 -19l243 706l-78 39l3 6l200 44l-109 -316l-48 -126h2c67 112 129 181 227 181c69 0 92 -39 92 -80c0 -84 -112 -155 -235 -190
l108 -205c24 -47 32 -54 48 -54c18 0 51 17 80 105l21 -6c-35 -107 -79 -132 -144 -132zM71 -343l-10 22c85 51 133 100 133 140c0 27 -17 42 -45 49c-1 32 21 56 52 56c37 1 67 -25 67 -65c0 -63 -76 -135 -197 -202z" />
    <glyph glyph-name="lacute" unicode="&#x13a;" horiz-adv-x="306" 
d="M80 -12c-64 0 -69 35 -46 99l209 609l-78 39l3 6l200 44l-239 -694c-17 -52 -17 -65 4 -65c32 0 88 38 141 138l20 -9c-56 -107 -122 -167 -214 -167zM287 853l144 179h111l-3 -7l-231 -172h-21z" />
    <glyph glyph-name="lcaron" unicode="&#x13e;" horiz-adv-x="346" 
d="M80 -12c-64 0 -69 35 -46 99l209 609l-78 39l3 6l200 44l-239 -694c-17 -52 -17 -65 4 -65c32 0 88 38 141 138l20 -9c-56 -107 -122 -167 -214 -167zM386 521l-10 22c85 51 133 100 133 140c0 25 -17 42 -45 49c-1 32 21 56 52 56c37 1 67 -25 67 -65
c0 -63 -76 -135 -197 -202z" />
    <glyph glyph-name="uni013C" unicode="&#x13c;" horiz-adv-x="306" 
d="M80 -12c-64 0 -69 35 -46 99l209 609l-78 39l3 6l200 44l-239 -694c-17 -52 -17 -65 4 -65c32 0 88 38 141 138l20 -9c-56 -107 -122 -167 -214 -167zM-104 -343l-10 22c85 51 133 100 133 140c0 27 -17 42 -45 49c-1 32 21 56 52 56c37 1 67 -25 67 -65
c0 -63 -76 -135 -197 -202z" />
    <glyph glyph-name="ldot" unicode="&#x140;" horiz-adv-x="391" 
d="M80 -12c-64 0 -69 35 -46 99l209 609l-78 39l3 6l200 44l-239 -694c-17 -52 -17 -65 4 -65c32 0 88 38 141 138l20 -9c-56 -107 -122 -167 -214 -167zM379 331c-35 0 -64 29 -64 64c0 33 29 64 64 64s64 -31 64 -64c0 -35 -29 -64 -64 -64z" />
    <glyph glyph-name="_298" horiz-adv-x="391" 
d="M80 -12c-64 0 -69 35 -46 99l209 609l-78 39l3 6l200 44l-239 -694c-17 -52 -17 -65 4 -65c32 0 88 38 141 138l20 -9c-56 -107 -122 -167 -214 -167zM379 331c-35 0 -64 29 -64 64c0 33 29 64 64 64s64 -31 64 -64c0 -35 -29 -64 -64 -64z" />
    <glyph glyph-name="lslash" unicode="&#x142;" horiz-adv-x="386" 
d="M120 -12c-64 0 -69 35 -46 99l209 609l-78 39l3 6l200 44l-239 -694c-17 -52 -17 -65 4 -65c32 0 88 38 141 138l20 -9c-56 -107 -122 -167 -214 -167zM38 276l14 48l358 183l-14 -48z" />
    <glyph glyph-name="eng" unicode="&#x14b;" horiz-adv-x="571" 
d="M231 -175l-166 -85l-9 17c130 82 170 117 242 274l131 286c48 104 60 152 17 152c-39 0 -91 -52 -147 -127c-69 -91 -151 -228 -191 -333l-101 -16l180 468l-91 4l8 21l198 32l-142 -358h1c43 84 94 161 134 216c72 97 131 141 199 141c84 0 84 -80 31 -199l-137 -301
c-51 -110 -63 -144 -157 -192z" />
    <glyph glyph-name="nacute" unicode="&#x144;" horiz-adv-x="607" 
d="M367 -12c-65 0 -79 38 -50 99l108 230c49 104 59 152 16 152c-39 0 -85 -52 -141 -125c-69 -93 -152 -230 -192 -335l-102 -19l181 471l-91 4l8 21l199 32l-142 -358h1c43 84 93 161 133 216c72 97 128 141 196 141c84 0 90 -71 30 -199l-106 -227c-23 -51 -16 -65 4 -65
c32 0 87 38 142 138l20 -9c-56 -107 -122 -167 -214 -167zM417 597l144 179h111l-3 -7l-231 -172h-21z" />
    <glyph glyph-name="ncaron" unicode="&#x148;" horiz-adv-x="607" 
d="M367 -12c-65 0 -79 38 -50 99l108 230c49 104 59 152 16 152c-39 0 -85 -52 -141 -125c-69 -93 -152 -230 -192 -335l-102 -19l181 471l-91 4l8 21l199 32l-142 -358h1c43 84 93 161 133 216c72 97 128 141 196 141c84 0 90 -71 30 -199l-106 -227c-23 -51 -16 -65 4 -65
c32 0 87 38 142 138l20 -9c-56 -107 -122 -167 -214 -167zM433 597l-68 193h19l76 -105l199 105h21l-239 -193h-8z" />
    <glyph glyph-name="uni0146" unicode="&#x146;" horiz-adv-x="607" 
d="M367 -12c-65 0 -79 38 -50 99l108 230c49 104 59 152 16 152c-39 0 -85 -52 -141 -125c-69 -93 -152 -230 -192 -335l-102 -19l181 471l-91 4l8 21l199 32l-142 -358h1c43 84 93 161 133 216c72 97 128 141 196 141c84 0 90 -71 30 -199l-106 -227c-23 -51 -16 -65 4 -65
c32 0 87 38 142 138l20 -9c-56 -107 -122 -167 -214 -167zM79 -343l-10 22c85 51 133 100 133 140c0 27 -17 42 -45 49c-1 32 21 56 52 56c37 1 67 -25 67 -65c0 -63 -76 -135 -197 -202z" />
    <glyph glyph-name="oe" unicode="&#x153;" horiz-adv-x="824" 
d="M183 -12c-96 0 -155 65 -155 156c0 180 162 373 334 373c80 0 131 -43 146 -110c67 67 148 110 220 110c76 0 106 -38 106 -90c0 -41 -27 -89 -78 -116l-238 -2c-66 -178 -20 -275 53 -275c56 0 113 49 166 153l21 -7c-63 -129 -132 -192 -241 -192
c-67 0 -109 32 -126 95c-59 -59 -131 -95 -208 -95zM777 450c0 30 -18 45 -53 45c-70 0 -151 -69 -198 -167h54c116 0 197 57 197 122zM413 362c0 87 -30 127 -81 127c-93 0 -199 -147 -199 -345c0 -88 31 -128 82 -128c92 0 198 148 198 346z" />
    <glyph glyph-name="obreve" unicode="&#x14f;" horiz-adv-x="543" 
d="M183 -12c-96 0 -155 65 -155 156c0 180 162 373 334 373c96 0 155 -64 155 -155c0 -181 -160 -374 -334 -374zM215 16c92 0 198 148 198 346c0 87 -30 127 -81 127c-93 0 -199 -147 -199 -345c0 -88 31 -128 82 -128zM399 614c-71 0 -140 42 -113 157h37
c-17 -84 18 -120 83 -120c61 0 118 32 145 120h39c-37 -125 -118 -157 -191 -157z" />
    <glyph glyph-name="ohungarumlaut" unicode="&#x151;" horiz-adv-x="543" 
d="M183 -12c-96 0 -155 65 -155 156c0 180 162 373 334 373c96 0 155 -64 155 -155c0 -181 -160 -374 -334 -374zM215 16c92 0 198 148 198 346c0 87 -30 127 -81 127c-93 0 -199 -147 -199 -345c0 -88 31 -128 82 -128zM475 597l144 179h112l-3 -7l-232 -172h-21zM285 597
l143 179h112l-3 -7l-232 -172h-20z" />
    <glyph glyph-name="omacron" unicode="&#x14d;" horiz-adv-x="543" 
d="M183 -12c-96 0 -155 65 -155 156c0 180 162 373 334 373c96 0 155 -64 155 -155c0 -181 -160 -374 -334 -374zM215 16c92 0 198 148 198 346c0 87 -30 127 -81 127c-93 0 -199 -147 -199 -345c0 -88 31 -128 82 -128zM279 668l16 45h283l-15 -45h-284z" />
    <glyph glyph-name="uni1ECD" unicode="&#x1ecd;" horiz-adv-x="543" 
d="M183 -12c-96 0 -155 65 -155 156c0 180 162 373 334 373c96 0 155 -64 155 -155c0 -181 -160 -374 -334 -374zM215 16c92 0 198 148 198 346c0 87 -30 127 -81 127c-93 0 -199 -147 -199 -345c0 -88 31 -128 82 -128zM124 -234c-35 0 -64 29 -64 64c0 33 29 64 64 64
s64 -31 64 -64c0 -35 -29 -64 -64 -64z" />
    <glyph glyph-name="racute" unicode="&#x155;" horiz-adv-x="449" 
d="M7 -10l181 471l-92 4l8 21l199 32l-132 -340h1c56 109 97 182 122 219c56 84 100 120 149 120c37 0 57 -30 57 -62c0 -33 -21 -67 -68 -72l-45 87c-79 -61 -174 -258 -257 -407l-21 -54zM362 597l144 179h111l-3 -7l-231 -172h-21z" />
    <glyph glyph-name="rcaron" unicode="&#x159;" horiz-adv-x="449" 
d="M7 -10l181 471l-92 4l8 21l199 32l-132 -340h1c56 109 97 182 122 219c56 84 100 120 149 120c37 0 57 -30 57 -62c0 -33 -21 -67 -68 -72l-45 87c-79 -61 -174 -258 -257 -407l-21 -54zM378 597l-68 193h19l76 -105l199 105h21l-239 -193h-8z" />
    <glyph glyph-name="uni0157" unicode="&#x157;" horiz-adv-x="449" 
d="M7 -10l181 471l-92 4l8 21l199 32l-132 -340h1c56 109 97 182 122 219c56 84 100 120 149 120c37 0 57 -30 57 -62c0 -33 -21 -67 -68 -72l-45 87c-79 -61 -174 -258 -257 -407l-21 -54zM-109 -343l-10 22c85 51 133 100 133 140c0 27 -17 42 -45 49c-1 32 21 56 52 56
c37 1 67 -25 67 -65c0 -63 -76 -135 -197 -202z" />
    <glyph glyph-name="sacute" unicode="&#x15b;" horiz-adv-x="391" 
d="M112 -12c-77 0 -121 40 -121 87c0 37 39 60 82 56c32 -117 34 -118 51 -118c33 0 101 23 101 88c0 32 -13 54 -38 89l-44 59c-28 37 -42 74 -42 106c0 91 98 162 198 162c60 0 99 -29 99 -72c0 -35 -25 -62 -78 -59c-24 103 -25 105 -43 105c-40 0 -104 -27 -104 -74
c0 -25 13 -55 38 -89l44 -59c27 -37 45 -75 45 -112c0 -104 -104 -169 -188 -169zM285 597l144 179h111l-3 -7l-231 -172h-21z" />
    <glyph glyph-name="scaron" unicode="&#x161;" horiz-adv-x="391" 
d="M112 -12c-77 0 -121 40 -121 87c0 37 39 60 82 56c32 -117 34 -118 51 -118c33 0 101 23 101 88c0 32 -13 54 -38 89l-44 59c-28 37 -42 74 -42 106c0 91 98 162 198 162c60 0 99 -29 99 -72c0 -35 -25 -62 -78 -59c-24 103 -25 105 -43 105c-40 0 -104 -27 -104 -74
c0 -25 13 -55 38 -89l44 -59c27 -37 45 -75 45 -112c0 -104 -104 -169 -188 -169zM301 597l-68 193h19l76 -105l199 105h21l-239 -193h-8z" />
    <glyph glyph-name="scedilla" unicode="&#x15f;" horiz-adv-x="391" 
d="M112 -12c-77 0 -121 40 -121 87c0 37 39 60 82 56c32 -117 34 -118 51 -118c33 0 101 23 101 88c0 32 -13 54 -38 89l-44 59c-28 37 -42 74 -42 106c0 91 98 162 198 162c60 0 99 -29 99 -72c0 -35 -25 -62 -78 -59c-24 103 -25 105 -43 105c-40 0 -104 -27 -104 -74
c0 -25 13 -55 38 -89l44 -59c27 -37 45 -75 45 -112c0 -104 -104 -169 -188 -169zM11 -257c-64 0 -103 34 -103 65c0 23 21 34 42 23c-3 -44 29 -66 68 -66c36 0 58 14 58 39c0 28 -37 52 -84 87l140 109h33l-109 -86c35 -25 63 -52 63 -91c0 -47 -44 -80 -108 -80z" />
    <glyph glyph-name="scircumflex" unicode="&#x15d;" horiz-adv-x="391" 
d="M112 -12c-77 0 -121 40 -121 87c0 37 39 60 82 56c32 -117 34 -118 51 -118c33 0 101 23 101 88c0 32 -13 54 -38 89l-44 59c-28 37 -42 74 -42 106c0 91 98 162 198 162c60 0 99 -29 99 -72c0 -35 -25 -62 -78 -59c-24 103 -25 105 -43 105c-40 0 -104 -27 -104 -74
c0 -25 13 -55 38 -89l44 -59c27 -37 45 -75 45 -112c0 -104 -104 -169 -188 -169zM160 597l239 193h8l68 -193h-19l-77 105l-198 -105h-21z" />
    <glyph glyph-name="uni0219" unicode="&#x219;" horiz-adv-x="391" 
d="M112 -12c-77 0 -121 40 -121 87c0 37 39 60 82 56c32 -117 34 -118 51 -118c33 0 101 23 101 88c0 32 -13 54 -38 89l-44 59c-28 37 -42 74 -42 106c0 91 98 162 198 162c60 0 99 -29 99 -72c0 -35 -25 -62 -78 -59c-24 103 -25 105 -43 105c-40 0 -104 -27 -104 -74
c0 -25 13 -55 38 -89l44 -59c27 -37 45 -75 45 -112c0 -104 -104 -169 -188 -169zM-59 -343l-10 22c85 51 133 100 133 140c0 27 -17 42 -45 49c-1 32 21 56 52 56c37 1 67 -25 67 -65c0 -63 -76 -135 -197 -202z" />
    <glyph glyph-name="tbar" unicode="&#x167;" horiz-adv-x="417" 
d="M113 -12c-65 0 -72 36 -47 99l147 364h-119l20 51h120l45 113h94l-45 -113h143l-20 -51h-144l-144 -359c-21 -51 -18 -66 2 -66c32 0 93 38 146 138l20 -9c-56 -107 -126 -167 -218 -167zM42 325l15 35h357l-15 -35h-357z" />
    <glyph glyph-name="tcaron" unicode="&#x165;" horiz-adv-x="377" 
d="M93 -12c-65 0 -72 36 -47 99l147 364h-119l20 51h120l45 113h94l-45 -113h143l-20 -51h-144l-144 -359c-21 -51 -18 -66 2 -66c32 0 93 38 146 138l20 -9c-56 -107 -126 -167 -218 -167zM423 569l-10 22c85 51 133 100 133 140c0 25 -17 42 -45 49c-1 32 21 56 52 56
c37 1 67 -25 67 -65c0 -63 -76 -135 -197 -202z" />
    <glyph glyph-name="uni0163" unicode="&#x163;" horiz-adv-x="377" 
d="M93 -12c-65 0 -72 36 -47 99l147 364h-119l20 51h120l45 113h94l-45 -113h143l-20 -51h-144l-144 -359c-21 -51 -18 -66 2 -66c32 0 93 38 146 138l20 -9c-56 -107 -126 -167 -218 -167zM-92 -343l-10 22c85 51 133 100 133 140c0 27 -17 42 -45 49c-1 32 21 56 52 56
c37 1 67 -25 67 -65c0 -63 -76 -135 -197 -202z" />
    <glyph glyph-name="uni021B" unicode="&#x21b;" horiz-adv-x="377" 
d="M93 -12c-65 0 -72 36 -47 99l147 364h-119l20 51h120l45 113h94l-45 -113h143l-20 -51h-144l-144 -359c-21 -51 -18 -66 2 -66c32 0 93 38 146 138l20 -9c-56 -107 -126 -167 -218 -167zM-92 -343l-10 22c85 51 133 100 133 140c0 27 -17 42 -45 49c-1 32 21 56 52 56
c37 1 67 -25 67 -65c0 -63 -76 -135 -197 -202z" />
    <glyph glyph-name="ubreve" unicode="&#x16d;" horiz-adv-x="606" 
d="M310 518l-141 -329c-45 -107 -56 -153 -17 -153s86 53 142 128c67 91 147 225 192 333l99 15l-162 -421c-20 -51 -17 -65 3 -65c32 0 88 38 141 138l21 -9c-56 -107 -122 -167 -214 -167c-65 0 -72 35 -47 99l98 248h-1c-39 -77 -88 -153 -127 -205
c-71 -96 -126 -142 -195 -142c-83 0 -89 63 -30 200l116 273l-92 4l8 21zM420 614c-71 0 -140 42 -113 157h37c-17 -84 18 -120 83 -120c61 0 118 32 145 120h39c-37 -125 -118 -157 -191 -157z" />
    <glyph glyph-name="uhungarumlaut" unicode="&#x171;" horiz-adv-x="606" 
d="M310 518l-141 -329c-45 -107 -56 -153 -17 -153s86 53 142 128c67 91 147 225 192 333l99 15l-162 -421c-20 -51 -17 -65 3 -65c32 0 88 38 141 138l21 -9c-56 -107 -122 -167 -214 -167c-65 0 -72 35 -47 99l98 248h-1c-39 -77 -88 -153 -127 -205
c-71 -96 -126 -142 -195 -142c-83 0 -89 63 -30 200l116 273l-92 4l8 21zM496 597l144 179h112l-3 -7l-232 -172h-21zM306 597l143 179h112l-3 -7l-232 -172h-20z" />
    <glyph glyph-name="umacron" unicode="&#x16b;" horiz-adv-x="606" 
d="M310 518l-141 -329c-45 -107 -56 -153 -17 -153s86 53 142 128c67 91 147 225 192 333l99 15l-162 -421c-20 -51 -17 -65 3 -65c32 0 88 38 141 138l21 -9c-56 -107 -122 -167 -214 -167c-65 0 -72 35 -47 99l98 248h-1c-39 -77 -88 -153 -127 -205
c-71 -96 -126 -142 -195 -142c-83 0 -89 63 -30 200l116 273l-92 4l8 21zM300 668l16 45h283l-15 -45h-284z" />
    <glyph glyph-name="uogonek" unicode="&#x173;" horiz-adv-x="606" 
d="M310 518l-141 -329c-45 -107 -56 -153 -17 -153s86 53 142 128c67 91 147 225 192 333l99 15l-162 -421c-20 -51 -17 -65 3 -65c32 0 88 38 141 138l21 -9c-47 -88 -100 -145 -169 -161c-55 -39 -129 -92 -129 -144c0 -31 21 -48 60 -48c24 0 50 8 70 16l-5 -22
c-27 -17 -68 -29 -104 -29c-49 0 -84 22 -84 65c0 58 87 117 157 157c-3 0 -7 -1 -10 -1c-65 0 -72 35 -47 99l98 248h-1c-39 -77 -88 -153 -127 -205c-71 -96 -126 -142 -195 -142c-83 0 -89 63 -30 200l116 273l-92 4l8 21z" />
    <glyph glyph-name="uring" unicode="&#x16f;" horiz-adv-x="606" 
d="M310 518l-141 -329c-45 -107 -56 -153 -17 -153s86 53 142 128c67 91 147 225 192 333l99 15l-162 -421c-20 -51 -17 -65 3 -65c32 0 88 38 141 138l21 -9c-56 -107 -122 -167 -214 -167c-65 0 -72 35 -47 99l98 248h-1c-39 -77 -88 -153 -127 -205
c-71 -96 -126 -142 -195 -142c-83 0 -89 63 -30 200l116 273l-92 4l8 21zM452 585c-63 0 -115 49 -115 111c0 61 52 112 115 112c65 0 117 -51 117 -112c0 -62 -52 -111 -117 -111zM452 621c45 0 76 31 76 75s-31 75 -76 75c-44 0 -75 -31 -75 -75s31 -75 75 -75z" />
    <glyph glyph-name="utilde" unicode="&#x169;" horiz-adv-x="606" 
d="M310 518l-141 -329c-45 -107 -56 -153 -17 -153s86 53 142 128c67 91 147 225 192 333l99 15l-162 -421c-20 -51 -17 -65 3 -65c32 0 88 38 141 138l21 -9c-56 -107 -122 -167 -214 -167c-65 0 -72 35 -47 99l98 248h-1c-39 -77 -88 -153 -127 -205
c-71 -96 -126 -142 -195 -142c-83 0 -89 63 -30 200l116 273l-92 4l8 21zM529 629c-69 0 -95 68 -151 68c-32 0 -58 -16 -73 -61h-17c15 80 51 131 107 131c68 0 87 -68 148 -68c31 0 54 20 67 59h16c-19 -92 -54 -129 -97 -129z" />
    <glyph glyph-name="uni1EE5" unicode="&#x1ee5;" horiz-adv-x="606" 
d="M310 518l-141 -329c-45 -107 -56 -153 -17 -153s86 53 142 128c67 91 147 225 192 333l99 15l-162 -421c-20 -51 -17 -65 3 -65c32 0 88 38 141 138l21 -9c-56 -107 -122 -167 -214 -167c-65 0 -72 35 -47 99l98 248h-1c-39 -77 -88 -153 -127 -205
c-71 -96 -126 -142 -195 -142c-83 0 -89 63 -30 200l116 273l-92 4l8 21zM140 -234c-35 0 -64 29 -64 64c0 33 29 64 64 64s64 -31 64 -64c0 -35 -29 -64 -64 -64z" />
    <glyph glyph-name="wacute" unicode="&#x1e83;" horiz-adv-x="820" 
d="M171 -12c-69 0 -103 42 -103 111c0 93 75 203 227 319h-204l-47 -81h-22l74 165h316c-128 -106 -260 -216 -260 -337c0 -56 32 -89 92 -89c37 0 74 12 113 35c-7 28 -11 57 -11 87c0 148 103 319 196 319c35 0 56 -22 56 -67c0 -49 -23 -139 -100 -238
c-24 -31 -50 -61 -78 -89c27 -31 64 -47 110 -47c104 0 209 100 230 264l-79 106c-7 45 21 71 52 71c32 0 57 -19 57 -94c0 -195 -115 -435 -293 -435c-63 0 -104 36 -128 89c-64 -52 -134 -89 -198 -89zM378 250c0 -41 9 -76 26 -105c25 22 49 47 71 75
c63 76 79 130 79 165c0 36 -20 55 -49 55c-56 0 -127 -79 -127 -190zM528 597l144 179h111l-3 -7l-231 -172h-21z" />
    <glyph glyph-name="wcircumflex" unicode="&#x175;" horiz-adv-x="820" 
d="M171 -12c-69 0 -103 42 -103 111c0 93 75 203 227 319h-204l-47 -81h-22l74 165h316c-128 -106 -260 -216 -260 -337c0 -56 32 -89 92 -89c37 0 74 12 113 35c-7 28 -11 57 -11 87c0 148 103 319 196 319c35 0 56 -22 56 -67c0 -49 -23 -139 -100 -238
c-24 -31 -50 -61 -78 -89c27 -31 64 -47 110 -47c104 0 209 100 230 264l-79 106c-7 45 21 71 52 71c32 0 57 -19 57 -94c0 -195 -115 -435 -293 -435c-63 0 -104 36 -128 89c-64 -52 -134 -89 -198 -89zM378 250c0 -41 9 -76 26 -105c25 22 49 47 71 75
c63 76 79 130 79 165c0 36 -20 55 -49 55c-56 0 -127 -79 -127 -190zM403 597l239 193h8l68 -193h-19l-77 105l-198 -105h-21z" />
    <glyph glyph-name="wdieresis" unicode="&#x1e85;" horiz-adv-x="820" 
d="M171 -12c-69 0 -103 42 -103 111c0 93 75 203 227 319h-204l-47 -81h-22l74 165h316c-128 -106 -260 -216 -260 -337c0 -56 32 -89 92 -89c37 0 74 12 113 35c-7 28 -11 57 -11 87c0 148 103 319 196 319c35 0 56 -22 56 -67c0 -49 -23 -139 -100 -238
c-24 -31 -50 -61 -78 -89c27 -31 64 -47 110 -47c104 0 209 100 230 264l-79 106c-7 45 21 71 52 71c32 0 57 -19 57 -94c0 -195 -115 -435 -293 -435c-63 0 -104 36 -128 89c-64 -52 -134 -89 -198 -89zM378 250c0 -41 9 -76 26 -105c25 22 49 47 71 75
c63 76 79 130 79 165c0 36 -20 55 -49 55c-56 0 -127 -79 -127 -190zM489 642c-35 0 -64 30 -64 65c0 33 29 63 64 63s64 -30 64 -63c0 -35 -29 -65 -64 -65zM721 642c-35 0 -64 30 -64 65c0 33 29 63 64 63s64 -30 64 -63c0 -35 -29 -65 -64 -65z" />
    <glyph glyph-name="wgrave" unicode="&#x1e81;" horiz-adv-x="820" 
d="M171 -12c-69 0 -103 42 -103 111c0 93 75 203 227 319h-204l-47 -81h-22l74 165h316c-128 -106 -260 -216 -260 -337c0 -56 32 -89 92 -89c37 0 74 12 113 35c-7 28 -11 57 -11 87c0 148 103 319 196 319c35 0 56 -22 56 -67c0 -49 -23 -139 -100 -238
c-24 -31 -50 -61 -78 -89c27 -31 64 -47 110 -47c104 0 209 100 230 264l-79 106c-7 45 21 71 52 71c32 0 57 -19 57 -94c0 -195 -115 -435 -293 -435c-63 0 -104 36 -128 89c-64 -52 -134 -89 -198 -89zM378 250c0 -41 9 -76 26 -105c25 22 49 47 71 75
c63 76 79 130 79 165c0 36 -20 55 -49 55c-56 0 -127 -79 -127 -190zM572 597h-17l-113 172l3 7h85z" />
    <glyph glyph-name="ycircumflex" unicode="&#x177;" horiz-adv-x="575" 
d="M-92 -260c-49 0 -74 18 -74 54c0 19 10 37 30 50c25 -23 47 -33 82 -33c52 0 110 29 217 168l-5 478h-88l1 21l181 40l2 -419l180 237c101 135 137 181 181 181c24 0 43 -17 43 -44c0 -16 -5 -31 -14 -38c-81 -24 -130 -46 -207 -145l-241 -313
c-96 -126 -205 -237 -288 -237zM271 597l239 193h8l68 -193h-19l-77 105l-198 -105h-21z" />
    <glyph glyph-name="ygrave" unicode="&#x1ef3;" horiz-adv-x="575" 
d="M-92 -260c-49 0 -74 18 -74 54c0 19 10 37 30 50c25 -23 47 -33 82 -33c52 0 110 29 217 168l-5 478h-88l1 21l181 40l2 -419l180 237c101 135 137 181 181 181c24 0 43 -17 43 -44c0 -16 -5 -31 -14 -38c-81 -24 -130 -46 -207 -145l-241 -313
c-96 -126 -205 -237 -288 -237zM440 597h-17l-113 172l3 7h85z" />
    <glyph glyph-name="uni0233" unicode="&#x233;" horiz-adv-x="575" 
d="M-92 -260c-49 0 -74 18 -74 54c0 19 10 37 30 50c25 -23 47 -33 82 -33c52 0 110 29 217 168l-5 478h-88l1 21l181 40l2 -419l180 237c101 135 137 181 181 181c24 0 43 -17 43 -44c0 -16 -5 -31 -14 -38c-81 -24 -130 -46 -207 -145l-241 -313
c-96 -126 -205 -237 -288 -237zM318 668l16 45h283l-15 -45h-284z" />
    <glyph glyph-name="zacute" unicode="&#x17a;" horiz-adv-x="510" 
d="M83 329l68 173h405l-319 -269l60 -134c33 -75 53 -98 84 -98c40 0 71 46 31 165l19 8c47 -135 14 -204 -74 -204c-64 0 -113 29 -166 133l-32 63l-94 -79c-27 -23 -24 -42 -12 -89c-38 -19 -80 -4 -80 25c0 16 9 31 48 63l393 332h-266l-45 -89h-20zM365 597l144 179h111
l-3 -7l-231 -172h-21z" />
    <glyph glyph-name="zcaron" unicode="&#x17e;" horiz-adv-x="510" 
d="M83 329l68 173h405l-319 -269l60 -134c33 -75 53 -98 84 -98c40 0 71 46 31 165l19 8c47 -135 14 -204 -74 -204c-64 0 -113 29 -166 133l-32 63l-94 -79c-27 -23 -24 -42 -12 -89c-38 -19 -80 -4 -80 25c0 16 9 31 48 63l393 332h-266l-45 -89h-20zM381 597l-68 193h19
l76 -105l199 105h21l-239 -193h-8z" />
    <glyph glyph-name="zdotaccent" unicode="&#x17c;" horiz-adv-x="510" 
d="M83 329l68 173h405l-319 -269l60 -134c33 -75 53 -98 84 -98c40 0 71 46 31 165l19 8c47 -135 14 -204 -74 -204c-64 0 -113 29 -166 133l-32 63l-94 -79c-27 -23 -24 -42 -12 -89c-38 -19 -80 -4 -80 25c0 16 9 31 48 63l393 332h-266l-45 -89h-20zM442 657
c-35 0 -64 29 -64 64c0 33 29 64 64 64s64 -31 64 -64c0 -35 -29 -64 -64 -64z" />
    <glyph glyph-name="uni0259" unicode="&#x259;" horiz-adv-x="467" 
d="M312 518c84 0 134 -53 134 -149c0 -191 -196 -380 -345 -380c-76 0 -106 38 -106 90c0 41 27 89 78 116l238 2c20 47 32 97 32 152c0 87 -40 123 -85 123c-56 0 -113 -49 -166 -153l-21 7c63 129 132 192 241 192zM105 11c70 0 151 69 198 167h-54
c-116 0 -197 -57 -197 -122c0 -30 18 -45 53 -45z" />
    <glyph glyph-name="uni0410" unicode="&#x410;" horiz-adv-x="816" 
d="M-141 0l8 24l44 3c31 3 58 11 82 34l792 721h18l-178 -719c-7 -28 5 -33 34 -36l44 -3l-7 -24h-282l7 24l46 3c31 3 49 8 56 36l55 216h-293l-238 -218c-23 -21 -28 -31 4 -34l60 -3l-8 -24h-244zM329 319h259l79 309z" />
    <glyph glyph-name="uni0411" unicode="&#x411;" horiz-adv-x="753" 
d="M87 63l193 632c9 28 -5 33 -34 36l-44 3l8 24h545l-34 -222h-18l-50 174c-4 15 -7 16 -23 16h-239l-90 -294h89c197 0 299 -57 299 -173c0 -147 -161 -259 -404 -259h-307l7 24l46 3c31 3 48 8 56 36zM178 31h90c188 0 307 89 307 228c0 100 -68 142 -203 142h-80z" />
    <glyph glyph-name="uni0412" unicode="&#x412;" horiz-adv-x="747" 
d="M-22 0l7 24l46 3c31 3 47 8 56 36l193 632c9 28 -6 33 -34 36l-44 3l8 24h279c168 0 265 -35 265 -134c-3 -104 -104 -202 -275 -218v-1c120 -5 220 -50 220 -151c0 -123 -132 -254 -399 -254h-322zM297 416h118c157 0 231 122 231 209c0 75 -56 102 -156 102h-99z
M178 31h117c213 0 291 127 291 234c0 87 -67 120 -178 120h-121z" />
    <glyph glyph-name="uni0413" unicode="&#x413;" horiz-adv-x="664" 
d="M-22 0l7 24l46 3c31 3 48 8 56 36l193 632c9 28 -5 33 -34 36l-44 3l8 24h550l-34 -222h-18l-50 174c-4 15 -7 16 -23 16h-244l-203 -663c-8 -28 5 -34 36 -35l85 -2l-8 -26h-323z" />
    <glyph glyph-name="uni0414" unicode="&#x414;" horiz-adv-x="801" 
d="M66 -12l-130 -147h-17l66 190h82c80 110 186 307 295 664c9 28 -6 33 -34 36l-44 3l7 24h610l-7 -24l-46 -3c-31 -3 -47 -8 -56 -36l-203 -664h104l-50 -190h-17l-30 147c-3 9 -7 12 -22 12h-478c-16 0 -22 -3 -30 -12zM488 31l213 696h-290
c-119 -382 -220 -584 -300 -696h377z" />
    <glyph glyph-name="uni0415" unicode="&#x415;" horiz-adv-x="751" 
d="M-22 0l7 24l46 3c31 3 48 8 56 36l194 632c8 28 -6 33 -34 36l-44 3l7 24h557l-35 -222h-18l-46 174c-4 15 -7 16 -24 16h-253l-96 -313h150c17 0 19 2 26 13l76 118h18l-90 -297h-18l-5 117c0 11 -1 13 -18 13h-150l-105 -345h296c16 0 19 2 32 14l195 178h18l-137 -224
h-605z" />
    <glyph glyph-name="uni0401" unicode="&#x401;" horiz-adv-x="751" 
d="M-22 0l7 24l46 3c31 3 48 8 56 36l194 632c8 28 -6 33 -34 36l-44 3l7 24h557l-35 -222h-18l-46 174c-4 15 -7 16 -24 16h-253l-96 -313h150c17 0 19 2 26 13l76 118h18l-90 -297h-18l-5 117c0 11 -1 13 -18 13h-150l-105 -345h296c16 0 19 2 32 14l195 178h18l-137 -224
h-605zM696 854c-35 0 -64 29 -64 64c0 33 29 64 64 64s64 -31 64 -64c0 -35 -29 -64 -64 -64zM464 854c-35 0 -64 29 -64 64c0 33 29 64 64 64s64 -31 64 -64c0 -35 -29 -64 -64 -64z" />
    <glyph glyph-name="uni0416" unicode="&#x416;" horiz-adv-x="1157" 
d="M82 0h-152l559 427l-197 275c-15 21 -25 26 -65 29l-51 3l8 24h264l-8 -24l-65 -3c-32 -2 -43 -10 -33 -24l234 -327l96 315c9 28 -5 33 -34 36l-44 3l8 24h282l-8 -24l-46 -3c-31 -3 -48 -8 -57 -36l-96 -316l37 28l44 35l1 -1l352 266c17 13 14 21 -19 24l-63 3l8 24
h264l-8 -24l-53 -3c-40 -3 -59 -8 -86 -29l-379 -285l292 -417h-127l-264 378l-96 -315c-8 -28 6 -33 35 -36l44 -3l-7 -24h-282l7 24l46 3c31 3 48 8 56 36l96 313z" />
    <glyph glyph-name="uni0417" unicode="&#x417;" horiz-adv-x="713" 
d="M267 20c180 0 275 105 275 222c0 84 -52 143 -160 143h-87l10 31h83c143 0 224 96 224 196c0 75 -42 130 -129 130c-31 0 -48 -2 -64 -5c-23 -5 -33 -9 -56 -34l-146 -159h-18l92 204c56 20 123 27 204 27c150 0 225 -75 225 -159c0 -93 -93 -195 -277 -214v-2
c140 0 212 -70 212 -160c0 -116 -120 -252 -387 -252c-88 0 -138 8 -188 26l31 237h18l38 -185c3 -17 13 -29 28 -36c16 -7 36 -10 72 -10z" />
    <glyph glyph-name="uni0418" unicode="&#x418;" horiz-adv-x="898" 
d="M-22 0l7 24l46 3c31 3 48 8 56 36l193 632c9 28 -5 33 -34 36l-44 3l8 24h282l-8 -24l-46 -3c-31 -3 -48 -8 -57 -36l-160 -524l559 497l8 27c9 28 -5 33 -34 36l-44 3l8 24h282l-8 -24l-46 -3c-29 -3 -47 -8 -56 -36l-193 -632c-8 -28 6 -33 34 -36l44 -3l-7 -24h-282
l7 24l46 3c31 3 48 8 56 36l166 541l-559 -497l-14 -44c-8 -28 6 -33 35 -36l44 -3l-7 -24h-282z" />
    <glyph glyph-name="uni0419" unicode="&#x419;" horiz-adv-x="898" 
d="M-22 0l7 24l46 3c31 3 48 8 56 36l193 632c9 28 -5 33 -34 36l-44 3l8 24h282l-8 -24l-46 -3c-31 -3 -48 -8 -57 -36l-160 -524l559 497l8 27c9 28 -5 33 -34 36l-44 3l8 24h282l-8 -24l-46 -3c-29 -3 -47 -8 -56 -36l-193 -632c-8 -28 6 -33 34 -36l44 -3l-7 -24h-282
l7 24l46 3c31 3 48 8 56 36l166 541l-559 -497l-14 -44c-8 -28 6 -33 35 -36l44 -3l-7 -24h-282zM625 829c-115 0 -152 71 -139 156h73c-16 -101 16 -127 67 -127c53 0 91 25 107 127h73c-16 -95 -90 -156 -181 -156z" />
    <glyph glyph-name="uni041A" unicode="&#x41a;" horiz-adv-x="828" 
d="M-22 0l7 24l46 3c31 3 47 8 56 36l193 632c9 28 -6 33 -34 36l-44 3l8 24h282l-8 -24l-46 -3c-31 -3 -47 -8 -56 -36l-96 -314l490 326c17 12 13 21 -19 24l-63 3l8 24h270l-7 -24l-53 -3c-40 -3 -59 -10 -87 -29l-437 -290l369 -412h-127l-346 376l-96 -313
c-9 -28 6 -33 35 -36l44 -3l-7 -24h-282z" />
    <glyph glyph-name="uni041B" unicode="&#x41b;" horiz-adv-x="802" 
d="M122 63c-47 -56 -80 -75 -111 -75c-23 0 -35 13 -35 32c0 49 58 91 147 106c107 141 174 313 251 569c9 28 -5 33 -34 36l-44 3l7 24h601l-7 -24l-46 -3c-29 -3 -47 -8 -56 -36l-193 -632c-9 -28 6 -33 34 -36l44 -3l-7 -24h-282l7 24l46 3c31 3 47 8 56 36l203 664h-280
c-93 -308 -173 -509 -301 -664z" />
    <glyph glyph-name="uni041C" unicode="&#x41c;" horiz-adv-x="1032" 
d="M-22 0l7 24l46 3c31 3 47 8 56 36l193 632c9 28 -6 33 -34 36l-44 3l8 24h209l103 -488l399 488h213l-8 -24l-46 -3c-31 -3 -47 -8 -56 -36l-194 -632c-9 -28 6 -33 35 -36l44 -3l-7 -24h-282l7 24l46 3c31 3 47 8 56 36l199 653l-477 -588h-6l-120 587l-199 -652
c-9 -28 6 -33 34 -36l44 -3l-7 -24h-219z" />
    <glyph glyph-name="uni041D" unicode="&#x41d;" horiz-adv-x="898" 
d="M-22 0l7 24l46 3c31 3 47 8 56 36l193 632c9 28 -6 33 -34 36l-44 3l8 24h282l-8 -24l-46 -3c-31 -3 -48 -8 -56 -36l-84 -277h406l85 277c9 28 -6 33 -35 36l-43 3l7 24h282l-7 -24l-46 -3c-31 -3 -48 -8 -57 -36l-193 -632c-9 -28 6 -33 34 -36l44 -3l-7 -24h-282l7 24
l46 3c31 3 47 8 56 36l97 315h-407l-97 -315c-9 -28 6 -33 35 -36l44 -3l-7 -24h-282z" />
    <glyph glyph-name="uni041E" unicode="&#x41e;" horiz-adv-x="881" 
d="M371 -12c-164 0 -298 103 -298 284c0 225 215 503 518 503c164 0 298 -103 298 -284c0 -225 -214 -503 -518 -503zM389 17c206 0 382 225 382 476c0 152 -71 252 -198 252c-206 0 -382 -224 -382 -475c0 -153 71 -253 198 -253z" />
    <glyph glyph-name="uni041F" unicode="&#x41f;" horiz-adv-x="880" 
d="M210 758h772l-8 -24l-46 -3c-29 -3 -47 -8 -56 -36l-193 -632c-8 -28 6 -33 34 -36l44 -3l-7 -24h-282l7 24l46 3c31 3 48 8 56 36l203 664h-389l-203 -664c-8 -28 6 -33 35 -36l44 -3l-7 -24h-282l7 24l46 3c31 3 48 8 56 36l193 632c9 28 -5 33 -34 36l-44 3z" />
    <glyph glyph-name="uni0420" unicode="&#x420;" horiz-adv-x="725" 
d="M-22 0l7 24l46 3c31 3 47 8 56 36l193 632c9 28 -6 33 -34 36l-44 3l8 24h309c155 0 276 -34 276 -151c0 -143 -136 -257 -394 -257h-99l9 32h94c187 0 277 110 277 228c0 85 -68 117 -172 117h-119l-203 -664c-9 -28 6 -34 35 -35l86 -3l-8 -25h-323z" />
    <glyph glyph-name="uni0421" unicode="&#x421;" horiz-adv-x="793" 
d="M384 -12c-161 0 -305 91 -305 302c0 258 238 485 507 485c88 0 184 -22 232 -51l3 -211h-18l-64 149c-22 51 -32 62 -66 72c-23 7 -56 9 -83 9c-243 0 -392 -219 -392 -490c0 -153 67 -233 191 -233c33 0 61 1 88 8c13 3 28 12 44 26l217 197h18l-138 -221
c-48 -21 -146 -42 -234 -42z" />
    <glyph glyph-name="uni0422" unicode="&#x422;" horiz-adv-x="757" 
d="M147 0l8 25l60 3c31 3 48 7 56 35l204 666h-170c-17 0 -22 -1 -33 -16l-151 -189h-18l96 234h671l-47 -234h-18l-26 189c-3 15 -8 16 -24 16h-179l-203 -666c-9 -28 6 -32 35 -35l59 -3l-8 -25h-312z" />
    <glyph glyph-name="uni0423" unicode="&#x423;" horiz-adv-x="753" 
d="M808 697l-518 -628c-51 -60 -82 -81 -113 -81c-28 0 -41 17 -34 44c15 43 58 75 154 95l56 67l-125 503c-7 25 -12 31 -41 34l-43 3l7 24h292l-7 -24l-51 -3c-32 -3 -50 -11 -43 -34l98 -397l328 397c19 24 8 31 -23 34l-49 3l7 24h218l-7 -24l-45 -3
c-29 -3 -42 -10 -61 -34z" />
    <glyph glyph-name="uni0424" unicode="&#x424;" horiz-adv-x="948" 
d="M250 -20l7 24l46 3c31 3 48 8 56 36l14 47c-194 11 -311 94 -311 234c0 188 179 337 490 350l13 41c8 28 -6 33 -34 36l-44 3l7 24h282l-7 -24l-46 -3c-31 -3 -49 -8 -57 -36l-13 -41c195 -12 312 -94 313 -235c0 -188 -182 -337 -492 -350l-14 -46c-8 -28 6 -33 35 -36
l44 -3l-7 -24h-282zM174 320c0 -123 76 -186 209 -198l159 519c-239 -16 -368 -153 -368 -321zM854 443c-1 124 -76 186 -211 198l-159 -519c239 16 370 150 370 321z" />
    <glyph glyph-name="uni0425" unicode="&#x425;" horiz-adv-x="844" 
d="M-105 0l11 24l43 3c31 2 59 13 84 34l399 322l-92 314c-7 23 -18 31 -45 34l-42 3l11 24h281l-11 -24l-51 -4c-32 -3 -46 -10 -39 -33l72 -247l307 247c27 21 29 30 -2 33l-48 4l11 24h234l-11 -24l-43 -3c-30 -2 -58 -13 -83 -34l-354 -285l103 -351
c7 -23 18 -31 46 -34l41 -3l-11 -24h-281l11 24l51 4c33 3 47 10 40 33l-83 284l-353 -284c-27 -23 -30 -30 1 -33l49 -4l-11 -24h-235z" />
    <glyph glyph-name="uni0426" unicode="&#x426;" horiz-adv-x="881" 
d="M654 0h-676l7 24l46 3c29 3 47 8 56 36l193 632c9 28 -6 33 -34 36l-44 3l7 24h282l-7 -24l-46 -3c-31 -3 -47 -8 -56 -36l-203 -664h389l203 664c9 28 -6 33 -35 36l-44 3l7 24h282l-7 -24l-46 -3c-31 -3 -47 -8 -56 -36l-203 -664h104l-50 -190h-17l-30 147
c-3 9 -7 12 -22 12z" />
    <glyph glyph-name="uni0427" unicode="&#x427;" horiz-adv-x="860" 
d="M226 578l36 117c9 28 -5 33 -34 36l-44 3l8 24h282l-8 -24l-46 -3c-31 -3 -48 -8 -57 -36l-38 -123c-50 -164 7 -219 143 -219c84 0 135 10 186 25l96 317c9 28 -5 33 -34 36l-44 3l8 24h282l-8 -24l-46 -3c-29 -3 -47 -8 -56 -36l-193 -632c-8 -28 6 -33 34 -36l44 -3
l-7 -24h-282l7 24l46 3c31 3 48 8 56 36l86 281c-51 -15 -124 -28 -184 -28c-180 0 -300 49 -233 262z" />
    <glyph glyph-name="uni0428" unicode="&#x428;" horiz-adv-x="1180" 
d="M1050 0h-1072l7 24l46 3c31 3 48 8 56 36l193 632c9 28 -5 33 -34 36l-44 3l8 24h282l-8 -24l-46 -3c-29 -3 -47 -8 -56 -36l-203 -664h295l202 664c9 28 -4 33 -35 36l-44 3l8 24h282l-8 -24l-46 -3c-29 -3 -47 -8 -56 -36l-202 -664h293l203 664c9 28 -4 33 -35 36
l-44 3l8 24h282l-8 -24l-46 -3c-29 -3 -47 -8 -56 -36l-193 -632c-8 -28 6 -33 34 -36l44 -3z" />
    <glyph glyph-name="uni0429" unicode="&#x429;" horiz-adv-x="1181" 
d="M954 0h-976l7 24l46 3c29 3 47 8 56 36l193 632c9 28 -6 33 -34 36l-44 3l7 24h282l-7 -24l-46 -3c-31 -3 -47 -8 -56 -36l-203 -664h294l203 664c9 28 -6 33 -35 36l-44 3l7 24h282l-7 -24l-46 -3c-31 -3 -47 -8 -56 -36l-203 -664h294l203 664c9 28 -6 33 -35 36l-44 3
l7 24h282l-7 -24l-46 -3c-31 -3 -47 -8 -56 -36l-203 -664h104l-50 -190h-17l-30 147c-3 9 -7 12 -22 12z" />
    <glyph glyph-name="uni042A" unicode="&#x42a;" horiz-adv-x="824" 
d="M429 442h89c195 0 296 -59 296 -178c0 -150 -161 -264 -404 -264h-307l7 24l46 3c31 3 47 8 56 36l203 666h-98c-17 0 -23 -1 -34 -16l-156 -189h-18l96 234h432l-8 -24l-66 -3c-31 -1 -48 -8 -57 -36zM303 31h90c188 0 307 92 307 233c0 104 -67 147 -200 147h-80z" />
    <glyph glyph-name="uni042B" unicode="&#x42b;" horiz-adv-x="1065" 
d="M304 442h89c195 0 296 -59 296 -178c0 -150 -161 -264 -404 -264h-307l7 24l46 3c31 3 48 8 56 36l193 632c9 28 -5 33 -34 36l-44 3l8 24h302l-8 -24l-66 -3c-31 -1 -48 -8 -57 -36zM178 31h90c188 0 307 92 307 233c0 104 -67 147 -200 147h-80zM653 0l7 24l46 3
c31 3 47 8 56 36l193 632c9 28 -6 33 -34 36l-44 3l8 24h282l-8 -24l-46 -3c-31 -3 -47 -8 -56 -36l-194 -632c-9 -28 6 -33 35 -36l44 -3l-7 -24h-282z" />
    <glyph glyph-name="uni042C" unicode="&#x42c;" horiz-adv-x="699" 
d="M304 442h89c195 0 296 -59 296 -178c0 -150 -161 -264 -404 -264h-307l7 24l46 3c31 3 48 8 56 36l193 632c9 28 -5 33 -34 36l-44 3l8 24h302l-8 -24l-66 -3c-31 -1 -48 -8 -57 -36zM178 31h90c188 0 307 92 307 233c0 104 -67 147 -200 147h-80z" />
    <glyph glyph-name="uni042D" unicode="&#x42d;" horiz-adv-x="814" 
d="M513 775c165 0 309 -91 309 -302c0 -258 -238 -485 -507 -485c-88 0 -162 5 -225 26l30 236h18l31 -149c11 -54 32 -62 66 -72c23 -7 49 -9 76 -9c200 0 335 148 378 351h-265c-17 0 -19 -2 -26 -13l-76 -117h-18l91 297h18l4 -118c0 -11 1 -13 18 -13h260
c5 33 8 68 8 103c0 153 -67 233 -191 233c-45 0 -78 -3 -99 -10s-34 -14 -45 -25l-165 -166h-18l94 203c51 19 150 30 234 30z" />
    <glyph glyph-name="uni042E" unicode="&#x42e;" horiz-adv-x="1191" 
d="M-22 0l7 24l46 3c31 3 47 8 56 36l193 632c9 28 -6 33 -34 36l-44 3l8 24h282l-8 -24l-46 -3c-31 -3 -48 -8 -56 -36l-84 -277h132c67 184 245 357 481 357c157 0 288 -103 288 -284c0 -225 -210 -503 -508 -503c-157 0 -288 103 -288 284c0 33 5 69 14 106h-132
l-97 -315c-9 -28 6 -33 35 -36l44 -3l-7 -24h-282zM709 17c200 0 372 225 372 476c0 152 -68 252 -188 252c-200 0 -372 -224 -372 -475c0 -153 68 -253 188 -253z" />
    <glyph glyph-name="uni042F" unicode="&#x42f;" horiz-adv-x="778" 
d="M77 0h-127l417 354c-109 16 -170 73 -170 165c0 144 149 239 386 239h297l-8 -24l-46 -3c-29 -3 -47 -8 -56 -36l-193 -632c-8 -28 6 -33 34 -36l44 -3l-7 -24h-282l7 24l46 3c31 3 49 8 57 36l86 279h-83zM571 373l108 354h-84c-182 0 -287 -84 -287 -208
c0 -100 64 -146 180 -146h83z" />
    <glyph glyph-name="uni0402" unicode="&#x402;" horiz-adv-x="882" 
d="M119 0l7 25l61 3c31 1 47 7 56 35l204 666h-141c-17 0 -23 -1 -34 -16l-151 -189h-18l96 234h633l-41 -214h-18l-37 169c-3 15 -7 16 -23 16h-164l-115 -377c56 59 146 100 234 100c132 0 190 -84 145 -229l-15 -48c-34 -108 -80 -139 -179 -206
c-32 -22 -98 -59 -144 -86l-9 22c150 99 186 123 223 243l17 57c39 133 7 190 -93 190c-85 0 -151 -33 -190 -78l-78 -254c-9 -28 5 -32 34 -35l59 -3l-7 -25h-312z" />
    <glyph glyph-name="uni0403" unicode="&#x403;" horiz-adv-x="664" 
d="M-22 0l7 24l46 3c31 3 48 8 56 36l193 632c9 28 -5 33 -34 36l-44 3l8 24h550l-34 -222h-18l-50 174c-4 15 -7 16 -23 16h-244l-203 -663c-8 -28 5 -34 36 -35l85 -2l-8 -26h-323zM482 839l147 133h127l-1 -2l-253 -131h-20z" />
    <glyph glyph-name="uni0404" unicode="&#x404;" horiz-adv-x="793" 
d="M384 -12c-161 0 -305 91 -305 302c0 258 238 485 507 485c88 0 184 -22 232 -51l3 -211h-18l-64 149c-22 51 -32 62 -66 72c-23 7 -56 9 -83 9c-192 0 -325 -138 -373 -330h259c17 0 19 2 26 13l77 118h18l-91 -297h-18l-3 117c0 11 -1 13 -18 13h-258
c-8 -40 -11 -81 -11 -124c0 -153 67 -233 191 -233c33 0 61 1 88 8c13 3 28 12 44 26l217 197h18l-138 -221c-48 -21 -146 -42 -234 -42z" />
    <glyph glyph-name="uni0405" unicode="&#x405;" horiz-adv-x="609" 
d="M202 -12c-63 0 -146 19 -205 56l58 205h18l20 -176c3 -27 19 -36 30 -40c27 -9 59 -14 96 -14c92 0 207 51 207 156c0 57 -24 97 -73 156l-67 78c-44 52 -73 99 -73 159c0 124 132 207 265 207c83 0 150 -18 193 -50l-39 -188h-18l-37 160c-5 23 -13 31 -28 36
c-19 7 -41 10 -65 10c-85 0 -179 -39 -179 -123c0 -55 26 -86 58 -125l67 -78c56 -64 96 -114 96 -182c0 -125 -132 -247 -324 -247z" />
    <glyph glyph-name="uni0406" unicode="&#x406;" horiz-adv-x="389" 
d="M-22 0l7 24l46 3c31 3 47 8 56 36l193 632c9 28 -6 33 -34 36l-44 3l8 24h282l-8 -24l-46 -3c-31 -3 -47 -8 -56 -36l-194 -632c-9 -28 6 -33 35 -36l44 -3l-7 -24h-282z" />
    <glyph glyph-name="uni0407" unicode="&#x407;" horiz-adv-x="389" 
d="M-22 0l7 24l46 3c31 3 47 8 56 36l193 632c9 28 -6 33 -34 36l-44 3l8 24h282l-8 -24l-46 -3c-31 -3 -47 -8 -56 -36l-194 -632c-9 -28 6 -33 35 -36l44 -3l-7 -24h-282zM524 854c-35 0 -64 29 -64 64c0 33 29 64 64 64s64 -31 64 -64c0 -35 -29 -64 -64 -64zM292 854
c-35 0 -64 29 -64 64c0 33 29 64 64 64s64 -31 64 -64c0 -35 -29 -64 -64 -64z" />
    <glyph glyph-name="uni0408" unicode="&#x408;" horiz-adv-x="388" 
d="M-90 -115l-13 24c156 98 188 119 225 239l168 549c8 27 -5 31 -34 32l-50 2l9 27h289l-8 -27l-51 -2c-31 -1 -45 -5 -53 -32l-161 -522c-32 -108 -59 -141 -166 -208c-35 -21 -108 -58 -155 -82z" />
    <glyph glyph-name="uni0409" unicode="&#x409;" horiz-adv-x="1089" 
d="M122 63c-47 -56 -80 -75 -111 -75c-23 0 -35 13 -35 32c0 49 58 91 147 106c107 141 174 313 251 569c9 28 -5 33 -34 36l-44 3l7 24h599l-8 -24l-66 -3c-31 -1 -48 -8 -57 -36l-77 -253h89c195 0 296 -59 296 -178c0 -150 -161 -264 -404 -264h-307l7 24l46 3
c31 3 47 8 56 36l203 664h-257c-93 -308 -173 -509 -301 -664zM568 31h90c188 0 307 92 307 233c0 104 -67 147 -200 147h-80z" />
    <glyph glyph-name="uni040A" unicode="&#x40a;" horiz-adv-x="1167" 
d="M-22 0l7 24l46 3c31 3 47 8 56 36l193 632c9 28 -6 33 -34 36l-44 3l8 24h282l-8 -24l-46 -3c-31 -3 -47 -8 -56 -36l-81 -267h365l82 267c9 28 -5 33 -34 36l-44 3l8 24h302l-8 -24l-66 -3c-31 -1 -49 -8 -57 -36l-81 -267h89c195 0 300 -45 300 -164
c0 -150 -161 -264 -404 -264h-307l7 24l46 3c31 3 48 8 56 36l99 325h-366l-100 -325c-9 -28 6 -33 35 -36l44 -3l-7 -24h-282zM646 31h90c188 0 307 92 307 233c0 104 -72 133 -204 133h-80z" />
    <glyph glyph-name="uni040B" unicode="&#x40b;" horiz-adv-x="930" 
d="M119 0l7 25l61 3c31 1 47 7 56 35l204 666h-141c-17 0 -23 -1 -34 -16l-151 -189h-18l96 234h633l-41 -214h-18l-37 169c-3 15 -7 16 -23 16h-164l-115 -375c56 57 147 98 240 98c129 0 182 -81 137 -226l-50 -163c-9 -29 -6 -32 29 -35l33 -3l-8 -25h-174l68 221
c36 119 1 174 -99 174c-84 0 -144 -32 -187 -76l-78 -256c-9 -28 5 -32 34 -35l59 -3l-7 -25h-312z" />
    <glyph glyph-name="uni040C" unicode="&#x40c;" horiz-adv-x="828" 
d="M-22 0l7 24l46 3c31 3 47 8 56 36l193 632c9 28 -6 33 -34 36l-44 3l8 24h282l-8 -24l-46 -3c-31 -3 -47 -8 -56 -36l-96 -314l490 326c17 12 13 21 -19 24l-63 3l8 24h270l-7 -24l-53 -3c-40 -3 -59 -10 -87 -29l-437 -290l369 -412h-127l-346 376l-96 -313
c-9 -28 6 -33 35 -36l44 -3l-7 -24h-282zM582 839l147 133h127l-1 -2l-253 -131h-20z" />
    <glyph glyph-name="uni040E" unicode="&#x40e;" horiz-adv-x="753" 
d="M808 697l-518 -628c-51 -60 -82 -81 -113 -81c-28 0 -41 17 -34 44c15 43 58 75 154 95l56 67l-125 503c-7 25 -12 31 -41 34l-43 3l7 24h292l-7 -24l-51 -3c-32 -3 -50 -11 -43 -34l98 -397l328 397c19 24 8 31 -23 34l-49 3l7 24h218l-7 -24l-45 -3
c-29 -3 -42 -10 -61 -34zM599 829c-115 0 -152 71 -139 156h73c-16 -101 16 -127 67 -127c53 0 91 25 107 127h73c-16 -95 -90 -156 -181 -156z" />
    <glyph glyph-name="uni040F" unicode="&#x40f;" horiz-adv-x="879" 
d="M307 -159l5 147c0 8 -7 12 -22 12h-312l7 24l46 3c29 3 47 8 56 36l193 632c9 28 -6 33 -34 36l-44 3l7 24h282l-7 -24l-46 -3c-31 -3 -47 -8 -56 -36l-203 -664h389l203 664c9 28 -6 33 -35 36l-44 3l7 24h282l-7 -24l-46 -3c-31 -3 -47 -8 -56 -36l-193 -632
c-9 -28 5 -33 34 -36l44 -3l-7 -24h-312c-15 0 -25 -4 -30 -12l-84 -147h-17z" />
    <glyph glyph-name="uni0490" unicode="&#x490;" horiz-adv-x="650" 
d="M749 726h-358l-203 -663c-8 -28 5 -34 36 -35l85 -2l-8 -26h-323l7 24l46 3c31 3 48 8 56 36l193 632c9 28 -5 33 -34 36l-44 3l8 24h439c15 0 21 2 29 11l120 147h17z" />
    <glyph glyph-name="uni0462" unicode="&#x462;" horiz-adv-x="785" 
d="M375 363h116c175 0 284 -40 284 -152c0 -149 -180 -211 -395 -211h-307l7 24l46 3c31 3 48 8 56 36l165 536h-125c-17 0 -21 -1 -34 -16l-136 -159h-18l86 204h235l21 67c8 28 -6 33 -34 36l-44 3l7 24h282l-7 -24l-46 -3c-31 -3 -49 -8 -57 -36l-21 -67h235l-37 -204
h-18l-41 159c-3 15 -7 16 -23 16h-124zM274 31h90c176 0 296 61 296 175c0 98 -67 126 -192 126h-102z" />
    <glyph glyph-name="uni0472" unicode="&#x472;" horiz-adv-x="881" 
d="M371 -12c-164 0 -298 103 -298 284c0 225 215 503 518 503c164 0 298 -103 298 -284c0 -225 -214 -503 -518 -503zM389 17c164 0 311 145 362 332c-272 -88 -300 89 -552 17c-5 -32 -8 -64 -8 -96c0 -153 71 -253 198 -253zM206 398c364 124 387 -54 553 -18
c8 37 12 74 12 113c0 152 -71 252 -198 252c-170 0 -319 -153 -367 -347z" />
    <glyph glyph-name="uni0474" unicode="&#x474;" horiz-adv-x="817" 
d="M110 -24h-18l178 719c7 28 -6 33 -34 36l-44 3l7 24h282l-7 -24l-46 -3c-31 -3 -49 -8 -56 -36l-142 -562l564 515c107 96 147 127 186 127c26 0 39 -12 39 -36c0 -43 -60 -95 -191 -106z" />
    <glyph glyph-name="uni0492" unicode="&#x492;" horiz-adv-x="664" 
d="M-22 0l7 24l46 3c31 3 48 8 56 36l193 632c9 28 -5 33 -34 36l-44 3l8 24h550l-34 -222h-18l-50 174c-4 15 -7 16 -23 16h-244l-203 -663c-8 -28 5 -34 36 -35l85 -2l-8 -26h-323zM61 355l12 40h374l-13 -40h-373z" />
    <glyph glyph-name="uni0496" unicode="&#x496;" horiz-adv-x="1222" 
d="M82 0h-152l559 427l-197 275c-15 21 -25 26 -65 29l-51 3l8 24h264l-8 -24l-65 -3c-32 -2 -43 -10 -33 -24l234 -327l96 315c9 28 -5 33 -34 36l-44 3l8 24h282l-8 -24l-46 -3c-31 -3 -48 -8 -57 -36l-96 -316l37 28l44 35l1 -1l352 266c17 13 14 21 -19 24l-63 3l8 24
h264l-8 -24l-53 -3c-40 -3 -59 -8 -86 -29l-379 -285l270 -386h87l-50 -190h-17l-30 147c-2 7 -7 11 -16 12h-79l-264 378l-96 -315c-8 -28 6 -33 35 -36l44 -3l-7 -24h-282l7 24l46 3c31 3 48 8 56 36l96 313z" />
    <glyph glyph-name="uni049A" unicode="&#x49a;" horiz-adv-x="874" 
d="M-22 0l7 24l46 3c31 3 47 8 56 36l193 632c9 28 -6 33 -34 36l-44 3l8 24h282l-8 -24l-46 -3c-31 -3 -47 -8 -56 -36l-96 -314l490 326c17 12 13 21 -19 24l-63 3l8 24h270l-7 -24l-53 -3c-40 -3 -59 -10 -87 -29l-437 -290l341 -381h87l-50 -190h-17l-30 147
c-2 7 -7 11 -16 12h-73l-346 376l-96 -313c-9 -28 6 -33 35 -36l44 -3l-7 -24h-282z" />
    <glyph glyph-name="uni04A2" unicode="&#x4a2;" horiz-adv-x="899" 
d="M687 31h92l-50 -190h-17l-30 147c-3 9 -7 12 -22 12h-174l7 24l46 3c29 3 47 8 56 36l96 315h-407l-96 -315c-9 -28 4 -33 35 -36l44 -3l-7 -24h-282l7 24l46 3c29 3 47 8 56 36l193 632c9 28 -6 33 -34 36l-44 3l7 24h282l-7 -24l-46 -3c-31 -3 -48 -8 -57 -36l-85 -277
h407l85 277c9 28 -6 33 -34 36l-44 3l7 24h282l-7 -24l-46 -3c-31 -3 -47 -8 -56 -36z" />
    <glyph glyph-name="uni04AE" unicode="&#x4ae;" horiz-adv-x="779" 
d="M158 0l8 25l60 3c31 3 47 7 56 35l86 279l-140 355c-9 24 -13 31 -44 34l-43 3l8 24h283l-8 -24l-50 -3c-32 -3 -50 -11 -41 -34l123 -315l317 315c24 23 16 31 -15 34l-61 3l7 24h243l-8 -24l-44 -3c-31 -3 -46 -11 -70 -34l-356 -355l-86 -279c-9 -28 6 -34 35 -35
l60 -3l-8 -25h-312z" />
    <glyph glyph-name="uni04B0" unicode="&#x4b0;" horiz-adv-x="779" 
d="M158 0l8 25l60 3c31 3 47 7 56 35l86 279l-140 355c-9 24 -13 31 -44 34l-43 3l8 24h283l-8 -24l-50 -3c-32 -3 -50 -11 -41 -34l123 -315l317 315c24 23 16 31 -15 34l-61 3l7 24h243l-8 -24l-44 -3c-31 -3 -46 -11 -70 -34l-356 -355l-86 -279c-9 -28 6 -34 35 -35
l60 -3l-8 -25h-312zM179 304l12 40h456l-13 -40h-455z" />
    <glyph glyph-name="uni04B2" unicode="&#x4b2;" horiz-adv-x="844" 
d="M-105 0l11 24l43 3c31 2 59 13 84 34l399 322l-92 314c-7 23 -18 31 -45 34l-42 3l11 24h281l-11 -24l-51 -4c-32 -3 -46 -10 -39 -34l72 -246l307 247c27 21 29 30 -2 33l-48 4l11 24h234l-11 -24l-43 -3c-30 -2 -58 -13 -83 -34l-354 -285l112 -381h93l-50 -190h-17
l-30 147c-3 9 -7 12 -22 12h-188l11 24l51 4c33 3 47 10 40 33l-83 284l-353 -284c-27 -23 -30 -30 1 -33l49 -4l-11 -24h-235z" />
    <glyph glyph-name="uni04B6" unicode="&#x4b6;" horiz-adv-x="862" 
d="M448 0l7 24l46 3c31 3 48 8 56 36l86 281c-51 -15 -124 -28 -184 -28c-180 0 -300 49 -233 262l36 117c9 28 -5 33 -34 36l-44 3l8 24h282l-8 -24l-46 -3c-31 -3 -48 -8 -57 -36l-38 -123c-50 -164 7 -219 143 -219c84 0 135 10 186 25l96 317c9 28 -5 33 -34 36l-44 3
l8 24h282l-8 -24l-46 -3c-29 -3 -47 -8 -56 -36l-203 -664h104l-50 -190h-17l-30 147c-3 9 -7 12 -22 12h-186z" />
    <glyph glyph-name="uni04BA" unicode="&#x4ba;" horiz-adv-x="866" 
d="M714 180l-36 -117c-9 -28 5 -33 34 -36l44 -3l-8 -24h-282l8 24l46 3c31 3 48 8 57 36l38 123c50 164 -7 219 -143 219c-84 0 -135 -10 -186 -25l-96 -317c-9 -28 5 -33 34 -36l44 -3l-8 -24h-282l8 24l46 3c29 3 47 8 56 36l193 632c8 28 -6 33 -34 36l-44 3l7 24h282
l-7 -24l-46 -3c-31 -3 -48 -8 -56 -36l-86 -281c51 15 124 28 184 28c180 0 300 -49 233 -262z" />
    <glyph glyph-name="uni04C0" unicode="&#x4c0;" horiz-adv-x="389" 
d="M-22 0l7 24l46 3c31 3 47 8 56 36l193 632c9 28 -6 33 -34 36l-44 3l8 24h282l-8 -24l-46 -3c-31 -3 -47 -8 -56 -36l-194 -632c-9 -28 6 -33 35 -36l44 -3l-7 -24h-282z" />
    <glyph glyph-name="uni04D8" unicode="&#x4d8;" horiz-adv-x="809" 
d="M355 -12c-191 0 -294 121 -275 303h610c16 48 25 100 25 153c0 180 -111 265 -253 265c-156 0 -272 -98 -334 -251h-24c64 209 229 317 405 317c175 0 308 -108 308 -295c0 -231 -192 -492 -462 -492zM366 18c133 0 249 97 308 231h-493c-11 -153 56 -231 185 -231z" />
    <glyph glyph-name="uni04E2" unicode="&#x4e2;" horiz-adv-x="898" 
d="M-22 0l7 24l46 3c31 3 48 8 56 36l193 632c9 28 -5 33 -34 36l-44 3l8 24h282l-8 -24l-46 -3c-31 -3 -48 -8 -57 -36l-160 -524l559 497l8 27c9 28 -5 33 -34 36l-44 3l8 24h282l-8 -24l-46 -3c-29 -3 -47 -8 -56 -36l-193 -632c-8 -28 6 -33 34 -36l44 -3l-7 -24h-282
l7 24l46 3c31 3 48 8 56 36l166 541l-559 -497l-14 -44c-8 -28 6 -33 35 -36l44 -3l-7 -24h-282zM460 882l15 44h281l-15 -44h-281z" />
    <glyph glyph-name="uni04E8" unicode="&#x4e8;" horiz-adv-x="881" 
d="M371 -12c-164 0 -298 103 -298 284c0 225 215 503 518 503c164 0 298 -103 298 -284c0 -225 -214 -503 -518 -503zM389 17c172 0 326 161 369 361h-556c-7 -37 -11 -73 -11 -108c0 -153 71 -253 198 -253zM573 745c-164 0 -309 -143 -362 -327h555c3 24 5 48 5 75
c0 152 -71 252 -198 252z" />
    <glyph glyph-name="uni04EE" unicode="&#x4ee;" horiz-adv-x="753" 
d="M808 697l-518 -628c-51 -60 -82 -81 -113 -81c-28 0 -41 17 -34 44c15 43 58 75 154 95l56 67l-125 503c-7 25 -12 31 -41 34l-43 3l7 24h292l-7 -24l-51 -3c-32 -3 -50 -11 -43 -34l98 -397l328 397c19 24 8 31 -23 34l-49 3l7 24h218l-7 -24l-45 -3
c-29 -3 -42 -10 -61 -34zM431 882l15 44h281l-15 -44h-281z" />
    <glyph glyph-name="uni0430" unicode="&#x430;" horiz-adv-x="567" 
d="M103 -12c-60 0 -93 41 -93 105c0 180 200 425 350 425c47 0 68 -34 71 -71h1l24 66h88l-155 -422c-19 -51 -15 -65 4 -65c32 0 86 38 141 138l20 -9c-56 -107 -122 -167 -213 -167c-64 0 -61 38 -37 102l36 95h-2c-80 -129 -155 -197 -235 -197zM153 39
c70 0 178 141 231 281c45 123 29 175 -24 175c-116 0 -248 -245 -248 -391c0 -41 14 -65 41 -65z" />
    <glyph glyph-name="uni0431" unicode="&#x431;" horiz-adv-x="544" 
d="M516 352c0 -155 -128 -364 -327 -364c-113 0 -162 68 -162 188c0 233 205 553 492 581c68 7 117 25 134 72h24c-30 -97 -75 -157 -202 -165c-102 -8 -126 10 -161 -12c-43 -27 -93 -125 -131 -238c43 59 109 104 185 104c101 0 148 -74 148 -166zM199 16
c126 0 210 178 210 310c0 78 -29 141 -97 141c-49 0 -95 -32 -140 -88c-24 -80 -40 -164 -40 -235c0 -89 27 -128 67 -128z" />
    <glyph glyph-name="uni0432" unicode="&#x432;" horiz-adv-x="481" 
d="M419 160c0 -113 -105 -172 -222 -172c-119 0 -169 64 -169 159c0 163 163 370 340 370c88 0 123 -38 123 -90c0 -67 -78 -123 -219 -158c105 -3 147 -50 147 -109zM335 486c-92 0 -167 -112 -193 -231l57 17c117 35 190 77 190 152c0 39 -19 62 -54 62zM131 157
c0 -100 23 -143 80 -143c67 0 105 61 105 122c0 105 -72 130 -152 106l-26 -7c-4 -27 -7 -53 -7 -78z" />
    <glyph glyph-name="uni0433" unicode="&#x433;" horiz-adv-x="499" 
d="M216 -12c-93 0 -164 37 -164 111c0 106 79 136 179 170l24 8c79 27 127 63 127 136c0 53 -26 79 -63 79c-11 0 -23 -1 -34 -4s-20 -9 -31 -20l-117 -134h-18l61 161c52 19 104 22 147 22c87 0 141 -43 141 -112c0 -102 -76 -143 -180 -180l-25 -9
c-77 -27 -124 -56 -124 -125c0 -56 33 -79 80 -79c15 0 30 0 43 5c11 4 20 7 39 32l108 142h18l-62 -184c-48 -15 -96 -19 -149 -19z" />
    <glyph glyph-name="uni0434" unicode="&#x434;" horiz-adv-x="542" 
d="M181 -12c-103 0 -153 62 -153 151c0 186 173 378 339 378c25 0 44 -5 55 -9c0 17 1 34 1 51c0 115 -27 203 -101 203c-41 0 -66 -13 -93 -40l-16 18c27 31 61 52 116 52c129 0 187 -133 187 -289c0 -235 -116 -515 -335 -515zM133 124c0 -71 17 -110 60 -110
c112 0 205 234 226 455c-11 15 -29 22 -55 22c-140 0 -231 -186 -231 -367z" />
    <glyph glyph-name="uni0435" unicode="&#x435;" horiz-adv-x="465" 
d="M158 -12c-84 0 -134 53 -134 149c0 191 196 380 345 380c76 0 106 -38 106 -90c0 -41 -27 -89 -78 -116l-238 -2c-20 -47 -32 -97 -32 -152c0 -87 40 -123 85 -123c56 0 113 49 166 153l21 -7c-63 -129 -132 -192 -241 -192zM365 495c-70 0 -151 -69 -198 -167h54
c116 0 197 57 197 122c0 30 -18 45 -53 45z" />
    <glyph glyph-name="uni0451" unicode="&#x451;" horiz-adv-x="465" 
d="M158 -12c-84 0 -134 53 -134 149c0 191 196 380 345 380c76 0 106 -38 106 -90c0 -41 -27 -89 -78 -116l-238 -2c-20 -47 -32 -97 -32 -152c0 -87 40 -123 85 -123c56 0 113 49 166 153l21 -7c-63 -129 -132 -192 -241 -192zM365 495c-70 0 -151 -69 -198 -167h54
c116 0 197 57 197 122c0 30 -18 45 -53 45zM321 642c-35 0 -64 30 -64 65c0 33 29 63 64 63s64 -30 64 -63c0 -35 -29 -65 -64 -65zM553 642c-35 0 -64 30 -64 65c0 33 29 63 64 63s64 -30 64 -63c0 -35 -29 -65 -64 -65z" />
    <glyph glyph-name="uni0436" unicode="&#x436;" horiz-adv-x="911" 
d="M413 9l-106 -20l98 255l-99 -13c-50 -122 -149 -244 -248 -244c-45 0 -72 30 -72 71c0 59 36 91 93 82c-25 -88 -28 -130 4 -130c68 0 163 196 163 344c0 68 -10 114 -45 114c-40 0 -75 -47 -118 -147l-21 8c45 111 104 188 186 188c56 0 95 -46 95 -133
c0 -38 -9 -80 -26 -126l98 13l86 223l103 22l-87 -231l102 13c53 112 144 219 237 219c45 0 72 -30 72 -71c0 -59 -36 -91 -93 -82c25 88 28 130 -4 130c-68 0 -163 -196 -163 -344c0 -68 10 -114 45 -114c40 0 75 47 118 147l21 -8c-45 -111 -104 -188 -186 -188
c-56 0 -95 46 -95 133c0 43 12 97 35 150l-100 -13z" />
    <glyph glyph-name="uni0437" unicode="&#x437;" horiz-adv-x="466" 
d="M174 -12c-107 0 -148 37 -148 96c0 47 35 78 94 69c-35 -88 -12 -142 60 -142c61 0 111 47 111 131c0 91 -47 115 -119 96l-15 -4l7 21l43 13c96 29 146 85 146 149c0 29 -15 44 -45 44c-59 0 -128 -32 -187 -116l-20 10c67 108 151 162 250 162c75 0 105 -36 105 -87
c0 -71 -78 -130 -193 -165c89 -3 131 -42 131 -105c0 -120 -111 -172 -220 -172z" />
    <glyph glyph-name="uni0438" unicode="&#x438;" horiz-adv-x="606" 
d="M310 518l-141 -329c-45 -107 -56 -153 -17 -153s86 53 142 128c67 91 147 225 192 333l99 15l-162 -421c-20 -51 -17 -65 3 -65c32 0 88 38 141 138l21 -9c-56 -107 -122 -167 -214 -167c-65 0 -72 35 -47 99l98 248h-1c-39 -77 -88 -153 -127 -205
c-71 -96 -126 -142 -195 -142c-83 0 -89 63 -30 200l116 273l-92 4l8 21z" />
    <glyph glyph-name="uni0439" unicode="&#x439;" horiz-adv-x="606" 
d="M310 518l-141 -329c-45 -107 -56 -153 -17 -153s86 53 142 128c67 91 147 225 192 333l99 15l-162 -421c-20 -51 -17 -65 3 -65c32 0 88 38 141 138l21 -9c-56 -107 -122 -167 -214 -167c-65 0 -72 35 -47 99l98 248h-1c-39 -77 -88 -153 -127 -205
c-71 -96 -126 -142 -195 -142c-83 0 -89 63 -30 200l116 273l-92 4l8 21zM422 616c-115 0 -152 72 -139 157h73c-16 -100 16 -128 67 -128c53 0 91 25 107 128h73c-16 -96 -89 -157 -181 -157z" />
    <glyph glyph-name="uni043A" unicode="&#x43a;" horiz-adv-x="599" 
d="M108 9l-102 -19l181 471l-91 4l8 21l199 32l-100 -261l142 135c93 88 131 125 177 125c43 0 67 -29 67 -60c0 -40 -29 -75 -77 -78c-7 67 -14 92 -31 92c-27 0 -64 -41 -121 -96l-74 -70l112 -256c19 -43 28 -54 43 -54c16 0 41 20 70 105l21 -6
c-35 -107 -70 -132 -129 -132c-49 0 -85 30 -124 118l-77 173z" />
    <glyph glyph-name="uni043B" unicode="&#x43b;" horiz-adv-x="578" 
d="M145 91c-44 -72 -79 -103 -120 -103c-29 0 -49 21 -49 44c0 15 1 30 12 41l127 18c51 81 102 197 171 369h-79l18 42h328l-158 -411c-20 -51 -17 -65 3 -65c32 0 88 38 141 138l21 -9c-56 -107 -122 -167 -214 -167c-65 0 -71 36 -47 99l145 373h-129
c-72 -173 -123 -293 -170 -369z" />
    <glyph glyph-name="uni043C" unicode="&#x43c;" horiz-adv-x="787" 
d="M-2 -7c-21 0 -38 17 -38 44c0 15 4 27 12 35l111 19l194 370l-92 4l8 20l171 33l-14 -396l299 372l117 18l-162 -421c-20 -51 -17 -65 3 -65c32 0 88 38 141 138l21 -9c-56 -107 -122 -167 -214 -167c-65 0 -71 36 -47 99l142 368l-369 -463h-22l16 408l-158 -303
c-33 -62 -57 -104 -119 -104z" />
    <glyph glyph-name="uni043D" unicode="&#x43d;" horiz-adv-x="596" 
d="M108 9l-102 -19l181 471l-91 4l8 21l199 32l-102 -267l191 29l84 217l99 15l-162 -421c-20 -51 -17 -65 3 -65c32 0 88 38 141 138l21 -9c-56 -107 -122 -167 -214 -167c-65 0 -71 36 -47 99l64 165l-191 -29z" />
    <glyph glyph-name="uni043E" unicode="&#x43e;" horiz-adv-x="543" 
d="M183 -12c-96 0 -155 65 -155 156c0 180 162 373 334 373c96 0 155 -64 155 -155c0 -181 -160 -374 -334 -374zM215 16c92 0 198 148 198 346c0 87 -30 127 -81 127c-93 0 -199 -147 -199 -345c0 -88 31 -128 82 -128z" />
    <glyph glyph-name="uni043F" unicode="&#x43f;" horiz-adv-x="607" 
d="M367 -12c-65 0 -79 38 -50 99l108 230c49 104 59 152 16 152c-39 0 -85 -52 -141 -125c-69 -93 -152 -230 -192 -335l-102 -19l181 471l-91 4l8 21l199 32l-142 -358h1c43 84 93 161 133 216c72 97 128 141 196 141c84 0 90 -71 30 -199l-106 -227c-23 -51 -16 -65 4 -65
c32 0 87 38 142 138l20 -9c-56 -107 -122 -167 -214 -167z" />
    <glyph glyph-name="uni0440" unicode="&#x440;" horiz-adv-x="569" 
d="M-61 -248l244 709l-92 4l8 21l198 32l-28 -81c43 49 105 80 161 80c79 0 126 -47 126 -127c0 -192 -205 -412 -441 -400l-82 -238h-94zM368 463c-36 0 -75 -16 -106 -47l-139 -404c178 -12 329 208 329 351c0 72 -33 100 -84 100z" />
    <glyph glyph-name="uni0441" unicode="&#x441;" horiz-adv-x="451" 
d="M160 -12c-84 0 -134 53 -134 149c0 184 167 380 333 380c67 0 100 -33 100 -81c0 -49 -35 -81 -94 -72c22 73 19 130 -24 130c-95 0 -212 -167 -212 -337c0 -86 41 -123 87 -123c55 0 104 41 155 149l20 -8c-59 -133 -131 -187 -231 -187z" />
    <glyph glyph-name="uni0442" unicode="&#x442;" horiz-adv-x="895" 
d="M655 -12c-65 0 -79 38 -50 99l108 230c49 104 60 152 17 152c-40 0 -86 -52 -142 -127c-69 -91 -152 -228 -192 -333l-99 -19l127 327c41 105 58 152 17 152c-39 0 -85 -52 -141 -125c-69 -93 -152 -230 -192 -335l-102 -19l181 471l-91 4l8 21l199 32l-142 -358h1
c43 84 93 161 133 216c72 97 128 141 196 141c83 0 76 -71 23 -199l-65 -158h1c43 84 94 161 134 216c72 97 128 141 196 141c84 0 89 -71 29 -199l-106 -227c-23 -51 -16 -65 4 -65c33 0 89 38 142 138l20 -9c-56 -107 -122 -167 -214 -167z" />
    <glyph glyph-name="uni0443" unicode="&#x443;" horiz-adv-x="575" 
d="M-92 -260c-49 0 -74 18 -74 54c0 19 10 37 30 50c25 -23 47 -33 82 -33c52 0 110 29 217 168l-5 478h-88l1 21l181 40l2 -419l180 237c101 135 137 181 181 181c24 0 43 -17 43 -44c0 -16 -5 -31 -14 -38c-81 -24 -130 -46 -207 -145l-241 -313
c-96 -126 -205 -237 -288 -237z" />
    <glyph glyph-name="uni0444" unicode="&#x444;" horiz-adv-x="738" 
d="M599 785l-92 -270c141 -4 205 -73 205 -181c0 -147 -146 -336 -384 -344l-81 -238h-97l82 238c-140 4 -204 73 -204 181c0 147 146 336 384 344l62 181l-78 39l3 6zM613 328c0 88 -38 159 -114 164l-162 -477c183 11 276 182 276 313zM127 177c0 -88 38 -159 113 -164
l163 477c-183 -13 -276 -181 -276 -313z" />
    <glyph glyph-name="uni0445" unicode="&#x445;" horiz-adv-x="586" 
d="M39 -12c-43 0 -67 29 -67 60c0 40 29 75 77 78c7 -67 14 -92 31 -92c41 0 109 83 173 187l-24 181c-7 44 -11 74 -34 74c-31 0 -76 -46 -119 -117l-18 13c55 88 108 145 177 145c39 0 72 -12 85 -111l11 -86c91 145 160 197 221 197c43 0 67 -29 67 -60
c0 -40 -29 -75 -77 -78c-7 67 -14 92 -31 92c-43 0 -108 -85 -175 -190l23 -177c7 -44 12 -74 35 -74c31 0 76 45 120 116l17 -12c-55 -88 -109 -146 -177 -146c-39 0 -72 14 -85 111l-11 83c-91 -144 -159 -194 -219 -194z" />
    <glyph glyph-name="uni0446" unicode="&#x446;" horiz-adv-x="616" 
d="M310 518l-141 -329c-45 -107 -56 -153 -17 -153s86 53 142 128c67 91 147 225 192 333l99 15l-162 -421c-20 -51 -17 -65 3 -65c32 0 88 38 141 138l21 -9c-3 -5 -5 -10 -8 -14c-55 -110 -20 -118 -28 -222c-7 -64 -46 -99 -143 -106l7 24c41 4 56 32 59 67
c5 68 18 105 45 152c-42 -45 -91 -68 -146 -68c-65 0 -72 35 -47 99l98 248h-1c-39 -77 -88 -153 -127 -205c-71 -96 -126 -142 -195 -142c-83 0 -89 63 -30 200l116 273l-92 4l8 21z" />
    <glyph glyph-name="uni0447" unicode="&#x447;" horiz-adv-x="586" 
d="M310 518l-67 -155c-44 -103 -56 -153 -17 -153c62 0 187 160 240 287l99 15l-162 -421c-20 -51 -17 -65 3 -65c32 0 88 38 141 138l21 -9c-56 -107 -122 -167 -214 -167c-65 0 -72 35 -47 99l109 279h-1c-75 -120 -159 -204 -239 -204c-83 0 -87 65 -30 200l42 99l-92 4
l8 21z" />
    <glyph glyph-name="uni0448" unicode="&#x448;" horiz-adv-x="899" 
d="M365 188l60 147h-1c-39 -77 -88 -153 -127 -205c-71 -96 -126 -142 -195 -142c-83 0 -89 63 -30 200l116 273l-92 4l8 21l206 32l-141 -329c-45 -107 -56 -153 -17 -153s86 53 142 128c67 91 147 225 192 333l99 15l-124 -323c-41 -108 -55 -153 -16 -153s86 53 142 128
c67 91 147 225 192 333l99 15l-162 -421c-20 -51 -17 -65 3 -65c32 0 88 38 141 138l21 -9c-56 -107 -122 -167 -214 -167c-65 0 -72 35 -47 99l98 248h-1c-39 -77 -88 -153 -127 -205c-71 -96 -126 -142 -195 -142c-83 0 -86 63 -30 200z" />
    <glyph glyph-name="uni0449" unicode="&#x449;" horiz-adv-x="909" 
d="M365 188l60 147h-1c-39 -77 -88 -153 -127 -205c-71 -96 -126 -142 -195 -142c-83 0 -89 63 -30 200l116 273l-92 4l8 21l206 32l-141 -329c-45 -107 -56 -153 -17 -153s86 53 142 128c67 91 147 225 192 333l99 15l-124 -323c-41 -108 -55 -153 -16 -153s86 53 142 128
c67 91 147 225 192 333l99 15l-162 -421c-20 -51 -17 -65 3 -65c32 0 88 38 141 138l21 -9c-3 -5 -5 -10 -8 -14c-55 -110 -20 -118 -28 -222c-7 -64 -46 -99 -143 -106l7 24c41 4 56 32 59 67c5 68 18 105 45 152c-42 -45 -91 -68 -146 -68c-65 0 -72 35 -47 99l98 248h-1
c-39 -77 -88 -153 -127 -205c-71 -96 -126 -142 -195 -142c-83 0 -86 63 -30 200z" />
    <glyph glyph-name="uni044A" unicode="&#x44a;" horiz-adv-x="503" 
d="M207 -13c-105 0 -147 49 -147 121c0 94 97 200 242 310h-200l-47 -81h-22l74 165h311c-81 -68 -155 -144 -202 -229c45 24 82 36 118 36c68 0 109 -42 109 -110c0 -98 -105 -212 -236 -212zM164 84c0 -47 21 -73 54 -73c63 0 120 85 120 179c0 49 -18 81 -59 81
c-27 0 -52 -7 -74 -21c-27 -53 -41 -107 -41 -166z" />
    <glyph glyph-name="uni044B" unicode="&#x44b;" horiz-adv-x="736" 
d="M616 497l99 15l-162 -421c-20 -51 -17 -65 3 -65c32 0 88 38 141 138l21 -9c-56 -107 -122 -167 -214 -167c-65 0 -71 36 -47 99zM427 209c0 -104 -111 -222 -250 -222c-110 0 -158 74 -105 201l116 273l-92 4l8 21l206 32l-98 -229c39 20 74 30 106 30
c68 0 109 -42 109 -110zM203 268l-49 -116c-32 -79 -33 -141 34 -141c72 0 134 90 134 189c0 49 -18 81 -59 81c-21 0 -41 -4 -60 -13z" />
    <glyph glyph-name="uni044C" unicode="&#x44c;" horiz-adv-x="487" 
d="M427 209c0 -104 -111 -222 -250 -222c-110 0 -158 74 -105 201l116 273l-92 4l8 21l206 32l-98 -229c39 20 74 30 106 30c68 0 109 -42 109 -110zM203 268l-49 -116c-32 -79 -33 -141 34 -141c72 0 134 90 134 189c0 49 -18 81 -59 81c-21 0 -41 -4 -60 -13z" />
    <glyph glyph-name="uni044D" unicode="&#x44d;" horiz-adv-x="485" 
d="M325 517c84 0 134 -53 134 -149c0 -184 -167 -380 -333 -380c-67 0 -100 33 -100 81c0 49 35 81 94 72c-22 -73 -20 -130 24 -130c77 0 173 113 202 249l-186 -28l11 28l180 27c3 20 5 41 5 61c0 86 -41 123 -87 123c-51 0 -96 -34 -143 -126l-20 10
c56 116 124 162 219 162z" />
    <glyph glyph-name="uni044E" unicode="&#x44e;" horiz-adv-x="763" 
d="M108 9l-102 -19l181 471l-91 4l8 21l199 32l-101 -265l89 14c48 135 172 250 301 250c91 0 145 -64 145 -155c0 -181 -156 -374 -324 -374c-91 0 -145 65 -145 156c0 31 5 62 14 94l-91 -13zM445 16c88 0 188 148 188 346c0 87 -27 127 -71 127
c-89 0 -189 -147 -189 -345c0 -88 27 -128 72 -128z" />
    <glyph glyph-name="uni044F" unicode="&#x44f;" horiz-adv-x="540" 
d="M418 513h88l-149 -422c-19 -51 -17 -65 3 -65c32 0 88 38 141 138l21 -9c-56 -107 -122 -167 -214 -167c-65 0 -71 36 -47 99l71 186h-2l-185 -189c-58 -58 -86 -91 -129 -91c-28 0 -42 22 -42 46c0 15 7 31 20 42l120 9l147 146c-17 -9 -50 -23 -86 -23
c-48 0 -77 23 -77 71c0 100 134 234 236 234c35 0 62 -15 69 -43h2zM195 304c0 -31 12 -49 43 -49c55 0 97 35 124 107l14 38c23 60 4 95 -43 95c-78 0 -138 -118 -138 -191z" />
    <glyph glyph-name="uni0452" unicode="&#x452;" horiz-adv-x="554" 
d="M-3 -10l207 598h-81l13 36h80l25 71l-74 40l3 6l196 44l-56 -161h117l-13 -36h-116l-59 -169l-93 -259h1c43 84 93 161 133 216c72 97 128 141 196 141c84 0 89 -70 30 -199l-136 -301c-48 -109 -64 -144 -157 -192l-166 -85l-9 17c130 82 170 117 242 274l130 286
c48 105 59 152 16 152c-39 0 -85 -52 -141 -125c-69 -93 -152 -231 -192 -337z" />
    <glyph glyph-name="uni0453" unicode="&#x453;" horiz-adv-x="499" 
d="M216 -12c-93 0 -164 37 -164 111c0 106 79 136 179 170l24 8c79 27 127 63 127 136c0 53 -26 79 -63 79c-11 0 -23 -1 -34 -4s-20 -9 -31 -20l-117 -134h-18l61 161c52 19 104 22 147 22c87 0 141 -43 141 -112c0 -102 -76 -143 -180 -180l-25 -9
c-77 -27 -124 -56 -124 -125c0 -56 33 -79 80 -79c15 0 30 0 43 5c11 4 20 7 39 32l108 142h18l-62 -184c-48 -15 -96 -19 -149 -19zM327 597l144 179h111l-3 -7l-231 -172h-21z" />
    <glyph glyph-name="uni0454" unicode="&#x454;" horiz-adv-x="452" 
d="M160 -12c-84 0 -134 53 -134 149c0 184 167 380 333 380c67 0 100 -33 100 -81c0 -49 -35 -81 -94 -72c22 73 19 130 -24 130c-76 0 -168 -108 -200 -239l185 28l-11 -28l-180 -27c-4 -24 -6 -48 -6 -71c0 -86 41 -123 87 -123c55 0 104 41 155 149l20 -8
c-59 -133 -131 -187 -231 -187z" />
    <glyph glyph-name="uni0455" unicode="&#x455;" horiz-adv-x="391" 
d="M112 -12c-77 0 -121 40 -121 87c0 37 39 60 82 56c32 -117 34 -118 51 -118c33 0 101 23 101 88c0 32 -13 54 -38 89l-44 59c-28 37 -42 74 -42 106c0 91 98 162 198 162c60 0 99 -29 99 -72c0 -35 -25 -62 -78 -59c-24 103 -25 105 -43 105c-40 0 -104 -27 -104 -74
c0 -25 13 -55 38 -89l44 -59c27 -37 45 -75 45 -112c0 -104 -104 -169 -188 -169z" />
    <glyph glyph-name="uni0456" unicode="&#x456;" horiz-adv-x="324" 
d="M257 722c0 33 29 63 64 63s64 -30 64 -63c0 -35 -29 -65 -64 -65s-64 30 -64 65zM91 -12c-64 0 -70 35 -46 99l144 374l-92 4l8 21l200 32l-165 -427c-20 -51 -17 -65 4 -65c32 0 88 38 141 138l20 -9c-56 -107 -122 -167 -214 -167z" />
    <glyph glyph-name="uni0457" unicode="&#x457;" horiz-adv-x="332" 
d="M144 722c0 33 29 63 64 63s64 -30 64 -63c0 -35 -29 -65 -64 -65s-64 30 -64 65zM305 722c0 33 29 63 64 63s64 -30 64 -63c0 -35 -29 -65 -64 -65s-64 30 -64 65zM91 -12c-64 0 -70 35 -46 99l144 374l-92 4l8 21l200 32l-165 -427c-20 -51 -17 -65 4 -65
c32 0 88 38 141 138l20 -9c-56 -107 -122 -167 -214 -167z" />
    <glyph glyph-name="uni0458" unicode="&#x458;" horiz-adv-x="312" 
d="M-219 -260l-8 17c129 82 178 115 242 274l174 430l-91 4l8 21l200 32l-203 -502c-45 -109 -62 -143 -156 -191zM266 722c0 33 29 63 64 63s64 -30 64 -63c0 -35 -29 -65 -64 -65s-64 30 -64 65z" />
    <glyph glyph-name="uni0459" unicode="&#x459;" horiz-adv-x="752" 
d="M444 460h-129c-72 -173 -123 -293 -170 -369c-44 -72 -79 -103 -120 -103c-29 0 -49 21 -49 44c0 15 1 30 12 41l127 18c51 81 102 197 171 369h-79l18 42h328l-83 -217c41 23 79 34 113 34c68 0 109 -42 109 -110c0 -104 -111 -222 -250 -222c-108 0 -156 73 -105 201z
M462 265l-43 -113c-29 -79 -33 -141 34 -141c72 0 134 90 134 189c0 49 -18 81 -59 81c-23 0 -45 -5 -66 -16z" />
    <glyph glyph-name="uni045A" unicode="&#x45a;" horiz-adv-x="760" 
d="M108 9l-102 -19l181 471l-91 4l8 21l199 32l-102 -267l179 27l86 219l99 15l-87 -227c41 23 79 34 113 34c68 0 109 -42 109 -110c0 -104 -111 -222 -250 -222c-108 0 -156 73 -105 201l24 62l-179 -27zM470 265l-43 -113c-29 -79 -33 -141 34 -141c72 0 134 90 134 189
c0 49 -18 81 -59 81c-23 0 -45 -5 -66 -16z" />
    <glyph glyph-name="uni045B" unicode="&#x45b;" horiz-adv-x="592" 
d="M146 160h1c43 84 93 161 133 216c72 97 128 141 196 141c84 0 90 -71 30 -199l-106 -227c-23 -51 -16 -65 4 -65c32 0 87 38 142 138l20 -9c-56 -107 -122 -167 -214 -167c-65 0 -79 38 -50 99l108 230c49 104 59 152 16 152c-39 0 -85 -52 -141 -125
c-69 -93 -152 -231 -192 -337l-96 -17l207 598h-81l13 36h80l25 71l-74 40l3 6l196 44l-56 -161h117l-13 -36h-116l-59 -169z" />
    <glyph glyph-name="uni045C" unicode="&#x45c;" horiz-adv-x="599" 
d="M354 597l144 179h111l-3 -7l-231 -172h-21zM108 9l-102 -19l181 471l-91 4l8 21l199 32l-100 -261l142 135c93 88 131 125 177 125c43 0 67 -29 67 -60c0 -40 -29 -75 -77 -78c-7 67 -14 92 -31 92c-27 0 -64 -41 -121 -96l-74 -70l112 -256c19 -43 28 -54 43 -54
c16 0 41 20 70 105l21 -6c-35 -107 -70 -132 -129 -132c-49 0 -85 30 -124 118l-77 173z" />
    <glyph glyph-name="uni045E" unicode="&#x45e;" horiz-adv-x="575" 
d="M-92 -260c-49 0 -74 18 -74 54c0 19 10 37 30 50c25 -23 47 -33 82 -33c52 0 110 29 217 168l-5 478h-88l1 21l181 40l2 -419l180 237c101 135 137 181 181 181c24 0 43 -17 43 -44c0 -16 -5 -31 -14 -38c-81 -24 -130 -46 -207 -145l-241 -313
c-96 -126 -205 -237 -288 -237zM426 614c-115 0 -152 72 -139 157h73c-16 -100 16 -128 67 -128c53 0 91 25 107 128h73c-16 -96 -89 -157 -181 -157z" />
    <glyph glyph-name="uni045F" unicode="&#x45f;" horiz-adv-x="606" 
d="M250 0h20c-31 -60 -43 -99 -43 -135c0 -23 9 -30 32 -33l-6 -19c-79 0 -108 18 -108 55c0 49 52 89 105 132zM310 518l-141 -329c-45 -107 -56 -153 -17 -153s86 53 142 128c67 91 147 225 192 333l99 15l-162 -421c-20 -51 -17 -65 3 -65c32 0 88 38 141 138l21 -9
c-56 -107 -122 -167 -214 -167c-65 0 -72 35 -47 99l98 248h-1c-39 -77 -88 -153 -127 -205c-71 -96 -126 -142 -195 -142c-83 0 -89 63 -30 200l116 273l-92 4l8 21z" />
    <glyph glyph-name="uni0491" unicode="&#x491;" horiz-adv-x="474" 
d="M492 473h-208l-183 -473h-94l171 444c11 27 7 30 -25 33l-34 2l9 23h272c12 0 17 2 26 13l100 124h15z" />
    <glyph glyph-name="uni0463" unicode="&#x463;" horiz-adv-x="779" 
d="M108 9l-102 -19l181 471l-91 4l8 21l199 32l-142 -358h1c43 84 93 161 133 216c72 97 128 141 196 141c84 0 89 -70 30 -199l-12 -27c37 19 70 28 101 28c68 0 109 -42 109 -110c0 -104 -111 -222 -250 -222c-111 0 -163 76 -105 201l61 129c51 104 59 152 16 152
c-39 0 -85 -52 -141 -125c-69 -93 -152 -230 -192 -335zM499 269l-54 -117c-35 -77 -34 -141 35 -141c72 0 134 90 134 189c0 49 -18 81 -59 81c-19 0 -38 -4 -56 -12z" />
    <glyph glyph-name="uni0473" unicode="&#x473;" horiz-adv-x="543" 
d="M183 -12c-96 0 -155 65 -155 156c0 180 162 373 334 373c96 0 155 -64 155 -155c0 -181 -160 -374 -334 -374zM146 264c178 79 184 -32 256 -8c7 35 11 70 11 106c0 87 -30 127 -81 127c-75 0 -154 -89 -186 -225zM215 16c69 0 150 87 182 216c-149 -85 -158 36 -256 7
c-5 -31 -8 -62 -8 -95c0 -88 31 -128 82 -128z" />
    <glyph glyph-name="uni0475" unicode="&#x475;" horiz-adv-x="587" 
d="M244 110l245 311c51 64 80 96 121 96c23 0 35 -11 35 -33c0 -51 -49 -85 -154 -104l-312 -391h-27l-4 468h-88l1 21l181 40z" />
    <glyph glyph-name="uni0493" unicode="&#x493;" horiz-adv-x="499" 
d="M216 -12c-100 0 -164 36 -164 111c0 80 48 116 117 143h-125l14 35h211c71 27 106 64 106 136c0 53 -19 79 -56 79c-11 0 -23 -1 -34 -4s-20 -9 -31 -20l-131 -147h-10l67 174c52 19 104 22 147 22c92 0 141 -43 141 -112c0 -61 -28 -99 -75 -128h106l-14 -35h-165
l-32 -12l-25 -9c-77 -28 -118 -59 -118 -130c0 -52 27 -79 74 -79c15 0 30 0 43 5c11 4 20 8 39 32l125 159h10l-71 -201c-48 -15 -96 -19 -149 -19z" />
    <glyph glyph-name="uni0497" unicode="&#x497;" horiz-adv-x="911" 
d="M413 9l-106 -20l98 255l-99 -13c-50 -122 -149 -244 -248 -244c-45 0 -72 30 -72 71c0 59 36 91 93 82c-25 -88 -28 -130 4 -130c68 0 163 196 163 344c0 68 -10 114 -45 114c-40 0 -75 -47 -118 -147l-21 8c45 111 104 188 186 188c56 0 95 -46 95 -133
c0 -38 -9 -80 -26 -126l98 13l86 223l103 22l-87 -231l102 13c53 112 144 219 237 219c45 0 72 -30 72 -71c0 -59 -36 -91 -93 -82c25 88 28 130 -4 130c-68 0 -163 -196 -163 -344c0 -68 10 -114 45 -114c40 0 75 47 118 147l21 -8l-11 -25c-37 -95 -25 -129 -33 -231
c-7 -64 -46 -99 -143 -106l7 24c41 4 56 32 59 67c4 52 15 90 34 127c-29 -28 -60 -44 -99 -44c-56 0 -95 46 -95 133c0 43 12 97 35 150l-100 -13z" />
    <glyph glyph-name="uni049B" unicode="&#x49b;" horiz-adv-x="599" 
d="M108 9l-102 -19l181 471l-91 4l8 21l199 32l-100 -261l142 135c93 88 131 125 177 125c43 0 67 -29 67 -60c0 -40 -29 -75 -77 -78c-7 67 -14 92 -31 92c-27 0 -64 -41 -121 -96l-74 -70l112 -256c19 -43 28 -54 43 -54c16 0 41 20 70 105l21 -6c-24 -70 0 -86 -8 -175
c-7 -64 -46 -99 -143 -106l7 24c41 4 56 32 59 67c3 31 8 54 17 75c-17 -11 -38 -17 -61 -17c-49 0 -85 30 -124 118l-77 173z" />
    <glyph glyph-name="uni04A3" unicode="&#x4a3;" horiz-adv-x="606" 
d="M108 9l-102 -19l181 471l-91 4l8 21l199 32l-102 -267l191 29l84 217l99 15l-162 -421c-20 -51 -17 -65 3 -65c32 0 88 38 141 138l21 -9c-3 -5 -5 -10 -8 -14c-55 -110 -20 -118 -28 -222c-7 -64 -46 -99 -143 -106l7 24c41 4 56 32 59 67c5 68 18 105 45 152
c-42 -45 -91 -68 -146 -68c-65 0 -71 36 -47 99l64 165l-191 -29z" />
    <glyph glyph-name="uni04AF" unicode="&#x4af;" horiz-adv-x="575" 
d="M140 -248h-94l97 250l15 455h-88l1 21l181 40l-20 -473l202 291c97 139 136 181 181 181c24 0 43 -17 43 -44c0 -16 -5 -31 -14 -38c-80 -24 -135 -44 -207 -145l-201 -289z" />
    <glyph glyph-name="uni04B1" unicode="&#x4b1;" horiz-adv-x="582" 
d="M-10 -35l14 35h138l1 2l15 455h-88l1 21l181 40l-20 -473l202 291c97 139 136 181 181 181c24 0 43 -17 43 -44c0 -16 -5 -31 -14 -38c-80 -24 -135 -44 -207 -145l-201 -289l-1 -1h140l-14 -35h-139l-82 -213h-94l82 213h-138z" />
    <glyph glyph-name="uni04B3" unicode="&#x4b3;" horiz-adv-x="586" 
d="M39 -12c-43 0 -67 29 -67 60c0 40 29 75 77 78c7 -67 14 -92 31 -92c41 0 109 83 173 187l-24 181c-7 44 -11 74 -34 74c-31 0 -76 -46 -119 -117l-18 13c55 88 108 145 177 145c39 0 72 -12 85 -111l11 -86c91 145 160 197 221 197c43 0 67 -29 67 -60
c0 -40 -29 -75 -77 -78c-7 67 -14 92 -31 92c-43 0 -108 -85 -175 -190l23 -177c7 -44 12 -74 35 -74c31 0 76 45 120 116l17 -12c-34 -82 -19 -119 -27 -215c-7 -64 -46 -99 -143 -106l7 24c41 4 56 32 59 67c4 60 21 103 45 148c-36 -40 -75 -64 -118 -64
c-39 0 -72 14 -85 111l-11 83c-91 -144 -159 -194 -219 -194z" />
    <glyph glyph-name="uni04B7" unicode="&#x4b7;" horiz-adv-x="596" 
d="M310 518l-67 -155c-44 -103 -56 -153 -17 -153c62 0 187 160 240 287l99 15l-162 -421c-20 -51 -17 -65 3 -65c32 0 88 38 141 138l21 -9c-67 -121 -28 -129 -36 -236c-7 -64 -46 -99 -143 -106l7 24c41 4 56 32 59 67c5 68 19 106 46 153c-43 -46 -92 -69 -147 -69
c-65 0 -72 35 -47 99l109 279h-1c-75 -120 -159 -204 -239 -204c-83 0 -87 65 -30 200l42 99l-92 4l8 21z" />
    <glyph glyph-name="uni04BB" unicode="&#x4bb;" horiz-adv-x="592" 
d="M146 160h1c43 84 93 161 133 216c72 97 128 141 196 141c84 0 90 -71 30 -199l-106 -227c-23 -51 -16 -65 4 -65c32 0 87 38 142 138l20 -9c-56 -107 -122 -167 -214 -167c-65 0 -79 38 -50 99l108 230c49 104 59 152 16 152c-39 0 -85 -52 -141 -125
c-69 -93 -152 -231 -192 -337l-96 -17l244 705l-74 40l3 6l196 44l-127 -366z" />
    <glyph glyph-name="uni04CF" unicode="&#x4cf;" horiz-adv-x="334" 
d="M42 58l248 642c11 27 7 30 -25 33l-34 2l8 23h240l-8 -23l-35 -2c-35 -3 -41 -6 -52 -33l-248 -642c-11 -27 -8 -32 27 -33l33 -2l-9 -23h-240l9 23l36 2c33 1 39 6 50 33z" />
    <glyph glyph-name="uni04D9" unicode="&#x4d9;" horiz-adv-x="472" 
d="M312 518c84 0 134 -53 134 -149c0 -191 -196 -380 -345 -380c-76 0 -106 38 -106 90c0 41 27 89 78 116l238 2c20 47 32 97 32 152c0 87 -40 123 -85 123c-56 0 -113 -49 -166 -153l-21 7c63 129 132 192 241 192zM105 11c70 0 151 69 198 167h-54
c-116 0 -197 -57 -197 -122c0 -30 18 -45 53 -45z" />
    <glyph glyph-name="uni04E3" unicode="&#x4e3;" horiz-adv-x="606" 
d="M310 518l-141 -329c-45 -107 -56 -153 -17 -153s86 53 142 128c67 91 147 225 192 333l99 15l-162 -421c-20 -51 -17 -65 3 -65c32 0 88 38 141 138l21 -9c-56 -107 -122 -167 -214 -167c-65 0 -72 35 -47 99l98 248h-1c-39 -77 -88 -153 -127 -205
c-71 -96 -126 -142 -195 -142c-83 0 -89 63 -30 200l116 273l-92 4l8 21zM277 668l16 45h283l-15 -45h-284z" />
    <glyph glyph-name="uni04E9" unicode="&#x4e9;" horiz-adv-x="543" 
d="M183 -12c-96 0 -155 65 -155 156c0 180 162 373 334 373c96 0 155 -64 155 -155c0 -181 -160 -374 -334 -374zM215 16c72 0 157 95 186 234l-261 -15c-5 -27 -7 -58 -7 -91c0 -88 31 -128 82 -128zM332 489c-73 0 -153 -88 -185 -220l260 16c4 24 6 50 6 77
c0 87 -30 127 -81 127z" />
    <glyph glyph-name="uni04EF" unicode="&#x4ef;" horiz-adv-x="575" 
d="M-92 -260c-49 0 -74 18 -74 54c0 19 10 37 30 50c25 -23 47 -33 82 -33c52 0 110 29 217 168l-5 478h-88l1 21l181 40l2 -419l180 237c101 135 137 181 181 181c24 0 43 -17 43 -44c0 -16 -5 -31 -14 -38c-81 -24 -130 -46 -207 -145l-241 -313
c-96 -126 -205 -237 -288 -237zM275 668l16 45h283l-15 -45h-284z" />
    <glyph glyph-name="_467" horiz-adv-x="838" 
d="M-24 31h71l535 763h16l70 -763h70l-50 -190h-17l-30 147c-3 9 -7 12 -22 12h-532c-16 0 -22 -3 -30 -12l-130 -147h-17zM511 634l-424 -603h482z" />
    <glyph glyph-name="V001" horiz-adv-x="812" 
d="M799 782l-178 -719c-7 -28 6 -33 34 -36l44 -3l-7 -24h-282l7 24l46 3c31 3 49 8 56 36l142 562l-613 -564c-23 -21 -28 -31 3 -34l61 -3l-7 -24h-246l8 24l44 3c31 3 58 11 82 34l788 721h18z" />
    <glyph glyph-name="_469" horiz-adv-x="457" 
d="M159 -12c-110 0 -164 78 -111 250l99 327c41 135 118 206 218 206c123 0 165 -93 130 -198c-29 -92 -126 -161 -232 -182c113 -13 178 -95 152 -209c-32 -129 -154 -194 -256 -194zM239 561l-47 -157h22c101 0 153 76 182 175c29 101 29 168 -34 168
c-61 0 -80 -45 -123 -186zM167 12c64 0 115 57 143 170c31 124 -7 198 -103 198h-23l-49 -163c-41 -137 -31 -205 32 -205z" />
    <glyph glyph-name="_470" horiz-adv-x="551" 
d="M555 513l-177 -515c-67 -195 -164 -258 -308 -258c-99 0 -136 43 -136 98c0 36 29 71 72 71c7 0 13 -1 21 -2c-29 -100 11 -141 73 -141c86 0 122 60 183 233l24 69l39 97h-2c-80 -121 -151 -177 -236 -177c-60 0 -97 40 -97 111c0 180 203 419 352 419
c47 0 74 -28 79 -71h2l23 66h88zM115 113c0 -49 17 -74 52 -74c69 0 182 141 230 274c44 121 24 182 -32 182c-120 0 -250 -233 -250 -382z" />
    <glyph glyph-name="_471" horiz-adv-x="911" 
d="M248 517c56 0 95 -46 95 -133c0 -38 -9 -80 -26 -126l99 13l146 425l-78 39l3 6l200 44l-171 -501l103 14c53 112 144 219 237 219c45 0 72 -30 72 -71c0 -59 -36 -91 -93 -82c25 88 28 130 -4 130c-68 0 -163 -196 -163 -344c0 -68 10 -114 45 -114c40 0 75 47 118 147
l21 -8c-45 -111 -104 -188 -186 -188c-56 0 -95 46 -95 133c0 43 12 97 35 150l-99 -13l-85 -248l-103 -19l87 254l-100 -13c-50 -122 -149 -244 -248 -244c-45 0 -72 30 -72 71c0 59 36 91 93 82c-25 -88 -28 -130 4 -130c68 0 163 196 163 344c0 68 -10 114 -45 114
c-40 0 -75 -47 -118 -147l-21 8c45 111 104 188 186 188z" />
    <glyph glyph-name="_472" horiz-adv-x="420" 
d="M29 -260c-88 0 -125 43 -125 98c0 36 30 70 73 70c7 0 13 -1 21 -2c-29 -99 7 -140 59 -140c99 0 176 132 176 278c0 68 -22 108 -74 108c-28 0 -53 -7 -85 -18l2 26c24 7 46 12 66 20c124 51 159 143 159 220c0 40 -17 73 -65 73c-52 0 -98 -39 -154 -126l-16 10
c51 91 115 161 209 161c83 0 119 -47 119 -110c0 -101 -107 -196 -219 -236c103 -3 156 -63 156 -132c0 -166 -158 -300 -302 -300z" />
    <glyph glyph-name="u002" horiz-adv-x="606" 
d="M310 518l-141 -329c-45 -107 -56 -153 -17 -153s86 53 142 128c67 91 147 225 192 333l99 15l-162 -421c-20 -51 -17 -65 3 -65c32 0 88 38 141 138l21 -9c-56 -107 -122 -167 -214 -167c-65 0 -72 35 -47 99l98 248h-1c-39 -77 -88 -153 -127 -205
c-71 -96 -126 -142 -195 -142c-83 0 -89 63 -30 200l116 273l-92 4l8 21z" />
    <glyph glyph-name="_474" horiz-adv-x="621" 
d="M310 518l-141 -329c-45 -107 -56 -153 -17 -153s86 53 142 128c67 91 147 225 192 333l99 15l-162 -421c-20 -51 -17 -65 3 -65c32 0 88 38 141 138l21 -9c-56 -107 -122 -167 -214 -167c-65 0 -72 35 -47 99l98 248h-1c-39 -77 -88 -153 -127 -205
c-71 -96 -126 -142 -195 -142c-83 0 -89 63 -30 200l116 273l-92 4l8 21zM422 616c-115 0 -152 72 -139 157h73c-16 -100 16 -128 67 -128c53 0 91 25 107 128h73c-16 -96 -89 -157 -181 -157z" />
    <glyph glyph-name="k003" horiz-adv-x="584" 
d="M407 -38c-52 0 -86 32 -127 111l-94 182c131 0 254 70 254 177c0 33 -14 55 -45 55c-78 0 -183 -152 -223 -264l-32 -92l-40 -122l-103 -19l243 706l-78 39l3 6l200 44l-109 -316l-48 -126h2c67 112 129 181 227 181c69 0 92 -39 92 -80c0 -84 -112 -155 -235 -190
l108 -205c24 -47 32 -54 48 -54c18 0 51 17 80 105l21 -6c-35 -107 -79 -132 -144 -132z" />
    <glyph glyph-name="_476" horiz-adv-x="511" 
d="M324 -12c-45 0 -72 25 -61 112l37 302l-186 -305c-39 -64 -62 -104 -106 -104c-31 0 -48 17 -48 44c0 15 4 26 11 33l108 19l228 372l-92 4l8 20l171 33l-46 -414c-7 -59 1 -74 16 -74c28 0 67 48 110 116l17 -12c-53 -88 -103 -146 -167 -146z" />
    <glyph glyph-name="n004" horiz-adv-x="607" 
d="M367 -12c-65 0 -79 38 -50 99l108 230c49 104 59 152 16 152c-39 0 -85 -52 -141 -125c-69 -93 -152 -230 -192 -335l-102 -19l181 471l-91 4l8 21l199 32l-142 -358h1c43 84 93 161 133 216c72 97 128 141 196 141c84 0 90 -71 30 -199l-106 -227c-23 -51 -16 -65 4 -65
c32 0 87 38 142 138l20 -9c-56 -107 -122 -167 -214 -167z" />
    <glyph glyph-name="m005" horiz-adv-x="895" 
d="M655 -12c-65 0 -79 38 -50 99l108 230c49 104 60 152 17 152c-40 0 -86 -52 -142 -127c-69 -91 -152 -228 -192 -333l-99 -19l127 327c41 105 58 152 17 152c-39 0 -85 -52 -141 -125c-69 -93 -152 -230 -192 -335l-102 -19l181 471l-91 4l8 21l199 32l-142 -358h1
c43 84 93 161 133 216c72 97 128 141 196 141c83 0 76 -71 23 -199l-65 -158h1c43 84 94 161 134 216c72 97 128 141 196 141c84 0 89 -71 29 -199l-106 -227c-23 -51 -16 -65 4 -65c33 0 89 38 142 138l20 -9c-56 -107 -122 -167 -214 -167z" />
    <glyph glyph-name="_479" horiz-adv-x="747" 
d="M397 -12c-91 0 -145 65 -145 156c0 31 5 62 14 94l-92 -13l-74 -216l-103 -19l243 706l-78 39l3 6l200 44l-182 -532l92 14c48 135 172 250 301 250c91 0 145 -64 145 -155c0 -181 -156 -374 -324 -374zM429 16c88 0 188 148 188 346c0 87 -27 127 -71 127
c-89 0 -189 -147 -189 -345c0 -88 27 -128 72 -128z" />
    <glyph glyph-name="_480" horiz-adv-x="543" 
d="M517 362c0 -181 -160 -374 -334 -374c-96 0 -155 65 -155 156c0 162 119 317 271 362c-56 8 -94 33 -94 88c0 96 77 177 256 177h62c78 0 93 12 107 58h24c-24 -84 -73 -143 -214 -143h-73c-89 0 -132 -34 -132 -91c0 -52 44 -72 129 -77c105 -7 153 -65 153 -156z
M215 16c92 0 198 148 198 346c0 87 -30 127 -81 127c-93 0 -199 -147 -199 -345c0 -88 31 -128 82 -128z" />
    <glyph glyph-name="dotlessi_macron" horiz-adv-x="324" 
d="M91 -12c-64 0 -70 35 -46 99l144 374l-92 4l8 21l200 32l-165 -427c-20 -51 -17 -65 4 -65c32 0 88 38 141 138l20 -9c-56 -107 -122 -167 -214 -167zM159 668l16 45h283l-15 -45h-284z" />
    <glyph glyph-name="_482" horiz-adv-x="551" 
d="M555 513l-177 -515c-67 -195 -164 -258 -308 -258c-99 0 -136 43 -136 98c0 36 29 71 72 71c7 0 13 -1 21 -2c-29 -100 11 -141 73 -141c86 0 122 60 183 233l24 69l39 97h-2c-80 -121 -151 -177 -236 -177c-60 0 -97 40 -97 111c0 180 203 419 352 419
c47 0 74 -28 79 -71h2l23 66h88zM115 113c0 -49 17 -74 52 -74c69 0 182 141 230 274c44 121 24 182 -32 182c-120 0 -250 -233 -250 -382z" />
    <glyph glyph-name="u_macron" horiz-adv-x="606" 
d="M310 518l-141 -329c-45 -107 -56 -153 -17 -153s86 53 142 128c67 91 147 225 192 333l99 15l-162 -421c-20 -51 -17 -65 3 -65c32 0 88 38 141 138l21 -9c-56 -107 -122 -167 -214 -167c-65 0 -72 35 -47 99l98 248h-1c-39 -77 -88 -153 -127 -205
c-71 -96 -126 -142 -195 -142c-83 0 -89 63 -30 200l116 273l-92 4l8 21zM300 668l16 45h283l-15 -45h-284z" />
    <glyph glyph-name="_484" horiz-adv-x="899" 
d="M340 668l16 45h463l-15 -45h-464zM365 188l60 147h-1c-39 -77 -88 -153 -127 -205c-71 -96 -126 -142 -195 -142c-83 0 -89 63 -30 200l116 273l-92 4l8 21l206 32l-141 -329c-45 -107 -56 -153 -17 -153s86 53 142 128c67 91 147 225 192 333l99 15l-124 -323
c-41 -108 -55 -153 -16 -153s86 53 142 128c67 91 147 225 192 333l99 15l-162 -421c-20 -51 -17 -65 3 -65c32 0 88 38 141 138l21 -9c-56 -107 -122 -167 -214 -167c-65 0 -72 35 -47 99l98 248h-1c-39 -77 -88 -153 -127 -205c-71 -96 -126 -142 -195 -142
c-83 0 -86 63 -30 200z" />
    <glyph glyph-name="_485" 
d="M5 614c-115 0 -152 72 -139 157h73c-16 -100 16 -128 67 -128c53 0 91 25 107 128h73c-16 -96 -89 -157 -181 -157z" />
    <glyph glyph-name="_486" 
d="M6 829c-115 0 -152 71 -139 156h73c-16 -101 16 -127 67 -127c53 0 91 25 107 127h73c-16 -95 -90 -156 -181 -156z" />
    <glyph glyph-name="uni20BD" unicode="&#x20bd;" horiz-adv-x="713" 
d="M-14 0l7 24l46 3c31 3 47 8 56 36l53 174h-90l11 37h90l24 76h-90l11 37h90l94 308c9 28 -6 33 -34 36l-44 3l8 24h289c155 0 276 -34 276 -151c0 -143 -136 -257 -394 -257h-105l-23 -76h271l-11 -37h-272l-53 -174c-9 -28 6 -34 35 -35l86 -3l-8 -25h-323zM399 727
l-104 -340h99c185 0 276 107 276 223c0 85 -68 117 -172 117h-99z" />
    <glyph glyph-name="uni20B4" unicode="&#x20b4;" horiz-adv-x="658" 
d="M98 434l12 37h358c67 29 121 91 121 160c0 77 -41 111 -117 111c-23 0 -41 -1 -61 -5c-21 -5 -33 -9 -56 -34l-146 -159h-18l99 204c56 19 114 27 178 27c116 0 210 -47 210 -157c0 -57 -36 -112 -81 -147h71l-12 -37h-558zM63 321l12 37h558l-12 -37h-345
c-93 -39 -144 -107 -144 -175c0 -80 52 -126 139 -126c36 0 58 3 78 10c17 6 34 18 50 36l161 185h18l-114 -237c-61 -19 -125 -26 -202 -26c-144 0 -222 54 -222 163c0 67 37 129 97 170h-74z" />
    <glyph glyph-name="uni20B8" unicode="&#x20b8;" horiz-adv-x="746" 
d="M216 721l13 37h615l-10 -37h-618zM147 0l8 25l61 3c29 1 47 7 55 35l171 553h-144c-17 0 -23 -1 -34 -16l-157 -189h-18l96 234h631l-47 -234h-18l-30 189c-3 15 -7 16 -23 16h-154l-171 -553c-8 -28 4 -32 35 -35l59 -3l-8 -25h-312z" />
    <glyph glyph-name="ellipsis" unicode="&#x2026;" horiz-adv-x="869" 
d="M75 -12c-36 0 -65 30 -65 67c0 36 29 66 65 66c39 0 67 -30 67 -66c0 -37 -28 -67 -67 -67zM383 -12c-36 0 -65 30 -65 67c0 36 29 66 65 66c39 0 67 -30 67 -66c0 -37 -28 -67 -67 -67zM692 -12c-36 0 -65 30 -65 67c0 36 29 66 65 66c39 0 67 -30 67 -66
c0 -37 -28 -67 -67 -67z" />
    <glyph glyph-name="endash" unicode="&#x2013;" horiz-adv-x="620" 
d="M61 237l18 49h486l-17 -49h-487z" />
    <glyph glyph-name="emdash" unicode="&#x2014;" horiz-adv-x="975" 
d="M61 237l18 49h841l-17 -49h-842z" />
    <glyph glyph-name="guilsinglleft" unicode="&#x2039;" horiz-adv-x="350" 
d="M136 251l78 -216l-14 -7l-151 226l306 225l9 -11z" />
    <glyph glyph-name="guilsinglright" unicode="&#x203a;" horiz-adv-x="349" 
d="M217 257l-78 216l14 7l151 -226l-306 -225l-9 11z" />
    <glyph glyph-name="quoteleft" unicode="&#x2018;" horiz-adv-x="261" 
d="M355 792l11 -23c-88 -55 -137 -117 -137 -164c0 -29 18 -48 55 -57c-8 -47 -41 -67 -76 -67c-37 0 -67 25 -67 69c0 60 64 162 214 242z" />
    <glyph glyph-name="quoteright" unicode="&#x2019;" horiz-adv-x="259" 
d="M139 473l-11 23c88 55 137 117 137 164c0 29 -18 48 -55 57c8 47 41 67 76 67c37 0 67 -25 67 -69c0 -60 -64 -162 -214 -242z" />
    <glyph glyph-name="uni02BB" unicode="&#x2bb;" horiz-adv-x="261" 
d="M355 792l11 -23c-88 -55 -137 -117 -137 -164c0 -29 18 -48 55 -57c-8 -47 -41 -67 -76 -67c-37 0 -67 25 -67 69c0 60 64 162 214 242z" />
    <glyph glyph-name="uni02BC" unicode="&#x2bc;" horiz-adv-x="259" 
d="M139 473l-11 23c88 55 137 117 137 164c0 29 -18 48 -55 57c8 47 41 67 76 67c37 0 67 -25 67 -69c0 -60 -64 -162 -214 -242z" />
    <glyph glyph-name="quotedblleft" unicode="&#x201c;" horiz-adv-x="486" 
d="M355 792l11 -23c-88 -55 -137 -117 -137 -164c0 -29 18 -48 55 -57c-8 -47 -41 -67 -76 -67c-37 0 -67 25 -67 69c0 60 64 162 214 242zM580 792l11 -23c-88 -55 -137 -117 -137 -164c0 -29 18 -48 55 -57c-8 -47 -41 -67 -76 -67c-37 0 -67 25 -67 69
c0 60 64 162 214 242z" />
    <glyph glyph-name="quotedblright" unicode="&#x201d;" horiz-adv-x="483" 
d="M139 473l-11 23c88 55 137 117 137 164c0 29 -18 48 -55 57c8 47 41 67 76 67c37 0 67 -25 67 -69c0 -60 -64 -162 -214 -242zM363 473l-11 23c88 55 137 117 137 164c0 29 -18 48 -55 57c8 47 41 67 76 67c37 0 67 -25 67 -69c0 -60 -64 -162 -214 -242z" />
    <glyph glyph-name="quotesinglbase" unicode="&#x201a;" horiz-adv-x="266" 
d="M-61 -193l-11 23c88 55 137 117 137 164c0 29 -18 48 -55 57c8 47 41 67 76 67c37 0 67 -25 67 -69c0 -60 -64 -162 -214 -242z" />
    <glyph glyph-name="quotedblbase" unicode="&#x201e;" horiz-adv-x="490" 
d="M-61 -193l-11 23c88 55 137 117 137 164c0 29 -18 48 -55 57c8 47 41 67 76 67c37 0 67 -25 67 -69c0 -60 -64 -162 -214 -242zM163 -193l-11 23c88 55 137 117 137 164c0 29 -18 48 -55 57c8 47 41 67 76 67c37 0 67 -25 67 -69c0 -60 -64 -162 -214 -242z" />
    <glyph glyph-name="bullet" unicode="&#x2022;" horiz-adv-x="414" 
d="M244 258c-69 0 -126 57 -126 127c0 69 57 126 126 126s127 -57 127 -126c0 -70 -58 -127 -127 -127z" />
    <glyph glyph-name="dagger" unicode="&#x2020;" horiz-adv-x="690" 
d="M178 -228l96 294c40 119 23 160 12 200c36 33 64 54 94 145l22 67h-77c-93 0 -125 -27 -165 -51c-20 11 -40 37 -45 62c19 28 55 52 83 61c27 -24 41 -50 134 -50h77l21 65c30 94 9 116 -2 150c16 27 50 53 81 64c21 -15 38 -41 42 -64c-35 -32 -67 -58 -96 -150l-21 -65
h76c93 0 128 26 166 50c20 -11 39 -37 46 -61c-19 -28 -56 -53 -84 -62c-24 24 -42 51 -134 51h-77l-21 -67c-29 -90 -9 -113 4 -145c-38 -38 -77 -80 -112 -200l-91 -294h-29z" />
    <glyph glyph-name="daggerdbl" unicode="&#x2021;" horiz-adv-x="690" 
d="M24 -19c-19 11 -39 37 -43 62c16 28 53 52 82 61c27 -24 41 -50 134 -50h77l21 66c27 91 9 111 -5 146c33 33 66 54 93 145l21 67h-77c-92 0 -128 -27 -165 -51c-19 11 -39 37 -46 62c19 28 57 52 85 61c24 -24 41 -50 133 -50h77l20 65c29 93 9 118 -2 150
c15 27 48 53 80 64c20 -15 39 -41 43 -64c-35 -32 -67 -58 -96 -150l-20 -65h76c94 0 127 26 167 50c19 -11 39 -37 43 -61c-16 -28 -53 -53 -82 -62c-26 24 -41 51 -135 51h-76l-21 -67c-27 -91 -9 -112 5 -145c-33 -33 -66 -55 -93 -146l-21 -66h77c92 0 128 26 165 50
c19 -11 39 -37 46 -61c-19 -29 -57 -53 -85 -62c-24 24 -41 50 -133 50h-77l-20 -65c-29 -91 -11 -119 2 -150c-15 -27 -48 -52 -81 -64c-19 15 -38 41 -42 64c35 32 67 58 96 150l20 65h-77c-93 0 -126 -26 -166 -50z" />
    <glyph glyph-name="perthousand" unicode="&#x2030;" horiz-adv-x="1370" 
d="M68 0l836 758h69l-835 -758h-70zM242 332c-84 0 -124 65 -124 141c0 133 117 297 234 297c84 0 124 -65 124 -140c0 -134 -117 -298 -234 -298zM243 353c87 0 164 208 164 312c0 53 -17 84 -57 84c-88 0 -163 -208 -163 -311c0 -52 16 -85 56 -85zM698 -9
c-84 0 -124 65 -124 141c0 133 117 297 234 297c84 0 124 -65 124 -140c0 -134 -117 -298 -234 -298zM699 12c87 0 164 208 164 312c0 53 -17 84 -57 84c-88 0 -163 -208 -163 -311c0 -52 16 -85 56 -85zM1099 -9c-84 0 -124 65 -124 141c0 133 117 297 234 297
c84 0 124 -65 124 -140c0 -134 -117 -298 -234 -298zM1100 12c87 0 164 208 164 312c0 53 -17 84 -57 84c-88 0 -163 -208 -163 -311c0 -52 16 -85 56 -85z" />
    <glyph glyph-name="uni2117" unicode="&#x2117;" horiz-adv-x="907" 
d="M494 -12c-225 0 -392 166 -392 393c0 228 167 394 392 394c223 0 392 -166 392 -394c0 -227 -169 -393 -392 -393zM494 21c192 0 352 139 352 360c0 222 -160 361 -352 361s-352 -139 -352 -361c0 -221 160 -360 352 -360zM333 179v17l24 2c19 1 27 4 27 23v346
c0 19 -8 21 -27 24l-24 2v16h185c101 0 184 -23 184 -114c0 -92 -83 -119 -184 -119h-52v21h47c75 0 113 27 113 95c0 69 -38 96 -113 96h-61v-367c0 -19 10 -21 27 -22l46 -2v-18h-192z" />
    <glyph glyph-name="trademark" unicode="&#x2122;" horiz-adv-x="1291" 
d="M291 288v20l37 2c20 1 31 4 31 25v401h-98c-12 0 -16 -1 -20 -10l-62 -132h-8l15 164h422l15 -164h-8l-62 132c-4 9 -8 10 -20 10h-98v-401c0 -21 11 -24 30 -25l38 -2v-20h-212zM681 288v19l25 2c20 3 30 5 30 26v376c0 20 -10 23 -30 26l-25 2v19h156l138 -279l138 279
h147v-19l-25 -2c-20 -3 -30 -6 -30 -26v-376c0 -21 10 -23 30 -26l25 -2v-19h-187v19l25 2c20 3 30 5 30 26v393l-178 -365h-4l-180 363v-391c0 -21 10 -25 29 -26l26 -2v-19h-140z" />
    <glyph glyph-name="uni2116" unicode="&#x2116;" horiz-adv-x="1242" 
d="M889 240l12 40h286l-12 -40h-286zM660 -19l-351 701l-189 -619c-9 -28 6 -33 34 -36l44 -3l-7 -24h-219l7 24l46 3c31 3 47 8 56 36l194 632c9 28 -6 33 -34 36l-44 3l7 24h183l292 -590l163 527c9 28 -6 33 -34 36l-44 3l8 24h219l-8 -24l-46 -3c-31 -3 -47 -8 -56 -36
l-218 -714h-3zM1066 332c-84 0 -124 65 -124 141c0 133 117 297 234 297c84 0 124 -65 124 -140c0 -134 -117 -298 -234 -298zM1067 353c87 0 164 208 164 312c0 53 -17 84 -57 84c-88 0 -163 -208 -163 -311c0 -52 16 -85 56 -85z" />
    </font>
</defs>
</svg>
