<?xml version="1.0" standalone="no"?>
<!DOCTYPE svg PUBLIC "-//W3C//DTD SVG 1.1//EN" "http://www.w3.org/Graphics/SVG/1.1/DTD/svg11.dtd" >
<svg xmlns="http://www.w3.org/2000/svg" xmlns:xlink="http://www.w3.org/1999/xlink" version="1.1">
<metadata>
Created by FontForge 20190801 at Wed Oct 25 22:36:21 2017
 By Jimmy Wärting
Copyright \(c\) 2017 Swiss Typefaces Sarl. All rights reserved.
</metadata>
<defs>
<font id="SangBleuKingdom-Bold" horiz-adv-x="0" >
  <font-face 
    font-family="SangBleu Kingdom"
    font-weight="700"
    font-stretch="normal"
    units-per-em="1000"
    panose-1="2 4 8 4 8 0 0 0 0 4"
    ascent="800"
    descent="-200"
    x-height="502"
    cap-height="758"
    bbox="-360 -403 1300 1078"
    underline-thickness="71"
    underline-position="-129"
    stemh="33"
    stemv="148"
    unicode-range="U+0020-FEFF"
  />
<missing-glyph horiz-adv-x="632" 
d="M66 0v758h500v-758h-500zM99 739l217 -343l217 343h-434zM85 728v-698l221 349zM327 379l220 -349v698zM99 19h434l-217 343z" />
    <glyph glyph-name="f_f" unicode="ff" horiz-adv-x="780" 
d="M30 0v32l27 2c35 3 40 4 40 40v351h-67v32c45 5 74 32 95 93c58 168 128 230 261 230h32v-139h-154c-64 0 -86 -19 -86 -56c0 -34 21 -61 66 -83h135v-77h-134v-351c0 -36 11 -35 46 -37l61 -4v-33h-322zM402 0v32l27 2c35 3 40 4 40 40v351h-67v32c45 5 74 32 95 93
c58 168 128 230 261 230h32v-139h-154c-64 0 -86 -19 -86 -56c0 -34 21 -61 66 -83h194l-48 -77h-145v-351c0 -36 11 -35 46 -37l61 -4v-33h-322z" />
    <glyph glyph-name="f_f_i" unicode="ffi" horiz-adv-x="1088" 
d="M828 710c0 49 44 93 93 93c50 0 94 -44 94 -93c0 -50 -44 -94 -94 -94c-49 0 -93 44 -93 94zM26 0v32l27 2c35 3 40 4 40 40v351h-67v32c45 5 74 32 95 93c58 168 128 230 261 230h32v-139h-154c-64 0 -86 -19 -86 -56c0 -34 21 -61 66 -83h135v-77h-134v-351
c0 -36 11 -35 46 -37l61 -4v-33h-322zM398 0v32l27 2c35 3 40 4 40 40v351h-67v32c45 5 74 32 95 93c58 168 128 230 261 230h32v-139h-154c-64 0 -86 -19 -86 -56c0 -34 21 -61 66 -83h174l-48 -77h-125v-351c0 -36 11 -35 46 -37l61 -4v-33h-322zM781 0v32l27 2
c35 3 40 4 40 40v283l-76 72v6l224 94v-455c0 -36 5 -37 40 -40l27 -2v-32h-282z" />
    <glyph glyph-name="f_f_l" unicode="ffl" horiz-adv-x="1083" 
d="M402 0v32l27 2c35 3 40 4 40 40v351h-67v32c45 5 74 32 95 93c58 168 128 230 261 230h32v-48l205 70v-728c0 -36 5 -37 40 -40l27 -2v-32h-282v32l27 2c35 3 40 4 40 40v581l-57 48v-62h-154c-64 0 -86 -19 -86 -56c0 -34 21 -61 66 -83h166l-48 -77h-117v-351
c0 -36 11 -35 46 -37l61 -4v-33h-322zM30 0v32l27 2c35 3 40 4 40 40v351h-67v32c45 5 74 32 95 93c58 168 128 230 261 230h32v-139h-154c-64 0 -86 -19 -86 -56c0 -34 21 -61 66 -83h135v-77h-134v-351c0 -36 11 -35 46 -37l61 -4v-33h-322z" />
    <glyph glyph-name="f_i" unicode="fi" horiz-adv-x="712" 
d="M456 710c0 49 44 93 93 93c50 0 94 -44 94 -93c0 -50 -44 -94 -94 -94c-49 0 -93 44 -93 94zM26 0v32l27 2c35 3 40 4 40 40v351h-67v32c45 5 74 32 95 93c58 168 128 230 261 230h32v-139h-154c-64 0 -86 -19 -86 -56c0 -34 21 -61 66 -83h174l-48 -77h-125v-351
c0 -36 11 -35 46 -37l61 -4v-33h-322zM409 0v32l27 2c35 3 40 4 40 40v283l-76 72v6l224 94v-455c0 -36 5 -37 40 -40l27 -2v-32h-282z" />
    <glyph glyph-name="f_l" unicode="fl" horiz-adv-x="707" 
d="M26 0v32l27 2c35 3 40 4 40 40v351h-67v32c45 5 74 32 95 93c58 168 128 230 261 230h32v-48l205 70v-728c0 -36 5 -37 40 -40l27 -2v-32h-282v32l27 2c35 3 40 4 40 40v581l-57 48v-62h-154c-64 0 -86 -19 -86 -56c0 -34 21 -61 66 -83h166l-48 -77h-117v-351
c0 -36 11 -35 46 -37l61 -4v-33h-322z" />
    <glyph glyph-name=".notdef" horiz-adv-x="632" 
d="M66 0v758h500v-758h-500zM99 739l217 -343l217 343h-434zM85 728v-698l221 349zM327 379l220 -349v698zM99 19h434l-217 343z" />
    <glyph glyph-name=".null" 
 />
    <glyph glyph-name="CR" horiz-adv-x="220" 
 />
    <glyph glyph-name="space" unicode=" " horiz-adv-x="220" 
 />
    <glyph glyph-name="exclam" unicode="!" horiz-adv-x="281" 
d="M123 241c-13 263 -73 278 -73 504c0 46 180 46 180 0c0 -228 -60 -241 -73 -504h-34zM138 -13c-52 0 -95 43 -95 99c0 52 43 95 95 95c56 0 99 -43 99 -95c0 -56 -43 -99 -99 -99z" />
    <glyph glyph-name="quotedbl" unicode="&#x22;" horiz-adv-x="431" 
d="M89 483l-50 238c-9 42 10 58 72 58c61 0 80 -16 71 -58l-50 -238h-43zM299 483l-50 238c-9 42 10 58 72 58c61 0 80 -16 71 -58l-50 -238h-43z" />
    <glyph glyph-name="numbersign" unicode="#" horiz-adv-x="890" 
d="M119 0l79 195h-172l30 72h171l90 221h-172l29 72h172l88 216h78l-88 -216h189l88 216h78l-88 -216h172l-29 -72h-172l-90 -221h172l-29 -72h-172l-79 -195h-78l79 195h-189l-79 -195h-78zM305 267h189l90 221h-189z" />
    <glyph glyph-name="dollar" unicode="$" horiz-adv-x="606" 
d="M270 -13c-125 0 -232 61 -232 141c0 52 53 89 123 72c10 -100 51 -156 119 -166v288l-53 22c-108 44 -179 112 -179 222c0 113 109 196 232 211v113h46v-111c118 -2 221 -54 221 -127c0 -46 -49 -79 -124 -66c-11 90 -37 133 -97 145v-250l33 -13
c135 -55 212 -117 212 -236c0 -126 -100 -222 -245 -241v-111h-46v107h-10zM273 503l7 -3v234c-61 -4 -108 -46 -108 -108c0 -61 37 -97 101 -123zM445 160c0 63 -30 104 -119 143v-270c72 8 119 52 119 127z" />
    <glyph glyph-name="percent" unicode="%" horiz-adv-x="922" 
d="M32 552c0 109 61 219 171 219c112 0 173 -110 173 -219c0 -108 -61 -219 -173 -219c-110 0 -171 111 -171 219zM132 0l566 758h92l-566 -758h-92zM147 552c0 -97 1 -192 56 -192s57 95 57 192s-2 192 -57 192s-56 -95 -56 -192zM546 211c0 109 61 219 171 219
c112 0 173 -110 173 -219c0 -108 -61 -219 -173 -219c-110 0 -171 111 -171 219zM661 211c0 -97 1 -192 56 -192s57 95 57 192s-2 192 -57 192s-56 -95 -56 -192z" />
    <glyph glyph-name="ampersand" unicode="&#x26;" horiz-adv-x="889" 
d="M308 -13c-180 0 -264 118 -264 222c0 116 102 184 204 227c-67 60 -90 115 -90 166c0 96 98 177 230 177c120 0 195 -53 195 -132c0 -89 -98 -130 -182 -163c59 -51 139 -131 214 -216l72 123c30 51 22 74 -20 76l-51 3v32h257v-32l-40 -2c-36 -2 -58 -21 -82 -60
l-106 -175c31 -37 60 -74 86 -110c35 -50 71 -85 104 -88l30 -3v-32h-238c-18 29 -44 66 -75 106c-66 -72 -147 -119 -244 -119zM293 656c0 -59 32 -103 87 -153c66 27 92 79 92 135c0 66 -31 103 -86 103c-63 0 -93 -35 -93 -85zM200 269c0 -106 64 -202 176 -202
c58 0 108 25 152 71c-76 96 -172 205 -258 279c-56 -37 -70 -96 -70 -148z" />
    <glyph glyph-name="quotesingle" unicode="'" horiz-adv-x="221" 
d="M89 483l-50 238c-9 42 10 58 72 58c61 0 80 -16 71 -58l-50 -238h-43z" />
    <glyph glyph-name="parenleft" unicode="(" horiz-adv-x="317" 
d="M283 -248c-175 142 -251 337 -251 543s76 401 251 543l21 -21c-130 -145 -143 -344 -143 -522s13 -377 143 -522z" />
    <glyph glyph-name="parenright" unicode=")" horiz-adv-x="317" 
d="M42 837c175 -142 251 -337 251 -543s-76 -401 -251 -543l-21 21c130 145 143 344 143 522s-13 377 -143 522z" />
    <glyph glyph-name="asterisk" unicode="*" horiz-adv-x="494" 
d="M132 410l-23 16l71 146l-143 75l9 27l160 -23l27 159h28l28 -159l160 22l9 -27l-143 -76l71 -144l-23 -17l-116 113z" />
    <glyph glyph-name="plus" unicode="+" horiz-adv-x="645" 
d="M283 0v225h-229v75h229v216h79v-216h229v-75h-229v-225h-79z" />
    <glyph glyph-name="comma" unicode="," horiz-adv-x="295" 
d="M60 -189l-17 33c62 36 94 81 94 130c0 48 -31 78 -96 92c-2 59 40 111 105 111c58 0 103 -40 103 -112c0 -94 -74 -193 -189 -254z" />
    <glyph glyph-name="hyphen" unicode="-" horiz-adv-x="406" 
d="M56 222v81h294v-81h-294z" />
    <glyph glyph-name="period" unicode="." horiz-adv-x="281" 
d="M138 -13c-52 0 -95 43 -95 99c0 52 43 95 95 95c56 0 99 -43 99 -95c0 -56 -43 -99 -99 -99z" />
    <glyph glyph-name="slash" unicode="/" horiz-adv-x="486" 
d="M22 -52l343 858h100l-343 -858h-100z" />
    <glyph glyph-name="zero" unicode="0" horiz-adv-x="675" 
d="M40 383c0 189 104 396 297 396c194 0 298 -207 298 -396s-104 -396 -298 -396c-193 0 -297 207 -297 396zM206 383c0 -192 24 -353 131 -353s132 161 132 353s-25 353 -132 353s-131 -161 -131 -353z" />
    <glyph glyph-name="one" unicode="1" horiz-adv-x="407" 
d="M143 74v596l-125 -50v37l273 114v-697c0 -36 5 -37 40 -40l27 -2v-32h-292v32l37 2c35 2 40 4 40 40z" />
    <glyph glyph-name="two" unicode="2" horiz-adv-x="578" 
d="M-1 0v4c254 260 363 427 363 558c0 71 -32 137 -119 137c-75 0 -138 -50 -149 -170h-35c4 168 110 250 244 250c149 0 217 -88 217 -183c0 -122 -129 -245 -230 -338l-138 -127h211c83 0 108 7 131 57l15 33h35l-53 -221h-492z" />
    <glyph glyph-name="three" unicode="3" horiz-adv-x="579" 
d="M203 -13c-99 0 -182 50 -182 125c0 46 42 88 114 75c18 -92 58 -150 137 -150c56 0 137 42 137 151c0 123 -91 194 -176 194c-31 0 -54 -6 -75 -16l-12 37l48 19c92 36 163 109 163 175c0 69 -50 102 -110 102c-59 0 -129 -28 -147 -139h-35c16 137 101 219 250 219
c97 0 184 -48 184 -125c0 -71 -59 -117 -157 -153v-3c129 -31 200 -119 200 -219c0 -173 -168 -292 -339 -292z" />
    <glyph glyph-name="four" unicode="4" horiz-adv-x="672" 
d="M369 0v190h-374l389 568h133v-461h133v-107h-133v-190h-148zM126 297h243v361z" />
    <glyph glyph-name="five" unicode="5" horiz-adv-x="565" 
d="M193 -13c-99 0 -182 49 -182 124c0 46 42 88 114 75c17 -86 62 -144 141 -144c78 0 136 59 136 131c0 102 -85 175 -314 220l95 365h358l-38 -138h-314l-22 -79c234 -44 342 -146 342 -289c0 -132 -125 -265 -316 -265z" />
    <glyph glyph-name="six" unicode="6" horiz-adv-x="631" 
d="M589 238c0 -146 -130 -251 -271 -251c-166 0 -285 116 -285 283c0 213 225 452 560 550l11 -31c-228 -91 -352 -249 -392 -402c44 41 92 71 163 71c110 0 214 -61 214 -220zM198 277c0 -141 49 -249 126 -249c67 0 100 68 100 177c0 119 -48 185 -124 185
c-36 0 -65 -7 -95 -39c-5 -25 -7 -50 -7 -74z" />
    <glyph glyph-name="seven" unicode="7" horiz-adv-x="588" 
d="M91 758h517l-255 -367c-109 -156 -138 -278 -153 -332s-30 -58 -62 -62l-66 -8c-30 -4 -60 7 -31 50c132 197 252 349 435 581h-257c-92 0 -112 -8 -139 -73l-7 -17h-35z" />
    <glyph glyph-name="eight" unicode="8" horiz-adv-x="593" 
d="M289 -13c-145 0 -251 78 -251 194c0 81 58 137 159 181c-72 46 -126 113 -126 210c0 126 107 207 233 207c120 0 218 -61 218 -156c0 -79 -57 -132 -147 -174l2 -1c103 -57 176 -120 176 -238c0 -141 -134 -223 -264 -223zM291 496l59 -33c61 38 81 91 81 143
c0 74 -47 129 -132 129c-77 0 -127 -38 -127 -101c0 -61 46 -97 119 -138zM139 188c0 -87 61 -157 155 -157c91 0 148 45 148 121c0 65 -61 107 -142 152l-79 44c-53 -34 -82 -87 -82 -160z" />
    <glyph glyph-name="nine" unicode="9" horiz-adv-x="631" 
d="M606 496c0 -213 -225 -452 -560 -550l-11 31c228 91 352 249 392 402c-44 -41 -92 -71 -163 -71c-110 0 -214 61 -214 220c0 146 130 251 271 251c166 0 285 -116 285 -283zM215 561c0 -119 48 -185 124 -185c36 0 65 7 95 39c5 25 7 50 7 74c0 141 -49 249 -126 249
c-67 0 -100 -68 -100 -177z" />
    <glyph glyph-name="colon" unicode=":" horiz-adv-x="304" 
d="M150 327c-52 0 -95 43 -95 99c0 52 43 95 95 95c56 0 99 -43 99 -95c0 -56 -43 -99 -99 -99zM150 -13c-52 0 -95 43 -95 99c0 52 43 95 95 95c56 0 99 -43 99 -95c0 -56 -43 -99 -99 -99z" />
    <glyph glyph-name="semicolon" unicode=";" horiz-adv-x="312" 
d="M150 327c-52 0 -95 43 -95 99c0 52 43 95 95 95c56 0 99 -43 99 -95c0 -56 -43 -99 -99 -99zM72 -189l-17 33c62 36 94 81 94 130c0 48 -31 78 -96 92c-2 59 40 111 105 111c58 0 103 -40 103 -112c0 -94 -74 -193 -189 -254z" />
    <glyph glyph-name="less" unicode="&#x3c;" horiz-adv-x="645" 
d="M49 228v69l527 225v-81l-423 -179l423 -179v-81z" />
    <glyph glyph-name="equal" unicode="=" horiz-adv-x="645" 
d="M69 334v75h507v-75h-507zM69 104v75h507v-75h-507z" />
    <glyph glyph-name="greater" unicode="&#x3e;" horiz-adv-x="645" 
d="M604 228l-527 -226v81l423 179l-423 179v81l527 -225v-69z" />
    <glyph glyph-name="question" unicode="?" horiz-adv-x="571" 
d="M282 733c-68 0 -118 -29 -118 -127c-60 -2 -134 21 -134 81c0 58 90 92 199 92c188 0 311 -102 311 -258c0 -82 -31 -150 -170 -168l-124 -16c-29 -4 -33 -6 -34 -33l-3 -71h-32l-28 167c-13 81 20 88 93 97l123 15c88 11 101 38 101 77c0 80 -98 144 -184 144zM196 -13
c-52 0 -95 43 -95 99c0 52 43 95 95 95c56 0 99 -43 99 -95c0 -56 -43 -99 -99 -99z" />
    <glyph glyph-name="at" unicode="@" horiz-adv-x="952" 
d="M562 158c-33 0 -55 9 -55 27c0 14 10 35 20 61l30 76h-5c-63 -93 -136 -162 -215 -162c-58 0 -100 35 -100 99c0 161 236 356 372 356c58 0 111 -32 152 -46l-125 -315c-8 -21 -12 -32 -12 -38c0 -3 1 -6 6 -6c65 0 241 82 241 276c0 169 -142 251 -300 251
c-239 0 -431 -203 -431 -437c0 -186 120 -292 302 -292c93 0 162 22 200 41l13 -30c-49 -25 -123 -50 -225 -50c-206 0 -387 119 -387 326c0 246 253 484 530 484c175 0 348 -91 348 -293c0 -194 -173 -328 -359 -328zM402 233c39 0 138 63 199 220l42 107
c-5 13 -20 19 -43 19c-93 0 -234 -177 -234 -296c0 -33 9 -50 36 -50z" />
    <glyph glyph-name="A" unicode="A" horiz-adv-x="758" 
d="M685 85c14 -35 29 -41 64 -45l33 -4v-36h-344v36l43 4c35 3 48 10 34 45l-64 162h-257l-65 -162c-14 -35 -1 -42 34 -45l43 -4v-36h-231v36l33 4c35 4 50 10 64 45l297 723h20zM323 568l-105 -262h209z" />
    <glyph glyph-name="B" unicode="B" horiz-adv-x="756" 
d="M42 0v36l45 4c35 3 44 10 44 49v580c0 39 -9 46 -44 49l-45 4v36h331c187 0 294 -51 294 -168c0 -97 -80 -166 -224 -184v-2c175 0 283 -61 283 -180c0 -140 -129 -224 -320 -224h-364zM291 424h69c103 0 139 56 139 146s-36 144 -138 144h-70v-290zM291 44h75
c114 0 183 40 183 167s-69 169 -183 169h-75v-336z" />
    <glyph glyph-name="C" unicode="C" horiz-adv-x="810" 
d="M477 -13c-264 0 -441 159 -441 396s179 396 447 396c82 0 172 -14 231 -35l46 -262h-22l-132 192c-23 33 -43 44 -59 50c-14 5 -43 9 -72 9c-129 0 -262 -78 -262 -317c0 -203 84 -383 278 -383c29 0 58 4 72 9c16 6 36 17 59 50l132 192h22l-53 -262
c-59 -21 -161 -35 -246 -35z" />
    <glyph glyph-name="D" unicode="D" horiz-adv-x="842" 
d="M42 0v36l45 4c35 3 44 10 44 49v580c0 39 -9 46 -44 49l-45 4v36h301c268 0 463 -133 463 -373s-195 -385 -455 -385h-309zM291 44h52c168 0 284 83 284 307c0 253 -95 363 -290 363h-46v-670z" />
    <glyph glyph-name="E" unicode="E" horiz-adv-x="769" 
d="M42 0v36l45 4c35 3 44 10 44 49v580c0 39 -9 46 -44 49l-45 4v36h596l37 -271h-22l-143 207c-11 16 -16 18 -37 18h-182v-293h116c9 0 14 3 17 11l48 131h22v-336h-22l-48 131c-3 8 -8 11 -17 11h-116v-321h227c18 0 20 2 31 14l184 211h22l-75 -271h-638z" />
    <glyph glyph-name="F" unicode="F" horiz-adv-x="713" 
d="M42 0v36l45 4c35 3 44 10 44 49v580c0 39 -9 46 -44 49l-45 4v36h618l37 -271h-22l-143 207c-11 16 -16 18 -37 18h-204v-293h130c9 0 14 3 17 11l48 131h22v-336h-22l-48 131c-3 8 -8 11 -17 11h-130v-278c0 -39 9 -45 44 -47l80 -4v-38h-373z" />
    <glyph glyph-name="G" unicode="G" horiz-adv-x="866" 
d="M476 -13c-264 0 -441 159 -441 396s184 396 447 396c82 0 172 -14 231 -35l46 -262h-22l-132 192c-23 33 -43 44 -59 50c-14 5 -43 9 -72 9c-124 0 -262 -78 -262 -317c0 -203 84 -381 278 -381c31 0 78 3 112 11v214c0 39 -9 46 -44 48l-81 4v41h374v-45h-89v-202l4 -71
c-70 -25 -193 -48 -290 -48z" />
    <glyph glyph-name="H" unicode="H" horiz-adv-x="903" 
d="M42 0v36l45 4c35 3 44 10 44 49v580c0 39 -9 46 -44 49l-45 4v36h338v-36l-45 -4c-35 -3 -44 -10 -44 -49v-242h321v242c0 39 -9 46 -44 49l-45 4v36h338v-36l-45 -4c-35 -3 -44 -10 -44 -49v-580c0 -39 9 -46 44 -49l45 -4v-36h-338v36l45 4c35 3 44 10 44 49v279h-321
v-279c0 -39 9 -46 44 -49l45 -4v-36h-338z" />
    <glyph glyph-name="I" unicode="I" horiz-adv-x="422" 
d="M42 0v36l45 4c35 3 44 10 44 49v580c0 39 -9 46 -44 49l-45 4v36h338v-36l-45 -4c-35 -3 -44 -10 -44 -49v-580c0 -39 9 -46 44 -49l45 -4v-36h-338z" />
    <glyph glyph-name="J" unicode="J" horiz-adv-x="414" 
d="M10 -105l-23 30c118 100 148 123 148 251v497c0 37 -7 41 -42 42l-53 2v41h350v-41l-53 -2c-35 -1 -42 -5 -42 -42v-459c0 -108 -51 -147 -121 -203c-35 -28 -112 -80 -164 -116z" />
    <glyph glyph-name="K" unicode="K" horiz-adv-x="824" 
d="M42 0v36l45 4c35 3 44 10 44 49v580c0 39 -9 46 -44 49l-45 4v36h338v-36l-45 -4c-35 -3 -44 -10 -44 -49v-294l306 313c14 14 9 28 -21 30l-73 4v36h298v-36l-51 -3c-45 -3 -65 -13 -88 -36l-226 -231l412 -452h-223l-334 367v-278c0 -39 9 -46 44 -49l45 -4v-36h-338z
" />
    <glyph glyph-name="L" unicode="L" horiz-adv-x="720" 
d="M42 0v36l45 4c35 3 44 10 44 49v580c0 39 -9 46 -44 49l-45 4v36h338v-36l-45 -4c-35 -3 -44 -10 -44 -49v-623h187c18 0 20 2 31 14l184 211h22l-75 -271h-598z" />
    <glyph glyph-name="M" unicode="M" horiz-adv-x="1035" 
d="M22 0v36l45 4c35 3 41 10 44 49l40 580c3 39 -9 46 -44 49l-45 4v36h295l172 -393l165 393h279v-36l-45 -4c-35 -3 -47 -10 -44 -49l40 -580c3 -39 9 -46 44 -49l45 -4v-36h-338v36l45 4c35 3 47 10 44 49l-40 609l-252 -589h-6l-259 586l-40 -606c-3 -39 9 -46 44 -49
l45 -4v-36h-234z" />
    <glyph glyph-name="N" unicode="N" horiz-adv-x="877" 
d="M46 0v36l45 4c35 3 44 10 44 49v558l-101 109v2h210l456 -475v386c0 39 -9 46 -44 49l-45 4v36h234v-36l-45 -4c-35 -3 -44 -10 -44 -49v-686h-4l-561 604v-498c0 -39 9 -46 44 -49l45 -4v-36h-234z" />
    <glyph glyph-name="O" unicode="O" horiz-adv-x="892" 
d="M446 -13c-214 0 -410 146 -410 396s196 396 410 396s410 -146 410 -396s-196 -396 -410 -396zM446 35c143 0 232 122 232 348s-89 348 -232 348s-232 -122 -232 -348s89 -348 232 -348z" />
    <glyph glyph-name="P" unicode="P" horiz-adv-x="722" 
d="M42 0v36l45 4c35 3 44 10 44 49v580c0 39 -9 46 -44 49l-45 4v36h330c190 0 336 -43 336 -204s-146 -214 -336 -214h-56v45h49c119 0 166 53 166 163s-47 166 -166 166h-74v-625c0 -39 9 -45 44 -47l80 -4v-38h-373z" />
    <glyph glyph-name="Q" unicode="Q" horiz-adv-x="892" 
d="M888 -47c-43 -103 -103 -215 -181 -215c-133 0 -272 163 -386 163c-18 0 -34 -3 -49 -10c5 -54 -21 -70 -46 -70c-20 0 -35 18 -35 41c0 38 31 69 117 104l66 27c-184 29 -338 168 -338 390c0 250 196 396 410 396s410 -146 410 -396s-195 -396 -409 -396l-174 -68
c34 10 77 13 103 13c154 0 250 -64 344 -64c58 0 102 28 134 96zM446 35c143 0 232 122 232 348s-89 348 -232 348s-232 -122 -232 -348s89 -348 232 -348z" />
    <glyph glyph-name="R" unicode="R" horiz-adv-x="787" 
d="M42 0v36l45 4c35 3 44 10 44 49v580c0 39 -9 46 -44 49l-45 4v36h317c200 0 327 -50 327 -181c0 -79 -52 -159 -191 -186l327 -391h-202l-305 369h-24v-280c0 -39 9 -46 44 -49l45 -4v-36h-338zM291 414h60c112 0 158 57 158 150s-46 150 -158 150h-60v-300z" />
    <glyph glyph-name="S" unicode="S" horiz-adv-x="632" 
d="M310 -13c-69 0 -148 9 -215 37l-47 246h22l140 -196c18 -26 31 -31 47 -35c18 -4 37 -6 58 -6c79 0 147 38 147 118c0 77 -55 123 -160 156l-54 17c-125 39 -190 120 -190 236c0 152 145 219 291 219c55 0 110 -9 157 -27l48 -235h-22l-140 186c-16 22 -21 23 -34 26
c-10 2 -21 3 -32 3c-74 0 -143 -38 -143 -115c0 -55 28 -102 109 -128l54 -17c145 -46 243 -109 243 -252c0 -149 -147 -233 -279 -233z" />
    <glyph glyph-name="T" unicode="T" horiz-adv-x="774" 
d="M193 0v38l70 4c35 2 44 8 44 47v628h-107c-21 0 -27 -1 -37 -18l-128 -212h-22l22 271h704l22 -271h-22l-128 212c-10 17 -16 18 -37 18h-107v-628c0 -39 9 -45 44 -47l70 -4v-38h-388z" />
    <glyph glyph-name="U" unicode="U" horiz-adv-x="855" 
d="M433 -13c-202 0 -323 93 -323 308v374c0 39 -9 46 -44 49l-45 4v36h338v-36l-45 -4c-35 -3 -44 -10 -44 -49v-377c0 -176 74 -232 205 -232c137 0 215 73 215 246v363c0 39 -9 46 -44 49l-45 4v36h234v-36l-45 -4c-35 -3 -44 -10 -44 -49v-373
c0 -201 -112 -309 -313 -309z" />
    <glyph glyph-name="V" unicode="V" horiz-adv-x="767" 
d="M373 -31l-301 704c-15 35 -29 41 -64 45l-33 4v36h345v-36l-43 -4c-35 -3 -49 -10 -34 -45l196 -469l198 469c15 35 1 42 -34 45l-43 4v36h232v-36l-33 -4c-35 -4 -49 -10 -64 -45l-302 -704h-20z" />
    <glyph glyph-name="W" unicode="W" horiz-adv-x="1171" 
d="M373 -31l-301 704c-15 35 -29 41 -64 45l-33 4v36h345v-36l-43 -4c-35 -3 -49 -10 -34 -45l196 -469l127 295l-103 259h322v-36l-81 -4c-35 -2 -47 -10 -34 -45l173 -469l198 469c15 35 1 42 -34 45l-43 4v36h232v-36l-33 -4c-35 -4 -49 -10 -64 -45l-302 -704h-20
l-184 464l-200 -464h-20z" />
    <glyph glyph-name="X" unicode="X" horiz-adv-x="801" 
d="M-9 0v36l33 4c35 4 62 16 86 45l227 272l-214 316c-21 31 -39 41 -74 45l-33 4v36h358v-36l-43 -4c-35 -3 -45 -14 -24 -45l131 -194l162 194c25 29 23 42 -12 45l-43 4v36h237v-36l-33 -4c-35 -4 -62 -16 -86 -45l-196 -236l238 -352c21 -31 39 -41 74 -45l33 -4v-36
h-358v36l43 4c35 3 45 14 24 45l-156 230l-192 -230c-25 -29 -23 -42 12 -45l43 -4v-36h-237z" />
    <glyph glyph-name="Y" unicode="Y" horiz-adv-x="760" 
d="M186 0v38l70 4c35 2 44 8 44 47v253l-220 331c-22 33 -29 41 -64 45l-33 4v36h350v-36l-43 -4c-35 -3 -55 -13 -34 -45l180 -276l184 276c22 33 1 42 -34 45l-43 4v36h234v-36l-33 -4c-35 -4 -42 -12 -64 -45l-220 -332v-252c0 -39 9 -45 44 -47l70 -4v-38h-388z" />
    <glyph glyph-name="Z" unicode="Z" horiz-adv-x="730" 
d="M10 0v12l484 702h-210c-21 0 -24 -3 -37 -18l-183 -209h-22l77 271h572v-12l-481 -702h262c21 0 24 3 37 18l183 209h22l-77 -271h-627z" />
    <glyph glyph-name="bracketleft" unicode="[" horiz-adv-x="314" 
d="M92 -238v1064h213v-34l-37 -2c-64 -3 -80 -20 -80 -84v-824c0 -64 16 -81 80 -84l37 -2v-34h-213z" />
    <glyph glyph-name="backslash" unicode="\" horiz-adv-x="486" 
d="M464 -52h-100l-343 858h100z" />
    <glyph glyph-name="bracketright" unicode="]" horiz-adv-x="314" 
d="M230 826v-1064h-213v34l37 2c64 3 80 20 80 84v824c0 64 -16 81 -80 84l-37 2v34h213z" />
    <glyph glyph-name="asciicircum" unicode="^" horiz-adv-x="645" 
d="M79 361l206 415h74l206 -415h-80l-163 333l-163 -333h-80z" />
    <glyph glyph-name="underscore" unicode="_" horiz-adv-x="526" 
d="M-4 -146v71h534v-71h-534z" />
    <glyph glyph-name="grave" unicode="`" 
d="M121 609h-28l-230 168v11h148z" />
    <glyph glyph-name="a" unicode="a" horiz-adv-x="551" 
d="M194 -13c-95 0 -163 65 -163 139c0 95 111 126 190 155c104 38 115 72 115 123c0 46 -30 83 -81 83c-75 0 -106 -58 -84 -146c-27 -6 -49 -8 -67 -8c-54 0 -76 30 -76 55c0 42 62 76 127 101c45 17 94 34 164 34c87 0 158 -37 155 -142l-8 -315h78v-32l-194 -45l-20 89
c-27 -68 -78 -91 -136 -91zM262 48c30 0 64 30 65 109l1 153c-19 -16 -31 -23 -54 -37c-55 -34 -78 -75 -78 -126c0 -46 24 -99 66 -99z" />
    <glyph glyph-name="b" unicode="b" horiz-adv-x="595" 
d="M354 521c111 0 208 -94 208 -268c0 -159 -103 -266 -230 -266c-59 0 -106 26 -131 58l-123 -63l-7 4v669l-76 64v6l224 77v-343c32 36 82 62 135 62zM277 452c-19 0 -39 -4 -58 -20v-364c16 -17 36 -23 55 -23c70 0 123 76 123 207c0 119 -52 200 -120 200z" />
    <glyph glyph-name="c" unicode="c" horiz-adv-x="556" 
d="M287 -13c-160 0 -256 115 -256 259c0 170 133 275 279 275c103 0 199 -42 199 -122c0 -42 -24 -72 -92 -72c-15 0 -32 1 -51 4c9 109 -24 156 -79 156c-51 0 -108 -49 -108 -175c0 -125 65 -229 177 -229c64 0 136 38 156 123h29c-25 -152 -117 -219 -254 -219z" />
    <glyph glyph-name="d" unicode="d" horiz-adv-x="610" 
d="M241 -13c-111 0 -208 94 -208 268c0 159 103 266 230 266c43 0 86 -19 113 -48v182l-94 64v6l242 77v-736h73v-32l-221 -45v60c-32 -36 -82 -62 -135 -62zM198 256c0 -119 52 -200 120 -200c19 0 39 4 58 20v369c-16 14 -36 19 -55 19c-70 0 -123 -77 -123 -208z" />
    <glyph glyph-name="e" unicode="e" horiz-adv-x="578" 
d="M295 -13c-165 0 -264 115 -264 263c0 166 131 271 261 271c126 0 217 -68 244 -205h-355c1 -131 71 -233 185 -233c66 0 139 38 159 123h29c-23 -146 -117 -219 -259 -219zM286 487c-56 0 -94 -47 -103 -129h189c-3 93 -36 129 -86 129z" />
    <glyph glyph-name="f" unicode="f" horiz-adv-x="410" 
d="M26 0v32l27 2c35 3 40 4 40 40v351h-67v32c45 5 74 32 95 93c58 168 128 230 261 230h32v-139h-154c-64 0 -86 -19 -86 -56c0 -34 21 -61 66 -83h194l-48 -77h-145v-351c0 -36 11 -35 46 -37l61 -4v-33h-322z" />
    <glyph glyph-name="g" unicode="g" horiz-adv-x="604" 
d="M270 170c-27 0 -53 3 -76 9l-61 -73l268 -22c140 -12 171 -53 171 -114c0 -117 -165 -231 -384 -231c-115 0 -176 47 -176 103c0 60 75 99 161 116c-44 17 -117 65 -145 84l129 150c-68 30 -109 87 -109 152c0 97 92 177 225 177c67 0 122 -20 162 -51l44 86h142l-51 -99
h-121c30 -30 47 -68 47 -110c0 -97 -92 -177 -226 -177zM300 204c32 0 57 28 57 96c0 95 -40 189 -109 189c-33 0 -58 -28 -58 -97c0 -94 40 -188 110 -188zM243 -213c99 0 207 48 207 105c0 47 -65 61 -178 61c-118 0 -155 -43 -155 -82c0 -44 32 -84 126 -84z" />
    <glyph glyph-name="h" unicode="h" horiz-adv-x="608" 
d="M17 0v32l27 2c35 3 40 4 40 40v581l-76 64v6l224 77v-401c22 73 72 120 152 120c81 0 142 -43 142 -187v-260c0 -36 5 -37 40 -40l27 -2v-32h-271v32l19 2c35 4 37 4 37 40v232c0 104 -28 127 -68 127s-78 -24 -78 -128v-231c0 -36 2 -36 37 -40l19 -2v-32h-271z" />
    <glyph glyph-name="i" unicode="i" horiz-adv-x="337" 
d="M81 710c0 49 44 93 93 93c50 0 94 -44 94 -93c0 -50 -44 -94 -94 -94c-49 0 -93 44 -93 94zM34 0v32l27 2c35 3 40 4 40 40v283l-76 72v6l224 94v-455c0 -36 5 -37 40 -40l27 -2v-32h-282z" />
    <glyph glyph-name="j" unicode="j" horiz-adv-x="307" 
d="M68 710c0 49 44 93 93 93c50 0 94 -44 94 -93c0 -50 -44 -94 -94 -94c-49 0 -93 44 -93 94zM-32 -263l-19 27c92 81 139 125 139 278v315l-76 72v6l224 94v-480c0 -108 -37 -158 -110 -210c-35 -25 -99 -67 -158 -102z" />
    <glyph glyph-name="k" unicode="k" horiz-adv-x="625" 
d="M17 0v32l21 2c35 3 46 13 46 49v572l-76 64v6l224 77v-541l177 157c28 25 22 48 -13 50l-38 2v32h239v-32l-27 -2c-43 -4 -63 -18 -100 -50l-106 -91l283 -327h-199l-216 248v-165c0 -36 11 -46 46 -49l21 -2v-32h-282z" />
    <glyph glyph-name="l" unicode="l" horiz-adv-x="324" 
d="M21 0v32l27 2c35 3 40 4 40 40v581l-76 64v6l224 77v-728c0 -36 5 -37 40 -40l27 -2v-32h-282z" />
    <glyph glyph-name="m" unicode="m" horiz-adv-x="915" 
d="M301 32v-32h-271v32l27 2c35 3 40 4 40 40v283l-76 72v6l224 94v-128c22 73 72 120 152 120c68 0 121 -30 137 -123c24 78 79 123 157 123c81 0 142 -43 142 -187v-260c0 -36 5 -37 40 -40l27 -2v-32h-271v32l19 2c35 4 37 4 37 40v232c0 104 -28 127 -68 127
s-78 -24 -78 -128v-231c0 -36 2 -36 37 -40l19 -2v-32h-260v32l19 2c35 4 37 4 37 40v232c0 104 -28 127 -68 127s-78 -24 -78 -128v-231c0 -36 2 -36 37 -40z" />
    <glyph glyph-name="n" unicode="n" horiz-adv-x="621" 
d="M30 0v32l27 2c35 3 40 4 40 40v283l-76 72v6l224 94v-128c22 73 72 120 152 120c81 0 142 -43 142 -187v-260c0 -36 5 -37 40 -40l27 -2v-32h-271v32l19 2c35 4 37 4 37 40v232c0 104 -28 127 -68 127s-78 -24 -78 -128v-231c0 -36 2 -36 37 -40l19 -2v-32h-271z" />
    <glyph glyph-name="o" unicode="o" horiz-adv-x="616" 
d="M306 -13c-166 0 -276 119 -276 262c0 160 124 272 280 272c166 0 276 -119 276 -262c0 -160 -124 -272 -280 -272zM308 28c62 0 111 55 111 227s-49 227 -111 227c-64 0 -113 -55 -113 -227s49 -227 113 -227z" />
    <glyph glyph-name="p" unicode="p" horiz-adv-x="611" 
d="M20 -248v32l27 2c35 3 40 4 40 40v526l-76 60v6l224 111v-70c32 36 82 62 135 62c111 0 208 -94 208 -268c0 -159 -103 -266 -230 -266c-43 0 -86 19 -113 48v-209c0 -36 11 -36 46 -38l51 -3v-33h-312zM293 452c-19 0 -39 -4 -58 -20v-369c16 -14 36 -19 55 -19
c70 0 123 77 123 208c0 119 -52 200 -120 200z" />
    <glyph glyph-name="q" unicode="q" horiz-adv-x="595" 
d="M241 -13c-111 0 -208 94 -208 268c0 159 103 266 230 266c59 0 106 -26 131 -58l123 63l7 -4v-696c0 -36 5 -37 40 -40l27 -2v-32h-312v33l51 3c35 2 46 2 46 38v223c-32 -36 -82 -62 -135 -62zM198 256c0 -119 52 -200 120 -200c19 0 39 4 58 20v364
c-16 17 -36 23 -55 23c-70 0 -123 -76 -123 -207z" />
    <glyph glyph-name="r" unicode="r" horiz-adv-x="446" 
d="M30 0v32l27 2c35 3 40 4 40 40v283l-76 72v6l224 94v-173c28 117 95 158 174 158h10v-149l-53 7c-104 14 -131 -14 -131 -59v-239c0 -36 11 -36 46 -38l51 -3v-33h-312z" />
    <glyph glyph-name="s" unicode="s" horiz-adv-x="472" 
d="M209 -13c-49 0 -93 7 -146 24l-16 178h22l76 -124c27 -44 52 -40 81 -40c46 0 86 27 86 73c0 40 -23 71 -77 83l-53 12c-81 18 -134 76 -134 163c0 106 104 165 215 165c43 0 94 -6 134 -20l19 -170h-22l-85 122c-21 31 -40 32 -66 32c-47 0 -81 -27 -81 -73
c0 -42 26 -73 77 -84l43 -9c108 -23 154 -83 154 -160c0 -101 -97 -172 -227 -172z" />
    <glyph glyph-name="t" unicode="t" horiz-adv-x="429" 
d="M231 -7c-80 0 -133 20 -133 126v306h-101v6l242 200h7v-129h200l-48 -77h-152v-272c0 -75 25 -96 70 -96c31 0 57 13 81 29l16 -26c-39 -32 -109 -67 -182 -67z" />
    <glyph glyph-name="u" unicode="u" horiz-adv-x="610" 
d="M224 -13c-81 0 -142 43 -142 187v271l-65 25v32h213v-300c0 -104 28 -127 68 -127s78 24 78 128v242l-65 25v32h213v-436h73v-32l-221 -45v118c-22 -73 -72 -120 -152 -120z" />
    <glyph glyph-name="v" unicode="v" horiz-adv-x="554" 
d="M254 -12l-188 425c-16 37 -24 51 -59 55l-16 2v32h286v-32l-21 -2c-35 -3 -46 -18 -32 -49l108 -242l92 214c23 54 8 72 -27 76l-28 3v32h199v-32l-20 -2c-36 -4 -49 -18 -68 -60l-186 -420h-40z" />
    <glyph glyph-name="w" unicode="w" horiz-adv-x="866" 
d="M254 -12l-188 425c-16 37 -24 51 -59 55l-16 2v32h286v-32l-21 -2c-35 -3 -46 -18 -32 -49l108 -242l75 170l-68 155h250v-32l-21 -2c-35 -3 -46 -18 -32 -49l108 -241l92 213c23 54 8 72 -27 76l-28 3v32h199v-32l-20 -2c-36 -4 -49 -18 -68 -60l-186 -420h-40l-136 307
l-136 -307h-40z" />
    <glyph glyph-name="x" unicode="x" horiz-adv-x="619" 
d="M-6 0v32l20 2c36 4 73 28 128 84l107 109l-140 186c-24 32 -38 51 -73 55l-16 2v32h298v-32l-21 -2c-35 -3 -38 -22 -18 -49l69 -92l63 64c42 42 38 72 3 76l-28 3v32h226v-32l-20 -2c-36 -4 -73 -28 -125 -80l-93 -95l153 -204c24 -32 38 -51 73 -55l16 -2v-32h-298v32
l21 2c35 3 38 22 18 49l-82 109l-80 -81c-42 -42 -38 -72 -3 -76l28 -3v-32h-226z" />
    <glyph glyph-name="y" unicode="y" horiz-adv-x="555" 
d="M210 -88l38 83l-179 418c-16 37 -24 51 -59 55l-16 2v32h286v-32l-21 -2c-35 -3 -45 -18 -32 -49l102 -247l99 219c24 54 8 72 -27 76l-28 3v32h198v-32l-20 -2c-36 -4 -49 -18 -68 -60l-248 -542c-39 -84 -70 -121 -126 -121c-44 0 -71 34 -71 75c0 57 65 103 172 92z
" />
    <glyph glyph-name="z" unicode="z" horiz-adv-x="547" 
d="M21 0l302 462h-110c-29 0 -44 -5 -58 -26l-101 -152h-22l41 218h443l-301 -462h101c31 0 43 5 64 30l128 155h22l-67 -225h-442z" />
    <glyph glyph-name="braceleft" unicode="{" horiz-adv-x="357" 
d="M336 -238c-118 14 -257 91 -229 254l16 93c21 124 -39 153 -123 166v35c84 13 144 42 123 166l-16 93c-28 163 111 240 229 254l6 -30c-94 -18 -126 -86 -108 -178l14 -71c35 -179 -64 -237 -171 -250v-3c107 -13 206 -71 171 -250l-14 -71c-18 -92 14 -160 108 -178z
" />
    <glyph glyph-name="bar" unicode="|" horiz-adv-x="275" 
d="M92 -238v1064h91v-1064h-91z" />
    <glyph glyph-name="braceright" unicode="}" horiz-adv-x="357" 
d="M29 823c118 -14 257 -91 229 -254l-16 -93c-21 -124 39 -153 123 -166v-35c-84 -13 -144 -42 -123 -166l16 -93c28 -163 -111 -240 -229 -254l-6 30c94 18 126 86 108 178l-14 71c-35 179 64 237 171 250v3c-107 13 -206 71 -171 250l14 71c18 92 -14 160 -108 178z" />
    <glyph glyph-name="asciitilde" unicode="~" horiz-adv-x="645" 
d="M197 332c105 0 175 -86 250 -86c48 0 81 19 84 80h65c-6 -88 -68 -141 -147 -141c-95 0 -165 86 -250 86c-48 0 -81 -19 -84 -80h-65c6 88 68 141 147 141z" />
    <glyph glyph-name="uni00A0" unicode="&#xa0;" horiz-adv-x="220" 
 />
    <glyph glyph-name="exclamdown" unicode="&#xa1;" horiz-adv-x="270" 
d="M130 521c56 0 99 -43 99 -99c0 -52 -43 -95 -99 -95c-52 0 -95 43 -95 95c0 56 43 99 95 99zM115 267h44c13 -263 68 -265 68 -493c0 -46 -180 -46 -180 0c0 226 55 230 68 493z" />
    <glyph glyph-name="cent" unicode="&#xa2;" horiz-adv-x="581" 
d="M283 -120v108c-154 8 -244 120 -244 270c0 145 112 246 244 261v101h46v-99c99 -3 188 -45 188 -122c0 -51 -38 -77 -102 -71l-33 3c2 83 -18 128 -53 144v-403c11 -3 23 -5 36 -5c69 0 134 39 150 148h32c-13 -144 -93 -218 -218 -227v-108h-46zM201 318
c0 -101 29 -183 82 -224v387c-46 -7 -82 -55 -82 -163z" />
    <glyph glyph-name="sterling" unicode="&#xa3;" horiz-adv-x="618" 
d="M29 0v4l160 142c45 40 64 77 64 114c0 17 -4 35 -11 54h-161v54h132c-8 12 -18 25 -28 37l-41 49c-26 32 -43 68 -43 103c0 47 29 95 106 149s144 73 218 73c71 0 126 -31 126 -86c0 -35 -39 -83 -114 -76c-19 68 -64 99 -113 99c-24 0 -46 -7 -64 -19
c-26 -17 -39 -32 -39 -50c0 -23 19 -51 54 -93l38 -45c35 -42 65 -86 65 -135v-6h162v-54h-168c-11 -40 -37 -83 -101 -136l-62 -52h362l-31 -126h-511z" />
    <glyph glyph-name="yen" unicode="&#xa5;" horiz-adv-x="826" 
d="M154 167v54h185v59h-185v54h185v8l-220 335c-22 33 -29 41 -64 45l-33 4v32h343v-32l-43 -4c-35 -3 -55 -13 -34 -45l177 -276l182 276c22 33 1 42 -34 45l-43 4v32h234v-32l-33 -4c-35 -4 -42 -12 -64 -45l-220 -336v-7h185v-54h-185v-59h185v-54h-185v-84
c0 -34 17 -47 52 -49l35 -2v-32h-322v32l35 2c35 2 52 15 52 49v84h-185z" />
    <glyph glyph-name="brokenbar" unicode="&#xa6;" horiz-adv-x="275" 
d="M92 405v421h91v-421h-91zM92 -238v421h91v-421h-91z" />
    <glyph glyph-name="section" unicode="&#xa7;" horiz-adv-x="632" 
d="M252 177l-66 66c-99 99 -138 167 -138 269c0 136 135 267 321 267c121 0 215 -55 215 -132c0 -59 -40 -97 -136 -86c-7 105 -47 172 -135 172c-62 0 -94 -37 -94 -88c0 -64 49 -132 146 -229l66 -66c99 -99 165 -174 165 -281c0 -144 -151 -265 -305 -265
c-141 0 -255 63 -255 151c0 55 49 95 141 84c15 -110 40 -195 136 -195c65 0 101 37 101 94c0 76 -65 142 -162 239zM433 -127c69 50 90 108 90 156c0 86 -51 161 -150 260l-70 70c-106 106 -143 178 -143 245c0 27 3 68 33 101c-66 -51 -81 -100 -81 -152
c0 -82 38 -155 137 -254l70 -70c106 -106 156 -180 156 -250c0 -29 -11 -77 -42 -106z" />
    <glyph glyph-name="dieresis" unicode="&#xa8;" 
d="M113 636c-39 0 -68 30 -68 69c0 40 29 69 68 69c38 0 68 -29 68 -69c0 -39 -30 -69 -68 -69zM-113 636c-39 0 -68 30 -68 69c0 40 29 69 68 69c38 0 68 -29 68 -69c0 -39 -30 -69 -68 -69z" />
    <glyph glyph-name="copyright" unicode="&#xa9;" horiz-adv-x="872" 
d="M436 -13c-221 0 -399 162 -399 396s178 396 399 396s399 -162 399 -396s-178 -396 -399 -396zM436 35c194 0 342 137 342 348s-148 348 -342 348s-342 -137 -342 -348s148 -348 342 -348zM450 162c-148 0 -252 92 -252 226c0 133 106 225 256 225c46 0 96 -8 130 -17
l26 -160h-7l-90 117c-15 19 -27 26 -36 29c-6 1 -18 2 -29 2c-60 0 -135 -40 -135 -175c0 -111 43 -217 146 -217c11 0 21 1 29 3c10 3 21 8 36 28l89 115h7l-30 -159c-34 -9 -92 -17 -140 -17z" />
    <glyph glyph-name="ordfeminine" unicode="&#xaa;" horiz-adv-x="472" 
d="M168 359c-74 0 -124 55 -124 114c0 75 83 95 130 118c83 40 93 58 93 110c0 36 -17 60 -46 60c-54 0 -71 -51 -49 -130c-16 -2 -32 -3 -45 -3c-63 0 -83 19 -83 45c0 29 42 56 92 79c48 21 84 41 137 41c78 0 117 -26 117 -135l-3 -231h53v-28l-162 -37l-10 67
c-21 -52 -58 -70 -100 -70zM223 412c17 0 43 22 43 82v133c-13 -14 -19 -19 -35 -32c-39 -30 -51 -66 -51 -105c0 -34 13 -78 43 -78z" />
    <glyph glyph-name="guillemotleft" unicode="&#xab;" horiz-adv-x="543" 
d="M169 250l116 -223l-13 -9l-238 233l238 233l13 -9zM379 250l116 -223l-13 -9l-238 233l238 233l13 -9z" />
    <glyph glyph-name="uni00AD" unicode="&#xad;" horiz-adv-x="406" 
d="M56 222v81h294v-81h-294z" />
    <glyph glyph-name="registered" unicode="&#xae;" horiz-adv-x="872" 
d="M436 -13c-221 0 -399 162 -399 396s178 396 399 396s399 -162 399 -396s-178 -396 -399 -396zM436 35c194 0 342 137 342 348s-148 348 -342 348s-342 -137 -342 -348s148 -348 342 -348zM222 180v23l17 2c21 2 33 7 33 31v318c0 24 -12 29 -33 31l-17 2v23h186
c118 0 189 -31 189 -102c0 -37 -22 -86 -99 -104l177 -224h-127l-158 209h-14v-153c0 -24 12 -29 33 -31l17 -2v-23h-204zM376 417h28c60 0 78 36 78 83c0 46 -18 82 -78 82h-28v-165z" />
    <glyph glyph-name="macron" unicode="&#xaf;" 
d="M-157 669v68h314v-68h-314z" />
    <glyph glyph-name="degree" unicode="&#xb0;" horiz-adv-x="408" 
d="M204 441c-95 0 -170 75 -170 169s75 169 170 169s170 -75 170 -169s-75 -169 -170 -169zM204 496c59 0 109 45 109 114s-50 114 -109 114s-109 -45 -109 -114s50 -114 109 -114z" />
    <glyph glyph-name="plusminus" unicode="&#xb1;" horiz-adv-x="645" 
d="M283 120v163h-209v75h209v158h79v-158h209v-75h-209v-163h-79zM74 0v75h497v-75h-497z" />
    <glyph glyph-name="twosuperior" unicode="&#xb2;" horiz-adv-x="331" 
d="M5 401v2c136 143 187 236 187 310c0 34 -15 65 -58 65c-37 0 -73 -25 -81 -89h-23c3 98 70 142 145 142c85 0 123 -50 123 -99c0 -66 -74 -131 -140 -193l-53 -50h88c56 0 75 2 87 33l3 8h23l-29 -129h-272z" />
    <glyph glyph-name="threesuperior" unicode="&#xb3;" horiz-adv-x="337" 
d="M110 393c-48 0 -96 21 -96 68c0 30 28 59 77 50c10 -53 26 -84 65 -84c27 0 64 18 64 72c0 66 -47 104 -93 104c-18 0 -29 -2 -40 -8l-8 25l16 6c61 24 101 66 101 104c0 31 -22 48 -53 48c-28 0 -68 -13 -76 -74h-23c8 83 55 127 144 127c51 0 103 -24 103 -69
c0 -34 -22 -60 -95 -75v-2c76 -21 115 -75 115 -125c0 -98 -102 -167 -201 -167z" />
    <glyph glyph-name="acute" unicode="&#xb4;" 
d="M-129 609l110 179h148v-11l-230 -168h-28z" />
    <glyph glyph-name="paragraph" unicode="&#xb6;" horiz-adv-x="587" 
d="M279 -213v500c-6 -1 -13 -1 -19 -1c-144 0 -233 90 -233 222c0 141 117 251 331 250h188v-36l-35 -4c-35 -4 -54 -10 -54 -49v-746l-101 -77v457c-10 -3 -20 -6 -30 -8v-471z" />
    <glyph glyph-name="periodcentered" unicode="&#xb7;" horiz-adv-x="296" 
d="M146 165c-52 0 -95 43 -95 99c0 52 43 95 95 95c56 0 99 -43 99 -95c0 -56 -43 -99 -99 -99z" />
    <glyph glyph-name="cedilla" unicode="&#xb8;" 
d="M-33 -265c-41 0 -88 16 -88 52c0 22 19 41 54 35c0 -34 26 -55 57 -55c24 0 41 13 41 30c0 25 -51 52 -116 81l119 127h44l-75 -80c56 -29 81 -52 81 -97c0 -46 -42 -93 -117 -93z" />
    <glyph glyph-name="onesuperior" unicode="&#xb9;" horiz-adv-x="245" 
d="M78 458v292l-61 -23v32l161 67v-368c0 -21 6 -28 27 -30l22 -2v-25h-197v26l23 2c21 2 25 8 25 29z" />
    <glyph glyph-name="ordmasculine" unicode="&#xba;" horiz-adv-x="496" 
d="M246 359c-128 0 -215 98 -215 212c0 129 100 220 219 220c128 0 215 -97 215 -211c0 -129 -100 -221 -219 -221zM248 394c47 0 73 43 73 182s-26 182 -73 182c-49 0 -75 -43 -75 -182s26 -182 75 -182z" />
    <glyph glyph-name="guillemotright" unicode="&#xbb;" horiz-adv-x="543" 
d="M172 250l-116 225l13 9l238 -233l-238 -233l-13 9zM382 250l-116 225l13 9l238 -233l-238 -233l-13 9z" />
    <glyph glyph-name="onequarter" unicode="&#xbc;" horiz-adv-x="805" 
d="M79 398v292l-61 -23v32l161 67v-368c0 -21 6 -28 27 -30l22 -2v-25h-197v26l23 2c21 2 25 8 25 29zM22 0l566 758h92l-566 -758h-92zM621 0v100h-194l204 316h90v-244h69v-72h-69v-100h-100zM511 172h110v173z" />
    <glyph glyph-name="onehalf" unicode="&#xbd;" horiz-adv-x="784" 
d="M79 398v292l-61 -23v32l161 67v-368c0 -21 6 -28 27 -30l22 -2v-25h-197v26l23 2c21 2 25 8 25 29zM22 0l566 758h92l-566 -758h-92zM458 0v2c136 143 187 236 187 310c0 34 -15 65 -58 65c-37 0 -73 -25 -81 -89h-23c3 98 70 142 145 142c85 0 123 -50 123 -99
c0 -66 -74 -131 -140 -193l-53 -50h88c56 0 75 2 87 33l3 8h23l-29 -129h-272z" />
    <glyph glyph-name="threequarters" unicode="&#xbe;" horiz-adv-x="897" 
d="M111 333c-48 0 -96 21 -96 68c0 30 28 59 77 50c10 -53 26 -84 65 -84c27 0 64 18 64 72c0 66 -47 104 -93 104c-18 0 -29 -2 -40 -8l-8 25l16 6c61 24 101 66 101 104c0 31 -22 48 -53 48c-28 0 -68 -13 -76 -74h-23c8 83 55 127 144 127c51 0 103 -24 103 -69
c0 -34 -22 -60 -95 -75v-2c76 -21 115 -75 115 -125c0 -98 -102 -167 -201 -167zM114 0l566 758h92l-566 -758h-92zM713 0v100h-194l204 316h90v-244h69v-72h-69v-100h-100zM603 172h110v173z" />
    <glyph glyph-name="questiondown" unicode="&#xbf;" horiz-adv-x="561" 
d="M387 521c52 0 95 -43 95 -99c0 -52 -43 -95 -95 -95c-56 0 -99 43 -99 95c0 56 43 99 99 99zM293 -215c68 0 118 29 118 127c60 2 134 -21 134 -81c0 -58 -90 -92 -199 -92c-188 0 -311 102 -311 263c0 87 53 148 185 165l109 14c29 4 34 6 35 33l2 61h32l26 -157
c13 -81 -18 -88 -91 -97l-123 -15c-88 -11 -101 -38 -101 -77c0 -80 98 -144 184 -144z" />
    <glyph glyph-name="Agrave" unicode="&#xc0;" horiz-adv-x="758" 
d="M412 843h-31l-251 126v3h183zM685 85c14 -35 29 -41 64 -45l33 -4v-36h-344v36l43 4c35 3 48 10 34 45l-64 162h-257l-65 -162c-14 -35 -1 -42 34 -45l43 -4v-36h-231v36l33 4c35 4 50 10 64 45l297 723h20zM323 568l-105 -262h209z" />
    <glyph glyph-name="Aacute" unicode="&#xc1;" horiz-adv-x="758" 
d="M361 843l99 129h183v-3l-251 -126h-31zM685 85c14 -35 29 -41 64 -45l33 -4v-36h-344v36l43 4c35 3 48 10 34 45l-64 162h-257l-65 -162c-14 -35 -1 -42 34 -45l43 -4v-36h-231v36l33 4c35 4 50 10 64 45l297 723h20zM323 568l-105 -262h209z" />
    <glyph glyph-name="Acircumflex" unicode="&#xc2;" horiz-adv-x="758" 
d="M206 833l165 159h16l165 -159h-33l-140 64l-140 -64h-33zM685 85c14 -35 29 -41 64 -45l33 -4v-36h-344v36l43 4c35 3 48 10 34 45l-64 162h-257l-65 -162c-14 -35 -1 -42 34 -45l43 -4v-36h-231v36l33 4c35 4 50 10 64 45l297 723h20zM323 568l-105 -262h209z" />
    <glyph glyph-name="Atilde" unicode="&#xc3;" horiz-adv-x="758" 
d="M452 829c-67 0 -104 58 -157 58c-32 0 -53 -19 -56 -54h-21c0 72 27 147 96 147c56 0 106 -58 151 -58c31 0 52 16 54 50h21c-1 -108 -44 -143 -88 -143zM685 85c14 -35 29 -41 64 -45l33 -4v-36h-344v36l43 4c35 3 48 10 34 45l-64 162h-257l-65 -162
c-14 -35 -1 -42 34 -45l43 -4v-36h-231v36l33 4c35 4 50 10 64 45l297 723h20zM323 568l-105 -262h209z" />
    <glyph glyph-name="Adieresis" unicode="&#xc4;" horiz-adv-x="758" 
d="M266 837c-40 0 -70 31 -70 71c0 41 30 71 70 71c39 0 70 -30 70 -71c0 -40 -31 -71 -70 -71zM492 837c-40 0 -70 31 -70 71c0 41 30 71 70 71c39 0 70 -30 70 -71c0 -40 -31 -71 -70 -71zM685 85c14 -35 29 -41 64 -45l33 -4v-36h-344v36l43 4c35 3 48 10 34 45l-64 162
h-257l-65 -162c-14 -35 -1 -42 34 -45l43 -4v-36h-231v36l33 4c35 4 50 10 64 45l297 723h20zM323 568l-105 -262h209z" />
    <glyph glyph-name="Aring" unicode="&#xc5;" horiz-adv-x="758" 
d="M379 837c-68 0 -124 53 -124 120c0 66 56 121 124 121c71 0 127 -55 127 -121c0 -67 -56 -120 -127 -120zM379 890c42 0 66 26 66 67s-24 66 -66 66c-40 0 -65 -25 -65 -66s25 -67 65 -67zM685 85c14 -35 29 -41 64 -45l33 -4v-36h-344v36l43 4c35 3 48 10 34 45l-64 162
h-257l-65 -162c-14 -35 -1 -42 34 -45l43 -4v-36h-231v36l33 4c35 4 50 10 64 45l297 723h20zM323 568l-105 -262h209z" />
    <glyph glyph-name="AE" unicode="&#xc6;" horiz-adv-x="1180" 
d="M453 0v36l35 4c35 4 54 10 54 49v158h-286l-110 -162c-21 -31 -23 -42 12 -45l43 -4v-36h-233v36l33 4c35 4 66 15 86 45l455 673h507l37 -271h-12l-153 207c-12 16 -16 18 -37 18h-182v-293h116c9 0 13 3 17 11l58 131h12v-336h-12l-58 131c-4 8 -8 11 -17 11h-116v-321
h227c18 0 20 2 31 14l194 211h12l-75 -271h-638zM295 306h247v365z" />
    <glyph glyph-name="Ccedilla" unicode="&#xc7;" horiz-adv-x="810" 
d="M388 -270c-41 0 -88 16 -88 52c0 22 19 41 54 35c0 -34 26 -55 57 -55c24 0 41 13 41 30c0 25 -51 52 -116 81l108 115c-246 13 -408 168 -408 395c0 237 179 396 447 396c82 0 172 -14 231 -35l46 -262h-22l-132 192c-23 33 -43 44 -59 50c-14 5 -43 9 -72 9
c-129 0 -262 -78 -262 -317c0 -203 84 -383 278 -383c29 0 58 4 72 9c16 6 36 17 59 50l132 192h22l-53 -262c-57 -20 -153 -34 -236 -35l-63 -67c56 -29 81 -52 81 -97c0 -46 -42 -93 -117 -93z" />
    <glyph glyph-name="Egrave" unicode="&#xc8;" horiz-adv-x="769" 
d="M427 843h-31l-251 126v3h183zM42 0v36l45 4c35 3 44 10 44 49v580c0 39 -9 46 -44 49l-45 4v36h596l37 -271h-22l-143 207c-11 16 -16 18 -37 18h-182v-293h116c9 0 14 3 17 11l48 131h22v-336h-22l-48 131c-3 8 -8 11 -17 11h-116v-321h227c18 0 20 2 31 14l184 211h22
l-75 -271h-638z" />
    <glyph glyph-name="Eacute" unicode="&#xc9;" horiz-adv-x="769" 
d="M376 843l99 129h183v-3l-251 -126h-31zM42 0v36l45 4c35 3 44 10 44 49v580c0 39 -9 46 -44 49l-45 4v36h596l37 -271h-22l-143 207c-11 16 -16 18 -37 18h-182v-293h116c9 0 14 3 17 11l48 131h22v-336h-22l-48 131c-3 8 -8 11 -17 11h-116v-321h227c18 0 20 2 31 14
l184 211h22l-75 -271h-638z" />
    <glyph glyph-name="Ecircumflex" unicode="&#xca;" horiz-adv-x="769" 
d="M221 833l165 159h16l165 -159h-33l-140 64l-140 -64h-33zM42 0v36l45 4c35 3 44 10 44 49v580c0 39 -9 46 -44 49l-45 4v36h596l37 -271h-22l-143 207c-11 16 -16 18 -37 18h-182v-293h116c9 0 14 3 17 11l48 131h22v-336h-22l-48 131c-3 8 -8 11 -17 11h-116v-321h227
c18 0 20 2 31 14l184 211h22l-75 -271h-638z" />
    <glyph glyph-name="Edieresis" unicode="&#xcb;" horiz-adv-x="769" 
d="M281 837c-40 0 -70 31 -70 71c0 41 30 71 70 71c39 0 70 -30 70 -71c0 -40 -31 -71 -70 -71zM507 837c-40 0 -70 31 -70 71c0 41 30 71 70 71c39 0 70 -30 70 -71c0 -40 -31 -71 -70 -71zM42 0v36l45 4c35 3 44 10 44 49v580c0 39 -9 46 -44 49l-45 4v36h596l37 -271h-22
l-143 207c-11 16 -16 18 -37 18h-182v-293h116c9 0 14 3 17 11l48 131h22v-336h-22l-48 131c-3 8 -8 11 -17 11h-116v-321h227c18 0 20 2 31 14l184 211h22l-75 -271h-638z" />
    <glyph glyph-name="Igrave" unicode="&#xcc;" horiz-adv-x="422" 
d="M244 843h-31l-251 126v3h183zM42 0v36l45 4c35 3 44 10 44 49v580c0 39 -9 46 -44 49l-45 4v36h338v-36l-45 -4c-35 -3 -44 -10 -44 -49v-580c0 -39 9 -46 44 -49l45 -4v-36h-338z" />
    <glyph glyph-name="Iacute" unicode="&#xcd;" horiz-adv-x="422" 
d="M193 843l99 129h183v-3l-251 -126h-31zM42 0v36l45 4c35 3 44 10 44 49v580c0 39 -9 46 -44 49l-45 4v36h338v-36l-45 -4c-35 -3 -44 -10 -44 -49v-580c0 -39 9 -46 44 -49l45 -4v-36h-338z" />
    <glyph glyph-name="Icircumflex" unicode="&#xce;" horiz-adv-x="422" 
d="M38 833l165 159h16l165 -159h-33l-140 64l-140 -64h-33zM42 0v36l45 4c35 3 44 10 44 49v580c0 39 -9 46 -44 49l-45 4v36h338v-36l-45 -4c-35 -3 -44 -10 -44 -49v-580c0 -39 9 -46 44 -49l45 -4v-36h-338z" />
    <glyph glyph-name="Idieresis" unicode="&#xcf;" horiz-adv-x="422" 
d="M98 837c-40 0 -70 31 -70 71c0 41 30 71 70 71c39 0 70 -30 70 -71c0 -40 -31 -71 -70 -71zM324 837c-40 0 -70 31 -70 71c0 41 30 71 70 71c39 0 70 -30 70 -71c0 -40 -31 -71 -70 -71zM42 0v36l45 4c35 3 44 10 44 49v580c0 39 -9 46 -44 49l-45 4v36h338v-36l-45 -4
c-35 -3 -44 -10 -44 -49v-580c0 -39 9 -46 44 -49l45 -4v-36h-338z" />
    <glyph glyph-name="Eth" unicode="&#xd0;" horiz-adv-x="860" 
d="M56 0v36l45 4c35 3 44 10 44 49v279h-89v59h89v242c0 39 -9 46 -44 49l-45 4v36h301c268 0 463 -133 463 -373s-195 -385 -455 -385h-309zM305 44h52c168 0 284 83 284 307c0 253 -95 363 -290 363h-46v-287h150v-59h-150v-324z" />
    <glyph glyph-name="Ntilde" unicode="&#xd1;" horiz-adv-x="877" 
d="M535 829c-67 0 -104 58 -157 58c-32 0 -53 -19 -56 -54h-21c0 72 27 147 96 147c56 0 106 -58 151 -58c31 0 52 16 54 50h21c-1 -108 -44 -143 -88 -143zM46 0v36l45 4c35 3 44 10 44 49v558l-101 109v2h210l456 -475v386c0 39 -9 46 -44 49l-45 4v36h234v-36l-45 -4
c-35 -3 -44 -10 -44 -49v-686h-4l-561 604v-498c0 -39 9 -46 44 -49l45 -4v-36h-234z" />
    <glyph glyph-name="Ograve" unicode="&#xd2;" horiz-adv-x="892" 
d="M479 843h-31l-251 126v3h183zM446 -13c-214 0 -410 146 -410 396s196 396 410 396s410 -146 410 -396s-196 -396 -410 -396zM446 35c143 0 232 122 232 348s-89 348 -232 348s-232 -122 -232 -348s89 -348 232 -348z" />
    <glyph glyph-name="Oacute" unicode="&#xd3;" horiz-adv-x="892" 
d="M428 843l99 129h183v-3l-251 -126h-31zM446 -13c-214 0 -410 146 -410 396s196 396 410 396s410 -146 410 -396s-196 -396 -410 -396zM446 35c143 0 232 122 232 348s-89 348 -232 348s-232 -122 -232 -348s89 -348 232 -348z" />
    <glyph glyph-name="Ocircumflex" unicode="&#xd4;" horiz-adv-x="892" 
d="M273 833l165 159h16l165 -159h-33l-140 64l-140 -64h-33zM446 -13c-214 0 -410 146 -410 396s196 396 410 396s410 -146 410 -396s-196 -396 -410 -396zM446 35c143 0 232 122 232 348s-89 348 -232 348s-232 -122 -232 -348s89 -348 232 -348z" />
    <glyph glyph-name="Otilde" unicode="&#xd5;" horiz-adv-x="892" 
d="M519 829c-67 0 -104 58 -157 58c-32 0 -53 -19 -56 -54h-21c0 72 27 147 96 147c56 0 106 -58 151 -58c31 0 52 16 54 50h21c-1 -108 -44 -143 -88 -143zM446 -13c-214 0 -410 146 -410 396s196 396 410 396s410 -146 410 -396s-196 -396 -410 -396zM446 35
c143 0 232 122 232 348s-89 348 -232 348s-232 -122 -232 -348s89 -348 232 -348z" />
    <glyph glyph-name="Odieresis" unicode="&#xd6;" horiz-adv-x="892" 
d="M333 837c-40 0 -70 31 -70 71c0 41 30 71 70 71c39 0 70 -30 70 -71c0 -40 -31 -71 -70 -71zM559 837c-40 0 -70 31 -70 71c0 41 30 71 70 71c39 0 70 -30 70 -71c0 -40 -31 -71 -70 -71zM446 -13c-214 0 -410 146 -410 396s196 396 410 396s410 -146 410 -396
s-196 -396 -410 -396zM446 35c143 0 232 122 232 348s-89 348 -232 348s-232 -122 -232 -348s89 -348 232 -348z" />
    <glyph glyph-name="multiply" unicode="&#xd7;" horiz-adv-x="645" 
d="M138 24l-53 53l185 186l-185 185l53 53l185 -185l185 185l53 -53l-185 -185l185 -186l-53 -53l-185 185z" />
    <glyph glyph-name="Oslash" unicode="&#xd8;" horiz-adv-x="892" 
d="M81 -73l-45 40l117 132c-71 67 -117 163 -117 284c0 250 196 396 410 396c89 0 176 -25 246 -73l119 134l45 -40l-117 -132c71 -68 117 -164 117 -285c0 -250 -196 -396 -410 -396c-90 0 -176 26 -246 74zM214 383c0 -73 9 -135 27 -186l383 432
c-40 67 -102 102 -178 102c-143 0 -232 -122 -232 -348zM446 35c143 0 232 122 232 348c0 73 -9 136 -27 186l-383 -431c40 -68 101 -103 178 -103z" />
    <glyph glyph-name="Ugrave" unicode="&#xd9;" horiz-adv-x="855" 
d="M494 843h-31l-251 126v3h183zM433 -13c-202 0 -323 93 -323 308v374c0 39 -9 46 -44 49l-45 4v36h338v-36l-45 -4c-35 -3 -44 -10 -44 -49v-377c0 -176 74 -232 205 -232c137 0 215 73 215 246v363c0 39 -9 46 -44 49l-45 4v36h234v-36l-45 -4c-35 -3 -44 -10 -44 -49
v-373c0 -201 -112 -309 -313 -309z" />
    <glyph glyph-name="Uacute" unicode="&#xda;" horiz-adv-x="855" 
d="M443 843l99 129h183v-3l-251 -126h-31zM433 -13c-202 0 -323 93 -323 308v374c0 39 -9 46 -44 49l-45 4v36h338v-36l-45 -4c-35 -3 -44 -10 -44 -49v-377c0 -176 74 -232 205 -232c137 0 215 73 215 246v363c0 39 -9 46 -44 49l-45 4v36h234v-36l-45 -4
c-35 -3 -44 -10 -44 -49v-373c0 -201 -112 -309 -313 -309z" />
    <glyph glyph-name="Ucircumflex" unicode="&#xdb;" horiz-adv-x="855" 
d="M288 833l165 159h16l165 -159h-33l-140 64l-140 -64h-33zM433 -13c-202 0 -323 93 -323 308v374c0 39 -9 46 -44 49l-45 4v36h338v-36l-45 -4c-35 -3 -44 -10 -44 -49v-377c0 -176 74 -232 205 -232c137 0 215 73 215 246v363c0 39 -9 46 -44 49l-45 4v36h234v-36l-45 -4
c-35 -3 -44 -10 -44 -49v-373c0 -201 -112 -309 -313 -309z" />
    <glyph glyph-name="Udieresis" unicode="&#xdc;" horiz-adv-x="855" 
d="M348 837c-40 0 -70 31 -70 71c0 41 30 71 70 71c39 0 70 -30 70 -71c0 -40 -31 -71 -70 -71zM574 837c-40 0 -70 31 -70 71c0 41 30 71 70 71c39 0 70 -30 70 -71c0 -40 -31 -71 -70 -71zM433 -13c-202 0 -323 93 -323 308v374c0 39 -9 46 -44 49l-45 4v36h338v-36
l-45 -4c-35 -3 -44 -10 -44 -49v-377c0 -176 74 -232 205 -232c137 0 215 73 215 246v363c0 39 -9 46 -44 49l-45 4v36h234v-36l-45 -4c-35 -3 -44 -10 -44 -49v-373c0 -201 -112 -309 -313 -309z" />
    <glyph glyph-name="Yacute" unicode="&#xdd;" horiz-adv-x="760" 
d="M409 843l99 129h183v-3l-251 -126h-31zM186 0v38l70 4c35 2 44 8 44 47v253l-220 331c-22 33 -29 41 -64 45l-33 4v36h350v-36l-43 -4c-35 -3 -55 -13 -34 -45l180 -276l184 276c22 33 1 42 -34 45l-43 4v36h234v-36l-33 -4c-35 -4 -42 -12 -64 -45l-220 -332v-252
c0 -39 9 -45 44 -47l70 -4v-38h-388z" />
    <glyph glyph-name="Thorn" unicode="&#xde;" horiz-adv-x="735" 
d="M42 0v36l35 4c35 4 54 10 54 49v580c0 39 -19 45 -54 49l-35 4v36h338v-36l-35 -4c-35 -4 -54 -10 -54 -49v-85h81c190 0 336 -43 336 -204s-146 -214 -336 -214h-81v-77c0 -39 19 -45 54 -47l70 -4v-38h-373zM291 540v-329h74c119 0 166 53 166 163s-47 166 -166 166
h-74z" />
    <glyph glyph-name="germandbls" unicode="&#xdf;" horiz-adv-x="693" 
d="M442 -13c-93 0 -158 39 -158 94c0 46 40 80 100 73c16 -74 36 -127 97 -127c41 0 79 23 79 73c0 48 -43 81 -128 149l-24 19c-84 66 -109 104 -109 148c0 42 26 74 78 110l26 19c40 28 62 62 62 104c0 65 -44 99 -98 99c-52 0 -126 -27 -126 -158v-590h-215v32l27 2
c35 3 40 4 40 40v351h-67v32c30 5 67 14 67 45v12c0 149 145 275 295 275c101 0 188 -35 188 -115c0 -43 -28 -76 -70 -104l-62 -41c-28 -19 -37 -26 -37 -38c0 -21 36 -52 106 -108l35 -28c82 -66 119 -114 119 -186c0 -111 -102 -182 -225 -182z" />
    <glyph glyph-name="agrave" unicode="&#xe0;" horiz-adv-x="551" 
d="M301 609h-28l-230 168v11h148zM194 -13c-95 0 -163 65 -163 139c0 95 111 126 190 155c104 38 115 72 115 123c0 46 -30 83 -81 83c-75 0 -106 -58 -84 -146c-27 -6 -49 -8 -67 -8c-54 0 -76 30 -76 55c0 42 62 76 127 101c45 17 94 34 164 34c87 0 158 -37 155 -142
l-8 -315h78v-32l-194 -45l-20 89c-27 -68 -78 -91 -136 -91zM262 48c30 0 64 30 65 109l1 153c-19 -16 -31 -23 -54 -37c-55 -34 -78 -75 -78 -126c0 -46 24 -99 66 -99z" />
    <glyph glyph-name="aacute" unicode="&#xe1;" horiz-adv-x="551" 
d="M237 609l110 179h148v-11l-230 -168h-28zM194 -13c-95 0 -163 65 -163 139c0 95 111 126 190 155c104 38 115 72 115 123c0 46 -30 83 -81 83c-75 0 -106 -58 -84 -146c-27 -6 -49 -8 -67 -8c-54 0 -76 30 -76 55c0 42 62 76 127 101c45 17 94 34 164 34
c87 0 158 -37 155 -142l-8 -315h78v-32l-194 -45l-20 89c-27 -68 -78 -91 -136 -91zM262 48c30 0 64 30 65 109l1 153c-19 -16 -31 -23 -54 -37c-55 -34 -78 -75 -78 -126c0 -46 24 -99 66 -99z" />
    <glyph glyph-name="acircumflex" unicode="&#xe2;" horiz-adv-x="551" 
d="M99 609l164 201h12l164 -201h-29l-141 86l-141 -86h-29zM194 -13c-95 0 -163 65 -163 139c0 95 111 126 190 155c104 38 115 72 115 123c0 46 -30 83 -81 83c-75 0 -106 -58 -84 -146c-27 -6 -49 -8 -67 -8c-54 0 -76 30 -76 55c0 42 62 76 127 101c45 17 94 34 164 34
c87 0 158 -37 155 -142l-8 -315h78v-32l-194 -45l-20 89c-27 -68 -78 -91 -136 -91zM262 48c30 0 64 30 65 109l1 153c-19 -16 -31 -23 -54 -37c-55 -34 -78 -75 -78 -126c0 -46 24 -99 66 -99z" />
    <glyph glyph-name="atilde" unicode="&#xe3;" horiz-adv-x="551" 
d="M342 645c-67 0 -104 58 -157 58c-32 0 -53 -19 -56 -54h-21c0 72 27 147 96 147c56 0 106 -58 151 -58c31 0 52 16 54 50h21c-1 -108 -44 -143 -88 -143zM194 -13c-95 0 -163 65 -163 139c0 95 111 126 190 155c104 38 115 72 115 123c0 46 -30 83 -81 83
c-75 0 -106 -58 -84 -146c-27 -6 -49 -8 -67 -8c-54 0 -76 30 -76 55c0 42 62 76 127 101c45 17 94 34 164 34c87 0 158 -37 155 -142l-8 -315h78v-32l-194 -45l-20 89c-27 -68 -78 -91 -136 -91zM262 48c30 0 64 30 65 109l1 153c-19 -16 -31 -23 -54 -37
c-55 -34 -78 -75 -78 -126c0 -46 24 -99 66 -99z" />
    <glyph glyph-name="adieresis" unicode="&#xe4;" horiz-adv-x="551" 
d="M382 636c-39 0 -68 30 -68 69c0 40 29 69 68 69c38 0 68 -29 68 -69c0 -39 -30 -69 -68 -69zM156 636c-39 0 -68 30 -68 69c0 40 29 69 68 69c38 0 68 -29 68 -69c0 -39 -30 -69 -68 -69zM194 -13c-95 0 -163 65 -163 139c0 95 111 126 190 155c104 38 115 72 115 123
c0 46 -30 83 -81 83c-75 0 -106 -58 -84 -146c-27 -6 -49 -8 -67 -8c-54 0 -76 30 -76 55c0 42 62 76 127 101c45 17 94 34 164 34c87 0 158 -37 155 -142l-8 -315h78v-32l-194 -45l-20 89c-27 -68 -78 -91 -136 -91zM262 48c30 0 64 30 65 109l1 153
c-19 -16 -31 -23 -54 -37c-55 -34 -78 -75 -78 -126c0 -46 24 -99 66 -99z" />
    <glyph glyph-name="aring" unicode="&#xe5;" horiz-adv-x="551" 
d="M269 585c-68 0 -124 53 -124 120c0 66 56 121 124 121c71 0 127 -55 127 -121c0 -67 -56 -120 -127 -120zM269 638c42 0 66 26 66 67s-24 66 -66 66c-40 0 -65 -25 -65 -66s25 -67 65 -67zM194 -13c-95 0 -163 65 -163 139c0 95 111 126 190 155c104 38 115 72 115 123
c0 46 -30 83 -81 83c-75 0 -106 -58 -84 -146c-27 -6 -49 -8 -67 -8c-54 0 -76 30 -76 55c0 42 62 76 127 101c45 17 94 34 164 34c87 0 158 -37 155 -142l-8 -315h78v-32l-194 -45l-20 89c-27 -68 -78 -91 -136 -91zM262 48c30 0 64 30 65 109l1 153
c-19 -16 -31 -23 -54 -37c-55 -34 -78 -75 -78 -126c0 -46 24 -99 66 -99z" />
    <glyph glyph-name="ae" unicode="&#xe6;" horiz-adv-x="867" 
d="M192 -13c-98 0 -159 64 -159 138c0 94 103 125 182 156c96 38 116 71 116 122c0 46 -27 79 -74 79c-69 0 -101 -53 -76 -143c-27 -6 -49 -8 -67 -8c-61 0 -81 29 -81 57c0 33 50 70 128 98c45 16 103 35 175 35c52 0 90 -10 111 -39c41 25 87 39 134 39
c126 0 217 -70 244 -207h-355c2 -130 67 -227 181 -227c66 0 143 35 163 119h29c-23 -146 -117 -219 -259 -219c-101 0 -177 43 -221 110c-30 -83 -95 -110 -171 -110zM575 485c-57 0 -95 -46 -103 -129h189c-3 93 -36 129 -86 129zM198 147c0 -44 17 -99 61 -99
c37 0 72 23 81 93c-13 33 -20 70 -20 109v10l1 50c-19 -16 -29 -22 -52 -37c-54 -35 -71 -75 -71 -126z" />
    <glyph glyph-name="ccedilla" unicode="&#xe7;" horiz-adv-x="556" 
d="M287 -13c-160 0 -256 115 -256 259c0 170 133 275 279 275c103 0 199 -42 199 -122c0 -42 -24 -72 -92 -72c-15 0 -32 1 -51 4c9 109 -24 156 -79 156c-51 0 -108 -49 -108 -175c0 -125 65 -229 177 -229c64 0 136 38 156 123h29c-21 -127 -88 -194 -190 -213l-63 -68
c56 -29 81 -52 81 -97c0 -46 -42 -93 -117 -93c-41 0 -88 16 -88 52c0 22 19 41 54 35c0 -34 26 -55 57 -55c24 0 41 13 41 30c0 25 -51 52 -116 81l102 109h-15z" />
    <glyph glyph-name="egrave" unicode="&#xe8;" horiz-adv-x="578" 
d="M319 609h-28l-230 168v11h148zM295 -13c-165 0 -264 115 -264 263c0 166 131 271 261 271c126 0 217 -68 244 -205h-355c1 -131 71 -233 185 -233c66 0 139 38 159 123h29c-23 -146 -117 -219 -259 -219zM286 487c-56 0 -94 -47 -103 -129h189c-3 93 -36 129 -86 129z
" />
    <glyph glyph-name="eacute" unicode="&#xe9;" horiz-adv-x="578" 
d="M255 609l110 179h148v-11l-230 -168h-28zM295 -13c-165 0 -264 115 -264 263c0 166 131 271 261 271c126 0 217 -68 244 -205h-355c1 -131 71 -233 185 -233c66 0 139 38 159 123h29c-23 -146 -117 -219 -259 -219zM286 487c-56 0 -94 -47 -103 -129h189
c-3 93 -36 129 -86 129z" />
    <glyph glyph-name="ecircumflex" unicode="&#xea;" horiz-adv-x="578" 
d="M117 609l164 201h12l164 -201h-29l-141 86l-141 -86h-29zM295 -13c-165 0 -264 115 -264 263c0 166 131 271 261 271c126 0 217 -68 244 -205h-355c1 -131 71 -233 185 -233c66 0 139 38 159 123h29c-23 -146 -117 -219 -259 -219zM286 487c-56 0 -94 -47 -103 -129h189
c-3 93 -36 129 -86 129z" />
    <glyph glyph-name="edieresis" unicode="&#xeb;" horiz-adv-x="578" 
d="M400 636c-39 0 -68 30 -68 69c0 40 29 69 68 69c38 0 68 -29 68 -69c0 -39 -30 -69 -68 -69zM174 636c-39 0 -68 30 -68 69c0 40 29 69 68 69c38 0 68 -29 68 -69c0 -39 -30 -69 -68 -69zM295 -13c-165 0 -264 115 -264 263c0 166 131 271 261 271
c126 0 217 -68 244 -205h-355c1 -131 71 -233 185 -233c66 0 139 38 159 123h29c-23 -146 -117 -219 -259 -219zM286 487c-56 0 -94 -47 -103 -129h189c-3 93 -36 129 -86 129z" />
    <glyph glyph-name="igrave" unicode="&#xec;" horiz-adv-x="337" 
d="M200 609h-28l-230 168v11h148zM34 0v32l27 2c35 3 40 4 40 40v283l-76 72v6l224 94v-455c0 -36 5 -37 40 -40l27 -2v-32h-282z" />
    <glyph glyph-name="iacute" unicode="&#xed;" horiz-adv-x="337" 
d="M136 609l110 179h148v-11l-230 -168h-28zM34 0v32l27 2c35 3 40 4 40 40v283l-76 72v6l224 94v-455c0 -36 5 -37 40 -40l27 -2v-32h-282z" />
    <glyph glyph-name="icircumflex" unicode="&#xee;" horiz-adv-x="337" 
d="M-2 609l164 201h12l164 -201h-29l-141 86l-141 -86h-29zM34 0v32l27 2c35 3 40 4 40 40v283l-76 72v6l224 94v-455c0 -36 5 -37 40 -40l27 -2v-32h-282z" />
    <glyph glyph-name="idieresis" unicode="&#xef;" horiz-adv-x="337" 
d="M68 636c-39 0 -68 30 -68 69c0 40 29 69 68 69c38 0 68 -29 68 -69c0 -39 -30 -69 -68 -69zM268 636c-39 0 -68 30 -68 69c0 40 29 69 68 69c38 0 68 -29 68 -69c0 -39 -30 -69 -68 -69zM34 0v32l27 2c35 3 40 4 40 40v283l-76 72v6l224 94v-455c0 -36 5 -37 40 -40
l27 -2v-32h-282z" />
    <glyph glyph-name="eth" unicode="&#xf0;" horiz-adv-x="620" 
d="M293 -13c-150 0 -262 101 -262 268c0 160 114 266 246 266c46 0 84 -19 111 -41c-24 67 -62 127 -111 176l-125 -67l-21 42l109 59c-40 32 -85 59 -136 78l9 29c73 -16 138 -40 196 -71l131 71l20 -42l-104 -56c144 -92 227 -227 227 -383c0 -221 -147 -329 -290 -329z
M195 246c0 -143 37 -215 110 -215c82 0 115 96 115 262c0 55 -8 108 -22 157c-20 11 -43 16 -67 16c-68 0 -136 -61 -136 -220z" />
    <glyph glyph-name="ntilde" unicode="&#xf1;" horiz-adv-x="621" 
d="M389 645c-67 0 -104 58 -157 58c-32 0 -53 -19 -56 -54h-21c0 72 27 147 96 147c56 0 106 -58 151 -58c31 0 52 16 54 50h21c-1 -108 -44 -143 -88 -143zM30 0v32l27 2c35 3 40 4 40 40v283l-76 72v6l224 94v-128c22 73 72 120 152 120c81 0 142 -43 142 -187v-260
c0 -36 5 -37 40 -40l27 -2v-32h-271v32l19 2c35 4 37 4 37 40v232c0 104 -28 127 -68 127s-78 -24 -78 -128v-231c0 -36 2 -36 37 -40l19 -2v-32h-271z" />
    <glyph glyph-name="ograve" unicode="&#xf2;" horiz-adv-x="616" 
d="M341 609h-28l-230 168v11h148zM306 -13c-166 0 -276 119 -276 262c0 160 124 272 280 272c166 0 276 -119 276 -262c0 -160 -124 -272 -280 -272zM308 28c62 0 111 55 111 227s-49 227 -111 227c-64 0 -113 -55 -113 -227s49 -227 113 -227z" />
    <glyph glyph-name="oacute" unicode="&#xf3;" horiz-adv-x="616" 
d="M277 609l110 179h148v-11l-230 -168h-28zM306 -13c-166 0 -276 119 -276 262c0 160 124 272 280 272c166 0 276 -119 276 -262c0 -160 -124 -272 -280 -272zM308 28c62 0 111 55 111 227s-49 227 -111 227c-64 0 -113 -55 -113 -227s49 -227 113 -227z" />
    <glyph glyph-name="ocircumflex" unicode="&#xf4;" horiz-adv-x="616" 
d="M139 609l164 201h12l164 -201h-29l-141 86l-141 -86h-29zM306 -13c-166 0 -276 119 -276 262c0 160 124 272 280 272c166 0 276 -119 276 -262c0 -160 -124 -272 -280 -272zM308 28c62 0 111 55 111 227s-49 227 -111 227c-64 0 -113 -55 -113 -227s49 -227 113 -227z
" />
    <glyph glyph-name="otilde" unicode="&#xf5;" horiz-adv-x="616" 
d="M382 645c-67 0 -104 58 -157 58c-32 0 -53 -19 -56 -54h-21c0 72 27 147 96 147c56 0 106 -58 151 -58c31 0 52 16 54 50h21c-1 -108 -44 -143 -88 -143zM306 -13c-166 0 -276 119 -276 262c0 160 124 272 280 272c166 0 276 -119 276 -262c0 -160 -124 -272 -280 -272z
M308 28c62 0 111 55 111 227s-49 227 -111 227c-64 0 -113 -55 -113 -227s49 -227 113 -227z" />
    <glyph glyph-name="odieresis" unicode="&#xf6;" horiz-adv-x="616" 
d="M422 636c-39 0 -68 30 -68 69c0 40 29 69 68 69c38 0 68 -29 68 -69c0 -39 -30 -69 -68 -69zM196 636c-39 0 -68 30 -68 69c0 40 29 69 68 69c38 0 68 -29 68 -69c0 -39 -30 -69 -68 -69zM306 -13c-166 0 -276 119 -276 262c0 160 124 272 280 272
c166 0 276 -119 276 -262c0 -160 -124 -272 -280 -272zM308 28c62 0 111 55 111 227s-49 227 -111 227c-64 0 -113 -55 -113 -227s49 -227 113 -227z" />
    <glyph glyph-name="divide" unicode="&#xf7;" horiz-adv-x="645" 
d="M322 363c-49 0 -89 40 -89 90c0 49 40 89 89 89c50 0 90 -40 90 -89c0 -50 -40 -90 -90 -90zM59 225v75h527v-75h-527zM322 -17c-49 0 -89 40 -89 90c0 49 40 89 89 89c50 0 90 -40 90 -89c0 -50 -40 -90 -90 -90z" />
    <glyph glyph-name="oslash" unicode="&#xf8;" horiz-adv-x="636" 
d="M316 -13c-60 0 -113 16 -156 42l-71 -85l-38 33l69 83c-51 48 -80 115 -80 189c0 160 124 272 280 272c58 0 110 -15 152 -40l76 91l38 -33l-74 -88c54 -48 84 -117 84 -192c0 -160 -124 -272 -280 -272zM205 255c0 -33 2 -62 5 -87l199 238c-20 55 -53 76 -91 76
c-64 0 -113 -55 -113 -227zM318 28c62 0 111 55 111 227c0 34 -2 64 -6 89l-199 -238c20 -57 54 -78 94 -78z" />
    <glyph glyph-name="ugrave" unicode="&#xf9;" horiz-adv-x="610" 
d="M332 609h-28l-230 168v11h148zM224 -13c-81 0 -142 43 -142 187v271l-65 25v32h213v-300c0 -104 28 -127 68 -127s78 24 78 128v242l-65 25v32h213v-436h73v-32l-221 -45v118c-22 -73 -72 -120 -152 -120z" />
    <glyph glyph-name="uacute" unicode="&#xfa;" horiz-adv-x="610" 
d="M268 609l110 179h148v-11l-230 -168h-28zM224 -13c-81 0 -142 43 -142 187v271l-65 25v32h213v-300c0 -104 28 -127 68 -127s78 24 78 128v242l-65 25v32h213v-436h73v-32l-221 -45v118c-22 -73 -72 -120 -152 -120z" />
    <glyph glyph-name="ucircumflex" unicode="&#xfb;" horiz-adv-x="610" 
d="M130 609l164 201h12l164 -201h-29l-141 86l-141 -86h-29zM224 -13c-81 0 -142 43 -142 187v271l-65 25v32h213v-300c0 -104 28 -127 68 -127s78 24 78 128v242l-65 25v32h213v-436h73v-32l-221 -45v118c-22 -73 -72 -120 -152 -120z" />
    <glyph glyph-name="udieresis" unicode="&#xfc;" horiz-adv-x="610" 
d="M413 636c-39 0 -68 30 -68 69c0 40 29 69 68 69c38 0 68 -29 68 -69c0 -39 -30 -69 -68 -69zM187 636c-39 0 -68 30 -68 69c0 40 29 69 68 69c38 0 68 -29 68 -69c0 -39 -30 -69 -68 -69zM224 -13c-81 0 -142 43 -142 187v271l-65 25v32h213v-300c0 -104 28 -127 68 -127
s78 24 78 128v242l-65 25v32h213v-436h73v-32l-221 -45v118c-22 -73 -72 -120 -152 -120z" />
    <glyph glyph-name="yacute" unicode="&#xfd;" horiz-adv-x="555" 
d="M284 609l110 179h148v-11l-230 -168h-28zM210 -88l38 83l-179 418c-16 37 -24 51 -59 55l-16 2v32h286v-32l-21 -2c-35 -3 -45 -18 -32 -49l102 -247l99 219c24 54 8 72 -27 76l-28 3v32h198v-32l-20 -2c-36 -4 -49 -18 -68 -60l-248 -542c-39 -84 -70 -121 -126 -121
c-44 0 -71 34 -71 75c0 57 65 103 172 92z" />
    <glyph glyph-name="thorn" unicode="&#xfe;" horiz-adv-x="591" 
d="M350 521c111 0 208 -94 208 -268c0 -159 -103 -266 -230 -266c-43 0 -86 19 -113 48v-209c0 -36 11 -36 46 -38l51 -3v-33h-312v32l27 2c35 3 40 4 40 40v829l-76 64v6l224 77v-343c32 36 82 62 135 62zM273 452c-19 0 -39 -4 -58 -20v-369c16 -14 36 -19 55 -19
c70 0 123 77 123 208c0 119 -52 200 -120 200z" />
    <glyph glyph-name="ydieresis" unicode="&#xff;" horiz-adv-x="555" 
d="M429 636c-39 0 -68 30 -68 69c0 40 29 69 68 69c38 0 68 -29 68 -69c0 -39 -30 -69 -68 -69zM203 636c-39 0 -68 30 -68 69c0 40 29 69 68 69c38 0 68 -29 68 -69c0 -39 -30 -69 -68 -69zM210 -88l38 83l-179 418c-16 37 -24 51 -59 55l-16 2v32h286v-32l-21 -2
c-35 -3 -45 -18 -32 -49l102 -247l99 219c24 54 8 72 -27 76l-28 3v32h198v-32l-20 -2c-36 -4 -49 -18 -68 -60l-248 -542c-39 -84 -70 -121 -126 -121c-44 0 -71 34 -71 75c0 57 65 103 172 92z" />
    <glyph glyph-name="Amacron" unicode="&#x100;" horiz-adv-x="758" 
d="M222 872v68h314v-68h-314zM685 85c14 -35 29 -41 64 -45l33 -4v-36h-344v36l43 4c35 3 48 10 34 45l-64 162h-257l-65 -162c-14 -35 -1 -42 34 -45l43 -4v-36h-231v36l33 4c35 4 50 10 64 45l297 723h20zM323 568l-105 -262h209z" />
    <glyph glyph-name="amacron" unicode="&#x101;" horiz-adv-x="551" 
d="M112 669v68h314v-68h-314zM194 -13c-95 0 -163 65 -163 139c0 95 111 126 190 155c104 38 115 72 115 123c0 46 -30 83 -81 83c-75 0 -106 -58 -84 -146c-27 -6 -49 -8 -67 -8c-54 0 -76 30 -76 55c0 42 62 76 127 101c45 17 94 34 164 34c87 0 158 -37 155 -142l-8 -315
h78v-32l-194 -45l-20 89c-27 -68 -78 -91 -136 -91zM262 48c30 0 64 30 65 109l1 153c-19 -16 -31 -23 -54 -37c-55 -34 -78 -75 -78 -126c0 -46 24 -99 66 -99z" />
    <glyph glyph-name="Abreve" unicode="&#x102;" horiz-adv-x="758" 
d="M379 827c-47 0 -150 20 -163 160h58c9 -69 52 -106 105 -106s96 37 105 106h58c-13 -140 -116 -160 -163 -160zM685 85c14 -35 29 -41 64 -45l33 -4v-36h-344v36l43 4c35 3 48 10 34 45l-64 162h-257l-65 -162c-14 -35 -1 -42 34 -45l43 -4v-36h-231v36l33 4
c35 4 50 10 64 45l297 723h20zM323 568l-105 -262h209z" />
    <glyph glyph-name="abreve" unicode="&#x103;" horiz-adv-x="551" 
d="M269 628c-47 0 -150 20 -163 160h58c9 -69 52 -106 105 -106s96 37 105 106h58c-13 -140 -116 -160 -163 -160zM194 -13c-95 0 -163 65 -163 139c0 95 111 126 190 155c104 38 115 72 115 123c0 46 -30 83 -81 83c-75 0 -106 -58 -84 -146c-27 -6 -49 -8 -67 -8
c-54 0 -76 30 -76 55c0 42 62 76 127 101c45 17 94 34 164 34c87 0 158 -37 155 -142l-8 -315h78v-32l-194 -45l-20 89c-27 -68 -78 -91 -136 -91zM262 48c30 0 64 30 65 109l1 153c-19 -16 -31 -23 -54 -37c-55 -34 -78 -75 -78 -126c0 -46 24 -99 66 -99z" />
    <glyph glyph-name="Aogonek" unicode="&#x104;" horiz-adv-x="758" 
d="M619 -234c-56 0 -110 30 -110 85c0 54 70 112 130 149h-201v36l43 4c35 3 48 10 34 45l-64 162h-257l-65 -162c-14 -35 -1 -42 34 -45l43 -4v-36h-231v36l33 4c35 4 50 10 64 45l297 723h20l296 -723c14 -35 29 -41 64 -45l33 -4v-36h-113c-33 -33 -68 -79 -68 -125
c0 -40 31 -57 72 -57c15 0 31 2 48 6v-31c-22 -11 -64 -27 -102 -27zM323 568l-105 -262h209z" />
    <glyph glyph-name="aogonek" unicode="&#x105;" horiz-adv-x="551" 
d="M194 -13c-95 0 -163 65 -163 139c0 95 111 126 190 155c104 38 115 72 115 123c0 46 -30 83 -81 83c-75 0 -106 -58 -84 -146c-27 -6 -49 -8 -67 -8c-54 0 -76 30 -76 55c0 42 62 76 127 101c45 17 94 34 164 34c87 0 158 -37 155 -142l-8 -315h78v-32l-117 -27
c-31 -33 -59 -76 -59 -120c0 -40 31 -57 72 -57c15 0 31 2 48 6v-31c-22 -11 -64 -27 -102 -27c-56 0 -110 30 -110 85c0 47 56 98 110 134l-36 -8l-20 89c-27 -68 -78 -91 -136 -91zM262 48c30 0 64 30 65 109l1 153c-19 -16 -31 -23 -54 -37c-55 -34 -78 -75 -78 -126
c0 -46 24 -99 66 -99z" />
    <glyph glyph-name="Cacute" unicode="&#x106;" horiz-adv-x="810" 
d="M454 843l99 129h183v-3l-251 -126h-31zM477 -13c-264 0 -441 159 -441 396s179 396 447 396c82 0 172 -14 231 -35l46 -262h-22l-132 192c-23 33 -43 44 -59 50c-14 5 -43 9 -72 9c-129 0 -262 -78 -262 -317c0 -203 84 -383 278 -383c29 0 58 4 72 9c16 6 36 17 59 50
l132 192h22l-53 -262c-59 -21 -161 -35 -246 -35z" />
    <glyph glyph-name="cacute" unicode="&#x107;" horiz-adv-x="556" 
d="M255 609l110 179h148v-11l-230 -168h-28zM287 -13c-160 0 -256 115 -256 259c0 170 133 275 279 275c103 0 199 -42 199 -122c0 -42 -24 -72 -92 -72c-15 0 -32 1 -51 4c9 109 -24 156 -79 156c-51 0 -108 -49 -108 -175c0 -125 65 -229 177 -229c64 0 136 38 156 123h29
c-25 -152 -117 -219 -254 -219z" />
    <glyph glyph-name="Ccircumflex" unicode="&#x108;" horiz-adv-x="810" 
d="M299 833l165 159h16l165 -159h-33l-140 64l-140 -64h-33zM477 -13c-264 0 -441 159 -441 396s179 396 447 396c82 0 172 -14 231 -35l46 -262h-22l-132 192c-23 33 -43 44 -59 50c-14 5 -43 9 -72 9c-129 0 -262 -78 -262 -317c0 -203 84 -383 278 -383c29 0 58 4 72 9
c16 6 36 17 59 50l132 192h22l-53 -262c-59 -21 -161 -35 -246 -35z" />
    <glyph glyph-name="ccircumflex" unicode="&#x109;" horiz-adv-x="556" 
d="M117 609l164 201h12l164 -201h-29l-141 86l-141 -86h-29zM287 -13c-160 0 -256 115 -256 259c0 170 133 275 279 275c103 0 199 -42 199 -122c0 -42 -24 -72 -92 -72c-15 0 -32 1 -51 4c9 109 -24 156 -79 156c-51 0 -108 -49 -108 -175c0 -125 65 -229 177 -229
c64 0 136 38 156 123h29c-25 -152 -117 -219 -254 -219z" />
    <glyph glyph-name="Cdotaccent" unicode="&#x10a;" horiz-adv-x="810" 
d="M472 837c-40 0 -70 31 -70 71c0 41 30 71 70 71c39 0 70 -30 70 -71c0 -40 -31 -71 -70 -71zM477 -13c-264 0 -441 159 -441 396s179 396 447 396c82 0 172 -14 231 -35l46 -262h-22l-132 192c-23 33 -43 44 -59 50c-14 5 -43 9 -72 9c-129 0 -262 -78 -262 -317
c0 -203 84 -383 278 -383c29 0 58 4 72 9c16 6 36 17 59 50l132 192h22l-53 -262c-59 -21 -161 -35 -246 -35z" />
    <glyph glyph-name="cdotaccent" unicode="&#x10b;" horiz-adv-x="556" 
d="M287 636c-39 0 -68 30 -68 69c0 40 29 69 68 69c38 0 68 -29 68 -69c0 -39 -30 -69 -68 -69zM287 -13c-160 0 -256 115 -256 259c0 170 133 275 279 275c103 0 199 -42 199 -122c0 -42 -24 -72 -92 -72c-15 0 -32 1 -51 4c9 109 -24 156 -79 156
c-51 0 -108 -49 -108 -175c0 -125 65 -229 177 -229c64 0 136 38 156 123h29c-25 -152 -117 -219 -254 -219z" />
    <glyph glyph-name="Ccaron" unicode="&#x10c;" horiz-adv-x="810" 
d="M299 992h33l140 -64l140 64h33l-165 -159h-16zM477 -13c-264 0 -441 159 -441 396s179 396 447 396c82 0 172 -14 231 -35l46 -262h-22l-132 192c-23 33 -43 44 -59 50c-14 5 -43 9 -72 9c-129 0 -262 -78 -262 -317c0 -203 84 -383 278 -383c29 0 58 4 72 9
c16 6 36 17 59 50l132 192h22l-53 -262c-59 -21 -161 -35 -246 -35z" />
    <glyph glyph-name="ccaron" unicode="&#x10d;" horiz-adv-x="556" 
d="M117 810h29l141 -86l141 86h29l-164 -201h-12zM287 -13c-160 0 -256 115 -256 259c0 170 133 275 279 275c103 0 199 -42 199 -122c0 -42 -24 -72 -92 -72c-15 0 -32 1 -51 4c9 109 -24 156 -79 156c-51 0 -108 -49 -108 -175c0 -125 65 -229 177 -229
c64 0 136 38 156 123h29c-25 -152 -117 -219 -254 -219z" />
    <glyph glyph-name="Dcaron" unicode="&#x10e;" horiz-adv-x="842" 
d="M255 992h33l140 -64l140 64h33l-165 -159h-16zM42 0v36l45 4c35 3 44 10 44 49v580c0 39 -9 46 -44 49l-45 4v36h301c268 0 463 -133 463 -373s-195 -385 -455 -385h-309zM291 44h52c168 0 284 83 284 307c0 253 -95 363 -290 363h-46v-670z" />
    <glyph glyph-name="dcaron" unicode="&#x10f;" horiz-adv-x="650" 
d="M591 519l-14 28c53 26 91 57 91 102c0 51 -36 73 -90 82c-2 50 27 80 75 80c61 0 106 -52 106 -111c0 -85 -87 -146 -168 -181zM241 -13c-111 0 -208 94 -208 268c0 159 103 266 230 266c43 0 86 -19 113 -48v182l-94 64v6l242 77v-736h73v-32l-221 -45v60
c-32 -36 -82 -62 -135 -62zM198 256c0 -119 52 -200 120 -200c19 0 39 4 58 20v369c-16 14 -36 19 -55 19c-70 0 -123 -77 -123 -208z" />
    <glyph glyph-name="Dcroat" unicode="&#x110;" horiz-adv-x="860" 
d="M56 0v36l45 4c35 3 44 10 44 49v279h-89v59h89v242c0 39 -9 46 -44 49l-45 4v36h301c268 0 463 -133 463 -373s-195 -385 -455 -385h-309zM305 44h52c168 0 284 83 284 307c0 253 -95 363 -290 363h-46v-287h150v-59h-150v-324z" />
    <glyph glyph-name="dcroat" unicode="&#x111;" horiz-adv-x="610" 
d="M241 -13c-111 0 -208 94 -208 268c0 159 103 266 230 266c43 0 86 -19 113 -48v92h-105v51h105v39l-94 64v6l242 77v-186h73v-51h-73v-499h73v-32l-221 -45v60c-32 -36 -82 -62 -135 -62zM198 256c0 -119 52 -200 120 -200c19 0 39 4 58 20v369c-16 14 -36 19 -55 19
c-70 0 -123 -77 -123 -208z" />
    <glyph glyph-name="Emacron" unicode="&#x112;" horiz-adv-x="769" 
d="M237 872v68h314v-68h-314zM42 0v36l45 4c35 3 44 10 44 49v580c0 39 -9 46 -44 49l-45 4v36h596l37 -271h-22l-143 207c-11 16 -16 18 -37 18h-182v-293h116c9 0 14 3 17 11l48 131h22v-336h-22l-48 131c-3 8 -8 11 -17 11h-116v-321h227c18 0 20 2 31 14l184 211h22
l-75 -271h-638z" />
    <glyph glyph-name="emacron" unicode="&#x113;" horiz-adv-x="578" 
d="M130 669v68h314v-68h-314zM295 -13c-165 0 -264 115 -264 263c0 166 131 271 261 271c126 0 217 -68 244 -205h-355c1 -131 71 -233 185 -233c66 0 139 38 159 123h29c-23 -146 -117 -219 -259 -219zM286 487c-56 0 -94 -47 -103 -129h189c-3 93 -36 129 -86 129z" />
    <glyph glyph-name="Ebreve" unicode="&#x114;" horiz-adv-x="769" 
d="M394 827c-47 0 -150 20 -163 160h58c9 -69 52 -106 105 -106s96 37 105 106h58c-13 -140 -116 -160 -163 -160zM42 0v36l45 4c35 3 44 10 44 49v580c0 39 -9 46 -44 49l-45 4v36h596l37 -271h-22l-143 207c-11 16 -16 18 -37 18h-182v-293h116c9 0 14 3 17 11l48 131h22
v-336h-22l-48 131c-3 8 -8 11 -17 11h-116v-321h227c18 0 20 2 31 14l184 211h22l-75 -271h-638z" />
    <glyph glyph-name="ebreve" unicode="&#x115;" horiz-adv-x="578" 
d="M287 628c-47 0 -150 20 -163 160h58c9 -69 52 -106 105 -106s96 37 105 106h58c-13 -140 -116 -160 -163 -160zM295 -13c-165 0 -264 115 -264 263c0 166 131 271 261 271c126 0 217 -68 244 -205h-355c1 -131 71 -233 185 -233c66 0 139 38 159 123h29
c-23 -146 -117 -219 -259 -219zM286 487c-56 0 -94 -47 -103 -129h189c-3 93 -36 129 -86 129z" />
    <glyph glyph-name="Edotaccent" unicode="&#x116;" horiz-adv-x="769" 
d="M394 837c-40 0 -70 31 -70 71c0 41 30 71 70 71c39 0 70 -30 70 -71c0 -40 -31 -71 -70 -71zM42 0v36l45 4c35 3 44 10 44 49v580c0 39 -9 46 -44 49l-45 4v36h596l37 -271h-22l-143 207c-11 16 -16 18 -37 18h-182v-293h116c9 0 14 3 17 11l48 131h22v-336h-22l-48 131
c-3 8 -8 11 -17 11h-116v-321h227c18 0 20 2 31 14l184 211h22l-75 -271h-638z" />
    <glyph glyph-name="edotaccent" unicode="&#x117;" horiz-adv-x="578" 
d="M287 636c-39 0 -68 30 -68 69c0 40 29 69 68 69c38 0 68 -29 68 -69c0 -39 -30 -69 -68 -69zM295 -13c-165 0 -264 115 -264 263c0 166 131 271 261 271c126 0 217 -68 244 -205h-355c1 -131 71 -233 185 -233c66 0 139 38 159 123h29c-23 -146 -117 -219 -259 -219z
M286 487c-56 0 -94 -47 -103 -129h189c-3 93 -36 129 -86 129z" />
    <glyph glyph-name="Eogonek" unicode="&#x118;" horiz-adv-x="769" 
d="M42 0v36l45 4c35 3 44 10 44 49v580c0 39 -9 46 -44 49l-45 4v36h596l37 -271h-22l-143 207c-11 16 -16 18 -37 18h-182v-293h116c9 0 14 3 17 11l48 131h22v-336h-22l-48 131c-3 8 -8 11 -17 11h-116v-321h227c18 0 20 2 31 14l184 211h22l-75 -271
c-33 -33 -68 -79 -68 -125c0 -40 31 -57 72 -57c15 0 31 2 48 6v-31c-22 -11 -64 -27 -102 -27c-56 0 -110 30 -110 85c0 54 70 112 130 149h-608z" />
    <glyph glyph-name="eogonek" unicode="&#x119;" horiz-adv-x="578" 
d="M443 -207c-22 -11 -64 -27 -102 -27c-56 0 -110 30 -110 85c0 59 71 108 139 143c-17 -3 -56 -7 -75 -7c-165 0 -264 115 -264 263c0 166 131 271 261 271c126 0 217 -68 244 -205h-355c1 -131 71 -233 185 -233c68 0 144 41 161 132h28c-15 -123 -82 -171 -143 -216
c-60 -45 -89 -80 -89 -124c0 -40 31 -57 72 -57c15 0 31 2 48 6v-31zM286 487c-56 0 -94 -47 -103 -129h189c-3 93 -36 129 -86 129z" />
    <glyph glyph-name="Ecaron" unicode="&#x11a;" horiz-adv-x="769" 
d="M221 992h33l140 -64l140 64h33l-165 -159h-16zM42 0v36l45 4c35 3 44 10 44 49v580c0 39 -9 46 -44 49l-45 4v36h596l37 -271h-22l-143 207c-11 16 -16 18 -37 18h-182v-293h116c9 0 14 3 17 11l48 131h22v-336h-22l-48 131c-3 8 -8 11 -17 11h-116v-321h227
c18 0 20 2 31 14l184 211h22l-75 -271h-638z" />
    <glyph glyph-name="ecaron" unicode="&#x11b;" horiz-adv-x="578" 
d="M117 810h29l141 -86l141 86h29l-164 -201h-12zM295 -13c-165 0 -264 115 -264 263c0 166 131 271 261 271c126 0 217 -68 244 -205h-355c1 -131 71 -233 185 -233c66 0 139 38 159 123h29c-23 -146 -117 -219 -259 -219zM286 487c-56 0 -94 -47 -103 -129h189
c-3 93 -36 129 -86 129z" />
    <glyph glyph-name="Gcircumflex" unicode="&#x11c;" horiz-adv-x="866" 
d="M306 833l165 159h16l165 -159h-33l-140 64l-140 -64h-33zM476 -13c-264 0 -441 159 -441 396s184 396 447 396c82 0 172 -14 231 -35l46 -262h-22l-132 192c-23 33 -43 44 -59 50c-14 5 -43 9 -72 9c-124 0 -262 -78 -262 -317c0 -203 84 -381 278 -381c31 0 78 3 112 11
v214c0 39 -9 46 -44 48l-81 4v41h374v-45h-89v-202l4 -71c-70 -25 -193 -48 -290 -48z" />
    <glyph glyph-name="gcircumflex" unicode="&#x11d;" horiz-adv-x="604" 
d="M123 609l164 201h12l164 -201h-29l-141 86l-141 -86h-29zM270 170c-27 0 -53 3 -76 9l-61 -73l268 -22c140 -12 171 -53 171 -114c0 -117 -165 -231 -384 -231c-115 0 -176 47 -176 103c0 60 75 99 161 116c-44 17 -117 65 -145 84l129 150c-68 30 -109 87 -109 152
c0 97 92 177 225 177c67 0 122 -20 162 -51l44 86h142l-51 -99h-121c30 -30 47 -68 47 -110c0 -97 -92 -177 -226 -177zM300 204c32 0 57 28 57 96c0 95 -40 189 -109 189c-33 0 -58 -28 -58 -97c0 -94 40 -188 110 -188zM243 -213c99 0 207 48 207 105c0 47 -65 61 -178 61
c-118 0 -155 -43 -155 -82c0 -44 32 -84 126 -84z" />
    <glyph glyph-name="Gbreve" unicode="&#x11e;" horiz-adv-x="866" 
d="M479 827c-47 0 -150 20 -163 160h58c9 -69 52 -106 105 -106s96 37 105 106h58c-13 -140 -116 -160 -163 -160zM476 -13c-264 0 -441 159 -441 396s184 396 447 396c82 0 172 -14 231 -35l46 -262h-22l-132 192c-23 33 -43 44 -59 50c-14 5 -43 9 -72 9
c-124 0 -262 -78 -262 -317c0 -203 84 -381 278 -381c31 0 78 3 112 11v214c0 39 -9 46 -44 48l-81 4v41h374v-45h-89v-202l4 -71c-70 -25 -193 -48 -290 -48z" />
    <glyph glyph-name="gbreve" unicode="&#x11f;" horiz-adv-x="604" 
d="M293 628c-47 0 -150 20 -163 160h58c9 -69 52 -106 105 -106s96 37 105 106h58c-13 -140 -116 -160 -163 -160zM270 170c-27 0 -53 3 -76 9l-61 -73l268 -22c140 -12 171 -53 171 -114c0 -117 -165 -231 -384 -231c-115 0 -176 47 -176 103c0 60 75 99 161 116
c-44 17 -117 65 -145 84l129 150c-68 30 -109 87 -109 152c0 97 92 177 225 177c67 0 122 -20 162 -51l44 86h142l-51 -99h-121c30 -30 47 -68 47 -110c0 -97 -92 -177 -226 -177zM300 204c32 0 57 28 57 96c0 95 -40 189 -109 189c-33 0 -58 -28 -58 -97
c0 -94 40 -188 110 -188zM243 -213c99 0 207 48 207 105c0 47 -65 61 -178 61c-118 0 -155 -43 -155 -82c0 -44 32 -84 126 -84z" />
    <glyph glyph-name="Gdotaccent" unicode="&#x120;" horiz-adv-x="866" 
d="M479 837c-40 0 -70 31 -70 71c0 41 30 71 70 71c39 0 70 -30 70 -71c0 -40 -31 -71 -70 -71zM476 -13c-264 0 -441 159 -441 396s184 396 447 396c82 0 172 -14 231 -35l46 -262h-22l-132 192c-23 33 -43 44 -59 50c-14 5 -43 9 -72 9c-124 0 -262 -78 -262 -317
c0 -203 84 -381 278 -381c31 0 78 3 112 11v214c0 39 -9 46 -44 48l-81 4v41h374v-45h-89v-202l4 -71c-70 -25 -193 -48 -290 -48z" />
    <glyph glyph-name="gdotaccent" unicode="&#x121;" horiz-adv-x="604" 
d="M293 636c-39 0 -68 30 -68 69c0 40 29 69 68 69c38 0 68 -29 68 -69c0 -39 -30 -69 -68 -69zM270 170c-27 0 -53 3 -76 9l-61 -73l268 -22c140 -12 171 -53 171 -114c0 -117 -165 -231 -384 -231c-115 0 -176 47 -176 103c0 60 75 99 161 116c-44 17 -117 65 -145 84
l129 150c-68 30 -109 87 -109 152c0 97 92 177 225 177c67 0 122 -20 162 -51l44 86h142l-51 -99h-121c30 -30 47 -68 47 -110c0 -97 -92 -177 -226 -177zM300 204c32 0 57 28 57 96c0 95 -40 189 -109 189c-33 0 -58 -28 -58 -97c0 -94 40 -188 110 -188zM243 -213
c99 0 207 48 207 105c0 47 -65 61 -178 61c-118 0 -155 -43 -155 -82c0 -44 32 -84 126 -84z" />
    <glyph glyph-name="Gcommaaccent" unicode="&#x122;" horiz-adv-x="866" 
d="M476 -13c-264 0 -441 159 -441 396s184 396 447 396c82 0 172 -14 231 -35l46 -262h-22l-132 192c-23 33 -43 44 -59 50c-14 5 -43 9 -72 9c-124 0 -262 -78 -262 -317c0 -203 84 -381 278 -381c31 0 78 3 112 11v214c0 39 -9 46 -44 48l-81 4v41h374v-45h-89v-202l4 -71
c-70 -25 -193 -48 -290 -48zM409 -378l-14 28c53 26 91 57 91 102c0 51 -36 73 -90 82c-2 50 27 80 75 80c61 0 106 -52 106 -111c0 -85 -87 -146 -168 -181z" />
    <glyph glyph-name="gcommaaccent" unicode="&#x123;" horiz-adv-x="604" 
d="M370 885l14 -28c-53 -26 -91 -57 -91 -102c0 -51 36 -73 90 -82c2 -50 -27 -80 -75 -80c-61 0 -106 52 -106 111c0 85 87 146 168 181zM270 170c-27 0 -53 3 -76 9l-61 -73l268 -22c140 -12 171 -53 171 -114c0 -117 -165 -231 -384 -231c-115 0 -176 47 -176 103
c0 60 75 99 161 116c-44 17 -117 65 -145 84l129 150c-68 30 -109 87 -109 152c0 97 92 177 225 177c67 0 122 -20 162 -51l44 86h142l-51 -99h-121c30 -30 47 -68 47 -110c0 -97 -92 -177 -226 -177zM300 204c32 0 57 28 57 96c0 95 -40 189 -109 189
c-33 0 -58 -28 -58 -97c0 -94 40 -188 110 -188zM243 -213c99 0 207 48 207 105c0 47 -65 61 -178 61c-118 0 -155 -43 -155 -82c0 -44 32 -84 126 -84z" />
    <glyph glyph-name="Hcircumflex" unicode="&#x124;" horiz-adv-x="903" 
d="M278 833l165 159h16l165 -159h-33l-140 64l-140 -64h-33zM42 0v36l45 4c35 3 44 10 44 49v580c0 39 -9 46 -44 49l-45 4v36h338v-36l-45 -4c-35 -3 -44 -10 -44 -49v-242h321v242c0 39 -9 46 -44 49l-45 4v36h338v-36l-45 -4c-35 -3 -44 -10 -44 -49v-580
c0 -39 9 -46 44 -49l45 -4v-36h-338v36l45 4c35 3 44 10 44 49v279h-321v-279c0 -39 9 -46 44 -49l45 -4v-36h-338z" />
    <glyph glyph-name="hcircumflex" unicode="&#x125;" horiz-adv-x="608" 
d="M-17 833l165 159h16l165 -159h-33l-140 64l-140 -64h-33zM17 0v32l27 2c35 3 40 4 40 40v581l-76 64v6l224 77v-401c22 73 72 120 152 120c81 0 142 -43 142 -187v-260c0 -36 5 -37 40 -40l27 -2v-32h-271v32l19 2c35 4 37 4 37 40v232c0 104 -28 127 -68 127
s-78 -24 -78 -128v-231c0 -36 2 -36 37 -40l19 -2v-32h-271z" />
    <glyph glyph-name="Hbar" unicode="&#x126;" horiz-adv-x="903" 
d="M42 0v36l45 4c35 3 44 10 44 49v451h-89v59h89v70c0 39 -9 46 -44 49l-45 4v36h338v-36l-45 -4c-35 -3 -44 -10 -44 -49v-70h321v70c0 39 -9 46 -44 49l-45 4v36h338v-36l-45 -4c-35 -3 -44 -10 -44 -49v-70h89v-59h-89v-451c0 -39 9 -46 44 -49l45 -4v-36h-338v36l45 4
c35 3 44 10 44 49v279h-321v-279c0 -39 9 -46 44 -49l45 -4v-36h-338zM291 427h321v113h-321v-113z" />
    <glyph glyph-name="hbar" unicode="&#x127;" horiz-adv-x="608" 
d="M17 0v32l27 2c35 3 40 4 40 40v491h-76v51h76v39l-76 64v6l224 77v-186h102v-51h-102v-164c22 73 72 120 152 120c81 0 142 -43 142 -187v-260c0 -36 5 -37 40 -40l27 -2v-32h-271v32l19 2c35 4 37 4 37 40v232c0 104 -28 127 -68 127s-78 -24 -78 -128v-231
c0 -36 2 -36 37 -40l19 -2v-32h-271z" />
    <glyph glyph-name="Itilde" unicode="&#x128;" horiz-adv-x="422" 
d="M284 829c-67 0 -104 58 -157 58c-32 0 -53 -19 -56 -54h-21c0 72 27 147 96 147c56 0 106 -58 151 -58c31 0 52 16 54 50h21c-1 -108 -44 -143 -88 -143zM42 0v36l45 4c35 3 44 10 44 49v580c0 39 -9 46 -44 49l-45 4v36h338v-36l-45 -4c-35 -3 -44 -10 -44 -49v-580
c0 -39 9 -46 44 -49l45 -4v-36h-338z" />
    <glyph glyph-name="itilde" unicode="&#x129;" horiz-adv-x="337" 
d="M241 645c-67 0 -104 58 -157 58c-32 0 -53 -19 -56 -54h-21c0 72 27 147 96 147c56 0 106 -58 151 -58c31 0 52 16 54 50h21c-1 -108 -44 -143 -88 -143zM34 0v32l27 2c35 3 40 4 40 40v283l-76 72v6l224 94v-455c0 -36 5 -37 40 -40l27 -2v-32h-282z" />
    <glyph glyph-name="Imacron" unicode="&#x12a;" horiz-adv-x="422" 
d="M54 872v68h314v-68h-314zM42 0v36l45 4c35 3 44 10 44 49v580c0 39 -9 46 -44 49l-45 4v36h338v-36l-45 -4c-35 -3 -44 -10 -44 -49v-580c0 -39 9 -46 44 -49l45 -4v-36h-338z" />
    <glyph glyph-name="imacron" unicode="&#x12b;" horiz-adv-x="337" 
d="M11 669v68h314v-68h-314zM34 0v32l27 2c35 3 40 4 40 40v283l-76 72v6l224 94v-455c0 -36 5 -37 40 -40l27 -2v-32h-282z" />
    <glyph glyph-name="Ibreve" unicode="&#x12c;" horiz-adv-x="422" 
d="M211 827c-47 0 -150 20 -163 160h58c9 -69 52 -106 105 -106s96 37 105 106h58c-13 -140 -116 -160 -163 -160zM42 0v36l45 4c35 3 44 10 44 49v580c0 39 -9 46 -44 49l-45 4v36h338v-36l-45 -4c-35 -3 -44 -10 -44 -49v-580c0 -39 9 -46 44 -49l45 -4v-36h-338z" />
    <glyph glyph-name="ibreve" unicode="&#x12d;" horiz-adv-x="337" 
d="M168 628c-47 0 -150 20 -163 160h58c9 -69 52 -106 105 -106s96 37 105 106h58c-13 -140 -116 -160 -163 -160zM34 0v32l27 2c35 3 40 4 40 40v283l-76 72v6l224 94v-455c0 -36 5 -37 40 -40l27 -2v-32h-282z" />
    <glyph glyph-name="Iogonek" unicode="&#x12e;" horiz-adv-x="422" 
d="M42 0v36l45 4c35 3 44 10 44 49v580c0 39 -9 46 -44 49l-45 4v36h338v-36l-45 -4c-35 -3 -44 -10 -44 -49v-580c0 -39 9 -46 44 -49l45 -4v-36h-82c-33 -33 -68 -79 -68 -125c0 -40 31 -57 72 -57c15 0 31 2 48 6v-31c-22 -11 -64 -27 -102 -27c-56 0 -110 30 -110 85
c0 54 70 112 130 149h-226z" />
    <glyph glyph-name="iogonek" unicode="&#x12f;" horiz-adv-x="337" 
d="M81 710c0 49 44 93 93 93c50 0 94 -44 94 -93c0 -50 -44 -94 -94 -94c-49 0 -93 44 -93 94zM34 0v32l27 2c35 3 40 4 40 40v283l-76 72v6l224 94v-455c0 -36 5 -37 40 -40l27 -2v-32h-88c-33 -33 -68 -79 -68 -125c0 -40 31 -57 72 -57c15 0 31 2 48 6v-31
c-22 -11 -64 -27 -102 -27c-56 0 -110 30 -110 85c0 54 70 112 130 149h-164z" />
    <glyph glyph-name="Idotaccent" unicode="&#x130;" horiz-adv-x="422" 
d="M211 837c-40 0 -70 31 -70 71c0 41 30 71 70 71c39 0 70 -30 70 -71c0 -40 -31 -71 -70 -71zM42 0v36l45 4c35 3 44 10 44 49v580c0 39 -9 46 -44 49l-45 4v36h338v-36l-45 -4c-35 -3 -44 -10 -44 -49v-580c0 -39 9 -46 44 -49l45 -4v-36h-338z" />
    <glyph glyph-name="dotlessi" unicode="&#x131;" horiz-adv-x="337" 
d="M34 0v32l27 2c35 3 40 4 40 40v283l-76 72v6l224 94v-455c0 -36 5 -37 40 -40l27 -2v-32h-282z" />
    <glyph glyph-name="Jcircumflex" unicode="&#x134;" horiz-adv-x="414" 
d="M42 833l165 159h16l165 -159h-33l-140 64l-140 -64h-33zM10 -105l-23 30c118 100 148 123 148 251v497c0 37 -7 41 -42 42l-53 2v41h350v-41l-53 -2c-35 -1 -42 -5 -42 -42v-459c0 -108 -51 -147 -121 -203c-35 -28 -112 -80 -164 -116z" />
    <glyph glyph-name="jcircumflex" unicode="&#x135;" horiz-adv-x="307" 
d="M-15 609l164 201h12l164 -201h-29l-141 86l-141 -86h-29zM-32 -263l-19 27c92 81 139 125 139 278v315l-76 72v6l224 94v-480c0 -108 -37 -158 -110 -210c-35 -25 -99 -67 -158 -102z" />
    <glyph glyph-name="Kcommaaccent" unicode="&#x136;" horiz-adv-x="824" 
d="M42 0v36l45 4c35 3 44 10 44 49v580c0 39 -9 46 -44 49l-45 4v36h338v-36l-45 -4c-35 -3 -44 -10 -44 -49v-294l306 313c14 14 9 28 -21 30l-73 4v36h298v-36l-51 -3c-45 -3 -65 -13 -88 -36l-226 -231l412 -452h-223l-334 367v-278c0 -39 9 -46 44 -49l45 -4v-36h-338z
M409 -378l-14 28c53 26 91 57 91 102c0 51 -36 73 -90 82c-2 50 27 80 75 80c61 0 106 -52 106 -111c0 -85 -87 -146 -168 -181z" />
    <glyph glyph-name="kcommaaccent" unicode="&#x137;" horiz-adv-x="625" 
d="M17 0v32l21 2c35 3 46 13 46 49v572l-76 64v6l224 77v-541l177 157c28 25 22 48 -13 50l-38 2v32h239v-32l-27 -2c-43 -4 -63 -18 -100 -50l-106 -91l283 -327h-199l-216 248v-165c0 -36 11 -46 46 -49l21 -2v-32h-282zM277 -378l-14 28c53 26 91 57 91 102
c0 51 -36 73 -90 82c-2 50 27 80 75 80c61 0 106 -52 106 -111c0 -85 -87 -146 -168 -181z" />
    <glyph glyph-name="Lacute" unicode="&#x139;" horiz-adv-x="720" 
d="M193 843l99 129h183v-3l-251 -126h-31zM42 0v36l45 4c35 3 44 10 44 49v580c0 39 -9 46 -44 49l-45 4v36h338v-36l-45 -4c-35 -3 -44 -10 -44 -49v-623h187c18 0 20 2 31 14l184 211h22l-75 -271h-598z" />
    <glyph glyph-name="lacute" unicode="&#x13a;" horiz-adv-x="324" 
d="M123 865l110 179h148v-11l-230 -168h-28zM21 0v32l27 2c35 3 40 4 40 40v581l-76 64v6l224 77v-728c0 -36 5 -37 40 -40l27 -2v-32h-282z" />
    <glyph glyph-name="Lcommaaccent" unicode="&#x13b;" horiz-adv-x="720" 
d="M42 0v36l45 4c35 3 44 10 44 49v580c0 39 -9 46 -44 49l-45 4v36h338v-36l-45 -4c-35 -3 -44 -10 -44 -49v-623h187c18 0 20 2 31 14l184 211h22l-75 -271h-598zM298 -378l-14 28c53 26 91 57 91 102c0 51 -36 73 -90 82c-2 50 27 80 75 80c61 0 106 -52 106 -111
c0 -85 -87 -146 -168 -181z" />
    <glyph glyph-name="lcommaaccent" unicode="&#x13c;" horiz-adv-x="324" 
d="M21 0v32l27 2c35 3 40 4 40 40v581l-76 64v6l224 77v-728c0 -36 5 -37 40 -40l27 -2v-32h-282zM81 -378l-14 28c53 26 91 57 91 102c0 51 -36 73 -90 82c-2 50 27 80 75 80c61 0 106 -52 106 -111c0 -85 -87 -146 -168 -181z" />
    <glyph glyph-name="Lcaron" unicode="&#x13d;" horiz-adv-x="720" 
d="M452 519l-14 28c53 26 91 57 91 102c0 51 -36 73 -90 82c-2 50 27 80 75 80c61 0 106 -52 106 -111c0 -85 -87 -146 -168 -181zM42 0v36l45 4c35 3 44 10 44 49v580c0 39 -9 46 -44 49l-45 4v36h338v-36l-45 -4c-35 -3 -44 -10 -44 -49v-623h187c18 0 20 2 31 14l184 211
h22l-75 -271h-598z" />
    <glyph glyph-name="lcaron" unicode="&#x13e;" horiz-adv-x="364" 
d="M309 519l-14 28c53 26 91 57 91 102c0 51 -36 73 -90 82c-2 50 27 80 75 80c61 0 106 -52 106 -111c0 -85 -87 -146 -168 -181zM21 0v32l27 2c35 3 40 4 40 40v581l-76 64v6l224 77v-728c0 -36 5 -37 40 -40l27 -2v-32h-282z" />
    <glyph glyph-name="Ldot" unicode="&#x13f;" horiz-adv-x="720" 
d="M42 0v36l45 4c35 3 44 10 44 49v580c0 39 -9 46 -44 49l-45 4v36h338v-36l-45 -4c-35 -3 -44 -10 -44 -49v-623h187c18 0 20 2 31 14l184 211h22l-75 -271h-598zM579 351c-40 0 -70 31 -70 71c0 41 30 71 70 71c39 0 70 -30 70 -71c0 -40 -31 -71 -70 -71z" />
    <glyph glyph-name="ldot" unicode="&#x140;" horiz-adv-x="434" 
d="M21 0v32l27 2c35 3 40 4 40 40v581l-76 64v6l224 77v-728c0 -36 5 -37 40 -40l27 -2v-32h-282zM382 326c-39 0 -68 30 -68 69c0 40 29 69 68 69c38 0 68 -29 68 -69c0 -39 -30 -69 -68 -69z" />
    <glyph glyph-name="Lslash" unicode="&#x141;" horiz-adv-x="720" 
d="M42 0v36l45 4c35 3 44 10 44 49v214l-136 -70v67l136 70v299c0 39 -9 46 -44 49l-45 4v36h338v-36l-45 -4c-35 -3 -44 -10 -44 -49v-216l137 71v-67l-137 -71v-340h187c18 0 20 2 31 14l184 211h22l-75 -271h-598z" />
    <glyph glyph-name="lslash" unicode="&#x142;" horiz-adv-x="404" 
d="M61 0v32l27 2c35 3 40 4 40 40v249l-117 -62v60l117 62v272l-76 64v6l224 77v-342l117 62v-60l-117 -62v-326c0 -36 5 -37 40 -40l27 -2v-32h-282z" />
    <glyph glyph-name="Nacute" unicode="&#x143;" horiz-adv-x="877" 
d="M444 843l99 129h183v-3l-251 -126h-31zM46 0v36l45 4c35 3 44 10 44 49v558l-101 109v2h210l456 -475v386c0 39 -9 46 -44 49l-45 4v36h234v-36l-45 -4c-35 -3 -44 -10 -44 -49v-686h-4l-561 604v-498c0 -39 9 -46 44 -49l45 -4v-36h-234z" />
    <glyph glyph-name="nacute" unicode="&#x144;" horiz-adv-x="621" 
d="M284 609l110 179h148v-11l-230 -168h-28zM30 0v32l27 2c35 3 40 4 40 40v283l-76 72v6l224 94v-128c22 73 72 120 152 120c81 0 142 -43 142 -187v-260c0 -36 5 -37 40 -40l27 -2v-32h-271v32l19 2c35 4 37 4 37 40v232c0 104 -28 127 -68 127s-78 -24 -78 -128v-231
c0 -36 2 -36 37 -40l19 -2v-32h-271z" />
    <glyph glyph-name="Ncommaaccent" unicode="&#x145;" horiz-adv-x="877" 
d="M46 0v36l45 4c35 3 44 10 44 49v558l-101 109v2h210l456 -475v386c0 39 -9 46 -44 49l-45 4v36h234v-36l-45 -4c-35 -3 -44 -10 -44 -49v-686h-4l-561 604v-498c0 -39 9 -46 44 -49l45 -4v-36h-234zM401 -378l-14 28c53 26 91 57 91 102c0 51 -36 73 -90 82
c-2 50 27 80 75 80c61 0 106 -52 106 -111c0 -85 -87 -146 -168 -181z" />
    <glyph glyph-name="ncommaaccent" unicode="&#x146;" horiz-adv-x="621" 
d="M30 0v32l27 2c35 3 40 4 40 40v283l-76 72v6l224 94v-128c22 73 72 120 152 120c81 0 142 -43 142 -187v-260c0 -36 5 -37 40 -40l27 -2v-32h-271v32l19 2c35 4 37 4 37 40v232c0 104 -28 127 -68 127s-78 -24 -78 -128v-231c0 -36 2 -36 37 -40l19 -2v-32h-271z
M243 -378l-14 28c53 26 91 57 91 102c0 51 -36 73 -90 82c-2 50 27 80 75 80c61 0 106 -52 106 -111c0 -85 -87 -146 -168 -181z" />
    <glyph glyph-name="Ncaron" unicode="&#x147;" horiz-adv-x="877" 
d="M289 992h33l140 -64l140 64h33l-165 -159h-16zM46 0v36l45 4c35 3 44 10 44 49v558l-101 109v2h210l456 -475v386c0 39 -9 46 -44 49l-45 4v36h234v-36l-45 -4c-35 -3 -44 -10 -44 -49v-686h-4l-561 604v-498c0 -39 9 -46 44 -49l45 -4v-36h-234z" />
    <glyph glyph-name="ncaron" unicode="&#x148;" horiz-adv-x="621" 
d="M146 810h29l141 -86l141 86h29l-164 -201h-12zM30 0v32l27 2c35 3 40 4 40 40v283l-76 72v6l224 94v-128c22 73 72 120 152 120c81 0 142 -43 142 -187v-260c0 -36 5 -37 40 -40l27 -2v-32h-271v32l19 2c35 4 37 4 37 40v232c0 104 -28 127 -68 127s-78 -24 -78 -128
v-231c0 -36 2 -36 37 -40l19 -2v-32h-271z" />
    <glyph glyph-name="Eng" unicode="&#x14a;" horiz-adv-x="877" 
d="M46 0v36l35 4c35 4 54 10 54 49v558l-101 109v2h210l456 -475v386c0 39 -19 45 -54 49l-35 4v36h234v-36l-35 -4c-35 -4 -54 -10 -54 -49v-620c0 -108 -37 -158 -110 -210c-35 -25 -99 -67 -158 -102l-19 27c92 81 139 125 139 278v96l-417 449v-498c0 -39 19 -45 54 -49
l35 -4v-36h-234z" />
    <glyph glyph-name="eng" unicode="&#x14b;" horiz-adv-x="603" 
d="M397 521c81 0 142 -43 142 -187v-285c0 -108 -37 -158 -110 -210c-35 -25 -99 -67 -158 -102l-19 27c92 81 139 125 139 278v264c0 104 -28 127 -68 127s-78 -24 -78 -128v-231c0 -36 2 -36 37 -40l19 -2v-32h-271v32l27 2c35 3 40 4 40 40v283l-76 72v6l224 94v-128
c22 73 72 120 152 120z" />
    <glyph glyph-name="Omacron" unicode="&#x14c;" horiz-adv-x="892" 
d="M289 872v68h314v-68h-314zM446 -13c-214 0 -410 146 -410 396s196 396 410 396s410 -146 410 -396s-196 -396 -410 -396zM446 35c143 0 232 122 232 348s-89 348 -232 348s-232 -122 -232 -348s89 -348 232 -348z" />
    <glyph glyph-name="omacron" unicode="&#x14d;" horiz-adv-x="616" 
d="M152 669v68h314v-68h-314zM306 -13c-166 0 -276 119 -276 262c0 160 124 272 280 272c166 0 276 -119 276 -262c0 -160 -124 -272 -280 -272zM308 28c62 0 111 55 111 227s-49 227 -111 227c-64 0 -113 -55 -113 -227s49 -227 113 -227z" />
    <glyph glyph-name="Obreve" unicode="&#x14e;" horiz-adv-x="892" 
d="M446 827c-47 0 -150 20 -163 160h58c9 -69 52 -106 105 -106s96 37 105 106h58c-13 -140 -116 -160 -163 -160zM446 -13c-214 0 -410 146 -410 396s196 396 410 396s410 -146 410 -396s-196 -396 -410 -396zM446 35c143 0 232 122 232 348s-89 348 -232 348
s-232 -122 -232 -348s89 -348 232 -348z" />
    <glyph glyph-name="obreve" unicode="&#x14f;" horiz-adv-x="616" 
d="M309 628c-47 0 -150 20 -163 160h58c9 -69 52 -106 105 -106s96 37 105 106h58c-13 -140 -116 -160 -163 -160zM306 -13c-166 0 -276 119 -276 262c0 160 124 272 280 272c166 0 276 -119 276 -262c0 -160 -124 -272 -280 -272zM308 28c62 0 111 55 111 227
s-49 227 -111 227c-64 0 -113 -55 -113 -227s49 -227 113 -227z" />
    <glyph glyph-name="Ohungarumlaut" unicode="&#x150;" horiz-adv-x="892" 
d="M348 843l99 129h183v-3l-251 -126h-31zM558 843l99 129h183v-3l-251 -126h-31zM446 -13c-214 0 -410 146 -410 396s196 396 410 396s410 -146 410 -396s-196 -396 -410 -396zM446 35c143 0 232 122 232 348s-89 348 -232 348s-232 -122 -232 -348s89 -348 232 -348z" />
    <glyph glyph-name="ohungarumlaut" unicode="&#x151;" horiz-adv-x="616" 
d="M208 609l110 179h148v-11l-230 -168h-28zM387 609l110 179h148v-11l-230 -168h-28zM306 -13c-166 0 -276 119 -276 262c0 160 124 272 280 272c166 0 276 -119 276 -262c0 -160 -124 -272 -280 -272zM308 28c62 0 111 55 111 227s-49 227 -111 227
c-64 0 -113 -55 -113 -227s49 -227 113 -227z" />
    <glyph glyph-name="OE" unicode="&#x152;" horiz-adv-x="1301" 
d="M446 -13c-214 0 -410 146 -410 396s196 396 410 396c102 0 187 -44 247 -112v91h477l37 -271h-12l-153 207c-12 16 -16 18 -37 18h-182v-293h116c9 0 13 3 17 11l58 131h12v-336h-12l-58 131c-4 8 -8 11 -17 11h-116v-321h227c18 0 20 2 31 14l194 211h12l-75 -271h-519
v99c-60 -68 -145 -112 -247 -112zM446 731c-143 0 -232 -122 -232 -348s89 -348 232 -348s232 122 232 348s-89 348 -232 348z" />
    <glyph glyph-name="oe" unicode="&#x153;" horiz-adv-x="946" 
d="M730 87c66 0 143 35 163 119h29c-23 -146 -117 -219 -259 -219c-86 0 -154 31 -200 82c-38 -50 -95 -82 -167 -82c-156 0 -266 119 -266 262c0 160 124 272 270 272c78 0 133 -35 170 -85c50 55 120 85 190 85c126 0 217 -70 244 -207h-355c2 -130 67 -227 181 -227z
M654 485c-57 0 -95 -46 -103 -129h189c-3 93 -36 129 -86 129zM298 31c62 0 101 52 101 224s-39 224 -101 224c-64 0 -103 -52 -103 -224s39 -224 103 -224z" />
    <glyph glyph-name="Racute" unicode="&#x154;" horiz-adv-x="787" 
d="M355 843l99 129h183v-3l-251 -126h-31zM42 0v36l45 4c35 3 44 10 44 49v580c0 39 -9 46 -44 49l-45 4v36h317c200 0 327 -50 327 -181c0 -79 -52 -159 -191 -186l327 -391h-202l-305 369h-24v-280c0 -39 9 -46 44 -49l45 -4v-36h-338zM291 414h60c112 0 158 57 158 150
s-46 150 -158 150h-60v-300z" />
    <glyph glyph-name="racute" unicode="&#x155;" horiz-adv-x="446" 
d="M262 609l110 179h148v-11l-230 -168h-28zM30 0v32l27 2c35 3 40 4 40 40v283l-76 72v6l224 94v-173c28 117 95 158 174 158h10v-149l-53 7c-104 14 -131 -14 -131 -59v-239c0 -36 11 -36 46 -38l51 -3v-33h-312z" />
    <glyph glyph-name="Rcommaaccent" unicode="&#x156;" horiz-adv-x="787" 
d="M42 0v36l45 4c35 3 44 10 44 49v580c0 39 -9 46 -44 49l-45 4v36h317c200 0 327 -50 327 -181c0 -79 -52 -159 -191 -186l327 -391h-202l-305 369h-24v-280c0 -39 9 -46 44 -49l45 -4v-36h-338zM291 414h60c112 0 158 57 158 150s-46 150 -158 150h-60v-300zM401 -378
l-14 28c53 26 91 57 91 102c0 51 -36 73 -90 82c-2 50 27 80 75 80c61 0 106 -52 106 -111c0 -85 -87 -146 -168 -181z" />
    <glyph glyph-name="rcommaaccent" unicode="&#x157;" horiz-adv-x="446" 
d="M30 0v32l27 2c35 3 40 4 40 40v283l-76 72v6l224 94v-173c28 117 95 158 174 158h10v-149l-53 7c-104 14 -131 -14 -131 -59v-239c0 -36 11 -36 46 -38l51 -3v-33h-312zM90 -378l-14 28c53 26 91 57 91 102c0 51 -36 73 -90 82c-2 50 27 80 75 80c61 0 106 -52 106 -111
c0 -85 -87 -146 -168 -181z" />
    <glyph glyph-name="Rcaron" unicode="&#x158;" horiz-adv-x="787" 
d="M200 992h33l140 -64l140 64h33l-165 -159h-16zM42 0v36l45 4c35 3 44 10 44 49v580c0 39 -9 46 -44 49l-45 4v36h317c200 0 327 -50 327 -181c0 -79 -52 -159 -191 -186l327 -391h-202l-305 369h-24v-280c0 -39 9 -46 44 -49l45 -4v-36h-338zM291 414h60
c112 0 158 57 158 150s-46 150 -158 150h-60v-300z" />
    <glyph glyph-name="rcaron" unicode="&#x159;" horiz-adv-x="446" 
d="M124 810h29l141 -86l141 86h29l-164 -201h-12zM30 0v32l27 2c35 3 40 4 40 40v283l-76 72v6l224 94v-173c28 117 95 158 174 158h10v-149l-53 7c-104 14 -131 -14 -131 -59v-239c0 -36 11 -36 46 -38l51 -3v-33h-312z" />
    <glyph glyph-name="Sacute" unicode="&#x15a;" horiz-adv-x="632" 
d="M300 843l99 129h183v-3l-251 -126h-31zM310 -13c-69 0 -148 9 -215 37l-47 246h22l140 -196c18 -26 31 -31 47 -35c18 -4 37 -6 58 -6c79 0 147 38 147 118c0 77 -55 123 -160 156l-54 17c-125 39 -190 120 -190 236c0 152 145 219 291 219c55 0 110 -9 157 -27l48 -235
h-22l-140 186c-16 22 -21 23 -34 26c-10 2 -21 3 -32 3c-74 0 -143 -38 -143 -115c0 -55 28 -102 109 -128l54 -17c145 -46 243 -109 243 -252c0 -149 -147 -233 -279 -233z" />
    <glyph glyph-name="sacute" unicode="&#x15b;" horiz-adv-x="472" 
d="M206 609l110 179h148v-11l-230 -168h-28zM209 -13c-49 0 -93 7 -146 24l-16 178h22l76 -124c27 -44 52 -40 81 -40c46 0 86 27 86 73c0 40 -23 71 -77 83l-53 12c-81 18 -134 76 -134 163c0 106 104 165 215 165c43 0 94 -6 134 -20l19 -170h-22l-85 122
c-21 31 -40 32 -66 32c-47 0 -81 -27 -81 -73c0 -42 26 -73 77 -84l43 -9c108 -23 154 -83 154 -160c0 -101 -97 -172 -227 -172z" />
    <glyph glyph-name="Scircumflex" unicode="&#x15c;" horiz-adv-x="632" 
d="M145 833l165 159h16l165 -159h-33l-140 64l-140 -64h-33zM310 -13c-69 0 -148 9 -215 37l-47 246h22l140 -196c18 -26 31 -31 47 -35c18 -4 37 -6 58 -6c79 0 147 38 147 118c0 77 -55 123 -160 156l-54 17c-125 39 -190 120 -190 236c0 152 145 219 291 219
c55 0 110 -9 157 -27l48 -235h-22l-140 186c-16 22 -21 23 -34 26c-10 2 -21 3 -32 3c-74 0 -143 -38 -143 -115c0 -55 28 -102 109 -128l54 -17c145 -46 243 -109 243 -252c0 -149 -147 -233 -279 -233z" />
    <glyph glyph-name="scircumflex" unicode="&#x15d;" horiz-adv-x="472" 
d="M68 609l164 201h12l164 -201h-29l-141 86l-141 -86h-29zM209 -13c-49 0 -93 7 -146 24l-16 178h22l76 -124c27 -44 52 -40 81 -40c46 0 86 27 86 73c0 40 -23 71 -77 83l-53 12c-81 18 -134 76 -134 163c0 106 104 165 215 165c43 0 94 -6 134 -20l19 -170h-22l-85 122
c-21 31 -40 32 -66 32c-47 0 -81 -27 -81 -73c0 -42 26 -73 77 -84l43 -9c108 -23 154 -83 154 -160c0 -101 -97 -172 -227 -172z" />
    <glyph glyph-name="Scedilla" unicode="&#x15e;" horiz-adv-x="632" 
d="M252 -270c-41 0 -88 16 -88 52c0 22 19 41 54 35c0 -34 26 -55 57 -55c24 0 41 13 41 30c0 25 -51 52 -116 81l107 114c-68 0 -146 9 -212 37l-47 246h22l140 -196c18 -26 31 -31 47 -35c18 -4 37 -6 58 -6c79 0 147 38 147 118c0 77 -55 123 -160 156l-54 17
c-125 39 -190 120 -190 236c0 152 145 219 291 219c55 0 110 -9 157 -27l48 -235h-22l-140 186c-16 22 -21 23 -34 26c-10 2 -21 3 -32 3c-74 0 -143 -38 -143 -115c0 -55 28 -102 109 -128l54 -17c145 -46 243 -109 243 -252c0 -133 -117 -214 -235 -230l-66 -70
c56 -29 81 -52 81 -97c0 -46 -42 -93 -117 -93z" />
    <glyph glyph-name="scedilla" unicode="&#x15f;" horiz-adv-x="472" 
d="M209 -13c-49 0 -93 7 -146 24l-16 178h22l76 -124c27 -44 52 -40 81 -40c46 0 86 27 86 73c0 40 -23 71 -77 83l-53 12c-81 18 -134 76 -134 163c0 106 104 165 215 165c43 0 94 -6 134 -20l19 -170h-22l-85 122c-21 31 -40 32 -66 32c-47 0 -81 -27 -81 -73
c0 -42 26 -73 77 -84l43 -9c108 -23 154 -83 154 -160c0 -88 -74 -153 -179 -169l-61 -65c56 -29 81 -52 81 -97c0 -46 -42 -93 -117 -93c-41 0 -88 16 -88 52c0 22 19 41 54 35c0 -34 26 -55 57 -55c24 0 41 13 41 30c0 25 -51 52 -116 81l102 109h-1z" />
    <glyph glyph-name="Scaron" unicode="&#x160;" horiz-adv-x="632" 
d="M145 992h33l140 -64l140 64h33l-165 -159h-16zM310 -13c-69 0 -148 9 -215 37l-47 246h22l140 -196c18 -26 31 -31 47 -35c18 -4 37 -6 58 -6c79 0 147 38 147 118c0 77 -55 123 -160 156l-54 17c-125 39 -190 120 -190 236c0 152 145 219 291 219c55 0 110 -9 157 -27
l48 -235h-22l-140 186c-16 22 -21 23 -34 26c-10 2 -21 3 -32 3c-74 0 -143 -38 -143 -115c0 -55 28 -102 109 -128l54 -17c145 -46 243 -109 243 -252c0 -149 -147 -233 -279 -233z" />
    <glyph glyph-name="scaron" unicode="&#x161;" horiz-adv-x="472" 
d="M68 810h29l141 -86l141 86h29l-164 -201h-12zM209 -13c-49 0 -93 7 -146 24l-16 178h22l76 -124c27 -44 52 -40 81 -40c46 0 86 27 86 73c0 40 -23 71 -77 83l-53 12c-81 18 -134 76 -134 163c0 106 104 165 215 165c43 0 94 -6 134 -20l19 -170h-22l-85 122
c-21 31 -40 32 -66 32c-47 0 -81 -27 -81 -73c0 -42 26 -73 77 -84l43 -9c108 -23 154 -83 154 -160c0 -101 -97 -172 -227 -172z" />
    <glyph glyph-name="uni0162" unicode="&#x162;" horiz-adv-x="774" 
d="M193 0v38l70 4c35 2 44 8 44 47v628h-107c-21 0 -27 -1 -37 -18l-128 -212h-22l22 271h704l22 -271h-22l-128 212c-10 17 -16 18 -37 18h-107v-628c0 -39 9 -45 44 -47l70 -4v-38h-388zM311 -378l-14 28c53 26 91 57 91 102c0 51 -36 73 -90 82c-2 50 27 80 75 80
c61 0 106 -52 106 -111c0 -85 -87 -146 -168 -181z" />
    <glyph glyph-name="uni0163" unicode="&#x163;" horiz-adv-x="429" 
d="M231 -7c-80 0 -133 20 -133 126v306h-101v6l242 200h7v-129h200l-48 -77h-152v-272c0 -75 25 -96 70 -96c31 0 57 13 81 29l16 -26c-39 -32 -109 -67 -182 -67zM133 -378l-14 28c53 26 91 57 91 102c0 51 -36 73 -90 82c-2 50 27 80 75 80c61 0 106 -52 106 -111
c0 -85 -87 -146 -168 -181z" />
    <glyph glyph-name="Tcaron" unicode="&#x164;" horiz-adv-x="774" 
d="M214 992h33l140 -64l140 64h33l-165 -159h-16zM193 0v38l70 4c35 2 44 8 44 47v628h-107c-21 0 -27 -1 -37 -18l-128 -212h-22l22 271h704l22 -271h-22l-128 212c-10 17 -16 18 -37 18h-107v-628c0 -39 9 -45 44 -47l70 -4v-38h-388z" />
    <glyph glyph-name="tcaron" unicode="&#x165;" horiz-adv-x="429" 
d="M341 585l-14 28c53 26 91 57 91 102c0 51 -36 73 -90 82c-2 50 27 80 75 80c61 0 106 -52 106 -111c0 -85 -87 -146 -168 -181zM231 -7c-80 0 -133 20 -133 126v306h-101v6l242 200h7v-129h200l-48 -77h-152v-272c0 -75 25 -96 70 -96c31 0 57 13 81 29l16 -26
c-39 -32 -109 -67 -182 -67z" />
    <glyph glyph-name="Tbar" unicode="&#x166;" horiz-adv-x="774" 
d="M193 0v38l70 4c35 2 44 8 44 47v279h-170v59h170v290h-107c-21 0 -27 -1 -37 -18l-128 -212h-22l22 271h704l22 -271h-22l-128 212c-10 17 -16 18 -37 18h-107v-290h171v-59h-171v-279c0 -39 9 -45 44 -47l70 -4v-38h-388z" />
    <glyph glyph-name="tbar" unicode="&#x167;" horiz-adv-x="469" 
d="M251 -7c-80 0 -133 20 -133 126v180h-77v51h77v75h-101v6l242 200h7v-129h200l-48 -77h-152v-75h152v-51h-152v-146c0 -75 25 -96 70 -96c31 0 57 13 81 29l16 -26c-39 -32 -109 -67 -182 -67z" />
    <glyph glyph-name="Utilde" unicode="&#x168;" horiz-adv-x="855" 
d="M534 829c-67 0 -104 58 -157 58c-32 0 -53 -19 -56 -54h-21c0 72 27 147 96 147c56 0 106 -58 151 -58c31 0 52 16 54 50h21c-1 -108 -44 -143 -88 -143zM433 -13c-202 0 -323 93 -323 308v374c0 39 -9 46 -44 49l-45 4v36h338v-36l-45 -4c-35 -3 -44 -10 -44 -49v-377
c0 -176 74 -232 205 -232c137 0 215 73 215 246v363c0 39 -9 46 -44 49l-45 4v36h234v-36l-45 -4c-35 -3 -44 -10 -44 -49v-373c0 -201 -112 -309 -313 -309z" />
    <glyph glyph-name="utilde" unicode="&#x169;" horiz-adv-x="610" 
d="M373 645c-67 0 -104 58 -157 58c-32 0 -53 -19 -56 -54h-21c0 72 27 147 96 147c56 0 106 -58 151 -58c31 0 52 16 54 50h21c-1 -108 -44 -143 -88 -143zM224 -13c-81 0 -142 43 -142 187v271l-65 25v32h213v-300c0 -104 28 -127 68 -127s78 24 78 128v242l-65 25v32h213
v-436h73v-32l-221 -45v118c-22 -73 -72 -120 -152 -120z" />
    <glyph glyph-name="Umacron" unicode="&#x16a;" horiz-adv-x="855" 
d="M304 872v68h314v-68h-314zM433 -13c-202 0 -323 93 -323 308v374c0 39 -9 46 -44 49l-45 4v36h338v-36l-45 -4c-35 -3 -44 -10 -44 -49v-377c0 -176 74 -232 205 -232c137 0 215 73 215 246v363c0 39 -9 46 -44 49l-45 4v36h234v-36l-45 -4c-35 -3 -44 -10 -44 -49v-373
c0 -201 -112 -309 -313 -309z" />
    <glyph glyph-name="umacron" unicode="&#x16b;" horiz-adv-x="610" 
d="M143 669v68h314v-68h-314zM224 -13c-81 0 -142 43 -142 187v271l-65 25v32h213v-300c0 -104 28 -127 68 -127s78 24 78 128v242l-65 25v32h213v-436h73v-32l-221 -45v118c-22 -73 -72 -120 -152 -120z" />
    <glyph glyph-name="Ubreve" unicode="&#x16c;" horiz-adv-x="855" 
d="M461 827c-47 0 -150 20 -163 160h58c9 -69 52 -106 105 -106s96 37 105 106h58c-13 -140 -116 -160 -163 -160zM433 -13c-202 0 -323 93 -323 308v374c0 39 -9 46 -44 49l-45 4v36h338v-36l-45 -4c-35 -3 -44 -10 -44 -49v-377c0 -176 74 -232 205 -232
c137 0 215 73 215 246v363c0 39 -9 46 -44 49l-45 4v36h234v-36l-45 -4c-35 -3 -44 -10 -44 -49v-373c0 -201 -112 -309 -313 -309z" />
    <glyph glyph-name="ubreve" unicode="&#x16d;" horiz-adv-x="610" 
d="M300 628c-47 0 -150 20 -163 160h58c9 -69 52 -106 105 -106s96 37 105 106h58c-13 -140 -116 -160 -163 -160zM224 -13c-81 0 -142 43 -142 187v271l-65 25v32h213v-300c0 -104 28 -127 68 -127s78 24 78 128v242l-65 25v32h213v-436h73v-32l-221 -45v118
c-22 -73 -72 -120 -152 -120z" />
    <glyph glyph-name="Uring" unicode="&#x16e;" horiz-adv-x="855" 
d="M461 837c-68 0 -124 53 -124 120c0 66 56 121 124 121c71 0 127 -55 127 -121c0 -67 -56 -120 -127 -120zM461 890c42 0 66 26 66 67s-24 66 -66 66c-40 0 -65 -25 -65 -66s25 -67 65 -67zM433 -13c-202 0 -323 93 -323 308v374c0 39 -9 46 -44 49l-45 4v36h338v-36
l-45 -4c-35 -3 -44 -10 -44 -49v-377c0 -176 74 -232 205 -232c137 0 215 73 215 246v363c0 39 -9 46 -44 49l-45 4v36h234v-36l-45 -4c-35 -3 -44 -10 -44 -49v-373c0 -201 -112 -309 -313 -309z" />
    <glyph glyph-name="uring" unicode="&#x16f;" horiz-adv-x="610" 
d="M300 585c-68 0 -124 53 -124 120c0 66 56 121 124 121c71 0 127 -55 127 -121c0 -67 -56 -120 -127 -120zM300 638c42 0 66 26 66 67s-24 66 -66 66c-40 0 -65 -25 -65 -66s25 -67 65 -67zM224 -13c-81 0 -142 43 -142 187v271l-65 25v32h213v-300
c0 -104 28 -127 68 -127s78 24 78 128v242l-65 25v32h213v-436h73v-32l-221 -45v118c-22 -73 -72 -120 -152 -120z" />
    <glyph glyph-name="Uhungarumlaut" unicode="&#x170;" horiz-adv-x="855" 
d="M363 843l99 129h183v-3l-251 -126h-31zM573 843l99 129h183v-3l-251 -126h-31zM433 -13c-202 0 -323 93 -323 308v374c0 39 -9 46 -44 49l-45 4v36h338v-36l-45 -4c-35 -3 -44 -10 -44 -49v-377c0 -176 74 -232 205 -232c137 0 215 73 215 246v363c0 39 -9 46 -44 49
l-45 4v36h234v-36l-45 -4c-35 -3 -44 -10 -44 -49v-373c0 -201 -112 -309 -313 -309z" />
    <glyph glyph-name="uhungarumlaut" unicode="&#x171;" horiz-adv-x="610" 
d="M199 609l110 179h148v-11l-230 -168h-28zM378 609l110 179h148v-11l-230 -168h-28zM224 -13c-81 0 -142 43 -142 187v271l-65 25v32h213v-300c0 -104 28 -127 68 -127s78 24 78 128v242l-65 25v32h213v-436h73v-32l-221 -45v118c-22 -73 -72 -120 -152 -120z" />
    <glyph glyph-name="Uogonek" unicode="&#x172;" horiz-adv-x="855" 
d="M433 -13c-202 0 -323 93 -323 308v374c0 39 -9 46 -44 49l-45 4v36h338v-36l-45 -4c-35 -3 -44 -10 -44 -49v-377c0 -176 74 -232 205 -232c137 0 215 73 215 246v363c0 39 -9 46 -44 49l-45 4v36h234v-36l-45 -4c-35 -3 -44 -10 -44 -49v-373c0 -167 -78 -270 -220 -300
c-31 -33 -60 -77 -60 -121c0 -40 31 -57 72 -57c15 0 31 2 48 6v-31c-22 -11 -64 -27 -102 -27c-56 0 -110 30 -110 85c0 49 58 102 114 139c-17 -2 -36 -3 -55 -3z" />
    <glyph glyph-name="uogonek" unicode="&#x173;" horiz-adv-x="610" 
d="M224 -13c-81 0 -142 43 -142 187v271l-65 25v32h213v-300c0 -104 28 -127 68 -127s78 24 78 128v242l-65 25v32h213v-436h73v-32l-194 -39c-27 -32 -52 -71 -52 -111s31 -57 72 -57c15 0 31 2 48 6v-31c-22 -11 -64 -27 -102 -27c-56 0 -110 30 -110 85
c0 50 60 104 117 141v106c-22 -73 -72 -120 -152 -120z" />
    <glyph glyph-name="Wcircumflex" unicode="&#x174;" horiz-adv-x="1171" 
d="M412 833l165 159h16l165 -159h-33l-140 64l-140 -64h-33zM373 -31l-301 704c-15 35 -29 41 -64 45l-33 4v36h345v-36l-43 -4c-35 -3 -49 -10 -34 -45l196 -469l127 295l-103 259h322v-36l-81 -4c-35 -2 -47 -10 -34 -45l173 -469l198 469c15 35 1 42 -34 45l-43 4v36h232
v-36l-33 -4c-35 -4 -49 -10 -64 -45l-302 -704h-20l-184 464l-200 -464h-20z" />
    <glyph glyph-name="wcircumflex" unicode="&#x175;" horiz-adv-x="866" 
d="M265 609l164 201h12l164 -201h-29l-141 86l-141 -86h-29zM254 -12l-188 425c-16 37 -24 51 -59 55l-16 2v32h286v-32l-21 -2c-35 -3 -46 -18 -32 -49l108 -242l75 170l-68 155h250v-32l-21 -2c-35 -3 -46 -18 -32 -49l108 -241l92 213c23 54 8 72 -27 76l-28 3v32h199
v-32l-20 -2c-36 -4 -49 -18 -68 -60l-186 -420h-40l-136 307l-136 -307h-40z" />
    <glyph glyph-name="Ycircumflex" unicode="&#x176;" horiz-adv-x="760" 
d="M254 833l165 159h16l165 -159h-33l-140 64l-140 -64h-33zM186 0v38l70 4c35 2 44 8 44 47v253l-220 331c-22 33 -29 41 -64 45l-33 4v36h350v-36l-43 -4c-35 -3 -55 -13 -34 -45l180 -276l184 276c22 33 1 42 -34 45l-43 4v36h234v-36l-33 -4c-35 -4 -42 -12 -64 -45
l-220 -332v-252c0 -39 9 -45 44 -47l70 -4v-38h-388z" />
    <glyph glyph-name="ycircumflex" unicode="&#x177;" horiz-adv-x="555" 
d="M146 609l164 201h12l164 -201h-29l-141 86l-141 -86h-29zM210 -88l38 83l-179 418c-16 37 -24 51 -59 55l-16 2v32h286v-32l-21 -2c-35 -3 -45 -18 -32 -49l102 -247l99 219c24 54 8 72 -27 76l-28 3v32h198v-32l-20 -2c-36 -4 -49 -18 -68 -60l-248 -542
c-39 -84 -70 -121 -126 -121c-44 0 -71 34 -71 75c0 57 65 103 172 92z" />
    <glyph glyph-name="Ydieresis" unicode="&#x178;" horiz-adv-x="760" 
d="M314 837c-40 0 -70 31 -70 71c0 41 30 71 70 71c39 0 70 -30 70 -71c0 -40 -31 -71 -70 -71zM540 837c-40 0 -70 31 -70 71c0 41 30 71 70 71c39 0 70 -30 70 -71c0 -40 -31 -71 -70 -71zM186 0v38l70 4c35 2 44 8 44 47v253l-220 331c-22 33 -29 41 -64 45l-33 4v36h350
v-36l-43 -4c-35 -3 -55 -13 -34 -45l180 -276l184 276c22 33 1 42 -34 45l-43 4v36h234v-36l-33 -4c-35 -4 -42 -12 -64 -45l-220 -332v-252c0 -39 9 -45 44 -47l70 -4v-38h-388z" />
    <glyph glyph-name="Zacute" unicode="&#x179;" horiz-adv-x="730" 
d="M368 843l99 129h183v-3l-251 -126h-31zM10 0v12l484 702h-210c-21 0 -24 -3 -37 -18l-183 -209h-22l77 271h572v-12l-481 -702h262c21 0 24 3 37 18l183 209h22l-77 -271h-627z" />
    <glyph glyph-name="zacute" unicode="&#x17a;" horiz-adv-x="547" 
d="M254 609l110 179h148v-11l-230 -168h-28zM21 0l302 462h-110c-29 0 -44 -5 -58 -26l-101 -152h-22l41 218h443l-301 -462h101c31 0 43 5 64 30l128 155h22l-67 -225h-442z" />
    <glyph glyph-name="Zdotaccent" unicode="&#x17b;" horiz-adv-x="730" 
d="M386 837c-40 0 -70 31 -70 71c0 41 30 71 70 71c39 0 70 -30 70 -71c0 -40 -31 -71 -70 -71zM10 0v12l484 702h-210c-21 0 -24 -3 -37 -18l-183 -209h-22l77 271h572v-12l-481 -702h262c21 0 24 3 37 18l183 209h22l-77 -271h-627z" />
    <glyph glyph-name="zdotaccent" unicode="&#x17c;" horiz-adv-x="547" 
d="M286 636c-39 0 -68 30 -68 69c0 40 29 69 68 69c38 0 68 -29 68 -69c0 -39 -30 -69 -68 -69zM21 0l302 462h-110c-29 0 -44 -5 -58 -26l-101 -152h-22l41 218h443l-301 -462h101c31 0 43 5 64 30l128 155h22l-67 -225h-442z" />
    <glyph glyph-name="Zcaron" unicode="&#x17d;" horiz-adv-x="730" 
d="M213 992h33l140 -64l140 64h33l-165 -159h-16zM10 0v12l484 702h-210c-21 0 -24 -3 -37 -18l-183 -209h-22l77 271h572v-12l-481 -702h262c21 0 24 3 37 18l183 209h22l-77 -271h-627z" />
    <glyph glyph-name="zcaron" unicode="&#x17e;" horiz-adv-x="547" 
d="M116 810h29l141 -86l141 86h29l-164 -201h-12zM21 0l302 462h-110c-29 0 -44 -5 -58 -26l-101 -152h-22l41 218h443l-301 -462h101c31 0 43 5 64 30l128 155h22l-67 -225h-442z" />
    <glyph glyph-name="uni018F" unicode="&#x18f;" horiz-adv-x="826" 
d="M410 -13c-182 0 -351 117 -372 318h593c-1 256 -142 370 -303 370c-108 0 -237 -59 -259 -227h-35c12 211 168 331 367 331c198 0 386 -130 387 -396c1 -250 -169 -396 -378 -396zM410 35c113 0 206 87 219 207h-416c17 -131 94 -207 197 -207z" />
    <glyph glyph-name="Scommaaccent" unicode="&#x218;" horiz-adv-x="632" 
d="M310 -13c-69 0 -148 9 -215 37l-47 246h22l140 -196c18 -26 31 -31 47 -35c18 -4 37 -6 58 -6c79 0 147 38 147 118c0 77 -55 123 -160 156l-54 17c-125 39 -190 120 -190 236c0 152 145 219 291 219c55 0 110 -9 157 -27l48 -235h-22l-140 186c-16 22 -21 23 -34 26
c-10 2 -21 3 -32 3c-74 0 -143 -38 -143 -115c0 -55 28 -102 109 -128l54 -17c145 -46 243 -109 243 -252c0 -149 -147 -233 -279 -233zM264 -378l-14 28c53 26 91 57 91 102c0 51 -36 73 -90 82c-2 50 27 80 75 80c61 0 106 -52 106 -111c0 -85 -87 -146 -168 -181z" />
    <glyph glyph-name="scommaaccent" unicode="&#x219;" horiz-adv-x="472" 
d="M209 -13c-49 0 -93 7 -146 24l-16 178h22l76 -124c27 -44 52 -40 81 -40c46 0 86 27 86 73c0 40 -23 71 -77 83l-53 12c-81 18 -134 76 -134 163c0 106 104 165 215 165c43 0 94 -6 134 -20l19 -170h-22l-85 122c-21 31 -40 32 -66 32c-47 0 -81 -27 -81 -73
c0 -42 26 -73 77 -84l43 -9c108 -23 154 -83 154 -160c0 -101 -97 -172 -227 -172zM169 -378l-14 28c53 26 91 57 91 102c0 51 -36 73 -90 82c-2 50 27 80 75 80c61 0 106 -52 106 -111c0 -85 -87 -146 -168 -181z" />
    <glyph glyph-name="Tcommaaccent" unicode="&#x21a;" horiz-adv-x="774" 
d="M193 0v38l70 4c35 2 44 8 44 47v628h-107c-21 0 -27 -1 -37 -18l-128 -212h-22l22 271h704l22 -271h-22l-128 212c-10 17 -16 18 -37 18h-107v-628c0 -39 9 -45 44 -47l70 -4v-38h-388zM311 -378l-14 28c53 26 91 57 91 102c0 51 -36 73 -90 82c-2 50 27 80 75 80
c61 0 106 -52 106 -111c0 -85 -87 -146 -168 -181z" />
    <glyph glyph-name="tcommaaccent" unicode="&#x21b;" horiz-adv-x="429" 
d="M231 -7c-80 0 -133 20 -133 126v306h-101v6l242 200h7v-129h200l-48 -77h-152v-272c0 -75 25 -96 70 -96c31 0 57 13 81 29l16 -26c-39 -32 -109 -67 -182 -67zM133 -378l-14 28c53 26 91 57 91 102c0 51 -36 73 -90 82c-2 50 27 80 75 80c61 0 106 -52 106 -111
c0 -85 -87 -146 -168 -181z" />
    <glyph glyph-name="uni0232" unicode="&#x232;" horiz-adv-x="760" 
d="M270 872v68h314v-68h-314zM186 0v38l70 4c35 2 44 8 44 47v253l-220 331c-22 33 -29 41 -64 45l-33 4v36h350v-36l-43 -4c-35 -3 -55 -13 -34 -45l180 -276l184 276c22 33 1 42 -34 45l-43 4v36h234v-36l-33 -4c-35 -4 -42 -12 -64 -45l-220 -332v-252
c0 -39 9 -45 44 -47l70 -4v-38h-388z" />
    <glyph glyph-name="uni0233" unicode="&#x233;" horiz-adv-x="555" 
d="M159 669v68h314v-68h-314zM210 -88l38 83l-179 418c-16 37 -24 51 -59 55l-16 2v32h286v-32l-21 -2c-35 -3 -45 -18 -32 -49l102 -247l99 219c24 54 8 72 -27 76l-28 3v32h198v-32l-20 -2c-36 -4 -49 -18 -68 -60l-248 -542c-39 -84 -70 -121 -126 -121
c-44 0 -71 34 -71 75c0 57 65 103 172 92z" />
    <glyph glyph-name="dotlessj" unicode="&#x237;" horiz-adv-x="307" 
d="M-32 -263l-19 27c92 81 139 125 139 278v315l-76 72v6l224 94v-480c0 -108 -37 -158 -110 -210c-35 -25 -99 -67 -158 -102z" />
    <glyph glyph-name="uni0259" unicode="&#x259;" horiz-adv-x="578" 
d="M291 521c165 0 264 -115 264 -263c0 -166 -131 -271 -261 -271c-126 0 -217 68 -244 205h355c-1 131 -71 233 -185 233c-66 0 -139 -38 -159 -123h-29c23 146 117 219 259 219zM300 21c56 0 94 47 103 129h-189c3 -93 36 -129 86 -129z" />
    <glyph glyph-name="uni02BB" unicode="&#x2bb;" horiz-adv-x="282" 
d="M230 809l17 -33c-62 -36 -94 -81 -94 -130c0 -48 31 -78 96 -92c2 -59 -40 -111 -105 -111c-58 0 -103 40 -103 112c0 94 74 193 189 254z" />
    <glyph glyph-name="uni02BC" unicode="&#x2bc;" horiz-adv-x="290" 
d="M68 429l-17 33c62 36 94 81 94 130c0 48 -31 78 -96 92c-2 59 40 111 105 111c58 0 103 -40 103 -112c0 -94 -74 -193 -189 -254z" />
    <glyph glyph-name="circumflex" unicode="&#x2c6;" 
d="M-170 609l164 201h12l164 -201h-29l-141 86l-141 -86h-29z" />
    <glyph glyph-name="caron" unicode="&#x2c7;" 
d="M-170 810h29l141 -86l141 86h29l-164 -201h-12z" />
    <glyph glyph-name="breve" unicode="&#x2d8;" 
d="M-163 628c-47 0 -150 20 -163 160h58c9 -69 52 -106 105 -106s96 37 105 106h58c-13 -140 -116 -160 -163 -160z" />
    <glyph glyph-name="dotaccent" unicode="&#x2d9;" 
d="M-68 636c-39 0 -68 30 -68 69c0 40 29 69 68 69c38 0 68 -29 68 -69c0 -39 -30 -69 -68 -69z" />
    <glyph glyph-name="ring" unicode="&#x2da;" 
d="M-124 585c-68 0 -124 53 -124 120c0 66 56 121 124 121c71 0 127 -55 127 -121c0 -67 -56 -120 -127 -120zM-124 638c42 0 66 26 66 67s-24 66 -66 66c-40 0 -65 -25 -65 -66s25 -67 65 -67z" />
    <glyph glyph-name="ogonek" unicode="&#x2db;" 
d="M-3 -234c-56 0 -110 30 -110 85c0 54 70 112 130 149h30c-33 -33 -68 -79 -68 -125c0 -40 31 -57 72 -57c15 0 31 2 48 6v-31c-22 -11 -64 -27 -102 -27z" />
    <glyph glyph-name="tilde" unicode="&#x2dc;" 
d="M73 645c-67 0 -104 58 -157 58c-32 0 -53 -19 -56 -54h-21c0 72 27 147 96 147c56 0 106 -58 151 -58c31 0 52 16 54 50h21c-1 -108 -44 -143 -88 -143z" />
    <glyph glyph-name="hungarumlaut" unicode="&#x2dd;" 
d="M-234 609l110 179h148v-11l-230 -168h-28zM-55 609l110 179h148v-11l-230 -168h-28z" />
    <glyph glyph-name="uni0401" unicode="&#x401;" horiz-adv-x="777" 
d="M281 837c-40 0 -70 31 -70 71c0 41 30 71 70 71c39 0 70 -30 70 -71c0 -40 -31 -71 -70 -71zM507 837c-40 0 -70 31 -70 71c0 41 30 71 70 71c39 0 70 -30 70 -71c0 -40 -31 -71 -70 -71zM42 0v36l45 4c35 3 44 10 44 49v580c0 39 -9 46 -44 49l-45 4v36h596l37 -271h-22
l-143 207c-11 16 -16 18 -37 18h-182v-293h116c9 0 14 3 17 11l48 131h22v-336h-22l-48 131c-3 8 -8 11 -17 11h-116v-321h227c18 0 20 2 31 14l184 211h22l-75 -271h-638z" />
    <glyph glyph-name="uni0402" unicode="&#x402;" horiz-adv-x="947" 
d="M173 0v38l70 4c35 2 44 8 44 47v628h-111c-17 0 -20 -2 -29 -16l-108 -169h-22l18 226h694l18 -226h-22l-105 169c-9 15 -12 16 -28 16h-145v-317c50 36 123 57 211 57c110 0 239 -36 239 -234v-9c0 -108 -51 -147 -121 -203c-35 -28 -112 -80 -164 -116l-23 30
c118 100 148 123 148 251v29c0 124 -55 184 -162 184c-52 0 -96 -11 -128 -31v-269c0 -39 9 -45 44 -47l70 -4v-38h-388z" />
    <glyph glyph-name="uni0403" unicode="&#x403;" horiz-adv-x="701" 
d="M319 843l99 129h183v-3l-251 -126h-31zM295 712v-623c0 -39 9 -45 44 -47l80 -4v-38h-373v36l45 4c35 3 44 10 44 49v580c0 39 -9 46 -44 49l-45 4v36h598l37 -271h-22l-143 207c-11 16 -16 18 -37 18h-184z" />
    <glyph glyph-name="uni0404" unicode="&#x404;" horiz-adv-x="818" 
d="M481 -13c-264 0 -441 159 -441 396s179 396 447 396c82 0 172 -14 231 -35l46 -262h-22l-132 192c-23 33 -43 44 -59 50c-14 5 -43 9 -72 9c-129 0 -262 -78 -262 -314h228c9 0 14 3 17 11l48 131h22v-336h-22l-48 131c-3 8 -8 11 -17 11h-226c12 -182 98 -334 276 -334
c29 0 58 4 72 9c16 6 36 17 59 50l132 192h22l-53 -262c-59 -21 -161 -35 -246 -35z" />
    <glyph glyph-name="uni0405" unicode="&#x405;" horiz-adv-x="650" 
d="M314 -13c-69 0 -148 9 -215 37l-47 246h22l140 -196c18 -26 31 -31 47 -35c18 -4 37 -6 58 -6c79 0 147 38 147 118c0 77 -55 123 -160 156l-54 17c-125 39 -190 120 -190 236c0 152 145 219 291 219c55 0 110 -9 157 -27l48 -235h-22l-140 186c-16 22 -21 23 -34 26
c-10 2 -21 3 -32 3c-74 0 -143 -38 -143 -115c0 -55 28 -102 109 -128l54 -17c145 -46 243 -109 243 -252c0 -149 -147 -233 -279 -233z" />
    <glyph glyph-name="uni0406" unicode="&#x406;" horiz-adv-x="430" 
d="M46 0v36l45 4c35 3 44 10 44 49v580c0 39 -9 46 -44 49l-45 4v36h338v-36l-45 -4c-35 -3 -44 -10 -44 -49v-580c0 -39 9 -46 44 -49l45 -4v-36h-338z" />
    <glyph glyph-name="uni0407" unicode="&#x407;" horiz-adv-x="430" 
d="M98 837c-40 0 -70 31 -70 71c0 41 30 71 70 71c39 0 70 -30 70 -71c0 -40 -31 -71 -70 -71zM324 837c-40 0 -70 31 -70 71c0 41 30 71 70 71c39 0 70 -30 70 -71c0 -40 -31 -71 -70 -71zM42 0v36l45 4c35 3 44 10 44 49v580c0 39 -9 46 -44 49l-45 4v36h338v-36l-45 -4
c-35 -3 -44 -10 -44 -49v-580c0 -39 9 -46 44 -49l45 -4v-36h-338z" />
    <glyph glyph-name="uni0408" unicode="&#x408;" horiz-adv-x="422" 
d="M14 -105l-23 30c118 100 148 123 148 251v497c0 37 -7 41 -42 42l-53 2v41h350v-41l-53 -2c-35 -1 -42 -5 -42 -42v-459c0 -108 -51 -147 -121 -203c-35 -28 -112 -80 -164 -116z" />
    <glyph glyph-name="uni0409" unicode="&#x409;" horiz-adv-x="1091" 
d="M645 445h67c242 0 369 -67 369 -215c0 -140 -125 -230 -369 -230h-316v36l45 4c35 3 44 10 44 49v623h-207c0 -292 -15 -483 -83 -628c-32 -68 -69 -96 -112 -96c-45 0 -68 30 -68 61c0 55 46 94 148 108c48 130 58 285 58 512c0 39 -9 46 -44 49l-45 4v36h622v-36
l-65 -4c-35 -2 -44 -10 -44 -49v-224zM645 46h35c152 0 224 52 224 176c0 129 -72 177 -212 177h-47v-353z" />
    <glyph glyph-name="uni040A" unicode="&#x40a;" horiz-adv-x="1201" 
d="M46 0v36l45 4c35 3 44 10 44 49v580c0 39 -9 46 -44 49l-45 4v36h338v-36l-45 -4c-35 -3 -44 -10 -44 -49v-233h300v233c0 39 -9 46 -44 49l-45 4v36h358v-36l-65 -4c-35 -2 -44 -10 -44 -49v-233h67c242 0 369 -65 369 -210c0 -138 -125 -226 -369 -226h-316v36l45 4
c35 3 44 10 44 49v288h-300v-288c0 -39 9 -46 44 -49l45 -4v-36h-338zM755 46h35c152 0 224 51 224 172c0 125 -72 172 -212 172h-47v-344z" />
    <glyph glyph-name="uni040B" unicode="&#x40b;" horiz-adv-x="1002" 
d="M173 0v38l70 4c35 2 44 8 44 47v628h-111c-17 0 -20 -2 -29 -16l-108 -169h-22l18 226h694l18 -226h-22l-105 169c-9 15 -12 16 -28 16h-145v-317c50 36 121 57 206 57c108 0 234 -36 234 -234v-134c0 -39 9 -46 44 -49l45 -4v-36h-249v205c0 124 -53 184 -157 184
c-50 0 -92 -11 -123 -30v-270c0 -39 9 -45 44 -47l70 -4v-38h-388z" />
    <glyph glyph-name="uni040C" unicode="&#x40c;" horiz-adv-x="832" 
d="M383 843l99 129h183v-3l-251 -126h-31zM46 0v36l45 4c35 3 44 10 44 49v580c0 39 -9 46 -44 49l-45 4v36h338v-36l-45 -4c-35 -3 -44 -10 -44 -49v-294l306 313c14 14 9 28 -21 30l-73 4v36h298v-36l-51 -3c-45 -3 -65 -13 -88 -36l-226 -231l412 -452h-223l-334 367
v-278c0 -39 9 -46 44 -49l45 -4v-36h-338z" />
    <glyph glyph-name="uni040E" unicode="&#x40e;" horiz-adv-x="755" 
d="M432 827c-125 0 -180 76 -180 160h113c0 -107 38 -126 67 -126c30 0 67 19 67 126h113c0 -94 -73 -160 -180 -160zM358 84c-35 -67 -69 -96 -112 -96c-45 0 -68 28 -68 61c0 55 44 96 161 97l18 34l-281 493c-19 34 -29 41 -64 45l-33 4v36h345v-36l-43 -4
c-35 -3 -53 -11 -34 -45l190 -335l174 335c18 34 1 42 -34 45l-43 4v36h242v-36l-33 -4c-50 -6 -65 -16 -81 -48z" />
    <glyph glyph-name="uni040F" unicode="&#x40f;" horiz-adv-x="901" 
d="M375 -12c-4 11 -11 12 -26 12h-303v36l45 4c35 3 44 10 44 49v580c0 39 -9 46 -44 49l-45 4v36h338v-36l-45 -4c-35 -3 -44 -10 -44 -49v-623h311v623c0 39 -9 46 -44 49l-45 4v36h338v-36l-45 -4c-35 -3 -44 -10 -44 -49v-580c0 -39 9 -46 44 -49l45 -4v-36h-302
c-15 0 -22 -1 -26 -12l-65 -167h-22z" />
    <glyph glyph-name="uni0410" unicode="&#x410;" horiz-adv-x="766" 
d="M689 85c14 -35 29 -41 64 -45l33 -4v-36h-344v36l43 4c35 3 48 10 34 45l-64 162h-257l-65 -162c-14 -35 -1 -42 34 -45l43 -4v-36h-231v36l33 4c35 4 50 10 64 45l297 723h20zM327 568l-105 -262h209z" />
    <glyph glyph-name="uni0411" unicode="&#x411;" horiz-adv-x="764" 
d="M461 712h-166v-285h48c254 0 388 -60 388 -202c0 -137 -122 -225 -388 -225h-297v36l45 4c35 3 44 10 44 49v580c0 39 -9 46 -44 49l-45 4v36h580l34 -256h-22l-140 192c-12 16 -16 18 -37 18zM295 46h22c165 0 237 51 237 171c0 127 -76 166 -225 166h-34v-337z" />
    <glyph glyph-name="uni0412" unicode="&#x412;" horiz-adv-x="764" 
d="M46 0v36l45 4c35 3 44 10 44 49v580c0 39 -9 46 -44 49l-45 4v36h331c187 0 294 -51 294 -168c0 -97 -80 -166 -224 -184v-2c175 0 283 -61 283 -180c0 -140 -129 -224 -320 -224h-364zM295 424h69c103 0 139 56 139 146s-36 144 -138 144h-70v-290zM295 44h75
c114 0 183 40 183 167s-69 169 -183 169h-75v-336z" />
    <glyph glyph-name="uni0413" unicode="&#x413;" horiz-adv-x="701" 
d="M295 712v-623c0 -39 9 -45 44 -47l80 -4v-38h-373v36l45 4c35 3 44 10 44 49v580c0 39 -9 46 -44 49l-45 4v36h598l37 -271h-22l-143 207c-11 16 -16 18 -37 18h-184z" />
    <glyph glyph-name="uni0414" unicode="&#x414;" horiz-adv-x="798" 
d="M147 -12l-110 -167h-22l8 225h85c76 185 99 464 99 623c0 39 -9 46 -44 49l-45 4v36h617v-36l-45 -4c-35 -3 -44 -10 -44 -49v-623h104l8 -225h-22l-110 167c-6 9 -11 12 -26 12h-427c-16 0 -20 -3 -26 -12zM486 46v666h-222c-1 -192 -23 -476 -97 -666h319z" />
    <glyph glyph-name="uni0415" unicode="&#x415;" horiz-adv-x="777" 
d="M46 0v36l45 4c35 3 44 10 44 49v580c0 39 -9 46 -44 49l-45 4v36h596l37 -271h-22l-143 207c-11 16 -16 18 -37 18h-182v-293h116c9 0 14 3 17 11l48 131h22v-336h-22l-48 131c-3 8 -8 11 -17 11h-116v-321h227c18 0 20 2 31 14l184 211h22l-75 -271h-638z" />
    <glyph glyph-name="uni0416" unicode="&#x416;" horiz-adv-x="1120" 
d="M181 0h-201l358 446l-217 237c-22 24 -40 33 -85 36l-51 3v36h288v-36l-63 -4c-30 -2 -34 -15 -21 -30l286 -313v294c0 39 -9 46 -44 49l-45 4v36h338v-36l-45 -4c-35 -3 -44 -10 -44 -49v-294l286 313c13 15 9 28 -21 30l-63 4v36h288v-36l-51 -3
c-45 -3 -66 -12 -88 -36l-210 -230l364 -453h-211l-294 366v-277c0 -39 9 -46 44 -49l45 -4v-36h-338v36l45 4c35 3 44 10 44 49v277z" />
    <glyph glyph-name="uni0417" unicode="&#x417;" horiz-adv-x="675" 
d="M312 33c91 0 152 47 152 163c0 138 -67 184 -178 184h-73v44h67c107 0 144 60 144 156c0 95 -39 152 -117 152c-11 0 -22 -1 -32 -3c-13 -3 -18 -4 -34 -26l-140 -186h-22l48 235c47 18 102 27 187 27c159 0 278 -54 278 -179c0 -102 -85 -176 -229 -194v-2
c152 0 278 -66 278 -195c0 -140 -135 -222 -334 -222c-69 0 -148 9 -215 37l-47 246h22l140 -196c18 -26 31 -31 47 -35c18 -4 37 -6 58 -6z" />
    <glyph glyph-name="uni0418" unicode="&#x418;" horiz-adv-x="921" 
d="M46 0v36l45 4c35 3 44 10 44 49v580c0 39 -9 46 -44 49l-45 4v36h338v-36l-45 -4c-35 -3 -44 -10 -44 -49v-462l331 440v22c0 39 -9 46 -44 49l-45 4v36h338v-36l-45 -4c-35 -3 -44 -10 -44 -49v-580c0 -39 9 -46 44 -49l45 -4v-36h-338v36l45 4c35 3 44 10 44 49v469
l-331 -440v-29c0 -39 9 -46 44 -49l45 -4v-36h-338z" />
    <glyph glyph-name="uni0419" unicode="&#x419;" horiz-adv-x="921" 
d="M461 827c-125 0 -180 76 -180 160h113c0 -107 38 -126 67 -126c30 0 67 19 67 126h113c0 -94 -73 -160 -180 -160zM46 0v36l45 4c35 3 44 10 44 49v580c0 39 -9 46 -44 49l-45 4v36h338v-36l-45 -4c-35 -3 -44 -10 -44 -49v-462l331 440v22c0 39 -9 46 -44 49l-45 4v36
h338v-36l-45 -4c-35 -3 -44 -10 -44 -49v-580c0 -39 9 -46 44 -49l45 -4v-36h-338v36l45 4c35 3 44 10 44 49v469l-331 -440v-29c0 -39 9 -46 44 -49l45 -4v-36h-338z" />
    <glyph glyph-name="uni041A" unicode="&#x41a;" horiz-adv-x="832" 
d="M46 0v36l45 4c35 3 44 10 44 49v580c0 39 -9 46 -44 49l-45 4v36h338v-36l-45 -4c-35 -3 -44 -10 -44 -49v-294l306 313c14 14 9 28 -21 30l-73 4v36h298v-36l-51 -3c-45 -3 -65 -13 -88 -36l-226 -231l412 -452h-223l-334 367v-278c0 -39 9 -46 44 -49l45 -4v-36h-338z
" />
    <glyph glyph-name="uni041B" unicode="&#x41b;" horiz-adv-x="800" 
d="M195 84c-32 -68 -69 -96 -112 -96c-45 0 -68 30 -68 61c0 55 46 94 147 108c49 130 59 285 59 512c0 39 -9 46 -44 49l-45 4v36h622v-36l-45 -4c-35 -3 -44 -10 -44 -49v-580c0 -39 9 -46 44 -49l45 -4v-36h-338v36l45 4c35 3 44 10 44 49v623h-227
c0 -292 -15 -483 -83 -628z" />
    <glyph glyph-name="uni041C" unicode="&#x41c;" horiz-adv-x="1043" 
d="M22 0v36l45 4c35 3 41 10 44 49l40 580c3 39 -9 46 -44 49l-45 4v36h295l172 -393l165 393h279v-36l-45 -4c-35 -3 -47 -10 -44 -49l40 -580c3 -39 9 -46 44 -49l45 -4v-36h-338v36l45 4c35 3 47 10 44 49l-40 609l-252 -589h-6l-259 586l-40 -606c-3 -39 9 -46 44 -49
l45 -4v-36h-234z" />
    <glyph glyph-name="uni041D" unicode="&#x41d;" horiz-adv-x="911" 
d="M46 0v36l45 4c35 3 44 10 44 49v580c0 39 -9 46 -44 49l-45 4v36h338v-36l-45 -4c-35 -3 -44 -10 -44 -49v-242h321v242c0 39 -9 46 -44 49l-45 4v36h338v-36l-45 -4c-35 -3 -44 -10 -44 -49v-580c0 -39 9 -46 44 -49l45 -4v-36h-338v36l45 4c35 3 44 10 44 49v279h-321
v-279c0 -39 9 -46 44 -49l45 -4v-36h-338z" />
    <glyph glyph-name="uni041E" unicode="&#x41e;" horiz-adv-x="900" 
d="M450 -13c-214 0 -410 146 -410 396s196 396 410 396s410 -146 410 -396s-196 -396 -410 -396zM450 35c143 0 232 122 232 348s-89 348 -232 348s-232 -122 -232 -348s89 -348 232 -348z" />
    <glyph glyph-name="uni041F" unicode="&#x41f;" horiz-adv-x="901" 
d="M46 758h809v-36l-45 -4c-35 -3 -44 -10 -44 -49v-580c0 -39 9 -46 44 -49l45 -4v-36h-338v36l45 4c35 3 44 10 44 49v623h-311v-623c0 -39 9 -46 44 -49l45 -4v-36h-338v36l45 4c35 3 44 10 44 49v580c0 39 -9 46 -44 49l-45 4v36z" />
    <glyph glyph-name="uni0420" unicode="&#x420;" horiz-adv-x="728" 
d="M46 0v36l45 4c35 3 44 10 44 49v580c0 39 -9 46 -44 49l-45 4v36h330c190 0 336 -43 336 -204s-146 -214 -336 -214h-56v45h49c119 0 166 53 166 163s-47 166 -166 166h-74v-625c0 -39 9 -45 44 -47l80 -4v-38h-373z" />
    <glyph glyph-name="uni0421" unicode="&#x421;" horiz-adv-x="818" 
d="M481 -13c-264 0 -441 159 -441 396s179 396 447 396c82 0 172 -14 231 -35l46 -262h-22l-132 192c-23 33 -43 44 -59 50c-14 5 -43 9 -72 9c-129 0 -262 -78 -262 -317c0 -203 84 -383 278 -383c29 0 58 4 72 9c16 6 36 17 59 50l132 192h22l-53 -262
c-59 -21 -161 -35 -246 -35z" />
    <glyph glyph-name="uni0422" unicode="&#x422;" horiz-adv-x="782" 
d="M197 0v38l70 4c35 2 44 8 44 47v628h-107c-21 0 -27 -1 -37 -18l-128 -212h-22l22 271h704l22 -271h-22l-128 212c-10 17 -16 18 -37 18h-107v-628c0 -39 9 -45 44 -47l70 -4v-38h-388z" />
    <glyph glyph-name="uni0423" unicode="&#x423;" horiz-adv-x="755" 
d="M358 84c-35 -67 -69 -96 -112 -96c-45 0 -68 28 -68 61c0 55 44 96 161 97l18 34l-281 493c-19 34 -29 41 -64 45l-33 4v36h345v-36l-43 -4c-35 -3 -53 -11 -34 -45l190 -335l174 335c18 34 1 42 -34 45l-43 4v36h242v-36l-33 -4c-50 -6 -65 -16 -81 -48z" />
    <glyph glyph-name="uni0424" unicode="&#x424;" horiz-adv-x="1010" 
d="M341 -20v36l45 4c35 3 44 10 44 49v34c-230 18 -400 116 -400 279c0 162 170 260 400 278v29c0 39 -9 46 -44 49l-45 4v36h338v-36l-45 -4c-35 -3 -44 -10 -44 -49v-29c224 -19 390 -116 390 -278c0 -163 -166 -260 -390 -279v-34c0 -39 9 -46 44 -49l45 -4v-36h-338z
M208 382c0 -136 72 -213 222 -231v461c-150 -18 -222 -94 -222 -230zM802 382c0 134 -67 211 -212 230v-461c145 19 212 97 212 231z" />
    <glyph glyph-name="uni0425" unicode="&#x425;" horiz-adv-x="809" 
d="M-9 0v36l33 4c35 4 62 16 86 45l227 272l-214 316c-21 31 -39 41 -74 45l-33 4v36h358v-36l-43 -4c-35 -3 -45 -14 -24 -45l131 -194l162 194c25 29 23 42 -12 45l-43 4v36h237v-36l-33 -4c-35 -4 -62 -16 -86 -45l-196 -236l238 -352c21 -31 39 -41 74 -45l33 -4v-36
h-358v36l43 4c35 3 45 14 24 45l-156 230l-192 -230c-25 -29 -23 -42 12 -45l43 -4v-36h-237z" />
    <glyph glyph-name="uni0426" unicode="&#x426;" horiz-adv-x="918" 
d="M720 0h-674v36l45 4c35 3 44 10 44 49v580c0 39 -9 46 -44 49l-45 4v36h338v-36l-45 -4c-35 -3 -44 -10 -44 -49v-623h311v623c0 39 -9 46 -44 49l-45 4v36h338v-36l-45 -4c-35 -3 -44 -10 -44 -49v-623h104l8 -225h-22l-110 167c-6 9 -11 12 -26 12z" />
    <glyph glyph-name="uni0427" unicode="&#x427;" horiz-adv-x="891" 
d="M115 554v115c0 39 -9 46 -44 49l-45 4v36h338v-36l-45 -4c-35 -3 -44 -10 -44 -49v-128c0 -145 73 -173 187 -173c47 0 89 5 134 18v283c0 39 -9 46 -44 49l-45 4v36h338v-36l-45 -4c-35 -3 -44 -10 -44 -49v-580c0 -39 9 -46 44 -49l45 -4v-36h-338v36l45 4
c35 3 44 10 44 49v238c-72 -16 -135 -19 -178 -19c-192 0 -303 62 -303 246z" />
    <glyph glyph-name="uni0428" unicode="&#x428;" horiz-adv-x="1270" 
d="M1224 0h-1178v36l45 4c35 3 44 10 44 49v580c0 39 -9 46 -44 49l-45 4v36h338v-36l-45 -4c-35 -3 -44 -10 -44 -49v-623h260v623c0 39 -9 46 -44 49l-45 4v36h338v-36l-45 -4c-35 -3 -44 -10 -44 -49v-623h260v623c0 39 -9 46 -44 49l-45 4v36h338v-36l-45 -4
c-35 -3 -44 -10 -44 -49v-580c0 -39 9 -46 44 -49l45 -4v-36z" />
    <glyph glyph-name="uni0429" unicode="&#x429;" horiz-adv-x="1287" 
d="M1089 0h-1043v36l45 4c35 3 44 10 44 49v580c0 39 -9 46 -44 49l-45 4v36h338v-36l-45 -4c-35 -3 -44 -10 -44 -49v-623h260v623c0 39 -9 46 -44 49l-45 4v36h338v-36l-45 -4c-35 -3 -44 -10 -44 -49v-623h260v623c0 39 -9 46 -44 49l-45 4v36h338v-36l-45 -4
c-35 -3 -44 -10 -44 -49v-623h104l8 -225h-22l-110 167c-6 9 -11 12 -26 12z" />
    <glyph glyph-name="uni042A" unicode="&#x42a;" horiz-adv-x="861" 
d="M415 445h67c242 0 369 -67 369 -215c0 -140 -125 -230 -369 -230h-316v36l45 4c35 3 44 10 44 49v628h-51c-21 0 -27 -1 -37 -18l-128 -212h-22l22 271h485v-36l-65 -4c-35 -2 -44 -10 -44 -49v-224zM415 46h35c152 0 224 52 224 176c0 129 -72 177 -212 177h-47v-353z
" />
    <glyph glyph-name="uni042B" unicode="&#x42b;" horiz-adv-x="1121" 
d="M295 445h67c242 0 369 -67 369 -215c0 -140 -125 -230 -369 -230h-316v36l45 4c35 3 44 10 44 49v580c0 39 -9 46 -44 49l-45 4v36h358v-36l-65 -4c-35 -2 -44 -10 -44 -49v-224zM737 0v36l45 4c35 3 44 10 44 49v580c0 39 -9 46 -44 49l-45 4v36h338v-36l-45 -4
c-35 -3 -44 -10 -44 -49v-580c0 -39 9 -46 44 -49l45 -4v-36h-338zM295 46h35c152 0 224 52 224 176c0 129 -72 177 -212 177h-47v-353z" />
    <glyph glyph-name="uni042C" unicode="&#x42c;" horiz-adv-x="741" 
d="M295 445h67c242 0 369 -67 369 -215c0 -140 -125 -230 -369 -230h-316v36l45 4c35 3 44 10 44 49v580c0 39 -9 46 -44 49l-45 4v36h358v-36l-65 -4c-35 -2 -44 -10 -44 -49v-224zM295 46h35c152 0 224 52 224 176c0 129 -72 177 -212 177h-47v-353z" />
    <glyph glyph-name="uni042D" unicode="&#x42d;" horiz-adv-x="818" 
d="M337 -13c-85 0 -187 14 -246 35l-53 262h22l132 -192c23 -33 43 -44 59 -50c14 -5 43 -9 72 -9c179 0 265 137 277 334h-228c-9 0 -14 -3 -17 -11l-48 -131h-22v336h22l48 -131c3 -8 8 -11 17 -11h229c-2 237 -134 314 -262 314c-29 0 -58 -4 -72 -9
c-16 -6 -36 -17 -59 -50l-132 -192h-22l46 262c59 21 149 35 231 35c268 0 447 -159 447 -396c0 -257 -177 -396 -441 -396z" />
    <glyph glyph-name="uni042E" unicode="&#x42e;" horiz-adv-x="1260" 
d="M46 0v36l45 4c35 3 44 10 44 49v580c0 39 -9 46 -44 49l-45 4v36h338v-36l-45 -4c-35 -3 -44 -10 -44 -49v-242h127c21 223 202 352 398 352c209 0 400 -146 400 -396s-191 -396 -400 -396c-205 0 -392 140 -400 381h-125v-279c0 -39 9 -46 44 -49l45 -4v-36h-338z
M820 35c137 0 222 122 222 348s-85 348 -222 348s-222 -122 -222 -348s85 -348 222 -348z" />
    <glyph glyph-name="uni042F" unicode="&#x42f;" horiz-adv-x="837" 
d="M210 0h-195l308 354c-138 22 -221 93 -221 197c0 154 141 207 334 207h355v-36l-45 -4c-35 -3 -44 -10 -44 -49v-580c0 -39 9 -46 44 -49l45 -4v-36h-338v36l45 4c35 3 44 10 44 49v247h-40zM542 380v334h-54c-132 0 -208 -45 -208 -163c0 -120 76 -171 209 -171h53z" />
    <glyph glyph-name="uni0430" unicode="&#x430;" horiz-adv-x="555" 
d="M198 -13c-95 0 -163 65 -163 139c0 95 111 126 190 155c104 38 115 72 115 123c0 46 -30 83 -81 83c-75 0 -106 -58 -84 -146c-27 -6 -49 -8 -67 -8c-54 0 -76 30 -76 55c0 42 62 76 127 101c45 17 94 34 164 34c87 0 158 -37 155 -142l-8 -315h78v-32l-194 -45l-20 89
c-27 -68 -78 -91 -136 -91zM266 48c30 0 64 30 65 109l1 153c-19 -16 -31 -23 -54 -37c-55 -34 -78 -75 -78 -126c0 -46 24 -99 66 -99z" />
    <glyph glyph-name="uni0431" unicode="&#x431;" horiz-adv-x="604" 
d="M570 263c0 -167 -126 -276 -270 -276s-266 103 -266 327c0 197 118 403 377 445c89 14 96 21 96 42h30c0 -153 -47 -213 -170 -179c-163 46 -167 21 -167 -69v-116c46 54 107 74 161 74c111 0 209 -78 209 -248zM302 28c76 0 101 82 101 218c0 79 -6 200 -117 200
c-23 0 -59 -6 -86 -37v-106c0 -192 19 -275 102 -275z" />
    <glyph glyph-name="uni0432" unicode="&#x432;" horiz-adv-x="602" 
d="M34 32l27 2c35 3 40 4 40 40v354c0 36 -5 37 -40 40l-27 2v32h283c131 0 218 -34 218 -116c0 -56 -34 -105 -164 -123v-1c143 -9 201 -55 201 -124c0 -82 -70 -138 -284 -138h-254v32zM272 463h-23v-184h25c65 0 96 40 96 96c0 49 -33 88 -98 88zM249 241v-202h24
c87 0 134 31 134 101c0 71 -48 101 -133 101h-25z" />
    <glyph glyph-name="uni0433" unicode="&#x433;" horiz-adv-x="492" 
d="M317 461h-68v-387c0 -36 2 -38 37 -40l39 -2v-32h-291v32l27 2c35 3 40 4 40 40v354c0 36 -5 37 -40 40l-27 2v32h416l22 -191h-22l-110 136c-8 9 -11 14 -23 14z" />
    <glyph glyph-name="uni0434" unicode="&#x434;" horiz-adv-x="587" 
d="M125 -13l-88 -144h-22l8 198h66c59 137 71 310 71 387c0 36 -5 37 -40 40l-27 2v32h447v-32l-27 -2c-35 -3 -40 -4 -40 -40v-387h81l8 -198h-22l-88 144c-6 9 -9 13 -21 13h-285c-12 0 -15 -4 -21 -13zM325 41v420h-122c-2 -114 -12 -287 -68 -420h190z" />
    <glyph glyph-name="uni0435" unicode="&#x435;" horiz-adv-x="585" 
d="M299 -13c-165 0 -264 115 -264 263c0 166 131 271 261 271c126 0 217 -68 244 -205h-355c1 -131 71 -233 185 -233c66 0 139 38 159 123h29c-23 -146 -117 -219 -259 -219zM290 487c-56 0 -94 -47 -103 -129h189c-3 93 -36 129 -86 129z" />
    <glyph glyph-name="uni0436" unicode="&#x436;" horiz-adv-x="896" 
d="M163 0h-181l261 305l-127 113c-37 33 -51 47 -95 50l-27 2v32h239v-32l-38 -2c-35 -2 -41 -25 -13 -50l187 -167v177c0 36 -2 38 -37 40l-29 2v32h282v-32l-28 -2c-35 -3 -40 -4 -40 -40v-177l187 167c28 25 22 48 -13 50l-38 2v32h239v-32l-27 -2
c-44 -3 -65 -17 -102 -50l-117 -104l268 -314h-191l-206 238v-155c0 -36 11 -46 46 -49l21 -2v-32h-282v32l21 2c35 3 46 13 46 49v155z" />
    <glyph glyph-name="uni0437" unicode="&#x437;" horiz-adv-x="533" 
d="M257 -13c-130 0 -222 42 -222 122c0 42 22 72 84 72c15 0 32 -1 51 -4c-9 -109 24 -156 94 -156c50 0 84 36 84 107c0 85 -48 108 -114 108h-54v49h53c56 0 88 28 88 109c0 44 -21 91 -75 91c-9 0 -14 0 -23 -2c-13 -3 -23 -9 -37 -29l-89 -123h-22l19 170
c41 12 92 20 151 20c136 0 241 -40 241 -125c0 -66 -36 -108 -174 -133v-1c130 -9 201 -55 201 -135c0 -79 -77 -140 -256 -140z" />
    <glyph glyph-name="uni0438" unicode="&#x438;" horiz-adv-x="654" 
d="M101 74v354c0 36 -5 37 -40 40l-27 2v32h268v-32l-16 -2c-35 -4 -37 -4 -37 -40v-269l156 259v10c0 36 -2 36 -37 40l-16 2v32h268v-32l-27 -2c-35 -3 -40 -4 -40 -40v-354c0 -36 5 -37 40 -40l27 -2v-32h-268v32l16 2c35 4 37 4 37 40v263l-156 -259v-4
c0 -36 2 -36 37 -40l16 -2v-32h-268v32l27 2c35 3 40 4 40 40z" />
    <glyph glyph-name="uni0439" unicode="&#x439;" horiz-adv-x="654" 
d="M322 628c-125 0 -180 76 -180 160h113c0 -107 38 -126 67 -126c30 0 67 19 67 126h113c0 -94 -73 -160 -180 -160zM101 74v354c0 36 -5 37 -40 40l-27 2v32h268v-32l-16 -2c-35 -4 -37 -4 -37 -40v-269l156 259v10c0 36 -2 36 -37 40l-16 2v32h268v-32l-27 -2
c-35 -3 -40 -4 -40 -40v-354c0 -36 5 -37 40 -40l27 -2v-32h-268v32l16 2c35 4 37 4 37 40v263l-156 -259v-4c0 -36 2 -36 37 -40l16 -2v-32h-268v32l27 2c35 3 40 4 40 40z" />
    <glyph glyph-name="uni043A" unicode="&#x43a;" horiz-adv-x="646" 
d="M101 428c0 36 -5 37 -40 40l-27 2v32h281v-32l-29 -2c-35 -2 -37 -4 -37 -40v-177l187 167c28 25 22 48 -13 50l-38 2v32h239v-32l-27 -2c-44 -3 -65 -17 -102 -50l-116 -103l285 -315h-199l-216 238v-155c0 -36 11 -46 46 -49l21 -2v-32h-282v32l21 2c35 3 46 13 46 49
v345z" />
    <glyph glyph-name="uni043B" unicode="&#x43b;" horiz-adv-x="588" 
d="M168 74c-26 -58 -65 -87 -104 -87s-59 28 -59 58c0 49 39 84 141 98c27 77 29 178 29 285c0 36 -5 38 -40 40l-37 2v32h456v-32l-27 -2c-35 -3 -40 -4 -40 -40v-354c0 -36 5 -37 40 -40l27 -2v-32h-282v32l30 2c35 2 37 4 37 40v387h-122c0 -171 -12 -307 -49 -387z" />
    <glyph glyph-name="uni043C" unicode="&#x43c;" horiz-adv-x="744" 
d="M34 0v32l27 2c35 3 37 4 40 40l25 354c3 36 -5 37 -40 40l-27 2v32h204l105 -237l104 237h214v-32l-27 -2c-35 -3 -42 -4 -40 -40l24 -354c2 -36 5 -37 40 -40l27 -2v-32h-282v32l30 2c35 2 39 4 37 40l-22 341l-150 -343h-6l-152 343l-23 -341c-2 -36 2 -38 37 -40
l30 -2v-32h-175z" />
    <glyph glyph-name="uni043D" unicode="&#x43d;" horiz-adv-x="644" 
d="M101 74v354c0 36 -5 37 -40 40l-27 2v32h268v-32l-16 -2c-35 -4 -37 -4 -37 -40v-142h146v142c0 36 -2 36 -37 40l-16 2v32h268v-32l-27 -2c-35 -3 -40 -4 -40 -40v-354c0 -36 5 -37 40 -40l27 -2v-32h-268v32l16 2c35 4 37 4 37 40v161h-146v-161c0 -36 2 -36 37 -40
l16 -2v-32h-268v32l27 2c35 3 40 4 40 40z" />
    <glyph glyph-name="uni043E" unicode="&#x43e;" horiz-adv-x="624" 
d="M310 -13c-166 0 -276 119 -276 262c0 160 124 272 280 272c166 0 276 -119 276 -262c0 -160 -124 -272 -280 -272zM312 28c62 0 111 55 111 227s-49 227 -111 227c-64 0 -113 -55 -113 -227s49 -227 113 -227z" />
    <glyph glyph-name="uni043F" unicode="&#x43f;" horiz-adv-x="639" 
d="M390 461h-141v-387c0 -36 2 -36 37 -40l16 -2v-32h-268v32l27 2c35 3 40 4 40 40v354c0 36 -5 37 -40 40l-27 2v32h571v-32l-27 -2c-35 -3 -40 -4 -40 -40v-354c0 -36 5 -37 40 -40l27 -2v-32h-268v32l16 2c35 4 37 4 37 40v387z" />
    <glyph glyph-name="uni0440" unicode="&#x440;" horiz-adv-x="619" 
d="M24 -248v32l27 2c35 3 40 4 40 40v526l-76 60v6l224 111v-70c32 36 82 62 135 62c111 0 208 -94 208 -268c0 -159 -103 -266 -230 -266c-43 0 -86 19 -113 48v-209c0 -36 11 -36 46 -38l51 -3v-33h-312zM297 452c-19 0 -39 -4 -58 -20v-369c16 -14 36 -19 55 -19
c70 0 123 77 123 208c0 119 -52 200 -120 200z" />
    <glyph glyph-name="uni0441" unicode="&#x441;" horiz-adv-x="565" 
d="M290 -13c-160 0 -256 115 -256 259c0 170 133 275 279 275c103 0 199 -42 199 -122c0 -42 -24 -72 -92 -72c-15 0 -32 1 -51 4c9 109 -24 156 -79 156c-51 0 -108 -49 -108 -175c0 -125 65 -229 177 -229c64 0 136 38 156 123h29c-25 -152 -117 -219 -254 -219z" />
    <glyph glyph-name="uni0442" unicode="&#x442;" horiz-adv-x="570" 
d="M211 466h-36c-12 0 -15 -5 -23 -14l-113 -141h-19l22 191h486l22 -191h-19l-113 141c-8 9 -11 14 -23 14h-36v-392c0 -36 5 -37 40 -40l27 -2v-32h-282v32l27 2c35 3 40 4 40 40v392z" />
    <glyph glyph-name="uni0443" unicode="&#x443;" horiz-adv-x="563" 
d="M214 -88l38 83l-179 418c-16 37 -24 51 -59 55l-16 2v32h286v-32l-21 -2c-35 -3 -45 -18 -32 -49l102 -247l99 219c24 54 8 72 -27 76l-28 3v32h198v-32l-20 -2c-36 -4 -49 -18 -68 -60l-248 -542c-39 -84 -70 -121 -126 -121c-44 0 -71 34 -71 75c0 57 65 103 172 92z
" />
    <glyph glyph-name="uni0444" unicode="&#x444;" horiz-adv-x="808" 
d="M263 -248v32l27 2c35 3 40 4 40 40v161c-169 5 -296 122 -296 262c0 155 140 265 296 272v134l-76 64v6l224 77v-281c168 -4 296 -121 296 -262c0 -156 -141 -266 -296 -272v-161c0 -36 5 -37 40 -40l27 -2v-32h-282zM609 255c0 165 -57 222 -131 227v-454
c74 5 131 62 131 227zM199 255c0 -163 56 -221 131 -227v454c-75 -6 -131 -64 -131 -227z" />
    <glyph glyph-name="uni0445" unicode="&#x445;" horiz-adv-x="627" 
d="M-2 0v32l20 2c36 4 73 28 128 84l107 109l-140 186c-24 32 -38 51 -73 55l-16 2v32h298v-32l-21 -2c-35 -3 -38 -22 -18 -49l69 -92l63 64c42 42 38 72 3 76l-28 3v32h226v-32l-20 -2c-36 -4 -73 -28 -125 -80l-93 -95l153 -204c24 -32 38 -51 73 -55l16 -2v-32h-298v32
l21 2c35 3 38 22 18 49l-82 109l-80 -81c-42 -42 -38 -72 -3 -76l28 -3v-32h-226z" />
    <glyph glyph-name="uni0446" unicode="&#x446;" horiz-adv-x="652" 
d="M496 0h-462v32l27 2c35 3 40 4 40 40v354c0 36 -5 37 -40 40l-27 2v32h268v-32l-16 -2c-35 -4 -37 -4 -37 -40v-387h141v387c0 36 -2 36 -37 40l-16 2v32h268v-32l-27 -2c-35 -3 -40 -4 -40 -40v-387h81l8 -198h-22l-88 144c-6 9 -9 13 -21 13z" />
    <glyph glyph-name="uni0447" unicode="&#x447;" horiz-adv-x="614" 
d="M81 363v65c0 36 -5 37 -40 40l-27 2v32h268v-32l-16 -2c-35 -4 -37 -4 -37 -40v-65c0 -82 16 -115 70 -115c20 0 44 7 66 16v164c0 36 -2 36 -37 40l-16 2v32h268v-32l-27 -2c-35 -3 -40 -4 -40 -40v-354c0 -36 5 -37 40 -40l27 -2v-32h-291v32l39 2c35 2 37 4 37 40v148
c-21 -7 -55 -18 -111 -18c-110 0 -173 39 -173 159z" />
    <glyph glyph-name="uni0448" unicode="&#x448;" horiz-adv-x="934" 
d="M249 41h144v387c0 36 -2 36 -37 40l-16 2v32h254v-32l-13 -2c-35 -5 -40 -4 -40 -40v-387h144v387c0 36 -2 36 -37 40l-16 2v32h268v-32l-27 -2c-35 -3 -40 -4 -40 -40v-354c0 -36 5 -37 40 -40l27 -2v-32h-866v32l27 2c35 3 40 4 40 40v354c0 36 -5 37 -40 40l-27 2v32
h268v-32l-16 -2c-35 -4 -37 -4 -37 -40v-387z" />
    <glyph glyph-name="uni0449" unicode="&#x449;" horiz-adv-x="947" 
d="M791 0h-757v32l27 2c35 3 40 4 40 40v354c0 36 -5 37 -40 40l-27 2v32h268v-32l-16 -2c-35 -4 -37 -4 -37 -40v-387h144v387c0 36 -2 36 -37 40l-16 2v32h254v-32l-13 -2c-35 -5 -40 -4 -40 -40v-387h144v387c0 36 -2 36 -37 40l-16 2v32h268v-32l-27 -2
c-35 -3 -40 -4 -40 -40v-387h81l8 -198h-22l-88 144c-6 9 -9 13 -21 13z" />
    <glyph glyph-name="uni044A" unicode="&#x44a;" horiz-adv-x="672" 
d="M201 466h-26c-12 0 -15 -4 -23 -14l-118 -141h-19l27 191h383v-32l-39 -2c-35 -2 -37 -4 -37 -40v-125h59c164 0 254 -52 254 -149c0 -96 -90 -154 -254 -154h-274v32l27 2c35 3 40 4 40 40v392zM349 262v-221h32c75 0 116 29 116 115c0 75 -41 106 -112 106h-36z" />
    <glyph glyph-name="uni044B" unicode="&#x44b;" horiz-adv-x="860" 
d="M611 74v354c0 36 -5 37 -40 40l-27 2v32h282v-32l-30 -2c-35 -2 -37 -4 -37 -40v-354c0 -36 2 -38 37 -40l30 -2v-32h-282v32l27 2c35 3 40 4 40 40zM325 502v-32l-39 -2c-35 -2 -37 -4 -37 -40v-125h59c164 0 254 -52 254 -149c0 -96 -90 -154 -254 -154h-274v32l27 2
c35 3 40 4 40 40v354c0 36 -5 37 -40 40l-27 2v32h291zM249 262v-221h32c75 0 116 29 116 115c0 75 -41 106 -112 106h-36z" />
    <glyph glyph-name="uni044C" unicode="&#x44c;" horiz-adv-x="572" 
d="M325 502v-32l-39 -2c-35 -2 -37 -4 -37 -40v-125h59c164 0 254 -52 254 -149c0 -96 -90 -154 -254 -154h-274v32l27 2c35 3 40 4 40 40v354c0 36 -5 37 -40 40l-27 2v32h291zM249 262v-221h32c75 0 116 29 116 115c0 75 -41 106 -112 106h-36z" />
    <glyph glyph-name="uni044D" unicode="&#x44d;" horiz-adv-x="579" 
d="M181 235v51h196c-5 150 -54 199 -126 199c-6 0 -17 0 -30 -3s-23 -9 -37 -28l-89 -123h-22l19 170c42 13 96 20 163 20c169 0 290 -119 290 -262c0 -170 -130 -272 -276 -272c-137 0 -229 42 -229 122c0 42 22 72 85 72c15 0 32 -1 51 -4c-9 -109 24 -156 93 -156
c64 0 106 53 109 214h-197z" />
    <glyph glyph-name="uni044E" unicode="&#x44e;" horiz-adv-x="869" 
d="M101 74v354c0 36 -5 37 -40 40l-27 2v32h281v-32l-29 -2c-35 -2 -37 -4 -37 -40v-142h72c17 140 128 235 258 235c150 0 256 -119 256 -262c0 -160 -119 -272 -260 -272c-145 0 -249 111 -256 248h-70v-161c0 -36 2 -38 37 -40l29 -2v-32h-281v32l27 2c35 3 40 4 40 40z
M577 28c56 0 91 55 91 227s-35 227 -91 227c-58 0 -93 -55 -93 -227s35 -227 93 -227z" />
    <glyph glyph-name="uni044F" unicode="&#x44f;" horiz-adv-x="607" 
d="M-15 0l213 233c-84 15 -137 58 -137 135c0 94 105 134 257 134h255v-32l-27 -2c-35 -3 -40 -4 -40 -40v-354c0 -36 5 -37 40 -40l27 -2v-32h-282v32l30 2c35 2 37 4 37 40v141h-21l-179 -215h-173zM332 462c-57 0 -108 -18 -108 -99c0 -77 51 -108 108 -108h26v207h-26z
" />
    <glyph glyph-name="uni0451" unicode="&#x451;" horiz-adv-x="586" 
d="M400 636c-39 0 -68 30 -68 69c0 40 29 69 68 69c38 0 68 -29 68 -69c0 -39 -30 -69 -68 -69zM174 636c-39 0 -68 30 -68 69c0 40 29 69 68 69c38 0 68 -29 68 -69c0 -39 -30 -69 -68 -69zM295 -13c-165 0 -264 115 -264 263c0 166 131 271 261 271
c126 0 217 -68 244 -205h-355c1 -131 71 -233 185 -233c66 0 139 38 159 123h29c-23 -146 -117 -219 -259 -219zM286 487c-56 0 -94 -47 -103 -129h189c-3 93 -36 129 -86 129z" />
    <glyph glyph-name="uni0452" unicode="&#x452;" horiz-adv-x="580" 
d="M382 42v264c0 104 -28 127 -68 127s-78 -24 -78 -128v-231c0 -36 2 -36 37 -40l19 -2v-32h-271v32l27 2c35 3 40 4 40 40v491h-76v51h76v39l-76 64v6l224 77v-186h102v-51h-102v-164c22 73 72 120 152 120c81 0 142 -43 142 -187v-285c0 -108 -37 -158 -110 -210
c-35 -25 -99 -67 -158 -102l-19 27c92 81 139 125 139 278z" />
    <glyph glyph-name="uni0453" unicode="&#x453;" horiz-adv-x="492" 
d="M224 609l110 179h148v-11l-230 -168h-28zM317 461h-68v-387c0 -36 2 -38 37 -40l39 -2v-32h-291v32l27 2c35 3 40 4 40 40v354c0 36 -5 37 -40 40l-27 2v32h416l22 -191h-22l-110 136c-8 9 -11 14 -23 14z" />
    <glyph glyph-name="uni0454" unicode="&#x454;" horiz-adv-x="565" 
d="M290 -13c-160 0 -256 115 -256 259c0 170 133 275 279 275c103 0 199 -42 199 -122c0 -42 -24 -72 -92 -72c-15 0 -32 1 -51 4c9 109 -24 156 -79 156c-51 0 -108 -49 -108 -175c0 -9 0 -18 1 -26h170v-51h-162c21 -88 80 -152 168 -152c64 0 136 38 156 123h29
c-25 -152 -117 -219 -254 -219z" />
    <glyph glyph-name="uni0455" unicode="&#x455;" horiz-adv-x="470" 
d="M203 -13c-49 0 -93 7 -146 24l-16 178h22l76 -124c27 -44 52 -40 81 -40c46 0 86 27 86 73c0 40 -23 71 -77 83l-53 12c-81 18 -134 76 -134 163c0 106 104 165 215 165c43 0 94 -6 134 -20l19 -170h-22l-85 122c-21 31 -40 32 -66 32c-47 0 -81 -27 -81 -73
c0 -42 26 -73 77 -84l43 -9c108 -23 154 -83 154 -160c0 -101 -97 -172 -227 -172z" />
    <glyph glyph-name="uni0456" unicode="&#x456;" horiz-adv-x="341" 
d="M81 710c0 49 44 93 93 93c50 0 94 -44 94 -93c0 -50 -44 -94 -94 -94c-49 0 -93 44 -93 94zM34 0v32l27 2c35 3 40 4 40 40v283l-76 72v6l224 94v-455c0 -36 5 -37 40 -40l27 -2v-32h-282z" />
    <glyph glyph-name="uni0457" unicode="&#x457;" horiz-adv-x="345" 
d="M82 616c-48 0 -78 42 -78 94c0 51 30 93 78 93c47 0 79 -42 79 -93c0 -52 -32 -94 -79 -94zM254 616c-48 0 -78 42 -78 94c0 51 30 93 78 93c47 0 79 -42 79 -93c0 -52 -32 -94 -79 -94zM34 0v32l27 2c35 3 40 4 40 40v283l-76 72v6l224 94v-455c0 -36 5 -37 40 -40
l27 -2v-32h-282z" />
    <glyph glyph-name="uni0458" unicode="&#x458;" horiz-adv-x="315" 
d="M72 710c0 49 44 93 93 93c50 0 94 -44 94 -93c0 -50 -44 -94 -94 -94c-49 0 -93 44 -93 94zM-28 -263l-19 27c92 81 139 125 139 278v315l-76 72v6l224 94v-480c0 -108 -37 -158 -110 -210c-35 -25 -99 -67 -158 -102z" />
    <glyph glyph-name="uni0459" unicode="&#x459;" horiz-adv-x="811" 
d="M564 502v-32l-39 -2c-35 -2 -37 -4 -37 -40v-125h59c164 0 254 -52 254 -149c0 -96 -90 -154 -254 -154h-274v32l27 2c35 3 40 4 40 40v387h-123c0 -171 -12 -307 -49 -387c-26 -58 -65 -87 -104 -87s-59 28 -59 58c0 49 39 84 141 98c27 77 29 178 29 285
c0 36 -5 38 -40 40l-37 2v32h466zM488 262v-221h32c75 0 116 29 116 115c0 75 -41 106 -112 106h-36z" />
    <glyph glyph-name="uni045A" unicode="&#x45a;" horiz-adv-x="866" 
d="M101 74v354c0 36 -5 37 -40 40l-27 2v32h268v-32l-16 -2c-35 -4 -37 -4 -37 -40v-132h146v132c0 36 -2 36 -37 40l-16 2v32h277v-32l-39 -2c-35 -2 -37 -4 -37 -40v-132h59c164 0 254 -52 254 -148c0 -92 -90 -148 -254 -148h-260v32l16 2c35 4 37 4 37 40v171h-146v-171
c0 -36 2 -36 37 -40l16 -2v-32h-268v32l27 2c35 3 40 4 40 40zM543 255v-214h32c75 0 116 27 116 109c0 74 -41 105 -112 105h-36z" />
    <glyph glyph-name="uni045B" unicode="&#x45b;" horiz-adv-x="616" 
d="M17 0v32l27 2c35 3 40 4 40 40v491h-76v51h76v39l-76 64v6l224 77v-186h102v-51h-102v-164c22 73 72 120 152 120c81 0 142 -43 142 -187v-260c0 -36 5 -37 40 -40l27 -2v-32h-271v32l19 2c35 4 37 4 37 40v232c0 104 -28 127 -68 127s-78 -24 -78 -128v-231
c0 -36 2 -36 37 -40l19 -2v-32h-271z" />
    <glyph glyph-name="uni045C" unicode="&#x45c;" horiz-adv-x="646" 
d="M291 609l110 179h148v-11l-230 -168h-28zM101 428c0 36 -5 37 -40 40l-27 2v32h281v-32l-29 -2c-35 -2 -37 -4 -37 -40v-177l187 167c28 25 22 48 -13 50l-38 2v32h239v-32l-27 -2c-44 -3 -65 -17 -102 -50l-116 -103l285 -315h-199l-216 238v-155c0 -36 11 -46 46 -49
l21 -2v-32h-282v32l21 2c35 3 46 13 46 49v345z" />
    <glyph glyph-name="uni045E" unicode="&#x45e;" horiz-adv-x="563" 
d="M305 628c-125 0 -180 76 -180 160h113c0 -107 38 -126 67 -126c30 0 67 19 67 126h113c0 -94 -73 -160 -180 -160zM214 -88l38 83l-179 418c-16 37 -24 51 -59 55l-16 2v32h286v-32l-21 -2c-35 -3 -45 -18 -32 -49l102 -247l99 219c24 54 8 72 -27 76l-28 3v32h198v-32
l-20 -2c-36 -4 -49 -18 -68 -60l-248 -542c-39 -84 -70 -121 -126 -121c-44 0 -71 34 -71 75c0 57 65 103 172 92z" />
    <glyph glyph-name="uni045F" unicode="&#x45f;" horiz-adv-x="634" 
d="M253 -13c-4 10 -9 13 -21 13h-198v32l27 2c35 3 40 4 40 40v354c0 36 -5 37 -40 40l-27 2v32h268v-32l-16 -2c-35 -4 -37 -4 -37 -40v-387h136v387c0 36 -2 36 -37 40l-16 2v32h268v-32l-27 -2c-35 -3 -40 -4 -40 -40v-354c0 -36 5 -37 40 -40l27 -2v-32h-198
c-12 0 -17 -3 -21 -13l-53 -144h-22z" />
    <glyph glyph-name="uni0462" unicode="&#x462;" horiz-adv-x="870" 
d="M424 363h67c242 0 369 -55 369 -173c0 -110 -125 -190 -369 -190h-316v36l45 4c35 3 44 10 44 49v498h-67c-21 0 -24 -2 -37 -18l-128 -162h-22l22 221h232v41c0 39 -9 46 -44 49l-45 4v36h338v-36l-45 -4c-35 -3 -44 -10 -44 -49v-41h232l22 -221h-22l-128 162
c-13 16 -16 18 -37 18h-67v-224zM424 46h35c152 0 224 42 224 136c0 99 -72 135 -212 135h-47v-271z" />
    <glyph glyph-name="uni0463" unicode="&#x463;" horiz-adv-x="672" 
d="M201 74v392h-36c-12 0 -15 -6 -23 -14l-113 -121h-19l22 171h169v153l-76 64v6l224 77v-300h169l22 -171h-19l-113 121c-8 8 -11 14 -23 14h-36v-168h59c164 0 254 -49 254 -146c0 -96 -90 -152 -254 -152h-274v32l27 2c35 3 40 4 40 40zM349 257v-216h32
c75 0 116 27 116 113c0 75 -41 103 -112 103h-36z" />
    <glyph glyph-name="uni0472" unicode="&#x472;" horiz-adv-x="900" 
d="M450 -13c-214 0 -410 146 -410 396s196 396 410 396s410 -146 410 -396s-196 -396 -410 -396zM450 731c-140 0 -228 -117 -232 -333c274 116 350 -37 464 -4c-3 219 -91 337 -232 337zM450 35c137 0 225 112 232 321c-249 -103 -303 62 -464 3c7 -211 94 -324 232 -324z
" />
    <glyph glyph-name="uni0473" unicode="&#x473;" horiz-adv-x="624" 
d="M310 -13c-166 0 -276 119 -276 262c0 160 124 272 280 272c166 0 276 -119 276 -262c0 -160 -124 -272 -280 -272zM312 482c-64 0 -113 -55 -113 -221c130 87 177 -1 224 0c-1 168 -50 221 -111 221zM312 28c59 0 106 50 111 203c-112 -75 -161 21 -224 9
c3 -160 51 -212 113 -212z" />
    <glyph glyph-name="uni0474" unicode="&#x474;" horiz-adv-x="805" 
d="M825 718c0 -52 -40 -93 -148 -97l-280 -652h-20l-301 704c-15 35 -29 41 -64 45l-33 4v36h345v-36l-43 -4c-35 -3 -49 -10 -34 -45l196 -469l202 479c29 70 69 96 112 96c45 0 68 -28 68 -61z" />
    <glyph glyph-name="uni0475" unicode="&#x475;" horiz-adv-x="569" 
d="M439 417c33 76 69 104 112 104c42 0 63 -25 63 -61c0 -56 -49 -88 -154 -105l-162 -367h-40l-188 425c-16 37 -24 51 -59 55l-16 2v32h286v-32l-21 -2c-35 -3 -46 -18 -32 -49l108 -242z" />
    <glyph glyph-name="uni0490" unicode="&#x490;" horiz-adv-x="660" 
d="M642 712h-347v-623c0 -39 9 -45 44 -47l80 -4v-38h-373v36l45 4c35 3 44 10 44 49v580c0 39 -9 46 -44 49l-45 4v36h446c15 0 20 3 26 12l110 167h22z" />
    <glyph glyph-name="uni0491" unicode="&#x491;" horiz-adv-x="471" 
d="M448 461h-199v-387c0 -36 2 -38 37 -40l39 -2v-32h-291v32l27 2c35 3 40 4 40 40v354c0 36 -5 37 -40 40l-27 2v32h291c12 0 15 4 21 13l88 144h22z" />
    <glyph glyph-name="uni0492" unicode="&#x492;" horiz-adv-x="701" 
d="M46 355v59h89v255c0 39 -9 46 -44 49l-45 4v36h598l37 -271h-22l-143 207c-11 16 -16 18 -37 18h-184v-298h150v-59h-150v-266c0 -39 9 -45 44 -47l80 -4v-38h-373v36l45 4c35 3 44 10 44 49v266h-89z" />
    <glyph glyph-name="uni0493" unicode="&#x493;" horiz-adv-x="492" 
d="M34 234v51h67v143c0 36 -5 37 -40 40l-27 2v32h416l22 -191h-22l-110 136c-8 9 -11 14 -23 14h-68v-176h116v-51h-116v-160c0 -36 2 -38 37 -40l39 -2v-32h-291v32l27 2c35 3 40 4 40 40v160h-67z" />
    <glyph glyph-name="uni0496" unicode="&#x496;" horiz-adv-x="1172" 
d="M181 0h-201l358 446l-217 237c-22 24 -40 33 -85 36l-51 3v36h288v-36l-63 -4c-30 -2 -34 -15 -21 -30l286 -313v294c0 39 -9 46 -44 49l-45 4v36h338v-36l-45 -4c-35 -3 -44 -10 -44 -49v-294l286 313c13 15 9 28 -21 30l-63 4v36h288v-36l-51 -3
c-45 -3 -66 -12 -88 -36l-210 -230l327 -407h81l8 -225h-22l-110 167c-6 9 -11 12 -26 12h-105l-294 366v-277c0 -39 9 -46 44 -49l45 -4v-36h-338v36l45 4c35 3 44 10 44 49v277z" />
    <glyph glyph-name="uni0497" unicode="&#x497;" horiz-adv-x="950" 
d="M163 0h-181l261 305l-127 113c-37 33 -51 47 -95 50l-27 2v32h239v-32l-38 -2c-35 -2 -41 -25 -13 -50l187 -167v177c0 36 -2 38 -37 40l-29 2v32h282v-32l-28 -2c-35 -3 -40 -4 -40 -40v-177l187 167c28 25 22 48 -13 50l-38 2v32h239v-32l-27 -2
c-44 -3 -65 -17 -102 -50l-117 -104l233 -273h68l8 -198h-22l-88 144c-6 9 -9 13 -21 13h-101l-206 238v-155c0 -36 11 -46 46 -49l21 -2v-32h-282v32l21 2c35 3 46 13 46 49v155z" />
    <glyph glyph-name="uni049A" unicode="&#x49a;" horiz-adv-x="882" 
d="M46 0v36l45 4c35 3 44 10 44 49v580c0 39 -9 46 -44 49l-45 4v36h338v-36l-45 -4c-35 -3 -44 -10 -44 -49v-294l306 313c14 14 9 28 -21 30l-73 4v36h298v-36l-51 -3c-45 -3 -65 -13 -88 -36l-226 -231l370 -406h84l8 -225h-22l-110 167c-6 9 -11 12 -26 12h-115
l-334 367v-278c0 -39 9 -46 44 -49l45 -4v-36h-338z" />
    <glyph glyph-name="uni049B" unicode="&#x49b;" horiz-adv-x="697" 
d="M101 428c0 36 -5 37 -40 40l-27 2v32h281v-32l-29 -2c-35 -2 -37 -4 -37 -40v-177l187 167c28 25 22 48 -13 50l-38 2v32h239v-32l-27 -2c-44 -3 -65 -17 -102 -50l-116 -103l248 -274h67l8 -198h-22l-88 144c-6 9 -9 13 -21 13h-106l-216 238v-155c0 -36 11 -46 46 -49
l21 -2v-32h-282v32l21 2c35 3 46 13 46 49v345z" />
    <glyph glyph-name="uni04A2" unicode="&#x4a2;" horiz-adv-x="928" 
d="M776 46h104l8 -225h-22l-110 167c-6 9 -11 12 -26 12h-203v36l45 4c35 3 44 10 44 49v279h-321v-279c0 -39 9 -46 44 -49l45 -4v-36h-338v36l45 4c35 3 44 10 44 49v580c0 39 -9 46 -44 49l-45 4v36h338v-36l-45 -4c-35 -3 -44 -10 -44 -49v-242h321v242
c0 39 -9 46 -44 49l-45 4v36h338v-36l-45 -4c-35 -3 -44 -10 -44 -49v-623z" />
    <glyph glyph-name="uni04A3" unicode="&#x4a3;" horiz-adv-x="657" 
d="M101 74v354c0 36 -5 37 -40 40l-27 2v32h268v-32l-16 -2c-35 -4 -37 -4 -37 -40v-142h146v142c0 36 -2 36 -37 40l-16 2v32h268v-32l-27 -2c-35 -3 -40 -4 -40 -40v-387h81l8 -198h-22l-88 144c-6 9 -9 13 -21 13h-159v32l16 2c35 4 37 4 37 40v161h-146v-161
c0 -36 2 -36 37 -40l16 -2v-32h-268v32l27 2c35 3 40 4 40 40z" />
    <glyph glyph-name="uni04AE" unicode="&#x4ae;" horiz-adv-x="768" 
d="M190 0v38l70 4c35 2 44 8 44 47v253l-220 331c-22 33 -29 41 -64 45l-33 4v36h350v-36l-43 -4c-35 -3 -55 -13 -34 -45l180 -276l184 276c22 33 1 42 -34 45l-43 4v36h234v-36l-33 -4c-35 -4 -42 -12 -64 -45l-220 -332v-252c0 -39 9 -45 44 -47l70 -4v-38h-388z" />
    <glyph glyph-name="uni04AF" unicode="&#x4af;" horiz-adv-x="562" 
d="M137 -248v32l27 2c35 3 40 3 40 30v184l-134 413c-12 38 -24 51 -59 55l-16 2v32h286v-32l-21 -2c-35 -3 -42 -17 -32 -49l105 -323l95 295c18 56 8 72 -27 76l-28 3v32h199v-32l-20 -2c-36 -4 -54 -17 -68 -60l-132 -408v-184c0 -27 5 -27 40 -30l27 -2v-32h-282z" />
    <glyph glyph-name="uni04B0" unicode="&#x4b0;" horiz-adv-x="768" 
d="M190 0v38l70 4c35 2 44 8 44 47v194h-167v59h167l-220 331c-22 33 -29 41 -64 45l-33 4v36h350v-36l-43 -4c-35 -3 -55 -13 -34 -45l180 -276l184 276c22 33 1 42 -34 45l-43 4v36h234v-36l-33 -4c-35 -4 -42 -12 -64 -45l-219 -331h173v-59h-174v-194
c0 -39 9 -45 44 -47l70 -4v-38h-388z" />
    <glyph glyph-name="uni04B1" unicode="&#x4b1;" horiz-adv-x="562" 
d="M92 -51v51h112l-134 413c-12 38 -24 51 -59 55l-16 2v32h286v-32l-21 -2c-35 -3 -42 -17 -32 -49l105 -323l95 295c18 56 8 72 -27 76l-28 3v32h199v-32l-20 -2c-36 -4 -54 -17 -68 -60l-132 -408h111v-51h-111v-133c0 -27 5 -27 40 -30l27 -2v-32h-282v32l27 2
c35 3 40 3 40 30v133h-112z" />
    <glyph glyph-name="uni04B2" unicode="&#x4b2;" horiz-adv-x="843" 
d="M-5 0v36l33 4c35 4 62 16 86 45l227 272l-214 316c-21 31 -39 41 -74 45l-33 4v36h358v-36l-43 -4c-35 -3 -45 -14 -24 -45l131 -194l162 194c25 29 23 42 -12 45l-43 4v36h237v-36l-33 -4c-35 -4 -62 -16 -86 -45l-196 -236l265 -391h99l8 -225h-22l-110 167
c-6 9 -11 12 -26 12h-227v36l43 4c35 3 45 14 24 45l-156 230l-192 -230c-25 -29 -23 -42 12 -45l43 -4v-36h-237z" />
    <glyph glyph-name="uni04B3" unicode="&#x4b3;" horiz-adv-x="637" 
d="M-2 0v32l20 2c36 4 73 28 128 84l107 109l-140 186c-24 32 -38 51 -73 55l-16 2v32h298v-32l-21 -2c-35 -3 -38 -22 -18 -49l69 -92l63 64c42 42 38 72 3 76l-28 3v32h226v-32l-20 -2c-36 -4 -73 -28 -125 -80l-93 -95l189 -252h67l8 -198h-22l-88 144c-6 9 -9 13 -21 13
h-189v32l21 2c35 3 38 22 18 49l-82 109l-80 -81c-42 -42 -38 -72 -3 -76l28 -3v-32h-226z" />
    <glyph glyph-name="uni04B6" unicode="&#x4b6;" horiz-adv-x="908" 
d="M711 0h-204v36l45 4c35 3 44 10 44 49v238c-72 -16 -135 -19 -178 -19c-192 0 -303 62 -303 246v115c0 39 -9 46 -44 49l-45 4v36h338v-36l-45 -4c-35 -3 -44 -10 -44 -49v-128c0 -145 73 -173 187 -173c47 0 89 5 134 18v283c0 39 -9 46 -44 49l-45 4v36h338v-36l-45 -4
c-35 -3 -44 -10 -44 -49v-623h104l8 -225h-22l-110 167c-6 9 -10 12 -25 12z" />
    <glyph glyph-name="uni04B7" unicode="&#x4b7;" horiz-adv-x="627" 
d="M81 363v65c0 36 -5 37 -40 40l-27 2v32h268v-32l-16 -2c-35 -4 -37 -4 -37 -40v-65c0 -82 16 -115 70 -115c20 0 44 7 66 16v164c0 36 -2 36 -37 40l-16 2v32h268v-32l-27 -2c-35 -3 -40 -4 -40 -40v-387h81l8 -198h-22l-88 144c-6 9 -9 13 -21 13h-182v32l39 2
c35 2 37 4 37 40v148c-21 -7 -55 -18 -111 -18c-110 0 -173 39 -173 159z" />
    <glyph glyph-name="uni04BA" unicode="&#x4ba;" horiz-adv-x="891" 
d="M776 204v-115c0 -39 9 -46 44 -49l45 -4v-36h-338v36l45 4c35 3 44 10 44 49v128c0 145 -73 173 -187 173c-47 0 -89 -5 -134 -18v-283c0 -39 9 -46 44 -49l45 -4v-36h-338v36l45 4c35 3 44 10 44 49v580c0 39 -9 46 -44 49l-45 4v36h338v-36l-45 -4
c-35 -3 -44 -10 -44 -49v-238c72 16 135 19 178 19c192 0 303 -62 303 -246z" />
    <glyph glyph-name="uni04BB" unicode="&#x4bb;" horiz-adv-x="616" 
d="M21 0v32l27 2c35 3 40 4 40 40v581l-76 64v6l224 77v-401c22 73 72 120 152 120c81 0 142 -43 142 -187v-260c0 -36 5 -37 40 -40l27 -2v-32h-271v32l19 2c35 4 37 4 37 40v232c0 104 -28 127 -68 127s-78 -24 -78 -128v-231c0 -36 2 -36 37 -40l19 -2v-32h-271z" />
    <glyph glyph-name="uni04C0" unicode="&#x4c0;" horiz-adv-x="430" 
d="M46 0v36l45 4c35 3 44 10 44 49v580c0 39 -9 46 -44 49l-45 4v36h338v-36l-45 -4c-35 -3 -44 -10 -44 -49v-580c0 -39 9 -46 44 -49l45 -4v-36h-338z" />
    <glyph glyph-name="uni04CF" unicode="&#x4cf;" horiz-adv-x="332" 
d="M92 74v610c0 36 -5 37 -40 40l-27 2v32h282v-32l-27 -2c-35 -3 -40 -4 -40 -40v-610c0 -36 5 -37 40 -40l27 -2v-32h-282v32l27 2c35 3 40 4 40 40z" />
    <glyph glyph-name="uni04D8" unicode="&#x4d8;" horiz-adv-x="834" 
d="M410 -13c-182 0 -351 117 -372 318h593c-1 256 -142 370 -303 370c-108 0 -237 -59 -259 -227h-35c12 211 168 331 367 331c198 0 386 -130 387 -396c1 -250 -169 -396 -378 -396zM410 35c113 0 206 87 219 207h-416c17 -131 94 -207 197 -207z" />
    <glyph glyph-name="uni04D9" unicode="&#x4d9;" horiz-adv-x="584" 
d="M291 521c165 0 264 -115 264 -263c0 -166 -131 -271 -261 -271c-126 0 -217 68 -244 205h355c-1 131 -71 233 -185 233c-66 0 -139 -38 -159 -123h-29c23 146 117 219 259 219zM300 21c56 0 94 47 103 129h-189c3 -93 36 -129 86 -129z" />
    <glyph glyph-name="uni04E2" unicode="&#x4e2;" horiz-adv-x="921" 
d="M321 872v68h314v-68h-314zM46 0v36l45 4c35 3 44 10 44 49v580c0 39 -9 46 -44 49l-45 4v36h338v-36l-45 -4c-35 -3 -44 -10 -44 -49v-462l331 440v22c0 39 -9 46 -44 49l-45 4v36h338v-36l-45 -4c-35 -3 -44 -10 -44 -49v-580c0 -39 9 -46 44 -49l45 -4v-36h-338v36
l45 4c35 3 44 10 44 49v469l-331 -440v-29c0 -39 9 -46 44 -49l45 -4v-36h-338z" />
    <glyph glyph-name="uni04E3" unicode="&#x4e3;" horiz-adv-x="654" 
d="M170 669v68h314v-68h-314zM101 74v354c0 36 -5 37 -40 40l-27 2v32h268v-32l-16 -2c-35 -4 -37 -4 -37 -40v-269l156 259v10c0 36 -2 36 -37 40l-16 2v32h268v-32l-27 -2c-35 -3 -40 -4 -40 -40v-354c0 -36 5 -37 40 -40l27 -2v-32h-268v32l16 2c35 4 37 4 37 40v263
l-156 -259v-4c0 -36 2 -36 37 -40l16 -2v-32h-268v32l27 2c35 3 40 4 40 40z" />
    <glyph glyph-name="uni04E8" unicode="&#x4e8;" horiz-adv-x="900" 
d="M450 -13c-214 0 -410 146 -410 396s196 396 410 396s410 -146 410 -396s-196 -396 -410 -396zM450 731c-135 0 -222 -109 -231 -313h462c-9 204 -96 313 -231 313zM450 35c138 0 225 113 232 324h-464c7 -211 94 -324 232 -324z" />
    <glyph glyph-name="uni04E9" unicode="&#x4e9;" horiz-adv-x="624" 
d="M310 -13c-166 0 -276 119 -276 262c0 160 124 272 280 272c166 0 276 -119 276 -262c0 -160 -124 -272 -280 -272zM312 482c-60 0 -107 -48 -112 -196h222c-5 148 -52 196 -110 196zM312 28c60 0 107 51 111 207h-224c4 -156 52 -207 113 -207z" />
    <glyph glyph-name="uni04EE" unicode="&#x4ee;" horiz-adv-x="755" 
d="M272 872v68h314v-68h-314zM358 84c-35 -67 -69 -96 -112 -96c-45 0 -68 28 -68 61c0 55 44 96 161 97l18 34l-281 493c-19 34 -29 41 -64 45l-33 4v36h345v-36l-43 -4c-35 -3 -53 -11 -34 -45l190 -335l174 335c18 34 1 42 -34 45l-43 4v36h242v-36l-33 -4
c-50 -6 -65 -16 -81 -48z" />
    <glyph glyph-name="uni04EF" unicode="&#x4ef;" horiz-adv-x="563" 
d="M152 669v68h314v-68h-314zM214 -88l38 83l-179 418c-16 37 -24 51 -59 55l-16 2v32h286v-32l-21 -2c-35 -3 -45 -18 -32 -49l102 -247l99 219c24 54 8 72 -27 76l-28 3v32h198v-32l-20 -2c-36 -4 -49 -18 -68 -60l-248 -542c-39 -84 -70 -121 -126 -121
c-44 0 -71 34 -71 75c0 57 65 103 172 92z" />
    <glyph glyph-name="Wgrave" unicode="&#x1e80;" horiz-adv-x="1171" 
d="M618 843h-31l-251 126v3h183zM373 -31l-301 704c-15 35 -29 41 -64 45l-33 4v36h345v-36l-43 -4c-35 -3 -49 -10 -34 -45l196 -469l127 295l-103 259h322v-36l-81 -4c-35 -2 -47 -10 -34 -45l173 -469l198 469c15 35 1 42 -34 45l-43 4v36h232v-36l-33 -4
c-35 -4 -49 -10 -64 -45l-302 -704h-20l-184 464l-200 -464h-20z" />
    <glyph glyph-name="wgrave" unicode="&#x1e81;" horiz-adv-x="866" 
d="M467 609h-28l-230 168v11h148zM254 -12l-188 425c-16 37 -24 51 -59 55l-16 2v32h286v-32l-21 -2c-35 -3 -46 -18 -32 -49l108 -242l75 170l-68 155h250v-32l-21 -2c-35 -3 -46 -18 -32 -49l108 -241l92 213c23 54 8 72 -27 76l-28 3v32h199v-32l-20 -2
c-36 -4 -49 -18 -68 -60l-186 -420h-40l-136 307l-136 -307h-40z" />
    <glyph glyph-name="Wacute" unicode="&#x1e82;" horiz-adv-x="1171" 
d="M567 843l99 129h183v-3l-251 -126h-31zM373 -31l-301 704c-15 35 -29 41 -64 45l-33 4v36h345v-36l-43 -4c-35 -3 -49 -10 -34 -45l196 -469l127 295l-103 259h322v-36l-81 -4c-35 -2 -47 -10 -34 -45l173 -469l198 469c15 35 1 42 -34 45l-43 4v36h232v-36l-33 -4
c-35 -4 -49 -10 -64 -45l-302 -704h-20l-184 464l-200 -464h-20z" />
    <glyph glyph-name="wacute" unicode="&#x1e83;" horiz-adv-x="866" 
d="M403 609l110 179h148v-11l-230 -168h-28zM254 -12l-188 425c-16 37 -24 51 -59 55l-16 2v32h286v-32l-21 -2c-35 -3 -46 -18 -32 -49l108 -242l75 170l-68 155h250v-32l-21 -2c-35 -3 -46 -18 -32 -49l108 -241l92 213c23 54 8 72 -27 76l-28 3v32h199v-32l-20 -2
c-36 -4 -49 -18 -68 -60l-186 -420h-40l-136 307l-136 -307h-40z" />
    <glyph glyph-name="Wdieresis" unicode="&#x1e84;" horiz-adv-x="1171" 
d="M472 837c-40 0 -70 31 -70 71c0 41 30 71 70 71c39 0 70 -30 70 -71c0 -40 -31 -71 -70 -71zM698 837c-40 0 -70 31 -70 71c0 41 30 71 70 71c39 0 70 -30 70 -71c0 -40 -31 -71 -70 -71zM373 -31l-301 704c-15 35 -29 41 -64 45l-33 4v36h345v-36l-43 -4
c-35 -3 -49 -10 -34 -45l196 -469l127 295l-103 259h322v-36l-81 -4c-35 -2 -47 -10 -34 -45l173 -469l198 469c15 35 1 42 -34 45l-43 4v36h232v-36l-33 -4c-35 -4 -49 -10 -64 -45l-302 -704h-20l-184 464l-200 -464h-20z" />
    <glyph glyph-name="wdieresis" unicode="&#x1e85;" horiz-adv-x="866" 
d="M548 636c-39 0 -68 30 -68 69c0 40 29 69 68 69c38 0 68 -29 68 -69c0 -39 -30 -69 -68 -69zM322 636c-39 0 -68 30 -68 69c0 40 29 69 68 69c38 0 68 -29 68 -69c0 -39 -30 -69 -68 -69zM254 -12l-188 425c-16 37 -24 51 -59 55l-16 2v32h286v-32l-21 -2
c-35 -3 -46 -18 -32 -49l108 -242l75 170l-68 155h250v-32l-21 -2c-35 -3 -46 -18 -32 -49l108 -241l92 213c23 54 8 72 -27 76l-28 3v32h199v-32l-20 -2c-36 -4 -49 -18 -68 -60l-186 -420h-40l-136 307l-136 -307h-40z" />
    <glyph glyph-name="uni1ECA" unicode="&#x1eca;" horiz-adv-x="422" 
d="M42 0v36l45 4c35 3 44 10 44 49v580c0 39 -9 46 -44 49l-45 4v36h338v-36l-45 -4c-35 -3 -44 -10 -44 -49v-580c0 -39 9 -46 44 -49l45 -4v-36h-338zM211 -242c-40 0 -70 31 -70 71c0 41 30 71 70 71c39 0 70 -30 70 -71c0 -40 -31 -71 -70 -71z" />
    <glyph glyph-name="uni1ECB" unicode="&#x1ecb;" horiz-adv-x="337" 
d="M81 710c0 49 44 93 93 93c50 0 94 -44 94 -93c0 -50 -44 -94 -94 -94c-49 0 -93 44 -93 94zM34 0v32l27 2c35 3 40 4 40 40v283l-76 72v6l224 94v-455c0 -36 5 -37 40 -40l27 -2v-32h-282zM175 -237c-39 0 -68 30 -68 69c0 40 29 69 68 69c38 0 68 -29 68 -69
c0 -39 -30 -69 -68 -69z" />
    <glyph glyph-name="uni1ECC" unicode="&#x1ecc;" horiz-adv-x="892" 
d="M446 -13c-214 0 -410 146 -410 396s196 396 410 396s410 -146 410 -396s-196 -396 -410 -396zM446 35c143 0 232 122 232 348s-89 348 -232 348s-232 -122 -232 -348s89 -348 232 -348zM446 -242c-40 0 -70 31 -70 71c0 41 30 71 70 71c39 0 70 -30 70 -71
c0 -40 -31 -71 -70 -71z" />
    <glyph glyph-name="uni1ECD" unicode="&#x1ecd;" horiz-adv-x="616" 
d="M306 -13c-166 0 -276 119 -276 262c0 160 124 272 280 272c166 0 276 -119 276 -262c0 -160 -124 -272 -280 -272zM308 28c62 0 111 55 111 227s-49 227 -111 227c-64 0 -113 -55 -113 -227s49 -227 113 -227zM307 -237c-39 0 -68 30 -68 69c0 40 29 69 68 69
c38 0 68 -29 68 -69c0 -39 -30 -69 -68 -69z" />
    <glyph glyph-name="uni1EE4" unicode="&#x1ee4;" horiz-adv-x="855" 
d="M433 -13c-202 0 -323 93 -323 308v374c0 39 -9 46 -44 49l-45 4v36h338v-36l-45 -4c-35 -3 -44 -10 -44 -49v-377c0 -176 74 -232 205 -232c137 0 215 73 215 246v363c0 39 -9 46 -44 49l-45 4v36h234v-36l-45 -4c-35 -3 -44 -10 -44 -49v-373
c0 -201 -112 -309 -313 -309zM458 -242c-40 0 -70 31 -70 71c0 41 30 71 70 71c39 0 70 -30 70 -71c0 -40 -31 -71 -70 -71z" />
    <glyph glyph-name="uni1EE5" unicode="&#x1ee5;" horiz-adv-x="610" 
d="M224 -13c-81 0 -142 43 -142 187v271l-65 25v32h213v-300c0 -104 28 -127 68 -127s78 24 78 128v242l-65 25v32h213v-436h73v-32l-221 -45v118c-22 -73 -72 -120 -152 -120zM309 -237c-39 0 -68 30 -68 69c0 40 29 69 68 69c38 0 68 -29 68 -69c0 -39 -30 -69 -68 -69z
" />
    <glyph glyph-name="Ygrave" unicode="&#x1ef2;" horiz-adv-x="760" 
d="M460 843h-31l-251 126v3h183zM186 0v38l70 4c35 2 44 8 44 47v253l-220 331c-22 33 -29 41 -64 45l-33 4v36h350v-36l-43 -4c-35 -3 -55 -13 -34 -45l180 -276l184 276c22 33 1 42 -34 45l-43 4v36h234v-36l-33 -4c-35 -4 -42 -12 -64 -45l-220 -332v-252
c0 -39 9 -45 44 -47l70 -4v-38h-388z" />
    <glyph glyph-name="ygrave" unicode="&#x1ef3;" horiz-adv-x="555" 
d="M348 609h-28l-230 168v11h148zM210 -88l38 83l-179 418c-16 37 -24 51 -59 55l-16 2v32h286v-32l-21 -2c-35 -3 -45 -18 -32 -49l102 -247l99 219c24 54 8 72 -27 76l-28 3v32h198v-32l-20 -2c-36 -4 -49 -18 -68 -60l-248 -542c-39 -84 -70 -121 -126 -121
c-44 0 -71 34 -71 75c0 57 65 103 172 92z" />
    <glyph glyph-name="uni2007" unicode="&#x2007;" horiz-adv-x="675" 
 />
    <glyph glyph-name="uni2008" unicode="&#x2008;" horiz-adv-x="281" 
 />
    <glyph glyph-name="uni2009" unicode="&#x2009;" horiz-adv-x="44" 
 />
    <glyph glyph-name="uni200B" unicode="&#x200b;" 
 />
    <glyph glyph-name="endash" unicode="&#x2013;" horiz-adv-x="646" 
d="M56 225v75h534v-75h-534z" />
    <glyph glyph-name="emdash" unicode="&#x2014;" horiz-adv-x="1072" 
d="M56 225v75h960v-75h-960z" />
    <glyph glyph-name="quoteleft" unicode="&#x2018;" horiz-adv-x="282" 
d="M230 809l17 -33c-62 -36 -94 -81 -94 -130c0 -48 31 -78 96 -92c2 -59 -40 -111 -105 -111c-58 0 -103 40 -103 112c0 94 74 193 189 254z" />
    <glyph glyph-name="quoteright" unicode="&#x2019;" horiz-adv-x="282" 
d="M68 429l-17 33c62 36 94 81 94 130c0 48 -31 78 -96 92c-2 59 40 111 105 111c58 0 103 -40 103 -112c0 -94 -74 -193 -189 -254z" />
    <glyph glyph-name="quotesinglbase" unicode="&#x201a;" horiz-adv-x="295" 
d="M60 -189l-17 33c62 36 94 81 94 130c0 48 -31 78 -96 92c-2 59 40 111 105 111c58 0 103 -40 103 -112c0 -94 -74 -193 -189 -254z" />
    <glyph glyph-name="quotedblleft" unicode="&#x201c;" horiz-adv-x="522" 
d="M230 809l17 -33c-62 -36 -94 -81 -94 -130c0 -48 31 -78 96 -92c2 -59 -40 -111 -105 -111c-58 0 -103 40 -103 112c0 94 74 193 189 254zM470 809l17 -33c-62 -36 -94 -81 -94 -130c0 -48 31 -78 96 -92c2 -59 -40 -111 -105 -111c-58 0 -103 40 -103 112
c0 94 74 193 189 254z" />
    <glyph glyph-name="quotedblright" unicode="&#x201d;" horiz-adv-x="522" 
d="M68 429l-17 33c62 36 94 81 94 130c0 48 -31 78 -96 92c-2 59 40 111 105 111c58 0 103 -40 103 -112c0 -94 -74 -193 -189 -254zM308 429l-17 33c62 36 94 81 94 130c0 48 -31 78 -96 92c-2 59 40 111 105 111c58 0 103 -40 103 -112c0 -94 -74 -193 -189 -254z" />
    <glyph glyph-name="quotedblbase" unicode="&#x201e;" horiz-adv-x="535" 
d="M60 -189l-17 33c62 36 94 81 94 130c0 48 -31 78 -96 92c-2 59 40 111 105 111c58 0 103 -40 103 -112c0 -94 -74 -193 -189 -254zM300 -189l-17 33c62 36 94 81 94 130c0 48 -31 78 -96 92c-2 59 40 111 105 111c58 0 103 -40 103 -112c0 -94 -74 -193 -189 -254z" />
    <glyph glyph-name="dagger" unicode="&#x2020;" horiz-adv-x="706" 
d="M129 378c-34 17 -74 58 -96 94c22 36 62 77 96 94c33 -35 68 -79 181 -79h26v15c0 113 -42 148 -77 181c17 34 58 74 94 96c36 -22 77 -62 94 -96c-35 -33 -77 -68 -77 -181v-15h26c113 0 148 44 181 79c34 -17 74 -58 96 -94c-22 -36 -62 -77 -96 -94
c-33 35 -68 79 -181 79h-26v-18c0 -107 42 -140 77 -173c-35 -43 -81 -107 -78 -264l4 -230h-40l4 230c3 157 -43 221 -78 264c35 33 77 66 77 173v18h-26c-113 0 -148 -44 -181 -79z" />
    <glyph glyph-name="daggerdbl" unicode="&#x2021;" horiz-adv-x="706" 
d="M129 -34c-34 17 -74 58 -96 94c22 36 62 77 96 94c33 -35 68 -79 181 -79h26v18c0 107 -42 140 -77 173c35 33 77 66 77 173v18h-26c-113 0 -148 -44 -181 -79c-34 17 -74 58 -96 94c22 36 62 77 96 94c33 -35 68 -79 181 -79h26v15c0 113 -42 148 -77 181
c17 34 58 74 94 96c36 -22 77 -62 94 -96c-35 -33 -77 -68 -77 -181v-15h26c113 0 148 44 181 79c34 -17 74 -58 96 -94c-22 -36 -62 -77 -96 -94c-33 35 -68 79 -181 79h-26v-18c0 -107 42 -140 77 -173c-35 -33 -77 -66 -77 -173v-18h26c113 0 148 44 181 79
c34 -17 74 -58 96 -94c-22 -36 -62 -77 -96 -94c-33 35 -68 79 -181 79h-26v-15c0 -113 42 -148 77 -181c-17 -34 -58 -74 -94 -96c-36 22 -77 62 -94 96c35 33 77 68 77 181v15h-26c-113 0 -148 -44 -181 -79z" />
    <glyph glyph-name="bullet" unicode="&#x2022;" horiz-adv-x="389" 
d="M194 258c-69 0 -126 57 -126 127c0 69 57 126 126 126c70 0 127 -57 127 -126c0 -70 -57 -127 -127 -127z" />
    <glyph glyph-name="ellipsis" unicode="&#x2026;" horiz-adv-x="989" 
d="M138 -13c-52 0 -95 43 -95 99c0 52 43 95 95 95c56 0 99 -43 99 -95c0 -56 -43 -99 -99 -99zM492 -13c-52 0 -95 43 -95 99c0 52 43 95 95 95c56 0 99 -43 99 -95c0 -56 -43 -99 -99 -99zM846 -13c-52 0 -95 43 -95 99c0 52 43 95 95 95c56 0 99 -43 99 -95
c0 -56 -43 -99 -99 -99z" />
    <glyph glyph-name="perthousand" unicode="&#x2030;" horiz-adv-x="1331" 
d="M32 552c0 109 61 219 171 219c112 0 173 -110 173 -219c0 -108 -61 -219 -173 -219c-110 0 -171 111 -171 219zM132 0l566 758h92l-566 -758h-92zM147 552c0 -97 1 -192 56 -192s57 95 57 192s-2 192 -57 192s-56 -95 -56 -192zM546 211c0 109 61 219 171 219
c112 0 173 -110 173 -219c0 -108 -61 -219 -173 -219c-110 0 -171 111 -171 219zM956 211c0 109 61 219 171 219c112 0 173 -110 173 -219c0 -108 -61 -219 -173 -219c-110 0 -171 111 -171 219zM661 211c0 -97 1 -192 56 -192s57 95 57 192s-2 192 -57 192
s-56 -95 -56 -192zM1071 211c0 -97 1 -192 56 -192s57 95 57 192s-2 192 -57 192s-56 -95 -56 -192z" />
    <glyph glyph-name="guilsinglleft" unicode="&#x2039;" horiz-adv-x="333" 
d="M169 250l116 -223l-13 -9l-238 233l238 233l13 -9z" />
    <glyph glyph-name="guilsinglright" unicode="&#x203a;" horiz-adv-x="333" 
d="M172 250l-116 225l13 9l238 -233l-238 -233l-13 9z" />
    <glyph glyph-name="fraction" unicode="&#x2044;" horiz-adv-x="192" 
d="M-231 0l566 758h92l-566 -758h-92z" />
    <glyph glyph-name="uni2060" unicode="&#x2060;" 
 />
    <glyph glyph-name="zero.superior" unicode="&#x2070;" horiz-adv-x="398" 
d="M27 612c0 109 61 219 171 219c112 0 173 -110 173 -219c0 -108 -61 -219 -173 -219c-110 0 -171 111 -171 219zM142 612c0 -97 1 -192 56 -192s57 95 57 192s-2 192 -57 192s-56 -95 -56 -192z" />
    <glyph glyph-name="four.superior" unicode="&#x2074;" horiz-adv-x="379" 
d="M194 401v100h-194l204 316h90v-244h69v-72h-69v-100h-100zM84 573h110v173z" />
    <glyph glyph-name="five.superior" unicode="&#x2075;" horiz-adv-x="336" 
d="M107 393c-49 0 -96 20 -96 67c0 31 28 59 76 50c10 -49 30 -80 70 -80c44 0 74 25 74 64c0 43 -40 78 -181 101l58 223h213l-26 -93h-188l-8 -28c154 -25 203 -70 203 -149c0 -80 -85 -155 -195 -155z" />
    <glyph glyph-name="six.superior" unicode="&#x2076;" horiz-adv-x="366" 
d="M338 533c0 -81 -77 -140 -157 -140c-94 0 -167 59 -167 161c0 111 133 248 328 303l7 -21c-141 -62 -197 -143 -214 -220c23 21 48 37 87 37c59 0 116 -35 116 -120zM128 555c0 -95 22 -135 51 -135c34 0 45 36 45 91c0 64 -20 97 -56 97c-14 0 -24 -1 -37 -11
c-2 -14 -3 -28 -3 -42z" />
    <glyph glyph-name="seven.superior" unicode="&#x2077;" horiz-adv-x="347" 
d="M63 818h299l-135 -170c-79 -101 -92 -177 -97 -208c-6 -35 -19 -38 -39 -40l-45 -5c-19 -2 -47 2 -28 30c67 96 128 168 238 300h-109c-61 0 -74 -2 -88 -36l-2 -5h-22z" />
    <glyph glyph-name="eight.superior" unicode="&#x2078;" horiz-adv-x="343" 
d="M167 393c-82 0 -140 44 -140 107c0 41 28 70 80 92c-38 23 -68 63 -68 117c0 73 61 122 134 122c71 0 124 -36 124 -87c0 -39 -26 -66 -73 -91c55 -29 92 -67 92 -133c0 -82 -81 -127 -149 -127zM168 682l39 -20c27 21 29 50 29 71c0 34 -19 67 -66 67
c-37 0 -63 -20 -63 -48c0 -30 25 -51 61 -70zM94 507c0 -52 32 -83 79 -83c41 0 68 21 68 55c0 33 -26 55 -71 79l-47 25c-22 -18 -29 -44 -29 -76z" />
    <glyph glyph-name="nine.superior" unicode="&#x2079;" horiz-adv-x="367" 
d="M352 670c0 -111 -131 -238 -326 -293l-7 21c141 62 195 136 212 210c-23 -21 -48 -37 -87 -37c-59 0 -116 35 -116 120c0 81 77 140 157 140c94 0 167 -59 167 -161zM142 713c0 -64 20 -97 56 -97c14 0 24 1 37 11c2 14 3 28 3 42c0 95 -22 135 -51 135
c-34 0 -45 -36 -45 -91z" />
    <glyph glyph-name="zero.inferior" unicode="&#x2080;" horiz-adv-x="398" 
d="M27 151c0 109 61 219 171 219c112 0 173 -110 173 -219c0 -108 -61 -219 -173 -219c-110 0 -171 111 -171 219zM142 151c0 -97 1 -192 56 -192s57 95 57 192s-2 192 -57 192s-56 -95 -56 -192z" />
    <glyph glyph-name="one.inferior" unicode="&#x2081;" horiz-adv-x="245" 
d="M79 -3v292l-61 -23v32l161 67v-368c0 -21 6 -28 27 -30l22 -2v-25h-197v26l23 2c21 2 25 8 25 29z" />
    <glyph glyph-name="two.inferior" unicode="&#x2082;" horiz-adv-x="331" 
d="M6 -60v2c136 143 187 236 187 310c0 34 -15 65 -58 65c-37 0 -73 -25 -81 -89h-23c3 98 70 142 145 142c85 0 123 -50 123 -99c0 -66 -74 -131 -140 -193l-53 -50h88c56 0 75 2 87 33l3 8h23l-29 -129h-272z" />
    <glyph glyph-name="three.inferior" unicode="&#x2083;" horiz-adv-x="337" 
d="M111 -68c-48 0 -96 21 -96 68c0 30 28 59 77 50c10 -53 26 -84 65 -84c27 0 64 18 64 72c0 66 -47 104 -93 104c-18 0 -29 -2 -40 -8l-8 25l16 6c61 24 101 66 101 104c0 31 -22 48 -53 48c-28 0 -68 -13 -76 -74h-23c8 83 55 127 144 127c51 0 103 -24 103 -69
c0 -34 -22 -60 -95 -75v-2c76 -21 115 -75 115 -125c0 -98 -102 -167 -201 -167z" />
    <glyph glyph-name="four.inferior" unicode="&#x2084;" horiz-adv-x="379" 
d="M193 -60v100h-194l204 316h90v-244h69v-72h-69v-100h-100zM83 112h110v173z" />
    <glyph glyph-name="five.inferior" unicode="&#x2085;" horiz-adv-x="336" 
d="M106 -68c-49 0 -96 20 -96 67c0 31 28 59 76 50c10 -49 30 -80 70 -80c44 0 74 25 74 64c0 43 -40 78 -181 101l58 223h213l-26 -93h-188l-8 -28c154 -25 203 -70 203 -149c0 -80 -85 -155 -195 -155z" />
    <glyph glyph-name="six.inferior" unicode="&#x2086;" horiz-adv-x="366" 
d="M338 72c0 -81 -77 -140 -157 -140c-94 0 -167 59 -167 161c0 111 133 248 328 303l7 -21c-141 -62 -197 -143 -214 -220c23 21 48 37 87 37c59 0 116 -35 116 -120zM128 94c0 -95 22 -135 51 -135c34 0 45 36 45 91c0 64 -20 97 -56 97c-14 0 -24 -1 -37 -11
c-2 -14 -3 -28 -3 -42z" />
    <glyph glyph-name="seven.inferior" unicode="&#x2087;" horiz-adv-x="347" 
d="M63 357h299l-135 -170c-79 -101 -92 -177 -97 -208c-6 -35 -19 -38 -39 -40l-45 -5c-19 -2 -47 2 -28 30c67 96 128 168 238 300h-109c-61 0 -74 -2 -88 -36l-2 -5h-22z" />
    <glyph glyph-name="eight.inferior" unicode="&#x2088;" horiz-adv-x="343" 
d="M167 -68c-82 0 -140 44 -140 107c0 41 28 70 80 92c-38 23 -68 63 -68 117c0 73 61 122 134 122c71 0 124 -36 124 -87c0 -39 -26 -66 -73 -91c55 -29 92 -67 92 -133c0 -82 -81 -127 -149 -127zM168 221l39 -20c27 21 29 50 29 71c0 34 -19 67 -66 67
c-37 0 -63 -20 -63 -48c0 -30 25 -51 61 -70zM94 46c0 -52 32 -83 79 -83c41 0 68 21 68 55c0 33 -26 55 -71 79l-47 25c-22 -18 -29 -44 -29 -76z" />
    <glyph glyph-name="nine.inferior" unicode="&#x2089;" horiz-adv-x="367" 
d="M352 209c0 -111 -131 -238 -326 -293l-7 21c141 62 195 136 212 210c-23 -21 -48 -37 -87 -37c-59 0 -116 35 -116 120c0 81 77 140 157 140c94 0 167 -59 167 -161zM142 252c0 -64 20 -97 56 -97c14 0 24 1 37 11c2 14 3 28 3 42c0 95 -22 135 -51 135
c-34 0 -45 -36 -45 -91z" />
    <glyph glyph-name="Euro" unicode="&#x20ac;" horiz-adv-x="851" 
d="M31 283l18 54h107c-1 15 -2 30 -2 46c0 15 1 30 2 45h-125l18 54h116c39 176 184 297 368 297c131 0 249 -48 249 -123c0 -58 -61 -88 -136 -75c5 114 -52 159 -130 159c-109 0 -181 -91 -192 -258h250l-18 -54h-234c0 -31 2 -62 6 -91h197l-18 -54h-170
c27 -125 94 -221 223 -221c101 0 193 48 220 206h32c-19 -207 -141 -281 -297 -281c-192 0 -316 127 -351 296h-133z" />
    <glyph glyph-name="uni20B4" unicode="&#x20b4;" horiz-adv-x="658" 
d="M50 429v54h306c67 39 102 84 102 141c0 68 -39 108 -133 108c-11 0 -22 -1 -32 -3c-13 -3 -18 -4 -34 -26l-140 -186h-22l48 235c47 18 122 27 177 27c146 0 271 -52 271 -187c0 -38 -10 -79 -35 -109h50v-54h-558zM50 316v54h558v-54h-273c-99 -38 -136 -93 -136 -165
c0 -80 58 -118 137 -118c21 0 40 2 58 6c16 4 29 9 47 35l140 196h22l-47 -246c-67 -28 -146 -37 -215 -37c-152 0 -279 64 -279 203c0 63 24 99 50 126h-62z" />
    <glyph glyph-name="uni20B8" unicode="&#x20b8;" horiz-adv-x="782" 
d="M44 704l4 54h690l3 -54h-697zM197 0v38l70 4c35 2 44 8 44 47v515h-107c-21 0 -27 -1 -37 -18l-128 -212h-22l22 271h704l22 -271h-22l-128 212c-10 17 -16 18 -37 18h-107v-515c0 -39 9 -45 44 -47l70 -4v-38h-388z" />
    <glyph glyph-name="uni20BD" unicode="&#x20bd;" horiz-adv-x="730" 
d="M46 0v36l45 4c35 3 44 10 44 49v132h-70v54h70v59h-70v54h70v281c0 39 -9 46 -44 49l-45 4v36h330c190 0 336 -43 336 -204s-146 -220 -336 -220h-81v-59h263v-54h-263v-132c0 -39 9 -45 44 -47l80 -4v-38h-373zM295 714v-326h74c119 0 166 50 166 160s-47 166 -166 166
h-74z" />
    <glyph glyph-name="uni2116" unicode="&#x2116;" horiz-adv-x="1254" 
d="M874 552c0 109 61 219 171 219c112 0 173 -110 173 -219c0 -108 -61 -219 -173 -219c-110 0 -171 111 -171 219zM48 0v36l45 4c35 3 44 10 44 49v558l-101 109v2h210l456 -475v386c0 39 -9 46 -44 49l-45 4v36h234v-36l-45 -4c-35 -3 -44 -10 -44 -49v-686h-4l-561 604
v-498c0 -39 9 -46 44 -49l45 -4v-36h-234zM989 552c0 -97 1 -192 56 -192s57 95 57 192s-2 192 -57 192s-56 -95 -56 -192zM899 233v59h294v-59h-294z" />
    <glyph glyph-name="uni2117" unicode="&#x2117;" horiz-adv-x="872" 
d="M436 -13c-221 0 -399 162 -399 396s178 396 399 396s399 -162 399 -396s-178 -396 -399 -396zM436 35c194 0 342 137 342 348s-148 348 -342 348s-342 -137 -342 -348s148 -348 342 -348zM268 180v23l17 2c21 2 33 7 33 31v318c0 24 -12 29 -33 31l-17 2v23h190
c111 0 195 -26 195 -116c0 -91 -84 -123 -195 -123h-22v28h19c64 0 82 33 82 91s-18 92 -82 92h-33v-346c0 -24 12 -27 33 -29l36 -3v-24h-223z" />
    <glyph glyph-name="trademark" unicode="&#x2122;" horiz-adv-x="1215" 
d="M139 288v28l37 2c24 1 37 6 37 34v376h-53c-15 0 -19 0 -26 -12l-90 -154h-8l13 196h447l13 -196h-8l-90 154c-7 12 -11 12 -26 12h-53v-376c0 -28 13 -33 37 -34l37 -2v-28h-267zM562 288v26l18 3c24 4 36 7 36 35v342c0 28 -12 31 -36 35l-18 3v26h209l98 -230l96 230
h195v-26l-18 -3c-24 -4 -36 -7 -36 -35v-342c0 -28 12 -31 36 -35l18 -3v-26h-228v26l18 3c24 4 36 7 36 35v362l-159 -365h-4l-166 363v-360c0 -28 13 -31 36 -35l19 -3v-26h-150z" />
    <glyph glyph-name="uni2150" unicode="&#x2150;" horiz-adv-x="800" 
d="M79 398v292l-61 -23v32l161 67v-368c0 -21 6 -28 27 -30l22 -2v-25h-197v26l23 2c21 2 25 8 25 29zM22 0l566 758h92l-566 -758h-92zM516 417h299l-135 -170c-79 -101 -92 -177 -97 -208c-6 -35 -19 -38 -39 -40l-45 -5c-19 -2 -47 2 -28 30c67 96 128 168 238 300h-109
c-61 0 -74 -2 -88 -36l-2 -5h-22z" />
    <glyph glyph-name="uni2151" unicode="&#x2151;" horiz-adv-x="820" 
d="M79 398v292l-61 -23v32l161 67v-368c0 -21 6 -28 27 -30l22 -2v-25h-197v26l23 2c21 2 25 8 25 29zM22 0l566 758h92l-566 -758h-92zM805 269c0 -111 -131 -238 -326 -293l-7 21c141 62 195 136 212 210c-23 -21 -48 -37 -87 -37c-59 0 -116 35 -116 120
c0 81 77 140 157 140c94 0 167 -59 167 -161zM595 312c0 -64 20 -97 56 -97c14 0 24 1 37 11c2 14 3 28 3 42c0 95 -22 135 -51 135c-34 0 -45 -36 -45 -91z" />
    <glyph glyph-name="uni2152" unicode="&#x2152;" horiz-adv-x="1104" 
d="M79 398v292l-61 -23v32l161 67v-368c0 -21 6 -28 27 -30l22 -2v-25h-197v26l23 2c21 2 25 8 25 29zM22 0l566 758h92l-566 -758h-92zM733 211c0 109 61 219 171 219c112 0 173 -110 173 -219c0 -108 -61 -219 -173 -219c-110 0 -171 111 -171 219zM531 57v292l-61 -23v32
l161 67v-368c0 -21 6 -28 27 -30l22 -2v-25h-197v26l23 2c21 2 25 8 25 29zM848 211c0 -97 1 -192 56 -192s57 95 57 192s-2 192 -57 192s-56 -95 -56 -192z" />
    <glyph glyph-name="onethird" unicode="&#x2153;" horiz-adv-x="790" 
d="M79 398v292l-61 -23v32l161 67v-368c0 -21 6 -28 27 -30l22 -2v-25h-197v26l23 2c21 2 25 8 25 29zM22 0l566 758h92l-566 -758h-92zM564 -8c-48 0 -96 21 -96 68c0 30 28 59 77 50c10 -53 26 -84 65 -84c27 0 64 18 64 72c0 66 -47 104 -93 104c-18 0 -29 -2 -40 -8
l-8 25l16 6c61 24 101 66 101 104c0 31 -22 48 -53 48c-28 0 -68 -13 -76 -74h-23c8 83 55 127 144 127c51 0 103 -24 103 -69c0 -34 -22 -60 -95 -75v-2c76 -21 115 -75 115 -125c0 -98 -102 -167 -201 -167z" />
    <glyph glyph-name="twothirds" unicode="&#x2154;" horiz-adv-x="876" 
d="M5 341v2c136 143 187 236 187 310c0 34 -15 65 -58 65c-37 0 -73 -25 -81 -89h-23c3 98 70 142 145 142c85 0 123 -50 123 -99c0 -66 -74 -131 -140 -193l-53 -50h88c56 0 75 2 87 33l3 8h23l-29 -129h-272zM108 0l566 758h92l-566 -758h-92zM650 -8c-48 0 -96 21 -96 68
c0 30 28 59 77 50c10 -53 26 -84 65 -84c27 0 64 18 64 72c0 66 -47 104 -93 104c-18 0 -29 -2 -40 -8l-8 25l16 6c61 24 101 66 101 104c0 31 -22 48 -53 48c-28 0 -68 -13 -76 -74h-23c8 83 55 127 144 127c51 0 103 -24 103 -69c0 -34 -22 -60 -95 -75v-2
c76 -21 115 -75 115 -125c0 -98 -102 -167 -201 -167z" />
    <glyph glyph-name="uni2155" unicode="&#x2155;" horiz-adv-x="789" 
d="M79 398v292l-61 -23v32l161 67v-368c0 -21 6 -28 27 -30l22 -2v-25h-197v26l23 2c21 2 25 8 25 29zM22 0l566 758h92l-566 -758h-92zM559 -8c-49 0 -96 20 -96 67c0 31 28 59 76 50c10 -49 30 -80 70 -80c44 0 74 25 74 64c0 43 -40 78 -181 101l58 223h213l-26 -93h-188
l-8 -28c154 -25 203 -70 203 -149c0 -80 -85 -155 -195 -155z" />
    <glyph glyph-name="uni2156" unicode="&#x2156;" horiz-adv-x="875" 
d="M5 341v2c136 143 187 236 187 310c0 34 -15 65 -58 65c-37 0 -73 -25 -81 -89h-23c3 98 70 142 145 142c85 0 123 -50 123 -99c0 -66 -74 -131 -140 -193l-53 -50h88c56 0 75 2 87 33l3 8h23l-29 -129h-272zM108 0l566 758h92l-566 -758h-92zM645 -8c-49 0 -96 20 -96 67
c0 31 28 59 76 50c10 -49 30 -80 70 -80c44 0 74 25 74 64c0 43 -40 78 -181 101l58 223h213l-26 -93h-188l-8 -28c154 -25 203 -70 203 -149c0 -80 -85 -155 -195 -155z" />
    <glyph glyph-name="uni2157" unicode="&#x2157;" horiz-adv-x="881" 
d="M111 333c-48 0 -96 21 -96 68c0 30 28 59 77 50c10 -53 26 -84 65 -84c27 0 64 18 64 72c0 66 -47 104 -93 104c-18 0 -29 -2 -40 -8l-8 25l16 6c61 24 101 66 101 104c0 31 -22 48 -53 48c-28 0 -68 -13 -76 -74h-23c8 83 55 127 144 127c51 0 103 -24 103 -69
c0 -34 -22 -60 -95 -75v-2c76 -21 115 -75 115 -125c0 -98 -102 -167 -201 -167zM114 0l566 758h92l-566 -758h-92zM651 -8c-49 0 -96 20 -96 67c0 31 28 59 76 50c10 -49 30 -80 70 -80c44 0 74 25 74 64c0 43 -40 78 -181 101l58 223h213l-26 -93h-188l-8 -28
c154 -25 203 -70 203 -149c0 -80 -85 -155 -195 -155z" />
    <glyph glyph-name="uni2158" unicode="&#x2158;" horiz-adv-x="923" 
d="M156 0l566 758h92l-566 -758h-92zM194 341v100h-194l204 316h90v-244h69v-72h-69v-100h-100zM84 513h110v173zM693 -8c-49 0 -96 20 -96 67c0 31 28 59 76 50c10 -49 30 -80 70 -80c44 0 74 25 74 64c0 43 -40 78 -181 101l58 223h213l-26 -93h-188l-8 -28
c154 -25 203 -70 203 -149c0 -80 -85 -155 -195 -155z" />
    <glyph glyph-name="uni2159" unicode="&#x2159;" horiz-adv-x="782" 
d="M79 398v292l-61 -23v32l161 67v-368c0 -21 6 -28 27 -30l22 -2v-25h-197v26l23 2c21 2 25 8 25 29zM22 0l566 758h92l-566 -758h-92zM754 132c0 -81 -77 -140 -157 -140c-94 0 -167 59 -167 161c0 111 133 248 328 303l7 -21c-141 -62 -197 -143 -214 -220
c23 21 48 37 87 37c59 0 116 -35 116 -120zM544 154c0 -95 22 -135 51 -135c34 0 45 36 45 91c0 64 -20 97 -56 97c-14 0 -24 -1 -37 -11c-2 -14 -3 -28 -3 -42z" />
    <glyph glyph-name="uni215A" unicode="&#x215a;" horiz-adv-x="873" 
d="M107 333c-49 0 -96 20 -96 67c0 31 28 59 76 50c10 -49 30 -80 70 -80c44 0 74 25 74 64c0 43 -40 78 -181 101l58 223h213l-26 -93h-188l-8 -28c154 -25 203 -70 203 -149c0 -80 -85 -155 -195 -155zM113 0l566 758h92l-566 -758h-92zM845 132c0 -81 -77 -140 -157 -140
c-94 0 -167 59 -167 161c0 111 133 248 328 303l7 -21c-141 -62 -197 -143 -214 -220c23 21 48 37 87 37c59 0 116 -35 116 -120zM635 154c0 -95 22 -135 51 -135c34 0 45 36 45 91c0 64 -20 97 -56 97c-14 0 -24 -1 -37 -11c-2 -14 -3 -28 -3 -42z" />
    <glyph glyph-name="oneeighth" unicode="&#x215b;" horiz-adv-x="796" 
d="M79 398v292l-61 -23v32l161 67v-368c0 -21 6 -28 27 -30l22 -2v-25h-197v26l23 2c21 2 25 8 25 29zM22 0l566 758h92l-566 -758h-92zM620 -8c-82 0 -140 44 -140 107c0 41 28 70 80 92c-38 23 -68 63 -68 117c0 73 61 122 134 122c71 0 124 -36 124 -87
c0 -39 -26 -66 -73 -91c55 -29 92 -67 92 -133c0 -82 -81 -127 -149 -127zM621 281l39 -20c27 21 29 50 29 71c0 34 -19 67 -66 67c-37 0 -63 -20 -63 -48c0 -30 25 -51 61 -70zM547 106c0 -52 32 -83 79 -83c41 0 68 21 68 55c0 33 -26 55 -71 79l-47 25
c-22 -18 -29 -44 -29 -76z" />
    <glyph glyph-name="threeeighths" unicode="&#x215c;" horiz-adv-x="888" 
d="M111 333c-48 0 -96 21 -96 68c0 30 28 59 77 50c10 -53 26 -84 65 -84c27 0 64 18 64 72c0 66 -47 104 -93 104c-18 0 -29 -2 -40 -8l-8 25l16 6c61 24 101 66 101 104c0 31 -22 48 -53 48c-28 0 -68 -13 -76 -74h-23c8 83 55 127 144 127c51 0 103 -24 103 -69
c0 -34 -22 -60 -95 -75v-2c76 -21 115 -75 115 -125c0 -98 -102 -167 -201 -167zM114 0l566 758h92l-566 -758h-92zM712 -8c-82 0 -140 44 -140 107c0 41 28 70 80 92c-38 23 -68 63 -68 117c0 73 61 122 134 122c71 0 124 -36 124 -87c0 -39 -26 -66 -73 -91
c55 -29 92 -67 92 -133c0 -82 -81 -127 -149 -127zM713 281l39 -20c27 21 29 50 29 71c0 34 -19 67 -66 67c-37 0 -63 -20 -63 -48c0 -30 25 -51 61 -70zM639 106c0 -52 32 -83 79 -83c41 0 68 21 68 55c0 33 -26 55 -71 79l-47 25c-22 -18 -29 -44 -29 -76z" />
    <glyph glyph-name="fiveeighths" unicode="&#x215d;" horiz-adv-x="887" 
d="M107 333c-49 0 -96 20 -96 67c0 31 28 59 76 50c10 -49 30 -80 70 -80c44 0 74 25 74 64c0 43 -40 78 -181 101l58 223h213l-26 -93h-188l-8 -28c154 -25 203 -70 203 -149c0 -80 -85 -155 -195 -155zM113 0l566 758h92l-566 -758h-92zM711 -8c-82 0 -140 44 -140 107
c0 41 28 70 80 92c-38 23 -68 63 -68 117c0 73 61 122 134 122c71 0 124 -36 124 -87c0 -39 -26 -66 -73 -91c55 -29 92 -67 92 -133c0 -82 -81 -127 -149 -127zM712 281l39 -20c27 21 29 50 29 71c0 34 -19 67 -66 67c-37 0 -63 -20 -63 -48c0 -30 25 -51 61 -70zM638 106
c0 -52 32 -83 79 -83c41 0 68 21 68 55c0 33 -26 55 -71 79l-47 25c-22 -18 -29 -44 -29 -76z" />
    <glyph glyph-name="seveneighths" unicode="&#x215e;" horiz-adv-x="837" 
d="M63 758h299l-135 -170c-79 -101 -92 -177 -97 -208c-6 -35 -19 -38 -39 -40l-45 -5c-19 -2 -47 2 -28 30c67 96 128 168 238 300h-109c-61 0 -74 -2 -88 -36l-2 -5h-22zM63 0l566 758h92l-566 -758h-92zM661 -8c-82 0 -140 44 -140 107c0 41 28 70 80 92
c-38 23 -68 63 -68 117c0 73 61 122 134 122c71 0 124 -36 124 -87c0 -39 -26 -66 -73 -91c55 -29 92 -67 92 -133c0 -82 -81 -127 -149 -127zM662 281l39 -20c27 21 29 50 29 71c0 34 -19 67 -66 67c-37 0 -63 -20 -63 -48c0 -30 25 -51 61 -70zM588 106
c0 -52 32 -83 79 -83c41 0 68 21 68 55c0 33 -26 55 -71 79l-47 25c-22 -18 -29 -44 -29 -76z" />
    <glyph glyph-name="uni215F" unicode="&#x215f;" horiz-adv-x="445" 
d="M79 398v292l-61 -23v32l161 67v-368c0 -21 6 -28 27 -30l22 -2v-25h-197v26l23 2c21 2 25 8 25 29zM22 0l566 758h92l-566 -758h-92z" />
    <glyph glyph-name="minus" unicode="&#x2212;" horiz-adv-x="645" 
d="M54 225v75h537v-75h-537z" />
    <glyph glyph-name="approxequal" unicode="&#x2248;" horiz-adv-x="645" 
d="M202 442c113 0 173 -86 244 -86c38 0 74 20 77 81h75c-6 -88 -68 -150 -153 -150c-98 0 -163 86 -244 86c-38 0 -74 -20 -77 -81h-75c6 88 68 150 153 150zM202 243c113 0 173 -86 244 -86c38 0 74 20 77 81h75c-6 -88 -68 -150 -153 -150c-98 0 -163 86 -244 86
c-38 0 -74 -20 -77 -81h-75c6 88 68 150 153 150z" />
    <glyph glyph-name="notequal" unicode="&#x2260;" horiz-adv-x="645" 
d="M79 104v75h172l64 155h-236v75h267l39 93h76l-39 -93h144v-75h-176l-65 -155h241v-75h-272l-44 -104h-74l43 104h-140z" />
    <glyph glyph-name="lessequal" unicode="&#x2264;" horiz-adv-x="645" 
d="M54 283v59l528 175v-81l-395 -124l395 -124v-81zM54 0v75h529v-75h-529z" />
    <glyph glyph-name="greaterequal" unicode="&#x2265;" horiz-adv-x="645" 
d="M599 283l-528 -176v81l395 124l-395 124v81l528 -175v-59zM599 0h-529v75h529v-75z" />
    <glyph glyph-name="dot" unicode="&#x27d1;" 
d="M-93 710c0 49 44 93 93 93c50 0 94 -44 94 -93c0 -50 -44 -94 -94 -94c-49 0 -93 44 -93 94z" />
    <glyph glyph-name="commaaccent" unicode="&#xf6c3;" 
d="M-76 -378l-14 28c53 26 91 57 91 102c0 51 -36 73 -90 82c-2 50 27 80 75 80c61 0 106 -52 106 -111c0 -85 -87 -146 -168 -181z" />
    <glyph glyph-name="cyrbreve" unicode="&#xf6d4;" 
d="M-180 628c-125 0 -180 76 -180 160h113c0 -107 38 -126 67 -126c30 0 67 19 67 126h113c0 -94 -73 -160 -180 -160z" />
    <glyph glyph-name="uniFB00" unicode="&#xfb00;" horiz-adv-x="780" 
d="M30 0v32l27 2c35 3 40 4 40 40v351h-67v32c45 5 74 32 95 93c58 168 128 230 261 230h32v-139h-154c-64 0 -86 -19 -86 -56c0 -34 21 -61 66 -83h135v-77h-134v-351c0 -36 11 -35 46 -37l61 -4v-33h-322zM402 0v32l27 2c35 3 40 4 40 40v351h-67v32c45 5 74 32 95 93
c58 168 128 230 261 230h32v-139h-154c-64 0 -86 -19 -86 -56c0 -34 21 -61 66 -83h194l-48 -77h-145v-351c0 -36 11 -35 46 -37l61 -4v-33h-322z" />
    <glyph glyph-name="fi" unicode="&#xfb01;" horiz-adv-x="712" 
d="M456 710c0 49 44 93 93 93c50 0 94 -44 94 -93c0 -50 -44 -94 -94 -94c-49 0 -93 44 -93 94zM26 0v32l27 2c35 3 40 4 40 40v351h-67v32c45 5 74 32 95 93c58 168 128 230 261 230h32v-139h-154c-64 0 -86 -19 -86 -56c0 -34 21 -61 66 -83h174l-48 -77h-125v-351
c0 -36 11 -35 46 -37l61 -4v-33h-322zM409 0v32l27 2c35 3 40 4 40 40v283l-76 72v6l224 94v-455c0 -36 5 -37 40 -40l27 -2v-32h-282z" />
    <glyph glyph-name="fl" unicode="&#xfb02;" horiz-adv-x="707" 
d="M26 0v32l27 2c35 3 40 4 40 40v351h-67v32c45 5 74 32 95 93c58 168 128 230 261 230h32v-48l205 70v-728c0 -36 5 -37 40 -40l27 -2v-32h-282v32l27 2c35 3 40 4 40 40v581l-57 48v-62h-154c-64 0 -86 -19 -86 -56c0 -34 21 -61 66 -83h166l-48 -77h-117v-351
c0 -36 11 -35 46 -37l61 -4v-33h-322z" />
    <glyph glyph-name="uniFB03" unicode="&#xfb03;" horiz-adv-x="1088" 
d="M828 710c0 49 44 93 93 93c50 0 94 -44 94 -93c0 -50 -44 -94 -94 -94c-49 0 -93 44 -93 94zM26 0v32l27 2c35 3 40 4 40 40v351h-67v32c45 5 74 32 95 93c58 168 128 230 261 230h32v-139h-154c-64 0 -86 -19 -86 -56c0 -34 21 -61 66 -83h135v-77h-134v-351
c0 -36 11 -35 46 -37l61 -4v-33h-322zM398 0v32l27 2c35 3 40 4 40 40v351h-67v32c45 5 74 32 95 93c58 168 128 230 261 230h32v-139h-154c-64 0 -86 -19 -86 -56c0 -34 21 -61 66 -83h174l-48 -77h-125v-351c0 -36 11 -35 46 -37l61 -4v-33h-322zM781 0v32l27 2
c35 3 40 4 40 40v283l-76 72v6l224 94v-455c0 -36 5 -37 40 -40l27 -2v-32h-282z" />
    <glyph glyph-name="uniFB04" unicode="&#xfb04;" horiz-adv-x="1083" 
d="M402 0v32l27 2c35 3 40 4 40 40v351h-67v32c45 5 74 32 95 93c58 168 128 230 261 230h32v-48l205 70v-728c0 -36 5 -37 40 -40l27 -2v-32h-282v32l27 2c35 3 40 4 40 40v581l-57 48v-62h-154c-64 0 -86 -19 -86 -56c0 -34 21 -61 66 -83h166l-48 -77h-117v-351
c0 -36 11 -35 46 -37l61 -4v-33h-322zM30 0v32l27 2c35 3 40 4 40 40v351h-67v32c45 5 74 32 95 93c58 168 128 230 261 230h32v-139h-154c-64 0 -86 -19 -86 -56c0 -34 21 -61 66 -83h135v-77h-134v-351c0 -36 11 -35 46 -37l61 -4v-33h-322z" />
    <glyph glyph-name="uniFEFF" unicode="&#xfeff;" 
 />
    <glyph glyph-name="L_periodcentered" horiz-adv-x="720" 
d="M42 0v36l45 4c35 3 44 10 44 49v580c0 39 -9 46 -44 49l-45 4v36h338v-36l-45 -4c-35 -3 -44 -10 -44 -49v-623h187c18 0 20 2 31 14l184 211h22l-75 -271h-598zM579 351c-40 0 -70 31 -70 71c0 41 30 71 70 71c39 0 70 -30 70 -71c0 -40 -31 -71 -70 -71z" />
    <glyph glyph-name="acute.case" 
d="M-141 843l99 129h183v-3l-251 -126h-31z" />
    </font>
</defs>
</svg>
