<?xml version="1.0" standalone="no"?>
<!DOCTYPE svg PUBLIC "-//W3C//DTD SVG 1.1//EN" "http://www.w3.org/Graphics/SVG/1.1/DTD/svg11.dtd" >
<svg xmlns="http://www.w3.org/2000/svg" xmlns:xlink="http://www.w3.org/1999/xlink" version="1.1">
<metadata>
Created by FontForge 20190801 at Wed Oct 25 22:36:18 2017
 By Jimmy Wärting
Copyright \(c\) 2017 Swiss Typefaces Sarl. All rights reserved.
</metadata>
<defs>
<font id="SangBleuKingdom-Air" horiz-adv-x="0" >
  <font-face 
    font-family="SangBleu Kingdom"
    font-weight="250"
    font-stretch="normal"
    units-per-em="1000"
    panose-1="2 4 2 4 8 0 0 0 0 4"
    ascent="800"
    descent="-200"
    x-height="502"
    cap-height="758"
    bbox="-308 -403 1332 1029"
    underline-thickness="11"
    underline-position="-129"
    stemh="7"
    stemv="13"
    unicode-range="U+000D-FEFF"
  />
<missing-glyph horiz-adv-x="640" 
d="M70 0v758h500v-758h-500zM103 739l217 -343l217 343h-434zM89 728v-698l221 349zM331 379l220 -349v698zM103 19h434l-217 343z" />
    <glyph glyph-name="f_f" unicode="ff" horiz-adv-x="661" 
d="M38 0v6l50 2c21 1 32 5 32 16v467h-82v6c81 2 82 4 82 25c0 142 62 236 193 236h20v-11h-19c-67 0 -115 -25 -147 -76c-27 -43 -35 -98 -35 -169h198v-11h-198v-467c0 -11 11 -15 32 -16l80 -2v-6h-206zM376 0v6l50 2c21 1 32 5 32 16v467h-82v6c81 2 82 4 82 25
c0 142 62 236 193 236h20v-11h-19c-67 0 -115 -25 -147 -76c-27 -43 -35 -98 -35 -169h196l-4 -11h-192v-467c0 -11 11 -15 32 -16l80 -2v-6h-206z" />
    <glyph glyph-name="f_f_i" unicode="ffi" horiz-adv-x="923" 
d="M38 0v6l50 2c21 1 32 5 32 16v467h-82v6c81 2 82 4 82 25c0 142 62 236 193 236h20v-11h-19c-67 0 -115 -25 -147 -76c-27 -43 -35 -98 -35 -169h198v-11h-198v-467c0 -11 11 -15 32 -16l80 -2v-6h-206zM376 0v6l50 2c21 1 32 5 32 16v467h-82v6c81 2 82 4 82 25
c0 142 62 236 193 236h20v-11h-19c-67 0 -115 -25 -147 -76c-27 -43 -35 -98 -35 -169h196l-4 -11h-192v-467c0 -11 11 -15 32 -16l80 -2v-6h-206zM783 739c0 10 9 19 19 19s19 -9 19 -19s-9 -19 -19 -19s-19 9 -19 19zM714 0v6l50 2c21 1 32 5 32 16v463l-82 9v6h94v-478
c0 -11 11 -15 32 -16l50 -2v-6h-176z" />
    <glyph glyph-name="f_f_l" unicode="ffl" horiz-adv-x="936" 
d="M38 0v6l50 2c21 1 32 5 32 16v467h-82v6c81 2 82 4 82 25c0 142 62 236 193 236h20v-11h-19c-67 0 -115 -25 -147 -76c-27 -43 -35 -98 -35 -169h198v-11h-198v-467c0 -11 11 -15 32 -16l80 -2v-6h-206zM376 0v6l50 2c21 1 32 5 32 16v467h-82v6c81 2 82 4 82 25
c0 142 62 236 193 236h20v-11h-19c-67 0 -115 -25 -147 -76c-27 -43 -35 -98 -35 -169h196l-4 -11h-192v-467c0 -11 11 -15 32 -16l80 -2v-6h-206zM727 0v6l50 2c21 1 32 5 32 16v719l-82 9v6h94v-734c0 -11 11 -15 32 -16l50 -2v-6h-176z" />
    <glyph glyph-name="f_i" unicode="fi" horiz-adv-x="589" 
d="M38 0v6l50 2c21 1 32 5 32 16v467h-82v6c81 2 82 4 82 25c0 142 62 236 193 236h20v-11h-19c-67 0 -115 -25 -147 -76c-27 -43 -35 -98 -35 -169h196l-4 -11h-192v-467c0 -11 11 -15 32 -16l80 -2v-6h-206zM445 739c0 10 9 19 19 19s19 -9 19 -19s-9 -19 -19 -19
s-19 9 -19 19zM376 0v6l50 2c21 1 32 5 32 16v463l-82 9v6h94v-478c0 -11 11 -15 32 -16l50 -2v-6h-176z" />
    <glyph glyph-name="f_l" unicode="fl" horiz-adv-x="602" 
d="M38 0v6l50 2c21 1 32 5 32 16v467h-82v6c81 2 82 4 82 25c0 142 62 236 193 236h20v-11h-19c-67 0 -115 -25 -147 -76c-27 -43 -35 -98 -35 -169h196l-4 -11h-192v-467c0 -11 11 -15 32 -16l80 -2v-6h-206zM389 0v6l50 2c21 1 32 5 32 16v719l-82 9v6h94v-734
c0 -11 11 -15 32 -16l50 -2v-6h-176z" />
    <glyph glyph-name=".notdef" horiz-adv-x="640" 
d="M70 0v758h500v-758h-500zM103 739l217 -343l217 343h-434zM89 728v-698l221 349zM331 379l220 -349v698zM103 19h434l-217 343z" />
    <glyph glyph-name=".null" 
 />
    <glyph glyph-name="CR" unicode="&#xd;" horiz-adv-x="294" 
 />
    <glyph glyph-name="space" unicode=" " horiz-adv-x="294" 
 />
    <glyph glyph-name="exclam" unicode="!" horiz-adv-x="268" 
d="M130 182c-1 311 -4 451 -4 582c0 4 16 4 16 0c0 -131 -3 -271 -4 -582h-8zM134 -10c-11 0 -19 9 -19 19c0 11 8 20 19 20c12 0 20 -9 20 -20c0 -10 -8 -19 -20 -19z" />
    <glyph glyph-name="quotedbl" unicode="&#x22;" horiz-adv-x="390" 
d="M87 472l-4 294c2 1 4 2 8 2c3 0 5 -1 7 -2l-5 -294h-6zM297 472l-4 294c2 1 4 2 8 2c3 0 5 -1 7 -2l-5 -294h-6z" />
    <glyph glyph-name="numbersign" unicode="#" horiz-adv-x="912" 
d="M144 0l89 220h-197l5 11h197l124 306h-197l4 11h197l93 228h12l-93 -228h289l93 228h12l-93 -228h197l-5 -11h-196l-124 -306h196l-5 -11h-196l-89 -220h-12l89 220h-289l-89 -220h-12zM250 231h289l124 306h-289z" />
    <glyph glyph-name="dollar" unicode="$" horiz-adv-x="590" 
d="M284 -10c-170 0 -237 104 -237 134c0 9 7 13 15 12c17 -76 95 -136 222 -136h6v394l-41 13c-115 35 -183 90 -183 193c0 95 103 168 224 168v120h12v-120c164 -4 227 -105 227 -134c0 -9 -7 -13 -15 -12c-17 74 -91 133 -212 136v-353l4 -1c133 -41 233 -94 233 -219
c0 -101 -79 -189 -237 -195v-134h-12v134h-6zM254 420l36 -11v349c-113 -1 -211 -68 -211 -158c0 -95 64 -146 175 -180zM525 182c0 124 -100 171 -223 209v-391c141 6 223 83 223 182z" />
    <glyph glyph-name="percent" unicode="%" horiz-adv-x="924" 
d="M51 550c0 123 57 218 146 218c90 0 147 -95 147 -218c0 -124 -57 -219 -147 -219c-89 0 -146 95 -146 219zM65 550c0 -135 57 -210 132 -210s133 75 133 210c0 134 -58 209 -133 209s-132 -75 -132 -209zM172 0l566 758h14l-566 -758h-14zM581 209c0 123 57 218 146 218
c90 0 147 -95 147 -218c0 -124 -57 -219 -147 -219c-89 0 -146 95 -146 219zM595 209c0 -135 57 -210 132 -210s133 75 133 210c0 134 -58 209 -133 209s-132 -75 -132 -209z" />
    <glyph glyph-name="ampersand" unicode="&#x26;" horiz-adv-x="877" 
d="M296 -10c-130 0 -223 102 -223 211c0 117 89 192 242 233l-4 3c-67 56 -126 119 -126 191c0 83 79 140 175 140c86 0 173 -43 173 -137c0 -91 -79 -158 -203 -195c87 -73 171 -150 255 -230l155 272c5 9 -6 15 -32 16l-50 2v6h176v-6l-50 -2c-21 -1 -27 -7 -32 -16
l-159 -279c55 -53 110 -107 164 -161c24 -23 28 -28 44 -29l56 -3v-6h-78c-63 64 -127 127 -192 189c-76 -130 -163 -199 -291 -199zM324 441c1 -1 2 -2 4 -3c122 43 191 99 191 193c0 84 -73 127 -159 127c-91 0 -162 -52 -162 -130c0 -68 56 -128 126 -187zM88 206
c0 -123 102 -206 209 -206c133 0 217 84 282 196c-85 81 -172 160 -262 236c-143 -44 -229 -115 -229 -226z" />
    <glyph glyph-name="quotesingle" unicode="'" horiz-adv-x="180" 
d="M87 472l-4 294c2 1 4 2 8 2c3 0 5 -1 7 -2l-5 -294h-6z" />
    <glyph glyph-name="parenleft" unicode="(" horiz-adv-x="297" 
d="M265 -226c-142 134 -207 318 -207 511s65 377 207 511l7 -7c-141 -136 -199 -317 -199 -504s58 -368 199 -504z" />
    <glyph glyph-name="parenright" unicode=")" horiz-adv-x="297" 
d="M32 796c142 -134 207 -318 207 -511s-65 -377 -207 -511l-7 7c141 136 199 317 199 504s-58 368 -199 504z" />
    <glyph glyph-name="asterisk" unicode="*" horiz-adv-x="441" 
d="M123 477l-6 4l93 133l-153 52l2 7l155 -48l3 162h7l3 -162l155 48l2 -7l-153 -52l93 -133l-6 -4l-98 129z" />
    <glyph glyph-name="plus" unicode="+" horiz-adv-x="653" 
d="M320 0v254h-252v11h252v250h12v-250h252v-11h-252v-254h-12z" />
    <glyph glyph-name="comma" unicode="," horiz-adv-x="159" 
d="M3 -200l-7 7c66 67 88 123 88 158c0 20 -8 35 -21 44c0 11 8 20 19 20c13 0 20 -9 20 -31c0 -40 -11 -110 -99 -198z" />
    <glyph glyph-name="hyphen" unicode="-" horiz-adv-x="454" 
d="M80 254v11h294v-11h-294z" />
    <glyph glyph-name="period" unicode="." horiz-adv-x="179" 
d="M89 -10c-11 0 -19 9 -19 19c0 11 8 20 19 20c12 0 20 -9 20 -20c0 -10 -8 -19 -20 -19z" />
    <glyph glyph-name="slash" unicode="/" horiz-adv-x="509" 
d="M31 -52l433 828h13l-433 -828h-13z" />
    <glyph glyph-name="zero" unicode="0" horiz-adv-x="662" 
d="M67 379c0 228 104 389 264 389s264 -161 264 -389s-104 -389 -264 -389s-264 161 -264 389zM82 379c0 -249 114 -379 249 -379s249 130 249 379s-114 379 -249 379s-249 -130 -249 -379z" />
    <glyph glyph-name="one" unicode="1" horiz-adv-x="366" 
d="M213 24v727l-185 -80v11l197 85v-743c0 -11 11 -15 32 -16l50 -2v-6h-206v6l80 2c21 1 32 5 32 16z" />
    <glyph glyph-name="two" unicode="2" horiz-adv-x="596" 
d="M35 0v4c269 259 438 417 438 585c0 121 -79 168 -174 168c-110 0 -198 -75 -196 -204h-6c-4 127 78 215 204 215s187 -75 187 -178c0 -147 -116 -278 -382 -530l-52 -49h412c13 0 19 2 23 13l55 139h9l-57 -163h-461z" />
    <glyph glyph-name="three" unicode="3" horiz-adv-x="575" 
d="M260 -10c-148 0 -217 104 -217 134c0 9 7 13 15 12c17 -76 95 -136 202 -136c121 0 242 81 242 238c0 129 -107 202 -194 202c-29 0 -63 -15 -86 -24l-3 9l22 8c118 43 198 108 198 198c0 79 -60 126 -157 126c-92 0 -181 -53 -193 -158h-6c10 110 101 169 201 169
c116 0 170 -65 170 -135c0 -95 -87 -151 -139 -178v-1c92 -6 200 -77 200 -216c0 -155 -121 -248 -255 -248z" />
    <glyph glyph-name="four" unicode="4" horiz-adv-x="673" 
d="M471 0v221h-457l462 541h7v-530h162v-11h-162v-221h-12zM39 232h432v507z" />
    <glyph glyph-name="five" unicode="5" horiz-adv-x="573" 
d="M248 -10c-141 0 -215 104 -215 134c0 9 7 13 15 12c17 -76 100 -136 201 -136c141 0 242 90 242 230c0 128 -100 243 -373 271l68 257h339l-3 -11h-327l-63 -235c270 -30 372 -144 372 -282c0 -145 -106 -240 -256 -240z" />
    <glyph glyph-name="six" unicode="6" horiz-adv-x="598" 
d="M542 228c0 -140 -104 -238 -239 -238c-163 0 -242 128 -242 272c0 235 183 429 475 521l2 -5c-241 -82 -411 -228 -452 -422c50 68 146 102 223 102c128 0 233 -92 233 -230zM76 262c0 -155 86 -262 227 -262c123 0 224 94 224 224c0 129 -93 224 -219 224
c-82 0 -178 -39 -224 -102c-5 -27 -8 -55 -8 -84z" />
    <glyph glyph-name="seven" unicode="7" horiz-adv-x="583" 
d="M87 758h485l-307 -524c-58 -100 -73 -124 -123 -223c-6 -12 -11 -18 -21 -20l-5 -1c-12 -2 1 19 6 28c146 244 275 467 435 729h-440c-13 0 -19 -2 -23 -13l-57 -139h-7z" />
    <glyph glyph-name="eight" unicode="8" horiz-adv-x="592" 
d="M296 -10c-127 0 -236 74 -236 196c0 108 83 187 225 228c-108 56 -178 114 -178 203c0 100 93 151 192 151c84 0 187 -45 187 -151c0 -108 -97 -174 -178 -201l25 -13c113 -56 200 -119 200 -220c0 -105 -82 -193 -237 -193zM301 419l2 -1c85 31 170 93 170 199
c0 104 -98 141 -176 141c-90 0 -177 -46 -177 -140c0 -85 67 -142 181 -199zM73 187c0 -125 112 -187 223 -187c136 0 224 73 224 183c0 94 -79 151 -193 209l-36 19c-111 -35 -218 -102 -218 -224z" />
    <glyph glyph-name="nine" unicode="9" horiz-adv-x="600" 
d="M539 496c0 -235 -183 -429 -475 -521l-2 5c241 82 411 228 452 422c-50 -68 -146 -102 -223 -102c-128 0 -233 92 -233 230c0 140 104 238 239 238c163 0 242 -128 242 -272zM73 534c0 -129 93 -224 219 -224c82 0 178 39 224 102c5 27 8 55 8 84c0 155 -86 262 -227 262
c-123 0 -224 -94 -224 -224z" />
    <glyph glyph-name="colon" unicode=":" horiz-adv-x="199" 
d="M99 473c-11 0 -19 9 -19 19c0 11 8 20 19 20c12 0 20 -9 20 -20c0 -10 -8 -19 -20 -19zM99 -10c-11 0 -19 9 -19 19c0 11 8 20 19 20c12 0 20 -9 20 -20c0 -10 -8 -19 -20 -19z" />
    <glyph glyph-name="semicolon" unicode=";" horiz-adv-x="305" 
d="M168 473c-11 0 -19 9 -19 19c0 11 8 20 19 20c12 0 20 -9 20 -20c0 -10 -8 -19 -20 -19zM89 -200l-7 7c66 67 88 123 88 158c0 20 -8 35 -21 44c0 11 8 20 19 20c13 0 20 -9 20 -31c0 -40 -11 -110 -99 -198z" />
    <glyph glyph-name="less" unicode="&#x3c;" horiz-adv-x="653" 
d="M67 254v11l494 228v-13l-479 -220l479 -222v-13z" />
    <glyph glyph-name="equal" unicode="=" horiz-adv-x="653" 
d="M79 374v11h495v-11h-495zM79 134v11h495v-11h-495z" />
    <glyph glyph-name="greater" unicode="&#x3e;" horiz-adv-x="653" 
d="M586 254l-494 -229v13l479 222l-479 220v13l494 -228v-11z" />
    <glyph glyph-name="question" unicode="?" horiz-adv-x="552" 
d="M264 758c-112 0 -195 -51 -212 -127c-8 -1 -15 3 -15 12c0 30 76 125 227 125c156 0 242 -97 242 -198c0 -111 -84 -158 -171 -176l-71 -15c-35 -7 -44 -7 -45 -54l-3 -143h-9v142c0 52 12 58 52 66l71 15c89 19 161 62 161 165c0 98 -79 188 -227 188zM212 -10
c-11 0 -19 9 -19 19c0 11 8 20 19 20c12 0 20 -9 20 -20c0 -10 -8 -19 -20 -19z" />
    <glyph glyph-name="at" unicode="@" horiz-adv-x="945" 
d="M595 171c-32 0 -51 7 -51 29c0 10 7 30 17 56l34 88h-2c-64 -106 -165 -173 -250 -173c-61 0 -105 33 -105 103c0 175 210 346 374 346c34 0 66 -9 95 -25l-135 -340c-13 -32 -17 -45 -17 -55s4 -19 42 -19c136 0 295 96 295 308c0 184 -159 269 -327 269
c-262 0 -492 -216 -492 -458c0 -185 139 -300 322 -300c129 0 200 32 252 56l3 -6c-48 -24 -127 -60 -255 -60c-194 0 -337 117 -337 310c0 242 237 468 507 468c171 0 339 -90 339 -279c0 -201 -152 -318 -309 -318zM344 181c91 0 220 87 275 225l73 185
c-22 13 -50 19 -79 19c-161 0 -360 -167 -360 -335c0 -63 36 -94 91 -94z" />
    <glyph glyph-name="A" unicode="A" horiz-adv-x="756" 
d="M675 24c4 -10 11 -15 32 -16l60 -2v-6h-198v6l60 2c26 1 36 6 32 16l-118 303h-331l-117 -303c-4 -10 4 -15 32 -16l60 -2v-6h-198v6l60 2c21 1 28 6 32 16l291 749h11zM377 752l-160 -414h322z" />
    <glyph glyph-name="B" unicode="B" horiz-adv-x="712" 
d="M67 0v6l60 2c21 1 32 5 32 16v710c0 11 -11 15 -32 16l-60 2v6h252c149 0 284 -28 284 -177c0 -106 -88 -173 -192 -181v-1c129 -3 243 -52 243 -187c0 -122 -75 -212 -315 -212h-272zM172 404h192c122 0 224 60 224 177c0 136 -115 166 -275 166h-141v-343zM172 11h161
c220 0 306 73 306 201c0 127 -105 181 -275 181h-192v-382z" />
    <glyph glyph-name="C" unicode="C" horiz-adv-x="825" 
d="M475 -10c-231 0 -415 138 -415 389c0 249 184 389 419 389c93 0 186 -19 246 -70l44 -137h-7l-46 110c-9 21 -12 25 -24 35c-34 30 -120 52 -210 52c-216 0 -407 -126 -407 -380c0 -249 181 -378 403 -378c90 0 180 22 214 52c12 10 16 14 25 35l53 119h7l-52 -146
c-60 -51 -157 -70 -250 -70z" />
    <glyph glyph-name="D" unicode="D" horiz-adv-x="841" 
d="M67 0v6l60 2c21 1 32 5 32 16v710c0 11 -11 15 -32 16l-60 2v6h244c240 0 468 -81 468 -376s-228 -382 -468 -382h-244zM172 11h139c256 0 453 103 453 371s-197 365 -453 365h-139v-736z" />
    <glyph glyph-name="E" unicode="E" horiz-adv-x="702" 
d="M67 0v6l60 2c21 1 32 5 32 16v710c0 11 -11 15 -32 16l-60 2v6h499l28 -147h-7l-33 124c-2 9 -6 12 -16 12h-366v-343h227c27 0 28 2 29 16l6 97h7v-237h-7l-6 97c-1 14 -2 16 -29 16h-227v-382h420c13 0 18 2 23 13l58 129h7l-57 -153h-556z" />
    <glyph glyph-name="F" unicode="F" horiz-adv-x="674" 
d="M67 0v6l60 2c21 1 32 5 32 16v710c0 11 -11 15 -32 16l-60 2v6h549l28 -147h-7l-33 124c-2 9 -6 12 -16 12h-416v-343h225c27 0 28 2 29 16l6 97h7v-237h-7l-6 97c-1 14 -2 16 -29 16h-225v-369c0 -11 11 -16 32 -16l110 -2v-6h-247z" />
    <glyph glyph-name="G" unicode="G" horiz-adv-x="889" 
d="M475 -10c-231 0 -415 138 -415 389c0 249 184 389 419 389c93 0 186 -19 246 -70l44 -137h-7l-46 110c-9 21 -12 25 -24 35c-34 30 -120 52 -210 52c-216 0 -407 -125 -407 -379c0 -249 181 -379 403 -379c93 0 200 19 278 74v248c0 11 -11 16 -32 16l-210 1v9h347v-8
l-92 -2v-201l1 -68c-84 -61 -198 -79 -295 -79z" />
    <glyph glyph-name="H" unicode="H" horiz-adv-x="881" 
d="M67 0v6l60 2c21 1 32 5 32 16v710c0 11 -11 15 -32 16l-60 2v6h197v-6l-60 -2c-21 -1 -32 -5 -32 -16v-330h537v330c0 11 -11 15 -32 16l-60 2v6h197v-6l-60 -2c-21 -1 -32 -5 -32 -16v-710c0 -11 11 -15 32 -16l60 -2v-6h-197v6l60 2c21 1 32 5 32 16v369h-537v-369
c0 -11 11 -15 32 -16l60 -2v-6h-197z" />
    <glyph glyph-name="I" unicode="I" horiz-adv-x="331" 
d="M67 0v6l60 2c21 1 32 5 32 16v710c0 11 -11 15 -32 16l-60 2v6h197v-6l-60 -2c-21 -1 -32 -5 -32 -16v-710c0 -11 11 -15 32 -16l60 -2v-6h-197z" />
    <glyph glyph-name="J" unicode="J" horiz-adv-x="310" 
d="M9 -134l-6 8c124 101 150 123 150 231v629c0 11 -11 15 -32 16l-60 2v6h197v-6l-60 -2c-21 -1 -32 -5 -32 -16v-619c0 -108 -14 -128 -109 -211c-14 -12 -31 -25 -48 -38z" />
    <glyph glyph-name="K" unicode="K" horiz-adv-x="741" 
d="M708 0l-536 390l417 347c11 9 2 11 -36 13l-49 2v6h212v-6l-53 -2c-33 -1 -45 -3 -63 -18l-408 -340l537 -392h-21zM67 0v6l60 2c21 1 32 5 32 16v710c0 11 -11 15 -32 16l-60 2v6h197v-6l-60 -2c-21 -1 -32 -5 -32 -16v-710c0 -11 11 -15 32 -16l60 -2v-6h-197z" />
    <glyph glyph-name="L" unicode="L" horiz-adv-x="664" 
d="M67 0v6l60 2c21 1 32 5 32 16v710c0 11 -11 15 -32 16l-60 2v6h197v-6l-60 -2c-21 -1 -32 -5 -32 -16v-723h383c13 0 18 2 23 13l58 129h7l-57 -153h-519z" />
    <glyph glyph-name="M" unicode="M" horiz-adv-x="1017" 
d="M47 0v6l60 2c21 1 31 5 32 16l40 710c1 11 -11 15 -32 16l-60 2v6h112l307 -582l312 582h112v-6l-60 -2c-21 -1 -33 -5 -32 -16l40 -710c1 -11 11 -15 32 -16l60 -2v-6h-197v6l60 2c21 1 33 5 32 16l-40 720l-316 -587h-6l-311 588l-40 -721c-1 -11 11 -15 32 -16l60 -2
v-6h-197z" />
    <glyph glyph-name="N" unicode="N" horiz-adv-x="868" 
d="M67 0v6l60 2c21 1 32 5 32 16v640l-76 93v1h14l615 -745v721c0 11 -11 15 -32 16l-60 2v6h197v-6l-60 -2c-21 -1 -32 -5 -32 -16v-756h-2l-551 671v-625c0 -11 11 -15 32 -16l60 -2v-6h-197z" />
    <glyph glyph-name="O" unicode="O" horiz-adv-x="884" 
d="M442 -10c-229 0 -382 173 -382 389s153 389 382 389s382 -173 382 -389s-153 -389 -382 -389zM442 0c191 0 367 142 367 379s-176 379 -367 379s-367 -142 -367 -379s176 -379 367 -379z" />
    <glyph glyph-name="P" unicode="P" horiz-adv-x="695" 
d="M67 0v6l60 2c21 1 32 5 32 16v710c0 11 -11 15 -32 16l-60 2v6h296c152 0 293 -29 293 -196s-141 -196 -293 -196h-166v11h154c158 0 290 27 290 185s-132 185 -290 185h-179v-723c0 -11 11 -16 32 -16l110 -2v-6h-247z" />
    <glyph glyph-name="Q" unicode="Q" horiz-adv-x="884" 
d="M442 -10h-4l-179 -73c41 11 85 11 86 11c159 0 196 -118 310 -118c66 0 123 29 163 134l10 -3c-38 -103 -95 -141 -173 -141c-126 0 -150 119 -317 119c-33 0 -66 -4 -84 -12c-9 -12 -21 -19 -33 -19c-8 0 -13 3 -13 10c0 11 26 19 113 54l96 39
c-215 12 -357 180 -357 388c0 216 153 389 382 389s382 -173 382 -389s-153 -389 -382 -389zM442 0c191 0 367 142 367 379s-176 379 -367 379s-367 -142 -367 -379s176 -379 367 -379z" />
    <glyph glyph-name="R" unicode="R" horiz-adv-x="715" 
d="M67 0v6l60 2c21 1 32 5 32 16v710c0 11 -11 15 -32 16l-60 2v6h242c152 0 295 -23 295 -190c0 -161 -135 -188 -267 -190l386 -378h-20l-385 378h-146v-354c0 -11 11 -15 32 -16l60 -2v-6h-197zM172 389h129c154 0 288 21 288 179s-134 179 -288 179h-129v-358z" />
    <glyph glyph-name="S" unicode="S" horiz-adv-x="625" 
d="M317 -10c-77 0 -154 15 -213 55l-44 153h7l46 -124c8 -21 11 -25 24 -33c51 -32 133 -41 180 -41c137 0 228 79 228 182c0 124 -100 171 -224 209l-52 16c-115 35 -183 90 -183 193c0 95 103 168 225 168c75 0 138 -11 190 -46l43 -137h-7l-45 110c-9 21 -12 25 -24 32
c-37 24 -108 31 -156 31c-114 0 -213 -67 -213 -158c0 -95 64 -146 175 -180l52 -16c133 -41 233 -94 233 -219c0 -105 -87 -195 -242 -195z" />
    <glyph glyph-name="T" unicode="T" horiz-adv-x="713" 
d="M258 0v6l60 2c21 1 32 5 32 16v723h-276c-10 0 -14 -3 -16 -12l-33 -154h-7l28 177h621l28 -177h-7l-33 154c-2 9 -6 12 -16 12h-276v-723c0 -11 11 -15 32 -16l60 -2v-6h-197z" />
    <glyph glyph-name="U" unicode="U" horiz-adv-x="858" 
d="M429 -10c-195 0 -293 104 -293 308v436c0 11 -11 15 -32 16l-60 2v6h197v-6l-60 -2c-21 -1 -32 -5 -32 -16v-436c0 -178 76 -298 280 -298s280 120 280 298v436c0 11 -11 15 -32 16l-60 2v6h197v-6l-60 -2c-21 -1 -32 -5 -32 -16v-436c0 -204 -98 -308 -293 -308z" />
    <glyph glyph-name="V" unicode="V" horiz-adv-x="777" 
d="M383 -15l-302 749c-4 10 -11 15 -32 16l-60 2v6h198v-6l-60 -2c-26 -1 -36 -6 -32 -16l294 -728l294 728c4 10 -6 15 -32 16l-60 2v6h197v-6l-60 -2c-21 -1 -28 -6 -32 -16l-302 -749h-11z" />
    <glyph glyph-name="W" unicode="W" horiz-adv-x="1188" 
d="M383 -15l-302 749c-4 10 -11 15 -32 16l-60 2v6h198v-6l-60 -2c-26 -1 -36 -6 -32 -16l294 -728l208 520l-84 232h166v-6l-110 -2c-26 0 -36 -6 -32 -16l263 -728l294 728c4 10 -6 15 -32 16l-60 2v6h197v-6l-60 -2c-21 -1 -28 -6 -32 -16l-302 -749h-11l-191 524
l-210 -524h-10z" />
    <glyph glyph-name="X" unicode="X" horiz-adv-x="792" 
d="M-2 0v6l57 2c19 1 28 7 35 16l298 380l-258 330c-6 8 -16 15 -35 16l-57 2v6h200v-6l-60 -3c-26 -1 -37 -8 -31 -16l249 -318l250 318c7 9 -5 15 -31 16l-60 3v6h198v-6l-57 -2c-19 -1 -28 -7 -35 -16l-258 -329l299 -381c6 -8 16 -15 35 -16l57 -2v-6h-200v6l60 3
c26 1 37 8 31 16l-290 370l-290 -370c-7 -9 5 -15 31 -16l60 -3v-6h-198z" />
    <glyph glyph-name="Y" unicode="Y" horiz-adv-x="769" 
d="M287 0v6l60 2c21 1 32 5 32 16v319l-290 391c-6 9 -11 15 -32 16l-60 2v6h199v-6l-60 -2c-26 -1 -38 -7 -32 -16l282 -380l281 380c6 9 -6 15 -32 16l-60 2v6h198v-6l-60 -2c-21 -1 -26 -7 -32 -16l-289 -391v-319c0 -11 11 -15 32 -16l60 -2v-6h-197z" />
    <glyph glyph-name="Z" unicode="Z" horiz-adv-x="718" 
d="M33 0v8l610 739h-500c-13 0 -18 -2 -23 -13l-58 -129h-7l57 153h549v-9l-609 -738h543c13 0 18 2 23 13l58 129h7l-57 -153h-593z" />
    <glyph glyph-name="bracketleft" unicode="[" horiz-adv-x="279" 
d="M125 -211v1004h93v-8l-50 -2c-21 -1 -31 -5 -31 -16v-952c0 -11 10 -15 31 -16l50 -2v-8h-93z" />
    <glyph glyph-name="backslash" unicode="\" horiz-adv-x="509" 
d="M478 -52h-13l-433 828h13z" />
    <glyph glyph-name="bracketright" unicode="]" horiz-adv-x="279" 
d="M154 793v-1004h-93v8l50 2c21 1 31 5 31 16v952c0 11 -10 15 -31 16l-50 2v8h93z" />
    <glyph glyph-name="asciicircum" unicode="^" horiz-adv-x="653" 
d="M105 361l215 415h12l215 -415h-13l-208 400l-208 -400h-13z" />
    <glyph glyph-name="underscore" unicode="_" horiz-adv-x="625" 
d="M32 -36v11h561v-11h-561z" />
    <glyph glyph-name="grave" unicode="`" 
d="M60 579h-9l-112 178v1h15z" />
    <glyph glyph-name="a" unicode="a" horiz-adv-x="532" 
d="M217 -10c-98 0 -163 65 -163 137c0 97 102 126 211 151c147 34 150 46 150 86c0 74 -39 138 -149 138c-112 0 -185 -75 -175 -161h-8c-6 0 -9 0 -9 9c0 46 23 93 66 124c32 23 74 38 126 38c109 0 162 -54 161 -159l-2 -342h81v-8l-93 -7v151
c-25 -116 -106 -157 -196 -157zM219 0c97 0 192 56 194 200l2 118c-39 -23 -88 -36 -148 -50c-103 -24 -198 -49 -198 -141c0 -68 60 -127 150 -127z" />
    <glyph glyph-name="b" unicode="b" horiz-adv-x="599" 
d="M294 512c151 0 249 -115 249 -261s-98 -261 -249 -261c-72 0 -144 35 -178 91l-5 -81h-7v743l-82 9v6h94v-336c35 56 107 90 178 90zM116 85c50 -64 121 -85 178 -85c144 0 234 113 234 251s-90 251 -234 251c-57 0 -128 -21 -178 -85v-332z" />
    <glyph glyph-name="c" unicode="c" horiz-adv-x="570" 
d="M302 -10c-142 0 -246 104 -246 263c0 166 124 259 247 259c141 0 203 -87 203 -118c0 -9 -5 -11 -11 -11h-4c-17 73 -88 119 -189 119c-115 0 -231 -90 -231 -249c0 -145 92 -252 233 -252c86 0 192 40 220 162h7c-29 -131 -138 -173 -229 -173z" />
    <glyph glyph-name="d" unicode="d" horiz-adv-x="608" 
d="M304 -10c-151 0 -249 115 -249 261s98 261 249 261c72 0 144 -35 178 -90v321l-92 9v6h104v-748h82v-6l-94 -9v85c-35 -56 -107 -90 -178 -90zM70 251c0 -138 90 -251 234 -251c57 0 128 21 178 85v332c-50 64 -121 85 -178 85c-144 0 -234 -113 -234 -251z" />
    <glyph glyph-name="e" unicode="e" horiz-adv-x="580" 
d="M302 -10c-142 0 -246 104 -246 263c0 166 120 259 239 259c120 0 211 -74 231 -210h-451c-3 -15 -4 -32 -4 -49c0 -145 92 -252 233 -252c86 0 192 40 220 162h7c-29 -131 -138 -173 -229 -173zM294 502c-97 0 -194 -67 -218 -190h432c-14 114 -96 190 -214 190z" />
    <glyph glyph-name="f" unicode="f" horiz-adv-x="339" 
d="M38 0v6l50 2c21 1 32 5 32 16v467h-82v6c81 2 82 4 82 25c0 142 62 236 193 236h20v-11h-19c-67 0 -115 -25 -147 -76c-27 -43 -35 -98 -35 -169h196l-4 -11h-192v-467c0 -11 11 -15 32 -16l80 -2v-6h-206z" />
    <glyph glyph-name="g" unicode="g" horiz-adv-x="527" 
d="M249 156c-22 0 -44 4 -64 11l-112 -117l224 -22c122 -12 216 -26 216 -117c0 -101 -134 -169 -272 -169c-120 0 -212 49 -212 131c0 87 114 149 207 149c-70 6 -149 16 -178 26l117 123c-62 26 -107 85 -107 163c0 107 85 178 181 178s181 -71 181 -178
s-85 -178 -181 -178zM336 492l10 10h171l-10 -10h-171zM249 166c93 0 166 67 166 168s-73 168 -166 168s-166 -67 -166 -168s73 -168 166 -168zM242 -248c142 0 256 71 256 157c0 81 -86 96 -203 107c-142 13 -251 -59 -251 -142c0 -78 83 -122 198 -122z" />
    <glyph glyph-name="h" unicode="h" horiz-adv-x="599" 
d="M33 0v6l50 2c21 1 32 5 32 16v719l-82 9v6h94v-412c20 122 102 166 188 166c125 0 173 -71 173 -218v-270c0 -11 11 -15 32 -16l50 -2v-6h-176v6l50 2c21 1 32 5 32 16v268c0 145 -50 210 -165 210c-104 0 -184 -75 -184 -210v-268c0 -11 11 -15 32 -16l50 -2v-6h-176z
" />
    <glyph glyph-name="i" unicode="i" horiz-adv-x="255" 
d="M111 739c0 10 9 19 19 19s19 -9 19 -19s-9 -19 -19 -19s-19 9 -19 19zM42 0v6l50 2c21 1 32 5 32 16v463l-82 9v6h94v-478c0 -11 11 -15 32 -16l50 -2v-6h-176z" />
    <glyph glyph-name="j" unicode="j" horiz-adv-x="231" 
d="M102 739c0 10 9 19 19 19s19 -9 19 -19s-9 -19 -19 -19s-19 9 -19 19zM1 -258l-3 4c100 81 117 98 117 268v473l-82 9v6h94v-488c0 -142 -11 -178 -74 -231c-15 -13 -32 -26 -52 -41z" />
    <glyph glyph-name="k" unicode="k" horiz-adv-x="523" 
d="M33 0v6l50 2c21 1 32 5 32 16v719l-82 9v6h94v-477l265 198c11 8 12 15 -22 16l-32 1v6h159v-6l-44 -2c-19 -1 -29 -3 -43 -14l-269 -201l370 -279h-20l-364 276v-252c0 -11 11 -15 32 -16l50 -2v-6h-176z" />
    <glyph glyph-name="l" unicode="l" horiz-adv-x="250" 
d="M37 0v6l50 2c21 1 32 5 32 16v719l-82 9v6h94v-734c0 -11 11 -15 32 -16l50 -2v-6h-176z" />
    <glyph glyph-name="m" unicode="m" horiz-adv-x="965" 
d="M214 6v-6h-176v6l50 2c21 1 32 5 32 16v463l-82 9v6h94v-156c20 122 102 166 188 166c111 0 162 -58 171 -173c20 130 104 173 190 173c125 0 173 -71 173 -218v-270c0 -11 11 -15 32 -16l50 -2v-6h-176v6l50 2c21 1 32 5 32 16v268c0 145 -50 210 -165 210
c-104 0 -184 -75 -184 -210v-268c0 -11 11 -15 32 -16l50 -2v-6h-176v6l50 2c21 1 32 5 32 16v268c0 145 -50 210 -165 210c-104 0 -184 -75 -184 -210v-268c0 -11 11 -15 32 -16z" />
    <glyph glyph-name="n" unicode="n" horiz-adv-x="604" 
d="M38 0v6l50 2c21 1 32 5 32 16v463l-82 9v6h94v-156c20 122 102 166 188 166c125 0 173 -71 173 -218v-270c0 -11 11 -15 32 -16l50 -2v-6h-176v6l50 2c21 1 32 5 32 16v268c0 145 -50 210 -165 210c-104 0 -184 -75 -184 -210v-268c0 -11 11 -15 32 -16l50 -2v-6h-176z
" />
    <glyph glyph-name="o" unicode="o" horiz-adv-x="614" 
d="M307 -10c-124 0 -252 94 -252 261s128 261 252 261s252 -94 252 -261s-128 -261 -252 -261zM307 0c113 0 237 85 237 251s-124 251 -237 251s-237 -85 -237 -251s124 -251 237 -251z" />
    <glyph glyph-name="p" unicode="p" horiz-adv-x="610" 
d="M33 -248v6l50 2c21 1 32 5 32 16v711l-82 9v6h94v-80c35 56 107 90 178 90c151 0 249 -115 249 -261s-98 -261 -249 -261c-72 0 -144 35 -178 90v-304c0 -11 11 -15 32 -16l70 -2v-6h-196zM127 85c50 -64 121 -85 178 -85c144 0 234 113 234 251s-90 251 -234 251
c-57 0 -128 -21 -178 -85v-332z" />
    <glyph glyph-name="q" unicode="q" horiz-adv-x="598" 
d="M304 -10c-151 0 -249 115 -249 261s98 261 249 261c72 0 144 -35 178 -91l5 81h7v-726c0 -11 11 -15 32 -16l50 -2v-6h-196v6l70 2c21 1 32 5 32 16v304c-35 -56 -107 -90 -178 -90zM70 251c0 -138 90 -251 234 -251c57 0 128 21 178 85v332c-50 64 -121 85 -178 85
c-144 0 -234 -113 -234 -251z" />
    <glyph glyph-name="r" unicode="r" horiz-adv-x="364" 
d="M38 0v6l50 2c21 1 32 5 32 16v463l-82 9v6h94v-154c21 124 102 159 199 159h6v-13h-18c-135 0 -187 -91 -187 -202v-268c0 -11 11 -15 39 -16l73 -2v-6h-206z" />
    <glyph glyph-name="s" unicode="s" horiz-adv-x="472" 
d="M235 -10c-65 0 -124 15 -162 46l-12 137h7l18 -119c3 -19 27 -33 60 -43c26 -7 58 -11 88 -11c90 0 166 46 166 126c0 81 -61 110 -145 125l-45 8c-88 16 -137 58 -137 131c0 64 60 122 163 122c51 0 99 -13 135 -44l20 -127h-7l-25 109c-5 20 -26 33 -51 41
s-53 11 -72 11c-94 0 -150 -51 -150 -113c0 -64 46 -103 126 -118l49 -9c97 -18 153 -55 153 -135c0 -84 -78 -137 -179 -137z" />
    <glyph glyph-name="t" unicode="t" horiz-adv-x="376" 
d="M239 -10c-45 0 -95 8 -95 80v421h-135v11h135v108l12 2v-110h216v-11h-216v-420c0 -65 45 -71 84 -71c41 0 84 13 120 31l3 -6c-34 -20 -87 -35 -124 -35z" />
    <glyph glyph-name="u" unicode="u" horiz-adv-x="597" 
d="M283 -10c-125 0 -173 71 -173 218v279l-82 9v6h94v-292c0 -145 50 -210 165 -210c104 0 184 75 184 210v277l-82 9v6h94v-492h82v-6l-94 -9v161c-20 -122 -102 -166 -188 -166z" />
    <glyph glyph-name="v" unicode="v" horiz-adv-x="571" 
d="M282 -10l-204 488c-4 10 -11 15 -32 16l-50 2v6h177v-6l-50 -2c-26 -1 -36 -6 -32 -16l195 -467l195 467c4 10 -6 15 -32 16l-50 2v6h176v-6l-50 -2c-21 -1 -28 -6 -32 -16l-204 -488h-7z" />
    <glyph glyph-name="w" unicode="w" horiz-adv-x="865" 
d="M282 -10l-204 488c-4 10 -11 15 -32 16l-50 2v6h177v-6l-50 -2c-26 -1 -36 -6 -32 -16l195 -468l149 349l-54 143h127v-6l-72 -2c-26 -1 -36 -6 -32 -16l176 -467l195 467c4 10 -6 15 -32 16l-50 2v6h176v-6l-50 -2c-21 -1 -28 -6 -32 -16l-204 -488h-7l-135 354
l-152 -354h-7z" />
    <glyph glyph-name="x" unicode="x" horiz-adv-x="598" 
d="M13 0v6l47 2c19 1 30 4 37 13l195 238l-178 222c-6 8 -18 12 -37 13l-47 2v6h179v-6l-50 -2c-26 -1 -35 -6 -29 -14l170 -212l174 212c7 9 -3 13 -29 14l-50 2v6h178v-6l-47 -2c-19 -1 -30 -4 -37 -13l-182 -221l192 -239c6 -8 16 -12 35 -13l47 -2v-6h-179v6l50 2
c26 1 37 6 31 14l-184 228l-187 -228c-7 -9 3 -13 29 -14l50 -2v-6h-178z" />
    <glyph glyph-name="y" unicode="y" horiz-adv-x="572" 
d="M162 -250c-6 0 -9 4 -9 9c0 12 13 34 35 55l88 196l-195 468c-4 10 -11 15 -32 16l-50 2v6h177v-6l-50 -2c-26 -1 -36 -6 -32 -16l189 -452l201 452c4 10 -6 15 -32 16l-50 2v6h176v-6l-50 -2c-21 -1 -28 -6 -32 -16l-304 -683c-16 -37 -22 -45 -30 -45z" />
    <glyph glyph-name="z" unicode="z" horiz-adv-x="526" 
d="M36 0l412 492h-306c-13 0 -18 -2 -23 -13l-58 -139h-7l57 162h360l-411 -492h341c13 0 19 2 23 13l58 140h7l-57 -163h-396z" />
    <glyph glyph-name="braceleft" unicode="{" horiz-adv-x="294" 
d="M261 -234c-113 21 -180 79 -151 220l24 115c21 101 -21 166 -102 180v6c81 14 123 79 102 180l-24 115c-29 141 38 199 151 220l2 -10c-110 -20 -169 -75 -141 -211l24 -115c19 -93 -17 -161 -88 -181v-2c71 -20 107 -88 88 -181l-24 -115c-28 -136 31 -191 141 -211z
" />
    <glyph glyph-name="bar" unicode="|" horiz-adv-x="262" 
d="M125 -211v1004h12v-1004h-12z" />
    <glyph glyph-name="braceright" unicode="}" horiz-adv-x="294" 
d="M33 802c113 -21 180 -79 151 -220l-24 -115c-21 -101 21 -166 102 -180v-6c-81 -14 -123 -79 -102 -180l24 -115c29 -141 -38 -199 -151 -220l-2 10c110 20 169 75 141 211l-24 115c-19 93 17 161 88 181v2c-71 20 -107 88 -88 181l24 115c28 136 -31 191 -141 211z" />
    <glyph glyph-name="asciitilde" unicode="~" horiz-adv-x="653" 
d="M213 320c105 0 138 -102 228 -102c38 0 98 9 112 99h12c-13 -91 -76 -109 -124 -109c-99 0 -127 102 -228 102c-38 0 -98 -9 -112 -99h-12c13 91 76 109 124 109z" />
    <glyph glyph-name="uni00A0" unicode="&#xa0;" horiz-adv-x="294" 
 />
    <glyph glyph-name="exclamdown" unicode="&#xa1;" horiz-adv-x="210" 
d="M105 512c12 0 20 -9 20 -19c0 -11 -8 -20 -20 -20c-11 0 -19 9 -19 20c0 10 8 19 19 19zM101 320h8c1 -311 4 -444 4 -575c0 -4 -16 -4 -16 0c0 131 3 264 4 575z" />
    <glyph glyph-name="cent" unicode="&#xa2;" horiz-adv-x="569" 
d="M293 -144v134c-138 4 -238 107 -238 263c0 162 118 254 238 259v158h12v-158c139 -1 200 -87 200 -118c0 -9 -5 -11 -11 -11h-4c-17 73 -88 119 -185 119v-501c86 1 191 41 219 162h6c-29 -131 -138 -173 -225 -173v-134h-12zM70 253c0 -142 88 -247 223 -252v501
c-112 -4 -223 -94 -223 -249z" />
    <glyph glyph-name="sterling" unicode="&#xa3;" horiz-adv-x="634" 
d="M52 0v4l49 45c116 106 145 157 145 213c0 30 -6 55 -17 82h-179v11h174l-3 6l-34 74c-41 89 -59 131 -59 178c0 53 32 97 80 125c33 19 74 30 118 30c147 0 205 -83 205 -113c0 -8 -5 -13 -15 -12c-17 78 -99 114 -190 114c-43 0 -82 -11 -113 -30
c-44 -26 -71 -68 -71 -114c0 -44 18 -86 58 -175l33 -73c2 -3 3 -7 5 -10h243v-11h-239c10 -25 17 -50 17 -82c0 -46 -17 -100 -150 -218l-37 -33h525l-3 -11h-542z" />
    <glyph glyph-name="yen" unicode="&#xa5;" horiz-adv-x="831" 
d="M219 223v11h191v99h-191v11h190l-289 390c-6 9 -11 15 -32 16l-60 2v6h199v-6l-60 -2c-26 -1 -38 -7 -32 -16l282 -380l281 380c6 9 -6 15 -32 16l-60 2v6h198v-6l-60 -2c-21 -1 -26 -7 -32 -16l-288 -390h190v-11h-191v-99h191v-11h-191v-199c0 -11 11 -15 32 -16l60 -2
v-6h-197v6l60 2c21 1 32 5 32 16v199h-191z" />
    <glyph glyph-name="brokenbar" unicode="&#xa6;" horiz-adv-x="262" 
d="M125 399v394h12v-394h-12zM125 -211v394h12v-394h-12z" />
    <glyph glyph-name="section" unicode="&#xa7;" horiz-adv-x="633" 
d="M291 176l-84 87c-96 99 -147 166 -147 258c0 136 112 247 293 247c144 0 206 -89 206 -119c0 -9 -6 -13 -14 -12c-17 76 -93 121 -192 121c-111 0 -160 -61 -160 -115c0 -60 43 -120 137 -217l84 -87c96 -100 172 -185 172 -287c0 -136 -121 -248 -301 -248
c-147 0 -231 103 -231 142c0 9 7 13 14 12c17 -86 115 -144 217 -144c110 0 157 59 157 123c0 76 -57 142 -151 239zM380 -175c106 27 191 110 191 227c0 92 -65 177 -162 275l-88 89c-104 105 -141 164 -141 227c0 38 27 80 78 104c-105 -25 -183 -109 -183 -226
c0 -84 47 -153 138 -246l87 -89c103 -106 155 -170 155 -250c0 -51 -34 -91 -75 -111z" />
    <glyph glyph-name="dieresis" unicode="&#xa8;" 
d="M120 690c-10 0 -19 9 -19 19s9 19 19 19s19 -9 19 -19s-9 -19 -19 -19zM-120 690c-10 0 -19 9 -19 19s9 19 19 19s19 -9 19 -19s-9 -19 -19 -19z" />
    <glyph glyph-name="copyright" unicode="&#xa9;" horiz-adv-x="884" 
d="M442 -10c-229 0 -382 173 -382 389s153 389 382 389s382 -173 382 -389s-153 -389 -382 -389zM442 0c191 0 367 142 367 379s-176 379 -367 379s-367 -142 -367 -379s176 -379 367 -379zM455 165c-132 0 -237 81 -237 221s105 222 239 222c52 0 105 -10 139 -36l25 -91
h-5l-29 71c-5 13 -8 16 -15 21c-18 15 -65 25 -114 25c-119 0 -225 -68 -225 -208c0 -137 94 -215 224 -215c49 0 97 10 116 24c7 6 9 9 15 22l33 75h5l-30 -95c-34 -26 -89 -36 -141 -36z" />
    <glyph glyph-name="ordfeminine" unicode="&#xaa;" horiz-adv-x="483" 
d="M194 347c-79 0 -131 52 -131 111c0 78 82 101 169 121c118 28 120 38 120 71c0 59 -31 109 -119 109c-86 0 -148 -54 -140 -129h-6c-6 0 -9 0 -9 8c0 37 19 75 54 100c26 18 60 30 102 30c88 0 131 -43 130 -128l-2 -275h66v-7l-77 -6v121c-21 -93 -85 -126 -157 -126z
M196 357c77 0 154 44 155 159l1 95c-31 -19 -70 -29 -118 -41c-82 -19 -157 -39 -157 -112c0 -55 47 -101 119 -101z" />
    <glyph glyph-name="guillemotleft" unicode="&#xab;" horiz-adv-x="536" 
d="M68 258l207 -206l-7 -8l-216 214l216 214l7 -8zM268 258l207 -206l-7 -8l-216 214l216 214l7 -8z" />
    <glyph glyph-name="uni00AD" unicode="&#xad;" horiz-adv-x="454" 
d="M80 254v11h294v-11h-294z" />
    <glyph glyph-name="registered" unicode="&#xae;" horiz-adv-x="884" 
d="M442 -10c-229 0 -382 173 -382 389s153 389 382 389s382 -173 382 -389s-153 -389 -382 -389zM442 0c191 0 367 142 367 379s-176 379 -367 379s-367 -142 -367 -379s176 -379 367 -379zM275 178v7l33 2c13 1 19 3 19 12v388c0 9 -6 11 -19 12l-33 2v7h140
c88 0 169 -16 169 -107c0 -86 -75 -107 -146 -110l214 -213h-16l-214 213h-83v-192c0 -9 7 -11 19 -12l33 -2v-7h-116zM339 401h72c86 0 160 16 160 99s-74 98 -160 98h-72v-197z" />
    <glyph glyph-name="macron" unicode="&#xaf;" 
d="M-137 667v9h274v-9h-274z" />
    <glyph glyph-name="degree" unicode="&#xb0;" horiz-adv-x="454" 
d="M227 430c-95 0 -170 75 -170 169s75 169 170 169s170 -75 170 -169s-75 -169 -170 -169zM227 442c82 0 157 61 157 157s-75 157 -157 157s-157 -61 -157 -157s75 -157 157 -157z" />
    <glyph glyph-name="plusminus" unicode="&#xb1;" horiz-adv-x="653" 
d="M320 80v224h-252v11h252v220h12v-220h252v-11h-252v-224h-12zM68 0v11h516v-11h-516z" />
    <glyph glyph-name="twosuperior" unicode="&#xb2;" horiz-adv-x="348" 
d="M19 401v2c151 143 248 233 248 324c0 62 -39 92 -95 92c-59 0 -105 -41 -104 -112h-6c-2 72 44 121 114 121s104 -45 104 -99c0 -80 -69 -159 -212 -287l-35 -31h229c10 0 14 2 17 10l29 72h6l-31 -92h-264z" />
    <glyph glyph-name="threesuperior" unicode="&#xb3;" horiz-adv-x="345" 
d="M161 391c-85 0 -123 57 -123 76c0 6 5 10 12 9c9 -43 48 -76 111 -76c65 0 126 45 126 129c0 73 -58 115 -102 115c-20 0 -38 -8 -50 -13l-3 7l13 5c63 24 109 58 109 107c0 43 -33 69 -85 69c-49 0 -97 -29 -104 -87h-5c6 61 57 96 112 96c63 0 94 -36 94 -75
c0 -51 -46 -82 -77 -97v-1c52 -4 111 -49 111 -125c0 -88 -73 -139 -139 -139z" />
    <glyph glyph-name="acute" unicode="&#xb4;" 
d="M-60 579l106 179h15v-1l-112 -178h-9z" />
    <glyph glyph-name="paragraph" unicode="&#xb6;" horiz-adv-x="571" 
d="M303 -197v484c-7 -1 -15 -1 -23 -1c-155 0 -244 90 -244 222c0 141 117 250 331 250h148v-8l-60 -2c-21 -1 -32 -5 -32 -16v-832l-12 -10v418c-30 -11 -61 -18 -96 -21v-475z" />
    <glyph glyph-name="periodcentered" unicode="&#xb7;" horiz-adv-x="199" 
d="M99 240c-11 0 -19 9 -19 19c0 11 8 20 19 20c12 0 20 -9 20 -20c0 -10 -8 -19 -20 -19z" />
    <glyph glyph-name="cedilla" unicode="&#xb8;" 
d="M2 -246c-52 0 -92 32 -92 62c0 8 9 10 14 8c1 -43 44 -62 78 -62c43 0 76 20 76 55c0 36 -53 59 -115 87l99 96h15l-93 -91c64 -30 107 -53 107 -91c0 -39 -39 -64 -89 -64z" />
    <glyph glyph-name="onesuperior" unicode="&#xb9;" horiz-adv-x="225" 
d="M126 419v394l-100 -43v9l112 48v-408c0 -7 6 -11 18 -11l39 -1v-6h-129v6l41 2c13 1 19 3 19 10z" />
    <glyph glyph-name="ordmasculine" unicode="&#xba;" horiz-adv-x="520" 
d="M261 347c-101 0 -204 76 -204 211c0 134 103 210 204 210c100 0 203 -76 203 -210c0 -135 -103 -211 -203 -211zM261 358c90 0 189 66 189 200s-99 200 -189 200c-91 0 -189 -66 -189 -200s98 -200 189 -200z" />
    <glyph glyph-name="guillemotright" unicode="&#xbb;" horiz-adv-x="536" 
d="M268 258l-207 206l7 8l216 -214l-216 -214l-7 8zM468 258l-207 206l7 8l216 -214l-216 -214l-7 8z" />
    <glyph glyph-name="onequarter" unicode="&#xbc;" horiz-adv-x="753" 
d="M126 359v394l-100 -43v9l112 48v-408c0 -7 6 -11 18 -11l39 -1v-6h-129v6l41 2c13 1 19 3 19 10zM17 0l566 758h14l-566 -758h-14zM627 0v120h-248l251 299h9v-289h88v-10h-88v-120h-12zM398 130h229v272z" />
    <glyph glyph-name="onehalf" unicode="&#xbd;" horiz-adv-x="733" 
d="M126 359v394l-100 -43v9l112 48v-408c0 -7 6 -11 18 -11l39 -1v-6h-129v6l41 2c13 1 19 3 19 10zM17 0l566 758h14l-566 -758h-14zM404 0v2c151 143 248 233 248 324c0 62 -39 92 -95 92c-59 0 -105 -41 -104 -112h-6c-2 72 44 121 114 121s104 -45 104 -99
c0 -80 -69 -159 -212 -287l-35 -31h229c10 0 14 2 17 10l29 72h6l-31 -92h-264z" />
    <glyph glyph-name="threequarters" unicode="&#xbe;" horiz-adv-x="873" 
d="M161 331c-85 0 -123 57 -123 76c0 6 5 10 12 9c9 -43 48 -76 111 -76c65 0 126 45 126 129c0 73 -58 115 -102 115c-20 0 -38 -8 -50 -13l-3 7l13 5c63 24 109 58 109 107c0 43 -33 69 -85 69c-49 0 -97 -29 -104 -87h-5c6 61 57 96 112 96c63 0 94 -36 94 -75
c0 -51 -46 -82 -77 -97v-1c52 -4 111 -49 111 -125c0 -88 -73 -139 -139 -139zM137 0l566 758h14l-566 -758h-14zM747 0v120h-248l251 299h9v-289h88v-10h-88v-120h-12zM518 130h229v272z" />
    <glyph glyph-name="questiondown" unicode="&#xbf;" horiz-adv-x="541" 
d="M334 512c11 0 19 -9 19 -19c0 -11 -8 -20 -19 -20c-12 0 -20 9 -20 20c0 10 8 19 20 19zM282 -248c112 0 195 51 212 127c8 1 15 -3 15 -12c0 -30 -76 -125 -227 -125c-156 0 -242 97 -242 198c0 111 84 158 171 176l71 15c35 7 44 7 45 54l3 135h9v-134
c0 -52 -12 -58 -52 -66l-71 -15c-89 -19 -161 -62 -161 -165c0 -98 79 -188 227 -188z" />
    <glyph glyph-name="Agrave" unicode="&#xc0;" horiz-adv-x="756" 
d="M443 833h-12l-170 138v1h16zM675 24c4 -10 11 -15 32 -16l60 -2v-6h-198v6l60 2c26 1 36 6 32 16l-118 303h-331l-117 -303c-4 -10 4 -15 32 -16l60 -2v-6h-198v6l60 2c21 1 28 6 32 16l291 749h11zM377 752l-160 -414h322z" />
    <glyph glyph-name="Aacute" unicode="&#xc1;" horiz-adv-x="756" 
d="M334 833l166 139h16v-1l-170 -138h-12zM675 24c4 -10 11 -15 32 -16l60 -2v-6h-198v6l60 2c26 1 36 6 32 16l-118 303h-331l-117 -303c-4 -10 4 -15 32 -16l60 -2v-6h-198v6l60 2c21 1 28 6 32 16l291 749h11zM377 752l-160 -414h322z" />
    <glyph glyph-name="Acircumflex" unicode="&#xc2;" horiz-adv-x="756" 
d="M229 833l146 139h4l146 -139h-9l-139 124l-139 -124h-9zM675 24c4 -10 11 -15 32 -16l60 -2v-6h-198v6l60 2c26 1 36 6 32 16l-118 303h-331l-117 -303c-4 -10 4 -15 32 -16l60 -2v-6h-198v6l60 2c21 1 28 6 32 16l291 749h11zM377 752l-160 -414h322z" />
    <glyph glyph-name="Atilde" unicode="&#xc3;" horiz-adv-x="756" 
d="M462 861c-74 0 -108 83 -169 83c-35 0 -55 -24 -56 -72h-11c0 57 30 82 67 82c68 0 100 -83 169 -83c33 0 54 24 55 72h11c0 -57 -31 -82 -66 -82zM675 24c4 -10 11 -15 32 -16l60 -2v-6h-198v6l60 2c26 1 36 6 32 16l-118 303h-331l-117 -303c-4 -10 4 -15 32 -16l60 -2
v-6h-198v6l60 2c21 1 28 6 32 16l291 749h11zM377 752l-160 -414h322z" />
    <glyph glyph-name="Adieresis" unicode="&#xc4;" horiz-adv-x="756" 
d="M257 917c-10 0 -19 9 -19 19s9 19 19 19s19 -9 19 -19s-9 -19 -19 -19zM497 917c-10 0 -19 9 -19 19s9 19 19 19s19 -9 19 -19s-9 -19 -19 -19zM675 24c4 -10 11 -15 32 -16l60 -2v-6h-198v6l60 2c26 1 36 6 32 16l-118 303h-331l-117 -303c-4 -10 4 -15 32 -16l60 -2v-6
h-198v6l60 2c21 1 28 6 32 16l291 749h11zM377 752l-160 -414h322z" />
    <glyph glyph-name="Aring" unicode="&#xc5;" horiz-adv-x="756" 
d="M377 833c-56 0 -102 42 -102 98s46 98 102 98s102 -42 102 -98s-46 -98 -102 -98zM377 843c50 0 90 39 90 88s-40 88 -90 88s-90 -39 -90 -88s40 -88 90 -88zM675 24c4 -10 11 -15 32 -16l60 -2v-6h-198v6l60 2c26 1 36 6 32 16l-118 303h-331l-117 -303
c-4 -10 4 -15 32 -16l60 -2v-6h-198v6l60 2c21 1 28 6 32 16l291 749h11zM377 752l-160 -414h322z" />
    <glyph glyph-name="AE" unicode="&#xc6;" horiz-adv-x="1160" 
d="M525 0v6l60 2c21 1 32 5 32 16v303h-297l-220 -303c-7 -10 -5 -15 18 -16l60 -2v-6h-201v6l60 2c27 1 40 6 47 16l533 734h407l28 -147h-7l-33 124c-2 9 -6 12 -16 12h-366v-343h227c27 0 28 2 29 16l6 97h7v-237h-7l-6 97c-1 14 -2 16 -29 16h-227v-382h420
c13 0 18 2 23 13l58 129h7l-57 -153h-556zM328 338h289v398z" />
    <glyph glyph-name="Ccedilla" unicode="&#xc7;" horiz-adv-x="825" 
d="M475 -10c-231 0 -415 138 -415 389c0 249 184 389 419 389c93 0 186 -19 246 -70l44 -137h-7l-46 110c-9 21 -12 25 -24 35c-34 30 -120 52 -210 52c-216 0 -407 -126 -407 -380c0 -249 181 -378 403 -378c90 0 180 22 214 52c12 10 16 14 25 35l53 119h7l-52 -146
c-54 -46 -138 -66 -222 -69l-83 -82c64 -30 107 -53 107 -91c0 -39 -39 -64 -89 -64c-52 0 -92 32 -92 62c0 8 9 10 14 8c1 -43 44 -62 78 -62c43 0 76 20 76 55c0 36 -53 59 -115 87l89 86h-13z" />
    <glyph glyph-name="Egrave" unicode="&#xc8;" horiz-adv-x="702" 
d="M431 833h-12l-170 138v1h16zM67 0v6l60 2c21 1 32 5 32 16v710c0 11 -11 15 -32 16l-60 2v6h499l28 -147h-7l-33 124c-2 9 -6 12 -16 12h-366v-343h227c27 0 28 2 29 16l6 97h7v-237h-7l-6 97c-1 14 -2 16 -29 16h-227v-382h420c13 0 18 2 23 13l58 129h7l-57 -153h-556z
" />
    <glyph glyph-name="Eacute" unicode="&#xc9;" horiz-adv-x="702" 
d="M322 833l166 139h16v-1l-170 -138h-12zM67 0v6l60 2c21 1 32 5 32 16v710c0 11 -11 15 -32 16l-60 2v6h499l28 -147h-7l-33 124c-2 9 -6 12 -16 12h-366v-343h227c27 0 28 2 29 16l6 97h7v-237h-7l-6 97c-1 14 -2 16 -29 16h-227v-382h420c13 0 18 2 23 13l58 129h7
l-57 -153h-556z" />
    <glyph glyph-name="Ecircumflex" unicode="&#xca;" horiz-adv-x="702" 
d="M217 833l146 139h4l146 -139h-9l-139 124l-139 -124h-9zM67 0v6l60 2c21 1 32 5 32 16v710c0 11 -11 15 -32 16l-60 2v6h499l28 -147h-7l-33 124c-2 9 -6 12 -16 12h-366v-343h227c27 0 28 2 29 16l6 97h7v-237h-7l-6 97c-1 14 -2 16 -29 16h-227v-382h420
c13 0 18 2 23 13l58 129h7l-57 -153h-556z" />
    <glyph glyph-name="Edieresis" unicode="&#xcb;" horiz-adv-x="702" 
d="M245 917c-10 0 -19 9 -19 19s9 19 19 19s19 -9 19 -19s-9 -19 -19 -19zM485 917c-10 0 -19 9 -19 19s9 19 19 19s19 -9 19 -19s-9 -19 -19 -19zM67 0v6l60 2c21 1 32 5 32 16v710c0 11 -11 15 -32 16l-60 2v6h499l28 -147h-7l-33 124c-2 9 -6 12 -16 12h-366v-343h227
c27 0 28 2 29 16l6 97h7v-237h-7l-6 97c-1 14 -2 16 -29 16h-227v-382h420c13 0 18 2 23 13l58 129h7l-57 -153h-556z" />
    <glyph glyph-name="Igrave" unicode="&#xcc;" horiz-adv-x="331" 
d="M232 833h-12l-170 138v1h16zM67 0v6l60 2c21 1 32 5 32 16v710c0 11 -11 15 -32 16l-60 2v6h197v-6l-60 -2c-21 -1 -32 -5 -32 -16v-710c0 -11 11 -15 32 -16l60 -2v-6h-197z" />
    <glyph glyph-name="Iacute" unicode="&#xcd;" horiz-adv-x="331" 
d="M123 833l166 139h16v-1l-170 -138h-12zM67 0v6l60 2c21 1 32 5 32 16v710c0 11 -11 15 -32 16l-60 2v6h197v-6l-60 -2c-21 -1 -32 -5 -32 -16v-710c0 -11 11 -15 32 -16l60 -2v-6h-197z" />
    <glyph glyph-name="Icircumflex" unicode="&#xce;" horiz-adv-x="331" 
d="M18 833l146 139h4l146 -139h-9l-139 124l-139 -124h-9zM67 0v6l60 2c21 1 32 5 32 16v710c0 11 -11 15 -32 16l-60 2v6h197v-6l-60 -2c-21 -1 -32 -5 -32 -16v-710c0 -11 11 -15 32 -16l60 -2v-6h-197z" />
    <glyph glyph-name="Idieresis" unicode="&#xcf;" horiz-adv-x="331" 
d="M46 917c-10 0 -19 9 -19 19s9 19 19 19s19 -9 19 -19s-9 -19 -19 -19zM286 917c-10 0 -19 9 -19 19s9 19 19 19s19 -9 19 -19s-9 -19 -19 -19zM67 0v6l60 2c21 1 32 5 32 16v710c0 11 -11 15 -32 16l-60 2v6h197v-6l-60 -2c-21 -1 -32 -5 -32 -16v-710
c0 -11 11 -15 32 -16l60 -2v-6h-197z" />
    <glyph glyph-name="Eth" unicode="&#xd0;" horiz-adv-x="851" 
d="M77 0v6l60 2c21 1 32 5 32 16v369h-92v11h92v330c0 11 -11 15 -32 16l-60 2v6h244c240 0 468 -81 468 -376s-228 -382 -468 -382h-244zM182 11h139c256 0 453 103 453 371s-197 365 -453 365h-139v-343h239v-11h-239v-382z" />
    <glyph glyph-name="Ntilde" unicode="&#xd1;" horiz-adv-x="868" 
d="M535 861c-74 0 -108 83 -169 83c-35 0 -55 -24 -56 -72h-11c0 57 30 82 67 82c68 0 100 -83 169 -83c33 0 54 24 55 72h11c0 -57 -31 -82 -66 -82zM67 0v6l60 2c21 1 32 5 32 16v640l-76 93v1h14l615 -745v721c0 11 -11 15 -32 16l-60 2v6h197v-6l-60 -2
c-21 -1 -32 -5 -32 -16v-756h-2l-551 671v-625c0 -11 11 -15 32 -16l60 -2v-6h-197z" />
    <glyph glyph-name="Ograve" unicode="&#xd2;" horiz-adv-x="884" 
d="M508 833h-12l-170 138v1h16zM442 -10c-229 0 -382 173 -382 389s153 389 382 389s382 -173 382 -389s-153 -389 -382 -389zM442 0c191 0 367 142 367 379s-176 379 -367 379s-367 -142 -367 -379s176 -379 367 -379z" />
    <glyph glyph-name="Oacute" unicode="&#xd3;" horiz-adv-x="884" 
d="M399 833l166 139h16v-1l-170 -138h-12zM442 -10c-229 0 -382 173 -382 389s153 389 382 389s382 -173 382 -389s-153 -389 -382 -389zM442 0c191 0 367 142 367 379s-176 379 -367 379s-367 -142 -367 -379s176 -379 367 -379z" />
    <glyph glyph-name="Ocircumflex" unicode="&#xd4;" horiz-adv-x="884" 
d="M294 833l146 139h4l146 -139h-9l-139 124l-139 -124h-9zM442 -10c-229 0 -382 173 -382 389s153 389 382 389s382 -173 382 -389s-153 -389 -382 -389zM442 0c191 0 367 142 367 379s-176 379 -367 379s-367 -142 -367 -379s176 -379 367 -379z" />
    <glyph glyph-name="Otilde" unicode="&#xd5;" horiz-adv-x="884" 
d="M527 861c-74 0 -108 83 -169 83c-35 0 -55 -24 -56 -72h-11c0 57 30 82 67 82c68 0 100 -83 169 -83c33 0 54 24 55 72h11c0 -57 -31 -82 -66 -82zM442 -10c-229 0 -382 173 -382 389s153 389 382 389s382 -173 382 -389s-153 -389 -382 -389zM442 0
c191 0 367 142 367 379s-176 379 -367 379s-367 -142 -367 -379s176 -379 367 -379z" />
    <glyph glyph-name="Odieresis" unicode="&#xd6;" horiz-adv-x="884" 
d="M322 917c-10 0 -19 9 -19 19s9 19 19 19s19 -9 19 -19s-9 -19 -19 -19zM562 917c-10 0 -19 9 -19 19s9 19 19 19s19 -9 19 -19s-9 -19 -19 -19zM442 -10c-229 0 -382 173 -382 389s153 389 382 389s382 -173 382 -389s-153 -389 -382 -389zM442 0c191 0 367 142 367 379
s-176 379 -367 379s-367 -142 -367 -379s176 -379 367 -379z" />
    <glyph glyph-name="multiply" unicode="&#xd7;" horiz-adv-x="653" 
d="M121 43l-9 9l206 205l-206 206l9 9l206 -206l206 206l8 -8l-206 -206l206 -207l-8 -9l-207 207z" />
    <glyph glyph-name="Oslash" unicode="&#xd8;" horiz-adv-x="884" 
d="M69 -61l-9 7l122 141c-77 71 -122 175 -122 292c0 216 153 389 382 389c101 0 187 -33 252 -89l121 140l9 -7l-122 -141c77 -71 122 -175 122 -292c0 -216 -153 -389 -382 -389c-101 0 -187 33 -252 89zM75 379c0 -121 46 -217 116 -282l494 572c-67 58 -153 89 -243 89
c-191 0 -367 -142 -367 -379zM442 0c191 0 367 142 367 379c0 121 -46 217 -116 282l-494 -572c67 -58 153 -89 243 -89z" />
    <glyph glyph-name="Ugrave" unicode="&#xd9;" horiz-adv-x="858" 
d="M495 833h-12l-170 138v1h16zM429 -10c-195 0 -293 104 -293 308v436c0 11 -11 15 -32 16l-60 2v6h197v-6l-60 -2c-21 -1 -32 -5 -32 -16v-436c0 -178 76 -298 280 -298s280 120 280 298v436c0 11 -11 15 -32 16l-60 2v6h197v-6l-60 -2c-21 -1 -32 -5 -32 -16v-436
c0 -204 -98 -308 -293 -308z" />
    <glyph glyph-name="Uacute" unicode="&#xda;" horiz-adv-x="858" 
d="M386 833l166 139h16v-1l-170 -138h-12zM429 -10c-195 0 -293 104 -293 308v436c0 11 -11 15 -32 16l-60 2v6h197v-6l-60 -2c-21 -1 -32 -5 -32 -16v-436c0 -178 76 -298 280 -298s280 120 280 298v436c0 11 -11 15 -32 16l-60 2v6h197v-6l-60 -2c-21 -1 -32 -5 -32 -16
v-436c0 -204 -98 -308 -293 -308z" />
    <glyph glyph-name="Ucircumflex" unicode="&#xdb;" horiz-adv-x="858" 
d="M281 833l146 139h4l146 -139h-9l-139 124l-139 -124h-9zM429 -10c-195 0 -293 104 -293 308v436c0 11 -11 15 -32 16l-60 2v6h197v-6l-60 -2c-21 -1 -32 -5 -32 -16v-436c0 -178 76 -298 280 -298s280 120 280 298v436c0 11 -11 15 -32 16l-60 2v6h197v-6l-60 -2
c-21 -1 -32 -5 -32 -16v-436c0 -204 -98 -308 -293 -308z" />
    <glyph glyph-name="Udieresis" unicode="&#xdc;" horiz-adv-x="858" 
d="M309 917c-10 0 -19 9 -19 19s9 19 19 19s19 -9 19 -19s-9 -19 -19 -19zM549 917c-10 0 -19 9 -19 19s9 19 19 19s19 -9 19 -19s-9 -19 -19 -19zM429 -10c-195 0 -293 104 -293 308v436c0 11 -11 15 -32 16l-60 2v6h197v-6l-60 -2c-21 -1 -32 -5 -32 -16v-436
c0 -178 76 -298 280 -298s280 120 280 298v436c0 11 -11 15 -32 16l-60 2v6h197v-6l-60 -2c-21 -1 -32 -5 -32 -16v-436c0 -204 -98 -308 -293 -308z" />
    <glyph glyph-name="Yacute" unicode="&#xdd;" horiz-adv-x="769" 
d="M343 833l166 139h16v-1l-170 -138h-12zM287 0v6l60 2c21 1 32 5 32 16v319l-290 391c-6 9 -11 15 -32 16l-60 2v6h199v-6l-60 -2c-26 -1 -38 -7 -32 -16l282 -380l281 380c6 9 -6 15 -32 16l-60 2v6h198v-6l-60 -2c-21 -1 -26 -7 -32 -16l-289 -391v-319
c0 -11 11 -15 32 -16l60 -2v-6h-197z" />
    <glyph glyph-name="Thorn" unicode="&#xde;" horiz-adv-x="716" 
d="M67 0v6l60 2c21 1 32 5 32 16v710c0 11 -11 15 -32 16l-60 2v6h197v-6l-60 -2c-21 -1 -32 -5 -32 -16v-154h201c152 0 293 -29 293 -196s-141 -196 -293 -196h-201v-164c0 -11 11 -16 32 -16l110 -2v-6h-247zM172 569v-370h189c158 0 290 27 290 185s-132 185 -290 185
h-189z" />
    <glyph glyph-name="germandbls" unicode="&#xdf;" horiz-adv-x="650" 
d="M405 -10c-149 0 -202 81 -202 111c0 9 7 13 15 12c17 -76 88 -113 187 -113c101 0 184 52 184 144c0 64 -41 107 -124 158l-50 31c-71 44 -122 74 -122 125c0 36 28 58 64 82l24 16c45 30 93 55 93 110s-60 92 -141 92c-145 0 -201 -107 -201 -226v-532h-94v6l50 2
c21 1 32 5 32 16v467h-82v6c81 2 82 4 82 25v10c0 126 61 236 213 236c87 0 154 -38 154 -102c0 -55 -47 -83 -102 -120l-24 -16c-27 -18 -55 -35 -55 -72c0 -46 53 -76 115 -114l50 -31c95 -59 132 -102 132 -169c0 -100 -94 -154 -198 -154z" />
    <glyph glyph-name="agrave" unicode="&#xe0;" horiz-adv-x="532" 
d="M297 579h-9l-112 178v1h15zM217 -10c-98 0 -163 65 -163 137c0 97 102 126 211 151c147 34 150 46 150 86c0 74 -39 138 -149 138c-112 0 -185 -75 -175 -161h-8c-6 0 -9 0 -9 9c0 46 23 93 66 124c32 23 74 38 126 38c109 0 162 -54 161 -159l-2 -342h81v-8l-93 -7v151
c-25 -116 -106 -157 -196 -157zM219 0c97 0 192 56 194 200l2 118c-39 -23 -88 -36 -148 -50c-103 -24 -198 -49 -198 -141c0 -68 60 -127 150 -127z" />
    <glyph glyph-name="aacute" unicode="&#xe1;" horiz-adv-x="532" 
d="M211 579l106 179h15v-1l-112 -178h-9zM217 -10c-98 0 -163 65 -163 137c0 97 102 126 211 151c147 34 150 46 150 86c0 74 -39 138 -149 138c-112 0 -185 -75 -175 -161h-8c-6 0 -9 0 -9 9c0 46 23 93 66 124c32 23 74 38 126 38c109 0 162 -54 161 -159l-2 -342h81v-8
l-93 -7v151c-25 -116 -106 -157 -196 -157zM219 0c97 0 192 56 194 200l2 118c-39 -23 -88 -36 -148 -50c-103 -24 -198 -49 -198 -141c0 -68 60 -127 150 -127z" />
    <glyph glyph-name="acircumflex" unicode="&#xe2;" horiz-adv-x="532" 
d="M92 579l156 189h4l156 -189h-9l-149 173l-149 -173h-9zM217 -10c-98 0 -163 65 -163 137c0 97 102 126 211 151c147 34 150 46 150 86c0 74 -39 138 -149 138c-112 0 -185 -75 -175 -161h-8c-6 0 -9 0 -9 9c0 46 23 93 66 124c32 23 74 38 126 38c109 0 162 -54 161 -159
l-2 -342h81v-8l-93 -7v151c-25 -116 -106 -157 -196 -157zM219 0c97 0 192 56 194 200l2 118c-39 -23 -88 -36 -148 -50c-103 -24 -198 -49 -198 -141c0 -68 60 -127 150 -127z" />
    <glyph glyph-name="atilde" unicode="&#xe3;" horiz-adv-x="532" 
d="M335 631c-74 0 -108 83 -169 83c-35 0 -55 -24 -56 -72h-11c0 57 30 82 67 82c68 0 100 -83 169 -83c33 0 54 24 55 72h11c0 -57 -31 -82 -66 -82zM217 -10c-98 0 -163 65 -163 137c0 97 102 126 211 151c147 34 150 46 150 86c0 74 -39 138 -149 138
c-112 0 -185 -75 -175 -161h-8c-6 0 -9 0 -9 9c0 46 23 93 66 124c32 23 74 38 126 38c109 0 162 -54 161 -159l-2 -342h81v-8l-93 -7v151c-25 -116 -106 -157 -196 -157zM219 0c97 0 192 56 194 200l2 118c-39 -23 -88 -36 -148 -50c-103 -24 -198 -49 -198 -141
c0 -68 60 -127 150 -127z" />
    <glyph glyph-name="adieresis" unicode="&#xe4;" horiz-adv-x="532" 
d="M370 690c-10 0 -19 9 -19 19s9 19 19 19s19 -9 19 -19s-9 -19 -19 -19zM130 690c-10 0 -19 9 -19 19s9 19 19 19s19 -9 19 -19s-9 -19 -19 -19zM217 -10c-98 0 -163 65 -163 137c0 97 102 126 211 151c147 34 150 46 150 86c0 74 -39 138 -149 138
c-112 0 -185 -75 -175 -161h-8c-6 0 -9 0 -9 9c0 46 23 93 66 124c32 23 74 38 126 38c109 0 162 -54 161 -159l-2 -342h81v-8l-93 -7v151c-25 -116 -106 -157 -196 -157zM219 0c97 0 192 56 194 200l2 118c-39 -23 -88 -36 -148 -50c-103 -24 -198 -49 -198 -141
c0 -68 60 -127 150 -127z" />
    <glyph glyph-name="aring" unicode="&#xe5;" horiz-adv-x="532" 
d="M250 585c-56 0 -102 42 -102 98s46 98 102 98s102 -42 102 -98s-46 -98 -102 -98zM250 595c50 0 90 39 90 88s-40 88 -90 88s-90 -39 -90 -88s40 -88 90 -88zM217 -10c-98 0 -163 65 -163 137c0 97 102 126 211 151c147 34 150 46 150 86c0 74 -39 138 -149 138
c-112 0 -185 -75 -175 -161h-8c-6 0 -9 0 -9 9c0 46 23 93 66 124c32 23 74 38 126 38c109 0 162 -54 161 -159l-2 -342h81v-8l-93 -7v151c-25 -116 -106 -157 -196 -157zM219 0c97 0 192 56 194 200l2 118c-39 -23 -88 -36 -148 -50c-103 -24 -198 -49 -198 -141
c0 -68 60 -127 150 -127z" />
    <glyph glyph-name="ae" unicode="&#xe6;" horiz-adv-x="940" 
d="M217 -10c-98 0 -163 65 -163 137c0 97 102 126 211 151c147 34 150 46 150 86c0 74 -39 138 -149 138c-112 0 -185 -75 -175 -161h-8c-6 0 -9 0 -9 9c0 46 23 93 66 124c32 23 74 38 126 38c109 0 162 -54 161 -159v-11c34 110 132 170 228 170c120 0 211 -74 231 -210
h-451c-3 -15 -4 -32 -4 -49c0 -145 92 -252 233 -252c86 0 192 40 220 162h7c-29 -131 -140 -172 -231 -172c-109 0 -196 62 -230 162c-22 -117 -118 -163 -213 -163zM654 502c-97 0 -194 -67 -218 -190h432c-14 114 -96 190 -214 190zM69 127c0 -68 60 -127 150 -127
s201 47 200 196c-3 18 -5 38 -5 58v10l1 54c-39 -23 -88 -36 -148 -50c-103 -24 -198 -49 -198 -141z" />
    <glyph glyph-name="ccedilla" unicode="&#xe7;" horiz-adv-x="570" 
d="M302 -10c-142 0 -246 104 -246 263c0 166 124 259 247 259c141 0 203 -87 203 -118c0 -9 -5 -11 -11 -11h-4c-17 73 -88 119 -189 119c-115 0 -231 -90 -231 -249c0 -145 92 -252 233 -252c86 0 192 40 220 162h7c-24 -109 -104 -157 -182 -169l-87 -85
c64 -30 107 -53 107 -91c0 -39 -39 -64 -89 -64c-52 0 -92 32 -92 62c0 8 9 10 14 8c1 -43 44 -62 78 -62c43 0 76 20 76 55c0 36 -53 59 -115 87l90 87c-10 -1 -19 -1 -29 -1z" />
    <glyph glyph-name="egrave" unicode="&#xe8;" horiz-adv-x="580" 
d="M349 579h-9l-112 178v1h15zM302 -10c-142 0 -246 104 -246 263c0 166 120 259 239 259c120 0 211 -74 231 -210h-451c-3 -15 -4 -32 -4 -49c0 -145 92 -252 233 -252c86 0 192 40 220 162h7c-29 -131 -138 -173 -229 -173zM294 502c-97 0 -194 -67 -218 -190h432
c-14 114 -96 190 -214 190z" />
    <glyph glyph-name="eacute" unicode="&#xe9;" horiz-adv-x="580" 
d="M263 579l106 179h15v-1l-112 -178h-9zM302 -10c-142 0 -246 104 -246 263c0 166 120 259 239 259c120 0 211 -74 231 -210h-451c-3 -15 -4 -32 -4 -49c0 -145 92 -252 233 -252c86 0 192 40 220 162h7c-29 -131 -138 -173 -229 -173zM294 502c-97 0 -194 -67 -218 -190
h432c-14 114 -96 190 -214 190z" />
    <glyph glyph-name="ecircumflex" unicode="&#xea;" horiz-adv-x="580" 
d="M144 579l156 189h4l156 -189h-9l-149 173l-149 -173h-9zM302 -10c-142 0 -246 104 -246 263c0 166 120 259 239 259c120 0 211 -74 231 -210h-451c-3 -15 -4 -32 -4 -49c0 -145 92 -252 233 -252c86 0 192 40 220 162h7c-29 -131 -138 -173 -229 -173zM294 502
c-97 0 -194 -67 -218 -190h432c-14 114 -96 190 -214 190z" />
    <glyph glyph-name="edieresis" unicode="&#xeb;" horiz-adv-x="580" 
d="M422 690c-10 0 -19 9 -19 19s9 19 19 19s19 -9 19 -19s-9 -19 -19 -19zM182 690c-10 0 -19 9 -19 19s9 19 19 19s19 -9 19 -19s-9 -19 -19 -19zM302 -10c-142 0 -246 104 -246 263c0 166 120 259 239 259c120 0 211 -74 231 -210h-451c-3 -15 -4 -32 -4 -49
c0 -145 92 -252 233 -252c86 0 192 40 220 162h7c-29 -131 -138 -173 -229 -173zM294 502c-97 0 -194 -67 -218 -190h432c-14 114 -96 190 -214 190z" />
    <glyph glyph-name="igrave" unicode="&#xec;" horiz-adv-x="255" 
d="M163 579h-9l-112 178v1h15zM42 0v6l50 2c21 1 32 5 32 16v463l-82 9v6h94v-478c0 -11 11 -15 32 -16l50 -2v-6h-176z" />
    <glyph glyph-name="iacute" unicode="&#xed;" horiz-adv-x="255" 
d="M77 579l106 179h15v-1l-112 -178h-9zM42 0v6l50 2c21 1 32 5 32 16v463l-82 9v6h94v-478c0 -11 11 -15 32 -16l50 -2v-6h-176z" />
    <glyph glyph-name="icircumflex" unicode="&#xee;" horiz-adv-x="255" 
d="M-42 579l156 189h4l156 -189h-9l-149 173l-149 -173h-9zM42 0v6l50 2c21 1 32 5 32 16v463l-82 9v6h94v-478c0 -11 11 -15 32 -16l50 -2v-6h-176z" />
    <glyph glyph-name="idieresis" unicode="&#xef;" horiz-adv-x="255" 
d="M16 690c-10 0 -19 9 -19 19s9 19 19 19s19 -9 19 -19s-9 -19 -19 -19zM216 690c-10 0 -19 9 -19 19s9 19 19 19s19 -9 19 -19s-9 -19 -19 -19zM42 0v6l50 2c21 1 32 5 32 16v463l-82 9v6h94v-478c0 -11 11 -15 32 -16l50 -2v-6h-176z" />
    <glyph glyph-name="eth" unicode="&#xf0;" horiz-adv-x="630" 
d="M306 -10c-124 0 -251 94 -251 261s128 261 256 261c101 0 174 -43 220 -95c-28 124 -97 220 -197 284l-147 -79l-5 9l143 76c-64 40 -140 67 -224 80l1 5c92 -13 169 -40 232 -79l141 75l5 -8l-136 -73c147 -95 215 -252 215 -414c0 -210 -129 -303 -253 -303zM70 251
c0 -166 123 -251 236 -251c114 0 238 84 238 293c0 42 -4 81 -12 118c-54 55 -126 91 -221 91c-117 0 -241 -85 -241 -251z" />
    <glyph glyph-name="ntilde" unicode="&#xf1;" horiz-adv-x="604" 
d="M393 631c-74 0 -108 83 -169 83c-35 0 -55 -24 -56 -72h-11c0 57 30 82 67 82c68 0 100 -83 169 -83c33 0 54 24 55 72h11c0 -57 -31 -82 -66 -82zM38 0v6l50 2c21 1 32 5 32 16v463l-82 9v6h94v-156c20 122 102 166 188 166c125 0 173 -71 173 -218v-270
c0 -11 11 -15 32 -16l50 -2v-6h-176v6l50 2c21 1 32 5 32 16v268c0 145 -50 210 -165 210c-104 0 -184 -75 -184 -210v-268c0 -11 11 -15 32 -16l50 -2v-6h-176z" />
    <glyph glyph-name="ograve" unicode="&#xf2;" horiz-adv-x="614" 
d="M354 579h-9l-112 178v1h15zM307 -10c-124 0 -252 94 -252 261s128 261 252 261s252 -94 252 -261s-128 -261 -252 -261zM307 0c113 0 237 85 237 251s-124 251 -237 251s-237 -85 -237 -251s124 -251 237 -251z" />
    <glyph glyph-name="oacute" unicode="&#xf3;" horiz-adv-x="614" 
d="M268 579l106 179h15v-1l-112 -178h-9zM307 -10c-124 0 -252 94 -252 261s128 261 252 261s252 -94 252 -261s-128 -261 -252 -261zM307 0c113 0 237 85 237 251s-124 251 -237 251s-237 -85 -237 -251s124 -251 237 -251z" />
    <glyph glyph-name="ocircumflex" unicode="&#xf4;" horiz-adv-x="614" 
d="M149 579l156 189h4l156 -189h-9l-149 173l-149 -173h-9zM307 -10c-124 0 -252 94 -252 261s128 261 252 261s252 -94 252 -261s-128 -261 -252 -261zM307 0c113 0 237 85 237 251s-124 251 -237 251s-237 -85 -237 -251s124 -251 237 -251z" />
    <glyph glyph-name="otilde" unicode="&#xf5;" horiz-adv-x="614" 
d="M392 631c-74 0 -108 83 -169 83c-35 0 -55 -24 -56 -72h-11c0 57 30 82 67 82c68 0 100 -83 169 -83c33 0 54 24 55 72h11c0 -57 -31 -82 -66 -82zM307 -10c-124 0 -252 94 -252 261s128 261 252 261s252 -94 252 -261s-128 -261 -252 -261zM307 0c113 0 237 85 237 251
s-124 251 -237 251s-237 -85 -237 -251s124 -251 237 -251z" />
    <glyph glyph-name="odieresis" unicode="&#xf6;" horiz-adv-x="614" 
d="M427 690c-10 0 -19 9 -19 19s9 19 19 19s19 -9 19 -19s-9 -19 -19 -19zM187 690c-10 0 -19 9 -19 19s9 19 19 19s19 -9 19 -19s-9 -19 -19 -19zM307 -10c-124 0 -252 94 -252 261s128 261 252 261s252 -94 252 -261s-128 -261 -252 -261zM307 0c113 0 237 85 237 251
s-124 251 -237 251s-237 -85 -237 -251s124 -251 237 -251z" />
    <glyph glyph-name="divide" unicode="&#xf7;" horiz-adv-x="653" 
d="M327 427c-10 0 -19 9 -19 19c0 11 9 20 19 20c11 0 20 -9 20 -20c0 -10 -9 -19 -20 -19zM69 254v11h516v-11h-516zM327 53c-10 0 -19 9 -19 19c0 11 9 20 19 20c11 0 20 -9 20 -20c0 -10 -9 -19 -20 -19z" />
    <glyph glyph-name="oslash" unicode="&#xf8;" horiz-adv-x="634" 
d="M317 -10c-58 0 -117 21 -164 60l-80 -95l-8 7l80 95c-48 44 -80 110 -80 194c0 167 128 261 252 261c58 0 117 -21 163 -60l81 96l8 -7l-81 -96c48 -44 81 -110 81 -194c0 -167 -128 -261 -252 -261zM80 251c0 -81 30 -143 73 -185l320 378c-45 38 -102 58 -156 58
c-113 0 -237 -85 -237 -251zM317 0c113 0 237 85 237 251c0 81 -30 143 -74 185l-319 -377c44 -39 101 -59 156 -59z" />
    <glyph glyph-name="ugrave" unicode="&#xf9;" horiz-adv-x="597" 
d="M343 579h-9l-112 178v1h15zM283 -10c-125 0 -173 71 -173 218v279l-82 9v6h94v-292c0 -145 50 -210 165 -210c104 0 184 75 184 210v277l-82 9v6h94v-492h82v-6l-94 -9v161c-20 -122 -102 -166 -188 -166z" />
    <glyph glyph-name="uacute" unicode="&#xfa;" horiz-adv-x="597" 
d="M257 579l106 179h15v-1l-112 -178h-9zM283 -10c-125 0 -173 71 -173 218v279l-82 9v6h94v-292c0 -145 50 -210 165 -210c104 0 184 75 184 210v277l-82 9v6h94v-492h82v-6l-94 -9v161c-20 -122 -102 -166 -188 -166z" />
    <glyph glyph-name="ucircumflex" unicode="&#xfb;" horiz-adv-x="597" 
d="M138 579l156 189h4l156 -189h-9l-149 173l-149 -173h-9zM283 -10c-125 0 -173 71 -173 218v279l-82 9v6h94v-292c0 -145 50 -210 165 -210c104 0 184 75 184 210v277l-82 9v6h94v-492h82v-6l-94 -9v161c-20 -122 -102 -166 -188 -166z" />
    <glyph glyph-name="udieresis" unicode="&#xfc;" horiz-adv-x="597" 
d="M416 690c-10 0 -19 9 -19 19s9 19 19 19s19 -9 19 -19s-9 -19 -19 -19zM176 690c-10 0 -19 9 -19 19s9 19 19 19s19 -9 19 -19s-9 -19 -19 -19zM283 -10c-125 0 -173 71 -173 218v279l-82 9v6h94v-292c0 -145 50 -210 165 -210c104 0 184 75 184 210v277l-82 9v6h94v-492
h82v-6l-94 -9v161c-20 -122 -102 -166 -188 -166z" />
    <glyph glyph-name="yacute" unicode="&#xfd;" horiz-adv-x="572" 
d="M249 579l106 179h15v-1l-112 -178h-9zM162 -250c-6 0 -9 4 -9 9c0 12 13 34 35 55l88 196l-195 468c-4 10 -11 15 -32 16l-50 2v6h177v-6l-50 -2c-26 -1 -36 -6 -32 -16l189 -452l201 452c4 10 -6 15 -32 16l-50 2v6h176v-6l-50 -2c-21 -1 -28 -6 -32 -16l-304 -683
c-16 -37 -22 -45 -30 -45z" />
    <glyph glyph-name="thorn" unicode="&#xfe;" horiz-adv-x="597" 
d="M292 512c151 0 249 -115 249 -261s-98 -261 -249 -261c-72 0 -144 35 -178 90v-304c0 -11 11 -15 32 -16l70 -2v-6h-196v6l50 2c21 1 32 5 32 16v967l-82 9v6h94v-336c35 56 107 90 178 90zM114 85c50 -64 121 -85 178 -85c144 0 234 113 234 251s-90 251 -234 251
c-57 0 -128 -21 -178 -85v-332z" />
    <glyph glyph-name="ydieresis" unicode="&#xff;" horiz-adv-x="572" 
d="M408 690c-10 0 -19 9 -19 19s9 19 19 19s19 -9 19 -19s-9 -19 -19 -19zM168 690c-10 0 -19 9 -19 19s9 19 19 19s19 -9 19 -19s-9 -19 -19 -19zM162 -250c-6 0 -9 4 -9 9c0 12 13 34 35 55l88 196l-195 468c-4 10 -11 15 -32 16l-50 2v6h177v-6l-50 -2
c-26 -1 -36 -6 -32 -16l189 -452l201 452c4 10 -6 15 -32 16l-50 2v6h176v-6l-50 -2c-21 -1 -28 -6 -32 -16l-304 -683c-16 -37 -22 -45 -30 -45z" />
    <glyph glyph-name="Amacron" unicode="&#x100;" horiz-adv-x="756" 
d="M240 896v9h274v-9h-274zM675 24c4 -10 11 -15 32 -16l60 -2v-6h-198v6l60 2c26 1 36 6 32 16l-118 303h-331l-117 -303c-4 -10 4 -15 32 -16l60 -2v-6h-198v6l60 2c21 1 28 6 32 16l291 749h11zM377 752l-160 -414h322z" />
    <glyph glyph-name="amacron" unicode="&#x101;" horiz-adv-x="532" 
d="M113 667v9h274v-9h-274zM217 -10c-98 0 -163 65 -163 137c0 97 102 126 211 151c147 34 150 46 150 86c0 74 -39 138 -149 138c-112 0 -185 -75 -175 -161h-8c-6 0 -9 0 -9 9c0 46 23 93 66 124c32 23 74 38 126 38c109 0 162 -54 161 -159l-2 -342h81v-8l-93 -7v151
c-25 -116 -106 -157 -196 -157zM219 0c97 0 192 56 194 200l2 118c-39 -23 -88 -36 -148 -50c-103 -24 -198 -49 -198 -141c0 -68 60 -127 150 -127z" />
    <glyph glyph-name="Abreve" unicode="&#x102;" horiz-adv-x="756" 
d="M377 833c-81 0 -143 44 -154 150h13c10 -95 64 -140 141 -140s131 45 141 140h13c-11 -106 -73 -150 -154 -150zM675 24c4 -10 11 -15 32 -16l60 -2v-6h-198v6l60 2c26 1 36 6 32 16l-118 303h-331l-117 -303c-4 -10 4 -15 32 -16l60 -2v-6h-198v6l60 2c21 1 28 6 32 16
l291 749h11zM377 752l-160 -414h322z" />
    <glyph glyph-name="abreve" unicode="&#x103;" horiz-adv-x="532" 
d="M250 594c-81 0 -143 44 -154 150h13c10 -95 64 -140 141 -140s131 45 141 140h13c-11 -106 -73 -150 -154 -150zM217 -10c-98 0 -163 65 -163 137c0 97 102 126 211 151c147 34 150 46 150 86c0 74 -39 138 -149 138c-112 0 -185 -75 -175 -161h-8c-6 0 -9 0 -9 9
c0 46 23 93 66 124c32 23 74 38 126 38c109 0 162 -54 161 -159l-2 -342h81v-8l-93 -7v151c-25 -116 -106 -157 -196 -157zM219 0c97 0 192 56 194 200l2 118c-39 -23 -88 -36 -148 -50c-103 -24 -198 -49 -198 -141c0 -68 60 -127 150 -127z" />
    <glyph glyph-name="Aogonek" unicode="&#x104;" horiz-adv-x="756" 
d="M675 24c4 -10 11 -15 32 -16l60 -2v-6h-81c-46 -38 -133 -104 -133 -157c0 -41 38 -65 82 -65c39 0 71 15 91 29l5 -7c-24 -18 -60 -32 -96 -32c-52 0 -96 27 -96 74c0 56 99 127 138 158h-108v6l60 2c26 1 36 6 32 16l-118 303h-331l-117 -303c-4 -10 4 -15 32 -16
l60 -2v-6h-198v6l60 2c21 1 28 6 32 16l291 749h11zM377 752l-160 -414h322z" />
    <glyph glyph-name="aogonek" unicode="&#x105;" horiz-adv-x="532" 
d="M217 -10c-98 0 -163 65 -163 137c0 97 102 126 211 151c147 34 150 46 150 86c0 74 -39 138 -149 138c-112 0 -185 -75 -175 -161h-8c-6 0 -9 0 -9 9c0 46 23 93 66 124c32 23 74 38 126 38c109 0 162 -54 161 -159l-2 -342h81v-8l-35 -3c-46 -38 -132 -103 -132 -156
c0 -41 38 -65 82 -65c39 0 71 15 91 29l5 -7c-24 -18 -60 -32 -96 -32c-52 0 -96 27 -96 74c0 56 99 127 136 157l-48 -4v151c-25 -116 -106 -157 -196 -157zM219 0c97 0 192 56 194 200l2 118c-39 -23 -88 -36 -148 -50c-103 -24 -198 -49 -198 -141
c0 -68 60 -127 150 -127z" />
    <glyph glyph-name="Cacute" unicode="&#x106;" horiz-adv-x="825" 
d="M443 833l166 139h16v-1l-170 -138h-12zM475 -10c-231 0 -415 138 -415 389c0 249 184 389 419 389c93 0 186 -19 246 -70l44 -137h-7l-46 110c-9 21 -12 25 -24 35c-34 30 -120 52 -210 52c-216 0 -407 -126 -407 -380c0 -249 181 -378 403 -378c90 0 180 22 214 52
c12 10 16 14 25 35l53 119h7l-52 -146c-60 -51 -157 -70 -250 -70z" />
    <glyph glyph-name="cacute" unicode="&#x107;" horiz-adv-x="570" 
d="M264 579l106 179h15v-1l-112 -178h-9zM302 -10c-142 0 -246 104 -246 263c0 166 124 259 247 259c141 0 203 -87 203 -118c0 -9 -5 -11 -11 -11h-4c-17 73 -88 119 -189 119c-115 0 -231 -90 -231 -249c0 -145 92 -252 233 -252c86 0 192 40 220 162h7
c-29 -131 -138 -173 -229 -173z" />
    <glyph glyph-name="Ccircumflex" unicode="&#x108;" horiz-adv-x="825" 
d="M338 833l146 139h4l146 -139h-9l-139 124l-139 -124h-9zM475 -10c-231 0 -415 138 -415 389c0 249 184 389 419 389c93 0 186 -19 246 -70l44 -137h-7l-46 110c-9 21 -12 25 -24 35c-34 30 -120 52 -210 52c-216 0 -407 -126 -407 -380c0 -249 181 -378 403 -378
c90 0 180 22 214 52c12 10 16 14 25 35l53 119h7l-52 -146c-60 -51 -157 -70 -250 -70z" />
    <glyph glyph-name="ccircumflex" unicode="&#x109;" horiz-adv-x="570" 
d="M145 579l156 189h4l156 -189h-9l-149 173l-149 -173h-9zM302 -10c-142 0 -246 104 -246 263c0 166 124 259 247 259c141 0 203 -87 203 -118c0 -9 -5 -11 -11 -11h-4c-17 73 -88 119 -189 119c-115 0 -231 -90 -231 -249c0 -145 92 -252 233 -252c86 0 192 40 220 162h7
c-29 -131 -138 -173 -229 -173z" />
    <glyph glyph-name="Cdotaccent" unicode="&#x10a;" horiz-adv-x="825" 
d="M486 917c-10 0 -19 9 -19 19s9 19 19 19s19 -9 19 -19s-9 -19 -19 -19zM475 -10c-231 0 -415 138 -415 389c0 249 184 389 419 389c93 0 186 -19 246 -70l44 -137h-7l-46 110c-9 21 -12 25 -24 35c-34 30 -120 52 -210 52c-216 0 -407 -126 -407 -380
c0 -249 181 -378 403 -378c90 0 180 22 214 52c12 10 16 14 25 35l53 119h7l-52 -146c-60 -51 -157 -70 -250 -70z" />
    <glyph glyph-name="cdotaccent" unicode="&#x10b;" horiz-adv-x="570" 
d="M303 690c-10 0 -19 9 -19 19s9 19 19 19s19 -9 19 -19s-9 -19 -19 -19zM302 -10c-142 0 -246 104 -246 263c0 166 124 259 247 259c141 0 203 -87 203 -118c0 -9 -5 -11 -11 -11h-4c-17 73 -88 119 -189 119c-115 0 -231 -90 -231 -249c0 -145 92 -252 233 -252
c86 0 192 40 220 162h7c-29 -131 -138 -173 -229 -173z" />
    <glyph glyph-name="Ccaron" unicode="&#x10c;" horiz-adv-x="825" 
d="M338 972h9l139 -124l139 124h9l-146 -139h-4zM475 -10c-231 0 -415 138 -415 389c0 249 184 389 419 389c93 0 186 -19 246 -70l44 -137h-7l-46 110c-9 21 -12 25 -24 35c-34 30 -120 52 -210 52c-216 0 -407 -126 -407 -380c0 -249 181 -378 403 -378
c90 0 180 22 214 52c12 10 16 14 25 35l53 119h7l-52 -146c-60 -51 -157 -70 -250 -70z" />
    <glyph glyph-name="ccaron" unicode="&#x10d;" horiz-adv-x="570" 
d="M145 768h9l149 -173l149 173h9l-156 -189h-4zM302 -10c-142 0 -246 104 -246 263c0 166 124 259 247 259c141 0 203 -87 203 -118c0 -9 -5 -11 -11 -11h-4c-17 73 -88 119 -189 119c-115 0 -231 -90 -231 -249c0 -145 92 -252 233 -252c86 0 192 40 220 162h7
c-29 -131 -138 -173 -229 -173z" />
    <glyph glyph-name="Dcaron" unicode="&#x10e;" horiz-adv-x="841" 
d="M244 972h9l139 -124l139 124h9l-146 -139h-4zM67 0v6l60 2c21 1 32 5 32 16v710c0 11 -11 15 -32 16l-60 2v6h244c240 0 468 -81 468 -376s-228 -382 -468 -382h-244zM172 11h139c256 0 453 103 453 371s-197 365 -453 365h-139v-736z" />
    <glyph glyph-name="dcaron" unicode="&#x10f;" horiz-adv-x="648" 
d="M594 538l-7 7c66 67 88 123 88 158c0 20 -8 35 -21 44c0 11 8 20 19 20c13 0 20 -9 20 -31c0 -40 -11 -110 -99 -198zM304 -10c-151 0 -249 115 -249 261s98 261 249 261c72 0 144 -35 178 -90v321l-92 9v6h104v-748h82v-6l-94 -9v85c-35 -56 -107 -90 -178 -90zM70 251
c0 -138 90 -251 234 -251c57 0 128 21 178 85v332c-50 64 -121 85 -178 85c-144 0 -234 -113 -234 -251z" />
    <glyph glyph-name="Dcroat" unicode="&#x110;" horiz-adv-x="851" 
d="M77 0v6l60 2c21 1 32 5 32 16v369h-92v11h92v330c0 11 -11 15 -32 16l-60 2v6h244c240 0 468 -81 468 -376s-228 -382 -468 -382h-244zM182 11h139c256 0 453 103 453 371s-197 365 -453 365h-139v-343h239v-11h-239v-382z" />
    <glyph glyph-name="dcroat" unicode="&#x111;" horiz-adv-x="608" 
d="M304 -10c-151 0 -249 115 -249 261s98 261 249 261c72 0 144 -35 178 -90v203h-153v11h153v107l-92 9v6h104v-122h82v-11h-82v-615h82v-6l-94 -9v85c-35 -56 -107 -90 -178 -90zM70 251c0 -138 90 -251 234 -251c57 0 128 21 178 85v332c-50 64 -121 85 -178 85
c-144 0 -234 -113 -234 -251z" />
    <glyph glyph-name="Emacron" unicode="&#x112;" horiz-adv-x="702" 
d="M228 896v9h274v-9h-274zM67 0v6l60 2c21 1 32 5 32 16v710c0 11 -11 15 -32 16l-60 2v6h499l28 -147h-7l-33 124c-2 9 -6 12 -16 12h-366v-343h227c27 0 28 2 29 16l6 97h7v-237h-7l-6 97c-1 14 -2 16 -29 16h-227v-382h420c13 0 18 2 23 13l58 129h7l-57 -153h-556z" />
    <glyph glyph-name="emacron" unicode="&#x113;" horiz-adv-x="580" 
d="M165 667v9h274v-9h-274zM302 -10c-142 0 -246 104 -246 263c0 166 120 259 239 259c120 0 211 -74 231 -210h-451c-3 -15 -4 -32 -4 -49c0 -145 92 -252 233 -252c86 0 192 40 220 162h7c-29 -131 -138 -173 -229 -173zM294 502c-97 0 -194 -67 -218 -190h432
c-14 114 -96 190 -214 190z" />
    <glyph glyph-name="Ebreve" unicode="&#x114;" horiz-adv-x="702" 
d="M365 833c-81 0 -143 44 -154 150h13c10 -95 64 -140 141 -140s131 45 141 140h13c-11 -106 -73 -150 -154 -150zM67 0v6l60 2c21 1 32 5 32 16v710c0 11 -11 15 -32 16l-60 2v6h499l28 -147h-7l-33 124c-2 9 -6 12 -16 12h-366v-343h227c27 0 28 2 29 16l6 97h7v-237h-7
l-6 97c-1 14 -2 16 -29 16h-227v-382h420c13 0 18 2 23 13l58 129h7l-57 -153h-556z" />
    <glyph glyph-name="ebreve" unicode="&#x115;" horiz-adv-x="580" 
d="M302 594c-81 0 -143 44 -154 150h13c10 -95 64 -140 141 -140s131 45 141 140h13c-11 -106 -73 -150 -154 -150zM302 -10c-142 0 -246 104 -246 263c0 166 120 259 239 259c120 0 211 -74 231 -210h-451c-3 -15 -4 -32 -4 -49c0 -145 92 -252 233 -252
c86 0 192 40 220 162h7c-29 -131 -138 -173 -229 -173zM294 502c-97 0 -194 -67 -218 -190h432c-14 114 -96 190 -214 190z" />
    <glyph glyph-name="Edotaccent" unicode="&#x116;" horiz-adv-x="702" 
d="M365 917c-10 0 -19 9 -19 19s9 19 19 19s19 -9 19 -19s-9 -19 -19 -19zM67 0v6l60 2c21 1 32 5 32 16v710c0 11 -11 15 -32 16l-60 2v6h499l28 -147h-7l-33 124c-2 9 -6 12 -16 12h-366v-343h227c27 0 28 2 29 16l6 97h7v-237h-7l-6 97c-1 14 -2 16 -29 16h-227v-382h420
c13 0 18 2 23 13l58 129h7l-57 -153h-556z" />
    <glyph glyph-name="edotaccent" unicode="&#x117;" horiz-adv-x="580" 
d="M302 690c-10 0 -19 9 -19 19s9 19 19 19s19 -9 19 -19s-9 -19 -19 -19zM302 -10c-142 0 -246 104 -246 263c0 166 120 259 239 259c120 0 211 -74 231 -210h-451c-3 -15 -4 -32 -4 -49c0 -145 92 -252 233 -252c86 0 192 40 220 162h7c-29 -131 -138 -173 -229 -173z
M294 502c-97 0 -194 -67 -218 -190h432c-14 114 -96 190 -214 190z" />
    <glyph glyph-name="Eogonek" unicode="&#x118;" horiz-adv-x="702" 
d="M67 0v6l60 2c21 1 32 5 32 16v710c0 11 -11 15 -32 16l-60 2v6h499l28 -147h-7l-33 124c-2 9 -6 12 -16 12h-366v-343h227c27 0 28 2 29 16l6 97h7v-237h-7l-6 97c-1 14 -2 16 -29 16h-227v-382h420c13 0 18 2 23 13l58 129h7l-57 -153c-46 -38 -133 -104 -133 -157
c0 -41 38 -65 82 -65c39 0 71 15 91 29l5 -7c-24 -18 -60 -32 -96 -32c-52 0 -96 27 -96 74c0 56 99 127 138 158h-547z" />
    <glyph glyph-name="eogonek" unicode="&#x119;" horiz-adv-x="580" 
d="M400 -200c-24 -18 -60 -32 -96 -32c-52 0 -96 27 -96 74c0 56 79 115 154 154c-15 -3 -39 -6 -60 -6c-142 0 -246 104 -246 263c0 166 120 259 239 259c120 0 211 -74 231 -210h-451c-3 -15 -4 -32 -4 -49c0 -145 92 -252 233 -252c86 0 192 40 220 162h7
c-24 -110 -97 -140 -151 -166c-62 -29 -158 -92 -158 -154c0 -41 38 -65 82 -65c39 0 71 15 91 29zM294 502c-97 0 -194 -67 -218 -190h432c-14 114 -96 190 -214 190z" />
    <glyph glyph-name="Ecaron" unicode="&#x11a;" horiz-adv-x="702" 
d="M217 972h9l139 -124l139 124h9l-146 -139h-4zM67 0v6l60 2c21 1 32 5 32 16v710c0 11 -11 15 -32 16l-60 2v6h499l28 -147h-7l-33 124c-2 9 -6 12 -16 12h-366v-343h227c27 0 28 2 29 16l6 97h7v-237h-7l-6 97c-1 14 -2 16 -29 16h-227v-382h420c13 0 18 2 23 13l58 129
h7l-57 -153h-556z" />
    <glyph glyph-name="ecaron" unicode="&#x11b;" horiz-adv-x="580" 
d="M144 768h9l149 -173l149 173h9l-156 -189h-4zM302 -10c-142 0 -246 104 -246 263c0 166 120 259 239 259c120 0 211 -74 231 -210h-451c-3 -15 -4 -32 -4 -49c0 -145 92 -252 233 -252c86 0 192 40 220 162h7c-29 -131 -138 -173 -229 -173zM294 502
c-97 0 -194 -67 -218 -190h432c-14 114 -96 190 -214 190z" />
    <glyph glyph-name="Gcircumflex" unicode="&#x11c;" horiz-adv-x="889" 
d="M330 833l146 139h4l146 -139h-9l-139 124l-139 -124h-9zM475 -10c-231 0 -415 138 -415 389c0 249 184 389 419 389c93 0 186 -19 246 -70l44 -137h-7l-46 110c-9 21 -12 25 -24 35c-34 30 -120 52 -210 52c-216 0 -407 -125 -407 -379c0 -249 181 -379 403 -379
c93 0 200 19 278 74v248c0 11 -11 16 -32 16l-210 1v9h347v-8l-92 -2v-201l1 -68c-84 -61 -198 -79 -295 -79z" />
    <glyph glyph-name="gcircumflex" unicode="&#x11d;" horiz-adv-x="527" 
d="M101 579l156 189h4l156 -189h-9l-149 173l-149 -173h-9zM249 156c-22 0 -44 4 -64 11l-112 -117l224 -22c122 -12 216 -26 216 -117c0 -101 -134 -169 -272 -169c-120 0 -212 49 -212 131c0 87 114 149 207 149c-70 6 -149 16 -178 26l117 123c-62 26 -107 85 -107 163
c0 107 85 178 181 178s181 -71 181 -178s-85 -178 -181 -178zM336 492l10 10h171l-10 -10h-171zM249 166c93 0 166 67 166 168s-73 168 -166 168s-166 -67 -166 -168s73 -168 166 -168zM242 -248c142 0 256 71 256 157c0 81 -86 96 -203 107c-142 13 -251 -59 -251 -142
c0 -78 83 -122 198 -122z" />
    <glyph glyph-name="Gbreve" unicode="&#x11e;" horiz-adv-x="889" 
d="M478 833c-81 0 -143 44 -154 150h13c10 -95 64 -140 141 -140s131 45 141 140h13c-11 -106 -73 -150 -154 -150zM475 -10c-231 0 -415 138 -415 389c0 249 184 389 419 389c93 0 186 -19 246 -70l44 -137h-7l-46 110c-9 21 -12 25 -24 35c-34 30 -120 52 -210 52
c-216 0 -407 -125 -407 -379c0 -249 181 -379 403 -379c93 0 200 19 278 74v248c0 11 -11 16 -32 16l-210 1v9h347v-8l-92 -2v-201l1 -68c-84 -61 -198 -79 -295 -79z" />
    <glyph glyph-name="gbreve" unicode="&#x11f;" horiz-adv-x="527" 
d="M259 594c-81 0 -143 44 -154 150h13c10 -95 64 -140 141 -140s131 45 141 140h13c-11 -106 -73 -150 -154 -150zM249 156c-22 0 -44 4 -64 11l-112 -117l224 -22c122 -12 216 -26 216 -117c0 -101 -134 -169 -272 -169c-120 0 -212 49 -212 131c0 87 114 149 207 149
c-70 6 -149 16 -178 26l117 123c-62 26 -107 85 -107 163c0 107 85 178 181 178s181 -71 181 -178s-85 -178 -181 -178zM336 492l10 10h171l-10 -10h-171zM249 166c93 0 166 67 166 168s-73 168 -166 168s-166 -67 -166 -168s73 -168 166 -168zM242 -248
c142 0 256 71 256 157c0 81 -86 96 -203 107c-142 13 -251 -59 -251 -142c0 -78 83 -122 198 -122z" />
    <glyph glyph-name="Gdotaccent" unicode="&#x120;" horiz-adv-x="889" 
d="M478 917c-10 0 -19 9 -19 19s9 19 19 19s19 -9 19 -19s-9 -19 -19 -19zM475 -10c-231 0 -415 138 -415 389c0 249 184 389 419 389c93 0 186 -19 246 -70l44 -137h-7l-46 110c-9 21 -12 25 -24 35c-34 30 -120 52 -210 52c-216 0 -407 -125 -407 -379
c0 -249 181 -379 403 -379c93 0 200 19 278 74v248c0 11 -11 16 -32 16l-210 1v9h347v-8l-92 -2v-201l1 -68c-84 -61 -198 -79 -295 -79z" />
    <glyph glyph-name="gdotaccent" unicode="&#x121;" horiz-adv-x="527" 
d="M259 690c-10 0 -19 9 -19 19s9 19 19 19s19 -9 19 -19s-9 -19 -19 -19zM249 156c-22 0 -44 4 -64 11l-112 -117l224 -22c122 -12 216 -26 216 -117c0 -101 -134 -169 -272 -169c-120 0 -212 49 -212 131c0 87 114 149 207 149c-70 6 -149 16 -178 26l117 123
c-62 26 -107 85 -107 163c0 107 85 178 181 178s181 -71 181 -178s-85 -178 -181 -178zM336 492l10 10h171l-10 -10h-171zM249 166c93 0 166 67 166 168s-73 168 -166 168s-166 -67 -166 -168s73 -168 166 -168zM242 -248c142 0 256 71 256 157c0 81 -86 96 -203 107
c-142 13 -251 -59 -251 -142c0 -78 83 -122 198 -122z" />
    <glyph glyph-name="Gcommaaccent" unicode="&#x122;" horiz-adv-x="889" 
d="M475 -10c-231 0 -415 138 -415 389c0 249 184 389 419 389c93 0 186 -19 246 -70l44 -137h-7l-46 110c-9 21 -12 25 -24 35c-34 30 -120 52 -210 52c-216 0 -407 -125 -407 -379c0 -249 181 -379 403 -379c93 0 200 19 278 74v248c0 11 -11 16 -32 16l-210 1v9h347v-8
l-92 -2v-201l1 -68c-84 -61 -198 -79 -295 -79zM374 -290l-7 7c66 67 88 123 88 158c0 20 -8 35 -21 44c0 11 8 20 19 20c13 0 20 -9 20 -31c0 -40 -11 -110 -99 -198z" />
    <glyph glyph-name="gcommaaccent" unicode="&#x123;" horiz-adv-x="527" 
d="M313 797l7 -7c-66 -67 -88 -123 -88 -158c0 -20 8 -35 21 -44c0 -11 -8 -20 -19 -20c-13 0 -20 9 -20 31c0 40 11 110 99 198zM249 156c-22 0 -44 4 -64 11l-112 -117l224 -22c122 -12 216 -26 216 -117c0 -101 -134 -169 -272 -169c-120 0 -212 49 -212 131
c0 87 114 149 207 149c-70 6 -149 16 -178 26l117 123c-62 26 -107 85 -107 163c0 107 85 178 181 178s181 -71 181 -178s-85 -178 -181 -178zM336 492l10 10h171l-10 -10h-171zM249 166c93 0 166 67 166 168s-73 168 -166 168s-166 -67 -166 -168s73 -168 166 -168z
M242 -248c142 0 256 71 256 157c0 81 -86 96 -203 107c-142 13 -251 -59 -251 -142c0 -78 83 -122 198 -122z" />
    <glyph glyph-name="Hcircumflex" unicode="&#x124;" horiz-adv-x="881" 
d="M292 833l146 139h4l146 -139h-9l-139 124l-139 -124h-9zM67 0v6l60 2c21 1 32 5 32 16v710c0 11 -11 15 -32 16l-60 2v6h197v-6l-60 -2c-21 -1 -32 -5 -32 -16v-330h537v330c0 11 -11 15 -32 16l-60 2v6h197v-6l-60 -2c-21 -1 -32 -5 -32 -16v-710c0 -11 11 -15 32 -16
l60 -2v-6h-197v6l60 2c21 1 32 5 32 16v369h-537v-369c0 -11 11 -15 32 -16l60 -2v-6h-197z" />
    <glyph glyph-name="hcircumflex" unicode="&#x125;" horiz-adv-x="599" 
d="M-45 875l146 139h4l146 -139h-9l-139 124l-139 -124h-9zM33 0v6l50 2c21 1 32 5 32 16v719l-82 9v6h94v-412c20 122 102 166 188 166c125 0 173 -71 173 -218v-270c0 -11 11 -15 32 -16l50 -2v-6h-176v6l50 2c21 1 32 5 32 16v268c0 145 -50 210 -165 210
c-104 0 -184 -75 -184 -210v-268c0 -11 11 -15 32 -16l50 -2v-6h-176z" />
    <glyph glyph-name="Hbar" unicode="&#x126;" horiz-adv-x="881" 
d="M67 0v6l60 2c21 1 32 5 32 16v547h-92v11h92v152c0 11 -11 15 -32 16l-60 2v6h197v-6l-60 -2c-21 -1 -32 -5 -32 -16v-152h537v152c0 11 -11 15 -32 16l-60 2v6h197v-6l-60 -2c-21 -1 -32 -5 -32 -16v-152h92v-11h-92v-547c0 -11 11 -15 32 -16l60 -2v-6h-197v6l60 2
c21 1 32 5 32 16v369h-537v-369c0 -11 11 -15 32 -16l60 -2v-6h-197zM172 404h537v167h-537v-167z" />
    <glyph glyph-name="hbar" unicode="&#x127;" horiz-adv-x="599" 
d="M33 0v6l50 2c21 1 32 5 32 16v601h-82v11h82v107l-82 9v6h94v-122h153v-11h-153v-279c20 122 102 166 188 166c125 0 173 -71 173 -218v-270c0 -11 11 -15 32 -16l50 -2v-6h-176v6l50 2c21 1 32 5 32 16v268c0 145 -50 210 -165 210c-104 0 -184 -75 -184 -210v-268
c0 -11 11 -15 32 -16l50 -2v-6h-176z" />
    <glyph glyph-name="Itilde" unicode="&#x128;" horiz-adv-x="331" 
d="M251 861c-74 0 -108 83 -169 83c-35 0 -55 -24 -56 -72h-11c0 57 30 82 67 82c68 0 100 -83 169 -83c33 0 54 24 55 72h11c0 -57 -31 -82 -66 -82zM67 0v6l60 2c21 1 32 5 32 16v710c0 11 -11 15 -32 16l-60 2v6h197v-6l-60 -2c-21 -1 -32 -5 -32 -16v-710
c0 -11 11 -15 32 -16l60 -2v-6h-197z" />
    <glyph glyph-name="itilde" unicode="&#x129;" horiz-adv-x="255" 
d="M201 631c-74 0 -108 83 -169 83c-35 0 -55 -24 -56 -72h-11c0 57 30 82 67 82c68 0 100 -83 169 -83c33 0 54 24 55 72h11c0 -57 -31 -82 -66 -82zM42 0v6l50 2c21 1 32 5 32 16v463l-82 9v6h94v-478c0 -11 11 -15 32 -16l50 -2v-6h-176z" />
    <glyph glyph-name="Imacron" unicode="&#x12a;" horiz-adv-x="331" 
d="M29 896v9h274v-9h-274zM67 0v6l60 2c21 1 32 5 32 16v710c0 11 -11 15 -32 16l-60 2v6h197v-6l-60 -2c-21 -1 -32 -5 -32 -16v-710c0 -11 11 -15 32 -16l60 -2v-6h-197z" />
    <glyph glyph-name="imacron" unicode="&#x12b;" horiz-adv-x="255" 
d="M-21 667v9h274v-9h-274zM42 0v6l50 2c21 1 32 5 32 16v463l-82 9v6h94v-478c0 -11 11 -15 32 -16l50 -2v-6h-176z" />
    <glyph glyph-name="Ibreve" unicode="&#x12c;" horiz-adv-x="331" 
d="M166 833c-81 0 -143 44 -154 150h13c10 -95 64 -140 141 -140s131 45 141 140h13c-11 -106 -73 -150 -154 -150zM67 0v6l60 2c21 1 32 5 32 16v710c0 11 -11 15 -32 16l-60 2v6h197v-6l-60 -2c-21 -1 -32 -5 -32 -16v-710c0 -11 11 -15 32 -16l60 -2v-6h-197z" />
    <glyph glyph-name="ibreve" unicode="&#x12d;" horiz-adv-x="255" 
d="M116 594c-81 0 -143 44 -154 150h13c10 -95 64 -140 141 -140s131 45 141 140h13c-11 -106 -73 -150 -154 -150zM42 0v6l50 2c21 1 32 5 32 16v463l-82 9v6h94v-478c0 -11 11 -15 32 -16l50 -2v-6h-176z" />
    <glyph glyph-name="Iogonek" unicode="&#x12e;" horiz-adv-x="331" 
d="M67 0v6l60 2c21 1 32 5 32 16v710c0 11 -11 15 -32 16l-60 2v6h197v-6l-60 -2c-21 -1 -32 -5 -32 -16v-710c0 -11 11 -15 32 -16l60 -2v-6h-50c-46 -38 -133 -104 -133 -157c0 -41 38 -65 82 -65c39 0 71 15 91 29l5 -7c-24 -18 -60 -32 -96 -32c-52 0 -96 27 -96 74
c0 56 99 127 138 158h-138z" />
    <glyph glyph-name="iogonek" unicode="&#x12f;" horiz-adv-x="255" 
d="M111 739c0 10 9 19 19 19s19 -9 19 -19s-9 -19 -19 -19s-19 9 -19 19zM42 0v6l50 2c21 1 32 5 32 16v463l-82 9v6h94v-478c0 -11 11 -15 32 -16l50 -2v-6h-43c-46 -38 -133 -104 -133 -157c0 -41 38 -65 82 -65c39 0 71 15 91 29l5 -7c-24 -18 -60 -32 -96 -32
c-52 0 -96 27 -96 74c0 56 99 127 138 158h-124z" />
    <glyph glyph-name="Idotaccent" unicode="&#x130;" horiz-adv-x="331" 
d="M166 917c-10 0 -19 9 -19 19s9 19 19 19s19 -9 19 -19s-9 -19 -19 -19zM67 0v6l60 2c21 1 32 5 32 16v710c0 11 -11 15 -32 16l-60 2v6h197v-6l-60 -2c-21 -1 -32 -5 -32 -16v-710c0 -11 11 -15 32 -16l60 -2v-6h-197z" />
    <glyph glyph-name="dotlessi" unicode="&#x131;" horiz-adv-x="255" 
d="M42 0v6l50 2c21 1 32 5 32 16v463l-82 9v6h94v-478c0 -11 11 -15 32 -16l50 -2v-6h-176z" />
    <glyph glyph-name="Jcircumflex" unicode="&#x134;" horiz-adv-x="310" 
d="M12 833l146 139h4l146 -139h-9l-139 124l-139 -124h-9zM9 -134l-6 8c124 101 150 123 150 231v629c0 11 -11 15 -32 16l-60 2v6h197v-6l-60 -2c-21 -1 -32 -5 -32 -16v-619c0 -108 -14 -128 -109 -211c-14 -12 -31 -25 -48 -38z" />
    <glyph glyph-name="jcircumflex" unicode="&#x135;" horiz-adv-x="231" 
d="M-51 579l156 189h4l156 -189h-9l-149 173l-149 -173h-9zM1 -258l-3 4c100 81 117 98 117 268v473l-82 9v6h94v-488c0 -142 -11 -178 -74 -231c-15 -13 -32 -26 -52 -41z" />
    <glyph glyph-name="Kcommaaccent" unicode="&#x136;" horiz-adv-x="741" 
d="M708 0l-536 390l417 347c11 9 2 11 -36 13l-49 2v6h212v-6l-53 -2c-33 -1 -45 -3 -63 -18l-408 -340l537 -392h-21zM67 0v6l60 2c21 1 32 5 32 16v710c0 11 -11 15 -32 16l-60 2v6h197v-6l-60 -2c-21 -1 -32 -5 -32 -16v-710c0 -11 11 -15 32 -16l60 -2v-6h-197z
M322 -290l-7 7c66 67 88 123 88 158c0 20 -8 35 -21 44c0 11 8 20 19 20c13 0 20 -9 20 -31c0 -40 -11 -110 -99 -198z" />
    <glyph glyph-name="kcommaaccent" unicode="&#x137;" horiz-adv-x="523" 
d="M33 0v6l50 2c21 1 32 5 32 16v719l-82 9v6h94v-477l265 198c11 8 12 15 -22 16l-32 1v6h159v-6l-44 -2c-19 -1 -29 -3 -43 -14l-269 -201l370 -279h-20l-364 276v-252c0 -11 11 -15 32 -16l50 -2v-6h-176zM216 -290l-7 7c66 67 88 123 88 158c0 20 -8 35 -21 44
c0 11 8 20 19 20c13 0 20 -9 20 -31c0 -40 -11 -110 -99 -198z" />
    <glyph glyph-name="Lacute" unicode="&#x139;" horiz-adv-x="664" 
d="M122 833l166 139h16v-1l-170 -138h-12zM67 0v6l60 2c21 1 32 5 32 16v710c0 11 -11 15 -32 16l-60 2v6h197v-6l-60 -2c-21 -1 -32 -5 -32 -16v-723h383c13 0 18 2 23 13l58 129h7l-57 -153h-519z" />
    <glyph glyph-name="lacute" unicode="&#x13a;" horiz-adv-x="250" 
d="M82 835l106 179h15v-1l-112 -178h-9zM37 0v6l50 2c21 1 32 5 32 16v719l-82 9v6h94v-734c0 -11 11 -15 32 -16l50 -2v-6h-176z" />
    <glyph glyph-name="Lcommaaccent" unicode="&#x13b;" horiz-adv-x="664" 
d="M67 0v6l60 2c21 1 32 5 32 16v710c0 11 -11 15 -32 16l-60 2v6h197v-6l-60 -2c-21 -1 -32 -5 -32 -16v-723h383c13 0 18 2 23 13l58 129h7l-57 -153h-519zM271 -290l-7 7c66 67 88 123 88 158c0 20 -8 35 -21 44c0 11 8 20 19 20c13 0 20 -9 20 -31
c0 -40 -11 -110 -99 -198z" />
    <glyph glyph-name="lcommaaccent" unicode="&#x13c;" horiz-adv-x="250" 
d="M37 0v6l50 2c21 1 32 5 32 16v719l-82 9v6h94v-734c0 -11 11 -15 32 -16l50 -2v-6h-176zM43 -290l-7 7c66 67 88 123 88 158c0 20 -8 35 -21 44c0 11 8 20 19 20c13 0 20 -9 20 -31c0 -40 -11 -110 -99 -198z" />
    <glyph glyph-name="Lcaron" unicode="&#x13d;" horiz-adv-x="664" 
d="M337 538l-7 7c66 67 88 123 88 158c0 20 -8 35 -21 44c0 11 8 20 19 20c13 0 20 -9 20 -31c0 -40 -11 -110 -99 -198zM67 0v6l60 2c21 1 32 5 32 16v710c0 11 -11 15 -32 16l-60 2v6h197v-6l-60 -2c-21 -1 -32 -5 -32 -16v-723h383c13 0 18 2 23 13l58 129h7l-57 -153
h-519z" />
    <glyph glyph-name="lcaron" unicode="&#x13e;" horiz-adv-x="290" 
d="M251 538l-7 7c66 67 88 123 88 158c0 20 -8 35 -21 44c0 11 8 20 19 20c13 0 20 -9 20 -31c0 -40 -11 -110 -99 -198zM37 0v6l50 2c21 1 32 5 32 16v719l-82 9v6h94v-734c0 -11 11 -15 32 -16l50 -2v-6h-176z" />
    <glyph glyph-name="Ldot" unicode="&#x13f;" horiz-adv-x="664" 
d="M67 0v6l60 2c21 1 32 5 32 16v710c0 11 -11 15 -32 16l-60 2v6h197v-6l-60 -2c-21 -1 -32 -5 -32 -16v-723h383c13 0 18 2 23 13l58 129h7l-57 -153h-519zM498 363c-10 0 -19 9 -19 19s9 19 19 19s19 -9 19 -19s-9 -19 -19 -19z" />
    <glyph glyph-name="ldot" unicode="&#x140;" horiz-adv-x="294" 
d="M37 0v6l50 2c21 1 32 5 32 16v719l-82 9v6h94v-734c0 -11 11 -15 32 -16l50 -2v-6h-176zM273 376c-10 0 -19 9 -19 19s9 19 19 19s19 -9 19 -19s-9 -19 -19 -19z" />
    <glyph glyph-name="Lslash" unicode="&#x141;" horiz-adv-x="664" 
d="M67 0v6l60 2c21 1 32 5 32 16v331l-139 -109v15l139 109v364c0 11 -11 15 -32 16l-60 2v6h197v-6l-60 -2c-21 -1 -32 -5 -32 -16v-354l141 111v-15l-141 -111v-354h383c13 0 18 2 23 13l58 129h7l-57 -153h-519z" />
    <glyph glyph-name="lslash" unicode="&#x142;" horiz-adv-x="290" 
d="M57 0v6l50 2c21 1 32 5 32 16v356l-99 -73v13l99 73v350l-82 9v6h94v-356l99 73v-13l-99 -73v-365c0 -11 11 -15 32 -16l50 -2v-6h-176z" />
    <glyph glyph-name="Nacute" unicode="&#x143;" horiz-adv-x="868" 
d="M407 833l166 139h16v-1l-170 -138h-12zM67 0v6l60 2c21 1 32 5 32 16v640l-76 93v1h14l615 -745v721c0 11 -11 15 -32 16l-60 2v6h197v-6l-60 -2c-21 -1 -32 -5 -32 -16v-756h-2l-551 671v-625c0 -11 11 -15 32 -16l60 -2v-6h-197z" />
    <glyph glyph-name="nacute" unicode="&#x144;" horiz-adv-x="604" 
d="M269 579l106 179h15v-1l-112 -178h-9zM38 0v6l50 2c21 1 32 5 32 16v463l-82 9v6h94v-156c20 122 102 166 188 166c125 0 173 -71 173 -218v-270c0 -11 11 -15 32 -16l50 -2v-6h-176v6l50 2c21 1 32 5 32 16v268c0 145 -50 210 -165 210c-104 0 -184 -75 -184 -210v-268
c0 -11 11 -15 32 -16l50 -2v-6h-176z" />
    <glyph glyph-name="Ncommaaccent" unicode="&#x145;" horiz-adv-x="868" 
d="M67 0v6l60 2c21 1 32 5 32 16v640l-76 93v1h14l615 -745v721c0 11 -11 15 -32 16l-60 2v6h197v-6l-60 -2c-21 -1 -32 -5 -32 -16v-756h-2l-551 671v-625c0 -11 11 -15 32 -16l60 -2v-6h-197zM357 -290l-7 7c66 67 88 123 88 158c0 20 -8 35 -21 44c0 11 8 20 19 20
c13 0 20 -9 20 -31c0 -40 -11 -110 -99 -198z" />
    <glyph glyph-name="ncommaaccent" unicode="&#x146;" horiz-adv-x="604" 
d="M38 0v6l50 2c21 1 32 5 32 16v463l-82 9v6h94v-156c20 122 102 166 188 166c125 0 173 -71 173 -218v-270c0 -11 11 -15 32 -16l50 -2v-6h-176v6l50 2c21 1 32 5 32 16v268c0 145 -50 210 -165 210c-104 0 -184 -75 -184 -210v-268c0 -11 11 -15 32 -16l50 -2v-6h-176z
M211 -290l-7 7c66 67 88 123 88 158c0 20 -8 35 -21 44c0 11 8 20 19 20c13 0 20 -9 20 -31c0 -40 -11 -110 -99 -198z" />
    <glyph glyph-name="Ncaron" unicode="&#x147;" horiz-adv-x="868" 
d="M302 972h9l139 -124l139 124h9l-146 -139h-4zM67 0v6l60 2c21 1 32 5 32 16v640l-76 93v1h14l615 -745v721c0 11 -11 15 -32 16l-60 2v6h197v-6l-60 -2c-21 -1 -32 -5 -32 -16v-756h-2l-551 671v-625c0 -11 11 -15 32 -16l60 -2v-6h-197z" />
    <glyph glyph-name="ncaron" unicode="&#x148;" horiz-adv-x="604" 
d="M150 768h9l149 -173l149 173h9l-156 -189h-4zM38 0v6l50 2c21 1 32 5 32 16v463l-82 9v6h94v-156c20 122 102 166 188 166c125 0 173 -71 173 -218v-270c0 -11 11 -15 32 -16l50 -2v-6h-176v6l50 2c21 1 32 5 32 16v268c0 145 -50 210 -165 210
c-104 0 -184 -75 -184 -210v-268c0 -11 11 -15 32 -16l50 -2v-6h-176z" />
    <glyph glyph-name="Eng" unicode="&#x14a;" horiz-adv-x="868" 
d="M67 0v6l60 2c21 1 32 5 32 16v640l-76 93v1h14l615 -745v721c0 11 -11 15 -32 16l-60 2v6h197v-6l-60 -2c-21 -1 -32 -5 -32 -16v-720c0 -142 -11 -178 -74 -231c-15 -13 -32 -26 -52 -41l-3 4c95 77 117 96 117 242v2l-541 659v-625c0 -11 11 -15 32 -16l60 -2v-6h-197z
" />
    <glyph glyph-name="eng" unicode="&#x14b;" horiz-adv-x="587" 
d="M320 512c125 0 173 -71 173 -218v-280c0 -142 -11 -178 -74 -231c-15 -13 -32 -26 -52 -41l-3 4c100 81 117 98 117 268v278c0 145 -50 210 -165 210c-104 0 -184 -75 -184 -210v-268c0 -11 11 -15 32 -16l50 -2v-6h-176v6l50 2c21 1 32 5 32 16v463l-82 9v6h94v-156
c20 122 102 166 188 166z" />
    <glyph glyph-name="Omacron" unicode="&#x14c;" horiz-adv-x="884" 
d="M305 896v9h274v-9h-274zM442 -10c-229 0 -382 173 -382 389s153 389 382 389s382 -173 382 -389s-153 -389 -382 -389zM442 0c191 0 367 142 367 379s-176 379 -367 379s-367 -142 -367 -379s176 -379 367 -379z" />
    <glyph glyph-name="omacron" unicode="&#x14d;" horiz-adv-x="614" 
d="M170 667v9h274v-9h-274zM307 -10c-124 0 -252 94 -252 261s128 261 252 261s252 -94 252 -261s-128 -261 -252 -261zM307 0c113 0 237 85 237 251s-124 251 -237 251s-237 -85 -237 -251s124 -251 237 -251z" />
    <glyph glyph-name="Obreve" unicode="&#x14e;" horiz-adv-x="884" 
d="M442 833c-81 0 -143 44 -154 150h13c10 -95 64 -140 141 -140s131 45 141 140h13c-11 -106 -73 -150 -154 -150zM442 -10c-229 0 -382 173 -382 389s153 389 382 389s382 -173 382 -389s-153 -389 -382 -389zM442 0c191 0 367 142 367 379s-176 379 -367 379
s-367 -142 -367 -379s176 -379 367 -379z" />
    <glyph glyph-name="obreve" unicode="&#x14f;" horiz-adv-x="614" 
d="M307 594c-81 0 -143 44 -154 150h13c10 -95 64 -140 141 -140s131 45 141 140h13c-11 -106 -73 -150 -154 -150zM307 -10c-124 0 -252 94 -252 261s128 261 252 261s252 -94 252 -261s-128 -261 -252 -261zM307 0c113 0 237 85 237 251s-124 251 -237 251
s-237 -85 -237 -251s124 -251 237 -251z" />
    <glyph glyph-name="Ohungarumlaut" unicode="&#x150;" horiz-adv-x="884" 
d="M317 833l166 139h16v-1l-170 -138h-12zM517 833l166 139h16v-1l-170 -138h-12zM442 -10c-229 0 -382 173 -382 389s153 389 382 389s382 -173 382 -389s-153 -389 -382 -389zM442 0c191 0 367 142 367 379s-176 379 -367 379s-367 -142 -367 -379s176 -379 367 -379z" />
    <glyph glyph-name="ohungarumlaut" unicode="&#x151;" horiz-adv-x="614" 
d="M225 579l106 179h15v-1l-112 -178h-9zM405 579l106 179h15v-1l-112 -178h-9zM307 -10c-124 0 -252 94 -252 261s128 261 252 261s252 -94 252 -261s-128 -261 -252 -261zM307 0c113 0 237 85 237 251s-124 251 -237 251s-237 -85 -237 -251s124 -251 237 -251z" />
    <glyph glyph-name="OE" unicode="&#x152;" horiz-adv-x="1354" 
d="M1093 517v-237h-7l-6 97c-1 14 -2 16 -29 16h-227v-382h420c13 0 18 2 23 13l58 129h7l-57 -153h-464v273c-41 -164 -179 -283 -369 -283c-229 0 -382 173 -382 389s153 389 382 389c190 0 328 -119 369 -283v273h407l28 -147h-7l-33 124c-2 9 -6 12 -16 12h-366v-343
h227c27 0 28 2 29 16l6 97h7zM809 379c0 237 -176 379 -367 379s-367 -142 -367 -379s176 -379 367 -379s367 142 367 379z" />
    <glyph glyph-name="oe" unicode="&#x153;" horiz-adv-x="1068" 
d="M307 512c106 0 214 -68 244 -192c27 124 130 192 232 192c120 0 211 -74 231 -210h-451c-3 -15 -4 -32 -4 -49c0 -145 92 -252 233 -252c86 0 192 40 220 162h7c-29 -131 -138 -173 -229 -173c-120 0 -213 74 -239 193c-29 -124 -138 -193 -244 -193
c-124 0 -252 94 -252 261s128 261 252 261zM782 502c-97 0 -194 -67 -218 -190h432c-14 114 -96 190 -214 190zM307 0c113 0 237 85 237 251s-124 251 -237 251s-237 -85 -237 -251s124 -251 237 -251z" />
    <glyph glyph-name="Racute" unicode="&#x154;" horiz-adv-x="715" 
d="M329 833l166 139h16v-1l-170 -138h-12zM67 0v6l60 2c21 1 32 5 32 16v710c0 11 -11 15 -32 16l-60 2v6h242c152 0 295 -23 295 -190c0 -161 -135 -188 -267 -190l386 -378h-20l-385 378h-146v-354c0 -11 11 -15 32 -16l60 -2v-6h-197zM172 389h129c154 0 288 21 288 179
s-134 179 -288 179h-129v-358z" />
    <glyph glyph-name="racute" unicode="&#x155;" horiz-adv-x="364" 
d="M160 579l106 179h15v-1l-112 -178h-9zM38 0v6l50 2c21 1 32 5 32 16v463l-82 9v6h94v-154c21 124 102 159 199 159h6v-13h-18c-135 0 -187 -91 -187 -202v-268c0 -11 11 -15 39 -16l73 -2v-6h-206z" />
    <glyph glyph-name="Rcommaaccent" unicode="&#x156;" horiz-adv-x="715" 
d="M67 0v6l60 2c21 1 32 5 32 16v710c0 11 -11 15 -32 16l-60 2v6h242c152 0 295 -23 295 -190c0 -161 -135 -188 -267 -190l386 -378h-20l-385 378h-146v-354c0 -11 11 -15 32 -16l60 -2v-6h-197zM172 389h129c154 0 288 21 288 179s-134 179 -288 179h-129v-358zM331 -290
l-7 7c66 67 88 123 88 158c0 20 -8 35 -21 44c0 11 8 20 19 20c13 0 20 -9 20 -31c0 -40 -11 -110 -99 -198z" />
    <glyph glyph-name="rcommaaccent" unicode="&#x157;" horiz-adv-x="364" 
d="M38 0v6l50 2c21 1 32 5 32 16v463l-82 9v6h94v-154c21 124 102 159 199 159h6v-13h-18c-135 0 -187 -91 -187 -202v-268c0 -11 11 -15 39 -16l73 -2v-6h-206zM44 -290l-7 7c66 67 88 123 88 158c0 20 -8 35 -21 44c0 11 8 20 19 20c13 0 20 -9 20 -31
c0 -40 -11 -110 -99 -198z" />
    <glyph glyph-name="Rcaron" unicode="&#x158;" horiz-adv-x="715" 
d="M224 972h9l139 -124l139 124h9l-146 -139h-4zM67 0v6l60 2c21 1 32 5 32 16v710c0 11 -11 15 -32 16l-60 2v6h242c152 0 295 -23 295 -190c0 -161 -135 -188 -267 -190l386 -378h-20l-385 378h-146v-354c0 -11 11 -15 32 -16l60 -2v-6h-197zM172 389h129
c154 0 288 21 288 179s-134 179 -288 179h-129v-358z" />
    <glyph glyph-name="rcaron" unicode="&#x159;" horiz-adv-x="364" 
d="M41 768h9l149 -173l149 173h9l-156 -189h-4zM38 0v6l50 2c21 1 32 5 32 16v463l-82 9v6h94v-154c21 124 102 159 199 159h6v-13h-18c-135 0 -187 -91 -187 -202v-268c0 -11 11 -15 39 -16l73 -2v-6h-206z" />
    <glyph glyph-name="Sacute" unicode="&#x15a;" horiz-adv-x="625" 
d="M273 833l166 139h16v-1l-170 -138h-12zM317 -10c-77 0 -154 15 -213 55l-44 153h7l46 -124c8 -21 11 -25 24 -33c51 -32 133 -41 180 -41c137 0 228 79 228 182c0 124 -100 171 -224 209l-52 16c-115 35 -183 90 -183 193c0 95 103 168 225 168c75 0 138 -11 190 -46
l43 -137h-7l-45 110c-9 21 -12 25 -24 32c-37 24 -108 31 -156 31c-114 0 -213 -67 -213 -158c0 -95 64 -146 175 -180l52 -16c133 -41 233 -94 233 -219c0 -105 -87 -195 -242 -195z" />
    <glyph glyph-name="sacute" unicode="&#x15b;" horiz-adv-x="472" 
d="M211 579l106 179h15v-1l-112 -178h-9zM235 -10c-65 0 -124 15 -162 46l-12 137h7l18 -119c3 -19 27 -33 60 -43c26 -7 58 -11 88 -11c90 0 166 46 166 126c0 81 -61 110 -145 125l-45 8c-88 16 -137 58 -137 131c0 64 60 122 163 122c51 0 99 -13 135 -44l20 -127h-7
l-25 109c-5 20 -26 33 -51 41s-53 11 -72 11c-94 0 -150 -51 -150 -113c0 -64 46 -103 126 -118l49 -9c97 -18 153 -55 153 -135c0 -84 -78 -137 -179 -137z" />
    <glyph glyph-name="Scircumflex" unicode="&#x15c;" horiz-adv-x="625" 
d="M168 833l146 139h4l146 -139h-9l-139 124l-139 -124h-9zM317 -10c-77 0 -154 15 -213 55l-44 153h7l46 -124c8 -21 11 -25 24 -33c51 -32 133 -41 180 -41c137 0 228 79 228 182c0 124 -100 171 -224 209l-52 16c-115 35 -183 90 -183 193c0 95 103 168 225 168
c75 0 138 -11 190 -46l43 -137h-7l-45 110c-9 21 -12 25 -24 32c-37 24 -108 31 -156 31c-114 0 -213 -67 -213 -158c0 -95 64 -146 175 -180l52 -16c133 -41 233 -94 233 -219c0 -105 -87 -195 -242 -195z" />
    <glyph glyph-name="scircumflex" unicode="&#x15d;" horiz-adv-x="472" 
d="M92 579l156 189h4l156 -189h-9l-149 173l-149 -173h-9zM235 -10c-65 0 -124 15 -162 46l-12 137h7l18 -119c3 -19 27 -33 60 -43c26 -7 58 -11 88 -11c90 0 166 46 166 126c0 81 -61 110 -145 125l-45 8c-88 16 -137 58 -137 131c0 64 60 122 163 122
c51 0 99 -13 135 -44l20 -127h-7l-25 109c-5 20 -26 33 -51 41s-53 11 -72 11c-94 0 -150 -51 -150 -113c0 -64 46 -103 126 -118l49 -9c97 -18 153 -55 153 -135c0 -84 -78 -137 -179 -137z" />
    <glyph glyph-name="Scedilla" unicode="&#x15e;" horiz-adv-x="625" 
d="M317 -10c-77 0 -154 15 -213 55l-44 153h7l46 -124c8 -21 11 -25 24 -33c51 -32 133 -41 180 -41c137 0 228 79 228 182c0 124 -100 171 -224 209l-52 16c-115 35 -183 90 -183 193c0 95 103 168 225 168c75 0 138 -11 190 -46l43 -137h-7l-45 110c-9 21 -12 25 -24 32
c-37 24 -108 31 -156 31c-114 0 -213 -67 -213 -158c0 -95 64 -146 175 -180l52 -16c133 -41 233 -94 233 -219c0 -95 -71 -177 -199 -193l-85 -83c64 -30 107 -53 107 -91c0 -39 -39 -64 -89 -64c-52 0 -92 32 -92 62c0 8 9 10 14 8c1 -43 44 -62 78 -62c43 0 76 20 76 55
c0 36 -53 59 -115 87l90 87c-9 -1 -18 -1 -27 -1z" />
    <glyph glyph-name="scedilla" unicode="&#x15f;" horiz-adv-x="472" 
d="M235 -10c-65 0 -124 15 -162 46l-12 137h7l18 -119c3 -19 27 -33 60 -43c26 -7 58 -11 88 -11c90 0 166 46 166 126c0 81 -61 110 -145 125l-45 8c-88 16 -137 58 -137 131c0 64 60 122 163 122c51 0 99 -13 135 -44l20 -127h-7l-25 109c-5 20 -26 33 -51 41
s-53 11 -72 11c-94 0 -150 -51 -150 -113c0 -64 46 -103 126 -118l49 -9c97 -18 153 -55 153 -135c0 -63 -43 -108 -107 -127h14l-93 -91c64 -30 107 -53 107 -91c0 -39 -39 -64 -89 -64c-52 0 -92 32 -92 62c0 8 9 10 14 8c1 -43 44 -62 78 -62c43 0 76 20 76 55
c0 36 -53 59 -115 87l99 96c-22 -7 -46 -10 -71 -10z" />
    <glyph glyph-name="Scaron" unicode="&#x160;" horiz-adv-x="625" 
d="M168 972h9l139 -124l139 124h9l-146 -139h-4zM317 -10c-77 0 -154 15 -213 55l-44 153h7l46 -124c8 -21 11 -25 24 -33c51 -32 133 -41 180 -41c137 0 228 79 228 182c0 124 -100 171 -224 209l-52 16c-115 35 -183 90 -183 193c0 95 103 168 225 168
c75 0 138 -11 190 -46l43 -137h-7l-45 110c-9 21 -12 25 -24 32c-37 24 -108 31 -156 31c-114 0 -213 -67 -213 -158c0 -95 64 -146 175 -180l52 -16c133 -41 233 -94 233 -219c0 -105 -87 -195 -242 -195z" />
    <glyph glyph-name="scaron" unicode="&#x161;" horiz-adv-x="472" 
d="M92 768h9l149 -173l149 173h9l-156 -189h-4zM235 -10c-65 0 -124 15 -162 46l-12 137h7l18 -119c3 -19 27 -33 60 -43c26 -7 58 -11 88 -11c90 0 166 46 166 126c0 81 -61 110 -145 125l-45 8c-88 16 -137 58 -137 131c0 64 60 122 163 122c51 0 99 -13 135 -44l20 -127
h-7l-25 109c-5 20 -26 33 -51 41s-53 11 -72 11c-94 0 -150 -51 -150 -113c0 -64 46 -103 126 -118l49 -9c97 -18 153 -55 153 -135c0 -84 -78 -137 -179 -137z" />
    <glyph glyph-name="uni0162" unicode="&#x162;" horiz-adv-x="713" 
d="M258 0v6l60 2c21 1 32 5 32 16v723h-276c-10 0 -14 -3 -16 -12l-33 -154h-7l28 177h621l28 -177h-7l-33 154c-2 9 -6 12 -16 12h-276v-723c0 -11 11 -15 32 -16l60 -2v-6h-197zM274 -290l-7 7c66 67 88 123 88 158c0 20 -8 35 -21 44c0 11 8 20 19 20c13 0 20 -9 20 -31
c0 -40 -11 -110 -99 -198z" />
    <glyph glyph-name="uni0163" unicode="&#x163;" horiz-adv-x="376" 
d="M239 -10c-45 0 -95 8 -95 80v421h-135v11h135v108l12 2v-110h216v-11h-216v-420c0 -65 45 -71 84 -71c41 0 84 13 120 31l3 -6c-34 -20 -87 -35 -124 -35zM103 -290l-7 7c66 67 88 123 88 158c0 20 -8 35 -21 44c0 11 8 20 19 20c13 0 20 -9 20 -31
c0 -40 -11 -110 -99 -198z" />
    <glyph glyph-name="Tcaron" unicode="&#x164;" horiz-adv-x="713" 
d="M208 972h9l139 -124l139 124h9l-146 -139h-4zM258 0v6l60 2c21 1 32 5 32 16v723h-276c-10 0 -14 -3 -16 -12l-33 -154h-7l28 177h621l28 -177h-7l-33 154c-2 9 -6 12 -16 12h-276v-723c0 -11 11 -15 32 -16l60 -2v-6h-197z" />
    <glyph glyph-name="tcaron" unicode="&#x165;" horiz-adv-x="376" 
d="M223 558l-7 7c66 67 88 123 88 158c0 20 -8 35 -21 44c0 11 8 20 19 20c13 0 20 -9 20 -31c0 -40 -11 -110 -99 -198zM239 -10c-45 0 -95 8 -95 80v421h-135v11h135v108l12 2v-110h216v-11h-216v-420c0 -65 45 -71 84 -71c41 0 84 13 120 31l3 -6
c-34 -20 -87 -35 -124 -35z" />
    <glyph glyph-name="Tbar" unicode="&#x166;" horiz-adv-x="713" 
d="M258 0v6l60 2c21 1 32 5 32 16v369h-221v11h221v343h-276c-10 0 -14 -3 -16 -12l-33 -154h-7l28 177h621l28 -177h-7l-33 154c-2 9 -6 12 -16 12h-276v-343h222v-11h-222v-369c0 -11 11 -15 32 -16l60 -2v-6h-197z" />
    <glyph glyph-name="tbar" unicode="&#x167;" horiz-adv-x="376" 
d="M239 -10c-45 0 -95 8 -95 80v292h-135v11h135v118h-135v11h135v108l12 2v-110h216v-11h-216v-118h216v-11h-216v-291c0 -65 45 -71 84 -71c41 0 84 13 120 31l3 -6c-34 -20 -87 -35 -124 -35z" />
    <glyph glyph-name="Utilde" unicode="&#x168;" horiz-adv-x="858" 
d="M514 861c-74 0 -108 83 -169 83c-35 0 -55 -24 -56 -72h-11c0 57 30 82 67 82c68 0 100 -83 169 -83c33 0 54 24 55 72h11c0 -57 -31 -82 -66 -82zM429 -10c-195 0 -293 104 -293 308v436c0 11 -11 15 -32 16l-60 2v6h197v-6l-60 -2c-21 -1 -32 -5 -32 -16v-436
c0 -178 76 -298 280 -298s280 120 280 298v436c0 11 -11 15 -32 16l-60 2v6h197v-6l-60 -2c-21 -1 -32 -5 -32 -16v-436c0 -204 -98 -308 -293 -308z" />
    <glyph glyph-name="utilde" unicode="&#x169;" horiz-adv-x="597" 
d="M381 631c-74 0 -108 83 -169 83c-35 0 -55 -24 -56 -72h-11c0 57 30 82 67 82c68 0 100 -83 169 -83c33 0 54 24 55 72h11c0 -57 -31 -82 -66 -82zM283 -10c-125 0 -173 71 -173 218v279l-82 9v6h94v-292c0 -145 50 -210 165 -210c104 0 184 75 184 210v277l-82 9v6h94
v-492h82v-6l-94 -9v161c-20 -122 -102 -166 -188 -166z" />
    <glyph glyph-name="Umacron" unicode="&#x16a;" horiz-adv-x="858" 
d="M292 896v9h274v-9h-274zM429 -10c-195 0 -293 104 -293 308v436c0 11 -11 15 -32 16l-60 2v6h197v-6l-60 -2c-21 -1 -32 -5 -32 -16v-436c0 -178 76 -298 280 -298s280 120 280 298v436c0 11 -11 15 -32 16l-60 2v6h197v-6l-60 -2c-21 -1 -32 -5 -32 -16v-436
c0 -204 -98 -308 -293 -308z" />
    <glyph glyph-name="umacron" unicode="&#x16b;" horiz-adv-x="597" 
d="M159 667v9h274v-9h-274zM283 -10c-125 0 -173 71 -173 218v279l-82 9v6h94v-292c0 -145 50 -210 165 -210c104 0 184 75 184 210v277l-82 9v6h94v-492h82v-6l-94 -9v161c-20 -122 -102 -166 -188 -166z" />
    <glyph glyph-name="Ubreve" unicode="&#x16c;" horiz-adv-x="858" 
d="M429 833c-81 0 -143 44 -154 150h13c10 -95 64 -140 141 -140s131 45 141 140h13c-11 -106 -73 -150 -154 -150zM429 -10c-195 0 -293 104 -293 308v436c0 11 -11 15 -32 16l-60 2v6h197v-6l-60 -2c-21 -1 -32 -5 -32 -16v-436c0 -178 76 -298 280 -298s280 120 280 298
v436c0 11 -11 15 -32 16l-60 2v6h197v-6l-60 -2c-21 -1 -32 -5 -32 -16v-436c0 -204 -98 -308 -293 -308z" />
    <glyph glyph-name="ubreve" unicode="&#x16d;" horiz-adv-x="597" 
d="M296 594c-81 0 -143 44 -154 150h13c10 -95 64 -140 141 -140s131 45 141 140h13c-11 -106 -73 -150 -154 -150zM283 -10c-125 0 -173 71 -173 218v279l-82 9v6h94v-292c0 -145 50 -210 165 -210c104 0 184 75 184 210v277l-82 9v6h94v-492h82v-6l-94 -9v161
c-20 -122 -102 -166 -188 -166z" />
    <glyph glyph-name="Uring" unicode="&#x16e;" horiz-adv-x="858" 
d="M429 833c-56 0 -102 42 -102 98s46 98 102 98s102 -42 102 -98s-46 -98 -102 -98zM429 843c50 0 90 39 90 88s-40 88 -90 88s-90 -39 -90 -88s40 -88 90 -88zM429 -10c-195 0 -293 104 -293 308v436c0 11 -11 15 -32 16l-60 2v6h197v-6l-60 -2c-21 -1 -32 -5 -32 -16
v-436c0 -178 76 -298 280 -298s280 120 280 298v436c0 11 -11 15 -32 16l-60 2v6h197v-6l-60 -2c-21 -1 -32 -5 -32 -16v-436c0 -204 -98 -308 -293 -308z" />
    <glyph glyph-name="uring" unicode="&#x16f;" horiz-adv-x="597" 
d="M296 585c-56 0 -102 42 -102 98s46 98 102 98s102 -42 102 -98s-46 -98 -102 -98zM296 595c50 0 90 39 90 88s-40 88 -90 88s-90 -39 -90 -88s40 -88 90 -88zM283 -10c-125 0 -173 71 -173 218v279l-82 9v6h94v-292c0 -145 50 -210 165 -210c104 0 184 75 184 210v277
l-82 9v6h94v-492h82v-6l-94 -9v161c-20 -122 -102 -166 -188 -166z" />
    <glyph glyph-name="Uhungarumlaut" unicode="&#x170;" horiz-adv-x="858" 
d="M304 833l166 139h16v-1l-170 -138h-12zM504 833l166 139h16v-1l-170 -138h-12zM429 -10c-195 0 -293 104 -293 308v436c0 11 -11 15 -32 16l-60 2v6h197v-6l-60 -2c-21 -1 -32 -5 -32 -16v-436c0 -178 76 -298 280 -298s280 120 280 298v436c0 11 -11 15 -32 16l-60 2v6
h197v-6l-60 -2c-21 -1 -32 -5 -32 -16v-436c0 -204 -98 -308 -293 -308z" />
    <glyph glyph-name="uhungarumlaut" unicode="&#x171;" horiz-adv-x="597" 
d="M214 579l106 179h15v-1l-112 -178h-9zM394 579l106 179h15v-1l-112 -178h-9zM283 -10c-125 0 -173 71 -173 218v279l-82 9v6h94v-292c0 -145 50 -210 165 -210c104 0 184 75 184 210v277l-82 9v6h94v-492h82v-6l-94 -9v161c-20 -122 -102 -166 -188 -166z" />
    <glyph glyph-name="Uogonek" unicode="&#x172;" horiz-adv-x="858" 
d="M429 -10c-195 0 -293 104 -293 308v436c0 11 -11 15 -32 16l-60 2v6h197v-6l-60 -2c-21 -1 -32 -5 -32 -16v-436c0 -178 76 -298 280 -298s280 120 280 298v436c0 11 -11 15 -32 16l-60 2v6h197v-6l-60 -2c-21 -1 -32 -5 -32 -16v-436c0 -174 -71 -275 -213 -301
c-47 -39 -128 -102 -128 -154c0 -41 38 -65 82 -65c39 0 71 15 91 29l5 -7c-24 -18 -60 -32 -96 -32c-52 0 -96 27 -96 74c0 53 89 120 132 153c-22 -3 -45 -5 -70 -5z" />
    <glyph glyph-name="uogonek" unicode="&#x173;" horiz-adv-x="597" 
d="M283 -10c-125 0 -173 71 -173 218v279l-82 9v6h94v-292c0 -145 50 -210 165 -210c104 0 184 75 184 210v277l-82 9v6h94v-492h82v-6l-87 -8c-47 -39 -128 -102 -128 -153c0 -41 38 -65 82 -65c39 0 71 15 91 29l5 -7c-24 -18 -60 -32 -96 -32c-52 0 -96 27 -96 74
c0 55 94 123 135 156v158c-20 -122 -102 -166 -188 -166z" />
    <glyph glyph-name="Wcircumflex" unicode="&#x174;" horiz-adv-x="1188" 
d="M446 833l146 139h4l146 -139h-9l-139 124l-139 -124h-9zM383 -15l-302 749c-4 10 -11 15 -32 16l-60 2v6h198v-6l-60 -2c-26 -1 -36 -6 -32 -16l294 -728l208 520l-84 232h166v-6l-110 -2c-26 0 -36 -6 -32 -16l263 -728l294 728c4 10 -6 15 -32 16l-60 2v6h197v-6
l-60 -2c-21 -1 -28 -6 -32 -16l-302 -749h-11l-191 524l-210 -524h-10z" />
    <glyph glyph-name="wcircumflex" unicode="&#x175;" horiz-adv-x="865" 
d="M274 579l156 189h4l156 -189h-9l-149 173l-149 -173h-9zM282 -10l-204 488c-4 10 -11 15 -32 16l-50 2v6h177v-6l-50 -2c-26 -1 -36 -6 -32 -16l195 -468l149 349l-54 143h127v-6l-72 -2c-26 -1 -36 -6 -32 -16l176 -467l195 467c4 10 -6 15 -32 16l-50 2v6h176v-6
l-50 -2c-21 -1 -28 -6 -32 -16l-204 -488h-7l-135 354l-152 -354h-7z" />
    <glyph glyph-name="Ycircumflex" unicode="&#x176;" horiz-adv-x="769" 
d="M238 833l146 139h4l146 -139h-9l-139 124l-139 -124h-9zM287 0v6l60 2c21 1 32 5 32 16v319l-290 391c-6 9 -11 15 -32 16l-60 2v6h199v-6l-60 -2c-26 -1 -38 -7 -32 -16l282 -380l281 380c6 9 -6 15 -32 16l-60 2v6h198v-6l-60 -2c-21 -1 -26 -7 -32 -16l-289 -391v-319
c0 -11 11 -15 32 -16l60 -2v-6h-197z" />
    <glyph glyph-name="ycircumflex" unicode="&#x177;" horiz-adv-x="572" 
d="M130 579l156 189h4l156 -189h-9l-149 173l-149 -173h-9zM162 -250c-6 0 -9 4 -9 9c0 12 13 34 35 55l88 196l-195 468c-4 10 -11 15 -32 16l-50 2v6h177v-6l-50 -2c-26 -1 -36 -6 -32 -16l189 -452l201 452c4 10 -6 15 -32 16l-50 2v6h176v-6l-50 -2
c-21 -1 -28 -6 -32 -16l-304 -683c-16 -37 -22 -45 -30 -45z" />
    <glyph glyph-name="Ydieresis" unicode="&#x178;" horiz-adv-x="769" 
d="M266 917c-10 0 -19 9 -19 19s9 19 19 19s19 -9 19 -19s-9 -19 -19 -19zM506 917c-10 0 -19 9 -19 19s9 19 19 19s19 -9 19 -19s-9 -19 -19 -19zM287 0v6l60 2c21 1 32 5 32 16v319l-290 391c-6 9 -11 15 -32 16l-60 2v6h199v-6l-60 -2c-26 -1 -38 -7 -32 -16l282 -380
l281 380c6 9 -6 15 -32 16l-60 2v6h198v-6l-60 -2c-21 -1 -26 -7 -32 -16l-289 -391v-319c0 -11 11 -15 32 -16l60 -2v-6h-197z" />
    <glyph glyph-name="Zacute" unicode="&#x179;" horiz-adv-x="718" 
d="M329 833l166 139h16v-1l-170 -138h-12zM33 0v8l610 739h-500c-13 0 -18 -2 -23 -13l-58 -129h-7l57 153h549v-9l-609 -738h543c13 0 18 2 23 13l58 129h7l-57 -153h-593z" />
    <glyph glyph-name="zacute" unicode="&#x17a;" horiz-adv-x="526" 
d="M263 579l106 179h15v-1l-112 -178h-9zM36 0l412 492h-306c-13 0 -18 -2 -23 -13l-58 -139h-7l57 162h360l-411 -492h341c13 0 19 2 23 13l58 140h7l-57 -163h-396z" />
    <glyph glyph-name="Zdotaccent" unicode="&#x17b;" horiz-adv-x="718" 
d="M372 917c-10 0 -19 9 -19 19s9 19 19 19s19 -9 19 -19s-9 -19 -19 -19zM33 0v8l610 739h-500c-13 0 -18 -2 -23 -13l-58 -129h-7l57 153h549v-9l-609 -738h543c13 0 18 2 23 13l58 129h7l-57 -153h-593z" />
    <glyph glyph-name="zdotaccent" unicode="&#x17c;" horiz-adv-x="526" 
d="M302 690c-10 0 -19 9 -19 19s9 19 19 19s19 -9 19 -19s-9 -19 -19 -19zM36 0l412 492h-306c-13 0 -18 -2 -23 -13l-58 -139h-7l57 162h360l-411 -492h341c13 0 19 2 23 13l58 140h7l-57 -163h-396z" />
    <glyph glyph-name="Zcaron" unicode="&#x17d;" horiz-adv-x="718" 
d="M224 972h9l139 -124l139 124h9l-146 -139h-4zM33 0v8l610 739h-500c-13 0 -18 -2 -23 -13l-58 -129h-7l57 153h549v-9l-609 -738h543c13 0 18 2 23 13l58 129h7l-57 -153h-593z" />
    <glyph glyph-name="zcaron" unicode="&#x17e;" horiz-adv-x="526" 
d="M144 768h9l149 -173l149 173h9l-156 -189h-4zM36 0l412 492h-306c-13 0 -18 -2 -23 -13l-58 -139h-7l57 162h360l-411 -492h341c13 0 19 2 23 13l58 140h7l-57 -163h-396z" />
    <glyph glyph-name="uni018F" unicode="&#x18f;" horiz-adv-x="833" 
d="M400 -9c-184 0 -310 111 -345 277h688c10 34 14 72 14 112c0 238 -159 379 -350 379c-183 0 -319 -108 -347 -288h-8c26 177 159 298 357 298c229 0 363 -172 363 -389c0 -216 -143 -389 -372 -389zM400 1c155 0 294 93 340 256h-669c41 -165 172 -256 329 -256z" />
    <glyph glyph-name="Scommaaccent" unicode="&#x218;" horiz-adv-x="625" 
d="M317 -10c-77 0 -154 15 -213 55l-44 153h7l46 -124c8 -21 11 -25 24 -33c51 -32 133 -41 180 -41c137 0 228 79 228 182c0 124 -100 171 -224 209l-52 16c-115 35 -183 90 -183 193c0 95 103 168 225 168c75 0 138 -11 190 -46l43 -137h-7l-45 110c-9 21 -12 25 -24 32
c-37 24 -108 31 -156 31c-114 0 -213 -67 -213 -158c0 -95 64 -146 175 -180l52 -16c133 -41 233 -94 233 -219c0 -105 -87 -195 -242 -195zM223 -290l-7 7c66 67 88 123 88 158c0 20 -8 35 -21 44c0 11 8 20 19 20c13 0 20 -9 20 -31c0 -40 -11 -110 -99 -198z" />
    <glyph glyph-name="scommaaccent" unicode="&#x219;" horiz-adv-x="472" 
d="M235 -10c-65 0 -124 15 -162 46l-12 137h7l18 -119c3 -19 27 -33 60 -43c26 -7 58 -11 88 -11c90 0 166 46 166 126c0 81 -61 110 -145 125l-45 8c-88 16 -137 58 -137 131c0 64 60 122 163 122c51 0 99 -13 135 -44l20 -127h-7l-25 109c-5 20 -26 33 -51 41
s-53 11 -72 11c-94 0 -150 -51 -150 -113c0 -64 46 -103 126 -118l49 -9c97 -18 153 -55 153 -135c0 -84 -78 -137 -179 -137zM168 -290l-7 7c66 67 88 123 88 158c0 20 -8 35 -21 44c0 11 8 20 19 20c13 0 20 -9 20 -31c0 -40 -11 -110 -99 -198z" />
    <glyph glyph-name="Tcommaaccent" unicode="&#x21a;" horiz-adv-x="713" 
d="M258 0v6l60 2c21 1 32 5 32 16v723h-276c-10 0 -14 -3 -16 -12l-33 -154h-7l28 177h621l28 -177h-7l-33 154c-2 9 -6 12 -16 12h-276v-723c0 -11 11 -15 32 -16l60 -2v-6h-197zM274 -290l-7 7c66 67 88 123 88 158c0 20 -8 35 -21 44c0 11 8 20 19 20c13 0 20 -9 20 -31
c0 -40 -11 -110 -99 -198z" />
    <glyph glyph-name="tcommaaccent" unicode="&#x21b;" horiz-adv-x="376" 
d="M239 -10c-45 0 -95 8 -95 80v421h-135v11h135v108l12 2v-110h216v-11h-216v-420c0 -65 45 -71 84 -71c41 0 84 13 120 31l3 -6c-34 -20 -87 -35 -124 -35zM103 -290l-7 7c66 67 88 123 88 158c0 20 -8 35 -21 44c0 11 8 20 19 20c13 0 20 -9 20 -31
c0 -40 -11 -110 -99 -198z" />
    <glyph glyph-name="uni0232" unicode="&#x232;" horiz-adv-x="769" 
d="M249 896v9h274v-9h-274zM287 0v6l60 2c21 1 32 5 32 16v319l-290 391c-6 9 -11 15 -32 16l-60 2v6h199v-6l-60 -2c-26 -1 -38 -7 -32 -16l282 -380l281 380c6 9 -6 15 -32 16l-60 2v6h198v-6l-60 -2c-21 -1 -26 -7 -32 -16l-289 -391v-319c0 -11 11 -15 32 -16l60 -2v-6
h-197z" />
    <glyph glyph-name="uni0233" unicode="&#x233;" horiz-adv-x="572" 
d="M151 667v9h274v-9h-274zM162 -250c-6 0 -9 4 -9 9c0 12 13 34 35 55l88 196l-195 468c-4 10 -11 15 -32 16l-50 2v6h177v-6l-50 -2c-26 -1 -36 -6 -32 -16l189 -452l201 452c4 10 -6 15 -32 16l-50 2v6h176v-6l-50 -2c-21 -1 -28 -6 -32 -16l-304 -683
c-16 -37 -22 -45 -30 -45z" />
    <glyph glyph-name="dotlessj" unicode="&#x237;" horiz-adv-x="231" 
d="M1 -258l-3 4c100 81 117 98 117 268v473l-82 9v6h94v-488c0 -142 -11 -178 -74 -231c-15 -13 -32 -26 -52 -41z" />
    <glyph glyph-name="uni0259" unicode="&#x259;" horiz-adv-x="580" 
d="M278 513c142 0 246 -104 246 -263c0 -166 -120 -259 -239 -259c-120 0 -211 74 -231 210h451c3 15 4 32 4 49c0 145 -92 252 -233 252c-86 0 -192 -40 -220 -162h-7c29 131 138 173 229 173zM286 1c97 0 194 67 218 190h-432c14 -114 96 -190 214 -190z" />
    <glyph glyph-name="uni02BB" unicode="&#x2bb;" horiz-adv-x="210" 
d="M166 768l7 -7c-66 -67 -88 -123 -88 -158c0 -20 8 -35 21 -44c0 -11 -8 -20 -19 -20c-13 0 -20 9 -20 31c0 40 11 110 99 198z" />
    <glyph glyph-name="uni02BC" unicode="&#x2bc;" horiz-adv-x="216" 
d="M65 539l-7 7c66 67 88 123 88 158c0 20 -8 35 -21 44c0 11 8 20 19 20c13 0 20 -9 20 -31c0 -40 -11 -110 -99 -198z" />
    <glyph glyph-name="circumflex" unicode="&#x2c6;" 
d="M-158 579l156 189h4l156 -189h-9l-149 173l-149 -173h-9z" />
    <glyph glyph-name="caron" unicode="&#x2c7;" 
d="M-158 768h9l149 -173l149 173h9l-156 -189h-4z" />
    <glyph glyph-name="breve" unicode="&#x2d8;" 
d="M-154 594c-81 0 -143 44 -154 150h13c10 -95 64 -140 141 -140s131 45 141 140h13c-11 -106 -73 -150 -154 -150z" />
    <glyph glyph-name="dotaccent" unicode="&#x2d9;" 
d="M-19 690c-10 0 -19 9 -19 19s9 19 19 19s19 -9 19 -19s-9 -19 -19 -19z" />
    <glyph glyph-name="ring" unicode="&#x2da;" 
d="M-102 585c-56 0 -102 42 -102 98s46 98 102 98s102 -42 102 -98s-46 -98 -102 -98zM-102 595c50 0 90 39 90 88s-40 88 -90 88s-90 -39 -90 -88s40 -88 90 -88z" />
    <glyph glyph-name="ogonek" unicode="&#x2db;" 
d="M-96 -232c-52 0 -96 27 -96 74c0 56 99 127 138 158h9c-46 -38 -133 -104 -133 -157c0 -41 38 -65 82 -65c39 0 71 15 91 29l5 -7c-24 -18 -60 -32 -96 -32z" />
    <glyph glyph-name="tilde" unicode="&#x2dc;" 
d="M85 631c-74 0 -108 83 -169 83c-35 0 -55 -24 -56 -72h-11c0 57 30 82 67 82c68 0 100 -83 169 -83c33 0 54 24 55 72h11c0 -57 -31 -82 -66 -82z" />
    <glyph glyph-name="hungarumlaut" unicode="&#x2dd;" 
d="M-150 579l106 179h15v-1l-112 -178h-9zM30 579l106 179h15v-1l-112 -178h-9z" />
    <glyph glyph-name="uni0401" unicode="&#x401;" horiz-adv-x="702" 
d="M245 917c-10 0 -19 9 -19 19s9 19 19 19s19 -9 19 -19s-9 -19 -19 -19zM485 917c-10 0 -19 9 -19 19s9 19 19 19s19 -9 19 -19s-9 -19 -19 -19zM67 0v6l60 2c21 1 32 5 32 16v710c0 11 -11 15 -32 16l-60 2v6h499l28 -147h-7l-33 124c-2 9 -6 12 -16 12h-366v-343h227
c27 0 28 2 29 16l6 97h7v-237h-7l-6 97c-1 14 -2 16 -29 16h-227v-382h420c13 0 18 2 23 13l58 129h7l-57 -153h-556z" />
    <glyph glyph-name="uni0402" unicode="&#x402;" horiz-adv-x="833" 
d="M208 0v6l60 2c21 1 32 5 32 16v723h-226c-10 0 -14 -3 -16 -12l-33 -154h-7l28 177h561l28 -177h-7l-33 154c-2 9 -6 12 -16 12h-266v-377c54 58 136 82 212 82c160 0 223 -71 223 -218v-119c0 -108 -14 -128 -109 -211c-14 -12 -31 -25 -48 -38l-6 8
c124 101 150 123 150 231v127c0 145 -64 210 -214 210c-83 0 -164 -35 -208 -88v-330c0 -11 11 -15 32 -16l60 -2v-6h-197z" />
    <glyph glyph-name="uni0403" unicode="&#x403;" horiz-adv-x="654" 
d="M345 833l166 139h16v-1l-170 -138h-12zM172 747v-723c0 -11 11 -16 32 -16l110 -2v-6h-247v6l60 2c21 1 32 5 32 16v710c0 11 -11 15 -32 16l-60 2v6h529l28 -147h-7l-33 124c-2 9 -6 12 -16 12h-396z" />
    <glyph glyph-name="uni0404" unicode="&#x404;" horiz-adv-x="825" 
d="M475 -10c-231 0 -415 138 -415 389c0 249 184 389 419 389c93 0 186 -19 246 -70l44 -137h-7l-46 110c-9 21 -12 25 -24 35c-34 30 -120 52 -210 52c-208 0 -394 -117 -406 -354h393c27 0 28 2 29 16l6 97h7v-237h-7l-6 97c-1 14 -2 16 -29 16h-394v-15
c0 -249 181 -378 403 -378c90 0 180 22 214 52c12 10 16 14 25 35l53 119h7l-52 -146c-60 -51 -157 -70 -250 -70z" />
    <glyph glyph-name="uni0405" unicode="&#x405;" horiz-adv-x="625" 
d="M317 -10c-77 0 -154 15 -213 55l-44 153h7l46 -124c8 -21 11 -25 24 -33c51 -32 133 -41 180 -41c137 0 228 79 228 182c0 124 -100 171 -224 209l-52 16c-115 35 -183 90 -183 193c0 95 103 168 225 168c75 0 138 -11 190 -46l43 -137h-7l-45 110c-9 21 -12 25 -24 32
c-37 24 -108 31 -156 31c-114 0 -213 -67 -213 -158c0 -95 64 -146 175 -180l52 -16c133 -41 233 -94 233 -219c0 -105 -87 -195 -242 -195z" />
    <glyph glyph-name="uni0406" unicode="&#x406;" horiz-adv-x="331" 
d="M67 0v6l60 2c21 1 32 5 32 16v710c0 11 -11 15 -32 16l-60 2v6h197v-6l-60 -2c-21 -1 -32 -5 -32 -16v-710c0 -11 11 -15 32 -16l60 -2v-6h-197z" />
    <glyph glyph-name="uni0407" unicode="&#x407;" horiz-adv-x="331" 
d="M46 917c-10 0 -19 9 -19 19s9 19 19 19s19 -9 19 -19s-9 -19 -19 -19zM286 917c-10 0 -19 9 -19 19s9 19 19 19s19 -9 19 -19s-9 -19 -19 -19zM67 0v6l60 2c21 1 32 5 32 16v710c0 11 -11 15 -32 16l-60 2v6h197v-6l-60 -2c-21 -1 -32 -5 -32 -16v-710
c0 -11 11 -15 32 -16l60 -2v-6h-197z" />
    <glyph glyph-name="uni0408" unicode="&#x408;" horiz-adv-x="310" 
d="M9 -134l-6 8c124 101 150 123 150 231v629c0 11 -11 15 -32 16l-60 2v6h197v-6l-60 -2c-21 -1 -32 -5 -32 -16v-619c0 -108 -14 -128 -109 -211c-14 -12 -31 -25 -48 -38z" />
    <glyph glyph-name="uni0409" unicode="&#x409;" horiz-adv-x="1078" 
d="M558 424h157c232 0 305 -91 305 -212c0 -122 -73 -212 -305 -212h-262v6l60 2c21 1 32 5 32 16v723h-338c-1 -456 -41 -616 -120 -727c-16 -22 -27 -30 -40 -30c-4 0 -7 3 -7 7c0 13 16 25 45 42c74 110 110 280 110 695c0 11 -11 15 -32 16l-60 2v6h577v-6l-90 -2
c-21 -1 -32 -5 -32 -16v-310zM558 11h151c213 0 296 73 296 201c0 127 -83 201 -297 201h-150v-402z" />
    <glyph glyph-name="uni040A" unicode="&#x40a;" horiz-adv-x="1142" 
d="M67 0v6l60 2c21 1 32 5 32 16v710c0 11 -11 15 -32 16l-60 2v6h197v-6l-60 -2c-21 -1 -32 -5 -32 -16v-320h437v320c0 11 -11 15 -32 16l-60 2v6h227v-6l-90 -2c-21 0 -32 -5 -32 -16v-320h157c232 0 305 -86 305 -207c0 -122 -73 -207 -305 -207h-262v6l60 2
c21 1 32 5 32 16v379h-437v-379c0 -11 11 -15 32 -16l60 -2v-6h-197zM622 11h151c213 0 296 68 296 196c0 127 -83 196 -297 196h-150v-392z" />
    <glyph glyph-name="uni040B" unicode="&#x40b;" horiz-adv-x="867" 
d="M208 0v6l60 2c21 1 32 5 32 16v723h-226c-10 0 -14 -3 -16 -12l-33 -154h-7l28 177h561l28 -177h-7l-33 154c-2 9 -6 12 -16 12h-266v-377c54 58 136 82 212 82c160 0 223 -71 223 -218v-210c0 -11 11 -15 32 -16l50 -2v-6h-95v232c0 145 -64 210 -214 210
c-83 0 -164 -35 -208 -88v-330c0 -11 11 -15 32 -16l60 -2v-6h-197z" />
    <glyph glyph-name="uni040C" unicode="&#x40c;" horiz-adv-x="741" 
d="M355 833l166 139h16v-1l-170 -138h-12zM708 0l-536 390l417 347c11 9 2 11 -36 13l-49 2v6h212v-6l-53 -2c-33 -1 -45 -3 -63 -18l-408 -340l537 -392h-21zM67 0v6l60 2c21 1 32 5 32 16v710c0 11 -11 15 -32 16l-60 2v6h197v-6l-60 -2c-21 -1 -32 -5 -32 -16v-710
c0 -11 11 -15 32 -16l60 -2v-6h-197z" />
    <glyph glyph-name="uni040E" unicode="&#x40e;" horiz-adv-x="766" 
d="M401 833c-104 0 -150 63 -150 150h13c0 -110 77 -140 137 -140c62 0 137 30 137 140h13c0 -98 -61 -150 -150 -150zM373 132c-48 -92 -83 -142 -121 -142c-7 0 -11 4 -11 9c0 13 20 21 56 32c29 37 46 71 93 158l-310 545c-6 10 -11 15 -32 16l-60 2v6h198v-6l-60 -2
c-26 -1 -37 -6 -31 -16l302 -531l275 531c5 10 -4 15 -30 16l-62 2v6h197v-6l-60 -2c-21 -1 -27 -6 -32 -16z" />
    <glyph glyph-name="uni040F" unicode="&#x40f;" horiz-adv-x="851" 
d="M419 -12c0 9 -6 12 -16 12h-336v6l60 2c21 1 32 5 32 16v710c0 11 -11 15 -32 16l-60 2v6h197v-6l-60 -2c-21 -1 -32 -5 -32 -16v-723h507v723c0 11 -11 15 -32 16l-60 2v6h197v-6l-60 -2c-21 -1 -32 -5 -32 -16v-710c0 -11 11 -15 32 -16l60 -2v-6h-336
c-10 0 -16 -3 -16 -12l-3 -144h-7z" />
    <glyph glyph-name="uni0410" unicode="&#x410;" horiz-adv-x="756" 
d="M675 24c4 -10 11 -15 32 -16l60 -2v-6h-198v6l60 2c26 1 36 6 32 16l-118 303h-331l-117 -303c-4 -10 4 -15 32 -16l60 -2v-6h-198v6l60 2c21 1 28 6 32 16l291 749h11zM377 752l-160 -414h322z" />
    <glyph glyph-name="uni0411" unicode="&#x411;" horiz-adv-x="732" 
d="M558 747h-386v-323h167c240 0 315 -91 315 -212c0 -122 -75 -212 -315 -212h-272v6l60 2c21 1 32 5 32 16v710c0 11 -11 15 -32 16l-60 2v6h519l28 -147h-7l-33 124c-2 9 -6 12 -16 12zM172 11h161c220 0 306 73 306 201c0 127 -86 201 -307 201h-160v-402z" />
    <glyph glyph-name="uni0412" unicode="&#x412;" horiz-adv-x="712" 
d="M67 0v6l60 2c21 1 32 5 32 16v710c0 11 -11 15 -32 16l-60 2v6h252c149 0 284 -28 284 -177c0 -106 -88 -173 -192 -181v-1c129 -3 243 -52 243 -187c0 -122 -75 -212 -315 -212h-272zM172 404h192c122 0 224 60 224 177c0 136 -115 166 -275 166h-141v-343zM172 11h161
c220 0 306 73 306 201c0 127 -105 181 -275 181h-192v-382z" />
    <glyph glyph-name="uni0413" unicode="&#x413;" horiz-adv-x="654" 
d="M172 747v-723c0 -11 11 -16 32 -16l110 -2v-6h-247v6l60 2c21 1 32 5 32 16v710c0 11 -11 15 -32 16l-60 2v6h529l28 -147h-7l-33 124c-2 9 -6 12 -16 12h-396z" />
    <glyph glyph-name="uni0414" unicode="&#x414;" horiz-adv-x="781" 
d="M60 -12l-13 -144h-7l8 167h80c52 110 101 321 101 723c0 11 -11 15 -32 16l-60 2v6h577v-6l-60 -2c-21 -1 -32 -5 -32 -16v-723h104l8 -167h-7l-13 144c-1 9 -6 12 -16 12h-622c-10 0 -15 -3 -16 -12zM609 11v736h-368c-1 -419 -51 -625 -99 -736h467z" />
    <glyph glyph-name="uni0415" unicode="&#x415;" horiz-adv-x="702" 
d="M67 0v6l60 2c21 1 32 5 32 16v710c0 11 -11 15 -32 16l-60 2v6h499l28 -147h-7l-33 124c-2 9 -6 12 -16 12h-366v-343h227c27 0 28 2 29 16l6 97h7v-237h-7l-6 97c-1 14 -2 16 -29 16h-227v-382h420c13 0 18 2 23 13l58 129h7l-57 -153h-556z" />
    <glyph glyph-name="uni0416" unicode="&#x416;" horiz-adv-x="1050" 
d="M32 0h-20l486 391l-370 341c-17 16 -28 17 -61 18l-53 2v6h212v-6l-49 -2c-38 -2 -46 -3 -36 -13l377 -347zM1017 0l-486 390l377 347c10 10 2 11 -36 13l-49 2v6h212v-6l-53 -2c-33 -1 -46 -2 -63 -18l-369 -340l488 -392h-21zM426 0v6l60 2c21 1 32 5 32 16v710
c0 11 -11 15 -32 16l-60 2v6h197v-6l-60 -2c-21 -1 -32 -5 -32 -16v-710c0 -11 11 -15 32 -16l60 -2v-6h-197z" />
    <glyph glyph-name="uni0417" unicode="&#x417;" horiz-adv-x="655" 
d="M309 0c177 0 273 74 273 202c0 134 -101 191 -265 191h-87v11h87c118 0 216 63 216 187c0 137 -111 167 -221 167c-57 0 -127 -15 -155 -39c-12 -10 -15 -14 -24 -35l-46 -110h-7l44 137c53 44 128 57 191 57c104 0 233 -28 233 -177c0 -112 -84 -183 -184 -191v-1
c124 -3 233 -55 233 -197c0 -122 -88 -212 -285 -212c-78 0 -155 23 -210 70l-52 146h7l53 -119c9 -21 13 -25 25 -35c30 -27 101 -52 174 -52z" />
    <glyph glyph-name="uni0418" unicode="&#x418;" horiz-adv-x="871" 
d="M67 0v6l60 2c21 1 32 5 32 16v710c0 11 -11 15 -32 16l-60 2v6h197v-6l-60 -2c-21 -1 -32 -5 -32 -16v-659l527 632v27c0 11 -11 15 -32 16l-60 2v6h197v-6l-60 -2c-21 -1 -32 -5 -32 -16v-710c0 -11 11 -15 32 -16l60 -2v-6h-197v6l60 2c21 1 32 5 32 16v667l-527 -632
v-35c0 -11 11 -15 32 -16l60 -2v-6h-197z" />
    <glyph glyph-name="uni0419" unicode="&#x419;" horiz-adv-x="871" 
d="M436 833c-104 0 -150 63 -150 150h13c0 -110 77 -140 137 -140c62 0 137 30 137 140h13c0 -98 -61 -150 -150 -150zM67 0v6l60 2c21 1 32 5 32 16v710c0 11 -11 15 -32 16l-60 2v6h197v-6l-60 -2c-21 -1 -32 -5 -32 -16v-659l527 632v27c0 11 -11 15 -32 16l-60 2v6h197
v-6l-60 -2c-21 -1 -32 -5 -32 -16v-710c0 -11 11 -15 32 -16l60 -2v-6h-197v6l60 2c21 1 32 5 32 16v667l-527 -632v-35c0 -11 11 -15 32 -16l60 -2v-6h-197z" />
    <glyph glyph-name="uni041A" unicode="&#x41a;" horiz-adv-x="741" 
d="M708 0l-536 390l417 347c11 9 2 11 -36 13l-49 2v6h212v-6l-53 -2c-33 -1 -45 -3 -63 -18l-408 -340l537 -392h-21zM67 0v6l60 2c21 1 32 5 32 16v710c0 11 -11 15 -32 16l-60 2v6h197v-6l-60 -2c-21 -1 -32 -5 -32 -16v-710c0 -11 11 -15 32 -16l60 -2v-6h-197z" />
    <glyph glyph-name="uni041B" unicode="&#x41b;" horiz-adv-x="747" 
d="M87 20c-16 -22 -27 -30 -40 -30c-4 0 -7 3 -7 7c0 13 19 27 45 42c74 110 110 280 110 695c0 11 -11 15 -32 16l-60 2v6h577v-6l-60 -2c-21 -1 -32 -5 -32 -16v-710c0 -11 11 -15 32 -16l60 -2v-6h-197v6l60 2c21 1 32 5 32 16v723h-368c-1 -456 -41 -616 -120 -727z" />
    <glyph glyph-name="uni041C" unicode="&#x41c;" horiz-adv-x="1017" 
d="M47 0v6l60 2c21 1 31 5 32 16l40 710c1 11 -11 15 -32 16l-60 2v6h112l307 -582l312 582h112v-6l-60 -2c-21 -1 -33 -5 -32 -16l40 -710c1 -11 11 -15 32 -16l60 -2v-6h-197v6l60 2c21 1 33 5 32 16l-40 720l-316 -587h-6l-311 588l-40 -721c-1 -11 11 -15 32 -16l60 -2
v-6h-197z" />
    <glyph glyph-name="uni041D" unicode="&#x41d;" horiz-adv-x="881" 
d="M67 0v6l60 2c21 1 32 5 32 16v710c0 11 -11 15 -32 16l-60 2v6h197v-6l-60 -2c-21 -1 -32 -5 -32 -16v-330h537v330c0 11 -11 15 -32 16l-60 2v6h197v-6l-60 -2c-21 -1 -32 -5 -32 -16v-710c0 -11 11 -15 32 -16l60 -2v-6h-197v6l60 2c21 1 32 5 32 16v369h-537v-369
c0 -11 11 -15 32 -16l60 -2v-6h-197z" />
    <glyph glyph-name="uni041E" unicode="&#x41e;" horiz-adv-x="884" 
d="M442 -10c-229 0 -382 173 -382 389s153 389 382 389s382 -173 382 -389s-153 -389 -382 -389zM442 0c191 0 367 142 367 379s-176 379 -367 379s-367 -142 -367 -379s176 -379 367 -379z" />
    <glyph glyph-name="uni041F" unicode="&#x41f;" horiz-adv-x="851" 
d="M67 758h717v-6l-60 -2c-21 -1 -32 -5 -32 -16v-710c0 -11 11 -15 32 -16l60 -2v-6h-197v6l60 2c21 1 32 5 32 16v723h-507v-723c0 -11 11 -15 32 -16l60 -2v-6h-197v6l60 2c21 1 32 5 32 16v710c0 11 -11 15 -32 16l-60 2v6z" />
    <glyph glyph-name="uni0420" unicode="&#x420;" horiz-adv-x="695" 
d="M67 0v6l60 2c21 1 32 5 32 16v710c0 11 -11 15 -32 16l-60 2v6h296c152 0 293 -29 293 -196s-141 -196 -293 -196h-166v11h154c158 0 290 27 290 185s-132 185 -290 185h-179v-723c0 -11 11 -16 32 -16l110 -2v-6h-247z" />
    <glyph glyph-name="uni0421" unicode="&#x421;" horiz-adv-x="825" 
d="M475 -10c-231 0 -415 138 -415 389c0 249 184 389 419 389c93 0 186 -19 246 -70l44 -137h-7l-46 110c-9 21 -12 25 -24 35c-34 30 -120 52 -210 52c-216 0 -407 -126 -407 -380c0 -249 181 -378 403 -378c90 0 180 22 214 52c12 10 16 14 25 35l53 119h7l-52 -146
c-60 -51 -157 -70 -250 -70z" />
    <glyph glyph-name="uni0422" unicode="&#x422;" horiz-adv-x="713" 
d="M258 0v6l60 2c21 1 32 5 32 16v723h-276c-10 0 -14 -3 -16 -12l-33 -154h-7l28 177h621l28 -177h-7l-33 154c-2 9 -6 12 -16 12h-276v-723c0 -11 11 -15 32 -16l60 -2v-6h-197z" />
    <glyph glyph-name="uni0423" unicode="&#x423;" horiz-adv-x="766" 
d="M373 132c-48 -92 -83 -142 -121 -142c-7 0 -11 4 -11 9c0 13 20 21 56 32c29 37 46 71 93 158l-310 545c-6 10 -11 15 -32 16l-60 2v6h198v-6l-60 -2c-26 -1 -37 -6 -31 -16l302 -531l275 531c5 10 -4 15 -30 16l-62 2v6h197v-6l-60 -2c-21 -1 -27 -6 -32 -16z" />
    <glyph glyph-name="uni0424" unicode="&#x424;" horiz-adv-x="924" 
d="M364 -20v6l60 2c21 1 32 5 32 16v76c-221 2 -406 92 -406 299c0 209 188 299 406 299v76c0 11 -11 15 -32 16l-60 2v6h197v-6l-60 -2c-21 -1 -32 -5 -32 -16v-76c209 -2 405 -92 405 -299s-196 -297 -405 -299v-76c0 -11 11 -15 32 -16l60 -2v-6h-197zM65 379
c0 -226 228 -288 391 -289v578c-163 -1 -391 -63 -391 -289zM859 379c0 226 -237 287 -390 289v-578c153 2 390 63 390 289z" />
    <glyph glyph-name="uni0425" unicode="&#x425;" horiz-adv-x="792" 
d="M-2 0v6l57 2c19 1 28 7 35 16l298 380l-258 330c-6 8 -16 15 -35 16l-57 2v6h200v-6l-60 -3c-26 -1 -37 -8 -31 -16l249 -318l250 318c7 9 -5 15 -31 16l-60 3v6h198v-6l-57 -2c-19 -1 -28 -7 -35 -16l-258 -329l299 -381c6 -8 16 -15 35 -16l57 -2v-6h-200v6l60 3
c26 1 37 8 31 16l-290 370l-290 -370c-7 -9 5 -15 31 -16l60 -3v-6h-198z" />
    <glyph glyph-name="uni0426" unicode="&#x426;" horiz-adv-x="851" 
d="M768 0h-701v6l60 2c21 1 32 5 32 16v710c0 11 -11 15 -32 16l-60 2v6h197v-6l-60 -2c-21 -1 -32 -5 -32 -16v-723h507v723c0 11 -11 15 -32 16l-60 2v6h197v-6l-60 -2c-21 -1 -32 -5 -32 -16v-723h104l8 -167h-7l-13 144c-1 9 -6 12 -16 12z" />
    <glyph glyph-name="uni0427" unicode="&#x427;" horiz-adv-x="791" 
d="M129 585v149c0 11 -11 15 -32 16l-60 2v6h197v-6l-60 -2c-21 -1 -32 -5 -32 -16v-149c0 -225 154 -241 262 -241c105 0 215 40 215 40v350c0 11 -11 15 -32 16l-60 2v6h197v-6l-60 -2c-21 -1 -32 -5 -32 -16v-710c0 -11 11 -15 32 -16l60 -2v-6h-227v6l90 2
c21 0 32 5 32 16v349s-111 -40 -217 -40c-108 0 -273 16 -273 252z" />
    <glyph glyph-name="uni0428" unicode="&#x428;" horiz-adv-x="1141" 
d="M1074 0h-1007v6l60 2c21 1 32 5 32 16v710c0 11 -11 15 -32 16l-60 2v6h197v-6l-60 -2c-21 -1 -32 -5 -32 -16v-723h392v723c0 11 -11 15 -32 16l-60 2v6h197v-6l-60 -2c-21 -1 -32 -5 -32 -16v-723h392v723c0 11 -11 15 -32 16l-60 2v6h197v-6l-60 -2
c-21 -1 -32 -5 -32 -16v-710c0 -11 11 -15 32 -16l60 -2v-6z" />
    <glyph glyph-name="uni0429" unicode="&#x429;" horiz-adv-x="1141" 
d="M1058 0h-991v6l60 2c21 1 32 5 32 16v710c0 11 -11 15 -32 16l-60 2v6h197v-6l-60 -2c-21 -1 -32 -5 -32 -16v-723h392v723c0 11 -11 15 -32 16l-60 2v6h197v-6l-60 -2c-21 -1 -32 -5 -32 -16v-723h392v723c0 11 -11 15 -32 16l-60 2v6h197v-6l-60 -2
c-21 -1 -32 -5 -32 -16v-723h104l8 -167h-7l-13 144c-1 9 -6 12 -16 12z" />
    <glyph glyph-name="uni042A" unicode="&#x42a;" horiz-adv-x="832" 
d="M312 424h157c232 0 305 -91 305 -212c0 -122 -73 -212 -305 -212h-262v6l60 2c21 1 32 5 32 16v723h-225c-10 0 -14 -3 -16 -12l-33 -154h-7l28 177h388v-6l-90 -2c-21 -1 -32 -5 -32 -16v-310zM312 11h151c213 0 296 73 296 201c0 127 -83 201 -297 201h-150v-402z" />
    <glyph glyph-name="uni042B" unicode="&#x42b;" horiz-adv-x="976" 
d="M172 424h157c232 0 305 -91 305 -212c0 -122 -73 -212 -305 -212h-262v6l60 2c21 1 32 5 32 16v710c0 11 -11 15 -32 16l-60 2v6h227v-6l-90 -2c-21 0 -32 -5 -32 -16v-310zM712 0v6l60 2c21 1 32 5 32 16v710c0 11 -11 15 -32 16l-60 2v6h197v-6l-60 -2
c-21 -1 -32 -5 -32 -16v-710c0 -11 11 -15 32 -16l60 -2v-6h-197zM172 11h151c213 0 296 73 296 201c0 127 -83 201 -297 201h-150v-402z" />
    <glyph glyph-name="uni042C" unicode="&#x42c;" horiz-adv-x="692" 
d="M172 424h157c232 0 305 -91 305 -212c0 -122 -73 -212 -305 -212h-262v6l60 2c21 1 32 5 32 16v710c0 11 -11 15 -32 16l-60 2v6h227v-6l-90 -2c-21 0 -32 -5 -32 -16v-310zM172 11h151c213 0 296 73 296 201c0 127 -83 201 -297 201h-150v-402z" />
    <glyph glyph-name="uni042D" unicode="&#x42d;" horiz-adv-x="825" 
d="M350 -10c-93 0 -190 19 -250 70l-52 146h7l53 -119c9 -21 13 -25 25 -35c34 -30 124 -52 214 -52c222 0 403 119 403 378v5h-378c-27 0 -28 -2 -29 -16l-6 -97h-7v237h7l6 -97c1 -14 2 -16 29 -16h378c-8 243 -196 364 -407 364c-88 0 -174 -19 -206 -47
c-12 -10 -15 -14 -24 -35l-46 -110h-7l44 137c58 49 151 65 242 65c235 0 419 -140 419 -389c0 -261 -184 -389 -415 -389z" />
    <glyph glyph-name="uni042E" unicode="&#x42e;" horiz-adv-x="1134" 
d="M67 0v6l60 2c21 1 32 5 32 16v710c0 11 -11 15 -32 16l-60 2v6h197v-6l-60 -2c-21 -1 -32 -5 -32 -16v-330h159c11 204 157 364 371 364c223 0 372 -173 372 -389s-149 -389 -372 -389s-372 173 -372 389v14h-158v-369c0 -11 11 -15 32 -16l60 -2v-6h-197zM702 0
c186 0 357 142 357 379s-171 379 -357 379s-357 -142 -357 -379s171 -379 357 -379z" />
    <glyph glyph-name="uni042F" unicode="&#x42f;" horiz-adv-x="715" 
d="M42 0h-18l346 359c-134 3 -269 37 -269 199c0 171 148 200 305 200h242v-6l-60 -2c-21 -1 -32 -5 -32 -16v-710c0 -11 11 -15 32 -16l60 -2v-6h-197v6l60 2c21 1 32 5 32 16v335h-151h-5zM543 370v377h-139c-154 0 -288 -27 -288 -189c0 -161 134 -188 288 -188h139z" />
    <glyph glyph-name="uni0430" unicode="&#x430;" horiz-adv-x="532" 
d="M217 -10c-98 0 -163 65 -163 137c0 97 102 126 211 151c147 34 150 46 150 86c0 74 -39 138 -149 138c-112 0 -185 -75 -175 -161h-8c-6 0 -9 0 -9 9c0 46 23 93 66 124c32 23 74 38 126 38c109 0 162 -54 161 -159l-2 -342h81v-8l-93 -7v151
c-25 -116 -106 -157 -196 -157zM219 0c97 0 192 56 194 200l2 118c-39 -23 -88 -36 -148 -50c-103 -24 -198 -49 -198 -141c0 -68 60 -127 150 -127z" />
    <glyph glyph-name="uni0431" unicode="&#x431;" horiz-adv-x="614" 
d="M559 246c0 -149 -115 -256 -253 -256c-132 0 -241 96 -241 287c0 315 84 441 291 463c120 13 159 15 159 48h6c0 -41 -42 -47 -164 -60c-178 -19 -268 -118 -279 -360c56 100 159 134 229 134c139 0 252 -99 252 -256zM306 0c124 0 238 92 238 246
c0 163 -114 246 -237 246c-63 0 -172 -30 -229 -134c-1 -14 -1 -29 -1 -44v-37c0 -190 115 -277 229 -277z" />
    <glyph glyph-name="uni0432" unicode="&#x432;" horiz-adv-x="524" 
d="M38 6l50 2c21 1 32 5 32 16v454c0 11 -11 15 -32 16l-50 2v6h222c118 0 192 -38 192 -122c0 -58 -35 -111 -129 -119v-1c115 -5 166 -59 166 -124c0 -86 -55 -136 -228 -136h-223v6zM254 492h-122v-227h152c128 0 153 60 153 115c0 78 -70 112 -183 112zM132 255v-245
h122c171 0 220 45 220 126c0 58 -37 119 -190 119h-152z" />
    <glyph glyph-name="uni0433" unicode="&#x433;" horiz-adv-x="474" 
d="M388 492h-256v-468c0 -11 11 -15 32 -16l70 -2v-6h-196v6l50 2c21 1 32 5 32 16v454c0 11 -11 15 -32 16l-50 2v6h383l28 -147h-7l-31 124c-3 11 -10 13 -23 13z" />
    <glyph glyph-name="uni0434" unicode="&#x434;" horiz-adv-x="553" 
d="M30 -13l-13 -124h-7l8 147h55c66 126 82 299 82 468c0 11 -11 15 -32 16l-50 2v6h442v-6l-50 -2c-21 -1 -32 -5 -32 -16v-468h80l8 -147h-7l-13 124c-1 11 -9 13 -21 13h-429c-12 0 -20 -2 -21 -13zM421 10v482h-255c-2 -200 -20 -365 -82 -482h337z" />
    <glyph glyph-name="uni0435" unicode="&#x435;" horiz-adv-x="580" 
d="M302 -10c-142 0 -246 104 -246 263c0 166 120 259 239 259c120 0 211 -74 231 -210h-451c-3 -15 -4 -32 -4 -49c0 -145 92 -252 233 -252c86 0 192 40 220 162h7c-29 -131 -138 -173 -229 -173zM294 502c-97 0 -194 -67 -218 -190h432c-14 114 -96 190 -214 190z" />
    <glyph glyph-name="uni0436" unicode="&#x436;" horiz-adv-x="762" 
d="M31 0h-16l346 268l-271 212c-14 11 -22 13 -41 14l-44 2v6h159v-6l-32 -1c-34 -1 -33 -8 -22 -16l265 -208v207c0 11 -11 15 -32 16l-50 2v6h176v-6l-50 -2c-21 -1 -32 -5 -32 -16v-207l265 208c11 8 12 15 -22 16l-32 1v6h159v-6l-44 -2c-19 -1 -29 -3 -43 -14
l-269 -211l348 -269h-18l-344 266v-242c0 -11 11 -15 32 -16l50 -2v-6h-176v6l50 2c21 1 32 5 32 16v242z" />
    <glyph glyph-name="uni0437" unicode="&#x437;" horiz-adv-x="477" 
d="M256 -10c-148 0 -201 87 -201 118c0 9 5 11 11 11h4c17 -73 77 -119 186 -119c110 0 171 47 171 131c0 60 -36 124 -183 124h-77v10h77c128 0 153 65 153 122c0 87 -76 115 -151 115c-22 0 -59 -2 -89 -12c-25 -8 -46 -18 -51 -40l-25 -109h-7l20 127
c40 34 105 44 152 44c83 0 166 -31 166 -125c0 -60 -35 -118 -129 -126v-1c110 -5 159 -61 159 -129c0 -89 -66 -141 -186 -141z" />
    <glyph glyph-name="uni0438" unicode="&#x438;" horiz-adv-x="613" 
d="M120 24v454c0 11 -11 15 -32 16l-50 2v6h176v-6l-50 -2c-21 -1 -32 -5 -32 -16v-412l349 389v23c0 11 -11 15 -32 16l-50 2v6h176v-6l-50 -2c-21 -1 -32 -5 -32 -16v-454c0 -11 11 -15 32 -16l50 -2v-6h-176v6l50 2c21 1 32 5 32 16v416l-349 -389v-27
c0 -11 11 -15 32 -16l50 -2v-6h-176v6l50 2c21 1 32 5 32 16z" />
    <glyph glyph-name="uni0439" unicode="&#x439;" horiz-adv-x="613" 
d="M303 594c-106 0 -153 63 -153 150h13c0 -110 79 -140 140 -140c63 0 140 30 140 140h13c0 -98 -62 -150 -153 -150zM120 24v454c0 11 -11 15 -32 16l-50 2v6h176v-6l-50 -2c-21 -1 -32 -5 -32 -16v-412l349 389v23c0 11 -11 15 -32 16l-50 2v6h176v-6l-50 -2
c-21 -1 -32 -5 -32 -16v-454c0 -11 11 -15 32 -16l50 -2v-6h-176v6l50 2c21 1 32 5 32 16v416l-349 -389v-27c0 -11 11 -15 32 -16l50 -2v-6h-176v6l50 2c21 1 32 5 32 16z" />
    <glyph glyph-name="uni043A" unicode="&#x43a;" horiz-adv-x="537" 
d="M120 478c0 11 -11 15 -32 16l-50 2v6h176v-6l-50 -2c-21 -1 -32 -5 -32 -16v-207l285 208c11 8 12 15 -22 16l-32 1v6h159v-6l-44 -2c-19 -1 -29 -4 -43 -14l-289 -211l369 -269h-19l-364 266v-242c0 -11 11 -15 32 -16l50 -2v-6h-176v6l50 2c21 1 32 5 32 16v454z" />
    <glyph glyph-name="uni043B" unicode="&#x43b;" horiz-adv-x="573" 
d="M86 2c-8 -8 -16 -12 -26 -12c-5 0 -8 3 -8 7c0 9 9 17 46 35c61 85 82 242 82 446c0 11 -10 15 -34 16l-50 2v6h439v-6l-50 -2c-21 -1 -32 -5 -32 -16v-454c0 -11 11 -15 32 -16l50 -2v-6h-176v6l50 2c21 1 32 5 32 16v468h-251c0 -226 -21 -407 -104 -490z" />
    <glyph glyph-name="uni043C" unicode="&#x43c;" horiz-adv-x="737" 
d="M38 0v6l49 2c22 1 32 5 33 16l26 454c1 11 -3 15 -29 16l-53 2v6h101l206 -367l204 367h98v-6l-55 -2c-21 -1 -28 -5 -27 -16l26 -454c1 -11 11 -15 33 -16l49 -2v-6h-176v6l50 2c21 1 33 5 32 16l-26 464l-206 -371h-6l-209 372l-26 -465c-1 -11 11 -15 32 -16l50 -2v-6
h-176z" />
    <glyph glyph-name="uni043D" unicode="&#x43d;" horiz-adv-x="603" 
d="M120 24v454c0 11 -11 15 -32 16l-50 2v6h176v-6l-50 -2c-21 -1 -32 -5 -32 -16v-213h339v213c0 11 -11 15 -32 16l-50 2v6h176v-6l-50 -2c-21 -1 -32 -5 -32 -16v-454c0 -11 11 -15 32 -16l50 -2v-6h-176v6l50 2c21 1 32 5 32 16v231h-339v-231c0 -11 11 -15 32 -16
l50 -2v-6h-176v6l50 2c21 1 32 5 32 16z" />
    <glyph glyph-name="uni043E" unicode="&#x43e;" horiz-adv-x="614" 
d="M307 -10c-124 0 -252 94 -252 261s128 261 252 261s252 -94 252 -261s-128 -261 -252 -261zM307 0c113 0 237 85 237 251s-124 251 -237 251s-237 -85 -237 -251s124 -251 237 -251z" />
    <glyph glyph-name="uni043F" unicode="&#x43f;" horiz-adv-x="593" 
d="M461 492h-329v-468c0 -11 11 -15 32 -16l50 -2v-6h-176v6l50 2c21 1 32 5 32 16v454c0 11 -11 15 -32 16l-50 2v6h517v-6l-50 -2c-21 -1 -32 -5 -32 -16v-454c0 -11 11 -15 32 -16l50 -2v-6h-176v6l50 2c21 1 32 5 32 16v468z" />
    <glyph glyph-name="uni0440" unicode="&#x440;" horiz-adv-x="610" 
d="M33 -248v6l50 2c21 1 32 5 32 16v711l-82 9v6h94v-80c35 56 107 90 178 90c151 0 249 -115 249 -261s-98 -261 -249 -261c-72 0 -144 35 -178 90v-304c0 -11 11 -15 32 -16l70 -2v-6h-196zM127 85c50 -64 121 -85 178 -85c144 0 234 113 234 251s-90 251 -234 251
c-57 0 -128 -21 -178 -85v-332z" />
    <glyph glyph-name="uni0441" unicode="&#x441;" horiz-adv-x="569" 
d="M301 -10c-142 0 -246 104 -246 263c0 166 124 259 247 259c141 0 203 -87 203 -118c0 -9 -5 -11 -11 -11h-4c-17 73 -88 119 -189 119c-115 0 -231 -90 -231 -249c0 -145 92 -252 233 -252c86 0 192 40 220 162h7c-29 -131 -138 -173 -229 -173z" />
    <glyph glyph-name="uni0442" unicode="&#x442;" horiz-adv-x="536" 
d="M262 492h-176c-13 0 -20 -2 -23 -13l-31 -124h-7l28 147h430l28 -147h-7l-31 124c-3 11 -10 13 -23 13h-176v-468c0 -11 11 -15 32 -16l60 -2v-6h-196v6l60 2c21 1 32 5 32 16v468z" />
    <glyph glyph-name="uni0443" unicode="&#x443;" horiz-adv-x="572" 
d="M162 -250c-6 0 -9 4 -9 9c0 12 13 34 35 55l88 196l-195 468c-4 10 -11 15 -32 16l-50 2v6h177v-6l-50 -2c-26 -1 -36 -6 -32 -16l189 -452l201 452c4 10 -6 15 -32 16l-50 2v6h176v-6l-50 -2c-21 -1 -28 -6 -32 -16l-304 -683c-16 -37 -22 -45 -30 -45z" />
    <glyph glyph-name="uni0444" unicode="&#x444;" horiz-adv-x="714" 
d="M351 502c-142 0 -281 -85 -281 -251s139 -251 281 -251v502zM644 251c0 166 -139 251 -281 251v-502c142 0 281 85 281 251zM269 -248v6l50 2c21 1 32 5 32 16v214c-154 0 -296 94 -296 261s142 261 296 261v231l-82 9v6h94v-246c154 0 296 -94 296 -261
s-142 -261 -296 -261v-214c0 -11 11 -15 32 -16l50 -2v-6h-176z" />
    <glyph glyph-name="uni0445" unicode="&#x445;" horiz-adv-x="598" 
d="M13 0v6l47 2c19 1 30 4 37 13l195 238l-178 222c-6 8 -18 12 -37 13l-47 2v6h179v-6l-50 -2c-26 -1 -35 -6 -29 -14l170 -212l174 212c7 9 -3 13 -29 14l-50 2v6h178v-6l-47 -2c-19 -1 -30 -4 -37 -13l-182 -221l192 -239c6 -8 16 -12 35 -13l47 -2v-6h-179v6l50 2
c26 1 37 6 31 14l-184 228l-187 -228c-7 -9 3 -13 29 -14l50 -2v-6h-178z" />
    <glyph glyph-name="uni0446" unicode="&#x446;" horiz-adv-x="593" 
d="M520 0h-482v6l50 2c21 1 32 5 32 16v454c0 11 -11 15 -32 16l-50 2v6h176v-6l-50 -2c-21 -1 -32 -5 -32 -16v-468h329v468c0 11 -11 15 -32 16l-50 2v6h176v-6l-50 -2c-21 -1 -32 -5 -32 -16v-468h80l8 -147h-7l-13 124c-1 11 -9 13 -21 13z" />
    <glyph glyph-name="uni0447" unicode="&#x447;" horiz-adv-x="570" 
d="M107 394v84c0 11 -11 15 -32 16l-50 2v6h176v-6l-50 -2c-21 -1 -32 -5 -32 -16v-84c0 -138 55 -172 163 -172c73 0 134 21 156 29v227c0 11 -11 15 -32 16l-50 2v6h176v-6l-50 -2c-21 -1 -32 -5 -32 -16v-454c0 -11 11 -15 32 -16l50 -2v-6h-186v6l60 2c21 1 32 5 32 16
v218c-22 -9 -83 -30 -156 -30c-116 0 -175 38 -175 182z" />
    <glyph glyph-name="uni0448" unicode="&#x448;" horiz-adv-x="836" 
d="M132 10h280v468c0 11 -11 15 -32 16l-50 2v6h176v-6l-50 -2c-21 -1 -32 -5 -32 -16v-468h280v468c0 11 -11 15 -32 16l-50 2v6h176v-6l-50 -2c-21 -1 -32 -5 -32 -16v-454c0 -11 11 -15 32 -16l50 -2v-6h-760v6l50 2c21 1 32 5 32 16v454c0 11 -11 15 -32 16l-50 2v6h176
v-6l-50 -2c-21 -1 -32 -5 -32 -16v-468z" />
    <glyph glyph-name="uni0449" unicode="&#x449;" horiz-adv-x="836" 
d="M763 0h-725v6l50 2c21 1 32 5 32 16v454c0 11 -11 15 -32 16l-50 2v6h176v-6l-50 -2c-21 -1 -32 -5 -32 -16v-468h280v468c0 11 -11 15 -32 16l-50 2v6h176v-6l-50 -2c-21 -1 -32 -5 -32 -16v-468h280v468c0 11 -11 15 -32 16l-50 2v6h176v-6l-50 -2
c-21 -1 -32 -5 -32 -16v-468h80l8 -147h-7l-13 124c-1 11 -9 13 -21 13z" />
    <glyph glyph-name="uni044A" unicode="&#x44a;" horiz-adv-x="569" 
d="M210 492h-124c-13 0 -20 -2 -23 -13l-31 -124h-7l28 147h261v-6l-60 -2c-21 -1 -32 -5 -32 -16v-183h89c170 0 228 -60 228 -148c0 -89 -58 -147 -228 -147h-183v6l50 2c21 1 32 5 32 16v468zM222 285v-275h82c179 0 220 53 220 137c0 81 -41 138 -220 138h-82z" />
    <glyph glyph-name="uni044B" unicode="&#x44b;" horiz-adv-x="703" 
d="M571 24v454c0 11 -11 15 -32 16l-50 2v6h176v-6l-50 -2c-21 -1 -32 -5 -32 -16v-454c0 -11 11 -15 32 -16l50 -2v-6h-176v6l50 2c21 1 32 5 32 16zM224 502v-6l-60 -2c-21 -1 -32 -5 -32 -16v-183h89c170 0 228 -60 228 -148c0 -89 -58 -147 -228 -147h-183v6l50 2
c21 1 32 5 32 16v454c0 11 -11 15 -32 16l-50 2v6h186zM132 285v-275h82c179 0 220 53 220 137c0 81 -41 138 -220 138h-82z" />
    <glyph glyph-name="uni044C" unicode="&#x44c;" horiz-adv-x="479" 
d="M224 502v-6l-60 -2c-21 -1 -32 -5 -32 -16v-183h89c170 0 228 -60 228 -148c0 -89 -58 -147 -228 -147h-183v6l50 2c21 1 32 5 32 16v454c0 11 -11 15 -32 16l-50 2v6h186zM132 285v-275h82c179 0 220 53 220 137c0 81 -41 138 -220 138h-82z" />
    <glyph glyph-name="uni044D" unicode="&#x44d;" horiz-adv-x="555" 
d="M197 255v10h288c-7 129 -98 237 -235 237c-26 0 -69 -3 -104 -14c-25 -8 -46 -18 -51 -38l-25 -109h-7l20 127c43 33 117 44 167 44c146 0 250 -114 250 -263c0 -166 -108 -259 -247 -259c-141 0 -203 87 -203 118c0 9 5 11 11 11h4c17 -73 88 -119 189 -119
c131 0 231 90 231 249v6h-288z" />
    <glyph glyph-name="uni044E" unicode="&#x44e;" horiz-adv-x="804" 
d="M120 24v454c0 11 -11 15 -32 16l-50 2v6h176v-6l-50 -2c-21 -1 -32 -5 -32 -16v-213h133c7 158 126 247 242 247c119 0 242 -94 242 -261s-123 -261 -242 -261s-242 94 -242 261v4h-133v-231c0 -11 11 -15 32 -16l50 -2v-6h-176v6l50 2c21 1 32 5 32 16zM507 0
c108 0 227 85 227 251s-119 251 -227 251s-227 -85 -227 -251s119 -251 227 -251z" />
    <glyph glyph-name="uni044F" unicode="&#x44f;" horiz-adv-x="515" 
d="M35 0l209 229c-77 1 -160 37 -160 130c0 108 87 143 187 143h206v-6l-50 -2c-21 -1 -32 -5 -32 -16v-454c0 -11 11 -15 32 -16l50 -2v-6h-176v6l50 2c21 1 32 5 32 16v202h-129l-206 -226h-13zM277 492c-106 0 -178 -32 -178 -133c0 -90 72 -123 188 -123h96v256h-106z
" />
    <glyph glyph-name="uni0451" unicode="&#x451;" horiz-adv-x="580" 
d="M422 690c-10 0 -19 9 -19 19s9 19 19 19s19 -9 19 -19s-9 -19 -19 -19zM182 690c-10 0 -19 9 -19 19s9 19 19 19s19 -9 19 -19s-9 -19 -19 -19zM302 -10c-142 0 -246 104 -246 263c0 166 120 259 239 259c120 0 211 -74 231 -210h-451c-3 -15 -4 -32 -4 -49
c0 -145 92 -252 233 -252c86 0 192 40 220 162h7c-29 -131 -138 -173 -229 -173zM294 502c-97 0 -194 -67 -218 -190h432c-14 114 -96 190 -214 190z" />
    <glyph glyph-name="uni0452" unicode="&#x452;" horiz-adv-x="578" 
d="M476 14v278c0 145 -50 210 -165 210c-104 0 -184 -75 -184 -210v-268c0 -11 11 -15 32 -16l50 -2v-6h-176v6l50 2c21 1 32 5 32 16v601h-82v11h82v107l-82 9v6h94v-122h153v-11h-153v-279c20 122 102 166 188 166c125 0 171 -71 173 -218v-280c0 -142 -11 -178 -74 -231
c-15 -13 -32 -26 -52 -41l-3 4c100 81 117 98 117 268z" />
    <glyph glyph-name="uni0453" unicode="&#x453;" horiz-adv-x="474" 
d="M263 579l106 179h15v-1l-112 -178h-9zM388 492h-256v-468c0 -11 11 -15 32 -16l70 -2v-6h-196v6l50 2c21 1 32 5 32 16v454c0 11 -11 15 -32 16l-50 2v6h383l28 -147h-7l-31 124c-3 11 -10 13 -23 13z" />
    <glyph glyph-name="uni0454" unicode="&#x454;" horiz-adv-x="570" 
d="M302 -10c-142 0 -246 104 -246 263c0 166 124 259 247 259c141 0 203 -87 203 -118c0 -9 -5 -11 -11 -11h-4c-17 73 -88 119 -189 119c-112 0 -225 -85 -231 -237h299v-10h-299v-2c0 -145 92 -252 233 -252c86 0 192 40 220 162h7c-29 -131 -138 -173 -229 -173z" />
    <glyph glyph-name="uni0455" unicode="&#x455;" horiz-adv-x="472" 
d="M235 -10c-65 0 -124 15 -162 46l-12 137h7l18 -119c3 -19 27 -33 60 -43c26 -7 58 -11 88 -11c90 0 166 46 166 126c0 81 -61 110 -145 125l-45 8c-88 16 -137 58 -137 131c0 64 60 122 163 122c51 0 99 -13 135 -44l20 -127h-7l-25 109c-5 20 -26 33 -51 41
s-53 11 -72 11c-94 0 -150 -51 -150 -113c0 -64 46 -103 126 -118l49 -9c97 -18 153 -55 153 -135c0 -84 -78 -137 -179 -137z" />
    <glyph glyph-name="uni0456" unicode="&#x456;" horiz-adv-x="255" 
d="M111 739c0 10 9 19 19 19s19 -9 19 -19s-9 -19 -19 -19s-19 9 -19 19zM42 0v6l50 2c21 1 32 5 32 16v463l-82 9v6h94v-478c0 -11 11 -15 32 -16l50 -2v-6h-176z" />
    <glyph glyph-name="uni0457" unicode="&#x457;" horiz-adv-x="255" 
d="M46 720c-10 0 -19 9 -19 19s9 19 19 19s19 -9 19 -19s-9 -19 -19 -19zM186 720c-10 0 -19 9 -19 19s9 19 19 19s19 -9 19 -19s-9 -19 -19 -19zM42 0v6l50 2c21 1 32 5 32 16v463l-82 9v6h94v-478c0 -11 11 -15 32 -16l50 -2v-6h-176z" />
    <glyph glyph-name="uni0458" unicode="&#x458;" horiz-adv-x="231" 
d="M102 739c0 10 9 19 19 19s19 -9 19 -19s-9 -19 -19 -19s-19 9 -19 19zM1 -258l-3 4c100 81 117 98 117 268v473l-82 9v6h94v-488c0 -142 -11 -178 -74 -231c-15 -13 -32 -26 -52 -41z" />
    <glyph glyph-name="uni0459" unicode="&#x459;" horiz-adv-x="760" 
d="M505 502v-6l-50 -2c-21 -1 -32 -5 -32 -16v-193h79c170 0 228 -58 228 -143c0 -86 -58 -142 -228 -142h-173v6l50 2c21 1 32 5 32 16v468h-221c0 -202 -17 -368 -79 -460c-15 -21 -32 -42 -49 -42c-8 0 -10 3 -10 8c0 10 18 20 48 35c60 87 80 243 80 445
c0 11 -10 15 -34 16l-50 2v6h409zM423 275v-265h72c179 0 220 51 220 132c0 78 -41 133 -220 133h-72z" />
    <glyph glyph-name="uni045A" unicode="&#x45a;" horiz-adv-x="780" 
d="M120 24v454c0 11 -11 15 -32 16l-50 2v6h176v-6l-50 -2c-21 -1 -32 -5 -32 -16v-203h299v203c0 11 -11 15 -32 16l-50 2v6h176v-6l-50 -2c-21 -1 -32 -5 -32 -16v-203h79c170 0 228 -56 228 -138c0 -83 -58 -137 -228 -137h-173v6l50 2c21 1 32 5 32 16v241h-299v-241
c0 -11 11 -15 32 -16l50 -2v-6h-176v6l50 2c21 1 32 5 32 16zM443 265v-255h72c179 0 220 49 220 127c0 75 -41 128 -220 128h-72z" />
    <glyph glyph-name="uni045B" unicode="&#x45b;" horiz-adv-x="599" 
d="M33 0v6l50 2c21 1 32 5 32 16v601h-82v11h82v107l-82 9v6h94v-122h153v-11h-153v-279c20 122 102 166 188 166c125 0 173 -71 173 -218v-270c0 -11 11 -15 32 -16l50 -2v-6h-176v6l50 2c21 1 32 5 32 16v268c0 145 -50 210 -165 210c-104 0 -184 -75 -184 -210v-268
c0 -11 11 -15 32 -16l50 -2v-6h-176z" />
    <glyph glyph-name="uni045C" unicode="&#x45c;" horiz-adv-x="537" 
d="M300 579l106 179h15v-1l-112 -178h-9zM120 478c0 11 -11 15 -32 16l-50 2v6h176v-6l-50 -2c-21 -1 -32 -5 -32 -16v-207l285 208c11 8 12 15 -22 16l-32 1v6h159v-6l-44 -2c-19 -1 -29 -4 -43 -14l-289 -211l369 -269h-19l-364 266v-242c0 -11 11 -15 32 -16l50 -2v-6
h-176v6l50 2c21 1 32 5 32 16v454z" />
    <glyph glyph-name="uni045E" unicode="&#x45e;" horiz-adv-x="572" 
d="M296 594c-106 0 -153 63 -153 150h13c0 -110 79 -140 140 -140c63 0 140 30 140 140h13c0 -98 -62 -150 -153 -150zM162 -250c-6 0 -9 4 -9 9c0 12 13 34 35 55l88 196l-195 468c-4 10 -11 15 -32 16l-50 2v6h177v-6l-50 -2c-26 -1 -36 -6 -32 -16l189 -452l201 452
c4 10 -6 15 -32 16l-50 2v6h176v-6l-50 -2c-21 -1 -28 -6 -32 -16l-304 -683c-16 -37 -22 -45 -30 -45z" />
    <glyph glyph-name="uni045F" unicode="&#x45f;" horiz-adv-x="593" 
d="M288 -13c0 11 -9 13 -21 13h-229v6l50 2c21 1 32 5 32 16v454c0 11 -11 15 -32 16l-50 2v6h176v-6l-50 -2c-21 -1 -32 -5 -32 -16v-468h329v468c0 11 -11 15 -32 16l-50 2v6h176v-6l-50 -2c-21 -1 -32 -5 -32 -16v-454c0 -11 11 -15 32 -16l50 -2v-6h-228
c-12 0 -21 -2 -21 -13l-5 -124h-8z" />
    <glyph glyph-name="uni0462" unicode="&#x462;" horiz-adv-x="825" 
d="M305 363h157c207 0 305 -60 305 -181c0 -122 -98 -182 -305 -182h-262v6l60 2c21 1 32 5 32 16v593h-226c-10 0 -14 -3 -16 -12l-33 -154h-7l28 177h254v106c0 11 -11 15 -32 16l-60 2v6h197v-6l-60 -2c-21 -1 -32 -5 -32 -16v-106h254l28 -177h-7l-33 154
c-2 9 -6 12 -16 12h-226v-254zM305 11h151c188 0 296 43 296 171c0 127 -108 170 -297 170h-150v-341z" />
    <glyph glyph-name="uni0463" unicode="&#x463;" horiz-adv-x="576" 
d="M217 24v468h-146c-13 0 -20 -2 -23 -13l-31 -124h-7l28 147h179v241l-82 9v6h94v-256h179l28 -147h-7l-31 124c-3 11 -10 13 -23 13h-146v-217h89c157 0 228 -50 228 -138c0 -89 -71 -137 -228 -137h-183v6l50 2c21 1 32 5 32 16zM229 265v-255h82c166 0 220 43 220 127
c0 81 -54 128 -220 128h-82z" />
    <glyph glyph-name="uni0472" unicode="&#x472;" horiz-adv-x="884" 
d="M442 -10c-229 0 -382 173 -382 389s153 389 382 389s382 -173 382 -389s-153 -389 -382 -389zM75 379v-3c286 117 543 -75 734 4c-1 237 -177 378 -367 378c-191 0 -367 -142 -367 -379zM442 0c189 0 363 139 367 371c-196 -83 -448 109 -734 -5
c6 -229 179 -366 367 -366z" />
    <glyph glyph-name="uni0473" unicode="&#x473;" horiz-adv-x="614" 
d="M307 -10c-124 0 -252 94 -252 261s128 261 252 261s252 -94 252 -261s-128 -261 -252 -261zM307 502c-113 0 -237 -85 -237 -249c175 78 334 -84 474 -3v1c0 166 -124 251 -237 251zM307 0c111 0 232 82 237 242c-142 -87 -299 75 -474 2c4 -162 126 -244 237 -244z" />
    <glyph glyph-name="uni0474" unicode="&#x474;" horiz-adv-x="727" 
d="M629 581l-235 -596h-11l-302 749c-4 10 -11 15 -32 16l-60 2v6h198v-6l-60 -2c-26 -1 -36 -6 -32 -16l294 -728l229 578c54 137 87 184 109 184c10 0 11 -6 11 -11c0 -12 -25 -33 -52 -53c-15 -26 -33 -63 -57 -123z" />
    <glyph glyph-name="uni0475" unicode="&#x475;" horiz-adv-x="554" 
d="M436 369c58 138 85 143 95 143c6 0 9 -4 9 -9c0 -11 -21 -26 -49 -45c-14 -19 -25 -45 -44 -90l-158 -378h-7l-204 488c-4 10 -11 15 -32 16l-50 2v6h177v-6l-50 -2c-26 -1 -36 -6 -32 -16l195 -467z" />
    <glyph glyph-name="uni0490" unicode="&#x490;" horiz-adv-x="624" 
d="M596 747h-424v-723c0 -11 11 -16 32 -16l110 -2v-6h-247v6l60 2c21 1 32 5 32 16v710c0 11 -11 15 -32 16l-60 2v6h501c10 0 15 3 16 12l13 144h7z" />
    <glyph glyph-name="uni0491" unicode="&#x491;" horiz-adv-x="444" 
d="M411 492h-279v-468c0 -11 11 -15 32 -16l70 -2v-6h-196v6l50 2c21 1 32 5 32 16v454c0 11 -11 15 -32 16l-50 2v6h340c12 0 20 2 21 13l13 124h7z" />
    <glyph glyph-name="uni0492" unicode="&#x492;" horiz-adv-x="654" 
d="M67 393v11h92v330c0 11 -11 15 -32 16l-60 2v6h529l28 -147h-7l-33 124c-2 9 -6 12 -16 12h-396v-343h239v-11h-239v-369c0 -11 11 -16 32 -16l110 -2v-6h-247v6l60 2c21 1 32 5 32 16v369h-92z" />
    <glyph glyph-name="uni0493" unicode="&#x493;" horiz-adv-x="474" 
d="M38 254v11h82v213c0 11 -11 15 -32 16l-50 2v6h383l28 -147h-7l-31 124c-3 11 -10 13 -23 13h-256v-227h169v-11h-169v-230c0 -11 11 -15 32 -16l70 -2v-6h-196v6l50 2c21 1 32 5 32 16v230h-82z" />
    <glyph glyph-name="uni0496" unicode="&#x496;" horiz-adv-x="1073" 
d="M32 0h-20l486 391l-370 341c-17 16 -28 17 -61 18l-53 2v6h212v-6l-49 -2c-38 -2 -46 -3 -36 -13l377 -347zM1017 0l-486 390l377 347c10 10 2 11 -36 13l-49 2v6h212v-6l-53 -2c-33 -1 -46 -2 -63 -18l-369 -340l474 -381h61l8 -167h-7l-13 144c-1 9 -6 12 -16 12h-40z
M426 0v6l60 2c21 1 32 5 32 16v710c0 11 -11 15 -32 16l-60 2v6h197v-6l-60 -2c-21 -1 -32 -5 -32 -16v-710c0 -11 11 -15 32 -16l60 -2v-6h-197z" />
    <glyph glyph-name="uni0497" unicode="&#x497;" horiz-adv-x="801" 
d="M31 0h-16l346 268l-271 212c-14 11 -22 13 -41 14l-44 2v6h159v-6l-32 -1c-34 -1 -33 -8 -22 -16l265 -208v207c0 11 -11 15 -32 16l-50 2v6h176v-6l-50 -2c-21 -1 -32 -5 -32 -16v-207l265 208c11 8 12 15 -22 16l-32 1v6h159v-6l-44 -2c-19 -1 -29 -3 -43 -14
l-269 -211l335 -259h52l8 -147h-7l-13 124c-1 11 -9 13 -21 13h-24l-344 266v-242c0 -11 11 -15 32 -16l50 -2v-6h-176v6l50 2c21 1 32 5 32 16v242z" />
    <glyph glyph-name="uni049A" unicode="&#x49a;" horiz-adv-x="764" 
d="M708 0l-536 390l417 347c11 9 2 11 -36 13l-49 2v6h212v-6l-53 -2c-33 -1 -45 -3 -63 -18l-408 -340l522 -381h62l8 -167h-7l-13 144c-1 9 -6 12 -16 12h-40zM67 0v6l60 2c21 1 32 5 32 16v710c0 11 -11 15 -32 16l-60 2v6h197v-6l-60 -2c-21 -1 -32 -5 -32 -16v-710
c0 -11 11 -15 32 -16l60 -2v-6h-197z" />
    <glyph glyph-name="uni049B" unicode="&#x49b;" horiz-adv-x="566" 
d="M120 478c0 11 -11 15 -32 16l-50 2v6h176v-6l-50 -2c-21 -1 -32 -5 -32 -16v-207l285 208c11 8 12 15 -22 16l-32 1v6h159v-6l-44 -2c-19 -1 -29 -4 -43 -14l-289 -211l355 -259h52l8 -147h-7l-13 124c-1 11 -9 13 -21 13h-24l-364 266v-242c0 -11 11 -15 32 -16l50 -2
v-6h-176v6l50 2c21 1 32 5 32 16v454z" />
    <glyph glyph-name="uni04A2" unicode="&#x4a2;" horiz-adv-x="881" 
d="M722 11h104l8 -167h-7l-13 144c-1 9 -6 12 -16 12h-181v6l60 2c21 1 32 5 32 16v369h-537v-369c0 -11 11 -15 32 -16l60 -2v-6h-197v6l60 2c21 1 32 5 32 16v710c0 11 -11 15 -32 16l-60 2v6h197v-6l-60 -2c-21 -1 -32 -5 -32 -16v-330h537v330c0 11 -11 15 -32 16l-60 2
v6h197v-6l-60 -2c-21 -1 -32 -5 -32 -16v-723z" />
    <glyph glyph-name="uni04A3" unicode="&#x4a3;" horiz-adv-x="603" 
d="M120 24v454c0 11 -11 15 -32 16l-50 2v6h176v-6l-50 -2c-21 -1 -32 -5 -32 -16v-213h339v213c0 11 -11 15 -32 16l-50 2v6h176v-6l-50 -2c-21 -1 -32 -5 -32 -16v-468h80l8 -147h-7l-13 124c-1 11 -9 13 -21 13h-141v6l50 2c21 1 32 5 32 16v231h-339v-231
c0 -11 11 -15 32 -16l50 -2v-6h-176v6l50 2c21 1 32 5 32 16z" />
    <glyph glyph-name="uni04AE" unicode="&#x4ae;" horiz-adv-x="769" 
d="M287 0v6l60 2c21 1 32 5 32 16v319l-290 391c-6 9 -11 15 -32 16l-60 2v6h199v-6l-60 -2c-26 -1 -38 -7 -32 -16l282 -380l281 380c6 9 -6 15 -32 16l-60 2v6h198v-6l-60 -2c-21 -1 -26 -7 -32 -16l-289 -391v-319c0 -11 11 -15 32 -16l60 -2v-6h-197z" />
    <glyph glyph-name="uni04AF" unicode="&#x4af;" horiz-adv-x="571" 
d="M198 -248v6l50 2c21 1 32 5 32 16v223l-202 479c-4 10 -11 15 -32 16l-50 2v6h177v-6l-50 -2c-26 -1 -36 -6 -32 -16l195 -465l195 465c4 10 -6 15 -32 16l-50 2v6h176v-6l-50 -2c-21 -1 -28 -6 -32 -16l-201 -479v-223c0 -11 11 -15 32 -16l50 -2v-6h-176z" />
    <glyph glyph-name="uni04B0" unicode="&#x4b0;" horiz-adv-x="769" 
d="M287 0v6l60 2c21 1 32 5 32 16v308h-222v11h222l-290 391c-6 9 -11 15 -32 16l-60 2v6h199v-6l-60 -2c-26 -1 -38 -7 -32 -16l282 -380l281 380c6 9 -6 15 -32 16l-60 2v6h198v-6l-60 -2c-21 -1 -26 -7 -32 -16l-289 -391h221v-11h-221v-308c0 -11 11 -15 32 -16l60 -2
v-6h-197z" />
    <glyph glyph-name="uni04B1" unicode="&#x4b1;" horiz-adv-x="571" 
d="M103 -10v10h176l-201 478c-4 10 -11 15 -32 16l-50 2v6h177v-6l-50 -2c-26 -1 -36 -6 -32 -16l195 -465l195 465c4 10 -6 15 -32 16l-50 2v6h176v-6l-50 -2c-21 -1 -28 -6 -32 -16l-200 -478h176v-10h-177v-214c0 -11 11 -15 32 -16l50 -2v-6h-176v6l50 2
c21 1 32 5 32 16v214h-177z" />
    <glyph glyph-name="uni04B2" unicode="&#x4b2;" horiz-adv-x="792" 
d="M-2 0v6l57 2c19 1 28 7 35 16l298 380l-258 330c-6 8 -16 15 -35 16l-57 2v6h200v-6l-60 -3c-26 -1 -37 -8 -31 -16l249 -318l250 318c7 9 -5 15 -31 16l-60 3v6h198v-6l-57 -2c-19 -1 -28 -7 -35 -16l-258 -329l309 -394h82l8 -167h-7l-13 144c-1 9 -6 12 -16 12h-172v6
l60 3c26 1 37 8 31 16l-290 370l-290 -370c-7 -9 5 -15 31 -16l60 -3v-6h-198z" />
    <glyph glyph-name="uni04B3" unicode="&#x4b3;" horiz-adv-x="598" 
d="M13 0v6l47 2c19 1 30 4 37 13l195 238l-178 222c-6 8 -18 12 -37 13l-47 2v6h179v-6l-50 -2c-26 -1 -35 -6 -29 -14l170 -212l174 212c7 9 -3 13 -29 14l-50 2v6h178v-6l-47 -2c-19 -1 -30 -4 -37 -13l-182 -221l201 -250h82l8 -147h-7l-13 124c-1 11 -9 13 -21 13h-155
v6l50 2c26 1 37 6 31 14l-184 228l-187 -228c-7 -9 3 -13 29 -14l50 -2v-6h-178z" />
    <glyph glyph-name="uni04B6" unicode="&#x4b6;" horiz-adv-x="791" 
d="M708 0h-211v6l90 2c21 0 32 5 32 16v349s-111 -40 -217 -40c-108 0 -273 16 -273 252v149c0 11 -11 15 -32 16l-60 2v6h197v-6l-60 -2c-21 -1 -32 -5 -32 -16v-149c0 -225 154 -241 262 -241c105 0 215 40 215 40v350c0 11 -11 15 -32 16l-60 2v6h197v-6l-60 -2
c-21 -1 -32 -5 -32 -16v-723h104l8 -167h-7l-13 144c-1 9 -6 12 -16 12z" />
    <glyph glyph-name="uni04B7" unicode="&#x4b7;" horiz-adv-x="570" 
d="M107 394v84c0 11 -11 15 -32 16l-50 2v6h176v-6l-50 -2c-21 -1 -32 -5 -32 -16v-84c0 -138 55 -172 163 -172c73 0 134 21 156 29v227c0 11 -11 15 -32 16l-50 2v6h176v-6l-50 -2c-21 -1 -32 -5 -32 -16v-468h80l8 -147h-7l-13 124c-1 11 -9 13 -21 13h-151v6l60 2
c21 1 32 5 32 16v218c-22 -9 -83 -30 -156 -30c-116 0 -175 38 -175 182z" />
    <glyph glyph-name="uni04BA" unicode="&#x4ba;" horiz-adv-x="791" 
d="M662 173v-149c0 -11 11 -15 32 -16l60 -2v-6h-197v6l60 2c21 1 32 5 32 16v149c0 225 -154 241 -262 241c-105 0 -215 -40 -215 -40v-350c0 -11 11 -15 32 -16l60 -2v-6h-197v6l60 2c21 1 32 5 32 16v710c0 11 -11 15 -32 16l-60 2v6h227v-6l-90 -2c-21 0 -32 -5 -32 -16
v-349s111 40 217 40c108 0 273 -16 273 -252z" />
    <glyph glyph-name="uni04BB" unicode="&#x4bb;" horiz-adv-x="599" 
d="M33 0v6l50 2c21 1 32 5 32 16v719l-82 9v6h94v-412c20 122 102 166 188 166c125 0 173 -71 173 -218v-270c0 -11 11 -15 32 -16l50 -2v-6h-176v6l50 2c21 1 32 5 32 16v268c0 145 -50 210 -165 210c-104 0 -184 -75 -184 -210v-268c0 -11 11 -15 32 -16l50 -2v-6h-176z
" />
    <glyph glyph-name="uni04C0" unicode="&#x4c0;" horiz-adv-x="331" 
d="M67 0v6l60 2c21 1 32 5 32 16v710c0 11 -11 15 -32 16l-60 2v6h197v-6l-60 -2c-21 -1 -32 -5 -32 -16v-710c0 -11 11 -15 32 -16l60 -2v-6h-197z" />
    <glyph glyph-name="uni04CF" unicode="&#x4cf;" horiz-adv-x="250" 
d="M119 24v710c0 11 -11 15 -32 16l-50 2v6h176v-6l-50 -2c-21 -1 -32 -5 -32 -16v-710c0 -11 11 -15 32 -16l50 -2v-6h-176v6l50 2c21 1 32 5 32 16z" />
    <glyph glyph-name="uni04D8" unicode="&#x4d8;" horiz-adv-x="833" 
d="M400 -9c-184 0 -310 111 -345 277h688c10 34 14 72 14 112c0 238 -159 379 -350 379c-183 0 -319 -108 -347 -288h-8c26 177 159 298 357 298c229 0 363 -172 363 -389c0 -216 -143 -389 -372 -389zM400 1c155 0 294 93 340 256h-669c41 -165 172 -256 329 -256z" />
    <glyph glyph-name="uni04D9" unicode="&#x4d9;" horiz-adv-x="580" 
d="M278 513c142 0 246 -104 246 -263c0 -166 -120 -259 -239 -259c-120 0 -211 74 -231 210h451c3 15 4 32 4 49c0 145 -92 252 -233 252c-86 0 -192 -40 -220 -162h-7c29 131 138 173 229 173zM286 1c97 0 194 67 218 190h-432c14 -114 96 -190 214 -190z" />
    <glyph glyph-name="uni04E2" unicode="&#x4e2;" horiz-adv-x="871" 
d="M316 896v9h274v-9h-274zM67 0v6l60 2c21 1 32 5 32 16v710c0 11 -11 15 -32 16l-60 2v6h197v-6l-60 -2c-21 -1 -32 -5 -32 -16v-659l527 632v27c0 11 -11 15 -32 16l-60 2v6h197v-6l-60 -2c-21 -1 -32 -5 -32 -16v-710c0 -11 11 -15 32 -16l60 -2v-6h-197v6l60 2
c21 1 32 5 32 16v667l-527 -632v-35c0 -11 11 -15 32 -16l60 -2v-6h-197z" />
    <glyph glyph-name="uni04E3" unicode="&#x4e3;" horiz-adv-x="613" 
d="M175 667v9h274v-9h-274zM120 24v454c0 11 -11 15 -32 16l-50 2v6h176v-6l-50 -2c-21 -1 -32 -5 -32 -16v-412l349 389v23c0 11 -11 15 -32 16l-50 2v6h176v-6l-50 -2c-21 -1 -32 -5 -32 -16v-454c0 -11 11 -15 32 -16l50 -2v-6h-176v6l50 2c21 1 32 5 32 16v416
l-349 -389v-27c0 -11 11 -15 32 -16l50 -2v-6h-176v6l50 2c21 1 32 5 32 16z" />
    <glyph glyph-name="uni04E8" unicode="&#x4e8;" horiz-adv-x="884" 
d="M442 -10c-229 0 -382 173 -382 389s153 389 382 389s382 -173 382 -389s-153 -389 -382 -389zM442 758c-184 0 -354 -132 -366 -354h732c-12 222 -182 354 -366 354zM442 0c191 0 367 142 367 379v14h-734v-14c0 -237 176 -379 367 -379z" />
    <glyph glyph-name="uni04E9" unicode="&#x4e9;" horiz-adv-x="614" 
d="M307 -10c-124 0 -252 94 -252 261s128 261 252 261s252 -94 252 -261s-128 -261 -252 -261zM307 502c-110 0 -230 -80 -237 -237h474c-7 157 -127 237 -237 237zM307 0c113 0 237 85 237 251v4h-474v-4c0 -166 124 -251 237 -251z" />
    <glyph glyph-name="uni04EE" unicode="&#x4ee;" horiz-adv-x="766" 
d="M259 896v9h274v-9h-274zM373 132c-48 -92 -83 -142 -121 -142c-7 0 -11 4 -11 9c0 13 20 21 56 32c29 37 46 71 93 158l-310 545c-6 10 -11 15 -32 16l-60 2v6h198v-6l-60 -2c-26 -1 -37 -6 -31 -16l302 -531l275 531c5 10 -4 15 -30 16l-62 2v6h197v-6l-60 -2
c-21 -1 -27 -6 -32 -16z" />
    <glyph glyph-name="uni04EF" unicode="&#x4ef;" horiz-adv-x="572" 
d="M157 667v9h274v-9h-274zM162 -250c-6 0 -9 4 -9 9c0 12 13 34 35 55l88 196l-195 468c-4 10 -11 15 -32 16l-50 2v6h177v-6l-50 -2c-26 -1 -36 -6 -32 -16l189 -452l201 452c4 10 -6 15 -32 16l-50 2v6h176v-6l-50 -2c-21 -1 -28 -6 -32 -16l-304 -683
c-16 -37 -22 -45 -30 -45z" />
    <glyph glyph-name="Wgrave" unicode="&#x1e80;" horiz-adv-x="1188" 
d="M660 833h-12l-170 138v1h16zM383 -15l-302 749c-4 10 -11 15 -32 16l-60 2v6h198v-6l-60 -2c-26 -1 -36 -6 -32 -16l294 -728l208 520l-84 232h166v-6l-110 -2c-26 0 -36 -6 -32 -16l263 -728l294 728c4 10 -6 15 -32 16l-60 2v6h197v-6l-60 -2c-21 -1 -28 -6 -32 -16
l-302 -749h-11l-191 524l-210 -524h-10z" />
    <glyph glyph-name="wgrave" unicode="&#x1e81;" horiz-adv-x="865" 
d="M479 579h-9l-112 178v1h15zM282 -10l-204 488c-4 10 -11 15 -32 16l-50 2v6h177v-6l-50 -2c-26 -1 -36 -6 -32 -16l195 -468l149 349l-54 143h127v-6l-72 -2c-26 -1 -36 -6 -32 -16l176 -467l195 467c4 10 -6 15 -32 16l-50 2v6h176v-6l-50 -2c-21 -1 -28 -6 -32 -16
l-204 -488h-7l-135 354l-152 -354h-7z" />
    <glyph glyph-name="Wacute" unicode="&#x1e82;" horiz-adv-x="1188" 
d="M551 833l166 139h16v-1l-170 -138h-12zM383 -15l-302 749c-4 10 -11 15 -32 16l-60 2v6h198v-6l-60 -2c-26 -1 -36 -6 -32 -16l294 -728l208 520l-84 232h166v-6l-110 -2c-26 0 -36 -6 -32 -16l263 -728l294 728c4 10 -6 15 -32 16l-60 2v6h197v-6l-60 -2
c-21 -1 -28 -6 -32 -16l-302 -749h-11l-191 524l-210 -524h-10z" />
    <glyph glyph-name="wacute" unicode="&#x1e83;" horiz-adv-x="865" 
d="M393 579l106 179h15v-1l-112 -178h-9zM282 -10l-204 488c-4 10 -11 15 -32 16l-50 2v6h177v-6l-50 -2c-26 -1 -36 -6 -32 -16l195 -468l149 349l-54 143h127v-6l-72 -2c-26 -1 -36 -6 -32 -16l176 -467l195 467c4 10 -6 15 -32 16l-50 2v6h176v-6l-50 -2
c-21 -1 -28 -6 -32 -16l-204 -488h-7l-135 354l-152 -354h-7z" />
    <glyph glyph-name="Wdieresis" unicode="&#x1e84;" horiz-adv-x="1188" 
d="M474 917c-10 0 -19 9 -19 19s9 19 19 19s19 -9 19 -19s-9 -19 -19 -19zM714 917c-10 0 -19 9 -19 19s9 19 19 19s19 -9 19 -19s-9 -19 -19 -19zM383 -15l-302 749c-4 10 -11 15 -32 16l-60 2v6h198v-6l-60 -2c-26 -1 -36 -6 -32 -16l294 -728l208 520l-84 232h166v-6
l-110 -2c-26 0 -36 -6 -32 -16l263 -728l294 728c4 10 -6 15 -32 16l-60 2v6h197v-6l-60 -2c-21 -1 -28 -6 -32 -16l-302 -749h-11l-191 524l-210 -524h-10z" />
    <glyph glyph-name="wdieresis" unicode="&#x1e85;" horiz-adv-x="865" 
d="M552 690c-10 0 -19 9 -19 19s9 19 19 19s19 -9 19 -19s-9 -19 -19 -19zM312 690c-10 0 -19 9 -19 19s9 19 19 19s19 -9 19 -19s-9 -19 -19 -19zM282 -10l-204 488c-4 10 -11 15 -32 16l-50 2v6h177v-6l-50 -2c-26 -1 -36 -6 -32 -16l195 -468l149 349l-54 143h127v-6
l-72 -2c-26 -1 -36 -6 -32 -16l176 -467l195 467c4 10 -6 15 -32 16l-50 2v6h176v-6l-50 -2c-21 -1 -28 -6 -32 -16l-204 -488h-7l-135 354l-152 -354h-7z" />
    <glyph glyph-name="uni1ECA" unicode="&#x1eca;" horiz-adv-x="331" 
d="M67 0v6l60 2c21 1 32 5 32 16v710c0 11 -11 15 -32 16l-60 2v6h197v-6l-60 -2c-21 -1 -32 -5 -32 -16v-710c0 -11 11 -15 32 -16l60 -2v-6h-197zM166 -190c-10 0 -19 9 -19 19s9 19 19 19s19 -9 19 -19s-9 -19 -19 -19z" />
    <glyph glyph-name="uni1ECB" unicode="&#x1ecb;" horiz-adv-x="255" 
d="M111 739c0 10 9 19 19 19s19 -9 19 -19s-9 -19 -19 -19s-19 9 -19 19zM42 0v6l50 2c21 1 32 5 32 16v463l-82 9v6h94v-478c0 -11 11 -15 32 -16l50 -2v-6h-176zM130 -190c-10 0 -19 9 -19 19s9 19 19 19s19 -9 19 -19s-9 -19 -19 -19z" />
    <glyph glyph-name="uni1ECC" unicode="&#x1ecc;" horiz-adv-x="884" 
d="M442 -10c-229 0 -382 173 -382 389s153 389 382 389s382 -173 382 -389s-153 -389 -382 -389zM442 0c191 0 367 142 367 379s-176 379 -367 379s-367 -142 -367 -379s176 -379 367 -379zM443 -191c-10 0 -19 9 -19 19s9 19 19 19s19 -9 19 -19s-9 -19 -19 -19z" />
    <glyph glyph-name="uni1ECD" unicode="&#x1ecd;" horiz-adv-x="614" 
d="M307 -10c-124 0 -252 94 -252 261s128 261 252 261s252 -94 252 -261s-128 -261 -252 -261zM307 0c113 0 237 85 237 251s-124 251 -237 251s-237 -85 -237 -251s124 -251 237 -251zM307 -190c-10 0 -19 9 -19 19s9 19 19 19s19 -9 19 -19s-9 -19 -19 -19z" />
    <glyph glyph-name="uni1EE4" unicode="&#x1ee4;" horiz-adv-x="858" 
d="M429 -10c-195 0 -293 104 -293 308v436c0 11 -11 15 -32 16l-60 2v6h197v-6l-60 -2c-21 -1 -32 -5 -32 -16v-436c0 -178 76 -298 280 -298s280 120 280 298v436c0 11 -11 15 -32 16l-60 2v6h197v-6l-60 -2c-21 -1 -32 -5 -32 -16v-436c0 -204 -98 -308 -293 -308z
M429 -190c-10 0 -19 9 -19 19s9 19 19 19s19 -9 19 -19s-9 -19 -19 -19z" />
    <glyph glyph-name="uni1EE5" unicode="&#x1ee5;" horiz-adv-x="597" 
d="M283 -10c-125 0 -173 71 -173 218v279l-82 9v6h94v-292c0 -145 50 -210 165 -210c104 0 184 75 184 210v277l-82 9v6h94v-492h82v-6l-94 -9v161c-20 -122 -102 -166 -188 -166zM307 -190c-10 0 -19 9 -19 19s9 19 19 19s19 -9 19 -19s-9 -19 -19 -19z" />
    <glyph glyph-name="Ygrave" unicode="&#x1ef2;" horiz-adv-x="769" 
d="M452 833h-12l-170 138v1h16zM287 0v6l60 2c21 1 32 5 32 16v319l-290 391c-6 9 -11 15 -32 16l-60 2v6h199v-6l-60 -2c-26 -1 -38 -7 -32 -16l282 -380l281 380c6 9 -6 15 -32 16l-60 2v6h198v-6l-60 -2c-21 -1 -26 -7 -32 -16l-289 -391v-319c0 -11 11 -15 32 -16l60 -2
v-6h-197z" />
    <glyph glyph-name="ygrave" unicode="&#x1ef3;" horiz-adv-x="572" 
d="M335 579h-9l-112 178v1h15zM162 -250c-6 0 -9 4 -9 9c0 12 13 34 35 55l88 196l-195 468c-4 10 -11 15 -32 16l-50 2v6h177v-6l-50 -2c-26 -1 -36 -6 -32 -16l189 -452l201 452c4 10 -6 15 -32 16l-50 2v6h176v-6l-50 -2c-21 -1 -28 -6 -32 -16l-304 -683
c-16 -37 -22 -45 -30 -45z" />
    <glyph glyph-name="uni2007" unicode="&#x2007;" horiz-adv-x="662" 
 />
    <glyph glyph-name="uni2008" unicode="&#x2008;" horiz-adv-x="179" 
 />
    <glyph glyph-name="uni2009" unicode="&#x2009;" horiz-adv-x="59" 
 />
    <glyph glyph-name="uni200B" unicode="&#x200b;" 
 />
    <glyph glyph-name="endash" unicode="&#x2013;" horiz-adv-x="574" 
d="M80 254v11h414v-11h-414z" />
    <glyph glyph-name="emdash" unicode="&#x2014;" horiz-adv-x="821" 
d="M80 254v11h661v-11h-661z" />
    <glyph glyph-name="quoteleft" unicode="&#x2018;" horiz-adv-x="210" 
d="M166 768l7 -7c-66 -67 -88 -123 -88 -158c0 -20 8 -35 21 -44c0 -11 -8 -20 -19 -20c-13 0 -20 9 -20 31c0 40 11 110 99 198z" />
    <glyph glyph-name="quoteright" unicode="&#x2019;" horiz-adv-x="216" 
d="M65 539l-7 7c66 67 88 123 88 158c0 20 -8 35 -21 44c0 11 8 20 19 20c13 0 20 -9 20 -31c0 -40 -11 -110 -99 -198z" />
    <glyph glyph-name="quotesinglbase" unicode="&#x201a;" horiz-adv-x="159" 
d="M3 -200l-7 7c66 67 88 123 88 158c0 20 -8 35 -21 44c0 11 8 20 19 20c13 0 20 -9 20 -31c0 -40 -11 -110 -99 -198z" />
    <glyph glyph-name="quotedblleft" unicode="&#x201c;" horiz-adv-x="410" 
d="M166 768l7 -7c-66 -67 -88 -123 -88 -158c0 -20 8 -35 21 -44c0 -11 -8 -20 -19 -20c-13 0 -20 9 -20 31c0 40 11 110 99 198zM366 768l7 -7c-66 -67 -88 -123 -88 -158c0 -20 8 -35 21 -44c0 -11 -8 -20 -19 -20c-13 0 -20 9 -20 31c0 40 11 110 99 198z" />
    <glyph glyph-name="quotedblright" unicode="&#x201d;" horiz-adv-x="416" 
d="M65 539l-7 7c66 67 88 123 88 158c0 20 -8 35 -21 44c0 11 8 20 19 20c13 0 20 -9 20 -31c0 -40 -11 -110 -99 -198zM265 539l-7 7c66 67 88 123 88 158c0 20 -8 35 -21 44c0 11 8 20 19 20c13 0 20 -9 20 -31c0 -40 -11 -110 -99 -198z" />
    <glyph glyph-name="quotedblbase" unicode="&#x201e;" horiz-adv-x="359" 
d="M3 -200l-7 7c66 67 88 123 88 158c0 20 -8 35 -21 44c0 11 8 20 19 20c13 0 20 -9 20 -31c0 -40 -11 -110 -99 -198zM203 -200l-7 7c66 67 88 123 88 158c0 20 -8 35 -21 44c0 11 8 20 19 20c13 0 20 -9 20 -31c0 -40 -11 -110 -99 -198z" />
    <glyph glyph-name="dagger" unicode="&#x2020;" horiz-adv-x="662" 
d="M325 -228v390c0 63 0 68 -7 103c7 35 7 40 7 103v141h-153c-63 0 -68 0 -103 -7c-7 2 -13 5 -16 12c3 7 9 10 16 12c35 -7 40 -7 103 -7h153v141c0 63 0 68 -7 103c2 7 6 13 13 16c7 -3 11 -9 13 -16c-7 -35 -7 -40 -7 -103v-141h153c63 0 68 0 103 7c7 -2 13 -5 16 -12
c-3 -7 -9 -10 -16 -12c-35 7 -40 7 -103 7h-153v-141c0 -63 0 -68 7 -103c-7 -35 -7 -40 -7 -103v-390h-12z" />
    <glyph glyph-name="daggerdbl" unicode="&#x2021;" horiz-adv-x="662" 
d="M69 4c-7 2 -13 5 -16 12c3 7 9 10 16 12c35 -7 40 -7 103 -7h153v141c0 63 0 68 -7 103c7 35 7 40 7 103v141h-153c-63 0 -68 0 -103 -7c-7 2 -13 5 -16 12c3 7 9 10 16 12c35 -7 40 -7 103 -7h153v141c0 63 0 68 -7 103c2 7 6 13 13 16c7 -3 11 -9 13 -16
c-7 -35 -7 -40 -7 -103v-141h153c63 0 68 0 103 7c7 -2 13 -5 16 -12c-3 -7 -9 -10 -16 -12c-35 7 -40 7 -103 7h-153v-141c0 -63 0 -68 7 -103c-7 -35 -7 -40 -7 -103v-141h153c63 0 68 0 103 7c7 -2 13 -5 16 -12c-3 -7 -9 -10 -16 -12c-35 7 -40 7 -103 7h-153v-141
c0 -63 0 -68 7 -103c-2 -7 -6 -13 -13 -16c-7 3 -11 9 -13 16c7 35 7 40 7 103v141h-153c-63 0 -68 0 -103 -7z" />
    <glyph glyph-name="bullet" unicode="&#x2022;" horiz-adv-x="433" 
d="M216 258c-69 0 -126 57 -126 127c0 69 57 126 126 126c70 0 127 -57 127 -126c0 -70 -57 -127 -127 -127z" />
    <glyph glyph-name="ellipsis" unicode="&#x2026;" horiz-adv-x="657" 
d="M89 -10c-11 0 -19 9 -19 19c0 11 8 20 19 20c12 0 20 -9 20 -20c0 -10 -8 -19 -20 -19zM328 -10c-11 0 -19 9 -19 19c0 11 8 20 19 20c12 0 20 -9 20 -20c0 -10 -8 -19 -20 -19zM567 -10c-11 0 -19 9 -19 19c0 11 8 20 19 20c12 0 20 -9 20 -20c0 -10 -8 -19 -20 -19z
" />
    <glyph glyph-name="perthousand" unicode="&#x2030;" horiz-adv-x="1314" 
d="M51 550c0 123 57 218 146 218c90 0 147 -95 147 -218c0 -124 -57 -219 -147 -219c-89 0 -146 95 -146 219zM65 550c0 -135 57 -210 132 -210s133 75 133 210c0 134 -58 209 -133 209s-132 -75 -132 -209zM172 0l566 758h14l-566 -758h-14zM581 209c0 123 57 218 146 218
c90 0 147 -95 147 -218c0 -124 -57 -219 -147 -219c-89 0 -146 95 -146 219zM981 209c0 123 57 218 146 218c90 0 147 -95 147 -218c0 -124 -57 -219 -147 -219c-89 0 -146 95 -146 219zM595 209c0 -135 57 -210 132 -210s133 75 133 210c0 134 -58 209 -133 209
s-132 -75 -132 -209zM995 209c0 -135 57 -210 132 -210s133 75 133 210c0 134 -58 209 -133 209s-132 -75 -132 -209z" />
    <glyph glyph-name="guilsinglleft" unicode="&#x2039;" horiz-adv-x="336" 
d="M68 258l207 -206l-7 -8l-216 214l216 214l7 -8z" />
    <glyph glyph-name="guilsinglright" unicode="&#x203a;" horiz-adv-x="336" 
d="M268 258l-207 206l7 8l216 -214l-216 -214l-7 8z" />
    <glyph glyph-name="fraction" unicode="&#x2044;" horiz-adv-x="160" 
d="M-208 0l566 758h14l-566 -758h-14z" />
    <glyph glyph-name="uni2060" unicode="&#x2060;" 
 />
    <glyph glyph-name="zero.superior" unicode="&#x2070;" horiz-adv-x="391" 
d="M49 610c0 123 57 218 146 218c90 0 147 -95 147 -218c0 -124 -57 -219 -147 -219c-89 0 -146 95 -146 219zM63 610c0 -135 57 -210 132 -210s133 75 133 210c0 134 -58 209 -133 209s-132 -75 -132 -209z" />
    <glyph glyph-name="four.superior" unicode="&#x2074;" horiz-adv-x="395" 
d="M268 401v120h-248l251 299h9v-289h88v-10h-88v-120h-12zM39 531h229v272z" />
    <glyph glyph-name="five.superior" unicode="&#x2075;" horiz-adv-x="348" 
d="M154 391c-85 0 -125 57 -125 76c0 6 6 10 12 9c10 -46 53 -76 114 -76c76 0 130 51 130 125c0 70 -55 131 -203 147l38 146h187l-3 -10h-176l-33 -127c145 -17 201 -77 201 -156c0 -78 -58 -134 -142 -134z" />
    <glyph glyph-name="six.superior" unicode="&#x2076;" horiz-adv-x="359" 
d="M314 523c0 -73 -58 -132 -133 -132c-90 0 -135 74 -135 155c0 128 103 236 265 287l1 -5c-132 -46 -225 -126 -248 -231c28 37 80 58 122 58c70 0 128 -51 128 -132zM59 546c0 -88 47 -146 122 -146c66 0 120 50 120 123c0 74 -51 123 -118 123c-44 0 -96 -22 -120 -57
c-3 -14 -4 -28 -4 -43z" />
    <glyph glyph-name="seven.superior" unicode="&#x2077;" horiz-adv-x="340" 
d="M59 818h271l-167 -282c-34 -57 -45 -74 -71 -127c-4 -8 -7 -12 -13 -13l-6 -1c-7 -1 -2 10 2 17c80 134 153 253 242 396h-237c-10 0 -14 -3 -17 -11l-29 -71h-6z" />
    <glyph glyph-name="eight.superior" unicode="&#x2078;" horiz-adv-x="355" 
d="M177 391c-71 0 -131 41 -131 110c0 60 44 104 122 128c-61 32 -98 62 -98 111c0 58 53 88 109 88c49 0 107 -27 107 -86c0 -60 -56 -98 -100 -112l14 -7c61 -32 109 -63 109 -121c0 -61 -47 -111 -132 -111zM179 634l3 -2c48 17 93 51 93 109c0 56 -53 78 -97 78
c-49 0 -98 -26 -98 -79c0 -48 40 -75 99 -106zM57 501c0 -66 60 -101 120 -101c74 0 121 40 121 102c0 53 -43 81 -104 113l-19 10l-3 2c-59 -19 -115 -56 -115 -126z" />
    <glyph glyph-name="nine.superior" unicode="&#x2079;" horiz-adv-x="358" 
d="M312 673c0 -128 -103 -236 -265 -287l-1 5c132 46 225 126 248 231c-28 -37 -80 -58 -122 -58c-70 0 -128 51 -128 132c0 73 58 132 133 132c90 0 135 -74 135 -155zM57 696c0 -74 51 -123 118 -123c44 0 96 22 120 57c3 14 4 28 4 43c0 88 -47 146 -122 146
c-66 0 -120 -50 -120 -123z" />
    <glyph glyph-name="zero.inferior" unicode="&#x2080;" horiz-adv-x="391" 
d="M49 149c0 123 57 218 146 218c90 0 147 -95 147 -218c0 -124 -57 -219 -147 -219c-89 0 -146 95 -146 219zM63 149c0 -135 57 -210 132 -210s133 75 133 210c0 134 -58 209 -133 209s-132 -75 -132 -209z" />
    <glyph glyph-name="one.inferior" unicode="&#x2081;" horiz-adv-x="225" 
d="M126 -42v394l-100 -43v9l112 48v-408c0 -7 6 -11 18 -11l39 -1v-6h-129v6l41 2c13 1 19 3 19 10z" />
    <glyph glyph-name="two.inferior" unicode="&#x2082;" horiz-adv-x="348" 
d="M20 -60v2c151 143 248 233 248 324c0 62 -39 92 -95 92c-59 0 -105 -41 -104 -112h-6c-2 72 44 121 114 121s104 -45 104 -99c0 -80 -69 -159 -212 -287l-35 -31h229c10 0 14 2 17 10l29 72h6l-31 -92h-264z" />
    <glyph glyph-name="three.inferior" unicode="&#x2083;" horiz-adv-x="345" 
d="M161 -70c-85 0 -123 57 -123 76c0 6 5 10 12 9c9 -43 48 -76 111 -76c65 0 126 45 126 129c0 73 -58 115 -102 115c-20 0 -38 -8 -50 -13l-3 7l13 5c63 24 109 58 109 107c0 43 -33 69 -85 69c-49 0 -97 -29 -104 -87h-5c6 61 57 96 112 96c63 0 94 -36 94 -75
c0 -51 -46 -82 -77 -97v-1c52 -4 111 -49 111 -125c0 -88 -73 -139 -139 -139z" />
    <glyph glyph-name="four.inferior" unicode="&#x2084;" horiz-adv-x="395" 
d="M269 -60v120h-248l251 299h9v-289h88v-10h-88v-120h-12zM40 70h229v272z" />
    <glyph glyph-name="five.inferior" unicode="&#x2085;" horiz-adv-x="348" 
d="M154 -70c-85 0 -125 57 -125 76c0 6 6 10 12 9c10 -46 53 -76 114 -76c76 0 130 51 130 125c0 70 -55 131 -203 147l38 146h187l-3 -10h-176l-33 -127c145 -17 201 -77 201 -156c0 -78 -58 -134 -142 -134z" />
    <glyph glyph-name="six.inferior" unicode="&#x2086;" horiz-adv-x="359" 
d="M314 62c0 -73 -58 -132 -133 -132c-90 0 -135 74 -135 155c0 128 103 236 265 287l1 -5c-132 -46 -225 -126 -248 -231c28 37 80 58 122 58c70 0 128 -51 128 -132zM59 85c0 -88 47 -146 122 -146c66 0 120 50 120 123c0 74 -51 123 -118 123c-44 0 -96 -22 -120 -57
c-3 -14 -4 -28 -4 -43z" />
    <glyph glyph-name="seven.inferior" unicode="&#x2087;" horiz-adv-x="340" 
d="M60 357h271l-167 -282c-34 -57 -45 -74 -71 -127c-4 -8 -7 -12 -13 -13l-6 -1c-7 -1 -2 10 2 17c80 134 153 253 242 396h-237c-10 0 -14 -3 -17 -11l-29 -71h-6z" />
    <glyph glyph-name="eight.inferior" unicode="&#x2088;" horiz-adv-x="355" 
d="M177 -70c-71 0 -131 41 -131 110c0 60 44 104 122 128c-61 32 -98 62 -98 111c0 58 53 88 109 88c49 0 107 -27 107 -86c0 -60 -56 -98 -100 -112l14 -7c61 -32 109 -63 109 -121c0 -61 -47 -111 -132 -111zM179 173l3 -2c48 17 93 51 93 109c0 56 -53 78 -97 78
c-49 0 -98 -26 -98 -79c0 -48 40 -75 99 -106zM57 40c0 -66 60 -101 120 -101c74 0 121 40 121 102c0 53 -43 81 -104 113l-19 10l-3 2c-59 -19 -115 -56 -115 -126z" />
    <glyph glyph-name="nine.inferior" unicode="&#x2089;" horiz-adv-x="358" 
d="M313 212c0 -128 -103 -236 -265 -287l-1 5c132 46 225 126 248 231c-28 -37 -80 -58 -122 -58c-70 0 -128 51 -128 132c0 73 58 132 133 132c90 0 135 -74 135 -155zM58 235c0 -74 51 -123 118 -123c44 0 96 22 120 57c3 14 4 28 4 43c0 88 -47 146 -122 146
c-66 0 -120 -50 -120 -123z" />
    <glyph glyph-name="Euro" unicode="&#x20ac;" horiz-adv-x="872" 
d="M40 306l3 11h143c-3 21 -4 43 -4 65c0 26 2 51 5 74h-146l3 11h145c33 194 178 301 341 301c175 0 254 -102 254 -132c0 -9 -6 -13 -15 -12c-17 76 -113 134 -239 134c-154 0 -293 -104 -326 -291h421l-3 -11h-420c-3 -23 -5 -48 -5 -74c0 -22 1 -44 4 -65h380l-3 -11
h-375c27 -185 156 -305 324 -305c110 0 258 65 294 247h6c-37 -195 -186 -258 -303 -258c-170 0 -308 122 -337 316h-147z" />
    <glyph glyph-name="uni20B4" unicode="&#x20b4;" horiz-adv-x="615" 
d="M37 448v11h399c54 34 84 80 84 145c0 116 -90 154 -193 154c-48 0 -119 -7 -156 -31c-12 -7 -17 -10 -24 -32l-35 -110h-7l33 137c52 35 115 46 190 46c111 0 205 -44 205 -164c0 -64 -26 -110 -73 -145h118v-11h-541zM37 298v11h541v-11h-441c-27 -29 -43 -67 -43 -116
c0 -116 83 -182 208 -182c46 0 125 10 175 41c13 8 18 11 24 33l36 124h7l-34 -153c-58 -39 -133 -55 -208 -55c-142 0 -222 77 -222 195c0 47 14 83 38 113h-81z" />
    <glyph glyph-name="uni20B8" unicode="&#x20b8;" horiz-adv-x="673" 
d="M55 747l2 11h559l2 -11h-563zM238 0v6l60 2c21 1 32 5 32 16v573h-256c-10 0 -14 -3 -16 -12l-33 -154h-7l28 177h581l28 -177h-7l-33 154c-2 9 -6 12 -16 12h-256v-573c0 -11 11 -15 32 -16l60 -2v-6h-197z" />
    <glyph glyph-name="uni20BD" unicode="&#x20bd;" horiz-adv-x="686" 
d="M67 0v6l60 2c21 1 32 5 32 16v192h-92v11h92v139h-92v11h92v357c0 11 -11 15 -32 16l-60 2v6h286c152 0 293 -29 293 -196s-141 -196 -293 -196h-181v-139h366v-11h-366v-192c0 -11 11 -16 32 -16l110 -2v-6h-247zM172 747v-370h169c158 0 290 27 290 185
s-132 185 -290 185h-169z" />
    <glyph glyph-name="uni2116" unicode="&#x2116;" horiz-adv-x="1213" 
d="M860 550c0 123 57 218 146 218c90 0 147 -95 147 -218c0 -124 -57 -219 -147 -219c-89 0 -146 95 -146 219zM874 550c0 -135 57 -210 132 -210s133 75 133 210c0 134 -58 209 -133 209s-132 -75 -132 -209zM65 0v6l60 2c21 1 32 5 32 16v640l-76 93v1h14l615 -745v721
c0 11 -11 15 -32 16l-60 2v6h197v-6l-60 -2c-21 -1 -32 -5 -32 -16v-756h-2l-551 671v-625c0 -11 11 -15 32 -16l60 -2v-6h-197zM870 251v11h274v-11h-274z" />
    <glyph glyph-name="uni2117" unicode="&#x2117;" horiz-adv-x="884" 
d="M442 -10c-229 0 -382 173 -382 389s153 389 382 389s382 -173 382 -389s-153 -389 -382 -389zM442 0c191 0 367 142 367 379s-176 379 -367 379s-367 -142 -367 -379s176 -379 367 -379zM292 178v7l33 2c13 1 19 3 19 12v388c0 9 -6 11 -19 12l-33 2v7h176
c87 0 167 -18 167 -112s-80 -113 -167 -113h-97v10h90c88 0 160 18 160 102c0 85 -72 103 -160 103h-105v-399c0 -9 7 -12 19 -12l61 -1v-8h-144z" />
    <glyph glyph-name="trademark" unicode="&#x2122;" horiz-adv-x="1154" 
d="M187 288v8l37 1c14 0 21 3 21 11v440h-166c-6 0 -9 -2 -10 -8l-21 -98h-8l18 116h386l17 -116h-7l-21 98c-1 6 -4 8 -11 8h-165v-440c0 -8 7 -11 20 -11l38 -1v-8h-128zM527 288v8l36 1c14 0 21 3 21 11v430c0 7 -7 11 -21 11l-36 1v8h76l198 -353l201 353h76v-8l-37 -1
c-13 0 -20 -4 -20 -11v-430c0 -8 7 -11 20 -11l37 -1v-8h-126v8l36 1c14 0 21 3 21 11v440l-206 -364h-4l-203 364v-440c0 -8 7 -11 20 -11l36 -1v-8h-125z" />
    <glyph glyph-name="uni2150" unicode="&#x2150;" horiz-adv-x="725" 
d="M126 359v394l-100 -43v9l112 48v-408c0 -7 6 -11 18 -11l39 -1v-6h-129v6l41 2c13 1 19 3 19 10zM17 0l566 758h14l-566 -758h-14zM444 417h271l-167 -282c-34 -57 -45 -74 -71 -127c-4 -8 -7 -12 -13 -13l-6 -1c-7 -1 -2 10 2 17c80 134 153 253 242 396h-237
c-10 0 -14 -3 -17 -11l-29 -71h-6z" />
    <glyph glyph-name="uni2151" unicode="&#x2151;" horiz-adv-x="743" 
d="M126 359v394l-100 -43v9l112 48v-408c0 -7 6 -11 18 -11l39 -1v-6h-129v6l41 2c13 1 19 3 19 10zM17 0l566 758h14l-566 -758h-14zM698 272c0 -128 -103 -236 -265 -287l-1 5c132 46 225 126 248 231c-28 -37 -80 -58 -122 -58c-70 0 -128 51 -128 132
c0 73 58 132 133 132c90 0 135 -74 135 -155zM443 295c0 -74 51 -123 118 -123c44 0 96 22 120 57c3 14 4 28 4 43c0 88 -47 146 -122 146c-66 0 -120 -50 -120 -123z" />
    <glyph glyph-name="uni2152" unicode="&#x2152;" horiz-adv-x="1001" 
d="M126 359v394l-100 -43v9l112 48v-408c0 -7 6 -11 18 -11l39 -1v-6h-129v6l41 2c13 1 19 3 19 10zM17 0l566 758h14l-566 -758h-14zM659 209c0 123 57 218 146 218c90 0 147 -95 147 -218c0 -124 -57 -219 -147 -219c-89 0 -146 95 -146 219zM511 18v394l-100 -43v9
l112 48v-408c0 -7 6 -11 18 -11l39 -1v-6h-129v6l41 2c13 1 19 3 19 10zM673 209c0 -135 57 -210 132 -210s133 75 133 210c0 134 -58 209 -133 209s-132 -75 -132 -209z" />
    <glyph glyph-name="onethird" unicode="&#x2153;" horiz-adv-x="730" 
d="M126 359v394l-100 -43v9l112 48v-408c0 -7 6 -11 18 -11l39 -1v-6h-129v6l41 2c13 1 19 3 19 10zM17 0l566 758h14l-566 -758h-14zM546 -10c-85 0 -123 57 -123 76c0 6 5 10 12 9c9 -43 48 -76 111 -76c65 0 126 45 126 129c0 73 -58 115 -102 115c-20 0 -38 -8 -50 -13
l-3 7l13 5c63 24 109 58 109 107c0 43 -33 69 -85 69c-49 0 -97 -29 -104 -87h-5c6 61 57 96 112 96c63 0 94 -36 94 -75c0 -51 -46 -82 -77 -97v-1c52 -4 111 -49 111 -125c0 -88 -73 -139 -139 -139z" />
    <glyph glyph-name="twothirds" unicode="&#x2154;" horiz-adv-x="853" 
d="M19 341v2c151 143 248 233 248 324c0 62 -39 92 -95 92c-59 0 -105 -41 -104 -112h-6c-2 72 44 121 114 121s104 -45 104 -99c0 -80 -69 -159 -212 -287l-35 -31h229c10 0 14 2 17 10l29 72h6l-31 -92h-264zM140 0l566 758h14l-566 -758h-14zM669 -10
c-85 0 -123 57 -123 76c0 6 5 10 12 9c9 -43 48 -76 111 -76c65 0 126 45 126 129c0 73 -58 115 -102 115c-20 0 -38 -8 -50 -13l-3 7l13 5c63 24 109 58 109 107c0 43 -33 69 -85 69c-49 0 -97 -29 -104 -87h-5c6 61 57 96 112 96c63 0 94 -36 94 -75
c0 -51 -46 -82 -77 -97v-1c52 -4 111 -49 111 -125c0 -88 -73 -139 -139 -139z" />
    <glyph glyph-name="uni2155" unicode="&#x2155;" horiz-adv-x="717" 
d="M126 359v394l-100 -43v9l112 48v-408c0 -7 6 -11 18 -11l39 -1v-6h-129v6l41 2c13 1 19 3 19 10zM17 0l566 758h14l-566 -758h-14zM524 -10c-85 0 -125 57 -125 76c0 6 6 10 12 9c10 -46 53 -76 114 -76c76 0 130 51 130 125c0 70 -55 131 -203 147l38 146h187l-3 -10
h-176l-33 -127c145 -17 201 -77 201 -156c0 -78 -58 -134 -142 -134z" />
    <glyph glyph-name="uni2156" unicode="&#x2156;" horiz-adv-x="840" 
d="M19 341v2c151 143 248 233 248 324c0 62 -39 92 -95 92c-59 0 -105 -41 -104 -112h-6c-2 72 44 121 114 121s104 -45 104 -99c0 -80 -69 -159 -212 -287l-35 -31h229c10 0 14 2 17 10l29 72h6l-31 -92h-264zM140 0l566 758h14l-566 -758h-14zM647 -10
c-85 0 -125 57 -125 76c0 6 6 10 12 9c10 -46 53 -76 114 -76c76 0 130 51 130 125c0 70 -55 131 -203 147l38 146h187l-3 -10h-176l-33 -127c145 -17 201 -77 201 -156c0 -78 -58 -134 -142 -134z" />
    <glyph glyph-name="uni2157" unicode="&#x2157;" horiz-adv-x="837" 
d="M161 331c-85 0 -123 57 -123 76c0 6 5 10 12 9c9 -43 48 -76 111 -76c65 0 126 45 126 129c0 73 -58 115 -102 115c-20 0 -38 -8 -50 -13l-3 7l13 5c63 24 109 58 109 107c0 43 -33 69 -85 69c-49 0 -97 -29 -104 -87h-5c6 61 57 96 112 96c63 0 94 -36 94 -75
c0 -51 -46 -82 -77 -97v-1c52 -4 111 -49 111 -125c0 -88 -73 -139 -139 -139zM137 0l566 758h14l-566 -758h-14zM644 -10c-85 0 -125 57 -125 76c0 6 6 10 12 9c10 -46 53 -76 114 -76c76 0 130 51 130 125c0 70 -55 131 -203 147l38 146h187l-3 -10h-176l-33 -127
c145 -17 201 -77 201 -156c0 -78 -58 -134 -142 -134z" />
    <glyph glyph-name="uni2158" unicode="&#x2158;" horiz-adv-x="887" 
d="M269 341v120h-248l251 299h9v-289h88v-10h-88v-120h-12zM187 0l566 758h14l-566 -758h-14zM40 471h229v272zM694 -10c-85 0 -125 57 -125 76c0 6 6 10 12 9c10 -46 53 -76 114 -76c76 0 130 51 130 125c0 70 -55 131 -203 147l38 146h187l-3 -10h-176l-33 -127
c145 -17 201 -77 201 -156c0 -78 -58 -134 -142 -134z" />
    <glyph glyph-name="uni2159" unicode="&#x2159;" horiz-adv-x="702" 
d="M126 359v394l-100 -43v9l112 48v-408c0 -7 6 -11 18 -11l39 -1v-6h-129v6l41 2c13 1 19 3 19 10zM17 0l566 758h14l-566 -758h-14zM657 122c0 -73 -58 -132 -133 -132c-90 0 -135 74 -135 155c0 128 103 236 265 287l1 -5c-132 -46 -225 -126 -248 -231
c28 37 80 58 122 58c70 0 128 -51 128 -132zM402 145c0 -88 47 -146 122 -146c66 0 120 50 120 123c0 74 -51 123 -118 123c-44 0 -96 -22 -120 -57c-3 -14 -4 -28 -4 -43z" />
    <glyph glyph-name="uni215A" unicode="&#x215a;" horiz-adv-x="825" 
d="M154 331c-85 0 -125 57 -125 76c0 6 6 10 12 9c10 -46 53 -76 114 -76c76 0 130 51 130 125c0 70 -55 131 -203 147l38 146h187l-3 -10h-176l-33 -127c145 -17 201 -77 201 -156c0 -78 -58 -134 -142 -134zM140 0l566 758h14l-566 -758h-14zM780 122
c0 -73 -58 -132 -133 -132c-90 0 -135 74 -135 155c0 128 103 236 265 287l1 -5c-132 -46 -225 -126 -248 -231c28 37 80 58 122 58c70 0 128 -51 128 -132zM525 145c0 -88 47 -146 122 -146c66 0 120 50 120 123c0 74 -51 123 -118 123c-44 0 -96 -22 -120 -57
c-3 -14 -4 -28 -4 -43z" />
    <glyph glyph-name="oneeighth" unicode="&#x215b;" horiz-adv-x="740" 
d="M126 359v394l-100 -43v9l112 48v-408c0 -7 6 -11 18 -11l39 -1v-6h-129v6l41 2c13 1 19 3 19 10zM17 0l566 758h14l-566 -758h-14zM562 -10c-71 0 -131 41 -131 110c0 60 44 104 122 128c-61 32 -98 62 -98 111c0 58 53 88 109 88c49 0 107 -27 107 -86
c0 -60 -56 -98 -100 -112l14 -7c61 -32 109 -63 109 -121c0 -61 -47 -111 -132 -111zM564 233l3 -2c48 17 93 51 93 109c0 56 -53 78 -97 78c-49 0 -98 -26 -98 -79c0 -48 40 -75 99 -106zM442 100c0 -66 60 -101 120 -101c74 0 121 40 121 102c0 53 -43 81 -104 113l-19 10
l-3 2c-59 -19 -115 -56 -115 -126z" />
    <glyph glyph-name="threeeighths" unicode="&#x215c;" horiz-adv-x="860" 
d="M161 331c-85 0 -123 57 -123 76c0 6 5 10 12 9c9 -43 48 -76 111 -76c65 0 126 45 126 129c0 73 -58 115 -102 115c-20 0 -38 -8 -50 -13l-3 7l13 5c63 24 109 58 109 107c0 43 -33 69 -85 69c-49 0 -97 -29 -104 -87h-5c6 61 57 96 112 96c63 0 94 -36 94 -75
c0 -51 -46 -82 -77 -97v-1c52 -4 111 -49 111 -125c0 -88 -73 -139 -139 -139zM137 0l566 758h14l-566 -758h-14zM682 -10c-71 0 -131 41 -131 110c0 60 44 104 122 128c-61 32 -98 62 -98 111c0 58 53 88 109 88c49 0 107 -27 107 -86c0 -60 -56 -98 -100 -112l14 -7
c61 -32 109 -63 109 -121c0 -61 -47 -111 -132 -111zM684 233l3 -2c48 17 93 51 93 109c0 56 -53 78 -97 78c-49 0 -98 -26 -98 -79c0 -48 40 -75 99 -106zM562 100c0 -66 60 -101 120 -101c74 0 121 40 121 102c0 53 -43 81 -104 113l-19 10l-3 2
c-59 -19 -115 -56 -115 -126z" />
    <glyph glyph-name="fiveeighths" unicode="&#x215d;" horiz-adv-x="863" 
d="M154 331c-85 0 -125 57 -125 76c0 6 6 10 12 9c10 -46 53 -76 114 -76c76 0 130 51 130 125c0 70 -55 131 -203 147l38 146h187l-3 -10h-176l-33 -127c145 -17 201 -77 201 -156c0 -78 -58 -134 -142 -134zM140 0l566 758h14l-566 -758h-14zM685 -10
c-71 0 -131 41 -131 110c0 60 44 104 122 128c-61 32 -98 62 -98 111c0 58 53 88 109 88c49 0 107 -27 107 -86c0 -60 -56 -98 -100 -112l14 -7c61 -32 109 -63 109 -121c0 -61 -47 -111 -132 -111zM687 233l3 -2c48 17 93 51 93 109c0 56 -53 78 -97 78
c-49 0 -98 -26 -98 -79c0 -48 40 -75 99 -106zM565 100c0 -66 60 -101 120 -101c74 0 121 40 121 102c0 53 -43 81 -104 113l-19 10l-3 2c-59 -19 -115 -56 -115 -126z" />
    <glyph glyph-name="seveneighths" unicode="&#x215e;" horiz-adv-x="792" 
d="M61 758h271l-167 -282c-34 -57 -45 -74 -71 -127c-4 -8 -7 -12 -13 -13l-6 -1c-7 -1 -2 10 2 17c80 134 153 253 242 396h-237c-10 0 -14 -3 -17 -11l-29 -71h-6zM69 0l566 758h14l-566 -758h-14zM614 -10c-71 0 -131 41 -131 110c0 60 44 104 122 128
c-61 32 -98 62 -98 111c0 58 53 88 109 88c49 0 107 -27 107 -86c0 -60 -56 -98 -100 -112l14 -7c61 -32 109 -63 109 -121c0 -61 -47 -111 -132 -111zM616 233l3 -2c48 17 93 51 93 109c0 56 -53 78 -97 78c-49 0 -98 -26 -98 -79c0 -48 40 -75 99 -106zM494 100
c0 -66 60 -101 120 -101c74 0 121 40 121 102c0 53 -43 81 -104 113l-19 10l-3 2c-59 -19 -115 -56 -115 -126z" />
    <glyph glyph-name="uni215F" unicode="&#x215f;" horiz-adv-x="385" 
d="M126 359v394l-100 -43v9l112 48v-408c0 -7 6 -11 18 -11l39 -1v-6h-129v6l41 2c13 1 19 3 19 10zM17 0l566 758h14l-566 -758h-14z" />
    <glyph glyph-name="minus" unicode="&#x2212;" horiz-adv-x="653" 
d="M68 254v11h516v-11h-516z" />
    <glyph glyph-name="approxequal" unicode="&#x2248;" horiz-adv-x="653" 
d="M213 418c105 0 138 -102 228 -102c38 0 98 9 112 99h12c-13 -91 -76 -109 -124 -109c-99 0 -127 102 -228 102c-38 0 -98 -9 -112 -99h-12c13 91 76 109 124 109zM213 228c105 0 138 -102 228 -102c38 0 98 9 112 99h12c-13 -91 -76 -109 -124 -109
c-99 0 -127 102 -228 102c-38 0 -98 -9 -112 -99h-12c13 91 76 109 124 109z" />
    <glyph glyph-name="notequal" unicode="&#x2260;" horiz-adv-x="653" 
d="M79 134v11h184l120 229h-304v11h310l61 117h13l-61 -117h172v-11h-178l-120 -229h298v-11h-304l-70 -134h-13l70 134h-178z" />
    <glyph glyph-name="lessequal" unicode="&#x2264;" horiz-adv-x="653" 
d="M78 274v11l494 208v-13l-479 -200l479 -202v-13zM79 0v11h493v-11h-493z" />
    <glyph glyph-name="greaterequal" unicode="&#x2265;" horiz-adv-x="653" 
d="M575 274l-494 -209v13l479 202l-479 200v13l494 -208v-11zM574 0h-493v11h493v-11z" />
    <glyph glyph-name="dot" unicode="&#x27d1;" 
d="M-19 739c0 10 9 19 19 19s19 -9 19 -19s-9 -19 -19 -19s-19 9 -19 19z" />
    <glyph glyph-name="commaaccent" unicode="&#xf6c3;" 
d="M-76 -290l-7 7c66 67 88 123 88 158c0 20 -8 35 -21 44c0 11 8 20 19 20c13 0 20 -9 20 -31c0 -40 -11 -110 -99 -198z" />
    <glyph glyph-name="cyrbreve" unicode="&#xf6d4;" 
d="M-153 594c-106 0 -153 63 -153 150h13c0 -110 79 -140 140 -140c63 0 140 30 140 140h13c0 -98 -62 -150 -153 -150z" />
    <glyph glyph-name="uniFB00" unicode="&#xfb00;" horiz-adv-x="661" 
d="M38 0v6l50 2c21 1 32 5 32 16v467h-82v6c81 2 82 4 82 25c0 142 62 236 193 236h20v-11h-19c-67 0 -115 -25 -147 -76c-27 -43 -35 -98 -35 -169h198v-11h-198v-467c0 -11 11 -15 32 -16l80 -2v-6h-206zM376 0v6l50 2c21 1 32 5 32 16v467h-82v6c81 2 82 4 82 25
c0 142 62 236 193 236h20v-11h-19c-67 0 -115 -25 -147 -76c-27 -43 -35 -98 -35 -169h196l-4 -11h-192v-467c0 -11 11 -15 32 -16l80 -2v-6h-206z" />
    <glyph glyph-name="fi" unicode="&#xfb01;" horiz-adv-x="589" 
d="M38 0v6l50 2c21 1 32 5 32 16v467h-82v6c81 2 82 4 82 25c0 142 62 236 193 236h20v-11h-19c-67 0 -115 -25 -147 -76c-27 -43 -35 -98 -35 -169h196l-4 -11h-192v-467c0 -11 11 -15 32 -16l80 -2v-6h-206zM445 739c0 10 9 19 19 19s19 -9 19 -19s-9 -19 -19 -19
s-19 9 -19 19zM376 0v6l50 2c21 1 32 5 32 16v463l-82 9v6h94v-478c0 -11 11 -15 32 -16l50 -2v-6h-176z" />
    <glyph glyph-name="fl" unicode="&#xfb02;" horiz-adv-x="602" 
d="M38 0v6l50 2c21 1 32 5 32 16v467h-82v6c81 2 82 4 82 25c0 142 62 236 193 236h20v-11h-19c-67 0 -115 -25 -147 -76c-27 -43 -35 -98 -35 -169h196l-4 -11h-192v-467c0 -11 11 -15 32 -16l80 -2v-6h-206zM389 0v6l50 2c21 1 32 5 32 16v719l-82 9v6h94v-734
c0 -11 11 -15 32 -16l50 -2v-6h-176z" />
    <glyph glyph-name="uniFB03" unicode="&#xfb03;" horiz-adv-x="923" 
d="M38 0v6l50 2c21 1 32 5 32 16v467h-82v6c81 2 82 4 82 25c0 142 62 236 193 236h20v-11h-19c-67 0 -115 -25 -147 -76c-27 -43 -35 -98 -35 -169h198v-11h-198v-467c0 -11 11 -15 32 -16l80 -2v-6h-206zM376 0v6l50 2c21 1 32 5 32 16v467h-82v6c81 2 82 4 82 25
c0 142 62 236 193 236h20v-11h-19c-67 0 -115 -25 -147 -76c-27 -43 -35 -98 -35 -169h196l-4 -11h-192v-467c0 -11 11 -15 32 -16l80 -2v-6h-206zM783 739c0 10 9 19 19 19s19 -9 19 -19s-9 -19 -19 -19s-19 9 -19 19zM714 0v6l50 2c21 1 32 5 32 16v463l-82 9v6h94v-478
c0 -11 11 -15 32 -16l50 -2v-6h-176z" />
    <glyph glyph-name="uniFB04" unicode="&#xfb04;" horiz-adv-x="936" 
d="M38 0v6l50 2c21 1 32 5 32 16v467h-82v6c81 2 82 4 82 25c0 142 62 236 193 236h20v-11h-19c-67 0 -115 -25 -147 -76c-27 -43 -35 -98 -35 -169h198v-11h-198v-467c0 -11 11 -15 32 -16l80 -2v-6h-206zM376 0v6l50 2c21 1 32 5 32 16v467h-82v6c81 2 82 4 82 25
c0 142 62 236 193 236h20v-11h-19c-67 0 -115 -25 -147 -76c-27 -43 -35 -98 -35 -169h196l-4 -11h-192v-467c0 -11 11 -15 32 -16l80 -2v-6h-206zM727 0v6l50 2c21 1 32 5 32 16v719l-82 9v6h94v-734c0 -11 11 -15 32 -16l50 -2v-6h-176z" />
    <glyph glyph-name="uniFEFF" unicode="&#xfeff;" 
 />
    <glyph glyph-name="L_periodcentered" horiz-adv-x="664" 
d="M67 0v6l60 2c21 1 32 5 32 16v710c0 11 -11 15 -32 16l-60 2v6h197v-6l-60 -2c-21 -1 -32 -5 -32 -16v-723h383c13 0 18 2 23 13l58 129h7l-57 -153h-519zM498 363c-10 0 -19 9 -19 19s9 19 19 19s19 -9 19 -19s-9 -19 -19 -19z" />
    <glyph glyph-name="acute.case" 
d="M-95 833l166 139h16v-1l-170 -138h-12z" />
    </font>
</defs>
</svg>
