<?xml version="1.0" standalone="no"?>
<!DOCTYPE svg PUBLIC "-//W3C//DTD SVG 1.1//EN" "http://www.w3.org/Graphics/SVG/1.1/DTD/svg11.dtd" >
<svg xmlns="http://www.w3.org/2000/svg" xmlns:xlink="http://www.w3.org/1999/xlink" version="1.1">
<metadata>
Created by FontForge 20190801 at Wed Oct 25 22:36:18 2017
 By Jimmy Wärting
Copyright \(c\) 2017 Swiss Typefaces Sarl. All rights reserved.
</metadata>
<defs>
<font id="SangBleuKingdom-AirItalic" horiz-adv-x="0" >
  <font-face 
    font-family="SangBleu Kingdom"
    font-weight="250"
    font-style="italic"
    font-stretch="normal"
    units-per-em="1000"
    panose-1="2 4 2 4 8 0 0 0 0 4"
    ascent="800"
    descent="-200"
    x-height="502"
    cap-height="758"
    bbox="-280 -403 1448 1029"
    underline-thickness="11"
    underline-position="-129"
    slope="-17"
    stemh="7"
    stemv="13"
    unicode-range="U+0020-FEFF"
  />
<missing-glyph horiz-adv-x="640" 
d="M70 0v758h500v-758h-500zM103 739l217 -343l217 343h-434zM89 728v-698l221 349zM331 379l220 -349v698zM103 19h434l-217 343z" />
    <glyph glyph-name="f_f" unicode="ff" horiz-adv-x="656" 
d="M391 64l127 427h-287l-153 -514c-43 -143 -113 -236 -244 -236h-20l2 11h19c129 0 191 90 237 244l147 495h-132l4 9h62c68 0 69 2 76 22c42 143 131 236 262 236h20l-2 -11h-19c-67 0 -122 -24 -169 -75c-41 -43 -66 -99 -87 -170h218c68 0 69 0 76 20
c42 143 131 236 262 236h20l-2 -11h-19c-67 0 -122 -24 -169 -75c-41 -43 -66 -99 -87 -170h202l-3 -11h-202l-133 -446c-43 -143 -113 -236 -244 -236h-20l2 11h19c129 0 191 90 237 244z" />
    <glyph glyph-name="f_f_i" unicode="ffi" horiz-adv-x="861" 
d="M869 739c0 10 9 19 19 19s19 -9 19 -19s-9 -19 -19 -19s-19 9 -19 19zM533 502h286l-172 -447c-19 -48 -8 -55 11 -55c43 0 111 34 166 127l7 -4c-55 -93 -126 -133 -174 -133c-34 0 -41 17 -22 66l167 435h-272l-133 -446c-43 -143 -113 -236 -244 -236h-20l2 11h19
c129 0 191 90 237 244l127 427h-287l-153 -514c-43 -143 -113 -236 -244 -236h-20l2 11h19c129 0 191 90 237 244l147 495h-132l4 9h62c68 0 69 2 76 22c42 143 131 236 262 236h20l-2 -11h-19c-67 0 -122 -24 -169 -75c-41 -43 -66 -99 -87 -170h218c68 0 69 0 76 20
c42 143 131 236 262 236h20l-2 -11h-19c-67 0 -122 -24 -169 -75c-41 -43 -66 -99 -87 -170z" />
    <glyph glyph-name="f_f_l" unicode="ffl" horiz-adv-x="868" 
d="M391 64l127 427h-287l-153 -514c-43 -143 -113 -236 -244 -236h-20l2 11h19c129 0 191 90 237 244l147 495h-132l4 9h62c68 0 69 2 76 22c42 143 131 236 262 236h20l-2 -11h-19c-67 0 -122 -24 -169 -75c-41 -43 -66 -99 -87 -170h218c68 0 69 0 76 20
c42 143 131 236 262 236h114l-243 -703c-17 -49 -8 -55 11 -55c43 0 111 34 166 127l7 -4c-55 -93 -126 -133 -174 -133c-34 0 -39 16 -22 66l237 688l-89 3h-8c-67 0 -122 -24 -169 -75c-41 -43 -66 -99 -87 -170h202l-3 -11h-202l-133 -446c-43 -143 -113 -236 -244 -236
h-20l2 11h19c129 0 191 90 237 244z" />
    <glyph glyph-name="f_i" unicode="fi" horiz-adv-x="562" 
d="M570 739c0 10 9 19 19 19s19 -9 19 -19s-9 -19 -19 -19s-19 9 -19 19zM78 -23c-43 -143 -113 -236 -244 -236h-20l2 11h19c129 0 191 90 237 244l147 495h-132l4 9h62c68 0 69 2 76 22c42 143 131 236 262 236h20l-2 -11h-19c-67 0 -122 -24 -169 -75
c-41 -43 -66 -99 -87 -170h286l-172 -447c-19 -48 -8 -55 11 -55c43 0 111 34 166 127l7 -4c-55 -93 -126 -133 -174 -133c-34 0 -41 17 -22 66l167 435h-272z" />
    <glyph glyph-name="f_l" unicode="fl" horiz-adv-x="569" 
d="M72 -4l147 495h-132l4 9h62c68 0 69 2 76 22c42 143 131 236 262 236h114l-243 -703c-17 -49 -8 -55 11 -55c43 0 111 34 166 127l7 -4c-55 -93 -126 -133 -174 -133c-34 0 -39 16 -22 66l237 688l-89 3h-8c-67 0 -122 -24 -169 -75c-41 -43 -66 -99 -87 -170h202l-3 -11
h-202l-153 -514c-43 -143 -113 -236 -244 -236h-20l2 11h19c129 0 191 90 237 244z" />
    <glyph glyph-name=".notdef" horiz-adv-x="640" 
d="M70 0v758h500v-758h-500zM103 739l217 -343l217 343h-434zM89 728v-698l221 349zM331 379l220 -349v698zM103 19h434l-217 343z" />
    <glyph glyph-name=".null" 
 />
    <glyph glyph-name="CR" horiz-adv-x="308" 
 />
    <glyph glyph-name="space" unicode=" " horiz-adv-x="308" 
 />
    <glyph glyph-name="exclam" unicode="!" horiz-adv-x="270" 
d="M110 182c95 311 134 451 175 582c1 4 17 4 16 0c-41 -131 -86 -271 -183 -582h-8zM62 -10c-11 0 -19 9 -19 19c0 11 8 20 19 20c12 0 20 -9 20 -20c0 -10 -8 -19 -20 -19z" />
    <glyph glyph-name="quotedbl" unicode="&#x22;" horiz-adv-x="395" 
d="M150 472l97 294c3 2 6 2 8 2c3 0 6 -1 7 -2l-106 -294h-6zM360 472l97 294c3 2 6 2 8 2c3 0 6 -1 7 -2l-106 -294h-6z" />
    <glyph glyph-name="numbersign" unicode="#" horiz-adv-x="825" 
d="M142 0l89 220h-197l5 11h197l124 306h-197l4 11h197l93 228h12l-93 -228h289l93 228h12l-93 -228h197l-5 -11h-196l-124 -306h196l-5 -11h-196l-89 -220h-12l89 220h-289l-89 -220h-12zM248 231h289l124 306h-289z" />
    <glyph glyph-name="dollar" unicode="$" horiz-adv-x="566" 
d="M488 886h12l-37 -119c100 -10 154 -74 154 -142c0 -15 -6 -24 -19 -21c10 94 -56 145 -138 153l-113 -371l2 -2c60 -74 116 -134 116 -216c0 -105 -92 -178 -239 -178l-34 -110h-12l34 110c-116 3 -204 78 -204 152c0 13 7 22 19 19c-9 -102 93 -159 188 -161l116 381
l-28 35c-51 62 -82 118 -82 185c0 109 106 167 214 167h15zM317 423l21 -26l111 361h-11c-104 0 -201 -54 -201 -156c0 -59 27 -114 80 -179zM451 166c0 79 -55 139 -109 205l-113 -371c130 2 222 63 222 166z" />
    <glyph glyph-name="percent" unicode="%" horiz-adv-x="935" 
d="M239 331c-72 0 -107 56 -107 131c0 118 93 306 216 306c71 0 107 -56 107 -130c0 -118 -93 -307 -216 -307zM240 340c116 0 202 190 202 301c0 74 -32 118 -95 118c-116 0 -202 -190 -202 -301c0 -71 32 -118 95 -118zM81 0l828 758h17l-828 -758h-17zM669 -10
c-72 0 -107 56 -107 131c0 118 93 306 216 306c71 0 107 -56 107 -130c0 -118 -93 -307 -216 -307zM670 -1c116 0 202 190 202 301c0 74 -32 118 -95 118c-116 0 -202 -190 -202 -301c0 -71 32 -118 95 -118z" />
    <glyph glyph-name="ampersand" unicode="&#x26;" horiz-adv-x="1046" 
d="M622 276c-46 0 -113 41 -113 119c0 76 54 118 108 118c42 0 87 -21 155 -80l38 -33c55 -48 109 -85 153 -85c51 0 97 35 97 106c0 68 -57 106 -118 103c-2 11 3 16 15 16c46 0 113 -41 113 -119c0 -76 -54 -118 -108 -118c-42 0 -87 23 -155 82l-8 7
c-69 -181 -234 -402 -453 -402c-199 0 -268 155 -268 293c0 178 141 312 241 312c75 0 102 -66 93 -124c125 97 215 213 241 357c3 3 6 4 10 4s10 -2 8 -10c-40 -170 -152 -293 -315 -403c-77 -53 -167 -103 -265 -153c7 -134 85 -264 258 -264c202 0 368 199 443 396
l-23 20c-55 48 -109 83 -153 83c-51 0 -97 -35 -97 -106c0 -68 57 -106 118 -103c2 -11 -3 -16 -15 -16zM91 283v-8c112 59 218 118 308 186c7 60 -13 123 -81 123c-95 0 -227 -124 -227 -301z" />
    <glyph glyph-name="quotesingle" unicode="'" horiz-adv-x="185" 
d="M150 472l97 294c3 2 6 2 8 2c3 0 6 -1 7 -2l-106 -294h-6z" />
    <glyph glyph-name="parenleft" unicode="(" horiz-adv-x="300" 
d="M114 -226c-52 74 -77 170 -77 298c0 259 141 529 416 724l5 -7c-274 -198 -406 -467 -406 -717c0 -131 19 -217 70 -292z" />
    <glyph glyph-name="parenright" unicode=")" horiz-adv-x="300" 
d="M209 796c52 -74 77 -170 77 -298c0 -259 -141 -529 -416 -724l-5 7c274 198 406 467 406 717c0 131 -19 217 -70 292z" />
    <glyph glyph-name="asterisk" unicode="*" horiz-adv-x="454" 
d="M194 520l-4 6l133 93l-126 101l4 6l129 -98l58 151l7 -2l-53 -154l162 -8v-7l-162 4l42 -157l-7 -2l-48 155z" />
    <glyph glyph-name="plus" unicode="+" horiz-adv-x="653" 
d="M324 0v254h-252v11h252v250h12v-250h252v-11h-252v-254h-12z" />
    <glyph glyph-name="comma" unicode="," horiz-adv-x="155" 
d="M-131 -200l-5 8c107 80 147 141 147 177c0 10 -4 18 -10 24c2 12 11 20 20 20s17 -5 17 -20c0 -24 -23 -101 -169 -209z" />
    <glyph glyph-name="hyphen" unicode="-" horiz-adv-x="460" 
d="M84 254l4 11h294l-4 -11h-294z" />
    <glyph glyph-name="period" unicode="." horiz-adv-x="173" 
d="M28 -10c-11 0 -19 9 -19 19c0 11 8 20 19 20c12 0 20 -9 20 -20c0 -10 -8 -19 -20 -19z" />
    <glyph glyph-name="slash" unicode="/" horiz-adv-x="574" 
d="M-46 -52l719 828h15l-719 -828h-15z" />
    <glyph glyph-name="zero" unicode="0" horiz-adv-x="670" 
d="M275 -10c-128 0 -192 96 -192 231c0 208 165 547 392 547c128 0 192 -96 192 -231c0 -208 -165 -547 -392 -547zM276 0c217 0 376 338 376 537c0 134 -59 221 -178 221c-217 0 -376 -338 -376 -537c0 -134 59 -221 178 -221z" />
    <glyph glyph-name="one" unicode="1" horiz-adv-x="357" 
d="M122 24l250 726l-212 -80l4 12l226 85l-256 -743c-4 -11 6 -15 27 -16l49 -2l-2 -6h-206l2 6l81 2c21 1 33 5 37 16z" />
    <glyph glyph-name="two" unicode="2" horiz-adv-x="615" 
d="M-54 0l1 4c475 322 670 450 670 610c0 90 -62 143 -159 143c-107 0 -211 -65 -236 -204h-6c24 138 122 215 242 215c112 0 174 -62 174 -153c0 -142 -135 -257 -587 -555l-74 -49h428c13 0 19 2 27 13l103 139h9l-113 -163h-479z" />
    <glyph glyph-name="three" unicode="3" horiz-adv-x="582" 
d="M512 261c0 -137 -106 -271 -289 -271c-170 0 -216 134 -205 174c3 9 11 11 19 9c-12 -95 66 -173 186 -173c171 0 276 123 276 261c0 101 -77 174 -141 174c-31 0 -59 -6 -80 -10l1 10l24 4c179 30 266 113 266 201c0 70 -57 117 -148 117c-87 0 -181 -46 -211 -158h-6
c29 120 127 169 217 169c95 0 163 -48 163 -128c0 -99 -108 -166 -202 -192l-1 -2c68 -17 131 -82 131 -185z" />
    <glyph glyph-name="four" unicode="4" horiz-adv-x="677" 
d="M390 0l76 221h-457l648 541h7l-182 -530h162l-4 -11h-162l-76 -221h-12zM39 232h431l173 506z" />
    <glyph glyph-name="five" unicode="5" horiz-adv-x="579" 
d="M224 -10c-171 0 -221 134 -210 174c3 9 11 11 19 9c-12 -95 70 -173 191 -173c141 0 259 89 259 226c0 112 -89 218 -296 280l153 252h323l-7 -11h-310l-141 -233c203 -63 291 -169 291 -288c0 -136 -118 -236 -272 -236z" />
    <glyph glyph-name="six" unicode="6" horiz-adv-x="630" 
d="M268 -10c-139 0 -203 108 -203 228c0 238 285 520 675 567v-6c-272 -35 -524 -199 -619 -396c59 51 137 75 211 75c122 0 208 -81 208 -200c0 -134 -101 -268 -272 -268zM80 217c0 -118 60 -217 188 -217c160 0 257 127 257 258c0 111 -78 190 -194 190
c-81 0 -159 -26 -215 -75c-23 -50 -36 -103 -36 -156z" />
    <glyph glyph-name="seven" unicode="7" horiz-adv-x="604" 
d="M257 758h485l-488 -524c-92 -100 -116 -124 -200 -223c-10 -12 -17 -18 -28 -20l-5 -1c-13 -2 6 19 14 28c229 244 436 467 686 729h-438c-13 0 -20 -2 -28 -13l-105 -139h-7z" />
    <glyph glyph-name="eight" unicode="8" horiz-adv-x="612" 
d="M255 -10c-122 0 -212 78 -212 187c0 127 111 217 316 238c-61 56 -101 115 -101 188c0 91 82 164 201 164c110 0 182 -63 182 -152c0 -112 -141 -185 -260 -202l18 -17c65 -57 118 -124 118 -205c0 -96 -98 -201 -262 -201zM375 418l1 -1c124 18 252 94 252 198
c0 89 -72 142 -169 142c-109 0 -188 -64 -188 -154c0 -69 40 -127 104 -185zM56 178c0 -112 97 -178 199 -178c152 0 249 94 249 191c0 74 -47 137 -113 196l-27 24c-198 -18 -308 -110 -308 -233z" />
    <glyph glyph-name="nine" unicode="9" horiz-adv-x="607" 
d="M11 -27l-1 6c289 39 485 214 558 398c-61 -52 -144 -77 -219 -77c-122 0 -208 82 -208 202c0 136 106 266 268 266c133 0 206 -100 206 -234c0 -222 -216 -514 -604 -561zM156 502c0 -111 78 -192 194 -192c83 0 169 28 222 76c18 50 28 100 28 149
c0 133 -69 223 -192 223c-148 0 -252 -122 -252 -256z" />
    <glyph glyph-name="colon" unicode=":" horiz-adv-x="228" 
d="M199 473c-11 0 -19 9 -19 19c0 11 8 20 19 20c12 0 20 -9 20 -20c0 -10 -8 -19 -20 -19zM29 -10c-11 0 -19 9 -19 19c0 11 8 20 19 20c12 0 20 -9 20 -20c0 -10 -8 -19 -20 -19z" />
    <glyph glyph-name="semicolon" unicode=";" horiz-adv-x="320" 
d="M259 473c-11 0 -19 9 -19 19c0 11 8 20 19 20c12 0 20 -9 20 -20c0 -10 -8 -19 -20 -19zM-58 -200l-5 8c107 80 147 141 147 177c0 10 -4 18 -10 24c2 12 11 20 20 20s17 -5 17 -20c0 -24 -23 -101 -169 -209z" />
    <glyph glyph-name="less" unicode="&#x3c;" horiz-adv-x="653" 
d="M53 254v11l494 228v-13l-479 -220l479 -222v-13z" />
    <glyph glyph-name="equal" unicode="=" horiz-adv-x="653" 
d="M81 374v11h495v-11h-495zM81 134v11h495v-11h-495z" />
    <glyph glyph-name="greater" unicode="&#x3e;" horiz-adv-x="653" 
d="M604 254l-494 -229v13l479 222l-479 220v13l494 -228v-11z" />
    <glyph glyph-name="question" unicode="?" horiz-adv-x="572" 
d="M388 758c-98 0 -192 -43 -215 -121c-4 -2 -17 -1 -13 12c23 69 125 119 228 119c136 0 227 -80 227 -194c0 -105 -74 -169 -221 -184l-87 -9c-37 -4 -46 -9 -62 -56l-47 -143h-9l45 144c17 54 26 62 71 67l88 9c136 14 207 71 207 172c0 111 -87 184 -212 184zM149 -10
c-11 0 -19 9 -19 19c0 11 8 20 19 20c12 0 20 -9 20 -20c0 -10 -8 -19 -20 -19z" />
    <glyph glyph-name="at" unicode="@" horiz-adv-x="927" 
d="M631 171c-32 0 -51 7 -51 29c0 10 7 30 17 56l34 88h-2c-64 -106 -165 -173 -250 -173c-61 0 -105 33 -105 103c0 175 210 346 374 346c34 0 66 -9 95 -25l-135 -340c-13 -32 -17 -45 -17 -55s4 -19 42 -19c136 0 295 96 295 308c0 184 -159 269 -327 269
c-262 0 -492 -216 -492 -458c0 -185 139 -300 322 -300c129 0 200 32 252 56l3 -6c-48 -24 -127 -60 -255 -60c-194 0 -337 117 -337 310c0 242 237 468 507 468c171 0 339 -90 339 -279c0 -201 -152 -318 -309 -318zM380 181c91 0 220 87 275 225l73 185
c-22 13 -50 19 -79 19c-161 0 -360 -167 -360 -335c0 -63 36 -94 91 -94z" />
    <glyph glyph-name="A" unicode="A" horiz-adv-x="805" 
d="M-134 0l2 6l60 2c22 1 38 7 48 16l820 749h15l-229 -749c-3 -11 7 -15 27 -16l60 -2l-2 -6h-197l2 6l60 2c22 1 34 5 37 16l93 303h-338l-332 -303c-10 -9 -13 -15 14 -16l60 -2l-2 -6h-198zM336 338h329l127 416z" />
    <glyph glyph-name="B" unicode="B" horiz-adv-x="712" 
d="M-12 0l2 6l60 2c22 1 34 5 37 16l217 710c3 11 -6 15 -27 16l-59 2l2 6h252c128 0 239 -28 239 -137c0 -90 -82 -211 -257 -222v-1c108 -3 195 -45 195 -141c0 -112 -91 -257 -389 -257h-272zM217 404h192c202 0 287 125 287 216c0 99 -97 127 -234 127h-141zM96 11h161
c283 0 377 132 377 246c0 91 -86 136 -229 136h-192z" />
    <glyph glyph-name="C" unicode="C" horiz-adv-x="805" 
d="M384 -10c-158 0 -295 88 -295 288c0 274 250 490 522 490c106 0 181 -33 226 -70l-2 -137h-7l-9 110c-2 21 -2 27 -14 35c-22 15 -86 52 -194 52c-246 0 -507 -197 -507 -480c0 -208 147 -278 280 -278c95 0 186 23 229 52c15 10 22 14 38 35l94 119h7l-100 -146
c-76 -50 -174 -70 -268 -70z" />
    <glyph glyph-name="D" unicode="D" horiz-adv-x="845" 
d="M-12 0l2 6l60 2c22 1 34 5 37 16l217 710c3 11 -6 15 -27 16l-59 2l2 6h244c204 0 375 -71 375 -262c0 -295 -269 -496 -605 -496h-246zM96 11h139c318 0 589 188 589 485c0 179 -152 251 -364 251h-139z" />
    <glyph glyph-name="E" unicode="E" horiz-adv-x="697" 
d="M-12 0l2 6l60 2c22 1 34 5 37 16l217 710c3 11 -6 15 -27 16l-59 2l2 6h499l-17 -147h-7l5 124c0 9 -3 12 -13 12h-366l-104 -343h227c27 0 28 2 33 16l36 97h7l-72 -237h-7l23 97c4 14 3 16 -24 16h-227l-117 -382h420c13 0 19 2 27 13l98 129h7l-102 -153h-558z" />
    <glyph glyph-name="F" unicode="F" horiz-adv-x="694" 
d="M-12 0l2 6l60 2c22 1 34 5 37 16l217 710c3 11 -6 15 -27 16l-59 2l2 6h569l-17 -147h-7l5 124c0 9 -3 12 -13 12h-436l-104 -343h225c27 0 28 2 33 16l36 97h7l-72 -237h-7l23 97c4 14 3 16 -24 16h-225l-113 -369c-3 -11 6 -16 27 -16l110 -2l-2 -6h-247z" />
    <glyph glyph-name="G" unicode="G" horiz-adv-x="891" 
d="M396 -10c-164 0 -307 87 -307 288c0 274 244 490 509 490c103 0 176 -33 220 -70l-2 -137h-7l-9 110c-2 21 -2 27 -14 35c-21 15 -83 52 -188 52c-240 0 -494 -197 -494 -480c0 -210 155 -278 292 -278c103 0 202 29 285 66l95 256c4 12 -7 16 -28 16l-214 1l2 9h355
l-2 -8l-95 -2l-77 -211l-25 -71c-89 -34 -182 -66 -296 -66z" />
    <glyph glyph-name="H" unicode="H" horiz-adv-x="874" 
d="M-12 0l2 6l60 2c22 1 34 5 37 16l217 710c3 11 -6 15 -27 16l-59 2l2 6h197l-2 -6l-61 -2c-21 -1 -34 -5 -37 -16l-100 -330h537l100 330c3 11 -6 15 -27 16l-59 2l2 6h197l-2 -6l-61 -2c-21 -1 -34 -5 -37 -16l-217 -710c-3 -11 7 -15 27 -16l60 -2l-2 -6h-197l2 6l60 2
c22 1 34 5 37 16l113 369h-537l-113 -369c-3 -11 7 -15 27 -16l60 -2l-2 -6h-197z" />
    <glyph glyph-name="I" unicode="I" horiz-adv-x="324" 
d="M-12 0l2 6l60 2c22 1 34 5 37 16l217 710c3 11 -6 15 -27 16l-59 2l2 6h197l-2 -6l-61 -2c-21 -1 -34 -5 -37 -16l-217 -710c-3 -11 7 -15 27 -16l60 -2l-2 -6h-197z" />
    <glyph glyph-name="J" unicode="J" horiz-adv-x="311" 
d="M-109 -134l-4 8c155 101 188 123 221 231l192 629c3 11 -6 15 -27 16l-59 2l2 6h197l-2 -6l-61 -2c-21 -1 -34 -5 -37 -16l-189 -619c-33 -108 -48 -125 -173 -211c-18 -12 -39 -25 -60 -38z" />
    <glyph glyph-name="K" unicode="K" horiz-adv-x="783" 
d="M-12 0l2 6l60 2c22 1 34 5 37 16l217 710c3 11 -6 15 -27 16l-59 2l2 6h197l-2 -6l-61 -2c-21 -1 -34 -5 -37 -16l-104 -342l576 345c14 9 6 11 -32 13l-48 2l2 6h216l-2 -6l-54 -2c-33 -1 -45 -4 -68 -18l-572 -341l446 -391h-18l-447 390l-112 -366
c-3 -11 7 -15 27 -16l60 -2l-2 -6h-197z" />
    <glyph glyph-name="L" unicode="L" horiz-adv-x="657" 
d="M-12 0l2 6l60 2c22 1 34 5 37 16l217 710c3 11 -6 15 -27 16l-59 2l2 6h197l-2 -6l-61 -2c-21 -1 -34 -5 -37 -16l-221 -723h383c13 0 19 2 27 13l98 129h7l-102 -153h-521z" />
    <glyph glyph-name="M" unicode="M" horiz-adv-x="1010" 
d="M-12 0l2 6l60 2c22 1 34 5 37 16l217 710c3 11 -6 15 -27 16l-59 2l2 6h111l149 -581l509 581h114l-2 -6l-61 -2c-21 -1 -34 -5 -37 -16l-217 -710c-3 -11 7 -15 27 -16l60 -2l-2 -6h-197l2 6l60 2c22 1 34 5 37 16l220 720l-515 -587h-6l-151 588l-221 -721
c-3 -11 7 -15 27 -16l60 -2l-2 -6h-197z" />
    <glyph glyph-name="N" unicode="N" horiz-adv-x="886" 
d="M655 -22l-337 760l-218 -714c-3 -11 7 -15 27 -16l60 -2l-2 -6h-197l2 6l60 2c22 1 34 5 37 16l217 710c3 11 -6 15 -27 16l-59 2l2 6h103l331 -746l221 722c3 11 -6 15 -27 16l-59 2l2 6h197l-2 -6l-61 -2c-21 -1 -34 -5 -37 -16l-231 -756h-2z" />
    <glyph glyph-name="O" unicode="O" horiz-adv-x="873" 
d="M371 -10c-154 0 -286 94 -286 276c0 227 209 502 497 502c154 0 286 -94 286 -276c0 -227 -209 -502 -497 -502zM371 0c274 0 482 265 482 492c0 176 -126 266 -271 266c-274 0 -482 -265 -482 -492c0 -176 126 -266 271 -266z" />
    <glyph glyph-name="P" unicode="P" horiz-adv-x="700" 
d="M-12 0l2 6l60 2c22 1 34 5 37 16l217 710c3 11 -6 15 -27 16l-59 2l2 6h296c129 0 244 -31 244 -143c0 -144 -135 -249 -364 -249h-166l3 11h161c215 0 351 93 351 238c0 105 -110 132 -237 132h-187l-221 -723c-3 -11 6 -16 27 -16l110 -2l-2 -6h-247z" />
    <glyph glyph-name="Q" unicode="Q" horiz-adv-x="873" 
d="M371 -10h-14l-202 -73c44 11 88 11 89 11c159 0 165 -118 284 -118c61 0 129 20 194 134l9 -4c-63 -112 -131 -140 -203 -140c-132 0 -127 119 -294 119c-33 0 -67 -4 -87 -12c-13 -12 -27 -19 -39 -19c-8 0 -12 3 -10 10c3 11 32 20 129 55l108 39
c-138 13 -250 106 -250 274c0 227 209 502 497 502c154 0 286 -94 286 -276c0 -227 -209 -502 -497 -502zM371 0c274 0 482 265 482 492c0 176 -126 266 -271 266c-274 0 -482 -265 -482 -492c0 -176 126 -266 271 -266z" />
    <glyph glyph-name="R" unicode="R" horiz-adv-x="710" 
d="M-12 0l2 6l60 2c22 1 34 5 37 16l217 710c3 11 -6 15 -27 16l-59 2l2 6h242c130 0 248 -29 248 -145c0 -127 -90 -235 -346 -235l280 -378h-17l-279 378h-139l-109 -354c-3 -11 7 -15 27 -16l60 -2l-2 -6h-197zM212 389h133c247 0 350 84 350 224
c0 106 -109 134 -242 134h-132z" />
    <glyph glyph-name="S" unicode="S" horiz-adv-x="612" 
d="M206 -10c-88 0 -160 25 -211 63l56 151h6l-34 -122c-7 -22 -7 -27 6 -35c43 -32 119 -47 177 -47c169 0 268 70 268 186c0 64 -56 142 -107 197l-26 28c-54 58 -108 128 -108 197c0 105 118 160 266 160c84 0 145 -22 185 -57l-36 -134h-8l20 106c5 22 3 29 -8 36
c-31 24 -93 39 -153 39c-146 0 -253 -54 -253 -150c0 -60 51 -131 105 -189l26 -28c59 -63 111 -139 111 -203c0 -116 -94 -198 -282 -198z" />
    <glyph glyph-name="T" unicode="T" horiz-adv-x="709" 
d="M180 0l2 6l60 2c22 1 34 5 37 16l221 723h-276c-10 0 -14 -3 -19 -12l-80 -154h-7l80 177h623l-26 -177h-7l14 154c1 9 -3 12 -13 12h-276l-221 -723c-3 -11 7 -15 27 -16l60 -2l-2 -6h-197z" />
    <glyph glyph-name="U" unicode="U" horiz-adv-x="862" 
d="M359 -10c-195 0 -264 104 -202 308l133 436c3 11 -6 15 -27 16l-59 2l2 6h197l-2 -6l-61 -2c-21 -1 -34 -5 -37 -16l-133 -436c-55 -180 -15 -298 189 -298s317 120 371 298l133 436c3 11 -6 15 -27 16l-59 2l2 6h197l-2 -6l-61 -2c-21 -1 -34 -5 -37 -16l-133 -436
c-62 -204 -186 -308 -384 -308z" />
    <glyph glyph-name="V" unicode="V" horiz-adv-x="794" 
d="M73 -15l229 749c3 11 -7 15 -27 16l-60 2l2 6h197l-2 -6l-60 -2c-22 -1 -34 -5 -37 -16l-223 -729l790 729c10 9 13 15 -14 16l-60 2l2 6h198l-2 -6l-60 -2c-22 -1 -38 -7 -48 -16l-810 -749h-15z" />
    <glyph glyph-name="W" unicode="W" horiz-adv-x="1234" 
d="M73 -15l229 749c3 11 -7 15 -27 16l-60 2l2 6h197l-2 -6l-60 -2c-22 -1 -34 -5 -37 -16l-223 -730l593 544l64 210h135l-2 -6l-90 -2c-22 0 -34 -5 -37 -16l-223 -729l790 729c10 9 13 15 -14 16l-60 2l2 6h198l-2 -6l-60 -2c-22 -1 -38 -7 -48 -16l-810 -749h-15
l165 541l-590 -541h-15z" />
    <glyph glyph-name="X" unicode="X" horiz-adv-x="846" 
d="M-96 0l3 6l57 2c20 1 38 7 48 16l467 380l-111 330c-3 10 -15 15 -34 16l-56 2l3 6h196l-3 -6l-61 -3c-26 -1 -36 -5 -32 -16l108 -321l394 321c11 9 8 15 -18 16l-59 3l3 6h201l-3 -6l-57 -2c-20 -1 -38 -8 -48 -16l-409 -333l126 -377c4 -10 15 -15 34 -16l56 -2l-3 -6
h-196l3 6l61 3c26 1 36 5 32 16l-123 368l-452 -368c-11 -9 -8 -15 18 -16l59 -3l-3 -6h-201z" />
    <glyph glyph-name="Y" unicode="Y" horiz-adv-x="773" 
d="M212 0l2 6l60 2c22 1 34 5 37 16l98 319l-171 391c-4 9 -10 15 -35 16l-59 2l2 6h198l-2 -6l-61 -2c-26 -1 -33 -7 -29 -16l166 -380l396 380c11 11 -1 15 -27 16l-59 2l2 6h200l-2 -6l-61 -2c-21 -1 -28 -7 -37 -16l-408 -391l-98 -319c-3 -11 7 -15 27 -16l60 -2l-2 -6
h-197z" />
    <glyph glyph-name="Z" unicode="Z" horiz-adv-x="726" 
d="M-38 0l2 8l835 739h-499c-13 0 -18 -2 -27 -13l-97 -129h-7l104 153h549l-3 -9l-833 -738h541c13 0 19 2 27 13l98 129h7l-104 -153h-593z" />
    <glyph glyph-name="bracketleft" unicode="[" horiz-adv-x="278" 
d="M-34 -211l346 1004h93l-3 -8l-51 -2c-21 -1 -32 -5 -36 -16l-328 -952c-4 -11 5 -15 26 -16l49 -2l-3 -8h-93z" />
    <glyph glyph-name="backslash" unicode="\" horiz-adv-x="735" 
d="M626 -52h-13l-433 828h13z" />
    <glyph glyph-name="bracketright" unicode="]" horiz-adv-x="278" 
d="M338 793l-346 -1004h-93l3 8l51 2c21 1 32 5 36 16l328 952c4 11 -5 15 -26 16l-49 2l3 8h93z" />
    <glyph glyph-name="asciicircum" unicode="^" horiz-adv-x="653" 
d="M144 361l358 415h12l72 -415h-12l-70 400l-346 -400h-14z" />
    <glyph glyph-name="underscore" unicode="_" horiz-adv-x="625" 
d="M-55 -36l4 11h561l-4 -11h-561z" />
    <glyph glyph-name="grave" unicode="`" 
d="M30 579h-9l-53 178v1h14z" />
    <glyph glyph-name="a" unicode="a" horiz-adv-x="577" 
d="M121 -10c-64 0 -100 34 -100 103c0 181 208 419 374 419c66 0 93 -48 91 -105h2l34 95h12l-166 -447c-18 -49 -10 -55 9 -55c43 0 111 34 170 127l7 -4c-59 -93 -132 -133 -180 -133c-34 0 -37 16 -18 66l52 140h-2c-84 -133 -197 -206 -285 -206zM124 0
c105 0 258 122 328 313c46 124 15 189 -59 189c-153 0 -357 -231 -357 -409c0 -59 29 -93 88 -93z" />
    <glyph glyph-name="b" unicode="b" horiz-adv-x="538" 
d="M151 -10c-81 0 -129 39 -74 198l191 556l-89 8l3 6h104l-131 -378l-25 -74h2c81 133 191 206 280 206c66 0 105 -36 105 -109c0 -180 -200 -413 -366 -413zM151 0c156 0 351 224 351 403c0 63 -30 99 -93 99c-105 0 -255 -123 -320 -313c-48 -140 -21 -189 62 -189z" />
    <glyph glyph-name="c" unicode="c" horiz-adv-x="477" 
d="M169 -10c-77 0 -131 52 -131 145c0 186 169 377 333 377c72 0 102 -44 102 -101c0 -19 -5 -31 -19 -29c14 81 -20 120 -86 120c-147 0 -315 -178 -315 -367c0 -92 54 -135 116 -135c80 0 161 46 221 161l7 -3c-59 -116 -143 -168 -228 -168z" />
    <glyph glyph-name="d" unicode="d" horiz-adv-x="579" 
d="M127 -10c-64 0 -103 36 -103 109c0 180 200 413 362 413c67 0 96 -48 96 -105h2l115 337l-99 8l3 6h114l-243 -703c-17 -49 -7 -55 12 -55c43 0 111 34 166 127l7 -4c-55 -93 -126 -133 -174 -133c-34 0 -40 16 -23 66l49 140h-2c-81 -133 -192 -206 -282 -206zM127 0
c110 0 260 122 325 313c42 124 7 189 -66 189c-152 0 -347 -224 -347 -403c0 -63 30 -99 88 -99z" />
    <glyph glyph-name="e" unicode="e" horiz-adv-x="484" 
d="M168 -10c-78 0 -131 52 -131 145c0 186 175 377 343 377c71 0 101 -32 101 -81c0 -46 -37 -105 -115 -122h-266c-30 -53 -48 -113 -48 -174c0 -92 53 -135 116 -135c83 0 172 45 232 165l7 -3c-59 -121 -151 -172 -239 -172zM377 502c-99 0 -208 -77 -271 -183h242
c55 0 119 52 119 112c0 43 -21 71 -90 71z" />
    <glyph glyph-name="f" unicode="f" horiz-adv-x="357" 
d="M72 -4l147 495h-132l4 9h62c68 0 69 2 76 22c42 143 131 236 262 236h20l-2 -11h-19c-67 0 -122 -24 -169 -75c-41 -43 -66 -99 -87 -170h202l-3 -11h-202l-153 -514c-43 -143 -113 -236 -244 -236h-20l2 11h19c129 0 191 90 237 244z" />
    <glyph glyph-name="g" unicode="g" horiz-adv-x="492" 
d="M221 156c-13 0 -25 1 -37 4l-114 -83l179 -104c70 -40 106 -77 106 -115c0 -75 -132 -116 -242 -116c-129 0 -238 52 -238 132c0 75 121 118 241 162l-64 39l122 87c-59 17 -93 66 -93 128c0 119 116 222 238 222c30 0 56 -7 77 -19l14 9h155l-14 -10h-152
c38 -23 60 -64 60 -114c0 -119 -116 -222 -238 -222zM221 166c113 0 224 92 224 212c0 71 -42 124 -126 124c-113 0 -224 -92 -224 -212c0 -71 42 -124 126 -124zM-111 -125c0 -70 95 -123 226 -123c102 0 226 38 226 105c0 33 -30 67 -96 105l-120 69
c-113 -43 -236 -83 -236 -156z" />
    <glyph glyph-name="h" unicode="h" horiz-adv-x="568" 
d="M267 -10c-46 0 -63 40 -63 70c0 14 7 20 16 20c0 -43 8 -80 49 -80c98 0 243 229 243 395c0 74 -32 107 -88 107c-126 0 -270 -165 -344 -365c-21 -57 -26 -73 -46 -135l-15 -5l257 746l-79 9l3 6h94l-131 -378l-43 -126h2c89 160 199 258 303 258c62 0 100 -33 100 -117
c0 -166 -146 -405 -258 -405z" />
    <glyph glyph-name="i" unicode="i" horiz-adv-x="272" 
d="M280 739c0 10 9 19 19 19s19 -9 19 -19s-9 -19 -19 -19s-19 9 -19 19zM68 -10c-34 0 -41 17 -22 66l166 432l-89 8l3 6h104l-172 -447c-19 -48 -8 -55 11 -55c43 0 111 34 166 127l7 -4c-55 -93 -126 -133 -174 -133z" />
    <glyph glyph-name="j" unicode="j" horiz-adv-x="236" 
d="M290 739c0 10 9 19 19 19s19 -9 19 -19s-9 -19 -19 -19s-19 9 -19 19zM-201 -258l-2 4c137 84 157 98 226 268l191 474l-89 8l3 6h104l-197 -488c-60 -149 -82 -179 -168 -231z" />
    <glyph glyph-name="k" unicode="k" horiz-adv-x="548" 
d="M398 -26c-29 0 -47 11 -83 53l-194 225c254 7 391 79 391 175c0 50 -41 75 -94 75c-123 0 -247 -101 -299 -252l-42 -119l-44 -129l-14 -5l256 747l-89 8l3 6h104l-119 -347l-29 -80h1c76 127 179 181 272 181c70 0 108 -33 108 -85c0 -95 -128 -174 -381 -184l179 -208
c37 -44 52 -51 75 -51c24 0 49 11 73 99l9 -2c-22 -87 -51 -107 -83 -107z" />
    <glyph glyph-name="l" unicode="l" horiz-adv-x="263" 
d="M66 -10c-34 0 -39 16 -22 66l237 688l-89 8l3 6h104l-243 -703c-17 -49 -8 -55 11 -55c43 0 111 34 166 127l7 -4c-55 -93 -126 -133 -174 -133z" />
    <glyph glyph-name="m" unicode="m" horiz-adv-x="924" 
d="M723 -10c-34 0 -46 17 -25 66l102 239c52 122 66 207 -11 207c-61 0 -128 -48 -189 -116c-80 -89 -181 -250 -232 -384l-15 -5l113 298c46 122 69 207 -8 207c-61 0 -128 -48 -189 -116c-80 -89 -181 -250 -232 -384l-15 -5l188 490l-89 9l3 6h104l-151 -393h1
c47 104 122 216 182 283c65 72 134 120 199 120c92 0 69 -91 20 -218l-71 -185h1c47 104 122 216 182 283c65 72 134 120 199 120c92 0 77 -91 23 -218l-102 -239c-20 -48 -6 -55 13 -55c43 0 111 34 166 127l7 -4c-55 -93 -126 -133 -174 -133z" />
    <glyph glyph-name="n" unicode="n" horiz-adv-x="593" 
d="M392 -10c-34 0 -46 17 -25 66l102 239c52 122 66 207 -11 207c-61 0 -128 -48 -189 -116c-80 -89 -181 -250 -232 -384l-15 -5l188 490l-89 9l3 6h104l-151 -393h1c47 104 122 216 182 283c65 72 134 120 199 120c92 0 77 -91 23 -218l-102 -239c-20 -48 -6 -55 13 -55
c43 0 111 34 166 127l7 -4c-55 -93 -126 -133 -174 -133z" />
    <glyph glyph-name="o" unicode="o" horiz-adv-x="571" 
d="M215 -10c-98 0 -169 64 -169 172c0 178 151 350 311 350c98 0 169 -64 169 -172c0 -178 -151 -350 -311 -350zM217 0c144 0 294 159 294 339c0 108 -69 163 -156 163c-144 0 -294 -159 -294 -339c0 -108 68 -163 156 -163z" />
    <glyph glyph-name="p" unicode="p" horiz-adv-x="558" 
d="M-49 -248l253 736l-89 8l3 6h104l-26 -77c56 60 142 87 198 87c88 0 138 -42 138 -131c0 -185 -221 -412 -486 -390l-82 -239h-13zM394 502c-66 0 -142 -30 -204 -94l-140 -407c255 -18 467 198 467 381c0 82 -44 120 -123 120z" />
    <glyph glyph-name="q" unicode="q" horiz-adv-x="547" 
d="M258 -248l123 357l30 87h-2c-81 -133 -192 -206 -282 -206c-64 0 -103 36 -103 109c0 180 200 413 362 413c67 0 96 -48 96 -105h1l34 95h11l-258 -750h-12zM39 99c0 -63 30 -99 88 -99c110 0 260 122 325 313c42 124 7 189 -66 189c-152 0 -347 -224 -347 -403z" />
    <glyph glyph-name="r" unicode="r" horiz-adv-x="402" 
d="M23 0l187 488l-89 8l3 6h104l-136 -357h1c66 125 134 243 207 310c40 36 81 57 123 57c19 0 35 -2 35 -11c0 -5 -4 -9 -7 -9c-25 4 -39 6 -60 5c-117 -24 -240 -263 -325 -420l-30 -77h-13z" />
    <glyph glyph-name="s" unicode="s" horiz-adv-x="414" 
d="M133 -10c-91 0 -143 60 -145 81c0 10 10 12 16 8c16 -41 54 -79 128 -79c92 0 155 42 155 111c0 51 -27 90 -68 139l-20 24c-36 43 -63 75 -63 125c0 75 73 113 149 113c87 0 134 -45 136 -66c0 -10 -10 -10 -17 -8c-14 35 -47 64 -118 64c-66 0 -138 -31 -138 -102
c0 -46 21 -72 61 -121l20 -24c36 -43 71 -84 71 -144c0 -71 -64 -121 -167 -121z" />
    <glyph glyph-name="t" unicode="t" horiz-adv-x="327" 
d="M74 -10c-34 0 -42 18 -22 67l176 434h-135l4 11h135l44 108l13 2l-45 -110h166l-4 -11h-166l-176 -435c-19 -48 -8 -56 11 -56c43 0 111 34 166 127l7 -4c-55 -93 -126 -133 -174 -133z" />
    <glyph glyph-name="u" unicode="u" horiz-adv-x="595" 
d="M227 502l-115 -295c-47 -122 -69 -207 8 -207c61 0 128 48 189 116c80 89 182 252 233 386h13l-172 -447c-19 -48 -8 -55 11 -55c43 0 111 34 166 127l7 -4c-55 -93 -126 -133 -174 -133c-34 0 -41 17 -22 66l130 337h-1c-47 -104 -122 -216 -182 -283
c-65 -72 -134 -120 -199 -120c-92 0 -69 91 -20 218l109 280l-88 8l3 6h104z" />
    <glyph glyph-name="v" unicode="v" horiz-adv-x="596" 
d="M565 421c0 -233 -193 -431 -369 -431c-82 0 -126 51 -126 124c0 101 76 232 301 378h-261l-55 -101h-6l48 111h308c-188 -115 -321 -252 -321 -387c0 -72 43 -113 114 -113c156 0 342 174 355 393l-13 107c1 7 5 10 10 10c14 0 15 -20 15 -91z" />
    <glyph glyph-name="w" unicode="w" horiz-adv-x="868" 
d="M198 -10c-82 0 -126 51 -126 129c0 98 69 227 297 373h-262l-55 -102h-6l48 112h308c-188 -116 -316 -248 -316 -382c0 -77 43 -118 114 -118c62 0 128 27 187 70c-17 35 -24 79 -24 126c0 151 112 314 206 314c32 0 58 -22 58 -76c0 -37 -16 -107 -71 -197
c-37 -62 -92 -123 -155 -170c22 -41 60 -67 115 -67c150 0 289 177 300 393l-13 107c1 7 5 10 10 10c14 0 15 -20 15 -91c0 -230 -148 -431 -313 -431c-60 0 -100 28 -123 72c-62 -43 -130 -72 -194 -72zM374 198c0 -46 7 -87 22 -120c60 45 113 104 150 164
c52 84 69 157 69 193c0 46 -20 65 -47 65c-83 0 -194 -146 -194 -302z" />
    <glyph glyph-name="x" unicode="x" horiz-adv-x="601" 
d="M38 -10c-48 0 -65 40 -65 70c0 14 7 20 16 20c0 -43 8 -80 49 -80c87 0 174 120 258 256l-30 180c-7 44 -16 66 -40 66c-32 0 -87 -42 -135 -121l-10 4c52 86 113 127 147 127c28 0 40 -16 50 -76l28 -167c88 140 166 243 256 243c48 0 65 -40 65 -70
c0 -14 -7 -20 -16 -20c0 43 -8 80 -49 80c-85 0 -170 -115 -253 -248l31 -188c7 -44 16 -66 40 -66c32 0 87 42 135 121l10 -4c-52 -86 -113 -127 -147 -127c-28 0 -40 16 -50 76l-29 174c-90 -143 -170 -250 -261 -250z" />
    <glyph glyph-name="y" unicode="y" horiz-adv-x="523" 
d="M-113 -258c-38 0 -68 22 -68 37c0 7 5 12 12 13c11 -28 29 -40 59 -40c56 0 115 46 224 178l68 82l-16 476l-95 8l3 6h104l17 -475l341 412c48 58 59 73 68 73c5 0 8 -3 8 -7s-3 -9 -9 -14c-13 -10 -31 -28 -51 -52l-426 -513c-117 -141 -179 -184 -239 -184z" />
    <glyph glyph-name="z" unicode="z" horiz-adv-x="561" 
d="M110 390l48 112h413l-360 -292l86 -136c45 -71 71 -95 116 -95c58 0 87 55 40 189l7 3c49 -138 23 -202 -48 -202c-55 0 -81 29 -129 105l-82 128l-191 -154c-18 -15 -17 -40 -15 -58c-15 0 -23 8 -23 20c0 13 11 30 34 48l536 434h-371l-55 -102h-6z" />
    <glyph glyph-name="braceleft" unicode="{" horiz-adv-x="300" 
d="M103 -234c-106 21 -154 101 -76 241l64 115c56 101 36 166 -40 180l2 6c86 14 150 79 164 180l16 115c21 150 97 199 226 199l-1 -10c-123 0 -193 -45 -213 -190l-16 -115c-13 -93 -71 -162 -151 -182v-2c60 -20 77 -87 25 -180l-64 -115c-77 -139 -34 -212 69 -232z" />
    <glyph glyph-name="bar" unicode="|" horiz-adv-x="331" 
d="M173 -211v1004h12v-1004h-12z" />
    <glyph glyph-name="braceright" unicode="}" horiz-adv-x="300" 
d="M219 802c106 -21 154 -101 76 -241l-64 -115c-56 -101 -36 -166 40 -180l-2 -6c-86 -14 -150 -79 -164 -180l-16 -115c-21 -150 -97 -199 -226 -199l1 10c123 0 193 45 213 190l16 115c13 93 71 162 151 182v2c-60 20 -77 87 -25 180l64 115c77 139 34 212 -69 232z" />
    <glyph glyph-name="asciitilde" unicode="~" horiz-adv-x="653" 
d="M217 320c105 0 138 -102 228 -102c38 0 98 9 112 99h12c-13 -91 -76 -109 -124 -109c-99 0 -127 102 -228 102c-38 0 -98 -9 -112 -99h-12c13 91 76 109 124 109z" />
    <glyph glyph-name="uni00A0" unicode="&#xa0;" horiz-adv-x="308" 
 />
    <glyph glyph-name="exclamdown" unicode="&#xa1;" horiz-adv-x="215" 
d="M180 512c11 0 19 -9 19 -19c0 -11 -8 -20 -19 -20c-12 0 -20 9 -20 20c0 10 8 19 20 19zM135 327c-95 -311 -134 -451 -175 -582c-1 -4 -17 -4 -16 0c41 131 86 271 183 582h8z" />
    <glyph glyph-name="cent" unicode="&#xa2;" horiz-adv-x="489" 
d="M87 -120l50 114c-59 13 -98 62 -98 141c0 186 169 377 331 377l49 108h13l-50 -108c65 -4 92 -47 92 -101c0 -19 -5 -31 -19 -29c14 81 -20 120 -86 120c-147 0 -315 -178 -315 -367c0 -92 54 -135 116 -135c80 0 161 46 221 161l7 -3c-59 -116 -143 -168 -228 -168
c-7 0 -14 0 -21 1l-49 -111h-13z" />
    <glyph glyph-name="sterling" unicode="&#xa3;" horiz-adv-x="647" 
d="M-10 0l1 4l63 45c170 121 243 199 243 276c0 6 -1 13 -2 19h-202l3 11h197c-2 9 -5 18 -9 26l-31 73c-15 35 -22 67 -22 97c0 129 137 217 268 217c119 0 171 -58 171 -103c0 -14 -4 -23 -18 -21c8 63 -45 113 -153 113c-129 0 -255 -88 -255 -205c0 -30 7 -61 22 -95
l31 -73c4 -10 7 -19 9 -29h221l-3 -11h-215c0 -6 1 -13 1 -19c0 -72 -64 -152 -247 -281l-47 -33h522l-6 -11h-542z" />
    <glyph glyph-name="yen" unicode="&#xa5;" horiz-adv-x="855" 
d="M267 0l2 6l50 2c22 1 34 5 37 16l60 195h-248l4 11h247l32 102h-259l4 11h258l-171 391c-4 9 -10 15 -35 16l-59 2l2 6h198l-2 -6l-61 -2c-26 -1 -33 -7 -29 -16l166 -380l396 380c11 11 -1 15 -27 16l-59 2l2 6h200l-2 -6l-61 -2c-21 -1 -28 -7 -37 -16l-408 -391h247
l-4 -11h-246l-32 -102h258l-4 -11h-257l-60 -195c-3 -11 7 -15 27 -16l50 -2l-2 -6h-177z" />
    <glyph glyph-name="brokenbar" unicode="&#xa6;" horiz-adv-x="331" 
d="M173 399v394h12v-394h-12zM173 -211v394h12v-394h-12z" />
    <glyph glyph-name="section" unicode="&#xa7;" horiz-adv-x="596" 
d="M235 206l-30 57c-39 74 -65 136 -65 214c0 146 131 291 352 291c124 0 149 -74 149 -109c0 -17 -8 -22 -21 -22c9 67 -25 121 -130 121c-120 0 -184 -74 -184 -156c0 -49 18 -103 57 -176l30 -57c45 -85 96 -173 96 -273c0 -139 -151 -292 -352 -292
c-138 0 -171 85 -169 130c1 21 10 25 21 24c-13 -75 31 -144 151 -144c114 0 179 94 179 169c0 66 -32 124 -84 223zM221 -177c139 35 254 146 254 273c0 92 -47 178 -91 261l-31 59c-41 78 -60 132 -60 181c0 62 25 120 107 152c-134 -24 -247 -134 -247 -272
c0 -74 26 -135 61 -202l31 -59c56 -107 87 -163 87 -232c0 -65 -40 -131 -111 -161z" />
    <glyph glyph-name="dieresis" unicode="&#xa8;" 
d="M120 690c-10 0 -19 9 -19 19s9 19 19 19s19 -9 19 -19s-9 -19 -19 -19zM-120 690c-10 0 -19 9 -19 19s9 19 19 19s19 -9 19 -19s-9 -19 -19 -19z" />
    <glyph glyph-name="copyright" unicode="&#xa9;" horiz-adv-x="920" 
d="M500 -10c-229 0 -382 173 -382 389s153 389 382 389s382 -173 382 -389s-153 -389 -382 -389zM500 0c191 0 367 142 367 379s-176 379 -367 379s-367 -142 -367 -379s176 -379 367 -379zM513 165c-132 0 -237 81 -237 221s105 222 239 222c52 0 105 -10 139 -36l25 -91
h-5l-29 71c-5 13 -8 16 -15 21c-18 15 -65 25 -114 25c-119 0 -225 -68 -225 -208c0 -137 94 -215 224 -215c49 0 97 10 116 24c7 6 9 9 15 22l33 75h5l-30 -95c-34 -26 -89 -36 -141 -36z" />
    <glyph glyph-name="ordfeminine" unicode="&#xaa;" horiz-adv-x="535" 
d="M206 347c-51 0 -80 28 -80 83c0 146 168 338 301 338c53 0 75 -38 73 -83h2l27 75h12l-134 -360c-14 -39 -8 -44 7 -44c35 0 89 27 137 103l6 -4c-48 -75 -107 -108 -146 -108c-26 0 -31 13 -16 54l42 112h-2c-67 -107 -157 -166 -229 -166zM210 356c84 0 207 99 263 252
c37 100 12 152 -47 152c-123 0 -286 -187 -286 -330c0 -47 23 -74 70 -74z" />
    <glyph glyph-name="guillemotleft" unicode="&#xab;" horiz-adv-x="547" 
d="M74 256l136 -205l-10 -7l-142 214l290 214l6 -9zM274 256l136 -205l-10 -7l-142 214l290 214l6 -9z" />
    <glyph glyph-name="uni00AD" unicode="&#xad;" horiz-adv-x="460" 
d="M84 254l4 11h294l-4 -11h-294z" />
    <glyph glyph-name="registered" unicode="&#xae;" horiz-adv-x="920" 
d="M500 -10c-229 0 -382 173 -382 389s153 389 382 389s382 -173 382 -389s-153 -389 -382 -389zM500 0c191 0 367 142 367 379s-176 379 -367 379s-367 -142 -367 -379s176 -379 367 -379zM333 178v7l33 2c13 1 19 3 19 12v388c0 9 -6 11 -19 12l-33 2v7h140
c88 0 169 -16 169 -107c0 -86 -75 -107 -146 -110l214 -213h-16l-214 213h-83v-192c0 -9 7 -11 19 -12l33 -2v-7h-116zM397 401h72c86 0 160 16 160 99s-74 98 -160 98h-72v-197z" />
    <glyph glyph-name="macron" unicode="&#xaf;" 
d="M-143 667l4 9h281l-3 -9h-282z" />
    <glyph glyph-name="degree" unicode="&#xb0;" horiz-adv-x="463" 
d="M332 430c-95 0 -170 75 -170 169s75 169 170 169s170 -75 170 -169s-75 -169 -170 -169zM332 442c82 0 157 61 157 157s-75 157 -157 157s-157 -61 -157 -157s75 -157 157 -157z" />
    <glyph glyph-name="plusminus" unicode="&#xb1;" horiz-adv-x="653" 
d="M299 80v224h-252v11h252v220h12v-220h252v-11h-252v-224h-12zM47 0v11h516v-11h-516z" />
    <glyph glyph-name="twosuperior" unicode="&#xb2;" horiz-adv-x="355" 
d="M65 401l1 2c258 176 365 252 365 339c0 49 -33 77 -86 77c-58 0 -114 -33 -126 -111h-6c11 79 67 120 134 120c62 0 96 -34 96 -85c0 -77 -72 -143 -309 -300l-48 -32h227c10 0 14 2 20 10l54 72h6l-63 -92h-265z" />
    <glyph glyph-name="threesuperior" unicode="&#xb3;" horiz-adv-x="344" 
d="M382 540c0 -76 -62 -149 -160 -149c-93 0 -120 71 -115 95c2 6 8 9 15 7c-6 -52 34 -93 100 -93c90 0 147 64 147 140c0 59 -42 99 -77 99c-17 0 -31 -3 -42 -5v6l14 3c96 16 145 64 145 113c0 38 -29 63 -80 63c-48 0 -97 -25 -113 -86h-6c15 67 69 95 121 95
c53 0 90 -27 90 -71c0 -53 -57 -95 -111 -109v-1c36 -11 72 -49 72 -107z" />
    <glyph glyph-name="acute" unicode="&#xb4;" 
d="M-93 579l170 179h16v-1l-175 -178h-11z" />
    <glyph glyph-name="paragraph" unicode="&#xb6;" horiz-adv-x="581" 
d="M176 -197l147 483h-13c-124 0 -197 79 -197 175c0 179 170 297 429 297h136v-8l-60 -2c-22 -1 -34 -5 -37 -16l-257 -832l-14 -10l128 418c-36 -12 -66 -19 -103 -21l-145 -475z" />
    <glyph glyph-name="periodcentered" unicode="&#xb7;" horiz-adv-x="205" 
d="M105 240c-11 0 -19 9 -19 19c0 11 8 20 19 20c12 0 20 -9 20 -20c0 -10 -8 -19 -20 -19z" />
    <glyph glyph-name="cedilla" unicode="&#xb8;" 
d="M-12 -246c-58 0 -98 35 -98 65c0 10 5 15 14 11c0 -44 41 -68 84 -68c47 0 74 21 74 57c0 32 -47 62 -84 89l127 92h17l-125 -90c40 -29 79 -56 79 -91c0 -40 -38 -65 -88 -65z" />
    <glyph glyph-name="onesuperior" unicode="&#xb9;" horiz-adv-x="220" 
d="M100 401l2 6l41 2c14 1 21 3 23 10l136 393l-115 -43l3 10l128 48l-140 -408c-2 -7 2 -11 14 -11l39 -1l-2 -6h-129z" />
    <glyph glyph-name="ordmasculine" unicode="&#xba;" horiz-adv-x="486" 
d="M277 347c-79 0 -136 52 -136 138c0 144 122 283 252 283c79 0 136 -51 136 -138c0 -144 -122 -283 -252 -283zM280 355c114 0 234 128 234 275c0 86 -55 130 -124 130c-115 0 -234 -128 -234 -274c0 -87 54 -131 124 -131z" />
    <glyph glyph-name="guillemotright" unicode="&#xbb;" horiz-adv-x="548" 
d="M280 260l-136 205l10 7l142 -214l-290 -214l-6 9zM480 260l-136 205l10 7l142 -214l-290 -214l-6 9z" />
    <glyph glyph-name="onequarter" unicode="&#xbc;" horiz-adv-x="795" 
d="M82 341l2 6l41 2c14 1 21 3 23 10l136 393l-115 -43l3 10l128 48l-140 -408c-2 -7 2 -11 14 -11l39 -1l-2 -6h-129zM-54 0l828 758h17l-828 -758h-17zM591 0l41 120h-248l354 299h9l-99 -289h88l-4 -10h-88l-41 -120h-12zM409 130h227l92 269z" />
    <glyph glyph-name="onehalf" unicode="&#xbd;" horiz-adv-x="781" 
d="M82 341l2 6l41 2c14 1 21 3 23 10l136 393l-115 -43l3 10l128 48l-140 -408c-2 -7 2 -11 14 -11l39 -1l-2 -6h-129zM-54 0l828 758h17l-828 -758h-17zM368 0l1 2c258 176 365 252 365 339c0 49 -33 77 -86 77c-58 0 -114 -33 -126 -111h-6c11 79 67 120 134 120
c62 0 96 -34 96 -85c0 -77 -72 -143 -309 -300l-48 -32h227c10 0 14 2 20 10l54 72h6l-63 -92h-265z" />
    <glyph glyph-name="threequarters" unicode="&#xbe;" horiz-adv-x="913" 
d="M364 480c0 -76 -62 -149 -160 -149c-93 0 -120 71 -115 95c2 6 8 9 15 7c-6 -52 34 -93 100 -93c90 0 147 64 147 140c0 59 -42 99 -77 99c-17 0 -31 -3 -42 -5v6l14 3c96 16 145 64 145 113c0 38 -29 63 -80 63c-48 0 -97 -25 -113 -86h-6c15 67 69 95 121 95
c53 0 90 -27 90 -71c0 -53 -57 -95 -111 -109v-1c36 -11 72 -49 72 -107zM64 0l828 758h17l-828 -758h-17zM709 0l41 120h-248l354 299h9l-99 -289h88l-4 -10h-88l-41 -120h-12zM527 130h227l92 269z" />
    <glyph glyph-name="questiondown" unicode="&#xbf;" horiz-adv-x="561" 
d="M419 512c11 0 19 -9 19 -19c0 -11 -8 -20 -19 -20c-12 0 -20 9 -20 20c0 10 8 19 20 19zM182 -248c98 0 192 43 215 121c4 2 17 1 13 -12c-23 -69 -125 -119 -228 -119c-136 0 -227 80 -227 194c0 105 74 169 221 184l87 9c37 4 46 9 62 56l47 143h9l-45 -144
c-17 -54 -26 -62 -71 -67l-88 -9c-136 -14 -207 -71 -207 -172c0 -111 87 -184 212 -184z" />
    <glyph glyph-name="Agrave" unicode="&#xc0;" horiz-adv-x="805" 
d="M856 833h-11l-123 138l1 1h15zM-134 0l2 6l60 2c22 1 38 7 48 16l820 749h15l-229 -749c-3 -11 7 -15 27 -16l60 -2l-2 -6h-197l2 6l60 2c22 1 34 5 37 16l93 303h-338l-332 -303c-10 -9 -13 -15 14 -16l60 -2l-2 -6h-198zM336 338h329l127 416z" />
    <glyph glyph-name="Aacute" unicode="&#xc1;" horiz-adv-x="805" 
d="M747 833l211 139h20l-1 -1l-217 -138h-13zM-134 0l2 6l60 2c22 1 38 7 48 16l820 749h15l-229 -749c-3 -11 7 -15 27 -16l60 -2l-2 -6h-197l2 6l60 2c22 1 34 5 37 16l93 303h-338l-332 -303c-10 -9 -13 -15 14 -16l60 -2l-2 -6h-198zM336 338h329l127 416z" />
    <glyph glyph-name="Acircumflex" unicode="&#xc2;" horiz-adv-x="805" 
d="M643 833l214 139h4l78 -139h-9l-76 119l-200 -119h-11zM-134 0l2 6l60 2c22 1 38 7 48 16l820 749h15l-229 -749c-3 -11 7 -15 27 -16l60 -2l-2 -6h-197l2 6l60 2c22 1 34 5 37 16l93 303h-338l-332 -303c-10 -9 -13 -15 14 -16l60 -2l-2 -6h-198zM336 338h329l127 416z
" />
    <glyph glyph-name="Atilde" unicode="&#xc3;" horiz-adv-x="805" 
d="M892 861c-78 0 -87 83 -149 83c-36 0 -65 -24 -82 -72h-12c20 57 54 82 94 82c71 0 80 -83 149 -83c34 0 63 24 81 72h11c-19 -57 -55 -82 -92 -82zM-134 0l2 6l60 2c22 1 38 7 48 16l820 749h15l-229 -749c-3 -11 7 -15 27 -16l60 -2l-2 -6h-197l2 6l60 2
c22 1 34 5 37 16l93 303h-338l-332 -303c-10 -9 -13 -15 14 -16l60 -2l-2 -6h-198zM336 338h329l127 416z" />
    <glyph glyph-name="Adieresis" unicode="&#xc4;" horiz-adv-x="805" 
d="M927 935c0 10 9 19 19 19s19 -9 19 -19s-9 -19 -19 -19s-19 9 -19 19zM687 935c0 10 9 19 19 19s19 -9 19 -19s-9 -19 -19 -19s-19 9 -19 19zM-134 0l2 6l60 2c22 1 38 7 48 16l820 749h15l-229 -749c-3 -11 7 -15 27 -16l60 -2l-2 -6h-197l2 6l60 2c22 1 34 5 37 16
l93 303h-338l-332 -303c-10 -9 -13 -15 14 -16l60 -2l-2 -6h-198zM336 338h329l127 416z" />
    <glyph glyph-name="Aring" unicode="&#xc5;" horiz-adv-x="805" 
d="M824 832c-56 0 -102 42 -102 98s46 98 102 98s102 -42 102 -98s-46 -98 -102 -98zM824 842c50 0 90 39 90 88s-40 88 -90 88s-90 -39 -90 -88s40 -88 90 -88zM-134 0l2 6l60 2c22 1 38 7 48 16l820 749h15l-229 -749c-3 -11 7 -15 27 -16l60 -2l-2 -6h-197l2 6l60 2
c22 1 34 5 37 16l93 303h-338l-332 -303c-10 -9 -13 -15 14 -16l60 -2l-2 -6h-198zM336 338h329l127 416z" />
    <glyph glyph-name="AE" unicode="&#xc6;" horiz-adv-x="1157" 
d="M-134 0l2 6l60 2c22 1 36 7 46 16l795 734h410l-17 -147h-7l5 124c0 9 -3 12 -13 12h-367l-104 -343h228c27 0 28 2 33 16l36 97h7l-72 -237h-7l23 97c4 14 3 16 -24 16h-228l-117 -382h421c13 0 19 2 27 13l98 129h7l-102 -153h-558l2 6l60 2c22 1 34 5 37 16l92 303
h-321l-328 -303c-10 -9 -11 -15 16 -16l60 -2l-2 -6h-198zM330 338h313l122 402z" />
    <glyph glyph-name="Ccedilla" unicode="&#xc7;" horiz-adv-x="805" 
d="M278 -247c-58 0 -98 35 -98 65c0 10 5 15 14 11c0 -44 41 -68 84 -68c47 0 74 21 74 57c0 32 -47 62 -84 89l115 83c-158 1 -294 89 -294 288c0 274 250 490 522 490c106 0 181 -33 226 -70l-2 -137h-7l-9 110c-2 21 -2 27 -14 35c-22 15 -86 52 -194 52
c-246 0 -507 -197 -507 -480c0 -208 147 -278 280 -278c95 0 186 23 229 52c15 10 22 14 38 35l94 119h7l-100 -146c-71 -47 -162 -67 -250 -70l-114 -82c39 -29 78 -55 78 -90c0 -40 -38 -65 -88 -65z" />
    <glyph glyph-name="Egrave" unicode="&#xc8;" horiz-adv-x="697" 
d="M602 833h-11l-123 138l1 1h15zM-12 0l2 6l60 2c22 1 34 5 37 16l217 710c3 11 -6 15 -27 16l-59 2l2 6h499l-17 -147h-7l5 124c0 9 -3 12 -13 12h-366l-104 -343h227c27 0 28 2 33 16l36 97h7l-72 -237h-7l23 97c4 14 3 16 -24 16h-227l-117 -382h420c13 0 19 2 27 13
l98 129h7l-102 -153h-558z" />
    <glyph glyph-name="Eacute" unicode="&#xc9;" horiz-adv-x="697" 
d="M493 833l211 139h20l-1 -1l-217 -138h-13zM-12 0l2 6l60 2c22 1 34 5 37 16l217 710c3 11 -6 15 -27 16l-59 2l2 6h499l-17 -147h-7l5 124c0 9 -3 12 -13 12h-366l-104 -343h227c27 0 28 2 33 16l36 97h7l-72 -237h-7l23 97c4 14 3 16 -24 16h-227l-117 -382h420
c13 0 19 2 27 13l98 129h7l-102 -153h-558z" />
    <glyph glyph-name="Ecircumflex" unicode="&#xca;" horiz-adv-x="697" 
d="M389 833l214 139h4l78 -139h-9l-76 119l-200 -119h-11zM-12 0l2 6l60 2c22 1 34 5 37 16l217 710c3 11 -6 15 -27 16l-59 2l2 6h499l-17 -147h-7l5 124c0 9 -3 12 -13 12h-366l-104 -343h227c27 0 28 2 33 16l36 97h7l-72 -237h-7l23 97c4 14 3 16 -24 16h-227l-117 -382
h420c13 0 19 2 27 13l98 129h7l-102 -153h-558z" />
    <glyph glyph-name="Edieresis" unicode="&#xcb;" horiz-adv-x="697" 
d="M673 935c0 10 9 19 19 19s19 -9 19 -19s-9 -19 -19 -19s-19 9 -19 19zM433 935c0 10 9 19 19 19s19 -9 19 -19s-9 -19 -19 -19s-19 9 -19 19zM-12 0l2 6l60 2c22 1 34 5 37 16l217 710c3 11 -6 15 -27 16l-59 2l2 6h499l-17 -147h-7l5 124c0 9 -3 12 -13 12h-366
l-104 -343h227c27 0 28 2 33 16l36 97h7l-72 -237h-7l23 97c4 14 3 16 -24 16h-227l-117 -382h420c13 0 19 2 27 13l98 129h7l-102 -153h-558z" />
    <glyph glyph-name="Igrave" unicode="&#xcc;" horiz-adv-x="324" 
d="M409 833h-11l-123 138l1 1h15zM-12 0l2 6l60 2c22 1 34 5 37 16l217 710c3 11 -6 15 -27 16l-59 2l2 6h197l-2 -6l-61 -2c-21 -1 -34 -5 -37 -16l-217 -710c-3 -11 7 -15 27 -16l60 -2l-2 -6h-197z" />
    <glyph glyph-name="Iacute" unicode="&#xcd;" horiz-adv-x="324" 
d="M300 833l211 139h20l-1 -1l-217 -138h-13zM-12 0l2 6l60 2c22 1 34 5 37 16l217 710c3 11 -6 15 -27 16l-59 2l2 6h197l-2 -6l-61 -2c-21 -1 -34 -5 -37 -16l-217 -710c-3 -11 7 -15 27 -16l60 -2l-2 -6h-197z" />
    <glyph glyph-name="Icircumflex" unicode="&#xce;" horiz-adv-x="324" 
d="M196 833l214 139h4l78 -139h-9l-76 119l-200 -119h-11zM-12 0l2 6l60 2c22 1 34 5 37 16l217 710c3 11 -6 15 -27 16l-59 2l2 6h197l-2 -6l-61 -2c-21 -1 -34 -5 -37 -16l-217 -710c-3 -11 7 -15 27 -16l60 -2l-2 -6h-197z" />
    <glyph glyph-name="Idieresis" unicode="&#xcf;" horiz-adv-x="324" 
d="M480 935c0 10 9 19 19 19s19 -9 19 -19s-9 -19 -19 -19s-19 9 -19 19zM240 935c0 10 9 19 19 19s19 -9 19 -19s-9 -19 -19 -19s-19 9 -19 19zM-12 0l2 6l60 2c22 1 34 5 37 16l217 710c3 11 -6 15 -27 16l-59 2l2 6h197l-2 -6l-61 -2c-21 -1 -34 -5 -37 -16l-217 -710
c-3 -11 7 -15 27 -16l60 -2l-2 -6h-197z" />
    <glyph glyph-name="Eth" unicode="&#xd0;" horiz-adv-x="845" 
d="M-12 0l2 6l60 2c22 1 34 5 37 16l113 369h-93l4 11h92l101 330c3 11 -6 15 -27 16l-59 2l2 6h244c204 0 375 -71 375 -262c0 -295 -269 -496 -605 -496h-246zM96 11h139c318 0 589 188 589 485c0 179 -152 251 -364 251h-139l-105 -343h239l-4 -11h-238z" />
    <glyph glyph-name="Ntilde" unicode="&#xd1;" horiz-adv-x="886" 
d="M728 861c-78 0 -87 83 -149 83c-36 0 -65 -24 -82 -72h-12c20 57 54 82 94 82c71 0 80 -83 149 -83c34 0 63 24 81 72h11c-19 -57 -55 -82 -92 -82zM655 -22l-337 760l-218 -714c-3 -11 7 -15 27 -16l60 -2l-2 -6h-197l2 6l60 2c22 1 34 5 37 16l217 710
c3 11 -6 15 -27 16l-59 2l2 6h103l331 -746l221 722c3 11 -6 15 -27 16l-59 2l2 6h197l-2 -6l-61 -2c-21 -1 -34 -5 -37 -16l-231 -756h-2z" />
    <glyph glyph-name="Ograve" unicode="&#xd2;" horiz-adv-x="873" 
d="M701 833h-11l-123 138l1 1h15zM371 -10c-154 0 -286 94 -286 276c0 227 209 502 497 502c154 0 286 -94 286 -276c0 -227 -209 -502 -497 -502zM371 0c274 0 482 265 482 492c0 176 -126 266 -271 266c-274 0 -482 -265 -482 -492c0 -176 126 -266 271 -266z" />
    <glyph glyph-name="Oacute" unicode="&#xd3;" horiz-adv-x="873" 
d="M592 833l211 139h20l-1 -1l-217 -138h-13zM371 -10c-154 0 -286 94 -286 276c0 227 209 502 497 502c154 0 286 -94 286 -276c0 -227 -209 -502 -497 -502zM371 0c274 0 482 265 482 492c0 176 -126 266 -271 266c-274 0 -482 -265 -482 -492c0 -176 126 -266 271 -266z
" />
    <glyph glyph-name="Ocircumflex" unicode="&#xd4;" horiz-adv-x="873" 
d="M488 833l214 139h4l78 -139h-9l-76 119l-200 -119h-11zM371 -10c-154 0 -286 94 -286 276c0 227 209 502 497 502c154 0 286 -94 286 -276c0 -227 -209 -502 -497 -502zM371 0c274 0 482 265 482 492c0 176 -126 266 -271 266c-274 0 -482 -265 -482 -492
c0 -176 126 -266 271 -266z" />
    <glyph glyph-name="Otilde" unicode="&#xd5;" horiz-adv-x="873" 
d="M737 861c-78 0 -87 83 -149 83c-36 0 -65 -24 -82 -72h-12c20 57 54 82 94 82c71 0 80 -83 149 -83c34 0 63 24 81 72h11c-19 -57 -55 -82 -92 -82zM371 -10c-154 0 -286 94 -286 276c0 227 209 502 497 502c154 0 286 -94 286 -276c0 -227 -209 -502 -497 -502zM371 0
c274 0 482 265 482 492c0 176 -126 266 -271 266c-274 0 -482 -265 -482 -492c0 -176 126 -266 271 -266z" />
    <glyph glyph-name="Odieresis" unicode="&#xd6;" horiz-adv-x="873" 
d="M772 935c0 10 9 19 19 19s19 -9 19 -19s-9 -19 -19 -19s-19 9 -19 19zM532 935c0 10 9 19 19 19s19 -9 19 -19s-9 -19 -19 -19s-19 9 -19 19zM371 -10c-154 0 -286 94 -286 276c0 227 209 502 497 502c154 0 286 -94 286 -276c0 -227 -209 -502 -497 -502zM371 0
c274 0 482 265 482 492c0 176 -126 266 -271 266c-274 0 -482 -265 -482 -492c0 -176 126 -266 271 -266z" />
    <glyph glyph-name="multiply" unicode="&#xd7;" horiz-adv-x="653" 
d="M122 43l-9 9l206 205l-206 206l9 9l206 -206l206 206l8 -8l-206 -206l206 -207l-8 -9l-207 207z" />
    <glyph glyph-name="Oslash" unicode="&#xd8;" horiz-adv-x="873" 
d="M22 -62l-8 9l138 131c-42 45 -67 108 -67 188c0 227 209 502 497 502c82 0 158 -27 211 -80l139 132l8 -8l-139 -132c42 -45 67 -108 67 -188c0 -227 -209 -502 -497 -502c-82 0 -158 27 -211 79zM100 266c0 -76 23 -135 61 -179l623 592c-50 53 -123 79 -202 79
c-274 0 -482 -265 -482 -492zM371 0c274 0 482 265 482 492c0 76 -23 135 -61 179l-623 -593c51 -52 124 -78 202 -78z" />
    <glyph glyph-name="Ugrave" unicode="&#xd9;" horiz-adv-x="862" 
d="M674 833h-11l-123 138l1 1h15zM359 -10c-195 0 -264 104 -202 308l133 436c3 11 -6 15 -27 16l-59 2l2 6h197l-2 -6l-61 -2c-21 -1 -34 -5 -37 -16l-133 -436c-55 -180 -15 -298 189 -298s317 120 371 298l133 436c3 11 -6 15 -27 16l-59 2l2 6h197l-2 -6l-61 -2
c-21 -1 -34 -5 -37 -16l-133 -436c-62 -204 -186 -308 -384 -308z" />
    <glyph glyph-name="Uacute" unicode="&#xda;" horiz-adv-x="862" 
d="M565 833l211 139h20l-1 -1l-217 -138h-13zM359 -10c-195 0 -264 104 -202 308l133 436c3 11 -6 15 -27 16l-59 2l2 6h197l-2 -6l-61 -2c-21 -1 -34 -5 -37 -16l-133 -436c-55 -180 -15 -298 189 -298s317 120 371 298l133 436c3 11 -6 15 -27 16l-59 2l2 6h197l-2 -6
l-61 -2c-21 -1 -34 -5 -37 -16l-133 -436c-62 -204 -186 -308 -384 -308z" />
    <glyph glyph-name="Ucircumflex" unicode="&#xdb;" horiz-adv-x="862" 
d="M461 833l214 139h4l78 -139h-9l-76 119l-200 -119h-11zM359 -10c-195 0 -264 104 -202 308l133 436c3 11 -6 15 -27 16l-59 2l2 6h197l-2 -6l-61 -2c-21 -1 -34 -5 -37 -16l-133 -436c-55 -180 -15 -298 189 -298s317 120 371 298l133 436c3 11 -6 15 -27 16l-59 2l2 6
h197l-2 -6l-61 -2c-21 -1 -34 -5 -37 -16l-133 -436c-62 -204 -186 -308 -384 -308z" />
    <glyph glyph-name="Udieresis" unicode="&#xdc;" horiz-adv-x="862" 
d="M745 935c0 10 9 19 19 19s19 -9 19 -19s-9 -19 -19 -19s-19 9 -19 19zM505 935c0 10 9 19 19 19s19 -9 19 -19s-9 -19 -19 -19s-19 9 -19 19zM359 -10c-195 0 -264 104 -202 308l133 436c3 11 -6 15 -27 16l-59 2l2 6h197l-2 -6l-61 -2c-21 -1 -34 -5 -37 -16l-133 -436
c-55 -180 -15 -298 189 -298s317 120 371 298l133 436c3 11 -6 15 -27 16l-59 2l2 6h197l-2 -6l-61 -2c-21 -1 -34 -5 -37 -16l-133 -436c-62 -204 -186 -308 -384 -308z" />
    <glyph glyph-name="Yacute" unicode="&#xdd;" horiz-adv-x="773" 
d="M505 833l211 139h20l-1 -1l-217 -138h-13zM212 0l2 6l60 2c22 1 34 5 37 16l98 319l-171 391c-4 9 -10 15 -35 16l-59 2l2 6h198l-2 -6l-61 -2c-26 -1 -33 -7 -29 -16l166 -380l396 380c11 11 -1 15 -27 16l-59 2l2 6h200l-2 -6l-61 -2c-21 -1 -28 -7 -37 -16l-408 -391
l-98 -319c-3 -11 7 -15 27 -16l60 -2l-2 -6h-197z" />
    <glyph glyph-name="Thorn" unicode="&#xde;" horiz-adv-x="703" 
d="M218 752l2 6h197l-2 -6l-61 -2c-21 -1 -34 -5 -37 -16l-48 -156h189c129 0 244 -31 244 -143c0 -144 -135 -249 -364 -249h-188l-50 -162c-3 -11 6 -16 27 -16l110 -2l-2 -6h-247l2 6l60 2c22 1 34 5 37 16l217 710c3 11 -6 15 -27 16zM153 197h183c215 0 351 93 351 238
c0 105 -110 132 -237 132h-184z" />
    <glyph glyph-name="germandbls" unicode="&#xdf;" horiz-adv-x="653" 
d="M-165 -258c-55 0 -83 24 -83 39c0 7 5 12 12 13c12 -31 34 -42 73 -42c51 0 121 28 177 190l191 549h-83l3 9c80 0 84 2 86 9l13 38c41 121 136 221 276 221c83 0 133 -38 133 -88c0 -67 -63 -106 -147 -138l-29 -11c-48 -18 -74 -38 -75 -71c-1 -31 28 -63 67 -109
l32 -37c47 -55 93 -101 93 -166c0 -111 -112 -158 -227 -158c-123 0 -187 75 -186 114c1 10 11 13 18 8c4 -63 68 -112 170 -112c111 0 211 47 211 148c0 61 -44 107 -87 156l-32 36c-44 50 -73 84 -72 120c2 38 30 60 87 82l29 11c84 32 135 69 135 125
c0 46 -45 80 -121 80c-138 0 -224 -101 -264 -215l-210 -603c-60 -171 -137 -198 -190 -198z" />
    <glyph glyph-name="agrave" unicode="&#xe0;" horiz-adv-x="577" 
d="M412 579h-9l-53 178v1h14zM121 -10c-64 0 -100 34 -100 103c0 181 208 419 374 419c66 0 93 -48 91 -105h2l34 95h12l-166 -447c-18 -49 -10 -55 9 -55c43 0 111 34 170 127l7 -4c-59 -93 -132 -133 -180 -133c-34 0 -37 16 -18 66l52 140h-2
c-84 -133 -197 -206 -285 -206zM124 0c105 0 258 122 328 313c46 124 15 189 -59 189c-153 0 -357 -231 -357 -409c0 -59 29 -93 88 -93z" />
    <glyph glyph-name="aacute" unicode="&#xe1;" horiz-adv-x="577" 
d="M391 579l170 179h16v-1l-175 -178h-11zM121 -10c-64 0 -100 34 -100 103c0 181 208 419 374 419c66 0 93 -48 91 -105h2l34 95h12l-166 -447c-18 -49 -10 -55 9 -55c43 0 111 34 170 127l7 -4c-59 -93 -132 -133 -180 -133c-34 0 -37 16 -18 66l52 140h-2
c-84 -133 -197 -206 -285 -206zM124 0c105 0 258 122 328 313c46 124 15 189 -59 189c-153 0 -357 -231 -357 -409c0 -59 29 -93 88 -93z" />
    <glyph glyph-name="acircumflex" unicode="&#xe2;" horiz-adv-x="577" 
d="M251 579l246 189h4l75 -189h-9l-73 170l-232 -170h-11zM121 -10c-64 0 -100 34 -100 103c0 181 208 419 374 419c66 0 93 -48 91 -105h2l34 95h12l-166 -447c-18 -49 -10 -55 9 -55c43 0 111 34 170 127l7 -4c-59 -93 -132 -133 -180 -133c-34 0 -37 16 -18 66l52 140h-2
c-84 -133 -197 -206 -285 -206zM124 0c105 0 258 122 328 313c46 124 15 189 -59 189c-153 0 -357 -231 -357 -409c0 -59 29 -93 88 -93z" />
    <glyph glyph-name="atilde" unicode="&#xe3;" horiz-adv-x="577" 
d="M541 631c-78 0 -87 83 -149 83c-36 0 -65 -24 -82 -72h-12c20 57 54 82 94 82c71 0 80 -83 149 -83c34 0 63 24 81 72h11c-19 -57 -55 -82 -92 -82zM121 -10c-64 0 -100 34 -100 103c0 181 208 419 374 419c66 0 93 -48 91 -105h2l34 95h12l-166 -447
c-18 -49 -10 -55 9 -55c43 0 111 34 170 127l7 -4c-59 -93 -132 -133 -180 -133c-34 0 -37 16 -18 66l52 140h-2c-84 -133 -197 -206 -285 -206zM124 0c105 0 258 122 328 313c46 124 15 189 -59 189c-153 0 -357 -231 -357 -409c0 -59 29 -93 88 -93z" />
    <glyph glyph-name="adieresis" unicode="&#xe4;" horiz-adv-x="577" 
d="M596 690c-10 0 -19 9 -19 19s9 19 19 19s19 -9 19 -19s-9 -19 -19 -19zM356 690c-10 0 -19 9 -19 19s9 19 19 19s19 -9 19 -19s-9 -19 -19 -19zM121 -10c-64 0 -100 34 -100 103c0 181 208 419 374 419c66 0 93 -48 91 -105h2l34 95h12l-166 -447c-18 -49 -10 -55 9 -55
c43 0 111 34 170 127l7 -4c-59 -93 -132 -133 -180 -133c-34 0 -37 16 -18 66l52 140h-2c-84 -133 -197 -206 -285 -206zM124 0c105 0 258 122 328 313c46 124 15 189 -59 189c-153 0 -357 -231 -357 -409c0 -59 29 -93 88 -93z" />
    <glyph glyph-name="aring" unicode="&#xe5;" horiz-adv-x="577" 
d="M467 585c-56 0 -102 42 -102 98s46 98 102 98s102 -42 102 -98s-46 -98 -102 -98zM467 595c50 0 90 39 90 88s-40 88 -90 88s-90 -39 -90 -88s40 -88 90 -88zM121 -10c-64 0 -100 34 -100 103c0 181 208 419 374 419c66 0 93 -48 91 -105h2l34 95h12l-166 -447
c-18 -49 -10 -55 9 -55c43 0 111 34 170 127l7 -4c-59 -93 -132 -133 -180 -133c-34 0 -37 16 -18 66l52 140h-2c-84 -133 -197 -206 -285 -206zM124 0c105 0 258 122 328 313c46 124 15 189 -59 189c-153 0 -357 -231 -357 -409c0 -59 29 -93 88 -93z" />
    <glyph glyph-name="ae" unicode="&#xe6;" horiz-adv-x="774" 
d="M118 -10c-65 0 -106 40 -106 103c0 127 114 247 247 319c142 77 266 100 411 100c71 0 101 -32 101 -81c0 -46 -37 -105 -115 -122h-266c-30 -53 -48 -113 -48 -174c0 -92 53 -135 116 -135c83 0 172 45 232 165l7 -3c-59 -121 -151 -172 -239 -172
c-74 0 -126 47 -131 131c-49 -79 -130 -131 -209 -131zM27 93c0 -55 35 -93 92 -93c80 0 165 58 208 136c1 163 133 327 278 367c-112 -7 -222 -33 -342 -101c-126 -71 -236 -185 -236 -309zM667 502c-99 0 -208 -77 -271 -183h242c55 0 119 52 119 112c0 43 -21 71 -90 71z
" />
    <glyph glyph-name="ccedilla" unicode="&#xe7;" horiz-adv-x="477" 
d="M169 -10c-77 0 -131 52 -131 145c0 186 169 377 333 377c72 0 102 -44 102 -101c0 -19 -5 -31 -19 -29c14 81 -20 120 -86 120c-147 0 -315 -178 -315 -367c0 -92 54 -135 116 -135c80 0 161 46 221 161l7 -3c-53 -103 -125 -156 -200 -166l-114 -82
c40 -29 79 -56 79 -91c0 -40 -38 -65 -88 -65c-58 0 -98 35 -98 65c0 10 5 15 14 11c0 -44 41 -68 84 -68c47 0 74 21 74 57c0 32 -47 62 -84 89l113 82h-8z" />
    <glyph glyph-name="egrave" unicode="&#xe8;" horiz-adv-x="484" 
d="M404 579h-9l-53 178v1h14zM168 -10c-78 0 -131 52 -131 145c0 186 175 377 343 377c71 0 101 -32 101 -81c0 -46 -37 -105 -115 -122h-266c-30 -53 -48 -113 -48 -174c0 -92 53 -135 116 -135c83 0 172 45 232 165l7 -3c-59 -121 -151 -172 -239 -172zM377 502
c-99 0 -208 -77 -271 -183h242c55 0 119 52 119 112c0 43 -21 71 -90 71z" />
    <glyph glyph-name="eacute" unicode="&#xe9;" horiz-adv-x="484" 
d="M383 579l170 179h16v-1l-175 -178h-11zM168 -10c-78 0 -131 52 -131 145c0 186 175 377 343 377c71 0 101 -32 101 -81c0 -46 -37 -105 -115 -122h-266c-30 -53 -48 -113 -48 -174c0 -92 53 -135 116 -135c83 0 172 45 232 165l7 -3c-59 -121 -151 -172 -239 -172z
M377 502c-99 0 -208 -77 -271 -183h242c55 0 119 52 119 112c0 43 -21 71 -90 71z" />
    <glyph glyph-name="ecircumflex" unicode="&#xea;" horiz-adv-x="484" 
d="M243 579l246 189h4l75 -189h-9l-73 170l-232 -170h-11zM168 -10c-78 0 -131 52 -131 145c0 186 175 377 343 377c71 0 101 -32 101 -81c0 -46 -37 -105 -115 -122h-266c-30 -53 -48 -113 -48 -174c0 -92 53 -135 116 -135c83 0 172 45 232 165l7 -3
c-59 -121 -151 -172 -239 -172zM377 502c-99 0 -208 -77 -271 -183h242c55 0 119 52 119 112c0 43 -21 71 -90 71z" />
    <glyph glyph-name="edieresis" unicode="&#xeb;" horiz-adv-x="484" 
d="M588 690c-10 0 -19 9 -19 19s9 19 19 19s19 -9 19 -19s-9 -19 -19 -19zM348 690c-10 0 -19 9 -19 19s9 19 19 19s19 -9 19 -19s-9 -19 -19 -19zM168 -10c-78 0 -131 52 -131 145c0 186 175 377 343 377c71 0 101 -32 101 -81c0 -46 -37 -105 -115 -122h-266
c-30 -53 -48 -113 -48 -174c0 -92 53 -135 116 -135c83 0 172 45 232 165l7 -3c-59 -121 -151 -172 -239 -172zM377 502c-99 0 -208 -77 -271 -183h242c55 0 119 52 119 112c0 43 -21 71 -90 71z" />
    <glyph glyph-name="igrave" unicode="&#xec;" horiz-adv-x="272" 
d="M214 579h-9l-53 178v1h14zM68 -10c-34 0 -41 17 -22 66l166 432l-89 8l3 6h104l-172 -447c-19 -48 -8 -55 11 -55c43 0 111 34 166 127l7 -4c-55 -93 -126 -133 -174 -133z" />
    <glyph glyph-name="iacute" unicode="&#xed;" horiz-adv-x="272" 
d="M193 579l170 179h16v-1l-175 -178h-11zM68 -10c-34 0 -41 17 -22 66l166 432l-89 8l3 6h104l-172 -447c-19 -48 -8 -55 11 -55c43 0 111 34 166 127l7 -4c-55 -93 -126 -133 -174 -133z" />
    <glyph glyph-name="icircumflex" unicode="&#xee;" horiz-adv-x="272" 
d="M53 579l246 189h4l75 -189h-9l-73 170l-232 -170h-11zM68 -10c-34 0 -41 17 -22 66l166 432l-89 8l3 6h104l-172 -447c-19 -48 -8 -55 11 -55c43 0 111 34 166 127l7 -4c-55 -93 -126 -133 -174 -133z" />
    <glyph glyph-name="idieresis" unicode="&#xef;" horiz-adv-x="272" 
d="M178 690c-10 0 -19 9 -19 19s9 19 19 19s19 -9 19 -19s-9 -19 -19 -19zM378 690c-10 0 -19 9 -19 19s9 19 19 19s19 -9 19 -19s-9 -19 -19 -19zM68 -10c-34 0 -41 17 -22 66l166 432l-89 8l3 6h104l-172 -447c-19 -48 -8 -55 11 -55c43 0 111 34 166 127l7 -4
c-55 -93 -126 -133 -174 -133z" />
    <glyph glyph-name="eth" unicode="&#xf0;" horiz-adv-x="532" 
d="M155 -10c-80 0 -128 47 -128 121c0 159 169 400 352 400c49 0 83 -20 99 -49c-10 83 -51 168 -123 233l-159 -74l-5 10l155 71c-45 38 -101 68 -169 85l2 5c74 -17 132 -48 177 -85l174 80l5 -9l-170 -79c96 -83 131 -197 131 -279c0 -219 -163 -430 -341 -430zM42 112
c0 -66 40 -112 115 -112c162 0 324 198 324 419v2c-4 49 -42 81 -102 81c-174 0 -337 -237 -337 -390z" />
    <glyph glyph-name="ntilde" unicode="&#xf1;" horiz-adv-x="593" 
d="M566 631c-78 0 -87 83 -149 83c-36 0 -65 -24 -82 -72h-12c20 57 54 82 94 82c71 0 80 -83 149 -83c34 0 63 24 81 72h11c-19 -57 -55 -82 -92 -82zM392 -10c-34 0 -46 17 -25 66l102 239c52 122 66 207 -11 207c-61 0 -128 -48 -189 -116c-80 -89 -181 -250 -232 -384
l-15 -5l188 490l-89 9l3 6h104l-151 -393h1c47 104 122 216 182 283c65 72 134 120 199 120c92 0 77 -91 23 -218l-102 -239c-20 -48 -6 -55 13 -55c43 0 111 34 166 127l7 -4c-55 -93 -126 -133 -174 -133z" />
    <glyph glyph-name="ograve" unicode="&#xf2;" horiz-adv-x="571" 
d="M392 579h-9l-53 178v1h14zM215 -10c-98 0 -169 64 -169 172c0 178 151 350 311 350c98 0 169 -64 169 -172c0 -178 -151 -350 -311 -350zM217 0c144 0 294 159 294 339c0 108 -69 163 -156 163c-144 0 -294 -159 -294 -339c0 -108 68 -163 156 -163z" />
    <glyph glyph-name="oacute" unicode="&#xf3;" horiz-adv-x="571" 
d="M371 579l170 179h16v-1l-175 -178h-11zM215 -10c-98 0 -169 64 -169 172c0 178 151 350 311 350c98 0 169 -64 169 -172c0 -178 -151 -350 -311 -350zM217 0c144 0 294 159 294 339c0 108 -69 163 -156 163c-144 0 -294 -159 -294 -339c0 -108 68 -163 156 -163z" />
    <glyph glyph-name="ocircumflex" unicode="&#xf4;" horiz-adv-x="571" 
d="M231 579l246 189h4l75 -189h-9l-73 170l-232 -170h-11zM215 -10c-98 0 -169 64 -169 172c0 178 151 350 311 350c98 0 169 -64 169 -172c0 -178 -151 -350 -311 -350zM217 0c144 0 294 159 294 339c0 108 -69 163 -156 163c-144 0 -294 -159 -294 -339
c0 -108 68 -163 156 -163z" />
    <glyph glyph-name="otilde" unicode="&#xf5;" horiz-adv-x="571" 
d="M521 631c-78 0 -87 83 -149 83c-36 0 -65 -24 -82 -72h-12c20 57 54 82 94 82c71 0 80 -83 149 -83c34 0 63 24 81 72h11c-19 -57 -55 -82 -92 -82zM215 -10c-98 0 -169 64 -169 172c0 178 151 350 311 350c98 0 169 -64 169 -172c0 -178 -151 -350 -311 -350zM217 0
c144 0 294 159 294 339c0 108 -69 163 -156 163c-144 0 -294 -159 -294 -339c0 -108 68 -163 156 -163z" />
    <glyph glyph-name="odieresis" unicode="&#xf6;" horiz-adv-x="571" 
d="M576 690c-10 0 -19 9 -19 19s9 19 19 19s19 -9 19 -19s-9 -19 -19 -19zM336 690c-10 0 -19 9 -19 19s9 19 19 19s19 -9 19 -19s-9 -19 -19 -19zM215 -10c-98 0 -169 64 -169 172c0 178 151 350 311 350c98 0 169 -64 169 -172c0 -178 -151 -350 -311 -350zM217 0
c144 0 294 159 294 339c0 108 -69 163 -156 163c-144 0 -294 -159 -294 -339c0 -108 68 -163 156 -163z" />
    <glyph glyph-name="divide" unicode="&#xf7;" horiz-adv-x="653" 
d="M330 427c-10 0 -19 9 -19 19c0 11 9 20 19 20c11 0 20 -9 20 -20c0 -10 -9 -19 -20 -19zM72 254v11h516v-11h-516zM330 53c-10 0 -19 9 -19 19c0 11 9 20 19 20c11 0 20 -9 20 -20c0 -10 -9 -19 -20 -19z" />
    <glyph glyph-name="oslash" unicode="&#xf8;" horiz-adv-x="611" 
d="M235 -10c-64 0 -116 27 -145 76l-136 -112l-7 9l138 113c-12 24 -19 53 -19 86c0 178 151 350 311 350c64 0 116 -27 145 -76l137 113l6 -9l-138 -114c12 -24 19 -53 19 -86c0 -178 -151 -350 -311 -350zM81 163c0 -30 5 -56 15 -78l415 342c-27 50 -77 75 -136 75
c-144 0 -294 -159 -294 -339zM237 0c144 0 294 159 294 339c0 30 -5 56 -15 78l-415 -342c26 -50 76 -75 136 -75z" />
    <glyph glyph-name="ugrave" unicode="&#xf9;" horiz-adv-x="595" 
d="M388 579h-9l-53 178v1h14zM227 502l-115 -295c-47 -122 -69 -207 8 -207c61 0 128 48 189 116c80 89 182 252 233 386h13l-172 -447c-19 -48 -8 -55 11 -55c43 0 111 34 166 127l7 -4c-55 -93 -126 -133 -174 -133c-34 0 -41 17 -22 66l130 337h-1
c-47 -104 -122 -216 -182 -283c-65 -72 -134 -120 -199 -120c-92 0 -69 91 -20 218l109 280l-88 8l3 6h104z" />
    <glyph glyph-name="uacute" unicode="&#xfa;" horiz-adv-x="595" 
d="M367 579l170 179h16v-1l-175 -178h-11zM227 502l-115 -295c-47 -122 -69 -207 8 -207c61 0 128 48 189 116c80 89 182 252 233 386h13l-172 -447c-19 -48 -8 -55 11 -55c43 0 111 34 166 127l7 -4c-55 -93 -126 -133 -174 -133c-34 0 -41 17 -22 66l130 337h-1
c-47 -104 -122 -216 -182 -283c-65 -72 -134 -120 -199 -120c-92 0 -69 91 -20 218l109 280l-88 8l3 6h104z" />
    <glyph glyph-name="ucircumflex" unicode="&#xfb;" horiz-adv-x="595" 
d="M227 579l246 189h4l75 -189h-9l-73 170l-232 -170h-11zM227 502l-115 -295c-47 -122 -69 -207 8 -207c61 0 128 48 189 116c80 89 182 252 233 386h13l-172 -447c-19 -48 -8 -55 11 -55c43 0 111 34 166 127l7 -4c-55 -93 -126 -133 -174 -133c-34 0 -41 17 -22 66
l130 337h-1c-47 -104 -122 -216 -182 -283c-65 -72 -134 -120 -199 -120c-92 0 -69 91 -20 218l109 280l-88 8l3 6h104z" />
    <glyph glyph-name="udieresis" unicode="&#xfc;" horiz-adv-x="595" 
d="M572 690c-10 0 -19 9 -19 19s9 19 19 19s19 -9 19 -19s-9 -19 -19 -19zM332 690c-10 0 -19 9 -19 19s9 19 19 19s19 -9 19 -19s-9 -19 -19 -19zM227 502l-115 -295c-47 -122 -69 -207 8 -207c61 0 128 48 189 116c80 89 182 252 233 386h13l-172 -447
c-19 -48 -8 -55 11 -55c43 0 111 34 166 127l7 -4c-55 -93 -126 -133 -174 -133c-34 0 -41 17 -22 66l130 337h-1c-47 -104 -122 -216 -182 -283c-65 -72 -134 -120 -199 -120c-92 0 -69 91 -20 218l109 280l-88 8l3 6h104z" />
    <glyph glyph-name="yacute" unicode="&#xfd;" horiz-adv-x="523" 
d="M372 579l170 179h16v-1l-175 -178h-11zM-113 -258c-38 0 -68 22 -68 37c0 7 5 12 12 13c11 -28 29 -40 59 -40c56 0 115 46 224 178l68 82l-16 476l-95 8l3 6h104l17 -475l341 412c48 58 59 73 68 73c5 0 8 -3 8 -7s-3 -9 -9 -14c-13 -10 -31 -28 -51 -52l-426 -513
c-117 -141 -179 -184 -239 -184z" />
    <glyph glyph-name="thorn" unicode="&#xfe;" horiz-adv-x="542" 
d="M294 758l-115 -333c57 60 143 87 199 87c88 0 138 -42 138 -131c0 -185 -221 -412 -486 -390l-82 -239h-13l341 992l-89 8l3 6h104zM378 502c-66 0 -142 -30 -204 -94l-140 -407c255 -18 467 198 467 381c0 82 -44 120 -123 120z" />
    <glyph glyph-name="ydieresis" unicode="&#xff;" horiz-adv-x="523" 
d="M577 690c-10 0 -19 9 -19 19s9 19 19 19s19 -9 19 -19s-9 -19 -19 -19zM337 690c-10 0 -19 9 -19 19s9 19 19 19s19 -9 19 -19s-9 -19 -19 -19zM-113 -258c-38 0 -68 22 -68 37c0 7 5 12 12 13c11 -28 29 -40 59 -40c56 0 115 46 224 178l68 82l-16 476l-95 8l3 6h104
l17 -475l341 412c48 58 59 73 68 73c5 0 8 -3 8 -7s-3 -9 -9 -14c-13 -10 -31 -28 -51 -52l-426 -513c-117 -141 -179 -184 -239 -184z" />
    <glyph glyph-name="Amacron" unicode="&#x100;" horiz-adv-x="805" 
d="M675 896l3 9h274l-3 -9h-274zM-134 0l2 6l60 2c22 1 38 7 48 16l820 749h15l-229 -749c-3 -11 7 -15 27 -16l60 -2l-2 -6h-197l2 6l60 2c22 1 34 5 37 16l93 303h-338l-332 -303c-10 -9 -13 -15 14 -16l60 -2l-2 -6h-198zM336 338h329l127 416z" />
    <glyph glyph-name="amacron" unicode="&#x101;" horiz-adv-x="577" 
d="M321 667l4 9h281l-3 -9h-282zM121 -10c-64 0 -100 34 -100 103c0 181 208 419 374 419c66 0 93 -48 91 -105h2l34 95h12l-166 -447c-18 -49 -10 -55 9 -55c43 0 111 34 170 127l7 -4c-59 -93 -132 -133 -180 -133c-34 0 -37 16 -18 66l52 140h-2
c-84 -133 -197 -206 -285 -206zM124 0c105 0 258 122 328 313c46 124 15 189 -59 189c-153 0 -357 -231 -357 -409c0 -59 29 -93 88 -93z" />
    <glyph glyph-name="Abreve" unicode="&#x102;" horiz-adv-x="805" 
d="M802 833c-83 0 -143 44 -117 150h13c-23 -95 21 -140 104 -140c82 0 151 40 185 140h14c-40 -110 -113 -150 -199 -150zM-134 0l2 6l60 2c22 1 38 7 48 16l820 749h15l-229 -749c-3 -11 7 -15 27 -16l60 -2l-2 -6h-197l2 6l60 2c22 1 34 5 37 16l93 303h-338l-332 -303
c-10 -9 -13 -15 14 -16l60 -2l-2 -6h-198zM336 338h329l127 416z" />
    <glyph glyph-name="abreve" unicode="&#x103;" horiz-adv-x="577" 
d="M438 594c-83 0 -143 44 -117 150h13c-23 -95 21 -140 104 -140c82 0 151 40 185 140h14c-40 -110 -113 -150 -199 -150zM121 -10c-64 0 -100 34 -100 103c0 181 208 419 374 419c66 0 93 -48 91 -105h2l34 95h12l-166 -447c-18 -49 -10 -55 9 -55c43 0 111 34 170 127
l7 -4c-59 -93 -132 -133 -180 -133c-34 0 -37 16 -18 66l52 140h-2c-84 -133 -197 -206 -285 -206zM124 0c105 0 258 122 328 313c46 124 15 189 -59 189c-153 0 -357 -231 -357 -409c0 -59 29 -93 88 -93z" />
    <glyph glyph-name="Aogonek" unicode="&#x104;" horiz-adv-x="805" 
d="M-134 0l2 6l60 2c22 1 38 7 48 16l820 749h15l-229 -749c-3 -11 7 -15 27 -16l60 -2l-2 -6h-52c-71 -45 -194 -108 -194 -171c0 -31 23 -51 63 -51c38 0 80 16 105 30l4 -8c-31 -18 -76 -32 -113 -32c-46 0 -74 24 -74 60c0 65 138 136 198 172h-134l2 6l60 2
c22 1 34 5 37 16l93 303h-338l-332 -303c-10 -9 -13 -15 14 -16l60 -2l-2 -6h-198zM336 338h329l127 416z" />
    <glyph glyph-name="aogonek" unicode="&#x105;" horiz-adv-x="577" 
d="M121 -10c-64 0 -100 34 -100 103c0 181 208 419 374 419c66 0 93 -48 91 -105h2l34 95h12l-166 -447c-18 -49 -10 -55 9 -55c43 0 111 34 170 127l7 -4c-44 -69 -96 -109 -139 -125c-72 -45 -190 -107 -190 -169c0 -31 23 -51 63 -51c38 0 80 16 105 30l4 -8
c-31 -18 -76 -32 -113 -32c-46 0 -74 24 -74 60c0 61 120 126 185 164c-7 -1 -14 -2 -21 -2c-34 0 -37 16 -18 66l52 140h-2c-84 -133 -197 -206 -285 -206zM124 0c105 0 258 122 328 313c46 124 15 189 -59 189c-153 0 -357 -231 -357 -409c0 -59 29 -93 88 -93z" />
    <glyph glyph-name="Cacute" unicode="&#x106;" horiz-adv-x="805" 
d="M608 833l211 139h20l-1 -1l-217 -138h-13zM384 -10c-158 0 -295 88 -295 288c0 274 250 490 522 490c106 0 181 -33 226 -70l-2 -137h-7l-9 110c-2 21 -2 27 -14 35c-22 15 -86 52 -194 52c-246 0 -507 -197 -507 -480c0 -208 147 -278 280 -278c95 0 186 23 229 52
c15 10 22 14 38 35l94 119h7l-100 -146c-76 -50 -174 -70 -268 -70z" />
    <glyph glyph-name="cacute" unicode="&#x107;" horiz-adv-x="477" 
d="M367 579l170 179h16v-1l-175 -178h-11zM169 -10c-77 0 -131 52 -131 145c0 186 169 377 333 377c72 0 102 -44 102 -101c0 -19 -5 -31 -19 -29c14 81 -20 120 -86 120c-147 0 -315 -178 -315 -367c0 -92 54 -135 116 -135c80 0 161 46 221 161l7 -3
c-59 -116 -143 -168 -228 -168z" />
    <glyph glyph-name="Ccircumflex" unicode="&#x108;" horiz-adv-x="805" 
d="M504 833l214 139h4l78 -139h-9l-76 119l-200 -119h-11zM384 -10c-158 0 -295 88 -295 288c0 274 250 490 522 490c106 0 181 -33 226 -70l-2 -137h-7l-9 110c-2 21 -2 27 -14 35c-22 15 -86 52 -194 52c-246 0 -507 -197 -507 -480c0 -208 147 -278 280 -278
c95 0 186 23 229 52c15 10 22 14 38 35l94 119h7l-100 -146c-76 -50 -174 -70 -268 -70z" />
    <glyph glyph-name="ccircumflex" unicode="&#x109;" horiz-adv-x="477" 
d="M227 579l246 189h4l75 -189h-9l-73 170l-232 -170h-11zM169 -10c-77 0 -131 52 -131 145c0 186 169 377 333 377c72 0 102 -44 102 -101c0 -19 -5 -31 -19 -29c14 81 -20 120 -86 120c-147 0 -315 -178 -315 -367c0 -92 54 -135 116 -135c80 0 161 46 221 161l7 -3
c-59 -116 -143 -168 -228 -168z" />
    <glyph glyph-name="Cdotaccent" unicode="&#x10a;" horiz-adv-x="805" 
d="M687 917c-10 0 -19 9 -19 19s9 19 19 19s19 -9 19 -19s-9 -19 -19 -19zM384 -10c-158 0 -295 88 -295 288c0 274 250 490 522 490c106 0 181 -33 226 -70l-2 -137h-7l-9 110c-2 21 -2 27 -14 35c-22 15 -86 52 -194 52c-246 0 -507 -197 -507 -480
c0 -208 147 -278 280 -278c95 0 186 23 229 52c15 10 22 14 38 35l94 119h7l-100 -146c-76 -50 -174 -70 -268 -70z" />
    <glyph glyph-name="cdotaccent" unicode="&#x10b;" horiz-adv-x="477" 
d="M452 690c-10 0 -19 9 -19 19s9 19 19 19s19 -9 19 -19s-9 -19 -19 -19zM169 -10c-77 0 -131 52 -131 145c0 186 169 377 333 377c72 0 102 -44 102 -101c0 -19 -5 -31 -19 -29c14 81 -20 120 -86 120c-147 0 -315 -178 -315 -367c0 -92 54 -135 116 -135
c80 0 161 46 221 161l7 -3c-59 -116 -143 -168 -228 -168z" />
    <glyph glyph-name="Ccaron" unicode="&#x10c;" horiz-adv-x="805" 
d="M630 833l-78 139h9l76 -119l200 119h11l-214 -139h-4zM384 -10c-158 0 -295 88 -295 288c0 274 250 490 522 490c106 0 181 -33 226 -70l-2 -137h-7l-9 110c-2 21 -2 27 -14 35c-22 15 -86 52 -194 52c-246 0 -507 -197 -507 -480c0 -208 147 -278 280 -278
c95 0 186 23 229 52c15 10 22 14 38 35l94 119h7l-100 -146c-76 -50 -174 -70 -268 -70z" />
    <glyph glyph-name="ccaron" unicode="&#x10d;" horiz-adv-x="477" 
d="M385 579l-75 189h9l73 -170l232 170h11l-246 -189h-4zM169 -10c-77 0 -131 52 -131 145c0 186 169 377 333 377c72 0 102 -44 102 -101c0 -19 -5 -31 -19 -29c14 81 -20 120 -86 120c-147 0 -315 -178 -315 -367c0 -92 54 -135 116 -135c80 0 161 46 221 161l7 -3
c-59 -116 -143 -168 -228 -168z" />
    <glyph glyph-name="Dcaron" unicode="&#x10e;" horiz-adv-x="845" 
d="M589 833l-78 139h9l76 -119l200 119h11l-214 -139h-4zM-12 0l2 6l60 2c22 1 34 5 37 16l217 710c3 11 -6 15 -27 16l-59 2l2 6h244c204 0 375 -71 375 -262c0 -295 -269 -496 -605 -496h-246zM96 11h139c318 0 589 188 589 485c0 179 -152 251 -364 251h-139z" />
    <glyph glyph-name="dcaron" unicode="&#x10f;" horiz-adv-x="629" 
d="M655 534l-6 8c108 80 150 144 150 177c0 11 -3 18 -10 24c1 11 10 21 22 21c11 0 18 -8 18 -19c0 -21 -28 -105 -174 -211zM127 -10c-64 0 -103 36 -103 109c0 180 200 413 362 413c67 0 96 -48 96 -105h2l115 337l-99 8l3 6h114l-243 -703c-17 -49 -7 -55 12 -55
c43 0 111 34 166 127l7 -4c-55 -93 -126 -133 -174 -133c-34 0 -40 16 -23 66l49 140h-2c-81 -133 -192 -206 -282 -206zM127 0c110 0 260 122 325 313c42 124 7 189 -66 189c-152 0 -347 -224 -347 -403c0 -63 30 -99 88 -99z" />
    <glyph glyph-name="Dcroat" unicode="&#x110;" horiz-adv-x="845" 
d="M-12 0l2 6l60 2c22 1 34 5 37 16l113 369h-93l4 11h92l101 330c3 11 -6 15 -27 16l-59 2l2 6h244c204 0 375 -71 375 -262c0 -295 -269 -496 -605 -496h-246zM96 11h139c318 0 589 188 589 485c0 179 -152 251 -364 251h-139l-105 -343h239l-4 -11h-238z" />
    <glyph glyph-name="dcroat" unicode="&#x111;" horiz-adv-x="579" 
d="M127 -10c-64 0 -103 36 -103 109c0 180 200 413 362 413c67 0 96 -48 96 -105h2l74 218h-157l3 11h158l37 108l-99 8l3 6h114l-42 -122h83l-4 -11h-83l-197 -570c-17 -49 -7 -55 12 -55c43 0 111 34 166 127l7 -4c-55 -93 -126 -133 -174 -133c-34 0 -40 16 -23 66
l49 140h-2c-81 -133 -192 -206 -282 -206zM127 0c110 0 260 122 325 313c42 124 7 189 -66 189c-152 0 -347 -224 -347 -403c0 -63 30 -99 88 -99z" />
    <glyph glyph-name="Emacron" unicode="&#x112;" horiz-adv-x="697" 
d="M421 896l3 9h274l-3 -9h-274zM-12 0l2 6l60 2c22 1 34 5 37 16l217 710c3 11 -6 15 -27 16l-59 2l2 6h499l-17 -147h-7l5 124c0 9 -3 12 -13 12h-366l-104 -343h227c27 0 28 2 33 16l36 97h7l-72 -237h-7l23 97c4 14 3 16 -24 16h-227l-117 -382h420c13 0 19 2 27 13
l98 129h7l-102 -153h-558z" />
    <glyph glyph-name="emacron" unicode="&#x113;" horiz-adv-x="484" 
d="M313 667l4 9h281l-3 -9h-282zM168 -10c-78 0 -131 52 -131 145c0 186 175 377 343 377c71 0 101 -32 101 -81c0 -46 -37 -105 -115 -122h-266c-30 -53 -48 -113 -48 -174c0 -92 53 -135 116 -135c83 0 172 45 232 165l7 -3c-59 -121 -151 -172 -239 -172zM377 502
c-99 0 -208 -77 -271 -183h242c55 0 119 52 119 112c0 43 -21 71 -90 71z" />
    <glyph glyph-name="Ebreve" unicode="&#x114;" horiz-adv-x="697" 
d="M548 833c-83 0 -143 44 -117 150h13c-23 -95 21 -140 104 -140c82 0 151 40 185 140h14c-40 -110 -113 -150 -199 -150zM-12 0l2 6l60 2c22 1 34 5 37 16l217 710c3 11 -6 15 -27 16l-59 2l2 6h499l-17 -147h-7l5 124c0 9 -3 12 -13 12h-366l-104 -343h227
c27 0 28 2 33 16l36 97h7l-72 -237h-7l23 97c4 14 3 16 -24 16h-227l-117 -382h420c13 0 19 2 27 13l98 129h7l-102 -153h-558z" />
    <glyph glyph-name="ebreve" unicode="&#x115;" horiz-adv-x="484" 
d="M430 594c-83 0 -143 44 -117 150h13c-23 -95 21 -140 104 -140c82 0 151 40 185 140h14c-40 -110 -113 -150 -199 -150zM168 -10c-78 0 -131 52 -131 145c0 186 175 377 343 377c71 0 101 -32 101 -81c0 -46 -37 -105 -115 -122h-266c-30 -53 -48 -113 -48 -174
c0 -92 53 -135 116 -135c83 0 172 45 232 165l7 -3c-59 -121 -151 -172 -239 -172zM377 502c-99 0 -208 -77 -271 -183h242c55 0 119 52 119 112c0 43 -21 71 -90 71z" />
    <glyph glyph-name="Edotaccent" unicode="&#x116;" horiz-adv-x="697" 
d="M572 917c-10 0 -19 9 -19 19s9 19 19 19s19 -9 19 -19s-9 -19 -19 -19zM-12 0l2 6l60 2c22 1 34 5 37 16l217 710c3 11 -6 15 -27 16l-59 2l2 6h499l-17 -147h-7l5 124c0 9 -3 12 -13 12h-366l-104 -343h227c27 0 28 2 33 16l36 97h7l-72 -237h-7l23 97c4 14 3 16 -24 16
h-227l-117 -382h420c13 0 19 2 27 13l98 129h7l-102 -153h-558z" />
    <glyph glyph-name="edotaccent" unicode="&#x117;" horiz-adv-x="484" 
d="M468 690c-10 0 -19 9 -19 19s9 19 19 19s19 -9 19 -19s-9 -19 -19 -19zM168 -10c-78 0 -131 52 -131 145c0 186 175 377 343 377c71 0 101 -32 101 -81c0 -46 -37 -105 -115 -122h-266c-30 -53 -48 -113 -48 -174c0 -92 53 -135 116 -135c83 0 172 45 232 165l7 -3
c-59 -121 -151 -172 -239 -172zM377 502c-99 0 -208 -77 -271 -183h242c55 0 119 52 119 112c0 43 -21 71 -90 71z" />
    <glyph glyph-name="Eogonek" unicode="&#x118;" horiz-adv-x="697" 
d="M-12 0l2 6l60 2c22 1 34 5 37 16l217 710c3 11 -6 15 -27 16l-59 2l2 6h499l-17 -147h-7l5 124c0 9 -3 12 -13 12h-366l-104 -343h227c27 0 28 2 33 16l36 97h7l-72 -237h-7l23 97c4 14 3 16 -24 16h-227l-117 -382h420c13 0 19 2 27 13l98 129h7l-102 -153
c-71 -45 -194 -108 -194 -171c0 -31 23 -51 63 -51c38 0 80 16 105 30l4 -8c-31 -18 -76 -32 -113 -32c-46 0 -74 24 -74 60c0 65 138 136 198 172h-547z" />
    <glyph glyph-name="eogonek" unicode="&#x119;" horiz-adv-x="484" 
d="M211 -200c-31 -18 -76 -32 -113 -32c-46 0 -74 24 -74 60c0 62 116 128 207 171c-16 -4 -39 -9 -63 -9c-78 0 -131 52 -131 145c0 186 175 377 343 377c71 0 101 -32 101 -81c0 -46 -37 -105 -115 -122h-266c-30 -53 -48 -113 -48 -174c0 -92 53 -135 116 -135
c83 0 172 45 232 165l7 -3c-45 -93 -107 -136 -166 -165c-79 -39 -202 -106 -202 -168c0 -31 23 -51 63 -51c38 0 80 16 105 30zM377 502c-99 0 -208 -77 -271 -183h242c55 0 119 52 119 112c0 43 -21 71 -90 71z" />
    <glyph glyph-name="Ecaron" unicode="&#x11a;" horiz-adv-x="697" 
d="M515 833l-78 139h9l76 -119l200 119h11l-214 -139h-4zM-12 0l2 6l60 2c22 1 34 5 37 16l217 710c3 11 -6 15 -27 16l-59 2l2 6h499l-17 -147h-7l5 124c0 9 -3 12 -13 12h-366l-104 -343h227c27 0 28 2 33 16l36 97h7l-72 -237h-7l23 97c4 14 3 16 -24 16h-227l-117 -382
h420c13 0 19 2 27 13l98 129h7l-102 -153h-558z" />
    <glyph glyph-name="ecaron" unicode="&#x11b;" horiz-adv-x="484" 
d="M401 579l-75 189h9l73 -170l232 170h11l-246 -189h-4zM168 -10c-78 0 -131 52 -131 145c0 186 175 377 343 377c71 0 101 -32 101 -81c0 -46 -37 -105 -115 -122h-266c-30 -53 -48 -113 -48 -174c0 -92 53 -135 116 -135c83 0 172 45 232 165l7 -3
c-59 -121 -151 -172 -239 -172zM377 502c-99 0 -208 -77 -271 -183h242c55 0 119 52 119 112c0 43 -21 71 -90 71z" />
    <glyph glyph-name="Gcircumflex" unicode="&#x11c;" horiz-adv-x="891" 
d="M488 833l214 139h4l78 -139h-9l-76 119l-200 -119h-11zM396 -10c-164 0 -307 87 -307 288c0 274 244 490 509 490c103 0 176 -33 220 -70l-2 -137h-7l-9 110c-2 21 -2 27 -14 35c-21 15 -83 52 -188 52c-240 0 -494 -197 -494 -480c0 -210 155 -278 292 -278
c103 0 202 29 285 66l95 256c4 12 -7 16 -28 16l-214 1l2 9h355l-2 -8l-95 -2l-77 -211l-25 -71c-89 -34 -182 -66 -296 -66z" />
    <glyph glyph-name="gcircumflex" unicode="&#x11d;" horiz-adv-x="492" 
d="M186 579l246 189h4l75 -189h-9l-73 170l-232 -170h-11zM221 156c-13 0 -25 1 -37 4l-114 -83l179 -104c70 -40 106 -77 106 -115c0 -75 -132 -116 -242 -116c-129 0 -238 52 -238 132c0 75 121 118 241 162l-64 39l122 87c-59 17 -93 66 -93 128c0 119 116 222 238 222
c30 0 56 -7 77 -19l14 9h155l-14 -10h-152c38 -23 60 -64 60 -114c0 -119 -116 -222 -238 -222zM221 166c113 0 224 92 224 212c0 71 -42 124 -126 124c-113 0 -224 -92 -224 -212c0 -71 42 -124 126 -124zM-111 -125c0 -70 95 -123 226 -123c102 0 226 38 226 105
c0 33 -30 67 -96 105l-120 69c-113 -43 -236 -83 -236 -156z" />
    <glyph glyph-name="Gbreve" unicode="&#x11e;" horiz-adv-x="891" 
d="M647 833c-83 0 -143 44 -117 150h13c-23 -95 21 -140 104 -140c82 0 151 40 185 140h14c-40 -110 -113 -150 -199 -150zM396 -10c-164 0 -307 87 -307 288c0 274 244 490 509 490c103 0 176 -33 220 -70l-2 -137h-7l-9 110c-2 21 -2 27 -14 35c-21 15 -83 52 -188 52
c-240 0 -494 -197 -494 -480c0 -210 155 -278 292 -278c103 0 202 29 285 66l95 256c4 12 -7 16 -28 16l-214 1l2 9h355l-2 -8l-95 -2l-77 -211l-25 -71c-89 -34 -182 -66 -296 -66z" />
    <glyph glyph-name="gbreve" unicode="&#x11f;" horiz-adv-x="492" 
d="M373 594c-83 0 -143 44 -117 150h13c-23 -95 21 -140 104 -140c82 0 151 40 185 140h14c-40 -110 -113 -150 -199 -150zM221 156c-13 0 -25 1 -37 4l-114 -83l179 -104c70 -40 106 -77 106 -115c0 -75 -132 -116 -242 -116c-129 0 -238 52 -238 132c0 75 121 118 241 162
l-64 39l122 87c-59 17 -93 66 -93 128c0 119 116 222 238 222c30 0 56 -7 77 -19l14 9h155l-14 -10h-152c38 -23 60 -64 60 -114c0 -119 -116 -222 -238 -222zM221 166c113 0 224 92 224 212c0 71 -42 124 -126 124c-113 0 -224 -92 -224 -212c0 -71 42 -124 126 -124z
M-111 -125c0 -70 95 -123 226 -123c102 0 226 38 226 105c0 33 -30 67 -96 105l-120 69c-113 -43 -236 -83 -236 -156z" />
    <glyph glyph-name="Gdotaccent" unicode="&#x120;" horiz-adv-x="891" 
d="M671 917c-10 0 -19 9 -19 19s9 19 19 19s19 -9 19 -19s-9 -19 -19 -19zM396 -10c-164 0 -307 87 -307 288c0 274 244 490 509 490c103 0 176 -33 220 -70l-2 -137h-7l-9 110c-2 21 -2 27 -14 35c-21 15 -83 52 -188 52c-240 0 -494 -197 -494 -480
c0 -210 155 -278 292 -278c103 0 202 29 285 66l95 256c4 12 -7 16 -28 16l-214 1l2 9h355l-2 -8l-95 -2l-77 -211l-25 -71c-89 -34 -182 -66 -296 -66z" />
    <glyph glyph-name="gdotaccent" unicode="&#x121;" horiz-adv-x="492" 
d="M411 690c-10 0 -19 9 -19 19s9 19 19 19s19 -9 19 -19s-9 -19 -19 -19zM221 156c-13 0 -25 1 -37 4l-114 -83l179 -104c70 -40 106 -77 106 -115c0 -75 -132 -116 -242 -116c-129 0 -238 52 -238 132c0 75 121 118 241 162l-64 39l122 87c-59 17 -93 66 -93 128
c0 119 116 222 238 222c30 0 56 -7 77 -19l14 9h155l-14 -10h-152c38 -23 60 -64 60 -114c0 -119 -116 -222 -238 -222zM221 166c113 0 224 92 224 212c0 71 -42 124 -126 124c-113 0 -224 -92 -224 -212c0 -71 42 -124 126 -124zM-111 -125c0 -70 95 -123 226 -123
c102 0 226 38 226 105c0 33 -30 67 -96 105l-120 69c-113 -43 -236 -83 -236 -156z" />
    <glyph glyph-name="Gcommaaccent" unicode="&#x122;" horiz-adv-x="891" 
d="M396 -10c-164 0 -307 87 -307 288c0 274 244 490 509 490c103 0 176 -33 220 -70l-2 -137h-7l-9 110c-2 21 -2 27 -14 35c-21 15 -83 52 -188 52c-240 0 -494 -197 -494 -480c0 -210 155 -278 292 -278c103 0 202 29 285 66l95 256c4 12 -7 16 -28 16l-214 1l2 9h355
l-2 -8l-95 -2l-77 -211l-25 -71c-89 -34 -182 -66 -296 -66zM216 -290l-6 8c108 80 150 144 150 177c0 11 -3 18 -10 24c1 11 10 21 22 21c11 0 18 -8 18 -19c0 -21 -28 -105 -174 -211z" />
    <glyph glyph-name="gcommaaccent" unicode="&#x123;" horiz-adv-x="492" 
d="M497 798l6 -8c-108 -80 -150 -144 -150 -177c0 -11 3 -18 10 -24c-1 -11 -10 -21 -22 -21c-11 0 -18 8 -18 19c0 21 28 105 174 211zM221 156c-13 0 -25 1 -37 4l-114 -83l179 -104c70 -40 106 -77 106 -115c0 -75 -132 -116 -242 -116c-129 0 -238 52 -238 132
c0 75 121 118 241 162l-64 39l122 87c-59 17 -93 66 -93 128c0 119 116 222 238 222c30 0 56 -7 77 -19l14 9h155l-14 -10h-152c38 -23 60 -64 60 -114c0 -119 -116 -222 -238 -222zM221 166c113 0 224 92 224 212c0 71 -42 124 -126 124c-113 0 -224 -92 -224 -212
c0 -71 42 -124 126 -124zM-111 -125c0 -70 95 -123 226 -123c102 0 226 38 226 105c0 33 -30 67 -96 105l-120 69c-113 -43 -236 -83 -236 -156z" />
    <glyph glyph-name="Hcircumflex" unicode="&#x124;" horiz-adv-x="874" 
d="M470 833l214 139h4l78 -139h-9l-76 119l-200 -119h-11zM-12 0l2 6l60 2c22 1 34 5 37 16l217 710c3 11 -6 15 -27 16l-59 2l2 6h197l-2 -6l-61 -2c-21 -1 -34 -5 -37 -16l-100 -330h537l100 330c3 11 -6 15 -27 16l-59 2l2 6h197l-2 -6l-61 -2c-21 -1 -34 -5 -37 -16
l-217 -710c-3 -11 7 -15 27 -16l60 -2l-2 -6h-197l2 6l60 2c22 1 34 5 37 16l113 369h-537l-113 -369c-3 -11 7 -15 27 -16l60 -2l-2 -6h-197z" />
    <glyph glyph-name="hcircumflex" unicode="&#x125;" horiz-adv-x="568" 
d="M149 833l214 139h4l78 -139h-9l-76 119l-200 -119h-11zM267 -10c-46 0 -63 40 -63 70c0 14 7 20 16 20c0 -43 8 -80 49 -80c98 0 243 229 243 395c0 74 -32 107 -88 107c-126 0 -270 -165 -344 -365c-21 -57 -26 -73 -46 -135l-15 -5l257 746l-79 9l3 6h94l-131 -378
l-43 -126h2c89 160 199 258 303 258c62 0 100 -33 100 -117c0 -166 -146 -405 -258 -405z" />
    <glyph glyph-name="Hbar" unicode="&#x126;" horiz-adv-x="874" 
d="M-12 0l2 6l60 2c22 1 34 5 37 16l167 547h-92l4 11h92l46 152c3 11 -6 15 -27 16l-59 2l2 6h197l-2 -6l-61 -2c-21 -1 -34 -5 -37 -16l-46 -152h537l46 152c3 11 -6 15 -27 16l-59 2l2 6h197l-2 -6l-61 -2c-21 -1 -34 -5 -37 -16l-46 -152h92l-4 -11h-92l-167 -547
c-3 -11 7 -15 27 -16l60 -2l-2 -6h-197l2 6l60 2c22 1 34 5 37 16l113 369h-537l-113 -369c-3 -11 7 -15 27 -16l60 -2l-2 -6h-197zM217 404h537l51 167h-537z" />
    <glyph glyph-name="hbar" unicode="&#x127;" horiz-adv-x="568" 
d="M267 -10c-46 0 -63 40 -63 70c0 14 7 20 16 20c0 -43 8 -80 49 -80c98 0 243 229 243 395c0 74 -32 107 -88 107c-126 0 -270 -165 -344 -365c-21 -57 -26 -73 -46 -135l-15 -5l216 628h-82l4 11h82l37 107l-79 9l3 6h94l-42 -122h159l-5 -11h-158l-85 -245l-43 -126h2
c89 160 199 258 303 258c62 0 100 -33 100 -117c0 -166 -146 -405 -258 -405z" />
    <glyph glyph-name="Itilde" unicode="&#x128;" horiz-adv-x="324" 
d="M445 861c-78 0 -87 83 -149 83c-36 0 -65 -24 -82 -72h-12c20 57 54 82 94 82c71 0 80 -83 149 -83c34 0 63 24 81 72h11c-19 -57 -55 -82 -92 -82zM-12 0l2 6l60 2c22 1 34 5 37 16l217 710c3 11 -6 15 -27 16l-59 2l2 6h197l-2 -6l-61 -2c-21 -1 -34 -5 -37 -16
l-217 -710c-3 -11 7 -15 27 -16l60 -2l-2 -6h-197z" />
    <glyph glyph-name="itilde" unicode="&#x129;" horiz-adv-x="272" 
d="M343 631c-78 0 -87 83 -149 83c-36 0 -65 -24 -82 -72h-12c20 57 54 82 94 82c71 0 80 -83 149 -83c34 0 63 24 81 72h11c-19 -57 -55 -82 -92 -82zM68 -10c-34 0 -41 17 -22 66l166 432l-89 8l3 6h104l-172 -447c-19 -48 -8 -55 11 -55c43 0 111 34 166 127l7 -4
c-55 -93 -126 -133 -174 -133z" />
    <glyph glyph-name="Imacron" unicode="&#x12a;" horiz-adv-x="324" 
d="M228 896l3 9h274l-3 -9h-274zM-12 0l2 6l60 2c22 1 34 5 37 16l217 710c3 11 -6 15 -27 16l-59 2l2 6h197l-2 -6l-61 -2c-21 -1 -34 -5 -37 -16l-217 -710c-3 -11 7 -15 27 -16l60 -2l-2 -6h-197z" />
    <glyph glyph-name="imacron" unicode="&#x12b;" horiz-adv-x="272" 
d="M123 667l4 9h281l-3 -9h-282zM68 -10c-34 0 -41 17 -22 66l166 432l-89 8l3 6h104l-172 -447c-19 -48 -8 -55 11 -55c43 0 111 34 166 127l7 -4c-55 -93 -126 -133 -174 -133z" />
    <glyph glyph-name="Ibreve" unicode="&#x12c;" horiz-adv-x="324" 
d="M355 833c-83 0 -143 44 -117 150h13c-23 -95 21 -140 104 -140c82 0 151 40 185 140h14c-40 -110 -113 -150 -199 -150zM-12 0l2 6l60 2c22 1 34 5 37 16l217 710c3 11 -6 15 -27 16l-59 2l2 6h197l-2 -6l-61 -2c-21 -1 -34 -5 -37 -16l-217 -710c-3 -11 7 -15 27 -16
l60 -2l-2 -6h-197z" />
    <glyph glyph-name="ibreve" unicode="&#x12d;" horiz-adv-x="272" 
d="M240 594c-83 0 -143 44 -117 150h13c-23 -95 21 -140 104 -140c82 0 151 40 185 140h14c-40 -110 -113 -150 -199 -150zM68 -10c-34 0 -41 17 -22 66l166 432l-89 8l3 6h104l-172 -447c-19 -48 -8 -55 11 -55c43 0 111 34 166 127l7 -4c-55 -93 -126 -133 -174 -133z" />
    <glyph glyph-name="Iogonek" unicode="&#x12e;" horiz-adv-x="324" 
d="M-12 0l2 6l60 2c22 1 34 5 37 16l217 710c3 11 -6 15 -27 16l-59 2l2 6h197l-2 -6l-61 -2c-21 -1 -34 -5 -37 -16l-217 -710c-3 -11 7 -15 27 -16l60 -2l-2 -6h-54c-71 -45 -194 -108 -194 -171c0 -31 23 -51 63 -51c38 0 80 16 105 30l4 -8c-31 -18 -76 -32 -113 -32
c-46 0 -74 24 -74 60c0 65 138 136 198 172h-132z" />
    <glyph glyph-name="iogonek" unicode="&#x12f;" horiz-adv-x="272" 
d="M280 739c0 10 9 19 19 19s19 -9 19 -19s-9 -19 -19 -19s-19 9 -19 19zM68 -10c-34 0 -41 17 -22 66l166 432l-89 8l3 6h104l-172 -447c-19 -48 -8 -55 11 -55c43 0 111 34 166 127l7 -4c-44 -74 -98 -115 -143 -128c-72 -45 -184 -105 -184 -165c0 -31 23 -51 63 -51
c38 0 80 16 105 30l4 -8c-31 -18 -76 -32 -113 -32c-46 0 -74 24 -74 60c0 59 115 124 181 162c-5 -1 -9 -1 -13 -1z" />
    <glyph glyph-name="Idotaccent" unicode="&#x130;" horiz-adv-x="324" 
d="M379 917c-10 0 -19 9 -19 19s9 19 19 19s19 -9 19 -19s-9 -19 -19 -19zM-12 0l2 6l60 2c22 1 34 5 37 16l217 710c3 11 -6 15 -27 16l-59 2l2 6h197l-2 -6l-61 -2c-21 -1 -34 -5 -37 -16l-217 -710c-3 -11 7 -15 27 -16l60 -2l-2 -6h-197z" />
    <glyph glyph-name="dotlessi" unicode="&#x131;" horiz-adv-x="272" 
d="M68 -10c-34 0 -41 17 -22 66l166 432l-89 8l3 6h104l-172 -447c-19 -48 -8 -55 11 -55c43 0 111 34 166 127l7 -4c-55 -93 -126 -133 -174 -133z" />
    <glyph glyph-name="Jcircumflex" unicode="&#x134;" horiz-adv-x="311" 
d="M191 833l214 139h4l78 -139h-9l-76 119l-200 -119h-11zM-109 -134l-4 8c155 101 188 123 221 231l192 629c3 11 -6 15 -27 16l-59 2l2 6h197l-2 -6l-61 -2c-21 -1 -34 -5 -37 -16l-189 -619c-33 -108 -48 -125 -173 -211c-18 -12 -39 -25 -60 -38z" />
    <glyph glyph-name="jcircumflex" unicode="&#x135;" horiz-adv-x="236" 
d="M50 579l246 189h4l75 -189h-9l-73 170l-232 -170h-11zM-201 -258l-2 4c137 84 157 98 226 268l191 474l-89 8l3 6h104l-197 -488c-60 -149 -82 -179 -168 -231z" />
    <glyph glyph-name="Kcommaaccent" unicode="&#x136;" horiz-adv-x="783" 
d="M-12 0l2 6l60 2c22 1 34 5 37 16l217 710c3 11 -6 15 -27 16l-59 2l2 6h197l-2 -6l-61 -2c-21 -1 -34 -5 -37 -16l-104 -342l576 345c14 9 6 11 -32 13l-48 2l2 6h216l-2 -6l-54 -2c-33 -1 -45 -4 -68 -18l-572 -341l446 -391h-18l-447 390l-112 -366
c-3 -11 7 -15 27 -16l60 -2l-2 -6h-197zM170 -290l-6 8c108 80 150 144 150 177c0 11 -3 18 -10 24c1 11 10 21 22 21c11 0 18 -8 18 -19c0 -21 -28 -105 -174 -211z" />
    <glyph glyph-name="kcommaaccent" unicode="&#x137;" horiz-adv-x="548" 
d="M398 -26c-29 0 -47 11 -83 53l-194 225c254 7 391 79 391 175c0 50 -41 75 -94 75c-123 0 -247 -101 -299 -252l-42 -119l-44 -129l-14 -5l256 747l-89 8l3 6h104l-119 -347l-29 -80h1c76 127 179 181 272 181c70 0 108 -33 108 -85c0 -95 -128 -174 -381 -184l179 -208
c37 -44 52 -51 75 -51c24 0 49 11 73 99l9 -2c-22 -87 -51 -107 -83 -107zM40 -290l-6 8c108 80 150 144 150 177c0 11 -3 18 -10 24c1 11 10 21 22 21c11 0 18 -8 18 -19c0 -21 -28 -105 -174 -211z" />
    <glyph glyph-name="Lacute" unicode="&#x139;" horiz-adv-x="657" 
d="M298 833l211 139h20l-1 -1l-217 -138h-13zM-12 0l2 6l60 2c22 1 34 5 37 16l217 710c3 11 -6 15 -27 16l-59 2l2 6h197l-2 -6l-61 -2c-21 -1 -34 -5 -37 -16l-221 -723h383c13 0 19 2 27 13l98 129h7l-102 -153h-521z" />
    <glyph glyph-name="lacute" unicode="&#x13a;" horiz-adv-x="263" 
d="M262 835l170 179h16v-1l-175 -178h-11zM66 -10c-34 0 -39 16 -22 66l237 688l-89 8l3 6h104l-243 -703c-17 -49 -8 -55 11 -55c43 0 111 34 166 127l7 -4c-55 -93 -126 -133 -174 -133z" />
    <glyph glyph-name="Lcommaaccent" unicode="&#x13b;" horiz-adv-x="657" 
d="M-12 0l2 6l60 2c22 1 34 5 37 16l217 710c3 11 -6 15 -27 16l-59 2l2 6h197l-2 -6l-61 -2c-21 -1 -34 -5 -37 -16l-221 -723h383c13 0 19 2 27 13l98 129h7l-102 -153h-521zM87 -290l-6 8c108 80 150 144 150 177c0 11 -3 18 -10 24c1 11 10 21 22 21c11 0 18 -8 18 -19
c0 -21 -28 -105 -174 -211z" />
    <glyph glyph-name="lcommaaccent" unicode="&#x13c;" horiz-adv-x="263" 
d="M66 -10c-34 0 -39 16 -22 66l237 688l-89 8l3 6h104l-243 -703c-17 -49 -8 -55 11 -55c43 0 111 34 166 127l7 -4c-55 -93 -126 -133 -174 -133zM-121 -290l-6 8c108 80 150 144 150 177c0 11 -3 18 -10 24c1 11 10 21 22 21c11 0 18 -8 18 -19c0 -21 -28 -105 -174 -211
z" />
    <glyph glyph-name="Lcaron" unicode="&#x13d;" horiz-adv-x="657" 
d="M412 534l-6 8c108 80 150 144 150 177c0 11 -3 18 -10 24c1 11 10 21 22 21c11 0 18 -8 18 -19c0 -21 -28 -105 -174 -211zM-12 0l2 6l60 2c22 1 34 5 37 16l217 710c3 11 -6 15 -27 16l-59 2l2 6h197l-2 -6l-61 -2c-21 -1 -34 -5 -37 -16l-221 -723h383c13 0 19 2 27 13
l98 129h7l-102 -153h-521z" />
    <glyph glyph-name="lcaron" unicode="&#x13e;" horiz-adv-x="313" 
d="M342 534l-6 8c108 80 150 144 150 177c0 11 -3 18 -10 24c1 11 10 21 22 21c11 0 18 -8 18 -19c0 -21 -28 -105 -174 -211zM66 -10c-34 0 -39 16 -22 66l237 688l-89 8l3 6h104l-243 -703c-17 -49 -8 -55 11 -55c43 0 111 34 166 127l7 -4c-55 -93 -126 -133 -174 -133z
" />
    <glyph glyph-name="Ldot" unicode="&#x13f;" horiz-adv-x="657" 
d="M-12 0l2 6l60 2c22 1 34 5 37 16l217 710c3 11 -6 15 -27 16l-59 2l2 6h197l-2 -6l-61 -2c-21 -1 -34 -5 -37 -16l-221 -723h383c13 0 19 2 27 13l98 129h7l-102 -153h-521zM536 363c-10 0 -19 9 -19 19s9 19 19 19s19 -9 19 -19s-9 -19 -19 -19z" />
    <glyph glyph-name="ldot" unicode="&#x140;" horiz-adv-x="304" 
d="M66 -10c-34 0 -39 16 -22 66l237 688l-89 8l3 6h104l-243 -703c-17 -49 -8 -55 11 -55c43 0 111 34 166 127l7 -4c-55 -93 -126 -133 -174 -133zM316 376c-10 0 -19 9 -19 19s9 19 19 19s19 -9 19 -19s-9 -19 -19 -19z" />
    <glyph glyph-name="Lslash" unicode="&#x141;" horiz-adv-x="657" 
d="M-12 0l2 6l60 2c22 1 34 5 37 16l101 330l-177 -109l5 17l177 110l111 362c3 11 -6 15 -27 16l-59 2l2 6h197l-2 -6l-61 -2c-21 -1 -34 -5 -37 -16l-108 -353l179 111l-5 -17l-179 -111l-108 -353h383c13 0 19 2 27 13l98 129h7l-102 -153h-521z" />
    <glyph glyph-name="lslash" unicode="&#x142;" horiz-adv-x="323" 
d="M96 -10c-34 0 -39 16 -22 66l111 323l-126 -73l5 15l126 73l121 350l-89 8l3 6h104l-123 -355l127 73l-5 -15l-127 -73l-115 -333c-17 -49 -8 -55 11 -55c43 0 111 34 166 127l7 -4c-55 -93 -126 -133 -174 -133z" />
    <glyph glyph-name="Nacute" unicode="&#x143;" horiz-adv-x="886" 
d="M583 833l211 139h20l-1 -1l-217 -138h-13zM655 -22l-337 760l-218 -714c-3 -11 7 -15 27 -16l60 -2l-2 -6h-197l2 6l60 2c22 1 34 5 37 16l217 710c3 11 -6 15 -27 16l-59 2l2 6h103l331 -746l221 722c3 11 -6 15 -27 16l-59 2l2 6h197l-2 -6l-61 -2
c-21 -1 -34 -5 -37 -16l-231 -756h-2z" />
    <glyph glyph-name="nacute" unicode="&#x144;" horiz-adv-x="593" 
d="M416 579l170 179h16v-1l-175 -178h-11zM392 -10c-34 0 -46 17 -25 66l102 239c52 122 66 207 -11 207c-61 0 -128 -48 -189 -116c-80 -89 -181 -250 -232 -384l-15 -5l188 490l-89 9l3 6h104l-151 -393h1c47 104 122 216 182 283c65 72 134 120 199 120
c92 0 77 -91 23 -218l-102 -239c-20 -48 -6 -55 13 -55c43 0 111 34 166 127l7 -4c-55 -93 -126 -133 -174 -133z" />
    <glyph glyph-name="Ncommaaccent" unicode="&#x145;" horiz-adv-x="886" 
d="M655 -22l-337 760l-218 -714c-3 -11 7 -15 27 -16l60 -2l-2 -6h-197l2 6l60 2c22 1 34 5 37 16l217 710c3 11 -6 15 -27 16l-59 2l2 6h103l331 -746l221 722c3 11 -6 15 -27 16l-59 2l2 6h197l-2 -6l-61 -2c-21 -1 -34 -5 -37 -16l-231 -756h-2zM199 -290l-6 8
c108 80 150 144 150 177c0 11 -3 18 -10 24c1 11 10 21 22 21c11 0 18 -8 18 -19c0 -21 -28 -105 -174 -211z" />
    <glyph glyph-name="ncommaaccent" unicode="&#x146;" horiz-adv-x="593" 
d="M392 -10c-34 0 -46 17 -25 66l102 239c52 122 66 207 -11 207c-61 0 -128 -48 -189 -116c-80 -89 -181 -250 -232 -384l-15 -5l188 490l-89 9l3 6h104l-151 -393h1c47 104 122 216 182 283c65 72 134 120 199 120c92 0 77 -91 23 -218l-102 -239c-20 -48 -6 -55 13 -55
c43 0 111 34 166 127l7 -4c-55 -93 -126 -133 -174 -133zM40 -290l-6 8c108 80 150 144 150 177c0 11 -3 18 -10 24c1 11 10 21 22 21c11 0 18 -8 18 -19c0 -21 -28 -105 -174 -211z" />
    <glyph glyph-name="Ncaron" unicode="&#x147;" horiz-adv-x="886" 
d="M605 833l-78 139h9l76 -119l200 119h11l-214 -139h-4zM655 -22l-337 760l-218 -714c-3 -11 7 -15 27 -16l60 -2l-2 -6h-197l2 6l60 2c22 1 34 5 37 16l217 710c3 11 -6 15 -27 16l-59 2l2 6h103l331 -746l221 722c3 11 -6 15 -27 16l-59 2l2 6h197l-2 -6l-61 -2
c-21 -1 -34 -5 -37 -16l-231 -756h-2z" />
    <glyph glyph-name="ncaron" unicode="&#x148;" horiz-adv-x="593" 
d="M434 579l-75 189h9l73 -170l232 170h11l-246 -189h-4zM392 -10c-34 0 -46 17 -25 66l102 239c52 122 66 207 -11 207c-61 0 -128 -48 -189 -116c-80 -89 -181 -250 -232 -384l-15 -5l188 490l-89 9l3 6h104l-151 -393h1c47 104 122 216 182 283c65 72 134 120 199 120
c92 0 77 -91 23 -218l-102 -239c-20 -48 -6 -55 13 -55c43 0 111 34 166 127l7 -4c-55 -93 -126 -133 -174 -133z" />
    <glyph glyph-name="Eng" unicode="&#x14a;" horiz-adv-x="886" 
d="M500 -217l-68 -41l-3 4c130 80 167 92 218 244l1 3l-330 745l-218 -714c-3 -11 7 -15 27 -16l60 -2l-2 -6h-197l2 6l60 2c22 1 34 5 37 16l217 710c3 11 -6 15 -27 16l-59 2l2 6h103l331 -746l221 722c3 11 -6 15 -27 16l-59 2l2 6h197l-2 -6l-61 -2
c-21 -1 -34 -5 -37 -16l-220 -720c-47 -154 -82 -179 -168 -231z" />
    <glyph glyph-name="eng" unicode="&#x14b;" horiz-adv-x="559" 
d="M195 -217l-68 -41l-2 4c137 84 153 98 225 268l119 281c52 122 66 207 -11 207c-61 0 -128 -48 -189 -116c-80 -89 -181 -250 -232 -384l-15 -5l188 490l-89 9l3 6h104l-151 -393h1c47 104 122 216 182 283c65 72 134 120 199 120c92 0 77 -91 23 -218l-118 -279
c-63 -149 -83 -180 -169 -232z" />
    <glyph glyph-name="Omacron" unicode="&#x14c;" horiz-adv-x="873" 
d="M520 896l3 9h274l-3 -9h-274zM371 -10c-154 0 -286 94 -286 276c0 227 209 502 497 502c154 0 286 -94 286 -276c0 -227 -209 -502 -497 -502zM371 0c274 0 482 265 482 492c0 176 -126 266 -271 266c-274 0 -482 -265 -482 -492c0 -176 126 -266 271 -266z" />
    <glyph glyph-name="omacron" unicode="&#x14d;" horiz-adv-x="571" 
d="M301 667l4 9h281l-3 -9h-282zM215 -10c-98 0 -169 64 -169 172c0 178 151 350 311 350c98 0 169 -64 169 -172c0 -178 -151 -350 -311 -350zM217 0c144 0 294 159 294 339c0 108 -69 163 -156 163c-144 0 -294 -159 -294 -339c0 -108 68 -163 156 -163z" />
    <glyph glyph-name="Obreve" unicode="&#x14e;" horiz-adv-x="873" 
d="M647 833c-83 0 -143 44 -117 150h13c-23 -95 21 -140 104 -140c82 0 151 40 185 140h14c-40 -110 -113 -150 -199 -150zM371 -10c-154 0 -286 94 -286 276c0 227 209 502 497 502c154 0 286 -94 286 -276c0 -227 -209 -502 -497 -502zM371 0c274 0 482 265 482 492
c0 176 -126 266 -271 266c-274 0 -482 -265 -482 -492c0 -176 126 -266 271 -266z" />
    <glyph glyph-name="obreve" unicode="&#x14f;" horiz-adv-x="571" 
d="M418 594c-83 0 -143 44 -117 150h13c-23 -95 21 -140 104 -140c82 0 151 40 185 140h14c-40 -110 -113 -150 -199 -150zM215 -10c-98 0 -169 64 -169 172c0 178 151 350 311 350c98 0 169 -64 169 -172c0 -178 -151 -350 -311 -350zM217 0c144 0 294 159 294 339
c0 108 -69 163 -156 163c-144 0 -294 -159 -294 -339c0 -108 68 -163 156 -163z" />
    <glyph glyph-name="Ohungarumlaut" unicode="&#x150;" horiz-adv-x="873" 
d="M510 833l212 139h19l-1 -1l-217 -138h-13zM710 833l212 139h19l-1 -1l-217 -138h-13zM371 -10c-154 0 -286 94 -286 276c0 227 209 502 497 502c154 0 286 -94 286 -276c0 -227 -209 -502 -497 -502zM371 0c274 0 482 265 482 492c0 176 -126 266 -271 266
c-274 0 -482 -265 -482 -492c0 -176 126 -266 271 -266z" />
    <glyph glyph-name="ohungarumlaut" unicode="&#x151;" horiz-adv-x="571" 
d="M510 579l170 179h18l-1 -1l-176 -178h-11zM325 579l170 179h18l-1 -1l-176 -178h-11zM215 -10c-98 0 -169 64 -169 172c0 178 151 350 311 350c98 0 169 -64 169 -172c0 -178 -151 -350 -311 -350zM217 0c144 0 294 159 294 339c0 108 -69 163 -156 163
c-144 0 -294 -159 -294 -339c0 -108 68 -163 156 -163z" />
    <glyph glyph-name="OE" unicode="&#x152;" horiz-adv-x="1339" 
d="M865 492c0 -9 0 -17 -1 -26l89 292h408l-17 -147h-7l5 124c0 9 -3 12 -13 12h-366l-104 -343h227c27 0 28 2 33 16l36 97h7l-72 -237h-7l23 97c4 14 3 16 -24 16h-227l-117 -382h420c13 0 19 2 27 13l98 129h7l-102 -153h-466l81 265c-82 -150 -238 -275 -432 -275
c-154 0 -286 94 -286 276c0 227 209 502 497 502c154 0 283 -94 283 -276zM853 492c0 176 -126 266 -271 266c-274 0 -482 -265 -482 -492c0 -176 126 -266 271 -266c274 0 482 265 482 492z" />
    <glyph glyph-name="oe" unicode="&#x153;" horiz-adv-x="925" 
d="M46 162c0 178 151 350 311 350c98 0 169 -64 169 -172c0 -12 -1 -23 -2 -34c63 116 182 206 297 206c71 0 101 -32 101 -81c0 -46 -37 -105 -115 -122h-266c-26 -45 -48 -110 -48 -174c0 -92 53 -135 116 -135c83 0 172 45 232 165l7 -3c-59 -121 -151 -172 -239 -172
c-78 0 -131 52 -131 145c0 11 1 22 2 33c-55 -103 -159 -178 -265 -178c-98 0 -169 64 -169 172zM818 502c-99 0 -208 -77 -271 -183h242c55 0 119 52 119 112c0 43 -21 71 -90 71zM217 0c113 0 228 95 274 226c13 36 20 74 20 113c0 108 -69 163 -156 163
c-144 0 -294 -159 -294 -339c0 -108 68 -163 156 -163z" />
    <glyph glyph-name="Racute" unicode="&#x154;" horiz-adv-x="710" 
d="M498 833l211 139h20l-1 -1l-217 -138h-13zM-12 0l2 6l60 2c22 1 34 5 37 16l217 710c3 11 -6 15 -27 16l-59 2l2 6h242c130 0 248 -29 248 -145c0 -127 -90 -235 -346 -235l280 -378h-17l-279 378h-139l-109 -354c-3 -11 7 -15 27 -16l60 -2l-2 -6h-197zM212 389h133
c247 0 350 84 350 224c0 106 -109 134 -242 134h-132z" />
    <glyph glyph-name="racute" unicode="&#x155;" horiz-adv-x="402" 
d="M320 579l170 179h16v-1l-175 -178h-11zM23 0l187 488l-89 8l3 6h104l-136 -357h1c66 125 134 243 207 310c40 36 81 57 123 57c19 0 35 -2 35 -11c0 -5 -4 -9 -7 -9c-25 4 -39 6 -60 5c-117 -24 -240 -263 -325 -420l-30 -77h-13z" />
    <glyph glyph-name="Rcommaaccent" unicode="&#x156;" horiz-adv-x="710" 
d="M-12 0l2 6l60 2c22 1 34 5 37 16l217 710c3 11 -6 15 -27 16l-59 2l2 6h242c130 0 248 -29 248 -145c0 -127 -90 -235 -346 -235l280 -378h-17l-279 378h-139l-109 -354c-3 -11 7 -15 27 -16l60 -2l-2 -6h-197zM212 389h133c247 0 350 84 350 224
c0 106 -109 134 -242 134h-132zM196 -290l-6 8c108 80 150 144 150 177c0 11 -3 18 -10 24c1 11 10 21 22 21c11 0 18 -8 18 -19c0 -21 -28 -105 -174 -211z" />
    <glyph glyph-name="rcommaaccent" unicode="&#x157;" horiz-adv-x="402" 
d="M23 0l187 488l-89 8l3 6h104l-136 -357h1c66 125 134 243 207 310c40 36 81 57 123 57c19 0 35 -2 35 -11c0 -5 -4 -9 -7 -9c-25 4 -39 6 -60 5c-117 -24 -240 -263 -325 -420l-30 -77h-13zM-139 -290l-6 8c108 80 150 144 150 177c0 11 -3 18 -10 24c1 11 10 21 22 21
c11 0 18 -8 18 -19c0 -21 -28 -105 -174 -211z" />
    <glyph glyph-name="Rcaron" unicode="&#x158;" horiz-adv-x="710" 
d="M520 833l-78 139h9l76 -119l200 119h11l-214 -139h-4zM-12 0l2 6l60 2c22 1 34 5 37 16l217 710c3 11 -6 15 -27 16l-59 2l2 6h242c130 0 248 -29 248 -145c0 -127 -90 -235 -346 -235l280 -378h-17l-279 378h-139l-109 -354c-3 -11 7 -15 27 -16l60 -2l-2 -6h-197z
M212 389h133c247 0 350 84 350 224c0 106 -109 134 -242 134h-132z" />
    <glyph glyph-name="rcaron" unicode="&#x159;" horiz-adv-x="402" 
d="M338 579l-75 189h9l73 -170l232 170h11l-246 -189h-4zM23 0l187 488l-89 8l3 6h104l-136 -357h1c66 125 134 243 207 310c40 36 81 57 123 57c19 0 35 -2 35 -11c0 -5 -4 -9 -7 -9c-25 4 -39 6 -60 5c-117 -24 -240 -263 -325 -420l-30 -77h-13z" />
    <glyph glyph-name="Sacute" unicode="&#x15a;" horiz-adv-x="612" 
d="M483 833l211 139h20l-1 -1l-217 -138h-13zM206 -10c-88 0 -160 25 -211 63l56 151h6l-34 -122c-7 -22 -7 -27 6 -35c43 -32 119 -47 177 -47c169 0 268 70 268 186c0 64 -56 142 -107 197l-26 28c-54 58 -108 128 -108 197c0 105 118 160 266 160c84 0 145 -22 185 -57
l-36 -134h-8l20 106c5 22 3 29 -8 36c-31 24 -93 39 -153 39c-146 0 -253 -54 -253 -150c0 -60 51 -131 105 -189l26 -28c59 -63 111 -139 111 -203c0 -116 -94 -198 -282 -198z" />
    <glyph glyph-name="sacute" unicode="&#x15b;" horiz-adv-x="414" 
d="M313 579l170 179h16v-1l-175 -178h-11zM133 -10c-91 0 -143 60 -145 81c0 10 10 12 16 8c16 -41 54 -79 128 -79c92 0 155 42 155 111c0 51 -27 90 -68 139l-20 24c-36 43 -63 75 -63 125c0 75 73 113 149 113c87 0 134 -45 136 -66c0 -10 -10 -10 -17 -8
c-14 35 -47 64 -118 64c-66 0 -138 -31 -138 -102c0 -46 21 -72 61 -121l20 -24c36 -43 71 -84 71 -144c0 -71 -64 -121 -167 -121z" />
    <glyph glyph-name="Scircumflex" unicode="&#x15c;" horiz-adv-x="612" 
d="M379 833l214 139h4l78 -139h-9l-76 119l-200 -119h-11zM206 -10c-88 0 -160 25 -211 63l56 151h6l-34 -122c-7 -22 -7 -27 6 -35c43 -32 119 -47 177 -47c169 0 268 70 268 186c0 64 -56 142 -107 197l-26 28c-54 58 -108 128 -108 197c0 105 118 160 266 160
c84 0 145 -22 185 -57l-36 -134h-8l20 106c5 22 3 29 -8 36c-31 24 -93 39 -153 39c-146 0 -253 -54 -253 -150c0 -60 51 -131 105 -189l26 -28c59 -63 111 -139 111 -203c0 -116 -94 -198 -282 -198z" />
    <glyph glyph-name="scircumflex" unicode="&#x15d;" horiz-adv-x="414" 
d="M173 579l246 189h4l75 -189h-9l-73 170l-232 -170h-11zM133 -10c-91 0 -143 60 -145 81c0 10 10 12 16 8c16 -41 54 -79 128 -79c92 0 155 42 155 111c0 51 -27 90 -68 139l-20 24c-36 43 -63 75 -63 125c0 75 73 113 149 113c87 0 134 -45 136 -66c0 -10 -10 -10 -17 -8
c-14 35 -47 64 -118 64c-66 0 -138 -31 -138 -102c0 -46 21 -72 61 -121l20 -24c36 -43 71 -84 71 -144c0 -71 -64 -121 -167 -121z" />
    <glyph glyph-name="Scedilla" unicode="&#x15e;" horiz-adv-x="612" 
d="M206 -10c-88 0 -160 25 -211 63l56 151h6l-34 -122c-7 -22 -7 -27 6 -35c43 -32 119 -47 177 -47c169 0 268 70 268 186c0 64 -56 142 -107 197l-26 28c-54 58 -108 128 -108 197c0 105 118 160 266 160c84 0 145 -22 185 -57l-36 -134h-8l20 106c5 22 3 29 -8 36
c-31 24 -93 39 -153 39c-146 0 -253 -54 -253 -150c0 -60 51 -131 105 -189l26 -28c59 -63 111 -139 111 -203c0 -106 -78 -183 -235 -196l-116 -84c39 -29 78 -55 78 -90c0 -40 -38 -65 -88 -65c-58 0 -98 35 -98 65c0 10 5 15 14 11c0 -44 41 -68 84 -68c47 0 74 21 74 57
c0 32 -47 62 -84 89l115 84c-8 -1 -17 -1 -26 -1z" />
    <glyph glyph-name="scedilla" unicode="&#x15f;" horiz-adv-x="414" 
d="M133 -10c-91 0 -143 60 -145 81c0 10 10 12 16 8c16 -41 54 -79 128 -79c92 0 155 42 155 111c0 51 -27 90 -68 139l-20 24c-36 43 -63 75 -63 125c0 75 73 113 149 113c87 0 134 -45 136 -66c0 -10 -10 -10 -17 -8c-14 35 -47 64 -118 64c-66 0 -138 -31 -138 -102
c0 -46 21 -72 61 -121l20 -24c36 -43 71 -84 71 -144c0 -63 -50 -109 -132 -119l-114 -82c40 -29 79 -56 79 -91c0 -40 -38 -65 -88 -65c-58 0 -98 35 -98 65c0 10 5 15 14 11c0 -44 41 -68 84 -68c47 0 74 21 74 57c0 32 -47 62 -84 89l114 82h-16z" />
    <glyph glyph-name="Scaron" unicode="&#x160;" horiz-adv-x="612" 
d="M505 833l-78 139h9l76 -119l200 119h11l-214 -139h-4zM206 -10c-88 0 -160 25 -211 63l56 151h6l-34 -122c-7 -22 -7 -27 6 -35c43 -32 119 -47 177 -47c169 0 268 70 268 186c0 64 -56 142 -107 197l-26 28c-54 58 -108 128 -108 197c0 105 118 160 266 160
c84 0 145 -22 185 -57l-36 -134h-8l20 106c5 22 3 29 -8 36c-31 24 -93 39 -153 39c-146 0 -253 -54 -253 -150c0 -60 51 -131 105 -189l26 -28c59 -63 111 -139 111 -203c0 -116 -94 -198 -282 -198z" />
    <glyph glyph-name="scaron" unicode="&#x161;" horiz-adv-x="414" 
d="M331 579l-75 189h9l73 -170l232 170h11l-246 -189h-4zM133 -10c-91 0 -143 60 -145 81c0 10 10 12 16 8c16 -41 54 -79 128 -79c92 0 155 42 155 111c0 51 -27 90 -68 139l-20 24c-36 43 -63 75 -63 125c0 75 73 113 149 113c87 0 134 -45 136 -66c0 -10 -10 -10 -17 -8
c-14 35 -47 64 -118 64c-66 0 -138 -31 -138 -102c0 -46 21 -72 61 -121l20 -24c36 -43 71 -84 71 -144c0 -71 -64 -121 -167 -121z" />
    <glyph glyph-name="uni0162" unicode="&#x162;" horiz-adv-x="709" 
d="M180 0l2 6l60 2c22 1 34 5 37 16l221 723h-276c-10 0 -14 -3 -19 -12l-80 -154h-7l80 177h623l-26 -177h-7l14 154c1 9 -3 12 -13 12h-276l-221 -723c-3 -11 7 -15 27 -16l60 -2l-2 -6h-197zM94 -290l-6 8c108 80 150 144 150 177c0 11 -3 18 -10 24c1 11 10 21 22 21
c11 0 18 -8 18 -19c0 -21 -28 -105 -174 -211z" />
    <glyph glyph-name="uni0163" unicode="&#x163;" horiz-adv-x="327" 
d="M74 -10c-34 0 -42 18 -22 67l176 434h-135l4 11h135l44 108l13 2l-45 -110h166l-4 -11h-166l-176 -435c-19 -48 -8 -56 11 -56c43 0 111 34 166 127l7 -4c-55 -93 -126 -133 -174 -133zM-107 -290l-6 8c108 80 150 144 150 177c0 11 -3 18 -10 24c1 11 10 21 22 21
c11 0 18 -8 18 -19c0 -21 -28 -105 -174 -211z" />
    <glyph glyph-name="Tcaron" unicode="&#x164;" horiz-adv-x="709" 
d="M526 833l-78 139h9l76 -119l200 119h11l-214 -139h-4zM180 0l2 6l60 2c22 1 34 5 37 16l221 723h-276c-10 0 -14 -3 -19 -12l-80 -154h-7l80 177h623l-26 -177h-7l14 154c1 9 -3 12 -13 12h-276l-221 -723c-3 -11 7 -15 27 -16l60 -2l-2 -6h-197z" />
    <glyph glyph-name="tcaron" unicode="&#x165;" horiz-adv-x="327" 
d="M330 554l-6 8c108 80 150 144 150 177c0 11 -3 18 -10 24c1 11 10 21 22 21c11 0 18 -8 18 -19c0 -21 -28 -105 -174 -211zM74 -10c-34 0 -42 18 -22 67l176 434h-135l4 11h135l44 108l13 2l-45 -110h166l-4 -11h-166l-176 -435c-19 -48 -8 -56 11 -56
c43 0 111 34 166 127l7 -4c-55 -93 -126 -133 -174 -133z" />
    <glyph glyph-name="Tbar" unicode="&#x166;" horiz-adv-x="709" 
d="M180 0l2 6l60 2c22 1 34 5 37 16l113 369h-222l4 11h221l105 343h-276c-10 0 -14 -3 -19 -12l-80 -154h-7l80 177h623l-26 -177h-7l14 154c1 9 -3 12 -13 12h-276l-105 -343h222l-4 -11h-221l-113 -369c-3 -11 7 -15 27 -16l60 -2l-2 -6h-197z" />
    <glyph glyph-name="tbar" unicode="&#x167;" horiz-adv-x="367" 
d="M94 -10c-34 0 -42 18 -22 67l124 305h-135l4 11h135l48 118h-135l4 11h135l44 108l13 2l-45 -110h166l-4 -11h-166l-48 -118h166l-4 -11h-166l-124 -306c-19 -48 -8 -56 11 -56c43 0 111 34 166 127l7 -4c-55 -93 -126 -133 -174 -133z" />
    <glyph glyph-name="Utilde" unicode="&#x168;" horiz-adv-x="862" 
d="M710 861c-78 0 -87 83 -149 83c-36 0 -65 -24 -82 -72h-12c20 57 54 82 94 82c71 0 80 -83 149 -83c34 0 63 24 81 72h11c-19 -57 -55 -82 -92 -82zM359 -10c-195 0 -264 104 -202 308l133 436c3 11 -6 15 -27 16l-59 2l2 6h197l-2 -6l-61 -2c-21 -1 -34 -5 -37 -16
l-133 -436c-55 -180 -15 -298 189 -298s317 120 371 298l133 436c3 11 -6 15 -27 16l-59 2l2 6h197l-2 -6l-61 -2c-21 -1 -34 -5 -37 -16l-133 -436c-62 -204 -186 -308 -384 -308z" />
    <glyph glyph-name="utilde" unicode="&#x169;" horiz-adv-x="595" 
d="M517 631c-78 0 -87 83 -149 83c-36 0 -65 -24 -82 -72h-12c20 57 54 82 94 82c71 0 80 -83 149 -83c34 0 63 24 81 72h11c-19 -57 -55 -82 -92 -82zM227 502l-115 -295c-47 -122 -69 -207 8 -207c61 0 128 48 189 116c80 89 182 252 233 386h13l-172 -447
c-19 -48 -8 -55 11 -55c43 0 111 34 166 127l7 -4c-55 -93 -126 -133 -174 -133c-34 0 -41 17 -22 66l130 337h-1c-47 -104 -122 -216 -182 -283c-65 -72 -134 -120 -199 -120c-92 0 -69 91 -20 218l109 280l-88 8l3 6h104z" />
    <glyph glyph-name="Umacron" unicode="&#x16a;" horiz-adv-x="862" 
d="M493 896l3 9h274l-3 -9h-274zM359 -10c-195 0 -264 104 -202 308l133 436c3 11 -6 15 -27 16l-59 2l2 6h197l-2 -6l-61 -2c-21 -1 -34 -5 -37 -16l-133 -436c-55 -180 -15 -298 189 -298s317 120 371 298l133 436c3 11 -6 15 -27 16l-59 2l2 6h197l-2 -6l-61 -2
c-21 -1 -34 -5 -37 -16l-133 -436c-62 -204 -186 -308 -384 -308z" />
    <glyph glyph-name="umacron" unicode="&#x16b;" horiz-adv-x="595" 
d="M297 667l4 9h281l-3 -9h-282zM227 502l-115 -295c-47 -122 -69 -207 8 -207c61 0 128 48 189 116c80 89 182 252 233 386h13l-172 -447c-19 -48 -8 -55 11 -55c43 0 111 34 166 127l7 -4c-55 -93 -126 -133 -174 -133c-34 0 -41 17 -22 66l130 337h-1
c-47 -104 -122 -216 -182 -283c-65 -72 -134 -120 -199 -120c-92 0 -69 91 -20 218l109 280l-88 8l3 6h104z" />
    <glyph glyph-name="Ubreve" unicode="&#x16c;" horiz-adv-x="862" 
d="M620 833c-83 0 -143 44 -117 150h13c-23 -95 21 -140 104 -140c82 0 151 40 185 140h14c-40 -110 -113 -150 -199 -150zM359 -10c-195 0 -264 104 -202 308l133 436c3 11 -6 15 -27 16l-59 2l2 6h197l-2 -6l-61 -2c-21 -1 -34 -5 -37 -16l-133 -436
c-55 -180 -15 -298 189 -298s317 120 371 298l133 436c3 11 -6 15 -27 16l-59 2l2 6h197l-2 -6l-61 -2c-21 -1 -34 -5 -37 -16l-133 -436c-62 -204 -186 -308 -384 -308z" />
    <glyph glyph-name="ubreve" unicode="&#x16d;" horiz-adv-x="595" 
d="M414 594c-83 0 -143 44 -117 150h13c-23 -95 21 -140 104 -140c82 0 151 40 185 140h14c-40 -110 -113 -150 -199 -150zM227 502l-115 -295c-47 -122 -69 -207 8 -207c61 0 128 48 189 116c80 89 182 252 233 386h13l-172 -447c-19 -48 -8 -55 11 -55
c43 0 111 34 166 127l7 -4c-55 -93 -126 -133 -174 -133c-34 0 -41 17 -22 66l130 337h-1c-47 -104 -122 -216 -182 -283c-65 -72 -134 -120 -199 -120c-92 0 -69 91 -20 218l109 280l-88 8l3 6h104z" />
    <glyph glyph-name="Uring" unicode="&#x16e;" horiz-adv-x="862" 
d="M642 832c-56 0 -102 42 -102 98s46 98 102 98s102 -42 102 -98s-46 -98 -102 -98zM642 842c50 0 90 39 90 88s-40 88 -90 88s-90 -39 -90 -88s40 -88 90 -88zM359 -10c-195 0 -264 104 -202 308l133 436c3 11 -6 15 -27 16l-59 2l2 6h197l-2 -6l-61 -2
c-21 -1 -34 -5 -37 -16l-133 -436c-55 -180 -15 -298 189 -298s317 120 371 298l133 436c3 11 -6 15 -27 16l-59 2l2 6h197l-2 -6l-61 -2c-21 -1 -34 -5 -37 -16l-133 -436c-62 -204 -186 -308 -384 -308z" />
    <glyph glyph-name="uring" unicode="&#x16f;" horiz-adv-x="595" 
d="M443 585c-56 0 -102 42 -102 98s46 98 102 98s102 -42 102 -98s-46 -98 -102 -98zM443 595c50 0 90 39 90 88s-40 88 -90 88s-90 -39 -90 -88s40 -88 90 -88zM227 502l-115 -295c-47 -122 -69 -207 8 -207c61 0 128 48 189 116c80 89 182 252 233 386h13l-172 -447
c-19 -48 -8 -55 11 -55c43 0 111 34 166 127l7 -4c-55 -93 -126 -133 -174 -133c-34 0 -41 17 -22 66l130 337h-1c-47 -104 -122 -216 -182 -283c-65 -72 -134 -120 -199 -120c-92 0 -69 91 -20 218l109 280l-88 8l3 6h104z" />
    <glyph glyph-name="Uhungarumlaut" unicode="&#x170;" horiz-adv-x="862" 
d="M483 833l212 139h19l-1 -1l-217 -138h-13zM683 833l212 139h19l-1 -1l-217 -138h-13zM359 -10c-195 0 -264 104 -202 308l133 436c3 11 -6 15 -27 16l-59 2l2 6h197l-2 -6l-61 -2c-21 -1 -34 -5 -37 -16l-133 -436c-55 -180 -15 -298 189 -298s317 120 371 298l133 436
c3 11 -6 15 -27 16l-59 2l2 6h197l-2 -6l-61 -2c-21 -1 -34 -5 -37 -16l-133 -436c-62 -204 -186 -308 -384 -308z" />
    <glyph glyph-name="uhungarumlaut" unicode="&#x171;" horiz-adv-x="595" 
d="M506 579l170 179h18l-1 -1l-176 -178h-11zM321 579l170 179h18l-1 -1l-176 -178h-11zM227 502l-115 -295c-47 -122 -69 -207 8 -207c61 0 128 48 189 116c80 89 182 252 233 386h13l-172 -447c-19 -48 -8 -55 11 -55c43 0 111 34 166 127l7 -4
c-55 -93 -126 -133 -174 -133c-34 0 -41 17 -22 66l130 337h-1c-47 -104 -122 -216 -182 -283c-65 -72 -134 -120 -199 -120c-92 0 -69 91 -20 218l109 280l-88 8l3 6h104z" />
    <glyph glyph-name="Uogonek" unicode="&#x172;" horiz-adv-x="862" 
d="M259 -232c-46 0 -74 24 -74 60c0 59 115 124 181 162h-7c-195 0 -264 104 -202 308l133 436c3 11 -6 15 -27 16l-59 2l2 6h197l-2 -6l-61 -2c-21 -1 -34 -5 -37 -16l-133 -436c-55 -180 -15 -298 189 -298s317 120 371 298l133 436c3 11 -6 15 -27 16l-59 2l2 6h197
l-2 -6l-61 -2c-21 -1 -34 -5 -37 -16l-133 -436c-60 -198 -179 -302 -367 -308c-71 -44 -176 -102 -176 -161c0 -31 23 -51 63 -51c38 0 80 16 105 30l4 -8c-31 -18 -76 -32 -113 -32z" />
    <glyph glyph-name="uogonek" unicode="&#x173;" horiz-adv-x="595" 
d="M293 -232c-46 0 -74 24 -74 60c0 60 116 124 182 162h-8c-34 0 -41 17 -22 66l130 337h-1c-47 -104 -122 -216 -182 -283c-65 -72 -134 -120 -199 -120c-92 0 -69 91 -20 218l109 280l-88 8l3 6h104l-115 -295c-47 -122 -69 -207 8 -207c61 0 128 48 189 116
c80 89 182 252 233 386h13l-172 -447c-19 -48 -8 -55 11 -55c43 0 111 34 166 127l7 -4c-47 -80 -106 -120 -152 -130c-72 -45 -181 -104 -181 -164c0 -31 23 -51 63 -51c38 0 80 16 105 30l4 -8c-31 -18 -76 -32 -113 -32z" />
    <glyph glyph-name="Wcircumflex" unicode="&#x174;" horiz-adv-x="1234" 
d="M688 833l214 139h4l78 -139h-9l-76 119l-200 -119h-11zM73 -15l229 749c3 11 -7 15 -27 16l-60 2l2 6h197l-2 -6l-60 -2c-22 -1 -34 -5 -37 -16l-223 -730l593 544l64 210h135l-2 -6l-90 -2c-22 0 -34 -5 -37 -16l-223 -729l790 729c10 9 13 15 -14 16l-60 2l2 6h198
l-2 -6l-60 -2c-22 -1 -38 -7 -48 -16l-810 -749h-15l165 541l-590 -541h-15z" />
    <glyph glyph-name="wcircumflex" unicode="&#x175;" horiz-adv-x="868" 
d="M415 579l246 189h4l75 -189h-9l-73 170l-232 -170h-11zM198 -10c-82 0 -126 51 -126 129c0 98 69 227 297 373h-262l-55 -102h-6l48 112h308c-188 -116 -316 -248 -316 -382c0 -77 43 -118 114 -118c62 0 128 27 187 70c-17 35 -24 79 -24 126c0 151 112 314 206 314
c32 0 58 -22 58 -76c0 -37 -16 -107 -71 -197c-37 -62 -92 -123 -155 -170c22 -41 60 -67 115 -67c150 0 289 177 300 393l-13 107c1 7 5 10 10 10c14 0 15 -20 15 -91c0 -230 -148 -431 -313 -431c-60 0 -100 28 -123 72c-62 -43 -130 -72 -194 -72zM374 198
c0 -46 7 -87 22 -120c60 45 113 104 150 164c52 84 69 157 69 193c0 46 -20 65 -47 65c-83 0 -194 -146 -194 -302z" />
    <glyph glyph-name="Ycircumflex" unicode="&#x176;" horiz-adv-x="773" 
d="M401 833l214 139h4l78 -139h-9l-76 119l-200 -119h-11zM212 0l2 6l60 2c22 1 34 5 37 16l98 319l-171 391c-4 9 -10 15 -35 16l-59 2l2 6h198l-2 -6l-61 -2c-26 -1 -33 -7 -29 -16l166 -380l396 380c11 11 -1 15 -27 16l-59 2l2 6h200l-2 -6l-61 -2
c-21 -1 -28 -7 -37 -16l-408 -391l-98 -319c-3 -11 7 -15 27 -16l60 -2l-2 -6h-197z" />
    <glyph glyph-name="ycircumflex" unicode="&#x177;" horiz-adv-x="523" 
d="M232 579l246 189h4l75 -189h-9l-73 170l-232 -170h-11zM-113 -258c-38 0 -68 22 -68 37c0 7 5 12 12 13c11 -28 29 -40 59 -40c56 0 115 46 224 178l68 82l-16 476l-95 8l3 6h104l17 -475l341 412c48 58 59 73 68 73c5 0 8 -3 8 -7s-3 -9 -9 -14c-13 -10 -31 -28 -51 -52
l-426 -513c-117 -141 -179 -184 -239 -184z" />
    <glyph glyph-name="Ydieresis" unicode="&#x178;" horiz-adv-x="773" 
d="M685 935c0 10 9 19 19 19s19 -9 19 -19s-9 -19 -19 -19s-19 9 -19 19zM445 935c0 10 9 19 19 19s19 -9 19 -19s-9 -19 -19 -19s-19 9 -19 19zM212 0l2 6l60 2c22 1 34 5 37 16l98 319l-171 391c-4 9 -10 15 -35 16l-59 2l2 6h198l-2 -6l-61 -2c-26 -1 -33 -7 -29 -16
l166 -380l396 380c11 11 -1 15 -27 16l-59 2l2 6h200l-2 -6l-61 -2c-21 -1 -28 -7 -37 -16l-408 -391l-98 -319c-3 -11 7 -15 27 -16l60 -2l-2 -6h-197z" />
    <glyph glyph-name="Zacute" unicode="&#x179;" horiz-adv-x="726" 
d="M512 833l211 139h20l-1 -1l-217 -138h-13zM-38 0l2 8l835 739h-499c-13 0 -18 -2 -27 -13l-97 -129h-7l104 153h549l-3 -9l-833 -738h541c13 0 19 2 27 13l98 129h7l-104 -153h-593z" />
    <glyph glyph-name="zacute" unicode="&#x17a;" horiz-adv-x="561" 
d="M351 579l170 179h16v-1l-175 -178h-11zM110 390l48 112h413l-360 -292l86 -136c45 -71 71 -95 116 -95c58 0 87 55 40 189l7 3c49 -138 23 -202 -48 -202c-55 0 -81 29 -129 105l-82 128l-191 -154c-18 -15 -17 -40 -15 -58c-15 0 -23 8 -23 20c0 13 11 30 34 48l536 434
h-371l-55 -102h-6z" />
    <glyph glyph-name="Zdotaccent" unicode="&#x17b;" horiz-adv-x="726" 
d="M591 917c-10 0 -19 9 -19 19s9 19 19 19s19 -9 19 -19s-9 -19 -19 -19zM-38 0l2 8l835 739h-499c-13 0 -18 -2 -27 -13l-97 -129h-7l104 153h549l-3 -9l-833 -738h541c13 0 19 2 27 13l98 129h7l-104 -153h-593z" />
    <glyph glyph-name="zdotaccent" unicode="&#x17c;" horiz-adv-x="561" 
d="M436 690c-10 0 -19 9 -19 19s9 19 19 19s19 -9 19 -19s-9 -19 -19 -19zM110 390l48 112h413l-360 -292l86 -136c45 -71 71 -95 116 -95c58 0 87 55 40 189l7 3c49 -138 23 -202 -48 -202c-55 0 -81 29 -129 105l-82 128l-191 -154c-18 -15 -17 -40 -15 -58
c-15 0 -23 8 -23 20c0 13 11 30 34 48l536 434h-371l-55 -102h-6z" />
    <glyph glyph-name="Zcaron" unicode="&#x17d;" horiz-adv-x="726" 
d="M534 833l-78 139h9l76 -119l200 119h11l-214 -139h-4zM-38 0l2 8l835 739h-499c-13 0 -18 -2 -27 -13l-97 -129h-7l104 153h549l-3 -9l-833 -738h541c13 0 19 2 27 13l98 129h7l-104 -153h-593z" />
    <glyph glyph-name="zcaron" unicode="&#x17e;" horiz-adv-x="561" 
d="M369 579l-75 189h9l73 -170l232 170h11l-246 -189h-4zM110 390l48 112h413l-360 -292l86 -136c45 -71 71 -95 116 -95c58 0 87 55 40 189l7 3c49 -138 23 -202 -48 -202c-55 0 -81 29 -129 105l-82 128l-191 -154c-18 -15 -17 -40 -15 -58c-15 0 -23 8 -23 20
c0 13 11 30 34 48l536 434h-371l-55 -102h-6z" />
    <glyph glyph-name="uni018F" unicode="&#x18f;" horiz-adv-x="811" 
d="M336 -10c-155 0 -266 94 -266 278h661c37 72 57 150 57 224c0 176 -121 265 -258 266c-185 1 -334 -118 -405 -287h-9c69 172 221 298 414 297c146 -1 273 -94 273 -276c0 -224 -190 -502 -467 -502zM336 0c172 0 313 115 389 257h-640c5 -171 108 -257 251 -257z" />
    <glyph glyph-name="Scommaaccent" unicode="&#x218;" horiz-adv-x="612" 
d="M206 -10c-88 0 -160 25 -211 63l56 151h6l-34 -122c-7 -22 -7 -27 6 -35c43 -32 119 -47 177 -47c169 0 268 70 268 186c0 64 -56 142 -107 197l-26 28c-54 58 -108 128 -108 197c0 105 118 160 266 160c84 0 145 -22 185 -57l-36 -134h-8l20 106c5 22 3 29 -8 36
c-31 24 -93 39 -153 39c-146 0 -253 -54 -253 -150c0 -60 51 -131 105 -189l26 -28c59 -63 111 -139 111 -203c0 -116 -94 -198 -282 -198zM45 -290l-6 8c108 80 150 144 150 177c0 11 -3 18 -10 24c1 11 10 21 22 21c11 0 18 -8 18 -19c0 -21 -28 -105 -174 -211z" />
    <glyph glyph-name="scommaaccent" unicode="&#x219;" horiz-adv-x="414" 
d="M133 -10c-91 0 -143 60 -145 81c0 10 10 12 16 8c16 -41 54 -79 128 -79c92 0 155 42 155 111c0 51 -27 90 -68 139l-20 24c-36 43 -63 75 -63 125c0 75 73 113 149 113c87 0 134 -45 136 -66c0 -10 -10 -10 -17 -8c-14 35 -47 64 -118 64c-66 0 -138 -31 -138 -102
c0 -46 21 -72 61 -121l20 -24c36 -43 71 -84 71 -144c0 -71 -64 -121 -167 -121zM-49 -290l-6 8c108 80 150 144 150 177c0 11 -3 18 -10 24c1 11 10 21 22 21c11 0 18 -8 18 -19c0 -21 -28 -105 -174 -211z" />
    <glyph glyph-name="Tcommaaccent" unicode="&#x21a;" horiz-adv-x="709" 
d="M180 0l2 6l60 2c22 1 34 5 37 16l221 723h-276c-10 0 -14 -3 -19 -12l-80 -154h-7l80 177h623l-26 -177h-7l14 154c1 9 -3 12 -13 12h-276l-221 -723c-3 -11 7 -15 27 -16l60 -2l-2 -6h-197zM94 -290l-6 8c108 80 150 144 150 177c0 11 -3 18 -10 24c1 11 10 21 22 21
c11 0 18 -8 18 -19c0 -21 -28 -105 -174 -211z" />
    <glyph glyph-name="tcommaaccent" unicode="&#x21b;" horiz-adv-x="327" 
d="M74 -10c-34 0 -42 18 -22 67l176 434h-135l4 11h135l44 108l13 2l-45 -110h166l-4 -11h-166l-176 -435c-19 -48 -8 -56 11 -56c43 0 111 34 166 127l7 -4c-55 -93 -126 -133 -174 -133zM-107 -290l-6 8c108 80 150 144 150 177c0 11 -3 18 -10 24c1 11 10 21 22 21
c11 0 18 -8 18 -19c0 -21 -28 -105 -174 -211z" />
    <glyph glyph-name="uni0232" unicode="&#x232;" horiz-adv-x="773" 
d="M433 896l3 9h274l-3 -9h-274zM212 0l2 6l60 2c22 1 34 5 37 16l98 319l-171 391c-4 9 -10 15 -35 16l-59 2l2 6h198l-2 -6l-61 -2c-26 -1 -33 -7 -29 -16l166 -380l396 380c11 11 -1 15 -27 16l-59 2l2 6h200l-2 -6l-61 -2c-21 -1 -28 -7 -37 -16l-408 -391l-98 -319
c-3 -11 7 -15 27 -16l60 -2l-2 -6h-197z" />
    <glyph glyph-name="uni0233" unicode="&#x233;" horiz-adv-x="523" 
d="M302 667l4 9h281l-3 -9h-282zM-113 -258c-38 0 -68 22 -68 37c0 7 5 12 12 13c11 -28 29 -40 59 -40c56 0 115 46 224 178l68 82l-16 476l-95 8l3 6h104l17 -475l341 412c48 58 59 73 68 73c5 0 8 -3 8 -7s-3 -9 -9 -14c-13 -10 -31 -28 -51 -52l-426 -513
c-117 -141 -179 -184 -239 -184z" />
    <glyph glyph-name="dotlessj" unicode="&#x237;" horiz-adv-x="236" 
d="M-201 -258l-2 4c137 84 157 98 226 268l191 474l-89 8l3 6h104l-197 -488c-60 -149 -82 -179 -168 -231z" />
    <glyph glyph-name="uni0259" unicode="&#x259;" horiz-adv-x="487" 
d="M321 512c78 0 131 -52 131 -145c0 -186 -175 -377 -343 -377c-71 0 -101 32 -101 81c0 46 37 105 115 122h266c30 53 48 113 48 174c0 92 -53 135 -116 135c-83 0 -172 -45 -232 -165l-7 3c59 121 151 172 239 172zM112 0c99 0 208 77 271 183h-242
c-55 0 -119 -52 -119 -112c0 -43 21 -71 90 -71z" />
    <glyph glyph-name="uni02BB" unicode="&#x2bb;" horiz-adv-x="223" 
d="M330 768l5 -8c-107 -80 -147 -141 -147 -177c0 -10 4 -18 10 -24c-2 -12 -11 -20 -20 -20s-17 5 -17 20c0 24 23 101 169 209z" />
    <glyph glyph-name="uni02BC" unicode="&#x2bc;" horiz-adv-x="230" 
d="M154 539l-5 8c107 80 147 141 147 177c0 10 -4 18 -10 24c2 12 11 20 20 20s17 -5 17 -20c0 -24 -23 -101 -169 -209z" />
    <glyph glyph-name="circumflex" unicode="&#x2c6;" 
d="M-195 579l246 189h4l75 -189h-9l-73 170l-232 -170h-11z" />
    <glyph glyph-name="caron" unicode="&#x2c7;" 
d="M-55 579l-75 189h9l73 -170l232 170h11l-246 -189h-4z" />
    <glyph glyph-name="breve" unicode="&#x2d8;" 
d="M-15 594c-83 0 -143 44 -117 150h13c-23 -95 21 -140 104 -140c82 0 151 40 185 140h14c-40 -110 -113 -150 -199 -150z" />
    <glyph glyph-name="dotaccent" unicode="&#x2d9;" 
d="M-19 690c-10 0 -19 9 -19 19s9 19 19 19s19 -9 19 -19s-9 -19 -19 -19z" />
    <glyph glyph-name="ring" unicode="&#x2da;" 
d="M-102 585c-56 0 -102 42 -102 98s46 98 102 98s102 -42 102 -98s-46 -98 -102 -98zM-102 595c50 0 90 39 90 88s-40 88 -90 88s-90 -39 -90 -88s40 -88 90 -88z" />
    <glyph glyph-name="ogonek" unicode="&#x2db;" 
d="M-43 -232c-46 0 -74 24 -74 60c0 65 138 136 198 172h11c-71 -45 -194 -108 -194 -171c0 -31 23 -51 63 -51c38 0 80 16 105 30l4 -8c-31 -18 -76 -32 -113 -32z" />
    <glyph glyph-name="tilde" unicode="&#x2dc;" 
d="M75 631c-78 0 -87 83 -149 83c-36 0 -65 -24 -82 -72h-12c20 57 54 82 94 82c71 0 80 -83 149 -83c34 0 63 24 81 72h11c-19 -57 -55 -82 -92 -82z" />
    <glyph glyph-name="hungarumlaut" unicode="&#x2dd;" 
d="M-2 579l170 179h18l-1 -1l-176 -178h-11zM-187 579l170 179h18l-1 -1l-176 -178h-11z" />
    <glyph glyph-name="uni0401" unicode="&#x401;" horiz-adv-x="697" 
d="M673 935c0 10 9 19 19 19s19 -9 19 -19s-9 -19 -19 -19s-19 9 -19 19zM433 935c0 10 9 19 19 19s19 -9 19 -19s-9 -19 -19 -19s-19 9 -19 19zM-12 0l2 6l60 2c22 1 34 5 37 16l217 710c3 11 -6 15 -27 16l-59 2l2 6h499l-17 -147h-7l5 124c0 9 -3 12 -13 12h-366
l-104 -343h227c27 0 28 2 33 16l36 97h7l-72 -237h-7l23 97c4 14 3 16 -24 16h-227l-117 -382h420c13 0 19 2 27 13l98 129h7l-102 -153h-558z" />
    <glyph glyph-name="uni0402" unicode="&#x402;" horiz-adv-x="796" 
d="M130 0l2 6l60 2c22 1 34 5 37 16l221 723h-226c-10 0 -15 -3 -19 -12l-80 -154h-7l82 177h561l-26 -177h-7l14 154c0 9 -3 12 -13 12h-266l-115 -378c71 59 161 83 232 83c146 0 201 -88 154 -242l-29 -95c-33 -108 -53 -128 -173 -211c-18 -12 -39 -25 -60 -38l-4 8
c155 101 188 123 221 231l32 105c48 159 -10 232 -143 232c-83 0 -175 -35 -235 -88l-101 -330c-3 -11 7 -15 27 -16l60 -2l-2 -6h-197z" />
    <glyph glyph-name="uni0403" unicode="&#x403;" horiz-adv-x="674" 
d="M480 834l211 139h20l-1 -1l-217 -138h-13zM-12 0l2 6l60 2c22 1 34 5 37 16l217 710c3 11 -6 15 -27 16l-59 2l2 6h549l-17 -147h-7l5 124c0 9 -3 12 -13 12h-416l-221 -723c-3 -11 6 -16 27 -16l110 -2l-2 -6h-247z" />
    <glyph glyph-name="uni0404" unicode="&#x404;" horiz-adv-x="805" 
d="M384 -10c-158 0 -295 88 -295 288c0 274 250 490 522 490c106 0 181 -33 226 -70l-2 -137h-7l-9 110c-2 21 -2 27 -14 35c-22 15 -86 52 -194 52c-208 0 -426 -140 -489 -354h385c27 0 29 2 34 16l35 97h7l-72 -237h-7l24 97c3 14 3 16 -24 16h-385
c-10 -36 -15 -75 -15 -115c0 -208 147 -278 280 -278c95 0 186 23 229 52c15 10 22 14 38 35l94 119h7l-100 -146c-76 -50 -174 -70 -268 -70z" />
    <glyph glyph-name="uni0405" unicode="&#x405;" horiz-adv-x="612" 
d="M206 -10c-88 0 -160 25 -211 63l56 151h6l-34 -122c-7 -22 -7 -27 6 -35c43 -32 119 -47 177 -47c169 0 268 70 268 186c0 64 -56 142 -107 197l-26 28c-54 58 -108 128 -108 197c0 105 118 160 266 160c84 0 145 -22 185 -57l-36 -134h-8l20 106c5 22 3 29 -8 36
c-31 24 -93 39 -153 39c-146 0 -253 -54 -253 -150c0 -60 51 -131 105 -189l26 -28c59 -63 111 -139 111 -203c0 -116 -94 -198 -282 -198z" />
    <glyph glyph-name="uni0406" unicode="&#x406;" horiz-adv-x="324" 
d="M-12 0l2 6l60 2c22 1 34 5 37 16l217 710c3 11 -6 15 -27 16l-59 2l2 6h197l-2 -6l-61 -2c-21 -1 -34 -5 -37 -16l-217 -710c-3 -11 7 -15 27 -16l60 -2l-2 -6h-197z" />
    <glyph glyph-name="uni0407" unicode="&#x407;" horiz-adv-x="324" 
d="M480 935c0 10 9 19 19 19s19 -9 19 -19s-9 -19 -19 -19s-19 9 -19 19zM240 935c0 10 9 19 19 19s19 -9 19 -19s-9 -19 -19 -19s-19 9 -19 19zM-12 0l2 6l60 2c22 1 34 5 37 16l217 710c3 11 -6 15 -27 16l-59 2l2 6h197l-2 -6l-61 -2c-21 -1 -34 -5 -37 -16l-217 -710
c-3 -11 7 -15 27 -16l60 -2l-2 -6h-197z" />
    <glyph glyph-name="uni0408" unicode="&#x408;" horiz-adv-x="311" 
d="M-109 -134l-4 8c155 101 188 123 221 231l192 629c3 11 -6 15 -27 16l-59 2l2 6h197l-2 -6l-61 -2c-21 -1 -34 -5 -37 -16l-189 -619c-33 -108 -48 -125 -173 -211c-18 -12 -39 -25 -60 -38z" />
    <glyph glyph-name="uni0409" unicode="&#x409;" horiz-adv-x="1132" 
d="M68 20c-23 -22 -36 -30 -49 -30c-5 0 -8 4 -5 10c5 12 27 24 57 37c107 110 197 280 323 697c4 11 -6 15 -27 16l-59 2l2 6h577l-2 -6l-91 -2c-21 -1 -33 -5 -37 -16l-94 -310h157c232 0 277 -91 240 -212c-37 -122 -138 -212 -370 -212h-262l2 6l61 2c21 1 33 5 36 16
l222 723h-339c-140 -456 -229 -616 -342 -727zM536 11h151c213 0 319 73 358 201c39 127 -22 201 -236 201h-150z" />
    <glyph glyph-name="uni040A" unicode="&#x40a;" horiz-adv-x="1139" 
d="M-12 0l2 6l60 2c22 1 34 5 37 16l217 710c4 11 -6 15 -27 16l-59 2l2 6h197l-2 -6l-61 -2c-21 -1 -33 -5 -37 -16l-97 -320h436l98 320c4 11 -6 15 -27 16l-59 2l2 6h227l-2 -6l-91 -2c-21 0 -34 -5 -37 -16l-97 -320h157c177 0 252 -66 252 -167
c0 -115 -101 -247 -369 -247h-272l2 6l60 2c22 1 34 5 37 16l116 379h-437l-116 -379c-3 -11 7 -15 27 -16l60 -2l-2 -6h-197zM546 11h161c257 0 356 124 356 236c0 100 -73 156 -247 156h-150z" />
    <glyph glyph-name="uni040B" unicode="&#x40b;" horiz-adv-x="851" 
d="M130 0l2 6l60 2c22 1 34 5 37 16l221 723h-226c-10 0 -15 -3 -19 -12l-80 -154h-7l82 177h561l-26 -177h-7l14 154c0 9 -3 12 -13 12h-266l-115 -378c71 59 161 83 233 83c158 0 205 -71 155 -236l-59 -192c-3 -11 7 -15 27 -16l50 -2l-2 -6h-95l66 217
c49 160 5 225 -143 225c-85 0 -177 -35 -237 -88l-101 -330c-3 -11 7 -15 27 -16l60 -2l-2 -6h-197z" />
    <glyph glyph-name="uni040C" unicode="&#x40c;" horiz-adv-x="783" 
d="M560 834l211 139h20l-1 -1l-217 -138h-13zM-12 0l2 6l60 2c22 1 34 5 37 16l217 710c3 11 -6 15 -27 16l-59 2l2 6h197l-2 -6l-61 -2c-21 -1 -34 -5 -37 -16l-104 -342l576 345c14 9 6 11 -32 13l-48 2l2 6h216l-2 -6l-54 -2c-33 -1 -45 -4 -68 -18l-572 -341l446 -391
h-18l-447 390l-112 -366c-3 -11 7 -15 27 -16l60 -2l-2 -6h-197z" />
    <glyph glyph-name="uni040E" unicode="&#x40e;" horiz-adv-x="766" 
d="M522 834c-83 0 -143 44 -117 150h13c-23 -95 21 -140 104 -140c82 0 151 40 185 140h14c-40 -110 -113 -150 -199 -150zM338 132c-76 -93 -125 -142 -165 -142c-7 0 -9 4 -9 8c0 13 30 21 62 30c41 37 70 72 145 161l-144 545c-2 10 -6 15 -27 16l-59 2l2 6h198l-2 -6
l-61 -2c-27 -1 -41 -6 -38 -16l140 -532l439 532c9 10 1 15 -25 16l-61 2l2 6h197l-2 -6l-61 -2c-20 -1 -27 -6 -35 -16z" />
    <glyph glyph-name="uni040F" unicode="&#x40f;" horiz-adv-x="843" 
d="M336 -12c3 9 -2 12 -12 12h-336l2 6l60 2c21 1 34 5 37 16l217 710c3 11 -6 15 -27 16l-59 2l1 6h197l-1 -6l-61 -2c-21 -1 -34 -5 -37 -16l-221 -723h507l221 723c3 11 -6 15 -27 16l-59 2l1 6h197l-1 -6l-61 -2c-21 -1 -34 -5 -37 -16l-217 -710c-3 -11 6 -15 27 -16
l60 -2l-2 -6h-336c-10 0 -17 -3 -20 -12l-47 -144h-7z" />
    <glyph glyph-name="uni0410" unicode="&#x410;" horiz-adv-x="805" 
d="M-134 0l2 6l60 2c22 1 38 7 48 16l820 749h15l-229 -749c-3 -11 7 -15 27 -16l60 -2l-2 -6h-197l2 6l60 2c22 1 34 5 37 16l93 303h-338l-332 -303c-10 -9 -13 -15 14 -16l60 -2l-2 -6h-198zM336 338h329l127 416z" />
    <glyph glyph-name="uni0411" unicode="&#x411;" horiz-adv-x="722" 
d="M304 734c3 11 -6 15 -27 16l-59 2l2 6h499l-17 -147h-7l5 124c0 9 -3 12 -13 12h-366l-98 -323h157c177 0 252 -66 252 -167c0 -120 -102 -257 -372 -257h-272l2 6l60 2c22 1 34 5 37 16zM96 11h161c259 0 359 129 359 246c0 100 -73 156 -247 156h-150z" />
    <glyph glyph-name="uni0412" unicode="&#x412;" horiz-adv-x="712" 
d="M-12 0l2 6l60 2c22 1 34 5 37 16l217 710c3 11 -6 15 -27 16l-59 2l2 6h252c128 0 239 -28 239 -137c0 -90 -82 -211 -257 -222v-1c108 -3 195 -45 195 -141c0 -112 -91 -257 -389 -257h-272zM217 404h192c202 0 287 125 287 216c0 99 -97 127 -234 127h-141zM96 11h161
c283 0 377 132 377 246c0 91 -86 136 -229 136h-192z" />
    <glyph glyph-name="uni0413" unicode="&#x413;" horiz-adv-x="674" 
d="M-12 0l2 6l60 2c22 1 34 5 37 16l217 710c3 11 -6 15 -27 16l-59 2l2 6h549l-17 -147h-7l5 124c0 9 -3 12 -13 12h-416l-221 -723c-3 -11 6 -16 27 -16l110 -2l-2 -6h-247z" />
    <glyph glyph-name="uni0414" unicode="&#x414;" horiz-adv-x="781" 
d="M-23 -12l-57 -144h-7l59 167h81c84 110 198 321 321 723c3 11 -6 15 -27 16l-59 2l1 6h577l-1 -6l-61 -2c-21 -1 -34 -5 -37 -16l-221 -723h104l-43 -167h-7l31 144c2 9 -2 12 -12 12h-622c-10 0 -16 -3 -20 -12zM533 11l225 736h-367c-129 -419 -242 -625 -323 -736h465
z" />
    <glyph glyph-name="uni0415" unicode="&#x415;" horiz-adv-x="697" 
d="M-12 0l2 6l60 2c22 1 34 5 37 16l217 710c3 11 -6 15 -27 16l-59 2l2 6h499l-17 -147h-7l5 124c0 9 -3 12 -13 12h-366l-104 -343h227c27 0 28 2 33 16l36 97h7l-72 -237h-7l23 97c4 14 3 16 -24 16h-227l-117 -382h420c13 0 19 2 27 13l98 129h7l-102 -153h-558z" />
    <glyph glyph-name="uni0416" unicode="&#x416;" horiz-adv-x="1064" 
d="M-27 0h-23l611 394l-261 332c-17 22 -28 23 -63 24l-52 2l2 6h212l-2 -6l-50 -2c-38 -2 -47 -3 -34 -19l265 -341l105 344c4 11 -6 15 -27 16l-59 2l2 6h197l-2 -6l-61 -2c-21 -1 -33 -5 -37 -16l-217 -710c-3 -11 7 -15 27 -16l60 -2l-2 -6h-197l2 6l60 2
c22 1 34 5 37 16l112 366zM958 0l-367 390l478 343c16 12 9 16 -27 17l-48 2l2 6h212l-2 -6l-54 -2c-32 -1 -44 -2 -71 -21l-471 -339h-1l367 -390h-18z" />
    <glyph glyph-name="uni0417" unicode="&#x417;" horiz-adv-x="712" 
d="M314 0c214 0 319 119 319 229c0 85 -77 164 -215 164h-87l4 11h87c177 0 274 97 274 212c0 77 -55 142 -171 142c-57 0 -132 -15 -167 -39c-15 -10 -19 -14 -35 -35l-79 -110h-7l85 137c67 44 146 57 202 57c125 0 187 -71 187 -151c0 -109 -77 -200 -243 -218v-1
c110 -12 180 -85 180 -169c0 -115 -105 -239 -334 -239c-102 0 -172 23 -213 70l-7 146h7l17 -119c2 -21 5 -25 14 -35c22 -27 85 -52 182 -52z" />
    <glyph glyph-name="uni0418" unicode="&#x418;" horiz-adv-x="864" 
d="M-12 0l2 6l60 2c22 1 34 5 37 16l217 710c4 11 -6 15 -27 16l-59 2l2 6h197l-2 -6l-61 -2c-21 -1 -34 -5 -37 -16l-200 -656l719 629l8 27c4 11 -6 15 -27 16l-59 2l2 6h197l-2 -6l-61 -2c-21 -1 -33 -5 -37 -16l-217 -710c-3 -11 7 -15 27 -16l60 -2l-2 -6h-197l2 6
l60 2c22 1 34 5 37 16l203 664l-719 -629l-11 -35c-3 -11 7 -15 27 -16l60 -2l-2 -6h-197z" />
    <glyph glyph-name="uni0419" unicode="&#x419;" horiz-adv-x="864" 
d="M601 834c-83 0 -143 44 -117 150h13c-23 -95 21 -140 104 -140c82 0 151 40 185 140h14c-40 -110 -113 -150 -199 -150zM-12 0l2 6l60 2c22 1 34 5 37 16l217 710c4 11 -6 15 -27 16l-59 2l2 6h197l-2 -6l-61 -2c-21 -1 -34 -5 -37 -16l-200 -656l719 629l8 27
c4 11 -6 15 -27 16l-59 2l2 6h197l-2 -6l-61 -2c-21 -1 -33 -5 -37 -16l-217 -710c-3 -11 7 -15 27 -16l60 -2l-2 -6h-197l2 6l60 2c22 1 34 5 37 16l203 664l-719 -629l-11 -35c-3 -11 7 -15 27 -16l60 -2l-2 -6h-197z" />
    <glyph glyph-name="uni041A" unicode="&#x41a;" horiz-adv-x="783" 
d="M-12 0l2 6l60 2c22 1 34 5 37 16l217 710c3 11 -6 15 -27 16l-59 2l2 6h197l-2 -6l-61 -2c-21 -1 -34 -5 -37 -16l-104 -342l576 345c14 9 6 11 -32 13l-48 2l2 6h216l-2 -6l-54 -2c-33 -1 -45 -4 -68 -18l-572 -341l446 -391h-18l-447 390l-112 -366
c-3 -11 7 -15 27 -16l60 -2l-2 -6h-197z" />
    <glyph glyph-name="uni041B" unicode="&#x41b;" horiz-adv-x="794" 
d="M68 20c-23 -22 -36 -30 -49 -30c-5 0 -7 4 -6 8c5 12 24 25 57 38c108 111 197 280 324 698c4 11 -6 15 -27 16l-59 2l2 6h577l-2 -6l-61 -2c-21 -1 -33 -5 -37 -16l-217 -710c-3 -11 7 -15 28 -16l59 -2l-2 -6h-197l2 6l61 2c21 1 33 5 36 16l221 723h-368
c-140 -456 -229 -616 -342 -727z" />
    <glyph glyph-name="uni041C" unicode="&#x41c;" horiz-adv-x="1010" 
d="M-12 0l2 6l60 2c22 1 34 5 37 16l217 710c3 11 -6 15 -27 16l-59 2l2 6h111l149 -581l509 581h114l-2 -6l-61 -2c-21 -1 -34 -5 -37 -16l-217 -710c-3 -11 7 -15 27 -16l60 -2l-2 -6h-197l2 6l60 2c22 1 34 5 37 16l220 720l-515 -587h-6l-151 588l-221 -721
c-3 -11 7 -15 27 -16l60 -2l-2 -6h-197z" />
    <glyph glyph-name="uni041D" unicode="&#x41d;" horiz-adv-x="874" 
d="M-12 0l2 6l60 2c22 1 34 5 37 16l217 710c3 11 -6 15 -27 16l-59 2l2 6h197l-2 -6l-61 -2c-21 -1 -34 -5 -37 -16l-100 -330h537l100 330c3 11 -6 15 -27 16l-59 2l2 6h197l-2 -6l-61 -2c-21 -1 -34 -5 -37 -16l-217 -710c-3 -11 7 -15 27 -16l60 -2l-2 -6h-197l2 6l60 2
c22 1 34 5 37 16l113 369h-537l-113 -369c-3 -11 7 -15 27 -16l60 -2l-2 -6h-197z" />
    <glyph glyph-name="uni041E" unicode="&#x41e;" horiz-adv-x="873" 
d="M371 -10c-154 0 -286 94 -286 276c0 227 209 502 497 502c154 0 286 -94 286 -276c0 -227 -209 -502 -497 -502zM371 0c274 0 482 265 482 492c0 176 -126 266 -271 266c-274 0 -482 -265 -482 -492c0 -176 126 -266 271 -266z" />
    <glyph glyph-name="uni041F" unicode="&#x41f;" horiz-adv-x="844" 
d="M220 758h717l-2 -6l-61 -2c-21 -1 -33 -5 -37 -16l-217 -710c-3 -11 7 -15 27 -16l60 -2l-2 -6h-197l2 6l60 2c22 1 34 5 37 16l221 723h-507l-221 -723c-3 -11 7 -15 27 -16l60 -2l-2 -6h-197l2 6l60 2c22 1 34 5 37 16l217 710c4 11 -6 15 -27 16l-59 2z" />
    <glyph glyph-name="uni0420" unicode="&#x420;" horiz-adv-x="700" 
d="M-12 0l2 6l60 2c22 1 34 5 37 16l217 710c3 11 -6 15 -27 16l-59 2l2 6h296c129 0 244 -31 244 -143c0 -144 -135 -249 -364 -249h-166l3 11h161c215 0 351 93 351 238c0 105 -110 132 -237 132h-187l-221 -723c-3 -11 6 -16 27 -16l110 -2l-2 -6h-247z" />
    <glyph glyph-name="uni0421" unicode="&#x421;" horiz-adv-x="805" 
d="M384 -10c-158 0 -295 88 -295 288c0 274 250 490 522 490c106 0 181 -33 226 -70l-2 -137h-7l-9 110c-2 21 -2 27 -14 35c-22 15 -86 52 -194 52c-246 0 -507 -197 -507 -480c0 -208 147 -278 280 -278c95 0 186 23 229 52c15 10 22 14 38 35l94 119h7l-100 -146
c-76 -50 -174 -70 -268 -70z" />
    <glyph glyph-name="uni0422" unicode="&#x422;" horiz-adv-x="709" 
d="M180 0l2 6l60 2c22 1 34 5 37 16l221 723h-276c-10 0 -14 -3 -19 -12l-80 -154h-7l80 177h623l-26 -177h-7l14 154c1 9 -3 12 -13 12h-276l-221 -723c-3 -11 7 -15 27 -16l60 -2l-2 -6h-197z" />
    <glyph glyph-name="uni0423" unicode="&#x423;" horiz-adv-x="766" 
d="M338 132c-76 -93 -125 -142 -165 -142c-7 0 -9 4 -9 8c0 13 30 21 62 30c41 37 70 72 145 161l-144 545c-2 10 -6 15 -27 16l-59 2l2 6h198l-2 -6l-61 -2c-27 -1 -41 -6 -38 -16l140 -532l439 532c9 10 1 15 -25 16l-61 2l2 6h197l-2 -6l-61 -2c-20 -1 -27 -6 -35 -16z
" />
    <glyph glyph-name="uni0424" unicode="&#x424;" horiz-adv-x="924" 
d="M284 -20l2 6l60 2c22 1 34 5 37 16l23 76c-186 2 -328 76 -328 243c0 192 197 353 512 355l23 76c3 11 -7 15 -27 16l-60 2l2 6h197l-2 -6l-60 -2c-22 -1 -34 -5 -37 -16l-23 -76c186 -2 327 -76 327 -243c0 -192 -196 -353 -511 -355l-23 -76c-3 -11 7 -15 27 -16l60 -2
l-2 -6h-197zM93 323c0 -160 129 -231 316 -233l178 578c-296 -2 -494 -156 -494 -345zM915 435c0 160 -129 231 -315 233l-178 -578c296 2 493 156 493 345z" />
    <glyph glyph-name="uni0425" unicode="&#x425;" horiz-adv-x="846" 
d="M-96 0l3 6l57 2c20 1 38 7 48 16l467 380l-111 330c-3 10 -15 15 -34 16l-56 2l3 6h196l-3 -6l-61 -3c-26 -1 -36 -5 -32 -16l108 -321l394 321c11 9 8 15 -18 16l-59 3l3 6h201l-3 -6l-57 -2c-20 -1 -38 -8 -48 -16l-409 -333l126 -377c4 -10 15 -15 34 -16l56 -2l-3 -6
h-196l3 6l61 3c26 1 36 5 32 16l-123 368l-452 -368c-11 -9 -8 -15 18 -16l59 -3l-3 -6h-201z" />
    <glyph glyph-name="uni0426" unicode="&#x426;" horiz-adv-x="851" 
d="M689 0h-701l2 6l60 2c21 1 34 5 37 16l217 710c3 11 -6 15 -27 16l-59 2l1 6h197l-1 -6l-61 -2c-21 -1 -34 -5 -37 -16l-221 -723h507l221 723c3 11 -6 15 -27 16l-59 2l1 6h197l-1 -6l-61 -2c-21 -1 -34 -5 -37 -16l-221 -723h104l-43 -167h-7l31 144c2 9 -2 12 -12 12z
" />
    <glyph glyph-name="uni0427" unicode="&#x427;" horiz-adv-x="791" 
d="M241 601l40 133c4 11 -6 15 -27 16l-59 2l2 6h197l-2 -6l-61 -2c-21 -1 -33 -5 -37 -16l-41 -135c-62 -204 27 -255 184 -255c105 0 227 40 227 40l107 350c4 11 -6 15 -27 16l-59 2l2 6h197l-2 -6l-61 -2c-21 -1 -33 -5 -37 -16l-217 -710c-3 -11 7 -15 27 -16l60 -2
l-2 -6h-227l2 6l90 2c21 0 34 5 37 16l107 349s-123 -40 -225 -40c-171 0 -256 65 -195 268z" />
    <glyph glyph-name="uni0428" unicode="&#x428;" horiz-adv-x="1134" 
d="M995 0h-1007l2 6l60 2c22 1 34 5 37 16l217 710c4 11 -6 15 -27 16l-59 2l2 6h197l-2 -6l-61 -2c-21 -1 -33 -5 -37 -16l-221 -723h392l221 723c4 11 -6 15 -27 16l-59 2l2 6h197l-2 -6l-61 -2c-21 -1 -33 -5 -37 -16l-221 -723h392l221 723c4 11 -6 15 -27 16l-59 2l2 6
h197l-2 -6l-61 -2c-21 -1 -33 -5 -37 -16l-217 -710c-3 -11 7 -15 27 -16l60 -2z" />
    <glyph glyph-name="uni0429" unicode="&#x429;" horiz-adv-x="1141" 
d="M979 0h-991l2 6l60 2c21 1 34 5 37 16l217 710c3 11 -6 15 -27 16l-59 2l1 6h197l-1 -6l-61 -2c-21 -1 -34 -5 -37 -16l-221 -723h392l221 723c3 11 -6 15 -27 16l-59 2l1 6h197l-1 -6l-61 -2c-21 -1 -34 -5 -37 -16l-221 -723h392l221 723c3 11 -6 15 -27 16l-59 2l1 6
h197l-1 -6l-61 -2c-21 -1 -34 -5 -37 -16l-221 -723h104l-43 -167h-7l31 144c2 9 -2 12 -12 12z" />
    <glyph glyph-name="uni042A" unicode="&#x42a;" horiz-adv-x="838" 
d="M369 424h157c177 0 252 -66 252 -167c0 -120 -102 -257 -372 -257h-272l2 6l60 2c22 1 34 5 37 16l221 723h-230c-10 0 -15 -3 -19 -12l-80 -154h-7l82 177h393l-2 -6l-91 -2c-21 0 -33 -5 -37 -16zM242 11h161c259 0 359 129 359 246c0 100 -73 156 -247 156h-150z" />
    <glyph glyph-name="uni042B" unicode="&#x42b;" horiz-adv-x="969" 
d="M223 424h157c177 0 252 -66 252 -167c0 -120 -102 -257 -372 -257h-272l2 6l60 2c22 1 34 5 37 16l217 710c4 11 -6 15 -27 16l-59 2l2 6h227l-2 -6l-91 -2c-21 0 -33 -5 -37 -16zM633 0l2 6l60 2c22 1 34 5 37 16l217 710c3 11 -6 15 -27 16l-59 2l2 6h197l-2 -6l-61 -2
c-21 -1 -34 -5 -37 -16l-217 -710c-3 -11 7 -15 27 -16l60 -2l-2 -6h-197zM96 11h161c259 0 359 129 359 246c0 100 -73 156 -247 156h-150z" />
    <glyph glyph-name="uni042C" unicode="&#x42c;" horiz-adv-x="692" 
d="M223 424h157c177 0 252 -66 252 -167c0 -120 -102 -257 -372 -257h-272l2 6l60 2c22 1 34 5 37 16l217 710c4 11 -6 15 -27 16l-59 2l2 6h227l-2 -6l-91 -2c-21 0 -33 -5 -37 -16zM96 11h161c259 0 359 129 359 246c0 100 -73 156 -247 156h-150z" />
    <glyph glyph-name="uni042D" unicode="&#x42d;" horiz-adv-x="840" 
d="M540 768c158 0 295 -88 295 -288c0 -274 -240 -490 -502 -490c-106 0 -181 33 -226 70l-7 146h7l18 -119c3 -21 2 -27 14 -35c22 -15 86 -52 194 -52c208 0 428 153 477 384h-383c-27 0 -29 -2 -34 -16l-35 -97h-7l72 237h7l-24 -97c-3 -14 -3 -16 24 -16h382
c5 27 8 56 8 85c0 208 -147 278 -280 278c-95 0 -186 -23 -229 -52c-15 -10 -24 -14 -38 -35l-69 -104h-7l75 131c76 50 174 70 268 70z" />
    <glyph glyph-name="uni042E" unicode="&#x42e;" horiz-adv-x="1123" 
d="M-12 0l2 6l60 2c22 1 34 5 37 16l217 710c3 11 -6 15 -27 16l-59 2l2 6h197l-2 -6l-61 -2c-21 -1 -34 -5 -37 -16l-100 -330h161c61 187 238 364 464 364c149 0 276 -94 276 -276c0 -227 -205 -502 -487 -502c-149 0 -276 94 -276 276c0 41 7 84 20 127h-162l-113 -369
c-3 -11 7 -15 27 -16l60 -2l-2 -6h-197zM631 0c268 0 472 265 472 492c0 176 -121 266 -261 266c-268 0 -472 -265 -472 -492c0 -176 121 -266 261 -266z" />
    <glyph glyph-name="uni042F" unicode="&#x42f;" horiz-adv-x="775" 
d="M30 0h-20l456 359c-112 4 -217 39 -217 163c0 159 148 236 376 236h243l-2 -6l-61 -2c-21 -1 -33 -5 -37 -16l-217 -710c-3 -11 7 -15 27 -16l60 -2l-2 -6h-197l2 6l60 2c22 1 34 5 37 16l103 335h-151h-5zM644 370l115 377h-139c-210 0 -356 -73 -356 -223
c0 -130 110 -154 241 -154h139z" />
    <glyph glyph-name="uni0430" unicode="&#x430;" horiz-adv-x="577" 
d="M121 -10c-64 0 -100 34 -100 103c0 181 208 419 374 419c66 0 93 -48 91 -105h2l34 95h12l-166 -447c-18 -49 -10 -55 9 -55c43 0 111 34 170 127l7 -4c-59 -93 -132 -133 -180 -133c-34 0 -37 16 -18 66l52 140h-2c-84 -133 -197 -206 -285 -206zM124 0
c105 0 258 122 328 313c46 124 15 189 -59 189c-153 0 -357 -231 -357 -409c0 -59 29 -93 88 -93z" />
    <glyph glyph-name="uni0431" unicode="&#x431;" horiz-adv-x="571" 
d="M526 345c0 -197 -158 -355 -316 -355c-92 0 -164 49 -164 166c0 224 183 557 472 587c90 9 126 12 138 45h8c-15 -41 -56 -48 -147 -57c-85 -8 -161 -45 -226 -98c-81 -67 -144 -161 -185 -256c89 94 170 125 263 125c94 0 157 -59 157 -157zM210 0
c151 0 301 152 301 345c0 97 -63 147 -141 147c-92 0 -176 -32 -271 -136v1c-27 -70 -42 -141 -42 -203c0 -110 69 -154 153 -154z" />
    <glyph glyph-name="uni0432" unicode="&#x432;" horiz-adv-x="483" 
d="M401 190c0 -102 -89 -200 -224 -200c-78 0 -131 52 -131 145c0 186 175 377 343 377c58 0 91 -32 91 -68c0 -80 -66 -127 -204 -165c71 5 125 -31 125 -89zM386 502c-122 0 -261 -119 -308 -265l144 37c184 48 244 95 244 169c0 31 -24 59 -80 59zM61 135
c0 -92 53 -135 116 -135c126 0 212 94 212 190c0 60 -68 99 -182 70l-133 -33c-8 -30 -13 -61 -13 -92z" />
    <glyph glyph-name="uni0433" unicode="&#x433;" horiz-adv-x="474" 
d="M171 -10c-93 0 -145 41 -145 106c0 105 92 132 213 162l48 12c124 30 175 65 175 146c0 48 -33 86 -110 86c-22 0 -55 -2 -87 -11c-28 -8 -53 -21 -66 -41l-64 -109h-7l66 127c50 32 107 44 158 44c89 0 125 -43 125 -95c0 -89 -65 -129 -185 -158l-54 -13
c-109 -26 -197 -55 -197 -147c0 -64 51 -99 131 -99c30 0 64 4 93 11c35 10 64 24 74 43l62 119h7l-62 -137c-50 -31 -114 -46 -175 -46z" />
    <glyph glyph-name="uni0434" unicode="&#x434;" horiz-adv-x="554" 
d="M205 -10c-116 0 -159 81 -159 180c0 150 130 341 313 341c85 0 132 -49 145 -89c4 31 6 61 6 90c0 138 -45 245 -148 245c-58 0 -95 -22 -128 -53l-7 5c31 31 74 59 137 59c112 0 161 -114 161 -256c0 -226 -126 -522 -320 -522zM61 166c0 -92 38 -166 146 -166
c151 0 262 207 294 402c-13 46 -57 100 -145 100c-166 0 -295 -179 -295 -336z" />
    <glyph glyph-name="uni0435" unicode="&#x435;" horiz-adv-x="484" 
d="M168 -10c-78 0 -131 52 -131 145c0 186 175 377 343 377c71 0 101 -32 101 -81c0 -46 -37 -105 -115 -122h-266c-30 -53 -48 -113 -48 -174c0 -92 53 -135 116 -135c83 0 172 45 232 165l7 -3c-59 -121 -151 -172 -239 -172zM377 502c-99 0 -208 -77 -271 -183h242
c55 0 119 52 119 112c0 43 -21 71 -90 71z" />
    <glyph glyph-name="uni0436" unicode="&#x436;" horiz-adv-x="961" 
d="M381 2l-15 -5l94 249l-164 -9c-48 -131 -148 -247 -234 -247c-58 0 -82 44 -82 101c0 19 5 31 19 29c-14 -81 15 -120 66 -120c104 0 245 208 245 387c0 78 -30 115 -66 115c-66 0 -123 -50 -181 -161l-8 4c57 112 119 167 189 167c47 0 81 -45 81 -125
c0 -45 -9 -93 -26 -140l165 9l92 244l15 5l-94 -249l164 9c48 131 148 247 234 247c58 0 82 -44 82 -101c0 -19 -5 -31 -19 -29c14 81 -15 120 -66 120c-104 0 -245 -208 -245 -387c0 -78 30 -115 66 -115c66 0 123 50 181 161l8 -4c-57 -112 -119 -167 -189 -167
c-47 0 -81 45 -81 125c0 45 9 93 26 140l-165 -9z" />
    <glyph glyph-name="uni0437" unicode="&#x437;" horiz-adv-x="455" 
d="M149 -10c-99 0 -129 44 -129 101c0 19 5 31 19 29c-14 -82 26 -120 110 -120c126 0 212 88 212 178c0 66 -68 99 -182 71l-41 -10l5 11l51 13c163 42 224 107 224 175c0 35 -20 64 -73 64c-82 0 -151 -38 -216 -133l-8 3c65 96 137 140 223 140c66 0 88 -34 88 -75
c0 -73 -66 -132 -184 -168c71 5 125 -28 125 -91c0 -96 -89 -188 -224 -188z" />
    <glyph glyph-name="uni0438" unicode="&#x438;" horiz-adv-x="595" 
d="M227 502l-115 -295c-47 -122 -69 -207 8 -207c61 0 128 48 189 116c80 89 182 252 233 386h13l-172 -447c-19 -48 -8 -55 11 -55c43 0 111 34 166 127l7 -4c-55 -93 -126 -133 -174 -133c-34 0 -41 17 -22 66l130 337h-1c-47 -104 -122 -216 -182 -283
c-65 -72 -134 -120 -199 -120c-92 0 -69 91 -20 218l109 280l-88 8l3 6h104z" />
    <glyph glyph-name="uni0439" unicode="&#x439;" horiz-adv-x="595" 
d="M388 594c-83 0 -143 44 -117 150h13c-23 -95 21 -140 104 -140c82 0 151 40 185 140h14c-40 -110 -113 -150 -199 -150zM227 502l-115 -295c-47 -122 -69 -207 8 -207c61 0 128 48 189 116c80 89 182 252 233 386h13l-172 -447c-19 -48 -8 -55 11 -55
c43 0 111 34 166 127l7 -4c-55 -93 -126 -133 -174 -133c-34 0 -41 17 -22 66l130 337h-1c-47 -104 -122 -216 -182 -283c-65 -72 -134 -120 -199 -120c-92 0 -69 91 -20 218l109 280l-88 8l3 6h104z" />
    <glyph glyph-name="uni043A" unicode="&#x43a;" horiz-adv-x="537" 
d="M37 2l-15 -5l188 490l-89 9l3 6h104l-95 -248l198 154c75 58 121 104 161 104c48 0 65 -40 65 -70c0 -14 -7 -20 -16 -20c0 43 -8 80 -49 80c-35 0 -80 -45 -156 -104l-189 -146l187 -217c38 -44 52 -51 75 -51c24 0 49 11 73 99l9 -2c-22 -87 -51 -107 -83 -107
c-29 0 -47 11 -83 53l-193 224z" />
    <glyph glyph-name="uni043B" unicode="&#x43b;" horiz-adv-x="553" 
d="M21 2c-11 -8 -23 -12 -30 -12c-6 0 -9 3 -9 8c0 2 1 5 3 8l56 26c95 85 175 242 259 460h-84l4 10h330l-172 -447c-19 -48 -8 -55 11 -55c43 0 111 34 166 127l7 -4c-55 -93 -126 -133 -174 -133c-34 0 -41 17 -22 66l167 436h-221c-87 -226 -177 -407 -291 -490z" />
    <glyph glyph-name="uni043C" unicode="&#x43c;" horiz-adv-x="766" 
d="M-10 -10c-7 0 -10 3 -10 8c0 3 2 6 4 9l57 25c95 84 174 240 258 457l-93 8l1 6h104l6 -457l396 456h13l-172 -447c-19 -48 -8 -55 11 -55c43 0 111 34 166 127l7 -4c-55 -93 -126 -133 -174 -133c-34 0 -41 17 -22 66l160 417l-391 -450h-6l-6 436
c-79 -202 -155 -351 -250 -435c-20 -18 -44 -34 -59 -34z" />
    <glyph glyph-name="uni043D" unicode="&#x43d;" horiz-adv-x="590" 
d="M37 2l-15 -5l188 490l-89 9l3 6h104l-94 -247l316 20l87 227h13l-172 -447c-19 -48 -8 -55 11 -55c43 0 111 34 166 127l7 -4c-55 -93 -126 -133 -174 -133c-34 0 -41 17 -22 66l80 209l-316 -20z" />
    <glyph glyph-name="uni043E" unicode="&#x43e;" horiz-adv-x="571" 
d="M215 -10c-98 0 -169 64 -169 172c0 178 151 350 311 350c98 0 169 -64 169 -172c0 -178 -151 -350 -311 -350zM217 0c144 0 294 159 294 339c0 108 -69 163 -156 163c-144 0 -294 -159 -294 -339c0 -108 68 -163 156 -163z" />
    <glyph glyph-name="uni043F" unicode="&#x43f;" horiz-adv-x="593" 
d="M392 -10c-34 0 -46 17 -25 66l102 239c52 122 66 207 -11 207c-61 0 -128 -48 -189 -116c-80 -89 -181 -250 -232 -384l-15 -5l188 490l-89 9l3 6h104l-151 -393h1c47 104 122 216 182 283c65 72 134 120 199 120c92 0 77 -91 23 -218l-102 -239c-20 -48 -6 -55 13 -55
c43 0 111 34 166 127l7 -4c-55 -93 -126 -133 -174 -133z" />
    <glyph glyph-name="uni0440" unicode="&#x440;" horiz-adv-x="558" 
d="M-49 -248l253 736l-89 8l3 6h104l-26 -77c56 60 142 87 198 87c88 0 138 -42 138 -131c0 -185 -221 -412 -486 -390l-82 -239h-13zM394 502c-66 0 -142 -30 -204 -94l-140 -407c255 -18 467 198 467 381c0 82 -44 120 -123 120z" />
    <glyph glyph-name="uni0441" unicode="&#x441;" horiz-adv-x="477" 
d="M169 -10c-77 0 -131 52 -131 145c0 186 169 377 333 377c72 0 102 -44 102 -101c0 -19 -5 -31 -19 -29c14 81 -20 120 -86 120c-147 0 -315 -178 -315 -367c0 -92 54 -135 116 -135c80 0 161 46 221 161l7 -3c-59 -116 -143 -168 -228 -168z" />
    <glyph glyph-name="uni0442" unicode="&#x442;" horiz-adv-x="924" 
d="M723 -10c-34 0 -46 17 -25 66l102 239c52 122 66 207 -11 207c-61 0 -128 -48 -189 -116c-80 -89 -181 -250 -232 -384l-15 -5l113 298c46 122 69 207 -8 207c-61 0 -128 -48 -189 -116c-80 -89 -181 -250 -232 -384l-15 -5l188 490l-89 9l3 6h104l-151 -393h1
c47 104 122 216 182 283c65 72 134 120 199 120c92 0 69 -91 20 -218l-71 -185h1c47 104 122 216 182 283c65 72 134 120 199 120c92 0 77 -91 23 -218l-102 -239c-20 -48 -6 -55 13 -55c43 0 111 34 166 127l7 -4c-55 -93 -126 -133 -174 -133z" />
    <glyph glyph-name="uni0443" unicode="&#x443;" horiz-adv-x="523" 
d="M-113 -258c-38 0 -68 22 -68 37c0 7 5 12 12 13c11 -28 29 -40 59 -40c56 0 115 46 224 178l68 82l-16 476l-95 8l3 6h104l17 -475l341 412c48 58 59 73 68 73c5 0 8 -3 8 -7s-3 -9 -9 -14c-13 -10 -31 -28 -51 -52l-426 -513c-117 -141 -179 -184 -239 -184z" />
    <glyph glyph-name="uni0444" unicode="&#x444;" horiz-adv-x="677" 
d="M519 758l-85 -246c116 -1 198 -64 198 -172c0 -178 -164 -350 -377 -350l-82 -238h-13l82 238c-115 1 -196 65 -196 172c0 178 164 350 375 350l80 232l-89 8l3 6h104zM431 502l-173 -502c197 3 359 161 359 339c0 108 -81 163 -186 163zM61 163c0 -108 81 -163 184 -163
l173 502c-196 -4 -357 -162 -357 -339z" />
    <glyph glyph-name="uni0445" unicode="&#x445;" horiz-adv-x="601" 
d="M38 -10c-48 0 -65 40 -65 70c0 14 7 20 16 20c0 -43 8 -80 49 -80c87 0 174 120 258 256l-30 180c-7 44 -16 66 -40 66c-32 0 -87 -42 -135 -121l-10 4c52 86 113 127 147 127c28 0 40 -16 50 -76l28 -167c88 140 166 243 256 243c48 0 65 -40 65 -70
c0 -14 -7 -20 -16 -20c0 43 -8 80 -49 80c-85 0 -170 -115 -253 -248l31 -188c7 -44 16 -66 40 -66c32 0 87 42 135 121l10 -4c-52 -86 -113 -127 -147 -127c-28 0 -40 16 -50 76l-29 174c-90 -143 -170 -250 -261 -250z" />
    <glyph glyph-name="uni0446" unicode="&#x446;" horiz-adv-x="595" 
d="M227 502l-115 -295c-47 -122 -69 -207 8 -207c61 0 128 48 189 116c80 89 182 252 233 386h13l-172 -447c-19 -48 -8 -55 11 -55c43 0 111 34 166 127l7 -4l-15 -24c-42 -68 -46 -100 -46 -182c0 -67 -24 -98 -82 -108v12c50 7 72 36 72 95c0 66 4 101 27 147
c-45 -51 -94 -73 -130 -73c-34 0 -41 17 -22 66l130 337h-1c-47 -104 -122 -216 -182 -283c-65 -72 -134 -120 -199 -120c-92 0 -69 91 -20 218l109 280l-88 8l3 6h104z" />
    <glyph glyph-name="uni0447" unicode="&#x447;" horiz-adv-x="575" 
d="M227 502l-37 -96c-46 -120 -69 -207 8 -207c108 0 267 154 324 303h13l-172 -447c-19 -48 -8 -55 11 -55c43 0 111 34 166 127l7 -4c-55 -93 -126 -133 -174 -133c-34 0 -41 17 -22 66l134 348h-1c-76 -119 -193 -215 -287 -215c-92 0 -69 91 -20 218l31 81l-88 8l3 6
h104z" />
    <glyph glyph-name="uni0448" unicode="&#x448;" horiz-adv-x="925" 
d="M429 208l72 185h-1c-47 -104 -122 -216 -182 -283c-65 -72 -134 -120 -199 -120c-92 0 -69 91 -20 218l109 280l-88 8l3 6h104l-115 -295c-47 -122 -69 -207 8 -207c61 0 128 48 189 116c80 89 182 252 233 386h13l-113 -295c-47 -122 -69 -207 8 -207
c61 0 128 48 189 116c80 89 182 252 233 386h13l-172 -447c-19 -48 -8 -55 11 -55c43 0 111 34 166 127l7 -4c-55 -93 -126 -133 -174 -133c-34 0 -41 17 -22 66l130 337h-1c-47 -104 -122 -216 -182 -283c-65 -72 -134 -120 -199 -120c-92 0 -69 91 -20 218z" />
    <glyph glyph-name="uni0449" unicode="&#x449;" horiz-adv-x="925" 
d="M429 208l72 185h-1c-47 -104 -122 -216 -182 -283c-65 -72 -134 -120 -199 -120c-92 0 -69 91 -20 218l109 280l-88 8l3 6h104l-115 -295c-47 -122 -69 -207 8 -207c61 0 128 48 189 116c80 89 182 252 233 386h13l-113 -295c-47 -122 -69 -207 8 -207
c61 0 128 48 189 116c80 89 182 252 233 386h13l-172 -447c-19 -48 -8 -55 11 -55c43 0 111 34 166 127l7 -4l-15 -24c-42 -68 -46 -100 -46 -182c0 -67 -24 -98 -82 -108v12c50 7 72 36 72 95c0 66 4 101 27 147c-45 -51 -94 -73 -130 -73c-34 0 -41 17 -22 66l130 337h-1
c-47 -104 -122 -216 -182 -283c-65 -72 -134 -120 -199 -120c-92 0 -69 91 -20 218z" />
    <glyph glyph-name="uni044A" unicode="&#x44a;" horiz-adv-x="482" 
d="M196 -10c-82 0 -126 51 -126 124c0 101 76 232 301 378h-261l-55 -101h-6l48 111h308c-116 -71 -212 -151 -267 -233c21 14 76 46 146 48c96 -2 137 -60 138 -125c-1 -92 -91 -202 -226 -202zM84 115c0 -72 43 -113 114 -113c124 0 211 103 212 190
c-1 60 -39 113 -128 115c-76 -2 -143 -47 -157 -57c-26 -45 -41 -90 -41 -135z" />
    <glyph glyph-name="uni044B" unicode="&#x44b;" horiz-adv-x="690" 
d="M637 502h13l-172 -447c-19 -48 -8 -55 11 -55c43 0 111 34 166 127l7 -4c-55 -93 -126 -133 -174 -133c-34 0 -41 17 -22 66zM416 190c0 -90 -90 -200 -225 -200c-115 0 -145 81 -101 195l118 303l-88 8l3 6h104l-91 -234c21 15 74 47 142 47c97 0 138 -58 138 -125z
M104 185c-40 -104 -23 -185 88 -185c125 0 212 105 212 190c0 62 -38 115 -128 115c-66 0 -124 -36 -146 -52z" />
    <glyph glyph-name="uni044C" unicode="&#x44c;" horiz-adv-x="476" 
d="M416 190c0 -90 -90 -200 -225 -200c-115 0 -145 81 -101 195l118 303l-88 8l3 6h104l-91 -234c21 15 74 47 142 47c97 0 138 -58 138 -125zM104 185c-40 -104 -23 -185 88 -185c125 0 212 105 212 190c0 62 -38 115 -128 115c-66 0 -124 -36 -146 -52z" />
    <glyph glyph-name="uni044D" unicode="&#x44d;" horiz-adv-x="500" 
d="M324 512c77 0 131 -52 131 -145c0 -186 -169 -377 -333 -377c-72 0 -102 44 -102 101c0 19 5 31 19 29c-14 -81 20 -120 86 -120c116 0 246 111 295 252l-265 -18l4 10l264 18c11 34 17 69 17 105c0 92 -54 135 -116 135c-73 0 -147 -39 -205 -133l-8 3
c58 96 135 140 213 140z" />
    <glyph glyph-name="uni044E" unicode="&#x44e;" horiz-adv-x="781" 
d="M37 2l-15 -5l188 490l-89 9l3 6h104l-94 -247l138 9c43 136 166 248 295 248c98 0 169 -64 169 -172c0 -178 -151 -350 -311 -350c-98 0 -169 64 -169 172c0 31 5 62 13 92l-139 -9zM427 0c144 0 294 159 294 339c0 108 -69 163 -156 163c-144 0 -294 -159 -294 -339
c0 -108 68 -163 156 -163z" />
    <glyph glyph-name="uni044F" unicode="&#x44f;" horiz-adv-x="552" 
d="M499 502h13l-172 -447c-19 -48 -8 -55 11 -55c43 0 111 34 166 127l7 -4c-55 -93 -126 -133 -174 -133c-34 0 -41 17 -22 66l78 199h-2c-120 -106 -254 -197 -347 -252c-11 -7 -23 -13 -35 -13c-6 0 -9 4 -9 9c0 2 1 5 3 8l64 23c69 42 155 102 250 176
c-23 -10 -48 -16 -75 -16c-97 0 -128 58 -128 125c0 90 80 200 215 200c85 0 123 -44 118 -114h1zM139 315c0 -62 28 -115 118 -115c81 0 147 55 174 125l7 18c28 73 16 162 -97 162c-125 0 -202 -105 -202 -190z" />
    <glyph glyph-name="uni0451" unicode="&#x451;" horiz-adv-x="484" 
d="M588 690c-10 0 -19 9 -19 19s9 19 19 19s19 -9 19 -19s-9 -19 -19 -19zM348 690c-10 0 -19 9 -19 19s9 19 19 19s19 -9 19 -19s-9 -19 -19 -19zM168 -10c-78 0 -131 52 -131 145c0 186 175 377 343 377c71 0 101 -32 101 -81c0 -46 -37 -105 -115 -122h-266
c-30 -53 -48 -113 -48 -174c0 -92 53 -135 116 -135c83 0 172 45 232 165l7 -3c-59 -121 -151 -172 -239 -172zM377 502c-99 0 -208 -77 -271 -183h242c55 0 119 52 119 112c0 43 -21 71 -90 71z" />
    <glyph glyph-name="uni0452" unicode="&#x452;" horiz-adv-x="568" 
d="M19 -3l216 628h-82l4 11h82l37 107l-79 9l3 6h94l-42 -122h159l-5 -11h-158l-85 -245l-92 -271h1c47 104 125 216 185 283c65 72 134 120 199 120c92 0 77 -91 23 -218l-118 -279c-63 -149 -83 -180 -169 -232l-68 -41l-2 4c137 84 153 98 225 268l119 281
c52 122 66 207 -11 207c-61 0 -128 -48 -189 -116c-80 -89 -181 -250 -232 -384z" />
    <glyph glyph-name="uni0453" unicode="&#x453;" horiz-adv-x="474" 
d="M340 579l170 179h16v-1l-175 -178h-11zM171 -10c-93 0 -145 41 -145 106c0 105 92 132 213 162l48 12c124 30 175 65 175 146c0 48 -33 86 -110 86c-22 0 -55 -2 -87 -11c-28 -8 -53 -21 -66 -41l-64 -109h-7l66 127c50 32 107 44 158 44c89 0 125 -43 125 -95
c0 -89 -65 -129 -185 -158l-54 -13c-109 -26 -197 -55 -197 -147c0 -64 51 -99 131 -99c30 0 64 4 93 11c35 10 64 24 74 43l62 119h7l-62 -137c-50 -31 -114 -46 -175 -46z" />
    <glyph glyph-name="uni0454" unicode="&#x454;" horiz-adv-x="477" 
d="M169 -10c-77 0 -131 52 -131 145c0 186 169 377 333 377c72 0 102 -44 102 -101c0 -19 -5 -31 -19 -29c14 81 -20 120 -86 120c-115 0 -243 -109 -293 -246l263 17l-4 -10l-262 -17c-12 -36 -19 -73 -19 -111c0 -92 54 -135 116 -135c80 0 161 46 221 161l7 -3
c-59 -116 -143 -168 -228 -168z" />
    <glyph glyph-name="uni0455" unicode="&#x455;" horiz-adv-x="414" 
d="M133 -10c-91 0 -143 60 -145 81c0 10 10 12 16 8c16 -41 54 -79 128 -79c92 0 155 42 155 111c0 51 -27 90 -68 139l-20 24c-36 43 -63 75 -63 125c0 75 73 113 149 113c87 0 134 -45 136 -66c0 -10 -10 -10 -17 -8c-14 35 -47 64 -118 64c-66 0 -138 -31 -138 -102
c0 -46 21 -72 61 -121l20 -24c36 -43 71 -84 71 -144c0 -71 -64 -121 -167 -121z" />
    <glyph glyph-name="uni0456" unicode="&#x456;" horiz-adv-x="272" 
d="M280 739c0 10 9 19 19 19s19 -9 19 -19s-9 -19 -19 -19s-19 9 -19 19zM68 -10c-34 0 -41 17 -22 66l166 432l-89 8l3 6h104l-172 -447c-19 -48 -8 -55 11 -55c43 0 111 34 166 127l7 -4c-55 -93 -126 -133 -174 -133z" />
    <glyph glyph-name="uni0457" unicode="&#x457;" horiz-adv-x="255" 
d="M188 720c-10 0 -19 9 -19 19s9 19 19 19s19 -9 19 -19s-9 -19 -19 -19zM348 720c-10 0 -19 9 -19 19s9 19 19 19s19 -9 19 -19s-9 -19 -19 -19zM68 -10c-34 0 -41 17 -22 66l166 432l-89 8l3 6h104l-172 -447c-19 -48 -8 -55 11 -55c43 0 111 34 166 127l7 -4
c-55 -93 -126 -133 -174 -133z" />
    <glyph glyph-name="uni0458" unicode="&#x458;" horiz-adv-x="236" 
d="M290 739c0 10 9 19 19 19s19 -9 19 -19s-9 -19 -19 -19s-19 9 -19 19zM-201 -258l-2 4c137 84 157 98 226 268l191 474l-89 8l3 6h104l-197 -488c-60 -149 -82 -179 -168 -231z" />
    <glyph glyph-name="uni0459" unicode="&#x459;" horiz-adv-x="782" 
d="M312 492c-87 -226 -177 -407 -291 -490c-11 -8 -23 -12 -30 -12c-6 0 -9 3 -9 8c0 2 1 5 3 8l56 26c95 85 175 242 259 460h-84l4 10h313l-87 -224c19 8 69 27 138 27c97 0 138 -53 138 -115c0 -90 -90 -200 -225 -200c-115 0 -146 81 -101 195l120 307h-204zM410 185
c-40 -104 -23 -185 88 -185c125 0 212 105 212 190c0 57 -38 105 -128 105c-67 0 -122 -22 -141 -31z" />
    <glyph glyph-name="uni045A" unicode="&#x45a;" horiz-adv-x="762" 
d="M37 2l-15 -5l188 490l-89 9l3 6h104l-94 -247l277 20l89 227l14 2l-88 -226c19 8 69 27 138 27c97 0 138 -53 138 -115c0 -90 -90 -200 -225 -200c-115 0 -146 81 -101 195l31 80l-277 -20zM390 185c-40 -104 -23 -185 88 -185c125 0 212 105 212 190
c0 57 -38 105 -128 105c-67 0 -122 -22 -141 -31z" />
    <glyph glyph-name="uni045B" unicode="&#x45b;" horiz-adv-x="599" 
d="M70 109h1c48 97 125 215 186 283c65 72 134 120 199 120c92 0 77 -91 23 -218l-102 -239c-20 -48 -6 -55 13 -55c43 0 111 34 166 127l7 -4c-55 -93 -126 -133 -174 -133c-34 0 -46 17 -25 66l102 239c52 122 66 207 -11 207c-61 0 -128 -48 -189 -116
c-80 -89 -181 -250 -232 -384l-15 -5l216 628h-82l4 11h82l37 107l-79 9l3 6h94l-42 -122h159l-5 -11h-158l-59 -173z" />
    <glyph glyph-name="uni045C" unicode="&#x45c;" horiz-adv-x="537" 
d="M267 579l170 179h16v-1l-175 -178h-11zM37 2l-15 -5l188 490l-89 9l3 6h104l-95 -248l198 154c75 58 121 104 161 104c48 0 65 -40 65 -70c0 -14 -7 -20 -16 -20c0 43 -8 80 -49 80c-35 0 -80 -45 -156 -104l-189 -146l187 -217c38 -44 52 -51 75 -51c24 0 49 11 73 99
l9 -2c-22 -87 -51 -107 -83 -107c-29 0 -47 11 -83 53l-193 224z" />
    <glyph glyph-name="uni045E" unicode="&#x45e;" horiz-adv-x="523" 
d="M371 594c-83 0 -143 44 -117 150h13c-23 -95 21 -140 104 -140c82 0 151 40 185 140h14c-40 -110 -113 -150 -199 -150zM-113 -258c-38 0 -68 22 -68 37c0 7 5 12 12 13c11 -28 29 -40 59 -40c56 0 115 46 224 178l68 82l-16 476l-95 8l3 6h104l17 -475l341 412
c48 58 59 73 68 73c5 0 8 -3 8 -7s-3 -9 -9 -14c-13 -10 -31 -28 -51 -52l-426 -513c-117 -141 -179 -184 -239 -184z" />
    <glyph glyph-name="uni045F" unicode="&#x45f;" horiz-adv-x="595" 
d="M227 502l-115 -295c-47 -122 -69 -207 8 -207c61 0 128 48 189 116c80 89 182 252 233 386h13l-172 -447c-19 -48 -8 -55 11 -55c43 0 111 34 166 127l7 -4c-55 -93 -126 -133 -174 -133c-34 0 -41 17 -22 66l130 337h-1c-47 -104 -122 -216 -182 -283
c-65 -72 -134 -120 -199 -120c-92 0 -69 91 -20 218l109 280l-88 8l3 6h104zM278 0h10c-27 -36 -62 -91 -62 -135c0 -24 13 -39 49 -44l-6 -12c-41 7 -56 29 -56 56c0 41 35 96 65 135z" />
    <glyph glyph-name="uni0462" unicode="&#x462;" horiz-adv-x="845" 
d="M363 363h157c179 0 265 -52 265 -155c0 -122 -126 -208 -357 -208h-262l2 6l60 2c22 1 34 5 36 16l150 593h-226c-10 0 -15 -3 -19 -12l-72 -154h-7l73 177h254l27 106c2 11 -8 15 -28 16l-60 2l2 6h197l-2 -6l-60 -2c-22 -1 -34 -5 -36 -16l-27 -106h254l-17 -177h-7
l6 154c0 9 -3 12 -13 12h-226zM274 11h151c227 0 345 81 345 195c0 108 -95 146 -260 146h-150z" />
    <glyph glyph-name="uni0463" unicode="&#x463;" horiz-adv-x="812" 
d="M37 2l-15 -5l188 490l-89 9l3 6h104l-151 -393h1c47 104 122 216 182 283c65 72 134 120 199 120c92 0 73 -89 23 -218l-10 -26c21 15 74 47 142 47c97 0 138 -58 138 -125c0 -90 -90 -200 -225 -200c-115 0 -146 80 -101 195l43 110c48 124 66 207 -11 207
c-61 0 -128 -48 -189 -116c-80 -89 -181 -250 -232 -384zM440 185c-40 -104 -23 -185 88 -185c125 0 212 105 212 190c0 62 -38 115 -128 115c-66 0 -124 -36 -146 -52z" />
    <glyph glyph-name="uni0472" unicode="&#x472;" horiz-adv-x="873" 
d="M371 -10c-154 0 -286 94 -286 276c0 227 209 502 497 502c154 0 286 -94 286 -276c0 -227 -209 -502 -497 -502zM582 758c-230 0 -413 -186 -466 -380c313 110 509 -70 720 -1c11 38 17 77 17 115c0 176 -126 266 -271 266zM371 0c225 0 405 178 463 368
c-217 -73 -408 108 -721 0c-8 -34 -13 -68 -13 -102c0 -176 126 -266 271 -266z" />
    <glyph glyph-name="uni0473" unicode="&#x473;" horiz-adv-x="571" 
d="M215 -10c-98 0 -169 64 -169 172c0 178 151 350 311 350c98 0 169 -64 169 -172c0 -178 -151 -350 -311 -350zM355 502c-120 0 -245 -111 -283 -253c189 78 265 -77 427 1c8 29 12 59 12 89c0 108 -69 163 -156 163zM217 0c118 0 239 106 280 243
c-161 -82 -239 72 -427 -2c-6 -25 -9 -51 -9 -78c0 -108 68 -163 156 -163z" />
    <glyph glyph-name="uni0474" unicode="&#x474;" horiz-adv-x="718" 
d="M88 -15h-15l229 749c3 11 -7 15 -27 16l-60 2l2 6h197l-2 -6l-60 -2c-22 -1 -34 -5 -37 -16l-223 -729l623 577c140 130 186 184 208 184c6 0 9 -2 9 -6c0 -13 -38 -39 -84 -66c-76 -71 -260 -243 -760 -709z" />
    <glyph glyph-name="uni0475" unicode="&#x475;" horiz-adv-x="573" 
d="M466 369c109 139 140 143 150 143c4 0 7 -2 7 -5c0 -11 -24 -26 -61 -46c-23 -22 -52 -54 -88 -101l-290 -370h-7l-26 498l-76 8l2 6h86l25 -488z" />
    <glyph glyph-name="uni0490" unicode="&#x490;" horiz-adv-x="624" 
d="M745 747h-424l-221 -723c-3 -11 6 -16 27 -16l110 -2l-2 -6h-247l2 6l60 2c22 1 34 5 37 16l217 710c4 11 -6 15 -27 16l-59 2l2 6h501c10 0 16 3 19 12l57 144h7z" />
    <glyph glyph-name="uni0491" unicode="&#x491;" horiz-adv-x="444" 
d="M470 492h-239l-187 -492h-12l182 478c4 11 -6 15 -26 16l-49 2l2 6h300c12 0 20 2 25 13l59 124h7z" />
    <glyph glyph-name="uni0492" unicode="&#x492;" horiz-adv-x="674" 
d="M-12 0l2 6l60 2c22 1 34 5 37 16l113 369h-93l4 11h92l101 330c3 11 -6 15 -27 16l-59 2l2 6h549l-17 -147h-7l5 124c0 9 -3 12 -13 12h-416l-105 -343h239l-4 -11h-238l-113 -369c-3 -11 6 -16 27 -16l110 -2l-2 -6h-247z" />
    <glyph glyph-name="uni0493" unicode="&#x493;" horiz-adv-x="474" 
d="M171 -10c-93 0 -145 41 -145 106c0 101 86 129 201 158h-179l4 11h219l16 4c124 31 175 65 175 147c0 48 -33 86 -110 86c-22 0 -55 -2 -87 -11c-28 -8 -53 -21 -66 -41l-64 -109h-7l66 127c50 32 107 44 158 44c89 0 125 -43 125 -95c0 -83 -58 -123 -165 -152h173
l-4 -11h-214l-29 -7c-109 -26 -197 -55 -197 -148c0 -64 51 -99 131 -99c30 0 64 4 93 11c35 10 64 24 74 43l62 119h7l-62 -137c-50 -31 -114 -46 -175 -46z" />
    <glyph glyph-name="uni0496" unicode="&#x496;" horiz-adv-x="1073" 
d="M-27 0h-23l611 394l-261 332c-17 22 -28 23 -63 24l-52 2l2 6h212l-2 -6l-50 -2c-38 -2 -47 -3 -34 -19l265 -341l105 344c4 11 -6 15 -27 16l-59 2l2 6h197l-2 -6l-61 -2c-21 -1 -33 -5 -37 -16l-217 -710c-3 -11 7 -15 27 -16l60 -2l-2 -6h-197l2 6l60 2
c22 1 34 5 37 16l112 366zM958 0l-367 390l478 343c16 12 9 16 -27 17l-48 2l2 6h212l-2 -6l-54 -2c-32 -1 -44 -2 -71 -21l-471 -339h-1l357 -379h63l-43 -167h-7l31 144c2 9 -2 12 -12 12h-40z" />
    <glyph glyph-name="uni0497" unicode="&#x497;" horiz-adv-x="961" 
d="M381 2l-15 -5l94 249l-164 -9c-48 -131 -148 -247 -234 -247c-58 0 -82 44 -82 101c0 19 5 31 19 29c-14 -81 15 -120 66 -120c104 0 245 208 245 387c0 78 -30 115 -66 115c-66 0 -123 -50 -181 -161l-8 4c57 112 119 167 189 167c47 0 81 -45 81 -125
c0 -45 -9 -93 -26 -140l165 9l92 244l15 5l-94 -249l164 9c48 131 148 247 234 247c58 0 82 -44 82 -101c0 -19 -5 -31 -19 -29c14 81 -15 120 -66 120c-104 0 -245 -208 -245 -387c0 -78 30 -115 66 -115c66 0 123 50 181 161l8 -4c-13 -25 -25 -46 -38 -65
c-27 -56 -28 -96 -28 -175c0 -67 -24 -98 -82 -108v12c50 7 72 36 72 95c0 66 2 106 18 149c-41 -50 -84 -75 -131 -75s-81 45 -81 125c0 45 9 93 26 140l-165 -9z" />
    <glyph glyph-name="uni049A" unicode="&#x49a;" horiz-adv-x="764" 
d="M-12 0l2 6l60 2c22 1 34 5 37 16l217 710c3 11 -6 15 -27 16l-59 2l2 6h197l-2 -6l-61 -2c-21 -1 -34 -5 -37 -16l-104 -342l576 345c14 9 6 11 -32 13l-48 2l2 6h216l-2 -6l-54 -2c-33 -1 -45 -4 -68 -18l-572 -341l433 -380h66l-43 -167h-7l31 144c2 9 -2 12 -12 12
h-40l-447 390l-112 -366c-3 -11 7 -15 27 -16l60 -2l-2 -6h-197z" />
    <glyph glyph-name="uni049B" unicode="&#x49b;" horiz-adv-x="566" 
d="M37 2l-15 -5l188 490l-89 9l3 6h104l-95 -248l198 154c75 58 121 104 161 104c48 0 65 -40 65 -70c0 -14 -7 -20 -16 -20c0 43 -8 80 -49 80c-35 0 -80 -45 -156 -104l-189 -146l187 -217c38 -44 52 -51 75 -51c24 0 49 11 73 99l9 -2c-1 -6 -3 -11 -4 -16
c-12 -44 -21 -83 -21 -148c0 -67 -24 -98 -82 -108v12c50 7 72 36 72 95c0 40 4 70 11 98c-18 -31 -38 -40 -59 -40c-29 0 -47 11 -83 53l-193 224z" />
    <glyph glyph-name="uni04A2" unicode="&#x4a2;" horiz-adv-x="881" 
d="M646 11h104l-43 -167h-7l31 144c2 9 -2 12 -12 12h-181l2 6l60 2c21 1 34 5 37 16l113 369h-537l-113 -369c-3 -11 6 -15 27 -16l60 -2l-2 -6h-197l2 6l60 2c21 1 34 5 37 16l217 710c3 11 -6 15 -27 16l-59 2l1 6h197l-1 -6l-61 -2c-21 -1 -34 -5 -37 -16l-101 -330h537
l101 330c3 11 -6 15 -27 16l-59 2l1 6h197l-1 -6l-61 -2c-21 -1 -34 -5 -37 -16z" />
    <glyph glyph-name="uni04A3" unicode="&#x4a3;" horiz-adv-x="590" 
d="M37 2l-15 -5l188 490l-89 9l3 6h104l-94 -247l316 20l87 227h13l-172 -447c-19 -48 -8 -55 11 -55c43 0 111 34 166 127l7 -4l-15 -24c-42 -68 -46 -100 -46 -182c0 -67 -24 -98 -82 -108v12c50 7 72 36 72 95c0 66 4 101 27 147c-45 -51 -94 -73 -130 -73
c-34 0 -41 17 -22 66l80 209l-316 -20z" />
    <glyph glyph-name="uni04AE" unicode="&#x4ae;" horiz-adv-x="773" 
d="M212 0l2 6l60 2c22 1 34 5 37 16l98 319l-171 391c-4 9 -10 15 -35 16l-59 2l2 6h198l-2 -6l-61 -2c-26 -1 -33 -7 -29 -16l166 -380l396 380c11 11 -1 15 -27 16l-59 2l2 6h200l-2 -6l-61 -2c-21 -1 -28 -7 -37 -16l-408 -391l-98 -319c-3 -11 7 -15 27 -16l60 -2l-2 -6
h-197z" />
    <glyph glyph-name="uni04AF" unicode="&#x4af;" horiz-adv-x="523" 
d="M189 0l-90 -248h-12l90 248l-11 488l-95 8l3 6h104l12 -482l346 419c48 58 59 73 68 73c5 0 8 -3 8 -7s-3 -9 -9 -14c-13 -10 -31 -28 -51 -52z" />
    <glyph glyph-name="uni04B0" unicode="&#x4b0;" horiz-adv-x="773" 
d="M212 0l2 6l60 2c22 1 34 5 37 16l95 309h-222l4 11h221l-171 390c-4 9 -10 15 -35 16l-59 2l2 6h198l-2 -6l-61 -2c-26 -1 -33 -7 -29 -16l166 -380l396 380c11 11 -1 15 -27 16l-59 2l2 6h200l-2 -6l-61 -2c-21 -1 -28 -7 -37 -16l-407 -390h221l-4 -11h-221l-95 -309
c-3 -11 7 -15 27 -16l60 -2l-2 -6h-197z" />
    <glyph glyph-name="uni04B1" unicode="&#x4b1;" horiz-adv-x="523" 
d="M-5 -10l4 10h178l-11 488l-95 8l3 6h104l12 -482l346 419c48 58 59 73 68 73c5 0 8 -3 8 -7s-3 -9 -9 -14c-13 -10 -31 -28 -51 -52l-363 -439h176l-4 -10h-176l-86 -238h-12l86 238h-178z" />
    <glyph glyph-name="uni04B2" unicode="&#x4b2;" horiz-adv-x="846" 
d="M-96 0l3 6l57 2c20 1 38 7 48 16l467 380l-111 330c-3 10 -15 15 -34 16l-56 2l3 6h196l-3 -6l-61 -3c-26 -1 -36 -5 -32 -16l108 -321l394 321c11 9 8 15 -18 16l-59 3l3 6h201l-3 -6l-57 -2c-20 -1 -38 -8 -48 -16l-409 -333l130 -390h89l-43 -167h-7l31 144
c2 9 -2 12 -12 12h-171l3 6l61 3c26 1 36 5 32 16l-123 368l-452 -368c-11 -9 -8 -15 18 -16l59 -3l-3 -6h-201z" />
    <glyph glyph-name="uni04B3" unicode="&#x4b3;" horiz-adv-x="601" 
d="M38 -10c-48 0 -65 40 -65 70c0 14 7 20 16 20c0 -43 8 -80 49 -80c87 0 174 120 258 256l-30 180c-7 44 -16 66 -40 66c-32 0 -87 -42 -135 -121l-10 4c52 86 113 127 147 127c28 0 40 -16 50 -76l28 -167c88 140 166 243 256 243c48 0 65 -40 65 -70
c0 -14 -7 -20 -16 -20c0 43 -8 80 -49 80c-85 0 -170 -115 -253 -248l31 -188c7 -44 16 -66 40 -66c32 0 87 42 135 121l10 -4c-4 -6 -7 -12 -11 -17c-42 -68 -46 -101 -46 -183c0 -67 -24 -98 -82 -108v12c50 7 72 36 72 95c0 64 4 99 25 143c-40 -46 -80 -69 -105 -69
c-28 0 -40 16 -50 76l-29 174c-90 -143 -170 -250 -261 -250z" />
    <glyph glyph-name="uni04B6" unicode="&#x4b6;" horiz-adv-x="799" 
d="M425 0l2 6l90 2c21 0 34 5 37 16l107 349s-123 -40 -225 -40c-171 0 -256 65 -195 268l40 133c4 11 -6 15 -27 16l-59 2l2 6h197l-2 -6l-61 -2c-21 -1 -33 -5 -37 -16l-41 -135c-62 -204 27 -255 184 -255c105 0 227 40 227 40l107 350c4 11 -6 15 -27 16l-59 2l2 6h197
l-2 -6l-61 -2c-21 -1 -34 -5 -37 -16l-221 -723h104l-43 -167h-7l31 144c2 9 -2 12 -12 12h-211z" />
    <glyph glyph-name="uni04B7" unicode="&#x4b7;" horiz-adv-x="575" 
d="M227 502l-37 -96c-46 -120 -69 -207 8 -207c108 0 267 154 324 303h13l-172 -447c-19 -48 -8 -55 11 -55c43 0 111 34 166 127l7 -4l-15 -24c-42 -68 -46 -100 -46 -182c0 -67 -24 -98 -82 -108v12c50 7 72 36 72 95c0 66 4 101 27 147c-45 -51 -94 -73 -130 -73
c-34 0 -41 17 -22 66l134 348h-1c-76 -119 -193 -215 -287 -215c-92 0 -69 91 -20 218l31 81l-88 8l3 6h104z" />
    <glyph glyph-name="uni04BA" unicode="&#x4ba;" horiz-adv-x="792" 
d="M631 157l-40 -133c-4 -11 6 -15 27 -16l59 -2l-2 -6h-197l2 6l61 2c21 1 33 5 37 16l41 135c62 204 -27 255 -184 255c-105 0 -227 -40 -227 -40l-107 -350c-4 -11 6 -15 27 -16l59 -2l-2 -6h-197l2 6l61 2c21 1 33 5 37 16l217 710c3 11 -7 15 -27 16l-60 2l2 6h227
l-2 -6l-90 -2c-21 0 -34 -5 -37 -16l-107 -349s123 40 225 40c171 0 256 -65 195 -268z" />
    <glyph glyph-name="uni04BB" unicode="&#x4bb;" horiz-adv-x="599" 
d="M70 109h1c48 97 125 215 186 283c65 72 134 120 199 120c92 0 77 -91 23 -218l-102 -239c-20 -48 -6 -55 13 -55c43 0 111 34 166 127l7 -4c-55 -93 -126 -133 -174 -133c-34 0 -46 17 -25 66l102 239c52 122 66 207 -11 207c-61 0 -128 -48 -189 -116
c-80 -89 -181 -250 -232 -384l-15 -5l257 746l-79 9l3 6h94l-121 -350z" />
    <glyph glyph-name="uni04C0" unicode="&#x4c0;" horiz-adv-x="324" 
d="M-12 0l2 6l60 2c22 1 34 5 37 16l217 710c3 11 -6 15 -27 16l-59 2l2 6h197l-2 -6l-61 -2c-21 -1 -34 -5 -37 -16l-217 -710c-3 -11 7 -15 27 -16l60 -2l-2 -6h-197z" />
    <glyph glyph-name="uni04CF" unicode="&#x4cf;" horiz-adv-x="302" 
d="M61 24l258 710c4 11 -5 15 -26 16l-49 2l2 6h176l-2 -6l-51 -2c-21 -1 -34 -5 -38 -16l-258 -710c-4 -11 5 -15 26 -16l49 -2l-2 -6h-176l2 6l51 2c21 1 34 5 38 16z" />
    <glyph glyph-name="uni04D8" unicode="&#x4d8;" horiz-adv-x="808" 
d="M336 -10c-155 0 -266 94 -266 278h661c37 72 57 150 57 224c0 176 -121 265 -258 266c-185 1 -334 -118 -405 -287h-9c69 172 221 298 414 297c146 -1 273 -94 273 -276c0 -224 -190 -502 -467 -502zM336 0c172 0 313 115 389 257h-640c5 -171 108 -257 251 -257z" />
    <glyph glyph-name="uni04D9" unicode="&#x4d9;" horiz-adv-x="497" 
d="M321 512c78 0 131 -52 131 -145c0 -186 -175 -377 -343 -377c-71 0 -101 32 -101 81c0 46 37 105 115 122h266c30 53 48 113 48 174c0 92 -53 135 -116 135c-83 0 -172 -45 -232 -165l-7 3c59 121 151 172 239 172zM112 0c99 0 208 77 271 183h-242
c-55 0 -119 -52 -119 -112c0 -43 21 -71 90 -71z" />
    <glyph glyph-name="uni04E2" unicode="&#x4e2;" horiz-adv-x="864" 
d="M464 897l3 9h274l-3 -9h-274zM-12 0l2 6l60 2c22 1 34 5 37 16l217 710c4 11 -6 15 -27 16l-59 2l2 6h197l-2 -6l-61 -2c-21 -1 -34 -5 -37 -16l-200 -656l719 629l8 27c4 11 -6 15 -27 16l-59 2l2 6h197l-2 -6l-61 -2c-21 -1 -33 -5 -37 -16l-217 -710
c-3 -11 7 -15 27 -16l60 -2l-2 -6h-197l2 6l60 2c22 1 34 5 37 16l203 664l-719 -629l-11 -35c-3 -11 7 -15 27 -16l60 -2l-2 -6h-197z" />
    <glyph glyph-name="uni04E3" unicode="&#x4e3;" horiz-adv-x="595" 
d="M259 667l4 9h281l-3 -9h-282zM227 502l-115 -295c-47 -122 -69 -207 8 -207c61 0 128 48 189 116c80 89 182 252 233 386h13l-172 -447c-19 -48 -8 -55 11 -55c43 0 111 34 166 127l7 -4c-55 -93 -126 -133 -174 -133c-34 0 -41 17 -22 66l130 337h-1
c-47 -104 -122 -216 -182 -283c-65 -72 -134 -120 -199 -120c-92 0 -69 91 -20 218l109 280l-88 8l3 6h104z" />
    <glyph glyph-name="uni04E8" unicode="&#x4e8;" horiz-adv-x="873" 
d="M371 -10c-154 0 -286 94 -286 276c0 227 209 502 497 502c154 0 286 -94 286 -276c0 -227 -209 -502 -497 -502zM582 758c-219 0 -396 -170 -458 -354h719c7 30 10 59 10 88c0 176 -126 266 -271 266zM371 0c235 0 421 194 470 393h-721c-13 -42 -20 -85 -20 -127
c0 -176 126 -266 271 -266z" />
    <glyph glyph-name="uni04E9" unicode="&#x4e9;" horiz-adv-x="571" 
d="M215 -10c-98 0 -169 64 -169 172c0 178 151 350 311 350c98 0 169 -64 169 -172c0 -178 -151 -350 -311 -350zM355 502c-116 0 -236 -103 -278 -237h426c5 24 8 49 8 74c0 108 -69 163 -156 163zM217 0c121 0 246 112 283 255h-426c-8 -30 -13 -60 -13 -92
c0 -108 68 -163 156 -163z" />
    <glyph glyph-name="uni04EE" unicode="&#x4ee;" horiz-adv-x="766" 
d="M417 897l3 9h274l-3 -9h-274zM338 132c-76 -93 -125 -142 -165 -142c-7 0 -9 4 -9 8c0 13 30 21 62 30c41 37 70 72 145 161l-144 545c-2 10 -6 15 -27 16l-59 2l2 6h198l-2 -6l-61 -2c-27 -1 -41 -6 -38 -16l140 -532l439 532c9 10 1 15 -25 16l-61 2l2 6h197l-2 -6
l-61 -2c-20 -1 -27 -6 -35 -16z" />
    <glyph glyph-name="uni04EF" unicode="&#x4ef;" horiz-adv-x="523" 
d="M250 667l4 9h281l-3 -9h-282zM-113 -258c-38 0 -68 22 -68 37c0 7 5 12 12 13c11 -28 29 -40 59 -40c56 0 115 46 224 178l68 82l-16 476l-95 8l3 6h104l17 -475l341 412c48 58 59 73 68 73c5 0 8 -3 8 -7s-3 -9 -9 -14c-13 -10 -31 -28 -51 -52l-426 -513
c-117 -141 -179 -184 -239 -184z" />
    <glyph glyph-name="Wgrave" unicode="&#x1e80;" horiz-adv-x="1234" 
d="M901 833h-11l-123 138l1 1h15zM73 -15l229 749c3 11 -7 15 -27 16l-60 2l2 6h197l-2 -6l-60 -2c-22 -1 -34 -5 -37 -16l-223 -730l593 544l64 210h135l-2 -6l-90 -2c-22 0 -34 -5 -37 -16l-223 -729l790 729c10 9 13 15 -14 16l-60 2l2 6h198l-2 -6l-60 -2
c-22 -1 -38 -7 -48 -16l-810 -749h-15l165 541l-590 -541h-15z" />
    <glyph glyph-name="wgrave" unicode="&#x1e81;" horiz-adv-x="868" 
d="M576 579h-9l-53 178v1h14zM198 -10c-82 0 -126 51 -126 129c0 98 69 227 297 373h-262l-55 -102h-6l48 112h308c-188 -116 -316 -248 -316 -382c0 -77 43 -118 114 -118c62 0 128 27 187 70c-17 35 -24 79 -24 126c0 151 112 314 206 314c32 0 58 -22 58 -76
c0 -37 -16 -107 -71 -197c-37 -62 -92 -123 -155 -170c22 -41 60 -67 115 -67c150 0 289 177 300 393l-13 107c1 7 5 10 10 10c14 0 15 -20 15 -91c0 -230 -148 -431 -313 -431c-60 0 -100 28 -123 72c-62 -43 -130 -72 -194 -72zM374 198c0 -46 7 -87 22 -120
c60 45 113 104 150 164c52 84 69 157 69 193c0 46 -20 65 -47 65c-83 0 -194 -146 -194 -302z" />
    <glyph glyph-name="Wacute" unicode="&#x1e82;" horiz-adv-x="1234" 
d="M792 833l211 139h20l-1 -1l-217 -138h-13zM73 -15l229 749c3 11 -7 15 -27 16l-60 2l2 6h197l-2 -6l-60 -2c-22 -1 -34 -5 -37 -16l-223 -730l593 544l64 210h135l-2 -6l-90 -2c-22 0 -34 -5 -37 -16l-223 -729l790 729c10 9 13 15 -14 16l-60 2l2 6h198l-2 -6l-60 -2
c-22 -1 -38 -7 -48 -16l-810 -749h-15l165 541l-590 -541h-15z" />
    <glyph glyph-name="wacute" unicode="&#x1e83;" horiz-adv-x="868" 
d="M555 579l170 179h16v-1l-175 -178h-11zM198 -10c-82 0 -126 51 -126 129c0 98 69 227 297 373h-262l-55 -102h-6l48 112h308c-188 -116 -316 -248 -316 -382c0 -77 43 -118 114 -118c62 0 128 27 187 70c-17 35 -24 79 -24 126c0 151 112 314 206 314c32 0 58 -22 58 -76
c0 -37 -16 -107 -71 -197c-37 -62 -92 -123 -155 -170c22 -41 60 -67 115 -67c150 0 289 177 300 393l-13 107c1 7 5 10 10 10c14 0 15 -20 15 -91c0 -230 -148 -431 -313 -431c-60 0 -100 28 -123 72c-62 -43 -130 -72 -194 -72zM374 198c0 -46 7 -87 22 -120
c60 45 113 104 150 164c52 84 69 157 69 193c0 46 -20 65 -47 65c-83 0 -194 -146 -194 -302z" />
    <glyph glyph-name="Wdieresis" unicode="&#x1e84;" horiz-adv-x="1234" 
d="M972 935c0 10 9 19 19 19s19 -9 19 -19s-9 -19 -19 -19s-19 9 -19 19zM732 935c0 10 9 19 19 19s19 -9 19 -19s-9 -19 -19 -19s-19 9 -19 19zM73 -15l229 749c3 11 -7 15 -27 16l-60 2l2 6h197l-2 -6l-60 -2c-22 -1 -34 -5 -37 -16l-223 -730l593 544l64 210h135l-2 -6
l-90 -2c-22 0 -34 -5 -37 -16l-223 -729l790 729c10 9 13 15 -14 16l-60 2l2 6h198l-2 -6l-60 -2c-22 -1 -38 -7 -48 -16l-810 -749h-15l165 541l-590 -541h-15z" />
    <glyph glyph-name="wdieresis" unicode="&#x1e85;" horiz-adv-x="868" 
d="M760 690c-10 0 -19 9 -19 19s9 19 19 19s19 -9 19 -19s-9 -19 -19 -19zM520 690c-10 0 -19 9 -19 19s9 19 19 19s19 -9 19 -19s-9 -19 -19 -19zM198 -10c-82 0 -126 51 -126 129c0 98 69 227 297 373h-262l-55 -102h-6l48 112h308c-188 -116 -316 -248 -316 -382
c0 -77 43 -118 114 -118c62 0 128 27 187 70c-17 35 -24 79 -24 126c0 151 112 314 206 314c32 0 58 -22 58 -76c0 -37 -16 -107 -71 -197c-37 -62 -92 -123 -155 -170c22 -41 60 -67 115 -67c150 0 289 177 300 393l-13 107c1 7 5 10 10 10c14 0 15 -20 15 -91
c0 -230 -148 -431 -313 -431c-60 0 -100 28 -123 72c-62 -43 -130 -72 -194 -72zM374 198c0 -46 7 -87 22 -120c60 45 113 104 150 164c52 84 69 157 69 193c0 46 -20 65 -47 65c-83 0 -194 -146 -194 -302z" />
    <glyph glyph-name="uni1ECA" unicode="&#x1eca;" horiz-adv-x="324" 
d="M-12 0l2 6l60 2c22 1 34 5 37 16l217 710c3 11 -6 15 -27 16l-59 2l2 6h197l-2 -6l-61 -2c-21 -1 -34 -5 -37 -16l-217 -710c-3 -11 7 -15 27 -16l60 -2l-2 -6h-197zM28 -189c-10 0 -19 9 -19 19s9 19 19 19s19 -9 19 -19s-9 -19 -19 -19z" />
    <glyph glyph-name="uni1ECB" unicode="&#x1ecb;" horiz-adv-x="272" 
d="M280 739c0 10 9 19 19 19s19 -9 19 -19s-9 -19 -19 -19s-19 9 -19 19zM68 -10c-34 0 -41 17 -22 66l166 432l-89 8l3 6h104l-172 -447c-19 -48 -8 -55 11 -55c43 0 111 34 166 127l7 -4c-55 -93 -126 -133 -174 -133zM-28 -190c-10 0 -19 9 -19 19s9 19 19 19
s19 -9 19 -19s-9 -19 -19 -19z" />
    <glyph glyph-name="uni1ECC" unicode="&#x1ecc;" horiz-adv-x="873" 
d="M371 -10c-154 0 -286 94 -286 276c0 227 209 502 497 502c154 0 286 -94 286 -276c0 -227 -209 -502 -497 -502zM371 0c274 0 482 265 482 492c0 176 -126 266 -271 266c-274 0 -482 -265 -482 -492c0 -176 126 -266 271 -266zM311 -189c-10 0 -19 9 -19 19s9 19 19 19
s19 -9 19 -19s-9 -19 -19 -19z" />
    <glyph glyph-name="uni1ECD" unicode="&#x1ecd;" horiz-adv-x="571" 
d="M215 -10c-98 0 -169 64 -169 172c0 178 151 350 311 350c98 0 169 -64 169 -172c0 -178 -151 -350 -311 -350zM217 0c144 0 294 159 294 339c0 108 -69 163 -156 163c-144 0 -294 -159 -294 -339c0 -108 68 -163 156 -163zM130 -190c-10 0 -19 9 -19 19s9 19 19 19
s19 -9 19 -19s-9 -19 -19 -19z" />
    <glyph glyph-name="uni1EE4" unicode="&#x1ee4;" horiz-adv-x="862" 
d="M359 -10c-195 0 -264 104 -202 308l133 436c3 11 -6 15 -27 16l-59 2l2 6h197l-2 -6l-61 -2c-21 -1 -34 -5 -37 -16l-133 -436c-55 -180 -15 -298 189 -298s317 120 371 298l133 436c3 11 -6 15 -27 16l-59 2l2 6h197l-2 -6l-61 -2c-21 -1 -34 -5 -37 -16l-133 -436
c-62 -204 -186 -308 -384 -308zM296 -189c-10 0 -19 9 -19 19s9 19 19 19s19 -9 19 -19s-9 -19 -19 -19z" />
    <glyph glyph-name="uni1EE5" unicode="&#x1ee5;" horiz-adv-x="595" 
d="M227 502l-115 -295c-47 -122 -69 -207 8 -207c61 0 128 48 189 116c80 89 182 252 233 386h13l-172 -447c-19 -48 -8 -55 11 -55c43 0 111 34 166 127l7 -4c-55 -93 -126 -133 -174 -133c-34 0 -41 17 -22 66l130 337h-1c-47 -104 -122 -216 -182 -283
c-65 -72 -134 -120 -199 -120c-92 0 -69 91 -20 218l109 280l-88 8l3 6h104zM142 -190c-10 0 -19 9 -19 19s9 19 19 19s19 -9 19 -19s-9 -19 -19 -19z" />
    <glyph glyph-name="Ygrave" unicode="&#x1ef2;" horiz-adv-x="773" 
d="M614 833h-11l-123 138l1 1h15zM212 0l2 6l60 2c22 1 34 5 37 16l98 319l-171 391c-4 9 -10 15 -35 16l-59 2l2 6h198l-2 -6l-61 -2c-26 -1 -33 -7 -29 -16l166 -380l396 380c11 11 -1 15 -27 16l-59 2l2 6h200l-2 -6l-61 -2c-21 -1 -28 -7 -37 -16l-408 -391l-98 -319
c-3 -11 7 -15 27 -16l60 -2l-2 -6h-197z" />
    <glyph glyph-name="ygrave" unicode="&#x1ef3;" horiz-adv-x="523" 
d="M393 579h-9l-53 178v1h14zM-113 -258c-38 0 -68 22 -68 37c0 7 5 12 12 13c11 -28 29 -40 59 -40c56 0 115 46 224 178l68 82l-16 476l-95 8l3 6h104l17 -475l341 412c48 58 59 73 68 73c5 0 8 -3 8 -7s-3 -9 -9 -14c-13 -10 -31 -28 -51 -52l-426 -513
c-117 -141 -179 -184 -239 -184z" />
    <glyph glyph-name="uni2007" unicode="&#x2007;" horiz-adv-x="670" 
 />
    <glyph glyph-name="uni2008" unicode="&#x2008;" horiz-adv-x="173" 
 />
    <glyph glyph-name="uni2009" unicode="&#x2009;" horiz-adv-x="62" 
 />
    <glyph glyph-name="uni200B" unicode="&#x200b;" 
 />
    <glyph glyph-name="endash" unicode="&#x2013;" horiz-adv-x="580" 
d="M84 254l4 11h414l-4 -11h-414z" />
    <glyph glyph-name="emdash" unicode="&#x2014;" horiz-adv-x="827" 
d="M84 254l4 11h661l-4 -11h-661z" />
    <glyph glyph-name="quoteleft" unicode="&#x2018;" horiz-adv-x="223" 
d="M330 768l5 -8c-107 -80 -147 -141 -147 -177c0 -10 4 -18 10 -24c-2 -12 -11 -20 -20 -20s-17 5 -17 20c0 24 23 101 169 209z" />
    <glyph glyph-name="quoteright" unicode="&#x2019;" horiz-adv-x="230" 
d="M154 539l-5 8c107 80 147 141 147 177c0 10 -4 18 -10 24c2 12 11 20 20 20s17 -5 17 -20c0 -24 -23 -101 -169 -209z" />
    <glyph glyph-name="quotesinglbase" unicode="&#x201a;" horiz-adv-x="155" 
d="M-131 -200l-5 8c107 80 147 141 147 177c0 10 -4 18 -10 24c2 12 11 20 20 20s17 -5 17 -20c0 -24 -23 -101 -169 -209z" />
    <glyph glyph-name="quotedblleft" unicode="&#x201c;" horiz-adv-x="423" 
d="M330 768l5 -8c-107 -80 -147 -141 -147 -177c0 -10 4 -18 10 -24c-2 -12 -11 -20 -20 -20s-17 5 -17 20c0 24 23 101 169 209zM530 768l5 -8c-107 -80 -147 -141 -147 -177c0 -10 4 -18 10 -24c-2 -12 -11 -20 -20 -20s-17 5 -17 20c0 24 23 101 169 209z" />
    <glyph glyph-name="quotedblright" unicode="&#x201d;" horiz-adv-x="430" 
d="M154 539l-5 8c107 80 147 141 147 177c0 10 -4 18 -10 24c2 12 11 20 20 20s17 -5 17 -20c0 -24 -23 -101 -169 -209zM354 539l-5 8c107 80 147 141 147 177c0 10 -4 18 -10 24c2 12 11 20 20 20s17 -5 17 -20c0 -24 -23 -101 -169 -209z" />
    <glyph glyph-name="quotedblbase" unicode="&#x201e;" horiz-adv-x="355" 
d="M-131 -200l-5 8c107 80 147 141 147 177c0 10 -4 18 -10 24c2 12 11 20 20 20s17 -5 17 -20c0 -24 -23 -101 -169 -209zM69 -200l-5 8c107 80 147 141 147 177c0 10 -4 18 -10 24c2 12 11 20 20 20s17 -5 17 -20c0 -24 -23 -101 -169 -209z" />
    <glyph glyph-name="dagger" unicode="&#x2020;" horiz-adv-x="656" 
d="M162 -228l126 390c20 63 22 68 27 103c17 35 20 40 40 103l45 141h-153c-63 0 -68 0 -105 -7c-6 2 -11 5 -12 12c5 7 12 10 19 12c33 -7 38 -7 101 -7h154l45 141c21 63 22 68 27 103c4 7 10 13 18 16c6 -3 8 -9 8 -16c-19 -35 -20 -40 -41 -103l-45 -141h152
c63 0 68 0 105 7c7 -2 12 -5 13 -12c-5 -7 -12 -10 -20 -12c-33 7 -38 7 -101 7h-153l-45 -141c-20 -63 -23 -68 -26 -103c-19 -35 -21 -40 -41 -103l-126 -390h-12z" />
    <glyph glyph-name="daggerdbl" unicode="&#x2021;" horiz-adv-x="656" 
d="M-10 4c-6 2 -10 5 -11 12c4 7 11 10 19 12c34 -7 39 -7 102 -7h153l43 141c18 63 20 68 24 103c18 35 20 40 38 103l43 141h-153c-63 0 -68 0 -104 -7c-6 2 -11 5 -13 12c5 7 13 10 21 12c32 -7 37 -7 100 -7h153l43 141c20 63 21 68 26 103c3 7 9 13 17 16
c6 -3 8 -9 9 -16c-19 -35 -20 -40 -40 -103l-43 -141h153c63 0 68 0 106 7c6 -2 10 -5 11 -12c-4 -7 -11 -10 -19 -12c-34 7 -39 7 -102 7h-153l-43 -141c-18 -63 -20 -68 -24 -103c-18 -35 -20 -40 -38 -103l-43 -141h153c63 0 68 0 104 7c6 -2 11 -5 13 -12
c-5 -7 -13 -10 -21 -12c-32 7 -37 7 -100 7h-153l-43 -141c-20 -63 -21 -68 -26 -103c-3 -7 -9 -13 -17 -16c-6 3 -8 9 -9 16c19 35 20 40 40 103l43 141h-153c-63 0 -68 0 -106 -7z" />
    <glyph glyph-name="bullet" unicode="&#x2022;" horiz-adv-x="440" 
d="M255 258c-69 0 -126 57 -126 127c0 69 57 126 126 126c70 0 127 -57 127 -126c0 -70 -57 -127 -127 -127z" />
    <glyph glyph-name="ellipsis" unicode="&#x2026;" horiz-adv-x="651" 
d="M28 -10c-11 0 -19 9 -19 19c0 11 8 20 19 20c12 0 20 -9 20 -20c0 -10 -8 -19 -20 -19zM267 -10c-11 0 -19 9 -19 19c0 11 8 20 19 20c12 0 20 -9 20 -20c0 -10 -8 -19 -20 -19zM506 -10c-11 0 -19 9 -19 19c0 11 8 20 19 20c12 0 20 -9 20 -20c0 -10 -8 -19 -20 -19z
" />
    <glyph glyph-name="perthousand" unicode="&#x2030;" horiz-adv-x="1317" 
d="M239 331c-72 0 -107 56 -107 131c0 118 93 306 216 306c71 0 107 -56 107 -130c0 -118 -93 -307 -216 -307zM240 340c116 0 202 190 202 301c0 74 -32 118 -95 118c-116 0 -202 -190 -202 -301c0 -71 32 -118 95 -118zM81 0l828 758h17l-828 -758h-17zM669 -10
c-72 0 -107 56 -107 131c0 118 93 306 216 306c71 0 107 -56 107 -130c0 -118 -93 -307 -216 -307zM1059 -10c-72 0 -107 56 -107 131c0 118 93 306 216 306c71 0 107 -56 107 -130c0 -118 -93 -307 -216 -307zM670 -1c116 0 202 190 202 301c0 74 -32 118 -95 118
c-116 0 -202 -190 -202 -301c0 -71 32 -118 95 -118zM1060 -1c116 0 202 190 202 301c0 74 -32 118 -95 118c-116 0 -202 -190 -202 -301c0 -71 32 -118 95 -118z" />
    <glyph glyph-name="guilsinglleft" unicode="&#x2039;" horiz-adv-x="347" 
d="M74 256l136 -205l-10 -7l-142 214l290 214l6 -9z" />
    <glyph glyph-name="guilsinglright" unicode="&#x203a;" horiz-adv-x="348" 
d="M280 260l-136 205l10 7l142 -214l-290 -214l-6 9z" />
    <glyph glyph-name="fraction" unicode="&#x2044;" horiz-adv-x="200" 
d="M-280 0l828 758h17l-828 -758h-17z" />
    <glyph glyph-name="uni2060" unicode="&#x2060;" 
 />
    <glyph glyph-name="zero.superior" unicode="&#x2070;" horiz-adv-x="394" 
d="M253 391c-72 0 -107 56 -107 131c0 118 93 306 216 306c71 0 107 -56 107 -130c0 -118 -93 -307 -216 -307zM254 400c116 0 202 190 202 301c0 74 -32 118 -95 118c-116 0 -202 -190 -202 -301c0 -71 32 -118 95 -118z" />
    <glyph glyph-name="four.superior" unicode="&#x2074;" horiz-adv-x="393" 
d="M310 401l41 120h-248l354 299h9l-99 -289h88l-4 -10h-88l-41 -120h-12zM128 531h227l92 269z" />
    <glyph glyph-name="five.superior" unicode="&#x2075;" horiz-adv-x="342" 
d="M227 391c-95 0 -128 71 -122 95c1 6 7 9 14 7c-6 -52 42 -93 109 -93c74 0 136 50 136 124c0 63 -53 118 -165 152l86 142h178l-7 -11h-167l-75 -125c110 -34 161 -90 161 -158c0 -76 -66 -133 -148 -133z" />
    <glyph glyph-name="six.superior" unicode="&#x2076;" horiz-adv-x="369" 
d="M248 391c-76 0 -113 59 -113 124c0 132 155 287 372 315l1 -5c-148 -21 -282 -109 -336 -215c33 27 75 41 114 41c66 0 113 -46 113 -113c0 -74 -59 -147 -151 -147zM148 515c0 -64 33 -115 100 -115c85 0 139 67 139 138c0 61 -41 104 -105 104c-44 0 -87 -16 -114 -40
c-13 -28 -20 -58 -20 -87z" />
    <glyph glyph-name="seven.superior" unicode="&#x2077;" horiz-adv-x="345" 
d="M239 818h268l-264 -282c-53 -57 -71 -71 -113 -127c-6 -8 -9 -12 -16 -13l-7 -1c-7 -1 1 10 7 17c124 133 237 253 374 395h-232c-11 0 -15 -2 -21 -10l-54 -71h-5z" />
    <glyph glyph-name="eight.superior" unicode="&#x2078;" horiz-adv-x="361" 
d="M244 391c-70 0 -121 45 -121 106c0 71 63 124 169 134c-30 29 -53 62 -53 103c0 53 46 94 113 94c61 0 100 -34 100 -84c0 -65 -80 -106 -141 -114l9 -9c38 -36 66 -73 66 -119c0 -56 -55 -111 -142 -111zM305 635l2 -2c67 10 134 52 134 111c0 48 -37 75 -90 75
c-59 0 -102 -32 -102 -85c0 -36 21 -67 56 -99zM134 498c0 -63 52 -98 110 -98c80 0 131 47 131 102c0 45 -28 80 -62 111l-16 15c-104 -10 -163 -63 -163 -130z" />
    <glyph glyph-name="nine.superior" unicode="&#x2079;" horiz-adv-x="359" 
d="M109 389l-1 6c156 22 262 117 303 217c-33 -28 -79 -43 -119 -43c-67 0 -114 46 -114 113c0 75 61 146 149 146c74 0 115 -55 115 -128c0 -122 -117 -282 -333 -311zM190 682c0 -61 42 -104 106 -104c44 0 89 16 117 41c11 27 16 55 16 82c0 72 -37 118 -102 118
c-79 0 -137 -64 -137 -137z" />
    <glyph glyph-name="zero.inferior" unicode="&#x2080;" horiz-adv-x="394" 
d="M112 -70c-72 0 -107 56 -107 131c0 118 93 306 216 306c71 0 107 -56 107 -130c0 -118 -93 -307 -216 -307zM113 -61c116 0 202 190 202 301c0 74 -32 118 -95 118c-116 0 -202 -190 -202 -301c0 -71 32 -118 95 -118z" />
    <glyph glyph-name="one.inferior" unicode="&#x2081;" horiz-adv-x="220" 
d="M-40 -60l2 6l41 2c14 1 21 3 23 10l136 393l-115 -43l3 10l128 48l-140 -408c-2 -7 2 -11 14 -11l39 -1l-2 -6h-129z" />
    <glyph glyph-name="two.inferior" unicode="&#x2082;" horiz-adv-x="355" 
d="M-76 -60l1 2c258 176 365 252 365 339c0 49 -33 77 -86 77c-58 0 -114 -33 -126 -111h-6c11 79 67 120 134 120c62 0 96 -34 96 -85c0 -77 -72 -143 -309 -300l-48 -32h227c10 0 14 2 20 10l54 72h6l-63 -92h-265z" />
    <glyph glyph-name="three.inferior" unicode="&#x2083;" horiz-adv-x="344" 
d="M241 79c0 -76 -62 -149 -160 -149c-93 0 -120 71 -115 95c2 6 8 9 15 7c-6 -52 34 -93 100 -93c90 0 147 64 147 140c0 59 -42 99 -77 99c-17 0 -31 -3 -42 -5v6l14 3c96 16 145 64 145 113c0 38 -29 63 -80 63c-48 0 -97 -25 -113 -86h-6c15 67 69 95 121 95
c53 0 90 -27 90 -71c0 -53 -57 -95 -111 -109v-1c36 -11 72 -49 72 -107z" />
    <glyph glyph-name="four.inferior" unicode="&#x2084;" horiz-adv-x="393" 
d="M171 -60l41 120h-248l354 299h9l-99 -289h88l-4 -10h-88l-41 -120h-12zM-11 70h227l92 269z" />
    <glyph glyph-name="five.inferior" unicode="&#x2085;" horiz-adv-x="342" 
d="M86 -70c-95 0 -128 71 -122 95c1 6 7 9 14 7c-6 -52 42 -93 109 -93c74 0 136 50 136 124c0 63 -53 118 -165 152l86 142h178l-7 -11h-167l-75 -125c110 -34 161 -90 161 -158c0 -76 -66 -133 -148 -133z" />
    <glyph glyph-name="six.inferior" unicode="&#x2086;" horiz-adv-x="369" 
d="M106 -70c-76 0 -113 59 -113 124c0 132 155 287 372 315l1 -5c-148 -21 -282 -109 -336 -215c33 27 75 41 114 41c66 0 113 -46 113 -113c0 -74 -59 -147 -151 -147zM6 54c0 -64 33 -115 100 -115c85 0 139 67 139 138c0 61 -41 104 -105 104c-44 0 -87 -16 -114 -40
c-13 -28 -20 -58 -20 -87z" />
    <glyph glyph-name="seven.inferior" unicode="&#x2087;" horiz-adv-x="345" 
d="M99 357h268l-264 -282c-53 -57 -71 -71 -113 -127c-6 -8 -9 -12 -16 -13l-7 -1c-7 -1 1 10 7 17c124 133 237 253 374 395h-232c-11 0 -15 -2 -21 -10l-54 -71h-5z" />
    <glyph glyph-name="eight.inferior" unicode="&#x2088;" horiz-adv-x="361" 
d="M103 -70c-70 0 -121 45 -121 106c0 71 63 124 169 134c-30 29 -53 62 -53 103c0 53 46 94 113 94c61 0 100 -34 100 -84c0 -65 -80 -106 -141 -114l9 -9c38 -36 66 -73 66 -119c0 -56 -55 -111 -142 -111zM164 174l2 -2c67 10 134 52 134 111c0 48 -37 75 -90 75
c-59 0 -102 -32 -102 -85c0 -36 21 -67 56 -99zM-7 37c0 -63 52 -98 110 -98c80 0 131 47 131 102c0 45 -28 80 -62 111l-16 15c-104 -10 -163 -63 -163 -130z" />
    <glyph glyph-name="nine.inferior" unicode="&#x2089;" horiz-adv-x="359" 
d="M-32 -72l-1 6c156 22 262 117 303 217c-33 -28 -79 -43 -119 -43c-67 0 -114 46 -114 113c0 75 61 146 149 146c74 0 115 -55 115 -128c0 -122 -117 -282 -333 -311zM49 221c0 -61 42 -104 106 -104c44 0 89 16 117 41c11 27 16 55 16 82c0 72 -37 118 -102 118
c-79 0 -137 -64 -137 -137z" />
    <glyph glyph-name="Euro" unicode="&#x20ac;" horiz-adv-x="871" 
d="M64 306l3 11h145c7 48 21 95 42 139h-149l3 11h151c88 175 274 301 451 301c157 0 203 -95 200 -143c-1 -14 -8 -24 -22 -22c11 67 -32 155 -178 155c-166 0 -348 -120 -435 -291h414l-3 -11h-417c-21 -44 -35 -90 -42 -139h378l-3 -11h-376c-2 -16 -3 -32 -3 -48
c0 -177 108 -258 237 -258c156 0 277 92 343 251l8 -3c-70 -174 -205 -258 -352 -258c-143 0 -251 89 -251 268c0 16 1 32 3 48h-147z" />
    <glyph glyph-name="uni20B4" unicode="&#x20b4;" horiz-adv-x="615" 
d="M107 448l3 11h401c75 35 130 100 130 166c0 99 -68 133 -154 133c-48 0 -121 -7 -166 -31c-14 -7 -19 -10 -33 -32l-69 -110h-7l75 137c62 35 129 46 204 46c93 0 164 -39 164 -144c0 -59 -49 -129 -120 -165h116l-3 -11h-541zM61 298l4 11h541l-4 -11h-442
c-58 -38 -83 -105 -83 -156c0 -92 61 -142 162 -142c46 0 128 10 188 41c15 8 21 11 34 33l74 124h7l-81 -153c-70 -39 -150 -55 -225 -55c-114 0 -173 58 -173 150c0 53 23 118 77 158h-79z" />
    <glyph glyph-name="uni20B8" unicode="&#x20b8;" horiz-adv-x="673" 
d="M223 747l6 11h559l-2 -11h-563zM178 0l2 6l60 2c22 1 34 5 37 16l176 573h-256c-10 0 -15 -3 -20 -12l-80 -154h-7l82 177h581l-26 -177h-7l14 154c1 9 -2 12 -12 12h-256l-176 -573c-3 -11 7 -15 27 -16l60 -2l-2 -6h-197z" />
    <glyph glyph-name="uni20BD" unicode="&#x20bd;" horiz-adv-x="686" 
d="M8 0l2 6l60 2c22 1 34 5 37 16l59 192h-93l3 11h93l43 139h-93l3 11h93l109 357c3 11 -6 15 -27 16l-59 2l2 6h296c129 0 244 -31 244 -143c0 -144 -135 -249 -364 -249h-191l-43 -139h365l-3 -11h-365l-59 -192c-3 -11 6 -16 27 -16l110 -2l-2 -6h-247zM341 747
l-113 -370h186c215 0 351 93 351 238c0 105 -110 132 -237 132h-187z" />
    <glyph glyph-name="uni2116" unicode="&#x2116;" horiz-adv-x="1228" 
d="M1056 331c-72 0 -107 56 -107 131c0 118 93 306 216 306c71 0 107 -56 107 -130c0 -118 -93 -307 -216 -307zM1057 340c116 0 202 190 202 301c0 74 -32 118 -95 118c-116 0 -202 -190 -202 -301c0 -71 32 -118 95 -118zM655 -22l-337 760l-218 -714c-3 -11 7 -15 27 -16
l60 -2l-2 -6h-197l2 6l60 2c22 1 34 5 37 16l217 710c3 11 -6 15 -27 16l-59 2l2 6h103l331 -746l221 722c3 11 -6 15 -27 16l-59 2l2 6h197l-2 -6l-61 -2c-21 -1 -34 -5 -37 -16l-231 -756h-2zM889 251l4 11h274l-4 -11h-274z" />
    <glyph glyph-name="uni2117" unicode="&#x2117;" horiz-adv-x="920" 
d="M500 -10c-229 0 -382 173 -382 389s153 389 382 389s382 -173 382 -389s-153 -389 -382 -389zM500 0c191 0 367 142 367 379s-176 379 -367 379s-367 -142 -367 -379s176 -379 367 -379zM350 178v7l33 2c13 1 19 3 19 12v388c0 9 -6 11 -19 12l-33 2v7h176
c87 0 167 -18 167 -112s-80 -113 -167 -113h-97v10h90c88 0 160 18 160 102c0 85 -72 103 -160 103h-105v-399c0 -9 7 -12 19 -12l61 -1v-8h-144z" />
    <glyph glyph-name="trademark" unicode="&#x2122;" horiz-adv-x="1251" 
d="M320 288v8l37 1c14 0 21 3 21 11v440h-166c-6 0 -9 -2 -10 -8l-21 -98h-8l18 116h386l17 -116h-7l-21 98c-1 6 -4 8 -11 8h-165v-440c0 -8 7 -11 20 -11l38 -1v-8h-128zM660 288v8l36 1c14 0 21 3 21 11v430c0 7 -7 11 -21 11l-36 1v8h76l198 -353l201 353h76v-8l-37 -1
c-13 0 -20 -4 -20 -11v-430c0 -8 7 -11 20 -11l37 -1v-8h-126v8l36 1c14 0 21 3 21 11v440l-206 -364h-4l-203 364v-440c0 -8 7 -11 20 -11l36 -1v-8h-125z" />
    <glyph glyph-name="uni2150" unicode="&#x2150;" horiz-adv-x="771" 
d="M82 341l2 6l41 2c14 1 21 3 23 10l136 393l-115 -43l3 10l128 48l-140 -408c-2 -7 2 -11 14 -11l39 -1l-2 -6h-129zM-54 0l828 758h17l-828 -758h-17zM543 417h268l-264 -282c-53 -57 -71 -71 -113 -127c-6 -8 -9 -12 -16 -13l-7 -1c-7 -1 1 10 7 17
c124 133 237 253 374 395h-232c-11 0 -15 -2 -21 -10l-54 -71h-5z" />
    <glyph glyph-name="uni2151" unicode="&#x2151;" horiz-adv-x="785" 
d="M82 341l2 6l41 2c14 1 21 3 23 10l136 393l-115 -43l3 10l128 48l-140 -408c-2 -7 2 -11 14 -11l39 -1l-2 -6h-129zM-54 0l828 758h17l-828 -758h-17zM412 -12l-1 6c156 22 262 117 303 217c-33 -28 -79 -43 -119 -43c-67 0 -114 46 -114 113c0 75 61 146 149 146
c74 0 115 -55 115 -128c0 -122 -117 -282 -333 -311zM493 281c0 -61 42 -104 106 -104c44 0 89 16 117 41c11 27 16 55 16 82c0 72 -37 118 -102 118c-79 0 -137 -64 -137 -137z" />
    <glyph glyph-name="uni2152" unicode="&#x2152;" horiz-adv-x="1050" 
d="M82 341l2 6l41 2c14 1 21 3 23 10l136 393l-115 -43l3 10l128 48l-140 -408c-2 -7 2 -11 14 -11l39 -1l-2 -6h-129zM-54 0l828 758h17l-828 -758h-17zM787 -10c-72 0 -107 56 -107 131c0 118 93 306 216 306c71 0 107 -56 107 -130c0 -118 -93 -307 -216 -307zM413 0l2 6
l41 2c14 1 21 3 23 10l136 393l-115 -43l3 10l128 48l-140 -408c-2 -7 2 -11 14 -11l39 -1l-2 -6h-129zM788 -1c116 0 202 190 202 301c0 74 -32 118 -95 118c-116 0 -202 -190 -202 -301c0 -71 32 -118 95 -118z" />
    <glyph glyph-name="onethird" unicode="&#x2153;" horiz-adv-x="770" 
d="M82 341l2 6l41 2c14 1 21 3 23 10l136 393l-115 -43l3 10l128 48l-140 -408c-2 -7 2 -11 14 -11l39 -1l-2 -6h-129zM-54 0l828 758h17l-828 -758h-17zM685 139c0 -76 -62 -149 -160 -149c-93 0 -120 71 -115 95c2 6 8 9 15 7c-6 -52 34 -93 100 -93c90 0 147 64 147 140
c0 59 -42 99 -77 99c-17 0 -31 -3 -42 -5v6l14 3c96 16 145 64 145 113c0 38 -29 63 -80 63c-48 0 -97 -25 -113 -86h-6c15 67 69 95 121 95c53 0 90 -27 90 -71c0 -53 -57 -95 -111 -109v-1c36 -11 72 -49 72 -107z" />
    <glyph glyph-name="twothirds" unicode="&#x2154;" horiz-adv-x="899" 
d="M46 341l1 2c258 176 365 252 365 339c0 49 -33 77 -86 77c-58 0 -114 -33 -126 -111h-6c11 79 67 120 134 120c62 0 96 -34 96 -85c0 -77 -72 -143 -309 -300l-48 -32h227c10 0 14 2 20 10l54 72h6l-63 -92h-265zM75 0l828 758h17l-828 -758h-17zM814 139
c0 -76 -62 -149 -160 -149c-93 0 -120 71 -115 95c2 6 8 9 15 7c-6 -52 34 -93 100 -93c90 0 147 64 147 140c0 59 -42 99 -77 99c-17 0 -31 -3 -42 -5v6l14 3c96 16 145 64 145 113c0 38 -29 63 -80 63c-48 0 -97 -25 -113 -86h-6c15 67 69 95 121 95c53 0 90 -27 90 -71
c0 -53 -57 -95 -111 -109v-1c36 -11 72 -49 72 -107z" />
    <glyph glyph-name="uni2155" unicode="&#x2155;" horiz-adv-x="768" 
d="M82 341l2 6l41 2c14 1 21 3 23 10l136 393l-115 -43l3 10l128 48l-140 -408c-2 -7 2 -11 14 -11l39 -1l-2 -6h-129zM-54 0l828 758h17l-828 -758h-17zM530 -10c-95 0 -128 71 -122 95c1 6 7 9 14 7c-6 -52 42 -93 109 -93c74 0 136 50 136 124c0 63 -53 118 -165 152
l86 142h178l-7 -11h-167l-75 -125c110 -34 161 -90 161 -158c0 -76 -66 -133 -148 -133z" />
    <glyph glyph-name="uni2156" unicode="&#x2156;" horiz-adv-x="897" 
d="M46 341l1 2c258 176 365 252 365 339c0 49 -33 77 -86 77c-58 0 -114 -33 -126 -111h-6c11 79 67 120 134 120c62 0 96 -34 96 -85c0 -77 -72 -143 -309 -300l-48 -32h227c10 0 14 2 20 10l54 72h6l-63 -92h-265zM75 0l828 758h17l-828 -758h-17zM659 -10
c-95 0 -128 71 -122 95c1 6 7 9 14 7c-6 -52 42 -93 109 -93c74 0 136 50 136 124c0 63 -53 118 -165 152l86 142h178l-7 -11h-167l-75 -125c110 -34 161 -90 161 -158c0 -76 -66 -133 -148 -133z" />
    <glyph glyph-name="uni2157" unicode="&#x2157;" horiz-adv-x="886" 
d="M364 480c0 -76 -62 -149 -160 -149c-93 0 -120 71 -115 95c2 6 8 9 15 7c-6 -52 34 -93 100 -93c90 0 147 64 147 140c0 59 -42 99 -77 99c-17 0 -31 -3 -42 -5v6l14 3c96 16 145 64 145 113c0 38 -29 63 -80 63c-48 0 -97 -25 -113 -86h-6c15 67 69 95 121 95
c53 0 90 -27 90 -71c0 -53 -57 -95 -111 -109v-1c36 -11 72 -49 72 -107zM64 0l828 758h17l-828 -758h-17zM648 -10c-95 0 -128 71 -122 95c1 6 7 9 14 7c-6 -52 42 -93 109 -93c74 0 136 50 136 124c0 63 -53 118 -165 152l86 142h178l-7 -11h-167l-75 -125
c110 -34 161 -90 161 -158c0 -76 -66 -133 -148 -133z" />
    <glyph glyph-name="uni2158" unicode="&#x2158;" horiz-adv-x="935" 
d="M293 341l41 120h-248l354 299h9l-99 -289h88l-4 -10h-88l-41 -120h-12zM113 0l828 758h17l-828 -758h-17zM111 471h227l92 269zM697 -10c-95 0 -128 71 -122 95c1 6 7 9 14 7c-6 -52 42 -93 109 -93c74 0 136 50 136 124c0 63 -53 118 -165 152l86 142h178l-7 -11h-167
l-75 -125c110 -34 161 -90 161 -158c0 -76 -66 -133 -148 -133z" />
    <glyph glyph-name="uni2159" unicode="&#x2159;" horiz-adv-x="763" 
d="M82 341l2 6l41 2c14 1 21 3 23 10l136 393l-115 -43l3 10l128 48l-140 -408c-2 -7 2 -11 14 -11l39 -1l-2 -6h-129zM-54 0l828 758h17l-828 -758h-17zM519 -10c-76 0 -113 59 -113 124c0 132 155 287 372 315l1 -5c-148 -21 -282 -109 -336 -215c33 27 75 41 114 41
c66 0 113 -46 113 -113c0 -74 -59 -147 -151 -147zM419 114c0 -64 33 -115 100 -115c85 0 139 67 139 138c0 61 -41 104 -105 104c-44 0 -87 -16 -114 -40c-13 -28 -20 -58 -20 -87z" />
    <glyph glyph-name="uni215A" unicode="&#x215a;" horiz-adv-x="879" 
d="M209 331c-95 0 -128 71 -122 95c1 6 7 9 14 7c-6 -52 42 -93 109 -93c74 0 136 50 136 124c0 63 -53 118 -165 152l86 142h178l-7 -11h-167l-75 -125c110 -34 161 -90 161 -158c0 -76 -66 -133 -148 -133zM62 0l828 758h17l-828 -758h-17zM635 -10
c-76 0 -113 59 -113 124c0 132 155 287 372 315l1 -5c-148 -21 -282 -109 -336 -215c33 27 75 41 114 41c66 0 113 -46 113 -113c0 -74 -59 -147 -151 -147zM535 114c0 -64 33 -115 100 -115c85 0 139 67 139 138c0 61 -41 104 -105 104c-44 0 -87 -16 -114 -40
c-13 -28 -20 -58 -20 -87z" />
    <glyph glyph-name="oneeighth" unicode="&#x215b;" horiz-adv-x="787" 
d="M82 341l2 6l41 2c14 1 21 3 23 10l136 393l-115 -43l3 10l128 48l-140 -408c-2 -7 2 -11 14 -11l39 -1l-2 -6h-129zM-54 0l828 758h17l-828 -758h-17zM548 -10c-70 0 -121 45 -121 106c0 71 63 124 169 134c-30 29 -53 62 -53 103c0 53 46 94 113 94
c61 0 100 -34 100 -84c0 -65 -80 -106 -141 -114l9 -9c38 -36 66 -73 66 -119c0 -56 -55 -111 -142 -111zM609 234l2 -2c67 10 134 52 134 111c0 48 -37 75 -90 75c-59 0 -102 -32 -102 -85c0 -36 21 -67 56 -99zM438 97c0 -63 52 -98 110 -98c80 0 131 47 131 102
c0 45 -28 80 -62 111l-16 15c-104 -10 -163 -63 -163 -130z" />
    <glyph glyph-name="threeeighths" unicode="&#x215c;" horiz-adv-x="905" 
d="M364 480c0 -76 -62 -149 -160 -149c-93 0 -120 71 -115 95c2 6 8 9 15 7c-6 -52 34 -93 100 -93c90 0 147 64 147 140c0 59 -42 99 -77 99c-17 0 -31 -3 -42 -5v6l14 3c96 16 145 64 145 113c0 38 -29 63 -80 63c-48 0 -97 -25 -113 -86h-6c15 67 69 95 121 95
c53 0 90 -27 90 -71c0 -53 -57 -95 -111 -109v-1c36 -11 72 -49 72 -107zM64 0l828 758h17l-828 -758h-17zM666 -10c-70 0 -121 45 -121 106c0 71 63 124 169 134c-30 29 -53 62 -53 103c0 53 46 94 113 94c61 0 100 -34 100 -84c0 -65 -80 -106 -141 -114l9 -9
c38 -36 66 -73 66 -119c0 -56 -55 -111 -142 -111zM727 234l2 -2c67 10 134 52 134 111c0 48 -37 75 -90 75c-59 0 -102 -32 -102 -85c0 -36 21 -67 56 -99zM556 97c0 -63 52 -98 110 -98c80 0 131 47 131 102c0 45 -28 80 -62 111l-16 15c-104 -10 -163 -63 -163 -130z" />
    <glyph glyph-name="fiveeighths" unicode="&#x215d;" horiz-adv-x="903" 
d="M209 331c-95 0 -128 71 -122 95c1 6 7 9 14 7c-6 -52 42 -93 109 -93c74 0 136 50 136 124c0 63 -53 118 -165 152l86 142h178l-7 -11h-167l-75 -125c110 -34 161 -90 161 -158c0 -76 -66 -133 -148 -133zM62 0l828 758h17l-828 -758h-17zM664 -10
c-70 0 -121 45 -121 106c0 71 63 124 169 134c-30 29 -53 62 -53 103c0 53 46 94 113 94c61 0 100 -34 100 -84c0 -65 -80 -106 -141 -114l9 -9c38 -36 66 -73 66 -119c0 -56 -55 -111 -142 -111zM725 234l2 -2c67 10 134 52 134 111c0 48 -37 75 -90 75
c-59 0 -102 -32 -102 -85c0 -36 21 -67 56 -99zM554 97c0 -63 52 -98 110 -98c80 0 131 47 131 102c0 45 -28 80 -62 111l-16 15c-104 -10 -163 -63 -163 -130z" />
    <glyph glyph-name="seveneighths" unicode="&#x215e;" horiz-adv-x="841" 
d="M222 758h268l-264 -282c-53 -57 -71 -71 -113 -127c-6 -8 -9 -12 -16 -13l-7 -1c-7 -1 1 10 7 17c124 133 237 253 374 395h-232c-11 0 -15 -2 -21 -10l-54 -71h-5zM0 0l828 758h17l-828 -758h-17zM602 -10c-70 0 -121 45 -121 106c0 71 63 124 169 134
c-30 29 -53 62 -53 103c0 53 46 94 113 94c61 0 100 -34 100 -84c0 -65 -80 -106 -141 -114l9 -9c38 -36 66 -73 66 -119c0 -56 -55 -111 -142 -111zM663 234l2 -2c67 10 134 52 134 111c0 48 -37 75 -90 75c-59 0 -102 -32 -102 -85c0 -36 21 -67 56 -99zM492 97
c0 -63 52 -98 110 -98c80 0 131 47 131 102c0 45 -28 80 -62 111l-16 15c-104 -10 -163 -63 -163 -130z" />
    <glyph glyph-name="uni215F" unicode="&#x215f;" horiz-adv-x="426" 
d="M82 341l2 6l41 2c14 1 21 3 23 10l136 393l-115 -43l3 10l128 48l-140 -408c-2 -7 2 -11 14 -11l39 -1l-2 -6h-129zM-54 0l828 758h17l-828 -758h-17z" />
    <glyph glyph-name="minus" unicode="&#x2212;" horiz-adv-x="653" 
d="M71 254v11h516v-11h-516z" />
    <glyph glyph-name="approxequal" unicode="&#x2248;" horiz-adv-x="653" 
d="M217 418c105 0 138 -102 228 -102c38 0 98 9 112 99h12c-13 -91 -76 -109 -124 -109c-99 0 -127 102 -228 102c-38 0 -98 -9 -112 -99h-12c13 91 76 109 124 109zM217 228c105 0 138 -102 228 -102c38 0 98 9 112 99h12c-13 -91 -76 -109 -124 -109
c-99 0 -127 102 -228 102c-38 0 -98 -9 -112 -99h-12c13 91 76 109 124 109z" />
    <glyph glyph-name="notequal" unicode="&#x2260;" horiz-adv-x="653" 
d="M83 134v11h184l120 229h-304v11h310l61 117h13l-61 -117h172v-11h-178l-120 -229h298v-11h-304l-70 -134h-13l70 134h-178z" />
    <glyph glyph-name="lessequal" unicode="&#x2264;" horiz-adv-x="653" 
d="M59 274v11l494 208v-13l-479 -200l479 -202v-13zM60 0v11h493v-11h-493z" />
    <glyph glyph-name="greaterequal" unicode="&#x2265;" horiz-adv-x="653" 
d="M575 274l-494 -209v13l479 202l-479 200v13l494 -208v-11zM574 0h-493v11h493v-11z" />
    <glyph glyph-name="dot" unicode="&#x27d1;" 
d="M-19 739c0 10 9 19 19 19s19 -9 19 -19s-9 -19 -19 -19s-19 9 -19 19z" />
    <glyph glyph-name="commaaccent" unicode="&#xf6c3;" 
d="M-87 -290l-6 8c108 80 150 144 150 177c0 11 -3 18 -10 24c1 11 10 21 22 21c11 0 18 -8 18 -19c0 -21 -28 -105 -174 -211z" />
    <glyph glyph-name="cyrbreve" unicode="&#xf6d4;" 
d="M-15 594c-83 0 -143 44 -117 150h13c-23 -95 21 -140 104 -140c82 0 151 40 185 140h14c-40 -110 -113 -150 -199 -150z" />
    <glyph glyph-name="uniFB00" unicode="&#xfb00;" horiz-adv-x="656" 
d="M391 64l127 427h-287l-153 -514c-43 -143 -113 -236 -244 -236h-20l2 11h19c129 0 191 90 237 244l147 495h-132l4 9h62c68 0 69 2 76 22c42 143 131 236 262 236h20l-2 -11h-19c-67 0 -122 -24 -169 -75c-41 -43 -66 -99 -87 -170h218c68 0 69 0 76 20
c42 143 131 236 262 236h20l-2 -11h-19c-67 0 -122 -24 -169 -75c-41 -43 -66 -99 -87 -170h202l-3 -11h-202l-133 -446c-43 -143 -113 -236 -244 -236h-20l2 11h19c129 0 191 90 237 244z" />
    <glyph glyph-name="fi" unicode="&#xfb01;" horiz-adv-x="562" 
d="M570 739c0 10 9 19 19 19s19 -9 19 -19s-9 -19 -19 -19s-19 9 -19 19zM78 -23c-43 -143 -113 -236 -244 -236h-20l2 11h19c129 0 191 90 237 244l147 495h-132l4 9h62c68 0 69 2 76 22c42 143 131 236 262 236h20l-2 -11h-19c-67 0 -122 -24 -169 -75
c-41 -43 -66 -99 -87 -170h286l-172 -447c-19 -48 -8 -55 11 -55c43 0 111 34 166 127l7 -4c-55 -93 -126 -133 -174 -133c-34 0 -41 17 -22 66l167 435h-272z" />
    <glyph glyph-name="fl" unicode="&#xfb02;" horiz-adv-x="569" 
d="M72 -4l147 495h-132l4 9h62c68 0 69 2 76 22c42 143 131 236 262 236h114l-243 -703c-17 -49 -8 -55 11 -55c43 0 111 34 166 127l7 -4c-55 -93 -126 -133 -174 -133c-34 0 -39 16 -22 66l237 688l-89 3h-8c-67 0 -122 -24 -169 -75c-41 -43 -66 -99 -87 -170h202l-3 -11
h-202l-153 -514c-43 -143 -113 -236 -244 -236h-20l2 11h19c129 0 191 90 237 244z" />
    </font>
</defs>
</svg>
