<?xml version="1.0" standalone="no"?>
<!DOCTYPE svg PUBLIC "-//W3C//DTD SVG 1.1//EN" "http://www.w3.org/Graphics/SVG/1.1/DTD/svg11.dtd" >
<svg xmlns="http://www.w3.org/2000/svg" xmlns:xlink="http://www.w3.org/1999/xlink" version="1.1">
<metadata>
Created by FontForge 20190801 at Wed Oct 25 22:36:19 2017
 By Jimmy Wärting
Copyright \(c\) 2017 Swiss Typefaces Sarl. All rights reserved.
</metadata>
<defs>
<font id="SangBleuKingdom-LightItalic" horiz-adv-x="0" >
  <font-face 
    font-family="SangBleu Kingdom"
    font-weight="300"
    font-style="italic"
    font-stretch="normal"
    units-per-em="1000"
    panose-1="2 4 3 4 8 0 0 0 0 4"
    ascent="800"
    descent="-200"
    x-height="502"
    cap-height="758"
    bbox="-296 -403 1464 1045"
    underline-thickness="30"
    underline-position="-130"
    slope="-17"
    stemh="17"
    stemv="55"
    unicode-range="U+0020-FEFF"
  />
<missing-glyph horiz-adv-x="640" 
d="M70 0v758h500v-758h-500zM103 739l217 -343l217 343h-434zM89 728v-698l221 349zM331 379l220 -349v698zM103 19h434l-217 343z" />
    <glyph glyph-name="f_f" unicode="ff" horiz-adv-x="661" 
d="M702 725c-46 0 -91 -42 -121 -122c-11 -29 -20 -62 -27 -101h189l-18 -32h-178l-100 -348c-83 -288 -182 -322 -247 -322c-35 0 -57 17 -57 41c0 20 16 39 37 40c25 -20 52 -35 84 -35c44 0 70 37 122 227l108 397h-256l-115 -405c-82 -288 -182 -322 -247 -322
c-35 0 -57 17 -57 41c0 20 16 39 37 40c25 -20 52 -35 84 -35c44 0 70 37 122 227l123 454h-95l6 16l36 2c65 4 68 9 86 56c69 180 170 197 235 197c43 0 67 -17 67 -41c0 -20 -16 -39 -37 -40c-25 20 -66 39 -103 39c-43 0 -82 -28 -110 -103c-10 -25 -18 -57 -25 -94h236
c34 0 38 21 46 42c69 180 171 227 245 227c35 0 57 -17 57 -41c0 -20 -16 -39 -37 -40c-25 20 -58 35 -90 35z" />
    <glyph glyph-name="f_f_i" unicode="ffi" horiz-adv-x="890" 
d="M860 730c0 22 20 42 42 42c23 0 43 -20 43 -42c0 -23 -20 -43 -43 -43c-22 0 -42 20 -42 43zM554 502h304l-165 -428c-20 -50 -13 -60 7 -60c37 0 103 36 157 132l13 -6c-55 -100 -127 -151 -198 -151c-50 0 -57 27 -35 83l153 398h-243l-100 -348
c-83 -288 -182 -322 -247 -322c-35 0 -57 17 -57 41c0 20 16 39 37 40c25 -20 52 -35 84 -35c44 0 70 37 122 227l108 397h-256l-115 -405c-82 -288 -182 -322 -247 -322c-35 0 -57 17 -57 41c0 20 16 39 37 40c25 -20 52 -35 84 -35c44 0 70 37 122 227l123 454h-95l6 16
l36 2c65 4 68 9 86 56c69 180 170 197 235 197c43 0 67 -17 67 -41c0 -20 -16 -39 -37 -40c-25 20 -66 39 -103 39c-43 0 -81 -27 -109 -100c-10 -26 -19 -58 -26 -97h236c34 0 38 21 46 42c69 180 171 227 245 227c35 0 57 -17 57 -41c0 -20 -16 -39 -37 -40
c-25 20 -58 35 -90 35c-46 0 -91 -42 -121 -122c-11 -29 -20 -62 -27 -101z" />
    <glyph glyph-name="f_f_l" unicode="ffl" horiz-adv-x="906" 
d="M690 -11c-50 0 -55 26 -35 83l222 647l-48 12v-1c0 -20 -16 -39 -37 -40c-25 20 -58 35 -90 35c-46 0 -91 -42 -121 -122c-11 -29 -20 -62 -27 -101h189l-18 -32h-178l-100 -348c-83 -288 -182 -322 -247 -322c-35 0 -57 17 -57 41c0 20 16 39 37 40
c25 -20 52 -35 84 -35c44 0 70 37 122 227l108 397h-256l-115 -405c-82 -288 -182 -322 -247 -322c-35 0 -57 17 -57 41c0 20 16 39 37 40c25 -20 52 -35 84 -35c44 0 70 37 122 227l123 454h-95l6 16l36 2c65 4 68 9 86 56c69 180 170 197 235 197c43 0 67 -17 67 -41
c0 -20 -16 -39 -37 -40c-25 20 -66 39 -103 39c-43 0 -82 -28 -110 -103c-10 -25 -18 -57 -25 -94h236c34 0 38 21 46 42c69 180 171 227 245 227c22 0 40 -7 49 -18l130 19l-240 -698c-18 -51 -13 -60 7 -60c37 0 102 36 156 132l15 -6c-55 -100 -129 -151 -199 -151z" />
    <glyph glyph-name="f_i" unicode="fi" horiz-adv-x="581" 
d="M551 730c0 22 20 42 42 42c23 0 43 -20 43 -42c0 -23 -20 -43 -43 -43c-22 0 -42 20 -42 43zM245 502h304l-165 -428c-19 -50 -13 -60 7 -60c37 0 103 36 157 132l14 -6c-55 -100 -128 -151 -199 -151c-50 0 -56 27 -35 83l153 398h-243l-115 -405
c-82 -288 -182 -322 -247 -322c-35 0 -57 17 -57 41c0 20 16 39 37 40c25 -20 52 -35 84 -35c44 0 70 37 122 227l123 454h-95l6 16l36 2c65 4 68 9 86 56c69 180 171 227 245 227c35 0 57 -17 57 -41c0 -20 -16 -39 -37 -40c-25 20 -58 35 -90 35c-46 0 -91 -42 -121 -122
c-11 -29 -20 -62 -27 -101z" />
    <glyph glyph-name="f_l" unicode="fl" horiz-adv-x="595" 
d="M381 -11c-50 0 -54 26 -35 83l223 647l-49 12v-1c0 -20 -16 -39 -37 -40c-25 20 -58 35 -90 35c-46 0 -91 -42 -121 -122c-11 -29 -20 -62 -27 -101h189l-18 -32h-178l-115 -405c-82 -288 -182 -322 -247 -322c-35 0 -57 17 -57 41c0 20 16 39 37 40
c25 -20 52 -35 84 -35c44 0 70 37 122 227l123 454h-95l6 16l36 2c65 4 68 9 86 56c69 180 171 227 245 227c22 0 40 -7 49 -18l131 19l-241 -698c-17 -51 -12 -60 7 -60c37 0 103 36 157 132l14 -6c-55 -100 -128 -151 -199 -151z" />
    <glyph glyph-name=".notdef" horiz-adv-x="640" 
d="M70 0v758h500v-758h-500zM103 739l217 -343l217 343h-434zM89 728v-698l221 349zM331 379l220 -349v698zM103 19h434l-217 343z" />
    <glyph glyph-name=".null" 
 />
    <glyph glyph-name="CR" horiz-adv-x="294" 
 />
    <glyph glyph-name="space" unicode=" " horiz-adv-x="294" 
 />
    <glyph glyph-name="exclam" unicode="!" horiz-adv-x="283" 
d="M116 201c86 296 95 396 146 557c5 17 73 17 67 -3c-50 -159 -101 -258 -197 -554h-16zM78 -11c-24 0 -43 20 -43 44s19 44 43 44c25 0 44 -20 44 -44s-19 -44 -44 -44z" />
    <glyph glyph-name="quotedbl" unicode="&#x22;" horiz-adv-x="407" 
d="M151 476l76 276c4 14 11 20 33 20c21 0 26 -7 18 -27l-110 -269h-17zM361 476l76 276c4 14 11 20 33 20c21 0 26 -7 18 -27l-110 -269h-17z" />
    <glyph glyph-name="numbersign" unicode="#" horiz-adv-x="815" 
d="M132 0l86 212h-189l13 31h189l112 278h-188l11 31h190l91 224h33l-91 -224h258l91 224h32l-91 -224h189l-13 -31h-189l-112 -278h188l-12 -31h-189l-86 -212h-32l86 212h-258l-86 -212h-33zM264 243h258l112 278h-258z" />
    <glyph glyph-name="dollar" unicode="$" horiz-adv-x="569" 
d="M481 886h23l-35 -114c99 -6 161 -63 161 -127c0 -32 -27 -53 -64 -47c12 92 -29 146 -104 153l-104 -339l9 -9c69 -69 120 -125 120 -208c0 -113 -102 -201 -260 -206l-34 -109h-23l34 109c-111 3 -199 70 -199 138c0 33 26 55 66 47c-13 -101 49 -159 139 -164l110 356
l-34 34c-57 57 -87 113 -87 180c0 115 119 190 247 192zM327 443l13 -13l100 322c-104 -2 -192 -59 -192 -152c0 -53 26 -104 79 -157zM436 174c0 69 -45 121 -98 174l-105 -339c116 2 203 63 203 165z" />
    <glyph glyph-name="percent" unicode="%" horiz-adv-x="953" 
d="M241 332c-79 0 -116 60 -116 136c0 126 105 301 225 301c77 0 116 -61 116 -135c0 -127 -105 -302 -225 -302zM74 0l832 758h45l-832 -758h-45zM242 347c101 0 182 199 182 307c0 63 -24 100 -75 100c-101 0 -182 -200 -182 -306c0 -62 24 -101 75 -101zM685 -9
c-79 0 -116 60 -116 136c0 126 105 301 225 301c77 0 116 -61 116 -135c0 -127 -105 -302 -225 -302zM686 6c101 0 182 199 182 307c0 63 -24 100 -75 100c-101 0 -182 -200 -182 -306c0 -62 24 -101 75 -101z" />
    <glyph glyph-name="ampersand" unicode="&#x26;" horiz-adv-x="1051" 
d="M591 268c-44 0 -95 36 -95 101c0 79 64 150 139 150c36 0 78 -18 138 -61l72 -52c51 -37 96 -72 139 -72s75 31 79 75c4 43 -23 69 -116 80c-7 35 14 57 46 57c44 0 94 -37 94 -101c0 -80 -64 -150 -139 -150c-36 0 -79 20 -139 64l-14 11c-72 -164 -215 -381 -439 -381
c-199 0 -278 157 -278 300c0 193 133 321 223 321c73 0 98 -68 86 -134c5 4 9 7 13 10c121 91 175 187 192 320c9 8 22 12 34 12c17 0 31 -7 31 -20v-2c-19 -110 -128 -239 -249 -324c-36 -25 -232 -163 -285 -191c20 -132 114 -232 262 -232c172 0 317 146 397 330l-44 32
c-52 38 -96 69 -139 69c-42 0 -75 -31 -79 -76c-4 -42 23 -68 116 -80c7 -34 -14 -56 -45 -56zM119 334c0 -12 1 -24 2 -35c39 22 121 76 188 122c39 64 30 161 -31 161c-81 0 -159 -123 -159 -248z" />
    <glyph glyph-name="quotesingle" unicode="'" horiz-adv-x="197" 
d="M151 476l76 276c4 14 11 20 33 20c21 0 26 -7 18 -27l-110 -269h-17z" />
    <glyph glyph-name="parenleft" unicode="(" horiz-adv-x="314" 
d="M128 -233c-58 78 -97 188 -97 321c0 255 152 526 438 721l9 -13c-262 -195 -400 -491 -400 -735c0 -119 17 -207 63 -284z" />
    <glyph glyph-name="parenright" unicode=")" horiz-adv-x="314" 
d="M211 809c58 -78 97 -188 97 -321c0 -255 -152 -526 -438 -721l-9 13c262 195 400 491 400 735c0 119 -17 207 -63 284z" />
    <glyph glyph-name="asterisk" unicode="*" horiz-adv-x="465" 
d="M189 502l-8 11l127 99l-120 107l8 11l134 -91l64 147l14 -4l-46 -155l161 -17v-14l-162 -4l35 -157l-14 -5l-55 153z" />
    <glyph glyph-name="plus" unicode="+" horiz-adv-x="653" 
d="M314 0v245h-245v31h245v240h33v-240h245v-31h-245v-245h-33z" />
    <glyph glyph-name="comma" unicode="," horiz-adv-x="213" 
d="M-94 -196l-8 16c97 66 141 128 141 170c0 20 -11 33 -33 41c5 30 27 45 49 45c24 0 43 -16 43 -46c0 -43 -44 -132 -192 -226z" />
    <glyph glyph-name="hyphen" unicode="-" horiz-adv-x="448" 
d="M75 244l11 33h294l-11 -33h-294z" />
    <glyph glyph-name="period" unicode="." horiz-adv-x="214" 
d="M53 -11c-24 0 -43 20 -43 44s19 44 43 44c25 0 44 -20 44 -44s-19 -44 -44 -44z" />
    <glyph glyph-name="slash" unicode="/" horiz-adv-x="560" 
d="M-50 -52l688 837h44l-688 -837h-44z" />
    <glyph glyph-name="zero" unicode="0" horiz-adv-x="673" 
d="M276 -11c-137 0 -200 104 -200 240c0 221 179 543 401 543c137 0 201 -104 201 -241c0 -221 -180 -542 -402 -542zM280 9c199 0 342 354 342 548c0 118 -49 194 -149 194c-199 0 -342 -354 -342 -548c0 -118 49 -194 149 -194z" />
    <glyph glyph-name="one" unicode="1" horiz-adv-x="366" 
d="M107 43l235 680l-190 -70l6 21l254 94l-250 -725c-6 -18 3 -26 27 -27l40 -2l-4 -14h-233l4 14l66 3c26 1 39 8 45 26z" />
    <glyph glyph-name="two" unicode="2" horiz-adv-x="607" 
d="M-61 0l1 5c452 312 633 454 633 601c0 80 -51 133 -141 133c-97 0 -190 -60 -217 -193h-15c22 141 120 226 251 226c120 0 181 -63 181 -156c0 -135 -121 -243 -481 -481l-130 -86h358c36 0 48 3 66 27l80 105h17l-118 -181h-485z" />
    <glyph glyph-name="three" unicode="3" horiz-adv-x="575" 
d="M517 271c0 -143 -127 -282 -308 -282c-110 0 -203 72 -203 145c0 36 29 51 61 44c-3 -98 48 -169 158 -169c140 0 238 104 238 239c0 108 -75 175 -144 175c-22 0 -43 -3 -60 -6l-1 18l34 7c152 31 245 96 245 186c0 67 -52 111 -136 111c-79 0 -166 -41 -195 -153h-16
c26 126 123 186 230 186c105 0 173 -53 173 -131c0 -91 -96 -158 -202 -183l-1 -3c72 -23 127 -90 127 -184z" />
    <glyph glyph-name="four" unicode="4" horiz-adv-x="676" 
d="M357 0l73 211h-430l628 550h46l-175 -509h154l-15 -41h-153l-73 -211h-55zM76 252h368l158 457z" />
    <glyph glyph-name="five" unicode="5" horiz-adv-x="566" 
d="M206 -11c-110 0 -203 72 -203 145c0 36 29 51 61 44c-3 -98 48 -169 158 -169c121 0 230 78 230 203c0 107 -91 205 -282 268l162 278h328l-30 -51h-304l-107 -182c192 -64 278 -168 278 -284c0 -150 -135 -252 -291 -252z" />
    <glyph glyph-name="six" unicode="6" horiz-adv-x="628" 
d="M270 -11c-137 0 -213 102 -213 234c0 225 273 509 685 572l2 -14c-264 -43 -488 -206 -581 -391c56 47 128 68 194 68c116 0 199 -75 199 -194c0 -151 -130 -275 -286 -275zM117 210c0 -114 50 -201 158 -201c136 0 221 118 221 245c0 109 -73 176 -170 176
c-61 0 -122 -19 -171 -57c-25 -53 -38 -109 -38 -163z" />
    <glyph glyph-name="seven" unicode="7" horiz-adv-x="606" 
d="M258 758h494l-453 -474c-114 -119 -154 -172 -221 -258c-18 -24 -27 -30 -45 -33l-27 -4c-18 -3 -14 16 5 36c215 226 408 424 670 682h-379c-38 0 -49 -4 -71 -32l-77 -100h-16z" />
    <glyph glyph-name="eight" unicode="8" horiz-adv-x="606" 
d="M256 -11c-130 0 -221 77 -221 189c0 118 104 206 284 231c-54 54 -88 111 -88 182c0 100 89 180 218 180c114 0 190 -63 190 -155c0 -106 -125 -175 -241 -198l15 -14c62 -58 111 -122 111 -202c0 -109 -109 -213 -268 -213zM373 441l16 -15c113 23 211 94 211 187
c0 85 -62 136 -156 136c-98 0 -167 -54 -167 -134c0 -65 36 -118 96 -174zM79 183c0 -112 84 -172 183 -172c128 0 214 75 214 166c0 67 -46 130 -106 185l-41 38l-2 1c-159 -23 -248 -112 -248 -218z" />
    <glyph glyph-name="nine" unicode="9" horiz-adv-x="611" 
d="M12 -35l-3 15c275 48 453 219 523 394c-56 -47 -131 -71 -203 -71c-117 0 -200 79 -200 198c0 147 127 271 281 271c134 0 218 -97 218 -244c0 -206 -204 -494 -616 -563zM190 510c0 -109 71 -179 169 -179c65 0 129 20 180 60c19 51 28 103 28 151
c0 131 -56 210 -161 210c-128 0 -216 -111 -216 -242z" />
    <glyph glyph-name="colon" unicode=":" horiz-adv-x="263" 
d="M209 427c-24 0 -43 20 -43 44s19 44 43 44c25 0 44 -20 44 -44s-19 -44 -44 -44zM56 -11c-24 0 -43 20 -43 44s19 44 43 44c25 0 44 -20 44 -44s-19 -44 -44 -44z" />
    <glyph glyph-name="semicolon" unicode=";" horiz-adv-x="313" 
d="M239 427c-24 0 -43 20 -43 44s19 44 43 44c25 0 44 -20 44 -44s-19 -44 -44 -44zM-55 -196l-8 16c97 66 141 128 141 170c0 20 -11 33 -33 41c5 30 27 45 49 45c24 0 43 -16 43 -46c0 -43 -44 -132 -192 -226z" />
    <glyph glyph-name="less" unicode="&#x3c;" horiz-adv-x="653" 
d="M49 246v29l504 227v-35l-461 -206l461 -209v-34z" />
    <glyph glyph-name="equal" unicode="=" horiz-adv-x="653" 
d="M78 361v31h500v-31h-500zM78 125v30h500v-30h-500z" />
    <glyph glyph-name="greater" unicode="&#x3e;" horiz-adv-x="653" 
d="M610 246l-504 -228v34l461 209l-461 206v35l504 -227v-29z" />
    <glyph glyph-name="question" unicode="?" horiz-adv-x="585" 
d="M398 750c-89 0 -165 -39 -183 -123c-22 -4 -53 4 -53 30c0 55 95 115 223 115c143 0 244 -80 244 -207c0 -103 -67 -167 -211 -184l-117 -14c-35 -4 -43 -8 -57 -49l-42 -120h-17l42 152c17 62 34 70 89 76l101 11c124 13 182 60 182 145c0 102 -90 168 -201 168z
M154 -11c-24 0 -43 20 -43 44s19 44 43 44c25 0 44 -20 44 -44s-19 -44 -44 -44z" />
    <glyph glyph-name="at" unicode="@" horiz-adv-x="930" 
d="M620 167c-33 0 -52 7 -52 28c0 11 7 32 17 58l33 84h-3c-63 -102 -155 -170 -239 -170c-60 0 -103 34 -103 102c0 171 218 349 373 349c42 0 81 -16 113 -31l-132 -333c-11 -28 -15 -40 -15 -49c0 -8 3 -15 31 -15c113 0 278 92 278 298c0 179 -154 263 -318 263
c-256 0 -474 -212 -474 -451c0 -186 134 -297 316 -297c118 0 188 28 236 51l6 -14c-48 -24 -126 -57 -246 -57c-197 0 -352 118 -352 315c0 243 242 474 514 474c172 0 342 -91 342 -284c0 -199 -159 -321 -325 -321zM398 197c75 0 194 80 251 224l63 160
c-16 13 -41 19 -68 19c-139 0 -320 -170 -320 -322c0 -54 28 -81 74 -81z" />
    <glyph glyph-name="A" unicode="A" horiz-adv-x="811" 
d="M-138 0l5 15l52 3c26 1 49 10 66 25l805 735h17l-202 -734c-5 -19 5 -25 30 -26l52 -3l-5 -15h-241l4 15l53 3c26 1 42 7 47 26l73 258h-313l-284 -259c-16 -15 -21 -24 9 -25l60 -3l-6 -15h-222zM333 328h292l101 359z" />
    <glyph glyph-name="B" unicode="B" horiz-adv-x="730" 
d="M-17 0l4 15l53 3c26 1 41 7 47 26l204 670c6 19 -6 25 -30 26l-51 3l5 15h266c148 0 253 -32 253 -135c-2 -98 -95 -206 -267 -220v-1c114 -4 208 -48 208 -147c0 -117 -112 -255 -394 -255h-298zM259 410h153c179 0 258 124 258 213c0 86 -76 114 -193 114h-119zM139 21
h138c246 0 332 130 332 240c0 89 -76 128 -202 128h-155z" />
    <glyph glyph-name="C" unicode="C" horiz-adv-x="799" 
d="M384 -11c-160 0 -300 87 -300 292c0 266 243 491 514 491c96 0 182 -24 228 -56l1 -176h-15l-41 143c-10 34 -20 39 -46 48c-33 11 -75 19 -125 19c-244 0 -447 -211 -447 -488c0 -179 106 -252 234 -252c64 0 100 9 132 16c13 3 31 8 54 31l167 173h14l-122 -189
c-61 -35 -158 -52 -248 -52z" />
    <glyph glyph-name="D" unicode="D" horiz-adv-x="850" 
d="M-17 0l4 15l53 3c26 1 41 7 47 26l204 670c6 19 -6 25 -30 26l-51 3l5 15h248c225 0 387 -81 387 -268c0 -281 -259 -490 -598 -490h-269zM139 21h117c299 0 528 202 528 477c0 165 -127 239 -321 239h-105z" />
    <glyph glyph-name="E" unicode="E" horiz-adv-x="725" 
d="M-17 0l4 15l53 3c26 1 41 7 47 26l205 670c6 19 -6 25 -31 26l-51 3l5 15h529l-26 -186h-15l-20 150c-2 12 -5 14 -19 14h-306l-100 -327h187c21 0 23 1 29 14l55 108h15l-82 -268h-14l10 107c1 13 1 15 -21 15h-187l-110 -363h355c14 0 19 3 29 14l147 154h15l-121 -190
h-582z" />
    <glyph glyph-name="F" unicode="F" horiz-adv-x="699" 
d="M-17 0l4 15l53 3c26 1 41 7 47 26l205 670c6 19 -6 25 -31 26l-51 3l5 15h580l-26 -186h-15l-20 150c-2 12 -5 14 -18 14h-358l-100 -327h190c21 0 23 1 29 14l55 108h14l-81 -268h-15l11 107c1 13 0 15 -21 15h-190l-104 -341c-6 -19 6 -25 32 -26l97 -2l-5 -16h-287z
" />
    <glyph glyph-name="G" unicode="G" horiz-adv-x="883" 
d="M402 -11c-166 0 -318 87 -318 292c0 266 241 491 513 491c96 0 183 -24 229 -56l1 -176h-15l-41 143c-10 34 -20 39 -46 48c-33 11 -75 19 -125 19c-247 0 -446 -211 -446 -488c0 -180 119 -251 252 -251c80 0 165 24 233 54l88 238c7 20 -6 26 -31 26l-175 2l7 19h367
l-7 -20l-92 -1l-77 -209l-23 -71c-94 -17 -181 -60 -294 -60z" />
    <glyph glyph-name="H" unicode="H" horiz-adv-x="887" 
d="M-17 0l4 15l53 3c26 1 41 7 47 26l204 670c6 19 -6 25 -30 26l-51 3l5 15h241l-5 -15l-53 -3c-26 -1 -41 -7 -47 -26l-92 -303h469l92 303c6 19 -6 25 -31 26l-51 3l5 15h241l-4 -15l-53 -3c-27 -2 -42 -7 -48 -26l-204 -670c-6 -19 6 -25 30 -26l52 -3l-5 -15h-241l4 15
l53 3c26 1 41 7 47 26l105 341h-469l-105 -341c-6 -19 7 -25 31 -26l52 -3l-5 -15h-241z" />
    <glyph glyph-name="I" unicode="I" horiz-adv-x="358" 
d="M-17 0l4 15l53 3c26 1 41 7 47 26l204 670c6 19 -6 25 -30 26l-51 3l5 15h241l-5 -15l-53 -3c-26 -1 -41 -7 -47 -26l-205 -670c-6 -19 7 -25 31 -26l52 -3l-5 -15h-241z" />
    <glyph glyph-name="J" unicode="J" horiz-adv-x="351" 
d="M-99 -124l-9 16c156 100 188 121 223 236l180 587c5 19 -6 23 -31 24l-54 2l5 17h246l-5 -17l-56 -2c-26 -1 -40 -5 -46 -24l-174 -569c-33 -108 -53 -133 -169 -209c-27 -17 -75 -43 -110 -61z" />
    <glyph glyph-name="K" unicode="K" horiz-adv-x="807" 
d="M-17 0l4 15l53 3c26 1 41 7 47 26l204 670c6 19 -6 25 -30 26l-51 3l5 15h241l-5 -15l-53 -3c-26 -1 -41 -7 -47 -26l-100 -328l531 335c16 10 10 17 -25 19l-56 3l5 15h245l-5 -15l-54 -3c-36 -2 -52 -8 -77 -24l-499 -314l405 -402h-77l-394 383l-104 -339
c-6 -19 7 -25 31 -26l52 -3l-5 -15h-241z" />
    <glyph glyph-name="L" unicode="L" horiz-adv-x="680" 
d="M-17 0l4 15l53 3c26 1 41 7 47 26l205 670c6 19 -6 25 -31 26l-51 3l5 15h241l-4 -15l-53 -3c-27 -2 -42 -7 -48 -26l-211 -692h316c15 0 19 3 30 14l147 154h15l-121 -190h-544z" />
    <glyph glyph-name="M" unicode="M" horiz-adv-x="1022" 
d="M-17 0l4 15l53 3c26 1 41 7 47 26l204 670c6 19 -6 25 -30 26l-51 3l5 15h162l125 -533l451 533h166l-5 -15l-53 -3c-26 -1 -41 -7 -47 -26l-205 -670c-6 -19 7 -25 31 -26l52 -3l-5 -15h-241l4 15l53 3c26 1 41 7 47 26l209 685l-495 -587h-6l-135 587l-209 -685
c-6 -19 6 -25 30 -26l52 -3l-5 -15h-208z" />
    <glyph glyph-name="N" unicode="N" horiz-adv-x="885" 
d="M661 -20l-344 728l-203 -664c-6 -19 6 -25 30 -26l52 -3l-5 -15h-208l4 15l53 3c26 1 41 7 47 26l205 670c6 19 -6 25 -31 26l-51 3l5 15h145l310 -663l191 619c6 19 -6 25 -31 26l-51 3l5 15h209l-5 -15l-54 -3c-25 -1 -41 -7 -47 -26l-224 -734h-2z" />
    <glyph glyph-name="O" unicode="O" horiz-adv-x="877" 
d="M371 -11c-159 0 -292 99 -292 280c0 226 212 503 508 503c159 0 292 -99 292 -281c0 -225 -212 -502 -508 -502zM380 9c239 0 430 244 430 484c0 163 -97 258 -233 258c-238 0 -429 -244 -429 -483c0 -164 97 -259 232 -259z" />
    <glyph glyph-name="P" unicode="P" horiz-adv-x="713" 
d="M-17 0l4 15l53 3c26 1 41 7 47 26l204 670c6 19 -6 25 -30 26l-51 3l5 15h303c142 0 260 -32 260 -147c0 -144 -135 -253 -379 -253h-131l6 22h126c200 0 312 102 312 232c0 95 -88 125 -203 125h-151l-212 -693c-6 -19 6 -25 31 -26l98 -2l-5 -16h-287z" />
    <glyph glyph-name="Q" unicode="Q" horiz-adv-x="877" 
d="M371 -11c-14 0 -27 1 -40 2l-204 -73c42 11 86 11 94 11c158 0 186 -101 297 -101c61 0 123 23 185 122l15 -8c-67 -115 -143 -161 -217 -161c-132 0 -157 132 -307 132c-28 0 -57 -3 -76 -11c-12 -25 -29 -36 -45 -36c-11 0 -18 7 -17 17c1 19 33 37 136 74l109 39
c-126 25 -222 120 -222 273c0 226 212 503 508 503c159 0 292 -99 292 -281c0 -225 -212 -502 -508 -502zM380 9c239 0 430 244 430 484c0 163 -97 258 -233 258c-238 0 -429 -244 -429 -483c0 -164 97 -259 232 -259z" />
    <glyph glyph-name="R" unicode="R" horiz-adv-x="741" 
d="M-17 0l4 15l53 3c26 1 41 7 47 26l204 670c6 19 -6 25 -30 26l-51 3l5 15h262c147 0 261 -36 261 -148c0 -125 -103 -223 -331 -229l269 -381h-73l-262 375h-93l-102 -331c-6 -19 7 -25 31 -26l52 -3l-5 -15h-241zM254 397h110c213 0 307 91 307 217
c0 92 -86 123 -204 123h-109z" />
    <glyph glyph-name="S" unicode="S" horiz-adv-x="610" 
d="M204 -11c-76 0 -153 22 -208 59l57 180h14l-7 -151c-1 -24 6 -30 18 -37c34 -19 88 -30 135 -30c129 0 236 61 236 170c0 61 -39 119 -89 176l-48 54c-49 55 -89 113 -89 177c0 116 125 185 265 185c83 0 148 -20 189 -54l-37 -162h-15l-9 134c-2 23 -6 29 -18 36
c-25 14 -66 24 -107 24c-114 0 -214 -46 -214 -136c0 -57 38 -108 80 -155l48 -54c57 -64 103 -125 103 -192c0 -122 -114 -224 -304 -224z" />
    <glyph glyph-name="T" unicode="T" horiz-adv-x="734" 
d="M163 0l5 16l60 2c26 1 41 7 47 26l212 694h-221c-13 0 -18 -3 -26 -15l-115 -172h-15l89 207h648l-37 -207h-15l-5 172c0 12 -6 15 -19 15h-225l-212 -694c-6 -19 7 -25 32 -26l59 -2l-5 -16h-257z" />
    <glyph glyph-name="U" unicode="U" horiz-adv-x="863" 
d="M369 -11c-198 0 -284 99 -219 313l125 412c6 19 -6 25 -31 26l-50 3l4 15h242l-5 -15l-53 -3c-26 -1 -42 -7 -48 -26l-127 -418c-53 -173 -6 -271 175 -271c183 0 290 104 342 276l126 413c6 19 -6 25 -30 26l-55 3l5 15h212l-5 -15l-53 -3c-26 -1 -41 -7 -47 -26
l-127 -417c-62 -202 -182 -308 -381 -308z" />
    <glyph glyph-name="V" unicode="V" horiz-adv-x="802" 
d="M83 -20l202 734c5 19 -6 25 -30 26l-52 3l5 15h241l-4 -15l-53 -3c-26 -1 -42 -7 -47 -26l-180 -642l697 643c16 15 20 24 -9 25l-60 3l4 15h224l-6 -15l-51 -3c-27 -2 -49 -10 -66 -25l-798 -735h-17z" />
    <glyph glyph-name="W" unicode="W" horiz-adv-x="1246" 
d="M83 -20l202 734c5 19 -6 25 -30 26l-52 3l5 15h241l-4 -15l-53 -3c-26 -1 -42 -7 -47 -26l-180 -642l516 473l58 213h180l-4 -15l-80 -3c-26 -1 -42 -7 -47 -26l-180 -642l697 643c16 15 21 24 -9 25l-60 3l5 15h223l-5 -15l-52 -3c-27 -2 -49 -10 -66 -25l-798 -735h-17
l142 520l-568 -520h-17z" />
    <glyph glyph-name="X" unicode="X" horiz-adv-x="845" 
d="M-101 0l7 15l50 3c26 2 49 10 67 25l432 350l-102 322c-5 16 -16 24 -39 25l-49 3l7 15h241l-8 -15l-55 -4c-29 -2 -41 -8 -36 -25l89 -283l349 283c19 15 19 23 -10 25l-53 4l7 15h218l-7 -15l-50 -3c-25 -1 -48 -11 -66 -25l-380 -308l114 -364c5 -16 16 -24 40 -25
l48 -3l-7 -15h-241l8 15l55 4c30 2 42 8 37 25l-102 324l-401 -324c-19 -16 -19 -23 10 -25l53 -4l-7 -15h-219z" />
    <glyph glyph-name="Y" unicode="Y" horiz-adv-x="776" 
d="M184 0l5 16l60 2c26 1 41 7 47 26l92 298l-155 373c-7 16 -12 23 -40 25l-51 3l6 15h242l-5 -15l-55 -3c-29 -2 -43 -9 -36 -25l144 -346l355 346c17 17 7 24 -21 25l-60 3l4 15h223l-5 -15l-52 -3c-27 -2 -38 -9 -55 -25l-380 -373l-92 -298c-6 -19 6 -25 31 -26l60 -2
l-5 -16h-257z" />
    <glyph glyph-name="Z" unicode="Z" horiz-adv-x="735" 
d="M-43 0l2 9l789 728h-404c-16 0 -21 -3 -32 -15l-142 -154h-15l122 190h558l-3 -10l-786 -727h447c16 0 20 2 32 15l142 154h15l-122 -190h-603z" />
    <glyph glyph-name="bracketleft" unicode="[" horiz-adv-x="294" 
d="M-47 -219l353 1022h130l-5 -16l-47 -2c-35 -1 -50 -10 -59 -37l-314 -912c-10 -28 0 -36 34 -38l45 -2l-6 -15h-131z" />
    <glyph glyph-name="backslash" unicode="\" horiz-adv-x="734" 
d="M626 -52h-40l-405 837h40z" />
    <glyph glyph-name="bracketright" unicode="]" horiz-adv-x="294" 
d="M367 803l-353 -1022h-130l5 16l47 2c35 1 50 10 59 37l314 912c10 28 0 36 -34 38l-45 2l6 15h131z" />
    <glyph glyph-name="asciicircum" unicode="^" horiz-adv-x="653" 
d="M136 361l355 415h32l69 -415h-32l-63 379l-324 -379h-37z" />
    <glyph glyph-name="underscore" unicode="_" horiz-adv-x="598" 
d="M-75 -71l10 30h552l-10 -30h-552z" />
    <glyph glyph-name="grave" unicode="`" 
d="M45 588h-11l-86 175l1 4h51z" />
    <glyph glyph-name="a" unicode="a" horiz-adv-x="572" 
d="M112 -11c-62 0 -97 38 -97 104c0 180 204 422 362 422c56 0 80 -41 80 -87h2l28 80h52l-160 -434c-19 -50 -13 -60 6 -60c38 0 99 36 155 132l14 -6c-57 -100 -127 -151 -197 -151c-50 0 -50 27 -28 85l43 116h-2c-81 -131 -175 -201 -258 -201zM139 20
c93 0 216 132 277 297c45 123 23 181 -40 181c-134 0 -298 -238 -298 -399c0 -50 19 -79 61 -79z" />
    <glyph glyph-name="b" unicode="b" horiz-adv-x="545" 
d="M152 -11c-83 0 -141 34 -90 182l189 548l-83 24l2 6l155 23l-129 -372l-36 -95h2c81 136 179 210 267 210c68 0 103 -41 103 -109c0 -182 -211 -417 -380 -417zM160 6c138 0 311 230 311 395c0 52 -23 82 -71 82c-93 0 -222 -134 -279 -298c-47 -133 -32 -179 39 -179z
" />
    <glyph glyph-name="c" unicode="c" horiz-adv-x="464" 
d="M164 -11c-80 0 -132 52 -132 147c0 184 168 379 333 379c69 0 102 -40 102 -87c0 -35 -31 -61 -68 -55c19 81 12 125 -45 125c-120 0 -260 -170 -260 -349c0 -89 46 -129 100 -129c66 0 131 41 186 153l14 -6c-59 -125 -132 -178 -230 -178z" />
    <glyph glyph-name="d" unicode="d" horiz-adv-x="584" 
d="M117 -11c-62 0 -100 39 -100 110c0 179 202 416 357 416c56 0 83 -38 85 -87h2l99 291l-90 24l3 6l160 23l-239 -698c-17 -51 -12 -60 8 -60c37 0 99 36 153 132l14 -6c-55 -100 -124 -151 -195 -151c-50 0 -51 27 -31 85l42 119h-2c-81 -134 -175 -204 -266 -204z
M148 20c93 0 219 132 275 293c43 122 16 185 -48 185c-135 0 -295 -228 -295 -392c0 -56 23 -86 68 -86z" />
    <glyph glyph-name="e" unicode="e" horiz-adv-x="474" 
d="M163 -11c-81 0 -133 52 -133 147c0 189 186 379 344 379c74 0 104 -36 104 -86c0 -43 -32 -97 -96 -119l-252 -1c-24 -49 -38 -104 -38 -160c0 -89 46 -129 99 -129c69 0 141 45 197 157l15 -6c-61 -125 -141 -182 -240 -182zM371 498c-83 0 -176 -71 -231 -170h141
c88 0 160 50 160 113c0 36 -19 57 -70 57z" />
    <glyph glyph-name="f" unicode="f" horiz-adv-x="352" 
d="M-124 -257c-35 0 -57 17 -57 41c0 20 16 39 37 40c25 -20 52 -35 84 -35c44 0 70 37 122 227l123 454h-95l6 16l36 2c65 4 68 9 86 56c69 180 171 227 245 227c35 0 57 -17 57 -41c0 -20 -16 -39 -37 -40c-25 20 -58 35 -90 35c-46 0 -91 -42 -121 -122
c-11 -29 -20 -62 -27 -101h189l-18 -32h-178l-115 -405c-82 -288 -182 -322 -247 -322z" />
    <glyph glyph-name="g" unicode="g" horiz-adv-x="494" 
d="M220 160c-17 0 -33 2 -48 6l-88 -75l166 -99c72 -43 111 -76 111 -124c0 -84 -127 -127 -241 -127c-141 0 -246 48 -246 129c0 70 102 112 224 152l-52 57l109 93c-51 19 -81 64 -81 119c0 119 118 224 243 224c38 0 71 -10 95 -28l26 38h129l-29 -43h-119
c29 -23 46 -58 46 -98c0 -119 -120 -224 -245 -224zM229 178c90 0 175 84 175 202c0 70 -31 118 -97 118c-90 0 -174 -85 -174 -203c0 -70 31 -117 96 -117zM-74 -130c0 -62 80 -113 205 -113c93 0 184 32 184 89c0 31 -25 59 -93 100l-112 67c-103 -39 -184 -73 -184 -143z
" />
    <glyph glyph-name="h" unicode="h" horiz-adv-x="565" 
d="M265 -11c-50 0 -82 33 -82 66c0 30 27 44 51 42c8 -63 19 -90 45 -90c84 0 193 217 193 370c0 74 -23 106 -67 106c-101 0 -225 -164 -288 -333c-21 -55 -35 -92 -52 -145l-58 -12l251 725l-77 25l3 6l148 23l-129 -372l-48 -130h2c87 159 178 245 276 245
c62 0 100 -40 100 -127c0 -163 -148 -399 -268 -399z" />
    <glyph glyph-name="i" unicode="i" horiz-adv-x="299" 
d="M268 730c0 22 20 42 43 42s43 -20 43 -42c0 -23 -20 -43 -43 -43s-43 20 -43 43zM80 -11c-50 0 -57 27 -35 83l155 402l-91 6l6 14l154 16l-168 -436c-19 -50 -13 -60 7 -60c38 0 99 36 153 132l14 -6c-55 -100 -124 -151 -195 -151z" />
    <glyph glyph-name="j" unicode="j" horiz-adv-x="262" 
d="M277 730c0 22 20 42 43 42s43 -20 43 -42c0 -23 -20 -43 -43 -43s-43 20 -43 43zM-210 -259l-6 11c134 83 168 106 235 271l182 451l-90 6l5 14l155 16l-200 -495c-52 -128 -71 -161 -162 -210z" />
    <glyph glyph-name="k" unicode="k" horiz-adv-x="567" 
d="M406 -32c-44 0 -69 24 -110 83l-141 203c194 3 319 74 319 176c0 41 -27 64 -68 64c-100 0 -213 -128 -259 -258l-37 -105l-42 -125l-61 -13l250 726l-84 24l3 6l155 23l-114 -331l-39 -104h2c70 119 161 181 248 181c70 0 100 -36 100 -82c0 -89 -122 -170 -301 -194
l139 -200c31 -45 43 -52 60 -52c21 0 50 14 77 102l15 -4c-29 -98 -66 -120 -112 -120z" />
    <glyph glyph-name="l" unicode="l" horiz-adv-x="287" 
d="M73 -11c-49 0 -54 26 -34 83l222 647l-83 24l3 6l154 23l-241 -698c-18 -51 -12 -60 8 -60c37 0 99 36 152 132l14 -6c-55 -100 -124 -151 -195 -151z" />
    <glyph glyph-name="m" unicode="m" horiz-adv-x="909" 
d="M687 -11c-50 0 -63 28 -38 83l105 235c50 112 63 178 4 178c-50 0 -106 -51 -164 -122c-75 -90 -166 -239 -211 -357l-59 -13l120 314c43 113 64 178 5 178c-49 0 -106 -50 -164 -121c-74 -91 -166 -240 -211 -358l-60 -13l184 480l-90 7l6 14l153 16l-146 -374h1
c44 93 107 187 156 248c69 85 132 131 198 131c88 0 72 -81 21 -208l-68 -171h1c45 93 108 187 157 248c69 85 131 131 198 131c87 0 83 -81 26 -208l-104 -233c-22 -49 -11 -60 8 -60c38 0 100 36 154 132l13 -6c-55 -100 -124 -151 -195 -151z" />
    <glyph glyph-name="n" unicode="n" horiz-adv-x="600" 
d="M379 -11c-50 0 -63 28 -38 83l105 235c50 112 62 178 3 178c-49 0 -106 -50 -164 -121c-74 -91 -166 -240 -211 -358l-60 -13l184 480l-90 7l6 14l153 16l-146 -374h1c44 93 107 187 156 248c69 85 132 131 198 131c88 0 83 -81 26 -208l-104 -233c-22 -49 -11 -60 9 -60
c37 0 99 36 153 132l14 -6c-55 -100 -125 -151 -195 -151z" />
    <glyph glyph-name="o" unicode="o" horiz-adv-x="556" 
d="M198 -11c-97 0 -161 64 -161 164c0 179 156 362 323 362c97 0 161 -65 161 -163c0 -181 -155 -363 -323 -363zM216 8c117 0 244 154 244 343c0 97 -49 144 -117 144c-118 0 -244 -153 -244 -342c0 -97 48 -145 117 -145z" />
    <glyph glyph-name="p" unicode="p" horiz-adv-x="564" 
d="M-55 -248l248 722l-91 6l6 14l153 16l-27 -79c48 54 123 84 179 84c83 0 132 -45 132 -129c0 -188 -212 -412 -463 -396l-82 -238h-55zM380 482c-50 0 -107 -23 -153 -70l-139 -406c215 -14 395 202 395 366c0 76 -38 110 -103 110z" />
    <glyph glyph-name="q" unicode="q" horiz-adv-x="549" 
d="M227 -248l115 336l35 92h-2c-80 -127 -171 -191 -258 -191c-62 0 -100 39 -100 110c0 179 202 416 357 416c56 0 84 -38 87 -87h2l28 80h51l-260 -756h-55zM80 106c0 -56 23 -86 68 -86c93 0 219 132 275 293c43 122 16 185 -48 185c-135 0 -295 -228 -295 -392z" />
    <glyph glyph-name="r" unicode="r" horiz-adv-x="427" 
d="M15 -5l183 479l-90 6l6 14l153 16l-134 -348h1c61 117 119 213 165 267c50 58 88 86 132 86c31 0 47 -17 47 -43c0 -22 -14 -48 -51 -51l-38 62c-97 -44 -205 -260 -289 -413l-26 -65z" />
    <glyph glyph-name="s" unicode="s" horiz-adv-x="402" 
d="M122 8c67 0 132 31 132 98c0 41 -20 71 -52 113l-32 42c-31 41 -52 74 -52 115c0 83 89 139 177 139c73 0 103 -30 104 -62c0 -23 -19 -45 -50 -42c-30 84 -32 85 -66 85c-51 0 -122 -29 -122 -87c0 -35 17 -62 49 -104l33 -43c31 -40 57 -79 57 -127
c0 -88 -93 -146 -187 -146c-83 0 -111 44 -111 76c0 30 23 45 50 42c29 -96 32 -99 70 -99z" />
    <glyph glyph-name="t" unicode="t" horiz-adv-x="353" 
d="M84 -11c-50 0 -58 28 -35 84l161 397h-127l12 32h128l45 111h55l-45 -111h153l-12 -32h-154l-160 -395c-20 -50 -13 -61 7 -61c37 0 101 36 155 132l14 -6c-55 -100 -126 -151 -197 -151z" />
    <glyph glyph-name="u" unicode="u" horiz-adv-x="601" 
d="M271 510l-129 -312c-47 -114 -62 -179 -5 -179c49 0 106 51 164 122c74 90 164 238 212 358l58 8l-167 -433c-19 -50 -13 -60 7 -60c37 0 99 36 153 132l14 -6c-55 -100 -124 -151 -195 -151c-50 0 -57 27 -35 83l113 291h-1c-42 -90 -105 -183 -153 -243
c-68 -84 -130 -131 -197 -131c-87 0 -79 77 -25 209l113 276l-91 6l6 14z" />
    <glyph glyph-name="v" unicode="v" horiz-adv-x="577" 
d="M551 424c0 -227 -175 -435 -349 -435c-91 0 -134 53 -134 122c0 93 76 218 256 342h-223l-51 -90h-15l62 139h313c-157 -110 -289 -235 -289 -358c0 -69 40 -105 110 -105c126 0 274 140 299 329l-55 102c-5 29 18 45 37 45c23 0 39 -18 39 -91z" />
    <glyph glyph-name="w" unicode="w" horiz-adv-x="843" 
d="M808 422c0 -211 -131 -433 -302 -433c-63 0 -104 31 -128 80c-62 -48 -130 -80 -194 -80c-67 0 -116 41 -116 116c0 93 72 218 259 348h-228l-51 -91h-15l62 140h315c-156 -111 -289 -238 -289 -358c0 -66 33 -105 102 -105c48 0 99 19 146 51c-11 32 -16 69 -16 108
c0 149 108 317 202 317c33 0 57 -22 57 -72c0 -43 -20 -124 -86 -218c-31 -45 -71 -91 -115 -130c25 -35 63 -56 112 -56c127 0 247 140 264 329l-55 102c-5 29 18 45 37 45c23 0 39 -20 39 -93zM376 225c0 -44 8 -82 24 -112c41 32 79 73 110 117c57 80 74 143 74 179
c0 41 -21 60 -49 60c-69 0 -159 -111 -159 -244z" />
    <glyph glyph-name="x" unicode="x" horiz-adv-x="593" 
d="M365 -11c-33 0 -56 15 -68 94l-19 128c-91 -146 -165 -222 -240 -222c-45 0 -66 34 -66 64c0 28 22 50 51 52c4 -56 8 -89 37 -89c62 0 139 103 214 223l-27 179c-7 44 -14 70 -37 70c-31 0 -82 -44 -127 -119l-14 9c53 87 110 137 163 137c33 0 56 -15 68 -95l19 -125
c90 144 164 220 238 220c45 0 66 -34 66 -64c0 -28 -22 -50 -51 -52c-4 56 -8 89 -37 89c-62 0 -138 -102 -212 -221l27 -181c7 -44 14 -70 37 -70c31 0 82 44 127 118l14 -8c-53 -87 -111 -137 -163 -137z" />
    <glyph glyph-name="y" unicode="y" horiz-adv-x="550" 
d="M-106 -259c-49 0 -69 20 -69 43c0 16 11 29 27 35c25 -25 44 -36 71 -36c54 0 109 37 219 175l30 37l-10 477l-92 4l2 13l145 21l9 -446l257 324c77 97 99 127 127 127c19 0 28 -15 28 -33c0 -12 -5 -27 -16 -34c-48 -15 -79 -21 -130 -84l-329 -411
c-107 -133 -193 -212 -269 -212z" />
    <glyph glyph-name="z" unicode="z" horiz-adv-x="534" 
d="M96 358l58 144h409l-338 -280l72 -135c39 -73 62 -96 99 -96c49 0 78 50 36 176l13 6c47 -136 18 -203 -62 -203c-60 0 -96 30 -148 119l-56 95l-140 -116c-21 -18 -16 -41 -9 -74c-27 -9 -57 1 -57 23c0 16 10 30 41 56l461 380h-316l-50 -95h-13z" />
    <glyph glyph-name="braceleft" unicode="{" horiz-adv-x="324" 
d="M128 -235c-108 18 -176 105 -96 252l59 109c58 107 29 161 -48 175l5 15c87 14 153 67 169 176l16 108c23 154 121 209 251 209v-16c-120 -2 -179 -51 -197 -179l-14 -101c-18 -121 -95 -186 -186 -204v-2c74 -18 113 -82 46 -202l-55 -101c-68 -125 -42 -204 57 -224z
" />
    <glyph glyph-name="bar" unicode="|" horiz-adv-x="331" 
d="M161 -219v1022h37v-1022h-37z" />
    <glyph glyph-name="braceright" unicode="}" horiz-adv-x="324" 
d="M220 808c108 -18 176 -105 96 -252l-59 -109c-58 -107 -29 -161 48 -175l-5 -15c-87 -14 -153 -67 -169 -176l-16 -108c-23 -154 -121 -209 -251 -209v16c120 2 179 51 197 179l14 101c18 121 95 186 186 204v2c-74 18 -113 82 -46 202l55 101c68 125 42 204 -57 224z
" />
    <glyph glyph-name="asciitilde" unicode="~" horiz-adv-x="653" 
d="M214 326c108 0 150 -98 234 -98c38 0 90 13 101 94h32c-11 -90 -74 -122 -134 -122c-98 0 -138 97 -233 97c-38 0 -90 -12 -101 -93h-32c11 90 74 122 133 122z" />
    <glyph glyph-name="uni00A0" unicode="&#xa0;" horiz-adv-x="294" 
 />
    <glyph glyph-name="exclamdown" unicode="&#xa1;" horiz-adv-x="247" 
d="M189 515c24 0 43 -20 43 -44s-19 -44 -43 -44c-25 0 -44 20 -44 44s19 44 44 44zM153 308c-86 -296 -97 -394 -147 -555c-5 -17 -73 -17 -67 4c50 158 99 255 195 551h19z" />
    <glyph glyph-name="cent" unicode="&#xa2;" horiz-adv-x="470" 
d="M92 -120l43 111c-63 12 -103 62 -103 145c0 178 158 367 318 378l43 106h23l-43 -105c64 -3 94 -42 94 -87c0 -35 -31 -61 -68 -55c19 81 12 125 -45 125c-120 0 -260 -170 -260 -349c0 -89 46 -129 100 -129c66 0 131 41 186 153l14 -6c-59 -125 -132 -178 -230 -178h-7
l-42 -109h-23z" />
    <glyph glyph-name="sterling" unicode="&#xa3;" horiz-adv-x="634" 
d="M-26 0l1 4l109 76c143 100 201 172 201 241c0 5 0 9 -1 14h-189l8 24h177c-3 10 -6 20 -10 29l-28 69c-14 34 -21 68 -21 99c0 122 144 216 288 216c112 0 166 -50 166 -98c0 -27 -24 -47 -61 -44c8 75 -44 119 -131 119c-104 0 -205 -70 -205 -171c0 -27 7 -56 19 -86
l28 -69c8 -21 15 -42 17 -64h201l-8 -24h-192c-6 -66 -63 -143 -221 -249l-58 -39h470l-28 -47h-532z" />
    <glyph glyph-name="yen" unicode="&#xa5;" horiz-adv-x="845" 
d="M232 0l5 15l47 1c27 1 42 9 47 27l50 162h-204l8 24h203l27 87h-200l8 25h200v1l-154 374c-7 17 -11 23 -38 25l-51 3l5 14h240l-5 -14l-56 -3c-28 -1 -43 -8 -36 -25l143 -348l355 348c17 17 4 23 -25 25l-54 3l5 14h215l-5 -14l-53 -3c-25 -1 -32 -9 -49 -25l-381 -374
v-1h203l-8 -25h-203l-27 -87h200l-8 -24h-200l-50 -162c-6 -18 6 -26 30 -27l48 -1l-5 -15h-227z" />
    <glyph glyph-name="brokenbar" unicode="&#xa6;" horiz-adv-x="331" 
d="M161 401v402h37v-402h-37zM161 -219v402h37v-402h-37z" />
    <glyph glyph-name="section" unicode="&#xa7;" horiz-adv-x="606" 
d="M245 202l-38 66c-39 68 -63 130 -63 205c0 157 148 299 357 299c126 0 165 -68 165 -110c0 -39 -36 -53 -72 -48c15 83 -11 137 -108 137c-108 0 -164 -69 -164 -153c0 -50 20 -107 57 -171l38 -66c46 -80 88 -158 88 -248c0 -152 -161 -309 -361 -309
c-134 0 -186 79 -186 134c0 40 32 59 72 50c-16 -88 12 -166 121 -166c107 0 168 93 168 175c0 63 -25 120 -74 205zM247 -165c131 45 221 154 221 271c0 84 -42 163 -83 235l-39 68c-37 65 -56 121 -56 170c0 54 22 121 95 161c-121 -37 -206 -140 -206 -260
c0 -67 22 -127 56 -185l39 -67c53 -90 79 -146 79 -214c0 -62 -34 -135 -106 -179z" />
    <glyph glyph-name="dieresis" unicode="&#xa8;" 
d="M118 665c-23 0 -43 20 -43 43c0 22 20 42 43 42c22 0 42 -20 42 -42c0 -23 -20 -43 -42 -43zM-118 665c-22 0 -42 20 -42 43c0 22 20 42 42 42c23 0 43 -20 43 -42c0 -23 -20 -43 -43 -43z" />
    <glyph glyph-name="copyright" unicode="&#xa9;" horiz-adv-x="913" 
d="M497 -11c-227 0 -387 170 -387 391c0 222 160 392 387 392c226 0 387 -170 387 -392c0 -221 -161 -391 -387 -391zM497 11c192 0 359 140 359 369s-167 370 -359 370s-359 -141 -359 -370s167 -369 359 -369zM510 164c-137 0 -241 85 -241 223c0 137 105 223 244 223
c50 0 102 -10 136 -31l25 -112h-5l-49 86c-8 14 -13 18 -21 23c-15 10 -50 18 -87 18c-101 0 -197 -60 -197 -198c0 -129 78 -216 199 -216c37 0 73 8 89 18c8 5 13 8 22 24l50 87h6l-30 -115c-34 -21 -90 -30 -141 -30z" />
    <glyph glyph-name="ordfeminine" unicode="&#xaa;" horiz-adv-x="533" 
d="M199 351c-49 0 -78 31 -78 84c0 146 168 340 296 340c44 0 65 -31 64 -67h2l22 62h46l-129 -349c-15 -40 -11 -49 5 -49c30 0 82 29 128 108l11 -6c-46 -81 -106 -123 -165 -123c-40 0 -42 22 -24 70l35 91h-2c-66 -107 -138 -161 -211 -161zM226 378
c66 0 174 108 222 237c37 100 19 147 -31 147c-107 0 -242 -192 -242 -323c0 -39 17 -61 51 -61z" />
    <glyph glyph-name="guillemotleft" unicode="&#xab;" horiz-adv-x="551" 
d="M107 254l105 -210l-12 -7l-147 220l299 220l7 -10zM310 254l105 -210l-12 -7l-147 220l299 220l7 -10z" />
    <glyph glyph-name="uni00AD" unicode="&#xad;" horiz-adv-x="448" 
d="M75 244l11 33h294l-11 -33h-294z" />
    <glyph glyph-name="registered" unicode="&#xae;" horiz-adv-x="913" 
d="M497 -11c-227 0 -387 170 -387 391c0 222 160 392 387 392c226 0 387 -170 387 -392c0 -221 -161 -391 -387 -391zM497 11c192 0 359 140 359 369s-167 370 -359 370s-359 -141 -359 -370s167 -369 359 -369zM315 179v12l28 2c16 1 24 4 24 18v366c0 13 -8 17 -24 18
l-28 2v12h155c97 0 175 -21 175 -106c0 -68 -56 -101 -131 -108l202 -216h-51l-195 211h-63v-179c0 -14 9 -17 24 -18l28 -2v-12h-144zM407 406h59c77 0 134 23 134 94s-57 93 -134 93h-59v-187z" />
    <glyph glyph-name="macron" unicode="&#xaf;" 
d="M-147 668l11 27h282l-10 -27h-283z" />
    <glyph glyph-name="degree" unicode="&#xb0;" horiz-adv-x="450" 
d="M327 434c-95 0 -170 75 -170 169s75 169 170 169s170 -75 170 -169s-75 -169 -170 -169zM327 461c73 0 139 56 139 142c0 85 -66 140 -139 140s-139 -55 -139 -140c0 -86 66 -142 139 -142z" />
    <glyph glyph-name="plusminus" unicode="&#xb1;" horiz-adv-x="653" 
d="M291 93v204h-239v32h239v200h33v-200h238v-32h-238v-204h-33zM52 0v31h510v-31h-510z" />
    <glyph glyph-name="twosuperior" unicode="&#xb2;" horiz-adv-x="353" 
d="M62 401l1 3c236 165 341 249 341 332c0 45 -28 70 -76 70c-52 0 -101 -32 -114 -104h-11c10 80 64 127 140 127c65 0 102 -36 102 -88c0 -72 -64 -132 -257 -260l-68 -45h185c24 0 30 2 43 19l39 51l10 -2l-66 -103h-269z" />
    <glyph glyph-name="threesuperior" unicode="&#xb3;" horiz-adv-x="343" 
d="M388 548c0 -79 -75 -156 -174 -156c-71 0 -113 44 -113 78c0 22 19 34 38 30c-1 -59 28 -94 86 -94c70 0 123 53 123 127c0 62 -40 99 -76 99c-13 0 -24 -2 -32 -4l-2 11l21 5c79 14 131 53 131 103c0 36 -26 59 -72 59c-43 0 -88 -22 -104 -82h-11c14 70 67 105 130 105
c59 0 96 -30 96 -73c0 -50 -49 -87 -109 -101v-1c39 -15 68 -54 68 -106z" />
    <glyph glyph-name="acute" unicode="&#xb4;" 
d="M-110 588l156 179h66l-2 -4l-207 -175h-13z" />
    <glyph glyph-name="paragraph" unicode="&#xb6;" horiz-adv-x="583" 
d="M163 -202l148 488h-11c-119 0 -192 71 -192 168c0 176 169 304 432 304h147l-4 -17l-52 -2c-27 -1 -42 -7 -48 -27l-247 -804l-51 -32l131 430c-29 -10 -54 -16 -82 -19l-143 -471z" />
    <glyph glyph-name="periodcentered" unicode="&#xb7;" horiz-adv-x="242" 
d="M124 216c-24 0 -43 20 -43 44s19 44 43 44c25 0 44 -20 44 -44s-19 -44 -44 -44z" />
    <glyph glyph-name="cedilla" unicode="&#xb8;" 
d="M-24 -252c-60 0 -100 35 -100 65c0 17 13 25 29 18c-2 -44 34 -67 75 -67s66 17 66 47s-42 57 -84 88l134 101h25l-117 -88c37 -26 71 -53 71 -91c0 -43 -41 -73 -99 -73z" />
    <glyph glyph-name="onesuperior" unicode="&#xb9;" horiz-adv-x="233" 
d="M94 401l3 12l37 2c16 1 23 5 27 17l124 360l-104 -39l6 19l149 54l-135 -394c-4 -12 0 -18 14 -18l33 -1l-4 -12h-150z" />
    <glyph glyph-name="ordmasculine" unicode="&#xba;" horiz-adv-x="472" 
d="M264 351c-78 0 -130 52 -130 131c0 145 126 293 263 293c78 0 129 -51 129 -130c0 -146 -126 -294 -262 -294zM282 368c89 0 190 122 190 281c0 72 -40 109 -92 109c-92 0 -191 -122 -191 -280c0 -73 39 -110 93 -110z" />
    <glyph glyph-name="guillemotright" unicode="&#xbb;" horiz-adv-x="552" 
d="M246 259l-105 210l12 7l147 -220l-299 -220l-7 10zM450 259l-105 210l12 7l147 -220l-299 -220l-7 10z" />
    <glyph glyph-name="onequarter" unicode="&#xbc;" horiz-adv-x="834" 
d="M76 341l3 12l37 2c16 1 23 5 27 17l124 360l-104 -39l6 19l149 54l-135 -394c-4 -12 0 -18 14 -18l33 -1l-4 -12h-150zM-42 0l831 758h45l-832 -758h-44zM608 0l39 114h-231l342 304h34l-95 -275h83l-11 -29h-82l-39 -114h-40zM468 143h189l82 238z" />
    <glyph glyph-name="onehalf" unicode="&#xbd;" horiz-adv-x="807" 
d="M76 341l3 12l37 2c16 1 23 5 27 17l124 360l-104 -39l6 19l149 54l-135 -394c-4 -12 0 -18 14 -18l33 -1l-4 -12h-150zM-42 0l831 758h45l-832 -758h-44zM394 0l1 3c236 165 341 249 341 332c0 45 -28 70 -76 70c-52 0 -101 -32 -114 -104h-11c10 80 64 127 140 127
c65 0 102 -36 102 -88c0 -72 -64 -132 -257 -260l-68 -45h185c24 0 30 2 43 19l39 51l10 -2l-66 -103h-269z" />
    <glyph glyph-name="threequarters" unicode="&#xbe;" horiz-adv-x="923" 
d="M370 488c0 -79 -75 -156 -174 -156c-71 0 -113 44 -113 78c0 22 19 34 38 30c-1 -59 28 -94 86 -94c70 0 123 53 123 127c0 62 -40 99 -76 99c-13 0 -24 -2 -32 -4l-2 11l21 5c79 14 131 53 131 103c0 36 -26 59 -72 59c-43 0 -88 -22 -104 -82h-11c14 70 67 105 130 105
c59 0 96 -30 96 -73c0 -50 -49 -87 -109 -101v-1c39 -15 68 -54 68 -106zM47 0l831 758h45l-832 -758h-44zM698 0l39 114h-231l342 304h34l-95 -275h83l-11 -29h-82l-39 -114h-40zM558 143h189l82 238z" />
    <glyph glyph-name="questiondown" unicode="&#xbf;" horiz-adv-x="576" 
d="M438 515c24 0 43 -20 43 -44s-19 -44 -43 -44c-25 0 -44 20 -44 44s19 44 44 44zM195 -237c89 0 165 39 183 123c22 4 53 -4 53 -30c0 -55 -95 -115 -223 -115c-143 0 -244 80 -244 207c0 103 67 167 211 184l117 14c35 4 42 8 57 49l42 116h17l-42 -148
c-18 -62 -34 -70 -89 -76l-101 -11c-124 -13 -182 -60 -182 -145c0 -102 90 -168 201 -168z" />
    <glyph glyph-name="Agrave" unicode="&#xc0;" horiz-adv-x="811" 
d="M845 837h-14l-145 134l1 1h67zM-138 0l5 15l52 3c26 1 49 10 66 25l805 735h17l-202 -734c-5 -19 5 -25 30 -26l52 -3l-5 -15h-241l4 15l53 3c26 1 42 7 47 26l73 258h-313l-284 -259c-16 -15 -21 -24 9 -25l60 -3l-6 -15h-222zM333 328h292l101 359z" />
    <glyph glyph-name="Aacute" unicode="&#xc1;" horiz-adv-x="811" 
d="M756 837l177 135h76l-1 -1l-237 -134h-15zM-138 0l5 15l52 3c26 1 49 10 66 25l805 735h17l-202 -734c-5 -19 5 -25 30 -26l52 -3l-5 -15h-241l4 15l53 3c26 1 42 7 47 26l73 258h-313l-284 -259c-16 -15 -21 -24 9 -25l60 -3l-6 -15h-222zM333 328h292l101 359z" />
    <glyph glyph-name="Acircumflex" unicode="&#xc2;" horiz-adv-x="811" 
d="M638 833l215 144h8l79 -144h-13l-81 95l-192 -95h-16zM-138 0l5 15l52 3c26 1 49 10 66 25l805 735h17l-202 -734c-5 -19 5 -25 30 -26l52 -3l-5 -15h-241l4 15l53 3c26 1 42 7 47 26l73 258h-313l-284 -259c-16 -15 -21 -24 9 -25l60 -3l-6 -15h-222zM333 328h292
l101 359z" />
    <glyph glyph-name="Atilde" unicode="&#xc3;" horiz-adv-x="811" 
d="M888 846c-74 0 -91 75 -150 75c-34 0 -61 -20 -77 -66h-15c17 69 52 108 101 108c69 0 84 -75 148 -75c32 0 58 21 74 65h14c-19 -76 -55 -107 -95 -107zM-138 0l5 15l52 3c26 1 49 10 66 25l805 735h17l-202 -734c-5 -19 5 -25 30 -26l52 -3l-5 -15h-241l4 15l53 3
c26 1 42 7 47 26l73 258h-313l-284 -259c-16 -15 -21 -24 9 -25l60 -3l-6 -15h-222zM333 328h292l101 359z" />
    <glyph glyph-name="Adieresis" unicode="&#xc4;" horiz-adv-x="811" 
d="M931 893c-18 5 -29 24 -25 43c5 17 25 29 43 24s29 -25 24 -42c-4 -19 -24 -30 -42 -25zM695 893c-18 5 -29 24 -24 43c4 17 24 29 42 24s29 -25 25 -42c-5 -19 -25 -30 -43 -25zM-138 0l5 15l52 3c26 1 49 10 66 25l805 735h17l-202 -734c-5 -19 5 -25 30 -26l52 -3
l-5 -15h-241l4 15l53 3c26 1 42 7 47 26l73 258h-313l-284 -259c-16 -15 -21 -24 9 -25l60 -3l-6 -15h-222zM333 328h292l101 359z" />
    <glyph glyph-name="Aring" unicode="&#xc5;" horiz-adv-x="811" 
d="M826 834c-60 0 -109 46 -109 105c0 60 49 106 109 106c61 0 110 -46 110 -106c0 -59 -49 -105 -110 -105zM826 858c47 0 83 34 83 81s-36 81 -83 81s-82 -34 -82 -81s35 -81 82 -81zM-138 0l5 15l52 3c26 1 49 10 66 25l805 735h17l-202 -734c-5 -19 5 -25 30 -26l52 -3
l-5 -15h-241l4 15l53 3c26 1 42 7 47 26l73 258h-313l-284 -259c-16 -15 -21 -24 9 -25l60 -3l-6 -15h-222zM333 328h292l101 359z" />
    <glyph glyph-name="AE" unicode="&#xc6;" horiz-adv-x="1157" 
d="M-135 0l5 15l52 3c26 1 48 8 65 25l749 715h435l-26 -186h-9l-22 150c-2 12 -5 14 -18 14h-306l-99 -327h192c22 0 23 2 29 14l56 108h9l-82 -268h-9l10 107c1 13 1 15 -21 15h-192l-111 -363h359c14 0 19 3 30 14l149 154h8l-117 -190h-586l6 15l52 3c26 1 41 7 47 26
l78 258h-305l-274 -259c-16 -15 -19 -24 11 -25l60 -3l-6 -15h-219zM320 328h287l117 385z" />
    <glyph glyph-name="Ccedilla" unicode="&#xc7;" horiz-adv-x="799" 
d="M273 -252c-60 0 -100 35 -100 65c0 17 13 25 28 18c-2 -44 36 -67 77 -67s64 17 64 47s-42 57 -84 88l118 90c-157 3 -292 91 -292 292c0 266 243 491 514 491c96 0 182 -24 228 -56l1 -176h-15l-41 143c-10 34 -20 39 -46 48c-33 11 -75 19 -125 19
c-244 0 -447 -211 -447 -488c0 -179 106 -252 234 -252c64 0 100 9 132 16c13 3 31 8 54 31l167 173h14l-122 -189c-57 -32 -144 -49 -228 -52l-103 -77c37 -27 70 -53 70 -88c0 -46 -41 -76 -98 -76z" />
    <glyph glyph-name="Egrave" unicode="&#xc8;" horiz-adv-x="725" 
d="M599 837h-14l-145 134l1 1h67zM-17 0l4 15l53 3c26 1 41 7 47 26l205 670c6 19 -6 25 -31 26l-51 3l5 15h529l-26 -186h-15l-20 150c-2 12 -5 14 -19 14h-306l-100 -327h187c21 0 23 1 29 14l55 108h15l-82 -268h-14l10 107c1 13 1 15 -21 15h-187l-110 -363h355
c14 0 19 3 29 14l147 154h15l-121 -190h-582z" />
    <glyph glyph-name="Eacute" unicode="&#xc9;" horiz-adv-x="725" 
d="M510 837l177 135h76l-1 -1l-237 -134h-15zM-17 0l4 15l53 3c26 1 41 7 47 26l205 670c6 19 -6 25 -31 26l-51 3l5 15h529l-26 -186h-15l-20 150c-2 12 -5 14 -19 14h-306l-100 -327h187c21 0 23 1 29 14l55 108h15l-82 -268h-14l10 107c1 13 1 15 -21 15h-187l-110 -363
h355c14 0 19 3 29 14l147 154h15l-121 -190h-582z" />
    <glyph glyph-name="Ecircumflex" unicode="&#xca;" horiz-adv-x="725" 
d="M393 833l215 144h8l79 -144h-13l-81 95l-192 -95h-16zM-17 0l4 15l53 3c26 1 41 7 47 26l205 670c6 19 -6 25 -31 26l-51 3l5 15h529l-26 -186h-15l-20 150c-2 12 -5 14 -19 14h-306l-100 -327h187c21 0 23 1 29 14l55 108h15l-82 -268h-14l10 107c1 13 1 15 -21 15h-187
l-110 -363h355c14 0 19 3 29 14l147 154h15l-121 -190h-582z" />
    <glyph glyph-name="Edieresis" unicode="&#xcb;" horiz-adv-x="725" 
d="M685 893c-18 5 -29 24 -25 43c5 17 25 29 43 24s29 -25 24 -42c-4 -19 -24 -30 -42 -25zM449 893c-18 5 -29 24 -24 43c4 17 24 29 42 24s29 -25 25 -42c-5 -19 -25 -30 -43 -25zM-17 0l4 15l53 3c26 1 41 7 47 26l205 670c6 19 -6 25 -31 26l-51 3l5 15h529l-26 -186
h-15l-20 150c-2 12 -5 14 -19 14h-306l-100 -327h187c21 0 23 1 29 14l55 108h15l-82 -268h-14l10 107c1 13 1 15 -21 15h-187l-110 -363h355c14 0 19 3 29 14l147 154h15l-121 -190h-582z" />
    <glyph glyph-name="Igrave" unicode="&#xcc;" horiz-adv-x="358" 
d="M417 837h-14l-145 134l1 1h67zM-17 0l4 15l53 3c26 1 41 7 47 26l204 670c6 19 -6 25 -30 26l-51 3l5 15h241l-5 -15l-53 -3c-26 -1 -41 -7 -47 -26l-205 -670c-6 -19 7 -25 31 -26l52 -3l-5 -15h-241z" />
    <glyph glyph-name="Iacute" unicode="&#xcd;" horiz-adv-x="358" 
d="M328 837l177 135h76l-1 -1l-237 -134h-15zM-17 0l4 15l53 3c26 1 41 7 47 26l204 670c6 19 -6 25 -30 26l-51 3l5 15h241l-5 -15l-53 -3c-26 -1 -41 -7 -47 -26l-205 -670c-6 -19 7 -25 31 -26l52 -3l-5 -15h-241z" />
    <glyph glyph-name="Icircumflex" unicode="&#xce;" horiz-adv-x="358" 
d="M211 833l215 144h8l79 -144h-13l-81 95l-192 -95h-16zM-17 0l4 15l53 3c26 1 41 7 47 26l204 670c6 19 -6 25 -30 26l-51 3l5 15h241l-5 -15l-53 -3c-26 -1 -41 -7 -47 -26l-205 -670c-6 -19 7 -25 31 -26l52 -3l-5 -15h-241z" />
    <glyph glyph-name="Idieresis" unicode="&#xcf;" horiz-adv-x="358" 
d="M503 893c-18 5 -29 24 -25 43c5 17 25 29 43 24s29 -25 24 -42c-4 -19 -24 -30 -42 -25zM267 893c-18 5 -29 24 -24 43c4 17 24 29 42 24s29 -25 25 -42c-5 -19 -25 -30 -43 -25zM-17 0l4 15l53 3c26 1 41 7 47 26l204 670c6 19 -6 25 -30 26l-51 3l5 15h241l-5 -15
l-53 -3c-26 -1 -41 -7 -47 -26l-205 -670c-6 -19 7 -25 31 -26l52 -3l-5 -15h-241z" />
    <glyph glyph-name="Eth" unicode="&#xd0;" horiz-adv-x="850" 
d="M-17 0l4 15l53 3c26 1 41 7 47 26l104 342h-93l8 26h93l92 302c6 19 -6 25 -30 26l-51 3l5 15h248c225 0 387 -81 387 -268c0 -281 -259 -490 -598 -490h-269zM139 21h117c299 0 528 202 528 477c0 165 -127 239 -321 239h-105l-99 -325h206l-8 -26h-206z" />
    <glyph glyph-name="Ntilde" unicode="&#xd1;" horiz-adv-x="885" 
d="M723 846c-74 0 -91 75 -150 75c-34 0 -61 -20 -77 -66h-15c17 69 52 108 101 108c69 0 84 -75 148 -75c32 0 58 21 74 65h14c-19 -76 -55 -107 -95 -107zM661 -20l-344 728l-203 -664c-6 -19 6 -25 30 -26l52 -3l-5 -15h-208l4 15l53 3c26 1 41 7 47 26l205 670
c6 19 -6 25 -31 26l-51 3l5 15h145l310 -663l191 619c6 19 -6 25 -31 26l-51 3l5 15h209l-5 -15l-54 -3c-25 -1 -41 -7 -47 -26l-224 -734h-2z" />
    <glyph glyph-name="Ograve" unicode="&#xd2;" horiz-adv-x="877" 
d="M688 837h-14l-145 134l1 1h67zM371 -11c-159 0 -292 99 -292 280c0 226 212 503 508 503c159 0 292 -99 292 -281c0 -225 -212 -502 -508 -502zM380 9c239 0 430 244 430 484c0 163 -97 258 -233 258c-238 0 -429 -244 -429 -483c0 -164 97 -259 232 -259z" />
    <glyph glyph-name="Oacute" unicode="&#xd3;" horiz-adv-x="877" 
d="M599 837l177 135h76l-1 -1l-237 -134h-15zM371 -11c-159 0 -292 99 -292 280c0 226 212 503 508 503c159 0 292 -99 292 -281c0 -225 -212 -502 -508 -502zM380 9c239 0 430 244 430 484c0 163 -97 258 -233 258c-238 0 -429 -244 -429 -483c0 -164 97 -259 232 -259z
" />
    <glyph glyph-name="Ocircumflex" unicode="&#xd4;" horiz-adv-x="877" 
d="M481 833l215 144h8l79 -144h-13l-81 95l-192 -95h-16zM371 -11c-159 0 -292 99 -292 280c0 226 212 503 508 503c159 0 292 -99 292 -281c0 -225 -212 -502 -508 -502zM380 9c239 0 430 244 430 484c0 163 -97 258 -233 258c-238 0 -429 -244 -429 -483
c0 -164 97 -259 232 -259z" />
    <glyph glyph-name="Otilde" unicode="&#xd5;" horiz-adv-x="877" 
d="M731 846c-74 0 -91 75 -150 75c-34 0 -61 -20 -77 -66h-15c17 69 52 108 101 108c69 0 84 -75 148 -75c32 0 58 21 74 65h14c-19 -76 -55 -107 -95 -107zM371 -11c-159 0 -292 99 -292 280c0 226 212 503 508 503c159 0 292 -99 292 -281c0 -225 -212 -502 -508 -502z
M380 9c239 0 430 244 430 484c0 163 -97 258 -233 258c-238 0 -429 -244 -429 -483c0 -164 97 -259 232 -259z" />
    <glyph glyph-name="Odieresis" unicode="&#xd6;" horiz-adv-x="877" 
d="M774 893c-18 5 -29 24 -25 43c5 17 25 29 43 24s29 -25 24 -42c-4 -19 -24 -30 -42 -25zM538 893c-18 5 -29 24 -24 43c4 17 24 29 42 24s29 -25 25 -42c-5 -19 -25 -30 -43 -25zM371 -11c-159 0 -292 99 -292 280c0 226 212 503 508 503c159 0 292 -99 292 -281
c0 -225 -212 -502 -508 -502zM380 9c239 0 430 244 430 484c0 163 -97 258 -233 258c-238 0 -429 -244 -429 -483c0 -164 97 -259 232 -259z" />
    <glyph glyph-name="multiply" unicode="&#xd7;" horiz-adv-x="653" 
d="M129 37l-23 23l199 199l-199 199l23 23l199 -199l200 199l22 -22l-200 -200l200 -200l-22 -23l-200 200z" />
    <glyph glyph-name="Oslash" unicode="&#xd8;" horiz-adv-x="877" 
d="M38 -65l-19 20l128 124c-42 47 -68 110 -68 190c0 226 212 503 508 503c78 0 151 -24 203 -70l130 125l19 -19l-129 -125c43 -47 69 -111 69 -192c0 -225 -212 -502 -508 -502c-79 0 -151 24 -204 71zM148 268c0 -61 13 -112 37 -152l572 553c-42 53 -105 82 -180 82
c-238 0 -429 -244 -429 -483zM380 9c239 0 430 244 430 484c0 61 -14 113 -38 153l-572 -554c42 -54 105 -83 180 -83z" />
    <glyph glyph-name="Ugrave" unicode="&#xd9;" horiz-adv-x="863" 
d="M671 837h-14l-145 134l1 1h67zM369 -11c-198 0 -284 99 -219 313l125 412c6 19 -6 25 -31 26l-50 3l4 15h242l-5 -15l-53 -3c-26 -1 -42 -7 -48 -26l-127 -418c-53 -173 -6 -271 175 -271c183 0 290 104 342 276l126 413c6 19 -6 25 -30 26l-55 3l5 15h212l-5 -15l-53 -3
c-26 -1 -41 -7 -47 -26l-127 -417c-62 -202 -182 -308 -381 -308z" />
    <glyph glyph-name="Uacute" unicode="&#xda;" horiz-adv-x="863" 
d="M582 837l177 135h76l-1 -1l-237 -134h-15zM369 -11c-198 0 -284 99 -219 313l125 412c6 19 -6 25 -31 26l-50 3l4 15h242l-5 -15l-53 -3c-26 -1 -42 -7 -48 -26l-127 -418c-53 -173 -6 -271 175 -271c183 0 290 104 342 276l126 413c6 19 -6 25 -30 26l-55 3l5 15h212
l-5 -15l-53 -3c-26 -1 -41 -7 -47 -26l-127 -417c-62 -202 -182 -308 -381 -308z" />
    <glyph glyph-name="Ucircumflex" unicode="&#xdb;" horiz-adv-x="863" 
d="M465 833l215 144h8l79 -144h-13l-81 95l-192 -95h-16zM369 -11c-198 0 -284 99 -219 313l125 412c6 19 -6 25 -31 26l-50 3l4 15h242l-5 -15l-53 -3c-26 -1 -42 -7 -48 -26l-127 -418c-53 -173 -6 -271 175 -271c183 0 290 104 342 276l126 413c6 19 -6 25 -30 26l-55 3
l5 15h212l-5 -15l-53 -3c-26 -1 -41 -7 -47 -26l-127 -417c-62 -202 -182 -308 -381 -308z" />
    <glyph glyph-name="Udieresis" unicode="&#xdc;" horiz-adv-x="863" 
d="M757 893c-18 5 -29 24 -25 43c5 17 25 29 43 24s29 -25 24 -42c-4 -19 -24 -30 -42 -25zM521 893c-18 5 -29 24 -24 43c4 17 24 29 42 24s29 -25 25 -42c-5 -19 -25 -30 -43 -25zM369 -11c-198 0 -284 99 -219 313l125 412c6 19 -6 25 -31 26l-50 3l4 15h242l-5 -15
l-53 -3c-26 -1 -42 -7 -48 -26l-127 -418c-53 -173 -6 -271 175 -271c183 0 290 104 342 276l126 413c6 19 -6 25 -30 26l-55 3l5 15h212l-5 -15l-53 -3c-26 -1 -41 -7 -47 -26l-127 -417c-62 -202 -182 -308 -381 -308z" />
    <glyph glyph-name="Yacute" unicode="&#xdd;" horiz-adv-x="776" 
d="M531 837l177 135h76l-1 -1l-237 -134h-15zM184 0l5 16l60 2c26 1 41 7 47 26l92 298l-155 373c-7 16 -12 23 -40 25l-51 3l6 15h242l-5 -15l-55 -3c-29 -2 -43 -9 -36 -25l144 -346l355 346c17 17 7 24 -21 25l-60 3l4 15h223l-5 -15l-52 -3c-27 -2 -38 -9 -55 -25
l-380 -373l-92 -298c-6 -19 6 -25 31 -26l60 -2l-5 -16h-257z" />
    <glyph glyph-name="Thorn" unicode="&#xde;" horiz-adv-x="717" 
d="M210 743l5 15h241l-5 -15l-53 -3c-26 -1 -41 -7 -46 -24l-41 -132h151c143 0 261 -32 261 -147c0 -143 -136 -253 -380 -253h-154l-43 -140c-6 -19 6 -25 31 -26l98 -2l-5 -16h-287l4 15l53 3c26 1 41 7 47 26l204 670c6 19 -6 25 -30 26zM195 205h149
c200 0 313 102 313 234c0 94 -88 124 -203 124h-150z" />
    <glyph glyph-name="germandbls" unicode="&#xdf;" horiz-adv-x="661" 
d="M99 65c-99 -283 -199 -322 -264 -322c-35 0 -57 17 -57 41c0 20 16 39 37 40c25 -20 52 -35 84 -35c44 0 67 41 131 227l157 454h-78l5 16c64 1 81 7 88 26l10 27c45 123 142 236 302 236c88 0 143 -37 143 -93c0 -64 -54 -100 -132 -133l-38 -16
c-48 -20 -73 -39 -73 -69c0 -28 24 -59 61 -103l28 -33c45 -54 84 -100 84 -161c0 -114 -110 -178 -238 -178c-95 0 -171 51 -170 100c1 29 30 43 52 35c4 -67 45 -116 131 -116c92 0 177 45 177 133c0 55 -35 100 -75 145l-28 32c-49 56 -71 89 -70 125c1 43 32 74 103 101
l21 8c78 30 121 69 121 125c0 49 -42 80 -106 80c-110 0 -192 -79 -234 -201z" />
    <glyph glyph-name="agrave" unicode="&#xe0;" horiz-adv-x="572" 
d="M410 588h-11l-86 175l1 4h51zM112 -11c-62 0 -97 38 -97 104c0 180 204 422 362 422c56 0 80 -41 80 -87h2l28 80h52l-160 -434c-19 -50 -13 -60 6 -60c38 0 99 36 155 132l14 -6c-57 -100 -127 -151 -197 -151c-50 0 -50 27 -28 85l43 116h-2
c-81 -131 -175 -201 -258 -201zM139 20c93 0 216 132 277 297c45 123 23 181 -40 181c-134 0 -298 -238 -298 -399c0 -50 19 -79 61 -79z" />
    <glyph glyph-name="aacute" unicode="&#xe1;" horiz-adv-x="572" 
d="M377 588l156 179h66l-2 -4l-207 -175h-13zM112 -11c-62 0 -97 38 -97 104c0 180 204 422 362 422c56 0 80 -41 80 -87h2l28 80h52l-160 -434c-19 -50 -13 -60 6 -60c38 0 99 36 155 132l14 -6c-57 -100 -127 -151 -197 -151c-50 0 -50 27 -28 85l43 116h-2
c-81 -131 -175 -201 -258 -201zM139 20c93 0 216 132 277 297c45 123 23 181 -40 181c-134 0 -298 -238 -298 -399c0 -50 19 -79 61 -79z" />
    <glyph glyph-name="acircumflex" unicode="&#xe2;" horiz-adv-x="572" 
d="M245 588l242 192h6l71 -192h-11l-78 136l-217 -136h-13zM112 -11c-62 0 -97 38 -97 104c0 180 204 422 362 422c56 0 80 -41 80 -87h2l28 80h52l-160 -434c-19 -50 -13 -60 6 -60c38 0 99 36 155 132l14 -6c-57 -100 -127 -151 -197 -151c-50 0 -50 27 -28 85l43 116h-2
c-81 -131 -175 -201 -258 -201zM139 20c93 0 216 132 277 297c45 123 23 181 -40 181c-134 0 -298 -238 -298 -399c0 -50 19 -79 61 -79z" />
    <glyph glyph-name="atilde" unicode="&#xe3;" horiz-adv-x="572" 
d="M527 630c-74 0 -91 75 -150 75c-34 0 -61 -20 -77 -66h-15c17 69 52 108 101 108c69 0 84 -76 148 -76c32 0 58 21 74 66h14c-19 -76 -55 -107 -95 -107zM112 -11c-62 0 -97 38 -97 104c0 180 204 422 362 422c56 0 80 -41 80 -87h2l28 80h52l-160 -434
c-19 -50 -13 -60 6 -60c38 0 99 36 155 132l14 -6c-57 -100 -127 -151 -197 -151c-50 0 -50 27 -28 85l43 116h-2c-81 -131 -175 -201 -258 -201zM139 20c93 0 216 132 277 297c45 123 23 181 -40 181c-134 0 -298 -238 -298 -399c0 -50 19 -79 61 -79z" />
    <glyph glyph-name="adieresis" unicode="&#xe4;" horiz-adv-x="572" 
d="M576 665c-23 0 -43 20 -43 43c0 22 20 42 43 42c22 0 42 -20 42 -42c0 -23 -20 -43 -42 -43zM340 665c-22 0 -42 20 -42 43c0 22 20 42 42 42c23 0 43 -20 43 -42c0 -23 -20 -43 -43 -43zM112 -11c-62 0 -97 38 -97 104c0 180 204 422 362 422c56 0 80 -41 80 -87h2
l28 80h52l-160 -434c-19 -50 -13 -60 6 -60c38 0 99 36 155 132l14 -6c-57 -100 -127 -151 -197 -151c-50 0 -50 27 -28 85l43 116h-2c-81 -131 -175 -201 -258 -201zM139 20c93 0 216 132 277 297c45 123 23 181 -40 181c-134 0 -298 -238 -298 -399c0 -50 19 -79 61 -79z
" />
    <glyph glyph-name="aring" unicode="&#xe5;" horiz-adv-x="572" 
d="M452 585c-60 0 -109 46 -109 105s49 105 109 105c61 0 110 -46 110 -105s-49 -105 -110 -105zM452 609c47 0 83 34 83 81c0 46 -36 81 -83 81s-82 -35 -82 -81c0 -47 35 -81 82 -81zM112 -11c-62 0 -97 38 -97 104c0 180 204 422 362 422c56 0 80 -41 80 -87h2l28 80h52
l-160 -434c-19 -50 -13 -60 6 -60c38 0 99 36 155 132l14 -6c-57 -100 -127 -151 -197 -151c-50 0 -50 27 -28 85l43 116h-2c-81 -131 -175 -201 -258 -201zM139 20c93 0 216 132 277 297c45 123 23 181 -40 181c-134 0 -298 -238 -298 -399c0 -50 19 -79 61 -79z" />
    <glyph glyph-name="ae" unicode="&#xe6;" horiz-adv-x="759" 
d="M112 -11c-64 0 -105 39 -105 108c0 122 107 252 262 329c127 65 246 89 390 89h1c73 0 103 -36 103 -86c0 -43 -32 -97 -96 -119l-252 -1c-24 -49 -38 -104 -38 -160c0 -89 46 -129 99 -129c69 0 141 45 197 157l15 -6c-61 -125 -141 -182 -240 -182
c-75 0 -126 45 -132 128c-52 -75 -129 -128 -204 -128zM69 102c0 -50 27 -82 72 -82c60 0 128 45 174 119c2 156 128 311 261 360c-102 -9 -195 -35 -290 -89c-130 -73 -217 -192 -217 -308zM656 498c-83 0 -176 -71 -231 -170h141c88 0 160 50 160 113c0 36 -19 57 -70 57z
" />
    <glyph glyph-name="ccedilla" unicode="&#xe7;" horiz-adv-x="464" 
d="M164 -11c-80 0 -132 52 -132 147c0 184 168 379 333 379c69 0 102 -40 102 -87c0 -35 -31 -61 -68 -55c19 81 12 125 -45 125c-120 0 -260 -170 -260 -349c0 -89 46 -129 100 -129c66 0 131 41 186 153l14 -6c-52 -110 -115 -165 -197 -176l-105 -79
c37 -26 71 -53 71 -91c0 -43 -41 -73 -99 -73c-60 0 -100 35 -100 65c0 17 13 25 29 18c-2 -44 34 -67 75 -67s66 17 66 47s-42 57 -84 88l119 90h-5z" />
    <glyph glyph-name="egrave" unicode="&#xe8;" horiz-adv-x="474" 
d="M404 588h-11l-86 175l1 4h51zM163 -11c-81 0 -133 52 -133 147c0 189 186 379 344 379c74 0 104 -36 104 -86c0 -43 -32 -97 -96 -119l-252 -1c-24 -49 -38 -104 -38 -160c0 -89 46 -129 99 -129c69 0 141 45 197 157l15 -6c-61 -125 -141 -182 -240 -182zM371 498
c-83 0 -176 -71 -231 -170h141c88 0 160 50 160 113c0 36 -19 57 -70 57z" />
    <glyph glyph-name="eacute" unicode="&#xe9;" horiz-adv-x="474" 
d="M371 588l156 179h66l-2 -4l-207 -175h-13zM163 -11c-81 0 -133 52 -133 147c0 189 186 379 344 379c74 0 104 -36 104 -86c0 -43 -32 -97 -96 -119l-252 -1c-24 -49 -38 -104 -38 -160c0 -89 46 -129 99 -129c69 0 141 45 197 157l15 -6c-61 -125 -141 -182 -240 -182z
M371 498c-83 0 -176 -71 -231 -170h141c88 0 160 50 160 113c0 36 -19 57 -70 57z" />
    <glyph glyph-name="ecircumflex" unicode="&#xea;" horiz-adv-x="474" 
d="M239 588l242 192h6l71 -192h-11l-78 136l-217 -136h-13zM163 -11c-81 0 -133 52 -133 147c0 189 186 379 344 379c74 0 104 -36 104 -86c0 -43 -32 -97 -96 -119l-252 -1c-24 -49 -38 -104 -38 -160c0 -89 46 -129 99 -129c69 0 141 45 197 157l15 -6
c-61 -125 -141 -182 -240 -182zM371 498c-83 0 -176 -71 -231 -170h141c88 0 160 50 160 113c0 36 -19 57 -70 57z" />
    <glyph glyph-name="edieresis" unicode="&#xeb;" horiz-adv-x="474" 
d="M570 665c-23 0 -43 20 -43 43c0 22 20 42 43 42c22 0 42 -20 42 -42c0 -23 -20 -43 -42 -43zM334 665c-22 0 -42 20 -42 43c0 22 20 42 42 42c23 0 43 -20 43 -42c0 -23 -20 -43 -43 -43zM163 -11c-81 0 -133 52 -133 147c0 189 186 379 344 379c74 0 104 -36 104 -86
c0 -43 -32 -97 -96 -119l-252 -1c-24 -49 -38 -104 -38 -160c0 -89 46 -129 99 -129c69 0 141 45 197 157l15 -6c-61 -125 -141 -182 -240 -182zM371 498c-83 0 -176 -71 -231 -170h141c88 0 160 50 160 113c0 36 -19 57 -70 57z" />
    <glyph glyph-name="igrave" unicode="&#xec;" horiz-adv-x="299" 
d="M249 588h-11l-86 175l1 4h51zM80 -11c-50 0 -57 27 -35 83l155 402l-91 6l6 14l154 16l-168 -436c-19 -50 -13 -60 7 -60c38 0 99 36 153 132l14 -6c-55 -100 -124 -151 -195 -151z" />
    <glyph glyph-name="iacute" unicode="&#xed;" horiz-adv-x="299" 
d="M216 588l156 179h66l-2 -4l-207 -175h-13zM80 -11c-50 0 -57 27 -35 83l155 402l-91 6l6 14l154 16l-168 -436c-19 -50 -13 -60 7 -60c38 0 99 36 153 132l14 -6c-55 -100 -124 -151 -195 -151z" />
    <glyph glyph-name="icircumflex" unicode="&#xee;" horiz-adv-x="299" 
d="M84 588l242 192h6l71 -192h-11l-78 136l-217 -136h-13zM80 -11c-50 0 -57 27 -35 83l155 402l-91 6l6 14l154 16l-168 -436c-19 -50 -13 -60 7 -60c38 0 99 36 153 132l14 -6c-55 -100 -124 -151 -195 -151z" />
    <glyph glyph-name="idieresis" unicode="&#xef;" horiz-adv-x="299" 
d="M197 665c-23 0 -43 20 -43 43c0 22 20 42 43 42s43 -20 43 -42c0 -23 -20 -43 -43 -43zM397 665c-23 0 -43 20 -43 43c0 22 20 42 43 42s43 -20 43 -42c0 -23 -20 -43 -43 -43zM80 -11c-50 0 -57 27 -35 83l155 402l-91 6l6 14l154 16l-168 -436c-19 -50 -13 -60 7 -60
c38 0 99 36 153 132l14 -6c-55 -100 -124 -151 -195 -151z" />
    <glyph glyph-name="eth" unicode="&#xf0;" horiz-adv-x="529" 
d="M157 -11c-81 0 -134 46 -134 127c0 157 164 398 330 398c37 0 64 -12 80 -32c-12 71 -45 141 -101 198l-153 -71l-10 21l145 67c-38 34 -85 63 -142 84l8 13c66 -19 121 -48 165 -83l169 78l10 -20l-159 -74c94 -82 136 -191 136 -285c0 -219 -166 -421 -344 -421z
M84 113c0 -63 31 -105 91 -105c131 0 264 172 264 406v17c-6 42 -36 68 -83 68c-142 0 -272 -235 -272 -386z" />
    <glyph glyph-name="ntilde" unicode="&#xf1;" horiz-adv-x="600" 
d="M567 630c-74 0 -91 75 -150 75c-34 0 -61 -20 -77 -66h-15c17 69 52 108 101 108c69 0 84 -76 148 -76c32 0 58 21 74 66h14c-19 -76 -55 -107 -95 -107zM379 -11c-50 0 -63 28 -38 83l105 235c50 112 62 178 3 178c-49 0 -106 -50 -164 -121
c-74 -91 -166 -240 -211 -358l-60 -13l184 480l-90 7l6 14l153 16l-146 -374h1c44 93 107 187 156 248c69 85 132 131 198 131c88 0 83 -81 26 -208l-104 -233c-22 -49 -11 -60 9 -60c37 0 99 36 153 132l14 -6c-55 -100 -125 -151 -195 -151z" />
    <glyph glyph-name="ograve" unicode="&#xf2;" horiz-adv-x="556" 
d="M397 588h-11l-86 175l1 4h51zM198 -11c-97 0 -161 64 -161 164c0 179 156 362 323 362c97 0 161 -65 161 -163c0 -181 -155 -363 -323 -363zM216 8c117 0 244 154 244 343c0 97 -49 144 -117 144c-118 0 -244 -153 -244 -342c0 -97 48 -145 117 -145z" />
    <glyph glyph-name="oacute" unicode="&#xf3;" horiz-adv-x="556" 
d="M364 588l156 179h66l-2 -4l-207 -175h-13zM198 -11c-97 0 -161 64 -161 164c0 179 156 362 323 362c97 0 161 -65 161 -163c0 -181 -155 -363 -323 -363zM216 8c117 0 244 154 244 343c0 97 -49 144 -117 144c-118 0 -244 -153 -244 -342c0 -97 48 -145 117 -145z" />
    <glyph glyph-name="ocircumflex" unicode="&#xf4;" horiz-adv-x="556" 
d="M232 588l242 192h6l71 -192h-11l-78 136l-217 -136h-13zM198 -11c-97 0 -161 64 -161 164c0 179 156 362 323 362c97 0 161 -65 161 -163c0 -181 -155 -363 -323 -363zM216 8c117 0 244 154 244 343c0 97 -49 144 -117 144c-118 0 -244 -153 -244 -342
c0 -97 48 -145 117 -145z" />
    <glyph glyph-name="otilde" unicode="&#xf5;" horiz-adv-x="556" 
d="M514 630c-74 0 -91 75 -150 75c-34 0 -61 -20 -77 -66h-15c17 69 52 108 101 108c69 0 84 -76 148 -76c32 0 58 21 74 66h14c-19 -76 -55 -107 -95 -107zM198 -11c-97 0 -161 64 -161 164c0 179 156 362 323 362c97 0 161 -65 161 -163c0 -181 -155 -363 -323 -363z
M216 8c117 0 244 154 244 343c0 97 -49 144 -117 144c-118 0 -244 -153 -244 -342c0 -97 48 -145 117 -145z" />
    <glyph glyph-name="odieresis" unicode="&#xf6;" horiz-adv-x="556" 
d="M562 665c-23 0 -43 20 -43 43c0 22 20 42 43 42c22 0 42 -20 42 -42c0 -23 -20 -43 -42 -43zM326 665c-22 0 -42 20 -42 43c0 22 20 42 42 42c23 0 43 -20 43 -42c0 -23 -20 -43 -43 -43zM198 -11c-97 0 -161 64 -161 164c0 179 156 362 323 362c97 0 161 -65 161 -163
c0 -181 -155 -363 -323 -363zM216 8c117 0 244 154 244 343c0 97 -49 144 -117 144c-118 0 -244 -153 -244 -342c0 -97 48 -145 117 -145z" />
    <glyph glyph-name="divide" unicode="&#xf7;" horiz-adv-x="653" 
d="M331 406c-23 0 -43 20 -43 43c0 22 20 42 43 42s43 -20 43 -42c0 -23 -20 -43 -43 -43zM71 245v31h520v-31h-520zM331 30c-23 0 -43 20 -43 44c0 22 20 42 43 42s43 -20 43 -42c0 -24 -20 -44 -43 -44z" />
    <glyph glyph-name="oslash" unicode="&#xf8;" horiz-adv-x="596" 
d="M218 -11c-59 0 -106 24 -134 66l-123 -105l-15 18l127 107c-11 23 -16 49 -16 78c0 179 156 362 323 362c59 0 106 -24 133 -65l124 105l15 -18l-127 -108c10 -22 16 -48 16 -77c0 -181 -155 -363 -323 -363zM119 153c0 -13 1 -25 2 -36l350 297c-17 55 -57 81 -108 81
c-118 0 -244 -153 -244 -342zM236 8c117 0 244 154 244 343c0 13 -1 26 -3 38l-350 -298c17 -55 57 -83 109 -83z" />
    <glyph glyph-name="ugrave" unicode="&#xf9;" horiz-adv-x="601" 
d="M406 588h-11l-86 175l1 4h51zM271 510l-129 -312c-47 -114 -62 -179 -5 -179c49 0 106 51 164 122c74 90 164 238 212 358l58 8l-167 -433c-19 -50 -13 -60 7 -60c37 0 99 36 153 132l14 -6c-55 -100 -124 -151 -195 -151c-50 0 -57 27 -35 83l113 291h-1
c-42 -90 -105 -183 -153 -243c-68 -84 -130 -131 -197 -131c-87 0 -79 77 -25 209l113 276l-91 6l6 14z" />
    <glyph glyph-name="uacute" unicode="&#xfa;" horiz-adv-x="601" 
d="M373 588l156 179h66l-2 -4l-207 -175h-13zM271 510l-129 -312c-47 -114 -62 -179 -5 -179c49 0 106 51 164 122c74 90 164 238 212 358l58 8l-167 -433c-19 -50 -13 -60 7 -60c37 0 99 36 153 132l14 -6c-55 -100 -124 -151 -195 -151c-50 0 -57 27 -35 83l113 291h-1
c-42 -90 -105 -183 -153 -243c-68 -84 -130 -131 -197 -131c-87 0 -79 77 -25 209l113 276l-91 6l6 14z" />
    <glyph glyph-name="ucircumflex" unicode="&#xfb;" horiz-adv-x="601" 
d="M241 588l242 192h6l71 -192h-11l-78 136l-217 -136h-13zM271 510l-129 -312c-47 -114 -62 -179 -5 -179c49 0 106 51 164 122c74 90 164 238 212 358l58 8l-167 -433c-19 -50 -13 -60 7 -60c37 0 99 36 153 132l14 -6c-55 -100 -124 -151 -195 -151c-50 0 -57 27 -35 83
l113 291h-1c-42 -90 -105 -183 -153 -243c-68 -84 -130 -131 -197 -131c-87 0 -79 77 -25 209l113 276l-91 6l6 14z" />
    <glyph glyph-name="udieresis" unicode="&#xfc;" horiz-adv-x="601" 
d="M572 665c-23 0 -43 20 -43 43c0 22 20 42 43 42c22 0 42 -20 42 -42c0 -23 -20 -43 -42 -43zM336 665c-22 0 -42 20 -42 43c0 22 20 42 42 42c23 0 43 -20 43 -42c0 -23 -20 -43 -43 -43zM271 510l-129 -312c-47 -114 -62 -179 -5 -179c49 0 106 51 164 122
c74 90 164 238 212 358l58 8l-167 -433c-19 -50 -13 -60 7 -60c37 0 99 36 153 132l14 -6c-55 -100 -124 -151 -195 -151c-50 0 -57 27 -35 83l113 291h-1c-42 -90 -105 -183 -153 -243c-68 -84 -130 -131 -197 -131c-87 0 -79 77 -25 209l113 276l-91 6l6 14z" />
    <glyph glyph-name="yacute" unicode="&#xfd;" horiz-adv-x="550" 
d="M385 588l156 179h66l-2 -4l-207 -175h-13zM-106 -259c-49 0 -69 20 -69 43c0 16 11 29 27 35c25 -25 44 -36 71 -36c54 0 109 37 219 175l30 37l-10 477l-92 4l2 13l145 21l9 -446l257 324c77 97 99 127 127 127c19 0 28 -15 28 -33c0 -12 -5 -27 -16 -34
c-48 -15 -79 -21 -130 -84l-329 -411c-107 -133 -193 -212 -269 -212z" />
    <glyph glyph-name="thorn" unicode="&#xfe;" horiz-adv-x="544" 
d="M331 772l-117 -341c48 54 123 84 179 84c82 0 131 -45 131 -129c0 -188 -211 -412 -461 -396l-82 -238h-56l332 967l-83 24l3 6zM360 482c-50 0 -106 -23 -152 -69l-140 -407c215 -14 395 202 395 366c0 76 -39 110 -103 110z" />
    <glyph glyph-name="ydieresis" unicode="&#xff;" horiz-adv-x="550" 
d="M583 665c-23 0 -43 20 -43 43c0 22 20 42 43 42c22 0 42 -20 42 -42c0 -23 -20 -43 -42 -43zM347 665c-22 0 -42 20 -42 43c0 22 20 42 42 42c23 0 43 -20 43 -42c0 -23 -20 -43 -43 -43zM-106 -259c-49 0 -69 20 -69 43c0 16 11 29 27 35c25 -25 44 -36 71 -36
c54 0 109 37 219 175l30 37l-10 477l-92 4l2 13l145 21l9 -446l257 324c77 97 99 127 127 127c19 0 28 -15 28 -33c0 -12 -5 -27 -16 -34c-48 -15 -79 -21 -130 -84l-329 -411c-107 -133 -193 -212 -269 -212z" />
    <glyph glyph-name="Amacron" unicode="&#x100;" horiz-adv-x="811" 
d="M669 889l10 27h277l-9 -27h-278zM-138 0l5 15l52 3c26 1 49 10 66 25l805 735h17l-202 -734c-5 -19 5 -25 30 -26l52 -3l-5 -15h-241l4 15l53 3c26 1 42 7 47 26l73 258h-313l-284 -259c-16 -15 -21 -24 9 -25l60 -3l-6 -15h-222zM333 328h292l101 359z" />
    <glyph glyph-name="amacron" unicode="&#x101;" horiz-adv-x="572" 
d="M302 668l11 27h282l-10 -27h-283zM112 -11c-62 0 -97 38 -97 104c0 180 204 422 362 422c56 0 80 -41 80 -87h2l28 80h52l-160 -434c-19 -50 -13 -60 6 -60c38 0 99 36 155 132l14 -6c-57 -100 -127 -151 -197 -151c-50 0 -50 27 -28 85l43 116h-2
c-81 -131 -175 -201 -258 -201zM139 20c93 0 216 132 277 297c45 123 23 181 -40 181c-134 0 -298 -238 -298 -399c0 -50 19 -79 61 -79z" />
    <glyph glyph-name="Abreve" unicode="&#x102;" horiz-adv-x="811" 
d="M801 832c-78 0 -141 42 -115 153h25c-20 -89 20 -129 93 -129c71 0 134 35 164 129h27c-38 -118 -116 -153 -194 -153zM-138 0l5 15l52 3c26 1 49 10 66 25l805 735h17l-202 -734c-5 -19 5 -25 30 -26l52 -3l-5 -15h-241l4 15l53 3c26 1 42 7 47 26l73 258h-313
l-284 -259c-16 -15 -21 -24 9 -25l60 -3l-6 -15h-222zM333 328h292l101 359z" />
    <glyph glyph-name="abreve" unicode="&#x103;" horiz-adv-x="572" 
d="M422 604c-78 0 -141 43 -115 154h25c-20 -89 20 -129 93 -129c71 0 134 35 164 129h27c-38 -118 -116 -154 -194 -154zM112 -11c-62 0 -97 38 -97 104c0 180 204 422 362 422c56 0 80 -41 80 -87h2l28 80h52l-160 -434c-19 -50 -13 -60 6 -60c38 0 99 36 155 132l14 -6
c-57 -100 -127 -151 -197 -151c-50 0 -50 27 -28 85l43 116h-2c-81 -131 -175 -201 -258 -201zM139 20c93 0 216 132 277 297c45 123 23 181 -40 181c-134 0 -298 -238 -298 -399c0 -50 19 -79 61 -79z" />
    <glyph glyph-name="Aogonek" unicode="&#x104;" horiz-adv-x="811" 
d="M-138 0l5 15l52 3c26 1 49 10 66 25l805 735h17l-202 -734c-5 -19 5 -25 30 -26l52 -3l-5 -15h-64c-63 -43 -167 -101 -167 -160c0 -31 23 -49 62 -49c30 0 64 11 86 22l-1 -15c-28 -18 -71 -31 -108 -31c-47 0 -79 24 -79 63c0 64 122 133 189 170h-159l4 15l53 3
c26 1 42 7 47 26l73 258h-313l-284 -259c-16 -15 -21 -24 9 -25l60 -3l-6 -15h-222zM333 328h292l101 359z" />
    <glyph glyph-name="aogonek" unicode="&#x105;" horiz-adv-x="572" 
d="M112 -11c-62 0 -97 38 -97 104c0 180 204 422 362 422c56 0 80 -41 80 -87h2l28 80h52l-160 -434c-19 -50 -13 -60 6 -60c38 0 99 36 155 132l14 -6c-45 -79 -98 -128 -154 -144c-63 -43 -157 -99 -157 -156c0 -31 23 -49 62 -49c30 0 64 11 86 22v-15
c-29 -18 -72 -31 -109 -31c-47 0 -79 24 -79 63c0 59 102 121 171 160c-6 -1 -11 -1 -17 -1c-50 0 -50 27 -28 85l43 116h-2c-81 -131 -175 -201 -258 -201zM139 20c93 0 216 132 277 297c45 123 23 181 -40 181c-134 0 -298 -238 -298 -399c0 -50 19 -79 61 -79z" />
    <glyph glyph-name="Cacute" unicode="&#x106;" horiz-adv-x="799" 
d="M616 837l177 135h76l-1 -1l-237 -134h-15zM384 -11c-160 0 -300 87 -300 292c0 266 243 491 514 491c96 0 182 -24 228 -56l1 -176h-15l-41 143c-10 34 -20 39 -46 48c-33 11 -75 19 -125 19c-244 0 -447 -211 -447 -488c0 -179 106 -252 234 -252c64 0 100 9 132 16
c13 3 31 8 54 31l167 173h14l-122 -189c-61 -35 -158 -52 -248 -52z" />
    <glyph glyph-name="cacute" unicode="&#x107;" horiz-adv-x="464" 
d="M355 588l156 179h66l-2 -4l-207 -175h-13zM164 -11c-80 0 -132 52 -132 147c0 184 168 379 333 379c69 0 102 -40 102 -87c0 -35 -31 -61 -68 -55c19 81 12 125 -45 125c-120 0 -260 -170 -260 -349c0 -89 46 -129 100 -129c66 0 131 41 186 153l14 -6
c-59 -125 -132 -178 -230 -178z" />
    <glyph glyph-name="Ccircumflex" unicode="&#x108;" horiz-adv-x="799" 
d="M499 833l215 144h8l79 -144h-13l-81 95l-192 -95h-16zM384 -11c-160 0 -300 87 -300 292c0 266 243 491 514 491c96 0 182 -24 228 -56l1 -176h-15l-41 143c-10 34 -20 39 -46 48c-33 11 -75 19 -125 19c-244 0 -447 -211 -447 -488c0 -179 106 -252 234 -252
c64 0 100 9 132 16c13 3 31 8 54 31l167 173h14l-122 -189c-61 -35 -158 -52 -248 -52z" />
    <glyph glyph-name="ccircumflex" unicode="&#x109;" horiz-adv-x="464" 
d="M223 588l242 192h6l71 -192h-11l-78 136l-217 -136h-13zM164 -11c-80 0 -132 52 -132 147c0 184 168 379 333 379c69 0 102 -40 102 -87c0 -35 -31 -61 -68 -55c19 81 12 125 -45 125c-120 0 -260 -170 -260 -349c0 -89 46 -129 100 -129c66 0 131 41 186 153l14 -6
c-59 -125 -132 -178 -230 -178z" />
    <glyph glyph-name="Cdotaccent" unicode="&#x10a;" horiz-adv-x="799" 
d="M675 884c-23 0 -43 20 -43 43c0 22 20 43 43 43s43 -21 43 -43c0 -23 -20 -43 -43 -43zM384 -11c-160 0 -300 87 -300 292c0 266 243 491 514 491c96 0 182 -24 228 -56l1 -176h-15l-41 143c-10 34 -20 39 -46 48c-33 11 -75 19 -125 19c-244 0 -447 -211 -447 -488
c0 -179 106 -252 234 -252c64 0 100 9 132 16c13 3 31 8 54 31l167 173h14l-122 -189c-61 -35 -158 -52 -248 -52z" />
    <glyph glyph-name="cdotaccent" unicode="&#x10b;" horiz-adv-x="464" 
d="M436 673c-23 0 -43 19 -43 42c0 22 20 43 43 43s43 -21 43 -43c0 -23 -20 -42 -43 -42zM164 -11c-80 0 -132 52 -132 147c0 184 168 379 333 379c69 0 102 -40 102 -87c0 -35 -31 -61 -68 -55c19 81 12 125 -45 125c-120 0 -260 -170 -260 -349c0 -89 46 -129 100 -129
c66 0 131 41 186 153l14 -6c-59 -125 -132 -178 -230 -178z" />
    <glyph glyph-name="Ccaron" unicode="&#x10c;" horiz-adv-x="799" 
d="M631 833l-79 145h13l80 -94l193 94h16l-215 -145h-8zM384 -11c-160 0 -300 87 -300 292c0 266 243 491 514 491c96 0 182 -24 228 -56l1 -176h-15l-41 143c-10 34 -20 39 -46 48c-33 11 -75 19 -125 19c-244 0 -447 -211 -447 -488c0 -179 106 -252 234 -252
c64 0 100 9 132 16c13 3 31 8 54 31l167 173h14l-122 -189c-61 -35 -158 -52 -248 -52z" />
    <glyph glyph-name="ccaron" unicode="&#x10d;" horiz-adv-x="464" 
d="M372 588l-71 192h11l78 -136l217 136h13l-242 -192h-6zM164 -11c-80 0 -132 52 -132 147c0 184 168 379 333 379c69 0 102 -40 102 -87c0 -35 -31 -61 -68 -55c19 81 12 125 -45 125c-120 0 -260 -170 -260 -349c0 -89 46 -129 100 -129c66 0 131 41 186 153l14 -6
c-59 -125 -132 -178 -230 -178z" />
    <glyph glyph-name="Dcaron" unicode="&#x10e;" horiz-adv-x="850" 
d="M599 833l-79 145h13l80 -94l193 94h16l-215 -145h-8zM-17 0l4 15l53 3c26 1 41 7 47 26l204 670c6 19 -6 25 -30 26l-51 3l5 15h248c225 0 387 -81 387 -268c0 -281 -259 -490 -598 -490h-269zM139 21h117c299 0 528 202 528 477c0 165 -127 239 -321 239h-105z" />
    <glyph glyph-name="dcaron" unicode="&#x10f;" horiz-adv-x="626" 
d="M657 527l-8 16c96 64 141 120 141 157c0 18 -10 31 -28 37c0 22 16 40 38 40c24 0 43 -17 43 -44c0 -42 -53 -121 -186 -206zM117 -11c-62 0 -100 39 -100 110c0 179 202 416 357 416c56 0 83 -38 85 -87h2l99 291l-90 24l3 6l160 23l-239 -698c-17 -51 -12 -60 8 -60
c37 0 99 36 153 132l14 -6c-55 -100 -124 -151 -195 -151c-50 0 -51 27 -31 85l42 119h-2c-81 -134 -175 -204 -266 -204zM148 20c93 0 219 132 275 293c43 122 16 185 -48 185c-135 0 -295 -228 -295 -392c0 -56 23 -86 68 -86z" />
    <glyph glyph-name="Dcroat" unicode="&#x110;" horiz-adv-x="850" 
d="M-17 0l4 15l53 3c26 1 41 7 47 26l104 342h-93l8 26h93l92 302c6 19 -6 25 -30 26l-51 3l5 15h248c225 0 387 -81 387 -268c0 -281 -259 -490 -598 -490h-269zM139 21h117c299 0 528 202 528 477c0 165 -127 239 -321 239h-105l-99 -325h206l-8 -26h-206z" />
    <glyph glyph-name="dcroat" unicode="&#x111;" horiz-adv-x="584" 
d="M117 -11c-62 0 -100 39 -100 110c0 179 202 416 357 416c56 0 83 -38 85 -87h2l61 178h-139l9 24h138l30 89l-90 24l3 6l160 23l-49 -142h81l-9 -24h-80l-182 -532c-17 -51 -12 -60 8 -60c37 0 99 36 153 132l14 -6c-55 -100 -124 -151 -195 -151c-50 0 -51 27 -31 85
l42 119h-2c-81 -134 -175 -204 -266 -204zM148 20c93 0 219 132 275 293c43 122 16 185 -48 185c-135 0 -295 -228 -295 -392c0 -56 23 -86 68 -86z" />
    <glyph glyph-name="Emacron" unicode="&#x112;" horiz-adv-x="725" 
d="M423 889l10 27h277l-9 -27h-278zM-17 0l4 15l53 3c26 1 41 7 47 26l205 670c6 19 -6 25 -31 26l-51 3l5 15h529l-26 -186h-15l-20 150c-2 12 -5 14 -19 14h-306l-100 -327h187c21 0 23 1 29 14l55 108h15l-82 -268h-14l10 107c1 13 1 15 -21 15h-187l-110 -363h355
c14 0 19 3 29 14l147 154h15l-121 -190h-582z" />
    <glyph glyph-name="emacron" unicode="&#x113;" horiz-adv-x="474" 
d="M296 668l11 27h282l-10 -27h-283zM163 -11c-81 0 -133 52 -133 147c0 189 186 379 344 379c74 0 104 -36 104 -86c0 -43 -32 -97 -96 -119l-252 -1c-24 -49 -38 -104 -38 -160c0 -89 46 -129 99 -129c69 0 141 45 197 157l15 -6c-61 -125 -141 -182 -240 -182zM371 498
c-83 0 -176 -71 -231 -170h141c88 0 160 50 160 113c0 36 -19 57 -70 57z" />
    <glyph glyph-name="Ebreve" unicode="&#x114;" horiz-adv-x="725" 
d="M556 832c-78 0 -141 42 -115 153h25c-20 -89 20 -129 93 -129c71 0 134 35 164 129h27c-38 -118 -116 -153 -194 -153zM-17 0l4 15l53 3c26 1 41 7 47 26l205 670c6 19 -6 25 -31 26l-51 3l5 15h529l-26 -186h-15l-20 150c-2 12 -5 14 -19 14h-306l-100 -327h187
c21 0 23 1 29 14l55 108h15l-82 -268h-14l10 107c1 13 1 15 -21 15h-187l-110 -363h355c14 0 19 3 29 14l147 154h15l-121 -190h-582z" />
    <glyph glyph-name="ebreve" unicode="&#x115;" horiz-adv-x="474" 
d="M416 604c-78 0 -141 43 -115 154h25c-20 -89 20 -129 93 -129c71 0 134 35 164 129h27c-38 -118 -116 -154 -194 -154zM163 -11c-81 0 -133 52 -133 147c0 189 186 379 344 379c74 0 104 -36 104 -86c0 -43 -32 -97 -96 -119l-252 -1c-24 -49 -38 -104 -38 -160
c0 -89 46 -129 99 -129c69 0 141 45 197 157l15 -6c-61 -125 -141 -182 -240 -182zM371 498c-83 0 -176 -71 -231 -170h141c88 0 160 50 160 113c0 36 -19 57 -70 57z" />
    <glyph glyph-name="Edotaccent" unicode="&#x116;" horiz-adv-x="725" 
d="M569 884c-23 0 -43 20 -43 43c0 22 20 43 43 43s43 -21 43 -43c0 -23 -20 -43 -43 -43zM-17 0l4 15l53 3c26 1 41 7 47 26l205 670c6 19 -6 25 -31 26l-51 3l5 15h529l-26 -186h-15l-20 150c-2 12 -5 14 -19 14h-306l-100 -327h187c21 0 23 1 29 14l55 108h15l-82 -268
h-14l10 107c1 13 1 15 -21 15h-187l-110 -363h355c14 0 19 3 29 14l147 154h15l-121 -190h-582z" />
    <glyph glyph-name="edotaccent" unicode="&#x117;" horiz-adv-x="474" 
d="M452 673c-23 0 -43 19 -43 42c0 22 20 43 43 43s43 -21 43 -43c0 -23 -20 -42 -43 -42zM163 -11c-81 0 -133 52 -133 147c0 189 186 379 344 379c74 0 104 -36 104 -86c0 -43 -32 -97 -96 -119l-252 -1c-24 -49 -38 -104 -38 -160c0 -89 46 -129 99 -129
c69 0 141 45 197 157l15 -6c-61 -125 -141 -182 -240 -182zM371 498c-83 0 -176 -71 -231 -170h141c88 0 160 50 160 113c0 36 -19 57 -70 57z" />
    <glyph glyph-name="Eogonek" unicode="&#x118;" horiz-adv-x="725" 
d="M-17 0l4 15l53 3c26 1 41 7 47 26l205 670c6 19 -6 25 -31 26l-51 3l5 15h529l-26 -186h-15l-20 150c-2 12 -5 14 -19 14h-306l-100 -327h187c21 0 23 1 29 14l55 108h15l-82 -268h-14l10 107c1 13 1 15 -21 15h-187l-110 -363h355c14 0 19 3 29 14l147 154h15l-121 -190
h1c-63 -43 -167 -101 -167 -160c0 -31 23 -49 62 -49c30 0 64 11 86 22l-1 -15c-28 -18 -71 -31 -108 -31c-47 0 -79 24 -79 63c0 64 122 133 189 170h-565z" />
    <glyph glyph-name="eogonek" unicode="&#x119;" horiz-adv-x="474" 
d="M212 -202c-29 -18 -72 -31 -109 -31c-47 0 -79 24 -79 63c0 61 118 126 186 163c-14 -2 -32 -4 -47 -4c-81 0 -133 52 -133 147c0 189 186 379 344 379c74 0 104 -36 104 -86c0 -43 -32 -97 -96 -119l-252 -1c-24 -49 -38 -104 -38 -160c0 -89 46 -129 99 -129
c69 0 141 45 197 157l15 -6c-48 -99 -103 -137 -170 -176c-55 -32 -169 -96 -169 -155c0 -31 23 -49 62 -49c30 0 64 11 86 22v-15zM371 498c-83 0 -176 -71 -231 -170h141c88 0 160 50 160 113c0 36 -19 57 -70 57z" />
    <glyph glyph-name="Ecaron" unicode="&#x11a;" horiz-adv-x="725" 
d="M525 833l-79 145h13l80 -94l193 94h16l-215 -145h-8zM-17 0l4 15l53 3c26 1 41 7 47 26l205 670c6 19 -6 25 -31 26l-51 3l5 15h529l-26 -186h-15l-20 150c-2 12 -5 14 -19 14h-306l-100 -327h187c21 0 23 1 29 14l55 108h15l-82 -268h-14l10 107c1 13 1 15 -21 15h-187
l-110 -363h355c14 0 19 3 29 14l147 154h15l-121 -190h-582z" />
    <glyph glyph-name="ecaron" unicode="&#x11b;" horiz-adv-x="474" 
d="M388 588l-71 192h11l78 -136l217 136h13l-242 -192h-6zM163 -11c-81 0 -133 52 -133 147c0 189 186 379 344 379c74 0 104 -36 104 -86c0 -43 -32 -97 -96 -119l-252 -1c-24 -49 -38 -104 -38 -160c0 -89 46 -129 99 -129c69 0 141 45 197 157l15 -6
c-61 -125 -141 -182 -240 -182zM371 498c-83 0 -176 -71 -231 -170h141c88 0 160 50 160 113c0 36 -19 57 -70 57z" />
    <glyph glyph-name="Gcircumflex" unicode="&#x11c;" horiz-adv-x="883" 
d="M488 833l215 144h8l79 -144h-13l-81 95l-192 -95h-16zM402 -11c-166 0 -318 87 -318 292c0 266 241 491 513 491c96 0 183 -24 229 -56l1 -176h-15l-41 143c-10 34 -20 39 -46 48c-33 11 -75 19 -125 19c-247 0 -446 -211 -446 -488c0 -180 119 -251 252 -251
c80 0 165 24 233 54l88 238c7 20 -6 26 -31 26l-175 2l7 19h367l-7 -20l-92 -1l-77 -209l-23 -71c-94 -17 -181 -60 -294 -60z" />
    <glyph glyph-name="gcircumflex" unicode="&#x11d;" horiz-adv-x="494" 
d="M185 588l242 192h6l71 -192h-11l-78 136l-217 -136h-13zM220 160c-17 0 -33 2 -48 6l-88 -75l166 -99c72 -43 111 -76 111 -124c0 -84 -127 -127 -241 -127c-141 0 -246 48 -246 129c0 70 102 112 224 152l-52 57l109 93c-51 19 -81 64 -81 119c0 119 118 224 243 224
c38 0 71 -10 95 -28l26 38h129l-29 -43h-119c29 -23 46 -58 46 -98c0 -119 -120 -224 -245 -224zM229 178c90 0 175 84 175 202c0 70 -31 118 -97 118c-90 0 -174 -85 -174 -203c0 -70 31 -117 96 -117zM-74 -130c0 -62 80 -113 205 -113c93 0 184 32 184 89
c0 31 -25 59 -93 100l-112 67c-103 -39 -184 -73 -184 -143z" />
    <glyph glyph-name="Gbreve" unicode="&#x11e;" horiz-adv-x="883" 
d="M651 832c-78 0 -141 42 -115 153h25c-20 -89 20 -129 93 -129c71 0 134 35 164 129h27c-38 -118 -116 -153 -194 -153zM402 -11c-166 0 -318 87 -318 292c0 266 241 491 513 491c96 0 183 -24 229 -56l1 -176h-15l-41 143c-10 34 -20 39 -46 48c-33 11 -75 19 -125 19
c-247 0 -446 -211 -446 -488c0 -180 119 -251 252 -251c80 0 165 24 233 54l88 238c7 20 -6 26 -31 26l-175 2l7 19h367l-7 -20l-92 -1l-77 -209l-23 -71c-94 -17 -181 -60 -294 -60z" />
    <glyph glyph-name="gbreve" unicode="&#x11f;" horiz-adv-x="494" 
d="M361 604c-78 0 -141 43 -115 154h25c-20 -89 20 -129 93 -129c71 0 134 35 164 129h27c-38 -118 -116 -154 -194 -154zM220 160c-17 0 -33 2 -48 6l-88 -75l166 -99c72 -43 111 -76 111 -124c0 -84 -127 -127 -241 -127c-141 0 -246 48 -246 129c0 70 102 112 224 152
l-52 57l109 93c-51 19 -81 64 -81 119c0 119 118 224 243 224c38 0 71 -10 95 -28l26 38h129l-29 -43h-119c29 -23 46 -58 46 -98c0 -119 -120 -224 -245 -224zM229 178c90 0 175 84 175 202c0 70 -31 118 -97 118c-90 0 -174 -85 -174 -203c0 -70 31 -117 96 -117z
M-74 -130c0 -62 80 -113 205 -113c93 0 184 32 184 89c0 31 -25 59 -93 100l-112 67c-103 -39 -184 -73 -184 -143z" />
    <glyph glyph-name="Gdotaccent" unicode="&#x120;" horiz-adv-x="883" 
d="M664 884c-23 0 -43 20 -43 43c0 22 20 43 43 43s43 -21 43 -43c0 -23 -20 -43 -43 -43zM402 -11c-166 0 -318 87 -318 292c0 266 241 491 513 491c96 0 183 -24 229 -56l1 -176h-15l-41 143c-10 34 -20 39 -46 48c-33 11 -75 19 -125 19c-247 0 -446 -211 -446 -488
c0 -180 119 -251 252 -251c80 0 165 24 233 54l88 238c7 20 -6 26 -31 26l-175 2l7 19h367l-7 -20l-92 -1l-77 -209l-23 -71c-94 -17 -181 -60 -294 -60z" />
    <glyph glyph-name="gdotaccent" unicode="&#x121;" horiz-adv-x="494" 
d="M397 673c-23 0 -43 19 -43 42c0 22 20 43 43 43s43 -21 43 -43c0 -23 -20 -42 -43 -42zM220 160c-17 0 -33 2 -48 6l-88 -75l166 -99c72 -43 111 -76 111 -124c0 -84 -127 -127 -241 -127c-141 0 -246 48 -246 129c0 70 102 112 224 152l-52 57l109 93
c-51 19 -81 64 -81 119c0 119 118 224 243 224c38 0 71 -10 95 -28l26 38h129l-29 -43h-119c29 -23 46 -58 46 -98c0 -119 -120 -224 -245 -224zM229 178c90 0 175 84 175 202c0 70 -31 118 -97 118c-90 0 -174 -85 -174 -203c0 -70 31 -117 96 -117zM-74 -130
c0 -62 80 -113 205 -113c93 0 184 32 184 89c0 31 -25 59 -93 100l-112 67c-103 -39 -184 -73 -184 -143z" />
    <glyph glyph-name="Gcommaaccent" unicode="&#x122;" horiz-adv-x="883" 
d="M402 -11c-166 0 -318 87 -318 292c0 266 241 491 513 491c96 0 183 -24 229 -56l1 -176h-15l-41 143c-10 34 -20 39 -46 48c-33 11 -75 19 -125 19c-247 0 -446 -211 -446 -488c0 -180 119 -251 252 -251c80 0 165 24 233 54l88 238c7 20 -6 26 -31 26l-175 2l7 19h367
l-7 -20l-92 -1l-77 -209l-23 -71c-94 -17 -181 -60 -294 -60zM221 -318l-8 16c96 64 141 120 141 157c0 19 -10 31 -28 37c0 22 16 40 38 40c24 0 43 -17 43 -44c0 -42 -53 -121 -186 -206z" />
    <glyph glyph-name="gcommaaccent" unicode="&#x123;" horiz-adv-x="494" 
d="M489 825l8 -15c-96 -64 -141 -121 -141 -158c0 -18 10 -30 28 -36c0 -23 -16 -40 -38 -40c-24 -1 -43 17 -43 43c0 42 53 121 186 206zM220 160c-17 0 -33 2 -48 6l-88 -75l166 -99c72 -43 111 -76 111 -124c0 -84 -127 -127 -241 -127c-141 0 -246 48 -246 129
c0 70 102 112 224 152l-52 57l109 93c-51 19 -81 64 -81 119c0 119 118 224 243 224c38 0 71 -10 95 -28l26 38h129l-29 -43h-119c29 -23 46 -58 46 -98c0 -119 -120 -224 -245 -224zM229 178c90 0 175 84 175 202c0 70 -31 118 -97 118c-90 0 -174 -85 -174 -203
c0 -70 31 -117 96 -117zM-74 -130c0 -62 80 -113 205 -113c93 0 184 32 184 89c0 31 -25 59 -93 100l-112 67c-103 -39 -184 -73 -184 -143z" />
    <glyph glyph-name="Hcircumflex" unicode="&#x124;" horiz-adv-x="887" 
d="M473 833l215 144h8l79 -144h-13l-81 95l-192 -95h-16zM-17 0l4 15l53 3c26 1 41 7 47 26l204 670c6 19 -6 25 -30 26l-51 3l5 15h241l-5 -15l-53 -3c-26 -1 -41 -7 -47 -26l-92 -303h469l92 303c6 19 -6 25 -31 26l-51 3l5 15h241l-4 -15l-53 -3c-27 -2 -42 -7 -48 -26
l-204 -670c-6 -19 6 -25 30 -26l52 -3l-5 -15h-241l4 15l53 3c26 1 41 7 47 26l105 341h-469l-105 -341c-6 -19 7 -25 31 -26l52 -3l-5 -15h-241z" />
    <glyph glyph-name="hcircumflex" unicode="&#x125;" horiz-adv-x="565" 
d="M161 833l215 144h8l79 -144h-13l-81 95l-192 -95h-16zM265 -11c-50 0 -82 33 -82 66c0 30 27 44 51 42c8 -63 19 -90 45 -90c84 0 193 217 193 370c0 74 -23 106 -67 106c-101 0 -225 -164 -288 -333c-21 -55 -35 -92 -52 -145l-58 -12l251 725l-77 25l3 6l148 23
l-129 -372l-48 -130h2c87 159 178 245 276 245c62 0 100 -40 100 -127c0 -163 -148 -399 -268 -399z" />
    <glyph glyph-name="Hbar" unicode="&#x126;" horiz-adv-x="887" 
d="M-17 0l4 15l53 3c26 1 41 7 47 26l157 517h-90l8 26h90l39 127c6 19 -6 25 -30 26l-51 3l5 15h241l-5 -15l-53 -3c-26 -1 -41 -7 -47 -26l-39 -127h469l39 127c6 19 -6 25 -31 26l-51 3l5 15h241l-4 -15l-53 -3c-27 -2 -42 -7 -48 -26l-39 -127h92l-9 -26h-91l-157 -517
c-6 -19 6 -25 30 -26l52 -3l-5 -15h-241l4 15l53 3c26 1 41 7 47 26l105 341h-469l-105 -341c-6 -19 7 -25 31 -26l52 -3l-5 -15h-241zM259 411h469l46 150h-469z" />
    <glyph glyph-name="hbar" unicode="&#x127;" horiz-adv-x="565" 
d="M265 -11c-50 0 -82 33 -82 66c0 30 27 44 51 42c8 -63 19 -90 45 -90c84 0 193 217 193 370c0 74 -23 106 -67 106c-101 0 -225 -164 -288 -333c-21 -55 -35 -92 -52 -145l-58 -12l212 613h-82l9 24h82l30 88l-77 25l3 6l148 23l-49 -142h137l-10 -24h-136l-71 -206
l-48 -130h2c87 159 178 245 276 245c62 0 100 -40 100 -127c0 -163 -148 -399 -268 -399z" />
    <glyph glyph-name="Itilde" unicode="&#x128;" horiz-adv-x="358" 
d="M460 846c-74 0 -91 75 -150 75c-34 0 -61 -20 -77 -66h-15c17 69 52 108 101 108c69 0 84 -75 148 -75c32 0 58 21 74 65h14c-19 -76 -55 -107 -95 -107zM-17 0l4 15l53 3c26 1 41 7 47 26l204 670c6 19 -6 25 -30 26l-51 3l5 15h241l-5 -15l-53 -3
c-26 -1 -41 -7 -47 -26l-205 -670c-6 -19 7 -25 31 -26l52 -3l-5 -15h-241z" />
    <glyph glyph-name="itilde" unicode="&#x129;" horiz-adv-x="299" 
d="M367 630c-74 0 -91 75 -150 75c-34 0 -61 -20 -77 -66h-15c17 69 52 108 101 108c69 0 84 -76 148 -76c32 0 58 21 74 66h14c-19 -76 -55 -107 -95 -107zM80 -11c-50 0 -57 27 -35 83l155 402l-91 6l6 14l154 16l-168 -436c-19 -50 -13 -60 7 -60c38 0 99 36 153 132
l14 -6c-55 -100 -124 -151 -195 -151z" />
    <glyph glyph-name="Imacron" unicode="&#x12a;" horiz-adv-x="358" 
d="M241 889l10 27h277l-9 -27h-278zM-17 0l4 15l53 3c26 1 41 7 47 26l204 670c6 19 -6 25 -30 26l-51 3l5 15h241l-5 -15l-53 -3c-26 -1 -41 -7 -47 -26l-205 -670c-6 -19 7 -25 31 -26l52 -3l-5 -15h-241z" />
    <glyph glyph-name="imacron" unicode="&#x12b;" horiz-adv-x="299" 
d="M142 668l11 27h282l-10 -27h-283zM80 -11c-50 0 -57 27 -35 83l155 402l-91 6l6 14l154 16l-168 -436c-19 -50 -13 -60 7 -60c38 0 99 36 153 132l14 -6c-55 -100 -124 -151 -195 -151z" />
    <glyph glyph-name="Ibreve" unicode="&#x12c;" horiz-adv-x="358" 
d="M374 832c-78 0 -141 42 -115 153h25c-20 -89 20 -129 93 -129c71 0 134 35 164 129h27c-38 -118 -116 -153 -194 -153zM-17 0l4 15l53 3c26 1 41 7 47 26l204 670c6 19 -6 25 -30 26l-51 3l5 15h241l-5 -15l-53 -3c-26 -1 -41 -7 -47 -26l-205 -670c-6 -19 7 -25 31 -26
l52 -3l-5 -15h-241z" />
    <glyph glyph-name="ibreve" unicode="&#x12d;" horiz-adv-x="299" 
d="M261 604c-78 0 -141 43 -115 154h25c-20 -89 20 -129 93 -129c71 0 134 35 164 129h27c-38 -118 -116 -154 -194 -154zM80 -11c-50 0 -57 27 -35 83l155 402l-91 6l6 14l154 16l-168 -436c-19 -50 -13 -60 7 -60c38 0 99 36 153 132l14 -6c-55 -100 -124 -151 -195 -151z
" />
    <glyph glyph-name="Iogonek" unicode="&#x12e;" horiz-adv-x="358" 
d="M-17 0l4 15l53 3c26 1 41 7 47 26l204 670c6 19 -6 25 -30 26l-51 3l5 15h241l-5 -15l-53 -3c-26 -1 -41 -7 -47 -26l-205 -670c-6 -19 7 -25 31 -26l52 -3l-5 -15h-67c-63 -43 -167 -101 -167 -160c0 -31 23 -49 62 -49c30 0 64 11 86 22l-1 -15
c-28 -18 -71 -31 -108 -31c-47 0 -79 24 -79 63c0 64 122 133 189 170h-156z" />
    <glyph glyph-name="iogonek" unicode="&#x12f;" horiz-adv-x="299" 
d="M268 730c0 22 20 42 43 42s43 -20 43 -42c0 -23 -20 -43 -43 -43s-43 20 -43 43zM80 -11c-50 0 -57 27 -35 83l155 402l-91 6l6 14l154 16l-168 -436c-19 -50 -13 -60 7 -60c38 0 99 36 153 132l14 -6c-47 -85 -104 -135 -163 -148c-64 -42 -156 -96 -156 -152
c0 -31 23 -49 62 -49c30 0 64 11 86 22l-1 -15c-28 -18 -71 -31 -108 -31c-47 0 -79 24 -79 63c0 58 101 120 169 159h-5z" />
    <glyph glyph-name="Idotaccent" unicode="&#x130;" horiz-adv-x="358" 
d="M387 884c-23 0 -43 20 -43 43c0 22 20 43 43 43s43 -21 43 -43c0 -23 -20 -43 -43 -43zM-17 0l4 15l53 3c26 1 41 7 47 26l204 670c6 19 -6 25 -30 26l-51 3l5 15h241l-5 -15l-53 -3c-26 -1 -41 -7 -47 -26l-205 -670c-6 -19 7 -25 31 -26l52 -3l-5 -15h-241z" />
    <glyph glyph-name="dotlessi" unicode="&#x131;" horiz-adv-x="299" 
d="M80 -11c-50 0 -57 27 -35 83l155 402l-91 6l6 14l154 16l-168 -436c-19 -50 -13 -60 7 -60c38 0 99 36 153 132l14 -6c-55 -100 -124 -151 -195 -151z" />
    <glyph glyph-name="Jcircumflex" unicode="&#x134;" horiz-adv-x="351" 
d="M209 833l215 144h8l79 -144h-13l-81 95l-192 -95h-16zM-99 -124l-9 16c156 100 188 121 223 236l180 587c5 19 -6 23 -31 24l-54 2l5 17h246l-5 -17l-56 -2c-26 -1 -40 -5 -46 -24l-174 -569c-33 -108 -53 -133 -169 -209c-27 -17 -75 -43 -110 -61z" />
    <glyph glyph-name="jcircumflex" unicode="&#x135;" horiz-adv-x="262" 
d="M72 588l242 192h6l71 -192h-11l-78 136l-217 -136h-13zM-210 -259l-6 11c134 83 168 106 235 271l182 451l-90 6l5 14l155 16l-200 -495c-52 -128 -71 -161 -162 -210z" />
    <glyph glyph-name="Kcommaaccent" unicode="&#x136;" horiz-adv-x="807" 
d="M-17 0l4 15l53 3c26 1 41 7 47 26l204 670c6 19 -6 25 -30 26l-51 3l5 15h241l-5 -15l-53 -3c-26 -1 -41 -7 -47 -26l-100 -328l531 335c16 10 10 17 -25 19l-56 3l5 15h245l-5 -15l-54 -3c-36 -2 -52 -8 -77 -24l-499 -314l405 -402h-77l-394 383l-104 -339
c-6 -19 7 -25 31 -26l52 -3l-5 -15h-241zM207 -318l-8 16c96 64 141 120 141 157c0 19 -10 31 -28 37c0 22 16 40 38 40c24 0 43 -17 43 -44c0 -42 -53 -121 -186 -206z" />
    <glyph glyph-name="kcommaaccent" unicode="&#x137;" horiz-adv-x="567" 
d="M406 -32c-44 0 -69 24 -110 83l-141 203c194 3 319 74 319 176c0 41 -27 64 -68 64c-100 0 -213 -128 -259 -258l-37 -105l-42 -125l-61 -13l250 726l-84 24l3 6l155 23l-114 -331l-39 -104h2c70 119 161 181 248 181c70 0 100 -36 100 -82c0 -89 -122 -170 -301 -194
l139 -200c31 -45 43 -52 60 -52c21 0 50 14 77 102l15 -4c-29 -98 -66 -120 -112 -120zM56 -318l-8 16c96 64 141 120 141 157c0 19 -10 31 -28 37c0 22 16 40 38 40c24 0 43 -17 43 -44c0 -42 -53 -121 -186 -206z" />
    <glyph glyph-name="Lacute" unicode="&#x139;" horiz-adv-x="680" 
d="M322 837l177 135h76l-1 -1l-237 -134h-15zM-17 0l4 15l53 3c26 1 41 7 47 26l205 670c6 19 -6 25 -31 26l-51 3l5 15h241l-4 -15l-53 -3c-27 -2 -42 -7 -48 -26l-211 -692h316c15 0 19 3 30 14l147 154h15l-121 -190h-544z" />
    <glyph glyph-name="lacute" unicode="&#x13a;" horiz-adv-x="286" 
d="M275 844l156 179h66l-2 -4l-207 -175h-13zM73 -11c-49 0 -54 26 -34 83l222 647l-83 24l3 6l154 23l-241 -698c-18 -51 -12 -60 8 -60c37 0 99 36 152 132l14 -6c-55 -100 -124 -151 -195 -151z" />
    <glyph glyph-name="Lcommaaccent" unicode="&#x13b;" horiz-adv-x="680" 
d="M-17 0l4 15l53 3c26 1 41 7 47 26l205 670c6 19 -6 25 -31 26l-51 3l5 15h241l-4 -15l-53 -3c-27 -2 -42 -7 -48 -26l-211 -692h316c15 0 19 3 30 14l147 154h15l-121 -190h-544zM108 -318l-8 16c96 64 141 120 141 157c0 19 -10 31 -28 37c0 22 16 40 38 40
c24 0 43 -17 43 -44c0 -42 -53 -121 -186 -206z" />
    <glyph glyph-name="lcommaaccent" unicode="&#x13c;" horiz-adv-x="286" 
d="M73 -11c-49 0 -54 26 -34 83l222 647l-83 24l3 6l154 23l-241 -698c-18 -51 -12 -60 8 -60c37 0 99 36 152 132l14 -6c-55 -100 -124 -151 -195 -151zM-113 -318l-8 16c96 64 141 120 141 157c0 19 -10 31 -28 37c0 22 16 40 38 40c24 0 43 -17 43 -44
c0 -42 -53 -121 -186 -206z" />
    <glyph glyph-name="Lcaron" unicode="&#x13d;" horiz-adv-x="680" 
d="M456 527l-8 16c96 64 141 120 141 157c0 18 -10 31 -28 37c0 22 16 40 38 40c24 0 43 -17 43 -44c0 -42 -53 -121 -186 -206zM-17 0l4 15l53 3c26 1 41 7 47 26l205 670c6 19 -6 25 -31 26l-51 3l5 15h241l-4 -15l-53 -3c-27 -2 -42 -7 -48 -26l-211 -692h316
c15 0 19 3 30 14l147 154h15l-121 -190h-544z" />
    <glyph glyph-name="lcaron" unicode="&#x13e;" horiz-adv-x="330" 
d="M365 527l-8 16c96 64 141 120 141 157c0 18 -10 31 -28 37c0 22 16 40 38 40c24 0 43 -17 43 -44c0 -42 -53 -121 -186 -206zM73 -11c-49 0 -54 26 -34 83l222 647l-83 24l3 6l154 23l-241 -698c-18 -51 -12 -60 8 -60c37 0 99 36 152 132l14 -6
c-55 -100 -124 -151 -195 -151z" />
    <glyph glyph-name="Ldot" unicode="&#x13f;" horiz-adv-x="680" 
d="M-17 0l4 15l53 3c26 1 41 7 47 26l205 670c6 19 -6 25 -31 26l-51 3l5 15h241l-4 -15l-53 -3c-27 -2 -42 -7 -48 -26l-211 -692h316c15 0 19 3 30 14l147 154h15l-121 -190h-544zM568 352c-23 0 -43 19 -43 42s20 43 43 43s43 -20 43 -43s-20 -42 -43 -42z" />
    <glyph glyph-name="ldot" unicode="&#x140;" horiz-adv-x="350" 
d="M73 -11c-49 0 -54 26 -34 83l222 647l-83 24l3 6l154 23l-241 -698c-18 -51 -12 -60 8 -60c37 0 99 36 152 132l14 -6c-55 -100 -124 -151 -195 -151zM349 352c-23 0 -43 19 -43 42c0 22 20 43 43 43s43 -21 43 -43c0 -23 -20 -42 -43 -42z" />
    <glyph glyph-name="Lslash" unicode="&#x141;" horiz-adv-x="680" 
d="M-17 0l4 15l53 3c26 1 41 7 47 26l88 288l-164 -93l10 36l165 94l106 345c6 19 -6 25 -31 26l-51 3l5 15h241l-4 -15l-53 -3c-27 -2 -42 -7 -48 -26l-93 -305l166 94l-10 -35l-167 -95l-107 -351h316c15 0 19 3 30 14l147 154h15l-121 -190h-544z" />
    <glyph glyph-name="lslash" unicode="&#x142;" horiz-adv-x="356" 
d="M108 -11c-49 0 -54 26 -34 83l98 285l-124 -66l10 32l125 67l113 329l-83 24l3 6l154 23l-119 -346l123 66l-10 -32l-125 -67l-110 -319c-18 -51 -12 -60 8 -60c37 0 99 36 152 132l14 -6c-55 -100 -124 -151 -195 -151z" />
    <glyph glyph-name="Nacute" unicode="&#x143;" horiz-adv-x="885" 
d="M591 837l177 135h76l-1 -1l-237 -134h-15zM661 -20l-344 728l-203 -664c-6 -19 6 -25 30 -26l52 -3l-5 -15h-208l4 15l53 3c26 1 41 7 47 26l205 670c6 19 -6 25 -31 26l-51 3l5 15h145l310 -663l191 619c6 19 -6 25 -31 26l-51 3l5 15h209l-5 -15l-54 -3
c-25 -1 -41 -7 -47 -26l-224 -734h-2z" />
    <glyph glyph-name="nacute" unicode="&#x144;" horiz-adv-x="600" 
d="M417 588l156 179h66l-2 -4l-207 -175h-13zM379 -11c-50 0 -63 28 -38 83l105 235c50 112 62 178 3 178c-49 0 -106 -50 -164 -121c-74 -91 -166 -240 -211 -358l-60 -13l184 480l-90 7l6 14l153 16l-146 -374h1c44 93 107 187 156 248c69 85 132 131 198 131
c88 0 83 -81 26 -208l-104 -233c-22 -49 -11 -60 9 -60c37 0 99 36 153 132l14 -6c-55 -100 -125 -151 -195 -151z" />
    <glyph glyph-name="Ncommaaccent" unicode="&#x145;" horiz-adv-x="885" 
d="M661 -20l-344 728l-203 -664c-6 -19 6 -25 30 -26l52 -3l-5 -15h-208l4 15l53 3c26 1 41 7 47 26l205 670c6 19 -6 25 -31 26l-51 3l5 15h145l310 -663l191 619c6 19 -6 25 -31 26l-51 3l5 15h209l-5 -15l-54 -3c-25 -1 -41 -7 -47 -26l-224 -734h-2zM214 -318l-8 16
c96 64 141 120 141 157c0 19 -10 31 -28 37c0 22 16 40 38 40c24 0 43 -17 43 -44c0 -42 -53 -121 -186 -206z" />
    <glyph glyph-name="ncommaaccent" unicode="&#x146;" horiz-adv-x="600" 
d="M379 -11c-50 0 -63 28 -38 83l105 235c50 112 62 178 3 178c-49 0 -106 -50 -164 -121c-74 -91 -166 -240 -211 -358l-60 -13l184 480l-90 7l6 14l153 16l-146 -374h1c44 93 107 187 156 248c69 85 132 131 198 131c88 0 83 -81 26 -208l-104 -233c-22 -49 -11 -60 9 -60
c37 0 99 36 153 132l14 -6c-55 -100 -125 -151 -195 -151zM60 -318l-8 16c96 64 141 120 141 157c0 19 -10 31 -28 37c0 22 16 40 38 40c24 0 43 -17 43 -44c0 -42 -53 -121 -186 -206z" />
    <glyph glyph-name="Ncaron" unicode="&#x147;" horiz-adv-x="885" 
d="M606 833l-79 145h13l80 -94l193 94h16l-215 -145h-8zM661 -20l-344 728l-203 -664c-6 -19 6 -25 30 -26l52 -3l-5 -15h-208l4 15l53 3c26 1 41 7 47 26l205 670c6 19 -6 25 -31 26l-51 3l5 15h145l310 -663l191 619c6 19 -6 25 -31 26l-51 3l5 15h209l-5 -15l-54 -3
c-25 -1 -41 -7 -47 -26l-224 -734h-2z" />
    <glyph glyph-name="ncaron" unicode="&#x148;" horiz-adv-x="600" 
d="M434 588l-71 192h11l78 -136l217 136h13l-242 -192h-6zM379 -11c-50 0 -63 28 -38 83l105 235c50 112 62 178 3 178c-49 0 -106 -50 -164 -121c-74 -91 -166 -240 -211 -358l-60 -13l184 480l-90 7l6 14l153 16l-146 -374h1c44 93 107 187 156 248c69 85 132 131 198 131
c88 0 83 -81 26 -208l-104 -233c-22 -49 -11 -60 9 -60c37 0 99 36 153 132l14 -6c-55 -100 -125 -151 -195 -151z" />
    <glyph glyph-name="Eng" unicode="&#x14a;" horiz-adv-x="885" 
d="M512 -195l-120 -64l-6 11c128 80 181 101 229 254l12 38l-310 667l-203 -667c-6 -19 6 -25 30 -26l52 -3l-5 -15h-208l4 15l53 3c26 1 41 7 47 26l205 670c6 19 -6 25 -31 26l-51 3l5 15h145l310 -667l191 623c6 19 -6 25 -31 26l-51 3l5 15h209l-5 -15l-54 -3
c-25 -1 -41 -7 -47 -26l-214 -699c-40 -132 -71 -162 -161 -210z" />
    <glyph glyph-name="eng" unicode="&#x14b;" horiz-adv-x="565" 
d="M214 -195l-120 -64l-5 11c133 83 162 107 234 271l125 284c49 112 62 178 4 178c-50 0 -109 -51 -167 -122c-75 -90 -166 -239 -211 -357l-60 -11l184 478l-90 7l6 14l153 16l-146 -374h1c44 93 107 187 156 248c69 85 133 131 199 131c88 0 82 -86 28 -208l-128 -291
c-56 -128 -72 -163 -163 -211z" />
    <glyph glyph-name="Omacron" unicode="&#x14c;" horiz-adv-x="877" 
d="M512 889l10 27h277l-9 -27h-278zM371 -11c-159 0 -292 99 -292 280c0 226 212 503 508 503c159 0 292 -99 292 -281c0 -225 -212 -502 -508 -502zM380 9c239 0 430 244 430 484c0 163 -97 258 -233 258c-238 0 -429 -244 -429 -483c0 -164 97 -259 232 -259z" />
    <glyph glyph-name="omacron" unicode="&#x14d;" horiz-adv-x="556" 
d="M289 668l11 27h282l-10 -27h-283zM198 -11c-97 0 -161 64 -161 164c0 179 156 362 323 362c97 0 161 -65 161 -163c0 -181 -155 -363 -323 -363zM216 8c117 0 244 154 244 343c0 97 -49 144 -117 144c-118 0 -244 -153 -244 -342c0 -97 48 -145 117 -145z" />
    <glyph glyph-name="Obreve" unicode="&#x14e;" horiz-adv-x="877" 
d="M644 832c-78 0 -141 42 -115 153h25c-20 -89 20 -129 93 -129c71 0 134 35 164 129h27c-38 -118 -116 -153 -194 -153zM371 -11c-159 0 -292 99 -292 280c0 226 212 503 508 503c159 0 292 -99 292 -281c0 -225 -212 -502 -508 -502zM380 9c239 0 430 244 430 484
c0 163 -97 258 -233 258c-238 0 -429 -244 -429 -483c0 -164 97 -259 232 -259z" />
    <glyph glyph-name="obreve" unicode="&#x14f;" horiz-adv-x="556" 
d="M408 604c-78 0 -141 43 -115 154h25c-20 -89 20 -129 93 -129c71 0 134 35 164 129h27c-38 -118 -116 -154 -194 -154zM198 -11c-97 0 -161 64 -161 164c0 179 156 362 323 362c97 0 161 -65 161 -163c0 -181 -155 -363 -323 -363zM216 8c117 0 244 154 244 343
c0 97 -49 144 -117 144c-118 0 -244 -153 -244 -342c0 -97 48 -145 117 -145z" />
    <glyph glyph-name="Ohungarumlaut" unicode="&#x150;" horiz-adv-x="877" 
d="M513 837l179 135h75l-1 -1l-237 -134h-16zM705 837l178 135h76l-1 -1l-237 -134h-16zM371 -11c-159 0 -292 99 -292 280c0 226 212 503 508 503c159 0 292 -99 292 -281c0 -225 -212 -502 -508 -502zM380 9c239 0 430 244 430 484c0 163 -97 258 -233 258
c-238 0 -429 -244 -429 -483c0 -164 97 -259 232 -259z" />
    <glyph glyph-name="ohungarumlaut" unicode="&#x151;" horiz-adv-x="556" 
d="M492 588l156 179h68l-2 -4l-208 -175h-14zM304 588l156 179h68l-2 -4l-208 -175h-14zM198 -11c-97 0 -161 64 -161 164c0 179 156 362 323 362c97 0 161 -65 161 -163c0 -181 -155 -363 -323 -363zM216 8c117 0 244 154 244 343c0 97 -49 144 -117 144
c-118 0 -244 -153 -244 -342c0 -97 48 -145 117 -145z" />
    <glyph glyph-name="OE" unicode="&#x152;" horiz-adv-x="1332" 
d="M1270 736h-304l-100 -327h192c21 0 23 2 29 14l56 108h9l-82 -268h-9l10 107c1 13 0 15 -21 15h-192l-111 -363h359c14 0 19 3 29 14l150 154h8l-117 -190h-488l58 190c-86 -114 -217 -201 -376 -201s-292 96 -292 277c0 226 212 506 508 506c143 0 248 -82 269 -226
l64 212h426l-26 -186h-8l-22 150c-2 12 -5 14 -19 14zM379 9c239 0 430 244 430 484c0 163 -97 258 -233 258c-238 0 -429 -244 -429 -483c0 -164 97 -259 232 -259z" />
    <glyph glyph-name="oe" unicode="&#x153;" horiz-adv-x="872" 
d="M562 -11c-74 0 -124 44 -132 124c-60 -74 -144 -124 -232 -124c-97 0 -161 64 -161 164c0 179 156 362 323 362c91 0 151 -57 158 -146c69 86 166 146 255 146c74 0 104 -36 104 -86c0 -43 -32 -97 -96 -119l-252 -1c-24 -49 -38 -104 -38 -160c0 -89 46 -129 99 -129
c69 0 141 45 197 157l15 -6c-61 -125 -141 -182 -240 -182zM770 498c-83 0 -176 -71 -231 -170h141c88 0 160 50 160 113c0 36 -19 57 -70 57zM216 8c117 0 244 154 244 343c0 97 -49 144 -117 144c-118 0 -244 -153 -244 -342c0 -97 48 -145 117 -145z" />
    <glyph glyph-name="Racute" unicode="&#x154;" horiz-adv-x="741" 
d="M508 837l177 135h76l-1 -1l-237 -134h-15zM-17 0l4 15l53 3c26 1 41 7 47 26l204 670c6 19 -6 25 -30 26l-51 3l5 15h262c147 0 261 -36 261 -148c0 -125 -103 -223 -331 -229l269 -381h-73l-262 375h-93l-102 -331c-6 -19 7 -25 31 -26l52 -3l-5 -15h-241zM254 397h110
c213 0 307 91 307 217c0 92 -86 123 -204 123h-109z" />
    <glyph glyph-name="racute" unicode="&#x155;" horiz-adv-x="427" 
d="M342 588l156 179h66l-2 -4l-207 -175h-13zM15 -5l183 479l-90 6l6 14l153 16l-134 -348h1c61 117 119 213 165 267c50 58 88 86 132 86c31 0 47 -17 47 -43c0 -22 -14 -48 -51 -51l-38 62c-97 -44 -205 -260 -289 -413l-26 -65z" />
    <glyph glyph-name="Rcommaaccent" unicode="&#x156;" horiz-adv-x="741" 
d="M-17 0l4 15l53 3c26 1 41 7 47 26l204 670c6 19 -6 25 -30 26l-51 3l5 15h262c147 0 261 -36 261 -148c0 -125 -103 -223 -331 -229l269 -381h-73l-262 375h-93l-102 -331c-6 -19 7 -25 31 -26l52 -3l-5 -15h-241zM254 397h110c213 0 307 91 307 217
c0 92 -86 123 -204 123h-109zM221 -318l-8 16c96 64 141 120 141 157c0 19 -10 31 -28 37c0 22 16 40 38 40c24 0 43 -17 43 -44c0 -42 -53 -121 -186 -206z" />
    <glyph glyph-name="rcommaaccent" unicode="&#x157;" horiz-adv-x="427" 
d="M15 -5l183 479l-90 6l6 14l153 16l-134 -348h1c61 117 119 213 165 267c50 58 88 86 132 86c31 0 47 -17 47 -43c0 -22 -14 -48 -51 -51l-38 62c-97 -44 -205 -260 -289 -413l-26 -65zM-124 -318l-8 16c96 64 141 120 141 157c0 19 -10 31 -28 37c0 22 16 40 38 40
c24 0 43 -17 43 -44c0 -42 -53 -121 -186 -206z" />
    <glyph glyph-name="Rcaron" unicode="&#x158;" horiz-adv-x="741" 
d="M523 833l-79 145h13l80 -94l193 94h16l-215 -145h-8zM-17 0l4 15l53 3c26 1 41 7 47 26l204 670c6 19 -6 25 -30 26l-51 3l5 15h262c147 0 261 -36 261 -148c0 -125 -103 -223 -331 -229l269 -381h-73l-262 375h-93l-102 -331c-6 -19 7 -25 31 -26l52 -3l-5 -15h-241z
M254 397h110c213 0 307 91 307 217c0 92 -86 123 -204 123h-109z" />
    <glyph glyph-name="rcaron" unicode="&#x159;" horiz-adv-x="427" 
d="M359 588l-71 192h11l78 -136l217 136h13l-242 -192h-6zM15 -5l183 479l-90 6l6 14l153 16l-134 -348h1c61 117 119 213 165 267c50 58 88 86 132 86c31 0 47 -17 47 -43c0 -22 -14 -48 -51 -51l-38 62c-97 -44 -205 -260 -289 -413l-26 -65z" />
    <glyph glyph-name="Sacute" unicode="&#x15a;" horiz-adv-x="610" 
d="M490 837l177 135h76l-1 -1l-237 -134h-15zM204 -11c-76 0 -153 22 -208 59l57 180h14l-7 -151c-1 -24 6 -30 18 -37c34 -19 88 -30 135 -30c129 0 236 61 236 170c0 61 -39 119 -89 176l-48 54c-49 55 -89 113 -89 177c0 116 125 185 265 185c83 0 148 -20 189 -54
l-37 -162h-15l-9 134c-2 23 -6 29 -18 36c-25 14 -66 24 -107 24c-114 0 -214 -46 -214 -136c0 -57 38 -108 80 -155l48 -54c57 -64 103 -125 103 -192c0 -122 -114 -224 -304 -224z" />
    <glyph glyph-name="sacute" unicode="&#x15b;" horiz-adv-x="402" 
d="M299 588l156 179h66l-2 -4l-207 -175h-13zM122 8c67 0 132 31 132 98c0 41 -20 71 -52 113l-32 42c-31 41 -52 74 -52 115c0 83 89 139 177 139c73 0 103 -30 104 -62c0 -23 -19 -45 -50 -42c-30 84 -32 85 -66 85c-51 0 -122 -29 -122 -87c0 -35 17 -62 49 -104l33 -43
c31 -40 57 -79 57 -127c0 -88 -93 -146 -187 -146c-83 0 -111 44 -111 76c0 30 23 45 50 42c29 -96 32 -99 70 -99z" />
    <glyph glyph-name="Scircumflex" unicode="&#x15c;" horiz-adv-x="610" 
d="M372 833l215 144h8l79 -144h-13l-81 95l-192 -95h-16zM204 -11c-76 0 -153 22 -208 59l57 180h14l-7 -151c-1 -24 6 -30 18 -37c34 -19 88 -30 135 -30c129 0 236 61 236 170c0 61 -39 119 -89 176l-48 54c-49 55 -89 113 -89 177c0 116 125 185 265 185
c83 0 148 -20 189 -54l-37 -162h-15l-9 134c-2 23 -6 29 -18 36c-25 14 -66 24 -107 24c-114 0 -214 -46 -214 -136c0 -57 38 -108 80 -155l48 -54c57 -64 103 -125 103 -192c0 -122 -114 -224 -304 -224z" />
    <glyph glyph-name="scircumflex" unicode="&#x15d;" horiz-adv-x="402" 
d="M167 588l242 192h6l71 -192h-11l-78 136l-217 -136h-13zM122 8c67 0 132 31 132 98c0 41 -20 71 -52 113l-32 42c-31 41 -52 74 -52 115c0 83 89 139 177 139c73 0 103 -30 104 -62c0 -23 -19 -45 -50 -42c-30 84 -32 85 -66 85c-51 0 -122 -29 -122 -87
c0 -35 17 -62 49 -104l33 -43c31 -40 57 -79 57 -127c0 -88 -93 -146 -187 -146c-83 0 -111 44 -111 76c0 30 23 45 50 42c29 -96 32 -99 70 -99z" />
    <glyph glyph-name="Scedilla" unicode="&#x15e;" horiz-adv-x="610" 
d="M204 -11c-76 0 -153 22 -208 59l57 180h14l-7 -151c-1 -24 6 -30 18 -37c34 -19 88 -30 135 -30c129 0 236 61 236 170c0 61 -39 119 -89 176l-48 54c-49 55 -89 113 -89 177c0 116 125 185 265 185c83 0 148 -20 189 -54l-37 -162h-15l-9 134c-2 23 -6 29 -18 36
c-25 14 -66 24 -107 24c-114 0 -214 -46 -214 -136c0 -57 38 -108 80 -155l48 -54c57 -64 103 -125 103 -192c0 -109 -90 -201 -244 -220l-107 -81c37 -27 70 -53 70 -88c0 -46 -41 -76 -98 -76c-60 0 -100 35 -100 65c0 17 13 25 28 18c-2 -44 36 -67 77 -67s64 17 64 47
s-42 57 -84 88l119 91c-10 -1 -19 -1 -29 -1z" />
    <glyph glyph-name="scedilla" unicode="&#x15f;" horiz-adv-x="402" 
d="M122 8c67 0 132 31 132 98c0 41 -20 71 -52 113l-32 42c-31 41 -52 74 -52 115c0 83 89 139 177 139c73 0 103 -30 104 -62c0 -23 -19 -45 -50 -42c-30 84 -32 85 -66 85c-51 0 -122 -29 -122 -87c0 -35 17 -62 49 -104l33 -43c31 -40 57 -79 57 -127
c0 -71 -61 -123 -135 -140l-110 -83c37 -26 71 -53 71 -91c0 -43 -41 -73 -99 -73c-60 0 -100 35 -100 65c0 17 13 25 29 18c-2 -44 34 -67 75 -67s66 17 66 47s-42 57 -84 88l121 91c-7 -1 -14 -1 -21 -1c-83 0 -111 44 -111 76c0 30 23 45 50 42c29 -96 32 -99 70 -99z
" />
    <glyph glyph-name="Scaron" unicode="&#x160;" horiz-adv-x="610" 
d="M505 833l-79 145h13l80 -94l193 94h16l-215 -145h-8zM204 -11c-76 0 -153 22 -208 59l57 180h14l-7 -151c-1 -24 6 -30 18 -37c34 -19 88 -30 135 -30c129 0 236 61 236 170c0 61 -39 119 -89 176l-48 54c-49 55 -89 113 -89 177c0 116 125 185 265 185
c83 0 148 -20 189 -54l-37 -162h-15l-9 134c-2 23 -6 29 -18 36c-25 14 -66 24 -107 24c-114 0 -214 -46 -214 -136c0 -57 38 -108 80 -155l48 -54c57 -64 103 -125 103 -192c0 -122 -114 -224 -304 -224z" />
    <glyph glyph-name="scaron" unicode="&#x161;" horiz-adv-x="402" 
d="M315 588l-71 192h11l78 -136l217 136h13l-242 -192h-6zM122 8c67 0 132 31 132 98c0 41 -20 71 -52 113l-32 42c-31 41 -52 74 -52 115c0 83 89 139 177 139c73 0 103 -30 104 -62c0 -23 -19 -45 -50 -42c-30 84 -32 85 -66 85c-51 0 -122 -29 -122 -87
c0 -35 17 -62 49 -104l33 -43c31 -40 57 -79 57 -127c0 -88 -93 -146 -187 -146c-83 0 -111 44 -111 76c0 30 23 45 50 42c29 -96 32 -99 70 -99z" />
    <glyph glyph-name="uni0162" unicode="&#x162;" horiz-adv-x="734" 
d="M163 0l5 16l60 2c26 1 41 7 47 26l212 694h-221c-13 0 -18 -3 -26 -15l-115 -172h-15l89 207h648l-37 -207h-15l-5 172c0 12 -6 15 -19 15h-225l-212 -694c-6 -19 7 -25 32 -26l59 -2l-5 -16h-257zM105 -318l-8 16c96 64 141 120 141 157c0 19 -10 31 -28 37
c0 22 16 40 38 40c24 0 43 -17 43 -44c0 -42 -53 -121 -186 -206z" />
    <glyph glyph-name="uni0163" unicode="&#x163;" horiz-adv-x="353" 
d="M84 -11c-50 0 -58 28 -35 84l161 397h-127l12 32h128l45 111h55l-45 -111h153l-12 -32h-154l-160 -395c-20 -50 -13 -61 7 -61c37 0 101 36 155 132l14 -6c-55 -100 -126 -151 -197 -151zM-99 -318l-8 16c96 64 141 120 141 157c0 19 -10 31 -28 37c0 22 16 40 38 40
c24 0 43 -17 43 -44c0 -42 -53 -121 -186 -206z" />
    <glyph glyph-name="Tcaron" unicode="&#x164;" horiz-adv-x="734" 
d="M538 833l-79 145h13l80 -94l193 94h16l-215 -145h-8zM163 0l5 16l60 2c26 1 41 7 47 26l212 694h-221c-13 0 -18 -3 -26 -15l-115 -172h-15l89 207h648l-37 -207h-15l-5 172c0 12 -6 15 -19 15h-225l-212 -694c-6 -19 7 -25 32 -26l59 -2l-5 -16h-257z" />
    <glyph glyph-name="tcaron" unicode="&#x165;" horiz-adv-x="353" 
d="M378 562l-8 16c96 64 141 120 141 157c0 18 -10 31 -28 37c0 22 16 40 38 40c24 0 43 -17 43 -44c0 -42 -53 -121 -186 -206zM84 -11c-50 0 -58 28 -35 84l161 397h-127l12 32h128l45 111h55l-45 -111h153l-12 -32h-154l-160 -395c-20 -50 -13 -61 7 -61
c37 0 101 36 155 132l14 -6c-55 -100 -126 -151 -197 -151z" />
    <glyph glyph-name="Tbar" unicode="&#x166;" horiz-adv-x="734" 
d="M163 0l5 16l60 2c26 1 41 7 47 26l104 341h-199l9 26h198l100 327h-221c-13 0 -18 -3 -26 -15l-115 -172h-15l89 207h648l-37 -207h-15l-5 172c0 12 -6 15 -19 15h-225l-100 -327h199l-9 -26h-198l-104 -341c-6 -19 7 -25 32 -26l59 -2l-5 -16h-257z" />
    <glyph glyph-name="tbar" unicode="&#x167;" horiz-adv-x="393" 
d="M104 -11c-50 0 -58 28 -35 84l109 269h-127l9 24h128l42 104h-127l12 32h128l45 111h55l-45 -111h153l-12 -32h-154l-42 -104h153l-9 -24h-154l-108 -267c-20 -50 -13 -61 7 -61c37 0 101 36 155 132l14 -6c-55 -100 -126 -151 -197 -151z" />
    <glyph glyph-name="Utilde" unicode="&#x168;" horiz-adv-x="863" 
d="M714 846c-74 0 -91 75 -150 75c-34 0 -61 -20 -77 -66h-15c17 69 52 108 101 108c69 0 84 -75 148 -75c32 0 58 21 74 65h14c-19 -76 -55 -107 -95 -107zM369 -11c-198 0 -284 99 -219 313l125 412c6 19 -6 25 -31 26l-50 3l4 15h242l-5 -15l-53 -3
c-26 -1 -42 -7 -48 -26l-127 -418c-53 -173 -6 -271 175 -271c183 0 290 104 342 276l126 413c6 19 -6 25 -30 26l-55 3l5 15h212l-5 -15l-53 -3c-26 -1 -41 -7 -47 -26l-127 -417c-62 -202 -182 -308 -381 -308z" />
    <glyph glyph-name="utilde" unicode="&#x169;" horiz-adv-x="601" 
d="M523 630c-74 0 -91 75 -150 75c-34 0 -61 -20 -77 -66h-15c17 69 52 108 101 108c69 0 84 -76 148 -76c32 0 58 21 74 66h14c-19 -76 -55 -107 -95 -107zM271 510l-129 -312c-47 -114 -62 -179 -5 -179c49 0 106 51 164 122c74 90 164 238 212 358l58 8l-167 -433
c-19 -50 -13 -60 7 -60c37 0 99 36 153 132l14 -6c-55 -100 -124 -151 -195 -151c-50 0 -57 27 -35 83l113 291h-1c-42 -90 -105 -183 -153 -243c-68 -84 -130 -131 -197 -131c-87 0 -79 77 -25 209l113 276l-91 6l6 14z" />
    <glyph glyph-name="Umacron" unicode="&#x16a;" horiz-adv-x="863" 
d="M495 889l10 27h277l-9 -27h-278zM369 -11c-198 0 -284 99 -219 313l125 412c6 19 -6 25 -31 26l-50 3l4 15h242l-5 -15l-53 -3c-26 -1 -42 -7 -48 -26l-127 -418c-53 -173 -6 -271 175 -271c183 0 290 104 342 276l126 413c6 19 -6 25 -30 26l-55 3l5 15h212l-5 -15
l-53 -3c-26 -1 -41 -7 -47 -26l-127 -417c-62 -202 -182 -308 -381 -308z" />
    <glyph glyph-name="umacron" unicode="&#x16b;" horiz-adv-x="601" 
d="M298 668l11 27h282l-10 -27h-283zM271 510l-129 -312c-47 -114 -62 -179 -5 -179c49 0 106 51 164 122c74 90 164 238 212 358l58 8l-167 -433c-19 -50 -13 -60 7 -60c37 0 99 36 153 132l14 -6c-55 -100 -124 -151 -195 -151c-50 0 -57 27 -35 83l113 291h-1
c-42 -90 -105 -183 -153 -243c-68 -84 -130 -131 -197 -131c-87 0 -79 77 -25 209l113 276l-91 6l6 14z" />
    <glyph glyph-name="Ubreve" unicode="&#x16c;" horiz-adv-x="863" 
d="M628 832c-78 0 -141 42 -115 153h25c-20 -89 20 -129 93 -129c71 0 134 35 164 129h27c-38 -118 -116 -153 -194 -153zM369 -11c-198 0 -284 99 -219 313l125 412c6 19 -6 25 -31 26l-50 3l4 15h242l-5 -15l-53 -3c-26 -1 -42 -7 -48 -26l-127 -418
c-53 -173 -6 -271 175 -271c183 0 290 104 342 276l126 413c6 19 -6 25 -30 26l-55 3l5 15h212l-5 -15l-53 -3c-26 -1 -41 -7 -47 -26l-127 -417c-62 -202 -182 -308 -381 -308z" />
    <glyph glyph-name="ubreve" unicode="&#x16d;" horiz-adv-x="601" 
d="M418 604c-78 0 -141 43 -115 154h25c-20 -89 20 -129 93 -129c71 0 134 35 164 129h27c-38 -118 -116 -154 -194 -154zM271 510l-129 -312c-47 -114 -62 -179 -5 -179c49 0 106 51 164 122c74 90 164 238 212 358l58 8l-167 -433c-19 -50 -13 -60 7 -60
c37 0 99 36 153 132l14 -6c-55 -100 -124 -151 -195 -151c-50 0 -57 27 -35 83l113 291h-1c-42 -90 -105 -183 -153 -243c-68 -84 -130 -131 -197 -131c-87 0 -79 77 -25 209l113 276l-91 6l6 14z" />
    <glyph glyph-name="Uring" unicode="&#x16e;" horiz-adv-x="863" 
d="M652 834c-60 0 -109 46 -109 105c0 60 49 106 109 106c61 0 110 -46 110 -106c0 -59 -49 -105 -110 -105zM652 858c47 0 83 34 83 81s-36 81 -83 81s-82 -34 -82 -81s35 -81 82 -81zM369 -11c-198 0 -284 99 -219 313l125 412c6 19 -6 25 -31 26l-50 3l4 15h242l-5 -15
l-53 -3c-26 -1 -42 -7 -48 -26l-127 -418c-53 -173 -6 -271 175 -271c183 0 290 104 342 276l126 413c6 19 -6 25 -30 26l-55 3l5 15h212l-5 -15l-53 -3c-26 -1 -41 -7 -47 -26l-127 -417c-62 -202 -182 -308 -381 -308z" />
    <glyph glyph-name="uring" unicode="&#x16f;" horiz-adv-x="601" 
d="M448 585c-60 0 -109 46 -109 105s49 105 109 105c61 0 110 -46 110 -105s-49 -105 -110 -105zM448 609c47 0 83 34 83 81c0 46 -36 81 -83 81s-82 -35 -82 -81c0 -47 35 -81 82 -81zM271 510l-129 -312c-47 -114 -62 -179 -5 -179c49 0 106 51 164 122
c74 90 164 238 212 358l58 8l-167 -433c-19 -50 -13 -60 7 -60c37 0 99 36 153 132l14 -6c-55 -100 -124 -151 -195 -151c-50 0 -57 27 -35 83l113 291h-1c-42 -90 -105 -183 -153 -243c-68 -84 -130 -131 -197 -131c-87 0 -79 77 -25 209l113 276l-91 6l6 14z" />
    <glyph glyph-name="Uhungarumlaut" unicode="&#x170;" horiz-adv-x="863" 
d="M496 837l179 135h75l-1 -1l-237 -134h-16zM688 837l178 135h76l-1 -1l-237 -134h-16zM369 -11c-198 0 -284 99 -219 313l125 412c6 19 -6 25 -31 26l-50 3l4 15h242l-5 -15l-53 -3c-26 -1 -42 -7 -48 -26l-127 -418c-53 -173 -6 -271 175 -271c183 0 290 104 342 276
l126 413c6 19 -6 25 -30 26l-55 3l5 15h212l-5 -15l-53 -3c-26 -1 -41 -7 -47 -26l-127 -417c-62 -202 -182 -308 -381 -308z" />
    <glyph glyph-name="uhungarumlaut" unicode="&#x171;" horiz-adv-x="601" 
d="M501 588l156 179h68l-2 -4l-208 -175h-14zM313 588l156 179h68l-2 -4l-208 -175h-14zM271 510l-129 -312c-47 -114 -62 -179 -5 -179c49 0 106 51 164 122c74 90 164 238 212 358l58 8l-167 -433c-19 -50 -13 -60 7 -60c37 0 99 36 153 132l14 -6
c-55 -100 -124 -151 -195 -151c-50 0 -57 27 -35 83l113 291h-1c-42 -90 -105 -183 -153 -243c-68 -84 -130 -131 -197 -131c-87 0 -79 77 -25 209l113 276l-91 6l6 14z" />
    <glyph glyph-name="Uogonek" unicode="&#x172;" horiz-adv-x="863" 
d="M281 -233c-48 0 -79 24 -79 63c0 58 101 120 169 159h-2c-198 0 -284 99 -219 313l125 412c6 19 -6 25 -31 26l-50 3l4 15h242l-5 -15l-53 -3c-26 -1 -42 -7 -48 -26l-127 -418c-53 -173 -6 -271 175 -271c183 0 290 104 342 276l126 413c6 19 -6 25 -30 26l-55 3l5 15
h212l-5 -15l-53 -3c-26 -1 -41 -7 -47 -26l-127 -417c-60 -195 -174 -301 -361 -308c-63 -41 -147 -95 -147 -149c0 -31 22 -49 61 -49c31 0 65 11 87 22l-1 -15c-29 -18 -72 -31 -108 -31z" />
    <glyph glyph-name="uogonek" unicode="&#x173;" horiz-adv-x="601" 
d="M302 -233c-47 0 -79 24 -79 63c0 58 101 121 170 159h-10c-50 0 -57 27 -35 83l113 291h-1c-42 -90 -105 -183 -153 -243c-68 -84 -130 -131 -197 -131c-87 0 -79 77 -25 209l113 276l-91 6l6 14l158 16l-129 -312c-47 -114 -62 -179 -5 -179c49 0 106 51 164 122
c74 90 164 238 212 358l58 8l-167 -433c-19 -50 -13 -60 7 -60c37 0 99 36 153 132l14 -6c-46 -84 -102 -133 -160 -147c-64 -42 -155 -97 -155 -153c0 -31 23 -49 62 -49c30 0 64 11 86 22v-15c-29 -18 -72 -31 -109 -31z" />
    <glyph glyph-name="Wcircumflex" unicode="&#x174;" horiz-adv-x="1246" 
d="M694 833l215 144h8l79 -144h-13l-81 95l-192 -95h-16zM83 -20l202 734c5 19 -6 25 -30 26l-52 3l5 15h241l-4 -15l-53 -3c-26 -1 -42 -7 -47 -26l-180 -642l516 473l58 213h180l-4 -15l-80 -3c-26 -1 -42 -7 -47 -26l-180 -642l697 643c16 15 21 24 -9 25l-60 3l5 15h223
l-5 -15l-52 -3c-27 -2 -49 -10 -66 -25l-798 -735h-17l142 520l-568 -520h-17z" />
    <glyph glyph-name="wcircumflex" unicode="&#x175;" horiz-adv-x="843" 
d="M409 588l242 192h6l71 -192h-11l-78 136l-217 -136h-13zM808 422c0 -211 -131 -433 -302 -433c-63 0 -104 31 -128 80c-62 -48 -130 -80 -194 -80c-67 0 -116 41 -116 116c0 93 72 218 259 348h-228l-51 -91h-15l62 140h315c-156 -111 -289 -238 -289 -358
c0 -66 33 -105 102 -105c48 0 99 19 146 51c-11 32 -16 69 -16 108c0 149 108 317 202 317c33 0 57 -22 57 -72c0 -43 -20 -124 -86 -218c-31 -45 -71 -91 -115 -130c25 -35 63 -56 112 -56c127 0 247 140 264 329l-55 102c-5 29 18 45 37 45c23 0 39 -20 39 -93zM376 225
c0 -44 8 -82 24 -112c41 32 79 73 110 117c57 80 74 143 74 179c0 41 -21 60 -49 60c-69 0 -159 -111 -159 -244z" />
    <glyph glyph-name="Ycircumflex" unicode="&#x176;" horiz-adv-x="776" 
d="M413 833l215 144h8l79 -144h-13l-81 95l-192 -95h-16zM184 0l5 16l60 2c26 1 41 7 47 26l92 298l-155 373c-7 16 -12 23 -40 25l-51 3l6 15h242l-5 -15l-55 -3c-29 -2 -43 -9 -36 -25l144 -346l355 346c17 17 7 24 -21 25l-60 3l4 15h223l-5 -15l-52 -3
c-27 -2 -38 -9 -55 -25l-380 -373l-92 -298c-6 -19 6 -25 31 -26l60 -2l-5 -16h-257z" />
    <glyph glyph-name="ycircumflex" unicode="&#x177;" horiz-adv-x="550" 
d="M253 588l242 192h6l71 -192h-11l-78 136l-217 -136h-13zM-106 -259c-49 0 -69 20 -69 43c0 16 11 29 27 35c25 -25 44 -36 71 -36c54 0 109 37 219 175l30 37l-10 477l-92 4l2 13l145 21l9 -446l257 324c77 97 99 127 127 127c19 0 28 -15 28 -33c0 -12 -5 -27 -16 -34
c-48 -15 -79 -21 -130 -84l-329 -411c-107 -133 -193 -212 -269 -212z" />
    <glyph glyph-name="Ydieresis" unicode="&#x178;" horiz-adv-x="776" 
d="M706 893c-18 5 -29 24 -25 43c5 17 25 29 43 24s29 -25 24 -42c-4 -19 -24 -30 -42 -25zM470 893c-18 5 -29 24 -24 43c4 17 24 29 42 24s29 -25 25 -42c-5 -19 -25 -30 -43 -25zM184 0l5 16l60 2c26 1 41 7 47 26l92 298l-155 373c-7 16 -12 23 -40 25l-51 3l6 15h242
l-5 -15l-55 -3c-29 -2 -43 -9 -36 -25l144 -346l355 346c17 17 7 24 -21 25l-60 3l4 15h223l-5 -15l-52 -3c-27 -2 -38 -9 -55 -25l-380 -373l-92 -298c-6 -19 6 -25 31 -26l60 -2l-5 -16h-257z" />
    <glyph glyph-name="Zacute" unicode="&#x179;" horiz-adv-x="735" 
d="M532 837l177 135h76l-1 -1l-237 -134h-15zM-43 0l2 9l789 728h-404c-16 0 -21 -3 -32 -15l-142 -154h-15l122 190h558l-3 -10l-786 -727h447c16 0 20 2 32 15l142 154h15l-122 -190h-603z" />
    <glyph glyph-name="zacute" unicode="&#x17a;" horiz-adv-x="534" 
d="M359 588l156 179h66l-2 -4l-207 -175h-13zM96 358l58 144h409l-338 -280l72 -135c39 -73 62 -96 99 -96c49 0 78 50 36 176l13 6c47 -136 18 -203 -62 -203c-60 0 -96 30 -148 119l-56 95l-140 -116c-21 -18 -16 -41 -9 -74c-27 -9 -57 1 -57 23c0 16 10 30 41 56
l461 380h-316l-50 -95h-13z" />
    <glyph glyph-name="Zdotaccent" unicode="&#x17b;" horiz-adv-x="735" 
d="M590 884c-23 0 -43 20 -43 43c0 22 20 43 43 43s43 -21 43 -43c0 -23 -20 -43 -43 -43zM-43 0l2 9l789 728h-404c-16 0 -21 -3 -32 -15l-142 -154h-15l122 190h558l-3 -10l-786 -727h447c16 0 20 2 32 15l142 154h15l-122 -190h-603z" />
    <glyph glyph-name="zdotaccent" unicode="&#x17c;" horiz-adv-x="534" 
d="M439 673c-23 0 -43 19 -43 42c0 22 20 43 43 43s43 -21 43 -43c0 -23 -20 -42 -43 -42zM96 358l58 144h409l-338 -280l72 -135c39 -73 62 -96 99 -96c49 0 78 50 36 176l13 6c47 -136 18 -203 -62 -203c-60 0 -96 30 -148 119l-56 95l-140 -116c-21 -18 -16 -41 -9 -74
c-27 -9 -57 1 -57 23c0 16 10 30 41 56l461 380h-316l-50 -95h-13z" />
    <glyph glyph-name="Zcaron" unicode="&#x17d;" horiz-adv-x="735" 
d="M547 833l-79 145h13l80 -94l193 94h16l-215 -145h-8zM-43 0l2 9l789 728h-404c-16 0 -21 -3 -32 -15l-142 -154h-15l122 190h558l-3 -10l-786 -727h447c16 0 20 2 32 15l142 154h15l-122 -190h-603z" />
    <glyph glyph-name="zcaron" unicode="&#x17e;" horiz-adv-x="534" 
d="M375 588l-71 192h11l78 -136l217 136h13l-242 -192h-6zM96 358l58 144h409l-338 -280l72 -135c39 -73 62 -96 99 -96c49 0 78 50 36 176l13 6c47 -136 18 -203 -62 -203c-60 0 -96 30 -148 119l-56 95l-140 -116c-21 -18 -16 -41 -9 -74c-27 -9 -57 1 -57 23
c0 16 10 30 41 56l461 380h-316l-50 -95h-13z" />
    <glyph glyph-name="uni018F" unicode="&#x18f;" horiz-adv-x="814" 
d="M346 -11c-174 0 -280 108 -271 291h636c25 60 39 124 39 187c0 177 -116 265 -256 265c-169 1 -302 -108 -367 -268h-17c66 192 225 309 409 308c161 -1 291 -102 291 -286c0 -228 -191 -497 -464 -497zM352 9c152 0 280 106 347 244h-564c-3 -162 81 -244 217 -244z" />
    <glyph glyph-name="Scommaaccent" unicode="&#x218;" horiz-adv-x="610" 
d="M204 -11c-76 0 -153 22 -208 59l57 180h14l-7 -151c-1 -24 6 -30 18 -37c34 -19 88 -30 135 -30c129 0 236 61 236 170c0 61 -39 119 -89 176l-48 54c-49 55 -89 113 -89 177c0 116 125 185 265 185c83 0 148 -20 189 -54l-37 -162h-15l-9 134c-2 23 -6 29 -18 36
c-25 14 -66 24 -107 24c-114 0 -214 -46 -214 -136c0 -57 38 -108 80 -155l48 -54c57 -64 103 -125 103 -192c0 -122 -114 -224 -304 -224zM55 -318l-8 16c96 64 141 120 141 157c0 19 -10 31 -28 37c0 22 16 40 38 40c24 0 43 -17 43 -44c0 -42 -53 -121 -186 -206z" />
    <glyph glyph-name="scommaaccent" unicode="&#x219;" horiz-adv-x="402" 
d="M122 8c67 0 132 31 132 98c0 41 -20 71 -52 113l-32 42c-31 41 -52 74 -52 115c0 83 89 139 177 139c73 0 103 -30 104 -62c0 -23 -19 -45 -50 -42c-30 84 -32 85 -66 85c-51 0 -122 -29 -122 -87c0 -35 17 -62 49 -104l33 -43c31 -40 57 -79 57 -127
c0 -88 -93 -146 -187 -146c-83 0 -111 44 -111 76c0 30 23 45 50 42c29 -96 32 -99 70 -99zM-55 -318l-8 16c96 64 141 120 141 157c0 19 -10 31 -28 37c0 22 16 40 38 40c24 0 43 -17 43 -44c0 -42 -53 -121 -186 -206z" />
    <glyph glyph-name="Tcommaaccent" unicode="&#x21a;" horiz-adv-x="734" 
d="M163 0l5 16l60 2c26 1 41 7 47 26l212 694h-221c-13 0 -18 -3 -26 -15l-115 -172h-15l89 207h648l-37 -207h-15l-5 172c0 12 -6 15 -19 15h-225l-212 -694c-6 -19 7 -25 32 -26l59 -2l-5 -16h-257zM105 -318l-8 16c96 64 141 120 141 157c0 19 -10 31 -28 37
c0 22 16 40 38 40c24 0 43 -17 43 -44c0 -42 -53 -121 -186 -206z" />
    <glyph glyph-name="tcommaaccent" unicode="&#x21b;" horiz-adv-x="353" 
d="M84 -11c-50 0 -58 28 -35 84l161 397h-127l12 32h128l45 111h55l-45 -111h153l-12 -32h-154l-160 -395c-20 -50 -13 -61 7 -61c37 0 101 36 155 132l14 -6c-55 -100 -126 -151 -197 -151zM-99 -318l-8 16c96 64 141 120 141 157c0 19 -10 31 -28 37c0 22 16 40 38 40
c24 0 43 -17 43 -44c0 -42 -53 -121 -186 -206z" />
    <glyph glyph-name="uni0232" unicode="&#x232;" horiz-adv-x="776" 
d="M444 889l10 27h277l-9 -27h-278zM184 0l5 16l60 2c26 1 41 7 47 26l92 298l-155 373c-7 16 -12 23 -40 25l-51 3l6 15h242l-5 -15l-55 -3c-29 -2 -43 -9 -36 -25l144 -346l355 346c17 17 7 24 -21 25l-60 3l4 15h223l-5 -15l-52 -3c-27 -2 -38 -9 -55 -25l-380 -373
l-92 -298c-6 -19 6 -25 31 -26l60 -2l-5 -16h-257z" />
    <glyph glyph-name="uni0233" unicode="&#x233;" horiz-adv-x="550" 
d="M310 668l11 27h282l-10 -27h-283zM-106 -259c-49 0 -69 20 -69 43c0 16 11 29 27 35c25 -25 44 -36 71 -36c54 0 109 37 219 175l30 37l-10 477l-92 4l2 13l145 21l9 -446l257 324c77 97 99 127 127 127c19 0 28 -15 28 -33c0 -12 -5 -27 -16 -34
c-48 -15 -79 -21 -130 -84l-329 -411c-107 -133 -193 -212 -269 -212z" />
    <glyph glyph-name="dotlessj" unicode="&#x237;" horiz-adv-x="262" 
d="M-210 -259l-6 11c134 83 168 106 235 271l182 451l-90 6l5 14l155 16l-200 -495c-52 -128 -71 -161 -162 -210z" />
    <glyph glyph-name="uni0259" unicode="&#x259;" horiz-adv-x="477" 
d="M316 515c81 0 133 -52 133 -147c0 -189 -186 -379 -344 -379c-74 0 -104 36 -104 86c0 43 32 97 96 119l252 1c24 49 38 104 38 160c0 89 -46 129 -99 129c-69 0 -141 -45 -197 -157l-15 6c61 125 141 182 240 182zM108 6c83 0 176 71 231 170h-141
c-88 0 -160 -50 -160 -113c0 -36 19 -57 70 -57z" />
    <glyph glyph-name="uni02BB" unicode="&#x2bb;" horiz-adv-x="243" 
d="M343 780l8 -16c-97 -66 -141 -128 -141 -170c0 -20 11 -33 33 -41c-5 -30 -27 -45 -49 -45c-24 0 -43 16 -43 46c0 43 44 132 192 226z" />
    <glyph glyph-name="uni02BC" unicode="&#x2bc;" horiz-adv-x="245" 
d="M146 505l-8 16c97 66 141 128 141 170c0 20 -11 33 -33 41c5 30 27 45 49 45c24 0 43 -16 43 -46c0 -43 -44 -132 -192 -226z" />
    <glyph glyph-name="circumflex" unicode="&#x2c6;" 
d="M-192 588l242 192h6l71 -192h-11l-78 136l-217 -136h-13z" />
    <glyph glyph-name="caron" unicode="&#x2c7;" 
d="M-56 588l-71 192h11l78 -136l217 136h13l-242 -192h-6z" />
    <glyph glyph-name="breve" unicode="&#x2d8;" 
d="M-13 604c-78 0 -141 43 -115 154h25c-20 -89 20 -129 93 -129c71 0 134 35 164 129h27c-38 -118 -116 -154 -194 -154z" />
    <glyph glyph-name="dotaccent" unicode="&#x2d9;" 
d="M-43 673c-23 0 -43 19 -43 42c0 22 20 43 43 43s43 -21 43 -43c0 -23 -20 -42 -43 -42z" />
    <glyph glyph-name="ring" unicode="&#x2da;" 
d="M-109 585c-60 0 -109 46 -109 105s49 105 109 105c61 0 110 -46 110 -105s-49 -105 -110 -105zM-109 609c47 0 83 34 83 81c0 46 -36 81 -83 81s-82 -35 -82 -81c0 -47 35 -81 82 -81z" />
    <glyph glyph-name="ogonek" unicode="&#x2db;" 
d="M-39 -233c-47 0 -79 24 -79 63c0 64 122 133 189 170h18c-63 -43 -167 -101 -167 -160c0 -31 23 -49 62 -49c30 0 64 11 86 22l-1 -15c-28 -18 -71 -31 -108 -31z" />
    <glyph glyph-name="tilde" unicode="&#x2dc;" 
d="M73 630c-74 0 -91 75 -150 75c-34 0 -61 -20 -77 -66h-15c17 69 52 108 101 108c69 0 84 -76 148 -76c32 0 58 21 74 66h14c-19 -76 -55 -107 -95 -107z" />
    <glyph glyph-name="hungarumlaut" unicode="&#x2dd;" 
d="M-22 588l156 179h68l-2 -4l-208 -175h-14zM-210 588l156 179h68l-2 -4l-208 -175h-14z" />
    <glyph glyph-name="uni0401" unicode="&#x401;" horiz-adv-x="725" 
d="M685 893c-18 5 -29 24 -25 43c5 17 25 29 43 24s29 -25 24 -42c-4 -19 -24 -30 -42 -25zM449 893c-18 5 -29 24 -24 43c4 17 24 29 42 24s29 -25 25 -42c-5 -19 -25 -30 -43 -25zM-17 0l4 15l53 3c26 1 41 7 47 26l205 670c6 19 -6 25 -31 26l-51 3l5 15h529l-26 -186
h-15l-20 150c-2 12 -5 14 -19 14h-306l-100 -327h187c21 0 23 1 29 14l55 108h15l-82 -268h-14l10 107c1 13 1 15 -21 15h-187l-110 -363h355c14 0 19 3 29 14l147 154h15l-121 -190h-582z" />
    <glyph glyph-name="uni0402" unicode="&#x402;" horiz-adv-x="841" 
d="M124 0l5 16l60 2c27 1 41 7 47 26l212 694h-181c-14 0 -19 -3 -27 -15l-117 -172h-13l89 207h599l-34 -196h-12l-12 161c-1 12 -5 15 -18 15h-214l-117 -382c61 60 153 96 235 96c139 0 195 -86 149 -235l-21 -71c-34 -108 -67 -134 -176 -208c-26 -17 -70 -43 -104 -63
l-7 15c152 101 187 123 222 238l24 79c43 145 -1 210 -117 210c-85 0 -163 -35 -212 -85l-88 -288c-6 -19 6 -24 31 -26l59 -2l-4 -16h-258z" />
    <glyph glyph-name="uni0403" unicode="&#x403;" horiz-adv-x="669" 
d="M481 837l177 135h76l-1 -1l-237 -134h-15zM-17 0l4 15l53 3c26 1 41 7 47 26l203 670c6 19 -4 25 -29 26l-51 3l5 15h549l-26 -186h-12l-24 150c-2 12 -5 14 -18 14h-326l-212 -692c-6 -19 6 -25 32 -26l97 -2l-5 -16h-287z" />
    <glyph glyph-name="uni0404" unicode="&#x404;" horiz-adv-x="799" 
d="M384 -11c-160 0 -300 87 -300 292c0 266 243 491 514 491c96 0 182 -24 228 -56l1 -176h-15l-41 143c-10 34 -20 39 -46 48c-33 11 -75 19 -125 19c-199 0 -370 -140 -427 -341h318c22 0 24 2 30 14l57 108h12l-82 -268h-12l10 107c1 13 0 15 -21 15h-318
c-9 -39 -14 -80 -14 -123c0 -179 106 -252 234 -252c64 0 100 9 132 16c13 3 31 8 54 31l167 173h14l-122 -189c-61 -35 -158 -52 -248 -52z" />
    <glyph glyph-name="uni0405" unicode="&#x405;" horiz-adv-x="610" 
d="M204 -11c-76 0 -153 22 -208 59l57 180h14l-7 -151c-1 -24 6 -30 18 -37c34 -19 88 -30 135 -30c129 0 236 61 236 170c0 61 -39 119 -89 176l-48 54c-49 55 -89 113 -89 177c0 116 125 185 265 185c83 0 148 -20 189 -54l-37 -162h-15l-9 134c-2 23 -6 29 -18 36
c-25 14 -66 24 -107 24c-114 0 -214 -46 -214 -136c0 -57 38 -108 80 -155l48 -54c57 -64 103 -125 103 -192c0 -122 -114 -224 -304 -224z" />
    <glyph glyph-name="uni0406" unicode="&#x406;" horiz-adv-x="358" 
d="M-17 0l4 15l53 3c26 1 41 7 47 26l204 670c6 19 -6 25 -30 26l-51 3l5 15h241l-5 -15l-53 -3c-26 -1 -41 -7 -47 -26l-205 -670c-6 -19 7 -25 31 -26l52 -3l-5 -15h-241z" />
    <glyph glyph-name="uni0407" unicode="&#x407;" horiz-adv-x="358" 
d="M503 893c-18 5 -29 24 -25 43c5 17 25 29 43 24s29 -25 24 -42c-4 -19 -24 -30 -42 -25zM267 893c-18 5 -29 24 -24 43c4 17 24 29 42 24s29 -25 25 -42c-5 -19 -25 -30 -43 -25zM-17 0l4 15l53 3c26 1 41 7 47 26l204 670c6 19 -6 25 -30 26l-51 3l5 15h241l-5 -15
l-53 -3c-26 -1 -41 -7 -47 -26l-205 -670c-6 -19 7 -25 31 -26l52 -3l-5 -15h-241z" />
    <glyph glyph-name="uni0408" unicode="&#x408;" horiz-adv-x="351" 
d="M-99 -124l-9 16c156 100 188 121 223 236l180 587c5 19 -6 23 -31 24l-54 2l5 17h246l-5 -17l-56 -2c-26 -1 -40 -5 -46 -24l-174 -569c-33 -108 -53 -133 -169 -209c-27 -17 -75 -43 -110 -61z" />
    <glyph glyph-name="uni0409" unicode="&#x409;" horiz-adv-x="1109" 
d="M306 758h589l-5 -15l-79 -3c-26 -1 -42 -7 -48 -26l-84 -281h122c212 0 287 -74 269 -194c-18 -136 -150 -239 -388 -239h-285l4 15l53 3c26 1 41 7 47 26l212 693h-296c-116 -379 -199 -560 -321 -694c-35 -40 -62 -54 -82 -54c-14 0 -22 10 -22 22c0 29 35 58 111 78
c114 139 186 313 281 625c6 19 -6 25 -31 26l-51 3zM553 21h119c199 0 313 83 331 218c19 115 -46 173 -217 173h-113z" />
    <glyph glyph-name="uni040A" unicode="&#x40a;" horiz-adv-x="1154" 
d="M-17 0l4 15l53 3c26 1 41 7 47 26l203 670c6 19 -5 25 -29 26l-51 3l5 15h241l-5 -15l-53 -3c-26 -1 -42 -7 -48 -26l-88 -293h399l90 293c6 19 -6 25 -31 26l-51 3l5 15h267l-6 -15l-78 -3c-25 0 -41 -7 -47 -26l-89 -293h122c186 0 277 -55 277 -165
c0 -134 -133 -256 -387 -256h-291l5 15l52 3c27 1 42 7 47 26l107 351h-399l-108 -351c-6 -19 7 -25 31 -26l52 -3l-5 -15h-241zM598 21h124c220 0 331 108 331 235c0 102 -73 144 -225 144h-113z" />
    <glyph glyph-name="uni040B" unicode="&#x40b;" horiz-adv-x="892" 
d="M124 0l5 16l60 2c27 1 41 7 47 26l212 694h-181c-14 0 -19 -3 -27 -15l-117 -172h-13l89 207h599l-34 -196h-12l-12 161c-1 12 -5 15 -18 15h-214l-116 -381c61 60 152 95 238 95c143 0 193 -76 145 -231l-54 -177c-6 -20 1 -25 28 -26l41 -2l-5 -16h-136l67 219
c42 138 2 198 -120 198c-85 0 -161 -34 -212 -83l-88 -290c-6 -19 6 -24 31 -26l59 -2l-4 -16h-258z" />
    <glyph glyph-name="uni040C" unicode="&#x40c;" horiz-adv-x="807" 
d="M572 837l177 135h76l-1 -1l-237 -134h-15zM-17 0l4 15l53 3c26 1 41 7 47 26l204 670c6 19 -6 25 -30 26l-51 3l5 15h241l-5 -15l-53 -3c-26 -1 -41 -7 -47 -26l-100 -328l531 335c16 10 10 17 -25 19l-56 3l5 15h245l-5 -15l-54 -3c-36 -2 -52 -8 -77 -24l-499 -314
l405 -402h-77l-394 383l-104 -339c-6 -19 7 -25 31 -26l52 -3l-5 -15h-241z" />
    <glyph glyph-name="uni040E" unicode="&#x40e;" horiz-adv-x="759" 
d="M562 831c-100 0 -148 59 -129 154h45c-19 -98 18 -134 85 -134c66 0 119 32 144 134h45c-27 -103 -101 -154 -190 -154zM313 99c-63 -76 -103 -110 -138 -110c-15 0 -24 9 -24 21c0 31 42 56 115 70c26 28 65 76 95 112l-133 523c-5 17 -10 24 -35 25l-50 3l4 15h247
l-4 -15l-56 -3c-30 -1 -45 -9 -41 -25l118 -462l381 462c15 17 5 24 -24 25l-54 3l4 15h208l-4 -15l-53 -3c-25 -1 -35 -8 -49 -25z" />
    <glyph glyph-name="uni040F" unicode="&#x40f;" horiz-adv-x="862" 
d="M322 -12c1 9 -4 12 -17 12h-322l4 15l53 3c25 1 41 7 47 26l203 670c6 19 -5 25 -29 26l-51 3l4 15h241l-4 -15l-53 -3c-26 -1 -41 -7 -47 -26l-211 -693h445l211 693c6 19 -6 25 -31 26l-51 3l4 15h242l-5 -15l-53 -3c-25 -1 -41 -7 -47 -26l-204 -670
c-6 -19 5 -25 31 -26l51 -3l-4 -15h-324c-12 0 -21 -3 -25 -12l-66 -146h-13z" />
    <glyph glyph-name="uni0410" unicode="&#x410;" horiz-adv-x="811" 
d="M-138 0l5 15l52 3c26 1 49 10 66 25l805 735h17l-202 -734c-5 -19 5 -25 30 -26l52 -3l-5 -15h-241l4 15l53 3c26 1 42 7 47 26l73 258h-313l-284 -259c-16 -15 -21 -24 9 -25l60 -3l-6 -15h-222zM333 328h292l101 359z" />
    <glyph glyph-name="uni0411" unicode="&#x411;" horiz-adv-x="738" 
d="M291 714c6 19 -5 25 -30 26l-51 3l5 15h523l-26 -186h-13l-24 150c-2 12 -5 14 -18 14h-299l-94 -308h121c187 0 277 -62 277 -170c0 -134 -133 -258 -389 -258h-290l4 15l53 3c26 1 41 7 47 26zM139 21h124c221 0 332 109 332 237c0 100 -71 149 -224 149h-114z" />
    <glyph glyph-name="uni0412" unicode="&#x412;" horiz-adv-x="730" 
d="M-17 0l4 15l53 3c26 1 41 7 47 26l204 670c6 19 -6 25 -30 26l-51 3l5 15h266c148 0 253 -32 253 -135c-2 -98 -95 -206 -267 -220v-1c114 -4 208 -48 208 -147c0 -117 -112 -255 -394 -255h-298zM259 410h153c179 0 258 124 258 213c0 86 -76 114 -193 114h-119zM139 21
h138c246 0 332 130 332 240c0 89 -76 128 -202 128h-155z" />
    <glyph glyph-name="uni0413" unicode="&#x413;" horiz-adv-x="669" 
d="M-17 0l4 15l53 3c26 1 41 7 47 26l203 670c6 19 -4 25 -29 26l-51 3l5 15h549l-26 -186h-12l-24 150c-2 12 -5 14 -18 14h-326l-212 -692c-6 -19 6 -25 32 -26l97 -2l-5 -16h-287z" />
    <glyph glyph-name="uni0414" unicode="&#x414;" horiz-adv-x="791" 
d="M24 -12l-96 -146h-12l63 179h81c82 110 192 314 308 693c6 19 -6 25 -31 26l-51 3l4 15h594l-4 -15l-53 -3c-26 -1 -41 -7 -47 -26l-211 -693h104l-47 -179h-12v146c0 9 -6 12 -19 12h-546c-13 0 -19 -3 -25 -12zM509 21l219 716h-327c-123 -400 -231 -604 -311 -716h419
z" />
    <glyph glyph-name="uni0415" unicode="&#x415;" horiz-adv-x="725" 
d="M-17 0l4 15l53 3c26 1 41 7 47 26l205 670c6 19 -6 25 -31 26l-51 3l5 15h529l-26 -186h-15l-20 150c-2 12 -5 14 -19 14h-306l-100 -327h187c21 0 23 1 29 14l55 108h15l-82 -268h-14l10 107c1 13 1 15 -21 15h-187l-110 -363h355c14 0 19 3 29 14l147 154h15l-121 -190
h-582z" />
    <glyph glyph-name="uni0416" unicode="&#x416;" horiz-adv-x="1113" 
d="M30 0h-90l582 412l-226 301c-16 22 -27 26 -64 27l-52 3l5 15h240l-5 -15l-58 -3c-36 -2 -45 -7 -34 -22l248 -333l100 329c6 19 -4 25 -29 26l-52 3l6 15h241l-5 -15l-53 -3c-26 -1 -43 -7 -49 -26l-203 -670c-6 -19 6 -25 31 -26l52 -3l-5 -15h-241l4 15l53 3
c26 1 41 7 47 26l103 339zM949 0l-313 384l48 36l407 299c17 13 12 20 -23 21l-56 3l5 15h240l-5 -15l-54 -3c-36 -1 -52 -5 -79 -25l-422 -311l327 -404h-75z" />
    <glyph glyph-name="uni0417" unicode="&#x417;" horiz-adv-x="713" 
d="M289 10c197 0 296 112 296 226c0 84 -64 153 -186 153h-87l7 21h85c159 0 248 97 248 204c0 76 -48 136 -149 136c-43 0 -89 -13 -107 -20c-16 -6 -31 -22 -53 -44l-147 -153h-14l122 189c55 29 136 50 205 50c138 0 207 -74 207 -156c0 -100 -85 -197 -261 -215v-2
c126 -6 197 -77 197 -164c0 -116 -113 -246 -362 -246c-84 0 -164 20 -200 47l19 177h12l25 -143c4 -25 11 -32 22 -37c20 -9 56 -23 121 -23z" />
    <glyph glyph-name="uni0418" unicode="&#x418;" horiz-adv-x="882" 
d="M-17 0l4 15l53 3c26 1 41 7 47 26l203 670c6 19 -4 25 -29 26l-51 3l5 15h241l-5 -15l-53 -3c-26 -1 -41 -7 -47 -26l-179 -587l635 560l8 27c6 19 -6 25 -31 26l-51 3l5 15h242l-6 -15l-53 -3c-25 -1 -42 -7 -48 -26l-203 -670c-6 -19 6 -25 31 -26l51 -3l-4 -15h-242
l5 15l52 3c26 1 42 7 47 26l184 600l-635 -560l-12 -40c-6 -19 6 -25 30 -26l52 -3l-5 -15h-241z" />
    <glyph glyph-name="uni0419" unicode="&#x419;" horiz-adv-x="882" 
d="M614 831c-100 0 -148 59 -129 154h45c-19 -98 18 -134 85 -134c66 0 119 32 144 134h45c-27 -103 -101 -154 -190 -154zM-17 0l4 15l53 3c26 1 41 7 47 26l203 670c6 19 -4 25 -29 26l-51 3l5 15h241l-5 -15l-53 -3c-26 -1 -41 -7 -47 -26l-179 -587l635 560l8 27
c6 19 -6 25 -31 26l-51 3l5 15h242l-6 -15l-53 -3c-25 -1 -42 -7 -48 -26l-203 -670c-6 -19 6 -25 31 -26l51 -3l-4 -15h-242l5 15l52 3c26 1 42 7 47 26l184 600l-635 -560l-12 -40c-6 -19 6 -25 30 -26l52 -3l-5 -15h-241z" />
    <glyph glyph-name="uni041A" unicode="&#x41a;" horiz-adv-x="807" 
d="M-17 0l4 15l53 3c26 1 41 7 47 26l204 670c6 19 -6 25 -30 26l-51 3l5 15h241l-5 -15l-53 -3c-26 -1 -41 -7 -47 -26l-100 -328l531 335c16 10 10 17 -25 19l-56 3l5 15h245l-5 -15l-54 -3c-36 -2 -52 -8 -77 -24l-499 -314l405 -402h-77l-394 383l-104 -339
c-6 -19 7 -25 31 -26l52 -3l-5 -15h-241z" />
    <glyph glyph-name="uni041B" unicode="&#x41b;" horiz-adv-x="798" 
d="M417 737c-116 -379 -199 -560 -321 -694c-35 -40 -62 -54 -82 -54c-14 0 -22 10 -22 22c0 29 35 58 111 78c114 139 186 313 281 625c6 19 -6 25 -31 26l-51 3l4 15h590l-5 -15l-53 -3c-25 -1 -41 -7 -47 -26l-203 -670c-6 -19 5 -25 30 -26l51 -3l-5 -15h-241l4 15l54 3
c25 1 40 7 46 26l212 693h-322z" />
    <glyph glyph-name="uni041C" unicode="&#x41c;" horiz-adv-x="1022" 
d="M-17 0l4 15l53 3c26 1 41 7 47 26l204 670c6 19 -6 25 -30 26l-51 3l5 15h162l125 -533l451 533h166l-5 -15l-53 -3c-26 -1 -41 -7 -47 -26l-205 -670c-6 -19 7 -25 31 -26l52 -3l-5 -15h-241l4 15l53 3c26 1 41 7 47 26l209 685l-495 -587h-6l-135 587l-209 -685
c-6 -19 6 -25 30 -26l52 -3l-5 -15h-208z" />
    <glyph glyph-name="uni041D" unicode="&#x41d;" horiz-adv-x="887" 
d="M-17 0l4 15l53 3c26 1 41 7 47 26l204 670c6 19 -6 25 -30 26l-51 3l5 15h241l-5 -15l-53 -3c-26 -1 -41 -7 -47 -26l-92 -303h469l92 303c6 19 -6 25 -31 26l-51 3l5 15h241l-4 -15l-53 -3c-27 -2 -42 -7 -48 -26l-204 -670c-6 -19 6 -25 30 -26l52 -3l-5 -15h-241l4 15
l53 3c26 1 41 7 47 26l105 341h-469l-105 -341c-6 -19 7 -25 31 -26l52 -3l-5 -15h-241z" />
    <glyph glyph-name="uni041E" unicode="&#x41e;" horiz-adv-x="877" 
d="M371 -11c-159 0 -292 99 -292 280c0 226 212 503 508 503c159 0 292 -99 292 -281c0 -225 -212 -502 -508 -502zM380 9c239 0 430 244 430 484c0 163 -97 258 -233 258c-238 0 -429 -244 -429 -483c0 -164 97 -259 232 -259z" />
    <glyph glyph-name="uni041F" unicode="&#x41f;" horiz-adv-x="863" 
d="M215 758h746l-6 -15l-53 -3c-25 -1 -42 -7 -48 -26l-203 -670c-6 -19 6 -25 31 -26l51 -3l-4 -15h-242l5 15l52 3c27 1 42 7 47 26l212 693h-445l-212 -693c-6 -19 7 -25 31 -26l52 -3l-5 -15h-241l4 15l53 3c26 1 41 7 47 26l203 670c6 19 -4 25 -29 26l-51 3z" />
    <glyph glyph-name="uni0420" unicode="&#x420;" horiz-adv-x="713" 
d="M-17 0l4 15l53 3c26 1 41 7 47 26l204 670c6 19 -6 25 -30 26l-51 3l5 15h303c142 0 260 -32 260 -147c0 -144 -135 -253 -379 -253h-131l6 22h126c200 0 312 102 312 232c0 95 -88 125 -203 125h-151l-212 -693c-6 -19 6 -25 31 -26l98 -2l-5 -16h-287z" />
    <glyph glyph-name="uni0421" unicode="&#x421;" horiz-adv-x="799" 
d="M384 -11c-160 0 -300 87 -300 292c0 266 243 491 514 491c96 0 182 -24 228 -56l1 -176h-15l-41 143c-10 34 -20 39 -46 48c-33 11 -75 19 -125 19c-244 0 -447 -211 -447 -488c0 -179 106 -252 234 -252c64 0 100 9 132 16c13 3 31 8 54 31l167 173h14l-122 -189
c-61 -35 -158 -52 -248 -52z" />
    <glyph glyph-name="uni0422" unicode="&#x422;" horiz-adv-x="734" 
d="M163 0l5 16l60 2c26 1 41 7 47 26l212 694h-221c-13 0 -18 -3 -26 -15l-115 -172h-15l89 207h648l-37 -207h-15l-5 172c0 12 -6 15 -19 15h-225l-212 -694c-6 -19 7 -25 32 -26l59 -2l-5 -16h-257z" />
    <glyph glyph-name="uni0423" unicode="&#x423;" horiz-adv-x="759" 
d="M313 99c-63 -76 -103 -110 -138 -110c-15 0 -24 9 -24 21c0 31 42 56 115 70c26 28 65 76 95 112l-133 523c-5 17 -10 24 -35 25l-50 3l4 15h247l-4 -15l-56 -3c-30 -1 -45 -9 -41 -25l118 -462l381 462c15 17 5 24 -24 25l-54 3l4 15h208l-4 -15l-53 -3
c-25 -1 -35 -8 -49 -25z" />
    <glyph glyph-name="uni0424" unicode="&#x424;" horiz-adv-x="937" 
d="M266 -20l5 15l52 3c27 1 42 7 47 26l19 61c-192 7 -319 86 -319 239c0 190 187 343 500 352l18 58c5 19 -7 25 -31 26l-51 3l4 15h242l-5 -15l-53 -3c-26 -1 -41 -7 -47 -26l-18 -59c192 -7 320 -86 320 -238c0 -190 -188 -344 -501 -353l-18 -60c-6 -19 6 -25 31 -26
l51 -3l-4 -15h-242zM135 321c0 -140 100 -207 260 -214l169 547c-268 -9 -429 -153 -429 -333zM883 439c-1 140 -101 208 -260 215l-168 -547c267 10 427 154 428 332z" />
    <glyph glyph-name="uni0425" unicode="&#x425;" horiz-adv-x="845" 
d="M-101 0l7 15l50 3c26 2 49 10 67 25l432 350l-102 322c-5 16 -16 24 -39 25l-49 3l7 15h241l-8 -15l-55 -4c-29 -2 -41 -8 -36 -25l89 -283l349 283c19 15 19 23 -10 25l-53 4l7 15h218l-7 -15l-50 -3c-25 -1 -48 -11 -66 -25l-380 -308l114 -364c5 -16 16 -24 40 -25
l48 -3l-7 -15h-241l8 15l55 4c30 2 42 8 37 25l-102 324l-401 -324c-19 -16 -19 -23 10 -25l53 -4l-7 -15h-219z" />
    <glyph glyph-name="uni0426" unicode="&#x426;" horiz-adv-x="867" 
d="M672 0h-689l4 15l53 3c25 1 41 7 47 26l203 670c6 19 -5 25 -29 26l-51 3l4 15h241l-4 -15l-53 -3c-26 -1 -41 -7 -47 -26l-211 -693h445l211 693c6 19 -6 25 -31 26l-51 3l4 15h242l-5 -15l-53 -3c-25 -1 -41 -7 -47 -26l-211 -693h104l-47 -179h-12v146
c0 9 -5 12 -17 12z" />
    <glyph glyph-name="uni0427" unicode="&#x427;" horiz-adv-x="827" 
d="M233 589l37 125c6 19 -4 25 -30 26l-51 3l5 15h242l-5 -15l-53 -3c-26 -1 -43 -7 -49 -26l-38 -129c-54 -184 16 -236 162 -236c94 0 180 25 206 32l100 333c6 19 -4 25 -30 26l-51 3l5 15h242l-5 -15l-53 -3c-26 -1 -41 -7 -47 -26l-205 -670c-5 -19 7 -25 31 -26l52 -3
l-5 -15h-256l5 15l67 3c25 1 41 7 47 26l96 314c-27 -8 -124 -34 -204 -34c-176 0 -277 56 -215 265z" />
    <glyph glyph-name="uni0428" unicode="&#x428;" horiz-adv-x="1158" 
d="M1024 0h-1041l4 15l53 3c26 1 41 7 47 26l203 670c6 19 -4 25 -29 26l-51 3l5 15h241l-5 -15l-53 -3c-25 -1 -42 -7 -48 -26l-210 -693h341l211 693c6 19 -6 25 -31 26l-52 3l6 15h241l-5 -15l-53 -3c-25 -1 -41 -7 -47 -26l-211 -693h340l211 693c6 19 -5 25 -31 26
l-51 3l5 15h242l-5 -15l-53 -3c-26 -1 -41 -7 -47 -26l-205 -670c-5 -19 7 -25 31 -26l51 -3z" />
    <glyph glyph-name="uni0429" unicode="&#x429;" horiz-adv-x="1162" 
d="M967 0h-984l4 15l53 3c25 1 41 7 47 26l203 670c6 19 -5 25 -29 26l-51 3l4 15h241l-4 -15l-53 -3c-26 -1 -41 -7 -47 -26l-211 -693h341l211 693c6 19 -6 25 -31 26l-52 3l5 15h241l-4 -15l-53 -3c-26 -1 -41 -7 -47 -26l-211 -693h340l211 693c6 19 -6 25 -31 26l-51 3
l4 15h242l-4 -15l-53 -3c-26 -1 -41 -7 -47 -26l-212 -693h104l-47 -179h-12v146c0 9 -4 12 -17 12z" />
    <glyph glyph-name="uni042A" unicode="&#x42a;" horiz-adv-x="831" 
d="M400 433h122c186 0 275 -62 275 -172c0 -136 -133 -261 -389 -261h-290l4 15l53 3c26 1 41 7 47 26l212 694h-161c-14 0 -19 -3 -27 -15l-120 -172h-13l90 207h413l-5 -15l-78 -3c-26 -1 -41 -7 -47 -26zM274 21h124c221 0 331 110 331 240c0 102 -70 151 -222 151h-113z
" />
    <glyph glyph-name="uni042B" unicode="&#x42b;" horiz-adv-x="1019" 
d="M265 433h122c186 0 275 -62 275 -172c0 -136 -133 -261 -389 -261h-290l4 15l53 3c26 1 41 7 47 26l203 670c6 19 -4 25 -29 26l-51 3l5 15h266l-5 -15l-78 -3c-26 0 -41 -7 -47 -26zM644 0l4 15l53 3c26 1 41 7 47 26l204 670c6 19 -6 25 -30 26l-51 3l5 15h241l-5 -15
l-53 -3c-26 -1 -41 -7 -47 -26l-205 -670c-6 -19 7 -25 31 -26l52 -3l-5 -15h-241zM139 21h124c221 0 332 110 332 240c0 102 -71 151 -223 151h-113z" />
    <glyph glyph-name="uni042C" unicode="&#x42c;" horiz-adv-x="696" 
d="M265 433h122c186 0 275 -62 275 -172c0 -136 -133 -261 -389 -261h-290l4 15l53 3c26 1 41 7 47 26l203 670c6 19 -4 25 -29 26l-51 3l5 15h266l-5 -15l-78 -3c-26 0 -41 -7 -47 -26zM139 21h124c221 0 332 110 332 240c0 102 -71 151 -223 151h-113z" />
    <glyph glyph-name="uni042D" unicode="&#x42d;" horiz-adv-x="826" 
d="M526 772c162 0 302 -90 302 -296c0 -265 -239 -487 -504 -487c-96 0 -172 18 -226 47l-1 177h15l34 -119c12 -41 15 -53 38 -62c23 -10 72 -22 137 -22c204 0 378 151 425 367h-317c-22 0 -24 -2 -30 -14l-57 -108h-12l82 268h12l-10 -107c-1 -13 0 -15 21 -15h316
c5 31 8 62 8 95c0 179 -106 254 -234 254c-69 0 -133 -9 -166 -26c-17 -9 -21 -15 -37 -32l-151 -159h-14l119 190c62 34 162 49 250 49z" />
    <glyph glyph-name="uni042E" unicode="&#x42e;" horiz-adv-x="1159" 
d="M-17 0l4 15l53 3c26 1 41 7 47 26l203 670c6 19 -5 25 -29 26l-51 3l5 15h241l-5 -15l-53 -3c-26 -1 -41 -7 -47 -26l-92 -303h146c63 186 242 361 473 361c154 0 282 -99 282 -281c0 -225 -207 -502 -498 -502c-153 0 -282 99 -282 280c0 38 6 77 17 116h-146l-105 -341
c-6 -19 7 -25 31 -26l52 -3l-5 -15h-241zM672 9c233 0 419 244 419 484c0 163 -93 258 -222 258c-233 0 -420 -244 -420 -483c0 -164 93 -259 223 -259z" />
    <glyph glyph-name="uni042F" unicode="&#x42f;" horiz-adv-x="777" 
d="M55 0h-76l436 357c-111 10 -193 56 -193 163c0 151 148 238 381 238h271l-5 -15l-53 -3c-25 -1 -42 -7 -48 -26l-203 -670c-6 -19 6 -25 30 -26l52 -3l-5 -15h-241l4 15l53 3c27 1 42 7 47 26l95 306h-118zM606 372l111 365h-110c-195 0 -320 -80 -320 -216
c0 -114 86 -149 209 -149h110z" />
    <glyph glyph-name="uni0430" unicode="&#x430;" horiz-adv-x="572" 
d="M112 -11c-62 0 -97 38 -97 104c0 180 204 422 362 422c56 0 80 -41 80 -87h2l28 80h52l-160 -434c-19 -50 -13 -60 6 -60c38 0 99 36 155 132l14 -6c-57 -100 -127 -151 -197 -151c-50 0 -50 27 -28 85l43 116h-2c-81 -131 -175 -201 -258 -201zM139 20
c93 0 216 132 277 297c45 123 23 181 -40 181c-134 0 -298 -238 -298 -399c0 -50 19 -79 61 -79z" />
    <glyph glyph-name="uni0431" unicode="&#x431;" horiz-adv-x="557" 
d="M521 349c0 -175 -143 -360 -322 -360c-102 0 -163 59 -163 177c0 230 195 555 483 584c78 8 121 19 135 59h17c-23 -70 -66 -104 -176 -113c-93 -8 -143 -17 -192 -53c-62 -47 -120 -145 -159 -252c63 76 138 119 224 119c99 0 153 -66 153 -161zM204 8
c138 0 254 166 254 327c0 87 -46 144 -118 144c-70 0 -136 -33 -205 -115c-24 -73 -39 -150 -39 -215c0 -99 47 -141 108 -141z" />
    <glyph glyph-name="uni0432" unicode="&#x432;" horiz-adv-x="482" 
d="M410 174c0 -107 -97 -185 -223 -185c-98 0 -150 58 -150 152c0 174 168 374 341 374c74 0 108 -36 108 -80c0 -73 -76 -126 -219 -162c93 4 143 -38 143 -99zM359 494c-107 0 -210 -116 -247 -248l98 27c149 42 216 84 216 160c0 35 -22 61 -67 61zM98 147
c0 -97 37 -140 97 -140c94 0 156 77 156 155c0 84 -70 114 -167 89l-76 -20c-6 -28 -10 -56 -10 -84z" />
    <glyph glyph-name="uni0433" unicode="&#x433;" horiz-adv-x="487" 
d="M195 -11c-91 0 -155 39 -155 109c0 105 85 134 195 166l35 10c100 28 152 64 152 140c0 51 -31 83 -87 83c-16 0 -39 -2 -60 -8c-18 -5 -36 -14 -47 -30l-92 -122h-13l64 145c51 25 105 33 152 33c84 0 133 -43 133 -104c0 -96 -70 -137 -182 -170l-39 -11
c-92 -26 -160 -56 -160 -135c0 -58 44 -89 106 -89c22 0 46 2 66 8c22 7 41 15 56 37l86 131h13l-62 -161c-49 -22 -105 -32 -161 -32z" />
    <glyph glyph-name="uni0434" unicode="&#x434;" horiz-adv-x="548" 
d="M192 -11c-108 0 -155 71 -155 165c0 169 152 360 326 360c53 0 86 -25 98 -46c2 24 3 47 3 69c0 126 -35 223 -123 223c-49 0 -80 -18 -110 -47l-11 12c29 31 67 56 126 56c120 0 174 -124 174 -274c0 -230 -121 -518 -328 -518zM99 144c0 -80 27 -137 101 -137
c131 0 232 223 258 432c-13 31 -43 57 -98 57c-152 0 -261 -182 -261 -352z" />
    <glyph glyph-name="uni0435" unicode="&#x435;" horiz-adv-x="474" 
d="M163 -11c-81 0 -133 52 -133 147c0 189 186 379 344 379c74 0 104 -36 104 -86c0 -43 -32 -97 -96 -119l-252 -1c-24 -49 -38 -104 -38 -160c0 -89 46 -129 99 -129c69 0 141 45 197 157l15 -6c-61 -125 -141 -182 -240 -182zM371 498c-83 0 -176 -71 -231 -170h141
c88 0 160 50 160 113c0 36 -19 57 -70 57z" />
    <glyph glyph-name="uni0436" unicode="&#x436;" horiz-adv-x="935" 
d="M398 6l-63 -13l96 252l-130 -12c-50 -126 -148 -245 -241 -245c-51 0 -82 37 -82 86c0 39 26 62 63 56c-20 -84 -8 -125 33 -125c86 0 202 201 202 365c0 72 -19 114 -55 114c-52 0 -97 -49 -148 -153l-14 6c51 111 110 178 187 178c52 0 88 -46 88 -130
c0 -41 -10 -87 -26 -133l130 12l89 233l61 14l-91 -241l132 13c51 120 146 232 236 232c51 0 82 -37 82 -86c0 -39 -26 -62 -63 -56c20 84 8 125 -33 125c-86 0 -203 -201 -203 -365c0 -72 20 -114 55 -114c53 0 98 49 148 154l15 -7c-51 -111 -110 -178 -187 -178
c-52 0 -88 46 -88 130c0 44 11 95 31 146l-132 -13z" />
    <glyph glyph-name="uni0437" unicode="&#x437;" horiz-adv-x="461" 
d="M162 -11c-101 0 -139 43 -139 95c0 38 31 59 68 53c-28 -98 -3 -131 74 -131c92 0 159 66 159 153c0 79 -57 108 -149 84l-27 -7l6 17l47 13c127 35 183 95 183 161c0 31 -18 54 -58 54c-70 0 -140 -35 -201 -125l-14 7c66 102 143 152 237 152c70 0 97 -35 97 -82
c0 -72 -74 -132 -192 -167c81 3 131 -34 131 -97c0 -108 -101 -180 -222 -180z" />
    <glyph glyph-name="uni0438" unicode="&#x438;" horiz-adv-x="601" 
d="M271 510l-129 -312c-47 -114 -62 -179 -5 -179c49 0 106 51 164 122c74 90 164 238 212 358l58 8l-167 -433c-19 -50 -13 -60 7 -60c37 0 99 36 153 132l14 -6c-55 -100 -124 -151 -195 -151c-50 0 -57 27 -35 83l113 291h-1c-42 -90 -105 -183 -153 -243
c-68 -84 -130 -131 -197 -131c-87 0 -79 77 -25 209l113 276l-91 6l6 14z" />
    <glyph glyph-name="uni0439" unicode="&#x439;" horiz-adv-x="601" 
d="M405 605c-99 0 -148 59 -128 154h44c-19 -98 19 -134 85 -134c67 0 119 33 144 134h45c-27 -102 -101 -154 -190 -154zM271 510l-129 -312c-47 -114 -62 -179 -5 -179c49 0 106 51 164 122c74 90 164 238 212 358l58 8l-167 -433c-19 -50 -13 -60 7 -60
c37 0 99 36 153 132l14 -6c-55 -100 -124 -151 -195 -151c-50 0 -57 27 -35 83l113 291h-1c-42 -90 -105 -183 -153 -243c-68 -84 -130 -131 -197 -131c-87 0 -79 77 -25 209l113 276l-91 6l6 14z" />
    <glyph glyph-name="uni043A" unicode="&#x43a;" horiz-adv-x="570" 
d="M74 6l-60 -13l184 480l-90 7l6 14l153 16l-98 -255l169 145c85 74 127 115 171 115c45 0 66 -35 66 -67c0 -30 -24 -53 -53 -55c-1 60 -7 93 -36 93c-30 0 -72 -44 -137 -100l-128 -109l147 -235c28 -43 39 -52 58 -52c20 0 44 15 71 102l15 -4
c-28 -97 -61 -120 -107 -120c-39 0 -62 24 -104 87l-132 198z" />
    <glyph glyph-name="uni043B" unicode="&#x43b;" horiz-adv-x="566" 
d="M83 41c-28 -32 -52 -52 -77 -52c-17 0 -29 12 -29 28c0 10 4 18 11 25l94 24c81 102 141 231 211 409h-82l12 27h329l-165 -428c-20 -50 -13 -60 7 -60c37 0 99 36 153 132l14 -6c-55 -100 -124 -151 -195 -151c-50 0 -57 27 -35 83l156 403h-173
c-81 -202 -155 -348 -231 -434z" />
    <glyph glyph-name="uni043C" unicode="&#x43c;" horiz-adv-x="777" 
d="M-3 -8c-19 0 -30 11 -30 26c0 10 5 20 10 25l86 20c45 40 185 308 224 411l-92 6l5 14l139 17l-5 -425l345 412l68 9l-167 -433c-19 -50 -13 -60 7 -60c37 0 99 36 153 132l14 -6c-55 -100 -124 -151 -195 -151c-50 0 -56 27 -35 83l151 392l-380 -457h-14l5 421
c-37 -96 -164 -322 -211 -380c-22 -28 -51 -56 -78 -56z" />
    <glyph glyph-name="uni043D" unicode="&#x43d;" horiz-adv-x="593" 
d="M74 6l-60 -13l184 480l-90 7l6 14l153 16l-99 -258l252 27l85 220l58 8l-167 -433c-19 -50 -12 -60 7 -60c37 0 99 36 153 132l14 -6c-55 -100 -124 -151 -195 -151c-50 0 -56 27 -35 83l72 187l-251 -26z" />
    <glyph glyph-name="uni043E" unicode="&#x43e;" horiz-adv-x="556" 
d="M198 -11c-97 0 -161 64 -161 164c0 179 156 362 323 362c97 0 161 -65 161 -163c0 -181 -155 -363 -323 -363zM216 8c117 0 244 154 244 343c0 97 -49 144 -117 144c-118 0 -244 -153 -244 -342c0 -97 48 -145 117 -145z" />
    <glyph glyph-name="uni043F" unicode="&#x43f;" horiz-adv-x="600" 
d="M379 -11c-50 0 -63 28 -38 83l105 235c50 112 62 178 3 178c-49 0 -106 -50 -164 -121c-74 -91 -166 -240 -211 -358l-60 -13l184 480l-90 7l6 14l153 16l-146 -374h1c44 93 107 187 156 248c69 85 132 131 198 131c88 0 83 -81 26 -208l-104 -233c-22 -49 -11 -60 9 -60
c37 0 99 36 153 132l14 -6c-55 -100 -125 -151 -195 -151z" />
    <glyph glyph-name="uni0440" unicode="&#x440;" horiz-adv-x="564" 
d="M-55 -248l248 722l-91 6l6 14l153 16l-27 -79c48 54 123 84 179 84c83 0 132 -45 132 -129c0 -188 -212 -412 -463 -396l-82 -238h-55zM380 482c-50 0 -107 -23 -153 -70l-139 -406c215 -14 395 202 395 366c0 76 -38 110 -103 110z" />
    <glyph glyph-name="uni0441" unicode="&#x441;" horiz-adv-x="463" 
d="M163 -11c-80 0 -132 52 -132 147c0 184 168 379 333 379c69 0 102 -40 102 -87c0 -35 -31 -61 -68 -55c19 81 12 125 -45 125c-120 0 -260 -170 -260 -349c0 -89 46 -129 100 -129c66 0 131 41 186 153l14 -6c-59 -125 -132 -178 -230 -178z" />
    <glyph glyph-name="uni0442" unicode="&#x442;" horiz-adv-x="909" 
d="M687 -11c-50 0 -63 28 -38 83l105 235c50 112 63 178 4 178c-50 0 -106 -51 -164 -122c-75 -90 -166 -239 -211 -357l-59 -13l120 314c43 113 64 178 5 178c-49 0 -106 -50 -164 -121c-74 -91 -166 -240 -211 -358l-60 -13l184 480l-90 7l6 14l153 16l-146 -374h1
c44 93 107 187 156 248c69 85 132 131 198 131c88 0 72 -81 21 -208l-68 -171h1c45 93 108 187 157 248c69 85 131 131 198 131c87 0 83 -81 26 -208l-104 -233c-22 -49 -11 -60 8 -60c38 0 100 36 154 132l13 -6c-55 -100 -124 -151 -195 -151z" />
    <glyph glyph-name="uni0443" unicode="&#x443;" horiz-adv-x="550" 
d="M-106 -259c-49 0 -69 20 -69 43c0 16 11 29 27 35c25 -25 44 -36 71 -36c54 0 109 37 219 175l30 37l-10 477l-92 4l2 13l145 21l9 -446l257 324c77 97 99 127 127 127c19 0 28 -15 28 -33c0 -12 -5 -27 -16 -34c-48 -15 -79 -21 -130 -84l-329 -411
c-107 -133 -193 -212 -269 -212z" />
    <glyph glyph-name="uni0444" unicode="&#x444;" horiz-adv-x="709" 
d="M561 772l-88 -258c127 -3 201 -69 201 -177c0 -162 -155 -342 -381 -347l-81 -238h-57l82 238c-128 3 -200 70 -200 177c0 162 154 342 380 347l70 205l-83 24l3 6zM615 333c0 97 -59 161 -148 164l-167 -489c190 8 315 171 315 325zM96 170c0 -97 58 -161 147 -163
l167 489c-189 -8 -314 -172 -314 -326z" />
    <glyph glyph-name="uni0445" unicode="&#x445;" horiz-adv-x="593" 
d="M365 -11c-33 0 -56 15 -68 94l-19 128c-91 -146 -165 -222 -240 -222c-45 0 -66 34 -66 64c0 28 22 50 51 52c4 -56 8 -89 37 -89c62 0 139 103 214 223l-27 179c-7 44 -14 70 -37 70c-31 0 -82 -44 -127 -119l-14 9c53 87 110 137 163 137c33 0 56 -15 68 -95l19 -125
c90 144 164 220 238 220c45 0 66 -34 66 -64c0 -28 -22 -50 -51 -52c-4 56 -8 89 -37 89c-62 0 -138 -102 -212 -221l27 -181c7 -44 14 -70 37 -70c31 0 82 44 127 118l14 -8c-53 -87 -111 -137 -163 -137z" />
    <glyph glyph-name="uni0446" unicode="&#x446;" horiz-adv-x="606" 
d="M271 510l-129 -312c-47 -114 -62 -179 -5 -179c49 0 106 51 164 122c74 90 164 238 212 358l58 8l-167 -433c-19 -50 -13 -60 7 -60c37 0 99 36 153 132l14 -6c-2 -4 -4 -7 -6 -11c-54 -96 -37 -114 -42 -211c-3 -65 -35 -98 -114 -107l4 18c45 6 63 35 65 81
c3 68 13 104 38 151c-43 -48 -91 -72 -140 -72c-50 0 -57 27 -35 83l113 291h-1c-42 -90 -105 -183 -153 -243c-68 -84 -130 -131 -197 -131c-87 0 -79 77 -25 209l113 276l-91 6l6 14z" />
    <glyph glyph-name="uni0447" unicode="&#x447;" horiz-adv-x="581" 
d="M271 510l-53 -127c-45 -110 -62 -178 -5 -178c84 0 225 157 280 294l58 8l-167 -433c-20 -50 -13 -60 7 -60c37 0 99 36 153 132l14 -6c-55 -100 -124 -151 -195 -151c-50 0 -57 27 -35 83l121 312h-1c-75 -119 -176 -209 -262 -209c-87 0 -78 78 -25 208l37 91l-91 6
l6 14z" />
    <glyph glyph-name="uni0448" unicode="&#x448;" horiz-adv-x="911" 
d="M395 198l66 165h-1c-42 -90 -105 -183 -153 -243c-68 -84 -130 -131 -197 -131c-87 0 -79 77 -25 209l113 276l-91 6l6 14l158 16l-129 -312c-46 -114 -62 -179 -5 -179c49 0 106 51 164 122c74 90 164 238 212 358l58 8l-119 -309c-44 -115 -61 -179 -5 -179
c50 0 106 51 165 122c73 90 163 238 211 358l58 8l-166 -433c-20 -50 -13 -60 6 -60c38 0 99 36 153 132l15 -6c-55 -100 -125 -151 -195 -151c-51 0 -58 27 -35 83l113 291h-1c-43 -90 -105 -183 -153 -243c-69 -84 -130 -131 -197 -131c-87 0 -78 76 -26 209z" />
    <glyph glyph-name="uni0449" unicode="&#x449;" horiz-adv-x="917" 
d="M395 198l66 165h-1c-42 -90 -105 -183 -153 -243c-68 -84 -130 -131 -197 -131c-87 0 -79 77 -25 209l113 276l-91 6l6 14l158 16l-129 -312c-46 -114 -62 -179 -5 -179c49 0 106 51 164 122c74 90 164 238 212 358l58 8l-119 -309c-44 -115 -61 -179 -5 -179
c50 0 106 51 165 122c73 90 163 238 211 358l58 8l-166 -433c-20 -50 -13 -60 6 -60c38 0 99 36 153 132l15 -6c-3 -5 -5 -10 -8 -14c-52 -94 -35 -112 -40 -208c-3 -65 -36 -98 -114 -107l3 18c46 6 64 35 66 81c3 68 13 104 38 152c-43 -49 -92 -73 -140 -73
c-51 0 -58 27 -35 83l113 291h-1c-43 -90 -105 -183 -153 -243c-69 -84 -130 -131 -197 -131c-87 0 -78 76 -26 209z" />
    <glyph glyph-name="uni044A" unicode="&#x44a;" horiz-adv-x="493" 
d="M202 -12c-94 0 -137 50 -137 123c0 97 87 216 270 342h-229l-51 -90h-14l61 139h310c-97 -69 -181 -147 -232 -231c27 15 74 41 130 42c82 -1 123 -51 123 -117c0 -95 -98 -208 -231 -208zM126 99c0 -59 31 -92 82 -92c93 0 164 93 164 184c0 54 -28 96 -92 97
c-50 -1 -94 -27 -113 -38c-26 -49 -41 -100 -41 -151z" />
    <glyph glyph-name="uni044B" unicode="&#x44b;" horiz-adv-x="714" 
d="M422 200c0 -97 -101 -212 -238 -212c-112 0 -153 78 -103 199l117 287l-91 6l6 14l158 16l-96 -232c27 16 72 39 124 39c82 0 123 -50 123 -117zM626 499l58 8l-167 -433c-19 -50 -12 -60 7 -60c37 0 99 36 153 132l14 -6c-55 -100 -124 -151 -195 -151
c-50 0 -56 27 -35 83zM130 168c-36 -91 -28 -162 60 -162c97 0 171 97 171 189c0 55 -28 97 -92 97c-42 0 -79 -19 -101 -31z" />
    <glyph glyph-name="uni044C" unicode="&#x44c;" horiz-adv-x="482" 
d="M422 200c0 -97 -101 -212 -238 -212c-112 0 -153 78 -103 199l117 287l-91 6l6 14l158 16l-96 -232c27 16 72 39 124 39c82 0 123 -50 123 -117zM130 168c-36 -91 -28 -162 60 -162c97 0 171 97 171 189c0 55 -28 97 -92 97c-42 0 -79 -19 -101 -31z" />
    <glyph glyph-name="uni044D" unicode="&#x44d;" horiz-adv-x="492" 
d="M325 515c80 0 132 -53 132 -147c0 -185 -168 -379 -333 -379c-69 0 -101 41 -101 88c0 38 36 61 68 54c-19 -83 -11 -125 44 -125c97 0 208 113 247 251l-224 -24l7 19l222 24c6 27 9 54 9 81c0 89 -47 129 -101 129c-61 0 -120 -37 -172 -130l-15 7
c57 106 130 152 217 152z" />
    <glyph glyph-name="uni044E" unicode="&#x44e;" horiz-adv-x="772" 
d="M74 6l-60 -13l184 480l-90 7l6 14l153 16l-98 -257l113 13c46 136 169 249 298 249c94 0 157 -65 157 -163c0 -181 -154 -363 -318 -363c-94 0 -157 64 -157 164c0 32 5 63 14 94l-115 -13zM436 8c115 0 239 154 239 343c0 97 -47 144 -112 144
c-115 0 -239 -153 -239 -342c0 -97 47 -145 112 -145z" />
    <glyph glyph-name="uni044F" unicode="&#x44f;" horiz-adv-x="546" 
d="M457 508h52l-160 -434c-19 -50 -13 -60 7 -60c37 0 99 36 153 132l14 -6c-55 -100 -124 -151 -195 -151c-50 0 -57 27 -35 83l74 192h-2c-57 -50 -220 -192 -262 -224c-40 -30 -64 -48 -85 -48c-18 0 -27 11 -27 27c0 9 5 20 12 27l98 16c33 20 148 125 193 160
c-20 -10 -49 -20 -81 -20c-71 0 -101 40 -101 97c0 94 108 218 226 218c59 0 91 -29 92 -77h2zM168 309c0 -45 20 -80 79 -80c67 0 121 45 148 115l10 29c25 66 10 127 -68 127c-101 0 -169 -112 -169 -191z" />
    <glyph glyph-name="uni0451" unicode="&#x451;" horiz-adv-x="474" 
d="M570 665c-23 0 -43 20 -43 43c0 22 20 42 43 42c22 0 42 -20 42 -42c0 -23 -20 -43 -42 -43zM334 665c-22 0 -42 20 -42 43c0 22 20 42 42 42c23 0 43 -20 43 -42c0 -23 -20 -43 -43 -43zM163 -11c-81 0 -133 52 -133 147c0 189 186 379 344 379c74 0 104 -36 104 -86
c0 -43 -32 -97 -96 -119l-252 -1c-24 -49 -38 -104 -38 -160c0 -89 46 -129 99 -129c69 0 141 45 197 157l15 -6c-61 -125 -141 -182 -240 -182zM371 498c-83 0 -176 -71 -231 -170h141c88 0 160 50 160 113c0 36 -19 57 -70 57z" />
    <glyph glyph-name="uni0452" unicode="&#x452;" horiz-adv-x="561" 
d="M7 -7l212 613h-82l9 24h82l30 88l-77 25l3 6l148 23l-49 -142h136l-9 -24h-136l-71 -206l-93 -264h1c45 93 109 187 158 248c69 85 131 131 197 131c88 0 83 -80 27 -208l-127 -291c-56 -128 -73 -161 -163 -211l-119 -64l-6 11c133 83 162 107 234 271l125 284
c50 113 61 178 3 178c-50 0 -106 -50 -164 -121c-74 -91 -166 -240 -211 -359z" />
    <glyph glyph-name="uni0453" unicode="&#x453;" horiz-adv-x="487" 
d="M333 588l156 179h66l-2 -4l-207 -175h-13zM195 -11c-91 0 -155 39 -155 109c0 105 85 134 195 166l35 10c100 28 152 64 152 140c0 51 -31 83 -87 83c-16 0 -39 -2 -60 -8c-18 -5 -36 -14 -47 -30l-92 -122h-13l64 145c51 25 105 33 152 33c84 0 133 -43 133 -104
c0 -96 -70 -137 -182 -170l-39 -11c-92 -26 -160 -56 -160 -135c0 -58 44 -89 106 -89c22 0 46 2 66 8c22 7 41 15 56 37l86 131h13l-62 -161c-49 -22 -105 -32 -161 -32z" />
    <glyph glyph-name="uni0454" unicode="&#x454;" horiz-adv-x="464" 
d="M164 -11c-80 0 -132 52 -132 147c0 184 168 379 333 379c69 0 102 -40 102 -87c0 -35 -31 -61 -68 -55c19 81 12 125 -45 125c-96 0 -205 -109 -244 -244l222 24l-8 -19l-220 -24c-6 -28 -10 -57 -10 -86c0 -89 46 -129 100 -129c66 0 131 41 186 153l14 -6
c-59 -125 -132 -178 -230 -178z" />
    <glyph glyph-name="uni0455" unicode="&#x455;" horiz-adv-x="402" 
d="M122 8c67 0 132 31 132 98c0 41 -20 71 -52 113l-32 42c-31 41 -52 74 -52 115c0 83 89 139 177 139c73 0 103 -30 104 -62c0 -23 -19 -45 -50 -42c-30 84 -32 85 -66 85c-51 0 -122 -29 -122 -87c0 -35 17 -62 49 -104l33 -43c31 -40 57 -79 57 -127
c0 -88 -93 -146 -187 -146c-83 0 -111 44 -111 76c0 30 23 45 50 42c29 -96 32 -99 70 -99z" />
    <glyph glyph-name="uni0456" unicode="&#x456;" horiz-adv-x="299" 
d="M268 730c0 22 20 42 43 42s43 -20 43 -42c0 -23 -20 -43 -43 -43s-43 20 -43 43zM80 -11c-50 0 -57 27 -35 83l155 402l-91 6l6 14l154 16l-168 -436c-19 -50 -13 -60 7 -60c38 0 99 36 153 132l14 -6c-55 -100 -124 -151 -195 -151z" />
    <glyph glyph-name="uni0457" unicode="&#x457;" horiz-adv-x="295" 
d="M165 721c-5 17 7 37 24 42c18 5 38 -7 43 -24c5 -18 -7 -38 -24 -43c-18 -5 -38 7 -43 25zM325 721c-4 17 7 37 25 42s38 -7 43 -24c4 -18 -7 -38 -25 -43s-38 7 -43 25zM80 -11c-50 0 -57 27 -35 83l155 402l-91 6l6 14l154 16l-168 -436c-19 -50 -13 -60 7 -60
c38 0 99 36 153 132l14 -6c-55 -100 -124 -151 -195 -151z" />
    <glyph glyph-name="uni0458" unicode="&#x458;" horiz-adv-x="276" 
d="M277 730c0 22 20 42 43 42s43 -20 43 -42c0 -23 -20 -43 -43 -43s-43 20 -43 43zM-210 -259l-6 11c134 83 168 106 235 271l182 451l-90 6l5 14l155 16l-200 -495c-52 -128 -71 -161 -162 -210z" />
    <glyph glyph-name="uni0459" unicode="&#x459;" horiz-adv-x="766" 
d="M314 475c-81 -202 -155 -348 -231 -434c-28 -32 -52 -52 -77 -52c-17 0 -29 12 -29 28c0 10 4 18 11 25l94 24c81 102 141 231 211 409h-82l12 27h320l-84 -220c31 16 73 30 124 30c82 0 123 -47 123 -112c0 -97 -101 -212 -238 -212c-112 0 -151 77 -103 199l113 288
h-164zM415 168c-35 -91 -29 -162 59 -162c98 0 172 97 172 189c0 53 -28 93 -92 93c-44 0 -81 -13 -102 -23z" />
    <glyph glyph-name="uni045A" unicode="&#x45a;" horiz-adv-x="761" 
d="M74 6l-60 -13l184 480l-90 7l6 14l153 16l-99 -258l227 26l87 221l59 9l-88 -226c26 14 70 30 125 30c82 0 123 -47 123 -112c0 -97 -101 -212 -238 -212c-112 0 -151 77 -103 199l28 71l-227 -25zM409 168c-34 -91 -28 -162 60 -162c97 0 171 97 171 189
c0 53 -27 93 -92 93c-44 0 -82 -14 -102 -24z" />
    <glyph glyph-name="uni045B" unicode="&#x45b;" horiz-adv-x="595" 
d="M110 136h1c45 90 108 187 158 248c69 85 131 131 197 131c88 0 84 -81 27 -208l-104 -233c-22 -49 -11 -60 8 -60c38 0 99 36 154 132l14 -6c-55 -100 -125 -151 -195 -151c-51 0 -64 28 -39 83l106 235c50 112 61 178 3 178c-50 0 -106 -50 -164 -121
c-74 -91 -166 -240 -211 -359l-58 -12l212 613h-82l9 24h82l30 88l-77 25l3 6l148 23l-49 -142h136l-9 -24h-136l-59 -171z" />
    <glyph glyph-name="uni045C" unicode="&#x45c;" horiz-adv-x="570" 
d="M313 588l156 179h66l-2 -4l-207 -175h-13zM74 6l-60 -13l184 480l-90 7l6 14l153 16l-98 -255l169 145c85 74 127 115 171 115c45 0 66 -35 66 -67c0 -30 -24 -53 -53 -55c-1 60 -7 93 -36 93c-30 0 -72 -44 -137 -100l-128 -109l147 -235c28 -43 39 -52 58 -52
c20 0 44 15 71 102l15 -4c-28 -97 -61 -120 -107 -120c-39 0 -62 24 -104 87l-132 198z" />
    <glyph glyph-name="uni045E" unicode="&#x45e;" horiz-adv-x="550" 
d="M399 604c-99 0 -148 59 -128 154h44c-19 -98 19 -134 85 -134c67 0 119 33 144 134h45c-27 -102 -101 -154 -190 -154zM-106 -259c-49 0 -69 20 -69 43c0 16 11 29 27 35c25 -25 44 -36 71 -36c54 0 109 37 219 175l30 37l-10 477l-92 4l2 13l145 21l9 -446l257 324
c77 97 99 127 127 127c19 0 28 -15 28 -33c0 -12 -5 -27 -16 -34c-48 -15 -79 -21 -130 -84l-329 -411c-107 -133 -193 -212 -269 -212z" />
    <glyph glyph-name="uni045F" unicode="&#x45f;" horiz-adv-x="601" 
d="M271 510l-129 -312c-47 -114 -62 -179 -5 -179c49 0 106 51 164 122c74 90 164 238 212 358l58 8l-167 -433c-19 -50 -13 -60 7 -60c37 0 99 36 153 132l14 -6c-55 -100 -124 -151 -195 -151c-50 0 -57 27 -35 83l113 291h-1c-42 -90 -105 -183 -153 -243
c-68 -84 -130 -131 -197 -131c-87 0 -79 77 -25 209l113 276l-91 6l6 14zM263 0h16c-30 -49 -52 -95 -52 -135c0 -23 11 -35 40 -38l-6 -16c-61 3 -84 23 -84 56c0 45 44 92 86 133z" />
    <glyph glyph-name="uni0462" unicode="&#x462;" horiz-adv-x="814" 
d="M369 363h136c177 0 275 -46 275 -153c0 -137 -155 -210 -377 -210h-286l5 15l53 3c26 1 41 7 46 26l157 564h-172c-14 0 -18 -3 -27 -15l-106 -156h-12l79 191h244l24 86c5 19 -7 25 -31 26l-51 3l4 15h242l-5 -15l-53 -3c-26 -1 -41 -7 -47 -26l-24 -86h245l-28 -191
h-13l-17 156c-1 12 -5 15 -18 15h-175zM274 21h119c201 0 319 71 319 185c0 103 -80 136 -224 136h-125z" />
    <glyph glyph-name="uni0463" unicode="&#x463;" horiz-adv-x="795" 
d="M74 6l-60 -13l184 480l-90 7l6 14l153 16l-146 -374h1c44 93 107 187 156 248c69 85 132 131 198 131c88 0 81 -80 26 -208l-12 -28c27 16 71 38 122 38c82 0 123 -50 123 -117c0 -97 -101 -212 -238 -212c-112 0 -156 78 -104 199l53 120c50 113 62 178 3 178
c-49 0 -106 -50 -164 -121c-74 -91 -166 -240 -211 -358zM443 168c-38 -90 -29 -162 60 -162c97 0 171 97 171 189c0 55 -28 97 -92 97c-41 0 -78 -18 -99 -30z" />
    <glyph glyph-name="uni0472" unicode="&#x472;" horiz-adv-x="877" 
d="M371 -11c-159 0 -292 99 -292 280c0 226 212 503 508 503c159 0 292 -99 292 -281c0 -225 -212 -502 -508 -502zM577 751c-198 0 -363 -168 -413 -363c342 118 441 -62 632 -10c9 38 14 77 14 115c0 163 -97 258 -233 258zM380 9c194 0 356 160 410 349
c-249 -81 -349 99 -631 9c-7 -32 -11 -66 -11 -99c0 -164 97 -259 232 -259z" />
    <glyph glyph-name="uni0473" unicode="&#x473;" horiz-adv-x="556" 
d="M198 -11c-97 0 -161 64 -161 164c0 179 156 362 323 362c97 0 161 -65 161 -163c0 -181 -155 -363 -323 -363zM343 495c-95 0 -196 -100 -231 -238c184 79 220 -55 337 -4c7 31 11 64 11 98c0 97 -49 144 -117 144zM216 8c92 0 191 96 228 230c-155 -84 -195 53 -336 3
c-6 -28 -9 -58 -9 -88c0 -97 48 -145 117 -145z" />
    <glyph glyph-name="uni0474" unicode="&#x474;" horiz-adv-x="770" 
d="M100 -20h-17l202 734c5 19 -6 25 -30 26l-52 3l5 15h241l-4 -15l-53 -3c-26 -1 -42 -7 -47 -26l-180 -642l591 545c123 112 166 154 197 154c16 0 25 -8 25 -22c0 -29 -48 -66 -136 -83c-133 -122 -461 -424 -742 -686z" />
    <glyph glyph-name="uni0475" unicode="&#x475;" horiz-adv-x="580" 
d="M478 396c78 99 109 119 135 119c13 0 22 -7 22 -20c0 -42 -47 -62 -112 -75c-10 -12 -21 -25 -32 -39l-310 -392h-17l-15 483l-82 4l2 13l135 21l14 -446zM549 447c-1 -1 -3 -2 -4 -4z" />
    <glyph glyph-name="uni0490" unicode="&#x490;" horiz-adv-x="638" 
d="M747 736h-389l-212 -692c-5 -19 6 -25 32 -26l97 -2l-5 -16h-287l4 15l53 3c26 1 41 7 47 26l203 670c6 19 -4 25 -29 26l-51 3l5 15h468c13 0 20 2 25 11l90 146h12z" />
    <glyph glyph-name="uni0491" unicode="&#x491;" horiz-adv-x="460" 
d="M482 482h-223l-185 -482h-55l176 460c8 20 1 24 -25 25l-41 2l5 15h286c12 0 18 2 25 13l81 124h11z" />
    <glyph glyph-name="uni0492" unicode="&#x492;" horiz-adv-x="669" 
d="M-17 0l4 15l53 3c26 1 41 7 47 26l100 330h-104l8 26h104l95 314c6 19 -4 25 -29 26l-51 3l5 15h549l-26 -186h-12l-24 150c-2 12 -5 14 -18 14h-326l-103 -336h195l-8 -26h-195l-101 -330c-6 -19 6 -25 32 -26l97 -2l-5 -16h-287z" />
    <glyph glyph-name="uni0493" unicode="&#x493;" horiz-adv-x="487" 
d="M195 -11c-97 0 -155 39 -155 109c0 89 64 122 152 150h-146l9 23h215c100 28 146 65 146 143c0 51 -25 83 -81 83c-16 0 -39 -2 -60 -8c-18 -5 -35 -15 -47 -30l-99 -128h-9l67 151c51 25 105 33 152 33c90 0 133 -43 133 -104c0 -71 -40 -110 -107 -140h127l-9 -23h-180
c-4 -1 -9 -3 -13 -4l-39 -11c-92 -27 -155 -57 -155 -138c0 -58 38 -89 101 -89c22 0 46 2 66 8c22 7 41 16 56 37l95 140h9l-67 -170c-49 -22 -105 -32 -161 -32z" />
    <glyph glyph-name="uni0496" unicode="&#x496;" horiz-adv-x="1151" 
d="M30 0h-90l582 412l-226 301c-16 22 -27 26 -64 27l-52 3l5 15h240l-5 -15l-58 -3c-36 -2 -45 -7 -34 -22l248 -333l100 329c6 19 -4 25 -29 26l-52 3l6 15h241l-5 -15l-53 -3c-26 -1 -43 -7 -49 -26l-203 -670c-6 -19 6 -25 31 -26l52 -3l-5 -15h-241l4 15l53 3
c26 1 41 7 47 26l103 339zM949 0l-313 384l48 36l407 299c17 13 12 20 -23 21l-56 3l5 15h240l-5 -15l-54 -3c-36 -1 -52 -5 -79 -25l-422 -311l310 -383h76l-47 -179h-12v146c0 9 -5 12 -17 12h-58z" />
    <glyph glyph-name="uni0497" unicode="&#x497;" horiz-adv-x="935" 
d="M398 6l-63 -13l96 252l-130 -12c-50 -126 -148 -245 -241 -245c-51 0 -82 37 -82 86c0 39 26 62 63 56c-20 -84 -8 -125 33 -125c86 0 202 201 202 365c0 72 -19 114 -55 114c-52 0 -97 -49 -148 -153l-14 6c51 111 110 178 187 178c52 0 88 -46 88 -130
c0 -41 -10 -87 -26 -133l130 12l89 233l61 14l-91 -241l132 13c51 120 146 232 236 232c51 0 82 -37 82 -86c0 -39 -26 -62 -63 -56c20 84 8 125 -33 125c-86 0 -203 -201 -203 -365c0 -72 20 -114 55 -114c53 0 98 49 148 154l15 -7c-3 -7 -7 -14 -10 -21
c-41 -88 -39 -126 -44 -227c-3 -65 -36 -98 -114 -107l3 18c46 6 64 35 66 81c2 59 11 98 28 139c-34 -39 -72 -61 -116 -61c-52 0 -88 46 -88 130c0 44 11 95 31 146l-132 -13z" />
    <glyph glyph-name="uni049A" unicode="&#x49a;" horiz-adv-x="822" 
d="M-17 0l4 15l53 3c26 1 41 7 47 26l204 670c6 19 -6 25 -30 26l-51 3l5 15h241l-5 -15l-53 -3c-26 -1 -41 -7 -47 -26l-100 -328l531 335c16 10 10 17 -25 19l-56 3l5 15h245l-5 -15l-54 -3c-36 -2 -52 -8 -77 -24l-499 -314l384 -381h75l-47 -179h-12v146
c0 9 -4 12 -17 12h-55l-394 383l-104 -339c-6 -19 7 -25 31 -26l52 -3l-5 -15h-241z" />
    <glyph glyph-name="uni049B" unicode="&#x49b;" horiz-adv-x="583" 
d="M74 6l-60 -13l184 480l-90 7l6 14l153 16l-98 -255l169 145c85 74 127 115 171 115c45 0 66 -35 66 -67c0 -30 -24 -53 -53 -55c-1 60 -7 93 -36 93c-30 0 -72 -44 -137 -100l-128 -109l147 -235c28 -43 39 -52 58 -52c20 0 44 15 71 102l15 -4l-3 -9
c-15 -55 -8 -84 -13 -161c-3 -65 -35 -98 -114 -107l4 18c45 6 64 35 65 81c1 33 7 59 15 83c-18 -19 -38 -25 -61 -25c-39 0 -62 24 -104 87l-132 198z" />
    <glyph glyph-name="uni04A2" unicode="&#x4a2;" horiz-adv-x="890" 
d="M667 21h98l-46 -179h-13v146c0 9 -4 12 -17 12h-178l4 15l53 3c25 1 41 7 47 26l104 341h-469l-104 -341c-6 -19 6 -25 31 -26l52 -3l-5 -15h-241l4 15l53 3c25 1 41 7 47 26l203 670c6 19 -5 25 -29 26l-51 3l4 15h241l-4 -15l-53 -3c-26 -1 -41 -7 -47 -26l-93 -303
h469l91 303c6 19 -5 25 -29 26l-51 3l4 15h241l-4 -15l-53 -3c-26 -1 -41 -7 -47 -26z" />
    <glyph glyph-name="uni04A3" unicode="&#x4a3;" horiz-adv-x="598" 
d="M74 6l-60 -13l184 480l-90 7l6 14l153 16l-99 -258l252 27l85 220l58 8l-167 -433c-19 -50 -12 -60 7 -60c37 0 99 36 153 132l14 -6c-2 -4 -4 -7 -6 -11c-54 -96 -36 -114 -42 -211c-3 -65 -35 -98 -113 -107l3 18c45 6 64 35 65 81c3 69 14 105 40 153
c-44 -49 -92 -74 -142 -74s-56 27 -35 83l72 187l-251 -26z" />
    <glyph glyph-name="uni04AE" unicode="&#x4ae;" horiz-adv-x="776" 
d="M184 0l5 16l60 2c26 1 41 7 47 26l92 298l-155 373c-7 16 -12 23 -40 25l-51 3l6 15h242l-5 -15l-55 -3c-29 -2 -43 -9 -36 -25l144 -346l355 346c17 17 7 24 -21 25l-60 3l4 15h223l-5 -15l-52 -3c-27 -2 -38 -9 -55 -25l-380 -373l-92 -298c-6 -19 6 -25 31 -26l60 -2
l-5 -16h-257z" />
    <glyph glyph-name="uni04AF" unicode="&#x4af;" horiz-adv-x="550" 
d="M120 -248h-54l92 247l4 473l-92 4l2 13l145 21l-6 -481l272 356c73 100 99 130 127 130c15 0 27 -12 27 -34c0 -12 -7 -28 -16 -33c-50 -16 -83 -22 -129 -87l-279 -363z" />
    <glyph glyph-name="uni04B0" unicode="&#x4b0;" horiz-adv-x="776" 
d="M184 0l5 16l60 2c26 1 41 7 47 26l84 273h-199l9 26h198l-155 372c-7 16 -12 23 -40 25l-51 3l6 15h242l-5 -15l-55 -3c-29 -2 -43 -9 -36 -25l144 -346l355 346c17 17 7 24 -21 25l-60 3l4 15h223l-5 -15l-52 -3c-27 -2 -38 -9 -55 -25l-379 -372h198l-9 -26h-198
l-84 -273c-6 -19 6 -25 31 -26l60 -2l-5 -16h-257z" />
    <glyph glyph-name="uni04B1" unicode="&#x4b1;" horiz-adv-x="554" 
d="M-8 -23l10 23h156l4 472l-92 4l2 13l145 21l-6 -481l272 356c73 100 99 130 127 130c15 0 27 -12 27 -34c0 -12 -7 -28 -16 -33c-50 -16 -83 -22 -129 -87l-277 -361h155l-9 -23h-156l-85 -225h-54l84 225h-158z" />
    <glyph glyph-name="uni04B2" unicode="&#x4b2;" horiz-adv-x="845" 
d="M-101 0l7 15l50 3c26 1 49 10 67 25l432 350l-102 322c-5 16 -16 24 -39 25l-49 3l7 15h241l-8 -15l-55 -4c-29 -2 -42 -8 -36 -25l89 -283l349 283c19 15 19 23 -10 25l-53 4l7 15h218l-7 -15l-50 -3c-25 -1 -48 -11 -66 -25l-381 -308l122 -386h90l-46 -179h-12v146
c0 9 -6 12 -19 12h-180l8 15l55 4c30 2 42 8 37 25l-102 324l-401 -324c-19 -16 -19 -24 10 -25l53 -4l-7 -15h-219z" />
    <glyph glyph-name="uni04B3" unicode="&#x4b3;" horiz-adv-x="593" 
d="M365 -11c-33 0 -56 15 -68 94l-19 128c-91 -146 -165 -222 -240 -222c-45 0 -66 34 -66 64c0 28 22 50 51 52c4 -56 8 -89 37 -89c62 0 139 103 214 223l-27 179c-7 44 -14 70 -37 70c-31 0 -82 -44 -127 -119l-14 9c53 87 110 137 163 137c33 0 56 -15 68 -95l19 -125
c90 144 164 220 238 220c45 0 66 -34 66 -64c0 -28 -22 -50 -51 -52c-4 56 -8 89 -37 89c-62 0 -138 -102 -212 -221l27 -181c7 -44 14 -70 37 -70c31 0 82 44 127 118l14 -8c-42 -81 -36 -115 -41 -208c-3 -65 -36 -98 -114 -107l4 18c45 6 63 35 65 81c2 63 14 103 37 147
c-39 -44 -78 -68 -114 -68z" />
    <glyph glyph-name="uni04B6" unicode="&#x4b6;" horiz-adv-x="832" 
d="M437 0l5 15l67 3c25 1 41 7 47 26l96 314c-27 -8 -124 -34 -204 -34c-176 0 -280 57 -215 265l39 125c6 19 -6 25 -32 26l-51 3l5 15h242l-5 -15l-53 -3c-26 -1 -41 -7 -47 -26l-40 -129c-57 -183 16 -236 162 -236c94 0 180 25 206 32l102 333c6 19 -6 25 -32 26l-51 3
l5 15h242l-5 -15l-53 -3c-26 -1 -41 -7 -47 -26l-212 -693h104l-47 -179h-12v146c0 9 -4 12 -17 12h-199z" />
    <glyph glyph-name="uni04B7" unicode="&#x4b7;" horiz-adv-x="586" 
d="M271 510l-53 -127c-45 -110 -62 -178 -5 -178c84 0 225 157 280 294l58 8l-167 -433c-20 -50 -13 -60 7 -60c37 0 99 36 153 132l14 -6c-2 -4 -4 -7 -6 -11c-54 -96 -37 -114 -42 -211c-3 -65 -35 -98 -114 -107l4 18c45 6 63 35 65 81c3 68 13 104 38 151
c-43 -48 -91 -72 -140 -72c-50 0 -57 27 -35 83l121 312h-1c-75 -119 -176 -209 -262 -209c-87 0 -78 78 -25 208l37 91l-91 6l6 14z" />
    <glyph glyph-name="uni04BA" unicode="&#x4ba;" horiz-adv-x="831" 
d="M675 169l-37 -125c-6 -19 4 -25 30 -26l51 -3l-5 -15h-242l5 15l53 3c26 1 43 7 49 26l38 129c54 184 -16 236 -162 236c-94 0 -180 -25 -206 -32l-100 -333c-6 -19 4 -25 30 -26l51 -3l-5 -15h-242l5 15l53 3c26 1 41 7 47 26l205 670c5 19 -7 25 -31 26l-52 3l5 15h256
l-5 -15l-67 -3c-25 -1 -41 -7 -47 -26l-96 -314c27 8 124 34 204 34c176 0 277 -56 215 -265z" />
    <glyph glyph-name="uni04BB" unicode="&#x4bb;" horiz-adv-x="595" 
d="M110 136h1c45 90 108 187 158 248c69 85 131 131 197 131c88 0 84 -81 27 -208l-104 -233c-22 -49 -11 -60 8 -60c38 0 99 36 154 132l14 -6c-55 -100 -125 -151 -195 -151c-51 0 -64 28 -39 83l106 235c50 112 61 178 3 178c-50 0 -106 -50 -164 -121
c-74 -91 -166 -240 -211 -359l-58 -12l251 725l-77 25l3 6l148 23l-124 -358z" />
    <glyph glyph-name="uni04C0" unicode="&#x4c0;" horiz-adv-x="358" 
d="M-17 0l4 15l53 3c26 1 41 7 47 26l204 670c6 19 -6 25 -30 26l-51 3l5 15h241l-5 -15l-53 -3c-26 -1 -41 -7 -47 -26l-205 -670c-6 -19 7 -25 31 -26l52 -3l-5 -15h-241z" />
    <glyph glyph-name="uni04CF" unicode="&#x4cf;" horiz-adv-x="319" 
d="M51 42l253 674c7 20 1 24 -26 25l-41 2l5 15h210l-5 -15l-43 -2c-28 -1 -38 -5 -45 -25l-253 -674c-7 -20 -1 -24 27 -25l40 -2l-6 -15h-209l6 15l43 2c27 1 37 5 44 25z" />
    <glyph glyph-name="uni04D8" unicode="&#x4d8;" horiz-adv-x="809" 
d="M346 -11c-174 0 -280 108 -271 291h636c25 60 39 124 39 187c0 177 -116 265 -256 265c-169 1 -302 -108 -367 -268h-17c66 192 225 309 409 308c161 -1 291 -102 291 -286c0 -228 -191 -497 -464 -497zM352 9c152 0 280 106 347 244h-564c-3 -162 81 -244 217 -244z" />
    <glyph glyph-name="uni04D9" unicode="&#x4d9;" horiz-adv-x="484" 
d="M316 515c81 0 133 -52 133 -147c0 -189 -186 -379 -344 -379c-74 0 -104 36 -104 86c0 43 32 97 96 119l252 1c24 49 38 104 38 160c0 89 -46 129 -99 129c-69 0 -141 -45 -197 -157l-15 6c61 125 141 182 240 182zM108 6c83 0 176 71 231 170h-141
c-88 0 -160 -50 -160 -113c0 -36 19 -57 70 -57z" />
    <glyph glyph-name="uni04E2" unicode="&#x4e2;" horiz-adv-x="882" 
d="M462 889l10 27h277l-9 -27h-278zM-17 0l4 15l53 3c26 1 41 7 47 26l203 670c6 19 -4 25 -29 26l-51 3l5 15h241l-5 -15l-53 -3c-26 -1 -41 -7 -47 -26l-179 -587l635 560l8 27c6 19 -6 25 -31 26l-51 3l5 15h242l-6 -15l-53 -3c-25 -1 -42 -7 -48 -26l-203 -670
c-6 -19 6 -25 31 -26l51 -3l-4 -15h-242l5 15l52 3c26 1 42 7 47 26l184 600l-635 -560l-12 -40c-6 -19 6 -25 30 -26l52 -3l-5 -15h-241z" />
    <glyph glyph-name="uni04E3" unicode="&#x4e3;" horiz-adv-x="601" 
d="M268 668l11 27h282l-10 -27h-283zM271 510l-129 -312c-47 -114 -62 -179 -5 -179c49 0 106 51 164 122c74 90 164 238 212 358l58 8l-167 -433c-19 -50 -13 -60 7 -60c37 0 99 36 153 132l14 -6c-55 -100 -124 -151 -195 -151c-50 0 -57 27 -35 83l113 291h-1
c-42 -90 -105 -183 -153 -243c-68 -84 -130 -131 -197 -131c-87 0 -79 77 -25 209l113 276l-91 6l6 14z" />
    <glyph glyph-name="uni04E8" unicode="&#x4e8;" horiz-adv-x="877" 
d="M371 -11c-159 0 -292 99 -292 280c0 226 212 503 508 503c159 0 292 -99 292 -281c0 -225 -212 -502 -508 -502zM577 751c-190 0 -350 -156 -407 -340h633c5 27 7 55 7 82c0 163 -97 258 -233 258zM380 9c203 0 371 176 417 376h-634c-10 -38 -15 -78 -15 -117
c0 -164 97 -259 232 -259z" />
    <glyph glyph-name="uni04E9" unicode="&#x4e9;" horiz-adv-x="556" 
d="M198 -11c-97 0 -161 64 -161 164c0 179 156 362 323 362c97 0 161 -65 161 -163c0 -181 -155 -363 -323 -363zM343 495c-93 0 -191 -95 -228 -228l338 9c5 24 7 49 7 75c0 97 -49 144 -117 144zM216 8c96 0 199 104 233 245l-340 -9c-7 -29 -10 -60 -10 -91
c0 -97 48 -145 117 -145z" />
    <glyph glyph-name="uni04EE" unicode="&#x4ee;" horiz-adv-x="759" 
d="M424 889l10 27h277l-9 -27h-278zM313 99c-63 -76 -103 -110 -138 -110c-15 0 -24 9 -24 21c0 31 42 56 115 70c26 28 65 76 95 112l-133 523c-5 17 -10 24 -35 25l-50 3l4 15h247l-4 -15l-56 -3c-30 -1 -45 -9 -41 -25l118 -462l381 462c15 17 5 24 -24 25l-54 3l4 15
h208l-4 -15l-53 -3c-25 -1 -35 -8 -49 -25z" />
    <glyph glyph-name="uni04EF" unicode="&#x4ef;" horiz-adv-x="550" 
d="M263 668l11 27h282l-10 -27h-283zM-106 -259c-49 0 -69 20 -69 43c0 16 11 29 27 35c25 -25 44 -36 71 -36c54 0 109 37 219 175l30 37l-10 477l-92 4l2 13l145 21l9 -446l257 324c77 97 99 127 127 127c19 0 28 -15 28 -33c0 -12 -5 -27 -16 -34
c-48 -15 -79 -21 -130 -84l-329 -411c-107 -133 -193 -212 -269 -212z" />
    <glyph glyph-name="Wgrave" unicode="&#x1e80;" horiz-adv-x="1246" 
d="M901 837h-14l-145 134l1 1h67zM83 -20l202 734c5 19 -6 25 -30 26l-52 3l5 15h241l-4 -15l-53 -3c-26 -1 -42 -7 -47 -26l-180 -642l516 473l58 213h180l-4 -15l-80 -3c-26 -1 -42 -7 -47 -26l-180 -642l697 643c16 15 21 24 -9 25l-60 3l5 15h223l-5 -15l-52 -3
c-27 -2 -49 -10 -66 -25l-798 -735h-17l142 520l-568 -520h-17z" />
    <glyph glyph-name="wgrave" unicode="&#x1e81;" horiz-adv-x="843" 
d="M574 588h-11l-86 175l1 4h51zM808 422c0 -211 -131 -433 -302 -433c-63 0 -104 31 -128 80c-62 -48 -130 -80 -194 -80c-67 0 -116 41 -116 116c0 93 72 218 259 348h-228l-51 -91h-15l62 140h315c-156 -111 -289 -238 -289 -358c0 -66 33 -105 102 -105
c48 0 99 19 146 51c-11 32 -16 69 -16 108c0 149 108 317 202 317c33 0 57 -22 57 -72c0 -43 -20 -124 -86 -218c-31 -45 -71 -91 -115 -130c25 -35 63 -56 112 -56c127 0 247 140 264 329l-55 102c-5 29 18 45 37 45c23 0 39 -20 39 -93zM376 225c0 -44 8 -82 24 -112
c41 32 79 73 110 117c57 80 74 143 74 179c0 41 -21 60 -49 60c-69 0 -159 -111 -159 -244z" />
    <glyph glyph-name="Wacute" unicode="&#x1e82;" horiz-adv-x="1246" 
d="M812 837l177 135h76l-1 -1l-237 -134h-15zM83 -20l202 734c5 19 -6 25 -30 26l-52 3l5 15h241l-4 -15l-53 -3c-26 -1 -42 -7 -47 -26l-180 -642l516 473l58 213h180l-4 -15l-80 -3c-26 -1 -42 -7 -47 -26l-180 -642l697 643c16 15 21 24 -9 25l-60 3l5 15h223l-5 -15
l-52 -3c-27 -2 -49 -10 -66 -25l-798 -735h-17l142 520l-568 -520h-17z" />
    <glyph glyph-name="wacute" unicode="&#x1e83;" horiz-adv-x="843" 
d="M541 588l156 179h66l-2 -4l-207 -175h-13zM808 422c0 -211 -131 -433 -302 -433c-63 0 -104 31 -128 80c-62 -48 -130 -80 -194 -80c-67 0 -116 41 -116 116c0 93 72 218 259 348h-228l-51 -91h-15l62 140h315c-156 -111 -289 -238 -289 -358c0 -66 33 -105 102 -105
c48 0 99 19 146 51c-11 32 -16 69 -16 108c0 149 108 317 202 317c33 0 57 -22 57 -72c0 -43 -20 -124 -86 -218c-31 -45 -71 -91 -115 -130c25 -35 63 -56 112 -56c127 0 247 140 264 329l-55 102c-5 29 18 45 37 45c23 0 39 -20 39 -93zM376 225c0 -44 8 -82 24 -112
c41 32 79 73 110 117c57 80 74 143 74 179c0 41 -21 60 -49 60c-69 0 -159 -111 -159 -244z" />
    <glyph glyph-name="Wdieresis" unicode="&#x1e84;" horiz-adv-x="1246" 
d="M987 893c-18 5 -29 24 -25 43c5 17 25 29 43 24s29 -25 24 -42c-4 -19 -24 -30 -42 -25zM751 893c-18 5 -29 24 -24 43c4 17 24 29 42 24s29 -25 25 -42c-5 -19 -25 -30 -43 -25zM83 -20l202 734c5 19 -6 25 -30 26l-52 3l5 15h241l-4 -15l-53 -3c-26 -1 -42 -7 -47 -26
l-180 -642l516 473l58 213h180l-4 -15l-80 -3c-26 -1 -42 -7 -47 -26l-180 -642l697 643c16 15 21 24 -9 25l-60 3l5 15h223l-5 -15l-52 -3c-27 -2 -49 -10 -66 -25l-798 -735h-17l142 520l-568 -520h-17z" />
    <glyph glyph-name="wdieresis" unicode="&#x1e85;" horiz-adv-x="843" 
d="M740 665c-23 0 -43 20 -43 43c0 22 20 42 43 42c22 0 42 -20 42 -42c0 -23 -20 -43 -42 -43zM504 665c-22 0 -42 20 -42 43c0 22 20 42 42 42c23 0 43 -20 43 -42c0 -23 -20 -43 -43 -43zM808 422c0 -211 -131 -433 -302 -433c-63 0 -104 31 -128 80
c-62 -48 -130 -80 -194 -80c-67 0 -116 41 -116 116c0 93 72 218 259 348h-228l-51 -91h-15l62 140h315c-156 -111 -289 -238 -289 -358c0 -66 33 -105 102 -105c48 0 99 19 146 51c-11 32 -16 69 -16 108c0 149 108 317 202 317c33 0 57 -22 57 -72
c0 -43 -20 -124 -86 -218c-31 -45 -71 -91 -115 -130c25 -35 63 -56 112 -56c127 0 247 140 264 329l-55 102c-5 29 18 45 37 45c23 0 39 -20 39 -93zM376 225c0 -44 8 -82 24 -112c41 32 79 73 110 117c57 80 74 143 74 179c0 41 -21 60 -49 60c-69 0 -159 -111 -159 -244z
" />
    <glyph glyph-name="uni1ECA" unicode="&#x1eca;" horiz-adv-x="358" 
d="M-17 0l4 15l53 3c26 1 41 7 47 26l204 670c6 19 -6 25 -30 26l-51 3l5 15h241l-5 -15l-53 -3c-26 -1 -41 -7 -47 -26l-205 -670c-6 -19 7 -25 31 -26l52 -3l-5 -15h-241zM49 -213c-22 0 -42 19 -42 42c0 22 20 43 42 43c23 0 43 -21 43 -43c0 -23 -20 -42 -43 -42z" />
    <glyph glyph-name="uni1ECB" unicode="&#x1ecb;" horiz-adv-x="299" 
d="M268 730c0 22 20 42 43 42s43 -20 43 -42c0 -23 -20 -43 -43 -43s-43 20 -43 43zM80 -11c-50 0 -57 27 -35 83l155 402l-91 6l6 14l154 16l-168 -436c-19 -50 -13 -60 7 -60c38 0 99 36 153 132l14 -6c-55 -100 -124 -151 -195 -151zM-13 -213c-23 0 -43 19 -43 43
c0 22 20 42 43 42s43 -20 43 -42c0 -24 -20 -43 -43 -43z" />
    <glyph glyph-name="uni1ECC" unicode="&#x1ecc;" horiz-adv-x="877" 
d="M371 -11c-159 0 -292 99 -292 280c0 226 212 503 508 503c159 0 292 -99 292 -281c0 -225 -212 -502 -508 -502zM380 9c239 0 430 244 430 484c0 163 -97 258 -233 258c-238 0 -429 -244 -429 -483c0 -164 97 -259 232 -259zM317 -213c-22 0 -42 19 -42 42
c0 22 20 43 42 43c23 0 43 -21 43 -43c0 -23 -20 -42 -43 -42z" />
    <glyph glyph-name="uni1ECD" unicode="&#x1ecd;" horiz-adv-x="556" 
d="M198 -11c-97 0 -161 64 -161 164c0 179 156 362 323 362c97 0 161 -65 161 -163c0 -181 -155 -363 -323 -363zM216 8c117 0 244 154 244 343c0 97 -49 144 -117 144c-118 0 -244 -153 -244 -342c0 -97 48 -145 117 -145zM127 -213c-23 0 -43 19 -43 43c0 22 20 42 43 42
s43 -20 43 -42c0 -24 -20 -43 -43 -43z" />
    <glyph glyph-name="uni1EE4" unicode="&#x1ee4;" horiz-adv-x="863" 
d="M369 -11c-198 0 -284 99 -219 313l125 412c6 19 -6 25 -31 26l-50 3l4 15h242l-5 -15l-53 -3c-26 -1 -42 -7 -48 -26l-127 -418c-53 -173 -6 -271 175 -271c183 0 290 104 342 276l126 413c6 19 -6 25 -30 26l-55 3l5 15h212l-5 -15l-53 -3c-26 -1 -41 -7 -47 -26
l-127 -417c-62 -202 -182 -308 -381 -308zM309 -213c-22 0 -42 19 -42 42c0 22 20 43 42 43c23 0 43 -21 43 -43c0 -23 -20 -42 -43 -42z" />
    <glyph glyph-name="uni1EE5" unicode="&#x1ee5;" horiz-adv-x="601" 
d="M271 510l-129 -312c-47 -114 -62 -179 -5 -179c49 0 106 51 164 122c74 90 164 238 212 358l58 8l-167 -433c-19 -50 -13 -60 7 -60c37 0 99 36 153 132l14 -6c-55 -100 -124 -151 -195 -151c-50 0 -57 27 -35 83l113 291h-1c-42 -90 -105 -183 -153 -243
c-68 -84 -130 -131 -197 -131c-87 0 -79 77 -25 209l113 276l-91 6l6 14zM141 -213c-23 0 -43 19 -43 43c0 22 20 42 43 42s43 -20 43 -42c0 -24 -20 -43 -43 -43z" />
    <glyph glyph-name="Ygrave" unicode="&#x1ef2;" horiz-adv-x="776" 
d="M620 837h-14l-145 134l1 1h67zM184 0l5 16l60 2c26 1 41 7 47 26l92 298l-155 373c-7 16 -12 23 -40 25l-51 3l6 15h242l-5 -15l-55 -3c-29 -2 -43 -9 -36 -25l144 -346l355 346c17 17 7 24 -21 25l-60 3l4 15h223l-5 -15l-52 -3c-27 -2 -38 -9 -55 -25l-380 -373
l-92 -298c-6 -19 6 -25 31 -26l60 -2l-5 -16h-257z" />
    <glyph glyph-name="ygrave" unicode="&#x1ef3;" horiz-adv-x="550" 
d="M417 588h-11l-86 175l1 4h51zM-106 -259c-49 0 -69 20 -69 43c0 16 11 29 27 35c25 -25 44 -36 71 -36c54 0 109 37 219 175l30 37l-10 477l-92 4l2 13l145 21l9 -446l257 324c77 97 99 127 127 127c19 0 28 -15 28 -33c0 -12 -5 -27 -16 -34c-48 -15 -79 -21 -130 -84
l-329 -411c-107 -133 -193 -212 -269 -212z" />
    <glyph glyph-name="uni2007" unicode="&#x2007;" horiz-adv-x="673" 
 />
    <glyph glyph-name="uni2008" unicode="&#x2008;" horiz-adv-x="214" 
 />
    <glyph glyph-name="uni2009" unicode="&#x2009;" horiz-adv-x="59" 
 />
    <glyph glyph-name="uni200B" unicode="&#x200b;" 
 />
    <glyph glyph-name="endash" unicode="&#x2013;" horiz-adv-x="601" 
d="M72 245l11 31h452l-11 -31h-452z" />
    <glyph glyph-name="emdash" unicode="&#x2014;" horiz-adv-x="905" 
d="M72 245l11 31h756l-11 -31h-756z" />
    <glyph glyph-name="quoteleft" unicode="&#x2018;" horiz-adv-x="243" 
d="M343 780l8 -16c-97 -66 -141 -128 -141 -170c0 -20 11 -33 33 -41c-5 -30 -27 -45 -49 -45c-24 0 -43 16 -43 46c0 43 44 132 192 226z" />
    <glyph glyph-name="quoteright" unicode="&#x2019;" horiz-adv-x="245" 
d="M146 505l-8 16c97 66 141 128 141 170c0 20 -11 33 -33 41c5 30 27 45 49 45c24 0 43 -16 43 -46c0 -43 -44 -132 -192 -226z" />
    <glyph glyph-name="quotesinglbase" unicode="&#x201a;" horiz-adv-x="213" 
d="M-94 -196l-8 16c97 66 141 128 141 170c0 20 -11 33 -33 41c5 30 27 45 49 45c24 0 43 -16 43 -46c0 -43 -44 -132 -192 -226z" />
    <glyph glyph-name="quotedblleft" unicode="&#x201c;" horiz-adv-x="456" 
d="M343 780l8 -16c-97 -66 -141 -128 -141 -170c0 -20 11 -33 33 -41c-5 -30 -27 -45 -49 -45c-24 0 -43 16 -43 46c0 43 44 132 192 226zM556 780l8 -16c-97 -66 -141 -128 -141 -170c0 -20 11 -33 33 -41c-5 -30 -27 -45 -49 -45c-24 0 -43 16 -43 46c0 43 44 132 192 226
z" />
    <glyph glyph-name="quotedblright" unicode="&#x201d;" horiz-adv-x="458" 
d="M146 505l-8 16c97 66 141 128 141 170c0 20 -11 33 -33 41c5 30 27 45 49 45c24 0 43 -16 43 -46c0 -43 -44 -132 -192 -226zM359 505l-8 16c97 66 141 128 141 170c0 20 -11 33 -33 41c5 30 27 45 49 45c24 0 43 -16 43 -46c0 -43 -44 -132 -192 -226z" />
    <glyph glyph-name="quotedblbase" unicode="&#x201e;" horiz-adv-x="426" 
d="M-94 -196l-8 16c97 66 141 128 141 170c0 20 -11 33 -33 41c5 30 27 45 49 45c24 0 43 -16 43 -46c0 -43 -44 -132 -192 -226zM119 -196l-8 16c97 66 141 128 141 170c0 20 -11 33 -33 41c5 30 27 45 49 45c24 0 43 -16 43 -46c0 -43 -44 -132 -192 -226z" />
    <glyph glyph-name="dagger" unicode="&#x2020;" horiz-adv-x="674" 
d="M170 -228l111 340c30 92 22 116 19 154c26 33 44 47 68 125l33 102h-113c-79 0 -99 -14 -137 -30c-13 6 -26 21 -29 38c12 18 35 32 53 38c29 -16 39 -30 118 -30h113l33 101c26 79 16 94 12 128c10 17 31 34 51 41c14 -9 24 -26 26 -41c-28 -34 -44 -49 -70 -128
l-33 -101h113c78 0 99 14 137 30c13 -7 26 -22 30 -38c-12 -18 -35 -33 -54 -38c-28 16 -39 30 -118 30h-113l-33 -102c-24 -78 -15 -92 -10 -125c-28 -37 -50 -62 -78 -154l-108 -340h-21z" />
    <glyph glyph-name="daggerdbl" unicode="&#x2021;" horiz-adv-x="674" 
d="M8 -8c-13 7 -25 22 -28 38c10 18 33 32 52 38c30 -16 40 -30 119 -30h112l32 102c23 77 15 91 9 126c26 33 44 47 67 125l32 102h-114c-78 0 -99 -14 -136 -30c-12 6 -26 21 -30 38c12 18 36 32 55 38c27 -16 38 -30 117 -30h113l31 101c25 79 15 94 11 128
c10 17 30 34 50 41c14 -9 25 -26 27 -41c-27 -34 -44 -49 -69 -128l-31 -101h113c79 0 99 14 138 30c12 -7 25 -22 27 -38c-10 -18 -33 -33 -52 -38c-29 16 -40 30 -119 30h-112l-32 -102c-23 -78 -14 -92 -9 -125c-26 -34 -44 -49 -67 -126l-32 -102h114c79 0 99 14 136 30
c13 -7 26 -22 30 -38c-12 -18 -36 -32 -54 -38c-28 16 -39 29 -118 29h-113l-31 -101c-24 -78 -15 -93 -11 -127c-9 -17 -29 -34 -51 -41c-12 9 -23 25 -26 41c28 34 45 49 69 127l31 101h-113c-78 0 -98 -13 -137 -29z" />
    <glyph glyph-name="bullet" unicode="&#x2022;" horiz-adv-x="426" 
d="M249 258c-69 0 -126 57 -126 127c0 69 57 126 126 126c70 0 127 -57 127 -126c0 -70 -57 -127 -127 -127z" />
    <glyph glyph-name="ellipsis" unicode="&#x2026;" horiz-adv-x="765" 
d="M53 -11c-24 0 -43 20 -43 44s19 44 43 44c25 0 44 -20 44 -44s-19 -44 -44 -44zM328 -11c-24 0 -43 20 -43 44s19 44 43 44c25 0 44 -20 44 -44s-19 -44 -44 -44zM604 -11c-24 0 -43 20 -43 44s19 44 43 44c25 0 44 -20 44 -44s-19 -44 -44 -44z" />
    <glyph glyph-name="perthousand" unicode="&#x2030;" horiz-adv-x="1345" 
d="M241 332c-79 0 -116 60 -116 136c0 126 105 301 225 301c77 0 116 -61 116 -135c0 -127 -105 -302 -225 -302zM74 0l832 758h45l-832 -758h-45zM242 347c101 0 182 199 182 307c0 63 -24 100 -75 100c-101 0 -182 -200 -182 -306c0 -62 24 -101 75 -101zM685 -9
c-79 0 -116 60 -116 136c0 126 105 301 225 301c77 0 116 -61 116 -135c0 -127 -105 -302 -225 -302zM1080 -9c-79 0 -116 60 -116 136c0 126 105 301 225 301c77 0 116 -61 116 -135c0 -127 -105 -302 -225 -302zM686 6c101 0 182 199 182 307c0 63 -24 100 -75 100
c-101 0 -182 -200 -182 -306c0 -62 24 -101 75 -101zM1081 6c101 0 182 199 182 307c0 63 -24 100 -75 100c-101 0 -182 -200 -182 -306c0 -62 24 -101 75 -101z" />
    <glyph glyph-name="guilsinglleft" unicode="&#x2039;" horiz-adv-x="349" 
d="M107 253l105 -210l-12 -7l-147 220l299 220l7 -10z" />
    <glyph glyph-name="guilsinglright" unicode="&#x203a;" horiz-adv-x="349" 
d="M246 259l-105 210l12 7l147 -220l-299 -220l-7 10z" />
    <glyph glyph-name="fraction" unicode="&#x2044;" horiz-adv-x="200" 
d="M-296 0l831 758h45l-832 -758h-44z" />
    <glyph glyph-name="uni2060" unicode="&#x2060;" 
 />
    <glyph glyph-name="zero.superior" unicode="&#x2070;" horiz-adv-x="402" 
d="M258 392c-79 0 -116 60 -116 136c0 126 105 301 225 301c77 0 116 -61 116 -135c0 -127 -105 -302 -225 -302zM259 407c101 0 182 199 182 307c0 63 -24 100 -75 100c-101 0 -182 -200 -182 -306c0 -62 24 -101 75 -101z" />
    <glyph glyph-name="four.superior" unicode="&#x2074;" horiz-adv-x="392" 
d="M288 401l39 114h-231l342 304h34l-95 -275h83l-11 -29h-82l-39 -114h-40zM148 544h189l82 238z" />
    <glyph glyph-name="five.superior" unicode="&#x2075;" horiz-adv-x="338" 
d="M227 406c61 0 118 43 118 109c0 59 -54 108 -156 142l93 161h184l-21 -37h-169l-54 -92c105 -35 155 -90 155 -155c0 -85 -78 -142 -161 -142c-71 0 -113 44 -113 78c0 22 19 34 38 30c-1 -59 28 -94 86 -94z" />
    <glyph glyph-name="six.superior" unicode="&#x2076;" horiz-adv-x="374" 
d="M253 392c-76 0 -124 55 -124 127c0 124 150 280 382 319l2 -10c-145 -26 -265 -117 -315 -217c30 27 71 41 106 41c63 0 111 -41 111 -108c0 -79 -72 -152 -162 -152zM172 512c0 -62 27 -106 83 -106c69 0 117 62 117 131c0 57 -36 95 -89 95c-33 0 -64 -11 -91 -32
c-13 -29 -20 -59 -20 -88z" />
    <glyph glyph-name="seven.superior" unicode="&#x2077;" horiz-adv-x="350" 
d="M243 818h274l-242 -250c-67 -69 -95 -104 -126 -149c-12 -17 -16 -21 -28 -22l-20 -2c-11 -1 -14 7 -1 21c114 121 218 224 363 365h-192c-28 0 -34 -2 -45 -16l-39 -50h-10z" />
    <glyph glyph-name="eight.superior" unicode="&#x2078;" horiz-adv-x="358" 
d="M244 392c-72 0 -124 45 -124 107c0 65 57 112 150 128c-28 29 -47 60 -47 99c0 58 50 103 123 103c64 0 106 -35 106 -86c0 -58 -66 -97 -129 -110l7 -7c35 -35 62 -70 62 -115c0 -64 -63 -119 -148 -119zM307 649l11 -11c59 13 108 54 108 104c0 46 -33 72 -82 72
c-52 0 -90 -28 -90 -73c0 -34 21 -60 53 -92zM148 499c0 -59 44 -92 99 -92c65 0 111 36 111 87c0 40 -26 70 -58 102l-24 24l-1 1c-80 -14 -127 -62 -127 -122z" />
    <glyph glyph-name="nine.superior" unicode="&#x2079;" horiz-adv-x="367" 
d="M106 382l-3 12c149 28 250 121 291 219c-30 -27 -72 -43 -111 -43c-64 0 -112 44 -112 110c0 82 76 149 161 149c74 0 125 -52 125 -131c0 -114 -119 -272 -351 -316zM215 686c0 -59 40 -95 90 -95c33 0 66 9 93 31c11 29 17 59 17 87c0 66 -32 105 -85 105
c-67 0 -115 -57 -115 -128z" />
    <glyph glyph-name="zero.inferior" unicode="&#x2080;" horiz-adv-x="402" 
d="M117 -69c-79 0 -116 60 -116 136c0 126 105 301 225 301c77 0 116 -61 116 -135c0 -127 -105 -302 -225 -302zM118 -54c101 0 182 199 182 307c0 63 -24 100 -75 100c-101 0 -182 -200 -182 -306c0 -62 24 -101 75 -101z" />
    <glyph glyph-name="one.inferior" unicode="&#x2081;" horiz-adv-x="233" 
d="M-47 -60l3 12l37 2c16 1 23 5 27 17l124 360l-104 -39l6 19l149 54l-135 -394c-4 -12 0 -18 14 -18l33 -1l-4 -12h-150z" />
    <glyph glyph-name="two.inferior" unicode="&#x2082;" horiz-adv-x="353" 
d="M-77 -60l1 3c236 165 341 249 341 332c0 45 -28 70 -76 70c-52 0 -101 -32 -114 -104h-11c10 80 64 127 140 127c65 0 102 -36 102 -88c0 -72 -64 -132 -257 -260l-68 -45h185c24 0 30 2 43 19l39 51l10 -2l-66 -103h-269z" />
    <glyph glyph-name="three.inferior" unicode="&#x2083;" horiz-adv-x="343" 
d="M247 87c0 -79 -75 -156 -174 -156c-71 0 -113 44 -113 78c0 22 19 34 38 30c-1 -59 28 -94 86 -94c70 0 123 53 123 127c0 62 -40 99 -76 99c-13 0 -24 -2 -32 -4l-2 11l21 5c79 14 131 53 131 103c0 36 -26 59 -72 59c-43 0 -88 -22 -104 -82h-11c14 70 67 105 130 105
c59 0 96 -30 96 -73c0 -50 -49 -87 -109 -101v-1c39 -15 68 -54 68 -106z" />
    <glyph glyph-name="four.inferior" unicode="&#x2084;" horiz-adv-x="392" 
d="M149 -60l39 114h-231l342 304h34l-95 -275h83l-11 -29h-82l-39 -114h-40zM9 83h189l82 238z" />
    <glyph glyph-name="five.inferior" unicode="&#x2085;" horiz-adv-x="338" 
d="M87 -55c61 0 118 43 118 109c0 59 -54 108 -156 142l93 161h184l-21 -37h-169l-54 -92c105 -35 155 -90 155 -155c0 -85 -78 -142 -161 -142c-71 0 -113 44 -113 78c0 22 19 34 38 30c-1 -59 28 -94 86 -94z" />
    <glyph glyph-name="six.inferior" unicode="&#x2086;" horiz-adv-x="374" 
d="M112 -69c-76 0 -124 55 -124 127c0 124 150 280 382 319l2 -10c-145 -26 -265 -117 -315 -217c30 27 71 41 106 41c63 0 111 -41 111 -108c0 -79 -72 -152 -162 -152zM31 51c0 -62 27 -106 83 -106c69 0 117 62 117 131c0 57 -36 95 -89 95c-33 0 -64 -11 -91 -32
c-13 -29 -20 -59 -20 -88z" />
    <glyph glyph-name="seven.inferior" unicode="&#x2087;" horiz-adv-x="350" 
d="M102 357h274l-242 -250c-67 -69 -95 -104 -126 -149c-12 -17 -16 -21 -28 -22l-20 -2c-11 -1 -14 7 -1 21c114 121 218 224 363 365h-192c-28 0 -34 -2 -45 -16l-39 -50h-10z" />
    <glyph glyph-name="eight.inferior" unicode="&#x2088;" horiz-adv-x="358" 
d="M103 -69c-72 0 -124 45 -124 107c0 65 57 112 150 128c-28 29 -47 60 -47 99c0 58 50 103 123 103c64 0 106 -35 106 -86c0 -58 -66 -97 -129 -110l7 -7c35 -35 62 -70 62 -115c0 -64 -63 -119 -148 -119zM166 188l11 -11c59 13 108 54 108 104c0 46 -33 72 -82 72
c-52 0 -90 -28 -90 -73c0 -34 21 -60 53 -92zM7 38c0 -59 44 -92 99 -92c65 0 111 36 111 87c0 40 -26 70 -58 102l-24 24l-1 1c-80 -14 -127 -62 -127 -122z" />
    <glyph glyph-name="nine.inferior" unicode="&#x2089;" horiz-adv-x="367" 
d="M-35 -79l-3 12c149 28 250 121 291 219c-30 -27 -72 -43 -111 -43c-64 0 -112 44 -112 110c0 82 76 149 161 149c74 0 125 -52 125 -131c0 -114 -119 -272 -351 -316zM74 225c0 -59 40 -95 90 -95c33 0 66 9 93 31c11 29 17 59 17 87c0 66 -32 105 -85 105
c-67 0 -115 -57 -115 -128z" />
    <glyph glyph-name="Euro" unicode="&#x20ac;" horiz-adv-x="868" 
d="M56 299l14 24h140c6 43 18 85 36 124h-146l13 25h145c88 173 276 300 456 300c144 0 202 -80 201 -132c-1 -37 -34 -47 -66 -42c13 79 -14 154 -139 154c-152 0 -314 -113 -391 -280h371l-14 -25h-368c-15 -39 -26 -80 -31 -124h324l-14 -24h-312c-1 -10 -1 -21 -1 -32
c0 -161 92 -245 214 -245c142 0 250 81 313 237l15 -5c-63 -169 -182 -265 -347 -265c-148 0 -263 94 -263 276c0 11 0 23 1 34h-151z" />
    <glyph glyph-name="uni20B4" unicode="&#x20b4;" horiz-adv-x="638" 
d="M102 441l8 24h378c71 32 126 95 126 163c0 88 -54 122 -135 122c-34 0 -79 -5 -111 -18c-17 -7 -26 -9 -45 -33l-109 -135h-13l88 172c58 26 121 36 190 36c106 0 188 -44 188 -151c0 -58 -42 -121 -99 -156h92l-8 -24h-550zM62 310l8 25h550l-8 -25h-390
c-77 -38 -116 -107 -116 -166c0 -86 56 -134 150 -134c41 0 91 7 130 25c17 7 28 15 42 35l120 156h13l-98 -197c-66 -28 -137 -40 -213 -40c-130 0 -199 56 -199 157c0 60 30 124 87 164h-76z" />
    <glyph glyph-name="uni20B8" unicode="&#x20b8;" horiz-adv-x="711" 
d="M219 733l10 25h588l-6 -25h-592zM162 0l5 16l60 2c26 1 41 7 47 26l173 563h-197c-14 0 -19 -3 -27 -14l-121 -172h-13l90 206h607l-37 -206h-13l-8 172c-1 11 -4 14 -18 14h-203l-173 -563c-6 -19 5 -24 31 -26l59 -2l-5 -16h-257z" />
    <glyph glyph-name="uni20BD" unicode="&#x20bd;" horiz-adv-x="700" 
d="M-4 0l5 15l53 3c26 1 41 7 47 26l56 183h-92l7 25h92l33 106h-92l8 24h91l101 332c6 19 -6 25 -31 26l-51 3l5 15h293c142 0 261 -32 261 -147c0 -144 -136 -253 -380 -253h-146l-33 -106h316l-7 -25h-316l-56 -183c-6 -19 6 -25 31 -26l97 -2l-5 -16h-287zM371 737
l-108 -355h141c199 0 311 101 311 230c0 95 -88 125 -203 125h-141z" />
    <glyph glyph-name="uni2116" unicode="&#x2116;" horiz-adv-x="1235" 
d="M1062 332c-79 0 -116 60 -116 136c0 126 105 301 225 301c77 0 116 -61 116 -135c0 -127 -105 -302 -225 -302zM658 -20l-344 728l-203 -664c-6 -19 6 -25 30 -26l52 -3l-5 -15h-208l4 15l53 3c26 1 41 7 47 26l205 670c6 19 -6 25 -31 26l-51 3l5 15h145l310 -663
l191 619c6 19 -6 25 -31 26l-51 3l5 15h209l-5 -15l-54 -3c-25 -1 -41 -7 -47 -26l-224 -734h-2zM1063 347c101 0 182 199 182 307c0 63 -24 100 -75 100c-101 0 -182 -200 -182 -306c0 -62 24 -101 75 -101zM889 245l8 26h280l-8 -26h-280z" />
    <glyph glyph-name="uni2117" unicode="&#x2117;" horiz-adv-x="913" 
d="M497 -11c-227 0 -387 170 -387 391c0 222 160 392 387 392c226 0 387 -170 387 -392c0 -221 -161 -391 -387 -391zM497 11c192 0 359 140 359 369s-167 370 -359 370s-359 -141 -359 -370s167 -369 359 -369zM341 179v12l28 2c16 1 24 4 24 18v366c0 13 -8 17 -24 18
l-28 2v12h181c94 0 176 -21 176 -114c0 -92 -82 -116 -176 -116h-74v16h68c81 0 135 23 135 98c0 77 -54 100 -135 100h-82v-382c0 -14 8 -18 23 -18l53 -1v-13h-169z" />
    <glyph glyph-name="trademark" unicode="&#x2122;" horiz-adv-x="1272" 
d="M305 288v14l37 2c17 1 26 3 26 18v420h-130c-9 0 -13 -2 -16 -9l-42 -116h-8l16 141h405l16 -141h-7l-43 116c-3 7 -6 9 -16 9h-129v-420c0 -15 9 -17 25 -18l38 -2v-14h-172zM671 288v14l30 1c17 1 26 4 26 19v402c0 14 -9 18 -26 19l-30 1v14h118l166 -314l168 314h114
v-14l-31 -1c-17 -1 -25 -5 -25 -19v-402c0 -15 8 -18 25 -19l31 -1v-14h-158v14l30 1c17 1 26 4 26 19v416l-192 -365h-4l-191 363v-414c0 -15 9 -18 25 -19l31 -1v-14h-133z" />
    <glyph glyph-name="uni2150" unicode="&#x2150;" horiz-adv-x="809" 
d="M76 341l3 12l37 2c16 1 23 5 27 17l124 360l-104 -39l6 19l149 54l-135 -394c-4 -12 0 -18 14 -18l33 -1l-4 -12h-150zM-42 0l831 758h45l-832 -758h-44zM580 417h274l-242 -250c-67 -69 -95 -104 -126 -149c-12 -17 -16 -21 -28 -22l-20 -2c-11 -1 -14 7 -1 21
c114 121 218 224 363 365h-192c-28 0 -34 -2 -45 -16l-39 -50h-10z" />
    <glyph glyph-name="uni2151" unicode="&#x2151;" horiz-adv-x="829" 
d="M76 341l3 12l37 2c16 1 23 5 27 17l124 360l-104 -39l6 19l149 54l-135 -394c-4 -12 0 -18 14 -18l33 -1l-4 -12h-150zM-42 0l831 758h45l-832 -758h-44zM445 -19l-3 12c149 28 250 121 291 219c-30 -27 -72 -43 -111 -43c-64 0 -112 44 -112 110c0 82 76 149 161 149
c74 0 125 -52 125 -131c0 -114 -119 -272 -351 -316zM554 285c0 -59 40 -95 90 -95c33 0 66 9 93 31c11 29 17 59 17 87c0 66 -32 105 -85 105c-67 0 -115 -57 -115 -128z" />
    <glyph glyph-name="uni2152" unicode="&#x2152;" horiz-adv-x="1108" 
d="M76 341l3 12l37 2c16 1 23 5 27 17l124 360l-104 -39l6 19l149 54l-135 -394c-4 -12 0 -18 14 -18l33 -1l-4 -12h-150zM-42 0l831 758h45l-832 -758h-44zM841 -9c-79 0 -116 60 -116 136c0 126 105 301 225 301c77 0 116 -61 116 -135c0 -127 -105 -302 -225 -302zM444 0
l3 12l37 2c16 1 23 5 27 17l124 360l-104 -39l6 19l149 54l-135 -394c-4 -12 0 -18 14 -18l33 -1l-4 -12h-150zM842 6c101 0 182 199 182 307c0 63 -24 100 -75 100c-101 0 -182 -200 -182 -306c0 -62 24 -101 75 -101z" />
    <glyph glyph-name="onethird" unicode="&#x2153;" horiz-adv-x="797" 
d="M76 341l3 12l37 2c16 1 23 5 27 17l124 360l-104 -39l6 19l149 54l-135 -394c-4 -12 0 -18 14 -18l33 -1l-4 -12h-150zM-42 0l831 758h45l-832 -758h-44zM719 147c0 -79 -75 -156 -174 -156c-71 0 -113 44 -113 78c0 22 19 34 38 30c-1 -59 28 -94 86 -94
c70 0 123 53 123 127c0 62 -40 99 -76 99c-13 0 -24 -2 -32 -4l-2 11l21 5c79 14 131 53 131 103c0 36 -26 59 -72 59c-43 0 -88 -22 -104 -82h-11c14 70 67 105 130 105c59 0 96 -30 96 -73c0 -50 -49 -87 -109 -101v-1c39 -15 68 -54 68 -106z" />
    <glyph glyph-name="twothirds" unicode="&#x2154;" horiz-adv-x="896" 
d="M44 341l1 3c236 165 341 249 341 332c0 45 -28 70 -76 70c-52 0 -101 -32 -114 -104h-11c10 80 64 127 140 127c65 0 102 -36 102 -88c0 -72 -64 -132 -257 -260l-68 -45h185c24 0 30 2 43 19l39 51l10 -2l-66 -103h-269zM57 0l831 758h45l-832 -758h-44zM818 147
c0 -79 -75 -156 -174 -156c-71 0 -113 44 -113 78c0 22 19 34 38 30c-1 -59 28 -94 86 -94c70 0 123 53 123 127c0 62 -40 99 -76 99c-13 0 -24 -2 -32 -4l-2 11l21 5c79 14 131 53 131 103c0 36 -26 59 -72 59c-43 0 -88 -22 -104 -82h-11c14 70 67 105 130 105
c59 0 96 -30 96 -73c0 -50 -49 -87 -109 -101v-1c39 -15 68 -54 68 -106z" />
    <glyph glyph-name="uni2155" unicode="&#x2155;" horiz-adv-x="792" 
d="M76 341l3 12l37 2c16 1 23 5 27 17l124 360l-104 -39l6 19l149 54l-135 -394c-4 -12 0 -18 14 -18l33 -1l-4 -12h-150zM-42 0l831 758h45l-832 -758h-44zM559 5c61 0 118 43 118 109c0 59 -54 108 -156 142l93 161h184l-21 -37h-169l-54 -92c105 -35 155 -90 155 -155
c0 -85 -78 -142 -161 -142c-71 0 -113 44 -113 78c0 22 19 34 38 30c-1 -59 28 -94 86 -94z" />
    <glyph glyph-name="uni2156" unicode="&#x2156;" horiz-adv-x="892" 
d="M44 341l1 3c236 165 341 249 341 332c0 45 -28 70 -76 70c-52 0 -101 -32 -114 -104h-11c10 80 64 127 140 127c65 0 102 -36 102 -88c0 -72 -64 -132 -257 -260l-68 -45h185c24 0 30 2 43 19l39 51l10 -2l-66 -103h-269zM57 0l831 758h45l-832 -758h-44zM658 5
c61 0 118 43 118 109c0 59 -54 108 -156 142l93 161h184l-21 -37h-169l-54 -92c105 -35 155 -90 155 -155c0 -85 -78 -142 -161 -142c-71 0 -113 44 -113 78c0 22 19 34 38 30c-1 -59 28 -94 86 -94z" />
    <glyph glyph-name="uni2157" unicode="&#x2157;" horiz-adv-x="881" 
d="M370 488c0 -79 -75 -156 -174 -156c-71 0 -113 44 -113 78c0 22 19 34 38 30c-1 -59 28 -94 86 -94c70 0 123 53 123 127c0 62 -40 99 -76 99c-13 0 -24 -2 -32 -4l-2 11l21 5c79 14 131 53 131 103c0 36 -26 59 -72 59c-43 0 -88 -22 -104 -82h-11c14 70 67 105 130 105
c59 0 96 -30 96 -73c0 -50 -49 -87 -109 -101v-1c39 -15 68 -54 68 -106zM47 0l831 758h45l-832 -758h-44zM648 5c61 0 118 43 118 109c0 59 -54 108 -156 142l93 161h184l-21 -37h-169l-54 -92c105 -35 155 -90 155 -155c0 -85 -78 -142 -161 -142c-71 0 -113 44 -113 78
c0 22 19 34 38 30c-1 -59 28 -94 86 -94z" />
    <glyph glyph-name="uni2158" unicode="&#x2158;" horiz-adv-x="930" 
d="M271 341l39 114h-231l342 304h34l-95 -275h83l-11 -29h-82l-39 -114h-40zM96 0l831 758h45l-832 -758h-44zM131 484h189l82 238zM697 5c61 0 118 43 118 109c0 59 -54 108 -156 142l93 161h184l-21 -37h-169l-54 -92c105 -35 155 -90 155 -155c0 -85 -78 -142 -161 -142
c-71 0 -113 44 -113 78c0 22 19 34 38 30c-1 -59 28 -94 86 -94z" />
    <glyph glyph-name="uni2159" unicode="&#x2159;" horiz-adv-x="804" 
d="M76 341l3 12l37 2c16 1 23 5 27 17l124 360l-104 -39l6 19l149 54l-135 -394c-4 -12 0 -18 14 -18l33 -1l-4 -12h-150zM-42 0l831 758h45l-832 -758h-44zM561 -9c-76 0 -124 55 -124 127c0 124 150 280 382 319l2 -10c-145 -26 -265 -117 -315 -217c30 27 71 41 106 41
c63 0 111 -41 111 -108c0 -79 -72 -152 -162 -152zM480 111c0 -62 27 -106 83 -106c69 0 117 62 117 131c0 57 -36 95 -89 95c-33 0 -64 -11 -91 -32c-13 -29 -20 -59 -20 -88z" />
    <glyph glyph-name="uni215A" unicode="&#x215a;" horiz-adv-x="889" 
d="M209 346c61 0 118 43 118 109c0 59 -54 108 -156 142l93 161h184l-21 -37h-169l-54 -92c105 -35 155 -90 155 -155c0 -85 -78 -142 -161 -142c-71 0 -113 44 -113 78c0 22 19 34 38 30c-1 -59 28 -94 86 -94zM42 0l831 758h45l-832 -758h-44zM646 -9
c-76 0 -124 55 -124 127c0 124 150 280 382 319l2 -10c-145 -26 -265 -117 -315 -217c30 27 71 41 106 41c63 0 111 -41 111 -108c0 -79 -72 -152 -162 -152zM565 111c0 -62 27 -106 83 -106c69 0 117 62 117 131c0 57 -36 95 -89 95c-33 0 -64 -11 -91 -32
c-13 -29 -20 -59 -20 -88z" />
    <glyph glyph-name="oneeighth" unicode="&#x215b;" horiz-adv-x="812" 
d="M76 341l3 12l37 2c16 1 23 5 27 17l124 360l-104 -39l6 19l149 54l-135 -394c-4 -12 0 -18 14 -18l33 -1l-4 -12h-150zM-42 0l831 758h45l-832 -758h-44zM575 -9c-72 0 -124 45 -124 107c0 65 57 112 150 128c-28 29 -47 60 -47 99c0 58 50 103 123 103
c64 0 106 -35 106 -86c0 -58 -66 -97 -129 -110l7 -7c35 -35 62 -70 62 -115c0 -64 -63 -119 -148 -119zM638 248l11 -11c59 13 108 54 108 104c0 46 -33 72 -82 72c-52 0 -90 -28 -90 -73c0 -34 21 -60 53 -92zM479 98c0 -59 44 -92 99 -92c65 0 111 36 111 87
c0 40 -26 70 -58 102l-24 24l-1 1c-80 -14 -127 -62 -127 -122z" />
    <glyph glyph-name="threeeighths" unicode="&#x215c;" horiz-adv-x="901" 
d="M370 488c0 -79 -75 -156 -174 -156c-71 0 -113 44 -113 78c0 22 19 34 38 30c-1 -59 28 -94 86 -94c70 0 123 53 123 127c0 62 -40 99 -76 99c-13 0 -24 -2 -32 -4l-2 11l21 5c79 14 131 53 131 103c0 36 -26 59 -72 59c-43 0 -88 -22 -104 -82h-11c14 70 67 105 130 105
c59 0 96 -30 96 -73c0 -50 -49 -87 -109 -101v-1c39 -15 68 -54 68 -106zM47 0l831 758h45l-832 -758h-44zM664 -9c-72 0 -124 45 -124 107c0 65 57 112 150 128c-28 29 -47 60 -47 99c0 58 50 103 123 103c64 0 106 -35 106 -86c0 -58 -66 -97 -129 -110l7 -7
c35 -35 62 -70 62 -115c0 -64 -63 -119 -148 -119zM727 248l11 -11c59 13 108 54 108 104c0 46 -33 72 -82 72c-52 0 -90 -28 -90 -73c0 -34 21 -60 53 -92zM568 98c0 -59 44 -92 99 -92c65 0 111 36 111 87c0 40 -26 70 -58 102l-24 24l-1 1c-80 -14 -127 -62 -127 -122z
" />
    </font>
</defs>
</svg>
