<?xml version="1.0" standalone="no"?>
<!DOCTYPE svg PUBLIC "-//W3C//DTD SVG 1.1//EN" "http://www.w3.org/Graphics/SVG/1.1/DTD/svg11.dtd" >
<svg xmlns="http://www.w3.org/2000/svg" xmlns:xlink="http://www.w3.org/1999/xlink" version="1.1">
<metadata>
Created by FontForge 20190801 at Wed Oct 25 22:36:20 2017
 By Jimmy Wärting
Copyright \(c\) 2017 Swiss Typefaces Sarl. All rights reserved.
</metadata>
<defs>
<font id="SangBleuKingdom-Regular" horiz-adv-x="0" >
  <font-face 
    font-family="SangBleu Kingdom"
    font-weight="400"
    font-stretch="normal"
    units-per-em="1000"
    panose-1="2 4 5 4 8 0 0 0 0 4"
    ascent="800"
    descent="-200"
    x-height="502"
    cap-height="758"
    bbox="-399 -403 1307 1059"
    underline-thickness="47"
    underline-position="-130"
    stemh="29"
    stemv="39"
    unicode-range="U+000D-FEFF"
  />
<missing-glyph horiz-adv-x="640" 
d="M70 0v758h500v-758h-500zM103 739l217 -343l217 343h-434zM89 728v-698l221 349zM331 379l220 -349v698zM103 19h434l-217 343z" />
    <glyph glyph-name="_528" unicode="ff" horiz-adv-x="734" 
d="M34 0v23l35 2c33 1 38 6 38 33v393h-73v23c59 4 86 20 97 79c25 145 93 218 240 218h14v-93h-98c-77 0 -120 -29 -120 -89c0 -29 11 -58 33 -87h160v-51h-159v-393c0 -27 4 -31 39 -32l54 -3v-23h-260zM397 0v23l35 2c33 1 38 6 38 33v393h-73v23c59 4 86 20 97 79
c25 145 93 218 240 218h14v-93h-98c-77 0 -120 -29 -120 -89c0 -29 11 -58 33 -87h195l-31 -51h-163v-393c0 -27 4 -31 39 -32l54 -3v-23h-260z" />
    <glyph glyph-name="_530" unicode="fi" horiz-adv-x="673" 
d="M34 0v23l35 2c33 1 38 6 38 33v393h-73v23c59 4 86 20 97 79c25 145 93 218 240 218h14v-93h-98c-77 0 -120 -29 -120 -89c0 -29 11 -58 33 -87h183l-31 -51h-151v-393c0 -27 4 -31 39 -32l54 -3v-23h-260zM403 0v23l35 2c31 3 38 6 38 33v349l-73 41v6l167 64v-460
c0 -27 7 -30 39 -33l34 -2v-23h-240zM459 722c0 33 29 63 64 63s64 -30 64 -63c0 -35 -29 -65 -64 -65s-64 30 -64 65z" />
    <glyph glyph-name="_532" unicode="ffi" horiz-adv-x="1036" 
d="M34 0v23l35 2c33 1 38 6 38 33v393h-73v23c59 4 86 20 97 79c25 145 93 218 240 218h14v-93h-98c-77 0 -120 -29 -120 -89c0 -29 11 -58 33 -87h160v-51h-159v-393c0 -27 4 -31 39 -32l54 -3v-23h-260zM397 0v23l35 2c33 1 38 6 38 33v393h-73v23c59 4 86 20 97 79
c25 145 93 218 240 218h14v-93h-98c-77 0 -120 -29 -120 -89c0 -29 11 -58 33 -87h183l-31 -51h-151v-393c0 -27 4 -31 39 -32l54 -3v-23h-260zM766 0v23l35 2c31 3 38 6 38 33v349l-73 41v6l167 64v-460c0 -27 7 -30 39 -33l34 -2v-23h-240zM822 722c0 33 29 63 64 63
s64 -30 64 -63c0 -35 -29 -65 -64 -65s-64 30 -64 65z" />
    <glyph glyph-name="_534" unicode="fl" horiz-adv-x="675" 
d="M34 0v23l35 2c33 1 38 6 38 33v393h-73v23c59 4 86 20 97 79c25 145 93 218 240 218h14v-93h-98c-77 0 -120 -29 -120 -89c0 -29 11 -58 33 -87h178l-31 -51h-146v-393c0 -27 4 -31 39 -32l54 -3v-23h-260zM405 0v23l35 2c33 1 38 6 38 33v622l-73 41v6l167 64v-733
c0 -27 4 -32 39 -33l34 -2v-23h-240z" />
    <glyph glyph-name="_536" unicode="ffl" horiz-adv-x="1034" 
d="M34 0v23l35 2c33 1 38 6 38 33v393h-73v23c59 4 86 20 97 79c25 145 93 218 240 218h14v-93h-98c-77 0 -120 -29 -120 -89c0 -29 11 -58 33 -87h160v-51h-159v-393c0 -27 4 -31 39 -32l54 -3v-23h-260zM397 0v23l35 2c33 1 38 6 38 33v393h-73v23c59 4 86 20 97 79
c25 145 93 218 240 218h14v-93h-98c-77 0 -120 -29 -120 -89c0 -29 11 -58 33 -87h178l-31 -51h-146v-393c0 -27 4 -31 39 -32l54 -3v-23h-260zM768 0v23l35 2c33 1 38 6 38 33v622l-73 41v6l167 64v-733c0 -27 4 -32 39 -33l34 -2v-23h-240z" />
    <glyph glyph-name=".notdef" horiz-adv-x="640" 
d="M70 0v758h500v-758h-500zM103 739l217 -343l217 343h-434zM89 728v-698l221 349zM331 379l220 -349v698zM103 19h434l-217 343z" />
    <glyph glyph-name="_001" 
 />
    <glyph glyph-name="uni000D" unicode="&#xd;" horiz-adv-x="240" 
 />
    <glyph glyph-name="space" unicode=" " horiz-adv-x="240" 
 />
    <glyph glyph-name="exclam" unicode="!" horiz-adv-x="290" 
d="M158 218h-24c-8 281 -45 347 -45 535c0 29 114 29 114 0c0 -190 -37 -254 -45 -535zM142 -12c-36 0 -65 30 -65 67c0 36 29 66 65 66c39 0 67 -30 67 -66c0 -37 -28 -67 -67 -67z" />
    <glyph glyph-name="quotedbl" unicode="&#x22;" horiz-adv-x="416" 
d="M89 479l-32 260c-3 27 8 36 47 36s48 -9 45 -36l-32 -260h-28zM299 479l-32 260c-3 27 8 36 47 36s48 -9 45 -36l-32 -260h-28z" />
    <glyph glyph-name="numbersign" unicode="#" horiz-adv-x="900" 
d="M130 0l83 205h-182l20 48h182l103 254h-182l19 48h182l90 221h52l-90 -221h229l90 221h51l-90 -221h182l-19 -48h-182l-103 -254h181l-19 -48h-182l-83 -205h-51l83 205h-229l-83 -205h-52zM285 253h229l103 254h-229z" />
    <glyph glyph-name="dollar" unicode="$" horiz-adv-x="612" 
d="M291 -12h-9c-143 0 -241 70 -241 138c0 43 42 69 93 57c17 -109 64 -161 157 -165v333l-49 18c-111 41 -180 103 -180 211c0 106 106 186 229 194v115h32v-114c137 -3 225 -67 225 -130c0 -35 -32 -58 -88 -45c-15 84 -53 135 -137 144v-293l22 -8
c134 -51 220 -105 220 -230c0 -117 -94 -210 -242 -223v-120h-32v118zM483 169c0 87 -56 130 -160 170v-320c99 8 160 67 160 150zM272 470l19 -7v282c-83 -3 -149 -55 -149 -129c0 -76 47 -115 130 -146z" />
    <glyph glyph-name="percent" unicode="%" horiz-adv-x="924" 
d="M148 0l566 758h61l-566 -758h-61zM40 551c0 115 60 219 161 219c103 0 163 -104 163 -219s-60 -219 -163 -219c-101 0 -161 104 -161 219zM115 551c0 -112 23 -199 86 -199c64 0 87 87 87 199s-23 199 -87 199c-63 0 -86 -87 -86 -199zM561 210c0 115 60 219 161 219
c103 0 163 -104 163 -219s-60 -219 -163 -219c-101 0 -161 104 -161 219zM636 210c0 -112 23 -199 86 -199c64 0 87 87 87 199s-23 199 -87 199c-63 0 -86 -87 -86 -199z" />
    <glyph glyph-name="ampersand" unicode="&#x26;" horiz-adv-x="891" 
d="M306 -12c-161 0 -248 111 -248 218c0 117 100 187 217 230c-68 60 -104 116 -104 176c0 92 91 163 208 163c108 0 187 -49 187 -134c0 -90 -92 -141 -191 -176c72 -60 151 -137 231 -220l104 181c19 33 11 51 -24 52l-51 1v23h225v-23l-44 -1c-31 -1 -46 -15 -62 -42
l-127 -214c41 -44 81 -89 117 -133c31 -39 53 -61 80 -64l40 -3v-22h-174c-33 41 -73 88 -117 139c-71 -93 -155 -151 -267 -151zM258 645c0 -64 40 -113 103 -168c88 33 132 85 132 158c0 76 -47 115 -115 115c-75 0 -120 -41 -120 -105zM158 244c0 -113 79 -204 189 -204
c88 0 152 45 207 121c-83 92 -176 188 -265 264c-92 -40 -131 -105 -131 -181z" />
    <glyph glyph-name="quotesingle" unicode="'" horiz-adv-x="206" 
d="M89 479l-32 260c-3 27 8 36 47 36s48 -9 45 -36l-32 -260h-28z" />
    <glyph glyph-name="parenleft" unicode="(" horiz-adv-x="314" 
d="M294 -224l-16 -15c-163 140 -233 327 -233 530s70 390 233 530l16 -15c-135 -140 -166 -334 -166 -515s31 -375 166 -515z" />
    <glyph glyph-name="parenright" unicode=")" horiz-adv-x="314" 
d="M20 805l16 15c163 -140 233 -327 233 -530s-70 -390 -233 -530l-16 15c135 140 166 334 166 515s-31 375 -166 515z" />
    <glyph glyph-name="asterisk" unicode="*" horiz-adv-x="489" 
d="M136 437l-17 11l80 141l-147 66l6 19l158 -33l18 160h19l19 -160l158 32l6 -19l-147 -67l80 -139l-17 -12l-109 119z" />
    <glyph glyph-name="plus" unicode="+" horiz-adv-x="653" 
d="M301 0v237h-239v49h239v230h52v-230h238v-49h-238v-237h-52z" />
    <glyph glyph-name="comma" unicode="," horiz-adv-x="264" 
d="M47 -193l-13 22c64 49 92 98 92 141c0 37 -22 61 -66 73c-1 40 27 75 71 75c40 0 70 -27 70 -80c0 -72 -49 -159 -154 -231z" />
    <glyph glyph-name="hyphen" unicode="-" horiz-adv-x="430" 
d="M68 235v53h294v-53h-294z" />
    <glyph glyph-name="period" unicode="." horiz-adv-x="252" 
d="M125 -12c-36 0 -65 30 -65 67c0 36 29 66 65 66c39 0 67 -30 67 -66c0 -37 -28 -67 -67 -67z" />
    <glyph glyph-name="slash" unicode="/" horiz-adv-x="500" 
d="M28 -52l379 846h65l-379 -846h-65z" />
    <glyph glyph-name="zero" unicode="0" horiz-adv-x="674" 
d="M53 381c0 205 104 394 284 394s284 -189 284 -394c0 -204 -104 -393 -284 -393s-284 189 -284 393zM159 381c0 -214 60 -363 178 -363s178 149 178 363c0 216 -60 364 -178 364s-178 -148 -178 -364z" />
    <glyph glyph-name="one" unicode="1" horiz-adv-x="397" 
d="M172 58v644l-149 -62v27l243 102v-711c0 -27 4 -32 39 -33l34 -2v-23h-258v23l53 2c33 1 38 6 38 33z" />
    <glyph glyph-name="two" unicode="2" horiz-adv-x="591" 
d="M25 0v4c264 258 384 424 384 569c0 92 -50 149 -141 149c-89 0 -156 -59 -167 -183h-24c0 152 98 236 228 236c140 0 205 -83 205 -181c0 -132 -115 -265 -315 -446l-71 -65h283c55 0 73 4 88 40l31 75h24l-54 -198h-471z" />
    <glyph glyph-name="three" unicode="3" horiz-adv-x="586" 
d="M234 -12c-124 0 -201 70 -201 129c0 39 42 66 89 56c13 -87 51 -152 151 -152c83 0 180 59 180 187c0 124 -101 198 -187 198c-31 0 -58 -10 -79 -19l-9 26l38 14c101 37 180 109 180 186c0 71 -51 109 -126 109c-76 0 -151 -38 -167 -147h-25c13 129 100 200 229 200
c107 0 180 -56 180 -132c0 -78 -73 -128 -153 -160v-2c120 -21 204 -103 204 -218c0 -166 -153 -275 -304 -275z" />
    <glyph glyph-name="four" unicode="4" horiz-adv-x="675" 
d="M411 0v202h-407l418 556h83v-487h144v-69h-144v-202h-94zM94 271h317v417z" />
    <glyph glyph-name="five" unicode="5" horiz-adv-x="576" 
d="M222 -12c-124 0 -200 70 -200 129c0 39 40 67 88 56c16 -89 53 -151 153 -151c103 0 181 75 181 174c0 112 -91 203 -338 240l84 322h351l-24 -88h-320l-37 -138c247 -40 353 -148 353 -289c0 -137 -120 -255 -291 -255z" />
    <glyph glyph-name="six" unicode="6" horiz-adv-x="623" 
d="M572 234c0 -144 -120 -246 -258 -246c-165 0 -268 122 -268 279c0 222 209 442 526 538l8 -20c-233 -88 -374 -242 -416 -409c49 51 112 82 187 82c117 0 221 -73 221 -224zM151 271c0 -148 64 -255 166 -255c90 0 150 78 150 197c0 123 -66 200 -162 200
c-55 0 -108 -19 -147 -63c-5 -27 -7 -52 -7 -79z" />
    <glyph glyph-name="seven" unicode="7" horiz-adv-x="588" 
d="M89 758h504l-275 -429c-87 -135 -114 -216 -141 -289c-15 -36 -23 -42 -46 -45l-42 -6c-23 -3 -35 11 -16 42c136 208 254 385 435 639h-330c-61 0 -74 -5 -93 -49l-27 -65h-24z" />
    <glyph glyph-name="eight" unicode="8" horiz-adv-x="597" 
d="M294 -12c-138 0 -245 78 -245 195c0 92 65 155 182 200c-84 49 -143 112 -143 207c0 116 101 185 216 185c106 0 206 -54 206 -154c0 -88 -71 -149 -156 -184l8 -5c106 -56 185 -122 185 -233c0 -126 -113 -211 -253 -211zM297 467l39 -21c69 35 110 92 110 164
c0 84 -62 132 -146 132c-82 0 -146 -41 -146 -114c0 -71 54 -113 143 -161zM125 188c0 -100 71 -167 172 -167c109 0 178 55 178 143c0 77 -69 122 -162 173l-66 36c-75 -35 -122 -93 -122 -185z" />
    <glyph glyph-name="nine" unicode="9" horiz-adv-x="622" 
d="M50 529c0 144 120 246 258 246c165 0 268 -122 268 -279c0 -222 -209 -442 -526 -538l-8 20c233 88 374 242 416 409c-49 -51 -112 -82 -187 -82c-117 0 -221 73 -221 224zM471 492c0 148 -64 255 -166 255c-90 0 -150 -78 -150 -197c0 -123 66 -200 162 -200
c55 0 108 19 147 63c5 27 7 52 7 79z" />
    <glyph glyph-name="colon" unicode=":" horiz-adv-x="268" 
d="M133 -12c-36 0 -65 30 -65 67c0 36 29 66 65 66c39 0 67 -30 67 -66c0 -37 -28 -67 -67 -67zM133 385c-36 0 -65 30 -65 67c0 36 29 66 65 66c39 0 67 -30 67 -66c0 -37 -28 -67 -67 -67z" />
    <glyph glyph-name="semicolon" unicode=";" horiz-adv-x="298" 
d="M68 -193l-13 22c64 49 92 98 92 141c0 37 -22 61 -66 73c-1 40 27 75 71 75c40 0 70 -27 70 -80c0 -72 -49 -159 -154 -231zM147 385c-36 0 -65 30 -65 67c0 36 29 66 65 66c39 0 67 -30 67 -66c0 -37 -28 -67 -67 -67z" />
    <glyph glyph-name="less" unicode="&#x3c;" horiz-adv-x="653" 
d="M59 238v46l514 226v-54l-445 -195l445 -196v-54z" />
    <glyph glyph-name="equal" unicode="=" horiz-adv-x="653" 
d="M75 350v49h503v-49h-503zM75 116v49h503v-49h-503z" />
    <glyph glyph-name="greater" unicode="&#x3e;" horiz-adv-x="653" 
d="M594 284v-46l-514 -227v54l445 196l-445 195v54z" />
    <glyph glyph-name="question" unicode="?" horiz-adv-x="566" 
d="M275 743c-85 0 -147 -39 -152 -131c-40 -3 -88 19 -88 59c0 45 83 104 208 104c175 0 284 -99 284 -235c0 -93 -51 -154 -171 -171l-103 -15c-30 -5 -38 -8 -38 -42l-3 -99h-23l-17 157c-8 68 18 77 77 85l102 15c89 13 125 47 125 111c0 88 -90 162 -201 162zM203 -12
c-36 0 -65 30 -65 67c0 36 29 66 65 66c39 0 67 -30 67 -66c0 -37 -28 -67 -67 -67z" />
    <glyph glyph-name="at" unicode="@" horiz-adv-x="953" 
d="M576 163c-33 0 -53 8 -53 28c0 12 7 32 18 59l32 81h-4c-63 -98 -147 -167 -229 -167c-60 0 -102 34 -102 101c0 167 226 352 373 352c49 0 93 -23 130 -38l-129 -325c-9 -23 -14 -38 -14 -44c0 -7 1 -12 20 -12c92 0 262 88 262 289c0 176 -147 258 -310 258
c-249 0 -456 -208 -456 -445c0 -186 129 -295 310 -295c108 0 177 26 221 47l9 -21c-49 -24 -125 -54 -237 -54c-201 0 -367 119 -367 320c0 244 246 478 521 478c173 0 344 -92 344 -288c0 -197 -164 -324 -339 -324zM380 212c60 0 170 73 229 222l54 138
c-11 13 -30 19 -57 19c-120 0 -284 -172 -284 -311c0 -45 19 -68 58 -68z" />
    <glyph glyph-name="A" unicode="A" horiz-adv-x="764" 
d="M390 794l294 -733c11 -25 21 -31 52 -34l44 -3v-24h-289v24l50 3c32 3 44 9 33 34l-86 218h-283l-86 -218c-11 -25 1 -31 33 -34l50 -3v-24h-218v24l44 3c29 3 40 9 51 34l295 733h16zM221 319h252l-126 320z" />
    <glyph glyph-name="B" unicode="B" horiz-adv-x="744" 
d="M55 0v24l45 3c29 3 45 8 45 36v632c0 28 -16 33 -45 36l-45 3v24h299c172 0 290 -41 290 -172c0 -100 -83 -169 -211 -182v-2c157 0 267 -58 267 -183c0 -133 -107 -219 -318 -219h-327zM246 416h118c112 0 173 58 173 158c0 109 -67 153 -192 153h-99v-311zM246 31h110
c157 0 231 52 231 180c0 127 -83 174 -219 174h-122v-354z" />
    <glyph glyph-name="C" unicode="C" horiz-adv-x="819" 
d="M479 -12c-251 0 -431 151 -431 393c0 243 181 394 436 394c83 0 179 -13 240 -45l42 -217h-18l-113 182c-15 23 -23 30 -47 37c-31 9 -64 11 -108 11c-163 0 -317 -97 -317 -342c0 -221 120 -381 325 -381c44 0 77 2 108 11c24 7 32 14 47 37l113 182h18l-42 -217
c-61 -32 -168 -45 -253 -45z" />
    <glyph glyph-name="D" unicode="D" horiz-adv-x="847" 
d="M55 0v24l45 3c29 3 45 8 45 36v632c0 28 -16 33 -45 36l-45 3v24h278c257 0 465 -112 465 -374s-208 -384 -460 -384h-283zM246 31h87c203 0 349 91 349 332c0 259 -133 364 -353 364h-83v-696z" />
    <glyph glyph-name="E" unicode="E" horiz-adv-x="750" 
d="M55 0v24l45 3c29 3 45 8 45 36v632c0 28 -16 33 -45 36l-45 3v24h557l33 -222h-18l-102 174c-8 15 -12 16 -29 16h-250v-313h150c17 0 19 2 22 13l40 118h18v-297h-18l-40 117c-4 11 -5 13 -22 13h-150v-345h299c16 0 19 2 28 14l137 178h18l-68 -224h-605z" />
    <glyph glyph-name="F" unicode="F" horiz-adv-x="702" 
d="M55 0v24l45 3c29 3 45 8 45 36v632c0 28 -16 33 -45 36l-45 3v24h590l34 -222h-18l-103 174c-8 15 -12 16 -28 16h-284v-313h158c16 0 19 2 22 13l39 118h18v-297h-18l-39 117c-4 11 -6 13 -22 13h-158v-314c0 -28 15 -34 46 -35l86 -2v-26h-323z" />
    <glyph glyph-name="G" unicode="G" horiz-adv-x="883" 
d="M479 -12c-251 0 -431 151 -431 393c0 243 184 394 436 394c83 0 179 -13 240 -45l42 -217h-18l-113 182c-15 23 -23 30 -47 37c-31 9 -64 11 -108 11c-160 0 -317 -97 -317 -342c0 -220 120 -380 325 -380c56 0 127 9 178 36v222c0 28 -16 36 -45 37l-118 3v32h355v-36
l-90 -1v-196l3 -69c-77 -32 -195 -61 -292 -61z" />
    <glyph glyph-name="H" unicode="H" horiz-adv-x="900" 
d="M55 0v24l45 3c29 3 45 8 45 36v632c0 28 -16 33 -45 36l-45 3v24h282v-24l-45 -3c-31 -3 -46 -8 -46 -36v-277h407v277c0 28 -16 33 -45 36l-45 3v24h282v-24l-45 -3c-29 -3 -45 -8 -45 -36v-632c0 -28 16 -33 45 -36l45 -3v-24h-282v24l45 3c29 3 45 8 45 36v315h-407
v-315c0 -28 15 -33 46 -36l45 -3v-24h-282z" />
    <glyph glyph-name="I" unicode="I" horiz-adv-x="391" 
d="M55 0v24l45 3c29 3 45 8 45 36v632c0 28 -16 33 -45 36l-45 3v24h282v-24l-45 -3c-31 -3 -46 -8 -46 -36v-632c0 -28 15 -33 46 -36l45 -3v-24h-282z" />
    <glyph glyph-name="J" unicode="J" horiz-adv-x="382" 
d="M14 -117l-16 22c120 99 149 124 149 243v549c0 27 -15 31 -44 32l-50 2v27h289v-27l-50 -2c-29 -1 -44 -5 -44 -32v-522c0 -108 -36 -139 -116 -206c-26 -21 -81 -59 -118 -86z" />
    <glyph glyph-name="K" unicode="K" horiz-adv-x="794" 
d="M55 0v24l45 3c29 3 45 8 45 36v632c0 28 -16 33 -45 36l-45 3v24h282v-24l-45 -3c-31 -3 -46 -8 -46 -36v-315l350 327c13 12 7 21 -26 24l-64 3v24h264v-24l-52 -3c-40 -3 -57 -9 -78 -29l-295 -276l458 -426h-142l-415 377v-314c0 -28 15 -33 46 -36l45 -3v-24h-282z
" />
    <glyph glyph-name="L" unicode="L" horiz-adv-x="703" 
d="M55 0v24l45 3c29 3 45 8 45 36v632c0 28 -16 33 -45 36l-45 3v24h282v-24l-45 -3c-31 -3 -46 -8 -46 -36v-663h260c16 0 19 2 28 14l137 178h18l-68 -224h-566z" />
    <glyph glyph-name="M" unicode="M" horiz-adv-x="1033" 
d="M35 0v24l44 3c29 3 43 8 46 36l40 632c3 28 -16 33 -45 36l-45 3v24h223l224 -474l224 474h213v-24l-45 -3c-31 -3 -49 -8 -46 -36l40 -632c3 -28 15 -33 46 -36l45 -3v-24h-282v24l44 3c31 3 49 8 46 36l-40 653l-278 -588h-6l-279 587l-40 -652c-3 -28 15 -33 44 -36
l46 -3v-24h-219z" />
    <glyph glyph-name="N" unicode="N" horiz-adv-x="883" 
d="M58 0v24l45 3c31 3 45 8 45 36v590l-91 103v2h132l520 -582v519c0 28 -15 33 -46 36l-45 3v24h220v-24l-45 -3c-31 -3 -45 -8 -45 -36v-714h-4l-557 628v-546c0 -28 15 -33 46 -36l44 -3v-24h-219z" />
    <glyph glyph-name="O" unicode="O" horiz-adv-x="894" 
d="M447 -12c-220 0 -399 157 -399 393c0 237 179 394 399 394s399 -157 399 -394c0 -236 -179 -393 -399 -393zM447 21c162 0 283 131 283 360c0 231 -121 361 -283 361c-163 0 -284 -130 -284 -361c0 -229 121 -360 284 -360z" />
    <glyph glyph-name="P" unicode="P" horiz-adv-x="716" 
d="M55 0v24l45 3c29 3 45 8 45 36v632c0 28 -16 33 -45 36l-45 3v24h316c176 0 319 -37 319 -201c0 -163 -143 -207 -319 -207h-100v32h91c135 0 215 41 215 172c0 129 -80 173 -215 173h-116v-664c0 -28 15 -34 46 -35l86 -2v-26h-323z" />
    <glyph glyph-name="Q" unicode="Q" horiz-adv-x="894" 
d="M447 -12h-2l-175 -70c37 11 80 12 96 12c155 0 230 -85 331 -85c61 0 110 28 145 111l25 -8c-40 -103 -101 -185 -178 -185c-130 0 -223 145 -359 145c-24 0 -47 -3 -63 -11c0 -37 -21 -49 -41 -49c-15 0 -26 12 -26 28c0 28 29 49 116 84l76 32
c-194 24 -344 173 -344 389c0 237 179 394 399 394s399 -157 399 -394c0 -236 -179 -393 -399 -393zM447 21c162 0 283 131 283 360c0 231 -121 361 -283 361c-163 0 -284 -130 -284 -361c0 -229 121 -360 284 -360z" />
    <glyph glyph-name="R" unicode="R" horiz-adv-x="763" 
d="M55 0v24l45 3c29 3 45 8 45 36v632c0 28 -16 33 -45 36l-45 3v24h287c181 0 314 -39 314 -185c0 -112 -84 -171 -221 -188l350 -385h-129l-337 373h-73v-310c0 -28 15 -33 46 -36l45 -3v-24h-282zM246 404h88c128 0 209 43 209 162c0 118 -81 161 -209 161h-88v-323z" />
    <glyph glyph-name="S" unicode="S" horiz-adv-x="629" 
d="M291 -12c-77 0 -138 7 -194 26l-23 229h18l86 -177c9 -17 22 -29 39 -36c19 -7 39 -10 75 -10c104 0 192 52 192 141c0 96 -71 141 -177 175l-53 17c-117 37 -184 109 -184 221c0 128 128 201 262 201c64 0 121 -8 170 -27l36 -204h-18l-97 159c-15 25 -26 29 -46 34
c-19 4 -36 5 -59 5c-81 0 -160 -50 -160 -135c0 -68 38 -118 125 -146l53 -17c140 -46 239 -104 239 -240c0 -131 -128 -216 -284 -216z" />
    <glyph glyph-name="T" unicode="T" horiz-adv-x="756" 
d="M222 0v25l60 3c29 1 45 7 45 35v666h-174c-17 0 -22 -1 -29 -16l-88 -189h-18l24 234h671l25 -234h-18l-89 189c-7 15 -12 16 -28 16h-174v-666c0 -28 14 -32 45 -35l60 -3v-25h-312z" />
    <glyph glyph-name="U" unicode="U" horiz-adv-x="861" 
d="M434 -12c-200 0 -311 97 -311 308v399c0 28 -16 33 -45 36l-45 3v24h282v-24l-45 -3c-29 -3 -45 -8 -45 -36v-401c0 -177 74 -258 235 -258c164 0 240 91 240 267v392c0 28 -14 33 -45 36l-45 3v24h219v-24l-44 -3c-31 -3 -46 -8 -46 -36v-398
c0 -203 -105 -309 -305 -309z" />
    <glyph glyph-name="V" unicode="V" horiz-adv-x="776" 
d="M379 -25l-301 722c-11 25 -22 31 -51 34l-44 3v24h287v-24l-50 -3c-32 -3 -44 -9 -33 -34l235 -572l236 572c11 25 -2 31 -33 34l-50 3v24h218v-24l-44 -3c-29 -3 -40 -9 -51 -34l-302 -722h-17z" />
    <glyph glyph-name="W" unicode="W" horiz-adv-x="1183" 
d="M379 -25l-301 722c-11 25 -22 31 -51 34l-44 3v24h287v-24l-50 -3c-32 -3 -44 -9 -33 -34l235 -572l161 386l-93 247h260v-24l-92 -3c-32 -1 -43 -9 -34 -34l204 -572l236 572c11 25 -1 31 -33 34l-49 3v24h218v-24l-44 -3c-31 -3 -40 -9 -51 -34l-302 -722h-17l-185 490
l-206 -490h-16z" />
    <glyph glyph-name="X" unicode="X" horiz-adv-x="802" 
d="M-4 0v24l43 3c27 2 48 13 65 34l256 315l-232 321c-16 23 -30 31 -58 34l-43 3v24h295v-24l-50 -4c-31 -3 -42 -10 -26 -33l177 -244l198 244c16 20 9 31 -20 33l-50 4v24h222v-24l-43 -3c-27 -2 -49 -13 -66 -34l-221 -272l263 -364c16 -23 30 -31 59 -34l42 -3v-24
h-295v24l50 4c31 3 42 10 26 33l-207 287l-233 -287c-17 -21 -12 -30 20 -33l50 -4v-24h-222z" />
    <glyph glyph-name="Y" unicode="Y" horiz-adv-x="770" 
d="M230 0v25l60 3c29 1 45 7 45 35v279l-248 355c-16 24 -22 31 -51 34l-44 3v24h290v-24l-50 -3c-31 -3 -49 -11 -33 -34l221 -317l222 317c17 24 -2 31 -33 34l-50 3v24h220v-24l-44 -3c-29 -3 -35 -11 -51 -34l-248 -355v-279c0 -28 15 -32 46 -35l60 -3v-25h-312z" />
    <glyph glyph-name="Z" unicode="Z" horiz-adv-x="732" 
d="M22 0v10l534 717h-325c-19 0 -21 -1 -32 -16l-131 -177h-18l69 224h563v-11l-532 -716h374c17 0 20 1 31 16l131 177h19l-70 -224h-613z" />
    <glyph glyph-name="bracketleft" unicode="[" horiz-adv-x="305" 
d="M107 -227v1040h165v-24l-42 -2c-47 -3 -60 -14 -60 -57v-875c0 -43 13 -54 60 -57l42 -2v-23h-165z" />
    <glyph glyph-name="backslash" unicode="\" horiz-adv-x="500" 
d="M472 -52h-65l-379 846h65z" />
    <glyph glyph-name="bracketright" unicode="]" horiz-adv-x="305" 
d="M198 813v-1040h-165v24l42 2c47 3 60 14 60 57v875c0 43 -13 54 -60 57l-42 2v23h165z" />
    <glyph glyph-name="asciicircum" unicode="^" horiz-adv-x="653" 
d="M92 361l210 415h49l210 -415h-54l-181 360l-181 -360h-53z" />
    <glyph glyph-name="underscore" unicode="_" horiz-adv-x="571" 
d="M13 -102v47h545v-47h-545z" />
    <glyph glyph-name="grave" unicode="`" 
d="M97 597h-20l-194 172v7h105z" />
    <glyph glyph-name="a" unicode="a" horiz-adv-x="540" 
d="M205 -12c-94 0 -159 63 -159 135c0 93 107 119 181 148c125 48 126 76 126 119c0 56 -33 99 -102 99c-80 0 -125 -58 -105 -151c-13 -3 -25 -4 -38 -4c-44 0 -68 19 -68 46c0 34 44 65 91 88c55 29 113 50 169 50c97 0 147 -39 146 -159l-3 -315h76v-22l-158 -29l-7 112
c-27 -88 -80 -117 -149 -117zM245 29c51 0 106 40 106 145l2 143c-27 -20 -46 -33 -85 -53c-69 -37 -114 -65 -114 -133c0 -52 30 -102 91 -102z" />
    <glyph glyph-name="b" unicode="b" horiz-adv-x="602" 
d="M332 517c127 0 226 -102 226 -265c0 -155 -102 -264 -239 -264c-68 0 -118 29 -149 69l-77 -68l-7 3v688l-73 41v6l167 64v-347c32 44 88 73 152 73zM286 472c-35 0 -75 -10 -106 -45v-353c31 -35 69 -47 104 -47c100 0 167 92 167 225c0 126 -67 220 -165 220z" />
    <glyph glyph-name="c" unicode="c" horiz-adv-x="554" 
d="M295 -12c-145 0 -253 106 -253 263c0 156 123 266 271 266c87 0 180 -41 180 -108c0 -35 -28 -54 -65 -54c-7 0 -14 1 -22 2c-8 96 -58 134 -123 134c-73 0 -136 -58 -139 -184c-3 -139 72 -259 192 -259c60 0 137 27 166 135h23c-27 -139 -118 -195 -230 -195z" />
    <glyph glyph-name="d" unicode="d" horiz-adv-x="616" 
d="M269 -12c-127 0 -225 102 -225 265c0 155 102 264 238 264c59 0 108 -25 139 -64v227l-93 41v6l187 64v-747h77v-22l-171 -31v70c-33 -43 -88 -73 -152 -73zM150 254c0 -127 67 -220 166 -220c35 0 76 10 105 45v355c-31 35 -69 45 -104 45c-100 0 -167 -92 -167 -225z
" />
    <glyph glyph-name="e" unicode="e" horiz-adv-x="577" 
d="M296 -12c-144 0 -253 98 -253 263c0 160 119 266 252 266c93 0 203 -55 232 -204h-382v-19c0 -146 81 -246 192 -246c64 0 143 20 180 135h23c-31 -135 -121 -195 -244 -195zM292 493c-72 0 -129 -50 -144 -151h263c-3 83 -36 151 -119 151z" />
    <glyph glyph-name="f" unicode="f" horiz-adv-x="384" 
d="M34 0v23l35 2c33 1 38 6 38 33v393h-73v23c59 4 86 20 97 79c25 145 93 218 240 218h14v-93h-98c-77 0 -120 -29 -120 -89c0 -29 11 -58 33 -87h195l-31 -51h-163v-393c0 -27 4 -31 39 -32l54 -3v-23h-260z" />
    <glyph glyph-name="g" unicode="g" horiz-adv-x="589" 
d="M265 164c-25 0 -50 4 -74 11l-77 -88l249 -24c133 -13 189 -44 189 -116c0 -112 -151 -207 -338 -207c-117 0 -192 48 -192 117c0 67 80 117 179 128c-54 14 -129 43 -158 59l124 140c-65 28 -108 85 -108 156c0 101 89 177 208 177c51 0 97 -14 132 -38l30 56h170
l-35 -64h-155c40 -31 64 -77 64 -129c0 -101 -89 -178 -208 -178zM283 189c56 0 98 42 98 125c0 97 -51 180 -129 180c-57 0 -99 -42 -99 -125c0 -97 50 -180 130 -180zM247 -227c117 0 227 57 227 126c0 60 -74 81 -207 81c-120 0 -176 -53 -176 -106
c0 -60 53 -101 156 -101z" />
    <glyph glyph-name="h" unicode="h" horiz-adv-x="610" 
d="M26 0v23l35 2c33 1 38 6 38 33v622l-73 41v6l167 64v-412c21 93 83 138 167 138c97 0 154 -54 154 -199v-260c0 -27 4 -32 39 -33l34 -2v-23h-240v23l35 2c33 1 38 6 38 33v242c0 121 -38 160 -107 160c-65 0 -120 -44 -120 -160v-242c0 -27 4 -32 39 -33l34 -2v-23h-240
z" />
    <glyph glyph-name="i" unicode="i" horiz-adv-x="309" 
d="M39 0v23l35 2c31 3 38 6 38 33v349l-73 41v6l167 64v-460c0 -27 7 -30 39 -33l34 -2v-23h-240zM95 722c0 33 29 63 64 63s64 -30 64 -63c0 -35 -29 -65 -64 -65s-64 30 -64 65z" />
    <glyph glyph-name="j" unicode="j" horiz-adv-x="279" 
d="M-19 -261l-12 18c96 80 130 115 130 274v376l-73 41v6l167 64v-483c0 -119 -28 -168 -96 -218c-27 -20 -72 -51 -116 -78zM81 722c0 33 29 63 64 63s64 -30 64 -63c0 -35 -29 -65 -64 -65s-64 30 -64 65z" />
    <glyph glyph-name="k" unicode="k" horiz-adv-x="590" 
d="M26 0v23l35 2c33 1 38 6 38 33v622l-73 41v6l167 64v-522l212 173c21 19 19 35 -16 36l-36 1v23h209v-23l-33 -2c-33 -3 -51 -10 -78 -34l-170 -136l315 -307h-128l-275 260v-202c0 -27 4 -32 39 -33l34 -2v-23h-240z" />
    <glyph glyph-name="l" unicode="l" horiz-adv-x="300" 
d="M30 0v23l35 2c33 1 38 6 38 33v622l-73 41v6l167 64v-733c0 -27 4 -32 39 -33l34 -2v-23h-240z" />
    <glyph glyph-name="m" unicode="m" horiz-adv-x="940" 
d="M275 23v-23h-240v23l35 2c33 1 38 6 38 33v349l-73 41v6l167 64v-139c21 93 83 138 167 138s135 -37 150 -137c24 93 90 137 170 137c99 0 155 -54 155 -199v-260c0 -27 4 -32 39 -33l34 -2v-23h-240v23l35 2c33 1 38 6 38 33v242c0 121 -38 160 -107 160
c-65 0 -120 -44 -120 -160v-242c0 -27 4 -32 39 -33l34 -2v-23h-240v23l35 2c33 1 38 6 38 33v242c0 121 -38 160 -107 160c-65 0 -120 -44 -120 -160v-242c0 -27 4 -32 39 -33z" />
    <glyph glyph-name="n" unicode="n" horiz-adv-x="619" 
d="M35 0v23l35 2c33 1 38 6 38 33v349l-73 41v6l167 64v-139c21 93 83 138 167 138c97 0 154 -54 154 -199v-260c0 -27 4 -32 39 -33l34 -2v-23h-240v23l35 2c33 1 38 6 38 33v242c0 121 -38 160 -107 160c-65 0 -120 -44 -120 -160v-242c0 -27 4 -32 39 -33l34 -2v-23h-240
z" />
    <glyph glyph-name="o" unicode="o" horiz-adv-x="619" 
d="M308 -12c-143 0 -266 109 -266 262c0 163 133 267 269 267c143 0 266 -109 266 -261c0 -163 -130 -268 -269 -268zM310 17c82 0 157 67 157 236c0 171 -75 237 -157 237c-84 0 -159 -66 -159 -237c0 -169 75 -236 159 -236z" />
    <glyph glyph-name="p" unicode="p" horiz-adv-x="614" 
d="M26 -248v23l35 2c33 1 38 6 38 33v597l-73 41v6l167 64v-74c32 44 88 73 152 73c127 0 225 -102 225 -265c0 -155 -102 -264 -238 -264c-59 0 -108 25 -139 65v-243c0 -27 4 -31 39 -32l60 -3v-23h-266zM299 472c-36 0 -75 -10 -106 -45v-356c31 -35 69 -44 104 -44
c100 0 167 92 167 225c0 126 -67 220 -165 220z" />
    <glyph glyph-name="q" unicode="q" horiz-adv-x="601" 
d="M269 -12c-127 0 -225 102 -225 265c0 155 102 264 238 264c68 0 120 -29 149 -68l77 67l7 -2v-704c0 -27 5 -32 38 -33l35 -2v-23h-266v23l60 3c33 1 39 5 39 32v251c-33 -43 -88 -73 -152 -73zM150 254c0 -127 67 -220 166 -220c35 0 76 10 105 45v352
c-29 35 -69 47 -104 47c-100 0 -167 -90 -167 -224z" />
    <glyph glyph-name="r" unicode="r" horiz-adv-x="416" 
d="M35 0v23l35 2c33 1 38 6 38 33v349l-73 41v6l167 64v-158c25 108 97 151 184 151h9v-95l-39 4c-117 8 -154 -43 -154 -115v-247c0 -27 4 -31 39 -32l54 -3v-23h-260z" />
    <glyph glyph-name="s" unicode="s" horiz-adv-x="472" 
d="M213 -12c-49 0 -92 5 -135 17l-21 177h20l75 -142c15 -27 36 -28 73 -28c51 0 119 32 119 93c0 59 -46 83 -95 97l-60 16c-75 20 -127 74 -127 153c0 96 92 146 196 146c41 0 81 -7 119 -22l24 -157h-21l-80 131c-12 20 -37 23 -65 23c-51 0 -100 -29 -100 -84
s34 -80 75 -91l61 -16c84 -22 155 -66 155 -157s-90 -156 -213 -156z" />
    <glyph glyph-name="t" unicode="t" horiz-adv-x="396" 
d="M205 451v-332c0 -60 24 -78 68 -78c33 0 64 7 93 22l9 -18c-30 -24 -98 -53 -159 -53c-71 0 -105 22 -105 101v358h-108v6l196 153h6v-108h194l-32 -51h-162z" />
    <glyph glyph-name="u" unicode="u" horiz-adv-x="611" 
d="M250 -12c-98 0 -154 53 -154 200v274l-72 18v22h166v-297c0 -120 35 -160 106 -160c66 0 120 44 120 161v256l-71 18v22h165v-458h77v-22l-171 -31v135c-21 -92 -83 -138 -166 -138z" />
    <glyph glyph-name="v" unicode="v" horiz-adv-x="567" 
d="M268 -11l-194 450c-12 27 -18 38 -49 39l-29 1v23h243v-23l-33 -1c-31 -1 -42 -13 -32 -36l142 -331l134 315c15 36 2 51 -29 52l-37 1v23h190v-23l-32 -1c-31 -1 -41 -13 -54 -42l-193 -447h-27z" />
    <glyph glyph-name="w" unicode="w" horiz-adv-x="872" 
d="M268 -11l-194 450c-12 27 -18 38 -49 39l-29 1v23h243v-23l-33 -1c-31 -1 -42 -13 -32 -36l143 -331l105 241l-63 150h201v-23l-41 -1c-31 -1 -41 -13 -32 -36l135 -330l132 314c16 36 3 51 -29 52l-36 1v23h190v-23l-32 -1c-31 -1 -41 -13 -54 -42l-193 -447h-27
l-136 326l-142 -326h-27z" />
    <glyph glyph-name="x" unicode="x" horiz-adv-x="615" 
d="M4 0v23l31 1c29 1 56 18 92 55l143 159l-157 202c-16 23 -30 37 -58 38l-29 1v23h251v-23l-32 -1c-32 -1 -38 -15 -23 -35l107 -138l109 121c29 29 22 51 -9 52l-37 1v23h207v-23l-31 -1c-29 -1 -55 -18 -90 -53l-130 -144l170 -219c17 -23 30 -37 58 -38l28 -1v-23h-250
v23l32 1c32 1 38 15 23 35l-121 155l-124 -138c-28 -29 -21 -51 10 -52l37 -1v-23h-207z" />
    <glyph glyph-name="y" unicode="y" horiz-adv-x="567" 
d="M141 -253c-29 0 -52 21 -52 50c0 33 27 71 120 87l53 116l-185 439c-12 27 -18 38 -49 39l-29 1v23h243v-23l-33 -1c-31 -1 -41 -13 -32 -36l137 -328l139 312c16 36 3 51 -29 52l-37 1v23h190v-23l-32 -1c-31 -1 -41 -13 -54 -42l-268 -593c-29 -64 -40 -96 -82 -96z
" />
    <glyph glyph-name="z" unicode="z" horiz-adv-x="528" 
d="M30 0l331 474h-158c-23 0 -34 -4 -45 -21l-98 -147h-18l47 196h396l-330 -474h164c23 0 32 4 47 23l115 149h19l-63 -200h-407z" />
    <glyph glyph-name="braceleft" unicode="{" horiz-adv-x="342" 
d="M317 -214l-4 -22c-115 16 -227 86 -198 240l19 102c22 116 -32 158 -115 171v24c83 13 136 57 115 171l-19 102c-29 154 82 225 198 241l4 -22c-100 -19 -144 -81 -121 -192l18 -88c30 -145 -45 -207 -138 -223v-2c93 -16 168 -78 138 -223l-18 -88
c-23 -111 21 -172 121 -191z" />
    <glyph glyph-name="bar" unicode="|" horiz-adv-x="274" 
d="M107 -227v1040h60v-1040h-60z" />
    <glyph glyph-name="braceright" unicode="}" horiz-adv-x="342" 
d="M25 792l4 22c115 -16 227 -86 198 -240l-19 -102c-22 -116 32 -158 115 -171v-24c-83 -13 -136 -57 -115 -171l19 -102c29 -154 -82 -225 -198 -241l-4 22c100 19 144 81 121 192l-18 88c-30 145 45 207 138 223v2c-93 16 -168 78 -138 223l18 88
c23 111 -21 172 -121 191z" />
    <glyph glyph-name="asciitilde" unicode="~" horiz-adv-x="653" 
d="M206 327c105 0 160 -92 241 -92c44 0 87 15 95 87h44c-8 -89 -72 -128 -138 -128c-96 0 -150 92 -241 92c-44 0 -87 -15 -95 -87h-44c8 89 71 128 138 128z" />
    <glyph glyph-name="uni00A0" unicode="&#xa0;" horiz-adv-x="240" 
 />
    <glyph glyph-name="exclamdown" unicode="&#xa1;" horiz-adv-x="273" 
d="M122 288h30c8 -281 42 -337 42 -526c0 -29 -114 -29 -114 0c0 190 34 244 42 526zM133 518c39 0 67 -30 67 -67c0 -36 -28 -66 -67 -66c-36 0 -65 30 -65 66c0 37 29 67 65 67z" />
    <glyph glyph-name="cent" unicode="&#xa2;" horiz-adv-x="570" 
d="M278 -130v119c-132 11 -231 113 -231 263c0 141 101 246 231 262v126h32v-123h8c87 0 180 -41 180 -108c0 -35 -28 -54 -65 -54c-7 0 -14 1 -22 2c-7 85 -46 124 -101 132v-438c10 -2 20 -3 31 -3c67 0 140 30 167 159h23c-21 -151 -106 -216 -221 -219v-118h-32z
M149 307c-3 -112 46 -212 129 -247v431c-69 -5 -126 -64 -129 -184z" />
    <glyph glyph-name="sterling" unicode="&#xa3;" horiz-adv-x="622" 
d="M37 0v4l116 103c74 66 96 108 96 154c0 20 -5 42 -16 65h-166v37h147l-16 25l-38 58c-35 53 -50 93 -50 133c0 50 32 97 96 140c60 40 115 56 178 56c101 0 161 -40 161 -91c0 -35 -32 -59 -79 -56c-19 72 -77 104 -137 104c-36 0 -66 -8 -89 -23
c-33 -21 -52 -45 -52 -76s17 -65 56 -125l36 -56c19 -29 37 -58 45 -89h190v-37h-186c0 -55 -17 -108 -124 -201l-52 -45h427l-20 -80h-523z" />
    <glyph glyph-name="yen" unicode="&#xa5;" horiz-adv-x="836" 
d="M159 188v37h212v76h-212v37h212v4l-248 358c-16 24 -22 30 -51 33l-44 3v22h286v-22l-50 -3c-31 -3 -49 -10 -33 -33l219 -318l221 318c16 23 -2 30 -33 33l-50 3v22h220v-22l-44 -3c-31 -3 -35 -9 -51 -33l-248 -358v-4h212v-37h-212v-76h212v-37h-212v-128
c0 -25 15 -35 44 -36l45 -1v-23h-272v23l45 1c29 1 44 11 44 36v128h-212z" />
    <glyph glyph-name="brokenbar" unicode="&#xa6;" horiz-adv-x="274" 
d="M107 403v410h60v-410h-60zM107 -227v410h60v-410h-60z" />
    <glyph glyph-name="section" unicode="&#xa7;" horiz-adv-x="635" 
d="M270 177l-74 74c-99 99 -142 167 -142 265c0 136 126 259 310 259c131 0 211 -68 211 -127c0 -43 -36 -70 -96 -57c-11 95 -57 152 -149 152c-81 0 -120 -47 -120 -99c0 -63 45 -127 142 -224l74 -74c100 -100 167 -179 167 -284c0 -141 -139 -258 -303 -258
c-144 0 -246 79 -246 147c0 41 46 68 100 57c16 -100 61 -176 159 -176c84 0 123 46 123 106c0 75 -59 142 -156 239zM413 -146c84 41 130 108 130 184c0 89 -55 168 -154 267l-78 78c-105 105 -142 171 -142 236c0 32 12 72 51 103c-81 -41 -121 -103 -121 -182
c0 -82 41 -155 137 -251l77 -77c105 -105 155 -176 155 -249c0 -39 -20 -84 -55 -109z" />
    <glyph glyph-name="dieresis" unicode="&#xa8;" 
d="M116 642c-35 0 -64 30 -64 65c0 33 29 63 64 63s64 -30 64 -63c0 -35 -29 -65 -64 -65zM-116 642c-35 0 -64 30 -64 65c0 33 29 63 64 63s64 -30 64 -63c0 -35 -29 -65 -64 -65z" />
    <glyph glyph-name="copyright" unicode="&#xa9;" horiz-adv-x="880" 
d="M440 -12c-225 0 -392 166 -392 393c0 228 167 394 392 394c223 0 392 -166 392 -394c0 -227 -169 -393 -392 -393zM440 21c192 0 352 139 352 360c0 222 -160 361 -352 361s-352 -139 -352 -361c0 -221 160 -360 352 -360zM454 163c-141 0 -246 88 -246 224
s105 224 249 224c48 0 99 -9 134 -25l25 -132h-6l-66 99c-11 16 -19 21 -27 25c-12 7 -36 12 -63 12c-84 0 -171 -53 -171 -189c0 -121 62 -216 177 -216c27 0 51 5 64 12c8 4 16 8 27 25l67 99h6l-30 -133c-35 -16 -91 -25 -140 -25z" />
    <glyph glyph-name="ordfeminine" unicode="&#xaa;" horiz-adv-x="482" 
d="M181 354c-76 0 -127 54 -127 113c0 76 83 98 146 119c97 35 103 49 103 95c0 45 -22 79 -75 79c-67 0 -101 -52 -85 -129c-13 -4 -24 -5 -35 -5c-32 0 -48 16 -48 33c0 32 33 64 77 87c39 20 80 37 125 37c81 0 121 -33 120 -132l-2 -249h58v-19l-128 -25l-6 88
c-21 -68 -68 -92 -123 -92zM215 390c40 0 87 30 87 113l1 118c-20 -16 -39 -23 -68 -36c-56 -27 -93 -55 -93 -108c0 -43 26 -87 73 -87z" />
    <glyph glyph-name="guillemotleft" unicode="&#xab;" horiz-adv-x="543" 
d="M131 253l152 -216l-10 -9l-229 226l229 225l10 -8zM337 253l152 -216l-10 -9l-229 226l229 225l10 -8z" />
    <glyph glyph-name="uni00AD" unicode="&#xad;" horiz-adv-x="430" 
d="M68 235v53h294v-53h-294z" />
    <glyph glyph-name="registered" unicode="&#xae;" horiz-adv-x="880" 
d="M440 -12c-225 0 -392 166 -392 393c0 228 167 394 392 394c223 0 392 -166 392 -394c0 -227 -169 -393 -392 -393zM440 21c192 0 352 139 352 360c0 222 -160 361 -352 361s-352 -139 -352 -361c0 -221 160 -360 352 -360zM245 179v17l23 2c19 3 28 4 28 23v346
c0 19 -9 21 -28 24l-23 2v16h168c106 0 181 -24 181 -104c0 -56 -41 -94 -117 -107l191 -219h-83l-180 211h-42v-169c0 -19 9 -20 28 -23l23 -2v-17h-169zM363 411h46c71 0 110 28 110 89s-39 88 -110 88h-46v-177z" />
    <glyph glyph-name="macron" unicode="&#xaf;" 
d="M-149 668v45h298v-45h-298z" />
    <glyph glyph-name="degree" unicode="&#xb0;" horiz-adv-x="432" 
d="M216 437c-96 0 -170 75 -170 169s74 169 170 169s170 -75 170 -169s-74 -169 -170 -169zM216 475c68 0 126 51 126 131c0 79 -58 131 -126 131s-126 -52 -126 -131c0 -80 58 -131 126 -131z" />
    <glyph glyph-name="plusminus" unicode="&#xb1;" horiz-adv-x="653" 
d="M301 104v187h-227v50h227v183h52v-183h226v-50h-226v-187h-52zM74 0v50h505v-50h-505z" />
    <glyph glyph-name="twosuperior" unicode="&#xb2;" horiz-adv-x="343" 
d="M14 401v2c142 144 212 234 212 316c0 45 -25 75 -73 75c-47 0 -86 -30 -90 -98h-17c3 88 60 134 133 134c79 0 116 -48 116 -99c0 -71 -73 -143 -169 -231l-46 -42h144c39 0 50 1 59 24l14 33h16l-30 -114h-269z" />
    <glyph glyph-name="threesuperior" unicode="&#xb3;" horiz-adv-x="345" 
d="M133 392c-63 0 -107 35 -107 71c0 21 19 43 51 36c11 -49 35 -83 83 -83c43 0 89 28 89 95c0 69 -51 108 -97 108c-17 0 -31 -3 -43 -10l-7 18l15 6c63 25 104 62 104 105c0 36 -26 56 -65 56c-38 0 -79 -19 -87 -79h-16c7 75 52 115 131 115c56 0 100 -29 100 -72
c0 -40 -32 -68 -88 -83v-2c67 -15 113 -65 113 -125c0 -94 -91 -156 -176 -156z" />
    <glyph glyph-name="acute" unicode="&#xb4;" 
d="M-102 597l109 179h105v-7l-194 -172h-20z" />
    <glyph glyph-name="paragraph" unicode="&#xb6;" horiz-adv-x="583" 
d="M291 -207v494c-7 -1 -13 -1 -20 -1c-149 0 -238 90 -238 222c0 141 117 250 331 250h172v-26l-44 -2c-31 -1 -46 -8 -46 -36v-780l-65 -51v442c-19 -6 -38 -11 -57 -15v-471z" />
    <glyph glyph-name="periodcentered" unicode="&#xb7;" horiz-adv-x="270" 
d="M134 195c-36 0 -65 30 -65 67c0 36 29 66 65 66c39 0 67 -30 67 -66c0 -37 -28 -67 -67 -67z" />
    <glyph glyph-name="cedilla" unicode="&#xb8;" 
d="M-19 -257c-45 0 -90 22 -90 56c0 16 15 30 38 26c1 -39 27 -60 66 -60c28 0 55 12 55 37c0 32 -52 58 -116 86l111 115h30l-81 -84c61 -31 93 -52 93 -95s-41 -81 -106 -81z" />
    <glyph glyph-name="onesuperior" unicode="&#xb9;" horiz-adv-x="244" 
d="M101 443v332l-77 -31v23l142 59v-383c0 -15 8 -22 23 -23l29 -2v-17h-170v18l30 2c19 1 23 6 23 22z" />
    <glyph glyph-name="ordmasculine" unicode="&#xba;" horiz-adv-x="512" 
d="M255 354c-117 0 -211 89 -211 212c0 131 101 216 213 216c117 0 211 -89 211 -211c0 -131 -101 -217 -213 -217zM256 380c64 0 119 53 119 189s-55 189 -119 189c-66 0 -120 -53 -120 -189s54 -189 120 -189z" />
    <glyph glyph-name="guillemotright" unicode="&#xbb;" horiz-adv-x="543" 
d="M54 37l152 216l-152 218l10 8l229 -225l-229 -226zM260 37l152 216l-152 218l10 8l229 -225l-229 -226z" />
    <glyph glyph-name="onequarter" unicode="&#xbc;" horiz-adv-x="789" 
d="M101 383v332l-77 -31v23l142 59v-383c0 -15 8 -22 23 -23l29 -2v-17h-170v18l30 2c19 1 23 6 23 22zM22 0l566 758h61l-566 -758h-61zM625 0v108h-216l223 309h58v-262h76v-47h-76v-108h-65zM468 155h157v213z" />
    <glyph glyph-name="onehalf" unicode="&#xbd;" horiz-adv-x="767" 
d="M101 383v332l-77 -31v23l142 59v-383c0 -15 8 -22 23 -23l29 -2v-17h-170v18l30 2c19 1 23 6 23 22zM22 0l566 758h61l-566 -758h-61zM438 0v2c142 144 212 234 212 316c0 45 -25 75 -73 75c-47 0 -86 -30 -90 -98h-17c3 88 60 134 133 134c79 0 116 -48 116 -99
c0 -71 -73 -143 -169 -231l-46 -42h144c39 0 50 1 59 24l14 33h16l-30 -114h-269z" />
    <glyph glyph-name="threequarters" unicode="&#xbe;" horiz-adv-x="890" 
d="M133 332c-63 0 -107 35 -107 71c0 21 19 43 51 36c11 -49 35 -83 83 -83c43 0 89 28 89 95c0 69 -51 108 -97 108c-17 0 -31 -3 -43 -10l-7 18l15 6c63 25 104 62 104 105c0 36 -26 56 -65 56c-38 0 -79 -19 -87 -79h-16c7 75 52 115 131 115c56 0 100 -29 100 -72
c0 -40 -32 -68 -88 -83v-2c67 -15 113 -65 113 -125c0 -94 -91 -156 -176 -156zM123 0l566 758h61l-566 -758h-61zM726 0v108h-216l223 309h58v-262h76v-47h-76v-108h-65zM569 155h157v213z" />
    <glyph glyph-name="questiondown" unicode="&#xbf;" horiz-adv-x="559" 
d="M287 -228c85 0 148 38 155 127c40 0 87 -13 87 -54c0 -47 -84 -105 -210 -105c-175 0 -284 101 -284 237c0 97 65 153 180 170l94 14c30 5 39 8 39 41l2 91h23l16 -148c8 -68 -17 -77 -76 -85l-102 -15c-89 -13 -125 -47 -125 -112c0 -87 90 -161 201 -161zM359 518
c36 0 65 -30 65 -67c0 -36 -29 -66 -65 -66c-39 0 -67 30 -67 66c0 37 28 67 67 67z" />
    <glyph glyph-name="Agrave" unicode="&#xc0;" horiz-adv-x="764" 
d="M390 794l294 -733c11 -25 21 -31 52 -34l44 -3v-24h-289v24l50 3c32 3 44 9 33 34l-86 218h-283l-86 -218c-11 -25 1 -31 33 -34l50 -3v-24h-218v24l44 3c29 3 40 9 51 34l295 733h16zM221 319h252l-126 320zM428 839h-20l-223 131v2h127z" />
    <glyph glyph-name="Aacute" unicode="&#xc1;" horiz-adv-x="764" 
d="M390 794l294 -733c11 -25 21 -31 52 -34l44 -3v-24h-289v24l50 3c32 3 44 9 33 34l-86 218h-283l-86 -218c-11 -25 1 -31 33 -34l50 -3v-24h-218v24l44 3c29 3 40 9 51 34l295 733h16zM221 319h252l-126 320zM354 839l116 133h127v-2l-223 -131h-20z" />
    <glyph glyph-name="Acircumflex" unicode="&#xc2;" horiz-adv-x="764" 
d="M390 794l294 -733c11 -25 21 -31 52 -34l44 -3v-24h-289v24l50 3c32 3 44 9 33 34l-86 218h-283l-86 -218c-11 -25 1 -31 33 -34l50 -3v-24h-218v24l44 3c29 3 40 9 51 34l295 733h16zM221 319h252l-126 320zM219 833l157 151h12l157 -151h-19l-144 72l-144 -72h-19z" />
    <glyph glyph-name="Atilde" unicode="&#xc3;" horiz-adv-x="764" 
d="M390 794l294 -733c11 -25 21 -31 52 -34l44 -3v-24h-289v24l50 3c32 3 44 9 33 34l-86 218h-283l-86 -218c-11 -25 1 -31 33 -34l50 -3v-24h-218v24l44 3c29 3 40 9 51 34l295 733h16zM221 319h252l-126 320zM460 832c-70 0 -106 68 -162 68c-33 0 -53 -21 -56 -62h-17
c0 68 27 132 84 132c62 0 104 -68 159 -68c31 0 51 19 54 58h17c-1 -88 -39 -128 -79 -128z" />
    <glyph glyph-name="Adieresis" unicode="&#xc4;" horiz-adv-x="764" 
d="M390 794l294 -733c11 -25 21 -31 52 -34l44 -3v-24h-289v24l50 3c32 3 44 9 33 34l-86 218h-283l-86 -218c-11 -25 1 -31 33 -34l50 -3v-24h-218v24l44 3c29 3 40 9 51 34l295 733h16zM221 319h252l-126 320zM266 854c-35 0 -64 29 -64 64c0 33 29 64 64 64
s64 -31 64 -64c0 -35 -29 -64 -64 -64zM498 854c-35 0 -64 29 -64 64c0 33 29 64 64 64s64 -31 64 -64c0 -35 -29 -64 -64 -64z" />
    <glyph glyph-name="Aring" unicode="&#xc5;" horiz-adv-x="764" 
d="M390 794l294 -733c11 -25 21 -31 52 -34l44 -3v-24h-289v24l50 3c32 3 44 9 33 34l-86 218h-283l-86 -218c-11 -25 1 -31 33 -34l50 -3v-24h-218v24l44 3c29 3 40 9 51 34l295 733h16zM221 319h252l-126 320zM382 835c-63 0 -115 48 -115 112c0 61 52 112 115 112
c65 0 117 -51 117 -112c0 -64 -52 -112 -117 -112zM382 871c45 0 76 31 76 76c0 44 -31 74 -76 74c-44 0 -75 -30 -75 -74c0 -45 31 -76 75 -76z" />
    <glyph glyph-name="AE" unicode="&#xc6;" horiz-adv-x="1180" 
d="M485 0v24l45 3c29 3 45 8 45 36v216h-292l-152 -218c-16 -23 -17 -31 14 -34l50 -3v-24h-220v24l43 3c33 2 57 13 71 34l486 697h467l34 -222h-10l-111 174c-9 15 -12 16 -28 16h-250v-313h150c16 0 17 4 21 13l48 118h10v-297h-10l-48 117c-4 11 -5 13 -21 13h-150v-345
h298c16 0 19 2 28 14l145 178h10l-68 -224h-605zM311 319h264v379z" />
    <glyph glyph-name="Ccedilla" unicode="&#xc7;" horiz-adv-x="819" 
d="M479 -12c-251 0 -431 151 -431 393c0 243 181 394 436 394c83 0 179 -13 240 -45l42 -217h-18l-113 182c-15 23 -23 30 -47 37c-31 9 -64 11 -108 11c-163 0 -317 -97 -317 -342c0 -221 120 -381 325 -381c44 0 77 2 108 11c24 7 32 14 47 37l113 182h18l-42 -217
c-61 -32 -168 -45 -253 -45zM411 -260c-46 0 -90 22 -90 56c0 16 15 28 38 24c1 -39 33 -58 66 -58c31 0 54 16 54 40c0 29 -51 55 -115 83l111 115h33l-82 -84c60 -31 91 -52 91 -95s-41 -81 -106 -81z" />
    <glyph glyph-name="Egrave" unicode="&#xc8;" horiz-adv-x="750" 
d="M55 0v24l45 3c29 3 45 8 45 36v632c0 28 -16 33 -45 36l-45 3v24h557l33 -222h-18l-102 174c-8 15 -12 16 -29 16h-250v-313h150c17 0 19 2 22 13l40 118h18v-297h-18l-40 117c-4 11 -5 13 -22 13h-150v-345h299c16 0 19 2 28 14l137 178h18l-68 -224h-605zM431 839h-20
l-223 131v2h127z" />
    <glyph glyph-name="Eacute" unicode="&#xc9;" horiz-adv-x="750" 
d="M55 0v24l45 3c29 3 45 8 45 36v632c0 28 -16 33 -45 36l-45 3v24h557l33 -222h-18l-102 174c-8 15 -12 16 -29 16h-250v-313h150c17 0 19 2 22 13l40 118h18v-297h-18l-40 117c-4 11 -5 13 -22 13h-150v-345h299c16 0 19 2 28 14l137 178h18l-68 -224h-605zM357 839
l116 133h127v-2l-223 -131h-20z" />
    <glyph glyph-name="Ecircumflex" unicode="&#xca;" horiz-adv-x="750" 
d="M55 0v24l45 3c29 3 45 8 45 36v632c0 28 -16 33 -45 36l-45 3v24h557l33 -222h-18l-102 174c-8 15 -12 16 -29 16h-250v-313h150c17 0 19 2 22 13l40 118h18v-297h-18l-40 117c-4 11 -5 13 -22 13h-150v-345h299c16 0 19 2 28 14l137 178h18l-68 -224h-605zM222 833
l157 151h12l157 -151h-19l-144 72l-144 -72h-19z" />
    <glyph glyph-name="Edieresis" unicode="&#xcb;" horiz-adv-x="750" 
d="M55 0v24l45 3c29 3 45 8 45 36v632c0 28 -16 33 -45 36l-45 3v24h557l33 -222h-18l-102 174c-8 15 -12 16 -29 16h-250v-313h150c17 0 19 2 22 13l40 118h18v-297h-18l-40 117c-4 11 -5 13 -22 13h-150v-345h299c16 0 19 2 28 14l137 178h18l-68 -224h-605zM269 854
c-35 0 -64 29 -64 64c0 33 29 64 64 64s64 -31 64 -64c0 -35 -29 -64 -64 -64zM501 854c-35 0 -64 29 -64 64c0 33 29 64 64 64s64 -31 64 -64c0 -35 -29 -64 -64 -64z" />
    <glyph glyph-name="Igrave" unicode="&#xcc;" horiz-adv-x="391" 
d="M55 0v24l45 3c29 3 45 8 45 36v632c0 28 -16 33 -45 36l-45 3v24h282v-24l-45 -3c-31 -3 -46 -8 -46 -36v-632c0 -28 15 -33 46 -36l45 -3v-24h-282zM242 839h-20l-223 131v2h127z" />
    <glyph glyph-name="Iacute" unicode="&#xcd;" horiz-adv-x="391" 
d="M55 0v24l45 3c29 3 45 8 45 36v632c0 28 -16 33 -45 36l-45 3v24h282v-24l-45 -3c-31 -3 -46 -8 -46 -36v-632c0 -28 15 -33 46 -36l45 -3v-24h-282zM168 839l116 133h127v-2l-223 -131h-20z" />
    <glyph glyph-name="Icircumflex" unicode="&#xce;" horiz-adv-x="391" 
d="M55 0v24l45 3c29 3 45 8 45 36v632c0 28 -16 33 -45 36l-45 3v24h282v-24l-45 -3c-31 -3 -46 -8 -46 -36v-632c0 -28 15 -33 46 -36l45 -3v-24h-282zM33 833l157 151h12l157 -151h-19l-144 72l-144 -72h-19z" />
    <glyph glyph-name="Idieresis" unicode="&#xcf;" horiz-adv-x="391" 
d="M55 0v24l45 3c29 3 45 8 45 36v632c0 28 -16 33 -45 36l-45 3v24h282v-24l-45 -3c-31 -3 -46 -8 -46 -36v-632c0 -28 15 -33 46 -36l45 -3v-24h-282zM80 854c-35 0 -64 29 -64 64c0 33 29 64 64 64s64 -31 64 -64c0 -35 -29 -64 -64 -64zM312 854c-35 0 -64 29 -64 64
c0 33 29 64 64 64s64 -31 64 -64c0 -35 -29 -64 -64 -64z" />
    <glyph glyph-name="Eth" unicode="&#xd0;" horiz-adv-x="857" 
d="M65 0v24l45 3c29 3 45 8 45 36v632c0 28 -16 33 -45 36l-45 3v24h278c257 0 465 -112 465 -374s-208 -384 -460 -384h-283zM256 31h87c203 0 349 91 349 332c0 259 -133 364 -353 364h-83v-696zM65 378v40h377v-40h-377z" />
    <glyph glyph-name="Ntilde" unicode="&#xd1;" horiz-adv-x="883" 
d="M58 0v24l45 3c31 3 45 8 45 36v590l-91 103v2h132l520 -582v519c0 28 -15 33 -46 36l-45 3v24h220v-24l-45 -3c-31 -3 -45 -8 -45 -36v-714h-4l-557 628v-546c0 -28 15 -33 46 -36l44 -3v-24h-219zM531 832c-70 0 -106 68 -162 68c-33 0 -53 -21 -56 -62h-17
c0 68 27 132 84 132c62 0 104 -68 159 -68c31 0 51 19 54 58h17c-1 -88 -39 -128 -79 -128z" />
    <glyph glyph-name="Ograve" unicode="&#xd2;" horiz-adv-x="894" 
d="M447 -12c-220 0 -399 157 -399 393c0 237 179 394 399 394s399 -157 399 -394c0 -236 -179 -393 -399 -393zM447 21c162 0 283 131 283 360c0 231 -121 361 -283 361c-163 0 -284 -130 -284 -361c0 -229 121 -360 284 -360zM493 839h-20l-223 131v2h127z" />
    <glyph glyph-name="Oacute" unicode="&#xd3;" horiz-adv-x="894" 
d="M447 -12c-220 0 -399 157 -399 393c0 237 179 394 399 394s399 -157 399 -394c0 -236 -179 -393 -399 -393zM447 21c162 0 283 131 283 360c0 231 -121 361 -283 361c-163 0 -284 -130 -284 -361c0 -229 121 -360 284 -360zM419 839l116 133h127v-2l-223 -131h-20z" />
    <glyph glyph-name="Ocircumflex" unicode="&#xd4;" horiz-adv-x="894" 
d="M447 -12c-220 0 -399 157 -399 393c0 237 179 394 399 394s399 -157 399 -394c0 -236 -179 -393 -399 -393zM447 21c162 0 283 131 283 360c0 231 -121 361 -283 361c-163 0 -284 -130 -284 -361c0 -229 121 -360 284 -360zM284 833l157 151h12l157 -151h-19l-144 72
l-144 -72h-19z" />
    <glyph glyph-name="Otilde" unicode="&#xd5;" horiz-adv-x="894" 
d="M447 -12c-220 0 -399 157 -399 393c0 237 179 394 399 394s399 -157 399 -394c0 -236 -179 -393 -399 -393zM447 21c162 0 283 131 283 360c0 231 -121 361 -283 361c-163 0 -284 -130 -284 -361c0 -229 121 -360 284 -360zM525 832c-70 0 -106 68 -162 68
c-33 0 -53 -21 -56 -62h-17c0 68 27 132 84 132c62 0 104 -68 159 -68c31 0 51 19 54 58h17c-1 -88 -39 -128 -79 -128z" />
    <glyph glyph-name="Odieresis" unicode="&#xd6;" horiz-adv-x="894" 
d="M447 -12c-220 0 -399 157 -399 393c0 237 179 394 399 394s399 -157 399 -394c0 -236 -179 -393 -399 -393zM447 21c162 0 283 131 283 360c0 231 -121 361 -283 361c-163 0 -284 -130 -284 -361c0 -229 121 -360 284 -360zM331 854c-35 0 -64 29 -64 64
c0 33 29 64 64 64s64 -31 64 -64c0 -35 -29 -64 -64 -64zM563 854c-35 0 -64 29 -64 64c0 33 29 64 64 64s64 -31 64 -64c0 -35 -29 -64 -64 -64z" />
    <glyph glyph-name="multiply" unicode="&#xd7;" horiz-adv-x="653" 
d="M134 32l-36 35l193 193l-193 194l36 35l193 -193l193 193l35 -35l-193 -193l193 -194l-35 -36l-193 194z" />
    <glyph glyph-name="Oslash" unicode="&#xd8;" horiz-adv-x="894" 
d="M447 -12c-220 0 -399 157 -399 393c0 237 179 394 399 394s399 -157 399 -394c0 -236 -179 -393 -399 -393zM447 21c162 0 283 131 283 360c0 231 -121 361 -283 361c-163 0 -284 -130 -284 -361c0 -229 121 -360 284 -360zM79 -68l-31 27l767 873l31 -27z" />
    <glyph glyph-name="Ugrave" unicode="&#xd9;" horiz-adv-x="861" 
d="M434 -12c-200 0 -311 97 -311 308v399c0 28 -16 33 -45 36l-45 3v24h282v-24l-45 -3c-29 -3 -45 -8 -45 -36v-401c0 -177 74 -258 235 -258c164 0 240 91 240 267v392c0 28 -14 33 -45 36l-45 3v24h219v-24l-44 -3c-31 -3 -46 -8 -46 -36v-398
c0 -203 -105 -309 -305 -309zM509 839h-20l-223 131v2h127z" />
    <glyph glyph-name="Uacute" unicode="&#xda;" horiz-adv-x="861" 
d="M434 -12c-200 0 -311 97 -311 308v399c0 28 -16 33 -45 36l-45 3v24h282v-24l-45 -3c-29 -3 -45 -8 -45 -36v-401c0 -177 74 -258 235 -258c164 0 240 91 240 267v392c0 28 -14 33 -45 36l-45 3v24h219v-24l-44 -3c-31 -3 -46 -8 -46 -36v-398
c0 -203 -105 -309 -305 -309zM435 839l116 133h127v-2l-223 -131h-20z" />
    <glyph glyph-name="Ucircumflex" unicode="&#xdb;" horiz-adv-x="861" 
d="M434 -12c-200 0 -311 97 -311 308v399c0 28 -16 33 -45 36l-45 3v24h282v-24l-45 -3c-29 -3 -45 -8 -45 -36v-401c0 -177 74 -258 235 -258c164 0 240 91 240 267v392c0 28 -14 33 -45 36l-45 3v24h219v-24l-44 -3c-31 -3 -46 -8 -46 -36v-398
c0 -203 -105 -309 -305 -309zM300 833l157 151h12l157 -151h-19l-144 72l-144 -72h-19z" />
    <glyph glyph-name="Udieresis" unicode="&#xdc;" horiz-adv-x="861" 
d="M434 -12c-200 0 -311 97 -311 308v399c0 28 -16 33 -45 36l-45 3v24h282v-24l-45 -3c-29 -3 -45 -8 -45 -36v-401c0 -177 74 -258 235 -258c164 0 240 91 240 267v392c0 28 -14 33 -45 36l-45 3v24h219v-24l-44 -3c-31 -3 -46 -8 -46 -36v-398
c0 -203 -105 -309 -305 -309zM347 854c-35 0 -64 29 -64 64c0 33 29 64 64 64s64 -31 64 -64c0 -35 -29 -64 -64 -64zM579 854c-35 0 -64 29 -64 64c0 33 29 64 64 64s64 -31 64 -64c0 -35 -29 -64 -64 -64z" />
    <glyph glyph-name="Yacute" unicode="&#xdd;" horiz-adv-x="770" 
d="M230 0v25l60 3c29 1 45 7 45 35v279l-248 355c-16 24 -22 31 -51 34l-44 3v24h290v-24l-50 -3c-31 -3 -49 -11 -33 -34l221 -317l222 317c17 24 -2 31 -33 34l-50 3v24h220v-24l-44 -3c-29 -3 -35 -11 -51 -34l-248 -355v-279c0 -28 15 -32 46 -35l60 -3v-25h-312z
M386 839l116 133h127v-2l-223 -131h-20z" />
    <glyph glyph-name="Thorn" unicode="&#xde;" horiz-adv-x="733" 
d="M55 0v24l45 3c29 3 45 8 45 36v632c0 28 -16 33 -45 36l-45 3v24h282v-24l-45 -3c-31 -3 -46 -8 -46 -36v-113h129c176 0 319 -37 319 -200c0 -164 -143 -207 -319 -207h-129v-112c0 -28 15 -34 46 -35l86 -3v-25h-323zM246 552v-346h120c135 0 215 43 215 172
s-80 174 -215 174h-120z" />
    <glyph glyph-name="germandbls" unicode="&#xdf;" horiz-adv-x="682" 
d="M431 -12c-116 0 -175 56 -175 101c0 31 29 58 74 49c11 -69 42 -124 125 -124c63 0 120 35 120 103c0 55 -41 93 -126 153l-34 24c-80 56 -115 92 -115 139c0 39 27 66 74 98l25 17c43 29 73 61 73 108c0 64 -50 99 -115 99c-88 0 -156 -59 -156 -188v-567h-167v23l35 2
c33 1 38 6 38 33v393h-73v23c51 4 73 9 73 36v5c0 147 112 266 263 266c95 0 174 -37 174 -110c0 -48 -35 -80 -82 -111l-47 -31c-28 -19 -44 -28 -44 -51c0 -31 41 -61 109 -110l41 -30c87 -63 124 -110 124 -179c0 -108 -98 -171 -214 -171z" />
    <glyph glyph-name="agrave" unicode="&#xe0;" horiz-adv-x="540" 
d="M205 -12c-94 0 -159 63 -159 135c0 93 107 119 181 148c125 48 126 76 126 119c0 56 -33 99 -102 99c-80 0 -125 -58 -105 -151c-13 -3 -25 -4 -38 -4c-44 0 -68 19 -68 46c0 34 44 65 91 88c55 29 113 50 169 50c97 0 147 -39 146 -159l-3 -315h76v-22l-158 -29l-7 112
c-27 -88 -80 -117 -149 -117zM245 29c51 0 106 40 106 145l2 143c-27 -20 -46 -33 -85 -53c-69 -37 -114 -65 -114 -133c0 -52 30 -102 91 -102zM293 597h-20l-194 172v7h105z" />
    <glyph glyph-name="aacute" unicode="&#xe1;" horiz-adv-x="540" 
d="M205 -12c-94 0 -159 63 -159 135c0 93 107 119 181 148c125 48 126 76 126 119c0 56 -33 99 -102 99c-80 0 -125 -58 -105 -151c-13 -3 -25 -4 -38 -4c-44 0 -68 19 -68 46c0 34 44 65 91 88c55 29 113 50 169 50c97 0 147 -39 146 -159l-3 -315h76v-22l-158 -29l-7 112
c-27 -88 -80 -117 -149 -117zM245 29c51 0 106 40 106 145l2 143c-27 -20 -46 -33 -85 -53c-69 -37 -114 -65 -114 -133c0 -52 30 -102 91 -102zM220 597l109 179h105v-7l-194 -172h-20z" />
    <glyph glyph-name="acircumflex" unicode="&#xe2;" horiz-adv-x="540" 
d="M205 -12c-94 0 -159 63 -159 135c0 93 107 119 181 148c125 48 126 76 126 119c0 56 -33 99 -102 99c-80 0 -125 -58 -105 -151c-13 -3 -25 -4 -38 -4c-44 0 -68 19 -68 46c0 34 44 65 91 88c55 29 113 50 169 50c97 0 147 -39 146 -159l-3 -315h76v-22l-158 -29l-7 112
c-27 -88 -80 -117 -149 -117zM245 29c51 0 106 40 106 145l2 143c-27 -20 -46 -33 -85 -53c-69 -37 -114 -65 -114 -133c0 -52 30 -102 91 -102zM90 597l161 196h8l161 -196h-20l-145 110l-145 -110h-20z" />
    <glyph glyph-name="atilde" unicode="&#xe3;" horiz-adv-x="540" 
d="M205 -12c-94 0 -159 63 -159 135c0 93 107 119 181 148c125 48 126 76 126 119c0 56 -33 99 -102 99c-80 0 -125 -58 -105 -151c-13 -3 -25 -4 -38 -4c-44 0 -68 19 -68 46c0 34 44 65 91 88c55 29 113 50 169 50c97 0 147 -39 146 -159l-3 -315h76v-22l-158 -29l-7 112
c-27 -88 -80 -117 -149 -117zM245 29c51 0 106 40 106 145l2 143c-27 -20 -46 -33 -85 -53c-69 -37 -114 -65 -114 -133c0 -52 30 -102 91 -102zM333 629c-70 0 -106 68 -162 68c-33 0 -53 -21 -56 -61h-17c0 67 27 131 84 131c62 0 104 -68 159 -68c31 0 51 20 54 59h17
c-1 -88 -39 -129 -79 -129z" />
    <glyph glyph-name="adieresis" unicode="&#xe4;" horiz-adv-x="540" 
d="M205 -12c-94 0 -159 63 -159 135c0 93 107 119 181 148c125 48 126 76 126 119c0 56 -33 99 -102 99c-80 0 -125 -58 -105 -151c-13 -3 -25 -4 -38 -4c-44 0 -68 19 -68 46c0 34 44 65 91 88c55 29 113 50 169 50c97 0 147 -39 146 -159l-3 -315h76v-22l-158 -29l-7 112
c-27 -88 -80 -117 -149 -117zM245 29c51 0 106 40 106 145l2 143c-27 -20 -46 -33 -85 -53c-69 -37 -114 -65 -114 -133c0 -52 30 -102 91 -102zM371 642c-35 0 -64 30 -64 65c0 33 29 63 64 63s64 -30 64 -63c0 -35 -29 -65 -64 -65zM139 642c-35 0 -64 30 -64 65
c0 33 29 63 64 63s64 -30 64 -63c0 -35 -29 -65 -64 -65z" />
    <glyph glyph-name="aring" unicode="&#xe5;" horiz-adv-x="540" 
d="M205 -12c-94 0 -159 63 -159 135c0 93 107 119 181 148c125 48 126 76 126 119c0 56 -33 99 -102 99c-80 0 -125 -58 -105 -151c-13 -3 -25 -4 -38 -4c-44 0 -68 19 -68 46c0 34 44 65 91 88c55 29 113 50 169 50c97 0 147 -39 146 -159l-3 -315h76v-22l-158 -29l-7 112
c-27 -88 -80 -117 -149 -117zM245 29c51 0 106 40 106 145l2 143c-27 -20 -46 -33 -85 -53c-69 -37 -114 -65 -114 -133c0 -52 30 -102 91 -102zM255 585c-63 0 -115 49 -115 111c0 61 52 112 115 112c65 0 117 -51 117 -112c0 -62 -52 -111 -117 -111zM255 621
c45 0 76 31 76 75s-31 75 -76 75c-44 0 -75 -31 -75 -75s31 -75 75 -75z" />
    <glyph glyph-name="ae" unicode="&#xe6;" horiz-adv-x="887" 
d="M827 183h23c-31 -135 -121 -195 -244 -195c-99 0 -179 44 -222 127c-27 -93 -95 -127 -179 -127c-94 0 -159 63 -159 135c0 93 107 119 181 148c125 48 126 76 126 119c0 56 -33 99 -102 99c-80 0 -125 -58 -105 -151c-13 -3 -25 -4 -38 -4c-44 0 -68 19 -68 46
c0 34 44 65 91 88c55 29 113 50 169 50c68 0 112 -19 133 -70c47 44 107 69 172 69c93 0 203 -55 232 -204h-382v-19c0 -146 81 -246 192 -246c64 0 143 20 180 135zM602 493c-72 0 -129 -50 -144 -151h263c-3 83 -36 151 -119 151zM154 131c0 -52 30 -102 91 -102
c56 0 116 32 121 131c-9 26 -13 56 -13 91v66c-27 -20 -46 -33 -85 -53c-69 -37 -114 -65 -114 -133z" />
    <glyph glyph-name="ccedilla" unicode="&#xe7;" horiz-adv-x="554" 
d="M295 -12c-145 0 -253 106 -253 263c0 156 123 266 271 266c87 0 180 -41 180 -108c0 -35 -28 -54 -65 -54c-7 0 -14 1 -22 2c-8 96 -58 134 -123 134c-73 0 -136 -58 -139 -184c-3 -139 72 -259 192 -259c60 0 137 27 166 135h23c-27 -139 -118 -195 -230 -195zM264 -257
c-45 0 -90 22 -90 56c0 16 15 30 38 26c1 -39 27 -60 66 -60c28 0 55 12 55 37c0 32 -52 58 -116 86l111 115h30l-81 -84c61 -31 93 -52 93 -95s-41 -81 -106 -81z" />
    <glyph glyph-name="egrave" unicode="&#xe8;" horiz-adv-x="577" 
d="M296 -12c-144 0 -253 98 -253 263c0 160 119 266 252 266c93 0 203 -55 232 -204h-382v-19c0 -146 81 -246 192 -246c64 0 143 20 180 135h23c-31 -135 -121 -195 -244 -195zM292 493c-72 0 -129 -50 -144 -151h263c-3 83 -36 151 -119 151zM333 597h-20l-194 172v7h105z
" />
    <glyph glyph-name="eacute" unicode="&#xe9;" horiz-adv-x="577" 
d="M296 -12c-144 0 -253 98 -253 263c0 160 119 266 252 266c93 0 203 -55 232 -204h-382v-19c0 -146 81 -246 192 -246c64 0 143 20 180 135h23c-31 -135 -121 -195 -244 -195zM292 493c-72 0 -129 -50 -144 -151h263c-3 83 -36 151 -119 151zM260 597l109 179h105v-7
l-194 -172h-20z" />
    <glyph glyph-name="ecircumflex" unicode="&#xea;" horiz-adv-x="577" 
d="M296 -12c-144 0 -253 98 -253 263c0 160 119 266 252 266c93 0 203 -55 232 -204h-382v-19c0 -146 81 -246 192 -246c64 0 143 20 180 135h23c-31 -135 -121 -195 -244 -195zM292 493c-72 0 -129 -50 -144 -151h263c-3 83 -36 151 -119 151zM130 597l161 196h8l161 -196
h-20l-145 110l-145 -110h-20z" />
    <glyph glyph-name="edieresis" unicode="&#xeb;" horiz-adv-x="577" 
d="M296 -12c-144 0 -253 98 -253 263c0 160 119 266 252 266c93 0 203 -55 232 -204h-382v-19c0 -146 81 -246 192 -246c64 0 143 20 180 135h23c-31 -135 -121 -195 -244 -195zM292 493c-72 0 -129 -50 -144 -151h263c-3 83 -36 151 -119 151zM411 642c-35 0 -64 30 -64 65
c0 33 29 63 64 63s64 -30 64 -63c0 -35 -29 -65 -64 -65zM179 642c-35 0 -64 30 -64 65c0 33 29 63 64 63s64 -30 64 -63c0 -35 -29 -65 -64 -65z" />
    <glyph glyph-name="igrave" unicode="&#xec;" horiz-adv-x="309" 
d="M39 0v23l35 2c31 3 38 6 38 33v349l-73 41v6l167 64v-460c0 -27 7 -30 39 -33l34 -2v-23h-240zM187 597h-20l-194 172v7h105z" />
    <glyph glyph-name="iacute" unicode="&#xed;" horiz-adv-x="309" 
d="M39 0v23l35 2c31 3 38 6 38 33v349l-73 41v6l167 64v-460c0 -27 7 -30 39 -33l34 -2v-23h-240zM114 597l109 179h105v-7l-194 -172h-20z" />
    <glyph glyph-name="icircumflex" unicode="&#xee;" horiz-adv-x="309" 
d="M39 0v23l35 2c31 3 38 6 38 33v349l-73 41v6l167 64v-460c0 -27 7 -30 39 -33l34 -2v-23h-240zM-16 597l161 196h8l161 -196h-20l-145 110l-145 -110h-20z" />
    <glyph glyph-name="idieresis" unicode="&#xef;" horiz-adv-x="309" 
d="M39 0v23l35 2c31 3 38 6 38 33v349l-73 41v6l167 64v-460c0 -27 7 -30 39 -33l34 -2v-23h-240zM49 642c-35 0 -64 30 -64 65c0 33 29 63 64 63s64 -30 64 -63c0 -35 -29 -65 -64 -65zM249 642c-35 0 -64 30 -64 65c0 33 29 63 64 63s64 -30 64 -63c0 -35 -29 -65 -64 -65
z" />
    <glyph glyph-name="eth" unicode="&#xf0;" horiz-adv-x="629" 
d="M301 -12c-140 0 -258 98 -258 265c0 163 118 264 250 264c68 0 120 -28 156 -63c-28 89 -77 163 -146 221l-135 -73l-14 29l121 65c-49 35 -105 61 -170 80l6 19c80 -15 151 -41 211 -74l134 72l14 -28l-116 -63c145 -93 222 -236 222 -395c0 -216 -140 -319 -275 -319z
M148 248c0 -152 71 -229 160 -229c95 0 164 91 164 274c0 53 -6 101 -19 145c-35 28 -78 42 -128 42c-87 0 -177 -70 -177 -232z" />
    <glyph glyph-name="ntilde" unicode="&#xf1;" horiz-adv-x="619" 
d="M35 0v23l35 2c33 1 38 6 38 33v349l-73 41v6l167 64v-139c21 93 83 138 167 138c97 0 154 -54 154 -199v-260c0 -27 4 -32 39 -33l34 -2v-23h-240v23l35 2c33 1 38 6 38 33v242c0 121 -38 160 -107 160c-65 0 -120 -44 -120 -160v-242c0 -27 4 -32 39 -33l34 -2v-23h-240
zM393 629c-70 0 -106 68 -162 68c-33 0 -53 -21 -56 -61h-17c0 67 27 131 84 131c62 0 104 -68 159 -68c31 0 51 20 54 59h17c-1 -88 -39 -129 -79 -129z" />
    <glyph glyph-name="ograve" unicode="&#xf2;" horiz-adv-x="619" 
d="M308 -12c-143 0 -266 109 -266 262c0 163 133 267 269 267c143 0 266 -109 266 -261c0 -163 -130 -268 -269 -268zM310 17c82 0 157 67 157 236c0 171 -75 237 -157 237c-84 0 -159 -66 -159 -237c0 -169 75 -236 159 -236zM348 597h-20l-194 172v7h105z" />
    <glyph glyph-name="oacute" unicode="&#xf3;" horiz-adv-x="619" 
d="M308 -12c-143 0 -266 109 -266 262c0 163 133 267 269 267c143 0 266 -109 266 -261c0 -163 -130 -268 -269 -268zM310 17c82 0 157 67 157 236c0 171 -75 237 -157 237c-84 0 -159 -66 -159 -237c0 -169 75 -236 159 -236zM275 597l109 179h105v-7l-194 -172h-20z" />
    <glyph glyph-name="ocircumflex" unicode="&#xf4;" horiz-adv-x="619" 
d="M308 -12c-143 0 -266 109 -266 262c0 163 133 267 269 267c143 0 266 -109 266 -261c0 -163 -130 -268 -269 -268zM310 17c82 0 157 67 157 236c0 171 -75 237 -157 237c-84 0 -159 -66 -159 -237c0 -169 75 -236 159 -236zM145 597l161 196h8l161 -196h-20l-145 110
l-145 -110h-20z" />
    <glyph glyph-name="otilde" unicode="&#xf5;" horiz-adv-x="619" 
d="M308 -12c-143 0 -266 109 -266 262c0 163 133 267 269 267c143 0 266 -109 266 -261c0 -163 -130 -268 -269 -268zM310 17c82 0 157 67 157 236c0 171 -75 237 -157 237c-84 0 -159 -66 -159 -237c0 -169 75 -236 159 -236zM388 629c-70 0 -106 68 -162 68
c-33 0 -53 -21 -56 -61h-17c0 67 27 131 84 131c62 0 104 -68 159 -68c31 0 51 20 54 59h17c-1 -88 -39 -129 -79 -129z" />
    <glyph glyph-name="odieresis" unicode="&#xf6;" horiz-adv-x="619" 
d="M308 -12c-143 0 -266 109 -266 262c0 163 133 267 269 267c143 0 266 -109 266 -261c0 -163 -130 -268 -269 -268zM310 17c82 0 157 67 157 236c0 171 -75 237 -157 237c-84 0 -159 -66 -159 -237c0 -169 75 -236 159 -236zM426 642c-35 0 -64 30 -64 65
c0 33 29 63 64 63s64 -30 64 -63c0 -35 -29 -65 -64 -65zM194 642c-35 0 -64 30 -64 65c0 33 29 63 64 63s64 -30 64 -63c0 -35 -29 -65 -64 -65z" />
    <glyph glyph-name="divide" unicode="&#xf7;" horiz-adv-x="653" 
d="M327 386c-35 0 -64 30 -64 65c0 33 29 63 64 63s64 -30 64 -63c0 -35 -29 -65 -64 -65zM65 237v49h523v-49h-523zM327 10c-35 0 -64 30 -64 65c0 33 29 63 64 63s64 -30 64 -63c0 -35 -29 -65 -64 -65z" />
    <glyph glyph-name="oslash" unicode="&#xf8;" horiz-adv-x="639" 
d="M318 -12c-143 0 -266 109 -266 262c0 163 133 267 269 267c143 0 266 -109 266 -261c0 -163 -130 -268 -269 -268zM320 17c82 0 157 67 157 236c0 171 -75 237 -157 237c-84 0 -159 -66 -159 -237c0 -169 75 -236 159 -236zM556 563l26 -23l-497 -591l-26 22z" />
    <glyph glyph-name="ugrave" unicode="&#xf9;" horiz-adv-x="611" 
d="M250 -12c-98 0 -154 53 -154 200v274l-72 18v22h166v-297c0 -120 35 -160 106 -160c66 0 120 44 120 161v256l-71 18v22h165v-458h77v-22l-171 -31v135c-21 -92 -83 -138 -166 -138zM339 597h-20l-194 172v7h105z" />
    <glyph glyph-name="uacute" unicode="&#xfa;" horiz-adv-x="611" 
d="M250 -12c-98 0 -154 53 -154 200v274l-72 18v22h166v-297c0 -120 35 -160 106 -160c66 0 120 44 120 161v256l-71 18v22h165v-458h77v-22l-171 -31v135c-21 -92 -83 -138 -166 -138zM266 597l109 179h105v-7l-194 -172h-20z" />
    <glyph glyph-name="ucircumflex" unicode="&#xfb;" horiz-adv-x="611" 
d="M250 -12c-98 0 -154 53 -154 200v274l-72 18v22h166v-297c0 -120 35 -160 106 -160c66 0 120 44 120 161v256l-71 18v22h165v-458h77v-22l-171 -31v135c-21 -92 -83 -138 -166 -138zM136 597l161 196h8l161 -196h-20l-145 110l-145 -110h-20z" />
    <glyph glyph-name="udieresis" unicode="&#xfc;" horiz-adv-x="611" 
d="M250 -12c-98 0 -154 53 -154 200v274l-72 18v22h166v-297c0 -120 35 -160 106 -160c66 0 120 44 120 161v256l-71 18v22h165v-458h77v-22l-171 -31v135c-21 -92 -83 -138 -166 -138zM417 642c-35 0 -64 30 -64 65c0 33 29 63 64 63s64 -30 64 -63c0 -35 -29 -65 -64 -65z
M185 642c-35 0 -64 30 -64 65c0 33 29 63 64 63s64 -30 64 -63c0 -35 -29 -65 -64 -65z" />
    <glyph glyph-name="yacute" unicode="&#xfd;" horiz-adv-x="567" 
d="M141 -253c-29 0 -52 21 -52 50c0 33 27 71 120 87l53 116l-185 439c-12 27 -18 38 -49 39l-29 1v23h243v-23l-33 -1c-31 -1 -41 -13 -32 -36l137 -328l139 312c16 36 3 51 -29 52l-37 1v23h190v-23l-32 -1c-31 -1 -41 -13 -54 -42l-268 -593c-29 -64 -40 -96 -82 -96z
M273 597l109 179h105v-7l-194 -172h-20z" />
    <glyph glyph-name="thorn" unicode="&#xfe;" horiz-adv-x="598" 
d="M329 517c127 0 225 -102 225 -265c0 -155 -102 -264 -238 -264c-59 0 -108 25 -139 65v-243c0 -27 4 -31 39 -32l60 -3v-23h-266v23l35 2c33 1 38 6 38 33v870l-73 41v6l167 64v-347c32 44 88 73 152 73zM283 472c-36 0 -75 -10 -106 -45v-356c31 -35 69 -44 104 -44
c100 0 167 92 167 225c0 126 -67 220 -165 220z" />
    <glyph glyph-name="ydieresis" unicode="&#xff;" horiz-adv-x="567" 
d="M141 -253c-29 0 -52 21 -52 50c0 33 27 71 120 87l53 116l-185 439c-12 27 -18 38 -49 39l-29 1v23h243v-23l-33 -1c-31 -1 -41 -13 -32 -36l137 -328l139 312c16 36 3 51 -29 52l-37 1v23h190v-23l-32 -1c-31 -1 -41 -13 -54 -42l-268 -593c-29 -64 -40 -96 -82 -96z
M424 642c-35 0 -64 30 -64 65c0 33 29 63 64 63s64 -30 64 -63c0 -35 -29 -65 -64 -65zM192 642c-35 0 -64 30 -64 65c0 33 29 63 64 63s64 -30 64 -63c0 -35 -29 -65 -64 -65z" />
    <glyph glyph-name="Abreve" unicode="&#x102;" horiz-adv-x="764" 
d="M390 794l294 -733c11 -25 21 -31 52 -34l44 -3v-24h-289v24l50 3c32 3 44 9 33 34l-86 218h-283l-86 -218c-11 -25 1 -31 33 -34l50 -3v-24h-218v24l44 3c29 3 40 9 51 34l295 733h16zM221 319h252l-126 320zM382 829c-60 0 -148 30 -159 156h40c9 -80 55 -119 119 -119
s110 39 119 119h40c-13 -126 -97 -156 -159 -156z" />
    <glyph glyph-name="Amacron" unicode="&#x100;" horiz-adv-x="764" 
d="M390 794l294 -733c11 -25 21 -31 52 -34l44 -3v-24h-289v24l50 3c32 3 44 9 33 34l-86 218h-283l-86 -218c-11 -25 1 -31 33 -34l50 -3v-24h-218v24l44 3c29 3 40 9 51 34l295 733h16zM221 319h252l-126 320zM233 882v44h298v-44h-298z" />
    <glyph glyph-name="Aogonek" unicode="&#x104;" horiz-adv-x="764" 
d="M390 794l294 -733c11 -25 21 -31 52 -34l44 -3v-24h-289v24l50 3c32 3 44 9 33 34l-86 218h-283l-86 -218c-11 -25 1 -31 33 -34l50 -3v-24h-218v24l44 3c29 3 40 9 51 34l295 733h16zM221 319h252l-126 320zM628 -233c-54 0 -104 29 -104 80c0 55 80 119 133 153h22
c-40 -35 -94 -90 -94 -138c0 -40 33 -60 76 -60c24 0 46 7 65 15l2 -21c-23 -15 -63 -29 -100 -29z" />
    <glyph glyph-name="Cacute" unicode="&#x106;" horiz-adv-x="819" 
d="M479 -12c-251 0 -431 151 -431 393c0 243 181 394 436 394c83 0 179 -13 240 -45l42 -217h-18l-113 182c-15 23 -23 30 -47 37c-31 9 -64 11 -108 11c-163 0 -317 -97 -317 -342c0 -221 120 -381 325 -381c44 0 77 2 108 11c24 7 32 14 47 37l113 182h18l-42 -217
c-61 -32 -168 -45 -253 -45zM452 839l116 133h127v-2l-223 -131h-20z" />
    <glyph glyph-name="Ccaron" unicode="&#x10c;" horiz-adv-x="819" 
d="M479 -12c-251 0 -431 151 -431 393c0 243 181 394 436 394c83 0 179 -13 240 -45l42 -217h-18l-113 182c-15 23 -23 30 -47 37c-31 9 -64 11 -108 11c-163 0 -317 -97 -317 -342c0 -221 120 -381 325 -381c44 0 77 2 108 11c24 7 32 14 47 37l113 182h18l-42 -217
c-61 -32 -168 -45 -253 -45zM317 984h19l144 -72l144 72h19l-157 -151h-12z" />
    <glyph glyph-name="Ccircumflex" unicode="&#x108;" horiz-adv-x="819" 
d="M479 -12c-251 0 -431 151 -431 393c0 243 181 394 436 394c83 0 179 -13 240 -45l42 -217h-18l-113 182c-15 23 -23 30 -47 37c-31 9 -64 11 -108 11c-163 0 -317 -97 -317 -342c0 -221 120 -381 325 -381c44 0 77 2 108 11c24 7 32 14 47 37l113 182h18l-42 -217
c-61 -32 -168 -45 -253 -45zM317 833l157 151h12l157 -151h-19l-144 72l-144 -72h-19z" />
    <glyph glyph-name="Cdotaccent" unicode="&#x10a;" horiz-adv-x="819" 
d="M479 -12c-251 0 -431 151 -431 393c0 243 181 394 436 394c83 0 179 -13 240 -45l42 -217h-18l-113 182c-15 23 -23 30 -47 37c-31 9 -64 11 -108 11c-163 0 -317 -97 -317 -342c0 -221 120 -381 325 -381c44 0 77 2 108 11c24 7 32 14 47 37l113 182h18l-42 -217
c-61 -32 -168 -45 -253 -45zM480 854c-35 0 -64 29 -64 64c0 33 29 64 64 64s64 -31 64 -64c0 -35 -29 -64 -64 -64z" />
    <glyph glyph-name="Dcaron" unicode="&#x10e;" horiz-adv-x="847" 
d="M55 0v24l45 3c29 3 45 8 45 36v632c0 28 -16 33 -45 36l-45 3v24h278c257 0 465 -112 465 -374s-208 -384 -460 -384h-283zM246 31h87c203 0 349 91 349 332c0 259 -133 364 -353 364h-83v-696zM253 984h19l144 -72l144 72h19l-157 -151h-12z" />
    <glyph glyph-name="Dcroat" unicode="&#x110;" horiz-adv-x="857" 
d="M65 0v24l45 3c29 3 45 8 45 36v632c0 28 -16 33 -45 36l-45 3v24h278c257 0 465 -112 465 -374s-208 -384 -460 -384h-283zM256 31h87c203 0 349 91 349 332c0 259 -133 364 -353 364h-83v-696zM65 378v40h377v-40h-377z" />
    <glyph glyph-name="Ebreve" unicode="&#x114;" horiz-adv-x="750" 
d="M55 0v24l45 3c29 3 45 8 45 36v632c0 28 -16 33 -45 36l-45 3v24h557l33 -222h-18l-102 174c-8 15 -12 16 -29 16h-250v-313h150c17 0 19 2 22 13l40 118h18v-297h-18l-40 117c-4 11 -5 13 -22 13h-150v-345h299c16 0 19 2 28 14l137 178h18l-68 -224h-605zM385 829
c-60 0 -148 30 -159 156h40c9 -80 55 -119 119 -119s110 39 119 119h40c-13 -126 -97 -156 -159 -156z" />
    <glyph glyph-name="Ecaron" unicode="&#x11a;" horiz-adv-x="750" 
d="M55 0v24l45 3c29 3 45 8 45 36v632c0 28 -16 33 -45 36l-45 3v24h557l33 -222h-18l-102 174c-8 15 -12 16 -29 16h-250v-313h150c17 0 19 2 22 13l40 118h18v-297h-18l-40 117c-4 11 -5 13 -22 13h-150v-345h299c16 0 19 2 28 14l137 178h18l-68 -224h-605zM222 984h19
l144 -72l144 72h19l-157 -151h-12z" />
    <glyph glyph-name="Emacron" unicode="&#x112;" horiz-adv-x="750" 
d="M55 0v24l45 3c29 3 45 8 45 36v632c0 28 -16 33 -45 36l-45 3v24h557l33 -222h-18l-102 174c-8 15 -12 16 -29 16h-250v-313h150c17 0 19 2 22 13l40 118h18v-297h-18l-40 117c-4 11 -5 13 -22 13h-150v-345h299c16 0 19 2 28 14l137 178h18l-68 -224h-605zM236 882v44
h298v-44h-298z" />
    <glyph glyph-name="Eogonek" unicode="&#x118;" horiz-adv-x="750" 
d="M55 0v24l45 3c29 3 45 8 45 36v632c0 28 -16 33 -45 36l-45 3v24h557l33 -222h-18l-102 174c-8 15 -12 16 -29 16h-250v-313h150c17 0 19 2 22 13l40 118h18v-297h-18l-40 117c-4 11 -5 13 -22 13h-150v-345h299c16 0 19 2 28 14l137 178h18l-68 -224h-605zM609 -233
c-54 0 -104 29 -104 80c0 55 80 119 133 153h22c-40 -35 -94 -90 -94 -138c0 -40 33 -60 76 -60c24 0 46 7 65 15l2 -21c-23 -15 -63 -29 -100 -29z" />
    <glyph glyph-name="Edotaccent" unicode="&#x116;" horiz-adv-x="750" 
d="M55 0v24l45 3c29 3 45 8 45 36v632c0 28 -16 33 -45 36l-45 3v24h557l33 -222h-18l-102 174c-8 15 -12 16 -29 16h-250v-313h150c17 0 19 2 22 13l40 118h18v-297h-18l-40 117c-4 11 -5 13 -22 13h-150v-345h299c16 0 19 2 28 14l137 178h18l-68 -224h-605zM385 854
c-35 0 -64 29 -64 64c0 33 29 64 64 64s64 -31 64 -64c0 -35 -29 -64 -64 -64z" />
    <glyph glyph-name="Gbreve" unicode="&#x11e;" horiz-adv-x="883" 
d="M479 -12c-251 0 -431 151 -431 393c0 243 184 394 436 394c83 0 179 -13 240 -45l42 -217h-18l-113 182c-15 23 -23 30 -47 37c-31 9 -64 11 -108 11c-160 0 -317 -97 -317 -342c0 -220 120 -380 325 -380c56 0 127 9 178 36v222c0 28 -16 36 -45 37l-118 3v32h355v-36
l-90 -1v-196l3 -69c-77 -32 -195 -61 -292 -61zM482 829c-60 0 -148 30 -159 156h40c9 -80 55 -119 119 -119s110 39 119 119h40c-13 -126 -97 -156 -159 -156z" />
    <glyph glyph-name="Gcircumflex" unicode="&#x11c;" horiz-adv-x="883" 
d="M479 -12c-251 0 -431 151 -431 393c0 243 184 394 436 394c83 0 179 -13 240 -45l42 -217h-18l-113 182c-15 23 -23 30 -47 37c-31 9 -64 11 -108 11c-160 0 -317 -97 -317 -342c0 -220 120 -380 325 -380c56 0 127 9 178 36v222c0 28 -16 36 -45 37l-118 3v32h355v-36
l-90 -1v-196l3 -69c-77 -32 -195 -61 -292 -61zM319 833l157 151h12l157 -151h-19l-144 72l-144 -72h-19z" />
    <glyph glyph-name="uni0122" unicode="&#x122;" horiz-adv-x="883" 
d="M479 -12c-251 0 -431 151 -431 393c0 243 184 394 436 394c83 0 179 -13 240 -45l42 -217h-18l-113 182c-15 23 -23 30 -47 37c-31 9 -64 11 -108 11c-160 0 -317 -97 -317 -342c0 -220 120 -380 325 -380c56 0 127 9 178 36v222c0 28 -16 36 -45 37l-118 3v32h355v-36
l-90 -1v-196l3 -69c-77 -32 -195 -61 -292 -61zM410 -343l-11 20c59 43 90 83 90 124c0 39 -24 58 -63 67c-1 35 18 56 53 56c43 0 72 -35 72 -79c0 -68 -57 -132 -141 -188z" />
    <glyph glyph-name="Gdotaccent" unicode="&#x120;" horiz-adv-x="883" 
d="M479 -12c-251 0 -431 151 -431 393c0 243 184 394 436 394c83 0 179 -13 240 -45l42 -217h-18l-113 182c-15 23 -23 30 -47 37c-31 9 -64 11 -108 11c-160 0 -317 -97 -317 -342c0 -220 120 -380 325 -380c56 0 127 9 178 36v222c0 28 -16 36 -45 37l-118 3v32h355v-36
l-90 -1v-196l3 -69c-77 -32 -195 -61 -292 -61zM482 854c-35 0 -64 29 -64 64c0 33 29 64 64 64s64 -31 64 -64c0 -35 -29 -64 -64 -64z" />
    <glyph glyph-name="Hbar" unicode="&#x126;" horiz-adv-x="900" 
d="M55 0v24l45 3c29 3 45 8 45 36v632c0 28 -16 33 -45 36l-45 3v24h282v-24l-45 -3c-31 -3 -46 -8 -46 -36v-277h407v277c0 28 -16 33 -45 36l-45 3v24h282v-24l-45 -3c-29 -3 -45 -8 -45 -36v-632c0 -28 16 -33 45 -36l45 -3v-24h-282v24l45 3c29 3 45 8 45 36v315h-407
v-315c0 -28 15 -33 46 -36l45 -3v-24h-282zM54 552v40h791v-40h-791z" />
    <glyph glyph-name="Hcircumflex" unicode="&#x124;" horiz-adv-x="900" 
d="M55 0v24l45 3c29 3 45 8 45 36v632c0 28 -16 33 -45 36l-45 3v24h282v-24l-45 -3c-31 -3 -46 -8 -46 -36v-277h407v277c0 28 -16 33 -45 36l-45 3v24h282v-24l-45 -3c-29 -3 -45 -8 -45 -36v-632c0 -28 16 -33 45 -36l45 -3v-24h-282v24l45 3c29 3 45 8 45 36v315h-407
v-315c0 -28 15 -33 46 -36l45 -3v-24h-282zM286 833l157 151h12l157 -151h-19l-144 72l-144 -72h-19z" />
    <glyph glyph-name="Ibreve" unicode="&#x12c;" horiz-adv-x="391" 
d="M55 0v24l45 3c29 3 45 8 45 36v632c0 28 -16 33 -45 36l-45 3v24h282v-24l-45 -3c-31 -3 -46 -8 -46 -36v-632c0 -28 15 -33 46 -36l45 -3v-24h-282zM196 829c-60 0 -148 30 -159 156h40c9 -80 55 -119 119 -119s110 39 119 119h40c-13 -126 -97 -156 -159 -156z" />
    <glyph glyph-name="Idotaccent" unicode="&#x130;" horiz-adv-x="391" 
d="M55 0v24l45 3c29 3 45 8 45 36v632c0 28 -16 33 -45 36l-45 3v24h282v-24l-45 -3c-31 -3 -46 -8 -46 -36v-632c0 -28 15 -33 46 -36l45 -3v-24h-282zM196 854c-35 0 -64 29 -64 64c0 33 29 64 64 64s64 -31 64 -64c0 -35 -29 -64 -64 -64z" />
    <glyph glyph-name="Imacron" unicode="&#x12a;" horiz-adv-x="391" 
d="M55 0v24l45 3c29 3 45 8 45 36v632c0 28 -16 33 -45 36l-45 3v24h282v-24l-45 -3c-31 -3 -46 -8 -46 -36v-632c0 -28 15 -33 46 -36l45 -3v-24h-282zM47 882v44h298v-44h-298z" />
    <glyph glyph-name="Iogonek" unicode="&#x12e;" horiz-adv-x="391" 
d="M55 0v24l45 3c29 3 45 8 45 36v632c0 28 -16 33 -45 36l-45 3v24h282v-24l-45 -3c-31 -3 -46 -8 -46 -36v-632c0 -28 15 -33 46 -36l45 -3v-24h-282zM216 -233c-54 0 -104 29 -104 80c0 55 80 119 133 153h22c-40 -35 -94 -90 -94 -138c0 -40 33 -60 76 -60
c24 0 46 7 65 15l2 -21c-23 -15 -63 -29 -100 -29z" />
    <glyph glyph-name="Itilde" unicode="&#x128;" horiz-adv-x="391" 
d="M55 0v24l45 3c29 3 45 8 45 36v632c0 28 -16 33 -45 36l-45 3v24h282v-24l-45 -3c-31 -3 -46 -8 -46 -36v-632c0 -28 15 -33 46 -36l45 -3v-24h-282zM274 832c-70 0 -106 68 -162 68c-33 0 -53 -21 -56 -62h-17c0 68 27 132 84 132c62 0 104 -68 159 -68
c31 0 51 19 54 58h17c-1 -88 -39 -128 -79 -128z" />
    <glyph glyph-name="uni1ECA" unicode="&#x1eca;" horiz-adv-x="391" 
d="M55 0v24l45 3c29 3 45 8 45 36v632c0 28 -16 33 -45 36l-45 3v24h282v-24l-45 -3c-31 -3 -46 -8 -46 -36v-632c0 -28 15 -33 46 -36l45 -3v-24h-282zM196 -236c-35 0 -64 29 -64 64c0 33 29 64 64 64s64 -31 64 -64c0 -35 -29 -64 -64 -64z" />
    <glyph glyph-name="Jcircumflex" unicode="&#x134;" horiz-adv-x="382" 
d="M14 -117l-16 22c120 99 149 124 149 243v549c0 27 -15 31 -44 32l-50 2v27h289v-27l-50 -2c-29 -1 -44 -5 -44 -32v-522c0 -108 -36 -139 -116 -206c-26 -21 -81 -59 -118 -86zM35 833l157 151h12l157 -151h-19l-144 72l-144 -72h-19z" />
    <glyph glyph-name="uni0136" unicode="&#x136;" horiz-adv-x="794" 
d="M55 0v24l45 3c29 3 45 8 45 36v632c0 28 -16 33 -45 36l-45 3v24h282v-24l-45 -3c-31 -3 -46 -8 -46 -36v-315l350 327c13 12 7 21 -26 24l-64 3v24h264v-24l-52 -3c-40 -3 -57 -9 -78 -29l-295 -276l458 -426h-142l-415 377v-314c0 -28 15 -33 46 -36l45 -3v-24h-282z
M379 -343l-11 20c59 43 90 83 90 124c0 39 -24 58 -63 67c-1 35 18 56 53 56c43 0 72 -35 72 -79c0 -68 -57 -132 -141 -188z" />
    <glyph glyph-name="Lacute" unicode="&#x139;" horiz-adv-x="703" 
d="M55 0v24l45 3c29 3 45 8 45 36v632c0 28 -16 33 -45 36l-45 3v24h282v-24l-45 -3c-31 -3 -46 -8 -46 -36v-663h260c16 0 19 2 28 14l137 178h18l-68 -224h-566zM167 839l116 133h127v-2l-223 -131h-20z" />
    <glyph glyph-name="Lcaron" unicode="&#x13d;" horiz-adv-x="703" 
d="M55 0v24l45 3c29 3 45 8 45 36v632c0 28 -16 33 -45 36l-45 3v24h282v-24l-45 -3c-31 -3 -46 -8 -46 -36v-663h260c16 0 19 2 28 14l137 178h18l-68 -224h-566zM409 527l-11 19c59 43 90 83 90 124c0 39 -24 58 -63 67c-1 35 18 57 53 57c43 0 72 -35 72 -80
c0 -68 -57 -131 -141 -187z" />
    <glyph glyph-name="uni013B" unicode="&#x13b;" horiz-adv-x="703" 
d="M55 0v24l45 3c29 3 45 8 45 36v632c0 28 -16 33 -45 36l-45 3v24h282v-24l-45 -3c-31 -3 -46 -8 -46 -36v-663h260c16 0 19 2 28 14l137 178h18l-68 -224h-566zM302 -343l-11 20c59 43 90 83 90 124c0 39 -24 58 -63 67c-1 35 18 56 53 56c43 0 72 -35 72 -79
c0 -68 -57 -132 -141 -188z" />
    <glyph glyph-name="Ldot" unicode="&#x13f;" horiz-adv-x="703" 
d="M55 0v24l45 3c29 3 45 8 45 36v632c0 28 -16 33 -45 36l-45 3v24h282v-24l-45 -3c-31 -3 -46 -8 -46 -36v-663h260c16 0 19 2 28 14l137 178h18l-68 -224h-566zM549 342c-35 0 -64 29 -64 64c0 33 29 64 64 64s64 -31 64 -64c0 -35 -29 -64 -64 -64z" />
    <glyph glyph-name="_223" horiz-adv-x="703" 
d="M55 0v24l45 3c29 3 45 8 45 36v632c0 28 -16 33 -45 36l-45 3v24h282v-24l-45 -3c-31 -3 -46 -8 -46 -36v-663h260c16 0 19 2 28 14l137 178h18l-68 -224h-566zM549 342c-35 0 -64 29 -64 64c0 33 29 64 64 64s64 -31 64 -64c0 -35 -29 -64 -64 -64z" />
    <glyph glyph-name="Lslash" unicode="&#x141;" horiz-adv-x="703" 
d="M55 0v24l45 3c29 3 45 8 45 36v632c0 28 -16 33 -45 36l-45 3v24h282v-24l-45 -3c-31 -3 -46 -8 -46 -36v-663h260c16 0 19 2 28 14l137 178h18l-68 -224h-566zM8 239v47l377 226v-46z" />
    <glyph glyph-name="Eng" unicode="&#x14a;" horiz-adv-x="883" 
d="M58 0v24l45 3c31 3 45 8 45 36v590l-91 103v2h132l520 -582v519c0 28 -15 33 -46 36l-45 3v24h220v-24l-45 -3c-31 -3 -45 -8 -45 -36v-660c0 -119 -28 -168 -96 -218c-27 -20 -73 -51 -116 -78l-13 18c93 80 131 112 131 264v58l-467 530v-546c0 -28 15 -33 46 -36
l44 -3v-24h-219z" />
    <glyph glyph-name="Nacute" unicode="&#x143;" horiz-adv-x="883" 
d="M58 0v24l45 3c31 3 45 8 45 36v590l-91 103v2h132l520 -582v519c0 28 -15 33 -46 36l-45 3v24h220v-24l-45 -3c-31 -3 -45 -8 -45 -36v-714h-4l-557 628v-546c0 -28 15 -33 46 -36l44 -3v-24h-219zM425 839l116 133h127v-2l-223 -131h-20z" />
    <glyph glyph-name="Ncaron" unicode="&#x147;" horiz-adv-x="883" 
d="M58 0v24l45 3c31 3 45 8 45 36v590l-91 103v2h132l520 -582v519c0 28 -15 33 -46 36l-45 3v24h220v-24l-45 -3c-31 -3 -45 -8 -45 -36v-714h-4l-557 628v-546c0 -28 15 -33 46 -36l44 -3v-24h-219zM290 984h19l144 -72l144 72h19l-157 -151h-12z" />
    <glyph glyph-name="uni0145" unicode="&#x145;" horiz-adv-x="883" 
d="M58 0v24l45 3c31 3 45 8 45 36v590l-91 103v2h132l520 -582v519c0 28 -15 33 -46 36l-45 3v24h220v-24l-45 -3c-31 -3 -45 -8 -45 -36v-714h-4l-557 628v-546c0 -28 15 -33 46 -36l44 -3v-24h-219zM379 -343l-11 20c59 43 90 83 90 124c0 39 -24 58 -63 67
c-1 35 18 56 53 56c43 0 72 -35 72 -79c0 -68 -57 -132 -141 -188z" />
    <glyph glyph-name="OE" unicode="&#x152;" horiz-adv-x="1329" 
d="M447 -12c-220 0 -399 157 -399 393c0 237 179 394 399 394c131 0 231 -63 295 -159v142h449l34 -222h-10l-110 174c-9 15 -12 16 -29 16h-250v-313h150c16 0 18 2 22 13l47 118h10v-297h-10l-47 117c-4 11 -6 13 -22 13h-150v-345h298c16 0 19 3 28 14l145 178h10
l-68 -224h-497v147c-64 -96 -164 -159 -295 -159zM447 742c-162 0 -286 -130 -286 -361c0 -229 124 -360 286 -360s285 131 285 360c0 231 -123 361 -285 361z" />
    <glyph glyph-name="Obreve" unicode="&#x14e;" horiz-adv-x="894" 
d="M447 -12c-220 0 -399 157 -399 393c0 237 179 394 399 394s399 -157 399 -394c0 -236 -179 -393 -399 -393zM447 21c162 0 283 131 283 360c0 231 -121 361 -283 361c-163 0 -284 -130 -284 -361c0 -229 121 -360 284 -360zM447 829c-60 0 -148 30 -159 156h40
c9 -80 55 -119 119 -119s110 39 119 119h40c-13 -126 -97 -156 -159 -156z" />
    <glyph glyph-name="Ohungarumlaut" unicode="&#x150;" horiz-adv-x="894" 
d="M447 -12c-220 0 -399 157 -399 393c0 237 179 394 399 394s399 -157 399 -394c0 -236 -179 -393 -399 -393zM447 21c162 0 283 131 283 360c0 231 -121 361 -283 361c-163 0 -284 -130 -284 -361c0 -229 121 -360 284 -360zM338 839l116 133h127v-2l-223 -131h-20z
M544 839l116 133h127v-2l-223 -131h-20z" />
    <glyph glyph-name="Omacron" unicode="&#x14c;" horiz-adv-x="894" 
d="M447 -12c-220 0 -399 157 -399 393c0 237 179 394 399 394s399 -157 399 -394c0 -236 -179 -393 -399 -393zM447 21c162 0 283 131 283 360c0 231 -121 361 -283 361c-163 0 -284 -130 -284 -361c0 -229 121 -360 284 -360zM298 882v44h298v-44h-298z" />
    <glyph glyph-name="uni1ECC" unicode="&#x1ecc;" horiz-adv-x="894" 
d="M447 -12c-220 0 -399 157 -399 393c0 237 179 394 399 394s399 -157 399 -394c0 -236 -179 -393 -399 -393zM447 21c162 0 283 131 283 360c0 231 -121 361 -283 361c-163 0 -284 -130 -284 -361c0 -229 121 -360 284 -360zM447 -236c-35 0 -64 29 -64 64
c0 33 29 64 64 64s64 -31 64 -64c0 -35 -29 -64 -64 -64z" />
    <glyph glyph-name="Racute" unicode="&#x154;" horiz-adv-x="763" 
d="M55 0v24l45 3c29 3 45 8 45 36v632c0 28 -16 33 -45 36l-45 3v24h287c181 0 314 -39 314 -185c0 -112 -84 -171 -221 -188l350 -385h-129l-337 373h-73v-310c0 -28 15 -33 46 -36l45 -3v-24h-282zM246 404h88c128 0 209 43 209 162c0 118 -81 161 -209 161h-88v-323z
M341 839l116 133h127v-2l-223 -131h-20z" />
    <glyph glyph-name="Rcaron" unicode="&#x158;" horiz-adv-x="763" 
d="M55 0v24l45 3c29 3 45 8 45 36v632c0 28 -16 33 -45 36l-45 3v24h287c181 0 314 -39 314 -185c0 -112 -84 -171 -221 -188l350 -385h-129l-337 373h-73v-310c0 -28 15 -33 46 -36l45 -3v-24h-282zM246 404h88c128 0 209 43 209 162c0 118 -81 161 -209 161h-88v-323z
M206 984h19l144 -72l144 72h19l-157 -151h-12z" />
    <glyph glyph-name="uni0156" unicode="&#x156;" horiz-adv-x="763" 
d="M55 0v24l45 3c29 3 45 8 45 36v632c0 28 -16 33 -45 36l-45 3v24h287c181 0 314 -39 314 -185c0 -112 -84 -171 -221 -188l350 -385h-129l-337 373h-73v-310c0 -28 15 -33 46 -36l45 -3v-24h-282zM246 404h88c128 0 209 43 209 162c0 118 -81 161 -209 161h-88v-323z
M388 -343l-11 20c59 43 90 83 90 124c0 39 -24 58 -63 67c-1 35 18 56 53 56c43 0 72 -35 72 -79c0 -68 -57 -132 -141 -188z" />
    <glyph glyph-name="Sacute" unicode="&#x15a;" horiz-adv-x="629" 
d="M291 -12c-77 0 -138 7 -194 26l-23 229h18l86 -177c9 -17 22 -29 39 -36c19 -7 39 -10 75 -10c104 0 192 52 192 141c0 96 -71 141 -177 175l-53 17c-117 37 -184 109 -184 221c0 128 128 201 262 201c64 0 121 -8 170 -27l36 -204h-18l-97 159c-15 25 -26 29 -46 34
c-19 4 -36 5 -59 5c-81 0 -160 -50 -160 -135c0 -68 38 -118 125 -146l53 -17c140 -46 239 -104 239 -240c0 -131 -128 -216 -284 -216zM287 839l116 133h127v-2l-223 -131h-20z" />
    <glyph glyph-name="Scaron" unicode="&#x160;" horiz-adv-x="629" 
d="M291 -12c-77 0 -138 7 -194 26l-23 229h18l86 -177c9 -17 22 -29 39 -36c19 -7 39 -10 75 -10c104 0 192 52 192 141c0 96 -71 141 -177 175l-53 17c-117 37 -184 109 -184 221c0 128 128 201 262 201c64 0 121 -8 170 -27l36 -204h-18l-97 159c-15 25 -26 29 -46 34
c-19 4 -36 5 -59 5c-81 0 -160 -50 -160 -135c0 -68 38 -118 125 -146l53 -17c140 -46 239 -104 239 -240c0 -131 -128 -216 -284 -216zM152 984h19l144 -72l144 72h19l-157 -151h-12z" />
    <glyph glyph-name="Scedilla" unicode="&#x15e;" horiz-adv-x="629" 
d="M291 -12c-77 0 -138 7 -194 26l-23 229h18l86 -177c9 -17 22 -29 39 -36c19 -7 39 -10 75 -10c104 0 192 52 192 141c0 96 -71 141 -177 175l-53 17c-117 37 -184 109 -184 221c0 128 128 201 262 201c64 0 121 -8 170 -27l36 -204h-18l-97 159c-15 25 -26 29 -46 34
c-19 4 -36 5 -59 5c-81 0 -160 -50 -160 -135c0 -68 38 -118 125 -146l53 -17c140 -46 239 -104 239 -240c0 -131 -128 -216 -284 -216zM267 -260c-46 0 -90 22 -90 56c0 16 15 28 38 24c1 -39 33 -58 66 -58c31 0 54 16 54 40c0 29 -51 55 -115 83l111 115h33l-82 -84
c60 -31 91 -52 91 -95s-41 -81 -106 -81z" />
    <glyph glyph-name="Scircumflex" unicode="&#x15c;" horiz-adv-x="629" 
d="M291 -12c-77 0 -138 7 -194 26l-23 229h18l86 -177c9 -17 22 -29 39 -36c19 -7 39 -10 75 -10c104 0 192 52 192 141c0 96 -71 141 -177 175l-53 17c-117 37 -184 109 -184 221c0 128 128 201 262 201c64 0 121 -8 170 -27l36 -204h-18l-97 159c-15 25 -26 29 -46 34
c-19 4 -36 5 -59 5c-81 0 -160 -50 -160 -135c0 -68 38 -118 125 -146l53 -17c140 -46 239 -104 239 -240c0 -131 -128 -216 -284 -216zM152 833l157 151h12l157 -151h-19l-144 72l-144 -72h-19z" />
    <glyph glyph-name="uni0218" unicode="&#x218;" horiz-adv-x="629" 
d="M291 -12c-77 0 -138 7 -194 26l-23 229h18l86 -177c9 -17 22 -29 39 -36c19 -7 39 -10 75 -10c104 0 192 52 192 141c0 96 -71 141 -177 175l-53 17c-117 37 -184 109 -184 221c0 128 128 201 262 201c64 0 121 -8 170 -27l36 -204h-18l-97 159c-15 25 -26 29 -46 34
c-19 4 -36 5 -59 5c-81 0 -160 -50 -160 -135c0 -68 38 -118 125 -146l53 -17c140 -46 239 -104 239 -240c0 -131 -128 -216 -284 -216zM258 -343l-11 20c59 43 90 83 90 124c0 39 -24 58 -63 67c-1 35 18 56 53 56c43 0 72 -35 72 -79c0 -68 -57 -132 -141 -188z" />
    <glyph glyph-name="Tbar" unicode="&#x166;" horiz-adv-x="756" 
d="M222 0v25l60 3c29 1 45 7 45 35v666h-174c-17 0 -22 -1 -29 -16l-88 -189h-18l24 234h671l25 -234h-18l-89 189c-7 15 -12 16 -28 16h-174v-666c0 -28 14 -32 45 -35l60 -3v-25h-312zM137 379v40h483v-40h-483z" />
    <glyph glyph-name="Tcaron" unicode="&#x164;" horiz-adv-x="756" 
d="M222 0v25l60 3c29 1 45 7 45 35v666h-174c-17 0 -22 -1 -29 -16l-88 -189h-18l24 234h671l25 -234h-18l-89 189c-7 15 -12 16 -28 16h-174v-666c0 -28 14 -32 45 -35l60 -3v-25h-312zM215 984h19l144 -72l144 72h19l-157 -151h-12z" />
    <glyph glyph-name="uni0162" unicode="&#x162;" horiz-adv-x="756" 
d="M222 0v25l60 3c29 1 45 7 45 35v666h-174c-17 0 -22 -1 -29 -16l-88 -189h-18l24 234h671l25 -234h-18l-89 189c-7 15 -12 16 -28 16h-174v-666c0 -28 14 -32 45 -35l60 -3v-25h-312zM297 -343l-11 20c59 43 90 83 90 124c0 39 -24 58 -63 67c-1 35 18 56 53 56
c43 0 72 -35 72 -79c0 -68 -57 -132 -141 -188z" />
    <glyph glyph-name="uni021A" unicode="&#x21a;" horiz-adv-x="756" 
d="M222 0v25l60 3c29 1 45 7 45 35v666h-174c-17 0 -22 -1 -29 -16l-88 -189h-18l24 234h671l25 -234h-18l-89 189c-7 15 -12 16 -28 16h-174v-666c0 -28 14 -32 45 -35l60 -3v-25h-312zM297 -343l-11 20c59 43 90 83 90 124c0 39 -24 58 -63 67c-1 35 18 56 53 56
c43 0 72 -35 72 -79c0 -68 -57 -132 -141 -188z" />
    <glyph glyph-name="Ubreve" unicode="&#x16c;" horiz-adv-x="861" 
d="M434 -12c-200 0 -311 97 -311 308v399c0 28 -16 33 -45 36l-45 3v24h282v-24l-45 -3c-29 -3 -45 -8 -45 -36v-401c0 -177 74 -258 235 -258c164 0 240 91 240 267v392c0 28 -14 33 -45 36l-45 3v24h219v-24l-44 -3c-31 -3 -46 -8 -46 -36v-398
c0 -203 -105 -309 -305 -309zM463 829c-60 0 -148 30 -159 156h40c9 -80 55 -119 119 -119s110 39 119 119h40c-13 -126 -97 -156 -159 -156z" />
    <glyph glyph-name="Uhungarumlaut" unicode="&#x170;" horiz-adv-x="861" 
d="M434 -12c-200 0 -311 97 -311 308v399c0 28 -16 33 -45 36l-45 3v24h282v-24l-45 -3c-29 -3 -45 -8 -45 -36v-401c0 -177 74 -258 235 -258c164 0 240 91 240 267v392c0 28 -14 33 -45 36l-45 3v24h219v-24l-44 -3c-31 -3 -46 -8 -46 -36v-398
c0 -203 -105 -309 -305 -309zM354 839l116 133h127v-2l-223 -131h-20zM560 839l116 133h127v-2l-223 -131h-20z" />
    <glyph glyph-name="Umacron" unicode="&#x16a;" horiz-adv-x="861" 
d="M434 -12c-200 0 -311 97 -311 308v399c0 28 -16 33 -45 36l-45 3v24h282v-24l-45 -3c-29 -3 -45 -8 -45 -36v-401c0 -177 74 -258 235 -258c164 0 240 91 240 267v392c0 28 -14 33 -45 36l-45 3v24h219v-24l-44 -3c-31 -3 -46 -8 -46 -36v-398
c0 -203 -105 -309 -305 -309zM314 882v44h298v-44h-298z" />
    <glyph glyph-name="Uogonek" unicode="&#x172;" horiz-adv-x="861" 
d="M434 -12c-200 0 -311 97 -311 308v399c0 28 -16 33 -45 36l-45 3v24h282v-24l-45 -3c-29 -3 -45 -8 -45 -36v-401c0 -177 74 -258 235 -258c164 0 240 91 240 267v392c0 28 -14 33 -45 36l-45 3v24h219v-24l-44 -3c-31 -3 -46 -8 -46 -36v-398c0 -171 -75 -273 -218 -301
c-38 -35 -86 -86 -86 -134c0 -40 33 -60 76 -60c24 0 46 7 65 15l2 -21c-23 -15 -63 -29 -100 -29c-54 0 -104 29 -104 80s69 108 121 145c-20 -3 -40 -4 -61 -4z" />
    <glyph glyph-name="Uring" unicode="&#x16e;" horiz-adv-x="861" 
d="M434 -12c-200 0 -311 97 -311 308v399c0 28 -16 33 -45 36l-45 3v24h282v-24l-45 -3c-29 -3 -45 -8 -45 -36v-401c0 -177 74 -258 235 -258c164 0 240 91 240 267v392c0 28 -14 33 -45 36l-45 3v24h219v-24l-44 -3c-31 -3 -46 -8 -46 -36v-398
c0 -203 -105 -309 -305 -309zM463 835c-63 0 -115 48 -115 112c0 61 52 112 115 112c65 0 117 -51 117 -112c0 -64 -52 -112 -117 -112zM463 871c45 0 76 31 76 76c0 44 -31 74 -76 74c-44 0 -75 -30 -75 -74c0 -45 31 -76 75 -76z" />
    <glyph glyph-name="Utilde" unicode="&#x168;" horiz-adv-x="861" 
d="M434 -12c-200 0 -311 97 -311 308v399c0 28 -16 33 -45 36l-45 3v24h282v-24l-45 -3c-29 -3 -45 -8 -45 -36v-401c0 -177 74 -258 235 -258c164 0 240 91 240 267v392c0 28 -14 33 -45 36l-45 3v24h219v-24l-44 -3c-31 -3 -46 -8 -46 -36v-398
c0 -203 -105 -309 -305 -309zM541 832c-70 0 -106 68 -162 68c-33 0 -53 -21 -56 -62h-17c0 68 27 132 84 132c62 0 104 -68 159 -68c31 0 51 19 54 58h17c-1 -88 -39 -128 -79 -128z" />
    <glyph glyph-name="uni1EE4" unicode="&#x1ee4;" horiz-adv-x="861" 
d="M434 -12c-200 0 -311 97 -311 308v399c0 28 -16 33 -45 36l-45 3v24h282v-24l-45 -3c-29 -3 -45 -8 -45 -36v-401c0 -177 74 -258 235 -258c164 0 240 91 240 267v392c0 28 -14 33 -45 36l-45 3v24h219v-24l-44 -3c-31 -3 -46 -8 -46 -36v-398
c0 -203 -105 -309 -305 -309zM449 -236c-35 0 -64 29 -64 64c0 33 29 64 64 64s64 -31 64 -64c0 -35 -29 -64 -64 -64z" />
    <glyph glyph-name="Wacute" unicode="&#x1e82;" horiz-adv-x="1183" 
d="M379 -25l-301 722c-11 25 -22 31 -51 34l-44 3v24h287v-24l-50 -3c-32 -3 -44 -9 -33 -34l235 -572l161 386l-93 247h260v-24l-92 -3c-32 -1 -43 -9 -34 -34l204 -572l236 572c11 25 -1 31 -33 34l-49 3v24h218v-24l-44 -3c-31 -3 -40 -9 -51 -34l-302 -722h-17l-185 490
l-206 -490h-16zM563 839l116 133h127v-2l-223 -131h-20z" />
    <glyph glyph-name="Wcircumflex" unicode="&#x174;" horiz-adv-x="1183" 
d="M379 -25l-301 722c-11 25 -22 31 -51 34l-44 3v24h287v-24l-50 -3c-32 -3 -44 -9 -33 -34l235 -572l161 386l-93 247h260v-24l-92 -3c-32 -1 -43 -9 -34 -34l204 -572l236 572c11 25 -1 31 -33 34l-49 3v24h218v-24l-44 -3c-31 -3 -40 -9 -51 -34l-302 -722h-17l-185 490
l-206 -490h-16zM428 833l157 151h12l157 -151h-19l-144 72l-144 -72h-19z" />
    <glyph glyph-name="Wdieresis" unicode="&#x1e84;" horiz-adv-x="1183" 
d="M379 -25l-301 722c-11 25 -22 31 -51 34l-44 3v24h287v-24l-50 -3c-32 -3 -44 -9 -33 -34l235 -572l161 386l-93 247h260v-24l-92 -3c-32 -1 -43 -9 -34 -34l204 -572l236 572c11 25 -1 31 -33 34l-49 3v24h218v-24l-44 -3c-31 -3 -40 -9 -51 -34l-302 -722h-17l-185 490
l-206 -490h-16zM475 854c-35 0 -64 29 -64 64c0 33 29 64 64 64s64 -31 64 -64c0 -35 -29 -64 -64 -64zM707 854c-35 0 -64 29 -64 64c0 33 29 64 64 64s64 -31 64 -64c0 -35 -29 -64 -64 -64z" />
    <glyph glyph-name="Wgrave" unicode="&#x1e80;" horiz-adv-x="1183" 
d="M379 -25l-301 722c-11 25 -22 31 -51 34l-44 3v24h287v-24l-50 -3c-32 -3 -44 -9 -33 -34l235 -572l161 386l-93 247h260v-24l-92 -3c-32 -1 -43 -9 -34 -34l204 -572l236 572c11 25 -1 31 -33 34l-49 3v24h218v-24l-44 -3c-31 -3 -40 -9 -51 -34l-302 -722h-17l-185 490
l-206 -490h-16zM637 839h-20l-223 131v2h127z" />
    <glyph glyph-name="Ycircumflex" unicode="&#x176;" horiz-adv-x="770" 
d="M230 0v25l60 3c29 1 45 7 45 35v279l-248 355c-16 24 -22 31 -51 34l-44 3v24h290v-24l-50 -3c-31 -3 -49 -11 -33 -34l221 -317l222 317c17 24 -2 31 -33 34l-50 3v24h220v-24l-44 -3c-29 -3 -35 -11 -51 -34l-248 -355v-279c0 -28 15 -32 46 -35l60 -3v-25h-312z
M251 833l157 151h12l157 -151h-19l-144 72l-144 -72h-19z" />
    <glyph glyph-name="Ydieresis" unicode="&#x178;" horiz-adv-x="770" 
d="M230 0v25l60 3c29 1 45 7 45 35v279l-248 355c-16 24 -22 31 -51 34l-44 3v24h290v-24l-50 -3c-31 -3 -49 -11 -33 -34l221 -317l222 317c17 24 -2 31 -33 34l-50 3v24h220v-24l-44 -3c-29 -3 -35 -11 -51 -34l-248 -355v-279c0 -28 15 -32 46 -35l60 -3v-25h-312z
M298 854c-35 0 -64 29 -64 64c0 33 29 64 64 64s64 -31 64 -64c0 -35 -29 -64 -64 -64zM530 854c-35 0 -64 29 -64 64c0 33 29 64 64 64s64 -31 64 -64c0 -35 -29 -64 -64 -64z" />
    <glyph glyph-name="Ygrave" unicode="&#x1ef2;" horiz-adv-x="770" 
d="M230 0v25l60 3c29 1 45 7 45 35v279l-248 355c-16 24 -22 31 -51 34l-44 3v24h290v-24l-50 -3c-31 -3 -49 -11 -33 -34l221 -317l222 317c17 24 -2 31 -33 34l-50 3v24h220v-24l-44 -3c-29 -3 -35 -11 -51 -34l-248 -355v-279c0 -28 15 -32 46 -35l60 -3v-25h-312z
M460 839h-20l-223 131v2h127z" />
    <glyph glyph-name="uni0232" unicode="&#x232;" horiz-adv-x="770" 
d="M230 0v25l60 3c29 1 45 7 45 35v279l-248 355c-16 24 -22 31 -51 34l-44 3v24h290v-24l-50 -3c-31 -3 -49 -11 -33 -34l221 -317l222 317c17 24 -2 31 -33 34l-50 3v24h220v-24l-44 -3c-29 -3 -35 -11 -51 -34l-248 -355v-279c0 -28 15 -32 46 -35l60 -3v-25h-312z
M265 882v44h298v-44h-298z" />
    <glyph glyph-name="Zacute" unicode="&#x179;" horiz-adv-x="732" 
d="M22 0v10l534 717h-325c-19 0 -21 -1 -32 -16l-131 -177h-18l69 224h563v-11l-532 -716h374c17 0 20 1 31 16l131 177h19l-70 -224h-613zM355 839l116 133h127v-2l-223 -131h-20z" />
    <glyph glyph-name="Zcaron" unicode="&#x17d;" horiz-adv-x="732" 
d="M22 0v10l534 717h-325c-19 0 -21 -1 -32 -16l-131 -177h-18l69 224h563v-11l-532 -716h374c17 0 20 1 31 16l131 177h19l-70 -224h-613zM220 984h19l144 -72l144 72h19l-157 -151h-12z" />
    <glyph glyph-name="Zdotaccent" unicode="&#x17b;" horiz-adv-x="732" 
d="M22 0v10l534 717h-325c-19 0 -21 -1 -32 -16l-131 -177h-18l69 224h563v-11l-532 -716h374c17 0 20 1 31 16l131 177h19l-70 -224h-613zM383 854c-35 0 -64 29 -64 64c0 33 29 64 64 64s64 -31 64 -64c0 -35 -29 -64 -64 -64z" />
    <glyph glyph-name="uni018F" unicode="&#x18f;" horiz-adv-x="833" 
d="M408 -11c-183 0 -334 113 -361 301h633c3 15 3 33 3 44c0 249 -149 374 -322 374c-138 0 -270 -77 -294 -251h-24c16 197 164 318 363 318c210 0 377 -148 377 -393c0 -237 -158 -393 -375 -393zM408 21c130 0 241 91 265 227h-512c27 -145 123 -227 247 -227z" />
    <glyph glyph-name="abreve" unicode="&#x103;" horiz-adv-x="540" 
d="M205 -12c-94 0 -159 63 -159 135c0 93 107 119 181 148c125 48 126 76 126 119c0 56 -33 99 -102 99c-80 0 -125 -58 -105 -151c-13 -3 -25 -4 -38 -4c-44 0 -68 19 -68 46c0 34 44 65 91 88c55 29 113 50 169 50c97 0 147 -39 146 -159l-3 -315h76v-22l-158 -29l-7 112
c-27 -88 -80 -117 -149 -117zM245 29c51 0 106 40 106 145l2 143c-27 -20 -46 -33 -85 -53c-69 -37 -114 -65 -114 -133c0 -52 30 -102 91 -102zM255 614c-60 0 -148 29 -159 157h40c9 -80 55 -120 119 -120s110 40 119 120h40c-13 -128 -97 -157 -159 -157z" />
    <glyph glyph-name="amacron" unicode="&#x101;" horiz-adv-x="540" 
d="M205 -12c-94 0 -159 63 -159 135c0 93 107 119 181 148c125 48 126 76 126 119c0 56 -33 99 -102 99c-80 0 -125 -58 -105 -151c-13 -3 -25 -4 -38 -4c-44 0 -68 19 -68 46c0 34 44 65 91 88c55 29 113 50 169 50c97 0 147 -39 146 -159l-3 -315h76v-22l-158 -29l-7 112
c-27 -88 -80 -117 -149 -117zM245 29c51 0 106 40 106 145l2 143c-27 -20 -46 -33 -85 -53c-69 -37 -114 -65 -114 -133c0 -52 30 -102 91 -102zM106 668v45h298v-45h-298z" />
    <glyph glyph-name="aogonek" unicode="&#x105;" horiz-adv-x="540" 
d="M205 -12c-94 0 -159 63 -159 135c0 93 107 119 181 148c125 48 126 76 126 119c0 56 -33 99 -102 99c-80 0 -125 -58 -105 -151c-13 -3 -25 -4 -38 -4c-44 0 -68 19 -68 46c0 34 44 65 91 88c55 29 113 50 169 50c97 0 147 -39 146 -159l-3 -315h76v-22l-83 -15
c-38 -35 -87 -86 -87 -135c0 -40 33 -60 76 -60c24 0 46 7 65 15l2 -21c-23 -15 -63 -29 -100 -29c-54 0 -104 29 -104 80s69 108 121 145l-48 -9l-7 112c-27 -88 -80 -117 -149 -117zM245 29c51 0 106 40 106 145l2 143c-27 -20 -46 -33 -85 -53
c-69 -37 -114 -65 -114 -133c0 -52 30 -102 91 -102z" />
    <glyph glyph-name="cacute" unicode="&#x107;" horiz-adv-x="554" 
d="M295 -12c-145 0 -253 106 -253 263c0 156 123 266 271 266c87 0 180 -41 180 -108c0 -35 -28 -54 -65 -54c-7 0 -14 1 -22 2c-8 96 -58 134 -123 134c-73 0 -136 -58 -139 -184c-3 -139 72 -259 192 -259c60 0 137 27 166 135h23c-27 -139 -118 -195 -230 -195zM258 597
l109 179h105v-7l-194 -172h-20z" />
    <glyph glyph-name="ccaron" unicode="&#x10d;" horiz-adv-x="554" 
d="M295 -12c-145 0 -253 106 -253 263c0 156 123 266 271 266c87 0 180 -41 180 -108c0 -35 -28 -54 -65 -54c-7 0 -14 1 -22 2c-8 96 -58 134 -123 134c-73 0 -136 -58 -139 -184c-3 -139 72 -259 192 -259c60 0 137 27 166 135h23c-27 -139 -118 -195 -230 -195zM128 793
h20l145 -109l145 109h20l-161 -196h-8z" />
    <glyph glyph-name="ccircumflex" unicode="&#x109;" horiz-adv-x="554" 
d="M295 -12c-145 0 -253 106 -253 263c0 156 123 266 271 266c87 0 180 -41 180 -108c0 -35 -28 -54 -65 -54c-7 0 -14 1 -22 2c-8 96 -58 134 -123 134c-73 0 -136 -58 -139 -184c-3 -139 72 -259 192 -259c60 0 137 27 166 135h23c-27 -139 -118 -195 -230 -195zM128 597
l161 196h8l161 -196h-20l-145 110l-145 -110h-20z" />
    <glyph glyph-name="cdotaccent" unicode="&#x10b;" horiz-adv-x="554" 
d="M295 -12c-145 0 -253 106 -253 263c0 156 123 266 271 266c87 0 180 -41 180 -108c0 -35 -28 -54 -65 -54c-7 0 -14 1 -22 2c-8 96 -58 134 -123 134c-73 0 -136 -58 -139 -184c-3 -139 72 -259 192 -259c60 0 137 27 166 135h23c-27 -139 -118 -195 -230 -195zM293 657
c-35 0 -64 29 -64 64c0 33 29 64 64 64s64 -31 64 -64c0 -35 -29 -64 -64 -64z" />
    <glyph glyph-name="dcaron" unicode="&#x10f;" horiz-adv-x="656" 
d="M269 -12c-127 0 -225 102 -225 265c0 155 102 264 238 264c59 0 108 -25 139 -64v227l-93 41v6l187 64v-747h77v-22l-171 -31v70c-33 -43 -88 -73 -152 -73zM150 254c0 -127 67 -220 166 -220c35 0 76 10 105 45v355c-31 35 -69 45 -104 45c-100 0 -167 -92 -167 -225z
M595 527l-11 19c59 43 90 83 90 124c0 39 -24 58 -63 67c-1 35 18 57 53 57c43 0 72 -35 72 -80c0 -68 -57 -131 -141 -187z" />
    <glyph glyph-name="dcroat" unicode="&#x111;" horiz-adv-x="616" 
d="M269 -12c-127 0 -225 102 -225 265c0 155 102 264 238 264c59 0 108 -25 139 -64v227l-93 41v6l187 64v-747h77v-22l-171 -31v70c-33 -43 -88 -73 -152 -73zM150 254c0 -127 67 -220 166 -220c35 0 76 10 105 45v355c-31 35 -69 45 -104 45c-100 0 -167 -92 -167 -225z
M297 588v36h295v-36h-295z" />
    <glyph glyph-name="ebreve" unicode="&#x115;" horiz-adv-x="577" 
d="M296 -12c-144 0 -253 98 -253 263c0 160 119 266 252 266c93 0 203 -55 232 -204h-382v-19c0 -146 81 -246 192 -246c64 0 143 20 180 135h23c-31 -135 -121 -195 -244 -195zM292 493c-72 0 -129 -50 -144 -151h263c-3 83 -36 151 -119 151zM295 614
c-60 0 -148 29 -159 157h40c9 -80 55 -120 119 -120s110 40 119 120h40c-13 -128 -97 -157 -159 -157z" />
    <glyph glyph-name="ecaron" unicode="&#x11b;" horiz-adv-x="577" 
d="M296 -12c-144 0 -253 98 -253 263c0 160 119 266 252 266c93 0 203 -55 232 -204h-382v-19c0 -146 81 -246 192 -246c64 0 143 20 180 135h23c-31 -135 -121 -195 -244 -195zM292 493c-72 0 -129 -50 -144 -151h263c-3 83 -36 151 -119 151zM130 793h20l145 -109l145 109
h20l-161 -196h-8z" />
    <glyph glyph-name="emacron" unicode="&#x113;" horiz-adv-x="577" 
d="M296 -12c-144 0 -253 98 -253 263c0 160 119 266 252 266c93 0 203 -55 232 -204h-382v-19c0 -146 81 -246 192 -246c64 0 143 20 180 135h23c-31 -135 -121 -195 -244 -195zM292 493c-72 0 -129 -50 -144 -151h263c-3 83 -36 151 -119 151zM146 668v45h298v-45h-298z
" />
    <glyph glyph-name="eogonek" unicode="&#x119;" horiz-adv-x="577" 
d="M413 -183l2 -21c-23 -15 -63 -29 -100 -29c-54 0 -104 29 -104 80c0 60 77 111 142 146c-12 -3 -41 -5 -57 -5c-144 0 -253 98 -253 263c0 160 119 266 252 266c94 0 199 -54 231 -194h-380c-1 -9 -1 -18 -1 -29c0 -146 81 -246 192 -246c69 0 149 24 183 159h23
c-21 -125 -84 -170 -160 -214c-56 -32 -111 -79 -111 -131c0 -40 33 -60 76 -60c24 0 46 7 65 15zM292 493c-71 0 -126 -46 -142 -141h261c-5 75 -37 141 -119 141z" />
    <glyph glyph-name="edotaccent" unicode="&#x117;" horiz-adv-x="577" 
d="M296 -12c-144 0 -253 98 -253 263c0 160 119 266 252 266c93 0 203 -55 232 -204h-382v-19c0 -146 81 -246 192 -246c64 0 143 20 180 135h23c-31 -135 -121 -195 -244 -195zM292 493c-72 0 -129 -50 -144 -151h263c-3 83 -36 151 -119 151zM295 657c-35 0 -64 29 -64 64
c0 33 29 64 64 64s64 -31 64 -64c0 -35 -29 -64 -64 -64z" />
    <glyph glyph-name="gbreve" unicode="&#x11f;" horiz-adv-x="589" 
d="M265 164c-25 0 -50 4 -74 11l-77 -88l249 -24c133 -13 189 -44 189 -116c0 -112 -151 -207 -338 -207c-117 0 -192 48 -192 117c0 67 80 117 179 128c-54 14 -129 43 -158 59l124 140c-65 28 -108 85 -108 156c0 101 89 177 208 177c51 0 97 -14 132 -38l30 56h170
l-35 -64h-155c40 -31 64 -77 64 -129c0 -101 -89 -178 -208 -178zM283 189c56 0 98 42 98 125c0 97 -51 180 -129 180c-57 0 -99 -42 -99 -125c0 -97 50 -180 130 -180zM247 -227c117 0 227 57 227 126c0 60 -74 81 -207 81c-120 0 -176 -53 -176 -106
c0 -60 53 -101 156 -101zM281 614c-60 0 -148 29 -159 157h40c9 -80 55 -120 119 -120s110 40 119 120h40c-13 -128 -97 -157 -159 -157z" />
    <glyph glyph-name="gcircumflex" unicode="&#x11d;" horiz-adv-x="589" 
d="M265 164c-25 0 -50 4 -74 11l-77 -88l249 -24c133 -13 189 -44 189 -116c0 -112 -151 -207 -338 -207c-117 0 -192 48 -192 117c0 67 80 117 179 128c-54 14 -129 43 -158 59l124 140c-65 28 -108 85 -108 156c0 101 89 177 208 177c51 0 97 -14 132 -38l30 56h170
l-35 -64h-155c40 -31 64 -77 64 -129c0 -101 -89 -178 -208 -178zM283 189c56 0 98 42 98 125c0 97 -51 180 -129 180c-57 0 -99 -42 -99 -125c0 -97 50 -180 130 -180zM247 -227c117 0 227 57 227 126c0 60 -74 81 -207 81c-120 0 -176 -53 -176 -106
c0 -60 53 -101 156 -101zM116 597l161 196h8l161 -196h-20l-145 110l-145 -110h-20z" />
    <glyph glyph-name="uni0123" unicode="&#x123;" horiz-adv-x="589" 
d="M265 164c-25 0 -50 4 -74 11l-77 -88l249 -24c133 -13 189 -44 189 -116c0 -112 -151 -207 -338 -207c-117 0 -192 48 -192 117c0 67 80 117 179 128c-54 14 -129 43 -158 59l124 140c-65 28 -108 85 -108 156c0 101 89 177 208 177c51 0 97 -14 132 -38l30 56h170
l-35 -64h-155c40 -31 64 -77 64 -129c0 -101 -89 -178 -208 -178zM283 189c56 0 98 42 98 125c0 97 -51 180 -129 180c-57 0 -99 -42 -99 -125c0 -97 50 -180 130 -180zM247 -227c117 0 227 57 227 126c0 60 -74 81 -207 81c-120 0 -176 -53 -176 -106
c0 -60 53 -101 156 -101zM349 850l11 -20c-59 -43 -90 -83 -90 -124c0 -39 24 -58 63 -67c1 -35 -20 -56 -53 -56c-43 0 -72 35 -72 79c0 68 57 132 141 188z" />
    <glyph glyph-name="gdotaccent" unicode="&#x121;" horiz-adv-x="589" 
d="M265 164c-25 0 -50 4 -74 11l-77 -88l249 -24c133 -13 189 -44 189 -116c0 -112 -151 -207 -338 -207c-117 0 -192 48 -192 117c0 67 80 117 179 128c-54 14 -129 43 -158 59l124 140c-65 28 -108 85 -108 156c0 101 89 177 208 177c51 0 97 -14 132 -38l30 56h170
l-35 -64h-155c40 -31 64 -77 64 -129c0 -101 -89 -178 -208 -178zM283 189c56 0 98 42 98 125c0 97 -51 180 -129 180c-57 0 -99 -42 -99 -125c0 -97 50 -180 130 -180zM247 -227c117 0 227 57 227 126c0 60 -74 81 -207 81c-120 0 -176 -53 -176 -106
c0 -60 53 -101 156 -101zM281 657c-35 0 -64 29 -64 64c0 33 29 64 64 64s64 -31 64 -64c0 -35 -29 -64 -64 -64z" />
    <glyph glyph-name="hbar" unicode="&#x127;" horiz-adv-x="610" 
d="M26 0v23l35 2c33 1 38 6 38 33v622l-73 41v6l167 64v-412c21 93 83 138 167 138c97 0 154 -54 154 -199v-260c0 -27 4 -32 39 -33l34 -2v-23h-240v23l35 2c33 1 38 6 38 33v242c0 121 -38 160 -107 160c-65 0 -120 -44 -120 -160v-242c0 -27 4 -32 39 -33l34 -2v-23h-240
zM21 588v36h295v-36h-295z" />
    <glyph glyph-name="hcircumflex" unicode="&#x125;" horiz-adv-x="610" 
d="M26 0v23l35 2c33 1 38 6 38 33v622l-73 41v6l167 64v-412c21 93 83 138 167 138c97 0 154 -54 154 -199v-260c0 -27 4 -32 39 -33l34 -2v-23h-240v23l35 2c33 1 38 6 38 33v242c0 121 -38 160 -107 160c-65 0 -120 -44 -120 -160v-242c0 -27 4 -32 39 -33l34 -2v-23h-240
zM-25 850l157 151h12l157 -151h-19l-144 72l-144 -72h-19z" />
    <glyph glyph-name="dotlessi" unicode="&#x131;" horiz-adv-x="309" 
d="M39 0v23l35 2c31 3 38 6 38 33v349l-73 41v6l167 64v-460c0 -27 7 -30 39 -33l34 -2v-23h-240z" />
    <glyph glyph-name="ibreve" unicode="&#x12d;" horiz-adv-x="309" 
d="M39 0v23l35 2c31 3 38 6 38 33v349l-73 41v6l167 64v-460c0 -27 7 -30 39 -33l34 -2v-23h-240zM149 614c-60 0 -148 29 -159 157h40c9 -80 55 -120 119 -120s110 40 119 120h40c-13 -128 -97 -157 -159 -157z" />
    <glyph glyph-name="imacron" unicode="&#x12b;" horiz-adv-x="309" 
d="M39 0v23l35 2c31 3 38 6 38 33v349l-73 41v6l167 64v-460c0 -27 7 -30 39 -33l34 -2v-23h-240zM0 668v45h298v-45h-298z" />
    <glyph glyph-name="iogonek" unicode="&#x12f;" horiz-adv-x="309" 
d="M39 0v23l35 2c31 3 38 6 38 33v349l-73 41v6l167 64v-460c0 -27 7 -30 39 -33l34 -2v-23h-240zM95 722c0 33 29 63 64 63s64 -30 64 -63c0 -35 -29 -65 -64 -65s-64 30 -64 65zM158 -233c-54 0 -104 29 -104 80c0 55 80 119 133 153h22c-40 -35 -94 -90 -94 -138
c0 -40 33 -60 76 -60c24 0 46 7 65 15l2 -21c-23 -15 -63 -29 -100 -29z" />
    <glyph glyph-name="itilde" unicode="&#x129;" horiz-adv-x="309" 
d="M39 0v23l35 2c31 3 38 6 38 33v349l-73 41v6l167 64v-460c0 -27 7 -30 39 -33l34 -2v-23h-240zM227 629c-70 0 -106 68 -162 68c-33 0 -53 -21 -56 -61h-17c0 67 27 131 84 131c62 0 104 -68 159 -68c31 0 51 20 54 59h17c-1 -88 -39 -129 -79 -129z" />
    <glyph glyph-name="uni1ECB" unicode="&#x1ecb;" horiz-adv-x="309" 
d="M39 0v23l35 2c31 3 38 6 38 33v349l-73 41v6l167 64v-460c0 -27 7 -30 39 -33l34 -2v-23h-240zM95 722c0 33 29 63 64 63s64 -30 64 -63c0 -35 -29 -65 -64 -65s-64 30 -64 65zM159 -234c-35 0 -64 29 -64 64c0 33 29 64 64 64s64 -31 64 -64c0 -35 -29 -64 -64 -64z" />
    <glyph glyph-name="uni0237" unicode="&#x237;" horiz-adv-x="279" 
d="M-19 -261l-12 18c96 80 130 115 130 274v376l-73 41v6l167 64v-483c0 -119 -28 -168 -96 -218c-27 -20 -72 -51 -116 -78z" />
    <glyph glyph-name="jcircumflex" unicode="&#x135;" horiz-adv-x="279" 
d="M-19 -261l-12 18c96 80 130 115 130 274v376l-73 41v6l167 64v-483c0 -119 -28 -168 -96 -218c-27 -20 -72 -51 -116 -78zM-29 597l161 196h8l161 -196h-20l-145 110l-145 -110h-20z" />
    <glyph glyph-name="uni0137" unicode="&#x137;" horiz-adv-x="590" 
d="M26 0v23l35 2c33 1 38 6 38 33v622l-73 41v6l167 64v-522l212 173c21 19 19 35 -16 36l-36 1v23h209v-23l-33 -2c-33 -3 -51 -10 -78 -34l-170 -136l315 -307h-128l-275 260v-202c0 -27 4 -32 39 -33l34 -2v-23h-240zM262 -343l-11 20c59 43 90 83 90 124
c0 39 -24 58 -63 67c-1 35 18 56 53 56c43 0 72 -35 72 -79c0 -68 -57 -132 -141 -188z" />
    <glyph glyph-name="lacute" unicode="&#x13a;" horiz-adv-x="300" 
d="M30 0v23l35 2c33 1 38 6 38 33v622l-73 41v6l167 64v-733c0 -27 4 -32 39 -33l34 -2v-23h-240zM109 853l109 179h105v-7l-194 -172h-20z" />
    <glyph glyph-name="lcaron" unicode="&#x13e;" horiz-adv-x="340" 
d="M30 0v23l35 2c33 1 38 6 38 33v622l-73 41v6l167 64v-733c0 -27 4 -32 39 -33l34 -2v-23h-240zM289 527l-11 19c59 43 90 83 90 124c0 39 -24 58 -63 67c-1 35 18 57 53 57c43 0 72 -35 72 -80c0 -68 -57 -131 -141 -187z" />
    <glyph glyph-name="uni013C" unicode="&#x13c;" horiz-adv-x="300" 
d="M30 0v23l35 2c33 1 38 6 38 33v622l-73 41v6l167 64v-733c0 -27 4 -32 39 -33l34 -2v-23h-240zM69 -343l-11 20c59 43 90 83 90 124c0 39 -24 58 -63 67c-1 35 18 56 53 56c43 0 72 -35 72 -79c0 -68 -57 -132 -141 -188z" />
    <glyph glyph-name="ldot" unicode="&#x140;" horiz-adv-x="386" 
d="M30 0v23l35 2c33 1 38 6 38 33v622l-73 41v6l167 64v-733c0 -27 4 -32 39 -33l34 -2v-23h-240zM342 331c-35 0 -64 29 -64 64c0 33 29 64 64 64s64 -31 64 -64c0 -35 -29 -64 -64 -64z" />
    <glyph glyph-name="_298" horiz-adv-x="386" 
d="M30 0v23l35 2c33 1 38 6 38 33v622l-73 41v6l167 64v-733c0 -27 4 -32 39 -33l34 -2v-23h-240zM342 331c-35 0 -64 29 -64 64c0 33 29 64 64 64s64 -31 64 -64c0 -35 -29 -64 -64 -64z" />
    <glyph glyph-name="lslash" unicode="&#x142;" horiz-adv-x="360" 
d="M60 0v23l35 2c33 1 38 6 38 33v622l-73 41v6l167 64v-733c0 -27 4 -32 39 -33l34 -2v-23h-240zM23 280v41l314 183v-42z" />
    <glyph glyph-name="eng" unicode="&#x14b;" horiz-adv-x="602" 
d="M369 517c97 0 154 -54 154 -199v-283c0 -120 -26 -167 -95 -218c-27 -20 -73 -51 -116 -78l-13 18c96 80 130 115 130 274v269c0 121 -38 160 -107 160c-65 0 -120 -44 -120 -160v-242c0 -27 4 -32 39 -33l34 -2v-23h-240v23l35 2c33 1 38 6 38 33v349l-73 41v6l167 64
v-139c21 93 83 138 167 138z" />
    <glyph glyph-name="nacute" unicode="&#x144;" horiz-adv-x="619" 
d="M35 0v23l35 2c33 1 38 6 38 33v349l-73 41v6l167 64v-139c21 93 83 138 167 138c97 0 154 -54 154 -199v-260c0 -27 4 -32 39 -33l34 -2v-23h-240v23l35 2c33 1 38 6 38 33v242c0 121 -38 160 -107 160c-65 0 -120 -44 -120 -160v-242c0 -27 4 -32 39 -33l34 -2v-23h-240
zM280 597l109 179h105v-7l-194 -172h-20z" />
    <glyph glyph-name="ncaron" unicode="&#x148;" horiz-adv-x="619" 
d="M35 0v23l35 2c33 1 38 6 38 33v349l-73 41v6l167 64v-139c21 93 83 138 167 138c97 0 154 -54 154 -199v-260c0 -27 4 -32 39 -33l34 -2v-23h-240v23l35 2c33 1 38 6 38 33v242c0 121 -38 160 -107 160c-65 0 -120 -44 -120 -160v-242c0 -27 4 -32 39 -33l34 -2v-23h-240
zM150 793h20l145 -109l145 109h20l-161 -196h-8z" />
    <glyph glyph-name="uni0146" unicode="&#x146;" horiz-adv-x="619" 
d="M35 0v23l35 2c33 1 38 6 38 33v349l-73 41v6l167 64v-139c21 93 83 138 167 138c97 0 154 -54 154 -199v-260c0 -27 4 -32 39 -33l34 -2v-23h-240v23l35 2c33 1 38 6 38 33v242c0 121 -38 160 -107 160c-65 0 -120 -44 -120 -160v-242c0 -27 4 -32 39 -33l34 -2v-23h-240
zM244 -343l-11 20c59 43 90 83 90 124c0 39 -24 58 -63 67c-1 35 18 56 53 56c43 0 72 -35 72 -79c0 -68 -57 -132 -141 -188z" />
    <glyph glyph-name="oe" unicode="&#x153;" horiz-adv-x="991" 
d="M305 517c91 0 160 -47 199 -119c43 76 118 119 205 119c93 0 203 -55 232 -204h-382c-8 -133 60 -265 192 -265c64 0 143 20 180 135h23c-31 -135 -121 -195 -244 -195c-95 0 -169 41 -210 116c-41 -72 -111 -116 -198 -116c-143 0 -260 109 -260 262
c0 163 127 267 263 267zM706 493c-72 0 -129 -50 -144 -151h263c-3 83 -36 151 -119 151zM147 253c0 -168 73 -234 157 -234c83 0 155 66 155 234c0 170 -72 235 -155 235c-84 0 -157 -65 -157 -235z" />
    <glyph glyph-name="obreve" unicode="&#x14f;" horiz-adv-x="619" 
d="M308 -12c-143 0 -266 109 -266 262c0 163 133 267 269 267c143 0 266 -109 266 -261c0 -163 -130 -268 -269 -268zM310 17c82 0 157 67 157 236c0 171 -75 237 -157 237c-84 0 -159 -66 -159 -237c0 -169 75 -236 159 -236zM310 614c-60 0 -148 29 -159 157h40
c9 -80 55 -120 119 -120s110 40 119 120h40c-13 -128 -97 -157 -159 -157z" />
    <glyph glyph-name="ohungarumlaut" unicode="&#x151;" horiz-adv-x="619" 
d="M308 -12c-143 0 -266 109 -266 262c0 163 133 267 269 267c143 0 266 -109 266 -261c0 -163 -130 -268 -269 -268zM310 17c82 0 157 67 157 236c0 171 -75 237 -157 237c-84 0 -159 -66 -159 -237c0 -169 75 -236 159 -236zM218 597l108 179h105v-7l-194 -172h-19z
M394 597l109 179h105v-7l-194 -172h-20z" />
    <glyph glyph-name="omacron" unicode="&#x14d;" horiz-adv-x="619" 
d="M308 -12c-143 0 -266 109 -266 262c0 163 133 267 269 267c143 0 266 -109 266 -261c0 -163 -130 -268 -269 -268zM310 17c82 0 157 67 157 236c0 171 -75 237 -157 237c-84 0 -159 -66 -159 -237c0 -169 75 -236 159 -236zM161 668v45h298v-45h-298z" />
    <glyph glyph-name="uni1ECD" unicode="&#x1ecd;" horiz-adv-x="619" 
d="M308 -12c-143 0 -266 109 -266 262c0 163 133 267 269 267c143 0 266 -109 266 -261c0 -163 -130 -268 -269 -268zM310 17c82 0 157 67 157 236c0 171 -75 237 -157 237c-84 0 -159 -66 -159 -237c0 -169 75 -236 159 -236zM309 -234c-35 0 -64 29 -64 64
c0 33 29 64 64 64s64 -31 64 -64c0 -35 -29 -64 -64 -64z" />
    <glyph glyph-name="racute" unicode="&#x155;" horiz-adv-x="416" 
d="M35 0v23l35 2c33 1 38 6 38 33v349l-73 41v6l167 64v-158c25 108 97 151 184 151h9v-95l-39 4c-117 8 -154 -43 -154 -115v-247c0 -27 4 -31 39 -32l54 -3v-23h-260zM223 597l109 179h105v-7l-194 -172h-20z" />
    <glyph glyph-name="rcaron" unicode="&#x159;" horiz-adv-x="416" 
d="M35 0v23l35 2c33 1 38 6 38 33v349l-73 41v6l167 64v-158c25 108 97 151 184 151h9v-95l-39 4c-117 8 -154 -43 -154 -115v-247c0 -27 4 -31 39 -32l54 -3v-23h-260zM93 793h20l145 -109l145 109h20l-161 -196h-8z" />
    <glyph glyph-name="uni0157" unicode="&#x157;" horiz-adv-x="416" 
d="M35 0v23l35 2c33 1 38 6 38 33v349l-73 41v6l167 64v-158c25 108 97 151 184 151h9v-95l-39 4c-117 8 -154 -43 -154 -115v-247c0 -27 4 -31 39 -32l54 -3v-23h-260zM83 -343l-11 20c59 43 90 83 90 124c0 39 -24 58 -63 67c-1 35 18 56 53 56c43 0 72 -35 72 -79
c0 -68 -57 -132 -141 -188z" />
    <glyph glyph-name="sacute" unicode="&#x15b;" horiz-adv-x="472" 
d="M213 -12c-49 0 -92 5 -135 17l-21 177h20l75 -142c15 -27 36 -28 73 -28c51 0 119 32 119 93c0 59 -46 83 -95 97l-60 16c-75 20 -127 74 -127 153c0 96 92 146 196 146c41 0 81 -7 119 -22l24 -157h-21l-80 131c-12 20 -37 23 -65 23c-51 0 -100 -29 -100 -84
s34 -80 75 -91l61 -16c84 -22 155 -66 155 -157s-90 -156 -213 -156zM213 597l109 179h105v-7l-194 -172h-20z" />
    <glyph glyph-name="scaron" unicode="&#x161;" horiz-adv-x="472" 
d="M213 -12c-49 0 -92 5 -135 17l-21 177h20l75 -142c15 -27 36 -28 73 -28c51 0 119 32 119 93c0 59 -46 83 -95 97l-60 16c-75 20 -127 74 -127 153c0 96 92 146 196 146c41 0 81 -7 119 -22l24 -157h-21l-80 131c-12 20 -37 23 -65 23c-51 0 -100 -29 -100 -84
s34 -80 75 -91l61 -16c84 -22 155 -66 155 -157s-90 -156 -213 -156zM83 793h20l145 -109l145 109h20l-161 -196h-8z" />
    <glyph glyph-name="scedilla" unicode="&#x15f;" horiz-adv-x="472" 
d="M213 -12c-49 0 -92 5 -135 17l-21 177h20l75 -142c15 -27 36 -28 73 -28c51 0 119 32 119 93c0 59 -46 83 -95 97l-60 16c-75 20 -127 74 -127 153c0 96 92 146 196 146c41 0 81 -7 119 -22l24 -157h-21l-80 131c-12 20 -37 23 -65 23c-51 0 -100 -29 -100 -84
s34 -80 75 -91l61 -16c84 -22 155 -66 155 -157s-90 -156 -213 -156zM188 -257c-45 0 -90 22 -90 56c0 16 15 30 38 26c1 -39 27 -60 66 -60c28 0 55 12 55 37c0 32 -52 58 -116 86l111 115h30l-81 -84c61 -31 93 -52 93 -95s-41 -81 -106 -81z" />
    <glyph glyph-name="scircumflex" unicode="&#x15d;" horiz-adv-x="472" 
d="M213 -12c-49 0 -92 5 -135 17l-21 177h20l75 -142c15 -27 36 -28 73 -28c51 0 119 32 119 93c0 59 -46 83 -95 97l-60 16c-75 20 -127 74 -127 153c0 96 92 146 196 146c41 0 81 -7 119 -22l24 -157h-21l-80 131c-12 20 -37 23 -65 23c-51 0 -100 -29 -100 -84
s34 -80 75 -91l61 -16c84 -22 155 -66 155 -157s-90 -156 -213 -156zM83 597l161 196h8l161 -196h-20l-145 110l-145 -110h-20z" />
    <glyph glyph-name="uni0219" unicode="&#x219;" horiz-adv-x="472" 
d="M213 -12c-49 0 -92 5 -135 17l-21 177h20l75 -142c15 -27 36 -28 73 -28c51 0 119 32 119 93c0 59 -46 83 -95 97l-60 16c-75 20 -127 74 -127 153c0 96 92 146 196 146c41 0 81 -7 119 -22l24 -157h-21l-80 131c-12 20 -37 23 -65 23c-51 0 -100 -29 -100 -84
s34 -80 75 -91l61 -16c84 -22 155 -66 155 -157s-90 -156 -213 -156zM174 -343l-11 20c59 43 90 83 90 124c0 39 -24 58 -63 67c-1 35 18 56 53 56c43 0 72 -35 72 -79c0 -68 -57 -132 -141 -188z" />
    <glyph glyph-name="tbar" unicode="&#x167;" horiz-adv-x="435" 
d="M225 451v-332c0 -60 24 -78 68 -78c33 0 64 7 93 22l9 -18c-30 -24 -98 -53 -159 -53c-71 0 -105 22 -105 101v358h-108v6l196 153h6v-108h194l-32 -51h-162zM31 325v35h371v-35h-371z" />
    <glyph glyph-name="tcaron" unicode="&#x165;" horiz-adv-x="395" 
d="M205 451v-332c0 -60 24 -78 68 -78c33 0 64 7 93 22l9 -18c-30 -24 -98 -53 -159 -53c-71 0 -105 22 -105 101v358h-108v6l196 153h6v-108h194l-32 -51h-162zM288 575l-11 19c59 43 90 83 90 124c0 39 -24 58 -63 67c-1 35 18 57 53 57c43 0 72 -35 72 -80
c0 -68 -57 -131 -141 -187z" />
    <glyph glyph-name="uni0163" unicode="&#x163;" horiz-adv-x="395" 
d="M205 451v-332c0 -60 24 -78 68 -78c33 0 64 7 93 22l9 -18c-30 -24 -98 -53 -159 -53c-71 0 -105 22 -105 101v358h-108v6l196 153h6v-108h194l-32 -51h-162zM103 -343l-11 20c59 43 90 83 90 124c0 39 -24 58 -63 67c-1 35 18 56 53 56c43 0 72 -35 72 -79
c0 -68 -57 -132 -141 -188z" />
    <glyph glyph-name="uni021B" unicode="&#x21b;" horiz-adv-x="395" 
d="M205 451v-332c0 -60 24 -78 68 -78c33 0 64 7 93 22l9 -18c-30 -24 -98 -53 -159 -53c-71 0 -105 22 -105 101v358h-108v6l196 153h6v-108h194l-32 -51h-162zM103 -343l-11 20c59 43 90 83 90 124c0 39 -24 58 -63 67c-1 35 18 56 53 56c43 0 72 -35 72 -79
c0 -68 -57 -132 -141 -188z" />
    <glyph glyph-name="ubreve" unicode="&#x16d;" horiz-adv-x="611" 
d="M250 -12c-98 0 -154 53 -154 200v274l-72 18v22h166v-297c0 -120 35 -160 106 -160c66 0 120 44 120 161v256l-71 18v22h165v-458h77v-22l-171 -31v135c-21 -92 -83 -138 -166 -138zM301 614c-60 0 -148 29 -159 157h40c9 -80 55 -120 119 -120s110 40 119 120h40
c-13 -128 -97 -157 -159 -157z" />
    <glyph glyph-name="uhungarumlaut" unicode="&#x171;" horiz-adv-x="611" 
d="M250 -12c-98 0 -154 53 -154 200v274l-72 18v22h166v-297c0 -120 35 -160 106 -160c66 0 120 44 120 161v256l-71 18v22h165v-458h77v-22l-171 -31v135c-21 -92 -83 -138 -166 -138zM209 597l108 179h105v-7l-194 -172h-19zM385 597l109 179h105v-7l-194 -172h-20z" />
    <glyph glyph-name="umacron" unicode="&#x16b;" horiz-adv-x="611" 
d="M250 -12c-98 0 -154 53 -154 200v274l-72 18v22h166v-297c0 -120 35 -160 106 -160c66 0 120 44 120 161v256l-71 18v22h165v-458h77v-22l-171 -31v135c-21 -92 -83 -138 -166 -138zM152 668v45h298v-45h-298z" />
    <glyph glyph-name="uogonek" unicode="&#x173;" horiz-adv-x="611" 
d="M250 -12c-98 0 -154 53 -154 200v274l-72 18v22h166v-297c0 -120 35 -160 106 -160c66 0 120 44 120 161v256l-71 18v22h165v-458h77v-22l-153 -27c-37 -35 -81 -84 -81 -128c0 -40 33 -60 76 -60c24 0 46 7 65 15l2 -21c-23 -15 -63 -29 -100 -29c-54 0 -104 29 -104 80
c0 52 72 111 124 147v127c-21 -92 -83 -138 -166 -138z" />
    <glyph glyph-name="uring" unicode="&#x16f;" horiz-adv-x="611" 
d="M250 -12c-98 0 -154 53 -154 200v274l-72 18v22h166v-297c0 -120 35 -160 106 -160c66 0 120 44 120 161v256l-71 18v22h165v-458h77v-22l-171 -31v135c-21 -92 -83 -138 -166 -138zM301 585c-63 0 -115 49 -115 111c0 61 52 112 115 112c65 0 117 -51 117 -112
c0 -62 -52 -111 -117 -111zM301 621c45 0 76 31 76 75s-31 75 -76 75c-44 0 -75 -31 -75 -75s31 -75 75 -75z" />
    <glyph glyph-name="utilde" unicode="&#x169;" horiz-adv-x="611" 
d="M250 -12c-98 0 -154 53 -154 200v274l-72 18v22h166v-297c0 -120 35 -160 106 -160c66 0 120 44 120 161v256l-71 18v22h165v-458h77v-22l-171 -31v135c-21 -92 -83 -138 -166 -138zM379 629c-70 0 -106 68 -162 68c-33 0 -53 -21 -56 -61h-17c0 67 27 131 84 131
c62 0 104 -68 159 -68c31 0 51 20 54 59h17c-1 -88 -39 -129 -79 -129z" />
    <glyph glyph-name="uni1EE5" unicode="&#x1ee5;" horiz-adv-x="611" 
d="M250 -12c-98 0 -154 53 -154 200v274l-72 18v22h166v-297c0 -120 35 -160 106 -160c66 0 120 44 120 161v256l-71 18v22h165v-458h77v-22l-171 -31v135c-21 -92 -83 -138 -166 -138zM311 -234c-35 0 -64 29 -64 64c0 33 29 64 64 64s64 -31 64 -64c0 -35 -29 -64 -64 -64
z" />
    <glyph glyph-name="wacute" unicode="&#x1e83;" horiz-adv-x="872" 
d="M268 -11l-194 450c-12 27 -18 38 -49 39l-29 1v23h243v-23l-33 -1c-31 -1 -42 -13 -32 -36l143 -331l105 241l-63 150h201v-23l-41 -1c-31 -1 -41 -13 -32 -36l135 -330l132 314c16 36 3 51 -29 52l-36 1v23h190v-23l-32 -1c-31 -1 -41 -13 -54 -42l-193 -447h-27
l-136 326l-142 -326h-27zM422 597l109 179h105v-7l-194 -172h-20z" />
    <glyph glyph-name="wcircumflex" unicode="&#x175;" horiz-adv-x="872" 
d="M268 -11l-194 450c-12 27 -18 38 -49 39l-29 1v23h243v-23l-33 -1c-31 -1 -42 -13 -32 -36l143 -331l105 241l-63 150h201v-23l-41 -1c-31 -1 -41 -13 -32 -36l135 -330l132 314c16 36 3 51 -29 52l-36 1v23h190v-23l-32 -1c-31 -1 -41 -13 -54 -42l-193 -447h-27
l-136 326l-142 -326h-27zM292 597l161 196h8l161 -196h-20l-145 110l-145 -110h-20z" />
    <glyph glyph-name="wdieresis" unicode="&#x1e85;" horiz-adv-x="872" 
d="M268 -11l-194 450c-12 27 -18 38 -49 39l-29 1v23h243v-23l-33 -1c-31 -1 -42 -13 -32 -36l143 -331l105 241l-63 150h201v-23l-41 -1c-31 -1 -41 -13 -32 -36l135 -330l132 314c16 36 3 51 -29 52l-36 1v23h190v-23l-32 -1c-31 -1 -41 -13 -54 -42l-193 -447h-27
l-136 326l-142 -326h-27zM573 642c-35 0 -64 30 -64 65c0 33 29 63 64 63s64 -30 64 -63c0 -35 -29 -65 -64 -65zM341 642c-35 0 -64 30 -64 65c0 33 29 63 64 63s64 -30 64 -63c0 -35 -29 -65 -64 -65z" />
    <glyph glyph-name="wgrave" unicode="&#x1e81;" horiz-adv-x="872" 
d="M268 -11l-194 450c-12 27 -18 38 -49 39l-29 1v23h243v-23l-33 -1c-31 -1 -42 -13 -32 -36l143 -331l105 241l-63 150h201v-23l-41 -1c-31 -1 -41 -13 -32 -36l135 -330l132 314c16 36 3 51 -29 52l-36 1v23h190v-23l-32 -1c-31 -1 -41 -13 -54 -42l-193 -447h-27
l-136 326l-142 -326h-27zM495 597h-20l-194 172v7h105z" />
    <glyph glyph-name="ycircumflex" unicode="&#x177;" horiz-adv-x="567" 
d="M141 -253c-29 0 -52 21 -52 50c0 33 27 71 120 87l53 116l-185 439c-12 27 -18 38 -49 39l-29 1v23h243v-23l-33 -1c-31 -1 -41 -13 -32 -36l137 -328l139 312c16 36 3 51 -29 52l-37 1v23h190v-23l-32 -1c-31 -1 -41 -13 -54 -42l-268 -593c-29 -64 -40 -96 -82 -96z
M143 597l161 196h8l161 -196h-20l-145 110l-145 -110h-20z" />
    <glyph glyph-name="ygrave" unicode="&#x1ef3;" horiz-adv-x="567" 
d="M141 -253c-29 0 -52 21 -52 50c0 33 27 71 120 87l53 116l-185 439c-12 27 -18 38 -49 39l-29 1v23h243v-23l-33 -1c-31 -1 -41 -13 -32 -36l137 -328l139 312c16 36 3 51 -29 52l-37 1v23h190v-23l-32 -1c-31 -1 -41 -13 -54 -42l-268 -593c-29 -64 -40 -96 -82 -96z
M346 597h-20l-194 172v7h105z" />
    <glyph glyph-name="uni0233" unicode="&#x233;" horiz-adv-x="567" 
d="M141 -253c-29 0 -52 21 -52 50c0 33 27 71 120 87l53 116l-185 439c-12 27 -18 38 -49 39l-29 1v23h243v-23l-33 -1c-31 -1 -41 -13 -32 -36l137 -328l139 312c16 36 3 51 -29 52l-37 1v23h190v-23l-32 -1c-31 -1 -41 -13 -54 -42l-268 -593c-29 -64 -40 -96 -82 -96z
M159 668v45h298v-45h-298z" />
    <glyph glyph-name="zacute" unicode="&#x17a;" horiz-adv-x="528" 
d="M30 0l331 474h-158c-23 0 -34 -4 -45 -21l-98 -147h-18l47 196h396l-330 -474h164c23 0 32 4 47 23l115 149h19l-63 -200h-407zM236 597l109 179h105v-7l-194 -172h-20z" />
    <glyph glyph-name="zcaron" unicode="&#x17e;" horiz-adv-x="528" 
d="M30 0l331 474h-158c-23 0 -34 -4 -45 -21l-98 -147h-18l47 196h396l-330 -474h164c23 0 32 4 47 23l115 149h19l-63 -200h-407zM106 793h20l145 -109l145 109h20l-161 -196h-8z" />
    <glyph glyph-name="zdotaccent" unicode="&#x17c;" horiz-adv-x="528" 
d="M30 0l331 474h-158c-23 0 -34 -4 -45 -21l-98 -147h-18l47 196h396l-330 -474h164c23 0 32 4 47 23l115 149h19l-63 -200h-407zM271 657c-35 0 -64 29 -64 64c0 33 29 64 64 64s64 -31 64 -64c0 -35 -29 -64 -64 -64z" />
    <glyph glyph-name="uni0259" unicode="&#x259;" horiz-adv-x="577" 
d="M281 518c144 0 253 -98 253 -263c0 -160 -119 -266 -252 -266c-93 0 -203 55 -232 204h382v19c0 146 -81 246 -192 246c-64 0 -143 -20 -180 -135h-23c31 135 121 195 244 195zM285 13c72 0 129 50 144 151h-263c3 -83 36 -151 119 -151z" />
    <glyph glyph-name="uni0410" unicode="&#x410;" horiz-adv-x="818" 
d="M390 794l294 -733c11 -25 21 -31 52 -34l44 -3v-24h-289v24l50 3c32 3 44 9 33 34l-86 218h-283l-86 -218c-11 -25 1 -31 33 -34l50 -3v-24h-218v24l44 3c29 3 40 9 51 34l295 733h16zM221 319h252l-126 320z" />
    <glyph glyph-name="uni0411" unicode="&#x411;" horiz-adv-x="763" 
d="M505 726h-249v-295h116c223 0 338 -63 338 -206c0 -137 -114 -225 -338 -225h-307v24l45 3c29 3 45 8 45 36v632c0 28 -16 33 -45 36l-45 3v24h555l34 -222h-18l-103 174c-8 15 -12 16 -28 16zM256 31h90c171 0 251 54 251 186c0 133 -82 183 -239 183h-102v-369z" />
    <glyph glyph-name="uni0412" unicode="&#x412;" horiz-adv-x="763" 
d="M55 0v24l45 3c29 3 45 8 45 36v632c0 28 -16 33 -45 36l-45 3v24h299c172 0 290 -41 290 -172c0 -100 -83 -169 -211 -182v-2c157 0 267 -58 267 -183c0 -133 -107 -219 -318 -219h-327zM246 416h118c112 0 173 58 173 158c0 109 -67 153 -192 153h-99v-311zM246 31h110
c157 0 231 52 231 180c0 127 -83 174 -219 174h-122v-354z" />
    <glyph glyph-name="uni0413" unicode="&#x413;" horiz-adv-x="673" 
d="M256 726v-663c0 -28 15 -34 46 -35l86 -2v-26h-323v24l45 3c29 3 45 8 45 36v632c0 28 -16 33 -45 36l-45 3v24h550l34 -222h-18l-103 174c-8 15 -12 16 -28 16h-244z" />
    <glyph glyph-name="uni0414" unicode="&#x414;" horiz-adv-x="801" 
d="M122 -12l-75 -147h-17l8 190h82c46 110 92 307 92 664c0 28 -16 33 -45 36l-45 3v24h610v-24l-45 -3c-29 -3 -45 -8 -45 -36v-664h104l8 -190h-17l-75 147c-5 9 -11 12 -26 12h-488c-16 0 -21 -3 -26 -12zM541 31v696h-290c0 -383 -46 -585 -91 -696h381z" />
    <glyph glyph-name="uni0415" unicode="&#x415;" horiz-adv-x="770" 
d="M55 0v24l45 3c29 3 45 8 45 36v632c0 28 -16 33 -45 36l-45 3v24h557l33 -222h-18l-102 174c-8 15 -12 16 -29 16h-250v-313h150c17 0 19 2 22 13l40 118h18v-297h-18l-40 117c-4 11 -5 13 -22 13h-150v-345h299c16 0 19 2 28 14l137 178h18l-68 -224h-605z" />
    <glyph glyph-name="uni0401" unicode="&#x401;" horiz-adv-x="770" 
d="M55 0v24l45 3c29 3 45 8 45 36v632c0 28 -16 33 -45 36l-45 3v24h557l33 -222h-18l-102 174c-8 15 -12 16 -29 16h-250v-313h150c17 0 19 2 22 13l40 118h18v-297h-18l-40 117c-4 11 -5 13 -22 13h-150v-345h299c16 0 19 2 28 14l137 178h18l-68 -224h-605zM269 854
c-35 0 -64 29 -64 64c0 33 29 64 64 64s64 -31 64 -64c0 -35 -29 -64 -64 -64zM501 854c-35 0 -64 29 -64 64c0 33 29 64 64 64s64 -31 64 -64c0 -35 -29 -64 -64 -64z" />
    <glyph glyph-name="uni0416" unicode="&#x416;" horiz-adv-x="1182" 
d="M158 0h-140l423 421l-287 281c-21 21 -33 26 -73 29l-52 3v24h264v-24l-64 -3c-31 -2 -40 -10 -26 -24l334 -327v315c0 28 -16 33 -45 36l-45 3v24h282v-24l-45 -3c-31 -3 -46 -8 -46 -36v-315l334 327c14 14 5 22 -26 24l-64 3v24h264v-24l-52 -3c-40 -3 -57 -8 -78 -29
l-281 -275l429 -427h-147l-379 377v-314c0 -28 15 -33 46 -36l45 -3v-24h-282v24l45 3c29 3 45 8 45 36v314z" />
    <glyph glyph-name="uni0417" unicode="&#x417;" horiz-adv-x="689" 
d="M305 20c139 0 218 54 218 183c0 133 -77 182 -204 182h-87v31h83c105 0 163 61 163 168c0 112 -73 158 -182 158c-15 0 -31 -2 -48 -5c-20 -5 -31 -9 -46 -34l-97 -159h-18l36 204c51 20 108 27 189 27c144 0 273 -44 273 -179c0 -104 -83 -179 -211 -192v-2
c154 0 262 -60 262 -191c0 -136 -122 -223 -320 -223c-89 0 -150 7 -206 26l-41 237h18l104 -185c11 -18 24 -30 39 -36c19 -7 39 -10 75 -10z" />
    <glyph glyph-name="uni0418" unicode="&#x418;" horiz-adv-x="920" 
d="M65 0v24l45 3c29 3 45 8 45 36v632c0 28 -16 33 -45 36l-45 3v24h282v-24l-45 -3c-31 -3 -46 -8 -46 -36v-526l407 497v29c0 28 -16 33 -45 36l-45 3v24h282v-24l-45 -3c-29 -3 -45 -8 -45 -36v-632c0 -28 16 -33 45 -36l45 -3v-24h-282v24l45 3c29 3 45 8 45 36v544
l-407 -497v-47c0 -28 15 -33 46 -36l45 -3v-24h-282z" />
    <glyph glyph-name="uni0419" unicode="&#x419;" horiz-adv-x="920" 
d="M65 0v24l45 3c29 3 45 8 45 36v632c0 28 -16 33 -45 36l-45 3v24h282v-24l-45 -3c-31 -3 -46 -8 -46 -36v-526l407 497v29c0 28 -16 33 -45 36l-45 3v24h282v-24l-45 -3c-29 -3 -45 -8 -45 -36v-632c0 -28 16 -33 45 -36l45 -3v-24h-282v24l45 3c29 3 45 8 45 36v544
l-407 -497v-47c0 -28 15 -33 46 -36l45 -3v-24h-282zM461 829c-111 0 -160 71 -160 156h73c0 -100 36 -127 87 -127c53 0 87 25 87 127h73c0 -96 -64 -156 -160 -156z" />
    <glyph glyph-name="uni041A" unicode="&#x41a;" horiz-adv-x="831" 
d="M55 0v24l45 3c29 3 45 8 45 36v632c0 28 -16 33 -45 36l-45 3v24h282v-24l-45 -3c-31 -3 -46 -8 -46 -36v-315l350 327c13 12 7 21 -26 24l-64 3v24h264v-24l-52 -3c-40 -3 -57 -9 -78 -29l-295 -276l458 -426h-142l-415 377v-314c0 -28 15 -33 46 -36l45 -3v-24h-282z
" />
    <glyph glyph-name="uni041B" unicode="&#x41b;" horiz-adv-x="802" 
d="M167 63c-29 -56 -57 -75 -88 -75c-28 0 -47 17 -47 44c0 41 34 78 118 93c64 145 76 311 76 570c0 28 -16 33 -45 36l-45 3v24h601v-24l-45 -3c-29 -3 -45 -8 -45 -36v-632c0 -28 16 -33 45 -36l45 -3v-24h-282v24l45 3c29 3 45 8 45 36v664h-280
c0 -309 -17 -508 -98 -664z" />
    <glyph glyph-name="uni041C" unicode="&#x41c;" horiz-adv-x="1053" 
d="M35 0v24l44 3c29 3 43 8 46 36l40 632c3 28 -16 33 -45 36l-45 3v24h223l224 -474l224 474h213v-24l-45 -3c-31 -3 -49 -8 -46 -36l40 -632c3 -28 15 -33 46 -36l45 -3v-24h-282v24l44 3c31 3 49 8 46 36l-40 653l-278 -588h-6l-279 587l-40 -652c-3 -28 15 -33 44 -36
l46 -3v-24h-219z" />
    <glyph glyph-name="uni041D" unicode="&#x41d;" horiz-adv-x="920" 
d="M55 0v24l45 3c29 3 45 8 45 36v632c0 28 -16 33 -45 36l-45 3v24h282v-24l-45 -3c-31 -3 -46 -8 -46 -36v-277h407v277c0 28 -16 33 -45 36l-45 3v24h282v-24l-45 -3c-29 -3 -45 -8 -45 -36v-632c0 -28 16 -33 45 -36l45 -3v-24h-282v24l45 3c29 3 45 8 45 36v315h-407
v-315c0 -28 15 -33 46 -36l45 -3v-24h-282z" />
    <glyph glyph-name="uni041E" unicode="&#x41e;" horiz-adv-x="888" 
d="M447 -12c-220 0 -399 157 -399 393c0 237 179 394 399 394s399 -157 399 -394c0 -236 -179 -393 -399 -393zM447 21c162 0 283 131 283 360c0 231 -121 361 -283 361c-163 0 -284 -130 -284 -361c0 -229 121 -360 284 -360z" />
    <glyph glyph-name="uni041F" unicode="&#x41f;" horiz-adv-x="902" 
d="M65 758h772v-24l-45 -3c-29 -3 -45 -8 -45 -36v-632c0 -28 16 -33 45 -36l45 -3v-24h-282v24l45 3c29 3 45 8 45 36v664h-389v-664c0 -28 15 -33 46 -36l45 -3v-24h-282v24l45 3c29 3 45 8 45 36v632c0 28 -16 33 -45 36l-45 3v24z" />
    <glyph glyph-name="uni0420" unicode="&#x420;" horiz-adv-x="728" 
d="M55 0v24l45 3c29 3 45 8 45 36v632c0 28 -16 33 -45 36l-45 3v24h316c176 0 319 -37 319 -201c0 -163 -143 -207 -319 -207h-100v32h91c135 0 215 41 215 172c0 129 -80 173 -215 173h-116v-664c0 -28 15 -34 46 -35l86 -2v-26h-323z" />
    <glyph glyph-name="uni0421" unicode="&#x421;" horiz-adv-x="840" 
d="M479 -12c-251 0 -431 151 -431 393c0 243 181 394 436 394c83 0 179 -13 240 -45l42 -217h-18l-113 182c-15 23 -23 30 -47 37c-31 9 -64 11 -108 11c-163 0 -317 -97 -317 -342c0 -221 120 -381 325 -381c44 0 77 2 108 11c24 7 32 14 47 37l113 182h18l-42 -217
c-61 -32 -168 -45 -253 -45z" />
    <glyph glyph-name="uni0422" unicode="&#x422;" horiz-adv-x="786" 
d="M222 0v25l60 3c29 1 45 7 45 35v666h-174c-17 0 -22 -1 -29 -16l-88 -189h-18l24 234h671l25 -234h-18l-89 189c-7 15 -12 16 -28 16h-174v-666c0 -28 14 -32 45 -35l60 -3v-25h-312z" />
    <glyph glyph-name="uni0423" unicode="&#x423;" horiz-adv-x="780" 
d="M685 697l-326 -628c-31 -60 -57 -81 -88 -81c-28 0 -47 17 -47 44c0 43 36 75 125 95l35 67l-279 503c-15 25 -22 31 -51 34l-44 3v24h292v-24l-50 -3c-32 -3 -46 -11 -33 -34l220 -397l206 397c12 24 -2 31 -33 34l-50 3v24h218v-24l-44 -3c-29 -3 -39 -10 -51 -34z" />
    <glyph glyph-name="uni0424" unicode="&#x424;" horiz-adv-x="948" 
d="M333 -20v24l45 3c29 3 45 8 45 36v46c-235 13 -388 115 -388 292c0 178 153 280 388 293v41c0 28 -16 33 -45 36l-45 3v24h282v-24l-45 -3c-31 -3 -46 -8 -46 -36v-41c236 -13 389 -113 389 -293c0 -179 -153 -279 -389 -292v-46c0 -28 15 -33 46 -36l45 -3v-24h-282z
M797 381c0 167 -100 248 -273 260v-519c173 12 273 92 273 259zM150 381c0 -167 100 -247 273 -259v519c-173 -12 -273 -93 -273 -260z" />
    <glyph glyph-name="uni0425" unicode="&#x425;" horiz-adv-x="889" 
d="M-4 0v24l43 3c27 2 48 13 65 34l256 315l-232 321c-16 23 -30 31 -58 34l-43 3v24h295v-24l-50 -4c-31 -3 -42 -10 -26 -33l177 -244l198 244c16 20 9 31 -20 33l-50 4v24h222v-24l-43 -3c-27 -2 -49 -13 -66 -34l-221 -272l263 -364c16 -23 30 -31 59 -34l42 -3v-24
h-295v24l50 4c31 3 42 10 26 33l-207 287l-233 -287c-17 -21 -12 -30 20 -33l50 -4v-24h-222z" />
    <glyph glyph-name="uni0426" unicode="&#x426;" horiz-adv-x="906" 
d="M741 0h-676v24l45 3c29 3 45 8 45 36v632c0 28 -16 33 -45 36l-45 3v24h282v-24l-45 -3c-29 -3 -45 -8 -45 -36v-664h389v664c0 28 -15 33 -46 36l-45 3v24h282v-24l-45 -3c-29 -3 -45 -8 -45 -36v-664h104l8 -190h-17l-75 147c-5 9 -11 12 -26 12z" />
    <glyph glyph-name="uni0427" unicode="&#x427;" horiz-adv-x="860" 
d="M115 546v149c0 28 -16 33 -45 36l-45 3v24h282v-24l-45 -3c-31 -3 -46 -8 -46 -36v-135c0 -167 68 -207 224 -207c69 0 118 10 163 25v317c0 28 -16 33 -45 36l-45 3v24h282v-24l-45 -3c-29 -3 -45 -8 -45 -36v-632c0 -28 16 -33 45 -36l45 -3v-24h-282v24l45 3
c29 3 45 8 45 36v281c-47 -15 -117 -28 -186 -28c-168 0 -302 39 -302 230z" />
    <glyph glyph-name="uni0428" unicode="&#x428;" horiz-adv-x="1202" 
d="M1137 0h-1072v24l45 3c29 3 45 8 45 36v632c0 28 -16 33 -45 36l-45 3v24h282v-24l-45 -3c-29 -3 -45 -8 -45 -36v-664h294v664c0 28 -15 33 -46 36l-45 3v24h282v-24l-45 -3c-29 -3 -45 -8 -45 -36v-664h294v664c0 28 -15 33 -46 36l-45 3v24h282v-24l-45 -3
c-29 -3 -45 -8 -45 -36v-632c0 -28 16 -33 45 -36l45 -3v-24z" />
    <glyph glyph-name="uni0429" unicode="&#x429;" horiz-adv-x="1206" 
d="M1041 0h-976v24l45 3c29 3 45 8 45 36v632c0 28 -16 33 -45 36l-45 3v24h282v-24l-45 -3c-29 -3 -45 -8 -45 -36v-664h294v664c0 28 -15 33 -46 36l-45 3v24h282v-24l-45 -3c-29 -3 -45 -8 -45 -36v-664h294v664c0 28 -15 33 -46 36l-45 3v24h282v-24l-45 -3
c-29 -3 -45 -8 -45 -36v-664h104l8 -190h-17l-75 147c-5 9 -11 12 -26 12z" />
    <glyph glyph-name="uni042A" unicode="&#x42a;" horiz-adv-x="860" 
d="M376 442h116c223 0 338 -65 338 -212c0 -140 -115 -230 -338 -230h-307v24l45 3c29 3 45 8 45 36v666h-107c-17 0 -22 -1 -29 -16l-88 -189h-18l24 234h430v-24l-65 -3c-31 -3 -46 -8 -46 -36v-253zM376 31h90c171 0 251 56 251 191c0 137 -82 189 -239 189h-102v-380z
" />
    <glyph glyph-name="uni042B" unicode="&#x42b;" horiz-adv-x="1087" 
d="M256 442h116c223 0 338 -65 338 -212c0 -140 -115 -230 -338 -230h-307v24l45 3c29 3 45 8 45 36v632c0 28 -16 33 -45 36l-45 3v24h302v-24l-65 -3c-31 -1 -46 -8 -46 -36v-253zM256 31h90c171 0 251 56 251 191c0 137 -82 189 -239 189h-102v-380zM730 0v24l45 3
c29 3 45 8 45 36v632c0 28 -16 33 -45 36l-45 3v24h282v-24l-45 -3c-31 -3 -46 -8 -46 -36v-632c0 -28 15 -33 46 -36l45 -3v-24h-282z" />
    <glyph glyph-name="uni042C" unicode="&#x42c;" horiz-adv-x="740" 
d="M256 442h116c223 0 338 -65 338 -212c0 -140 -115 -230 -338 -230h-307v24l45 3c29 3 45 8 45 36v632c0 28 -16 33 -45 36l-45 3v24h302v-24l-65 -3c-31 -1 -46 -8 -46 -36v-253zM256 31h90c171 0 251 56 251 191c0 137 -82 189 -239 189h-102v-380z" />
    <glyph glyph-name="uni042D" unicode="&#x42d;" horiz-adv-x="840" 
d="M364 -12c-84 0 -193 12 -253 45l-42 217h18l113 -182c15 -23 23 -30 47 -37c31 -9 64 -11 108 -11c200 0 317 132 325 351h-284c-17 0 -18 -2 -22 -13l-40 -117h-18v297h18l40 -118c3 -11 5 -13 22 -13h284c-8 239 -157 336 -317 336c-44 0 -77 -2 -108 -11
c-24 -7 -32 -14 -47 -37l-113 -182h-18l42 217c59 32 155 45 240 45c255 0 436 -148 436 -384c0 -263 -180 -403 -431 -403z" />
    <glyph glyph-name="uni042E" unicode="&#x42e;" horiz-adv-x="1218" 
d="M65 0v24l45 3c29 3 45 8 45 36v632c0 28 -16 33 -45 36l-45 3v24h282v-24l-45 -3c-31 -3 -46 -8 -46 -36v-277h140c19 216 185 357 388 357c214 0 389 -157 389 -394c0 -236 -175 -393 -389 -393s-389 157 -389 390h-139v-315c0 -28 15 -33 46 -36l45 -3v-24h-282z
M784 21c156 0 273 131 273 360c0 231 -117 361 -273 361s-274 -130 -274 -361c0 -229 118 -360 274 -360z" />
    <glyph glyph-name="uni042F" unicode="&#x42f;" horiz-adv-x="778" 
d="M142 0h-127l308 354c-137 19 -221 89 -221 197c0 155 133 207 314 207h297v-24l-45 -3c-29 -3 -45 -8 -45 -36v-632c0 -28 16 -33 45 -36l45 -3v-24h-282v24l45 3c31 3 46 8 46 36v279h-83zM522 373v354h-84c-143 0 -223 -57 -223 -176c0 -121 80 -178 224 -178h83z" />
    <glyph glyph-name="uni0402" unicode="&#x402;" horiz-adv-x="882" 
d="M207 0v25l60 3c29 1 45 7 45 35v666h-144c-17 0 -22 -1 -29 -16l-88 -169h-18l24 214h631l25 -214h-18l-89 169c-7 15 -12 16 -28 16h-164v-378c39 60 117 101 213 101c131 0 206 -62 206 -229v-48c0 -108 -36 -139 -116 -206c-26 -21 -81 -59 -118 -86l-16 22
c120 99 149 124 149 243v57c0 144 -52 190 -152 190c-84 0 -139 -34 -166 -79v-253c0 -28 14 -32 45 -35l60 -3v-25h-312z" />
    <glyph glyph-name="uni0403" unicode="&#x403;" horiz-adv-x="673" 
d="M256 726v-663c0 -28 15 -34 46 -35l86 -2v-26h-323v24l45 3c29 3 45 8 45 36v632c0 28 -16 33 -45 36l-45 3v24h550l34 -222h-18l-103 174c-8 15 -12 16 -28 16h-244zM337 839l116 133h127v-2l-223 -131h-20z" />
    <glyph glyph-name="uni0404" unicode="&#x404;" horiz-adv-x="840" 
d="M479 -12c-251 0 -431 151 -431 393c0 243 181 394 436 394c83 0 179 -13 240 -45l42 -217h-18l-113 182c-15 23 -23 30 -47 37c-31 9 -64 11 -108 11c-161 0 -312 -94 -317 -330h273c17 0 19 2 22 13l40 118h18v-297h-18l-40 117c-4 11 -5 13 -22 13h-273
c8 -209 128 -357 325 -357c44 0 77 2 108 11c24 7 32 14 47 37l113 182h18l-42 -217c-61 -32 -168 -45 -253 -45z" />
    <glyph glyph-name="uni0405" unicode="&#x405;" horiz-adv-x="642" 
d="M283 -12c-77 0 -138 7 -194 26l-23 229h18l86 -177c9 -17 22 -29 39 -36c19 -7 39 -10 75 -10c104 0 192 52 192 141c0 96 -71 141 -177 175l-53 17c-117 37 -184 109 -184 221c0 128 128 201 262 201c64 0 121 -8 170 -27l36 -204h-18l-97 159c-15 25 -26 29 -46 34
c-19 4 -36 5 -59 5c-81 0 -160 -50 -160 -135c0 -68 38 -118 125 -146l53 -17c140 -46 239 -104 239 -240c0 -131 -128 -216 -284 -216z" />
    <glyph glyph-name="uni0406" unicode="&#x406;" horiz-adv-x="411" 
d="M55 0v24l45 3c29 3 45 8 45 36v632c0 28 -16 33 -45 36l-45 3v24h282v-24l-45 -3c-31 -3 -46 -8 -46 -36v-632c0 -28 15 -33 46 -36l45 -3v-24h-282z" />
    <glyph glyph-name="uni0407" unicode="&#x407;" horiz-adv-x="411" 
d="M55 0v24l45 3c29 3 45 8 45 36v632c0 28 -16 33 -45 36l-45 3v24h282v-24l-45 -3c-31 -3 -46 -8 -46 -36v-632c0 -28 15 -33 46 -36l45 -3v-24h-282zM80 854c-35 0 -64 29 -64 64c0 33 29 64 64 64s64 -31 64 -64c0 -35 -29 -64 -64 -64zM312 854c-35 0 -64 29 -64 64
c0 33 29 64 64 64s64 -31 64 -64c0 -35 -29 -64 -64 -64z" />
    <glyph glyph-name="uni0408" unicode="&#x408;" horiz-adv-x="394" 
d="M14 -117l-16 22c120 99 149 124 149 243v549c0 27 -15 31 -44 32l-50 2v27h289v-27l-50 -2c-29 -1 -44 -5 -44 -32v-522c0 -108 -36 -139 -116 -206c-26 -21 -81 -59 -118 -86z" />
    <glyph glyph-name="uni0409" unicode="&#x409;" horiz-adv-x="1110" 
d="M626 442h116c223 0 338 -65 338 -212c0 -140 -115 -230 -338 -230h-307v24l45 3c29 3 45 8 45 36v664h-260c0 -308 -18 -506 -98 -664c-28 -56 -57 -75 -88 -75c-28 0 -47 17 -47 44c0 41 34 78 118 93c64 145 76 311 76 570c0 28 -16 33 -45 36l-45 3v24h601v-24l-65 -3
c-31 -3 -46 -8 -46 -36v-253zM626 31h90c171 0 251 56 251 191c0 137 -82 189 -239 189h-102v-380z" />
    <glyph glyph-name="uni040A" unicode="&#x40a;" horiz-adv-x="1200" 
d="M65 0v24l45 3c29 3 45 8 45 36v632c0 28 -16 33 -45 36l-45 3v24h282v-24l-45 -3c-31 -3 -46 -8 -46 -36v-267h359v267c0 28 -16 33 -45 36l-45 3v24h302v-24l-65 -3c-31 -1 -46 -8 -46 -36v-267h116c223 0 338 -62 338 -205c0 -136 -115 -223 -338 -223h-307v24l45 3
c29 3 45 8 45 36v325h-359v-325c0 -28 15 -33 46 -36l45 -3v-24h-282zM716 31h90c171 0 251 55 251 184c0 133 -80 182 -239 182h-102v-366z" />
    <glyph glyph-name="uni040B" unicode="&#x40b;" horiz-adv-x="930" 
d="M207 0v25l60 3c29 1 45 7 45 35v666h-144c-17 0 -22 -1 -29 -16l-88 -169h-18l24 214h631l25 -214h-18l-89 169c-7 15 -12 16 -28 16h-164v-378c39 60 116 101 212 101c130 0 206 -54 206 -199v-190c0 -29 4 -32 39 -35l34 -3v-25h-174v235c0 121 -52 160 -152 160
c-84 0 -138 -34 -165 -79v-253c0 -28 14 -32 45 -35l60 -3v-25h-312z" />
    <glyph glyph-name="uni040C" unicode="&#x40c;" horiz-adv-x="831" 
d="M55 0v24l45 3c29 3 45 8 45 36v632c0 28 -16 33 -45 36l-45 3v24h282v-24l-45 -3c-31 -3 -46 -8 -46 -36v-315l350 327c13 12 7 21 -26 24l-64 3v24h264v-24l-52 -3c-40 -3 -57 -9 -78 -29l-295 -276l458 -426h-142l-415 377v-314c0 -28 15 -33 46 -36l45 -3v-24h-282z
M397 839l116 133h127v-2l-223 -131h-20z" />
    <glyph glyph-name="uni040E" unicode="&#x40e;" horiz-adv-x="780" 
d="M685 697l-326 -628c-31 -60 -57 -81 -88 -81c-28 0 -47 17 -47 44c0 43 36 75 125 95l35 67l-279 503c-15 25 -22 31 -51 34l-44 3v24h292v-24l-50 -3c-32 -3 -46 -11 -33 -34l220 -397l206 397c12 24 -2 31 -33 34l-50 3v24h218v-24l-44 -3c-29 -3 -39 -10 -51 -34z
M435 829c-111 0 -160 71 -160 156h73c0 -100 36 -127 87 -127c53 0 87 25 87 127h73c0 -96 -64 -156 -160 -156z" />
    <glyph glyph-name="uni040F" unicode="&#x40f;" horiz-adv-x="902" 
d="M443 -159l-40 147c-2 8 -11 12 -26 12h-312v24l45 3c29 3 45 8 45 36v632c0 28 -16 33 -45 36l-45 3v24h282v-24l-45 -3c-29 -3 -45 -8 -45 -36v-664h389v664c0 28 -15 33 -46 36l-45 3v24h282v-24l-45 -3c-29 -3 -45 -8 -45 -36v-632c0 -28 16 -33 45 -36l45 -3v-24
h-312c-15 0 -24 -4 -26 -12l-39 -147h-17z" />
    <glyph glyph-name="uni0490" unicode="&#x490;" horiz-adv-x="637" 
d="M614 726h-358v-663c0 -28 15 -34 46 -35l86 -2v-26h-323v24l45 3c29 3 45 8 45 36v632c0 28 -16 33 -45 36l-45 3v24h439c15 0 21 2 26 11l75 147h17z" />
    <glyph glyph-name="uni0462" unicode="&#x462;" horiz-adv-x="854" 
d="M370 363h116c180 0 328 -27 328 -173c0 -140 -145 -190 -328 -190h-307v24l45 3c29 3 45 8 45 36v536h-124c-17 0 -21 -1 -29 -16l-88 -159h-18l24 204h235v67c0 28 -16 33 -45 36l-45 3v24h282v-24l-45 -3c-31 -3 -46 -8 -46 -36v-67h235l25 -204h-18l-89 159
c-8 15 -12 16 -28 16h-125v-236zM370 31h90c130 0 241 17 241 151c0 139 -111 150 -229 150h-102v-301z" />
    <glyph glyph-name="uni0472" unicode="&#x472;" horiz-adv-x="894" 
d="M447 -12c-220 0 -399 157 -399 393c0 237 179 394 399 394s399 -157 399 -394c0 -236 -179 -393 -399 -393zM447 21c156 0 271 119 282 330c-251 -92 -331 89 -566 13c5 -219 127 -343 284 -343zM163 397c333 127 407 -60 567 -15c0 229 -123 360 -283 360
c-157 0 -279 -125 -284 -345z" />
    <glyph glyph-name="uni0474" unicode="&#x474;" horiz-adv-x="802" 
d="M656 597l-260 -622h-17l-301 722c-11 25 -22 31 -51 34l-44 3v24h287v-24l-50 -3c-32 -3 -44 -9 -33 -34l235 -572l196 476c64 157 113 174 147 174c28 0 47 -17 47 -44c0 -44 -38 -78 -138 -97c-7 -12 -13 -24 -18 -37z" />
    <glyph glyph-name="uni0492" unicode="&#x492;" horiz-adv-x="673" 
d="M256 726v-663c0 -28 15 -34 46 -35l86 -2v-26h-323v24l45 3c29 3 45 8 45 36v632c0 28 -16 33 -45 36l-45 3v24h550l34 -222h-18l-103 174c-8 15 -12 16 -28 16h-244zM65 354v40h377v-40h-377z" />
    <glyph glyph-name="uni0496" unicode="&#x496;" horiz-adv-x="1222" 
d="M158 0h-140l423 421l-287 281c-21 21 -33 26 -73 29l-52 3v24h264v-24l-64 -3c-31 -2 -40 -10 -26 -24l334 -327v315c0 28 -16 33 -45 36l-45 3v24h282v-24l-45 -3c-31 -3 -46 -8 -46 -36v-315l334 327c14 14 5 22 -26 24l-64 3v24h264v-24l-52 -3c-40 -3 -57 -8 -78 -29
l-281 -275l398 -396h81l8 -190h-17l-75 147c-5 7 -12 11 -21 12h-92l-379 377v-314c0 -28 15 -33 46 -36l45 -3v-24h-282v24l45 3c29 3 45 8 45 36v314z" />
    <glyph glyph-name="uni049A" unicode="&#x49a;" horiz-adv-x="874" 
d="M55 0v24l45 3c29 3 45 8 45 36v632c0 28 -16 33 -45 36l-45 3v24h282v-24l-45 -3c-31 -3 -46 -8 -46 -36v-315l350 327c13 12 7 21 -26 24l-64 3v24h264v-24l-52 -3c-40 -3 -57 -9 -78 -29l-295 -276l424 -395h97l8 -190h-17l-75 147c-5 7 -12 11 -21 12h-100l-415 377
v-314c0 -28 15 -33 46 -36l45 -3v-24h-282z" />
    <glyph glyph-name="uni04A2" unicode="&#x4a2;" horiz-adv-x="912" 
d="M765 31h92l8 -190h-17l-75 147c-5 9 -11 12 -26 12h-174v24l45 3c29 3 45 8 45 36v315h-407v-315c0 -28 15 -33 46 -36l45 -3v-24h-282v24l45 3c29 3 45 8 45 36v632c0 28 -16 33 -45 36l-45 3v24h282v-24l-45 -3c-31 -3 -46 -8 -46 -36v-277h407v277c0 28 -16 33 -45 36
l-45 3v24h282v-24l-45 -3c-29 -3 -45 -8 -45 -36v-664z" />
    <glyph glyph-name="uni04AE" unicode="&#x4ae;" horiz-adv-x="807" 
d="M230 0v25l60 3c29 1 45 7 45 35v279l-248 355c-16 24 -22 31 -51 34l-44 3v24h290v-24l-50 -3c-31 -3 -49 -11 -33 -34l221 -317l222 317c17 24 -2 31 -33 34l-50 3v24h220v-24l-44 -3c-29 -3 -35 -11 -51 -34l-248 -355v-279c0 -28 15 -32 46 -35l60 -3v-25h-312z" />
    <glyph glyph-name="uni04B0" unicode="&#x4b0;" horiz-adv-x="807" 
d="M230 0v25l60 3c29 1 45 7 45 35v279l-248 355c-16 24 -22 31 -51 34l-44 3v24h290v-24l-50 -3c-31 -3 -49 -11 -33 -34l221 -317l222 317c17 24 -2 31 -33 34l-50 3v24h220v-24l-44 -3c-29 -3 -35 -11 -51 -34l-248 -355v-279c0 -28 15 -32 46 -35l60 -3v-25h-312z
M156 303v40h483v-40h-483z" />
    <glyph glyph-name="uni04B2" unicode="&#x4b2;" horiz-adv-x="889" 
d="M39 0v24l43 3c27 2 48 13 65 34l256 315l-232 321c-16 23 -30 31 -58 34l-43 3v24h295v-24l-50 -4c-31 -3 -42 -10 -26 -33l177 -244l198 244c16 20 9 31 -20 33l-50 4v24h222v-24l-43 -3c-27 -2 -49 -13 -66 -34l-221 -272l285 -394h86l8 -190h-17l-75 147
c-5 9 -11 12 -26 12h-192v24l50 4c31 3 42 10 26 33l-207 287l-233 -287c-17 -21 -12 -30 20 -33l50 -4v-24h-222z" />
    <glyph glyph-name="uni04B6" unicode="&#x4b6;" horiz-adv-x="852" 
d="M687 0h-174v24l45 3c29 3 45 8 45 36v281c-47 -15 -117 -28 -186 -28c-168 0 -302 39 -302 230v149c0 28 -16 33 -45 36l-45 3v24h282v-24l-45 -3c-31 -3 -46 -8 -46 -36v-135c0 -167 68 -207 224 -207c69 0 118 10 163 25v317c0 28 -16 33 -45 36l-45 3v24h282v-24
l-45 -3c-29 -3 -45 -8 -45 -36v-664h92l8 -190h-17l-75 147c-5 9 -11 12 -26 12z" />
    <glyph glyph-name="uni04BA" unicode="&#x4ba;" horiz-adv-x="810" 
d="M705 212v-149c0 -28 16 -33 45 -36l45 -3v-24h-282v24l45 3c31 3 46 8 46 36v135c0 167 -68 207 -224 207c-69 0 -118 -10 -163 -25v-317c0 -28 16 -33 45 -36l45 -3v-24h-282v24l45 3c29 3 45 8 45 36v632c0 28 -16 33 -45 36l-45 3v24h282v-24l-45 -3
c-29 -3 -45 -8 -45 -36v-281c47 15 117 28 186 28c168 0 302 -39 302 -230z" />
    <glyph glyph-name="uni04C0" unicode="&#x4c0;" horiz-adv-x="411" 
d="M55 0v24l45 3c29 3 45 8 45 36v632c0 28 -16 33 -45 36l-45 3v24h282v-24l-45 -3c-31 -3 -46 -8 -46 -36v-632c0 -28 15 -33 46 -36l45 -3v-24h-282z" />
    <glyph glyph-name="uni04D8" unicode="&#x4d8;" horiz-adv-x="830" 
d="M408 -11c-183 0 -334 113 -361 301h633c3 15 3 33 3 44c0 249 -149 374 -322 374c-138 0 -270 -77 -294 -251h-24c16 197 164 318 363 318c210 0 377 -148 377 -393c0 -237 -158 -393 -375 -393zM408 21c130 0 241 91 265 227h-512c27 -145 123 -227 247 -227z" />
    <glyph glyph-name="uni04E2" unicode="&#x4e2;" horiz-adv-x="920" 
d="M65 0v24l45 3c29 3 45 8 45 36v632c0 28 -16 33 -45 36l-45 3v24h282v-24l-45 -3c-31 -3 -46 -8 -46 -36v-526l407 497v29c0 28 -16 33 -45 36l-45 3v24h282v-24l-45 -3c-29 -3 -45 -8 -45 -36v-632c0 -28 16 -33 45 -36l45 -3v-24h-282v24l45 3c29 3 45 8 45 36v544
l-407 -497v-47c0 -28 15 -33 46 -36l45 -3v-24h-282zM319 882v44h298v-44h-298z" />
    <glyph glyph-name="uni04E8" unicode="&#x4e8;" horiz-adv-x="888" 
d="M447 -12c-220 0 -399 157 -399 393c0 237 179 394 399 394s399 -157 399 -394c0 -236 -179 -393 -399 -393zM447 21c160 0 283 129 283 357h-567c0 -228 123 -357 284 -357zM447 742c-152 0 -272 -116 -283 -324h565c-13 208 -129 324 -282 324z" />
    <glyph glyph-name="uni04EE" unicode="&#x4ee;" horiz-adv-x="780" 
d="M685 697l-326 -628c-31 -60 -57 -81 -88 -81c-28 0 -47 17 -47 44c0 43 36 75 125 95l35 67l-279 503c-15 25 -22 31 -51 34l-44 3v24h292v-24l-50 -3c-32 -3 -46 -11 -33 -34l220 -397l206 397c12 24 -2 31 -33 34l-50 3v24h218v-24l-44 -3c-29 -3 -39 -10 -51 -34z
M280 882v44h298v-44h-298z" />
    <glyph glyph-name="uni0430" unicode="&#x430;" horiz-adv-x="544" 
d="M206 -12c-94 0 -159 63 -159 135c0 93 107 119 181 148c125 48 126 76 126 119c0 56 -33 99 -102 99c-80 0 -125 -58 -105 -151c-13 -3 -25 -4 -38 -4c-44 0 -68 19 -68 46c0 34 44 65 91 88c55 29 113 50 169 50c97 0 147 -39 146 -159l-3 -315h76v-22l-158 -29l-7 112
c-27 -88 -80 -117 -149 -117zM246 29c51 0 106 40 106 145l2 143c-27 -20 -46 -33 -85 -53c-69 -37 -114 -65 -114 -133c0 -52 30 -102 91 -102z" />
    <glyph glyph-name="uni0431" unicode="&#x431;" horiz-adv-x="623" 
d="M579 246c0 -150 -119 -258 -263 -258s-262 102 -262 326c0 197 73 387 357 435c75 12 104 17 104 44h20c0 -93 -41 -136 -168 -136c-193 0 -207 -30 -207 -139v-76c45 51 113 69 169 69c143 0 250 -109 250 -265zM317 17c92 0 155 85 155 229c0 160 -64 230 -176 230
c-34 0 -96 -9 -136 -54v-129c0 -195 56 -276 157 -276z" />
    <glyph glyph-name="uni0432" unicode="&#x432;" horiz-adv-x="559" 
d="M54 23l35 2c33 1 38 6 38 33v386c0 27 -6 30 -38 33l-35 2v23h215c119 0 219 -39 219 -122c0 -59 -40 -98 -135 -117v-1c116 -9 172 -57 172 -122c0 -87 -80 -140 -255 -140h-216v23zM263 475h-42v-203h48c93 0 113 52 113 103c0 76 -66 100 -119 100zM221 248v-221h42
c103 0 156 36 156 113c0 53 -32 108 -152 108h-46z" />
    <glyph glyph-name="uni0433" unicode="&#x433;" horiz-adv-x="499" 
d="M367 473h-146v-415c0 -27 4 -32 39 -33l54 -2v-23h-260v23l35 2c33 1 38 6 38 33v386c0 27 -6 30 -38 33l-35 2v23h406l19 -167h-17l-72 124c-7 11 -11 14 -23 14z" />
    <glyph glyph-name="uni0434" unicode="&#x434;" horiz-adv-x="567" 
d="M95 -13l-65 -124h-15l8 166h61c61 128 76 264 76 415c0 27 -6 30 -38 33l-35 2v23h439v-23l-34 -2c-34 -3 -39 -6 -39 -33v-415h81l8 -166h-15l-65 124c-5 11 -9 13 -21 13h-325c-12 0 -16 -2 -21 -13zM359 29v444h-170c-3 -181 -17 -324 -73 -444h243z" />
    <glyph glyph-name="uni0435" unicode="&#x435;" horiz-adv-x="587" 
d="M296 -12c-144 0 -253 98 -253 263c0 160 119 266 252 266c93 0 203 -55 232 -204h-382v-19c0 -146 81 -246 192 -246c64 0 143 20 180 135h23c-31 -135 -121 -195 -244 -195zM292 493c-72 0 -129 -50 -144 -151h263c-3 83 -36 151 -119 151z" />
    <glyph glyph-name="uni0451" unicode="&#x451;" horiz-adv-x="590" 
d="M296 -12c-144 0 -253 98 -253 263c0 160 119 266 252 266c93 0 203 -55 232 -204h-382v-19c0 -146 81 -246 192 -246c64 0 143 20 180 135h23c-31 -135 -121 -195 -244 -195zM292 493c-72 0 -129 -50 -144 -151h263c-3 83 -36 151 -119 151zM411 642c-35 0 -64 30 -64 65
c0 33 29 63 64 63s64 -30 64 -63c0 -35 -29 -65 -64 -65zM179 642c-35 0 -64 30 -64 65c0 33 29 63 64 63s64 -30 64 -63c0 -35 -29 -65 -64 -65z" />
    <glyph glyph-name="uni0436" unicode="&#x436;" horiz-adv-x="844" 
d="M123 0h-118l282 280l-168 163c-27 27 -39 31 -74 34l-33 2v23h209v-23l-36 -1c-35 -1 -36 -17 -16 -36l202 -196v198c0 27 -6 30 -38 33l-35 2v23h240v-23l-34 -2c-34 -3 -39 -6 -39 -33v-198l202 196c20 19 19 35 -16 36l-36 1v23h209v-23l-33 -2c-35 -3 -51 -7 -78 -34
l-162 -157l288 -286h-126l-248 244v-186c0 -27 4 -32 39 -33l34 -2v-23h-240v23l35 2c33 1 38 6 38 33v186z" />
    <glyph glyph-name="uni0437" unicode="&#x437;" horiz-adv-x="489" 
d="M215 -12c-105 0 -191 41 -191 108c0 35 28 54 65 54c7 0 14 -1 22 -2c8 -96 49 -134 117 -134c69 0 116 39 116 123c0 56 -29 111 -137 111h-42v24h44c88 0 107 58 107 113c0 83 -40 107 -95 107c-15 0 -25 -1 -32 -2c-15 -3 -22 -8 -35 -31l-83 -138h-18l28 174
c45 15 93 22 140 22c120 0 201 -40 201 -127c0 -64 -42 -108 -139 -127v-1c107 -9 167 -57 167 -132c0 -85 -74 -142 -235 -142z" />
    <glyph glyph-name="uni0438" unicode="&#x438;" horiz-adv-x="674" 
d="M127 58v386c0 27 -6 30 -38 33l-35 2v23h240v-23l-34 -2c-34 -3 -39 -6 -39 -33v-323l232 310v13c0 27 -6 30 -38 33l-35 2v23h240v-23l-34 -2c-34 -3 -39 -6 -39 -33v-386c0 -27 4 -32 39 -33l34 -2v-23h-240v23l35 2c33 1 38 6 38 33v325l-232 -310v-15
c0 -27 4 -32 39 -33l34 -2v-23h-240v23l35 2c33 1 38 6 38 33z" />
    <glyph glyph-name="uni0439" unicode="&#x439;" horiz-adv-x="674" 
d="M127 58v386c0 27 -6 30 -38 33l-35 2v23h240v-23l-34 -2c-34 -3 -39 -6 -39 -33v-323l232 310v13c0 27 -6 30 -38 33l-35 2v23h240v-23l-34 -2c-34 -3 -39 -6 -39 -33v-386c0 -27 4 -32 39 -33l34 -2v-23h-240v23l35 2c33 1 38 6 38 33v325l-232 -310v-15
c0 -27 4 -32 39 -33l34 -2v-23h-240v23l35 2c33 1 38 6 38 33zM337 614c-117 0 -170 72 -170 157h73c0 -109 54 -128 97 -128c44 0 97 19 97 128h73c0 -96 -70 -157 -170 -157z" />
    <glyph glyph-name="uni043A" unicode="&#x43a;" horiz-adv-x="630" 
d="M117 58v386c0 27 -6 30 -38 33l-35 2v23h240v-23l-34 -2c-34 -3 -39 -6 -39 -33v-195l222 193c21 19 19 35 -16 36l-36 1v23h209v-23l-33 -2c-33 -3 -51 -10 -78 -34l-183 -159l324 -284h-134l-275 241v-183c0 -27 4 -32 39 -33l34 -2v-23h-240v23l35 2c33 1 38 6 38 33z
" />
    <glyph glyph-name="uni043B" unicode="&#x43b;" horiz-adv-x="593" 
d="M147 69c-29 -67 -55 -81 -84 -81c-27 0 -43 17 -43 44c0 32 31 63 111 80c28 73 42 196 42 332c0 27 -6 30 -38 33l-40 2v23h444v-23l-34 -2c-34 -3 -39 -6 -39 -33v-386c0 -27 4 -32 39 -33l34 -2v-23h-240v23l35 2c33 1 38 6 38 33v415h-170c0 -188 -23 -332 -55 -404z
" />
    <glyph glyph-name="uni043C" unicode="&#x43c;" horiz-adv-x="770" 
d="M54 0v23l35 2c33 1 35 6 38 33l24 386c3 27 -5 30 -38 33l-35 2v23h175l134 -290l131 290h173v-23l-34 -2c-34 -3 -42 -6 -39 -33l25 -386c3 -27 4 -30 39 -33l34 -2v-23h-240v23l35 2c33 3 41 6 38 33l-25 395l-167 -371h-6l-171 372l-24 -396c-3 -27 4 -32 39 -33
l34 -2v-23h-175z" />
    <glyph glyph-name="uni043D" unicode="&#x43d;" horiz-adv-x="659" 
d="M127 58v386c0 27 -6 30 -38 33l-35 2v23h240v-23l-34 -2c-34 -3 -39 -6 -39 -33v-167h217v167c0 27 -6 30 -38 33l-35 2v23h240v-23l-34 -2c-34 -3 -39 -6 -39 -33v-386c0 -27 4 -32 39 -33l34 -2v-23h-240v23l35 2c33 1 38 6 38 33v185h-217v-185c0 -27 4 -32 39 -33
l34 -2v-23h-240v23l35 2c33 1 38 6 38 33z" />
    <glyph glyph-name="uni043E" unicode="&#x43e;" horiz-adv-x="613" 
d="M308 -12c-143 0 -266 109 -266 262c0 163 133 267 269 267c143 0 266 -109 266 -261c0 -163 -130 -268 -269 -268zM310 17c82 0 157 67 157 236c0 171 -75 237 -157 237c-84 0 -159 -66 -159 -237c0 -169 75 -236 159 -236z" />
    <glyph glyph-name="uni043F" unicode="&#x43f;" horiz-adv-x="654" 
d="M433 473h-212v-415c0 -27 4 -30 39 -33l24 -2v-23h-230v23l35 2c33 1 38 6 38 33v386c0 27 -6 30 -38 33l-35 2v23h546v-23l-34 -2c-34 -3 -39 -6 -39 -33v-386c0 -27 4 -32 39 -33l34 -2v-23h-230v23l25 2c33 3 38 6 38 33v415z" />
    <glyph glyph-name="uni0440" unicode="&#x440;" horiz-adv-x="632" 
d="M26 -248v23l35 2c33 1 38 6 38 33v597l-73 41v6l167 64v-74c32 44 88 73 152 73c127 0 225 -102 225 -265c0 -155 -102 -264 -238 -264c-59 0 -108 25 -139 65v-243c0 -27 4 -31 39 -32l60 -3v-23h-266zM299 472c-36 0 -75 -10 -106 -45v-356c31 -35 69 -44 104 -44
c100 0 167 92 167 225c0 126 -67 220 -165 220z" />
    <glyph glyph-name="uni0441" unicode="&#x441;" horiz-adv-x="568" 
d="M295 -12c-145 0 -253 106 -253 263c0 156 123 266 271 266c87 0 180 -41 180 -108c0 -35 -28 -54 -65 -54c-7 0 -14 1 -22 2c-8 96 -58 134 -123 134c-73 0 -136 -58 -139 -184c-3 -139 72 -259 192 -259c60 0 137 27 166 135h23c-27 -139 -118 -195 -230 -195z" />
    <glyph glyph-name="uni0442" unicode="&#x442;" horiz-adv-x="550" 
d="M228 473h-86c-12 0 -16 -3 -23 -14l-77 -124h-17l24 167h452l24 -167h-17l-77 124c-7 11 -11 14 -23 14h-86v-415c0 -27 4 -32 39 -33l35 -2v-23h-241v23l35 2c33 1 38 6 38 33v415z" />
    <glyph glyph-name="uni0443" unicode="&#x443;" horiz-adv-x="582" 
d="M141 -253c-29 0 -52 21 -52 50c0 33 27 71 120 87l53 116l-185 439c-12 27 -18 38 -49 39l-29 1v23h243v-23l-33 -1c-31 -1 -41 -13 -32 -36l137 -328l139 312c16 36 3 51 -29 52l-37 1v23h190v-23l-32 -1c-31 -1 -41 -13 -54 -42l-268 -593c-29 -64 -40 -96 -82 -96z
" />
    <glyph glyph-name="uni0444" unicode="&#x444;" horiz-adv-x="755" 
d="M257 -248v23l35 2c33 1 38 6 38 33v178c-148 5 -286 109 -286 262c0 164 146 259 286 267v163l-73 41v6l167 64v-274c148 -8 287 -108 287 -261c0 -164 -146 -263 -287 -268v-178c0 -27 4 -32 39 -33l34 -2v-23h-240zM604 253c0 171 -94 229 -180 237v-473
c87 5 180 67 180 236zM150 253c0 -169 93 -231 180 -236v473c-89 -8 -180 -68 -180 -237z" />
    <glyph glyph-name="uni0445" unicode="&#x445;" horiz-adv-x="656" 
d="M4 0v23l31 1c29 1 56 18 92 55l143 159l-157 202c-16 23 -30 37 -58 38l-29 1v23h251v-23l-32 -1c-32 -1 -38 -15 -23 -35l107 -138l109 121c29 29 22 51 -9 52l-37 1v23h207v-23l-31 -1c-29 -1 -55 -18 -90 -53l-130 -144l170 -219c17 -23 30 -37 58 -38l28 -1v-23h-250
v23l32 1c32 1 38 15 23 35l-121 155l-124 -138c-28 -29 -21 -51 10 -52l37 -1v-23h-207z" />
    <glyph glyph-name="uni0446" unicode="&#x446;" horiz-adv-x="641" 
d="M515 0h-461v23l35 2c33 1 38 6 38 33v386c0 27 -6 30 -38 33l-35 2v23h230v-23l-24 -2c-35 -3 -39 -6 -39 -33v-415h212v415c0 27 -5 30 -38 33l-25 2v23h230v-23l-34 -2c-34 -3 -39 -6 -39 -33v-415h81l8 -166h-15l-65 124c-5 11 -9 13 -21 13z" />
    <glyph glyph-name="uni0447" unicode="&#x447;" horiz-adv-x="625" 
d="M103 348v96c0 27 -6 30 -38 33l-35 2v23h240v-23l-34 -2c-34 -3 -39 -6 -39 -33v-93c0 -80 32 -109 92 -109c51 0 83 5 115 14v188c0 27 -6 30 -38 33l-35 2v23h240v-23l-34 -2c-34 -3 -39 -6 -39 -33v-386c0 -27 4 -32 39 -33l34 -2v-23h-250v23l45 2c33 1 38 6 38 33
v165c-48 -11 -86 -15 -125 -15c-108 0 -176 37 -176 140z" />
    <glyph glyph-name="uni0448" unicode="&#x448;" horiz-adv-x="940" 
d="M221 29h202v415c0 27 -6 29 -39 33l-19 2v23h210v-23l-20 -2c-33 -3 -38 -6 -38 -33v-415h202v415c0 27 -6 29 -39 33l-19 2v23h225v-23l-35 -2c-32 -3 -38 -6 -38 -33v-386c0 -27 5 -32 38 -33l35 -2v-23h-832v23l34 2c33 1 39 6 39 33v386c0 27 -6 30 -39 33l-34 2v23
h225v-23l-20 -2c-33 -3 -38 -6 -38 -33v-415z" />
    <glyph glyph-name="uni0449" unicode="&#x449;" horiz-adv-x="927" 
d="M801 0h-747v23l34 2c33 1 39 6 39 33v386c0 27 -6 30 -39 33l-34 2v23h225v-23l-20 -2c-33 -3 -38 -6 -38 -33v-415h202v415c0 27 -6 29 -39 33l-19 2v23h210v-23l-20 -2c-33 -3 -38 -6 -38 -33v-415h202v415c0 27 -6 29 -39 33l-19 2v23h225v-23l-35 -2
c-32 -3 -38 -6 -38 -33v-415h81l8 -166h-15l-65 124c-5 11 -9 13 -21 13z" />
    <glyph glyph-name="uni044A" unicode="&#x44a;" horiz-adv-x="633" 
d="M210 473h-73c-12 0 -16 -3 -23 -14l-77 -124h-17l24 167h353v-23l-54 -2c-35 -1 -39 -6 -39 -33v-146h44c175 0 255 -49 255 -148c0 -89 -80 -150 -255 -150h-211v23l35 2c33 1 38 6 38 33v415zM304 269v-240h37c103 0 156 41 156 121c0 68 -32 119 -152 119h-41z" />
    <glyph glyph-name="uni044B" unicode="&#x44b;" horiz-adv-x="829" 
d="M608 58v386c0 27 -6 30 -38 33l-35 2v23h240v-23l-34 -2c-34 -3 -39 -6 -39 -33v-386c0 -27 4 -32 39 -33l34 -2v-23h-240v23l35 2c33 1 38 6 38 33zM304 502v-23l-44 -2c-34 -3 -39 -6 -39 -33v-146h44c175 0 255 -47 255 -148c0 -92 -80 -150 -255 -150h-211v23l35 2
c33 1 38 6 38 33v386c0 27 -6 30 -38 33l-35 2v23h250zM221 269v-240h37c103 0 156 38 156 121c0 71 -32 119 -152 119h-41z" />
    <glyph glyph-name="uni044C" unicode="&#x44c;" horiz-adv-x="550" 
d="M304 502v-23l-44 -2c-34 -3 -39 -6 -39 -33v-146h44c175 0 255 -47 255 -148c0 -92 -80 -150 -255 -150h-211v23l35 2c33 1 38 6 38 33v386c0 27 -6 30 -38 33l-35 2v23h250zM221 269v-240h37c103 0 156 38 156 121c0 71 -32 119 -152 119h-41z" />
    <glyph glyph-name="uni044D" unicode="&#x44d;" horiz-adv-x="540" 
d="M163 243v34h225c-5 153 -80 215 -161 215c-17 0 -35 -1 -46 -4c-13 -4 -28 -5 -41 -29l-78 -138h-18l23 174c51 17 115 22 168 22c144 0 261 -109 261 -261c0 -173 -126 -268 -264 -268c-113 0 -208 41 -208 108c0 35 28 54 65 54c7 0 14 -1 22 -2
c8 -96 53 -134 128 -134c76 0 147 56 150 229h-226z" />
    <glyph glyph-name="uni044E" unicode="&#x44e;" horiz-adv-x="863" 
d="M127 58v386c0 27 -6 30 -38 33l-35 2v23h240v-23l-34 -2c-34 -3 -39 -6 -39 -33v-167h94c13 147 128 240 253 240c138 0 251 -109 251 -261c0 -163 -121 -268 -254 -268c-135 0 -248 106 -251 255h-93v-185c0 -27 4 -32 39 -33l34 -2v-23h-240v23l35 2c33 1 38 6 38 33z
M567 17c76 0 145 67 145 236c0 171 -69 237 -145 237c-79 0 -147 -66 -147 -237c0 -169 68 -236 147 -236z" />
    <glyph glyph-name="uni044F" unicode="&#x44f;" horiz-adv-x="594" 
d="M20 0l216 227c-77 11 -152 51 -152 131c0 110 102 144 235 144h231v-23l-34 -2c-34 -3 -39 -6 -39 -33v-386c0 -27 4 -32 39 -33l34 -2v-23h-240v23l35 2c33 1 38 6 38 33v163h-38l-212 -221h-113zM383 474h-66c-72 0 -128 -35 -128 -111c0 -67 55 -114 128 -114h66v225z
" />
    <glyph glyph-name="uni0452" unicode="&#x452;" horiz-adv-x="629" 
d="M441 31v269c0 121 -38 160 -107 160c-65 0 -120 -44 -120 -160v-242c0 -27 4 -32 39 -33l34 -2v-23h-240v23l35 2c33 1 38 6 38 33v530h-78v36h78v55l-73 41v6l167 64v-166h123v-36h-123v-209c21 93 83 138 167 138c97 0 154 -54 154 -199v-283c0 -119 -28 -168 -96 -218
c-27 -20 -72 -51 -116 -78l-12 18c96 80 130 115 130 274z" />
    <glyph glyph-name="uni0453" unicode="&#x453;" horiz-adv-x="499" 
d="M367 473h-146v-415c0 -27 4 -32 39 -33l54 -2v-23h-260v23l35 2c33 1 38 6 38 33v386c0 27 -6 30 -38 33l-35 2v23h406l19 -167h-17l-72 124c-7 11 -11 14 -23 14zM251 597l109 179h105v-7l-194 -172h-20z" />
    <glyph glyph-name="uni0454" unicode="&#x454;" horiz-adv-x="568" 
d="M294 -12c-145 0 -253 106 -253 263c0 156 123 266 271 266c87 0 180 -41 180 -108c0 -35 -28 -54 -65 -54c-7 0 -14 1 -22 2c-8 96 -58 134 -123 134c-73 0 -136 -58 -139 -184v-30h206v-34h-202c19 -110 87 -195 188 -195c60 0 137 27 166 135h23
c-27 -139 -118 -195 -230 -195z" />
    <glyph glyph-name="uni0455" unicode="&#x455;" horiz-adv-x="493" 
d="M213 -12c-49 0 -92 5 -135 17l-21 177h20l75 -142c15 -27 36 -28 73 -28c51 0 119 32 119 93c0 59 -46 83 -95 97l-60 16c-75 20 -127 74 -127 153c0 96 92 146 196 146c41 0 81 -7 119 -22l24 -157h-21l-80 131c-12 20 -37 23 -65 23c-51 0 -100 -29 -100 -84
s34 -80 75 -91l61 -16c84 -22 155 -66 155 -157s-90 -156 -213 -156z" />
    <glyph glyph-name="uni0456" unicode="&#x456;" horiz-adv-x="332" 
d="M39 0v23l35 2c31 3 38 6 38 33v349l-73 41v6l167 64v-460c0 -27 7 -30 39 -33l34 -2v-23h-240zM95 722c0 33 29 63 64 63s64 -30 64 -63c0 -35 -29 -65 -64 -65s-64 30 -64 65z" />
    <glyph glyph-name="uni0457" unicode="&#x457;" horiz-adv-x="332" 
d="M88 657c-35 0 -64 30 -64 65c0 33 29 63 64 63s64 -30 64 -63c0 -35 -29 -65 -64 -65zM249 657c-35 0 -64 30 -64 65c0 33 29 63 64 63s64 -30 64 -63c0 -35 -29 -65 -64 -65zM39 0v23l35 2c31 3 38 6 38 33v349l-73 41v6l167 64v-460c0 -27 7 -30 39 -33l34 -2v-23h-240
z" />
    <glyph glyph-name="uni0458" unicode="&#x458;" horiz-adv-x="312" 
d="M-19 -261l-12 18c96 80 130 115 130 274v376l-73 41v6l167 64v-483c0 -119 -28 -168 -96 -218c-27 -20 -72 -51 -116 -78zM81 722c0 33 29 63 64 63s64 -30 64 -63c0 -35 -29 -65 -64 -65s-64 30 -64 65z" />
    <glyph glyph-name="uni0459" unicode="&#x459;" horiz-adv-x="780" 
d="M544 502v-23l-54 -2c-35 -1 -39 -6 -39 -33v-146h59c175 0 255 -49 255 -148c0 -89 -80 -150 -255 -150h-226v23l35 2c33 3 38 6 38 34v414h-155c0 -188 -23 -332 -55 -404c-29 -67 -55 -81 -84 -81c-27 0 -43 17 -43 44c0 33 32 63 113 80c27 76 40 207 40 332
c0 27 -6 30 -38 33l-40 2v23h449zM451 269v-240h52c103 0 156 41 156 121c0 68 -32 119 -152 119h-56z" />
    <glyph glyph-name="uni045A" unicode="&#x45a;" horiz-adv-x="852" 
d="M127 58v386c0 27 -6 30 -38 33l-35 2v23h240v-23l-34 -2c-34 -3 -39 -6 -39 -33v-166h218v166c0 27 -6 30 -38 33l-35 2v23h250v-23l-44 -2c-34 -3 -39 -6 -39 -33v-166h49c175 0 255 -42 255 -138c0 -87 -80 -140 -255 -140h-216v23l35 2c33 1 38 6 38 33v186h-218v-186
c0 -27 4 -32 39 -33l34 -2v-23h-240v23l35 2c33 1 38 6 38 33zM533 249v-220h42c103 0 156 35 156 111c0 65 -32 109 -152 109h-46z" />
    <glyph glyph-name="uni045B" unicode="&#x45b;" horiz-adv-x="636" 
d="M26 0v23l35 2c33 1 38 6 38 33v622l-73 41v6l167 64v-412c21 93 83 138 167 138c97 0 154 -54 154 -199v-260c0 -27 4 -32 39 -33l34 -2v-23h-240v23l35 2c33 1 38 6 38 33v242c0 121 -38 160 -107 160c-65 0 -120 -44 -120 -160v-242c0 -27 4 -32 39 -33l34 -2v-23h-240
zM21 588v36h295v-36h-295z" />
    <glyph glyph-name="uni045C" unicode="&#x45c;" horiz-adv-x="630" 
d="M318 597l109 179h105v-7l-194 -172h-20zM117 58v386c0 27 -6 30 -38 33l-35 2v23h240v-23l-34 -2c-34 -3 -39 -6 -39 -33v-195l222 193c21 19 19 35 -16 36l-36 1v23h209v-23l-33 -2c-33 -3 -51 -10 -78 -34l-183 -159l324 -284h-134l-275 241v-183c0 -27 4 -32 39 -33
l34 -2v-23h-240v23l35 2c33 1 38 6 38 33z" />
    <glyph glyph-name="uni045E" unicode="&#x45e;" horiz-adv-x="582" 
d="M141 -253c-29 0 -52 21 -52 50c0 33 27 71 120 87l53 116l-185 439c-12 27 -18 38 -49 39l-29 1v23h243v-23l-33 -1c-31 -1 -41 -13 -32 -36l137 -328l139 312c16 36 3 51 -29 52l-37 1v23h190v-23l-32 -1c-31 -1 -41 -13 -54 -42l-268 -593c-29 -64 -40 -96 -82 -96z
M311 614c-117 0 -170 72 -170 157h73c0 -109 54 -128 97 -128c44 0 97 19 97 128h73c0 -96 -70 -157 -170 -157z" />
    <glyph glyph-name="uni045F" unicode="&#x45f;" horiz-adv-x="649" 
d="M317 -137l-29 124c-2 9 -9 13 -21 13h-213v23l34 2c33 1 39 6 39 33v386c0 27 -6 30 -39 33l-34 2v23h230v-23l-25 -2c-33 -3 -38 -6 -38 -33v-415h207v415c0 27 -4 30 -39 33l-24 2v23h230v-23l-35 -2c-32 -3 -38 -6 -38 -33v-386c0 -27 5 -32 38 -33l35 -2v-23h-213
c-12 0 -19 -4 -21 -13l-29 -124h-15z" />
    <glyph glyph-name="uni0491" unicode="&#x491;" horiz-adv-x="474" 
d="M449 473h-228v-415c0 -27 4 -32 39 -33l54 -2v-23h-260v23l35 2c33 1 38 6 38 33v386c0 27 -6 30 -38 33l-35 2v23h302c12 0 16 2 21 13l62 124h15z" />
    <glyph glyph-name="uni0463" unicode="&#x463;" horiz-adv-x="636" 
d="M213 58v415h-86c-12 0 -16 -3 -23 -14l-77 -114h-17l24 157h179v178l-73 41v6l167 64v-289h179l24 -157h-17l-77 114c-7 11 -11 14 -23 14h-86v-175h44c175 0 255 -47 255 -148c0 -92 -80 -150 -255 -150h-211v23l35 2c33 1 38 6 38 33zM307 269v-240h37
c103 0 156 38 156 121c0 71 -32 119 -152 119h-41z" />
    <glyph glyph-name="uni0473" unicode="&#x473;" horiz-adv-x="619" 
d="M308 -12c-143 0 -266 109 -266 262c0 163 133 267 269 267c143 0 266 -109 266 -261c0 -163 -130 -268 -269 -268zM151 258c192 96 232 -40 316 4c-3 164 -77 228 -157 228c-82 0 -159 -67 -159 -232zM310 17c80 0 152 64 157 220c-152 -100 -205 45 -316 -3
c5 -155 79 -217 159 -217z" />
    <glyph glyph-name="uni0475" unicode="&#x475;" horiz-adv-x="577" 
d="M316 111l132 310c27 64 45 96 86 96c29 0 48 -18 48 -47c0 -33 -26 -74 -118 -90l-6 -13l-163 -378h-27l-194 450c-12 27 -18 38 -49 39l-29 1v23h243v-23l-33 -1c-31 -1 -42 -13 -32 -36z" />
    <glyph glyph-name="uni0493" unicode="&#x493;" horiz-adv-x="499" 
d="M367 473h-146v-196h134v-35h-134v-184c0 -27 4 -32 39 -33l54 -2v-23h-260v23l35 2c33 1 38 6 38 33v184h-73v35h73v167c0 27 -6 30 -38 33l-35 2v23h406l19 -167h-17l-72 124c-7 11 -11 14 -23 14z" />
    <glyph glyph-name="uni0497" unicode="&#x497;" horiz-adv-x="893" 
d="M123 0h-118l282 280l-168 163c-27 27 -39 31 -74 34l-33 2v23h209v-23l-36 -1c-35 -1 -36 -17 -16 -36l202 -196v198c0 27 -6 30 -38 33l-35 2v23h240v-23l-34 -2c-34 -3 -39 -6 -39 -33v-198l202 196c20 19 19 35 -16 36l-36 1v23h209v-23l-33 -2c-35 -3 -51 -7 -78 -34
l-162 -157l259 -257h75l8 -166h-15l-65 124c-5 11 -9 13 -21 13h-79l-248 244v-186c0 -27 4 -32 39 -33l34 -2v-23h-240v23l35 2c33 1 38 6 38 33v186z" />
    <glyph glyph-name="uni049B" unicode="&#x49b;" horiz-adv-x="667" 
d="M117 58v386c0 27 -6 30 -38 33l-35 2v23h240v-23l-34 -2c-34 -3 -39 -6 -39 -33v-195l222 193c21 19 19 35 -16 36l-36 1v23h209v-23l-33 -2c-33 -3 -51 -10 -78 -34l-183 -159l291 -255h72l8 -166h-15l-65 124c-5 11 -9 13 -21 13h-80l-275 241v-183c0 -27 4 -32 39 -33
l34 -2v-23h-240v23l35 2c33 1 38 6 38 33z" />
    <glyph glyph-name="uni04A3" unicode="&#x4a3;" horiz-adv-x="646" 
d="M127 58v386c0 27 -6 30 -38 33l-35 2v23h240v-23l-34 -2c-34 -3 -39 -6 -39 -33v-167h217v167c0 27 -6 30 -38 33l-35 2v23h240v-23l-34 -2c-34 -3 -39 -6 -39 -33v-415h81l8 -166h-15l-65 124c-5 11 -9 13 -21 13h-155v23l35 2c33 1 38 6 38 33v185h-217v-185
c0 -27 4 -32 39 -33l34 -2v-23h-240v23l35 2c33 1 38 6 38 33z" />
    <glyph glyph-name="uni04AF" unicode="&#x4af;" horiz-adv-x="582" 
d="M167 -248v23l35 2c33 1 38 6 38 33v191l-160 438c-11 27 -18 38 -49 39l-29 1v23h243v-23l-33 -1c-30 -1 -41 -13 -32 -36l141 -386l135 370c13 37 2 51 -29 52l-37 1v23h190v-23l-32 -1c-31 -1 -43 -11 -54 -42l-160 -438v-188c0 -27 3 -32 38 -33l35 -2v-23h-240z" />
    <glyph glyph-name="uni04B1" unicode="&#x4b1;" horiz-adv-x="582" 
d="M101 -35v35h139v1l-160 438c-11 27 -18 38 -49 39l-29 1v23h243v-23l-33 -1c-30 -1 -41 -13 -32 -36l141 -386l135 370c13 37 2 51 -29 52l-37 1v23h190v-23l-32 -1c-31 -1 -43 -11 -54 -42l-160 -436h138v-35h-138v-155c0 -27 3 -32 38 -33l35 -2v-23h-240v23l35 2
c33 1 38 6 38 33v155h-139z" />
    <glyph glyph-name="uni04B3" unicode="&#x4b3;" horiz-adv-x="656" 
d="M28 0v23l31 1c29 1 56 18 92 55l143 159l-157 202c-16 23 -30 37 -58 38l-29 1v23h251v-23l-32 -1c-32 -1 -38 -15 -23 -35l107 -138l109 121c29 29 22 51 -9 52l-37 1v23h207v-23l-31 -1c-29 -1 -55 -18 -90 -53l-130 -144l196 -252h72l8 -166h-15l-65 124
c-5 11 -9 13 -21 13h-169v23l32 1c32 1 38 15 23 35l-121 155l-124 -138c-28 -29 -21 -51 10 -52l37 -1v-23h-207z" />
    <glyph glyph-name="uni04B7" unicode="&#x4b7;" horiz-adv-x="612" 
d="M103 348v96c0 27 -6 30 -38 33l-35 2v23h240v-23l-34 -2c-34 -3 -39 -6 -39 -33v-93c0 -80 32 -109 92 -109c51 0 83 5 115 14v188c0 27 -6 30 -38 33l-35 2v23h240v-23l-34 -2c-34 -3 -39 -6 -39 -33v-415h81l8 -166h-15l-65 124c-5 11 -9 13 -21 13h-165v23l45 2
c33 1 38 6 38 33v165c-48 -11 -86 -15 -125 -15c-108 0 -176 37 -176 140z" />
    <glyph glyph-name="uni04BB" unicode="&#x4bb;" horiz-adv-x="636" 
d="M26 0v23l35 2c33 1 38 6 38 33v622l-73 41v6l167 64v-412c21 93 83 138 167 138c97 0 154 -54 154 -199v-260c0 -27 4 -32 39 -33l34 -2v-23h-240v23l35 2c33 1 38 6 38 33v242c0 121 -38 160 -107 160c-65 0 -120 -44 -120 -160v-242c0 -27 4 -32 39 -33l34 -2v-23h-240
z" />
    <glyph glyph-name="uni04CF" unicode="&#x4cf;" horiz-adv-x="334" 
d="M120 58v642c0 27 -6 30 -38 33l-35 2v23h240v-23l-34 -2c-34 -3 -39 -6 -39 -33v-642c0 -27 4 -32 39 -33l34 -2v-23h-240v23l35 2c33 1 38 6 38 33z" />
    <glyph glyph-name="uni04D9" unicode="&#x4d9;" horiz-adv-x="584" 
d="M281 518c144 0 253 -98 253 -263c0 -160 -119 -266 -252 -266c-93 0 -203 55 -232 204h382v19c0 146 -81 246 -192 246c-64 0 -143 -20 -180 -135h-23c31 135 121 195 244 195zM285 13c72 0 129 50 144 151h-263c3 -83 36 -151 119 -151z" />
    <glyph glyph-name="uni04E3" unicode="&#x4e3;" horiz-adv-x="674" 
d="M127 58v386c0 27 -6 30 -38 33l-35 2v23h240v-23l-34 -2c-34 -3 -39 -6 -39 -33v-323l232 310v13c0 27 -6 30 -38 33l-35 2v23h240v-23l-34 -2c-34 -3 -39 -6 -39 -33v-386c0 -27 4 -32 39 -33l34 -2v-23h-240v23l35 2c33 1 38 6 38 33v325l-232 -310v-15
c0 -27 4 -32 39 -33l34 -2v-23h-240v23l35 2c33 1 38 6 38 33zM188 668v45h298v-45h-298z" />
    <glyph glyph-name="uni04E9" unicode="&#x4e9;" horiz-adv-x="613" 
d="M308 -12c-143 0 -266 109 -266 262c0 163 133 267 269 267c143 0 266 -109 266 -261c0 -163 -130 -268 -269 -268zM310 17c80 0 154 63 157 226h-316c3 -163 76 -226 159 -226zM310 490c-81 0 -151 -61 -159 -213h315c-8 152 -78 213 -156 213z" />
    <glyph glyph-name="uni04EF" unicode="&#x4ef;" horiz-adv-x="582" 
d="M141 -253c-29 0 -52 21 -52 50c0 33 27 71 120 87l53 116l-185 439c-12 27 -18 38 -49 39l-29 1v23h243v-23l-33 -1c-31 -1 -41 -13 -32 -36l137 -328l139 312c16 36 3 51 -29 52l-37 1v23h190v-23l-32 -1c-31 -1 -41 -13 -54 -42l-268 -593c-29 -64 -40 -96 -82 -96z
M156 668v45h298v-45h-298z" />
    <glyph glyph-name="_467" horiz-adv-x="838" 
d="M38 31h70l303 763h16l302 -763h71l8 -190h-17l-75 147c-5 9 -11 12 -26 12h-542c-16 0 -21 -3 -26 -12l-75 -147h-17zM385 634l-241 -603h482z" />
    <glyph glyph-name="V001" horiz-adv-x="832" 
d="M452 783l301 -722c11 -25 22 -31 51 -34l44 -3v-24h-287v24l50 3c32 3 44 9 33 34l-235 572l-236 -572c-11 -25 2 -31 33 -34l50 -3v-24h-218v24l44 3c29 3 40 9 51 34l302 722h17z" />
    <glyph glyph-name="_469" horiz-adv-x="541" 
d="M277 -12c-128 0 -207 57 -207 228v349c0 136 66 206 189 206c125 0 192 -78 192 -182c0 -89 -60 -163 -175 -194c107 -11 218 -65 218 -213c0 -128 -108 -194 -217 -194zM164 561v-155h42c105 0 140 74 140 173c0 104 -31 165 -87 165c-65 0 -95 -58 -95 -183zM277 15
c75 0 112 56 112 167c0 137 -60 196 -181 196h-44v-161c0 -133 30 -202 113 -202z" />
    <glyph glyph-name="_470" horiz-adv-x="472" 
d="M246 -12c-117 0 -198 42 -198 138c0 79 60 128 157 167l50 20c43 16 96 40 96 101c0 49 -43 78 -108 78c-13 0 -25 -1 -36 -4s-20 -8 -27 -20l-94 -147h-18l33 174c48 19 98 22 149 22c104 0 166 -48 166 -127c0 -89 -43 -131 -159 -174l-34 -13
c-54 -21 -102 -50 -102 -108c0 -53 51 -83 123 -83c15 0 30 0 42 5c11 4 20 7 33 32l86 159h18l-32 -201c-45 -15 -92 -19 -145 -19z" />
    <glyph glyph-name="_471" horiz-adv-x="597" 
d="M271 -12c-127 0 -225 102 -225 265c0 155 102 264 238 264c68 0 120 -29 149 -68l77 67l7 -2v-509c0 -167 -92 -265 -247 -265c-93 0 -190 41 -190 108c0 35 28 54 65 54c7 0 14 -1 22 -2c8 -96 62 -134 133 -134c83 0 123 52 123 184v111c-33 -43 -88 -73 -152 -73z
M152 254c0 -127 67 -220 166 -220c35 0 76 10 105 45v352c-29 35 -69 47 -104 47c-100 0 -167 -90 -167 -224z" />
    <glyph glyph-name="_472" horiz-adv-x="844" 
d="M123 0h-118l283 281l-168 162c-27 25 -40 31 -75 34l-33 2v23h209v-23l-36 -1c-35 -1 -36 -17 -16 -36l202 -196v434l-73 41v6l167 64v-545l202 196c20 19 19 35 -16 36l-36 1v23h209v-23l-33 -2c-35 -3 -51 -7 -78 -34l-162 -157l288 -286h-126l-248 244v-186
c0 -27 4 -32 39 -33l34 -2v-23h-240v23l35 2c33 1 38 6 38 33v186z" />
    <glyph glyph-name="_473" horiz-adv-x="500" 
d="M226 -260c-116 0 -211 65 -211 156c0 35 28 54 65 54c7 0 14 -1 22 -2c8 -139 57 -182 137 -182c72 0 120 60 120 180c0 102 -35 202 -166 202h-47v24h49c100 0 137 74 137 162c0 109 -45 158 -105 158c-13 0 -27 0 -36 -3c-12 -3 -21 -7 -36 -30l-88 -138h-18l33 174
c47 16 97 22 145 22c125 0 211 -64 211 -178c0 -92 -69 -153 -165 -176v-1c108 -11 192 -92 192 -212c0 -103 -75 -210 -239 -210z" />
    <glyph glyph-name="u002" horiz-adv-x="623" 
d="M250 -12c-98 0 -154 53 -154 200v274l-72 18v22h166v-297c0 -120 35 -160 106 -160c66 0 120 44 120 161v256l-71 18v22h165v-458h77v-22l-171 -31v135c-21 -92 -83 -138 -166 -138z" />
    <glyph glyph-name="_475" horiz-adv-x="623" 
d="M250 -12c-98 0 -154 53 -154 200v274l-72 18v22h166v-297c0 -120 35 -160 106 -160c66 0 120 44 120 161v256l-71 18v22h165v-458h77v-22l-171 -31v135c-21 -92 -83 -138 -166 -138zM291 614c-117 0 -170 72 -170 157h73c0 -109 54 -128 97 -128c44 0 97 19 97 128h73
c0 -96 -70 -157 -170 -157z" />
    <glyph glyph-name="k003" horiz-adv-x="642" 
d="M26 0v23l35 2c33 1 38 6 38 33v622l-73 41v6l167 64v-522l212 173c21 19 19 35 -16 36l-36 1v23h209v-23l-33 -2c-33 -3 -51 -10 -78 -34l-170 -136l315 -307h-128l-275 260v-202c0 -27 4 -32 39 -33l34 -2v-23h-240z" />
    <glyph glyph-name="v004" horiz-adv-x="582" 
d="M314 513l194 -450c12 -27 18 -38 49 -39l29 -1v-23h-243v23l33 1c31 1 42 13 32 36l-142 331l-134 -315c-15 -36 -2 -51 29 -52l37 -1v-23h-190v23l32 1c31 1 41 13 54 42l193 447h27z" />
    <glyph glyph-name="_478" horiz-adv-x="641" 
d="M127 462l-72 18v22h166v-225h217v185l-71 18v22h165v-444c0 -27 4 -32 39 -33l34 -2v-23h-240v23l35 2c33 1 38 6 38 33v185h-217v-185c0 -27 4 -32 39 -33l34 -2v-23h-240v23l35 2c33 1 38 6 38 33v404z" />
    <glyph glyph-name="n005" horiz-adv-x="638" 
d="M35 0v23l35 2c33 1 38 6 38 33v349l-73 41v6l167 64v-139c21 93 83 138 167 138c97 0 154 -54 154 -199v-260c0 -27 4 -32 39 -33l34 -2v-23h-240v23l35 2c33 1 38 6 38 33v242c0 121 -38 160 -107 160c-65 0 -120 -44 -120 -160v-242c0 -27 4 -32 39 -33l34 -2v-23h-240
z" />
    <glyph glyph-name="m006" horiz-adv-x="963" 
d="M275 23v-23h-240v23l35 2c33 1 38 6 38 33v349l-73 41v6l167 64v-139c21 93 83 138 167 138s135 -37 150 -137c24 93 90 137 170 137c99 0 155 -54 155 -199v-260c0 -27 4 -32 39 -33l34 -2v-23h-240v23l35 2c33 1 38 6 38 33v242c0 121 -38 160 -107 160
c-65 0 -120 -44 -120 -160v-242c0 -27 4 -32 39 -33l34 -2v-23h-240v23l35 2c33 1 38 6 38 33v242c0 121 -38 160 -107 160c-65 0 -120 -44 -120 -160v-242c0 -27 4 -32 39 -33z" />
    <glyph glyph-name="_481" horiz-adv-x="607" 
d="M197 502v-151c0 -80 32 -109 92 -109c51 0 83 5 115 14v206l-71 18v22h165v-444c0 -27 4 -32 39 -33l34 -2v-23h-240v23l35 2c33 1 38 6 38 33v165c-48 -11 -86 -15 -125 -15c-108 0 -176 37 -176 140v114l-72 18v22h166z" />
    <glyph glyph-name="_482" horiz-adv-x="624" 
d="M498 0h-82v126c-21 -92 -83 -138 -166 -138c-98 0 -154 53 -154 200v274l-72 18v22h166v-297c0 -120 35 -160 106 -160c66 0 120 44 120 161v256l-71 18v22h165v-473h81l8 -166h-15l-65 124c-5 11 -9 13 -21 13z" />
    <glyph glyph-name="_483" horiz-adv-x="963" 
d="M448 462l-71 18v22h165v-300c0 -121 38 -160 107 -160c65 0 120 44 120 160v260l-71 18v22h165v-458h77v-22l-171 -31v132c-21 -93 -83 -138 -167 -138s-135 37 -150 137c-24 -93 -90 -137 -170 -137c-99 0 -155 54 -155 199v278l-72 18v22h166v-300
c0 -121 38 -160 107 -160c65 0 120 44 120 160v260z" />
    <glyph glyph-name="_484" horiz-adv-x="977" 
d="M769 0v123c-21 -93 -83 -138 -167 -138s-135 37 -150 137c-24 -93 -90 -137 -170 -137c-99 0 -155 54 -155 199v278l-72 18v22h166v-300c0 -121 38 -160 107 -160c65 0 120 44 120 160v260l-71 18v22h165v-300c0 -121 38 -160 107 -160c65 0 120 44 120 160v260l-71 18
v22h165v-473h81l8 -166h-15l-65 124c-5 11 -9 13 -21 13h-82z" />
    <glyph glyph-name="_485" horiz-adv-x="856" 
d="M47 0v23l35 2c33 1 38 6 38 33v622l-73 41v6l167 64v-514h94c13 147 128 240 253 240c138 0 251 -109 251 -261c0 -163 -121 -268 -254 -268c-135 0 -248 106 -251 255h-93v-185c0 -27 4 -32 39 -33l34 -2v-23h-240zM560 17c76 0 145 67 145 236c0 171 -69 237 -145 237
c-79 0 -147 -66 -147 -237c0 -169 68 -236 147 -236z" />
    <glyph glyph-name="_486" horiz-adv-x="534" 
d="M504 152c0 -86 -62 -164 -207 -164c-133 0 -201 64 -201 172v302l-72 18v22h166v-184h49c172 0 265 -53 265 -166zM298 17c68 0 100 51 100 130c0 85 -34 142 -162 142h-46v-130c0 -112 43 -142 108 -142z" />
    <glyph glyph-name="_487" horiz-adv-x="637" 
d="M400 -12c-133 0 -201 64 -201 172v313h-63c-12 0 -16 -3 -23 -14l-76 -124h-17l23 167h250v-184h49c172 0 265 -53 265 -166c0 -86 -62 -164 -207 -164zM293 289v-130c0 -112 43 -142 108 -142c68 0 100 51 100 130c0 85 -34 142 -162 142h-46z" />
    <glyph glyph-name="_488" horiz-adv-x="613" 
d="M308 507c140 -19 261 -95 261 -261c0 -165 -132 -258 -261 -258s-264 93 -264 258c0 135 100 227 208 248c-130 26 -167 78 -167 141c0 68 49 123 174 123h108c119 0 144 2 144 42h20c0 -105 -32 -124 -165 -124h-106c-99 0 -120 -34 -120 -68c0 -29 10 -80 168 -101z
M308 480c-92 0 -158 -78 -158 -234c0 -152 67 -229 158 -229c87 0 154 77 154 229c0 155 -67 234 -154 234z" />
    <glyph glyph-name="_489" 
d="M-170 614c-117 0 -170 72 -170 157h73c0 -109 54 -128 97 -128c44 0 97 19 97 128h73c0 -96 -70 -157 -170 -157z" />
    <glyph glyph-name="_490" 
d="M2 829c-111 0 -160 71 -160 156h73c0 -100 36 -127 87 -127c53 0 87 25 87 127h73c0 -96 -64 -156 -160 -156z" />
    <glyph glyph-name="uni20BD" unicode="&#x20bd;" horiz-adv-x="695" 
d="M65 0v24l45 3c29 3 45 8 45 36v174h-90v37h90v76h-90v37h90v308c0 28 -16 33 -45 36l-45 3v24h296c176 0 319 -37 319 -201c0 -163 -143 -207 -319 -207h-105v-76h272v-37h-272v-174c0 -28 15 -34 46 -35l86 -2v-26h-323zM256 727v-340h96c135 0 215 37 215 167
c0 129 -80 173 -215 173h-96z" />
    <glyph glyph-name="uni20B4" unicode="&#x20b4;" horiz-adv-x="658" 
d="M50 434v37h355c51 32 78 81 78 141c0 80 -47 130 -154 130c-23 0 -40 -1 -59 -5c-20 -5 -31 -9 -46 -34l-97 -159h-18l36 204c49 19 106 27 170 27c139 0 262 -54 262 -179c0 -51 -14 -90 -39 -125h70v-37h-558zM50 321v37h558v-37h-324c-77 -32 -116 -78 -116 -158
c0 -89 73 -143 182 -143c36 0 56 3 75 10c15 6 28 18 39 36l104 185h18l-41 -237c-56 -19 -117 -26 -194 -26c-177 0 -279 66 -279 198c0 48 23 98 59 135h-81z" />
    <glyph glyph-name="uni20B8" unicode="&#x20b8;" horiz-adv-x="746" 
d="M64 721l2 37h615l1 -37h-618zM217 0v25l60 3c29 1 45 7 45 35v553h-154c-17 0 -22 -1 -29 -16l-88 -189h-18l24 234h631l25 -234h-18l-89 189c-7 15 -12 16 -28 16h-154v-553c0 -28 14 -32 45 -35l60 -3v-25h-312z" />
    <glyph glyph-name="ellipsis" unicode="&#x2026;" horiz-adv-x="869" 
d="M125 -12c-36 0 -65 30 -65 67c0 36 29 66 65 66c39 0 67 -30 67 -66c0 -37 -28 -67 -67 -67zM433 -12c-36 0 -65 30 -65 67c0 36 29 66 65 66c39 0 67 -30 67 -66c0 -37 -28 -67 -67 -67zM742 -12c-36 0 -65 30 -65 67c0 36 29 66 65 66c39 0 67 -30 67 -66
c0 -37 -28 -67 -67 -67z" />
    <glyph glyph-name="endash" unicode="&#x2013;" horiz-adv-x="616" 
d="M65 237v49h486v-49h-486z" />
    <glyph glyph-name="emdash" unicode="&#x2014;" horiz-adv-x="971" 
d="M65 237v49h841v-49h-841z" />
    <glyph glyph-name="guilsinglleft" unicode="&#x2039;" horiz-adv-x="337" 
d="M131 253l152 -216l-10 -9l-229 226l229 225l10 -8z" />
    <glyph glyph-name="guilsinglright" unicode="&#x203a;" horiz-adv-x="337" 
d="M54 37l152 216l-152 218l10 8l229 -225l-229 -226z" />
    <glyph glyph-name="quoteleft" unicode="&#x2018;" horiz-adv-x="255" 
d="M202 792l13 -22c-64 -49 -92 -98 -92 -141c0 -37 22 -61 66 -73c1 -40 -27 -75 -71 -75c-40 0 -70 27 -70 80c0 72 49 159 154 231z" />
    <glyph glyph-name="quoteright" unicode="&#x2019;" horiz-adv-x="257" 
d="M65 473l-13 22c64 49 92 98 92 141c0 37 -22 61 -66 73c-1 40 27 75 71 75c40 0 70 -27 70 -80c0 -72 -49 -159 -154 -231z" />
    <glyph glyph-name="uni02BB" unicode="&#x2bb;" horiz-adv-x="255" 
d="M202 792l13 -22c-64 -49 -92 -98 -92 -141c0 -37 22 -61 66 -73c1 -40 -27 -75 -71 -75c-40 0 -70 27 -70 80c0 72 49 159 154 231z" />
    <glyph glyph-name="uni02BC" unicode="&#x2bc;" horiz-adv-x="274" 
d="M65 473l-13 22c64 49 92 98 92 141c0 37 -22 61 -66 73c-1 40 27 75 71 75c40 0 70 -27 70 -80c0 -72 -49 -159 -154 -231z" />
    <glyph glyph-name="quotedblleft" unicode="&#x201c;" horiz-adv-x="479" 
d="M202 792l13 -22c-64 -49 -92 -98 -92 -141c0 -37 22 -61 66 -73c1 -40 -27 -75 -71 -75c-40 0 -70 27 -70 80c0 72 49 159 154 231zM426 792l13 -22c-64 -49 -92 -98 -92 -141c0 -37 22 -61 66 -73c1 -40 -27 -75 -71 -75c-40 0 -70 27 -70 80c0 72 49 159 154 231z" />
    <glyph glyph-name="quotedblright" unicode="&#x201d;" horiz-adv-x="481" 
d="M65 473l-13 22c64 49 92 98 92 141c0 37 -22 61 -66 73c-1 40 27 75 71 75c40 0 70 -27 70 -80c0 -72 -49 -159 -154 -231zM289 473l-13 22c64 49 92 98 92 141c0 37 -22 61 -66 73c-1 40 27 75 71 75c40 0 70 -27 70 -80c0 -72 -49 -159 -154 -231z" />
    <glyph glyph-name="quotesinglbase" unicode="&#x201a;" horiz-adv-x="264" 
d="M47 -193l-13 22c64 49 92 98 92 141c0 37 -22 61 -66 73c-1 40 27 75 71 75c40 0 70 -27 70 -80c0 -72 -49 -159 -154 -231z" />
    <glyph glyph-name="quotedblbase" unicode="&#x201e;" horiz-adv-x="488" 
d="M47 -193l-13 22c64 49 92 98 92 141c0 37 -22 61 -66 73c-1 40 27 75 71 75c40 0 70 -27 70 -80c0 -72 -49 -159 -154 -231zM271 -193l-13 22c64 49 92 98 92 141c0 37 -22 61 -66 73c-1 40 27 75 71 75c40 0 70 -27 70 -80c0 -72 -49 -159 -154 -231z" />
    <glyph glyph-name="bullet" unicode="&#x2022;" horiz-adv-x="409" 
d="M204 258c-69 0 -126 57 -126 127c0 69 57 126 126 126s127 -57 127 -126c0 -70 -58 -127 -127 -127z" />
    <glyph glyph-name="dagger" unicode="&#x2020;" horiz-adv-x="687" 
d="M329 -228l2 294c3 119 -25 160 -49 200c23 31 49 56 49 145v67h-77c-93 0 -115 -27 -150 -51c-27 11 -53 37 -64 62c11 24 37 50 64 61c35 -24 57 -50 150 -50h77v65c0 93 -25 116 -49 150c11 27 37 53 61 64c25 -11 51 -37 62 -64c-24 -35 -49 -56 -49 -150v-65h76
c94 0 118 26 150 50c27 -11 53 -37 65 -61c-12 -25 -38 -51 -65 -62c-32 24 -56 51 -150 51h-76v-67c0 -90 25 -113 49 -145c-25 -41 -50 -80 -50 -200l3 -294h-29z" />
    <glyph glyph-name="daggerdbl" unicode="&#x2021;" horiz-adv-x="687" 
d="M104 -19c-27 11 -52 37 -64 62c12 24 37 50 64 61c35 -24 57 -50 150 -50h77v66c0 90 -26 112 -49 146c23 31 49 56 49 145v67h-77c-93 0 -115 -27 -150 -51c-27 11 -52 37 -64 62c12 24 37 50 64 61c35 -24 57 -50 150 -50h77v65c0 93 -25 116 -49 150
c11 27 37 53 61 64c25 -11 51 -37 62 -64c-24 -35 -49 -56 -49 -150v-65h76c94 0 118 26 150 50c27 -11 53 -37 65 -61c-12 -25 -38 -51 -65 -62c-32 24 -56 51 -150 51h-76v-67c0 -90 25 -113 49 -145c-24 -34 -49 -56 -49 -146v-66h76c94 0 118 26 150 50
c27 -11 53 -37 65 -61c-12 -25 -38 -51 -65 -62c-32 24 -56 50 -150 50h-76v-65c0 -94 25 -115 49 -150c-11 -27 -37 -52 -62 -64c-24 12 -50 37 -61 64c24 34 49 57 49 150v65h-77c-93 0 -115 -26 -150 -50z" />
    <glyph glyph-name="perthousand" unicode="&#x2030;" horiz-adv-x="1327" 
d="M148 0l566 758h61l-566 -758h-61zM40 551c0 115 60 219 161 219c103 0 163 -104 163 -219s-60 -219 -163 -219c-101 0 -161 104 -161 219zM115 551c0 -112 23 -199 86 -199c64 0 87 87 87 199s-23 199 -87 199c-63 0 -86 -87 -86 -199zM561 210c0 115 60 219 161 219
c103 0 163 -104 163 -219s-60 -219 -163 -219c-101 0 -161 104 -161 219zM636 210c0 -112 23 -199 86 -199c64 0 87 87 87 199s-23 199 -87 199c-63 0 -86 -87 -86 -199zM967 210c0 115 60 219 161 219c103 0 163 -104 163 -219s-60 -219 -163 -219
c-101 0 -161 104 -161 219zM1042 210c0 -112 23 -199 86 -199c64 0 87 87 87 199s-23 199 -87 199c-63 0 -86 -87 -86 -199z" />
    <glyph glyph-name="uni2117" unicode="&#x2117;" horiz-adv-x="880" 
d="M440 -12c-225 0 -392 166 -392 393c0 228 167 394 392 394c223 0 392 -166 392 -394c0 -227 -169 -393 -392 -393zM440 21c192 0 352 139 352 360c0 222 -160 361 -352 361s-352 -139 -352 -361c0 -221 160 -360 352 -360zM279 179v17l24 2c19 1 27 4 27 23v346
c0 19 -8 21 -27 24l-24 2v16h185c101 0 184 -23 184 -114c0 -92 -83 -119 -184 -119h-52v21h47c75 0 113 27 113 95c0 69 -38 96 -113 96h-61v-367c0 -19 10 -21 27 -22l46 -2v-18h-192z" />
    <glyph glyph-name="trademark" unicode="&#x2122;" horiz-adv-x="1195" 
d="M160 288v20l37 2c20 1 31 4 31 25v401h-98c-12 0 -16 -1 -20 -10l-62 -132h-8l15 164h422l15 -164h-8l-62 132c-4 9 -8 10 -20 10h-98v-401c0 -21 11 -24 30 -25l38 -2v-20h-212zM550 288v19l25 2c20 3 30 5 30 26v376c0 20 -10 23 -30 26l-25 2v19h156l138 -279l138 279
h147v-19l-25 -2c-20 -3 -30 -6 -30 -26v-376c0 -21 10 -23 30 -26l25 -2v-19h-187v19l25 2c20 3 30 5 30 26v393l-178 -365h-4l-180 363v-391c0 -21 10 -25 29 -26l26 -2v-19h-140z" />
    <glyph glyph-name="uni2116" unicode="&#x2116;" horiz-adv-x="1240" 
d="M891 240v40h286v-40h-286zM58 0v24l45 3c31 3 45 8 45 36v590l-91 103v2h132l520 -582v519c0 28 -15 33 -46 36l-45 3v24h220v-24l-45 -3c-31 -3 -45 -8 -45 -36v-714h-4l-557 628v-546c0 -28 15 -33 46 -36l44 -3v-24h-219zM872 551c0 115 60 219 161 219
c103 0 163 -104 163 -219s-60 -219 -163 -219c-101 0 -161 104 -161 219zM947 551c0 -112 23 -199 86 -199c64 0 87 87 87 199s-23 199 -87 199c-63 0 -86 -87 -86 -199z" />
    </font>
</defs>
</svg>
