<?xml version="1.0" standalone="no"?>
<!DOCTYPE svg PUBLIC "-//W3C//DTD SVG 1.1//EN" "http://www.w3.org/Graphics/SVG/1.1/DTD/svg11.dtd" >
<svg xmlns="http://www.w3.org/2000/svg" xmlns:xlink="http://www.w3.org/1999/xlink" version="1.1">
<metadata>
Created by FontForge 20190801 at Wed Oct 25 22:36:21 2017
 By Jimmy Wärting
Copyright \(c\) 2017 Swiss Typefaces Sarl. All rights reserved.
</metadata>
<defs>
<font id="SangBleuKingdom-BoldItalic" horiz-adv-x="0" >
  <font-face 
    font-family="SangBleu Kingdom"
    font-weight="700"
    font-style="italic"
    font-stretch="normal"
    units-per-em="1000"
    panose-1="2 4 8 4 8 0 0 0 0 4"
    ascent="800"
    descent="-200"
    x-height="502"
    cap-height="758"
    bbox="-332 -403 1493 1078"
    underline-thickness="71"
    underline-position="-129"
    slope="-17"
    stemh="33"
    stemv="148"
    unicode-range="U+0020-FEFF"
  />
<missing-glyph horiz-adv-x="636" 
d="M68 0v758h500v-758h-500zM101 739l217 -343l217 343h-434zM87 728v-698l221 349zM329 379l220 -349v698zM101 19h434l-217 343z" />
    <glyph glyph-name="f_f" unicode="ff" horiz-adv-x="686" 
d="M364 -17l94 442h-185l-54 -244c-71 -319 -238 -442 -342 -442c-56 0 -85 34 -85 74c0 33 30 67 68 70c35 -37 71 -81 100 -81c25 0 41 17 68 142l103 481h-83l10 32c77 7 110 25 154 115c77 159 165 192 227 192c47 0 70 -23 70 -59c0 -29 -14 -64 -38 -78
c-33 11 -65 15 -93 15c-88 0 -132 -40 -132 -89c0 -37 20 -51 68 -51h122c74 0 85 44 103 80c77 159 165 202 227 202c47 0 70 -23 70 -59c0 -29 -14 -64 -38 -78c-33 11 -65 15 -93 15c-88 0 -132 -50 -132 -99c0 -37 20 -61 68 -61h135l-50 -77h-126l-45 -205
c-70 -319 -238 -442 -342 -442c-56 0 -85 34 -85 74c0 33 30 67 68 70c35 -37 71 -81 100 -81c25 0 41 17 68 142z" />
    <glyph glyph-name="f_f_i" unicode="ffi" horiz-adv-x="969" 
d="M850 710c0 49 44 93 93 93c50 0 94 -44 94 -93c0 -50 -44 -94 -94 -94c-49 0 -93 44 -93 94zM-123 -261c-56 0 -85 34 -85 74c0 33 30 67 68 70c35 -37 71 -81 100 -81c25 0 41 17 68 142l103 481h-83l10 32c78 10 110 25 154 115c77 159 165 192 227 192
c47 0 70 -23 70 -59c0 -29 -14 -64 -38 -78c-33 11 -65 15 -93 15c-88 0 -132 -40 -132 -89c0 -37 20 -51 68 -51h120c74 0 85 44 103 80c77 159 154 202 212 202c47 0 70 -23 70 -59c0 -29 -14 -64 -38 -78c-33 11 -65 15 -93 15c-82 0 -117 -50 -117 -99
c0 -37 20 -61 68 -61h312l-149 -387c-20 -53 -23 -72 -2 -72c25 0 85 40 137 145l29 -12c-55 -114 -132 -189 -252 -189c-85 0 -90 49 -63 120l123 318h-176l-45 -205c-70 -319 -238 -442 -342 -442c-56 0 -85 34 -85 74c0 33 30 67 68 70c35 -37 71 -81 100 -81
c25 0 41 17 68 142l94 442h-183l-54 -244c-71 -319 -238 -442 -342 -442z" />
    <glyph glyph-name="f_f_l" unicode="ffl" horiz-adv-x="1000" 
d="M-123 -261c-56 0 -85 34 -85 74c0 33 30 67 68 70c35 -37 71 -81 100 -81c25 0 41 17 68 142l103 481h-83l10 32c78 10 110 25 154 115c77 159 165 192 227 192c47 0 70 -23 70 -59c0 -29 -14 -64 -38 -78c-33 11 -65 15 -93 15c-88 0 -132 -40 -132 -89
c0 -37 20 -51 68 -51h124c74 0 85 44 103 80c77 159 165 202 227 202c42 0 64 -18 69 -47l236 65l-236 -687c-18 -54 -23 -72 -2 -72c25 0 85 40 137 145l29 -12c-55 -114 -132 -189 -252 -189c-85 0 -88 48 -63 120l191 557l-42 36c-6 -22 -18 -43 -35 -53
c-33 11 -65 15 -93 15c-88 0 -132 -50 -132 -99c0 -37 20 -61 68 -61h135l-50 -77h-126l-45 -205c-70 -319 -238 -442 -342 -442c-56 0 -85 34 -85 74c0 33 30 67 68 70c35 -37 71 -81 100 -81c25 0 41 17 68 142l94 442h-187l-54 -244c-71 -319 -238 -442 -342 -442z" />
    <glyph glyph-name="f_i" unicode="fi" horiz-adv-x="644" 
d="M525 710c0 49 44 93 93 93c50 0 94 -44 94 -93c0 -50 -44 -94 -94 -94c-49 0 -93 44 -93 94zM-123 -261c-56 0 -85 34 -85 74c0 33 30 67 68 70c35 -37 71 -81 100 -81c25 0 41 17 68 142l103 481h-83l10 32c78 5 110 35 154 125c77 159 155 202 212 202
c47 0 70 -23 70 -59c0 -29 -14 -64 -38 -78c-33 11 -65 15 -93 15c-82 0 -117 -50 -117 -99c0 -37 20 -61 68 -61h312l-149 -387c-20 -53 -23 -72 -2 -72c25 0 85 40 137 145l29 -12c-55 -114 -132 -189 -252 -189c-85 0 -90 49 -63 120l123 318h-176l-54 -244
c-71 -319 -238 -442 -342 -442z" />
    <glyph glyph-name="f_l" unicode="fl" horiz-adv-x="667" 
d="M-123 -261c-56 0 -85 34 -85 74c0 33 30 67 68 70c35 -37 71 -81 100 -81c25 0 41 17 68 142l103 481h-83l10 32c78 5 110 35 154 125c77 159 165 202 227 202c41 0 64 -18 69 -46l232 64l-236 -687c-18 -54 -23 -72 -2 -72c25 0 85 40 137 145l29 -12
c-55 -114 -132 -189 -252 -189c-85 0 -88 48 -63 120l191 557l-39 33c-6 -21 -18 -40 -34 -50c-33 11 -65 15 -93 15c-88 0 -132 -50 -132 -99c0 -37 20 -61 68 -61h125l-50 -77h-116l-54 -244c-71 -319 -238 -442 -342 -442z" />
    <glyph glyph-name=".notdef" horiz-adv-x="636" 
d="M68 0v758h500v-758h-500zM101 739l217 -343l217 343h-434zM87 728v-698l221 349zM329 379l220 -349v698zM101 19h434l-217 343z" />
    <glyph glyph-name=".null" 
 />
    <glyph glyph-name="CR" horiz-adv-x="220" 
 />
    <glyph glyph-name="space" unicode=" " horiz-adv-x="220" 
 />
    <glyph glyph-name="exclam" unicode="!" horiz-adv-x="296" 
d="M124 241c68 263 13 278 83 504c14 46 194 46 177 -10c-68 -218 -132 -231 -226 -494h-34zM105 -13c-52 0 -95 43 -95 99c0 52 43 95 95 95c56 0 99 -43 99 -95c0 -56 -43 -99 -99 -99z" />
    <glyph glyph-name="quotedbl" unicode="&#x22;" horiz-adv-x="416" 
d="M152 483l32 238c5 42 23 58 87 58c61 0 77 -21 44 -80l-120 -216h-43zM344 483l32 238c5 42 23 58 87 58c61 0 77 -21 44 -80l-120 -216h-43z" />
    <glyph glyph-name="numbersign" unicode="#" horiz-adv-x="790" 
d="M109 0l79 195h-172l30 72h171l90 221h-172l29 72h172l88 216h78l-88 -216h189l88 216h78l-88 -216h172l-29 -72h-172l-90 -221h172l-29 -72h-172l-79 -195h-78l79 195h-189l-79 -195h-78zM295 267h189l90 221h-189z" />
    <glyph glyph-name="dollar" unicode="$" horiz-adv-x="579" 
d="M462 886h47l-34 -107h6c96 0 172 -38 172 -98c0 -61 -59 -107 -147 -95c31 91 22 143 -45 147l-85 -269l26 -20c85 -65 130 -106 130 -191c0 -131 -125 -250 -306 -265l-34 -108h-47l34 107c-101 3 -187 44 -187 114c0 63 68 106 151 99c-45 -95 -23 -152 51 -164l93 296
l-45 34c-66 50 -96 100 -96 169c0 119 126 221 281 241zM268 597c0 -38 29 -71 70 -104l75 237c-85 -14 -145 -70 -145 -133zM400 192c0 48 -33 79 -75 111l-85 -270c87 5 160 62 160 159z" />
    <glyph glyph-name="percent" unicode="%" horiz-adv-x="981" 
d="M240 333c-91 0 -125 70 -125 147c0 143 121 291 236 291c90 0 125 -70 125 -147c0 -143 -122 -291 -236 -291zM56 0l840 758h104l-840 -758h-104zM246 362c81 0 134 219 134 318c0 40 -12 63 -36 63c-81 0 -133 -220 -133 -319c0 -39 11 -62 35 -62zM712 -8
c-91 0 -125 70 -125 147c0 143 121 291 236 291c90 0 125 -70 125 -147c0 -143 -122 -291 -236 -291zM718 21c81 0 134 219 134 318c0 40 -12 63 -36 63c-81 0 -133 -220 -133 -319c0 -39 11 -62 35 -62z" />
    <glyph glyph-name="ampersand" unicode="&#x26;" horiz-adv-x="987" 
d="M516 245c-49 0 -82 37 -82 83c0 88 90 183 142 215c72 45 114 23 208 -60l34 -30c35 -30 93 -70 128 -70c31 0 48 20 48 46c0 46 -63 72 -99 81c1 60 35 92 76 92c49 0 91 -30 91 -101c0 -76 -87 -155 -139 -189c-50 -33 -95 -35 -183 39c-70 -158 -199 -364 -415 -364
c-205 0 -288 158 -288 294c0 193 150 314 244 314c59 0 97 -35 102 -89c101 88 134 169 133 303c23 16 62 31 87 31c35 -1 50 -16 50 -42c0 -54 -79 -197 -238 -319c-70 -54 -161 -112 -277 -176c23 -112 112 -181 233 -181c148 0 274 74 343 251l-31 28
c-37 33 -92 70 -126 70c-24 0 -48 -18 -48 -53c0 -41 45 -75 81 -93c-1 -48 -36 -80 -74 -80zM132 363c0 -12 1 -24 2 -35c54 31 104 66 150 100c6 59 -12 115 -54 115c-67 0 -98 -91 -98 -180z" />
    <glyph glyph-name="quotesingle" unicode="'" horiz-adv-x="224" 
d="M152 483l32 238c5 42 23 58 87 58c61 0 77 -21 44 -80l-120 -216h-43z" />
    <glyph glyph-name="parenleft" unicode="(" horiz-adv-x="340" 
d="M155 -247c-71 87 -140 211 -140 354c0 248 174 534 485 731l19 -26c-237 -189 -389 -545 -389 -775c0 -95 12 -185 50 -267z" />
    <glyph glyph-name="parenright" unicode=")" horiz-adv-x="339" 
d="M217 837c71 -87 140 -211 140 -354c0 -248 -174 -534 -485 -731l-19 26c237 189 389 545 389 775c0 95 -12 185 -50 267z" />
    <glyph glyph-name="asterisk" unicode="*" horiz-adv-x="501" 
d="M182 462l-17 23l117 113l-109 119l18 22l143 -76l79 140l27 -10l-28 -158l157 -35v-28l-161 -23l18 -159l-28 -8l-70 146z" />
    <glyph glyph-name="plus" unicode="+" horiz-adv-x="649" 
d="M289 0v225h-229v75h229v216h79v-216h229v-75h-229v-225h-79z" />
    <glyph glyph-name="comma" unicode="," horiz-adv-x="305" 
d="M-32 -189l-14 33c75 38 130 104 130 156c0 42 -28 67 -84 78c11 71 62 99 113 99c54 0 99 -38 99 -101c0 -84 -90 -201 -244 -265z" />
    <glyph glyph-name="hyphen" unicode="-" horiz-adv-x="418" 
d="M52 222l28 81h294l-28 -81h-294z" />
    <glyph glyph-name="period" unicode="." horiz-adv-x="286" 
d="M98 -13c-52 0 -95 43 -95 99c0 52 43 95 95 95c56 0 99 -43 99 -95c0 -56 -43 -99 -99 -99z" />
    <glyph glyph-name="slash" unicode="/" horiz-adv-x="526" 
d="M-62 -52l622 858h107l-622 -858h-107z" />
    <glyph glyph-name="zero" unicode="0" horiz-adv-x="676" 
d="M278 -13c-157 0 -220 121 -220 260c0 249 210 532 422 532c157 0 220 -121 220 -260c0 -249 -210 -532 -422 -532zM288 30c161 0 269 387 269 571c0 84 -28 135 -87 135c-161 0 -269 -387 -269 -571c0 -84 28 -135 87 -135z" />
    <glyph glyph-name="one" unicode="1" horiz-adv-x="382" 
d="M72 83l201 583l-142 -50l13 41l313 114l-237 -688c-12 -34 -5 -46 29 -49l20 -2l-11 -32h-292l11 33l33 4c37 4 50 12 62 46z" />
    <glyph glyph-name="two" unicode="2" horiz-adv-x="585" 
d="M-79 0l2 6c401 292 556 464 556 582c0 60 -30 111 -103 111c-77 0 -148 -48 -178 -170h-35c20 149 120 250 273 250c129 0 195 -64 195 -160c0 -120 -99 -216 -258 -322l-250 -166h216c83 0 110 7 150 57l27 33h35l-129 -221h-501z" />
    <glyph glyph-name="three" unicode="3" horiz-adv-x="559" 
d="M527 294c0 -155 -172 -307 -348 -307c-116 0 -199 61 -199 136c0 46 49 87 118 74c15 -95 43 -162 130 -162c75 0 159 59 159 189c0 111 -68 174 -139 174c-10 0 -21 -1 -31 -3l-5 37l56 12c98 21 201 64 201 160c0 59 -41 95 -110 95c-63 0 -137 -30 -163 -139h-35
c21 135 113 219 259 219c127 0 192 -62 192 -135s-69 -143 -201 -166v-3c78 -40 116 -107 116 -181z" />
    <glyph glyph-name="four" unicode="4" horiz-adv-x="666" 
d="M283 0l65 190h-373l585 568h133l-159 -461h133l-37 -107h-133l-66 -190h-148zM152 297h233l120 346z" />
    <glyph glyph-name="five" unicode="5" horiz-adv-x="545" 
d="M173 -13c-113 0 -200 61 -200 136c0 46 49 87 117 74c13 -93 51 -156 143 -156c76 0 158 42 158 142c0 96 -95 176 -252 240l181 335h338l-77 -138h-288l-42 -74c172 -67 253 -163 253 -273c0 -181 -171 -286 -331 -286z" />
    <glyph glyph-name="six" unicode="6" horiz-adv-x="620" 
d="M270 -13c-134 0 -234 86 -234 240c0 203 244 492 705 592l8 -34c-256 -60 -440 -230 -522 -401c49 51 119 74 178 74c104 0 182 -60 182 -178c0 -188 -193 -293 -317 -293zM179 194c0 -104 40 -166 105 -166c84 0 151 99 151 218c0 105 -67 144 -126 144
c-27 0 -58 -9 -95 -34c-23 -56 -35 -111 -35 -162z" />
    <glyph glyph-name="seven" unicode="7" horiz-adv-x="610" 
d="M263 758h517l-381 -367c-163 -156 -230 -278 -264 -332c-33 -54 -50 -58 -83 -62l-73 -8c-31 -3 -57 7 -15 50c194 199 367 350 631 581h-252c-92 0 -114 -8 -164 -73l-13 -17h-35z" />
    <glyph glyph-name="eight" unicode="8" horiz-adv-x="591" 
d="M257 -13c-140 0 -238 84 -238 197c0 100 92 176 222 209c-43 51 -68 106 -68 173c0 119 104 213 253 213c125 0 210 -66 210 -160s-98 -157 -203 -190l6 -6c57 -58 101 -117 101 -197c0 -136 -134 -239 -283 -239zM375 489l38 -40c85 30 131 90 131 159
c0 76 -46 127 -132 127c-75 0 -123 -36 -123 -96c0 -56 35 -98 86 -150zM119 194c0 -111 66 -163 157 -163c76 0 141 38 141 116c0 50 -47 113 -94 161l-64 66c-85 -34 -140 -110 -140 -180z" />
    <glyph glyph-name="nine" unicode="9" horiz-adv-x="612" 
d="M14 -53l-8 34c248 65 398 230 464 398c-49 -44 -116 -71 -187 -71c-104 0 -182 74 -182 192c0 171 175 279 310 279c137 0 241 -90 241 -248c0 -188 -174 -466 -638 -584zM253 529c0 -105 67 -153 126 -153c34 0 66 9 103 35c19 58 28 116 28 169c0 103 -44 158 -108 158
c-87 0 -149 -87 -149 -209z" />
    <glyph glyph-name="colon" unicode=":" horiz-adv-x="315" 
d="M216 327c-52 0 -95 43 -95 99c0 52 43 95 95 95c56 0 99 -43 99 -95c0 -56 -43 -99 -99 -99zM99 -13c-52 0 -95 43 -95 99c0 52 43 95 95 95c56 0 99 -43 99 -95c0 -56 -43 -99 -99 -99z" />
    <glyph glyph-name="semicolon" unicode=";" horiz-adv-x="323" 
d="M215 327c-52 0 -95 43 -95 99c0 52 43 95 95 95c56 0 99 -43 99 -95c0 -56 -43 -99 -99 -99zM-31 -189l-14 33c75 38 130 104 130 156c0 42 -28 67 -84 78c11 71 62 99 113 99c54 0 99 -38 99 -101c0 -84 -90 -201 -244 -265z" />
    <glyph glyph-name="less" unicode="&#x3c;" horiz-adv-x="649" 
d="M36 228v69l527 225v-81l-423 -179l423 -179v-81z" />
    <glyph glyph-name="equal" unicode="=" horiz-adv-x="649" 
d="M72 334v75h507v-75h-507zM72 104v75h507v-75h-507z" />
    <glyph glyph-name="greater" unicode="&#x3e;" horiz-adv-x="649" 
d="M625 228l-527 -226v81l423 179l-423 179v81l527 -225v-69z" />
    <glyph glyph-name="question" unicode="?" horiz-adv-x="607" 
d="M416 733c-68 0 -116 -29 -121 -127c-65 -8 -134 17 -133 74c1 63 76 99 214 99c158 0 281 -78 281 -235c0 -98 -52 -167 -190 -184l-182 -23c-31 -4 -34 -6 -46 -33l-33 -71h-32l36 167c17 81 50 88 126 97l128 15c99 12 130 36 130 89c0 80 -96 132 -178 132zM160 -13
c-52 0 -95 43 -95 99c0 52 43 95 95 95c56 0 99 -43 99 -95c0 -56 -43 -99 -99 -99z" />
    <glyph glyph-name="at" unicode="@" horiz-adv-x="931" 
d="M595 158c-33 0 -55 9 -55 27c0 14 10 35 20 61l30 76h-5c-63 -93 -136 -162 -215 -162c-58 0 -100 35 -100 99c0 161 236 356 372 356c58 0 111 -32 152 -46l-125 -315c-8 -21 -12 -32 -12 -38c0 -3 1 -6 6 -6c65 0 241 82 241 276c0 169 -142 251 -300 251
c-239 0 -431 -203 -431 -437c0 -186 120 -292 302 -292c93 0 162 22 200 41l13 -30c-49 -25 -123 -50 -225 -50c-206 0 -387 119 -387 326c0 246 253 484 530 484c175 0 348 -91 348 -293c0 -194 -173 -328 -359 -328zM435 233c39 0 138 63 199 220l42 107
c-5 13 -20 19 -43 19c-93 0 -234 -177 -234 -296c0 -33 9 -50 36 -50z" />
    <glyph glyph-name="A" unicode="A" horiz-adv-x="819" 
d="M-145 0l11 36l34 4c36 4 71 14 105 45l773 703h20l-145 -699c-8 -39 5 -45 39 -49l34 -4l-11 -36h-338l11 36l36 4c36 4 60 10 69 49l35 158h-271l-177 -162c-30 -28 -37 -43 -3 -45l60 -4l-11 -36h-271zM322 306h219l55 251z" />
    <glyph glyph-name="B" unicode="B" horiz-adv-x="766" 
d="M-32 0l11 36l36 4c36 4 57 10 69 49l178 580c12 39 -6 45 -39 49l-34 4l11 36h298c193 0 283 -42 281 -132c-2 -115 -119 -195 -286 -215v-2c127 -4 236 -54 236 -157c0 -130 -159 -252 -406 -252h-355zM347 424h69c130 0 195 120 195 204c0 57 -31 86 -106 86h-70z
M230 44h88c167 0 234 125 234 226c0 84 -54 110 -144 110h-75z" />
    <glyph glyph-name="C" unicode="C" horiz-adv-x="811" 
d="M433 -13c-195 0 -360 116 -360 322c0 263 265 470 530 470c97 0 194 -23 251 -62l-29 -235h-22l-62 177c-10 28 -22 45 -40 57c-20 13 -50 17 -92 17c-186 0 -356 -185 -356 -458c0 -143 54 -242 192 -242c33 0 59 2 85 15c12 7 26 16 39 30l199 203h22l-137 -263
c-56 -14 -144 -31 -220 -31z" />
    <glyph glyph-name="D" unicode="D" horiz-adv-x="858" 
d="M-32 0l11 36l36 4c36 4 57 10 69 49l178 580c12 39 -6 45 -39 49l-34 4l11 36h258c272 0 413 -102 413 -282c0 -248 -236 -476 -581 -476h-322zM230 44h69c257 0 395 231 395 458c0 137 -73 212 -227 212h-32z" />
    <glyph glyph-name="E" unicode="E" horiz-adv-x="770" 
d="M-32 0l11 36l36 4c36 4 57 10 69 49l178 580c12 39 -6 45 -39 49l-34 4l11 36h576l-46 -271h-22l-70 207c-5 16 -10 18 -31 18h-172l-90 -293h116c9 0 14 3 20 11l89 131h22l-103 -336h-22l-8 131c0 8 -5 11 -14 11h-116l-98 -321h225c17 0 21 3 35 14l251 211h22
l-151 -271h-645z" />
    <glyph glyph-name="F" unicode="F" horiz-adv-x="729" 
d="M-32 0l11 36l36 4c36 4 57 10 69 49l178 580c12 39 -6 45 -39 49l-34 4l11 36h628l-46 -271h-22l-70 207c-5 16 -10 18 -31 18h-224l-90 -293h130c9 0 14 3 20 11l89 131h22l-103 -336h-22l-8 131c0 8 -5 11 -14 11h-130l-85 -278c-12 -39 5 -45 40 -47l69 -4l-12 -38
h-373z" />
    <glyph glyph-name="G" unicode="G" horiz-adv-x="874" 
d="M429 -13c-191 0 -356 116 -356 322c0 263 265 470 530 470c97 0 194 -23 251 -62l-29 -235h-22l-62 177c-10 28 -22 45 -40 57c-20 13 -56 17 -95 17c-183 0 -353 -185 -353 -458c0 -143 54 -240 190 -240c31 0 64 5 100 23l76 202c15 39 -2 46 -36 48l-90 4l15 41h394
l-16 -45h-89l-76 -202l-18 -71c-129 -6 -175 -48 -274 -48z" />
    <glyph glyph-name="H" unicode="H" horiz-adv-x="907" 
d="M-32 0l11 36l36 4c36 4 57 10 69 49l178 580c12 39 -6 45 -39 49l-34 4l11 36h338l-11 -36l-36 -4c-37 -4 -57 -10 -69 -49l-74 -242h321l74 242c12 39 -6 45 -39 49l-34 4l11 36h338l-11 -36l-36 -4c-37 -4 -57 -10 -69 -49l-178 -580c-12 -39 5 -45 39 -49l34 -4
l-11 -36h-338l11 36l36 4c36 4 57 10 69 49l86 279h-321l-86 -279c-12 -39 5 -45 39 -49l34 -4l-11 -36h-338z" />
    <glyph glyph-name="I" unicode="I" horiz-adv-x="426" 
d="M-32 0l11 36l36 4c36 4 57 10 69 49l178 580c12 39 -6 45 -39 49l-34 4l11 36h338l-11 -36l-36 -4c-37 -4 -57 -10 -69 -49l-178 -580c-12 -39 5 -45 39 -49l34 -4l-11 -36h-338z" />
    <glyph glyph-name="J" unicode="J" horiz-adv-x="424" 
d="M-89 -102l-18 34c158 96 188 116 227 244l152 497c11 37 -5 40 -39 42l-43 2l13 41h350l-13 -41l-43 -2c-36 -2 -54 -5 -65 -42l-141 -459c-33 -108 -65 -149 -162 -205c-44 -26 -155 -77 -218 -111z" />
    <glyph glyph-name="K" unicode="K" horiz-adv-x="855" 
d="M-32 0l11 36l36 4c36 4 57 10 69 49l178 580c12 39 -6 45 -39 49l-34 4l11 36h338l-11 -36l-36 -4c-37 -4 -57 -10 -69 -49l-91 -295l433 314c19 14 19 28 -10 30l-72 4l11 36h306l-11 -36l-52 -3c-44 -3 -69 -14 -100 -36l-354 -256l321 -427h-195l-279 366l-85 -277
c-12 -39 5 -45 39 -49l34 -4l-11 -36h-338z" />
    <glyph glyph-name="L" unicode="L" horiz-adv-x="724" 
d="M-32 0l11 36l36 4c36 4 57 10 69 49l178 580c12 39 -6 45 -39 49l-34 4l11 36h338l-11 -36l-36 -4c-37 -4 -57 -10 -69 -49l-191 -623h185c18 0 21 3 35 14l251 211h22l-151 -271h-605z" />
    <glyph glyph-name="M" unicode="M" horiz-adv-x="1039" 
d="M-32 0l11 36l36 4c36 4 57 10 69 49l178 580c12 39 -6 45 -39 49l-34 4l11 36h274l71 -416l319 416h287l-11 -36l-36 -4c-37 -4 -57 -10 -69 -49l-178 -580c-12 -39 5 -45 39 -49l34 -4l-11 -36h-338l11 36l36 4c36 4 57 10 69 49l186 609l-452 -589h-6l-100 586
l-185 -606c-12 -39 5 -45 39 -49l34 -4l-11 -36h-234z" />
    <glyph glyph-name="N" unicode="N" horiz-adv-x="877" 
d="M669 -17l-357 668l-173 -562c-12 -39 5 -45 39 -49l34 -4l-11 -36h-234l11 36l36 4c36 4 57 10 69 49l179 580c12 39 -6 45 -39 49l-34 4l11 36h235l265 -497l127 408c12 39 -6 45 -39 49l-34 4l11 36h234l-11 -36l-36 -4c-37 -4 -57 -10 -69 -49l-210 -686h-4z" />
    <glyph glyph-name="O" unicode="O" horiz-adv-x="878" 
d="M368 -13c-170 0 -306 98 -306 279c0 223 218 513 532 513c170 0 305 -98 305 -279c0 -223 -217 -513 -531 -513zM398 29c161 0 316 200 316 465c0 138 -35 243 -150 243c-161 0 -316 -200 -316 -465c0 -138 35 -243 150 -243z" />
    <glyph glyph-name="P" unicode="P" horiz-adv-x="736" 
d="M-32 0l11 36l36 4c36 4 57 10 69 49l178 580c12 39 -6 45 -39 49l-34 4l11 36h318c173 0 297 -34 297 -156c0 -142 -136 -262 -413 -262h-56l14 45h49c168 0 229 121 229 222c0 73 -40 107 -129 107h-74l-191 -625c-12 -39 5 -45 40 -47l69 -4l-12 -38h-373z" />
    <glyph glyph-name="Q" unicode="Q" horiz-adv-x="878" 
d="M368 -13h-14l-196 -68c37 10 81 13 107 13c154 0 231 -64 325 -64c58 0 110 28 163 96l31 -19c-77 -120 -169 -207 -247 -207c-133 0 -222 163 -336 163c-18 0 -35 -3 -52 -10c-12 -54 -38 -70 -63 -70c-17 0 -29 12 -29 29c0 36 37 75 151 116l80 29
c-131 26 -226 120 -226 271c0 223 218 513 532 513c170 0 305 -98 305 -279c0 -223 -217 -513 -531 -513zM398 29c161 0 316 200 316 465c0 138 -35 243 -150 243c-161 0 -316 -200 -316 -465c0 -138 35 -243 150 -243z" />
    <glyph glyph-name="R" unicode="R" horiz-adv-x="810" 
d="M-32 0l11 36l36 4c36 4 57 10 69 49l178 580c12 39 -6 45 -39 49l-34 4l11 36h305c185 0 290 -50 290 -153c0 -115 -116 -188 -256 -214l246 -391h-180l-229 369h-46l-86 -280c-12 -39 5 -45 39 -49l34 -4l-11 -36h-338zM344 414h60c139 0 214 107 214 201
c0 65 -38 99 -123 99h-60z" />
    <glyph glyph-name="S" unicode="S" horiz-adv-x="622" 
d="M215 -13c-67 0 -155 14 -219 51l60 241h22l31 -179c4 -24 8 -37 21 -47c14 -13 51 -21 96 -21c99 0 192 46 192 127c0 46 -28 96 -100 170l-52 54c-41 43 -75 98 -75 163c0 121 135 233 314 233c61 0 128 -14 174 -44l-41 -225h-22l-52 163c-7 22 -12 36 -21 45
c-10 10 -34 15 -53 15c-92 0 -164 -44 -164 -112c0 -42 27 -84 67 -126l55 -57c84 -88 107 -134 107 -198c0 -151 -160 -253 -340 -253z" />
    <glyph glyph-name="T" unicode="T" horiz-adv-x="782" 
d="M121 0l12 38l61 4c35 2 56 8 68 47l192 628h-100c-21 0 -26 -2 -42 -18l-200 -212h-22l105 271h704l-61 -271h-22l-56 212c-4 16 -11 18 -32 18h-114l-192 -628c-12 -39 5 -45 40 -47l59 -4l-12 -38h-388z" />
    <glyph glyph-name="U" unicode="U" horiz-adv-x="861" 
d="M391 -13c-204 0 -330 93 -259 323l110 359c12 39 -6 45 -39 49l-34 4l11 36h338l-11 -36l-36 -4c-37 -4 -57 -10 -69 -49l-116 -377c-54 -176 13 -232 144 -232c137 0 228 73 281 246l111 363c12 39 -6 46 -39 49l-44 4l11 36h244l-11 -36l-36 -4c-37 -4 -57 -10 -69 -49
l-115 -373c-62 -201 -173 -309 -372 -309z" />
    <glyph glyph-name="V" unicode="V" horiz-adv-x="817" 
d="M100 -30l145 699c8 39 -5 45 -39 49l-34 4l11 36h338l-11 -36l-36 -4c-36 -4 -60 -10 -69 -49l-103 -466l515 470c30 28 38 43 4 45l-62 4l11 36h273l-11 -36l-34 -4c-36 -4 -71 -14 -105 -45l-773 -703h-20z" />
    <glyph glyph-name="W" unicode="W" horiz-adv-x="1267" 
d="M100 -30l145 699c8 39 -5 45 -39 49l-34 4l11 36h338l-11 -36l-36 -4c-36 -4 -60 -10 -69 -49l-103 -466l366 334l46 221h277l-11 -36l-56 -4c-36 -3 -60 -10 -69 -49l-103 -466l515 470c30 28 38 43 4 45l-62 4l11 36h273l-11 -36l-34 -4c-36 -4 -71 -14 -105 -45
l-773 -703h-20l100 482l-530 -482h-20z" />
    <glyph glyph-name="X" unicode="X" horiz-adv-x="842" 
d="M-111 0l16 36l34 4c37 4 70 16 107 45l354 283l-79 305c-7 31 -21 41 -53 45l-32 4l16 36h337l-16 -36l-44 -4c-37 -3 -53 -14 -45 -45l51 -198l248 198c38 30 42 42 9 45l-42 4l16 36h257l-16 -36l-34 -4c-38 -4 -70 -16 -107 -45l-316 -252l87 -336
c8 -31 20 -41 53 -45l32 -4l-16 -36h-337l16 36l44 4c37 3 52 14 45 45l-59 228l-286 -228c-38 -30 -42 -42 -9 -45l42 -4l-16 -36h-257z" />
    <glyph glyph-name="Y" unicode="Y" horiz-adv-x="780" 
d="M120 0l12 38l61 4c35 2 56 8 68 47l78 253l-119 331c-12 33 -17 41 -50 45l-32 4l11 36h339l-11 -36l-44 -4c-36 -3 -59 -13 -48 -45l94 -272l265 272c32 33 27 43 -7 45l-62 4l11 36h270l-11 -36l-34 -4c-37 -4 -59 -12 -91 -45l-322 -332l-77 -252
c-12 -39 5 -45 40 -47l59 -4l-12 -38h-388z" />
    <glyph glyph-name="Z" unicode="Z" horiz-adv-x="748" 
d="M-57 0l4 12l686 702h-198c-21 0 -25 -3 -42 -18l-247 -209h-22l160 271h577l-4 -12l-685 -702h246c21 0 25 3 43 18l247 209h22l-160 -271h-627z" />
    <glyph glyph-name="bracketleft" unicode="[" horiz-adv-x="317" 
d="M-76 -238l366 1064h213l-12 -34l-37 -2c-65 -3 -87 -20 -109 -84l-284 -824c-22 -64 -12 -81 51 -84l37 -2l-12 -34h-213z" />
    <glyph glyph-name="backslash" unicode="\" horiz-adv-x="730" 
d="M625 -52h-100l-343 858h100z" />
    <glyph glyph-name="bracketright" unicode="]" horiz-adv-x="316" 
d="M424 826l-366 -1064h-213l12 34l37 2c65 3 87 20 109 84l284 824c22 64 12 81 -51 84l-37 2l12 34h213z" />
    <glyph glyph-name="asciicircum" unicode="^" horiz-adv-x="649" 
d="M118 361l349 415h74l63 -415h-74l-48 333l-278 -333h-86z" />
    <glyph glyph-name="underscore" unicode="_" horiz-adv-x="532" 
d="M-123 -146l24 71h534l-24 -71h-534z" />
    <glyph glyph-name="grave" unicode="`" 
d="M88 609h-25l-159 168l4 11h132z" />
    <glyph glyph-name="a" unicode="a" horiz-adv-x="582" 
d="M89 -13c-58 0 -90 46 -90 106c0 179 208 428 352 428c35 0 56 -24 60 -47h1l17 46h140l-149 -405c-20 -53 -22 -72 -1 -72c25 0 85 40 137 145l29 -12c-55 -114 -132 -189 -252 -189c-85 0 -77 53 -49 125l25 65h-2c-80 -133 -126 -190 -218 -190zM179 65
c38 0 136 154 176 259c46 121 37 166 -3 166c-95 0 -193 -254 -193 -378c0 -30 7 -47 20 -47z" />
    <glyph glyph-name="b" unicode="b" horiz-adv-x="556" 
d="M152 -13c-87 0 -167 22 -124 146l183 531l-70 59l2 6l264 73l-124 -358l-63 -139h2c93 158 157 216 242 216c73 0 99 -52 99 -110c0 -186 -237 -424 -411 -424zM178 18c98 0 221 243 221 379c0 30 -6 46 -21 46c-47 0 -152 -160 -190 -265c-45 -121 -55 -160 -10 -160z
" />
    <glyph glyph-name="c" unicode="c" horiz-adv-x="461" 
d="M162 -13c-96 0 -148 54 -148 151c0 181 178 383 345 383c65 0 116 -29 116 -88c0 -53 -53 -92 -141 -81c26 102 27 137 -2 137c-62 0 -156 -160 -156 -317c0 -83 22 -116 69 -116c44 0 95 35 140 138l29 -11c-59 -144 -147 -196 -252 -196z" />
    <glyph glyph-name="d" unicode="d" horiz-adv-x="598" 
d="M94 -13c-56 0 -93 44 -93 112c0 179 205 422 346 422c34 0 55 -16 63 -47h1l63 190l-70 59l2 6l261 73l-229 -687c-18 -54 -23 -72 -2 -72c25 0 85 40 137 145l29 -12c-55 -114 -132 -189 -252 -189c-85 0 -75 53 -49 125l27 74h-2c-80 -140 -140 -199 -232 -199zM189 65
c43 0 134 153 171 248c45 117 34 177 -10 177c-98 0 -185 -239 -185 -368c0 -41 7 -57 24 -57z" />
    <glyph glyph-name="e" unicode="e" horiz-adv-x="477" 
d="M170 -13c-96 0 -157 54 -157 151c0 195 205 383 354 383c79 0 119 -45 119 -99c0 -37 -19 -78 -51 -110l-236 -2c-15 -43 -24 -89 -24 -138c0 -83 25 -116 72 -116c53 0 103 49 151 143l30 -10c-63 -135 -142 -202 -258 -202zM372 490c-58 0 -125 -64 -164 -156h25
c107 0 176 75 176 122c0 23 -13 34 -37 34z" />
    <glyph glyph-name="f" unicode="f" horiz-adv-x="359" 
d="M-123 -261c-56 0 -85 34 -85 74c0 33 30 67 68 70c35 -37 71 -81 100 -81c25 0 41 17 68 142l103 481h-83l10 32c78 5 110 35 154 125c77 159 165 202 227 202c47 0 70 -23 70 -59c0 -29 -14 -64 -38 -78c-33 11 -65 15 -93 15c-88 0 -132 -50 -132 -99
c0 -37 20 -61 68 -61h135l-50 -77h-126l-54 -244c-71 -319 -238 -442 -342 -442z" />
    <glyph glyph-name="g" unicode="g" horiz-adv-x="534" 
d="M221 169c-11 0 -21 1 -30 2l-66 -52l146 -85c90 -53 140 -95 140 -145c0 -103 -150 -151 -273 -151c-166 0 -276 46 -276 117c0 60 90 107 208 141l-33 92l116 90c-60 17 -96 59 -96 114c0 119 126 229 270 229c64 0 113 -21 141 -56l48 91h123l-54 -99h-112
c11 -17 17 -37 17 -59c0 -119 -126 -229 -269 -229zM254 202c55 0 95 69 95 182c0 67 -18 104 -56 104c-55 0 -95 -69 -95 -182c0 -67 18 -104 56 -104zM-36 -117c0 -68 93 -114 205 -114c72 0 127 18 127 53c0 23 -13 43 -99 92l-111 63c-78 -29 -122 -51 -122 -94z" />
    <glyph glyph-name="h" unicode="h" horiz-adv-x="588" 
d="M282 -13c-47 0 -90 23 -90 72c0 43 42 72 80 70c33 -101 47 -104 56 -104c38 0 95 183 95 342c0 51 -11 76 -35 76c-47 0 -150 -163 -192 -267c-19 -48 -54 -130 -66 -165l-147 -21l233 674l-70 59l2 6l263 73l-123 -358l-58 -139h2c93 158 157 216 242 216
c79 0 109 -52 109 -124c0 -184 -186 -410 -301 -410z" />
    <glyph glyph-name="i" unicode="i" horiz-adv-x="357" 
d="M238 710c0 49 44 93 93 93c50 0 94 -44 94 -93c0 -50 -44 -94 -94 -94c-49 0 -93 44 -93 94zM102 -13c-85 0 -90 49 -63 120l130 337h-93l11 32l262 53l-159 -414c-20 -53 -23 -72 -2 -72c25 0 85 40 137 145l29 -12c-55 -114 -132 -189 -252 -189z" />
    <glyph glyph-name="j" unicode="j" horiz-adv-x="316" 
d="M251 710c0 49 44 93 93 93c50 0 94 -44 94 -93c0 -50 -44 -94 -94 -94c-49 0 -93 44 -93 94zM-229 -262l-13 27c125 81 191 124 253 277l163 402h-93l11 32l264 53l-207 -511c-34 -84 -52 -117 -148 -165z" />
    <glyph glyph-name="k" unicode="k" horiz-adv-x="602" 
d="M418 -28c-73 0 -124 47 -157 156l-39 127c-4 -10 -8 -20 -11 -30l-31 -94l-38 -118l-159 -23l232 674l-70 59l2 6l264 73l-102 -295l-53 -132h3c61 93 126 146 210 146c67 0 93 -33 93 -75c0 -72 -72 -135 -186 -168l54 -193c17 -61 33 -65 47 -65c17 0 48 14 79 110
l29 -9c-39 -121 -87 -149 -167 -149zM423 476c-67 0 -157 -112 -201 -220c143 0 233 85 233 176c0 26 -7 44 -32 44z" />
    <glyph glyph-name="l" unicode="l" horiz-adv-x="339" 
d="M88 -13c-85 0 -88 48 -63 120l191 557l-70 59l2 6l264 73l-236 -687c-18 -54 -23 -72 -2 -72c25 0 85 40 137 145l29 -12c-55 -114 -132 -189 -252 -189z" />
    <glyph glyph-name="m" unicode="m" horiz-adv-x="906" 
d="M642 -13c-85 0 -99 51 -66 120l108 224c45 93 47 117 28 117c-25 0 -68 -57 -119 -135c-62 -92 -132 -213 -165 -300l-153 -23l134 341c37 95 47 117 28 117c-25 0 -68 -57 -119 -135c-62 -92 -132 -213 -165 -300l-157 -23l175 454h-93l11 32l261 53l-136 -336h1
c39 71 73 128 102 173c74 115 130 155 199 155c78 0 86 -74 35 -188l-62 -140h1c39 71 73 128 102 173c74 115 130 155 199 155c78 0 99 -74 44 -188l-105 -218c-24 -51 -23 -72 -2 -72c25 0 85 40 137 145l29 -12c-55 -114 -132 -189 -252 -189z" />
    <glyph glyph-name="n" unicode="n" horiz-adv-x="631" 
d="M367 -13c-85 0 -99 51 -66 120l108 224c45 93 47 117 28 117c-25 0 -68 -57 -119 -135c-62 -92 -132 -213 -165 -300l-157 -23l175 454h-93l11 32l261 53l-136 -336h1c39 71 73 128 102 173c74 115 130 155 199 155c78 0 99 -74 44 -188l-105 -218
c-24 -51 -23 -72 -2 -72c25 0 85 40 137 145l29 -12c-55 -114 -132 -189 -252 -189z" />
    <glyph glyph-name="o" unicode="o" horiz-adv-x="520" 
d="M160 -13c-95 0 -146 66 -146 145c0 182 167 389 349 389c95 0 146 -66 146 -145c0 -184 -167 -389 -349 -389zM217 29c52 0 129 138 128 364c0 56 -11 86 -37 86c-55 0 -130 -138 -130 -364c0 -56 11 -86 39 -86z" />
    <glyph glyph-name="p" unicode="p" horiz-adv-x="584" 
d="M-75 -248l238 692h-93l11 32l259 53l-29 -84c37 43 94 76 148 76c76 0 123 -51 123 -125c0 -194 -203 -414 -427 -406l-82 -238h-148zM356 437c-19 0 -39 -8 -55 -21l-136 -397c135 -1 252 211 252 332c0 63 -28 86 -61 86z" />
    <glyph glyph-name="q" unicode="q" horiz-adv-x="551" 
d="M160 -248l98 289l46 104h-2c-69 -111 -125 -158 -208 -158c-56 0 -93 44 -93 112c0 179 205 422 346 422c33 0 59 -16 68 -47h2l16 46h139l-264 -768h-148zM165 122c0 -41 7 -57 24 -57c43 0 134 153 171 248c45 117 34 177 -10 177c-98 0 -185 -239 -185 -368z" />
    <glyph glyph-name="r" unicode="r" horiz-adv-x="483" 
d="M-4 -10l174 454h-93l11 32l261 53l-130 -330h1c54 96 82 147 102 182c54 94 85 138 152 138c39 0 67 -25 67 -68c0 -53 -35 -87 -101 -98c-16 33 -28 54 -48 84c-55 -84 -137 -224 -221 -373l-18 -51z" />
    <glyph glyph-name="s" unicode="s" horiz-adv-x="408" 
d="M112 -13c-72 0 -126 43 -126 92c0 54 46 81 97 79c34 -115 42 -134 61 -134c41 0 83 31 83 62c0 27 -23 59 -58 102l-33 41c-33 41 -49 80 -49 119c0 100 119 173 222 173c68 0 112 -30 112 -79c0 -37 -31 -85 -92 -77c-34 102 -36 121 -56 121c-33 0 -78 -24 -78 -55
c0 -21 16 -51 54 -98l36 -45c33 -42 47 -69 47 -116c0 -115 -119 -185 -220 -185z" />
    <glyph glyph-name="t" unicode="t" horiz-adv-x="411" 
d="M105 -13c-85 0 -91 50 -63 120l128 318h-109l30 77h110l47 116h147l-46 -116h129l-31 -77h-129l-124 -310c-21 -53 -24 -72 -3 -72c25 0 85 40 137 145l29 -12c-55 -114 -132 -189 -252 -189z" />
    <glyph glyph-name="u" unicode="u" horiz-adv-x="627" 
d="M363 529l-158 -352c-43 -95 -47 -117 -28 -117c25 0 68 57 119 135c62 92 124 208 165 298l156 26l-156 -404c-20 -53 -23 -72 -2 -72c25 0 85 40 137 145l29 -12c-55 -114 -132 -189 -252 -189c-85 0 -92 49 -63 120l77 189h-1c-32 -58 -65 -112 -91 -152
c-73 -115 -125 -157 -197 -157c-78 0 -96 72 -44 188l119 269h-93l11 32z" />
    <glyph glyph-name="v" unicode="v" horiz-adv-x="559" 
d="M554 421c0 -215 -172 -434 -378 -434c-70 0 -105 41 -105 102c0 103 79 203 189 294h-181l-43 -81h-32l90 200h292c-88 -99 -189 -197 -189 -295c0 -63 36 -83 87 -83c78 0 177 55 228 180l-100 124c-10 55 24 93 70 93c37 0 72 -22 72 -100z" />
    <glyph glyph-name="w" unicode="w" horiz-adv-x="787" 
d="M154 -13c-60 0 -88 36 -88 98c0 101 87 202 198 298h-183l-43 -81h-32l90 200h292c-88 -100 -191 -197 -191 -295c0 -54 25 -84 70 -84c26 0 49 4 74 16c-3 18 -5 38 -5 59c0 144 96 323 190 323c35 0 54 -23 54 -61c0 -58 -27 -162 -119 -265l-30 -33
c29 -26 68 -39 109 -39c75 0 155 51 184 181l-100 124c-10 55 24 93 70 93c37 0 72 -22 72 -100c0 -170 -94 -434 -280 -434c-64 0 -108 41 -131 101c-67 -58 -138 -101 -201 -101zM381 285c0 -40 11 -72 28 -98c7 6 13 12 20 19c69 69 86 111 86 146c0 30 -20 49 -50 49
c-41 0 -84 -36 -84 -116z" />
    <glyph glyph-name="x" unicode="x" horiz-adv-x="628" 
d="M28 -13c-41 0 -64 32 -64 68c0 53 42 101 104 105c18 -73 25 -100 41 -100c22 0 76 64 134 148l-19 171c-5 44 -10 80 -34 80c-32 0 -78 -50 -122 -114l-24 18c61 89 121 158 214 158c51 0 103 -12 117 -134l5 -47c107 156 177 181 228 181c41 0 64 -32 64 -68
c0 -53 -42 -101 -104 -105c-18 73 -25 100 -41 100c-23 0 -80 -69 -141 -158l18 -161c5 -44 10 -80 34 -80c32 0 78 50 122 114l24 -18c-61 -89 -121 -158 -214 -158c-51 0 -103 12 -117 134l-4 37c-103 -147 -171 -171 -221 -171z" />
    <glyph glyph-name="y" unicode="y" horiz-adv-x="564" 
d="M-91 -261c-45 0 -73 27 -73 66c0 24 14 56 38 66c33 -17 60 -28 97 -28c41 0 90 16 167 109l2 485l-83 -5l-1 31l232 66l-6 -377l119 171c95 136 132 198 190 198c39 0 56 -24 56 -54c0 -34 -17 -55 -33 -65c-94 -24 -136 -35 -159 -69l-225 -323
c-84 -120 -223 -271 -321 -271z" />
    <glyph glyph-name="z" unicode="z" horiz-adv-x="528" 
d="M67 302l90 200h452l-334 -254l51 -131c33 -84 48 -101 73 -101c35 0 69 39 28 150l31 12c48 -133 7 -206 -101 -206c-86 0 -140 35 -206 156l-10 18l-41 -32c-41 -32 -41 -44 -29 -110c-59 -31 -110 -15 -110 27c0 19 12 34 65 75l364 277h-248l-43 -81h-32z" />
    <glyph glyph-name="braceleft" unicode="{" horiz-adv-x="368" 
d="M177 -238c-113 14 -223 115 -139 278l48 93c64 124 13 153 -66 166l12 35c88 13 159 42 180 166l16 93c28 163 171 230 306 230l1 -30c-113 -4 -148 -62 -162 -154l-11 -71c-28 -179 -147 -237 -259 -250l-1 -3c103 -13 188 -70 92 -250l-38 -71
c-49 -92 -56 -187 31 -205z" />
    <glyph glyph-name="bar" unicode="|" horiz-adv-x="348" 
d="M142 -238v1064h91v-1064h-91z" />
    <glyph glyph-name="braceright" unicode="}" horiz-adv-x="368" 
d="M222 823c113 -14 223 -115 139 -278l-48 -93c-64 -124 -13 -153 66 -166l-12 -35c-88 -13 -159 -42 -180 -166l-16 -93c-28 -163 -171 -230 -306 -230l-1 30c113 4 148 62 162 154l11 71c28 179 147 237 259 250l1 3c-103 13 -188 70 -92 250l38 71c49 92 56 187 -31 205
z" />
    <glyph glyph-name="asciitilde" unicode="~" horiz-adv-x="649" 
d="M207 338c113 0 173 -86 244 -86c38 0 74 20 77 81h75c-6 -88 -68 -150 -153 -150c-98 0 -163 86 -244 86c-38 0 -74 -20 -77 -81h-75c6 88 68 150 153 150z" />
    <glyph glyph-name="uni00A0" unicode="&#xa0;" horiz-adv-x="220" 
 />
    <glyph glyph-name="exclamdown" unicode="&#xa1;" horiz-adv-x="282" 
d="M193 521c52 0 95 -43 95 -99c0 -52 -43 -95 -95 -95c-56 0 -99 43 -99 95c0 56 43 99 99 99zM175 267c-68 -263 -18 -270 -88 -496c-14 -46 -194 -46 -177 10c68 218 127 223 221 486h44z" />
    <glyph glyph-name="cent" unicode="&#xa2;" horiz-adv-x="472" 
d="M118 -120l34 107c-87 5 -134 59 -134 151c0 166 150 350 303 379l33 103h44l-31 -99c63 -1 112 -30 112 -88c0 -53 -53 -92 -141 -81c26 102 27 137 -2 137c-62 0 -156 -160 -156 -317c0 -83 22 -116 69 -116c44 0 95 35 140 138l29 -11c-53 -130 -130 -185 -221 -194
l-35 -109h-44z" />
    <glyph glyph-name="sterling" unicode="&#xa3;" horiz-adv-x="625" 
d="M-48 0l1 4l208 143c83 57 110 112 110 167h-159l18 54h133c-3 12 -8 25 -12 37l-21 57c-12 33 -21 71 -21 105c0 106 160 212 350 212c80 0 138 -33 138 -86s-55 -99 -142 -92c21 95 -15 131 -70 131c-48 0 -123 -30 -123 -99c0 -18 5 -44 13 -67l21 -57
c14 -38 29 -76 29 -116c0 -8 -1 -17 -2 -25h166l-18 -54h-167c-23 -41 -66 -86 -143 -136l-80 -52h356l-74 -126h-511z" />
    <glyph glyph-name="yen" unicode="&#xa5;" horiz-adv-x="843" 
d="M169 0v38l51 4c35 3 56 8 68 47l24 78h-189l19 54h187l18 59h-185l19 54h183l2 8l-119 331c-12 33 -17 41 -50 45l-32 4l11 36h339l-11 -36l-44 -4c-36 -3 -58 -13 -48 -45l85 -271l264 271c32 33 27 43 -7 45l-62 4l11 36h270l-11 -36l-34 -4c-37 -4 -59 -12 -91 -45
l-322 -332l-2 -7h186l-19 -54h-184l-18 -59h182l-19 -54h-179l-24 -78c-12 -39 5 -44 40 -47l49 -4v-38h-358z" />
    <glyph glyph-name="brokenbar" unicode="&#xa6;" horiz-adv-x="348" 
d="M142 405v421h91v-421h-91zM142 -238v421h91v-421h-91z" />
    <glyph glyph-name="section" unicode="&#xa7;" horiz-adv-x="642" 
d="M272 193l-54 87c-35 57 -60 115 -60 185c0 180 187 314 370 314c128 0 197 -53 197 -113c0 -72 -89 -115 -167 -102c42 125 7 169 -74 169c-84 0 -120 -56 -120 -143c0 -54 26 -113 56 -161l54 -87c44 -71 71 -122 71 -193c0 -180 -182 -345 -381 -345
c-124 0 -223 65 -223 142c0 81 88 114 166 108c-42 -137 -10 -202 82 -202s136 80 136 175c0 57 -17 108 -53 166zM310 -132c112 66 154 175 154 261c0 65 -33 129 -66 182l-54 87c-25 40 -46 94 -46 141c0 38 7 108 60 166c-93 -66 -124 -150 -124 -218
c0 -51 19 -105 46 -148l55 -87c37 -59 65 -108 65 -172c0 -57 -17 -137 -90 -212z" />
    <glyph glyph-name="dieresis" unicode="&#xa8;" 
d="M-113 636c-39 0 -68 30 -68 69c0 40 29 69 68 69c38 0 68 -29 68 -69c0 -39 -30 -69 -68 -69zM113 636c-39 0 -68 30 -68 69c0 40 29 69 68 69c38 0 68 -29 68 -69c0 -39 -30 -69 -68 -69z" />
    <glyph glyph-name="copyright" unicode="&#xa9;" horiz-adv-x="908" 
d="M495 -13c-221 0 -399 162 -399 396s178 396 399 396s399 -162 399 -396s-178 -396 -399 -396zM495 35c194 0 342 137 342 348s-148 348 -342 348s-342 -137 -342 -348s148 -348 342 -348zM509 162c-148 0 -252 92 -252 226c0 133 106 225 256 225c46 0 96 -8 130 -17
l26 -160h-7l-90 117c-15 19 -27 26 -36 29c-6 1 -18 2 -29 2c-60 0 -135 -40 -135 -175c0 -111 43 -217 146 -217c11 0 21 1 29 3c10 3 21 8 36 28l89 115h7l-30 -159c-34 -9 -92 -17 -140 -17z" />
    <glyph glyph-name="ordfeminine" unicode="&#xaa;" horiz-adv-x="524" 
d="M181 359c-46 0 -72 38 -72 86c0 146 168 346 283 346c26 0 43 -18 46 -34h1l13 34h120l-119 -325c-15 -42 -18 -59 -1 -59c19 0 67 33 108 118l25 -10c-44 -93 -106 -156 -208 -156c-69 0 -66 42 -41 105l19 48h-2c-64 -108 -98 -153 -172 -153zM259 426
c26 0 103 127 133 206c38 98 32 133 1 133c-71 0 -146 -202 -146 -305c0 -22 4 -34 12 -34z" />
    <glyph glyph-name="guillemotleft" unicode="&#xab;" horiz-adv-x="557" 
d="M175 247l39 -223l-16 -6l-158 233l318 233l10 -12zM385 247l39 -223l-16 -6l-158 233l318 233l10 -12z" />
    <glyph glyph-name="uni00AD" unicode="&#xad;" horiz-adv-x="418" 
d="M52 222l28 81h294l-28 -81h-294z" />
    <glyph glyph-name="registered" unicode="&#xae;" horiz-adv-x="908" 
d="M495 -13c-221 0 -399 162 -399 396s178 396 399 396s399 -162 399 -396s-178 -396 -399 -396zM495 35c194 0 342 137 342 348s-148 348 -342 348s-342 -137 -342 -348s148 -348 342 -348zM281 180v23l17 2c21 2 33 7 33 31v318c0 24 -12 29 -33 31l-17 2v23h186
c118 0 189 -31 189 -102c0 -37 -22 -86 -99 -104l177 -224h-127l-158 209h-14v-153c0 -24 12 -29 33 -31l17 -2v-23h-204zM435 417h28c60 0 78 36 78 83c0 46 -18 82 -78 82h-28v-165z" />
    <glyph glyph-name="macron" unicode="&#xaf;" 
d="M-154 669l23 68h285l-23 -68h-285z" />
    <glyph glyph-name="degree" unicode="&#xb0;" horiz-adv-x="418" 
d="M313 441c-95 0 -170 75 -170 169s75 169 170 169s170 -75 170 -169s-75 -169 -170 -169zM313 504c54 0 101 42 101 106s-47 106 -101 106s-101 -42 -101 -106s47 -106 101 -106z" />
    <glyph glyph-name="plusminus" unicode="&#xb1;" horiz-adv-x="649" 
d="M268 120v163h-209v75h209v158h79v-158h209v-75h-209v-163h-79zM59 0v75h497v-75h-497z" />
    <glyph glyph-name="twosuperior" unicode="&#xb2;" horiz-adv-x="344" 
d="M55 401l1 4c188 140 290 243 290 318c0 35 -20 55 -54 55c-41 0 -75 -28 -88 -89h-23c7 82 60 142 155 142c69 0 112 -41 112 -94c0 -63 -49 -110 -148 -175l-111 -73h97c55 0 65 6 93 38l7 8l19 -7l-72 -127h-278z" />
    <glyph glyph-name="threesuperior" unicode="&#xb3;" horiz-adv-x="332" 
d="M395 567c0 -87 -101 -174 -203 -174c-53 0 -106 24 -106 70c0 33 33 59 79 51c12 -53 20 -89 64 -89c28 0 71 24 71 94c0 68 -36 96 -76 96c-3 0 -5 0 -10 -1l-4 24l35 8c43 10 102 28 102 82c0 31 -20 50 -55 50c-32 0 -70 -15 -83 -74h-24c11 76 61 127 148 127
c75 0 110 -36 110 -75c0 -46 -37 -71 -109 -84v-2c44 -25 61 -66 61 -103z" />
    <glyph glyph-name="acute" unicode="&#xb4;" 
d="M-148 609l143 179h157l-4 -11l-267 -168h-29z" />
    <glyph glyph-name="paragraph" unicode="&#xb6;" horiz-adv-x="585" 
d="M133 -213l152 499h-10c-107 0 -181 54 -181 152c0 168 167 320 440 320h170l-11 -36l-37 -4c-36 -4 -59 -10 -71 -49l-227 -744l-128 -78l137 456c-11 -4 -22 -7 -33 -10l-142 -469z" />
    <glyph glyph-name="periodcentered" unicode="&#xb7;" horiz-adv-x="301" 
d="M152 165c-52 0 -95 43 -95 99c0 52 43 95 95 95c56 0 99 -43 99 -95c0 -56 -43 -99 -99 -99z" />
    <glyph glyph-name="cedilla" unicode="&#xb8;" 
d="M-48 -265c-66 0 -106 34 -106 66c0 30 31 45 60 31c-5 -45 25 -65 62 -65c29 0 43 10 43 27c0 26 -31 48 -85 85l143 121h48l-98 -83c31 -23 54 -49 54 -81c0 -60 -48 -101 -121 -101z" />
    <glyph glyph-name="onesuperior" unicode="&#xb9;" horiz-adv-x="257" 
d="M77 401l8 26l25 2c22 2 29 8 37 30l100 289l-81 -28l12 35l196 71l-127 -367c-8 -22 -4 -31 16 -32l19 -1l-8 -25h-197z" />
    <glyph glyph-name="ordmasculine" unicode="&#xba;" horiz-adv-x="437" 
d="M233 359c-76 0 -116 54 -116 116c0 147 135 316 284 316c76 0 116 -53 116 -115c0 -149 -136 -317 -284 -317zM282 395c37 0 95 110 94 295c0 43 -6 65 -23 65c-39 0 -95 -110 -95 -295c0 -42 5 -65 24 -65z" />
    <glyph glyph-name="guillemotright" unicode="&#xbb;" horiz-adv-x="556" 
d="M177 256l-39 223l16 6l158 -233l-318 -233l-10 12zM387 256l-39 223l16 6l158 -233l-318 -233l-10 12z" />
    <glyph glyph-name="onequarter" unicode="&#xbc;" horiz-adv-x="896" 
d="M58 341l8 26l25 2c22 2 29 8 37 30l100 289l-81 -28l12 35l196 71l-127 -367c-8 -22 -4 -31 16 -32l19 -1l-8 -25h-197zM-21 0l840 758h104l-840 -758h-104zM627 0l35 100h-194l313 316h90l-84 -244h69l-25 -72h-69l-35 -100h-100zM577 172h109l59 168z" />
    <glyph glyph-name="onehalf" unicode="&#xbd;" horiz-adv-x="879" 
d="M58 341l8 26l25 2c22 2 29 8 37 30l100 289l-81 -28l12 35l196 71l-127 -367c-8 -22 -4 -31 16 -32l19 -1l-8 -25h-197zM-21 0l840 758h104l-840 -758h-104zM468 0l1 4c188 140 290 243 290 318c0 35 -20 55 -54 55c-41 0 -75 -28 -88 -89h-23c7 82 60 142 155 142
c69 0 112 -41 112 -94c0 -63 -49 -110 -148 -175l-111 -73h97c55 0 65 6 93 38l7 8l19 -7l-72 -127h-278z" />
    <glyph glyph-name="threequarters" unicode="&#xbe;" horiz-adv-x="921" 
d="M377 507c0 -87 -101 -174 -203 -174c-53 0 -106 24 -106 70c0 33 33 59 79 51c12 -53 20 -89 64 -89c28 0 71 24 71 94c0 68 -36 96 -76 96c-3 0 -5 0 -10 -1l-4 24l35 8c43 10 102 28 102 82c0 31 -20 50 -55 50c-32 0 -70 -15 -83 -74h-24c11 76 61 127 148 127
c75 0 110 -36 110 -75c0 -46 -37 -71 -109 -84v-2c44 -25 61 -66 61 -103zM4 0l840 758h104l-840 -758h-104zM652 0l35 100h-194l313 316h90l-84 -244h69l-25 -72h-69l-35 -100h-100zM602 172h109l59 168z" />
    <glyph glyph-name="questiondown" unicode="&#xbf;" horiz-adv-x="607" 
d="M470 521c52 0 95 -43 95 -99c0 -52 -43 -95 -95 -95c-56 0 -99 43 -99 95c0 56 43 99 99 99zM210 -216c68 0 116 29 121 127c65 8 134 -17 133 -74c-1 -63 -76 -99 -214 -99c-158 0 -281 78 -281 235c0 83 32 164 190 184l182 23c31 4 35 7 48 33l31 62h32l-36 -158
c-18 -81 -50 -88 -126 -97l-128 -15c-99 -12 -130 -36 -130 -89c0 -80 96 -132 178 -132z" />
    <glyph glyph-name="Agrave" unicode="&#xc0;" horiz-adv-x="819" 
d="M819 843h-27l-183 126l1 3h163zM-145 0l11 36l34 4c36 4 71 14 105 45l773 703h20l-145 -699c-8 -39 5 -45 39 -49l34 -4l-11 -36h-338l11 36l36 4c36 4 60 10 69 49l35 158h-271l-177 -162c-30 -28 -37 -43 -3 -45l60 -4l-11 -36h-271zM322 306h219l55 251z" />
    <glyph glyph-name="Aacute" unicode="&#xc1;" horiz-adv-x="819" 
d="M773 843l122 129h181l-1 -3l-270 -126h-32zM-145 0l11 36l34 4c36 4 71 14 105 45l773 703h20l-145 -699c-8 -39 5 -45 39 -49l34 -4l-11 -36h-338l11 36l36 4c36 4 60 10 69 49l35 158h-271l-177 -162c-30 -28 -37 -43 -3 -45l60 -4l-11 -36h-271zM322 306h219l55 251z
" />
    <glyph glyph-name="Acircumflex" unicode="&#xc2;" horiz-adv-x="819" 
d="M629 833l218 154h14l82 -154h-29l-80 59l-170 -59h-35zM-145 0l11 36l34 4c36 4 71 14 105 45l773 703h20l-145 -699c-8 -39 5 -45 39 -49l34 -4l-11 -36h-338l11 36l36 4c36 4 60 10 69 49l35 158h-271l-177 -162c-30 -28 -37 -43 -3 -45l60 -4l-11 -36h-271zM322 306
h219l55 251z" />
    <glyph glyph-name="Atilde" unicode="&#xc3;" horiz-adv-x="819" 
d="M878 829c-65 0 -99 58 -152 58c-30 0 -54 -12 -67 -54h-20c12 95 48 147 115 147c64 0 94 -58 147 -58c28 0 47 13 58 50h20c-19 -116 -53 -143 -101 -143zM-145 0l11 36l34 4c36 4 71 14 105 45l773 703h20l-145 -699c-8 -39 5 -45 39 -49l34 -4l-11 -36h-338l11 36
l36 4c36 4 60 10 69 49l35 158h-271l-177 -162c-30 -28 -37 -43 -3 -45l60 -4l-11 -36h-271zM322 306h219l55 251z" />
    <glyph glyph-name="Adieresis" unicode="&#xc4;" horiz-adv-x="819" 
d="M925 837c-40 0 -70 31 -70 71c0 41 30 71 70 71c39 0 70 -30 70 -71c0 -40 -31 -71 -70 -71zM699 837c-40 0 -70 31 -70 71c0 41 30 71 70 71c39 0 70 -30 70 -71c0 -40 -31 -71 -70 -71zM-145 0l11 36l34 4c36 4 71 14 105 45l773 703h20l-145 -699c-8 -39 5 -45 39 -49
l34 -4l-11 -36h-338l11 36l36 4c36 4 60 10 69 49l35 158h-271l-177 -162c-30 -28 -37 -43 -3 -45l60 -4l-11 -36h-271zM322 306h219l55 251z" />
    <glyph glyph-name="Aring" unicode="&#xc5;" horiz-adv-x="819" 
d="M829 837c-68 0 -124 53 -124 120c0 66 56 121 124 121c71 0 127 -55 127 -121c0 -67 -56 -120 -127 -120zM829 890c42 0 66 26 66 67s-24 66 -66 66c-40 0 -65 -25 -65 -66s25 -67 65 -67zM-145 0l11 36l34 4c36 4 71 14 105 45l773 703h20l-145 -699
c-8 -39 5 -45 39 -49l34 -4l-11 -36h-338l11 36l36 4c36 4 60 10 69 49l35 158h-271l-177 -162c-30 -28 -37 -43 -3 -45l60 -4l-11 -36h-271zM322 306h219l55 251z" />
    <glyph glyph-name="AE" unicode="&#xc6;" horiz-adv-x="1146" 
d="M-137 0l11 36l34 4c36 4 73 12 105 45l652 673h487l-46 -271h-12l-80 207c-6 16 -10 18 -31 18h-172l-90 -293h116c9 0 14 3 20 11l99 131h12l-103 -336h-12l-18 131c-1 8 -5 11 -14 11h-116l-98 -321h225c17 0 21 3 35 14l261 211h12l-151 -271h-645l11 36l36 4
c36 4 57 10 69 49l49 158h-270l-157 -162c-29 -30 -37 -43 -3 -45l60 -4l-11 -36h-265zM296 306h231l106 348z" />
    <glyph glyph-name="Ccedilla" unicode="&#xc7;" horiz-adv-x="811" 
d="M257 -265c-66 0 -106 34 -106 66c0 30 31 45 60 31c-5 -45 25 -65 62 -65c29 0 43 10 43 27c0 26 -31 48 -85 85l133 113c-163 24 -291 136 -291 317c0 263 265 470 530 470c97 0 194 -23 251 -62l-29 -235h-22l-62 177c-10 28 -22 45 -40 57c-20 13 -50 17 -92 17
c-186 0 -356 -185 -356 -458c0 -143 54 -242 192 -242c33 0 59 2 85 15c12 7 26 16 39 30l199 203h22l-137 -263c-56 -14 -144 -31 -220 -31c-9 0 -17 0 -26 1l-83 -71c31 -23 54 -49 54 -81c0 -60 -48 -101 -121 -101z" />
    <glyph glyph-name="Egrave" unicode="&#xc8;" horiz-adv-x="770" 
d="M589 843h-27l-183 126l1 3h163zM-32 0l11 36l36 4c36 4 57 10 69 49l178 580c12 39 -6 45 -39 49l-34 4l11 36h576l-46 -271h-22l-70 207c-5 16 -10 18 -31 18h-172l-90 -293h116c9 0 14 3 20 11l89 131h22l-103 -336h-22l-8 131c0 8 -5 11 -14 11h-116l-98 -321h225
c17 0 21 3 35 14l251 211h22l-151 -271h-645z" />
    <glyph glyph-name="Eacute" unicode="&#xc9;" horiz-adv-x="770" 
d="M543 843l122 129h181l-1 -3l-270 -126h-32zM-32 0l11 36l36 4c36 4 57 10 69 49l178 580c12 39 -6 45 -39 49l-34 4l11 36h576l-46 -271h-22l-70 207c-5 16 -10 18 -31 18h-172l-90 -293h116c9 0 14 3 20 11l89 131h22l-103 -336h-22l-8 131c0 8 -5 11 -14 11h-116
l-98 -321h225c17 0 21 3 35 14l251 211h22l-151 -271h-645z" />
    <glyph glyph-name="Ecircumflex" unicode="&#xca;" horiz-adv-x="770" 
d="M399 833l218 154h14l82 -154h-29l-80 59l-170 -59h-35zM-32 0l11 36l36 4c36 4 57 10 69 49l178 580c12 39 -6 45 -39 49l-34 4l11 36h576l-46 -271h-22l-70 207c-5 16 -10 18 -31 18h-172l-90 -293h116c9 0 14 3 20 11l89 131h22l-103 -336h-22l-8 131c0 8 -5 11 -14 11
h-116l-98 -321h225c17 0 21 3 35 14l251 211h22l-151 -271h-645z" />
    <glyph glyph-name="Edieresis" unicode="&#xcb;" horiz-adv-x="770" 
d="M695 837c-40 0 -70 31 -70 71c0 41 30 71 70 71c39 0 70 -30 70 -71c0 -40 -31 -71 -70 -71zM469 837c-40 0 -70 31 -70 71c0 41 30 71 70 71c39 0 70 -30 70 -71c0 -40 -31 -71 -70 -71zM-32 0l11 36l36 4c36 4 57 10 69 49l178 580c12 39 -6 45 -39 49l-34 4l11 36h576
l-46 -271h-22l-70 207c-5 16 -10 18 -31 18h-172l-90 -293h116c9 0 14 3 20 11l89 131h22l-103 -336h-22l-8 131c0 8 -5 11 -14 11h-116l-98 -321h225c17 0 21 3 35 14l251 211h22l-151 -271h-645z" />
    <glyph glyph-name="Igrave" unicode="&#xcc;" horiz-adv-x="426" 
d="M430 843h-27l-183 126l1 3h163zM-32 0l11 36l36 4c36 4 57 10 69 49l178 580c12 39 -6 45 -39 49l-34 4l11 36h338l-11 -36l-36 -4c-37 -4 -57 -10 -69 -49l-178 -580c-12 -39 5 -45 39 -49l34 -4l-11 -36h-338z" />
    <glyph glyph-name="Iacute" unicode="&#xcd;" horiz-adv-x="426" 
d="M384 843l122 129h181l-1 -3l-270 -126h-32zM-32 0l11 36l36 4c36 4 57 10 69 49l178 580c12 39 -6 45 -39 49l-34 4l11 36h338l-11 -36l-36 -4c-37 -4 -57 -10 -69 -49l-178 -580c-12 -39 5 -45 39 -49l34 -4l-11 -36h-338z" />
    <glyph glyph-name="Icircumflex" unicode="&#xce;" horiz-adv-x="426" 
d="M240 833l218 154h14l82 -154h-29l-80 59l-170 -59h-35zM-32 0l11 36l36 4c36 4 57 10 69 49l178 580c12 39 -6 45 -39 49l-34 4l11 36h338l-11 -36l-36 -4c-37 -4 -57 -10 -69 -49l-178 -580c-12 -39 5 -45 39 -49l34 -4l-11 -36h-338z" />
    <glyph glyph-name="Idieresis" unicode="&#xcf;" horiz-adv-x="426" 
d="M536 837c-40 0 -70 31 -70 71c0 41 30 71 70 71c39 0 70 -30 70 -71c0 -40 -31 -71 -70 -71zM310 837c-40 0 -70 31 -70 71c0 41 30 71 70 71c39 0 70 -30 70 -71c0 -40 -31 -71 -70 -71zM-32 0l11 36l36 4c36 4 57 10 69 49l178 580c12 39 -6 45 -39 49l-34 4l11 36h338
l-11 -36l-36 -4c-37 -4 -57 -10 -69 -49l-178 -580c-12 -39 5 -45 39 -49l34 -4l-11 -36h-338z" />
    <glyph glyph-name="Eth" unicode="&#xd0;" horiz-adv-x="858" 
d="M-32 0l11 36l36 4c36 4 57 10 69 49l86 279h-96l18 59h96l74 242c12 39 -6 45 -39 49l-34 4l11 36h258c272 0 413 -102 413 -282c0 -248 -236 -476 -581 -476h-322zM230 44h69c257 0 395 231 395 458c0 137 -73 212 -227 212h-32l-88 -287h138l-18 -59h-138z" />
    <glyph glyph-name="Ntilde" unicode="&#xd1;" horiz-adv-x="877" 
d="M708 829c-65 0 -99 58 -152 58c-30 0 -54 -12 -67 -54h-20c12 95 48 147 115 147c64 0 94 -58 147 -58c28 0 47 13 58 50h20c-19 -116 -53 -143 -101 -143zM669 -17l-357 668l-173 -562c-12 -39 5 -45 39 -49l34 -4l-11 -36h-234l11 36l36 4c36 4 57 10 69 49l179 580
c12 39 -6 45 -39 49l-34 4l11 36h235l265 -497l127 408c12 39 -6 45 -39 49l-34 4l11 36h234l-11 -36l-36 -4c-37 -4 -57 -10 -69 -49l-210 -686h-4z" />
    <glyph glyph-name="Ograve" unicode="&#xd2;" horiz-adv-x="878" 
d="M654 843h-27l-183 126l1 3h163zM368 -13c-170 0 -306 98 -306 279c0 223 218 513 532 513c170 0 305 -98 305 -279c0 -223 -217 -513 -531 -513zM398 29c161 0 316 200 316 465c0 138 -35 243 -150 243c-161 0 -316 -200 -316 -465c0 -138 35 -243 150 -243z" />
    <glyph glyph-name="Oacute" unicode="&#xd3;" horiz-adv-x="878" 
d="M608 843l122 129h181l-1 -3l-270 -126h-32zM368 -13c-170 0 -306 98 -306 279c0 223 218 513 532 513c170 0 305 -98 305 -279c0 -223 -217 -513 -531 -513zM398 29c161 0 316 200 316 465c0 138 -35 243 -150 243c-161 0 -316 -200 -316 -465c0 -138 35 -243 150 -243z
" />
    <glyph glyph-name="Ocircumflex" unicode="&#xd4;" horiz-adv-x="878" 
d="M464 833l218 154h14l82 -154h-29l-80 59l-170 -59h-35zM368 -13c-170 0 -306 98 -306 279c0 223 218 513 532 513c170 0 305 -98 305 -279c0 -223 -217 -513 -531 -513zM398 29c161 0 316 200 316 465c0 138 -35 243 -150 243c-161 0 -316 -200 -316 -465
c0 -138 35 -243 150 -243z" />
    <glyph glyph-name="Otilde" unicode="&#xd5;" horiz-adv-x="878" 
d="M713 829c-65 0 -99 58 -152 58c-30 0 -54 -12 -67 -54h-20c12 95 48 147 115 147c64 0 94 -58 147 -58c28 0 47 13 58 50h20c-19 -116 -53 -143 -101 -143zM368 -13c-170 0 -306 98 -306 279c0 223 218 513 532 513c170 0 305 -98 305 -279c0 -223 -217 -513 -531 -513z
M398 29c161 0 316 200 316 465c0 138 -35 243 -150 243c-161 0 -316 -200 -316 -465c0 -138 35 -243 150 -243z" />
    <glyph glyph-name="Odieresis" unicode="&#xd6;" horiz-adv-x="878" 
d="M760 837c-40 0 -70 31 -70 71c0 41 30 71 70 71c39 0 70 -30 70 -71c0 -40 -31 -71 -70 -71zM534 837c-40 0 -70 31 -70 71c0 41 30 71 70 71c39 0 70 -30 70 -71c0 -40 -31 -71 -70 -71zM368 -13c-170 0 -306 98 -306 279c0 223 218 513 532 513c170 0 305 -98 305 -279
c0 -223 -217 -513 -531 -513zM398 29c161 0 316 200 316 465c0 138 -35 243 -150 243c-161 0 -316 -200 -316 -465c0 -138 35 -243 150 -243z" />
    <glyph glyph-name="multiply" unicode="&#xd7;" horiz-adv-x="649" 
d="M143 24l-53 53l185 186l-185 185l53 53l185 -185l185 185l53 -53l-185 -185l185 -186l-53 -53l-185 185z" />
    <glyph glyph-name="Oslash" unicode="&#xd8;" horiz-adv-x="878" 
d="M70 -73l-43 43l106 106c-45 47 -71 110 -71 190c0 223 218 513 532 513c71 0 135 -17 187 -50l110 111l43 -43l-106 -107c44 -46 71 -110 71 -190c0 -223 -217 -513 -531 -513c-71 0 -136 17 -188 51zM248 272c0 -26 1 -52 4 -75l442 444c-22 59 -62 96 -130 96
c-161 0 -316 -200 -316 -465zM398 29c161 0 316 200 316 465c0 27 -1 53 -4 77l-442 -445c21 -59 61 -97 130 -97z" />
    <glyph glyph-name="Ugrave" unicode="&#xd9;" horiz-adv-x="861" 
d="M662 843h-27l-183 126l1 3h163zM391 -13c-204 0 -330 93 -259 323l110 359c12 39 -6 45 -39 49l-34 4l11 36h338l-11 -36l-36 -4c-37 -4 -57 -10 -69 -49l-116 -377c-54 -176 13 -232 144 -232c137 0 228 73 281 246l111 363c12 39 -6 46 -39 49l-44 4l11 36h244l-11 -36
l-36 -4c-37 -4 -57 -10 -69 -49l-115 -373c-62 -201 -173 -309 -372 -309z" />
    <glyph glyph-name="Uacute" unicode="&#xda;" horiz-adv-x="861" 
d="M616 843l122 129h181l-1 -3l-270 -126h-32zM391 -13c-204 0 -330 93 -259 323l110 359c12 39 -6 45 -39 49l-34 4l11 36h338l-11 -36l-36 -4c-37 -4 -57 -10 -69 -49l-116 -377c-54 -176 13 -232 144 -232c137 0 228 73 281 246l111 363c12 39 -6 46 -39 49l-44 4l11 36
h244l-11 -36l-36 -4c-37 -4 -57 -10 -69 -49l-115 -373c-62 -201 -173 -309 -372 -309z" />
    <glyph glyph-name="Ucircumflex" unicode="&#xdb;" horiz-adv-x="861" 
d="M472 833l218 154h14l82 -154h-29l-80 59l-170 -59h-35zM391 -13c-204 0 -330 93 -259 323l110 359c12 39 -6 45 -39 49l-34 4l11 36h338l-11 -36l-36 -4c-37 -4 -57 -10 -69 -49l-116 -377c-54 -176 13 -232 144 -232c137 0 228 73 281 246l111 363c12 39 -6 46 -39 49
l-44 4l11 36h244l-11 -36l-36 -4c-37 -4 -57 -10 -69 -49l-115 -373c-62 -201 -173 -309 -372 -309z" />
    <glyph glyph-name="Udieresis" unicode="&#xdc;" horiz-adv-x="861" 
d="M768 837c-40 0 -70 31 -70 71c0 41 30 71 70 71c39 0 70 -30 70 -71c0 -40 -31 -71 -70 -71zM542 837c-40 0 -70 31 -70 71c0 41 30 71 70 71c39 0 70 -30 70 -71c0 -40 -31 -71 -70 -71zM391 -13c-204 0 -330 93 -259 323l110 359c12 39 -6 45 -39 49l-34 4l11 36h338
l-11 -36l-36 -4c-37 -4 -57 -10 -69 -49l-116 -377c-54 -176 13 -232 144 -232c137 0 228 73 281 246l111 363c12 39 -6 46 -39 49l-44 4l11 36h244l-11 -36l-36 -4c-37 -4 -57 -10 -69 -49l-115 -373c-62 -201 -173 -309 -372 -309z" />
    <glyph glyph-name="Yacute" unicode="&#xdd;" horiz-adv-x="780" 
d="M583 843l122 129h181l-1 -3l-270 -126h-32zM120 0l12 38l61 4c35 2 56 8 68 47l78 253l-119 331c-12 33 -17 41 -50 45l-32 4l11 36h339l-11 -36l-44 -4c-36 -3 -59 -13 -48 -45l94 -272l265 272c32 33 27 43 -7 45l-62 4l11 36h270l-11 -36l-34 -4
c-37 -4 -59 -12 -91 -45l-322 -332l-77 -252c-12 -39 5 -45 40 -47l59 -4l-12 -38h-388z" />
    <glyph glyph-name="Thorn" unicode="&#xde;" horiz-adv-x="743" 
d="M189 722l11 36h337l-11 -36l-36 -4c-35 -4 -57 -9 -67 -42l-24 -79h69c173 0 297 -34 297 -156c0 -142 -136 -262 -413 -262h-81l-27 -90c-12 -40 5 -45 40 -47l69 -4l-12 -38h-373l11 36l36 4c36 4 57 10 69 49l178 580c12 39 -6 45 -39 49zM285 224h74
c168 0 229 121 229 222c0 73 -40 107 -129 107h-74z" />
    <glyph glyph-name="germandbls" unicode="&#xdf;" horiz-adv-x="669" 
d="M-166 -261c-56 0 -85 34 -85 74c0 33 30 67 68 70c33 -40 65 -77 93 -77c24 0 33 21 74 142l163 477h-67l10 32c29 3 76 17 92 61l4 11c48 131 156 260 357 260c101 0 165 -35 165 -106c0 -55 -34 -90 -100 -120l-55 -25c-49 -22 -70 -43 -70 -67c0 -21 16 -45 49 -89
l18 -24c39 -52 64 -98 64 -151c0 -118 -104 -220 -263 -220c-88 0 -136 42 -136 82c0 49 54 86 105 75c-6 -67 20 -115 67 -115c55 0 106 40 106 101c0 41 -20 76 -50 116l-18 24c-54 72 -66 99 -66 137c0 53 42 93 136 140l6 3c62 31 90 70 90 127c0 54 -34 75 -74 75
c-49 0 -121 -28 -166 -158l-142 -413c-106 -309 -271 -442 -375 -442z" />
    <glyph glyph-name="agrave" unicode="&#xe0;" horiz-adv-x="582" 
d="M433 609h-25l-159 168l4 11h132zM89 -13c-58 0 -90 46 -90 106c0 179 208 428 352 428c35 0 56 -24 60 -47h1l17 46h140l-149 -405c-20 -53 -22 -72 -1 -72c25 0 85 40 137 145l29 -12c-55 -114 -132 -189 -252 -189c-85 0 -77 53 -49 125l25 65h-2
c-80 -133 -126 -190 -218 -190zM179 65c38 0 136 154 176 259c46 121 37 166 -3 166c-95 0 -193 -254 -193 -378c0 -30 7 -47 20 -47z" />
    <glyph glyph-name="aacute" unicode="&#xe1;" horiz-adv-x="582" 
d="M364 609l143 179h157l-4 -11l-267 -168h-29zM89 -13c-58 0 -90 46 -90 106c0 179 208 428 352 428c35 0 56 -24 60 -47h1l17 46h140l-149 -405c-20 -53 -22 -72 -1 -72c25 0 85 40 137 145l29 -12c-55 -114 -132 -189 -252 -189c-85 0 -77 53 -49 125l25 65h-2
c-80 -133 -126 -190 -218 -190zM179 65c38 0 136 154 176 259c46 121 37 166 -3 166c-95 0 -193 -254 -193 -378c0 -30 7 -47 20 -47z" />
    <glyph glyph-name="acircumflex" unicode="&#xe2;" horiz-adv-x="582" 
d="M250 609l234 196h11l64 -196h-27l-76 80l-176 -80h-30zM89 -13c-58 0 -90 46 -90 106c0 179 208 428 352 428c35 0 56 -24 60 -47h1l17 46h140l-149 -405c-20 -53 -22 -72 -1 -72c25 0 85 40 137 145l29 -12c-55 -114 -132 -189 -252 -189c-85 0 -77 53 -49 125l25 65h-2
c-80 -133 -126 -190 -218 -190zM179 65c38 0 136 154 176 259c46 121 37 166 -3 166c-95 0 -193 -254 -193 -378c0 -30 7 -47 20 -47z" />
    <glyph glyph-name="atilde" unicode="&#xe3;" horiz-adv-x="582" 
d="M516 645c-65 0 -99 58 -152 58c-30 0 -54 -12 -67 -54h-20c12 95 48 147 115 147c64 0 94 -58 147 -58c28 0 47 13 58 50h20c-19 -116 -53 -143 -101 -143zM89 -13c-58 0 -90 46 -90 106c0 179 208 428 352 428c35 0 56 -24 60 -47h1l17 46h140l-149 -405
c-20 -53 -22 -72 -1 -72c25 0 85 40 137 145l29 -12c-55 -114 -132 -189 -252 -189c-85 0 -77 53 -49 125l25 65h-2c-80 -133 -126 -190 -218 -190zM179 65c38 0 136 154 176 259c46 121 37 166 -3 166c-95 0 -193 -254 -193 -378c0 -30 7 -47 20 -47z" />
    <glyph glyph-name="adieresis" unicode="&#xe4;" horiz-adv-x="582" 
d="M324 636c-39 0 -68 30 -68 69c0 40 29 69 68 69c38 0 68 -29 68 -69c0 -39 -30 -69 -68 -69zM550 636c-39 0 -68 30 -68 69c0 40 29 69 68 69c38 0 68 -29 68 -69c0 -39 -30 -69 -68 -69zM89 -13c-58 0 -90 46 -90 106c0 179 208 428 352 428c35 0 56 -24 60 -47h1l17 46
h140l-149 -405c-20 -53 -22 -72 -1 -72c25 0 85 40 137 145l29 -12c-55 -114 -132 -189 -252 -189c-85 0 -77 53 -49 125l25 65h-2c-80 -133 -126 -190 -218 -190zM179 65c38 0 136 154 176 259c46 121 37 166 -3 166c-95 0 -193 -254 -193 -378c0 -30 7 -47 20 -47z" />
    <glyph glyph-name="aring" unicode="&#xe5;" horiz-adv-x="582" 
d="M437 585c-68 0 -124 53 -124 120c0 66 56 121 124 121c71 0 127 -55 127 -121c0 -67 -56 -120 -127 -120zM437 638c42 0 66 26 66 67s-24 66 -66 66c-40 0 -65 -25 -65 -66s25 -67 65 -67zM89 -13c-58 0 -90 46 -90 106c0 179 208 428 352 428c35 0 56 -24 60 -47h1
l17 46h140l-149 -405c-20 -53 -22 -72 -1 -72c25 0 85 40 137 145l29 -12c-55 -114 -132 -189 -252 -189c-85 0 -77 53 -49 125l25 65h-2c-80 -133 -126 -190 -218 -190zM179 65c38 0 136 154 176 259c46 121 37 166 -3 166c-95 0 -193 -254 -193 -378c0 -30 7 -47 20 -47z
" />
    <glyph glyph-name="ae" unicode="&#xe6;" horiz-adv-x="755" 
d="M101 -13c-63 0 -103 37 -103 117c0 114 76 266 278 352c94 40 215 65 369 65c79 0 119 -45 119 -99c0 -37 -19 -78 -51 -110l-236 -2c-15 -43 -24 -89 -24 -138c0 -83 25 -116 72 -116c53 0 103 49 151 143l30 -10c-63 -135 -142 -202 -258 -202c-87 0 -145 44 -155 125
c-53 -69 -124 -125 -192 -125zM162 123c0 -41 8 -58 27 -58c23 0 59 22 102 84c6 145 121 282 240 342c-81 -11 -145 -33 -195 -62c-137 -79 -174 -209 -174 -306zM650 490c-58 0 -125 -64 -164 -156h25c107 0 176 75 176 122c0 23 -13 34 -37 34z" />
    <glyph glyph-name="ccedilla" unicode="&#xe7;" horiz-adv-x="461" 
d="M53 -265c-66 0 -106 34 -106 66c0 30 31 45 60 31c-5 -45 25 -65 62 -65c29 0 43 10 43 27c0 26 -31 48 -85 85l128 108c-92 3 -141 56 -141 151c0 181 178 383 345 383c65 0 116 -29 116 -88c0 -53 -53 -92 -141 -81c26 102 27 137 -2 137c-62 0 -156 -160 -156 -317
c0 -83 22 -116 69 -116c44 0 95 35 140 138l29 -11c-50 -123 -122 -179 -207 -193l-87 -73c31 -23 54 -49 54 -81c0 -60 -48 -101 -121 -101z" />
    <glyph glyph-name="egrave" unicode="&#xe8;" horiz-adv-x="477" 
d="M432 609h-25l-159 168l4 11h132zM170 -13c-96 0 -157 54 -157 151c0 195 205 383 354 383c79 0 119 -45 119 -99c0 -37 -19 -78 -51 -110l-236 -2c-15 -43 -24 -89 -24 -138c0 -83 25 -116 72 -116c53 0 103 49 151 143l30 -10c-63 -135 -142 -202 -258 -202zM372 490
c-58 0 -125 -64 -164 -156h25c107 0 176 75 176 122c0 23 -13 34 -37 34z" />
    <glyph glyph-name="eacute" unicode="&#xe9;" horiz-adv-x="477" 
d="M363 609l143 179h157l-4 -11l-267 -168h-29zM170 -13c-96 0 -157 54 -157 151c0 195 205 383 354 383c79 0 119 -45 119 -99c0 -37 -19 -78 -51 -110l-236 -2c-15 -43 -24 -89 -24 -138c0 -83 25 -116 72 -116c53 0 103 49 151 143l30 -10c-63 -135 -142 -202 -258 -202z
M372 490c-58 0 -125 -64 -164 -156h25c107 0 176 75 176 122c0 23 -13 34 -37 34z" />
    <glyph glyph-name="ecircumflex" unicode="&#xea;" horiz-adv-x="477" 
d="M249 609l234 196h11l64 -196h-27l-76 80l-176 -80h-30zM170 -13c-96 0 -157 54 -157 151c0 195 205 383 354 383c79 0 119 -45 119 -99c0 -37 -19 -78 -51 -110l-236 -2c-15 -43 -24 -89 -24 -138c0 -83 25 -116 72 -116c53 0 103 49 151 143l30 -10
c-63 -135 -142 -202 -258 -202zM372 490c-58 0 -125 -64 -164 -156h25c107 0 176 75 176 122c0 23 -13 34 -37 34z" />
    <glyph glyph-name="edieresis" unicode="&#xeb;" horiz-adv-x="477" 
d="M323 636c-39 0 -68 30 -68 69c0 40 29 69 68 69c38 0 68 -29 68 -69c0 -39 -30 -69 -68 -69zM549 636c-39 0 -68 30 -68 69c0 40 29 69 68 69c38 0 68 -29 68 -69c0 -39 -30 -69 -68 -69zM170 -13c-96 0 -157 54 -157 151c0 195 205 383 354 383c79 0 119 -45 119 -99
c0 -37 -19 -78 -51 -110l-236 -2c-15 -43 -24 -89 -24 -138c0 -83 25 -116 72 -116c53 0 103 49 151 143l30 -10c-63 -135 -142 -202 -258 -202zM372 490c-58 0 -125 -64 -164 -156h25c107 0 176 75 176 122c0 23 -13 34 -37 34z" />
    <glyph glyph-name="igrave" unicode="&#xec;" horiz-adv-x="357" 
d="M330 609h-25l-159 168l4 11h132zM102 -13c-85 0 -90 49 -63 120l130 337h-93l11 32l262 53l-159 -414c-20 -53 -23 -72 -2 -72c25 0 85 40 137 145l29 -12c-55 -114 -132 -189 -252 -189z" />
    <glyph glyph-name="iacute" unicode="&#xed;" horiz-adv-x="357" 
d="M261 609l143 179h157l-4 -11l-267 -168h-29zM102 -13c-85 0 -90 49 -63 120l130 337h-93l11 32l262 53l-159 -414c-20 -53 -23 -72 -2 -72c25 0 85 40 137 145l29 -12c-55 -114 -132 -189 -252 -189z" />
    <glyph glyph-name="icircumflex" unicode="&#xee;" horiz-adv-x="357" 
d="M147 609l234 196h11l64 -196h-27l-76 80l-176 -80h-30zM102 -13c-85 0 -90 49 -63 120l130 337h-93l11 32l262 53l-159 -414c-20 -53 -23 -72 -2 -72c25 0 85 40 137 145l29 -12c-55 -114 -132 -189 -252 -189z" />
    <glyph glyph-name="idieresis" unicode="&#xef;" horiz-adv-x="357" 
d="M234 636c-39 0 -68 30 -68 69c0 40 29 69 68 69c38 0 68 -29 68 -69c0 -39 -30 -69 -68 -69zM434 636c-39 0 -68 30 -68 69c0 40 29 69 68 69c38 0 68 -29 68 -69c0 -39 -30 -69 -68 -69zM102 -13c-85 0 -90 49 -63 120l130 337h-93l11 32l262 53l-159 -414
c-20 -53 -23 -72 -2 -72c25 0 85 40 137 145l29 -12c-55 -114 -132 -189 -252 -189z" />
    <glyph glyph-name="eth" unicode="&#xf0;" horiz-adv-x="523" 
d="M157 -13c-81 0 -144 45 -144 141c0 152 152 393 282 393c16 0 29 -4 40 -10c-9 48 -27 94 -57 138l-139 -65l-20 45l129 59c-24 28 -54 54 -90 80l22 29c50 -22 96 -47 138 -76l159 73l20 -44l-136 -63c91 -79 148 -180 148 -301c0 -217 -172 -399 -352 -399zM173 113
c0 -56 10 -86 40 -86c62 0 132 115 132 376c0 20 -1 39 -3 57c-6 22 -19 32 -38 32c-71 0 -131 -230 -131 -379z" />
    <glyph glyph-name="ntilde" unicode="&#xf1;" horiz-adv-x="631" 
d="M567 645c-65 0 -99 58 -152 58c-30 0 -54 -12 -67 -54h-20c12 95 48 147 115 147c64 0 94 -58 147 -58c28 0 47 13 58 50h20c-19 -116 -53 -143 -101 -143zM367 -13c-85 0 -99 51 -66 120l108 224c45 93 47 117 28 117c-25 0 -68 -57 -119 -135
c-62 -92 -132 -213 -165 -300l-157 -23l175 454h-93l11 32l261 53l-136 -336h1c39 71 73 128 102 173c74 115 130 155 199 155c78 0 99 -74 44 -188l-105 -218c-24 -51 -23 -72 -2 -72c25 0 85 40 137 145l29 -12c-55 -114 -132 -189 -252 -189z" />
    <glyph glyph-name="ograve" unicode="&#xf2;" horiz-adv-x="520" 
d="M413 609h-25l-159 168l4 11h132zM160 -13c-95 0 -146 66 -146 145c0 182 167 389 349 389c95 0 146 -66 146 -145c0 -184 -167 -389 -349 -389zM217 29c52 0 129 138 128 364c0 56 -11 86 -37 86c-55 0 -130 -138 -130 -364c0 -56 11 -86 39 -86z" />
    <glyph glyph-name="oacute" unicode="&#xf3;" horiz-adv-x="520" 
d="M344 609l143 179h157l-4 -11l-267 -168h-29zM160 -13c-95 0 -146 66 -146 145c0 182 167 389 349 389c95 0 146 -66 146 -145c0 -184 -167 -389 -349 -389zM217 29c52 0 129 138 128 364c0 56 -11 86 -37 86c-55 0 -130 -138 -130 -364c0 -56 11 -86 39 -86z" />
    <glyph glyph-name="ocircumflex" unicode="&#xf4;" horiz-adv-x="520" 
d="M230 609l234 196h11l64 -196h-27l-76 80l-176 -80h-30zM160 -13c-95 0 -146 66 -146 145c0 182 167 389 349 389c95 0 146 -66 146 -145c0 -184 -167 -389 -349 -389zM217 29c52 0 129 138 128 364c0 56 -11 86 -37 86c-55 0 -130 -138 -130 -364c0 -56 11 -86 39 -86z
" />
    <glyph glyph-name="otilde" unicode="&#xf5;" horiz-adv-x="520" 
d="M496 645c-65 0 -99 58 -152 58c-30 0 -54 -12 -67 -54h-20c12 95 48 147 115 147c64 0 94 -58 147 -58c28 0 47 13 58 50h20c-19 -116 -53 -143 -101 -143zM160 -13c-95 0 -146 66 -146 145c0 182 167 389 349 389c95 0 146 -66 146 -145c0 -184 -167 -389 -349 -389z
M217 29c52 0 129 138 128 364c0 56 -11 86 -37 86c-55 0 -130 -138 -130 -364c0 -56 11 -86 39 -86z" />
    <glyph glyph-name="odieresis" unicode="&#xf6;" horiz-adv-x="520" 
d="M304 636c-39 0 -68 30 -68 69c0 40 29 69 68 69c38 0 68 -29 68 -69c0 -39 -30 -69 -68 -69zM530 636c-39 0 -68 30 -68 69c0 40 29 69 68 69c38 0 68 -29 68 -69c0 -39 -30 -69 -68 -69zM160 -13c-95 0 -146 66 -146 145c0 182 167 389 349 389c95 0 146 -66 146 -145
c0 -184 -167 -389 -349 -389zM217 29c52 0 129 138 128 364c0 56 -11 86 -37 86c-55 0 -130 -138 -130 -364c0 -56 11 -86 39 -86z" />
    <glyph glyph-name="divide" unicode="&#xf7;" horiz-adv-x="649" 
d="M329 363c-49 0 -89 40 -89 90c0 49 40 89 89 89c50 0 90 -40 90 -89c0 -50 -40 -90 -90 -90zM66 225v75h527v-75h-527zM329 -17c-49 0 -89 40 -89 90c0 49 40 89 89 89c50 0 90 -40 90 -89c0 -50 -40 -90 -90 -90z" />
    <glyph glyph-name="oslash" unicode="&#xf8;" horiz-adv-x="560" 
d="M180 -13c-47 0 -84 16 -108 42l-98 -89l-33 37l104 95c-7 18 -11 39 -11 60c0 182 167 389 349 389c47 0 83 -16 107 -41l98 89l33 -37l-103 -95c7 -18 11 -39 11 -61c0 -184 -167 -389 -349 -389zM328 479c-46 0 -106 -97 -125 -262l162 148v28c0 56 -11 86 -37 86z
M237 29c44 0 105 98 123 264l-162 -148v-30c0 -56 11 -86 39 -86z" />
    <glyph glyph-name="ugrave" unicode="&#xf9;" horiz-adv-x="627" 
d="M466 609h-25l-159 168l4 11h132zM363 529l-158 -352c-43 -95 -47 -117 -28 -117c25 0 68 57 119 135c62 92 124 208 165 298l156 26l-156 -404c-20 -53 -23 -72 -2 -72c25 0 85 40 137 145l29 -12c-55 -114 -132 -189 -252 -189c-85 0 -92 49 -63 120l77 189h-1
c-32 -58 -65 -112 -91 -152c-73 -115 -125 -157 -197 -157c-78 0 -96 72 -44 188l119 269h-93l11 32z" />
    <glyph glyph-name="uacute" unicode="&#xfa;" horiz-adv-x="627" 
d="M397 609l143 179h157l-4 -11l-267 -168h-29zM363 529l-158 -352c-43 -95 -47 -117 -28 -117c25 0 68 57 119 135c62 92 124 208 165 298l156 26l-156 -404c-20 -53 -23 -72 -2 -72c25 0 85 40 137 145l29 -12c-55 -114 -132 -189 -252 -189c-85 0 -92 49 -63 120l77 189
h-1c-32 -58 -65 -112 -91 -152c-73 -115 -125 -157 -197 -157c-78 0 -96 72 -44 188l119 269h-93l11 32z" />
    <glyph glyph-name="ucircumflex" unicode="&#xfb;" horiz-adv-x="627" 
d="M283 609l234 196h11l64 -196h-27l-76 80l-176 -80h-30zM363 529l-158 -352c-43 -95 -47 -117 -28 -117c25 0 68 57 119 135c62 92 124 208 165 298l156 26l-156 -404c-20 -53 -23 -72 -2 -72c25 0 85 40 137 145l29 -12c-55 -114 -132 -189 -252 -189
c-85 0 -92 49 -63 120l77 189h-1c-32 -58 -65 -112 -91 -152c-73 -115 -125 -157 -197 -157c-78 0 -96 72 -44 188l119 269h-93l11 32z" />
    <glyph glyph-name="udieresis" unicode="&#xfc;" horiz-adv-x="627" 
d="M357 636c-39 0 -68 30 -68 69c0 40 29 69 68 69c38 0 68 -29 68 -69c0 -39 -30 -69 -68 -69zM583 636c-39 0 -68 30 -68 69c0 40 29 69 68 69c38 0 68 -29 68 -69c0 -39 -30 -69 -68 -69zM363 529l-158 -352c-43 -95 -47 -117 -28 -117c25 0 68 57 119 135
c62 92 124 208 165 298l156 26l-156 -404c-20 -53 -23 -72 -2 -72c25 0 85 40 137 145l29 -12c-55 -114 -132 -189 -252 -189c-85 0 -92 49 -63 120l77 189h-1c-32 -58 -65 -112 -91 -152c-73 -115 -125 -157 -197 -157c-78 0 -96 72 -44 188l119 269h-93l11 32z" />
    <glyph glyph-name="yacute" unicode="&#xfd;" horiz-adv-x="564" 
d="M397 609l143 179h157l-4 -11l-267 -168h-29zM-91 -261c-45 0 -73 27 -73 66c0 24 14 56 38 66c33 -17 60 -28 97 -28c41 0 90 16 167 109l2 485l-83 -5l-1 31l232 66l-6 -377l119 171c95 136 132 198 190 198c39 0 56 -24 56 -54c0 -34 -17 -55 -33 -65
c-94 -24 -136 -35 -159 -69l-225 -323c-84 -120 -223 -271 -321 -271z" />
    <glyph glyph-name="thorn" unicode="&#xfe;" horiz-adv-x="561" 
d="M411 802l-123 -356c37 42 94 75 148 75c76 0 123 -51 123 -125c0 -194 -203 -414 -427 -406l-82 -238h-148l313 912l-70 59l2 6zM333 437c-19 0 -39 -8 -55 -21l-136 -397c135 -1 252 211 252 332c0 63 -28 86 -61 86z" />
    <glyph glyph-name="ydieresis" unicode="&#xff;" horiz-adv-x="564" 
d="M357 636c-39 0 -68 30 -68 69c0 40 29 69 68 69c38 0 68 -29 68 -69c0 -39 -30 -69 -68 -69zM583 636c-39 0 -68 30 -68 69c0 40 29 69 68 69c38 0 68 -29 68 -69c0 -39 -30 -69 -68 -69zM-91 -261c-45 0 -73 27 -73 66c0 24 14 56 38 66c33 -17 60 -28 97 -28
c41 0 90 16 167 109l2 485l-83 -5l-1 31l232 66l-6 -377l119 171c95 136 132 198 190 198c39 0 56 -24 56 -54c0 -34 -17 -55 -33 -65c-94 -24 -136 -35 -159 -69l-225 -323c-84 -120 -223 -271 -321 -271z" />
    <glyph glyph-name="Amacron" unicode="&#x100;" horiz-adv-x="819" 
d="M657 872l23 68h285l-23 -68h-285zM-145 0l11 36l34 4c36 4 71 14 105 45l773 703h20l-145 -699c-8 -39 5 -45 39 -49l34 -4l-11 -36h-338l11 36l36 4c36 4 60 10 69 49l35 158h-271l-177 -162c-30 -28 -37 -43 -3 -45l60 -4l-11 -36h-271zM322 306h219l55 251z" />
    <glyph glyph-name="amacron" unicode="&#x101;" horiz-adv-x="582" 
d="M282 669l23 68h285l-23 -68h-285zM89 -13c-58 0 -90 46 -90 106c0 179 208 428 352 428c35 0 56 -24 60 -47h1l17 46h140l-149 -405c-20 -53 -22 -72 -1 -72c25 0 85 40 137 145l29 -12c-55 -114 -132 -189 -252 -189c-85 0 -77 53 -49 125l25 65h-2
c-80 -133 -126 -190 -218 -190zM179 65c38 0 136 154 176 259c46 121 37 166 -3 166c-95 0 -193 -254 -193 -378c0 -30 7 -47 20 -47z" />
    <glyph glyph-name="Abreve" unicode="&#x102;" horiz-adv-x="819" 
d="M799 827c-65 0 -137 40 -110 160h53c-14 -75 15 -106 68 -106c48 0 97 27 119 106h56c-34 -136 -123 -160 -186 -160zM-145 0l11 36l34 4c36 4 71 14 105 45l773 703h20l-145 -699c-8 -39 5 -45 39 -49l34 -4l-11 -36h-338l11 36l36 4c36 4 60 10 69 49l35 158h-271
l-177 -162c-30 -28 -37 -43 -3 -45l60 -4l-11 -36h-271zM322 306h219l55 251z" />
    <glyph glyph-name="abreve" unicode="&#x103;" horiz-adv-x="582" 
d="M403 628c-65 0 -137 40 -110 160h53c-14 -75 15 -106 68 -106c48 0 97 27 119 106h56c-34 -136 -123 -160 -186 -160zM89 -13c-58 0 -90 46 -90 106c0 179 208 428 352 428c35 0 56 -24 60 -47h1l17 46h140l-149 -405c-20 -53 -22 -72 -1 -72c25 0 85 40 137 145l29 -12
c-55 -114 -132 -189 -252 -189c-85 0 -77 53 -49 125l25 65h-2c-80 -133 -126 -190 -218 -190zM179 65c38 0 136 154 176 259c46 121 37 166 -3 166c-95 0 -193 -254 -193 -378c0 -30 7 -47 20 -47z" />
    <glyph glyph-name="Aogonek" unicode="&#x104;" horiz-adv-x="819" 
d="M-145 0l11 36l34 4c36 4 71 14 105 45l773 703h20l-145 -699c-8 -39 5 -45 39 -49l34 -4l-11 -36h-92c-46 -40 -107 -86 -107 -136c0 -31 20 -46 58 -46c14 0 29 2 46 6l-11 -31c-24 -16 -63 -27 -98 -27c-50 0 -90 23 -90 69c0 62 87 126 168 165h-212l11 36l36 4
c36 4 60 10 69 49l35 158h-271l-177 -162c-30 -28 -37 -43 -3 -45l60 -4l-11 -36h-271zM322 306h219l55 251z" />
    <glyph glyph-name="aogonek" unicode="&#x105;" horiz-adv-x="582" 
d="M89 -13c-58 0 -90 46 -90 106c0 179 208 428 352 428c35 0 56 -24 60 -47h1l17 46h140l-149 -405c-20 -53 -22 -72 -1 -72c25 0 85 40 137 145l29 -12c-44 -92 -103 -158 -186 -181c-45 -39 -97 -83 -97 -131c0 -31 20 -46 58 -46c14 0 29 2 46 6l-11 -31
c-24 -16 -63 -27 -98 -27c-50 0 -90 23 -90 69c0 56 72 113 146 153c-7 -1 -13 -1 -20 -1c-85 0 -77 53 -49 125l25 65h-2c-80 -133 -126 -190 -218 -190zM179 65c38 0 136 154 176 259c46 121 37 166 -3 166c-95 0 -193 -254 -193 -378c0 -30 7 -47 20 -47z" />
    <glyph glyph-name="Cacute" unicode="&#x106;" horiz-adv-x="811" 
d="M628 843l122 129h181l-1 -3l-270 -126h-32zM433 -13c-195 0 -360 116 -360 322c0 263 265 470 530 470c97 0 194 -23 251 -62l-29 -235h-22l-62 177c-10 28 -22 45 -40 57c-20 13 -50 17 -92 17c-186 0 -356 -185 -356 -458c0 -143 54 -242 192 -242c33 0 59 2 85 15
c12 7 26 16 39 30l199 203h22l-137 -263c-56 -14 -144 -31 -220 -31z" />
    <glyph glyph-name="cacute" unicode="&#x107;" horiz-adv-x="461" 
d="M336 609l143 179h157l-4 -11l-267 -168h-29zM162 -13c-96 0 -148 54 -148 151c0 181 178 383 345 383c65 0 116 -29 116 -88c0 -53 -53 -92 -141 -81c26 102 27 137 -2 137c-62 0 -156 -160 -156 -317c0 -83 22 -116 69 -116c44 0 95 35 140 138l29 -11
c-59 -144 -147 -196 -252 -196z" />
    <glyph glyph-name="Ccircumflex" unicode="&#x108;" horiz-adv-x="811" 
d="M484 833l218 154h14l82 -154h-29l-80 59l-170 -59h-35zM433 -13c-195 0 -360 116 -360 322c0 263 265 470 530 470c97 0 194 -23 251 -62l-29 -235h-22l-62 177c-10 28 -22 45 -40 57c-20 13 -50 17 -92 17c-186 0 -356 -185 -356 -458c0 -143 54 -242 192 -242
c33 0 59 2 85 15c12 7 26 16 39 30l199 203h22l-137 -263c-56 -14 -144 -31 -220 -31z" />
    <glyph glyph-name="ccircumflex" unicode="&#x109;" horiz-adv-x="461" 
d="M222 609l234 196h11l64 -196h-27l-76 80l-176 -80h-30zM162 -13c-96 0 -148 54 -148 151c0 181 178 383 345 383c65 0 116 -29 116 -88c0 -53 -53 -92 -141 -81c26 102 27 137 -2 137c-62 0 -156 -160 -156 -317c0 -83 22 -116 69 -116c44 0 95 35 140 138l29 -11
c-59 -144 -147 -196 -252 -196z" />
    <glyph glyph-name="Cdotaccent" unicode="&#x10a;" horiz-adv-x="811" 
d="M667 837c-40 0 -70 31 -70 71c0 41 30 71 70 71c39 0 70 -30 70 -71c0 -40 -31 -71 -70 -71zM433 -13c-195 0 -360 116 -360 322c0 263 265 470 530 470c97 0 194 -23 251 -62l-29 -235h-22l-62 177c-10 28 -22 45 -40 57c-20 13 -50 17 -92 17
c-186 0 -356 -185 -356 -458c0 -143 54 -242 192 -242c33 0 59 2 85 15c12 7 26 16 39 30l199 203h22l-137 -263c-56 -14 -144 -31 -220 -31z" />
    <glyph glyph-name="cdotaccent" unicode="&#x10b;" horiz-adv-x="461" 
d="M409 636c-39 0 -68 30 -68 69c0 40 29 69 68 69c38 0 68 -29 68 -69c0 -39 -30 -69 -68 -69zM162 -13c-96 0 -148 54 -148 151c0 181 178 383 345 383c65 0 116 -29 116 -88c0 -53 -53 -92 -141 -81c26 102 27 137 -2 137c-62 0 -156 -160 -156 -317
c0 -83 22 -116 69 -116c44 0 95 35 140 138l29 -11c-59 -144 -147 -196 -252 -196z" />
    <glyph glyph-name="Ccaron" unicode="&#x10c;" horiz-adv-x="811" 
d="M630 833l-82 155h29l80 -59l170 59h35l-218 -155h-14zM433 -13c-195 0 -360 116 -360 322c0 263 265 470 530 470c97 0 194 -23 251 -62l-29 -235h-22l-62 177c-10 28 -22 45 -40 57c-20 13 -50 17 -92 17c-186 0 -356 -185 -356 -458c0 -143 54 -242 192 -242
c33 0 59 2 85 15c12 7 26 16 39 30l199 203h22l-137 -263c-56 -14 -144 -31 -220 -31z" />
    <glyph glyph-name="ccaron" unicode="&#x10d;" horiz-adv-x="461" 
d="M351 609l-64 196h27l75 -80l177 80h30l-234 -196h-11zM162 -13c-96 0 -148 54 -148 151c0 181 178 383 345 383c65 0 116 -29 116 -88c0 -53 -53 -92 -141 -81c26 102 27 137 -2 137c-62 0 -156 -160 -156 -317c0 -83 22 -116 69 -116c44 0 95 35 140 138l29 -11
c-59 -144 -147 -196 -252 -196z" />
    <glyph glyph-name="Dcaron" unicode="&#x10e;" horiz-adv-x="858" 
d="M618 833l-82 155h29l80 -59l170 59h35l-218 -155h-14zM-32 0l11 36l36 4c36 4 57 10 69 49l178 580c12 39 -6 45 -39 49l-34 4l11 36h258c272 0 413 -102 413 -282c0 -248 -236 -476 -581 -476h-322zM230 44h69c257 0 395 231 395 458c0 137 -73 212 -227 212h-32z" />
    <glyph glyph-name="dcaron" unicode="&#x10f;" horiz-adv-x="638" 
d="M663 512l-14 31c71 32 123 72 123 116c0 35 -27 59 -69 65c-1 47 29 79 73 80c54 1 98 -37 98 -96c0 -89 -108 -156 -211 -196zM94 -13c-56 0 -93 44 -93 112c0 179 205 422 346 422c34 0 55 -16 63 -47h1l63 190l-70 59l2 6l261 73l-229 -687c-18 -54 -23 -72 -2 -72
c25 0 85 40 137 145l29 -12c-55 -114 -132 -189 -252 -189c-85 0 -75 53 -49 125l27 74h-2c-80 -140 -140 -199 -232 -199zM189 65c43 0 134 153 171 248c45 117 34 177 -10 177c-98 0 -185 -239 -185 -368c0 -41 7 -57 24 -57z" />
    <glyph glyph-name="Dcroat" unicode="&#x110;" horiz-adv-x="858" 
d="M-32 0l11 36l36 4c36 4 57 10 69 49l86 279h-96l18 59h96l74 242c12 39 -6 45 -39 49l-34 4l11 36h258c272 0 413 -102 413 -282c0 -248 -236 -476 -581 -476h-322zM230 44h69c257 0 395 231 395 458c0 137 -73 212 -227 212h-32l-88 -287h138l-18 -59h-138z" />
    <glyph glyph-name="dcroat" unicode="&#x111;" horiz-adv-x="598" 
d="M94 -13c-56 0 -93 44 -93 112c0 179 205 422 346 422c34 0 55 -16 63 -47h1l30 91h-93l18 51h92l16 48l-70 59l2 6l261 73l-62 -186h77l-18 -51h-76l-150 -450c-18 -54 -23 -72 -2 -72c25 0 85 40 137 145l29 -12c-55 -114 -132 -189 -252 -189c-85 0 -75 53 -49 125
l27 74h-2c-80 -140 -140 -199 -232 -199zM189 65c43 0 134 153 171 248c45 117 34 177 -10 177c-98 0 -185 -239 -185 -368c0 -41 7 -57 24 -57z" />
    <glyph glyph-name="Emacron" unicode="&#x112;" horiz-adv-x="770" 
d="M427 872l23 68h285l-23 -68h-285zM-32 0l11 36l36 4c36 4 57 10 69 49l178 580c12 39 -6 45 -39 49l-34 4l11 36h576l-46 -271h-22l-70 207c-5 16 -10 18 -31 18h-172l-90 -293h116c9 0 14 3 20 11l89 131h22l-103 -336h-22l-8 131c0 8 -5 11 -14 11h-116l-98 -321h225
c17 0 21 3 35 14l251 211h22l-151 -271h-645z" />
    <glyph glyph-name="emacron" unicode="&#x113;" horiz-adv-x="477" 
d="M281 669l23 68h285l-23 -68h-285zM170 -13c-96 0 -157 54 -157 151c0 195 205 383 354 383c79 0 119 -45 119 -99c0 -37 -19 -78 -51 -110l-236 -2c-15 -43 -24 -89 -24 -138c0 -83 25 -116 72 -116c53 0 103 49 151 143l30 -10c-63 -135 -142 -202 -258 -202zM372 490
c-58 0 -125 -64 -164 -156h25c107 0 176 75 176 122c0 23 -13 34 -37 34z" />
    <glyph glyph-name="Ebreve" unicode="&#x114;" horiz-adv-x="770" 
d="M569 827c-65 0 -137 40 -110 160h53c-14 -75 15 -106 68 -106c48 0 97 27 119 106h56c-34 -136 -123 -160 -186 -160zM-32 0l11 36l36 4c36 4 57 10 69 49l178 580c12 39 -6 45 -39 49l-34 4l11 36h576l-46 -271h-22l-70 207c-5 16 -10 18 -31 18h-172l-90 -293h116
c9 0 14 3 20 11l89 131h22l-103 -336h-22l-8 131c0 8 -5 11 -14 11h-116l-98 -321h225c17 0 21 3 35 14l251 211h22l-151 -271h-645z" />
    <glyph glyph-name="ebreve" unicode="&#x115;" horiz-adv-x="477" 
d="M402 628c-65 0 -137 40 -110 160h53c-14 -75 15 -106 68 -106c48 0 97 27 119 106h56c-34 -136 -123 -160 -186 -160zM170 -13c-96 0 -157 54 -157 151c0 195 205 383 354 383c79 0 119 -45 119 -99c0 -37 -19 -78 -51 -110l-236 -2c-15 -43 -24 -89 -24 -138
c0 -83 25 -116 72 -116c53 0 103 49 151 143l30 -10c-63 -135 -142 -202 -258 -202zM372 490c-58 0 -125 -64 -164 -156h25c107 0 176 75 176 122c0 23 -13 34 -37 34z" />
    <glyph glyph-name="Edotaccent" unicode="&#x116;" horiz-adv-x="770" 
d="M582 837c-40 0 -70 31 -70 71c0 41 30 71 70 71c39 0 70 -30 70 -71c0 -40 -31 -71 -70 -71zM-32 0l11 36l36 4c36 4 57 10 69 49l178 580c12 39 -6 45 -39 49l-34 4l11 36h576l-46 -271h-22l-70 207c-5 16 -10 18 -31 18h-172l-90 -293h116c9 0 14 3 20 11l89 131h22
l-103 -336h-22l-8 131c0 8 -5 11 -14 11h-116l-98 -321h225c17 0 21 3 35 14l251 211h22l-151 -271h-645z" />
    <glyph glyph-name="edotaccent" unicode="&#x117;" horiz-adv-x="477" 
d="M436 636c-39 0 -68 30 -68 69c0 40 29 69 68 69c38 0 68 -29 68 -69c0 -39 -30 -69 -68 -69zM170 -13c-96 0 -157 54 -157 151c0 195 205 383 354 383c79 0 119 -45 119 -99c0 -37 -19 -78 -51 -110l-236 -2c-15 -43 -24 -89 -24 -138c0 -83 25 -116 72 -116
c53 0 103 49 151 143l30 -10c-63 -135 -142 -202 -258 -202zM372 490c-58 0 -125 -64 -164 -156h25c107 0 176 75 176 122c0 23 -13 34 -37 34z" />
    <glyph glyph-name="Eogonek" unicode="&#x118;" horiz-adv-x="770" 
d="M-32 0l11 36l36 4c36 4 57 10 69 49l178 580c12 39 -6 45 -39 49l-34 4l11 36h576l-46 -271h-22l-70 207c-5 16 -10 18 -31 18h-172l-90 -293h116c9 0 14 3 20 11l89 131h22l-103 -336h-22l-8 131c0 8 -5 11 -14 11h-116l-98 -321h225c17 0 21 3 35 14l251 211h22
l-151 -271c-46 -40 -107 -86 -107 -136c0 -31 20 -46 58 -46c14 0 29 2 46 6l-11 -31c-24 -16 -63 -27 -98 -27c-50 0 -90 23 -90 69c0 62 87 126 168 165h-611z" />
    <glyph glyph-name="eogonek" unicode="&#x119;" horiz-adv-x="477" 
d="M231 -207c-24 -16 -63 -27 -98 -27c-50 0 -90 23 -90 69c0 56 78 113 152 153c-7 -1 -18 -1 -25 -1c-96 0 -157 54 -157 151c0 195 205 383 354 383c79 0 119 -45 119 -99c0 -37 -19 -78 -51 -110l-236 -2c-15 -43 -24 -89 -24 -138c0 -83 25 -116 72 -116
c53 0 103 49 151 143l30 -10c-50 -108 -103 -152 -172 -192c-64 -37 -118 -86 -118 -133c0 -31 20 -46 58 -46c14 0 29 2 46 6zM372 490c-58 0 -125 -64 -164 -156h25c107 0 176 75 176 122c0 23 -13 34 -37 34z" />
    <glyph glyph-name="Ecaron" unicode="&#x11a;" horiz-adv-x="770" 
d="M545 833l-82 155h29l80 -59l170 59h35l-218 -155h-14zM-32 0l11 36l36 4c36 4 57 10 69 49l178 580c12 39 -6 45 -39 49l-34 4l11 36h576l-46 -271h-22l-70 207c-5 16 -10 18 -31 18h-172l-90 -293h116c9 0 14 3 20 11l89 131h22l-103 -336h-22l-8 131c0 8 -5 11 -14 11
h-116l-98 -321h225c17 0 21 3 35 14l251 211h22l-151 -271h-645z" />
    <glyph glyph-name="ecaron" unicode="&#x11b;" horiz-adv-x="477" 
d="M378 609l-64 196h27l75 -80l177 80h30l-234 -196h-11zM170 -13c-96 0 -157 54 -157 151c0 195 205 383 354 383c79 0 119 -45 119 -99c0 -37 -19 -78 -51 -110l-236 -2c-15 -43 -24 -89 -24 -138c0 -83 25 -116 72 -116c53 0 103 49 151 143l30 -10
c-63 -135 -142 -202 -258 -202zM372 490c-58 0 -125 -64 -164 -156h25c107 0 176 75 176 122c0 23 -13 34 -37 34z" />
    <glyph glyph-name="Gcircumflex" unicode="&#x11c;" horiz-adv-x="874" 
d="M482 833l218 154h14l82 -154h-29l-80 59l-170 -59h-35zM429 -13c-191 0 -356 116 -356 322c0 263 265 470 530 470c97 0 194 -23 251 -62l-29 -235h-22l-62 177c-10 28 -22 45 -40 57c-20 13 -56 17 -95 17c-183 0 -353 -185 -353 -458c0 -143 54 -240 190 -240
c31 0 64 5 100 23l76 202c15 39 -2 46 -36 48l-90 4l15 41h394l-16 -45h-89l-76 -202l-18 -71c-129 -6 -175 -48 -274 -48z" />
    <glyph glyph-name="gcircumflex" unicode="&#x11d;" horiz-adv-x="534" 
d="M186 609l234 196h11l64 -196h-27l-76 80l-176 -80h-30zM221 169c-11 0 -21 1 -30 2l-66 -52l146 -85c90 -53 140 -95 140 -145c0 -103 -150 -151 -273 -151c-166 0 -276 46 -276 117c0 60 90 107 208 141l-33 92l116 90c-60 17 -96 59 -96 114c0 119 126 229 270 229
c64 0 113 -21 141 -56l48 91h123l-54 -99h-112c11 -17 17 -37 17 -59c0 -119 -126 -229 -269 -229zM254 202c55 0 95 69 95 182c0 67 -18 104 -56 104c-55 0 -95 -69 -95 -182c0 -67 18 -104 56 -104zM-36 -117c0 -68 93 -114 205 -114c72 0 127 18 127 53
c0 23 -13 43 -99 92l-111 63c-78 -29 -122 -51 -122 -94z" />
    <glyph glyph-name="Gbreve" unicode="&#x11e;" horiz-adv-x="874" 
d="M652 827c-65 0 -137 40 -110 160h53c-14 -75 15 -106 68 -106c48 0 97 27 119 106h56c-34 -136 -123 -160 -186 -160zM429 -13c-191 0 -356 116 -356 322c0 263 265 470 530 470c97 0 194 -23 251 -62l-29 -235h-22l-62 177c-10 28 -22 45 -40 57c-20 13 -56 17 -95 17
c-183 0 -353 -185 -353 -458c0 -143 54 -240 190 -240c31 0 64 5 100 23l76 202c15 39 -2 46 -36 48l-90 4l15 41h394l-16 -45h-89l-76 -202l-18 -71c-129 -6 -175 -48 -274 -48z" />
    <glyph glyph-name="gbreve" unicode="&#x11f;" horiz-adv-x="534" 
d="M339 628c-65 0 -137 40 -110 160h53c-14 -75 15 -106 68 -106c48 0 97 27 119 106h56c-34 -136 -123 -160 -186 -160zM221 169c-11 0 -21 1 -30 2l-66 -52l146 -85c90 -53 140 -95 140 -145c0 -103 -150 -151 -273 -151c-166 0 -276 46 -276 117c0 60 90 107 208 141
l-33 92l116 90c-60 17 -96 59 -96 114c0 119 126 229 270 229c64 0 113 -21 141 -56l48 91h123l-54 -99h-112c11 -17 17 -37 17 -59c0 -119 -126 -229 -269 -229zM254 202c55 0 95 69 95 182c0 67 -18 104 -56 104c-55 0 -95 -69 -95 -182c0 -67 18 -104 56 -104zM-36 -117
c0 -68 93 -114 205 -114c72 0 127 18 127 53c0 23 -13 43 -99 92l-111 63c-78 -29 -122 -51 -122 -94z" />
    <glyph glyph-name="Gdotaccent" unicode="&#x120;" horiz-adv-x="874" 
d="M665 837c-40 0 -70 31 -70 71c0 41 30 71 70 71c39 0 70 -30 70 -71c0 -40 -31 -71 -70 -71zM429 -13c-191 0 -356 116 -356 322c0 263 265 470 530 470c97 0 194 -23 251 -62l-29 -235h-22l-62 177c-10 28 -22 45 -40 57c-20 13 -56 17 -95 17
c-183 0 -353 -185 -353 -458c0 -143 54 -240 190 -240c31 0 64 5 100 23l76 202c15 39 -2 46 -36 48l-90 4l15 41h394l-16 -45h-89l-76 -202l-18 -71c-129 -6 -175 -48 -274 -48z" />
    <glyph glyph-name="gdotaccent" unicode="&#x121;" horiz-adv-x="534" 
d="M373 636c-39 0 -68 30 -68 69c0 40 29 69 68 69c38 0 68 -29 68 -69c0 -39 -30 -69 -68 -69zM221 169c-11 0 -21 1 -30 2l-66 -52l146 -85c90 -53 140 -95 140 -145c0 -103 -150 -151 -273 -151c-166 0 -276 46 -276 117c0 60 90 107 208 141l-33 92l116 90
c-60 17 -96 59 -96 114c0 119 126 229 270 229c64 0 113 -21 141 -56l48 91h123l-54 -99h-112c11 -17 17 -37 17 -59c0 -119 -126 -229 -269 -229zM254 202c55 0 95 69 95 182c0 67 -18 104 -56 104c-55 0 -95 -69 -95 -182c0 -67 18 -104 56 -104zM-36 -117
c0 -68 93 -114 205 -114c72 0 127 18 127 53c0 23 -13 43 -99 92l-111 63c-78 -29 -122 -51 -122 -94z" />
    <glyph glyph-name="Gcommaaccent" unicode="&#x122;" horiz-adv-x="874" 
d="M429 -13c-191 0 -356 116 -356 322c0 263 265 470 530 470c97 0 194 -23 251 -62l-29 -235h-22l-62 177c-10 28 -22 45 -40 57c-20 13 -56 17 -95 17c-183 0 -353 -185 -353 -458c0 -143 54 -240 190 -240c31 0 64 5 100 23l76 202c15 39 -2 46 -36 48l-90 4l15 41h394
l-16 -45h-89l-76 -202l-18 -71c-129 -6 -175 -48 -274 -48zM226 -378l-14 31c71 32 123 72 123 116c0 35 -27 59 -69 65c-1 47 29 79 73 80c54 1 98 -37 98 -96c0 -89 -108 -156 -211 -196z" />
    <glyph glyph-name="gcommaaccent" unicode="&#x123;" horiz-adv-x="534" 
d="M466 873l13 -28c-65 -30 -113 -66 -113 -107c0 -32 25 -54 63 -60c1 -43 -26 -72 -67 -73c-49 -1 -90 34 -90 88c0 82 99 144 194 180zM221 169c-11 0 -21 1 -30 2l-66 -52l146 -85c90 -53 140 -95 140 -145c0 -103 -150 -151 -273 -151c-166 0 -276 46 -276 117
c0 60 90 107 208 141l-33 92l116 90c-60 17 -96 59 -96 114c0 119 126 229 270 229c64 0 113 -21 141 -56l48 91h123l-54 -99h-112c11 -17 17 -37 17 -59c0 -119 -126 -229 -269 -229zM254 202c55 0 95 69 95 182c0 67 -18 104 -56 104c-55 0 -95 -69 -95 -182
c0 -67 18 -104 56 -104zM-36 -117c0 -68 93 -114 205 -114c72 0 127 18 127 53c0 23 -13 43 -99 92l-111 63c-78 -29 -122 -51 -122 -94z" />
    <glyph glyph-name="Hcircumflex" unicode="&#x124;" horiz-adv-x="907" 
d="M477 833l218 154h14l82 -154h-29l-80 59l-170 -59h-35zM-32 0l11 36l36 4c36 4 57 10 69 49l178 580c12 39 -6 45 -39 49l-34 4l11 36h338l-11 -36l-36 -4c-37 -4 -57 -10 -69 -49l-74 -242h321l74 242c12 39 -6 45 -39 49l-34 4l11 36h338l-11 -36l-36 -4
c-37 -4 -57 -10 -69 -49l-178 -580c-12 -39 5 -45 39 -49l34 -4l-11 -36h-338l11 36l36 4c36 4 57 10 69 49l86 279h-321l-86 -279c-12 -39 5 -45 39 -49l34 -4l-11 -36h-338z" />
    <glyph glyph-name="hcircumflex" unicode="&#x125;" horiz-adv-x="588" 
d="M185 833l218 154h14l82 -154h-29l-80 59l-170 -59h-35zM282 -13c-47 0 -90 23 -90 72c0 43 42 72 80 70c33 -101 47 -104 56 -104c38 0 95 183 95 342c0 51 -11 76 -35 76c-47 0 -150 -163 -192 -267c-19 -48 -54 -130 -66 -165l-147 -21l233 674l-70 59l2 6l263 73
l-123 -358l-58 -139h2c93 158 157 216 242 216c79 0 109 -52 109 -124c0 -184 -186 -410 -301 -410z" />
    <glyph glyph-name="Hbar" unicode="&#x126;" horiz-adv-x="907" 
d="M-32 0l11 36l36 4c36 4 57 10 69 49l138 451h-89l18 59h90l21 70c12 39 -6 45 -39 49l-34 4l11 36h338l-11 -36l-36 -4c-37 -4 -57 -10 -69 -49l-21 -70h321l21 70c12 39 -6 45 -39 49l-34 4l11 36h338l-11 -36l-36 -4c-37 -4 -57 -10 -69 -49l-21 -70h88l-18 -59h-89
l-138 -451c-12 -39 5 -45 39 -49l34 -4l-11 -36h-338l11 36l36 4c36 4 57 10 69 49l86 279h-321l-86 -279c-12 -39 5 -45 39 -49l34 -4l-11 -36h-338zM348 427h321l35 113h-321z" />
    <glyph glyph-name="hbar" unicode="&#x127;" horiz-adv-x="588" 
d="M282 -13c-47 0 -90 23 -90 72c0 43 42 72 80 70c33 -101 47 -104 56 -104c38 0 95 183 95 342c0 51 -11 76 -35 76c-47 0 -150 -163 -192 -267c-19 -48 -54 -130 -66 -165l-147 -21l199 575h-79l18 51h78l17 48l-70 59l2 6l263 73l-64 -186h90l-18 -51h-89l-42 -121
l-58 -139h2c93 158 157 216 242 216c79 0 109 -52 109 -124c0 -184 -186 -410 -301 -410z" />
    <glyph glyph-name="Itilde" unicode="&#x128;" horiz-adv-x="426" 
d="M489 829c-65 0 -99 58 -152 58c-30 0 -54 -12 -67 -54h-20c12 95 48 147 115 147c64 0 94 -58 147 -58c28 0 47 13 58 50h20c-19 -116 -53 -143 -101 -143zM-32 0l11 36l36 4c36 4 57 10 69 49l178 580c12 39 -6 45 -39 49l-34 4l11 36h338l-11 -36l-36 -4
c-37 -4 -57 -10 -69 -49l-178 -580c-12 -39 5 -45 39 -49l34 -4l-11 -36h-338z" />
    <glyph glyph-name="itilde" unicode="&#x129;" horiz-adv-x="357" 
d="M413 645c-65 0 -99 58 -152 58c-30 0 -54 -12 -67 -54h-20c12 95 48 147 115 147c64 0 94 -58 147 -58c28 0 47 13 58 50h20c-19 -116 -53 -143 -101 -143zM102 -13c-85 0 -90 49 -63 120l130 337h-93l11 32l262 53l-159 -414c-20 -53 -23 -72 -2 -72c25 0 85 40 137 145
l29 -12c-55 -114 -132 -189 -252 -189z" />
    <glyph glyph-name="Imacron" unicode="&#x12a;" horiz-adv-x="426" 
d="M268 872l23 68h285l-23 -68h-285zM-32 0l11 36l36 4c36 4 57 10 69 49l178 580c12 39 -6 45 -39 49l-34 4l11 36h338l-11 -36l-36 -4c-37 -4 -57 -10 -69 -49l-178 -580c-12 -39 5 -45 39 -49l34 -4l-11 -36h-338z" />
    <glyph glyph-name="imacron" unicode="&#x12b;" horiz-adv-x="357" 
d="M179 669l23 68h285l-23 -68h-285zM102 -13c-85 0 -90 49 -63 120l130 337h-93l11 32l262 53l-159 -414c-20 -53 -23 -72 -2 -72c25 0 85 40 137 145l29 -12c-55 -114 -132 -189 -252 -189z" />
    <glyph glyph-name="Ibreve" unicode="&#x12c;" horiz-adv-x="426" 
d="M410 827c-65 0 -137 40 -110 160h53c-14 -75 15 -106 68 -106c48 0 97 27 119 106h56c-34 -136 -123 -160 -186 -160zM-32 0l11 36l36 4c36 4 57 10 69 49l178 580c12 39 -6 45 -39 49l-34 4l11 36h338l-11 -36l-36 -4c-37 -4 -57 -10 -69 -49l-178 -580
c-12 -39 5 -45 39 -49l34 -4l-11 -36h-338z" />
    <glyph glyph-name="ibreve" unicode="&#x12d;" horiz-adv-x="357" 
d="M300 628c-65 0 -137 40 -110 160h53c-14 -75 15 -106 68 -106c48 0 97 27 119 106h56c-34 -136 -123 -160 -186 -160zM102 -13c-85 0 -90 49 -63 120l130 337h-93l11 32l262 53l-159 -414c-20 -53 -23 -72 -2 -72c25 0 85 40 137 145l29 -12
c-55 -114 -132 -189 -252 -189z" />
    <glyph glyph-name="Iogonek" unicode="&#x12e;" horiz-adv-x="426" 
d="M-32 0l11 36l36 4c36 4 57 10 69 49l178 580c12 39 -6 45 -39 49l-34 4l11 36h338l-11 -36l-36 -4c-37 -4 -57 -10 -69 -49l-178 -580c-12 -39 5 -45 39 -49l34 -4l-11 -36h-97c-46 -40 -107 -86 -107 -136c0 -31 20 -46 58 -46c14 0 29 2 46 6l-11 -31
c-24 -16 -63 -27 -98 -27c-50 0 -90 23 -90 69c0 62 87 126 168 165h-207z" />
    <glyph glyph-name="iogonek" unicode="&#x12f;" horiz-adv-x="357" 
d="M238 710c0 49 44 93 93 93c50 0 94 -44 94 -93c0 -50 -44 -94 -94 -94c-49 0 -93 44 -93 94zM35 -234c-50 0 -90 23 -90 69c0 56 70 113 143 152c-71 6 -74 53 -49 120l130 337h-93l11 32l262 53l-159 -414c-20 -53 -23 -72 -2 -72c25 0 85 40 137 145l29 -12
c-50 -104 -118 -175 -220 -187c-44 -37 -94 -80 -94 -125c0 -31 20 -46 58 -46c14 0 29 2 46 6l-11 -31c-24 -16 -63 -27 -98 -27z" />
    <glyph glyph-name="Idotaccent" unicode="&#x130;" horiz-adv-x="426" 
d="M423 837c-40 0 -70 31 -70 71c0 41 30 71 70 71c39 0 70 -30 70 -71c0 -40 -31 -71 -70 -71zM-32 0l11 36l36 4c36 4 57 10 69 49l178 580c12 39 -6 45 -39 49l-34 4l11 36h338l-11 -36l-36 -4c-37 -4 -57 -10 -69 -49l-178 -580c-12 -39 5 -45 39 -49l34 -4l-11 -36
h-338z" />
    <glyph glyph-name="dotlessi" unicode="&#x131;" horiz-adv-x="357" 
d="M102 -13c-85 0 -90 49 -63 120l130 337h-93l11 32l262 53l-159 -414c-20 -53 -23 -72 -2 -72c25 0 85 40 137 145l29 -12c-55 -114 -132 -189 -252 -189z" />
    <glyph glyph-name="Jcircumflex" unicode="&#x134;" horiz-adv-x="424" 
d="M239 833l218 154h14l82 -154h-29l-80 59l-170 -59h-35zM-89 -102l-18 34c158 96 188 116 227 244l152 497c11 37 -5 40 -39 42l-43 2l13 41h350l-13 -41l-43 -2c-36 -2 -54 -5 -65 -42l-141 -459c-33 -108 -65 -149 -162 -205c-44 -26 -155 -77 -218 -111z" />
    <glyph glyph-name="jcircumflex" unicode="&#x135;" horiz-adv-x="316" 
d="M122 609l234 196h11l64 -196h-27l-76 80l-176 -80h-30zM-229 -262l-13 27c125 81 191 124 253 277l163 402h-93l11 32l264 53l-207 -511c-34 -84 -52 -117 -148 -165z" />
    <glyph glyph-name="Kcommaaccent" unicode="&#x136;" horiz-adv-x="855" 
d="M-32 0l11 36l36 4c36 4 57 10 69 49l178 580c12 39 -6 45 -39 49l-34 4l11 36h338l-11 -36l-36 -4c-37 -4 -57 -10 -69 -49l-91 -295l433 314c19 14 19 28 -10 30l-72 4l11 36h306l-11 -36l-52 -3c-44 -3 -69 -14 -100 -36l-354 -256l321 -427h-195l-279 366l-85 -277
c-12 -39 5 -45 39 -49l34 -4l-11 -36h-338zM287 -378l-14 31c71 32 123 72 123 116c0 35 -27 59 -69 65c-1 47 29 79 73 80c54 1 98 -37 98 -96c0 -89 -108 -156 -211 -196z" />
    <glyph glyph-name="kcommaaccent" unicode="&#x137;" horiz-adv-x="602" 
d="M418 -28c-73 0 -124 47 -157 156l-39 127c-4 -10 -8 -20 -11 -30l-31 -94l-38 -118l-159 -23l232 674l-70 59l2 6l264 73l-102 -295l-53 -132h3c61 93 126 146 210 146c67 0 93 -33 93 -75c0 -72 -72 -135 -186 -168l54 -193c17 -61 33 -65 47 -65c17 0 48 14 79 110
l29 -9c-39 -121 -87 -149 -167 -149zM423 476c-67 0 -157 -112 -201 -220c143 0 233 85 233 176c0 26 -7 44 -32 44zM90 -378l-14 31c71 32 123 72 123 116c0 35 -27 59 -69 65c-1 47 29 79 73 80c54 1 98 -37 98 -96c0 -89 -108 -156 -211 -196z" />
    <glyph glyph-name="Lacute" unicode="&#x139;" horiz-adv-x="724" 
d="M368 843l122 129h181l-1 -3l-270 -126h-32zM-32 0l11 36l36 4c36 4 57 10 69 49l178 580c12 39 -6 45 -39 49l-34 4l11 36h338l-11 -36l-36 -4c-37 -4 -57 -10 -69 -49l-191 -623h185c18 0 21 3 35 14l251 211h22l-151 -271h-605z" />
    <glyph glyph-name="lacute" unicode="&#x13a;" horiz-adv-x="339" 
d="M302 865l143 179h157l-4 -11l-267 -168h-29zM88 -13c-85 0 -88 48 -63 120l191 557l-70 59l2 6l264 73l-236 -687c-18 -54 -23 -72 -2 -72c25 0 85 40 137 145l29 -12c-55 -114 -132 -189 -252 -189z" />
    <glyph glyph-name="Lcommaaccent" unicode="&#x13b;" horiz-adv-x="724" 
d="M-32 0l11 36l36 4c36 4 57 10 69 49l178 580c12 39 -6 45 -39 49l-34 4l11 36h338l-11 -36l-36 -4c-37 -4 -57 -10 -69 -49l-191 -623h185c18 0 21 3 35 14l251 211h22l-151 -271h-605zM150 -378l-14 31c71 32 123 72 123 116c0 35 -27 59 -69 65c-1 47 29 79 73 80
c54 1 98 -37 98 -96c0 -89 -108 -156 -211 -196z" />
    <glyph glyph-name="lcommaaccent" unicode="&#x13c;" horiz-adv-x="339" 
d="M88 -13c-85 0 -88 48 -63 120l191 557l-70 59l2 6l264 73l-236 -687c-18 -54 -23 -72 -2 -72c25 0 85 40 137 145l29 -12c-55 -114 -132 -189 -252 -189zM-97 -378l-14 31c71 32 123 72 123 116c0 35 -27 59 -69 65c-1 47 29 79 73 80c54 1 98 -37 98 -96
c0 -89 -108 -156 -211 -196z" />
    <glyph glyph-name="Lcaron" unicode="&#x13d;" horiz-adv-x="724" 
d="M549 512l-14 31c71 32 123 72 123 116c0 35 -27 59 -69 65c-1 47 29 79 73 80c54 1 98 -37 98 -96c0 -89 -108 -156 -211 -196zM-32 0l11 36l36 4c36 4 57 10 69 49l178 580c12 39 -6 45 -39 49l-34 4l11 36h338l-11 -36l-36 -4c-37 -4 -57 -10 -69 -49l-191 -623h185
c18 0 21 3 35 14l251 211h22l-151 -271h-605z" />
    <glyph glyph-name="lcaron" unicode="&#x13e;" horiz-adv-x="379" 
d="M414 512l-14 31c71 32 123 72 123 116c0 35 -27 59 -69 65c-1 47 29 79 73 80c54 1 98 -37 98 -96c0 -89 -108 -156 -211 -196zM88 -13c-85 0 -88 48 -63 120l191 557l-70 59l2 6l264 73l-236 -687c-18 -54 -23 -72 -2 -72c25 0 85 40 137 145l29 -12
c-55 -114 -132 -189 -252 -189z" />
    <glyph glyph-name="Ldot" unicode="&#x13f;" horiz-adv-x="724" 
d="M-32 0l11 36l36 4c36 4 57 10 69 49l178 580c12 39 -6 45 -39 49l-34 4l11 36h338l-11 -36l-36 -4c-37 -4 -57 -10 -69 -49l-191 -623h185c18 0 21 3 35 14l251 211h22l-151 -271h-605zM634 351c-40 0 -70 31 -70 71c0 41 30 71 70 71c39 0 70 -30 70 -71
c0 -40 -31 -71 -70 -71z" />
    <glyph glyph-name="ldot" unicode="&#x140;" horiz-adv-x="442" 
d="M88 -13c-85 0 -88 48 -63 120l191 557l-70 59l2 6l264 73l-236 -687c-18 -54 -23 -72 -2 -72c25 0 85 40 137 145l29 -12c-55 -114 -132 -189 -252 -189zM419 326c-39 0 -68 30 -68 69c0 40 29 69 68 69c38 0 68 -29 68 -69c0 -39 -30 -69 -68 -69z" />
    <glyph glyph-name="Lslash" unicode="&#x141;" horiz-adv-x="724" 
d="M-32 0l11 36l36 4c36 4 57 10 69 49l63 206l-140 -67l23 76l141 67l91 298c12 39 -6 45 -39 49l-34 4l11 36h338l-11 -36l-36 -4c-37 -4 -57 -10 -69 -49l-64 -209l142 68l-23 -76l-142 -68l-104 -338h185c18 0 21 3 35 14l251 211h22l-151 -271h-605z" />
    <glyph glyph-name="lslash" unicode="&#x142;" horiz-adv-x="420" 
d="M129 -13c-85 0 -88 48 -63 120l71 206l-119 -57l20 70l124 60l95 278l-70 59l2 6l264 73l-113 -330l114 55l-20 -70l-119 -58l-98 -284c-18 -54 -23 -72 -2 -72c25 0 85 40 137 145l29 -12c-55 -114 -132 -189 -252 -189z" />
    <glyph glyph-name="Nacute" unicode="&#x143;" horiz-adv-x="877" 
d="M603 843l122 129h181l-1 -3l-270 -126h-32zM669 -17l-357 668l-173 -562c-12 -39 5 -45 39 -49l34 -4l-11 -36h-234l11 36l36 4c36 4 57 10 69 49l179 580c12 39 -6 45 -39 49l-34 4l11 36h235l265 -497l127 408c12 39 -6 45 -39 49l-34 4l11 36h234l-11 -36l-36 -4
c-37 -4 -57 -10 -69 -49l-210 -686h-4z" />
    <glyph glyph-name="nacute" unicode="&#x144;" horiz-adv-x="631" 
d="M415 609l143 179h157l-4 -11l-267 -168h-29zM367 -13c-85 0 -99 51 -66 120l108 224c45 93 47 117 28 117c-25 0 -68 -57 -119 -135c-62 -92 -132 -213 -165 -300l-157 -23l175 454h-93l11 32l261 53l-136 -336h1c39 71 73 128 102 173c74 115 130 155 199 155
c78 0 99 -74 44 -188l-105 -218c-24 -51 -23 -72 -2 -72c25 0 85 40 137 145l29 -12c-55 -114 -132 -189 -252 -189z" />
    <glyph glyph-name="Ncommaaccent" unicode="&#x145;" horiz-adv-x="877" 
d="M669 -17l-357 668l-173 -562c-12 -39 5 -45 39 -49l34 -4l-11 -36h-234l11 36l36 4c36 4 57 10 69 49l179 580c12 39 -6 45 -39 49l-34 4l11 36h235l265 -497l127 408c12 39 -6 45 -39 49l-34 4l11 36h234l-11 -36l-36 -4c-37 -4 -57 -10 -69 -49l-210 -686h-4zM244 -378
l-14 31c71 32 123 72 123 116c0 35 -27 59 -69 65c-1 47 29 79 73 80c54 1 98 -37 98 -96c0 -89 -108 -156 -211 -196z" />
    <glyph glyph-name="ncommaaccent" unicode="&#x146;" horiz-adv-x="631" 
d="M367 -13c-85 0 -99 51 -66 120l108 224c45 93 47 117 28 117c-25 0 -68 -57 -119 -135c-62 -92 -132 -213 -165 -300l-157 -23l175 454h-93l11 32l261 53l-136 -336h1c39 71 73 128 102 173c74 115 130 155 199 155c78 0 99 -74 44 -188l-105 -218
c-24 -51 -23 -72 -2 -72c25 0 85 40 137 145l29 -12c-55 -114 -132 -189 -252 -189zM103 -378l-14 31c71 32 123 72 123 116c0 35 -27 59 -69 65c-1 47 29 79 73 80c54 1 98 -37 98 -96c0 -89 -108 -156 -211 -196z" />
    <glyph glyph-name="Ncaron" unicode="&#x147;" horiz-adv-x="877" 
d="M605 833l-82 155h29l80 -59l170 59h35l-218 -155h-14zM669 -17l-357 668l-173 -562c-12 -39 5 -45 39 -49l34 -4l-11 -36h-234l11 36l36 4c36 4 57 10 69 49l179 580c12 39 -6 45 -39 49l-34 4l11 36h235l265 -497l127 408c12 39 -6 45 -39 49l-34 4l11 36h234l-11 -36
l-36 -4c-37 -4 -57 -10 -69 -49l-210 -686h-4z" />
    <glyph glyph-name="ncaron" unicode="&#x148;" horiz-adv-x="631" 
d="M430 609l-64 196h27l75 -80l177 80h30l-234 -196h-11zM367 -13c-85 0 -99 51 -66 120l108 224c45 93 47 117 28 117c-25 0 -68 -57 -119 -135c-62 -92 -132 -213 -165 -300l-157 -23l175 454h-93l11 32l261 53l-136 -336h1c39 71 73 128 102 173c74 115 130 155 199 155
c78 0 99 -74 44 -188l-105 -218c-24 -51 -23 -72 -2 -72c25 0 85 40 137 145l29 -12c-55 -114 -132 -189 -252 -189z" />
    <glyph glyph-name="Eng" unicode="&#x14a;" horiz-adv-x="875" 
d="M532 -147l-230 -115l-13 27c125 81 204 122 253 277l36 113l-266 496l-173 -562c-12 -39 5 -45 39 -49l34 -4l-11 -36h-234l11 36l36 4c36 4 57 10 69 49l179 580c12 39 -6 45 -39 49l-34 4l11 36h235l265 -497l127 408c12 39 -6 45 -39 49l-34 4l11 36h234l-11 -36
l-36 -4c-37 -4 -57 -10 -69 -49l-203 -651c-27 -86 -52 -117 -148 -165z" />
    <glyph glyph-name="eng" unicode="&#x14b;" horiz-adv-x="584" 
d="M261 -147l-230 -115l-13 27c125 81 181 127 253 277l138 289c45 93 47 117 28 117c-25 0 -68 -57 -119 -135c-62 -92 -132 -213 -165 -300l-157 -23l175 454h-93l11 32l261 53l-136 -336h1c39 71 73 128 102 173c74 115 130 155 199 155c78 0 99 -74 44 -188l-150 -315
c-39 -82 -53 -117 -149 -165z" />
    <glyph glyph-name="Omacron" unicode="&#x14c;" horiz-adv-x="878" 
d="M492 872l23 68h285l-23 -68h-285zM368 -13c-170 0 -306 98 -306 279c0 223 218 513 532 513c170 0 305 -98 305 -279c0 -223 -217 -513 -531 -513zM398 29c161 0 316 200 316 465c0 138 -35 243 -150 243c-161 0 -316 -200 -316 -465c0 -138 35 -243 150 -243z" />
    <glyph glyph-name="omacron" unicode="&#x14d;" horiz-adv-x="520" 
d="M262 669l23 68h285l-23 -68h-285zM160 -13c-95 0 -146 66 -146 145c0 182 167 389 349 389c95 0 146 -66 146 -145c0 -184 -167 -389 -349 -389zM217 29c52 0 129 138 128 364c0 56 -11 86 -37 86c-55 0 -130 -138 -130 -364c0 -56 11 -86 39 -86z" />
    <glyph glyph-name="Obreve" unicode="&#x14e;" horiz-adv-x="878" 
d="M634 827c-65 0 -137 40 -110 160h53c-14 -75 15 -106 68 -106c48 0 97 27 119 106h56c-34 -136 -123 -160 -186 -160zM368 -13c-170 0 -306 98 -306 279c0 223 218 513 532 513c170 0 305 -98 305 -279c0 -223 -217 -513 -531 -513zM398 29c161 0 316 200 316 465
c0 138 -35 243 -150 243c-161 0 -316 -200 -316 -465c0 -138 35 -243 150 -243z" />
    <glyph glyph-name="obreve" unicode="&#x14f;" horiz-adv-x="520" 
d="M383 628c-65 0 -137 40 -110 160h53c-14 -75 15 -106 68 -106c48 0 97 27 119 106h56c-34 -136 -123 -160 -186 -160zM160 -13c-95 0 -146 66 -146 145c0 182 167 389 349 389c95 0 146 -66 146 -145c0 -184 -167 -389 -349 -389zM217 29c52 0 129 138 128 364
c0 56 -11 86 -37 86c-55 0 -130 -138 -130 -364c0 -56 11 -86 39 -86z" />
    <glyph glyph-name="Ohungarumlaut" unicode="&#x150;" horiz-adv-x="878" 
d="M500 843l124 129h181l-1 -3l-272 -126h-32zM705 843l124 129h181l-1 -3l-272 -126h-32zM368 -13c-170 0 -306 98 -306 279c0 223 218 513 532 513c170 0 305 -98 305 -279c0 -223 -217 -513 -531 -513zM398 29c161 0 316 200 316 465c0 138 -35 243 -150 243
c-161 0 -316 -200 -316 -465c0 -138 35 -243 150 -243z" />
    <glyph glyph-name="ohungarumlaut" unicode="&#x151;" horiz-adv-x="520" 
d="M448 609l143 179h157l-4 -11l-267 -168h-29zM254 609l143 179h157l-4 -11l-267 -168h-29zM160 -13c-95 0 -146 66 -146 145c0 182 167 389 349 389c95 0 146 -66 146 -145c0 -184 -167 -389 -349 -389zM217 29c52 0 129 138 128 364c0 56 -11 86 -37 86
c-55 0 -130 -138 -130 -364c0 -56 11 -86 39 -86z" />
    <glyph glyph-name="OE" unicode="&#x152;" horiz-adv-x="1306" 
d="M368 -13c-170 0 -306 98 -306 279c0 223 218 513 532 513c111 0 183 -50 220 -130l33 109h465l-46 -271h-12l-80 207c-6 16 -10 18 -31 18h-172l-90 -293h116c9 0 14 3 20 11l99 131h12l-103 -336h-12l-18 131c-1 8 -5 11 -14 11h-116l-98 -321h225c17 0 21 3 35 14
l261 211h12l-151 -271h-534l29 96c-74 -65 -167 -109 -276 -109zM564 737c-161 0 -316 -200 -316 -465c0 -138 35 -243 150 -243c161 0 316 200 316 465c0 138 -35 243 -150 243z" />
    <glyph glyph-name="oe" unicode="&#x153;" horiz-adv-x="782" 
d="M14 132c0 182 167 389 349 389c63 0 100 -34 116 -82c62 51 132 82 193 82c79 0 119 -45 119 -99c0 -37 -19 -78 -51 -110l-236 -2c-15 -43 -24 -89 -24 -138c0 -83 25 -116 72 -116c53 0 103 49 151 143l30 -10c-63 -135 -142 -202 -258 -202c-66 0 -115 25 -140 72
c-50 -44 -110 -72 -175 -72c-95 0 -146 66 -146 145zM677 490c-58 0 -125 -64 -164 -156h25c107 0 176 75 176 122c0 23 -13 34 -37 34zM217 29c52 0 129 138 128 364c0 56 -11 86 -37 86c-55 0 -130 -138 -130 -364c0 -56 11 -86 39 -86z" />
    <glyph glyph-name="Racute" unicode="&#x154;" horiz-adv-x="810" 
d="M536 843l122 129h181l-1 -3l-270 -126h-32zM-32 0l11 36l36 4c36 4 57 10 69 49l178 580c12 39 -6 45 -39 49l-34 4l11 36h305c185 0 290 -50 290 -153c0 -115 -116 -188 -256 -214l246 -391h-180l-229 369h-46l-86 -280c-12 -39 5 -45 39 -49l34 -4l-11 -36h-338z
M344 414h60c139 0 214 107 214 201c0 65 -38 99 -123 99h-60z" />
    <glyph glyph-name="racute" unicode="&#x155;" horiz-adv-x="483" 
d="M385 609l143 179h157l-4 -11l-267 -168h-29zM-4 -10l174 454h-93l11 32l261 53l-130 -330h1c54 96 82 147 102 182c54 94 85 138 152 138c39 0 67 -25 67 -68c0 -53 -35 -87 -101 -98c-16 33 -28 54 -48 84c-55 -84 -137 -224 -221 -373l-18 -51z" />
    <glyph glyph-name="Rcommaaccent" unicode="&#x156;" horiz-adv-x="810" 
d="M-32 0l11 36l36 4c36 4 57 10 69 49l178 580c12 39 -6 45 -39 49l-34 4l11 36h305c185 0 290 -50 290 -153c0 -115 -116 -188 -256 -214l246 -391h-180l-229 369h-46l-86 -280c-12 -39 5 -45 39 -49l34 -4l-11 -36h-338zM344 414h60c139 0 214 107 214 201
c0 65 -38 99 -123 99h-60zM272 -378l-14 31c71 32 123 72 123 116c0 35 -27 59 -69 65c-1 47 29 79 73 80c54 1 98 -37 98 -96c0 -89 -108 -156 -211 -196z" />
    <glyph glyph-name="rcommaaccent" unicode="&#x157;" horiz-adv-x="483" 
d="M-4 -10l174 454h-93l11 32l261 53l-130 -330h1c54 96 82 147 102 182c54 94 85 138 152 138c39 0 67 -25 67 -68c0 -53 -35 -87 -101 -98c-16 33 -28 54 -48 84c-55 -84 -137 -224 -221 -373l-18 -51zM-95 -378l-14 31c71 32 123 72 123 116c0 35 -27 59 -69 65
c-1 47 29 79 73 80c54 1 98 -37 98 -96c0 -89 -108 -156 -211 -196z" />
    <glyph glyph-name="Rcaron" unicode="&#x158;" horiz-adv-x="810" 
d="M538 833l-82 155h29l80 -59l170 59h35l-218 -155h-14zM-32 0l11 36l36 4c36 4 57 10 69 49l178 580c12 39 -6 45 -39 49l-34 4l11 36h305c185 0 290 -50 290 -153c0 -115 -116 -188 -256 -214l246 -391h-180l-229 369h-46l-86 -280c-12 -39 5 -45 39 -49l34 -4l-11 -36
h-338zM344 414h60c139 0 214 107 214 201c0 65 -38 99 -123 99h-60z" />
    <glyph glyph-name="rcaron" unicode="&#x159;" horiz-adv-x="483" 
d="M400 609l-64 196h27l75 -80l177 80h30l-234 -196h-11zM-4 -10l174 454h-93l11 32l261 53l-130 -330h1c54 96 82 147 102 182c54 94 85 138 152 138c39 0 67 -25 67 -68c0 -53 -35 -87 -101 -98c-16 33 -28 54 -48 84c-55 -84 -137 -224 -221 -373l-18 -51z" />
    <glyph glyph-name="Sacute" unicode="&#x15a;" horiz-adv-x="622" 
d="M490 843l122 129h181l-1 -3l-270 -126h-32zM215 -13c-67 0 -155 14 -219 51l60 241h22l31 -179c4 -24 8 -37 21 -47c14 -13 51 -21 96 -21c99 0 192 46 192 127c0 46 -28 96 -100 170l-52 54c-41 43 -75 98 -75 163c0 121 135 233 314 233c61 0 128 -14 174 -44l-41 -225
h-22l-52 163c-7 22 -12 36 -21 45c-10 10 -34 15 -53 15c-92 0 -164 -44 -164 -112c0 -42 27 -84 67 -126l55 -57c84 -88 107 -134 107 -198c0 -151 -160 -253 -340 -253z" />
    <glyph glyph-name="sacute" unicode="&#x15b;" horiz-adv-x="408" 
d="M290 609l143 179h157l-4 -11l-267 -168h-29zM112 -13c-72 0 -126 43 -126 92c0 54 46 81 97 79c34 -115 42 -134 61 -134c41 0 83 31 83 62c0 27 -23 59 -58 102l-33 41c-33 41 -49 80 -49 119c0 100 119 173 222 173c68 0 112 -30 112 -79c0 -37 -31 -85 -92 -77
c-34 102 -36 121 -56 121c-33 0 -78 -24 -78 -55c0 -21 16 -51 54 -98l36 -45c33 -42 47 -69 47 -116c0 -115 -119 -185 -220 -185z" />
    <glyph glyph-name="Scircumflex" unicode="&#x15c;" horiz-adv-x="622" 
d="M346 833l218 154h14l82 -154h-29l-80 59l-170 -59h-35zM215 -13c-67 0 -155 14 -219 51l60 241h22l31 -179c4 -24 8 -37 21 -47c14 -13 51 -21 96 -21c99 0 192 46 192 127c0 46 -28 96 -100 170l-52 54c-41 43 -75 98 -75 163c0 121 135 233 314 233
c61 0 128 -14 174 -44l-41 -225h-22l-52 163c-7 22 -12 36 -21 45c-10 10 -34 15 -53 15c-92 0 -164 -44 -164 -112c0 -42 27 -84 67 -126l55 -57c84 -88 107 -134 107 -198c0 -151 -160 -253 -340 -253z" />
    <glyph glyph-name="scircumflex" unicode="&#x15d;" horiz-adv-x="408" 
d="M176 609l234 196h11l64 -196h-27l-76 80l-176 -80h-30zM112 -13c-72 0 -126 43 -126 92c0 54 46 81 97 79c34 -115 42 -134 61 -134c41 0 83 31 83 62c0 27 -23 59 -58 102l-33 41c-33 41 -49 80 -49 119c0 100 119 173 222 173c68 0 112 -30 112 -79
c0 -37 -31 -85 -92 -77c-34 102 -36 121 -56 121c-33 0 -78 -24 -78 -55c0 -21 16 -51 54 -98l36 -45c33 -42 47 -69 47 -116c0 -115 -119 -185 -220 -185z" />
    <glyph glyph-name="Scedilla" unicode="&#x15e;" horiz-adv-x="622" 
d="M215 -13c-67 0 -155 14 -219 51l60 241h22l31 -179c4 -24 8 -37 21 -47c14 -13 51 -21 96 -21c99 0 192 46 192 127c0 46 -28 96 -100 170l-52 54c-41 43 -75 98 -75 163c0 121 135 233 314 233c61 0 128 -14 174 -44l-41 -225h-22l-52 163c-7 22 -12 36 -21 45
c-10 10 -34 15 -53 15c-92 0 -164 -44 -164 -112c0 -42 27 -84 67 -126l55 -57c84 -88 107 -134 107 -198c0 -134 -126 -229 -280 -249l-87 -74c31 -23 54 -49 54 -81c0 -60 -48 -101 -121 -101c-66 0 -106 34 -106 66c0 30 31 45 60 31c-5 -45 25 -65 62 -65
c29 0 43 10 43 27c0 26 -31 48 -85 85l128 108h-8z" />
    <glyph glyph-name="scedilla" unicode="&#x15f;" horiz-adv-x="408" 
d="M112 -13c-72 0 -126 43 -126 92c0 54 46 81 97 79c34 -115 42 -134 61 -134c41 0 83 31 83 62c0 27 -23 59 -58 102l-33 41c-33 41 -49 80 -49 119c0 100 119 173 222 173c68 0 112 -30 112 -79c0 -37 -31 -85 -92 -77c-34 102 -36 121 -56 121c-33 0 -78 -24 -78 -55
c0 -21 16 -51 54 -98l36 -45c33 -42 47 -69 47 -116c0 -92 -76 -155 -159 -177l-92 -78c31 -23 54 -49 54 -81c0 -60 -48 -101 -121 -101c-66 0 -106 34 -106 66c0 30 31 45 60 31c-5 -45 25 -65 62 -65c29 0 43 10 43 27c0 26 -31 48 -85 85l128 108h-4z" />
    <glyph glyph-name="Scaron" unicode="&#x160;" horiz-adv-x="622" 
d="M492 833l-82 155h29l80 -59l170 59h35l-218 -155h-14zM215 -13c-67 0 -155 14 -219 51l60 241h22l31 -179c4 -24 8 -37 21 -47c14 -13 51 -21 96 -21c99 0 192 46 192 127c0 46 -28 96 -100 170l-52 54c-41 43 -75 98 -75 163c0 121 135 233 314 233
c61 0 128 -14 174 -44l-41 -225h-22l-52 163c-7 22 -12 36 -21 45c-10 10 -34 15 -53 15c-92 0 -164 -44 -164 -112c0 -42 27 -84 67 -126l55 -57c84 -88 107 -134 107 -198c0 -151 -160 -253 -340 -253z" />
    <glyph glyph-name="scaron" unicode="&#x161;" horiz-adv-x="408" 
d="M305 609l-64 196h27l75 -80l177 80h30l-234 -196h-11zM112 -13c-72 0 -126 43 -126 92c0 54 46 81 97 79c34 -115 42 -134 61 -134c41 0 83 31 83 62c0 27 -23 59 -58 102l-33 41c-33 41 -49 80 -49 119c0 100 119 173 222 173c68 0 112 -30 112 -79
c0 -37 -31 -85 -92 -77c-34 102 -36 121 -56 121c-33 0 -78 -24 -78 -55c0 -21 16 -51 54 -98l36 -45c33 -42 47 -69 47 -116c0 -115 -119 -185 -220 -185z" />
    <glyph glyph-name="uni0162" unicode="&#x162;" horiz-adv-x="782" 
d="M121 0l12 38l61 4c35 2 56 8 68 47l192 628h-100c-21 0 -26 -2 -42 -18l-200 -212h-22l105 271h704l-61 -271h-22l-56 212c-4 16 -11 18 -32 18h-114l-192 -628c-12 -39 5 -45 40 -47l59 -4l-12 -38h-388zM137 -378l-14 31c71 32 123 72 123 116c0 35 -27 59 -69 65
c-1 47 29 79 73 80c54 1 98 -37 98 -96c0 -89 -108 -156 -211 -196z" />
    <glyph glyph-name="uni0163" unicode="&#x163;" horiz-adv-x="411" 
d="M105 -13c-85 0 -91 50 -63 120l128 318h-109l30 77h110l47 116h147l-46 -116h129l-31 -77h-129l-124 -310c-21 -53 -24 -72 -3 -72c25 0 85 40 137 145l29 -12c-55 -114 -132 -189 -252 -189zM-82 -378l-14 31c71 32 123 72 123 116c0 35 -27 59 -69 65
c-1 47 29 79 73 80c54 1 98 -37 98 -96c0 -89 -108 -156 -211 -196z" />
    <glyph glyph-name="Tcaron" unicode="&#x164;" horiz-adv-x="782" 
d="M562 833l-82 155h29l80 -59l170 59h35l-218 -155h-14zM121 0l12 38l61 4c35 2 56 8 68 47l192 628h-100c-21 0 -26 -2 -42 -18l-200 -212h-22l105 271h704l-61 -271h-22l-56 212c-4 16 -11 18 -32 18h-114l-192 -628c-12 -39 5 -45 40 -47l59 -4l-12 -38h-388z" />
    <glyph glyph-name="tcaron" unicode="&#x165;" horiz-adv-x="411" 
d="M484 578l-14 31c71 32 123 72 123 116c0 35 -27 59 -69 65c-1 47 29 79 73 80c54 1 98 -37 98 -96c0 -89 -108 -156 -211 -196zM105 -13c-85 0 -91 50 -63 120l128 318h-109l30 77h110l47 116h147l-46 -116h129l-31 -77h-129l-124 -310c-21 -53 -24 -72 -3 -72
c25 0 85 40 137 145l29 -12c-55 -114 -132 -189 -252 -189z" />
    <glyph glyph-name="Tbar" unicode="&#x166;" horiz-adv-x="782" 
d="M121 0l12 38l61 4c35 2 56 8 68 47l85 279h-147l18 59h147l89 290h-100c-21 0 -26 -2 -42 -18l-200 -212h-22l105 271h704l-61 -271h-22l-56 212c-4 16 -11 18 -32 18h-114l-89 -290h148l-18 -59h-148l-85 -279c-12 -39 5 -45 40 -47l59 -4l-12 -38h-388z" />
    <glyph glyph-name="tbar" unicode="&#x167;" horiz-adv-x="451" 
d="M125 -13c-85 0 -91 50 -63 120l77 192h-109l21 51h109l30 75h-109l30 77h110l47 116h147l-46 -116h129l-31 -77h-129l-30 -75h129l-21 -51h-128l-74 -184c-21 -53 -24 -72 -3 -72c25 0 85 40 137 145l29 -12c-55 -114 -132 -189 -252 -189z" />
    <glyph glyph-name="Utilde" unicode="&#x168;" horiz-adv-x="861" 
d="M721 829c-65 0 -99 58 -152 58c-30 0 -54 -12 -67 -54h-20c12 95 48 147 115 147c64 0 94 -58 147 -58c28 0 47 13 58 50h20c-19 -116 -53 -143 -101 -143zM391 -13c-204 0 -330 93 -259 323l110 359c12 39 -6 45 -39 49l-34 4l11 36h338l-11 -36l-36 -4
c-37 -4 -57 -10 -69 -49l-116 -377c-54 -176 13 -232 144 -232c137 0 228 73 281 246l111 363c12 39 -6 46 -39 49l-44 4l11 36h244l-11 -36l-36 -4c-37 -4 -57 -10 -69 -49l-115 -373c-62 -201 -173 -309 -372 -309z" />
    <glyph glyph-name="utilde" unicode="&#x169;" horiz-adv-x="627" 
d="M549 645c-65 0 -99 58 -152 58c-30 0 -54 -12 -67 -54h-20c12 95 48 147 115 147c64 0 94 -58 147 -58c28 0 47 13 58 50h20c-19 -116 -53 -143 -101 -143zM363 529l-158 -352c-43 -95 -47 -117 -28 -117c25 0 68 57 119 135c62 92 124 208 165 298l156 26l-156 -404
c-20 -53 -23 -72 -2 -72c25 0 85 40 137 145l29 -12c-55 -114 -132 -189 -252 -189c-85 0 -92 49 -63 120l77 189h-1c-32 -58 -65 -112 -91 -152c-73 -115 -125 -157 -197 -157c-78 0 -96 72 -44 188l119 269h-93l11 32z" />
    <glyph glyph-name="Umacron" unicode="&#x16a;" horiz-adv-x="861" 
d="M500 872l23 68h285l-23 -68h-285zM391 -13c-204 0 -330 93 -259 323l110 359c12 39 -6 45 -39 49l-34 4l11 36h338l-11 -36l-36 -4c-37 -4 -57 -10 -69 -49l-116 -377c-54 -176 13 -232 144 -232c137 0 228 73 281 246l111 363c12 39 -6 46 -39 49l-44 4l11 36h244
l-11 -36l-36 -4c-37 -4 -57 -10 -69 -49l-115 -373c-62 -201 -173 -309 -372 -309z" />
    <glyph glyph-name="umacron" unicode="&#x16b;" horiz-adv-x="627" 
d="M315 669l23 68h285l-23 -68h-285zM363 529l-158 -352c-43 -95 -47 -117 -28 -117c25 0 68 57 119 135c62 92 124 208 165 298l156 26l-156 -404c-20 -53 -23 -72 -2 -72c25 0 85 40 137 145l29 -12c-55 -114 -132 -189 -252 -189c-85 0 -92 49 -63 120l77 189h-1
c-32 -58 -65 -112 -91 -152c-73 -115 -125 -157 -197 -157c-78 0 -96 72 -44 188l119 269h-93l11 32z" />
    <glyph glyph-name="Ubreve" unicode="&#x16c;" horiz-adv-x="861" 
d="M642 827c-65 0 -137 40 -110 160h53c-14 -75 15 -106 68 -106c48 0 97 27 119 106h56c-34 -136 -123 -160 -186 -160zM391 -13c-204 0 -330 93 -259 323l110 359c12 39 -6 45 -39 49l-34 4l11 36h338l-11 -36l-36 -4c-37 -4 -57 -10 -69 -49l-116 -377
c-54 -176 13 -232 144 -232c137 0 228 73 281 246l111 363c12 39 -6 46 -39 49l-44 4l11 36h244l-11 -36l-36 -4c-37 -4 -57 -10 -69 -49l-115 -373c-62 -201 -173 -309 -372 -309z" />
    <glyph glyph-name="ubreve" unicode="&#x16d;" horiz-adv-x="627" 
d="M436 628c-65 0 -137 40 -110 160h53c-14 -75 15 -106 68 -106c48 0 97 27 119 106h56c-34 -136 -123 -160 -186 -160zM363 529l-158 -352c-43 -95 -47 -117 -28 -117c25 0 68 57 119 135c62 92 124 208 165 298l156 26l-156 -404c-20 -53 -23 -72 -2 -72
c25 0 85 40 137 145l29 -12c-55 -114 -132 -189 -252 -189c-85 0 -92 49 -63 120l77 189h-1c-32 -58 -65 -112 -91 -152c-73 -115 -125 -157 -197 -157c-78 0 -96 72 -44 188l119 269h-93l11 32z" />
    <glyph glyph-name="Uring" unicode="&#x16e;" horiz-adv-x="861" 
d="M672 837c-68 0 -124 53 -124 120c0 66 56 121 124 121c71 0 127 -55 127 -121c0 -67 -56 -120 -127 -120zM672 890c42 0 66 26 66 67s-24 66 -66 66c-40 0 -65 -25 -65 -66s25 -67 65 -67zM391 -13c-204 0 -330 93 -259 323l110 359c12 39 -6 45 -39 49l-34 4l11 36h338
l-11 -36l-36 -4c-37 -4 -57 -10 -69 -49l-116 -377c-54 -176 13 -232 144 -232c137 0 228 73 281 246l111 363c12 39 -6 46 -39 49l-44 4l11 36h244l-11 -36l-36 -4c-37 -4 -57 -10 -69 -49l-115 -373c-62 -201 -173 -309 -372 -309z" />
    <glyph glyph-name="uring" unicode="&#x16f;" horiz-adv-x="627" 
d="M470 585c-68 0 -124 53 -124 120c0 66 56 121 124 121c71 0 127 -55 127 -121c0 -67 -56 -120 -127 -120zM470 638c42 0 66 26 66 67s-24 66 -66 66c-40 0 -65 -25 -65 -66s25 -67 65 -67zM363 529l-158 -352c-43 -95 -47 -117 -28 -117c25 0 68 57 119 135
c62 92 124 208 165 298l156 26l-156 -404c-20 -53 -23 -72 -2 -72c25 0 85 40 137 145l29 -12c-55 -114 -132 -189 -252 -189c-85 0 -92 49 -63 120l77 189h-1c-32 -58 -65 -112 -91 -152c-73 -115 -125 -157 -197 -157c-78 0 -96 72 -44 188l119 269h-93l11 32z" />
    <glyph glyph-name="Uhungarumlaut" unicode="&#x170;" horiz-adv-x="861" 
d="M508 843l124 129h181l-1 -3l-272 -126h-32zM713 843l124 129h181l-1 -3l-272 -126h-32zM391 -13c-204 0 -330 93 -259 323l110 359c12 39 -6 45 -39 49l-34 4l11 36h338l-11 -36l-36 -4c-37 -4 -57 -10 -69 -49l-116 -377c-54 -176 13 -232 144 -232
c137 0 228 73 281 246l111 363c12 39 -6 46 -39 49l-44 4l11 36h244l-11 -36l-36 -4c-37 -4 -57 -10 -69 -49l-115 -373c-62 -201 -173 -309 -372 -309z" />
    <glyph glyph-name="uhungarumlaut" unicode="&#x171;" horiz-adv-x="627" 
d="M501 609l143 179h157l-4 -11l-267 -168h-29zM307 609l143 179h157l-4 -11l-267 -168h-29zM363 529l-158 -352c-43 -95 -47 -117 -28 -117c25 0 68 57 119 135c62 92 124 208 165 298l156 26l-156 -404c-20 -53 -23 -72 -2 -72c25 0 85 40 137 145l29 -12
c-55 -114 -132 -189 -252 -189c-85 0 -92 49 -63 120l77 189h-1c-32 -58 -65 -112 -91 -152c-73 -115 -125 -157 -197 -157c-78 0 -96 72 -44 188l119 269h-93l11 32z" />
    <glyph glyph-name="Uogonek" unicode="&#x172;" horiz-adv-x="861" 
d="M327 -234c-50 0 -90 23 -90 69c0 56 73 113 147 152c-200 2 -322 96 -252 323l110 359c12 39 -6 45 -39 49l-34 4l11 36h338l-11 -36l-36 -4c-37 -4 -57 -10 -69 -49l-116 -377c-54 -176 13 -232 144 -232c137 0 228 73 281 246l111 363c12 39 -6 46 -39 49l-44 4l11 36
h244l-11 -36l-36 -4c-37 -4 -57 -10 -69 -49l-115 -373c-59 -191 -162 -298 -342 -308c-43 -37 -89 -79 -89 -124c0 -31 20 -46 58 -46c14 0 29 2 46 6l-11 -31c-24 -16 -63 -27 -98 -27z" />
    <glyph glyph-name="uogonek" unicode="&#x173;" horiz-adv-x="627" 
d="M335 -234c-50 0 -90 23 -90 69c0 56 72 113 146 153c-6 -1 -12 -1 -18 -1c-85 0 -92 49 -63 120l77 189h-1c-32 -58 -65 -112 -91 -152c-73 -115 -125 -157 -197 -157c-78 0 -96 72 -44 188l119 269h-93l11 32l272 53l-158 -352c-43 -95 -47 -117 -28 -117
c25 0 68 57 119 135c62 92 124 208 165 298l156 26l-156 -404c-20 -53 -23 -72 -2 -72c25 0 85 40 137 145l29 -12c-44 -92 -103 -158 -186 -181c-45 -39 -99 -83 -99 -131c0 -31 20 -46 58 -46c14 0 29 2 46 6l-11 -31c-24 -16 -63 -27 -98 -27z" />
    <glyph glyph-name="Wcircumflex" unicode="&#x174;" horiz-adv-x="1267" 
d="M704 833l218 154h14l82 -154h-29l-80 59l-170 -59h-35zM100 -30l145 699c8 39 -5 45 -39 49l-34 4l11 36h338l-11 -36l-36 -4c-36 -4 -60 -10 -69 -49l-103 -466l366 334l46 221h277l-11 -36l-56 -4c-36 -3 -60 -10 -69 -49l-103 -466l515 470c30 28 38 43 4 45l-62 4
l11 36h273l-11 -36l-34 -4c-36 -4 -71 -14 -105 -45l-773 -703h-20l100 482l-530 -482h-20z" />
    <glyph glyph-name="wcircumflex" unicode="&#x175;" horiz-adv-x="787" 
d="M397 609l234 196h11l64 -196h-27l-76 80l-176 -80h-30zM154 -13c-60 0 -88 36 -88 98c0 101 87 202 198 298h-183l-43 -81h-32l90 200h292c-88 -100 -191 -197 -191 -295c0 -54 25 -84 70 -84c26 0 49 4 74 16c-3 18 -5 38 -5 59c0 144 96 323 190 323
c35 0 54 -23 54 -61c0 -58 -27 -162 -119 -265l-30 -33c29 -26 68 -39 109 -39c75 0 155 51 184 181l-100 124c-10 55 24 93 70 93c37 0 72 -22 72 -100c0 -170 -94 -434 -280 -434c-64 0 -108 41 -131 101c-67 -58 -138 -101 -201 -101zM381 285c0 -40 11 -72 28 -98
c7 6 13 12 20 19c69 69 86 111 86 146c0 30 -20 49 -50 49c-41 0 -84 -36 -84 -116z" />
    <glyph glyph-name="Ycircumflex" unicode="&#x176;" horiz-adv-x="780" 
d="M439 833l218 154h14l82 -154h-29l-80 59l-170 -59h-35zM120 0l12 38l61 4c35 2 56 8 68 47l78 253l-119 331c-12 33 -17 41 -50 45l-32 4l11 36h339l-11 -36l-44 -4c-36 -3 -59 -13 -48 -45l94 -272l265 272c32 33 27 43 -7 45l-62 4l11 36h270l-11 -36l-34 -4
c-37 -4 -59 -12 -91 -45l-322 -332l-77 -252c-12 -39 5 -45 40 -47l59 -4l-12 -38h-388z" />
    <glyph glyph-name="ycircumflex" unicode="&#x177;" horiz-adv-x="564" 
d="M283 609l234 196h11l64 -196h-27l-76 80l-176 -80h-30zM-91 -261c-45 0 -73 27 -73 66c0 24 14 56 38 66c33 -17 60 -28 97 -28c41 0 90 16 167 109l2 485l-83 -5l-1 31l232 66l-6 -377l119 171c95 136 132 198 190 198c39 0 56 -24 56 -54c0 -34 -17 -55 -33 -65
c-94 -24 -136 -35 -159 -69l-225 -323c-84 -120 -223 -271 -321 -271z" />
    <glyph glyph-name="Ydieresis" unicode="&#x178;" horiz-adv-x="780" 
d="M735 837c-40 0 -70 31 -70 71c0 41 30 71 70 71c39 0 70 -30 70 -71c0 -40 -31 -71 -70 -71zM509 837c-40 0 -70 31 -70 71c0 41 30 71 70 71c39 0 70 -30 70 -71c0 -40 -31 -71 -70 -71zM120 0l12 38l61 4c35 2 56 8 68 47l78 253l-119 331c-12 33 -17 41 -50 45l-32 4
l11 36h339l-11 -36l-44 -4c-36 -3 -59 -13 -48 -45l94 -272l265 272c32 33 27 43 -7 45l-62 4l11 36h270l-11 -36l-34 -4c-37 -4 -59 -12 -91 -45l-322 -332l-77 -252c-12 -39 5 -45 40 -47l59 -4l-12 -38h-388z" />
    <glyph glyph-name="Zacute" unicode="&#x179;" horiz-adv-x="748" 
d="M570 843l122 129h181l-1 -3l-270 -126h-32zM-57 0l4 12l686 702h-198c-21 0 -25 -3 -42 -18l-247 -209h-22l160 271h577l-4 -12l-685 -702h246c21 0 25 3 43 18l247 209h22l-160 -271h-627z" />
    <glyph glyph-name="zacute" unicode="&#x17a;" horiz-adv-x="528" 
d="M361 609l143 179h157l-4 -11l-267 -168h-29zM67 302l90 200h452l-334 -254l51 -131c33 -84 48 -101 73 -101c35 0 69 39 28 150l31 12c48 -133 7 -206 -101 -206c-86 0 -140 35 -206 156l-10 18l-41 -32c-41 -32 -41 -44 -29 -110c-59 -31 -110 -15 -110 27
c0 19 12 34 65 75l364 277h-248l-43 -81h-32z" />
    <glyph glyph-name="Zdotaccent" unicode="&#x17b;" horiz-adv-x="748" 
d="M609 837c-40 0 -70 31 -70 71c0 41 30 71 70 71c39 0 70 -30 70 -71c0 -40 -31 -71 -70 -71zM-57 0l4 12l686 702h-198c-21 0 -25 -3 -42 -18l-247 -209h-22l160 271h577l-4 -12l-685 -702h246c21 0 25 3 43 18l247 209h22l-160 -271h-627z" />
    <glyph glyph-name="zdotaccent" unicode="&#x17c;" horiz-adv-x="528" 
d="M434 636c-39 0 -68 30 -68 69c0 40 29 69 68 69c38 0 68 -29 68 -69c0 -39 -30 -69 -68 -69zM67 302l90 200h452l-334 -254l51 -131c33 -84 48 -101 73 -101c35 0 69 39 28 150l31 12c48 -133 7 -206 -101 -206c-86 0 -140 35 -206 156l-10 18l-41 -32
c-41 -32 -41 -44 -29 -110c-59 -31 -110 -15 -110 27c0 19 12 34 65 75l364 277h-248l-43 -81h-32z" />
    <glyph glyph-name="Zcaron" unicode="&#x17d;" horiz-adv-x="748" 
d="M572 833l-82 155h29l80 -59l170 59h35l-218 -155h-14zM-57 0l4 12l686 702h-198c-21 0 -25 -3 -42 -18l-247 -209h-22l160 271h577l-4 -12l-685 -702h246c21 0 25 3 43 18l247 209h22l-160 -271h-627z" />
    <glyph glyph-name="zcaron" unicode="&#x17e;" horiz-adv-x="528" 
d="M376 609l-64 196h27l75 -80l177 80h30l-234 -196h-11zM67 302l90 200h452l-334 -254l51 -131c33 -84 48 -101 73 -101c35 0 69 39 28 150l31 12c48 -133 7 -206 -101 -206c-86 0 -140 35 -206 156l-10 18l-41 -32c-41 -32 -41 -44 -29 -110c-59 -31 -110 -15 -110 27
c0 19 12 34 65 75l364 277h-248l-43 -81h-32z" />
    <glyph glyph-name="uni018F" unicode="&#x18f;" horiz-adv-x="816" 
d="M367 -12c-216 0 -311 138 -282 318h570c7 34 11 69 11 107c0 181 -105 264 -250 264c-137 0 -233 -87 -287 -228h-34c60 234 234 331 399 331c194 0 331 -117 331 -308c0 -236 -193 -484 -458 -484zM385 30c104 0 204 84 252 213h-394c-21 -140 22 -213 142 -213z" />
    <glyph glyph-name="Scommaaccent" unicode="&#x218;" horiz-adv-x="622" 
d="M215 -13c-67 0 -155 14 -219 51l60 241h22l31 -179c4 -24 8 -37 21 -47c14 -13 51 -21 96 -21c99 0 192 46 192 127c0 46 -28 96 -100 170l-52 54c-41 43 -75 98 -75 163c0 121 135 233 314 233c61 0 128 -14 174 -44l-41 -225h-22l-52 163c-7 22 -12 36 -21 45
c-10 10 -34 15 -53 15c-92 0 -164 -44 -164 -112c0 -42 27 -84 67 -126l55 -57c84 -88 107 -134 107 -198c0 -151 -160 -253 -340 -253zM66 -378l-14 31c71 32 123 72 123 116c0 35 -27 59 -69 65c-1 47 29 79 73 80c54 1 98 -37 98 -96c0 -89 -108 -156 -211 -196z" />
    <glyph glyph-name="scommaaccent" unicode="&#x219;" horiz-adv-x="408" 
d="M112 -13c-72 0 -126 43 -126 92c0 54 46 81 97 79c34 -115 42 -134 61 -134c41 0 83 31 83 62c0 27 -23 59 -58 102l-33 41c-33 41 -49 80 -49 119c0 100 119 173 222 173c68 0 112 -30 112 -79c0 -37 -31 -85 -92 -77c-34 102 -36 121 -56 121c-33 0 -78 -24 -78 -55
c0 -21 16 -51 54 -98l36 -45c33 -42 47 -69 47 -116c0 -115 -119 -185 -220 -185zM-41 -378l-14 31c71 32 123 72 123 116c0 35 -27 59 -69 65c-1 47 29 79 73 80c54 1 98 -37 98 -96c0 -89 -108 -156 -211 -196z" />
    <glyph glyph-name="Tcommaaccent" unicode="&#x21a;" horiz-adv-x="782" 
d="M121 0l12 38l61 4c35 2 56 8 68 47l192 628h-100c-21 0 -26 -2 -42 -18l-200 -212h-22l105 271h704l-61 -271h-22l-56 212c-4 16 -11 18 -32 18h-114l-192 -628c-12 -39 5 -45 40 -47l59 -4l-12 -38h-388zM137 -378l-14 31c71 32 123 72 123 116c0 35 -27 59 -69 65
c-1 47 29 79 73 80c54 1 98 -37 98 -96c0 -89 -108 -156 -211 -196z" />
    <glyph glyph-name="tcommaaccent" unicode="&#x21b;" horiz-adv-x="411" 
d="M105 -13c-85 0 -91 50 -63 120l128 318h-109l30 77h110l47 116h147l-46 -116h129l-31 -77h-129l-124 -310c-21 -53 -24 -72 -3 -72c25 0 85 40 137 145l29 -12c-55 -114 -132 -189 -252 -189zM-82 -378l-14 31c71 32 123 72 123 116c0 35 -27 59 -69 65
c-1 47 29 79 73 80c54 1 98 -37 98 -96c0 -89 -108 -156 -211 -196z" />
    <glyph glyph-name="uni0232" unicode="&#x232;" horiz-adv-x="780" 
d="M467 872l23 68h285l-23 -68h-285zM120 0l12 38l61 4c35 2 56 8 68 47l78 253l-119 331c-12 33 -17 41 -50 45l-32 4l11 36h339l-11 -36l-44 -4c-36 -3 -59 -13 -48 -45l94 -272l265 272c32 33 27 43 -7 45l-62 4l11 36h270l-11 -36l-34 -4c-37 -4 -59 -12 -91 -45
l-322 -332l-77 -252c-12 -39 5 -45 40 -47l59 -4l-12 -38h-388z" />
    <glyph glyph-name="uni0233" unicode="&#x233;" horiz-adv-x="564" 
d="M315 669l23 68h285l-23 -68h-285zM-91 -261c-45 0 -73 27 -73 66c0 24 14 56 38 66c33 -17 60 -28 97 -28c41 0 90 16 167 109l2 485l-83 -5l-1 31l232 66l-6 -377l119 171c95 136 132 198 190 198c39 0 56 -24 56 -54c0 -34 -17 -55 -33 -65c-94 -24 -136 -35 -159 -69
l-225 -323c-84 -120 -223 -271 -321 -271z" />
    <glyph glyph-name="dotlessj" unicode="&#x237;" horiz-adv-x="316" 
d="M-229 -262l-13 27c125 81 191 124 253 277l163 402h-93l11 32l264 53l-207 -511c-34 -84 -52 -117 -148 -165z" />
    <glyph glyph-name="uni0259" unicode="&#x259;" horiz-adv-x="481" 
d="M318 522c96 0 157 -54 157 -151c0 -195 -205 -383 -354 -383c-79 0 -119 45 -119 99c0 37 19 78 51 110l236 2c15 43 24 89 24 138c0 83 -25 116 -72 116c-53 0 -103 -49 -151 -143l-30 10c63 135 142 202 258 202zM116 19c58 0 125 64 164 156h-25
c-107 0 -176 -75 -176 -122c0 -23 13 -34 37 -34z" />
    <glyph glyph-name="uni02BB" unicode="&#x2bb;" horiz-adv-x="292" 
d="M376 809l14 -33c-75 -38 -130 -104 -130 -156c0 -42 28 -67 84 -78c-11 -71 -62 -99 -113 -99c-54 0 -99 38 -99 101c0 84 90 201 244 265z" />
    <glyph glyph-name="uni02BC" unicode="&#x2bc;" horiz-adv-x="292" 
d="M141 429l-14 33c75 38 130 104 130 156c0 42 -28 67 -84 78c11 71 62 99 113 99c54 0 99 -38 99 -101c0 -84 -90 -201 -244 -265z" />
    <glyph glyph-name="circumflex" unicode="&#x2c6;" 
d="M-187 609l234 196h11l64 -196h-27l-76 80l-176 -80h-30z" />
    <glyph glyph-name="caron" unicode="&#x2c7;" 
d="M-58 609l-64 196h27l75 -80l177 80h30l-234 -196h-11z" />
    <glyph glyph-name="breve" unicode="&#x2d8;" 
d="M-10 628c-65 0 -137 40 -110 160h53c-14 -75 15 -106 68 -106c48 0 97 27 119 106h56c-34 -136 -123 -160 -186 -160z" />
    <glyph glyph-name="dotaccent" unicode="&#x2d9;" 
d="M-68 636c-39 0 -68 30 -68 69c0 40 29 69 68 69c38 0 68 -29 68 -69c0 -39 -30 -69 -68 -69z" />
    <glyph glyph-name="ring" unicode="&#x2da;" 
d="M-124 585c-68 0 -124 53 -124 120c0 66 56 121 124 121c71 0 127 -55 127 -121c0 -67 -56 -120 -127 -120zM-124 638c42 0 66 26 66 67s-24 66 -66 66c-40 0 -65 -25 -65 -66s25 -67 65 -67z" />
    <glyph glyph-name="ogonek" unicode="&#x2db;" 
d="M-30 -234c-50 0 -90 23 -90 69c0 62 87 126 168 165h34c-46 -40 -107 -86 -107 -136c0 -31 20 -46 58 -46c14 0 29 2 46 6l-11 -31c-24 -16 -63 -27 -98 -27z" />
    <glyph glyph-name="tilde" unicode="&#x2dc;" 
d="M68 645c-65 0 -99 58 -152 58c-30 0 -54 -12 -67 -54h-20c12 95 48 147 115 147c64 0 94 -58 147 -58c28 0 47 13 58 50h20c-19 -116 -53 -143 -101 -143z" />
    <glyph glyph-name="hungarumlaut" unicode="&#x2dd;" 
d="M-65 609l143 179h157l-4 -11l-267 -168h-29zM-259 609l143 179h157l-4 -11l-267 -168h-29z" />
    <glyph glyph-name="uni0401" unicode="&#x401;" horiz-adv-x="774" 
d="M695 837c-40 0 -70 31 -70 71c0 41 30 71 70 71c39 0 70 -30 70 -71c0 -40 -31 -71 -70 -71zM469 837c-40 0 -70 31 -70 71c0 41 30 71 70 71c39 0 70 -30 70 -71c0 -40 -31 -71 -70 -71zM-32 0l11 36l36 4c36 4 57 10 69 49l178 580c12 39 -6 45 -39 49l-34 4l11 36h576
l-46 -271h-22l-70 207c-5 16 -10 18 -31 18h-172l-90 -293h116c9 0 14 3 20 11l89 131h22l-103 -336h-22l-8 131c0 8 -5 11 -14 11h-116l-98 -321h225c17 0 21 3 35 14l251 211h22l-151 -271h-645z" />
    <glyph glyph-name="uni0402" unicode="&#x402;" horiz-adv-x="902" 
d="M92 0l12 38l71 4c36 2 46 8 58 47l192 628h-111c-17 0 -20 -1 -34 -16l-159 -169h-22l87 226h694l-51 -226h-22l-54 169c-5 14 -7 16 -23 16h-145l-97 -317c61 36 141 57 229 57c127 0 201 -81 167 -234l-2 -9c-25 -111 -96 -147 -184 -203c-43 -28 -136 -80 -199 -116
l-14 30c149 100 189 122 225 251l8 29c32 117 4 184 -105 184c-52 0 -99 -11 -138 -31l-82 -269c-12 -39 -4 -45 30 -47l69 -4l-12 -38h-388z" />
    <glyph glyph-name="uni0403" unicode="&#x403;" horiz-adv-x="723" 
d="M530 843l122 129h181l-1 -3l-270 -126h-32zM-30 0l11 36l36 4c36 4 57 10 69 49l178 580c12 39 -6 45 -39 49l-34 4l11 36h618l-46 -271h-22l-70 207c-5 16 -10 18 -31 18h-214l-191 -623c-12 -39 5 -45 40 -47l69 -4l-12 -38h-373z" />
    <glyph glyph-name="uni0404" unicode="&#x404;" horiz-adv-x="815" 
d="M435 -13c-195 0 -360 116 -360 322c0 263 265 470 530 470c97 0 194 -23 251 -62l-29 -235h-22l-62 177c-10 28 -22 45 -40 57c-20 13 -50 17 -92 17c-151 0 -292 -122 -339 -314h240c9 0 15 2 21 11l88 131h22l-103 -336h-22l-8 131c-1 8 -5 11 -14 11h-234
c-5 -29 -7 -60 -7 -92c0 -143 54 -242 192 -242c33 0 59 2 85 15c12 7 26 16 39 30l199 203h22l-137 -263c-56 -14 -144 -31 -220 -31z" />
    <glyph glyph-name="uni0405" unicode="&#x405;" horiz-adv-x="626" 
d="M217 -13c-67 0 -155 14 -219 51l60 241h22l31 -179c4 -24 8 -37 21 -47c14 -13 51 -21 96 -21c99 0 192 46 192 127c0 46 -28 96 -100 170l-52 54c-41 43 -75 98 -75 163c0 121 135 233 314 233c61 0 128 -14 174 -44l-41 -225h-22l-52 163c-7 22 -12 36 -21 45
c-10 10 -34 15 -53 15c-92 0 -164 -44 -164 -112c0 -42 27 -84 67 -126l55 -57c84 -88 107 -134 107 -198c0 -151 -160 -253 -340 -253z" />
    <glyph glyph-name="uni0406" unicode="&#x406;" horiz-adv-x="430" 
d="M-30 0l11 36l36 4c36 4 57 10 69 49l178 580c12 39 -6 45 -39 49l-34 4l11 36h338l-11 -36l-36 -4c-37 -4 -57 -10 -69 -49l-178 -580c-12 -39 5 -45 39 -49l34 -4l-11 -36h-338z" />
    <glyph glyph-name="uni0407" unicode="&#x407;" horiz-adv-x="430" 
d="M536 837c-40 0 -70 31 -70 71c0 41 30 71 70 71c39 0 70 -30 70 -71c0 -40 -31 -71 -70 -71zM310 837c-40 0 -70 31 -70 71c0 41 30 71 70 71c39 0 70 -30 70 -71c0 -40 -31 -71 -70 -71zM-32 0l11 36l36 4c36 4 57 10 69 49l178 580c12 39 -6 45 -39 49l-34 4l11 36h338
l-11 -36l-36 -4c-37 -4 -57 -10 -69 -49l-178 -580c-12 -39 5 -45 39 -49l34 -4l-11 -36h-338z" />
    <glyph glyph-name="uni0408" unicode="&#x408;" horiz-adv-x="428" 
d="M-87 -102l-18 34c158 96 188 116 227 244l152 497c11 37 -5 40 -39 42l-43 2l13 41h350l-13 -41l-43 -2c-36 -2 -54 -5 -65 -42l-141 -459c-33 -108 -65 -149 -162 -205c-44 -26 -155 -77 -218 -111z" />
    <glyph glyph-name="uni0409" unicode="&#x409;" horiz-adv-x="1110" 
d="M148 83c-51 -68 -95 -95 -144 -95c-37 0 -52 20 -52 44c0 67 55 122 184 127c87 129 145 284 214 510c12 39 5 46 -29 49l-44 4l11 36h642l-11 -36l-66 -4c-36 -2 -48 -10 -59 -49l-69 -224h67c205 0 313 -57 313 -183c0 -173 -222 -262 -449 -262h-316l11 36l46 4
c36 3 47 10 59 49l191 623h-227c-89 -292 -169 -492 -272 -629zM603 46h35c182 0 290 72 290 216c0 98 -59 137 -170 137h-47z" />
    <glyph glyph-name="uni040A" unicode="&#x40a;" horiz-adv-x="1201" 
d="M-30 0l11 36l46 4c36 3 47 10 59 49l178 580c11 39 5 46 -29 49l-44 4l11 36h338l-11 -36l-46 -4c-36 -3 -48 -10 -59 -49l-72 -233h300l72 233c11 39 5 46 -29 49l-44 4l11 36h358l-11 -36l-66 -4c-36 -2 -47 -10 -59 -49l-72 -232h67c207 0 316 -56 316 -180
c0 -170 -222 -257 -449 -257h-316l11 36l46 4c36 3 47 10 59 49l88 288h-300l-88 -288c-12 -39 -5 -46 29 -49l44 -4l-11 -36h-338zM693 46h35c182 0 290 70 290 211c0 96 -60 134 -173 134h-47z" />
    <glyph glyph-name="uni040B" unicode="&#x40b;" horiz-adv-x="1011" 
d="M92 0l12 38l71 4c35 2 46 8 58 47l192 628h-111c-17 0 -20 -1 -34 -16l-159 -169h-22l87 226h694l-51 -226h-22l-54 169c-5 14 -7 16 -23 16h-145l-97 -316c60 35 136 56 217 56c141 0 220 -71 162 -258l-34 -110c-12 -39 -5 -46 29 -49l44 -4l-11 -36h-249l63 205
c36 118 5 184 -101 184c-50 0 -95 -11 -132 -30l-83 -270c-12 -39 -5 -45 30 -47l69 -4l-12 -38h-388z" />
    <glyph glyph-name="uni040C" unicode="&#x40c;" horiz-adv-x="859" 
d="M582 843l122 129h181l-1 -3l-270 -126h-32zM-30 0l11 36l36 4c36 4 57 10 69 49l178 580c12 39 -6 45 -39 49l-34 4l11 36h338l-11 -36l-36 -4c-37 -4 -57 -10 -69 -49l-91 -295l433 314c19 14 19 28 -10 30l-72 4l11 36h306l-11 -36l-52 -3c-44 -3 -69 -14 -100 -36
l-354 -256l321 -427h-195l-279 366l-85 -277c-12 -39 5 -45 39 -49l34 -4l-11 -36h-338z" />
    <glyph glyph-name="uni040E" unicode="&#x40e;" horiz-adv-x="784" 
d="M597 827c-125 0 -162 76 -136 160h113c-33 -107 -1 -126 26 -126c32 0 75 19 108 126h113c-31 -108 -111 -160 -224 -160zM327 84c-57 -69 -100 -96 -151 -96c-38 0 -53 18 -53 47c0 73 82 111 194 111l36 43l-128 484c-9 34 -16 41 -50 45l-32 4l11 36h335l-11 -36
l-44 -4c-36 -3 -56 -11 -48 -45l88 -335l276 335c29 34 14 42 -20 45l-42 4l11 36h242l-11 -36l-34 -4c-48 -6 -58 -14 -84 -46z" />
    <glyph glyph-name="uni040F" unicode="&#x40f;" horiz-adv-x="900" 
d="M295 -12c-1 11 -7 12 -22 12h-303l11 36l46 4c36 3 47 10 59 49l177 580c12 39 5 46 -29 49l-44 4l11 36h338l-11 -36l-46 -4c-36 -3 -47 -10 -59 -49l-190 -623h311l190 623c12 39 5 46 -29 49l-44 4l11 36h338l-11 -36l-46 -4c-36 -3 -47 -10 -59 -49l-177 -580
c-12 -39 -5 -46 29 -49l44 -4l-11 -36h-302c-15 0 -22 -1 -30 -12l-116 -167h-22z" />
    <glyph glyph-name="uni0410" unicode="&#x410;" horiz-adv-x="823" 
d="M-143 0l11 36l34 4c36 4 71 14 105 45l773 703h20l-145 -699c-8 -39 5 -45 39 -49l34 -4l-11 -36h-338l11 36l36 4c36 4 60 10 69 49l35 158h-271l-177 -162c-30 -28 -37 -43 -3 -45l60 -4l-11 -36h-271zM324 306h219l55 251z" />
    <glyph glyph-name="uni0411" unicode="&#x411;" horiz-adv-x="764" 
d="M264 669c11 39 5 46 -29 49l-44 4l11 36h580l-45 -256h-22l-81 192c-7 16 -10 18 -31 18h-166l-82 -267h67c205 0 313 -57 313 -183c0 -173 -222 -262 -449 -262h-316l11 36l46 4c36 3 47 10 59 49zM233 46h35c182 0 290 72 290 216c0 98 -59 137 -170 137h-47z" />
    <glyph glyph-name="uni0412" unicode="&#x412;" horiz-adv-x="770" 
d="M-30 0l11 36l36 4c36 4 57 10 69 49l178 580c12 39 -6 45 -39 49l-34 4l11 36h298c193 0 283 -42 281 -132c-2 -115 -119 -195 -286 -215v-2c127 -4 236 -54 236 -157c0 -130 -159 -252 -406 -252h-355zM349 424h69c130 0 195 120 195 204c0 57 -31 86 -106 86h-70z
M232 44h88c167 0 234 125 234 226c0 84 -54 110 -144 110h-75z" />
    <glyph glyph-name="uni0413" unicode="&#x413;" horiz-adv-x="723" 
d="M-30 0l11 36l36 4c36 4 57 10 69 49l178 580c12 39 -6 45 -39 49l-34 4l11 36h618l-46 -271h-22l-70 207c-5 16 -10 18 -31 18h-214l-191 -623c-12 -39 5 -45 40 -47l69 -4l-12 -38h-373z" />
    <glyph glyph-name="uni0414" unicode="&#x414;" horiz-adv-x="798" 
d="M88 -12l-161 -167h-22l77 225h85c132 185 241 464 289 623c12 39 5 46 -29 49l-44 4l11 36h617l-11 -36l-46 -4c-36 -3 -47 -10 -59 -49l-190 -623h104l-61 -225h-22l-59 167c-3 9 -7 12 -22 12h-427c-16 0 -21 -3 -30 -12zM445 46l203 666h-222
c-59 -192 -168 -476 -300 -666h319z" />
    <glyph glyph-name="uni0415" unicode="&#x415;" horiz-adv-x="774" 
d="M-30 0l11 36l36 4c36 4 57 10 69 49l178 580c12 39 -6 45 -39 49l-34 4l11 36h576l-46 -271h-22l-70 207c-5 16 -10 18 -31 18h-172l-90 -293h116c9 0 14 3 20 11l89 131h22l-103 -336h-22l-8 131c0 8 -5 11 -14 11h-116l-98 -321h225c17 0 21 3 35 14l251 211h22
l-151 -271h-645z" />
    <glyph glyph-name="uni0416" unicode="&#x416;" horiz-adv-x="1195" 
d="M161 0h-211l508 458l-138 225c-15 25 -34 33 -84 36l-50 3l11 36h288l-11 -36l-64 -4c-31 -2 -39 -15 -31 -30l191 -313l90 294c11 39 5 46 -29 49l-44 4l11 36h338l-11 -36l-46 -4c-36 -3 -48 -10 -59 -49l-90 -294l381 313c18 15 18 28 -11 30l-62 4l11 36h288l-11 -36
l-52 -3c-45 -3 -67 -13 -96 -36l-297 -244l219 -439h-191l-182 366l-85 -277c-12 -39 -5 -46 29 -49l44 -4l-11 -36h-338l11 36l46 4c36 3 47 10 59 49l85 278z" />
    <glyph glyph-name="uni0417" unicode="&#x417;" horiz-adv-x="698" 
d="M283 33c131 0 201 111 201 207c0 74 -49 140 -151 140h-73l14 44h67c135 0 202 115 202 204c0 57 -27 104 -81 104c-11 0 -23 -1 -33 -3c-14 -3 -19 -5 -42 -26l-197 -186h-22l120 235c52 18 110 27 182 27c164 0 239 -64 239 -155c0 -102 -96 -197 -291 -218l-1 -2
c168 0 244 -60 244 -158c0 -159 -173 -259 -377 -259c-89 0 -165 9 -224 37l29 246h22l80 -196c10 -25 21 -31 36 -35c17 -4 35 -6 56 -6z" />
    <glyph glyph-name="uni0418" unicode="&#x418;" horiz-adv-x="921" 
d="M-30 0l11 36l46 4c36 3 47 10 59 49l178 580c11 39 5 46 -29 49l-44 4l11 36h338l-11 -36l-46 -4c-36 -3 -47 -10 -59 -49l-140 -457l464 435l7 22c11 39 5 46 -29 49l-44 4l11 36h338l-11 -36l-46 -4c-36 -3 -48 -10 -59 -49l-178 -580c-12 -39 -5 -46 29 -49l44 -4
l-11 -36h-338l11 36l46 4c36 3 47 10 59 49l142 464l-464 -435l-9 -29c-12 -39 -5 -46 29 -49l44 -4l-11 -36h-338z" />
    <glyph glyph-name="uni0419" unicode="&#x419;" horiz-adv-x="921" 
d="M626 827c-125 0 -162 76 -136 160h113c-33 -107 -1 -126 26 -126c32 0 75 19 108 126h113c-31 -108 -111 -160 -224 -160zM-30 0l11 36l46 4c36 3 47 10 59 49l178 580c11 39 5 46 -29 49l-44 4l11 36h338l-11 -36l-46 -4c-36 -3 -47 -10 -59 -49l-140 -457l464 435l7 22
c11 39 5 46 -29 49l-44 4l11 36h338l-11 -36l-46 -4c-36 -3 -48 -10 -59 -49l-178 -580c-12 -39 -5 -46 29 -49l44 -4l-11 -36h-338l11 36l46 4c36 3 47 10 59 49l142 464l-464 -435l-9 -29c-12 -39 -5 -46 29 -49l44 -4l-11 -36h-338z" />
    <glyph glyph-name="uni041A" unicode="&#x41a;" horiz-adv-x="859" 
d="M-30 0l11 36l36 4c36 4 57 10 69 49l178 580c12 39 -6 45 -39 49l-34 4l11 36h338l-11 -36l-36 -4c-37 -4 -57 -10 -69 -49l-91 -295l433 314c19 14 19 28 -10 30l-72 4l11 36h306l-11 -36l-52 -3c-44 -3 -69 -14 -100 -36l-354 -256l321 -427h-195l-279 366l-85 -277
c-12 -39 5 -45 39 -49l34 -4l-11 -36h-338z" />
    <glyph glyph-name="uni041B" unicode="&#x41b;" horiz-adv-x="800" 
d="M148 83c-51 -68 -95 -95 -144 -95c-37 0 -52 20 -52 44c0 67 63 123 184 127c87 129 145 284 214 510c12 39 5 46 -29 49l-44 4l11 36h622l-11 -36l-46 -4c-36 -3 -47 -10 -59 -49l-177 -580c-12 -39 -5 -46 29 -49l44 -4l-11 -36h-338l11 36l46 4c36 3 47 10 59 49
l190 623h-227c-89 -292 -169 -492 -272 -629z" />
    <glyph glyph-name="uni041C" unicode="&#x41c;" horiz-adv-x="1043" 
d="M-30 0l11 36l36 4c36 4 57 10 69 49l178 580c12 39 -6 45 -39 49l-34 4l11 36h274l71 -416l319 416h287l-11 -36l-36 -4c-37 -4 -57 -10 -69 -49l-178 -580c-12 -39 5 -45 39 -49l34 -4l-11 -36h-338l11 36l36 4c36 4 57 10 69 49l186 609l-452 -589h-6l-100 586
l-185 -606c-12 -39 5 -45 39 -49l34 -4l-11 -36h-234z" />
    <glyph glyph-name="uni041D" unicode="&#x41d;" horiz-adv-x="911" 
d="M-30 0l11 36l36 4c36 4 57 10 69 49l178 580c12 39 -6 45 -39 49l-34 4l11 36h338l-11 -36l-36 -4c-37 -4 -57 -10 -69 -49l-74 -242h321l74 242c12 39 -6 45 -39 49l-34 4l11 36h338l-11 -36l-36 -4c-37 -4 -57 -10 -69 -49l-178 -580c-12 -39 5 -45 39 -49l34 -4
l-11 -36h-338l11 36l36 4c36 4 57 10 69 49l86 279h-321l-86 -279c-12 -39 5 -45 39 -49l34 -4l-11 -36h-338z" />
    <glyph glyph-name="uni041E" unicode="&#x41e;" horiz-adv-x="882" 
d="M370 -13c-170 0 -306 98 -306 279c0 223 218 513 532 513c170 0 305 -98 305 -279c0 -223 -217 -513 -531 -513zM400 29c161 0 316 200 316 465c0 138 -35 243 -150 243c-161 0 -316 -200 -316 -465c0 -138 35 -243 150 -243z" />
    <glyph glyph-name="uni041F" unicode="&#x41f;" horiz-adv-x="901" 
d="M202 758h809l-11 -36l-46 -4c-36 -3 -48 -10 -59 -49l-178 -580c-12 -39 -5 -46 29 -49l44 -4l-11 -36h-338l11 36l46 4c36 3 47 10 59 49l191 623h-311l-191 -623c-12 -39 -5 -46 29 -49l44 -4l-11 -36h-338l11 36l46 4c36 3 47 10 59 49l178 580c11 39 5 46 -29 49
l-44 4z" />
    <glyph glyph-name="uni0420" unicode="&#x420;" horiz-adv-x="740" 
d="M-30 0l11 36l36 4c36 4 57 10 69 49l178 580c12 39 -6 45 -39 49l-34 4l11 36h318c173 0 297 -34 297 -156c0 -142 -136 -262 -413 -262h-56l14 45h49c168 0 229 121 229 222c0 73 -40 107 -129 107h-74l-191 -625c-12 -39 5 -45 40 -47l69 -4l-12 -38h-373z" />
    <glyph glyph-name="uni0421" unicode="&#x421;" horiz-adv-x="815" 
d="M435 -13c-195 0 -360 116 -360 322c0 263 265 470 530 470c97 0 194 -23 251 -62l-29 -235h-22l-62 177c-10 28 -22 45 -40 57c-20 13 -50 17 -92 17c-186 0 -356 -185 -356 -458c0 -143 54 -242 192 -242c33 0 59 2 85 15c12 7 26 16 39 30l199 203h22l-137 -263
c-56 -14 -144 -31 -220 -31z" />
    <glyph glyph-name="uni0422" unicode="&#x422;" horiz-adv-x="786" 
d="M123 0l12 38l61 4c35 2 56 8 68 47l192 628h-100c-21 0 -26 -2 -42 -18l-200 -212h-22l105 271h704l-61 -271h-22l-56 212c-4 16 -11 18 -32 18h-114l-192 -628c-12 -39 5 -45 40 -47l59 -4l-12 -38h-388z" />
    <glyph glyph-name="uni0423" unicode="&#x423;" horiz-adv-x="784" 
d="M327 84c-57 -69 -100 -96 -151 -96c-38 0 -53 18 -53 47c0 73 82 111 194 111l36 43l-128 484c-9 34 -16 41 -50 45l-32 4l11 36h335l-11 -36l-44 -4c-36 -3 -56 -11 -48 -45l88 -335l276 335c29 34 14 42 -20 45l-42 4l11 36h242l-11 -36l-34 -4c-48 -6 -58 -14 -84 -46
z" />
    <glyph glyph-name="uni0424" unicode="&#x424;" horiz-adv-x="1010" 
d="M251 -20l11 36l46 4c36 3 47 10 59 49l10 34c-193 16 -324 92 -324 217c0 196 213 320 495 340l9 29c12 39 5 46 -29 49l-44 4l11 36h338l-11 -36l-46 -4c-36 -3 -47 -10 -59 -49l-9 -29c195 -16 327 -91 327 -217c0 -196 -214 -321 -498 -340l-10 -34
c-12 -39 -5 -46 29 -49l44 -4l-11 -36h-338zM861 441c0 104 -54 156 -167 171l-142 -460c197 27 309 154 309 289zM227 322c0 -104 54 -156 165 -171l141 460c-195 -27 -306 -154 -306 -289z" />
    <glyph glyph-name="uni0425" unicode="&#x425;" horiz-adv-x="846" 
d="M-109 0l16 36l34 4c37 4 70 16 107 45l354 283l-79 305c-7 31 -21 41 -53 45l-32 4l16 36h337l-16 -36l-44 -4c-37 -3 -53 -14 -45 -45l51 -198l248 198c38 30 42 42 9 45l-42 4l16 36h257l-16 -36l-34 -4c-38 -4 -70 -16 -107 -45l-316 -252l87 -336
c8 -31 20 -41 53 -45l32 -4l-16 -36h-337l16 36l44 4c37 3 52 14 45 45l-59 228l-286 -228c-38 -30 -42 -42 -9 -45l42 -4l-16 -36h-257z" />
    <glyph glyph-name="uni0426" unicode="&#x426;" horiz-adv-x="918" 
d="M644 0h-674l11 36l46 4c36 3 47 10 59 49l177 580c12 39 5 46 -29 49l-44 4l11 36h338l-11 -36l-46 -4c-36 -3 -47 -10 -59 -49l-190 -623h311l190 623c12 39 5 46 -29 49l-44 4l11 36h338l-11 -36l-46 -4c-36 -3 -47 -10 -59 -49l-190 -623h104l-61 -225h-22l-59 167
c-3 9 -7 12 -22 12z" />
    <glyph glyph-name="uni0427" unicode="&#x427;" horiz-adv-x="891" 
d="M216 576l28 93c11 39 5 46 -29 49l-44 4l11 36h338l-11 -36l-46 -4c-36 -3 -48 -10 -59 -49l-33 -107c-47 -153 3 -194 128 -194c47 0 90 5 139 18l87 283c11 39 5 46 -29 49l-44 4l11 36h338l-11 -36l-46 -4c-36 -3 -48 -10 -59 -49l-178 -580c-12 -39 -5 -46 29 -49
l44 -4l-11 -36h-338l11 36l46 4c36 3 47 10 59 49l73 238c-77 -16 -141 -19 -177 -19c-202 0 -284 79 -227 268z" />
    <glyph glyph-name="uni0428" unicode="&#x428;" horiz-adv-x="1270" 
d="M1148 0h-1178l11 36l46 4c36 3 47 10 59 49l178 580c11 39 5 46 -29 49l-44 4l11 36h338l-11 -36l-46 -4c-36 -3 -48 -10 -59 -49l-191 -623h260l191 623c11 39 5 46 -29 49l-44 4l11 36h338l-11 -36l-46 -4c-36 -3 -48 -10 -59 -49l-191 -623h260l191 623
c11 39 5 46 -29 49l-44 4l11 36h338l-11 -36l-46 -4c-36 -3 -48 -10 -59 -49l-178 -580c-12 -39 -5 -46 29 -49l44 -4z" />
    <glyph glyph-name="uni0429" unicode="&#x429;" horiz-adv-x="1287" 
d="M1013 0h-1043l11 36l46 4c36 3 47 10 59 49l177 580c12 39 5 46 -29 49l-44 4l11 36h338l-11 -36l-46 -4c-36 -3 -47 -10 -59 -49l-190 -623h260l190 623c12 39 5 46 -29 49l-44 4l11 36h338l-11 -36l-46 -4c-36 -3 -47 -10 -59 -49l-190 -623h260l190 623
c12 39 5 46 -29 49l-44 4l11 36h338l-11 -36l-46 -4c-36 -3 -47 -10 -59 -49l-190 -623h104l-61 -225h-22l-59 167c-3 9 -7 12 -22 12z" />
    <glyph glyph-name="uni042A" unicode="&#x42a;" horiz-adv-x="863" 
d="M478 445h67c205 0 313 -57 313 -183c0 -173 -222 -262 -449 -262h-316l11 36l46 4c36 3 47 10 59 49l192 628h-52c-21 0 -27 -1 -42 -18l-193 -212h-22l105 271h486l-11 -36l-66 -4c-36 -2 -48 -10 -59 -49zM356 46h35c182 0 290 72 290 216c0 98 -59 137 -170 137h-47z
" />
    <glyph glyph-name="uni042B" unicode="&#x42b;" horiz-adv-x="1103" 
d="M355 445h67c205 0 313 -57 313 -183c0 -173 -222 -262 -449 -262h-316l11 36l46 4c36 3 47 10 59 49l178 580c11 39 5 46 -29 49l-44 4l11 36h358l-11 -36l-66 -4c-36 -2 -48 -10 -59 -49zM663 0l11 36l36 4c36 4 57 10 69 49l178 580c12 39 -6 45 -39 49l-34 4l11 36
h338l-11 -36l-36 -4c-37 -4 -57 -10 -69 -49l-178 -580c-12 -39 5 -45 39 -49l34 -4l-11 -36h-338zM233 46h35c182 0 290 72 290 216c0 98 -59 137 -170 137h-47z" />
    <glyph glyph-name="uni042C" unicode="&#x42c;" horiz-adv-x="740" 
d="M355 445h67c205 0 313 -57 313 -183c0 -173 -222 -262 -449 -262h-316l11 36l46 4c36 3 47 10 59 49l178 580c11 39 5 46 -29 49l-44 4l11 36h358l-11 -36l-66 -4c-36 -2 -48 -10 -59 -49zM233 46h35c182 0 290 72 290 216c0 98 -59 137 -170 137h-47z" />
    <glyph glyph-name="uni042D" unicode="&#x42d;" horiz-adv-x="807" 
d="M526 779c169 0 300 -98 300 -279c0 -223 -213 -513 -521 -513c-89 0 -191 13 -245 35l27 262h22l73 -192c12 -33 30 -44 44 -50c12 -5 40 -9 69 -9c160 0 293 137 333 334h-182c-9 0 -14 -3 -20 -11l-88 -131h-22l102 336h22l8 -131c0 -8 5 -11 14 -11h175
c3 24 4 49 4 75c0 136 -27 239 -122 239c-23 0 -53 -4 -69 -9c-18 -6 -41 -17 -74 -50l-191 -192h-22l126 262c66 21 160 35 237 35z" />
    <glyph glyph-name="uni042E" unicode="&#x42e;" horiz-adv-x="1232" 
d="M-30 0l11 36l36 4c36 4 57 10 69 49l178 580c12 39 -6 45 -39 49l-34 4l11 36h338l-11 -36l-36 -4c-37 -4 -57 -10 -69 -49l-74 -242h117c71 181 252 352 489 352c164 0 295 -98 295 -279c0 -223 -213 -513 -521 -513c-164 0 -296 98 -296 279c0 33 5 67 14 102h-116
l-86 -279c-12 -39 5 -45 39 -49l34 -4l-11 -36h-338zM760 29c156 0 306 200 306 465c0 138 -33 243 -140 243c-156 0 -306 -200 -306 -465c0 -138 33 -243 140 -243z" />
    <glyph glyph-name="uni042F" unicode="&#x42f;" horiz-adv-x="837" 
d="M134 0h-195l416 354c-108 19 -169 72 -169 149c0 160 172 255 406 255h355l-11 -36l-46 -4c-36 -3 -48 -10 -59 -49l-178 -580c-12 -39 -5 -46 29 -49l44 -4l-11 -36h-338l11 36l46 4c36 3 47 10 59 49l76 247h-40zM582 380l102 334h-54c-154 0 -268 -67 -268 -210
c0 -81 60 -124 167 -124h53z" />
    <glyph glyph-name="uni0430" unicode="&#x430;" horiz-adv-x="586" 
d="M91 -13c-58 0 -90 46 -90 106c0 179 208 428 352 428c35 0 56 -24 60 -47h1l17 46h140l-149 -405c-20 -53 -22 -72 -1 -72c25 0 85 40 137 145l29 -12c-55 -114 -132 -189 -252 -189c-85 0 -77 53 -49 125l25 65h-2c-80 -133 -126 -190 -218 -190zM181 65
c38 0 136 154 176 259c46 121 37 166 -3 166c-95 0 -193 -254 -193 -378c0 -30 7 -47 20 -47z" />
    <glyph glyph-name="uni0431" unicode="&#x431;" horiz-adv-x="533" 
d="M521 377c0 -189 -165 -390 -346 -390c-94 0 -150 57 -150 148c0 259 191 561 531 636c52 11 90 19 115 58h32c-45 -109 -85 -187 -216 -187c-84 0 -110 17 -141 1c-47 -24 -87 -114 -115 -220c32 46 89 95 158 95c86 0 132 -65 132 -141zM224 29c72 0 133 180 133 350
c0 52 -14 74 -35 74c-25 0 -60 -24 -101 -73c-20 -90 -32 -186 -32 -263c0 -59 11 -88 35 -88z" />
    <glyph glyph-name="uni0432" unicode="&#x432;" horiz-adv-x="524" 
d="M463 173c0 -90 -123 -186 -255 -186c-120 0 -192 53 -192 144c0 203 214 392 387 392c88 0 128 -31 128 -77c0 -71 -82 -135 -234 -168c115 4 166 -37 166 -105zM343 481c-76 0 -124 -103 -149 -210c21 5 39 11 56 17c86 33 125 89 125 147c0 28 -11 46 -32 46zM175 113
c0 -57 14 -92 49 -92c49 0 84 63 84 139c0 54 -12 89 -65 89c-19 0 -38 -6 -56 -12c-8 -46 -12 -89 -12 -124z" />
    <glyph glyph-name="uni0433" unicode="&#x433;" horiz-adv-x="504" 
d="M203 -13c-119 0 -183 47 -183 131s63 142 195 178l33 9c87 24 134 55 134 116c0 46 -29 64 -59 64c-13 0 -23 -2 -34 -8c-10 -5 -20 -12 -33 -23l-130 -113h-22l77 160c54 15 92 20 144 20c98 0 169 -47 169 -135c0 -100 -76 -143 -205 -180l-42 -12
c-63 -18 -106 -54 -106 -110c0 -42 35 -59 66 -59c19 0 33 4 46 10c13 7 24 17 39 30l134 124h22l-91 -178c-47 -13 -102 -24 -154 -24z" />
    <glyph glyph-name="uni0434" unicode="&#x434;" horiz-adv-x="527" 
d="M156 -13c-83 0 -140 46 -140 147c0 178 165 387 333 387c11 0 21 -1 30 -3c-1 144 -34 244 -113 244c-27 0 -51 -10 -76 -32l-15 20c41 41 81 58 144 58c134 0 216 -120 216 -283c0 -340 -193 -538 -379 -538zM175 111c0 -44 7 -83 34 -83c70 0 162 149 169 440
c-8 10 -23 19 -41 19c-93 0 -162 -215 -162 -376z" />
    <glyph glyph-name="uni0435" unicode="&#x435;" horiz-adv-x="481" 
d="M172 -13c-96 0 -157 54 -157 151c0 195 205 383 354 383c79 0 119 -45 119 -99c0 -37 -19 -78 -51 -110l-236 -2c-15 -43 -24 -89 -24 -138c0 -83 25 -116 72 -116c53 0 103 49 151 143l30 -10c-63 -135 -142 -202 -258 -202zM374 490c-58 0 -125 -64 -164 -156h25
c107 0 176 75 176 122c0 23 -13 34 -37 34z" />
    <glyph glyph-name="uni0436" unicode="&#x436;" horiz-adv-x="1053" 
d="M517 11l-160 -24l92 240l-95 -15c-71 -127 -194 -225 -280 -225c-47 0 -88 26 -88 87c0 64 64 95 141 83c-20 -64 -14 -100 15 -100c52 0 102 138 112 262c9 90 -7 118 -34 118c-28 0 -67 -34 -104 -121l-29 11c44 113 122 196 226 196c73 0 104 -53 96 -144
c-4 -42 -16 -83 -33 -123l90 14l87 229l160 24l-87 -226l100 16c72 119 188 210 271 210c47 0 88 -26 88 -87c0 -64 -64 -95 -141 -83c20 64 14 100 -15 100c-52 0 -102 -138 -112 -262c-9 -90 7 -118 34 -118c28 0 67 34 104 121l29 -11c-44 -113 -122 -196 -226 -196
c-73 0 -104 53 -96 144c4 47 19 93 40 138l-92 -15z" />
    <glyph glyph-name="uni0437" unicode="&#x437;" horiz-adv-x="488" 
d="M158 -13c-103 0 -158 33 -158 88c0 53 50 85 138 74c-26 -95 -18 -130 24 -130c68 0 105 74 105 154c0 41 -11 69 -60 69c-23 0 -45 -8 -65 -16l10 37c15 4 28 8 41 13c112 40 146 105 146 159c0 28 -12 42 -38 42c-49 0 -117 -46 -180 -137l-25 17
c78 114 161 164 277 164c77 0 122 -37 122 -94c0 -66 -72 -122 -233 -156c115 5 165 -31 165 -98c0 -90 -123 -186 -269 -186z" />
    <glyph glyph-name="uni0438" unicode="&#x438;" horiz-adv-x="631" 
d="M365 529l-158 -352c-43 -95 -47 -117 -28 -117c25 0 68 57 119 135c62 92 124 208 165 298l156 26l-156 -404c-20 -53 -23 -72 -2 -72c25 0 85 40 137 145l29 -12c-55 -114 -132 -189 -252 -189c-85 0 -92 49 -63 120l77 189h-1c-32 -58 -65 -112 -91 -152
c-73 -115 -125 -157 -197 -157c-78 0 -96 72 -44 188l119 269h-93l11 32z" />
    <glyph glyph-name="uni0439" unicode="&#x439;" horiz-adv-x="631" 
d="M430 628c-129 0 -165 76 -139 160h113c-33 -107 -1 -126 28 -126c30 0 73 19 106 126h113c-29 -94 -106 -160 -221 -160zM365 529l-158 -352c-43 -95 -47 -117 -28 -117c25 0 68 57 119 135c62 92 124 208 165 298l156 26l-156 -404c-20 -53 -23 -72 -2 -72
c25 0 85 40 137 145l29 -12c-55 -114 -132 -189 -252 -189c-85 0 -92 49 -63 120l77 189h-1c-32 -58 -65 -112 -91 -152c-73 -115 -125 -157 -197 -157c-78 0 -96 72 -44 188l119 269h-93l11 32z" />
    <glyph glyph-name="uni043A" unicode="&#x43a;" horiz-adv-x="616" 
d="M155 13l-157 -23l175 454h-93l11 32l261 53zM430 -28c-91 0 -122 53 -145 125l-42 132l123 144c102 120 157 148 204 148c41 0 64 -32 64 -68c0 -53 -42 -101 -104 -105c-18 73 -25 100 -41 100c-17 0 -48 -38 -92 -90l-24 -28l69 -245c17 -61 33 -65 47 -65
c17 0 48 14 79 110l29 -9c-39 -121 -87 -149 -167 -149z" />
    <glyph glyph-name="uni043B" unicode="&#x43b;" horiz-adv-x="600" 
d="M87 11c-23 -17 -47 -24 -72 -24c-33 0 -55 21 -55 52c-1 14 4 31 14 49l150 25c58 88 109 215 151 324h-97l26 65h377l-149 -387c-20 -53 -23 -72 -2 -72c25 0 85 40 137 145l29 -12c-55 -114 -132 -189 -252 -189c-78 0 -90 51 -58 132l124 318h-93
c-101 -254 -165 -378 -230 -426z" />
    <glyph glyph-name="uni043C" unicode="&#x43c;" horiz-adv-x="805" 
d="M18 -13c-39 0 -63 22 -63 54c0 14 4 30 14 47l146 24c35 62 74 170 129 332h-86l11 32l221 53l20 -314l226 277l157 27l-156 -404c-20 -53 -23 -72 -2 -72c25 0 85 40 137 145l29 -12c-55 -114 -132 -189 -252 -189c-78 0 -90 51 -58 132l107 274l-306 -372h-6l-26 353
c-41 -118 -72 -209 -105 -273c-39 -76 -79 -114 -137 -114z" />
    <glyph glyph-name="uni043D" unicode="&#x43d;" horiz-adv-x="631" 
d="M155 13l-157 -23l175 454h-93l11 32l261 53l-98 -258l131 23l78 199l156 26l-156 -404c-20 -53 -23 -72 -2 -72c25 0 85 40 137 145l29 -12c-55 -114 -132 -189 -252 -189c-78 0 -90 51 -58 132l54 137l-132 -22z" />
    <glyph glyph-name="uni043E" unicode="&#x43e;" horiz-adv-x="524" 
d="M162 -13c-95 0 -146 66 -146 145c0 182 167 389 349 389c95 0 146 -66 146 -145c0 -184 -167 -389 -349 -389zM219 29c52 0 129 138 128 364c0 56 -11 86 -37 86c-55 0 -130 -138 -130 -364c0 -56 11 -86 39 -86z" />
    <glyph glyph-name="uni043F" unicode="&#x43f;" horiz-adv-x="635" 
d="M369 -13c-85 0 -99 51 -66 120l108 224c45 93 47 117 28 117c-25 0 -68 -57 -119 -135c-62 -92 -132 -213 -165 -300l-157 -23l175 454h-93l11 32l261 53l-136 -336h1c39 71 73 128 102 173c74 115 130 155 199 155c78 0 99 -74 44 -188l-105 -218
c-24 -51 -23 -72 -2 -72c25 0 85 40 137 145l29 -12c-55 -114 -132 -189 -252 -189z" />
    <glyph glyph-name="uni0440" unicode="&#x440;" horiz-adv-x="588" 
d="M-73 -248l238 692h-93l11 32l259 53l-29 -84c37 43 94 76 148 76c76 0 123 -51 123 -125c0 -194 -203 -414 -427 -406l-82 -238h-148zM358 437c-19 0 -39 -8 -55 -21l-136 -397c135 -1 252 211 252 332c0 63 -28 86 -61 86z" />
    <glyph glyph-name="uni0441" unicode="&#x441;" horiz-adv-x="465" 
d="M164 -13c-96 0 -148 54 -148 151c0 181 178 383 345 383c65 0 116 -29 116 -88c0 -53 -53 -92 -141 -81c26 102 27 137 -2 137c-62 0 -156 -160 -156 -317c0 -83 22 -116 69 -116c44 0 95 35 140 138l29 -11c-59 -144 -147 -196 -252 -196z" />
    <glyph glyph-name="uni0442" unicode="&#x442;" horiz-adv-x="910" 
d="M644 -13c-85 0 -99 51 -66 120l108 224c45 93 47 117 28 117c-25 0 -68 -57 -119 -135c-62 -92 -132 -213 -165 -300l-153 -23l134 341c37 95 47 117 28 117c-25 0 -68 -57 -119 -135c-62 -92 -132 -213 -165 -300l-157 -23l175 454h-93l11 32l261 53l-136 -336h1
c39 71 73 128 102 173c74 115 130 155 199 155c78 0 86 -74 35 -188l-62 -140h1c39 71 73 128 102 173c74 115 130 155 199 155c78 0 99 -74 44 -188l-105 -218c-24 -51 -23 -72 -2 -72c25 0 85 40 137 145l29 -12c-55 -114 -132 -189 -252 -189z" />
    <glyph glyph-name="uni0443" unicode="&#x443;" horiz-adv-x="568" 
d="M-89 -261c-45 0 -73 27 -73 66c0 24 14 56 38 66c33 -17 60 -28 97 -28c41 0 90 16 167 109l2 485l-83 -5l-1 31l232 66l-6 -377l119 171c95 136 132 198 190 198c39 0 56 -24 56 -54c0 -34 -17 -55 -33 -65c-94 -24 -136 -35 -159 -69l-225 -323
c-84 -120 -223 -271 -321 -271z" />
    <glyph glyph-name="uni0444" unicode="&#x444;" horiz-adv-x="793" 
d="M659 802l-96 -281c138 -11 217 -75 217 -198c0 -189 -191 -326 -399 -336l-80 -235h-148l80 235c-138 11 -217 75 -217 198c0 189 191 326 398 336l49 143l-70 59l2 6zM174 177c0 -67 23 -126 73 -148l154 453c-138 -12 -227 -175 -227 -305zM622 331
c0 67 -23 126 -73 148l-155 -453c139 11 228 175 228 305z" />
    <glyph glyph-name="uni0445" unicode="&#x445;" horiz-adv-x="632" 
d="M30 -13c-41 0 -64 32 -64 68c0 53 42 101 104 105c18 -73 25 -100 41 -100c22 0 76 64 134 148l-19 171c-5 44 -10 80 -34 80c-32 0 -78 -50 -122 -114l-24 18c61 89 121 158 214 158c51 0 103 -12 117 -134l5 -47c107 156 177 181 228 181c41 0 64 -32 64 -68
c0 -53 -42 -101 -104 -105c-18 73 -25 100 -41 100c-23 0 -80 -69 -141 -158l18 -161c5 -44 10 -80 34 -80c32 0 78 50 122 114l24 -18c-61 -89 -121 -158 -214 -158c-51 0 -103 12 -117 134l-4 37c-103 -147 -171 -171 -221 -171z" />
    <glyph glyph-name="uni0446" unicode="&#x446;" horiz-adv-x="633" 
d="M365 529l-158 -352c-43 -95 -47 -117 -28 -117c25 0 68 57 119 135c62 92 124 208 165 298l156 26l-156 -404c-20 -53 -23 -72 -2 -72c25 0 85 40 137 145l29 -12h2c-71 -138 -32 -97 -32 -236c0 -103 -78 -136 -187 -150l3 20c39 7 56 43 56 77c0 65 19 103 48 145
c-39 -29 -86 -45 -142 -45c-85 0 -92 49 -63 120l77 189h-1c-32 -58 -65 -112 -91 -152c-73 -115 -125 -157 -197 -157c-78 0 -96 72 -44 188l119 269h-93l11 32z" />
    <glyph glyph-name="uni0447" unicode="&#x447;" horiz-adv-x="621" 
d="M365 529l-85 -185c-35 -76 -38 -97 -19 -97c37 0 147 148 192 246l156 26l-156 -404c-20 -53 -23 -72 -2 -72c25 0 85 40 137 145l29 -12c-55 -114 -132 -189 -252 -189c-85 0 -91 50 -63 120l96 237h-1c-68 -110 -143 -170 -215 -170c-75 0 -99 66 -49 177l42 93h-93
l11 32z" />
    <glyph glyph-name="uni0448" unicode="&#x448;" horiz-adv-x="899" 
d="M337 175l52 121h-1c-32 -58 -65 -112 -91 -152c-73 -115 -125 -157 -197 -157c-78 0 -96 72 -44 188l119 269h-93l11 32l272 53l-158 -352c-43 -95 -47 -117 -28 -117c25 0 68 57 119 135c62 92 124 208 165 298l156 26l-135 -342c-37 -95 -40 -117 -24 -117
c23 0 59 59 109 135c62 91 121 208 162 298l156 26l-156 -404c-20 -53 -23 -72 -2 -72c25 0 85 40 137 145l29 -12c-55 -114 -132 -189 -252 -189c-85 0 -92 49 -63 120l77 189h-1c-32 -58 -62 -112 -88 -152c-72 -113 -119 -157 -187 -157c-78 0 -94 71 -44 188z" />
    <glyph glyph-name="uni0449" unicode="&#x449;" horiz-adv-x="919" 
d="M337 175l52 121h-1c-32 -58 -65 -112 -91 -152c-73 -115 -125 -157 -197 -157c-78 0 -96 72 -44 188l119 269h-93l11 32l272 53l-158 -352c-43 -95 -47 -117 -28 -117c25 0 68 57 119 135c62 92 124 208 165 298l156 26l-135 -342c-37 -95 -40 -117 -24 -117
c23 0 59 59 109 135c62 91 121 208 162 298l156 26l-156 -404c-20 -53 -23 -72 -2 -72c25 0 85 40 137 145l29 -12c-3 -7 -7 -14 -11 -21c-56 -113 -21 -84 -21 -215c0 -103 -78 -136 -187 -150l3 20c39 7 56 43 56 77c0 63 18 101 46 142c-39 -27 -84 -42 -138 -42
c-85 0 -92 49 -63 120l77 189h-1c-32 -58 -62 -112 -88 -152c-72 -113 -119 -157 -187 -157c-78 0 -94 71 -44 188z" />
    <glyph glyph-name="uni044A" unicode="&#x44a;" horiz-adv-x="523" 
d="M217 -13c-105 0 -164 46 -164 124c0 111 95 190 249 272h-211l-43 -81h-32l90 200h322c-55 -62 -111 -125 -154 -190c16 5 40 11 68 11c99 0 141 -45 141 -118c0 -92 -95 -218 -266 -218zM199 90c0 -42 13 -65 38 -65c57 0 96 92 96 190c0 42 -11 68 -41 68
c-17 0 -31 -4 -40 -9c-33 -58 -53 -118 -53 -184z" />
    <glyph glyph-name="uni044B" unicode="&#x44b;" horiz-adv-x="781" 
d="M443 205c0 -92 -95 -218 -261 -218c-151 0 -188 92 -132 218l105 239h-93l11 32l272 53l-96 -213c16 4 38 7 63 7c89 0 131 -45 131 -118zM613 493l156 26l-156 -404c-20 -53 -23 -72 -2 -72c25 0 85 40 137 145l29 -12c-55 -114 -132 -189 -252 -189
c-78 0 -90 51 -58 132zM174 148c-37 -82 -27 -123 14 -123c59 0 105 87 105 190c0 42 -11 68 -41 68c-7 0 -13 -1 -18 -2z" />
    <glyph glyph-name="uni044C" unicode="&#x44c;" horiz-adv-x="483" 
d="M443 205c0 -92 -95 -218 -261 -218c-151 0 -188 92 -132 218l105 239h-93l11 32l272 53l-96 -213c16 4 38 7 63 7c89 0 131 -45 131 -118zM174 148c-37 -82 -27 -123 14 -123c59 0 105 87 105 190c0 42 -11 68 -41 68c-7 0 -13 -1 -18 -2z" />
    <glyph glyph-name="uni044D" unicode="&#x44d;" horiz-adv-x="474" 
d="M313 521c96 0 148 -54 148 -151c0 -181 -178 -383 -345 -383c-65 0 -116 29 -116 88c0 53 53 92 141 81c-26 -102 -27 -137 2 -137c50 0 121 104 146 226l-160 -27l16 38l150 25c3 18 4 37 4 55c0 83 -22 116 -69 116c-44 0 -95 -35 -140 -138l-29 11
c59 144 147 196 252 196z" />
    <glyph glyph-name="uni044E" unicode="&#x44e;" horiz-adv-x="794" 
d="M155 13l-157 -23l175 454h-93l11 32l261 53l-98 -258l67 12c58 129 182 238 314 238c95 0 146 -66 146 -145c0 -184 -167 -389 -349 -389c-95 0 -146 66 -146 145c0 37 7 76 20 113l-67 -11zM489 29c52 0 129 138 128 364c0 56 -11 86 -37 86c-55 0 -130 -138 -130 -364
c0 -56 11 -86 39 -86z" />
    <glyph glyph-name="uni044F" unicode="&#x44f;" horiz-adv-x="604" 
d="M432 519h146l-155 -404c-20 -53 -23 -72 -2 -72c25 0 85 40 137 145l29 -12c-55 -114 -132 -189 -252 -189c-78 0 -90 51 -58 132l55 142h-2l-151 -170c-66 -74 -94 -108 -143 -108c-48 0 -66 29 -66 59c0 24 12 49 32 63h140l103 111c-18 -9 -50 -22 -86 -22
c-47 0 -78 28 -78 77c0 106 140 250 260 250c38 0 62 -13 73 -47h2zM224 290c0 -19 9 -34 29 -34c57 0 101 61 122 115l5 13c31 81 4 106 -19 106c-65 0 -137 -119 -137 -200z" />
    <glyph glyph-name="uni0451" unicode="&#x451;" horiz-adv-x="481" 
d="M323 636c-39 0 -68 30 -68 69c0 40 29 69 68 69c38 0 68 -29 68 -69c0 -39 -30 -69 -68 -69zM549 636c-39 0 -68 30 -68 69c0 40 29 69 68 69c38 0 68 -29 68 -69c0 -39 -30 -69 -68 -69zM170 -13c-96 0 -157 54 -157 151c0 195 205 383 354 383c79 0 119 -45 119 -99
c0 -37 -19 -78 -51 -110l-236 -2c-15 -43 -24 -89 -24 -138c0 -83 25 -116 72 -116c53 0 103 49 151 143l30 -10c-63 -135 -142 -202 -258 -202zM372 490c-58 0 -125 -64 -164 -156h25c107 0 176 75 176 122c0 23 -13 34 -37 34z" />
    <glyph glyph-name="uni0452" unicode="&#x452;" horiz-adv-x="566" 
d="M-15 -10l199 575h-79l18 51h78l17 48l-70 59l2 6l263 73l-64 -186h90l-18 -51h-89l-42 -121l-96 -251h1c39 71 73 128 102 173c74 115 130 155 199 155c78 0 99 -74 44 -188l-150 -315c-39 -82 -53 -117 -149 -165l-230 -115l-13 27c125 81 181 127 253 277l138 289
c45 93 47 117 28 117c-25 0 -68 -57 -119 -135c-62 -93 -133 -214 -166 -302z" />
    <glyph glyph-name="uni0453" unicode="&#x453;" horiz-adv-x="504" 
d="M315 609l143 179h157l-4 -11l-267 -168h-29zM203 -13c-119 0 -183 47 -183 131s63 142 195 178l33 9c87 24 134 55 134 116c0 46 -29 64 -59 64c-13 0 -23 -2 -34 -8c-10 -5 -20 -12 -33 -23l-130 -113h-22l77 160c54 15 92 20 144 20c98 0 169 -47 169 -135
c0 -100 -76 -143 -205 -180l-42 -12c-63 -18 -106 -54 -106 -110c0 -42 35 -59 66 -59c19 0 33 4 46 10c13 7 24 17 39 30l134 124h22l-91 -178c-47 -13 -102 -24 -154 -24z" />
    <glyph glyph-name="uni0454" unicode="&#x454;" horiz-adv-x="465" 
d="M164 -13c-96 0 -148 54 -148 151c0 181 178 383 345 383c65 0 116 -29 116 -88c0 -53 -53 -92 -141 -81c26 102 27 137 -2 137c-48 0 -115 -96 -143 -212l158 27l-19 -48l-148 -25c-3 -20 -4 -39 -4 -59c0 -83 22 -116 69 -116c44 0 95 35 140 138l29 -11
c-59 -144 -147 -196 -252 -196z" />
    <glyph glyph-name="uni0455" unicode="&#x455;" horiz-adv-x="412" 
d="M114 -13c-72 0 -126 43 -126 92c0 54 46 81 97 79c34 -115 42 -134 61 -134c41 0 83 31 83 62c0 27 -23 59 -58 102l-33 41c-33 41 -49 80 -49 119c0 100 119 173 222 173c68 0 112 -30 112 -79c0 -37 -31 -85 -92 -77c-34 102 -36 121 -56 121c-33 0 -78 -24 -78 -55
c0 -21 16 -51 54 -98l36 -45c33 -42 47 -69 47 -116c0 -115 -119 -185 -220 -185z" />
    <glyph glyph-name="uni0456" unicode="&#x456;" horiz-adv-x="361" 
d="M240 710c0 49 44 93 93 93c50 0 94 -44 94 -93c0 -50 -44 -94 -94 -94c-49 0 -93 44 -93 94zM104 -13c-85 0 -90 49 -63 120l130 337h-93l11 32l262 53l-159 -414c-20 -53 -23 -72 -2 -72c25 0 85 40 137 145l29 -12c-55 -114 -132 -189 -252 -189z" />
    <glyph glyph-name="uni0457" unicode="&#x457;" horiz-adv-x="345" 
d="M130 710c0 49 29 93 83 93c55 0 84 -44 84 -93c0 -50 -29 -94 -84 -94c-54 0 -83 44 -83 94zM310 710c0 49 29 93 83 93c55 0 84 -44 84 -93c0 -50 -29 -94 -84 -94c-54 0 -83 44 -83 94zM102 -13c-85 0 -90 49 -63 120l130 337h-93l11 32l262 53l-159 -414
c-20 -53 -23 -72 -2 -72c25 0 85 40 137 145l29 -12c-55 -114 -132 -189 -252 -189z" />
    <glyph glyph-name="uni0458" unicode="&#x458;" horiz-adv-x="320" 
d="M253 710c0 49 44 93 93 93c50 0 94 -44 94 -93c0 -50 -44 -94 -94 -94c-49 0 -93 44 -93 94zM-227 -262l-13 27c125 81 191 124 253 277l163 402h-93l11 32l264 53l-207 -511c-34 -84 -52 -117 -148 -165z" />
    <glyph glyph-name="uni0459" unicode="&#x459;" horiz-adv-x="744" 
d="M317 437c-63 -159 -112 -267 -155 -338c-51 -82 -95 -112 -147 -112c-33 0 -55 21 -55 53c0 14 4 31 14 48l150 25c58 88 109 215 151 324h-97l26 65h367l-73 -189c17 5 43 10 75 10c89 0 131 -45 131 -118c0 -92 -95 -218 -261 -218c-151 0 -181 89 -132 218l89 232h-83
zM435 148c-32 -84 -27 -123 14 -123c59 0 105 87 105 190c0 42 -11 68 -41 68c-10 0 -20 -2 -28 -4z" />
    <glyph glyph-name="uni045A" unicode="&#x45a;" horiz-adv-x="775" 
d="M155 13l-157 -23l175 454h-93l11 32l261 53l-98 -258l121 21l78 201l156 26l-80 -206c17 5 43 10 75 10c89 0 131 -45 131 -118c0 -92 -95 -218 -261 -218c-151 0 -182 89 -132 218l19 50l-122 -21zM466 148c-32 -84 -27 -123 14 -123c59 0 105 87 105 190
c0 42 -11 68 -41 68c-10 0 -20 -2 -28 -4z" />
    <glyph glyph-name="uni045B" unicode="&#x45b;" horiz-adv-x="616" 
d="M203 193h1c39 71 73 128 102 173c74 115 130 155 199 155c78 0 99 -74 44 -188l-105 -218c-24 -51 -23 -72 -2 -72c25 0 85 40 137 145l29 -12c-55 -114 -132 -189 -252 -189c-85 0 -99 51 -66 120l108 224c45 93 47 117 28 117c-25 0 -68 -57 -119 -135
c-62 -92 -132 -213 -165 -300l-157 -23l199 575h-79l18 51h78l17 48l-70 59l2 6l263 73l-64 -186h90l-18 -51h-89l-42 -121z" />
    <glyph glyph-name="uni045C" unicode="&#x45c;" horiz-adv-x="616" 
d="M402 609l143 179h157l-4 -11l-267 -168h-29zM155 13l-157 -23l175 454h-93l11 32l261 53zM430 -28c-91 0 -122 53 -145 125l-42 132l123 144c102 120 157 148 204 148c41 0 64 -32 64 -68c0 -53 -42 -101 -104 -105c-18 73 -25 100 -41 100c-17 0 -48 -38 -92 -90
l-24 -28l69 -245c17 -61 33 -65 47 -65c17 0 48 14 79 110l29 -9c-39 -121 -87 -149 -167 -149z" />
    <glyph glyph-name="uni045E" unicode="&#x45e;" horiz-adv-x="568" 
d="M419 628c-129 0 -165 76 -139 160h113c-33 -107 -1 -126 28 -126c30 0 73 19 106 126h113c-29 -94 -106 -160 -221 -160zM-89 -261c-45 0 -73 27 -73 66c0 24 14 56 38 66c33 -17 60 -28 97 -28c41 0 90 16 167 109l2 485l-83 -5l-1 31l232 66l-6 -377l119 171
c95 136 132 198 190 198c39 0 56 -24 56 -54c0 -34 -17 -55 -33 -65c-94 -24 -136 -35 -159 -69l-225 -323c-84 -120 -223 -271 -321 -271z" />
    <glyph glyph-name="uni045F" unicode="&#x45f;" horiz-adv-x="631" 
d="M365 529l-158 -352c-43 -95 -47 -117 -28 -117c25 0 68 57 119 135c62 92 124 208 165 298l156 26l-156 -404c-20 -53 -23 -72 -2 -72c25 0 85 40 137 145l29 -12c-55 -114 -132 -189 -252 -189c-85 0 -92 49 -63 120l77 189h-1c-32 -58 -65 -112 -91 -152
c-73 -115 -125 -157 -197 -157c-78 0 -96 72 -44 188l119 269h-93l11 32zM240 0h30c-26 -55 -39 -88 -39 -137c0 -35 15 -51 42 -53l-4 -20c-90 0 -143 14 -143 71c0 62 46 87 114 139z" />
    <glyph glyph-name="uni0462" unicode="&#x462;" horiz-adv-x="825" 
d="M430 363h87c199 0 303 -48 303 -153c0 -119 -169 -210 -414 -210h-336l11 36l46 4c36 3 47 10 59 49l153 498h-67c-21 0 -25 -2 -43 -18l-177 -162h-22l89 221h232l13 41c12 39 5 46 -29 49l-44 4l11 36h338l-11 -36l-46 -4c-36 -3 -47 -10 -59 -49l-13 -41h232l-45 -221
h-22l-79 162c-8 16 -10 18 -31 18h-67zM333 46h55c161 0 253 64 253 160c0 81 -54 111 -158 111h-67z" />
    <glyph glyph-name="uni0463" unicode="&#x463;" horiz-adv-x="784" 
d="M155 13l-157 -23l175 454h-93l11 32l261 53l-136 -336h1c39 71 73 128 102 173c74 115 130 155 199 155c78 0 97 -73 44 -188l-8 -16c16 3 36 6 59 6c89 0 131 -45 131 -118c0 -92 -95 -218 -261 -218c-151 0 -191 94 -132 218l60 126c43 94 47 117 28 117
c-25 0 -68 -57 -119 -135c-62 -92 -132 -213 -165 -300zM475 148c-38 -81 -27 -123 14 -123c59 0 105 87 105 190c0 42 -11 68 -41 68c-5 0 -10 0 -15 -1z" />
    <glyph glyph-name="uni0472" unicode="&#x472;" horiz-adv-x="882" 
d="M370 -13c-170 0 -306 98 -306 279c0 223 218 513 532 513c170 0 305 -98 305 -279c0 -223 -217 -513 -531 -513zM566 737c-134 0 -264 -139 -304 -339c295 111 335 -24 446 -8c5 33 8 68 8 104c0 138 -35 243 -150 243zM400 29c130 0 257 131 300 322
c-265 -92 -274 63 -444 9c-4 -28 -6 -58 -6 -88c0 -138 35 -243 150 -243z" />
    <glyph glyph-name="uni0473" unicode="&#x473;" horiz-adv-x="524" 
d="M162 -13c-95 0 -146 66 -146 145c0 182 167 389 349 389c95 0 146 -66 146 -145c0 -184 -167 -389 -349 -389zM310 479c-42 0 -95 -80 -118 -217c102 86 115 -2 146 -1c6 40 9 84 9 132c0 56 -11 86 -37 86zM219 29c38 0 90 74 114 202c-88 -74 -102 19 -145 10
c-5 -38 -8 -80 -8 -126c0 -56 11 -86 39 -86z" />
    <glyph glyph-name="uni0474" unicode="&#x474;" horiz-adv-x="895" 
d="M122 -30h-20l145 699c8 39 -5 45 -39 49l-34 4l11 36h338l-11 -36l-36 -4c-36 -4 -60 -10 -69 -49l-103 -466l515 470c74 68 118 106 168 106c39 0 59 -20 59 -45c0 -58 -59 -118 -207 -113z" />
    <glyph glyph-name="uni0475" unicode="&#x475;" horiz-adv-x="591" 
d="M458 417c51 69 97 104 150 104c36 0 54 -18 54 -42c0 -55 -72 -122 -202 -125l-279 -366h-40l1 448l-83 -4l-1 31l232 66l-12 -357z" />
    <glyph glyph-name="uni0490" unicode="&#x490;" horiz-adv-x="660" 
d="M784 712h-347l-191 -623c-12 -39 -5 -45 30 -47l79 -4l-12 -38h-373l11 36l46 4c36 3 47 10 59 49l178 580c11 39 5 46 -29 49l-44 4l11 36h446c15 0 21 3 29 12l161 167h22z" />
    <glyph glyph-name="uni0491" unicode="&#x491;" horiz-adv-x="471" 
d="M506 461h-179l-177 -461h-148l164 428c14 36 9 37 -24 40l-27 2l13 32h271c12 0 17 3 26 13l143 144h22z" />
    <glyph glyph-name="uni0492" unicode="&#x492;" horiz-adv-x="723" 
d="M-30 0l11 36l36 4c36 4 57 10 69 49l82 266h-95l18 59h95l78 255c12 39 -6 45 -39 49l-34 4l11 36h618l-46 -271h-22l-70 207c-5 16 -10 18 -31 18h-214l-91 -298h138l-18 -59h-138l-82 -266c-12 -39 5 -45 40 -47l69 -4l-12 -38h-373z" />
    <glyph glyph-name="uni0493" unicode="&#x493;" horiz-adv-x="524" 
d="M213 -13c-111 0 -183 36 -183 122c0 49 29 92 77 125h-93l20 51h187l4 1l17 5c104 28 136 63 136 146c0 30 -15 48 -45 48c-13 0 -23 -2 -34 -8c-10 -5 -20 -12 -33 -23l-130 -113h-22l77 160c54 15 92 20 144 20c102 0 169 -38 169 -126c0 -46 -19 -82 -54 -110h85
l-20 -51h-160c-18 -6 -36 -12 -56 -18l-28 -8c-77 -22 -106 -67 -106 -123c0 -40 21 -60 52 -60c19 0 33 4 46 10c13 7 24 17 39 30l134 124h22l-91 -178c-47 -13 -102 -24 -154 -24z" />
    <glyph glyph-name="uni0496" unicode="&#x496;" horiz-adv-x="1232" 
d="M161 0h-211l508 458l-138 225c-15 25 -34 33 -84 36l-50 3l11 36h288l-11 -36l-64 -4c-31 -2 -39 -15 -31 -30l191 -313l90 294c11 39 5 46 -29 49l-44 4l11 36h338l-11 -36l-46 -4c-36 -3 -48 -10 -59 -49l-90 -294l381 313c18 15 18 28 -11 30l-62 4l11 36h288l-11 -36
l-52 -3c-45 -3 -67 -13 -96 -36l-297 -244l196 -393h106l-61 -225h-22l-59 167c-3 9 -7 12 -22 12h-110l-182 366l-85 -277c-12 -39 -5 -46 29 -49l44 -4l-11 -36h-338l11 36l46 4c36 3 47 10 59 49l85 278z" />
    <glyph glyph-name="uni0497" unicode="&#x497;" horiz-adv-x="1060" 
d="M517 11l-160 -24l92 240l-95 -15c-71 -127 -194 -225 -280 -225c-47 0 -88 26 -88 87c0 64 64 95 141 83c-20 -64 -14 -100 15 -100c52 0 102 138 112 262c9 90 -7 118 -34 118c-28 0 -67 -34 -104 -121l-29 11c44 113 122 196 226 196c73 0 104 -53 96 -144
c-4 -42 -16 -83 -33 -123l90 14l87 229l160 24l-87 -226l100 16c72 119 188 210 271 210c47 0 88 -26 88 -87c0 -64 -64 -95 -141 -83c20 64 14 100 -15 100c-52 0 -102 -138 -112 -262c-9 -90 7 -118 34 -118c28 0 67 34 104 121l29 -11c-3 -8 -6 -15 -9 -23
c-46 -110 -22 -85 -22 -220c0 -103 -78 -136 -187 -150l3 20c39 7 56 43 56 77c0 56 13 93 35 130c-31 -19 -65 -30 -102 -30c-73 0 -104 53 -96 144c4 47 19 93 40 138l-92 -15z" />
    <glyph glyph-name="uni049A" unicode="&#x49a;" horiz-adv-x="911" 
d="M-30 0l11 36l36 4c36 4 57 10 69 49l178 580c12 39 -6 45 -39 49l-34 4l11 36h338l-11 -36l-36 -4c-37 -4 -57 -10 -69 -49l-91 -295l433 314c19 14 19 28 -10 30l-72 4l11 36h306l-11 -36l-52 -3c-44 -3 -69 -14 -100 -36l-354 -256l286 -381h91l-61 -225h-22l-59 167
c-3 9 -7 12 -22 12h-87l-279 366l-85 -277c-12 -39 5 -45 39 -49l34 -4l-11 -36h-338z" />
    <glyph glyph-name="uni049B" unicode="&#x49b;" horiz-adv-x="644" 
d="M155 13l-157 -23l175 454h-93l11 32l261 53zM430 -28c-91 0 -122 53 -145 125l-42 132l123 144c102 120 157 148 204 148c41 0 64 -32 64 -68c0 -53 -42 -101 -104 -105c-18 73 -25 100 -41 100c-17 0 -48 -38 -92 -90l-24 -28l69 -245c17 -61 33 -65 47 -65
c17 0 48 14 79 110l29 -9c-3 -9 -6 -17 -9 -25c-18 -58 2 -52 2 -156c0 -103 -78 -136 -187 -150l3 20c39 7 56 43 56 77c0 39 9 67 24 92c-17 -5 -35 -7 -56 -7z" />
    <glyph glyph-name="uni04A2" unicode="&#x4a2;" horiz-adv-x="928" 
d="M714 46h104l-61 -225h-22l-59 167c-3 9 -7 12 -22 12h-203l11 36l46 4c36 3 47 10 59 49l85 279h-321l-85 -279c-12 -39 -5 -46 29 -49l44 -4l-11 -36h-338l11 36l46 4c36 3 47 10 59 49l177 580c12 39 5 46 -29 49l-44 4l11 36h338l-11 -36l-46 -4
c-36 -3 -47 -10 -59 -49l-74 -242h321l74 242c12 39 5 46 -29 49l-44 4l11 36h338l-11 -36l-46 -4c-36 -3 -47 -10 -59 -49z" />
    <glyph glyph-name="uni04A3" unicode="&#x4a3;" horiz-adv-x="651" 
d="M155 13l-157 -23l175 454h-93l11 32l261 53l-98 -258l131 23l78 199l156 26l-156 -404c-20 -53 -23 -72 -2 -72c25 0 85 40 137 145l29 -12c-3 -7 -7 -14 -11 -21c-56 -113 -21 -84 -21 -215c0 -103 -78 -136 -187 -150l3 20c39 7 56 43 56 77c0 63 18 101 46 142
c-39 -27 -84 -42 -138 -42c-78 0 -90 51 -58 132l54 137l-132 -22z" />
    <glyph glyph-name="uni04AE" unicode="&#x4ae;" horiz-adv-x="784" 
d="M122 0l12 38l61 4c35 2 56 8 68 47l78 253l-119 331c-12 33 -17 41 -50 45l-32 4l11 36h339l-11 -36l-44 -4c-36 -3 -59 -13 -48 -45l94 -272l265 272c32 33 27 43 -7 45l-62 4l11 36h270l-11 -36l-34 -4c-37 -4 -59 -12 -91 -45l-322 -332l-77 -252
c-12 -39 5 -45 40 -47l59 -4l-12 -38h-388z" />
    <glyph glyph-name="uni04AF" unicode="&#x4af;" horiz-adv-x="562" 
d="M165 -248h-148l91 235l34 450l-83 -5l-1 31l232 66l-40 -472l153 266c81 141 132 198 190 198c39 0 56 -24 56 -54c0 -34 -17 -55 -33 -65c-94 -24 -141 -34 -178 -98l-183 -318z" />
    <glyph glyph-name="uni04B0" unicode="&#x4b0;" horiz-adv-x="784" 
d="M122 0l12 38l61 4c35 2 56 8 68 47l60 194h-146l18 59h146l-119 331c-12 33 -17 41 -50 45l-32 4l11 36h339l-11 -36l-44 -4c-36 -3 -59 -13 -48 -45l94 -272l265 272c32 33 27 43 -7 45l-62 4l11 36h270l-11 -36l-34 -4c-37 -4 -59 -12 -91 -45l-321 -331h149l-18 -59
h-150l-59 -194c-12 -39 5 -45 40 -47l59 -4l-12 -38h-388z" />
    <glyph glyph-name="uni04B1" unicode="&#x4b1;" horiz-adv-x="562" 
d="M-20 -51l20 51h109l33 437l-83 -5l-1 31l232 66l-40 -472l153 266c81 141 132 198 190 198c39 0 56 -24 56 -54c0 -34 -17 -55 -33 -65c-94 -24 -141 -34 -178 -98l-175 -304h108l-20 -51h-110l-76 -197h-148l76 197h-113z" />
    <glyph glyph-name="uni04B2" unicode="&#x4b2;" horiz-adv-x="843" 
d="M-109 0l16 36l34 4c37 4 70 16 107 45l354 283l-79 305c-7 31 -21 41 -53 45l-32 4l16 36h337l-16 -36l-44 -4c-37 -3 -53 -14 -45 -45l51 -197l248 197c38 30 42 42 9 45l-42 4l16 36h257l-16 -36l-34 -4c-38 -4 -70 -16 -107 -45l-316 -252l97 -375h110l-61 -225h-22
l-59 167c-3 9 -7 12 -22 12h-224l16 36l44 4c37 3 52 14 45 45l-59 228l-286 -228c-38 -30 -42 -42 -9 -45l42 -4l-16 -36h-257z" />
    <glyph glyph-name="uni04B3" unicode="&#x4b3;" horiz-adv-x="632" 
d="M30 -13c-41 0 -64 32 -64 68c0 53 42 101 104 105c18 -73 25 -100 41 -100c22 0 76 64 134 148l-19 171c-5 44 -10 80 -34 80c-32 0 -78 -50 -122 -114l-24 18c61 89 121 158 214 158c51 0 103 -12 117 -134l5 -47c107 156 177 181 228 181c41 0 64 -32 64 -68
c0 -53 -42 -101 -104 -105c-18 73 -25 100 -41 100c-23 0 -80 -69 -141 -158l18 -161c5 -44 10 -80 34 -80c32 0 78 50 122 114l24 -18h2c-48 -108 -17 -77 -17 -205c0 -103 -78 -136 -187 -150l3 20c39 7 56 43 56 77c0 70 23 107 57 153c-37 -33 -78 -53 -128 -53
c-51 0 -103 12 -117 134l-4 37c-103 -147 -171 -171 -221 -171z" />
    <glyph glyph-name="uni04B6" unicode="&#x4b6;" horiz-adv-x="909" 
d="M431 0l11 36l46 4c36 3 47 10 59 49l73 238c-77 -16 -141 -19 -177 -19c-202 0 -284 79 -227 268l28 93c11 39 5 46 -29 49l-44 4l11 36h338l-11 -36l-46 -4c-36 -3 -48 -10 -59 -49l-33 -107c-47 -153 3 -194 128 -194c47 0 90 5 139 18l87 283c11 39 5 46 -29 49l-44 4
l11 36h338l-11 -36l-46 -4c-36 -3 -47 -10 -59 -49l-191 -623h104l-61 -225h-22l-59 167c-3 9 -7 12 -22 12h-203z" />
    <glyph glyph-name="uni04B7" unicode="&#x4b7;" horiz-adv-x="641" 
d="M365 529l-85 -185c-35 -76 -38 -97 -19 -97c37 0 147 148 192 246l156 26l-156 -404c-20 -53 -23 -72 -2 -72c25 0 85 40 137 145l29 -12c-3 -7 -7 -14 -11 -21c-56 -113 -21 -84 -21 -215c0 -103 -78 -136 -187 -150l3 20c39 7 56 43 56 77c0 63 18 101 46 142
c-39 -27 -84 -42 -138 -42c-85 0 -91 50 -63 120l96 237h-1c-68 -110 -143 -170 -215 -170c-75 0 -99 66 -49 177l42 93h-93l11 32z" />
    <glyph glyph-name="uni04BA" unicode="&#x4ba;" horiz-adv-x="890" 
d="M755 182l-28 -93c-11 -39 -5 -46 29 -49l44 -4l-11 -36h-338l11 36l46 4c36 3 48 10 59 49l33 107c47 153 -3 194 -128 194c-47 0 -90 -5 -139 -18l-87 -283c-11 -39 -5 -46 29 -49l44 -4l-11 -36h-338l11 36l46 4c36 3 48 10 59 49l178 580c12 39 5 46 -29 49l-44 4
l11 36h338l-11 -36l-46 -4c-36 -3 -47 -10 -59 -49l-73 -238c77 16 141 19 177 19c202 0 284 -79 227 -268z" />
    <glyph glyph-name="uni04BB" unicode="&#x4bb;" horiz-adv-x="616" 
d="M203 193h1c39 71 73 128 102 173c74 115 130 155 199 155c78 0 99 -74 44 -188l-105 -218c-24 -51 -23 -72 -2 -72c25 0 85 40 137 145l29 -12c-55 -114 -132 -189 -252 -189c-85 0 -99 51 -66 120l108 224c45 93 47 117 28 117c-25 0 -68 -57 -119 -135
c-62 -92 -132 -213 -165 -300l-157 -23l233 674l-70 59l2 6l263 73l-123 -358z" />
    <glyph glyph-name="uni04C0" unicode="&#x4c0;" horiz-adv-x="430" 
d="M-30 0l11 36l36 4c36 4 57 10 69 49l178 580c12 39 -6 45 -39 49l-34 4l11 36h338l-11 -36l-36 -4c-37 -4 -57 -10 -69 -49l-178 -580c-12 -39 5 -45 39 -49l34 -4l-11 -36h-338z" />
    <glyph glyph-name="uni04CF" unicode="&#x4cf;" horiz-adv-x="332" 
d="M40 74l215 610c13 36 9 37 -25 40l-26 2l12 32h282l-12 -32l-28 -2c-36 -3 -42 -4 -55 -40l-215 -610c-13 -36 -9 -37 25 -40l26 -2l-12 -32h-282l12 32l28 2c36 3 42 4 55 40z" />
    <glyph glyph-name="uni04D8" unicode="&#x4d8;" horiz-adv-x="808" 
d="M367 -12c-216 0 -311 138 -282 318h570c7 34 11 69 11 107c0 181 -105 264 -250 264c-137 0 -233 -87 -287 -228h-34c60 234 234 331 399 331c194 0 331 -117 331 -308c0 -236 -193 -484 -458 -484zM385 30c104 0 204 84 252 213h-394c-21 -140 22 -213 142 -213z" />
    <glyph glyph-name="uni04D9" unicode="&#x4d9;" horiz-adv-x="502" 
d="M334 522c96 0 157 -54 157 -151c0 -195 -205 -383 -354 -383c-79 0 -119 45 -119 99c0 37 19 78 51 110l236 2c15 43 24 89 24 138c0 83 -25 116 -72 116c-53 0 -103 -49 -151 -143l-30 10c63 135 142 202 258 202zM132 19c58 0 125 64 164 156h-25
c-107 0 -176 -75 -176 -122c0 -23 13 -34 37 -34z" />
    <glyph glyph-name="uni04E2" unicode="&#x4e2;" horiz-adv-x="921" 
d="M486 872l23 68h285l-23 -68h-285zM-30 0l11 36l46 4c36 3 47 10 59 49l178 580c11 39 5 46 -29 49l-44 4l11 36h338l-11 -36l-46 -4c-36 -3 -47 -10 -59 -49l-140 -457l464 435l7 22c11 39 5 46 -29 49l-44 4l11 36h338l-11 -36l-46 -4c-36 -3 -48 -10 -59 -49l-178 -580
c-12 -39 -5 -46 29 -49l44 -4l-11 -36h-338l11 36l46 4c36 3 47 10 59 49l142 464l-464 -435l-9 -29c-12 -39 -5 -46 29 -49l44 -4l-11 -36h-338z" />
    <glyph glyph-name="uni04E3" unicode="&#x4e3;" horiz-adv-x="631" 
d="M303 669l23 68h285l-23 -68h-285zM365 529l-158 -352c-43 -95 -47 -117 -28 -117c25 0 68 57 119 135c62 92 124 208 165 298l156 26l-156 -404c-20 -53 -23 -72 -2 -72c25 0 85 40 137 145l29 -12c-55 -114 -132 -189 -252 -189c-85 0 -92 49 -63 120l77 189h-1
c-32 -58 -65 -112 -91 -152c-73 -115 -125 -157 -197 -157c-78 0 -96 72 -44 188l119 269h-93l11 32z" />
    <glyph glyph-name="uni04E8" unicode="&#x4e8;" horiz-adv-x="882" 
d="M370 -13c-170 0 -306 98 -306 279c0 223 218 513 532 513c170 0 305 -98 305 -279c0 -223 -217 -513 -531 -513zM566 737c-130 0 -256 -130 -300 -319h446c3 25 4 50 4 76c0 138 -35 243 -150 243zM400 29c132 0 260 135 302 330h-446c-4 -28 -6 -57 -6 -87
c0 -138 35 -243 150 -243z" />
    <glyph glyph-name="uni04E9" unicode="&#x4e9;" horiz-adv-x="524" 
d="M162 -13c-95 0 -146 66 -146 145c0 182 167 389 349 389c95 0 146 -66 146 -145c0 -184 -167 -389 -349 -389zM310 479c-41 0 -94 -78 -118 -213l148 13c5 35 7 73 7 114c0 56 -11 86 -37 86zM219 29c39 0 92 77 115 210l-147 -13c-5 -34 -7 -71 -7 -111
c0 -56 11 -86 39 -86z" />
    <glyph glyph-name="uni04EE" unicode="&#x4ee;" horiz-adv-x="784" 
d="M446 872l23 68h285l-23 -68h-285zM327 84c-57 -69 -100 -96 -151 -96c-38 0 -53 18 -53 47c0 73 82 111 194 111l36 43l-128 484c-9 34 -16 41 -50 45l-32 4l11 36h335l-11 -36l-44 -4c-36 -3 -56 -11 -48 -45l88 -335l276 335c29 34 14 42 -20 45l-42 4l11 36h242
l-11 -36l-34 -4c-48 -6 -58 -14 -84 -46z" />
    <glyph glyph-name="uni04EF" unicode="&#x4ef;" horiz-adv-x="568" 
d="M283 669l23 68h285l-23 -68h-285zM-89 -261c-45 0 -73 27 -73 66c0 24 14 56 38 66c33 -17 60 -28 97 -28c41 0 90 16 167 109l2 485l-83 -5l-1 31l232 66l-6 -377l119 171c95 136 132 198 190 198c39 0 56 -24 56 -54c0 -34 -17 -55 -33 -65c-94 -24 -136 -35 -159 -69
l-225 -323c-84 -120 -223 -271 -321 -271z" />
    <glyph glyph-name="Wgrave" unicode="&#x1e80;" horiz-adv-x="1267" 
d="M894 843h-27l-183 126l1 3h163zM100 -30l145 699c8 39 -5 45 -39 49l-34 4l11 36h338l-11 -36l-36 -4c-36 -4 -60 -10 -69 -49l-103 -466l366 334l46 221h277l-11 -36l-56 -4c-36 -3 -60 -10 -69 -49l-103 -466l515 470c30 28 38 43 4 45l-62 4l11 36h273l-11 -36l-34 -4
c-36 -4 -71 -14 -105 -45l-773 -703h-20l100 482l-530 -482h-20z" />
    <glyph glyph-name="wgrave" unicode="&#x1e81;" horiz-adv-x="787" 
d="M580 609h-25l-159 168l4 11h132zM154 -13c-60 0 -88 36 -88 98c0 101 87 202 198 298h-183l-43 -81h-32l90 200h292c-88 -100 -191 -197 -191 -295c0 -54 25 -84 70 -84c26 0 49 4 74 16c-3 18 -5 38 -5 59c0 144 96 323 190 323c35 0 54 -23 54 -61
c0 -58 -27 -162 -119 -265l-30 -33c29 -26 68 -39 109 -39c75 0 155 51 184 181l-100 124c-10 55 24 93 70 93c37 0 72 -22 72 -100c0 -170 -94 -434 -280 -434c-64 0 -108 41 -131 101c-67 -58 -138 -101 -201 -101zM381 285c0 -40 11 -72 28 -98c7 6 13 12 20 19
c69 69 86 111 86 146c0 30 -20 49 -50 49c-41 0 -84 -36 -84 -116z" />
    <glyph glyph-name="Wacute" unicode="&#x1e82;" horiz-adv-x="1267" 
d="M848 843l122 129h181l-1 -3l-270 -126h-32zM100 -30l145 699c8 39 -5 45 -39 49l-34 4l11 36h338l-11 -36l-36 -4c-36 -4 -60 -10 -69 -49l-103 -466l366 334l46 221h277l-11 -36l-56 -4c-36 -3 -60 -10 -69 -49l-103 -466l515 470c30 28 38 43 4 45l-62 4l11 36h273
l-11 -36l-34 -4c-36 -4 -71 -14 -105 -45l-773 -703h-20l100 482l-530 -482h-20z" />
    <glyph glyph-name="wacute" unicode="&#x1e83;" horiz-adv-x="787" 
d="M511 609l143 179h157l-4 -11l-267 -168h-29zM154 -13c-60 0 -88 36 -88 98c0 101 87 202 198 298h-183l-43 -81h-32l90 200h292c-88 -100 -191 -197 -191 -295c0 -54 25 -84 70 -84c26 0 49 4 74 16c-3 18 -5 38 -5 59c0 144 96 323 190 323c35 0 54 -23 54 -61
c0 -58 -27 -162 -119 -265l-30 -33c29 -26 68 -39 109 -39c75 0 155 51 184 181l-100 124c-10 55 24 93 70 93c37 0 72 -22 72 -100c0 -170 -94 -434 -280 -434c-64 0 -108 41 -131 101c-67 -58 -138 -101 -201 -101zM381 285c0 -40 11 -72 28 -98c7 6 13 12 20 19
c69 69 86 111 86 146c0 30 -20 49 -50 49c-41 0 -84 -36 -84 -116z" />
    <glyph glyph-name="Wdieresis" unicode="&#x1e84;" horiz-adv-x="1267" 
d="M1000 837c-40 0 -70 31 -70 71c0 41 30 71 70 71c39 0 70 -30 70 -71c0 -40 -31 -71 -70 -71zM774 837c-40 0 -70 31 -70 71c0 41 30 71 70 71c39 0 70 -30 70 -71c0 -40 -31 -71 -70 -71zM100 -30l145 699c8 39 -5 45 -39 49l-34 4l11 36h338l-11 -36l-36 -4
c-36 -4 -60 -10 -69 -49l-103 -466l366 334l46 221h277l-11 -36l-56 -4c-36 -3 -60 -10 -69 -49l-103 -466l515 470c30 28 38 43 4 45l-62 4l11 36h273l-11 -36l-34 -4c-36 -4 -71 -14 -105 -45l-773 -703h-20l100 482l-530 -482h-20z" />
    <glyph glyph-name="wdieresis" unicode="&#x1e85;" horiz-adv-x="787" 
d="M471 636c-39 0 -68 30 -68 69c0 40 29 69 68 69c38 0 68 -29 68 -69c0 -39 -30 -69 -68 -69zM697 636c-39 0 -68 30 -68 69c0 40 29 69 68 69c38 0 68 -29 68 -69c0 -39 -30 -69 -68 -69zM154 -13c-60 0 -88 36 -88 98c0 101 87 202 198 298h-183l-43 -81h-32l90 200h292
c-88 -100 -191 -197 -191 -295c0 -54 25 -84 70 -84c26 0 49 4 74 16c-3 18 -5 38 -5 59c0 144 96 323 190 323c35 0 54 -23 54 -61c0 -58 -27 -162 -119 -265l-30 -33c29 -26 68 -39 109 -39c75 0 155 51 184 181l-100 124c-10 55 24 93 70 93c37 0 72 -22 72 -100
c0 -170 -94 -434 -280 -434c-64 0 -108 41 -131 101c-67 -58 -138 -101 -201 -101zM381 285c0 -40 11 -72 28 -98c7 6 13 12 20 19c69 69 86 111 86 146c0 30 -20 49 -50 49c-41 0 -84 -36 -84 -116z" />
    <glyph glyph-name="uni1ECA" unicode="&#x1eca;" horiz-adv-x="426" 
d="M-32 0l11 36l36 4c36 4 57 10 69 49l178 580c12 39 -6 45 -39 49l-34 4l11 36h338l-11 -36l-36 -4c-37 -4 -57 -10 -69 -49l-178 -580c-12 -39 5 -45 39 -49l34 -4l-11 -36h-338zM79 -242c-40 0 -70 31 -70 71c0 41 30 71 70 71c39 0 70 -30 70 -71
c0 -40 -31 -71 -70 -71z" />
    <glyph glyph-name="uni1ECB" unicode="&#x1ecb;" horiz-adv-x="357" 
d="M238 710c0 49 44 93 93 93c50 0 94 -44 94 -93c0 -50 -44 -94 -94 -94c-49 0 -93 44 -93 94zM102 -13c-85 0 -90 49 -63 120l130 337h-93l11 32l262 53l-159 -414c-20 -53 -23 -72 -2 -72c25 0 85 40 137 145l29 -12c-55 -114 -132 -189 -252 -189zM15 -237
c-39 0 -68 30 -68 69c0 40 29 69 68 69c38 0 68 -29 68 -69c0 -39 -30 -69 -68 -69z" />
    <glyph glyph-name="uni1ECC" unicode="&#x1ecc;" horiz-adv-x="878" 
d="M368 -13c-170 0 -306 98 -306 279c0 223 218 513 532 513c170 0 305 -98 305 -279c0 -223 -217 -513 -531 -513zM398 29c161 0 316 200 316 465c0 138 -35 243 -150 243c-161 0 -316 -200 -316 -465c0 -138 35 -243 150 -243zM314 -242c-40 0 -70 31 -70 71
c0 41 30 71 70 71c39 0 70 -30 70 -71c0 -40 -31 -71 -70 -71z" />
    <glyph glyph-name="uni1ECD" unicode="&#x1ecd;" horiz-adv-x="520" 
d="M160 -13c-95 0 -146 66 -146 145c0 182 167 389 349 389c95 0 146 -66 146 -145c0 -184 -167 -389 -349 -389zM217 29c52 0 129 138 128 364c0 56 -11 86 -37 86c-55 0 -130 -138 -130 -364c0 -56 11 -86 39 -86zM117 -237c-39 0 -68 30 -68 69c0 40 29 69 68 69
c38 0 68 -29 68 -69c0 -39 -30 -69 -68 -69z" />
    <glyph glyph-name="uni1EE4" unicode="&#x1ee4;" horiz-adv-x="861" 
d="M391 -13c-204 0 -330 93 -259 323l110 359c12 39 -6 45 -39 49l-34 4l11 36h338l-11 -36l-36 -4c-37 -4 -57 -10 -69 -49l-116 -377c-54 -176 13 -232 144 -232c137 0 228 73 281 246l111 363c12 39 -6 46 -39 49l-44 4l11 36h244l-11 -36l-36 -4c-37 -4 -57 -10 -69 -49
l-115 -373c-62 -201 -173 -309 -372 -309zM325 -242c-40 0 -70 31 -70 71c0 41 30 71 70 71c39 0 70 -30 70 -71c0 -40 -31 -71 -70 -71z" />
    <glyph glyph-name="uni1EE5" unicode="&#x1ee5;" horiz-adv-x="627" 
d="M363 529l-158 -352c-43 -95 -47 -117 -28 -117c25 0 68 57 119 135c62 92 124 208 165 298l156 26l-156 -404c-20 -53 -23 -72 -2 -72c25 0 85 40 137 145l29 -12c-55 -114 -132 -189 -252 -189c-85 0 -92 49 -63 120l77 189h-1c-32 -58 -65 -112 -91 -152
c-73 -115 -125 -157 -197 -157c-78 0 -96 72 -44 188l119 269h-93l11 32zM150 -237c-39 0 -68 30 -68 69c0 40 29 69 68 69c38 0 68 -29 68 -69c0 -39 -30 -69 -68 -69z" />
    <glyph glyph-name="Ygrave" unicode="&#x1ef2;" horiz-adv-x="780" 
d="M629 843h-27l-183 126l1 3h163zM120 0l12 38l61 4c35 2 56 8 68 47l78 253l-119 331c-12 33 -17 41 -50 45l-32 4l11 36h339l-11 -36l-44 -4c-36 -3 -59 -13 -48 -45l94 -272l265 272c32 33 27 43 -7 45l-62 4l11 36h270l-11 -36l-34 -4c-37 -4 -59 -12 -91 -45
l-322 -332l-77 -252c-12 -39 5 -45 40 -47l59 -4l-12 -38h-388z" />
    <glyph glyph-name="ygrave" unicode="&#x1ef3;" horiz-adv-x="564" 
d="M466 609h-25l-159 168l4 11h132zM-91 -261c-45 0 -73 27 -73 66c0 24 14 56 38 66c33 -17 60 -28 97 -28c41 0 90 16 167 109l2 485l-83 -5l-1 31l232 66l-6 -377l119 171c95 136 132 198 190 198c39 0 56 -24 56 -54c0 -34 -17 -55 -33 -65c-94 -24 -136 -35 -159 -69
l-225 -323c-84 -120 -223 -271 -321 -271z" />
    <glyph glyph-name="uni2007" unicode="&#x2007;" horiz-adv-x="676" 
 />
    <glyph glyph-name="uni2008" unicode="&#x2008;" horiz-adv-x="286" 
 />
    <glyph glyph-name="uni2009" unicode="&#x2009;" horiz-adv-x="44" 
 />
    <glyph glyph-name="uni200B" unicode="&#x200b;" 
 />
    <glyph glyph-name="endash" unicode="&#x2013;" horiz-adv-x="658" 
d="M53 225l26 75h534l-26 -75h-534z" />
    <glyph glyph-name="emdash" unicode="&#x2014;" horiz-adv-x="1084" 
d="M53 225l26 75h960l-26 -75h-960z" />
    <glyph glyph-name="quoteleft" unicode="&#x2018;" horiz-adv-x="292" 
d="M376 809l14 -33c-75 -38 -130 -104 -130 -156c0 -42 28 -67 84 -78c-11 -71 -62 -99 -113 -99c-54 0 -99 38 -99 101c0 84 90 201 244 265z" />
    <glyph glyph-name="quoteright" unicode="&#x2019;" horiz-adv-x="288" 
d="M141 429l-14 33c75 38 130 104 130 156c0 42 -28 67 -84 78c11 71 62 99 113 99c54 0 99 -38 99 -101c0 -84 -90 -201 -244 -265z" />
    <glyph glyph-name="quotesinglbase" unicode="&#x201a;" horiz-adv-x="305" 
d="M-32 -189l-14 33c75 38 130 104 130 156c0 42 -28 67 -84 78c11 71 62 99 113 99c54 0 99 -38 99 -101c0 -84 -90 -201 -244 -265z" />
    <glyph glyph-name="quotedblleft" unicode="&#x201c;" horiz-adv-x="532" 
d="M376 809l14 -33c-75 -38 -130 -104 -130 -156c0 -42 28 -67 84 -78c-11 -71 -62 -99 -113 -99c-54 0 -99 38 -99 101c0 84 90 201 244 265zM616 809l14 -33c-75 -38 -130 -104 -130 -156c0 -42 28 -67 84 -78c-11 -71 -62 -99 -113 -99c-54 0 -99 38 -99 101
c0 84 90 201 244 265z" />
    <glyph glyph-name="quotedblright" unicode="&#x201d;" horiz-adv-x="528" 
d="M141 429l-14 33c75 38 130 104 130 156c0 42 -28 67 -84 78c11 71 62 99 113 99c54 0 99 -38 99 -101c0 -84 -90 -201 -244 -265zM381 429l-14 33c75 38 130 104 130 156c0 42 -28 67 -84 78c11 71 62 99 113 99c54 0 99 -38 99 -101c0 -84 -90 -201 -244 -265z" />
    <glyph glyph-name="quotedblbase" unicode="&#x201e;" horiz-adv-x="545" 
d="M-32 -189l-14 33c75 38 130 104 130 156c0 42 -28 67 -84 78c11 71 62 99 113 99c54 0 99 -38 99 -101c0 -84 -90 -201 -244 -265zM208 -189l-14 33c75 38 130 104 130 156c0 42 -28 67 -84 78c11 71 62 99 113 99c54 0 99 -38 99 -101c0 -84 -90 -201 -244 -265z" />
    <glyph glyph-name="dagger" unicode="&#x2020;" horiz-adv-x="713" 
d="M187 -228l76 230c52 157 25 221 3 264c46 30 96 66 130 173l6 18h-26c-113 0 -165 -44 -206 -79c-28 17 -58 58 -66 94c26 42 84 81 125 94c21 -35 43 -79 156 -79h26l5 15c36 113 3 150 -21 181c24 39 76 79 123 96c31 -22 58 -62 65 -96c-46 -31 -97 -68 -133 -181
l-5 -15h26c113 0 167 44 206 79c28 -17 58 -58 67 -94c-26 -42 -84 -81 -126 -94c-19 35 -43 79 -156 79h-26l-6 -18c-34 -107 0 -140 24 -173c-48 -40 -113 -107 -159 -264l-68 -230h-40z" />
    <glyph glyph-name="daggerdbl" unicode="&#x2021;" horiz-adv-x="713" 
d="M46 -34c-28 17 -58 58 -65 94c24 42 82 81 124 94c21 -35 43 -79 156 -79h26l6 18c33 107 2 140 -24 173c44 30 97 66 130 173l6 18h-26c-113 0 -167 -44 -206 -79c-28 17 -58 58 -68 94c28 42 86 81 127 94c19 -35 43 -79 156 -79h26l5 15c35 113 3 150 -21 181
c24 39 74 79 123 96c29 -22 58 -62 65 -96c-46 -31 -98 -68 -133 -181l-5 -15h26c113 0 165 44 206 79c28 -17 58 -58 65 -94c-24 -42 -82 -81 -124 -94c-21 35 -43 79 -156 79h-26l-6 -18c-33 -107 -2 -140 24 -173c-44 -30 -97 -66 -130 -173l-6 -18h26
c113 0 167 44 206 79c28 -17 58 -58 68 -94c-28 -42 -86 -81 -127 -94c-19 35 -43 79 -156 79h-26l-5 -15c-35 -113 -3 -150 21 -181c-24 -39 -74 -79 -123 -96c-29 22 -58 62 -65 96c46 31 98 68 133 181l5 15h-26c-113 0 -165 -44 -206 -79z" />
    <glyph glyph-name="bullet" unicode="&#x2022;" horiz-adv-x="395" 
d="M235 258c-69 0 -126 57 -126 127c0 69 57 126 126 126c70 0 127 -57 127 -126c0 -70 -57 -127 -127 -127z" />
    <glyph glyph-name="ellipsis" unicode="&#x2026;" horiz-adv-x="994" 
d="M98 -13c-52 0 -95 43 -95 99c0 52 43 95 95 95c56 0 99 -43 99 -95c0 -56 -43 -99 -99 -99zM452 -13c-52 0 -95 43 -95 99c0 52 43 95 95 95c56 0 99 -43 99 -95c0 -56 -43 -99 -99 -99zM806 -13c-52 0 -95 43 -95 99c0 52 43 95 95 95c56 0 99 -43 99 -95
c0 -56 -43 -99 -99 -99z" />
    <glyph glyph-name="perthousand" unicode="&#x2030;" horiz-adv-x="1390" 
d="M240 333c-91 0 -125 70 -125 147c0 143 121 291 236 291c90 0 125 -70 125 -147c0 -143 -122 -291 -236 -291zM56 0l840 758h104l-840 -758h-104zM246 362c81 0 134 219 134 318c0 40 -12 63 -36 63c-81 0 -133 -220 -133 -319c0 -39 11 -62 35 -62zM712 -8
c-91 0 -125 70 -125 147c0 143 121 291 236 291c90 0 125 -70 125 -147c0 -143 -122 -291 -236 -291zM1121 -8c-91 0 -125 70 -125 147c0 143 121 291 236 291c90 0 125 -70 125 -147c0 -143 -122 -291 -236 -291zM718 21c81 0 134 219 134 318c0 40 -12 63 -36 63
c-81 0 -133 -220 -133 -319c0 -39 11 -62 35 -62zM1127 21c81 0 134 219 134 318c0 40 -12 63 -36 63c-81 0 -133 -220 -133 -319c0 -39 11 -62 35 -62z" />
    <glyph glyph-name="guilsinglleft" unicode="&#x2039;" horiz-adv-x="347" 
d="M175 247l39 -223l-16 -6l-158 233l318 233l10 -12z" />
    <glyph glyph-name="guilsinglright" unicode="&#x203a;" horiz-adv-x="347" 
d="M177 255l-39 223l16 6l158 -233l-318 -233l-10 12z" />
    <glyph glyph-name="fraction" unicode="&#x2044;" horiz-adv-x="196" 
d="M-332 0l840 758h104l-840 -758h-104z" />
    <glyph glyph-name="uni2060" unicode="&#x2060;" 
 />
    <glyph glyph-name="zero.superior" unicode="&#x2070;" horiz-adv-x="400" 
d="M256 393c-91 0 -125 70 -125 147c0 143 121 291 236 291c90 0 125 -70 125 -147c0 -143 -122 -291 -236 -291zM262 422c81 0 134 219 134 318c0 40 -12 63 -36 63c-81 0 -133 -220 -133 -319c0 -39 11 -62 35 -62z" />
    <glyph glyph-name="four.superior" unicode="&#x2074;" horiz-adv-x="385" 
d="M238 401l35 100h-194l313 316h90l-84 -244h69l-25 -72h-69l-35 -100h-100zM188 573h109l59 168z" />
    <glyph glyph-name="five.superior" unicode="&#x2075;" horiz-adv-x="326" 
d="M190 393c-55 0 -108 25 -108 70c0 35 31 58 75 50c10 -51 29 -85 76 -85c33 0 71 18 71 68s-56 86 -136 121l107 201h198l-52 -93h-170l-13 -23c94 -36 142 -85 142 -145c0 -106 -102 -164 -190 -164z" />
    <glyph glyph-name="six.superior" unicode="&#x2076;" horiz-adv-x="365" 
d="M251 393c-75 0 -135 45 -135 134c0 107 128 267 391 329l6 -22c-140 -36 -233 -131 -275 -223c26 27 64 42 95 42c54 0 96 -30 96 -95c0 -93 -92 -165 -178 -165zM212 505c0 -56 16 -85 46 -85c36 0 69 51 69 115c0 49 -24 73 -53 73c-14 0 -26 -4 -44 -14
c-12 -31 -18 -62 -18 -89z" />
    <glyph glyph-name="seven.superior" unicode="&#x2077;" horiz-adv-x="358" 
d="M252 818h289l-195 -181c-99 -93 -142 -173 -154 -197c-21 -35 -32 -37 -53 -40l-49 -5c-20 -2 -46 2 -19 30c96 97 182 168 339 300h-106c-62 0 -75 -1 -98 -29l-4 -5h-23z" />
    <glyph glyph-name="eight.superior" unicode="&#x2078;" horiz-adv-x="350" 
d="M244 393c-79 0 -134 46 -134 109c0 57 49 90 111 110c-23 28 -35 58 -35 95c0 70 60 124 146 124c71 0 120 -37 120 -89c0 -50 -50 -83 -106 -102l3 -3c30 -33 54 -63 54 -107c0 -80 -79 -137 -159 -137zM309 680l25 -27c40 19 56 52 56 85c0 40 -21 64 -64 64
c-37 0 -62 -16 -62 -45s19 -50 45 -77zM177 501c0 -50 26 -79 74 -79c32 0 69 14 69 54c0 30 -20 55 -49 84l-38 39c-34 -20 -56 -57 -56 -98z" />
    <glyph glyph-name="nine.superior" unicode="&#x2079;" horiz-adv-x="365" 
d="M91 368l-6 23c131 39 220 129 262 219c-25 -21 -58 -39 -94 -39c-55 0 -96 40 -96 105c0 97 98 155 176 155c76 0 137 -48 137 -138c0 -99 -114 -250 -379 -325zM259 696c0 -57 35 -79 59 -79c12 0 23 2 37 11c13 34 20 67 20 98c0 53 -21 78 -48 78
c-40 0 -68 -43 -68 -108z" />
    <glyph glyph-name="zero.inferior" unicode="&#x2080;" horiz-adv-x="400" 
d="M115 -68c-91 0 -125 70 -125 147c0 143 121 291 236 291c90 0 125 -70 125 -147c0 -143 -122 -291 -236 -291zM121 -39c81 0 134 219 134 318c0 40 -12 63 -36 63c-81 0 -133 -220 -133 -319c0 -39 11 -62 35 -62z" />
    <glyph glyph-name="one.inferior" unicode="&#x2081;" horiz-adv-x="257" 
d="M-64 -60l8 26l25 2c22 2 29 8 37 30l100 289l-81 -28l12 35l196 71l-127 -367c-8 -22 -4 -31 16 -32l19 -1l-8 -25h-197z" />
    <glyph glyph-name="two.inferior" unicode="&#x2082;" horiz-adv-x="344" 
d="M-85 -60l1 4c188 140 290 243 290 318c0 35 -20 55 -54 55c-41 0 -75 -28 -88 -89h-23c7 82 60 142 155 142c69 0 112 -41 112 -94c0 -63 -49 -110 -148 -175l-111 -73h97c55 0 65 6 93 38l7 8l19 -7l-72 -127h-278z" />
    <glyph glyph-name="three.inferior" unicode="&#x2083;" horiz-adv-x="332" 
d="M254 106c0 -87 -101 -174 -203 -174c-53 0 -106 24 -106 70c0 33 33 59 79 51c12 -53 20 -89 64 -89c28 0 71 24 71 94c0 68 -36 96 -76 96c-3 0 -5 0 -10 -1l-4 24l35 8c43 10 102 28 102 82c0 31 -20 50 -55 50c-32 0 -70 -15 -83 -74h-24c11 76 61 127 148 127
c75 0 110 -36 110 -75c0 -46 -37 -71 -109 -84v-2c44 -25 61 -66 61 -103z" />
    <glyph glyph-name="four.inferior" unicode="&#x2084;" horiz-adv-x="385" 
d="M96 -60l35 100h-194l313 316h90l-84 -244h69l-25 -72h-69l-35 -100h-100zM46 112h109l59 168z" />
    <glyph glyph-name="five.inferior" unicode="&#x2085;" horiz-adv-x="326" 
d="M49 -68c-55 0 -108 25 -108 70c0 35 31 58 75 50c10 -51 29 -85 76 -85c33 0 71 18 71 68s-56 86 -136 121l107 201h198l-52 -93h-170l-13 -23c94 -36 142 -85 142 -145c0 -106 -102 -164 -190 -164z" />
    <glyph glyph-name="six.inferior" unicode="&#x2086;" horiz-adv-x="365" 
d="M110 -68c-75 0 -135 45 -135 134c0 107 128 267 391 329l6 -22c-140 -36 -233 -131 -275 -223c26 27 64 42 95 42c54 0 96 -30 96 -95c0 -93 -92 -165 -178 -165zM71 44c0 -56 16 -85 46 -85c36 0 69 51 69 115c0 49 -24 73 -53 73c-14 0 -26 -4 -44 -14
c-12 -31 -18 -62 -18 -89z" />
    <glyph glyph-name="seven.inferior" unicode="&#x2087;" horiz-adv-x="358" 
d="M112 357h289l-195 -181c-99 -93 -142 -173 -154 -197c-21 -35 -32 -37 -53 -40l-49 -5c-20 -2 -46 2 -19 30c96 97 182 168 339 300h-106c-62 0 -75 -1 -98 -29l-4 -5h-23z" />
    <glyph glyph-name="eight.inferior" unicode="&#x2088;" horiz-adv-x="350" 
d="M103 -68c-79 0 -134 46 -134 109c0 57 49 90 111 110c-23 28 -35 58 -35 95c0 70 60 124 146 124c71 0 120 -37 120 -89c0 -50 -50 -83 -106 -102l3 -3c30 -33 54 -63 54 -107c0 -80 -79 -137 -159 -137zM168 219l25 -27c40 19 56 52 56 85c0 40 -21 64 -64 64
c-37 0 -62 -16 -62 -45s19 -50 45 -77zM36 40c0 -50 26 -79 74 -79c32 0 69 14 69 54c0 30 -20 55 -49 84l-38 39c-34 -20 -56 -57 -56 -98z" />
    <glyph glyph-name="nine.inferior" unicode="&#x2089;" horiz-adv-x="365" 
d="M-50 -93l-6 23c131 39 220 129 262 219c-25 -21 -58 -39 -94 -39c-55 0 -96 40 -96 105c0 97 98 155 176 155c76 0 137 -48 137 -138c0 -99 -114 -250 -379 -325zM118 235c0 -57 35 -79 59 -79c12 0 23 2 37 11c13 34 20 67 20 98c0 53 -21 78 -48 78
c-40 0 -68 -43 -68 -108z" />
    <glyph glyph-name="Euro" unicode="&#x20ac;" horiz-adv-x="864" 
d="M39 283l36 54h132c5 31 13 61 24 91h-143l37 54h131c89 170 280 297 466 297c115 0 203 -43 203 -113c0 -65 -78 -94 -150 -80c41 103 14 141 -66 141c-121 0 -240 -88 -295 -245h276l-37 -54h-254c-7 -28 -12 -59 -14 -91h206l-35 -54h-173c1 -125 59 -214 165 -214
c111 0 191 58 250 208l29 -9c-50 -159 -151 -281 -336 -281c-152 0 -288 103 -288 293v3h-164z" />
    <glyph glyph-name="uni20B4" unicode="&#x20b4;" horiz-adv-x="658" 
d="M109 429l17 54h310c91 42 149 102 149 169c0 55 -32 80 -106 80c-11 0 -23 -1 -33 -3c-14 -3 -19 -5 -42 -26l-199 -186h-22l122 235c53 18 130 27 185 27c125 0 222 -38 222 -148c0 -57 -32 -111 -77 -148h49l-17 -54h-558zM73 316l17 54h558l-17 -54h-274
c-134 -46 -194 -124 -194 -192c0 -62 40 -91 107 -91c21 0 41 2 60 6c18 4 32 9 58 35l202 196h22l-124 -246c-76 -28 -158 -37 -227 -37c-144 0 -225 53 -225 156c0 71 33 123 98 173h-61z" />
    <glyph glyph-name="uni20B8" unicode="&#x20b8;" horiz-adv-x="782" 
d="M177 704l22 54h690l-15 -54h-697zM102 0l13 38l71 4c36 2 46 8 59 47l167 515h-107c-21 0 -28 -1 -43 -18l-196 -212h-22l110 271h704l-66 -271h-22l-60 212c-5 16 -10 18 -31 18h-107l-167 -515c-13 -39 -5 -45 29 -47l69 -4l-13 -38h-388z" />
    <glyph glyph-name="uni20BD" unicode="&#x20bd;" horiz-adv-x="740" 
d="M-30 0l11 36l36 4c36 4 57 10 69 49l41 132h-107l21 54h102l18 59h-98l21 54h94l86 281c12 39 -6 45 -39 49l-34 4l11 36h318c173 0 297 -34 297 -156c0 -142 -136 -268 -413 -268h-83l-18 -59h251l-21 -54h-247l-40 -132c-12 -39 5 -45 40 -47l69 -4l-12 -38h-373z
M437 714l-100 -326h74c168 0 229 118 229 219c0 73 -40 107 -129 107h-74z" />
    <glyph glyph-name="uni2116" unicode="&#x2116;" horiz-adv-x="1249" 
d="M1075 333c-91 0 -125 70 -125 147c0 143 121 291 236 291c90 0 125 -70 125 -147c0 -143 -122 -291 -236 -291zM665 -17l-357 668l-173 -562c-12 -39 5 -45 39 -49l34 -4l-11 -36h-234l11 36l36 4c36 4 57 10 69 49l179 580c12 39 -6 45 -39 49l-34 4l11 36h235l265 -497
l127 408c12 39 -6 45 -39 49l-34 4l11 36h234l-11 -36l-36 -4c-37 -4 -57 -10 -69 -49l-210 -686h-4zM1081 362c81 0 134 219 134 318c0 40 -12 63 -36 63c-81 0 -133 -220 -133 -319c0 -39 11 -62 35 -62zM891 233l18 59h294l-18 -59h-294z" />
    <glyph glyph-name="uni2117" unicode="&#x2117;" horiz-adv-x="908" 
d="M495 -13c-221 0 -399 162 -399 396s178 396 399 396s399 -162 399 -396s-178 -396 -399 -396zM495 35c194 0 342 137 342 348s-148 348 -342 348s-342 -137 -342 -348s148 -348 342 -348zM327 180v23l17 2c21 2 33 7 33 31v318c0 24 -12 29 -33 31l-17 2v23h190
c111 0 195 -26 195 -116c0 -91 -84 -123 -195 -123h-22v28h19c64 0 82 33 82 91s-18 92 -82 92h-33v-346c0 -24 12 -27 33 -29l36 -3v-24h-223z" />
    <glyph glyph-name="trademark" unicode="&#x2122;" horiz-adv-x="1316" 
d="M271 288v28l37 2c24 1 37 6 37 34v376h-53c-15 0 -19 0 -26 -12l-90 -154h-8l13 196h447l13 -196h-8l-90 154c-7 12 -11 12 -26 12h-53v-376c0 -28 13 -33 37 -34l37 -2v-28h-267zM694 288v26l18 3c24 4 36 7 36 35v342c0 28 -12 31 -36 35l-18 3v26h209l98 -230l96 230
h195v-26l-18 -3c-24 -4 -36 -7 -36 -35v-342c0 -28 12 -31 36 -35l18 -3v-26h-228v26l18 3c24 4 36 7 36 35v362l-159 -365h-4l-166 363v-360c0 -28 13 -31 36 -35l19 -3v-26h-150z" />
    <glyph glyph-name="uni2150" unicode="&#x2150;" horiz-adv-x="887" 
d="M58 341l8 26l25 2c22 2 29 8 37 30l100 289l-81 -28l12 35l196 71l-127 -367c-8 -22 -4 -31 16 -32l19 -1l-8 -25h-197zM-21 0l840 758h104l-840 -758h-104zM659 417h289l-195 -181c-99 -93 -142 -173 -154 -197c-21 -35 -32 -37 -53 -40l-49 -5c-20 -2 -46 2 -19 30
c96 97 182 168 339 300h-106c-62 0 -75 -1 -98 -29l-4 -5h-23z" />
    <glyph glyph-name="uni2151" unicode="&#x2151;" horiz-adv-x="912" 
d="M58 341l8 26l25 2c22 2 29 8 37 30l100 289l-81 -28l12 35l196 71l-127 -367c-8 -22 -4 -31 16 -32l19 -1l-8 -25h-197zM-21 0l840 758h104l-840 -758h-104zM515 -33l-6 23c131 39 220 129 262 219c-25 -21 -58 -39 -94 -39c-55 0 -96 40 -96 105c0 97 98 155 176 155
c76 0 137 -48 137 -138c0 -99 -114 -250 -379 -325zM683 295c0 -57 35 -79 59 -79c12 0 23 2 37 11c13 34 20 67 20 98c0 53 -21 78 -48 78c-40 0 -68 -43 -68 -108z" />
    <glyph glyph-name="uni2152" unicode="&#x2152;" horiz-adv-x="1210" 
d="M58 341l8 26l25 2c22 2 29 8 37 30l100 289l-81 -28l12 35l196 71l-127 -367c-8 -22 -4 -31 16 -32l19 -1l-8 -25h-197zM-21 0l840 758h104l-840 -758h-104zM943 -8c-91 0 -125 70 -125 147c0 143 121 291 236 291c90 0 125 -70 125 -147c0 -143 -122 -291 -236 -291z
M503 0l8 26l25 2c22 2 29 8 37 30l100 289l-81 -28l12 35l196 71l-127 -367c-8 -22 -4 -31 16 -32l19 -1l-8 -25h-197zM949 21c81 0 134 219 134 318c0 40 -12 63 -36 63c-81 0 -133 -220 -133 -319c0 -39 11 -62 35 -62z" />
    <glyph glyph-name="onethird" unicode="&#x2153;" horiz-adv-x="867" 
d="M58 341l8 26l25 2c22 2 29 8 37 30l100 289l-81 -28l12 35l196 71l-127 -367c-8 -22 -4 -31 16 -32l19 -1l-8 -25h-197zM-21 0l840 758h104l-840 -758h-104zM808 166c0 -87 -101 -174 -203 -174c-53 0 -106 24 -106 70c0 33 33 59 79 51c12 -53 20 -89 64 -89
c28 0 71 24 71 94c0 68 -36 96 -76 96c-3 0 -5 0 -10 -1l-4 24l35 8c43 10 102 28 102 82c0 31 -20 50 -55 50c-32 0 -70 -15 -83 -74h-24c11 76 61 127 148 127c75 0 110 -36 110 -75c0 -46 -37 -71 -109 -84v-2c44 -25 61 -66 61 -103z" />
    <glyph glyph-name="twothirds" unicode="&#x2154;" horiz-adv-x="927" 
d="M36 341l1 4c188 140 290 243 290 318c0 35 -20 55 -54 55c-41 0 -75 -28 -88 -89h-23c7 82 60 142 155 142c69 0 112 -41 112 -94c0 -63 -49 -110 -148 -175l-111 -73h97c55 0 65 6 93 38l7 8l19 -7l-72 -127h-278zM39 0l840 758h104l-840 -758h-104zM868 166
c0 -87 -101 -174 -203 -174c-53 0 -106 24 -106 70c0 33 33 59 79 51c12 -53 20 -89 64 -89c28 0 71 24 71 94c0 68 -36 96 -76 96c-3 0 -5 0 -10 -1l-4 24l35 8c43 10 102 28 102 82c0 31 -20 50 -55 50c-32 0 -70 -15 -83 -74h-24c11 76 61 127 148 127
c75 0 110 -36 110 -75c0 -46 -37 -71 -109 -84v-2c44 -25 61 -66 61 -103z" />
    <glyph glyph-name="uni2155" unicode="&#x2155;" horiz-adv-x="837" 
d="M58 341l8 26l25 2c22 2 29 8 37 30l100 289l-81 -28l12 35l196 71l-127 -367c-8 -22 -4 -31 16 -32l19 -1l-8 -25h-197zM-21 0l840 758h104l-840 -758h-104zM578 -8c-55 0 -108 25 -108 70c0 35 31 58 75 50c10 -51 29 -85 76 -85c33 0 71 18 71 68s-56 86 -136 121
l107 201h198l-52 -93h-170l-13 -23c94 -36 142 -85 142 -145c0 -106 -102 -164 -190 -164z" />
    <glyph glyph-name="uni2156" unicode="&#x2156;" horiz-adv-x="897" 
d="M36 341l1 4c188 140 290 243 290 318c0 35 -20 55 -54 55c-41 0 -75 -28 -88 -89h-23c7 82 60 142 155 142c69 0 112 -41 112 -94c0 -63 -49 -110 -148 -175l-111 -73h97c55 0 65 6 93 38l7 8l19 -7l-72 -127h-278zM39 0l840 758h104l-840 -758h-104zM638 -8
c-55 0 -108 25 -108 70c0 35 31 58 75 50c10 -51 29 -85 76 -85c33 0 71 18 71 68s-56 86 -136 121l107 201h198l-52 -93h-170l-13 -23c94 -36 142 -85 142 -145c0 -106 -102 -164 -190 -164z" />
    <glyph glyph-name="uni2157" unicode="&#x2157;" horiz-adv-x="862" 
d="M377 507c0 -87 -101 -174 -203 -174c-53 0 -106 24 -106 70c0 33 33 59 79 51c12 -53 20 -89 64 -89c28 0 71 24 71 94c0 68 -36 96 -76 96c-3 0 -5 0 -10 -1l-4 24l35 8c43 10 102 28 102 82c0 31 -20 50 -55 50c-32 0 -70 -15 -83 -74h-24c11 76 61 127 148 127
c75 0 110 -36 110 -75c0 -46 -37 -71 -109 -84v-2c44 -25 61 -66 61 -103zM4 0l840 758h104l-840 -758h-104zM603 -8c-55 0 -108 25 -108 70c0 35 31 58 75 50c10 -51 29 -85 76 -85c33 0 71 18 71 68s-56 86 -136 121l107 201h198l-52 -93h-170l-13 -23
c94 -36 142 -85 142 -145c0 -106 -102 -164 -190 -164z" />
    <glyph glyph-name="uni2158" unicode="&#x2158;" horiz-adv-x="915" 
d="M57 0l840 758h104l-840 -758h-104zM220 341l35 100h-194l313 316h90l-84 -244h69l-25 -72h-69l-35 -100h-100zM170 513h109l59 168zM656 -8c-55 0 -108 25 -108 70c0 35 31 58 75 50c10 -51 29 -85 76 -85c33 0 71 18 71 68s-56 86 -136 121l107 201h198l-52 -93h-170
l-13 -23c94 -36 142 -85 142 -145c0 -106 -102 -164 -190 -164z" />
    <glyph glyph-name="uni2159" unicode="&#x2159;" horiz-adv-x="876" 
d="M58 341l8 26l25 2c22 2 29 8 37 30l100 289l-81 -28l12 35l196 71l-127 -367c-8 -22 -4 -31 16 -32l19 -1l-8 -25h-197zM-21 0l840 758h104l-840 -758h-104zM640 -8c-75 0 -135 45 -135 134c0 107 128 267 391 329l6 -22c-140 -36 -233 -131 -275 -223c26 27 64 42 95 42
c54 0 96 -30 96 -95c0 -93 -92 -165 -178 -165zM601 104c0 -56 16 -85 46 -85c36 0 69 51 69 115c0 49 -24 73 -53 73c-14 0 -26 -4 -44 -14c-12 -31 -18 -62 -18 -89z" />
    <glyph glyph-name="uni215A" unicode="&#x215a;" horiz-adv-x="895" 
d="M171 333c-55 0 -108 25 -108 70c0 35 31 58 75 50c10 -51 29 -85 76 -85c33 0 71 18 71 68s-56 86 -136 121l107 201h198l-52 -93h-170l-13 -23c94 -36 142 -85 142 -145c0 -106 -102 -164 -190 -164zM-2 0l840 758h104l-840 -758h-104zM659 -8c-75 0 -135 45 -135 134
c0 107 128 267 391 329l6 -22c-140 -36 -233 -131 -275 -223c26 27 64 42 95 42c54 0 96 -30 96 -95c0 -93 -92 -165 -178 -165zM620 104c0 -56 16 -85 46 -85c36 0 69 51 69 115c0 49 -24 73 -53 73c-14 0 -26 -4 -44 -14c-12 -31 -18 -62 -18 -89z" />
    <glyph glyph-name="oneeighth" unicode="&#x215b;" horiz-adv-x="888" 
d="M58 341l8 26l25 2c22 2 29 8 37 30l100 289l-81 -28l12 35l196 71l-127 -367c-8 -22 -4 -31 16 -32l19 -1l-8 -25h-197zM-21 0l840 758h104l-840 -758h-104zM660 -8c-79 0 -134 46 -134 109c0 57 49 90 111 110c-23 28 -35 58 -35 95c0 70 60 124 146 124
c71 0 120 -37 120 -89c0 -50 -50 -83 -106 -102l3 -3c30 -33 54 -63 54 -107c0 -80 -79 -137 -159 -137zM725 279l25 -27c40 19 56 52 56 85c0 40 -21 64 -64 64c-37 0 -62 -16 -62 -45s19 -50 45 -77zM593 100c0 -50 26 -79 74 -79c32 0 69 14 69 54c0 30 -20 55 -49 84
l-38 39c-34 -20 -56 -57 -56 -98z" />
    </font>
</defs>
</svg>
