<?xml version="1.0" standalone="no"?>
<!DOCTYPE svg PUBLIC "-//W3C//DTD SVG 1.1//EN" "http://www.w3.org/Graphics/SVG/1.1/DTD/svg11.dtd" >
<svg xmlns="http://www.w3.org/2000/svg" xmlns:xlink="http://www.w3.org/1999/xlink" version="1.1">
<metadata>
Created by FontForge 20190801 at Tue Mar 27 11:47:26 2018
 By Jimmy Wärting
Copyright (c) 2017 by Matthieu Salvaggio. All rights reserved.
</metadata>
<defs>
<font id="ATApoc-RevelationsItalic" horiz-adv-x="0" >
  <font-face 
    font-family="AT Apoc"
    font-weight="400"
    font-style="italic"
    font-stretch="normal"
    units-per-em="1000"
    panose-1="0 0 5 0 0 0 0 0 0 0"
    ascent="800"
    descent="-200"
    x-height="500"
    cap-height="760"
    bbox="-617 -244 1312 1043"
    underline-thickness="50"
    underline-position="-100"
    slope="-11"
    unicode-range="U+0020-FB04"
  />
<missing-glyph horiz-adv-x="634" 
d="M63 10q27 4 42.5 8t24.5 10.5t13 17.5t7 29l119 610q3 18 3.5 29t-6 17.5t-20.5 10.5t-39 8l2 10h512l-2 -10q-26 -4 -41.5 -8t-25 -10.5t-14 -17.5t-7.5 -29l-119 -610q-3 -18 -3 -29t6.5 -17.5t21 -10.5t38.5 -8l-2 -10h-512zM593 730h-270l-132 -677zM459 30l126 648
l-386 -648h260z" />
    <glyph glyph-name=".notdef" horiz-adv-x="634" 
d="M63 10q27 4 42.5 8t24.5 10.5t13 17.5t7 29l119 610q3 18 3.5 29t-6 17.5t-20.5 10.5t-39 8l2 10h512l-2 -10q-26 -4 -41.5 -8t-25 -10.5t-14 -17.5t-7.5 -29l-119 -610q-3 -18 -3 -29t6.5 -17.5t21 -10.5t38.5 -8l-2 -10h-512zM593 730h-270l-132 -677zM459 30l126 648
l-386 -648h260z" />
    <glyph glyph-name="A" unicode="A" horiz-adv-x="891" 
d="M50 10q19 2 33.5 5t25 8.5t19 14t16.5 22.5l429 708h29l170 -707q7 -28 22 -37.5t51 -13.5l-2 -10h-195l2 10q15 3 28 4.5t22.5 4.5t14.5 8.5t5 16.5v8t-2 9l-66 282h-306l-170 -286q-8 -14 -8 -21q0 -9 7 -13.5t18 -6.5t24.5 -3.5t27.5 -2.5l-2 -10h-195zM645 373
l-79 339l-202 -339h281z" />
    <glyph glyph-name="Aacute" unicode="&#xc1;" horiz-adv-x="891" 
d="M581 810q38 55 66 91.5t48 58t33 30t21 8.5q14 0 14 -11q0 -12 -17 -33t-43 -45.5t-56.5 -50.5t-57.5 -48h-8zM50 10q19 2 33.5 5t25 8.5t19 14t16.5 22.5l429 708h29l170 -707q7 -28 22 -37.5t51 -13.5l-2 -10h-195l2 10q15 3 28 4.5t22.5 4.5t14.5 8.5t5 16.5v8t-2 9
l-66 282h-306l-170 -286q-8 -14 -8 -21q0 -9 7 -13.5t18 -6.5t24.5 -3.5t27.5 -2.5l-2 -10h-195zM645 373l-79 339l-202 -339h281z" />
    <glyph glyph-name="Abreve" unicode="&#x102;" horiz-adv-x="891" 
d="M592 810q-24 0 -46.5 9.5t-37.5 32t-20 58t5 88.5h8q-5 -26 -3 -52t13 -47t32.5 -34t56.5 -13q34 0 61 13t46 34t31 47t17 52h8q-10 -53 -29 -88.5t-42.5 -58t-49.5 -32t-50 -9.5zM50 10q19 2 33.5 5t25 8.5t19 14t16.5 22.5l429 708h29l170 -707q7 -28 22 -37.5
t51 -13.5l-2 -10h-195l2 10q15 3 28 4.5t22.5 4.5t14.5 8.5t5 16.5v8t-2 9l-66 282h-306l-170 -286q-8 -14 -8 -21q0 -9 7 -13.5t18 -6.5t24.5 -3.5t27.5 -2.5l-2 -10h-195zM645 373l-79 339l-202 -339h281z" />
    <glyph glyph-name="Acircumflex" unicode="&#xc2;" horiz-adv-x="891" 
d="M467 810q43 56 69 92.5t42.5 57.5t26.5 29.5t19 8.5t15.5 -8.5t15 -29.5t20.5 -57.5t33 -92.5h-8q-24 37 -47 72.5t-38 68.5q-27 -33 -64.5 -68.5t-75.5 -72.5h-8zM50 10q19 2 33.5 5t25 8.5t19 14t16.5 22.5l429 708h29l170 -707q7 -28 22 -37.5t51 -13.5l-2 -10h-195
l2 10q15 3 28 4.5t22.5 4.5t14.5 8.5t5 16.5v8t-2 9l-66 282h-306l-170 -286q-8 -14 -8 -21q0 -9 7 -13.5t18 -6.5t24.5 -3.5t27.5 -2.5l-2 -10h-195zM645 373l-79 339l-202 -339h281z" />
    <glyph glyph-name="Adieresis" unicode="&#xc4;" horiz-adv-x="891" 
d="M527 862q-16 0 -24 8.5t-8 22.5q0 19 13.5 32.5t33.5 13.5q14 0 23 -9t9 -23q0 -19 -13.5 -32t-33.5 -13zM657 862q-16 0 -24 8.5t-8 22.5q0 19 13.5 32.5t33.5 13.5q14 0 23 -9t9 -23q0 -19 -13.5 -32t-33.5 -13zM50 10q19 2 33.5 5t25 8.5t19 14t16.5 22.5l429 708h29
l170 -707q7 -28 22 -37.5t51 -13.5l-2 -10h-195l2 10q15 3 28 4.5t22.5 4.5t14.5 8.5t5 16.5v8t-2 9l-66 282h-306l-170 -286q-8 -14 -8 -21q0 -9 7 -13.5t18 -6.5t24.5 -3.5t27.5 -2.5l-2 -10h-195zM645 373l-79 339l-202 -339h281z" />
    <glyph glyph-name="Agrave" unicode="&#xc0;" horiz-adv-x="891" 
d="M585 810q-17 20 -36 44.5t-35 47.5t-26 43.5t-10 33.5q0 8 4 13.5t15 5.5q8 0 18 -8.5t22 -30t26 -58t30 -91.5h-8zM50 10q19 2 33.5 5t25 8.5t19 14t16.5 22.5l429 708h29l170 -707q7 -28 22 -37.5t51 -13.5l-2 -10h-195l2 10q15 3 28 4.5t22.5 4.5t14.5 8.5t5 16.5v8
t-2 9l-66 282h-306l-170 -286q-8 -14 -8 -21q0 -9 7 -13.5t18 -6.5t24.5 -3.5t27.5 -2.5l-2 -10h-195zM645 373l-79 339l-202 -339h281z" />
    <glyph glyph-name="Amacron" unicode="&#x100;" horiz-adv-x="891" 
d="M476 898h263l-7 -38h-263zM50 10q19 2 33.5 5t25 8.5t19 14t16.5 22.5l429 708h29l170 -707q7 -28 22 -37.5t51 -13.5l-2 -10h-195l2 10q15 3 28 4.5t22.5 4.5t14.5 8.5t5 16.5v8t-2 9l-66 282h-306l-170 -286q-8 -14 -8 -21q0 -9 7 -13.5t18 -6.5t24.5 -3.5t27.5 -2.5
l-2 -10h-195zM645 373l-79 339l-202 -339h281z" />
    <glyph glyph-name="Aogonek" unicode="&#x104;" horiz-adv-x="891" 
d="M750 0q-8 -6 -23 -19.5t-29.5 -32t-25.5 -40t-11 -42.5q0 -22 11.5 -34.5t31.5 -12.5q14 0 30 7t33 21h5q-22 -26 -44.5 -40t-45.5 -14t-38 15.5t-15 41.5t14.5 51t33.5 45t37 34.5t25 19.5h-91l2 10q15 3 28 4.5t22.5 4.5t14.5 8.5t5 16.5v8t-2 9l-66 282h-306
l-170 -286q-8 -14 -8 -21q0 -9 7 -13.5t18 -6.5t24.5 -3.5t27.5 -2.5l-2 -10h-195l2 10q19 2 33.5 5t25 8.5t19 14t16.5 22.5l429 708h29l170 -707q7 -28 22 -37.5t51 -13.5l-2 -10h-93zM645 373l-79 339l-202 -339h281z" />
    <glyph glyph-name="Aring" unicode="&#xc5;" horiz-adv-x="891" 
d="M600 832q-30 0 -48.5 20t-18.5 48q0 19 8.5 35.5t22 29.5t31 20.5t36.5 7.5q29 0 47.5 -19.5t18.5 -48.5q0 -18 -8.5 -35t-22 -30t-31 -20.5t-35.5 -7.5zM604 855q13 0 25.5 5.5t22.5 14.5t16 21t6 25q0 20 -13.5 34.5t-33.5 14.5q-14 0 -26.5 -5.5t-22 -14.5t-15.5 -21
t-6 -25q0 -20 13 -34.5t34 -14.5zM50 10q19 2 33.5 5t25 8.5t19 14t16.5 22.5l429 708h29l170 -707q7 -28 22 -37.5t51 -13.5l-2 -10h-195l2 10q15 3 28 4.5t22.5 4.5t14.5 8.5t5 16.5v8t-2 9l-66 282h-306l-170 -286q-8 -14 -8 -21q0 -9 7 -13.5t18 -6.5t24.5 -3.5
t27.5 -2.5l-2 -10h-195zM645 373l-79 339l-202 -339h281z" />
    <glyph glyph-name="Atilde" unicode="&#xc3;" horiz-adv-x="891" 
d="M474 839q14 46 40 70.5t57 24.5q21 0 33.5 -8.5t23 -18t21 -18t27.5 -8.5q21 0 42 15.5t36 47.5h3q-14 -46 -40 -70.5t-58 -24.5q-21 0 -33.5 8.5t-22.5 18t-20.5 18t-26.5 8.5q-21 0 -42 -15.5t-37 -47.5h-3zM50 10q19 2 33.5 5t25 8.5t19 14t16.5 22.5l429 708h29
l170 -707q7 -28 22 -37.5t51 -13.5l-2 -10h-195l2 10q15 3 28 4.5t22.5 4.5t14.5 8.5t5 16.5v8t-2 9l-66 282h-306l-170 -286q-8 -14 -8 -21q0 -9 7 -13.5t18 -6.5t24.5 -3.5t27.5 -2.5l-2 -10h-195zM645 373l-79 339l-202 -339h281z" />
    <glyph glyph-name="AE" unicode="&#xc6;" horiz-adv-x="950" 
d="M50 10q19 2 32.5 5t24 8.5t19 14t18.5 22.5l486 676q-8 5 -20.5 8t-32.5 6l2 10h425q-2 -21 -2 -38t1.5 -34t3 -37t2.5 -46h-10q-6 68 -26 96.5t-65 28.5h-185q-21 0 -28 -12.5t-11 -32.5l-51 -261h95q45 0 75.5 23.5t56.5 61.5h10q-19 -27 -38 -54.5t-19 -64.5
q0 -23 6.5 -43t11.5 -38h-10q-11 38 -32 61.5t-66 23.5h-95l-62 -319q-5 -22 -2 -33.5t23 -11.5h195q22 0 41 7t35.5 22t31.5 38.5t31 57.5h10q-11 -26 -20 -46t-17 -37t-15 -34t-13 -38h-435l2 10q25 3 40.5 7t24.5 11t14 18t8 29l52 268h-192l-204 -286q-12 -17 -9 -25.5
t14.5 -13t29 -5.5t34.5 -3l-2 -10h-195zM578 373l66 339h-2l-241 -339h177z" />
    <glyph glyph-name="B" unicode="B" horiz-adv-x="666" 
d="M51 10q27 4 42.5 8t24.5 10.5t13.5 17.5t7.5 29l120 618q3 13 2.5 22.5t-7.5 16t-21 11t-38 7.5l2 10h274q108 0 165 -45t57 -117q0 -45 -17 -80t-44 -61.5t-61.5 -44.5t-69.5 -28q34 -6 62.5 -19t49.5 -33t33 -46.5t12 -59.5q0 -43 -16.5 -83.5t-51 -72t-86.5 -51
t-124 -19.5h-331zM403 390q46 0 90 13.5t77.5 41t54 68t20.5 94.5q0 66 -44 99.5t-138 33.5h-119q-19 0 -27 -10.5t-13 -36.5l-59 -303h158zM378 16q75 0 120 25.5t69 61t31.5 71.5t7.5 57q0 67 -48.5 103t-128.5 36h-188l-57 -295q-7 -35 4.5 -47t58.5 -12h131z" />
    <glyph glyph-name="C" unicode="C" horiz-adv-x="816" 
d="M404 -11q-61 0 -114 21t-92 60.5t-61.5 96.5t-22.5 130q0 100 38.5 186t104 149.5t151 99.5t179.5 36q54 0 94.5 -11.5t67.5 -26.5t41.5 -29t16.5 -19l-44 -222h-5q15 76 4.5 127.5t-38.5 83.5t-69 46t-87 14q-24 0 -58 -4.5t-73.5 -17t-80 -35t-76.5 -59t-64 -89
t-42 -124.5q-18 -106 0.5 -178t59 -116t96 -63t109.5 -19q56 0 110 18t103 53t92 86.5t77 117.5h5q-32 -67 -76 -124t-98 -99t-116.5 -65.5t-131.5 -23.5z" />
    <glyph glyph-name="Cacute" unicode="&#x106;" horiz-adv-x="816" 
d="M499 810q38 55 66 91.5t48 58t33 30t21 8.5q14 0 14 -11q0 -12 -17 -33t-43 -45.5t-56.5 -50.5t-57.5 -48h-8zM404 -11q-61 0 -114 21t-92 60.5t-61.5 96.5t-22.5 130q0 100 38.5 186t104 149.5t151 99.5t179.5 36q54 0 94.5 -11.5t67.5 -26.5t41.5 -29t16.5 -19
l-44 -222h-5q15 76 4.5 127.5t-38.5 83.5t-69 46t-87 14q-24 0 -58 -4.5t-73.5 -17t-80 -35t-76.5 -59t-64 -89t-42 -124.5q-18 -106 0.5 -178t59 -116t96 -63t109.5 -19q56 0 110 18t103 53t92 86.5t77 117.5h5q-32 -67 -76 -124t-98 -99t-116.5 -65.5t-131.5 -23.5z" />
    <glyph glyph-name="Ccaron" unicode="&#x10c;" horiz-adv-x="816" 
d="M730 998q-43 -56 -69 -92.5t-42.5 -57.5t-26.5 -29.5t-19 -8.5t-16 8.5t-15 29.5t-20 57.5t-33 92.5h8q24 -37 47 -72.5t38 -68.5q27 33 64.5 68.5t75.5 72.5h8zM404 -11q-61 0 -114 21t-92 60.5t-61.5 96.5t-22.5 130q0 100 38.5 186t104 149.5t151 99.5t179.5 36
q54 0 94.5 -11.5t67.5 -26.5t41.5 -29t16.5 -19l-44 -222h-5q15 76 4.5 127.5t-38.5 83.5t-69 46t-87 14q-24 0 -58 -4.5t-73.5 -17t-80 -35t-76.5 -59t-64 -89t-42 -124.5q-18 -106 0.5 -178t59 -116t96 -63t109.5 -19q56 0 110 18t103 53t92 86.5t77 117.5h5
q-32 -67 -76 -124t-98 -99t-116.5 -65.5t-131.5 -23.5z" />
    <glyph glyph-name="Ccedilla" unicode="&#xc7;" horiz-adv-x="816" 
d="M826 301q-31 -65 -73 -120t-93 -96.5t-110 -66t-124 -28.5l-36 -47q35 0 50 -15.5t15 -37.5q0 -15 -7.5 -31.5t-20.5 -30.5t-31 -23t-39 -9q-15 0 -29 4.5t-25 12.5l1 5q11 -5 22.5 -7.5t22.5 -2.5q34 0 55 19t21 41q0 17 -15 31t-49 14l4 19l44 57h-5q-61 0 -114 21
t-92 60.5t-61.5 96.5t-22.5 130q0 100 38.5 186t104 149.5t151 99.5t179.5 36q54 0 94.5 -11.5t67.5 -26.5t41.5 -29t16.5 -19l-44 -222h-5q15 76 4.5 127.5t-38.5 83.5t-69 46t-87 14q-24 0 -58 -4.5t-73.5 -17t-80 -35t-76.5 -59t-64 -89t-42 -124.5q-18 -106 0.5 -178
t59 -116t96 -63t109.5 -19q56 0 110 18t103 53t92 86.5t77 117.5h5v0z" />
    <glyph glyph-name="Cdotaccent" unicode="&#x10a;" horiz-adv-x="816" 
d="M576 860q-21 0 -32 12t-11 30q0 25 18 43.5t45 18.5q20 0 31.5 -12.5t11.5 -30.5q0 -26 -18.5 -43.5t-44.5 -17.5zM404 -11q-61 0 -114 21t-92 60.5t-61.5 96.5t-22.5 130q0 100 38.5 186t104 149.5t151 99.5t179.5 36q54 0 94.5 -11.5t67.5 -26.5t41.5 -29t16.5 -19
l-44 -222h-5q15 76 4.5 127.5t-38.5 83.5t-69 46t-87 14q-24 0 -58 -4.5t-73.5 -17t-80 -35t-76.5 -59t-64 -89t-42 -124.5q-18 -106 0.5 -178t59 -116t96 -63t109.5 -19q56 0 110 18t103 53t92 86.5t77 117.5h5q-32 -67 -76 -124t-98 -99t-116.5 -65.5t-131.5 -23.5z" />
    <glyph glyph-name="D" unicode="D" horiz-adv-x="780" 
d="M51 10q27 4 42.5 8t24.5 11t13.5 18t7.5 28l120 618q3 13 2.5 22.5t-7.5 16t-21 11t-38 7.5l2 10h335q139 0 215.5 -73.5t76.5 -219.5q0 -96 -33.5 -181t-92 -148.5t-139 -100.5t-174.5 -37h-336zM360 20q86 0 161 37.5t130.5 99.5t87 142t31.5 164q0 140 -70.5 208.5
t-199.5 68.5h-156q-19 0 -27 -10.5t-13 -36.5l-120 -618q-3 -17 -2.5 -27.5t7 -16.5t21 -8.5t38.5 -2.5h112z" />
    <glyph glyph-name="Eth" unicode="&#xd0;" horiz-adv-x="780" 
d="M532 760q139 0 215.5 -73.5t76.5 -219.5q0 -96 -33.5 -181t-92 -148.5t-139 -100.5t-174.5 -37h-336l2 10q27 4 42.5 8t24.5 11t13.5 18t7.5 28l56 286h-98l7 38h98l57 294q3 13 2.5 22.5t-7.5 16t-21 11t-38 7.5l2 10h335zM360 20q86 0 161 37.5t130.5 99.5t87 142
t31.5 164q0 140 -70.5 208.5t-199.5 68.5h-156q-19 0 -27 -10.5t-13 -36.5l-57 -294h100l-7 -38h-100l-56 -286q-3 -17 -2.5 -27.5t7 -16.5t21 -8.5t38.5 -2.5h112z" />
    <glyph glyph-name="Dcaron" unicode="&#x10e;" horiz-adv-x="780" 
d="M673 998q-43 -56 -69 -92.5t-42.5 -57.5t-26.5 -29.5t-19 -8.5t-16 8.5t-15 29.5t-20 57.5t-33 92.5h8q24 -37 47 -72.5t38 -68.5q27 33 64.5 68.5t75.5 72.5h8zM51 10q27 4 42.5 8t24.5 11t13.5 18t7.5 28l120 618q3 13 2.5 22.5t-7.5 16t-21 11t-38 7.5l2 10h335
q139 0 215.5 -73.5t76.5 -219.5q0 -96 -33.5 -181t-92 -148.5t-139 -100.5t-174.5 -37h-336zM360 20q86 0 161 37.5t130.5 99.5t87 142t31.5 164q0 140 -70.5 208.5t-199.5 68.5h-156q-19 0 -27 -10.5t-13 -36.5l-120 -618q-3 -17 -2.5 -27.5t7 -16.5t21 -8.5t38.5 -2.5h112
z" />
    <glyph glyph-name="Dcroat" unicode="&#x110;" horiz-adv-x="780" 
d="M532 760q139 0 215.5 -73.5t76.5 -219.5q0 -96 -33.5 -181t-92 -148.5t-139 -100.5t-174.5 -37h-336l2 10q27 4 42.5 8t24.5 11t13.5 18t7.5 28l56 286h-98l7 38h98l57 294q3 13 2.5 22.5t-7.5 16t-21 11t-38 7.5l2 10h335zM360 20q86 0 161 37.5t130.5 99.5t87 142
t31.5 164q0 140 -70.5 208.5t-199.5 68.5h-156q-19 0 -27 -10.5t-13 -36.5l-57 -294h100l-7 -38h-100l-56 -286q-3 -17 -2.5 -27.5t7 -16.5t21 -8.5t38.5 -2.5h112z" />
    <glyph glyph-name="E" unicode="E" horiz-adv-x="568" 
d="M51 10q25 3 40.5 7t24.5 11t14 18t8 29l119 610q3 18 2.5 29.5t-7.5 18t-21 10.5t-36 7l2 10h425q-2 -21 -2 -38t1.5 -34t3 -37t2.5 -46h-10q-6 68 -26 96.5t-65 28.5h-185q-21 0 -28 -12.5t-11 -32.5l-51 -261h95q45 0 75.5 23.5t56.5 61.5h10q-19 -27 -38 -54.5
t-19 -64.5q0 -23 6.5 -43t11.5 -38h-10q-11 38 -32 61.5t-66 23.5h-95l-62 -319q-5 -22 -2 -33.5t23 -11.5h195q22 0 41 7t35.5 22t31.5 38.5t31 57.5h10q-11 -26 -20 -46t-17 -37t-15 -34t-13 -38h-435z" />
    <glyph glyph-name="Eacute" unicode="&#xc9;" horiz-adv-x="568" 
d="M392 810q38 55 66 91.5t48 58t33 30t21 8.5q14 0 14 -11q0 -12 -17 -33t-43 -45.5t-56.5 -50.5t-57.5 -48h-8zM51 10q25 3 40.5 7t24.5 11t14 18t8 29l119 610q3 18 2.5 29.5t-7.5 18t-21 10.5t-36 7l2 10h425q-2 -21 -2 -38t1.5 -34t3 -37t2.5 -46h-10q-6 68 -26 96.5
t-65 28.5h-185q-21 0 -28 -12.5t-11 -32.5l-51 -261h95q45 0 75.5 23.5t56.5 61.5h10q-19 -27 -38 -54.5t-19 -64.5q0 -23 6.5 -43t11.5 -38h-10q-11 38 -32 61.5t-66 23.5h-95l-62 -319q-5 -22 -2 -33.5t23 -11.5h195q22 0 41 7t35.5 22t31.5 38.5t31 57.5h10
q-11 -26 -20 -46t-17 -37t-15 -34t-13 -38h-435z" />
    <glyph glyph-name="Ecaron" unicode="&#x11a;" horiz-adv-x="568" 
d="M592 998q-43 -56 -69 -92.5t-42.5 -57.5t-26.5 -29.5t-19 -8.5t-16 8.5t-15 29.5t-20 57.5t-33 92.5h8q24 -37 47 -72.5t38 -68.5q27 33 64.5 68.5t75.5 72.5h8zM51 10q25 3 40.5 7t24.5 11t14 18t8 29l119 610q3 18 2.5 29.5t-7.5 18t-21 10.5t-36 7l2 10h425
q-2 -21 -2 -38t1.5 -34t3 -37t2.5 -46h-10q-6 68 -26 96.5t-65 28.5h-185q-21 0 -28 -12.5t-11 -32.5l-51 -261h95q45 0 75.5 23.5t56.5 61.5h10q-19 -27 -38 -54.5t-19 -64.5q0 -23 6.5 -43t11.5 -38h-10q-11 38 -32 61.5t-66 23.5h-95l-62 -319q-5 -22 -2 -33.5t23 -11.5
h195q22 0 41 7t35.5 22t31.5 38.5t31 57.5h10q-11 -26 -20 -46t-17 -37t-15 -34t-13 -38h-435z" />
    <glyph glyph-name="Ecircumflex" unicode="&#xca;" horiz-adv-x="568" 
d="M326 810q43 56 69 92.5t42.5 57.5t26.5 29.5t19 8.5t15.5 -8.5t15 -29.5t20.5 -57.5t33 -92.5h-8q-24 37 -47 72.5t-38 68.5q-27 -33 -64.5 -68.5t-75.5 -72.5h-8zM51 10q25 3 40.5 7t24.5 11t14 18t8 29l119 610q3 18 2.5 29.5t-7.5 18t-21 10.5t-36 7l2 10h425
q-2 -21 -2 -38t1.5 -34t3 -37t2.5 -46h-10q-6 68 -26 96.5t-65 28.5h-185q-21 0 -28 -12.5t-11 -32.5l-51 -261h95q45 0 75.5 23.5t56.5 61.5h10q-19 -27 -38 -54.5t-19 -64.5q0 -23 6.5 -43t11.5 -38h-10q-11 38 -32 61.5t-66 23.5h-95l-62 -319q-5 -22 -2 -33.5t23 -11.5
h195q22 0 41 7t35.5 22t31.5 38.5t31 57.5h10q-11 -26 -20 -46t-17 -37t-15 -34t-13 -38h-435z" />
    <glyph glyph-name="Edieresis" unicode="&#xcb;" horiz-adv-x="568" 
d="M382 859q-16 0 -24 8.5t-8 22.5q0 19 13.5 32.5t33.5 13.5q14 0 23 -9t9 -23q0 -19 -13.5 -32t-33.5 -13zM512 859q-16 0 -24 8.5t-8 22.5q0 19 13.5 32.5t33.5 13.5q14 0 23 -9t9 -23q0 -19 -13.5 -32t-33.5 -13zM51 10q25 3 40.5 7t24.5 11t14 18t8 29l119 610
q3 18 2.5 29.5t-7.5 18t-21 10.5t-36 7l2 10h425q-2 -21 -2 -38t1.5 -34t3 -37t2.5 -46h-10q-6 68 -26 96.5t-65 28.5h-185q-21 0 -28 -12.5t-11 -32.5l-51 -261h95q45 0 75.5 23.5t56.5 61.5h10q-19 -27 -38 -54.5t-19 -64.5q0 -23 6.5 -43t11.5 -38h-10q-11 38 -32 61.5
t-66 23.5h-95l-62 -319q-5 -22 -2 -33.5t23 -11.5h195q22 0 41 7t35.5 22t31.5 38.5t31 57.5h10q-11 -26 -20 -46t-17 -37t-15 -34t-13 -38h-435z" />
    <glyph glyph-name="Edotaccent" unicode="&#x116;" horiz-adv-x="568" 
d="M442 860q-21 0 -32 12t-11 30q0 25 18 43.5t45 18.5q20 0 31.5 -12.5t11.5 -30.5q0 -26 -18.5 -43.5t-44.5 -17.5zM51 10q25 3 40.5 7t24.5 11t14 18t8 29l119 610q3 18 2.5 29.5t-7.5 18t-21 10.5t-36 7l2 10h425q-2 -21 -2 -38t1.5 -34t3 -37t2.5 -46h-10
q-6 68 -26 96.5t-65 28.5h-185q-21 0 -28 -12.5t-11 -32.5l-51 -261h95q45 0 75.5 23.5t56.5 61.5h10q-19 -27 -38 -54.5t-19 -64.5q0 -23 6.5 -43t11.5 -38h-10q-11 38 -32 61.5t-66 23.5h-95l-62 -319q-5 -22 -2 -33.5t23 -11.5h195q22 0 41 7t35.5 22t31.5 38.5t31 57.5
h10q-11 -26 -20 -46t-17 -37t-15 -34t-13 -38h-435z" />
    <glyph glyph-name="Egrave" unicode="&#xc8;" horiz-adv-x="568" 
d="M452 810q-17 20 -36 44.5t-35 47.5t-26 43.5t-10 33.5q0 8 4 13.5t15 5.5q8 0 18 -8.5t22 -30t26 -58t30 -91.5h-8zM51 10q25 3 40.5 7t24.5 11t14 18t8 29l119 610q3 18 2.5 29.5t-7.5 18t-21 10.5t-36 7l2 10h425q-2 -21 -2 -38t1.5 -34t3 -37t2.5 -46h-10
q-6 68 -26 96.5t-65 28.5h-185q-21 0 -28 -12.5t-11 -32.5l-51 -261h95q45 0 75.5 23.5t56.5 61.5h10q-19 -27 -38 -54.5t-19 -64.5q0 -23 6.5 -43t11.5 -38h-10q-11 38 -32 61.5t-66 23.5h-95l-62 -319q-5 -22 -2 -33.5t23 -11.5h195q22 0 41 7t35.5 22t31.5 38.5t31 57.5
h10q-11 -26 -20 -46t-17 -37t-15 -34t-13 -38h-435z" />
    <glyph glyph-name="Emacron" unicode="&#x112;" horiz-adv-x="568" 
d="M321 898h263l-7 -38h-263zM51 10q25 3 40.5 7t24.5 11t14 18t8 29l119 610q3 18 2.5 29.5t-7.5 18t-21 10.5t-36 7l2 10h425q-2 -21 -2 -38t1.5 -34t3 -37t2.5 -46h-10q-6 68 -26 96.5t-65 28.5h-185q-21 0 -28 -12.5t-11 -32.5l-51 -261h95q45 0 75.5 23.5t56.5 61.5h10
q-19 -27 -38 -54.5t-19 -64.5q0 -23 6.5 -43t11.5 -38h-10q-11 38 -32 61.5t-66 23.5h-95l-62 -319q-5 -22 -2 -33.5t23 -11.5h195q22 0 41 7t35.5 22t31.5 38.5t31 57.5h10q-11 -26 -20 -46t-17 -37t-15 -34t-13 -38h-435z" />
    <glyph glyph-name="Eogonek" unicode="&#x118;" horiz-adv-x="568" 
d="M622 760q-2 -21 -2 -38t1.5 -34t3 -37t2.5 -46h-10q-6 68 -26 96.5t-65 28.5h-185q-21 0 -28 -12.5t-11 -32.5l-51 -261h95q45 0 75.5 23.5t56.5 61.5h10q-19 -27 -38 -54.5t-19 -64.5q0 -23 6.5 -43t11.5 -38h-10q-11 38 -32 61.5t-66 23.5h-95l-62 -319
q-5 -22 -2 -33.5t23 -11.5h195q22 0 41 7t35.5 22t31.5 38.5t31 57.5h10q-11 -26 -20 -46t-17 -37t-15 -34t-13 -38h-25q-8 -6 -23 -19.5t-29.5 -32t-25.5 -40t-11 -42.5q0 -22 11.5 -34.5t31.5 -12.5q14 0 30 7t33 21h5q-22 -26 -44.5 -40t-45.5 -14t-38 15.5t-15 41.5
t14.5 51t33.5 45t37 34.5t25 19.5h-399l2 10q25 3 40.5 7t24.5 11t14 18t8 29l119 610q3 18 2.5 29.5t-7.5 18t-21 10.5t-36 7l2 10h425v0z" />
    <glyph glyph-name="F" unicode="F" horiz-adv-x="558" 
d="M51 10q25 3 40.5 7t24.5 11t14 18t8 29l119 610q3 18 2.5 29t-7.5 18t-20.5 10.5t-36.5 7.5l2 10h425q-2 -21 -2 -38t1.5 -34t3 -37t2.5 -46h-10q-6 68 -26 96.5t-65 28.5h-185q-21 0 -28 -12.5t-11 -32.5l-51 -261h95q45 0 75.5 23.5t56.5 61.5h10q-19 -27 -38 -54.5
t-19 -64.5q0 -23 6.5 -43t11.5 -38h-10q-11 38 -32 61.5t-66 23.5h-95l-62 -319q-3 -18 -3 -29t6.5 -18t20.5 -10.5t38 -7.5l-2 -10h-195z" />
    <glyph glyph-name="G" unicode="G" horiz-adv-x="761" 
d="M402 -11q-67 0 -121.5 21.5t-93.5 61.5t-60.5 97.5t-21.5 129.5q0 99 38 184.5t103 149t151.5 99.5t182.5 36q52 0 91.5 -11.5t66.5 -26.5t41.5 -29t17.5 -19l-44 -222h-5q25 127 -25 199t-169 72q-37 0 -80.5 -8t-88 -27t-86 -49.5t-73.5 -75.5t-51.5 -105.5
t-19.5 -138.5q0 -70 19.5 -125.5t56 -94.5t88.5 -60t117 -21q77 0 132 21t90 52t51.5 66.5t16.5 65.5q0 37 -26.5 60t-66.5 36.5t-87 20t-88 10.5l1 5h318l-71 -363h-6l9 125q-57 -64 -130.5 -100t-176.5 -36z" />
    <glyph glyph-name="Gbreve" unicode="&#x11e;" horiz-adv-x="761" 
d="M558 810q-24 0 -46.5 9.5t-37.5 32t-20 58t5 88.5h8q-5 -26 -3 -52t13 -47t32.5 -34t56.5 -13q34 0 61 13t46 34t31 47t17 52h8q-10 -53 -29 -88.5t-42.5 -58t-49.5 -32t-50 -9.5zM402 -11q-67 0 -121.5 21.5t-93.5 61.5t-60.5 97.5t-21.5 129.5q0 99 38 184.5t103 149
t151.5 99.5t182.5 36q52 0 91.5 -11.5t66.5 -26.5t41.5 -29t17.5 -19l-44 -222h-5q25 127 -25 199t-169 72q-37 0 -80.5 -8t-88 -27t-86 -49.5t-73.5 -75.5t-51.5 -105.5t-19.5 -138.5q0 -70 19.5 -125.5t56 -94.5t88.5 -60t117 -21q77 0 132 21t90 52t51.5 66.5t16.5 65.5
q0 37 -26.5 60t-66.5 36.5t-87 20t-88 10.5l1 5h318l-71 -363h-6l9 125q-57 -64 -130.5 -100t-176.5 -36z" />
    <glyph glyph-name="Gcommaaccent" unicode="&#x122;" horiz-adv-x="761" 
d="M402 -11q-67 0 -121.5 21.5t-93.5 61.5t-60.5 97.5t-21.5 129.5q0 99 38 184.5t103 149t151.5 99.5t182.5 36q52 0 91.5 -11.5t66.5 -26.5t41.5 -29t17.5 -19l-44 -222h-5q25 127 -25 199t-169 72q-37 0 -80.5 -8t-88 -27t-86 -49.5t-73.5 -75.5t-51.5 -105.5
t-19.5 -138.5q0 -70 19.5 -125.5t56 -94.5t88.5 -60t117 -21q77 0 132 21t90 52t51.5 66.5t16.5 65.5q0 37 -26.5 60t-66.5 36.5t-87 20t-88 10.5l1 5h318l-71 -363h-6l9 125q-57 -64 -130.5 -100t-176.5 -36zM400 -50q19 0 27.5 -15t8.5 -35q0 -14 -4 -29.5t-14.5 -32.5
t-28.5 -37.5t-45 -44.5h-6q32 32 45.5 55t13.5 40q0 13 -7 20t-14.5 13t-13.5 13t-3 21q3 16 15 24t26 8z" />
    <glyph glyph-name="Gdotaccent" unicode="&#x120;" horiz-adv-x="761" 
d="M589 860q-21 0 -32 12t-11 30q0 25 18 43.5t45 18.5q20 0 31.5 -12.5t11.5 -30.5q0 -26 -18.5 -43.5t-44.5 -17.5zM402 -11q-67 0 -121.5 21.5t-93.5 61.5t-60.5 97.5t-21.5 129.5q0 99 38 184.5t103 149t151.5 99.5t182.5 36q52 0 91.5 -11.5t66.5 -26.5t41.5 -29
t17.5 -19l-44 -222h-5q25 127 -25 199t-169 72q-37 0 -80.5 -8t-88 -27t-86 -49.5t-73.5 -75.5t-51.5 -105.5t-19.5 -138.5q0 -70 19.5 -125.5t56 -94.5t88.5 -60t117 -21q77 0 132 21t90 52t51.5 66.5t16.5 65.5q0 37 -26.5 60t-66.5 36.5t-87 20t-88 10.5l1 5h318
l-71 -363h-6l9 125q-57 -64 -130.5 -100t-176.5 -36z" />
    <glyph glyph-name="H" unicode="H" horiz-adv-x="748" 
d="M847 760l-2 -10q-26 -4 -41.5 -8t-25 -10.5t-14 -17.5t-7.5 -29l-120 -620q-3 -14 -2.5 -23t7.5 -15t21 -9.5t38 -7.5l-2 -10h-195l2 10q27 4 42.5 7.5t24.5 9.5t12.5 15t6.5 23l62 320h-410l-62 -320q-3 -14 -2.5 -23t7.5 -15t21 -9.5t38 -7.5l-2 -10h-195l2 10
q27 4 42.5 7.5t24.5 9.5t12.5 15t6.5 23l120 620q3 18 3.5 29t-6 17.5t-20.5 10.5t-39 8l2 10h195l-2 -10q-26 -4 -41.5 -8t-25 -10.5t-14 -17.5t-7.5 -29l-52 -270h410l52 270q3 18 3.5 29t-6 17.5t-20.5 10.5t-39 8l2 10h195z" />
    <glyph glyph-name="Hbar" unicode="&#x126;" horiz-adv-x="748" 
d="M845 750q-26 -4 -41.5 -8t-25 -10.5t-14 -17.5t-7.5 -29l-17 -86h51l-7 -38h-51l-96 -496q-3 -14 -2.5 -23t7.5 -15t21 -9.5t38 -7.5l-2 -10h-195l2 10q27 4 42.5 7.5t24.5 9.5t12.5 15t6.5 23l62 320h-410l-62 -320q-3 -14 -2.5 -23t7.5 -15t21 -9.5t38 -7.5l-2 -10
h-195l2 10q27 4 42.5 7.5t24.5 9.5t12.5 15t6.5 23l96 496h-52l7 38h52l17 86q3 18 3.5 29t-6 17.5t-20.5 10.5t-39 8l2 10h195l-2 -10q-26 -4 -41.5 -8t-25 -10.5t-14 -17.5t-7.5 -29l-17 -86h410l17 86q3 18 3.5 29t-6 17.5t-20.5 10.5t-39 8l2 10h195zM688 561h-410
l-28 -146h410z" />
    <glyph glyph-name="I" unicode="I" horiz-adv-x="293" 
d="M51 10q27 4 42.5 7.5t24.5 9.5t12.5 15t6.5 23l120 620q3 18 3.5 29t-6 17.5t-20.5 10.5t-39 8l2 10h195l-2 -10q-26 -4 -41.5 -8t-25 -10.5t-14 -17.5t-7.5 -29l-120 -620q-3 -14 -2.5 -23t7.5 -15t21 -9.5t38 -7.5l-2 -10h-195z" />
    <glyph glyph-name="Iacute" unicode="&#xcd;" horiz-adv-x="319" 
d="M285 810q38 55 66 91.5t48 58t33 30t21 8.5q14 0 14 -11q0 -12 -17 -33t-43 -45.5t-56.5 -50.5t-57.5 -48h-8zM51 10q27 4 42.5 7.5t24.5 9.5t12.5 15t6.5 23l120 620q3 18 3.5 29t-6 17.5t-20.5 10.5t-39 8l2 10h195l-2 -10q-26 -4 -41.5 -8t-25 -10.5t-14 -17.5
t-7.5 -29l-120 -620q-3 -14 -2.5 -23t7.5 -15t21 -9.5t38 -7.5l-2 -10h-195z" />
    <glyph glyph-name="Icircumflex" unicode="&#xce;" horiz-adv-x="293" 
d="M187 810q43 56 69 92.5t42.5 57.5t26.5 29.5t19 8.5t15.5 -8.5t15 -29.5t20.5 -57.5t33 -92.5h-8q-24 37 -47 72.5t-38 68.5q-27 -33 -64.5 -68.5t-75.5 -72.5h-8zM51 10q27 4 42.5 7.5t24.5 9.5t12.5 15t6.5 23l120 620q3 18 3.5 29t-6 17.5t-20.5 10.5t-39 8l2 10h195
l-2 -10q-26 -4 -41.5 -8t-25 -10.5t-14 -17.5t-7.5 -29l-120 -620q-3 -14 -2.5 -23t7.5 -15t21 -9.5t38 -7.5l-2 -10h-195z" />
    <glyph glyph-name="Idieresis" unicode="&#xcf;" horiz-adv-x="293" 
d="M249 860q-16 0 -24 8.5t-8 22.5q0 19 13.5 32.5t33.5 13.5q14 0 23 -9t9 -23q0 -19 -13.5 -32t-33.5 -13zM379 860q-16 0 -24 8.5t-8 22.5q0 19 13.5 32.5t33.5 13.5q14 0 23 -9t9 -23q0 -19 -13.5 -32t-33.5 -13zM51 10q27 4 42.5 7.5t24.5 9.5t12.5 15t6.5 23l120 620
q3 18 3.5 29t-6 17.5t-20.5 10.5t-39 8l2 10h195l-2 -10q-26 -4 -41.5 -8t-25 -10.5t-14 -17.5t-7.5 -29l-120 -620q-3 -14 -2.5 -23t7.5 -15t21 -9.5t38 -7.5l-2 -10h-195z" />
    <glyph glyph-name="Idotaccent" unicode="&#x130;" horiz-adv-x="293" 
d="M306 860q-21 0 -32 12t-11 30q0 25 18 43.5t45 18.5q20 0 31.5 -12.5t11.5 -30.5q0 -26 -18.5 -43.5t-44.5 -17.5zM51 10q27 4 42.5 7.5t24.5 9.5t12.5 15t6.5 23l120 620q3 18 3.5 29t-6 17.5t-20.5 10.5t-39 8l2 10h195l-2 -10q-26 -4 -41.5 -8t-25 -10.5t-14 -17.5
t-7.5 -29l-120 -620q-3 -14 -2.5 -23t7.5 -15t21 -9.5t38 -7.5l-2 -10h-195z" />
    <glyph glyph-name="Igrave" unicode="&#xcc;" horiz-adv-x="293" 
d="M311 810q-17 20 -36 44.5t-35 47.5t-26 43.5t-10 33.5q0 8 4 13.5t15 5.5q8 0 18 -8.5t22 -30t26 -58t30 -91.5h-8zM51 10q27 4 42.5 7.5t24.5 9.5t12.5 15t6.5 23l120 620q3 18 3.5 29t-6 17.5t-20.5 10.5t-39 8l2 10h195l-2 -10q-26 -4 -41.5 -8t-25 -10.5t-14 -17.5
t-7.5 -29l-120 -620q-3 -14 -2.5 -23t7.5 -15t21 -9.5t38 -7.5l-2 -10h-195z" />
    <glyph glyph-name="Imacron" unicode="&#x12a;" horiz-adv-x="361" 
d="M224 898h263l-7 -38h-263zM82 10q27 4 42.5 7.5t24.5 9.5t12.5 15t6.5 23l120 620q3 18 3.5 29t-6 17.5t-20.5 10.5t-39 8l2 10h195l-2 -10q-26 -4 -41.5 -8t-25 -10.5t-14 -17.5t-7.5 -29l-120 -620q-3 -14 -2.5 -23t7.5 -15t21 -9.5t38 -7.5l-2 -10h-195z" />
    <glyph glyph-name="Iogonek" unicode="&#x12e;" horiz-adv-x="293" 
d="M392 760l-2 -10q-26 -4 -41.5 -8t-25 -10.5t-14 -17.5t-7.5 -29l-120 -620q-3 -14 -2.5 -23t7.5 -15t21 -9.5t38 -7.5l-2 -10h-92q-8 -6 -23 -19.5t-29.5 -32t-25.5 -40t-11 -42.5q0 -22 11.5 -34.5t31.5 -12.5q14 0 30 7t33 21h5q-22 -26 -44.5 -40t-45.5 -14t-38 15.5
t-15 41.5t14.5 51t33.5 45t37 34.5t25 19.5h-92l2 10q27 4 42.5 7.5t24.5 9.5t12.5 15t6.5 23l120 620q3 18 3.5 29t-6 17.5t-20.5 10.5t-39 8l2 10h195z" />
    <glyph glyph-name="J" unicode="J" horiz-adv-x="482" 
d="M207 -11q-34 0 -58 8t-40.5 21t-26.5 29.5t-17 33.5l119 203h5q-30 -60 -46.5 -102t-16.5 -77q0 -79 91 -79q20 0 40 7t38 27.5t33.5 58.5t27.5 100l91 466q2 8 3 15t1 12q0 18 -14 25t-52 13l2 10h195l-2 -10q-26 -4 -41.5 -8t-25 -10.5t-14 -17.5t-7.5 -29
q-23 -121 -46.5 -241.5t-47.5 -241.5q-9 -44 -21.5 -82.5t-34.5 -67.5t-54.5 -46t-80.5 -17z" />
    <glyph glyph-name="K" unicode="K" horiz-adv-x="630" 
d="M701 750q-39 -4 -70.5 -14.5t-54.5 -35.5l-246 -265l187 -374q7 -14 13 -23t14 -14.5t20 -8.5t30 -5l-2 -10h-195l2 10q18 3 33 6t24.5 8t11.5 14t-5 23l-170 333l-60 -64l-51 -265q-3 -14 -2.5 -23t7.5 -15t21 -9.5t38 -7.5l-2 -10h-195l2 10q27 4 42.5 7.5t24.5 9.5
t12.5 15t6.5 23l120 620q3 18 3.5 29t-6 17.5t-20.5 10.5t-39 8l2 10h195l-2 -10q-26 -4 -41.5 -8t-25 -10.5t-14 -17.5t-7.5 -29l-61 -314l297 318q19 20 22.5 31.5t-2.5 17.5t-20.5 8t-31.5 4l2 10h195l-2 -10v0z" />
    <glyph glyph-name="Kcommaaccent" unicode="&#x136;" horiz-adv-x="630" 
d="M701 750q-39 -4 -70.5 -14.5t-54.5 -35.5l-246 -265l187 -374q7 -14 13 -23t14 -14.5t20 -8.5t30 -5l-2 -10h-195l2 10q18 3 33 6t24.5 8t11.5 14t-5 23l-170 333l-60 -64l-51 -265q-3 -14 -2.5 -23t7.5 -15t21 -9.5t38 -7.5l-2 -10h-195l2 10q27 4 42.5 7.5t24.5 9.5
t12.5 15t6.5 23l120 620q3 18 3.5 29t-6 17.5t-20.5 10.5t-39 8l2 10h195l-2 -10q-26 -4 -41.5 -8t-25 -10.5t-14 -17.5t-7.5 -29l-61 -314l297 318q19 20 22.5 31.5t-2.5 17.5t-20.5 8t-31.5 4l2 10h195zM299 -50q19 0 27.5 -15t8.5 -35q0 -14 -4 -29.5t-14.5 -32.5
t-28.5 -37.5t-45 -44.5h-6q32 32 45.5 55t13.5 40q0 13 -7 20t-14.5 13t-13.5 13t-3 21q3 16 15 24t26 8z" />
    <glyph glyph-name="L" unicode="L" horiz-adv-x="528" 
d="M51 10q25 3 40.5 7t24.5 10.5t14 18t9 29.5l118 610q3 18 3.5 29t-6 17.5t-20.5 10.5t-39 8l2 10h195l-2 -10q-26 -4 -41.5 -8t-25 -10.5t-14 -17.5t-7.5 -29l-120 -620q-3 -16 3 -25.5t20 -9.5h195q22 0 41 7t35.5 22t31.5 38.5t31 57.5h10q-11 -26 -20 -46t-17 -37
t-15 -34t-13 -38h-435z" />
    <glyph glyph-name="Lacute" unicode="&#x139;" horiz-adv-x="528" 
d="M283 810q38 55 66 91.5t48 58t33 30t21 8.5q14 0 14 -11q0 -12 -17 -33t-43 -45.5t-56.5 -50.5t-57.5 -48h-8zM51 10q25 3 40.5 7t24.5 10.5t14 18t9 29.5l118 610q3 18 3.5 29t-6 17.5t-20.5 10.5t-39 8l2 10h195l-2 -10q-26 -4 -41.5 -8t-25 -10.5t-14 -17.5t-7.5 -29
l-120 -620q-3 -16 3 -25.5t20 -9.5h195q22 0 41 7t35.5 22t31.5 38.5t31 57.5h10q-11 -26 -20 -46t-17 -37t-15 -34t-13 -38h-435z" />
    <glyph glyph-name="Lcaron" unicode="&#x13d;" horiz-adv-x="528" 
d="M399 525q29 29 45 54t21 49q2 6 2 13.5v15.5q0 20 -4 41t-13 35q4 22 18.5 30.5t28.5 8.5q16 0 26 -9.5t10 -28.5q0 -3 -0.5 -6.5t-1.5 -8.5q-3 -16 -12.5 -39.5t-25.5 -50.5t-37 -54t-47 -50h-10zM51 10q25 3 40.5 7t24.5 10.5t14 18t9 29.5l118 610q3 18 3.5 29
t-6 17.5t-20.5 10.5t-39 8l2 10h195l-2 -10q-26 -4 -41.5 -8t-25 -10.5t-14 -17.5t-7.5 -29l-120 -620q-3 -16 3 -25.5t20 -9.5h195q22 0 41 7t35.5 22t31.5 38.5t31 57.5h10q-11 -26 -20 -46t-17 -37t-15 -34t-13 -38h-435z" />
    <glyph glyph-name="Lcommaaccent" unicode="&#x13b;" horiz-adv-x="528" 
d="M51 10q25 3 40.5 7t24.5 10.5t14 18t9 29.5l118 610q3 18 3.5 29t-6 17.5t-20.5 10.5t-39 8l2 10h195l-2 -10q-26 -4 -41.5 -8t-25 -10.5t-14 -17.5t-7.5 -29l-120 -620q-3 -16 3 -25.5t20 -9.5h195q22 0 41 7t35.5 22t31.5 38.5t31 57.5h10q-11 -26 -20 -46t-17 -37
t-15 -34t-13 -38h-435zM288 -50q19 0 27.5 -15t8.5 -35q0 -14 -4 -29.5t-14.5 -32.5t-28.5 -37.5t-45 -44.5h-6q32 32 45.5 55t13.5 40q0 13 -7 20t-14.5 13t-13.5 13t-3 21q3 16 15 24t26 8z" />
    <glyph glyph-name="Lslash" unicode="&#x141;" horiz-adv-x="528" 
d="M549 155q-11 -26 -20 -46t-17 -37t-15 -34t-13 -38h-435l2 10q25 3 40.5 7t24.5 10.5t14 18t9 29.5l53 275l-138 -53l8 38l138 53l57 297q3 18 3.5 29t-6 17.5t-20.5 10.5t-39 8l2 10h195l-2 -10q-26 -4 -41.5 -8t-25 -10.5t-14 -17.5t-7.5 -29l-54 -278l144 56l-8 -39
l-143 -55l-59 -304q-3 -16 3 -25.5t20 -9.5h195q22 0 41 7t35.5 22t31.5 38.5t31 57.5h10z" />
    <glyph glyph-name="M" unicode="M" horiz-adv-x="877" 
d="M974 750q-26 -4 -41.5 -6t-24 -7t-13 -14.5t-7.5 -27.5l-120 -620q-3 -18 -3 -29t6.5 -17.5t20.5 -10.5t38 -8l-2 -10h-195l2 10q27 4 42.5 8t24.5 10.5t13.5 17.5t7.5 29l110 567l-378 -642h-30l-133 627l-107 -552q-3 -18 -3 -29t6 -17.5t20 -10.5t38 -8l-2 -10h-195
l2 10q27 4 42.5 8t24.5 10.5t13 17.5t7 29l121 620q3 17 3 26.5t-6.5 14.5t-21 7.5t-39.5 6.5l2 10h121l143 -704l406 704h109z" />
    <glyph glyph-name="N" unicode="N" horiz-adv-x="702" 
d="M51 10q27 4 42.5 8t24.5 10.5t13 17.5t7 29l119 610q3 17 3.5 28t-6 18t-20.5 11t-39 8l2 10h121l241 -629l108 554q3 17 3.5 28t-6 18t-20.5 11t-39 8l2 10h195l-2 -10q-26 -4 -41.5 -8t-25 -10.5t-14 -17.5t-7.5 -29l-133 -685h-25l-254 669l-115 -594q-3 -18 -3 -29
t6 -18t20 -10.5t38 -7.5l-2 -10h-195z" />
    <glyph glyph-name="Nacute" unicode="&#x143;" horiz-adv-x="702" 
d="M440 810q38 55 66 91.5t48 58t33 30t21 8.5q14 0 14 -11q0 -12 -17 -33t-43 -45.5t-56.5 -50.5t-57.5 -48h-8zM51 10q27 4 42.5 8t24.5 10.5t13 17.5t7 29l119 610q3 17 3.5 28t-6 18t-20.5 11t-39 8l2 10h121l241 -629l108 554q3 17 3.5 28t-6 18t-20.5 11t-39 8l2 10
h195l-2 -10q-26 -4 -41.5 -8t-25 -10.5t-14 -17.5t-7.5 -29l-133 -685h-25l-254 669l-115 -594q-3 -18 -3 -29t6 -18t20 -10.5t38 -7.5l-2 -10h-195z" />
    <glyph glyph-name="Ncaron" unicode="&#x147;" horiz-adv-x="702" 
d="M642 998q-43 -56 -69 -92.5t-42.5 -57.5t-26.5 -29.5t-19 -8.5t-16 8.5t-15 29.5t-20 57.5t-33 92.5h8q24 -37 47 -72.5t38 -68.5q27 33 64.5 68.5t75.5 72.5h8zM51 10q27 4 42.5 8t24.5 10.5t13 17.5t7 29l119 610q3 17 3.5 28t-6 18t-20.5 11t-39 8l2 10h121l241 -629
l108 554q3 17 3.5 28t-6 18t-20.5 11t-39 8l2 10h195l-2 -10q-26 -4 -41.5 -8t-25 -10.5t-14 -17.5t-7.5 -29l-133 -685h-25l-254 669l-115 -594q-3 -18 -3 -29t6 -18t20 -10.5t38 -7.5l-2 -10h-195z" />
    <glyph glyph-name="Ncommaaccent" unicode="&#x145;" horiz-adv-x="702" 
d="M51 10q27 4 42.5 8t24.5 10.5t13 17.5t7 29l119 610q3 17 3.5 28t-6 18t-20.5 11t-39 8l2 10h121l241 -629l108 554q3 17 3.5 28t-6 18t-20.5 11t-39 8l2 10h195l-2 -10q-26 -4 -41.5 -8t-25 -10.5t-14 -17.5t-7.5 -29l-133 -685h-25l-254 669l-115 -594q-3 -18 -3 -29
t6 -18t20 -10.5t38 -7.5l-2 -10h-195zM365 -50q19 0 27.5 -15t8.5 -35q0 -14 -4 -29.5t-14.5 -32.5t-28.5 -37.5t-45 -44.5h-6q32 32 45.5 55t13.5 40q0 13 -7 20t-14.5 13t-13.5 13t-3 21q3 16 15 24t26 8z" />
    <glyph glyph-name="Eng" unicode="&#x14a;" horiz-adv-x="702" 
d="M802 760l-2 -10q-26 -4 -41.5 -8t-25 -10.5t-14 -17.5t-7.5 -29l-56 -286h1q-17 -87 -34 -172.5t-34 -172.5l-10 -54q-9 -43 -22 -80.5t-34.5 -65.5t-54 -44.5t-79.5 -16.5q-34 0 -58 8t-40.5 21t-26.5 29.5t-17 33.5l119 203h5q-30 -60 -46.5 -102t-16.5 -77
q0 -79 91 -79q20 0 40 7t38 27.5t33.5 58.5t27.5 100l2 13l-240 633l-115 -594q-3 -18 -3 -29t6 -18t20 -10.5t38 -7.5l-2 -10h-195l2 10q27 4 42.5 8t24.5 10.5t13 17.5t7 29l119 610q3 17 3.5 28t-6 18t-20.5 11t-39 8l2 10h121l241 -629l52 268l56 286q3 17 3.5 28t-6 18
t-20.5 11t-39 8l2 10h195z" />
    <glyph glyph-name="Ntilde" unicode="&#xd1;" horiz-adv-x="702" 
d="M351 829q14 46 40 70.5t57 24.5q21 0 33.5 -8.5t23 -18t21 -18t27.5 -8.5q21 0 42 15.5t36 47.5h3q-14 -46 -40 -70.5t-58 -24.5q-21 0 -33.5 8.5t-22.5 18t-20.5 18t-26.5 8.5q-21 0 -42 -15.5t-37 -47.5h-3zM51 10q27 4 42.5 8t24.5 10.5t13 17.5t7 29l119 610
q3 17 3.5 28t-6 18t-20.5 11t-39 8l2 10h121l241 -629l108 554q3 17 3.5 28t-6 18t-20.5 11t-39 8l2 10h195l-2 -10q-26 -4 -41.5 -8t-25 -10.5t-14 -17.5t-7.5 -29l-133 -685h-25l-254 669l-115 -594q-3 -18 -3 -29t6 -18t20 -10.5t38 -7.5l-2 -10h-195z" />
    <glyph glyph-name="O" unicode="O" horiz-adv-x="803" 
d="M386 -11q-61 0 -112.5 23t-88.5 65t-58 100t-21 128q0 68 18.5 128.5t51 112t75.5 92.5t93 70t104 44.5t107 15.5q63 0 116 -24t92 -66t60.5 -99.5t21.5 -124.5q0 -100 -41.5 -185t-107 -147.5t-147.5 -97.5t-163 -35zM415 26q34 0 75 8.5t83 28.5t81 51.5t69 77.5
t48.5 107.5t18.5 140.5q0 72 -21.5 126.5t-57.5 91t-83 55t-98 18.5q-45 0 -101 -17t-108.5 -54.5t-95 -98.5t-59.5 -149q-9 -51 -9 -96q0 -75 23 -129.5t60 -90.5t83 -53t92 -17z" />
    <glyph glyph-name="Oacute" unicode="&#xd3;" horiz-adv-x="803" 
d="M530 810q38 55 66 91.5t48 58t33 30t21 8.5q14 0 14 -11q0 -12 -17 -33t-43 -45.5t-56.5 -50.5t-57.5 -48h-8zM386 -11q-61 0 -112.5 23t-88.5 65t-58 100t-21 128q0 68 18.5 128.5t51 112t75.5 92.5t93 70t104 44.5t107 15.5q63 0 116 -24t92 -66t60.5 -99.5
t21.5 -124.5q0 -100 -41.5 -185t-107 -147.5t-147.5 -97.5t-163 -35zM415 26q34 0 75 8.5t83 28.5t81 51.5t69 77.5t48.5 107.5t18.5 140.5q0 72 -21.5 126.5t-57.5 91t-83 55t-98 18.5q-45 0 -101 -17t-108.5 -54.5t-95 -98.5t-59.5 -149q-9 -51 -9 -96q0 -75 23 -129.5
t60 -90.5t83 -53t92 -17z" />
    <glyph glyph-name="Ocircumflex" unicode="&#xd4;" horiz-adv-x="803" 
d="M433 810q43 56 69 92.5t42.5 57.5t26.5 29.5t19 8.5t15.5 -8.5t15 -29.5t20.5 -57.5t33 -92.5h-8q-24 37 -47 72.5t-38 68.5q-27 -33 -64.5 -68.5t-75.5 -72.5h-8zM386 -11q-61 0 -112.5 23t-88.5 65t-58 100t-21 128q0 68 18.5 128.5t51 112t75.5 92.5t93 70t104 44.5
t107 15.5q63 0 116 -24t92 -66t60.5 -99.5t21.5 -124.5q0 -100 -41.5 -185t-107 -147.5t-147.5 -97.5t-163 -35zM415 26q34 0 75 8.5t83 28.5t81 51.5t69 77.5t48.5 107.5t18.5 140.5q0 72 -21.5 126.5t-57.5 91t-83 55t-98 18.5q-45 0 -101 -17t-108.5 -54.5t-95 -98.5
t-59.5 -149q-9 -51 -9 -96q0 -75 23 -129.5t60 -90.5t83 -53t92 -17z" />
    <glyph glyph-name="Odieresis" unicode="&#xd6;" horiz-adv-x="803" 
d="M483 859q-16 0 -24 8.5t-8 22.5q0 19 13.5 32.5t33.5 13.5q14 0 23 -9t9 -23q0 -19 -13.5 -32t-33.5 -13zM613 859q-16 0 -24 8.5t-8 22.5q0 19 13.5 32.5t33.5 13.5q14 0 23 -9t9 -23q0 -19 -13.5 -32t-33.5 -13zM386 -11q-61 0 -112.5 23t-88.5 65t-58 100t-21 128
q0 68 18.5 128.5t51 112t75.5 92.5t93 70t104 44.5t107 15.5q63 0 116 -24t92 -66t60.5 -99.5t21.5 -124.5q0 -100 -41.5 -185t-107 -147.5t-147.5 -97.5t-163 -35zM415 26q34 0 75 8.5t83 28.5t81 51.5t69 77.5t48.5 107.5t18.5 140.5q0 72 -21.5 126.5t-57.5 91t-83 55
t-98 18.5q-45 0 -101 -17t-108.5 -54.5t-95 -98.5t-59.5 -149q-9 -51 -9 -96q0 -75 23 -129.5t60 -90.5t83 -53t92 -17z" />
    <glyph glyph-name="Ograve" unicode="&#xd2;" horiz-adv-x="803" 
d="M550 810q-17 20 -36 44.5t-35 47.5t-26 43.5t-10 33.5q0 8 4 13.5t15 5.5q8 0 18 -8.5t22 -30t26 -58t30 -91.5h-8zM386 -11q-61 0 -112.5 23t-88.5 65t-58 100t-21 128q0 68 18.5 128.5t51 112t75.5 92.5t93 70t104 44.5t107 15.5q63 0 116 -24t92 -66t60.5 -99.5
t21.5 -124.5q0 -100 -41.5 -185t-107 -147.5t-147.5 -97.5t-163 -35zM415 26q34 0 75 8.5t83 28.5t81 51.5t69 77.5t48.5 107.5t18.5 140.5q0 72 -21.5 126.5t-57.5 91t-83 55t-98 18.5q-45 0 -101 -17t-108.5 -54.5t-95 -98.5t-59.5 -149q-9 -51 -9 -96q0 -75 23 -129.5
t60 -90.5t83 -53t92 -17z" />
    <glyph glyph-name="Ohungarumlaut" unicode="&#x150;" horiz-adv-x="803" 
d="M425 810q38 55 66 91.5t48 58t33 30t21 8.5q14 0 14 -11q0 -12 -17 -33t-43 -45.5t-56.5 -50.5t-57.5 -48h-8zM555 810q38 55 66 91.5t48 58t33 30t21 8.5q14 0 14 -11q0 -12 -17 -33t-43 -45.5t-56.5 -50.5t-57.5 -48h-8zM386 -11q-61 0 -112.5 23t-88.5 65t-58 100
t-21 128q0 68 18.5 128.5t51 112t75.5 92.5t93 70t104 44.5t107 15.5q63 0 116 -24t92 -66t60.5 -99.5t21.5 -124.5q0 -100 -41.5 -185t-107 -147.5t-147.5 -97.5t-163 -35zM415 26q34 0 75 8.5t83 28.5t81 51.5t69 77.5t48.5 107.5t18.5 140.5q0 72 -21.5 126.5t-57.5 91
t-83 55t-98 18.5q-45 0 -101 -17t-108.5 -54.5t-95 -98.5t-59.5 -149q-9 -51 -9 -96q0 -75 23 -129.5t60 -90.5t83 -53t92 -17z" />
    <glyph glyph-name="Omacron" unicode="&#x14c;" horiz-adv-x="803" 
d="M439 898h263l-7 -38h-263zM386 -11q-61 0 -112.5 23t-88.5 65t-58 100t-21 128q0 68 18.5 128.5t51 112t75.5 92.5t93 70t104 44.5t107 15.5q63 0 116 -24t92 -66t60.5 -99.5t21.5 -124.5q0 -100 -41.5 -185t-107 -147.5t-147.5 -97.5t-163 -35zM415 26q34 0 75 8.5
t83 28.5t81 51.5t69 77.5t48.5 107.5t18.5 140.5q0 72 -21.5 126.5t-57.5 91t-83 55t-98 18.5q-45 0 -101 -17t-108.5 -54.5t-95 -98.5t-59.5 -149q-9 -51 -9 -96q0 -75 23 -129.5t60 -90.5t83 -53t92 -17z" />
    <glyph glyph-name="Oslash" unicode="&#xd8;" horiz-adv-x="803" 
d="M762 679q39 -42 61 -99.5t22 -125.5q0 -100 -41.5 -185t-107 -147.5t-147.5 -97.5t-163 -35q-54 0 -100.5 18t-82.5 51l-62 -69h-46l85 94q-35 42 -54.5 98t-19.5 124t18.5 128.5t51 112t75.5 92.5t93 70t104 44.5t107 15.5q54 0 99.5 -17t82.5 -48l51 57h47zM157 316
q0 -62 16 -110t43 -83l487 543q-35 32 -79.5 48.5t-93.5 16.5q-45 0 -101 -17t-108.5 -54.5t-95 -98.5t-59.5 -149q-9 -51 -9 -96zM415 26q34 0 75 8.5t83 28.5t81 51.5t69 77.5t48.5 107.5t18.5 140.5q0 64 -17 114t-46 86l-488 -542q37 -37 83 -54.5t93 -17.5z" />
    <glyph glyph-name="Otilde" unicode="&#xd5;" horiz-adv-x="803" 
d="M441 829q14 46 40 70.5t57 24.5q21 0 33.5 -8.5t23 -18t21 -18t27.5 -8.5q21 0 42 15.5t36 47.5h3q-14 -46 -40 -70.5t-58 -24.5q-21 0 -33.5 8.5t-22.5 18t-20.5 18t-26.5 8.5q-21 0 -42 -15.5t-37 -47.5h-3zM386 -11q-61 0 -112.5 23t-88.5 65t-58 100t-21 128
q0 68 18.5 128.5t51 112t75.5 92.5t93 70t104 44.5t107 15.5q63 0 116 -24t92 -66t60.5 -99.5t21.5 -124.5q0 -100 -41.5 -185t-107 -147.5t-147.5 -97.5t-163 -35zM415 26q34 0 75 8.5t83 28.5t81 51.5t69 77.5t48.5 107.5t18.5 140.5q0 72 -21.5 126.5t-57.5 91t-83 55
t-98 18.5q-45 0 -101 -17t-108.5 -54.5t-95 -98.5t-59.5 -149q-9 -51 -9 -96q0 -75 23 -129.5t60 -90.5t83 -53t92 -17z" />
    <glyph glyph-name="OE" unicode="&#x152;" horiz-adv-x="1008" 
d="M386 -11q-61 0 -112.5 23t-88.5 65t-58 100t-21 128q0 68 18.5 128.5t51 112t75.5 92.5t93 70t104 44.5t107 15.5q39 0 78.5 -10t72.5 -29l6 31h350q-1 -10 -1.5 -19t-0.5 -18q0 -26 2.5 -52t4.5 -66h-10q-6 68 -26 96.5t-65 28.5h-185q-21 0 -28 -12.5t-11 -32.5
l-51 -261h95q45 0 75.5 23.5t56.5 61.5h10q-19 -27 -38 -54.5t-19 -64.5q0 -23 6.5 -43t11.5 -38h-10q-11 38 -32 61.5t-66 23.5h-95l-62 -319q-3 -14 -3 -23q0 -11 5 -16.5t19 -5.5h195q22 0 41 7t35.5 22t31.5 38.5t31 57.5h10q-11 -26 -20 -46t-17 -37t-15 -34t-13 -38
h-360l7 37q-54 -28 -101.5 -38t-83.5 -10zM415 26q26 0 51 4.5t46.5 11t38.5 14t27 13.5l1 6l117 602q-26 21 -69 37.5t-97 16.5q-45 0 -101 -17t-108.5 -54.5t-95 -98.5t-59.5 -149q-9 -51 -9 -96q0 -75 23 -129.5t60 -90.5t83 -53t92 -17z" />
    <glyph glyph-name="P" unicode="P" horiz-adv-x="629" 
d="M51 10q27 4 42.5 8t24.5 11t13 18t7 28l121 618q3 13 2.5 22.5t-7.5 16t-21 11t-38 7.5l2 10h289q42 0 79.5 -10.5t66 -31t45 -51t16.5 -69.5q0 -58 -25 -101t-65 -71t-90.5 -42t-102.5 -14h-169l-57 -295q-3 -18 -3 -29t6.5 -18t20.5 -10.5t38 -7.5l-2 -10h-195z
M409 390q52 0 95.5 15.5t74.5 43.5t48 67.5t17 87.5q0 67 -44 101.5t-123 34.5h-133q-19 0 -27 -10.5t-13 -36.5l-59 -303h164z" />
    <glyph glyph-name="Thorn" unicode="&#xde;" horiz-adv-x="629" 
d="M51 10q27 4 42.5 7.5t24.5 9.5t12.5 15t6.5 23l120 620q2 8 3 15t1 12q0 18 -14 25t-52 13l2 10h195l-2 -10q-26 -4 -41.5 -8t-25 -10.5t-14 -17.5t-7.5 -29l-16 -85h169q42 0 79.5 -10.5t66 -31t45 -51t16.5 -69.5q0 -58 -25 -101t-65 -71t-90.5 -42t-102.5 -14h-169
l-28 -145q-1 -5 -1.5 -10t-0.5 -9q0 -16 13.5 -23t52.5 -13l-2 -10h-195zM378 230q52 0 95.5 15.5t74.5 43.5t48 67.5t17 87.5q0 67 -44 101.5t-123 34.5h-133q-19 0 -27 -10.5t-13 -36.5l-52 -265q-1 -5 -1 -8.5v-6.5q0 -23 25 -23h133z" />
    <glyph glyph-name="Q" unicode="Q" horiz-adv-x="835" 
d="M595 -80q42 0 87 15.5t78 51.5h5q-37 -46 -90 -76t-110 -30q-45 0 -75.5 17.5t-55.5 38.5t-50 38.5t-59 17.5q-23 0 -48.5 -8.5t-49.5 -22.5t-44 -31.5t-33 -34.5h-5q23 37 58.5 67t76.5 46q-39 16 -71.5 44t-55 66.5t-35 85t-12.5 100.5q0 68 18.5 128.5t51 112
t75.5 92.5t93 70t104 44.5t107 15.5q63 0 116 -24t92 -66t60.5 -99.5t21.5 -124.5q0 -92 -35.5 -172t-93.5 -141t-131 -100t-149 -49q16 -11 31 -24t33.5 -23.5t41 -17.5t53.5 -7zM157 316q0 -75 23 -129.5t60 -90.5t83 -53t92 -17q34 0 75 8.5t83 28.5t81 51.5t69 77.5
t48.5 107.5t18.5 140.5q0 72 -21.5 126.5t-57.5 91t-83 55t-98 18.5q-45 0 -101 -17t-108.5 -54.5t-95 -98.5t-59.5 -149q-9 -51 -9 -96z" />
    <glyph glyph-name="R" unicode="R" horiz-adv-x="657" 
d="M693 598q0 -58 -25 -101t-65 -71t-90.5 -42t-102.5 -14h-21l125 -303q13 -32 37 -43.5t60 -13.5l-2 -10h-215l2 10q18 3 33.5 4.5t25.5 6t13 13.5t-4 27l-127 309h-96l-57 -295q-3 -18 -3 -29t6.5 -18t20.5 -10.5t38 -7.5l-2 -10h-195l2 10q27 4 42.5 8t24.5 11t13 18
t7 28l121 618q3 13 2.5 22.5t-7.5 16t-21 11t-38 7.5l2 10h289q42 0 79.5 -10.5t66 -31t45 -51t16.5 -69.5zM409 390q52 0 95.5 15.5t74.5 43.5t48 67.5t17 87.5q0 67 -44 101.5t-123 34.5h-133q-19 0 -27 -10.5t-13 -36.5l-59 -303h164z" />
    <glyph glyph-name="Racute" unicode="&#x154;" horiz-adv-x="657" 
d="M589 987q0 -12 -17 -33t-43 -45.5t-56.5 -50.5t-57.5 -48h-8q38 55 66 91.5t48 58t33 30t21 8.5q14 0 14 -11zM693 598q0 -58 -25 -101t-65 -71t-90.5 -42t-102.5 -14h-21l125 -303q13 -32 37 -43.5t60 -13.5l-2 -10h-215l2 10q18 3 33.5 4.5t25.5 6t13 13.5t-4 27
l-127 309h-96l-57 -295q-3 -18 -3 -29t6.5 -18t20.5 -10.5t38 -7.5l-2 -10h-195l2 10q27 4 42.5 8t24.5 11t13 18t7 28l121 618q3 13 2.5 22.5t-7.5 16t-21 11t-38 7.5l2 10h289q42 0 79.5 -10.5t66 -31t45 -51t16.5 -69.5zM409 390q52 0 95.5 15.5t74.5 43.5t48 67.5
t17 87.5q0 67 -44 101.5t-123 34.5h-133q-19 0 -27 -10.5t-13 -36.5l-59 -303h164z" />
    <glyph glyph-name="Rcaron" unicode="&#x158;" horiz-adv-x="657" 
d="M457 810q-9 0 -16 8.5t-15 29.5t-20 57.5t-33 92.5h8q24 -37 47 -72.5t38 -68.5q27 33 64.5 68.5t75.5 72.5h8q-43 -56 -69 -92.5t-42.5 -57.5t-26.5 -29.5t-19 -8.5zM693 598q0 -58 -25 -101t-65 -71t-90.5 -42t-102.5 -14h-21l125 -303q13 -32 37 -43.5t60 -13.5
l-2 -10h-215l2 10q18 3 33.5 4.5t25.5 6t13 13.5t-4 27l-127 309h-96l-57 -295q-3 -18 -3 -29t6.5 -18t20.5 -10.5t38 -7.5l-2 -10h-195l2 10q27 4 42.5 8t24.5 11t13 18t7 28l121 618q3 13 2.5 22.5t-7.5 16t-21 11t-38 7.5l2 10h289q42 0 79.5 -10.5t66 -31t45 -51
t16.5 -69.5zM409 390q52 0 95.5 15.5t74.5 43.5t48 67.5t17 87.5q0 67 -44 101.5t-123 34.5h-133q-19 0 -27 -10.5t-13 -36.5l-59 -303h164z" />
    <glyph glyph-name="Rcommaaccent" unicode="&#x156;" horiz-adv-x="657" 
d="M693 598q0 -58 -25 -101t-65 -71t-90.5 -42t-102.5 -14h-21l125 -303q13 -32 37 -43.5t60 -13.5l-2 -10h-215l2 10q18 3 33.5 4.5t25.5 6t13 13.5t-4 27l-127 309h-96l-57 -295q-3 -18 -3 -29t6.5 -18t20.5 -10.5t38 -7.5l-2 -10h-195l2 10q27 4 42.5 8t24.5 11t13 18
t7 28l121 618q3 13 2.5 22.5t-7.5 16t-21 11t-38 7.5l2 10h289q42 0 79.5 -10.5t66 -31t45 -51t16.5 -69.5zM409 390q52 0 95.5 15.5t74.5 43.5t48 67.5t17 87.5q0 67 -44 101.5t-123 34.5h-133q-19 0 -27 -10.5t-13 -36.5l-59 -303h164zM288 -50q19 0 27.5 -15t8.5 -35
q0 -14 -4 -29.5t-14.5 -32.5t-28.5 -37.5t-45 -44.5h-6q32 32 45.5 55t13.5 40q0 13 -7 20t-14.5 13t-13.5 13t-3 21q3 16 15 24t26 8z" />
    <glyph glyph-name="S" unicode="S" horiz-adv-x="591" 
d="M286 -11q-47 0 -83.5 11t-63.5 28.5t-44 38t-25 39.5l98 195h10q-17 -37 -31 -72.5t-14 -73.5q0 -44 17.5 -71t43.5 -42t55.5 -20.5t54.5 -5.5q43 0 88 12.5t81 39t59 67t23 96.5q0 57 -35 87.5t-96 45.5q-24 6 -41.5 10.5t-31 9t-25.5 9.5t-25 11q-50 24 -75.5 58
t-25.5 82q0 33 13.5 72t43 73t77.5 56.5t117 22.5q37 0 66.5 -7t53 -18.5t41 -26t31.5 -29.5l-104 -148h-10q7 11 15.5 25t15 29t11 30t4.5 28q0 25 -13 41.5t-32.5 26.5t-42.5 14t-44 4q-36 0 -73.5 -9.5t-68.5 -30t-51 -51t-20 -72.5q0 -75 98 -116q22 -9 47.5 -16.5
t56.5 -15.5q34 -9 62.5 -23t49.5 -34.5t32.5 -48t11.5 -64.5q0 -61 -24.5 -110t-66 -84t-96.5 -54t-115 -19z" />
    <glyph glyph-name="Sacute" unicode="&#x15a;" horiz-adv-x="591" 
d="M414 810q38 55 66 91.5t48 58t33 30t21 8.5q14 0 14 -11q0 -12 -17 -33t-43 -45.5t-56.5 -50.5t-57.5 -48h-8zM286 -11q-47 0 -83.5 11t-63.5 28.5t-44 38t-25 39.5l98 195h10q-17 -37 -31 -72.5t-14 -73.5q0 -44 17.5 -71t43.5 -42t55.5 -20.5t54.5 -5.5q43 0 88 12.5
t81 39t59 67t23 96.5q0 57 -35 87.5t-96 45.5q-24 6 -41.5 10.5t-31 9t-25.5 9.5t-25 11q-50 24 -75.5 58t-25.5 82q0 33 13.5 72t43 73t77.5 56.5t117 22.5q37 0 66.5 -7t53 -18.5t41 -26t31.5 -29.5l-104 -148h-10q7 11 15.5 25t15 29t11 30t4.5 28q0 25 -13 41.5
t-32.5 26.5t-42.5 14t-44 4q-36 0 -73.5 -9.5t-68.5 -30t-51 -51t-20 -72.5q0 -75 98 -116q22 -9 47.5 -16.5t56.5 -15.5q34 -9 62.5 -23t49.5 -34.5t32.5 -48t11.5 -64.5q0 -61 -24.5 -110t-66 -84t-96.5 -54t-115 -19z" />
    <glyph glyph-name="Scaron" unicode="&#x160;" horiz-adv-x="591" 
d="M606 998q-43 -56 -69 -92.5t-42.5 -57.5t-26.5 -29.5t-19 -8.5t-16 8.5t-15 29.5t-20 57.5t-33 92.5h8q24 -37 47 -72.5t38 -68.5q27 33 64.5 68.5t75.5 72.5h8zM286 -11q-47 0 -83.5 11t-63.5 28.5t-44 38t-25 39.5l98 195h10q-17 -37 -31 -72.5t-14 -73.5
q0 -44 17.5 -71t43.5 -42t55.5 -20.5t54.5 -5.5q43 0 88 12.5t81 39t59 67t23 96.5q0 57 -35 87.5t-96 45.5q-24 6 -41.5 10.5t-31 9t-25.5 9.5t-25 11q-50 24 -75.5 58t-25.5 82q0 33 13.5 72t43 73t77.5 56.5t117 22.5q37 0 66.5 -7t53 -18.5t41 -26t31.5 -29.5l-104 -148
h-10q7 11 15.5 25t15 29t11 30t4.5 28q0 25 -13 41.5t-32.5 26.5t-42.5 14t-44 4q-36 0 -73.5 -9.5t-68.5 -30t-51 -51t-20 -72.5q0 -75 98 -116q22 -9 47.5 -16.5t56.5 -15.5q34 -9 62.5 -23t49.5 -34.5t32.5 -48t11.5 -64.5q0 -61 -24.5 -110t-66 -84t-96.5 -54t-115 -19z
" />
    <glyph glyph-name="Scedilla" unicode="&#x15e;" horiz-adv-x="591" 
d="M432 426q34 -9 62.5 -23t49.5 -34.5t32.5 -48t11.5 -64.5q0 -57 -22 -104t-59.5 -81.5t-87 -55.5t-105.5 -25l-36 -47q35 0 50 -15.5t15 -37.5q0 -15 -7.5 -31.5t-20.5 -30.5t-31 -23t-39 -9q-15 0 -29 4.5t-25 12.5l1 5q11 -5 22.5 -7.5t22.5 -2.5q34 0 55 19t21 41
q0 17 -15 31t-49 14l4 19l44 57h-11q-47 0 -83.5 11t-63.5 28.5t-44 38t-25 39.5l98 195h10q-17 -37 -31 -72.5t-14 -73.5q0 -44 17.5 -71t43.5 -42t55.5 -20.5t54.5 -5.5q43 0 88 12.5t81 39t59 67t23 96.5q0 57 -35 87.5t-96 45.5q-24 6 -41.5 10.5t-31 9t-25.5 9.5
t-25 11q-50 24 -75.5 58t-25.5 82q0 33 13.5 72t43 73t77.5 56.5t117 22.5q37 0 66.5 -7t53 -18.5t41 -26t31.5 -29.5l-104 -148h-10q7 11 15.5 25t15 29t11 30t4.5 28q0 25 -13 41.5t-32.5 26.5t-42.5 14t-44 4q-36 0 -73.5 -9.5t-68.5 -30t-51 -51t-20 -72.5
q0 -75 98 -116q22 -9 47.5 -16.5t56.5 -15.5z" />
    <glyph glyph-name="Scommaaccent" unicode="&#x218;" horiz-adv-x="591" 
d="M286 -11q-47 0 -83.5 11t-63.5 28.5t-44 38t-25 39.5l98 195h10q-17 -37 -31 -72.5t-14 -73.5q0 -44 17.5 -71t43.5 -42t55.5 -20.5t54.5 -5.5q43 0 88 12.5t81 39t59 67t23 96.5q0 57 -35 87.5t-96 45.5q-24 6 -41.5 10.5t-31 9t-25.5 9.5t-25 11q-50 24 -75.5 58
t-25.5 82q0 33 13.5 72t43 73t77.5 56.5t117 22.5q37 0 66.5 -7t53 -18.5t41 -26t31.5 -29.5l-104 -148h-10q7 11 15.5 25t15 29t11 30t4.5 28q0 25 -13 41.5t-32.5 26.5t-42.5 14t-44 4q-36 0 -73.5 -9.5t-68.5 -30t-51 -51t-20 -72.5q0 -75 98 -116q22 -9 47.5 -16.5
t56.5 -15.5q34 -9 62.5 -23t49.5 -34.5t32.5 -48t11.5 -64.5q0 -61 -24.5 -110t-66 -84t-96.5 -54t-115 -19zM280 -50q19 0 27.5 -15t8.5 -35q0 -14 -4 -29.5t-14.5 -32.5t-28.5 -37.5t-45 -44.5h-6q32 32 45.5 55t13.5 40q0 13 -7 20t-14.5 13t-13.5 13t-3 21q3 16 15 24
t26 8z" />
    <glyph glyph-name="T" unicode="T" horiz-adv-x="743" 
d="M276 10q27 4 42.5 8t24.5 11t13.5 18t7.5 28l120 620q4 20 -1 27.5t-22 7.5h-145q-45 0 -76.5 -29t-62.5 -96h-10q10 26 19.5 46t17.5 37t15 34t13 38h575q-2 -21 -2 -38t1.5 -34t3 -37t2.5 -46h-10q-6 68 -26 96.5t-65 28.5h-145q-17 0 -25 -7.5t-12 -27.5l-120 -620
q-4 -18 -4 -29t6.5 -18t21 -10.5t38.5 -7.5l-2 -10h-195z" />
    <glyph glyph-name="Tbar" unicode="&#x166;" horiz-adv-x="743" 
d="M807 760q-2 -21 -2 -38t1.5 -34t3 -37t2.5 -46h-10q-6 68 -26 96.5t-65 28.5h-145q-17 0 -25 -7.5t-12 -27.5l-57 -296h98l-7 -38h-99l-55 -286q-4 -18 -4 -29t6.5 -18t21 -10.5t38.5 -7.5l-2 -10h-195l2 10q27 4 42.5 8t24.5 11t13.5 18t7.5 28l55 286h-99l7 38h100
l57 296q4 20 -1 27.5t-22 7.5h-145q-45 0 -76.5 -29t-62.5 -96h-10q10 26 19.5 46t17.5 37t15 34t13 38h575v0z" />
    <glyph glyph-name="Tcaron" unicode="&#x164;" horiz-adv-x="743" 
d="M683 998q-43 -56 -69 -92.5t-42.5 -57.5t-26.5 -29.5t-19 -8.5t-16 8.5t-15 29.5t-20 57.5t-33 92.5h8q24 -37 47 -72.5t38 -68.5q27 33 64.5 68.5t75.5 72.5h8zM276 10q27 4 42.5 8t24.5 11t13.5 18t7.5 28l120 620q4 20 -1 27.5t-22 7.5h-145q-45 0 -76.5 -29
t-62.5 -96h-10q10 26 19.5 46t17.5 37t15 34t13 38h575q-2 -21 -2 -38t1.5 -34t3 -37t2.5 -46h-10q-6 68 -26 96.5t-65 28.5h-145q-17 0 -25 -7.5t-12 -27.5l-120 -620q-4 -18 -4 -29t6.5 -18t21 -10.5t38.5 -7.5l-2 -10h-195z" />
    <glyph glyph-name="uni0162" unicode="&#x162;" horiz-adv-x="743" 
d="M807 760q-2 -21 -2 -38t1.5 -34t3 -37t2.5 -46h-10q-6 68 -26 96.5t-65 28.5h-145q-17 0 -25 -7.5t-12 -27.5l-120 -620q-4 -18 -4 -29t6.5 -18t21 -10.5t38.5 -7.5l-2 -10h-86l-44 -57q35 0 50 -15.5t15 -37.5q0 -15 -7.5 -31.5t-20.5 -30.5t-31 -23t-39 -9
q-15 0 -29 4.5t-25 12.5l1 5q11 -5 22.5 -7.5t22.5 -2.5q34 0 55 19t21 41q0 17 -15 31t-49 14l4 19l52 68h-92l2 10q27 4 42.5 8t24.5 11t13.5 18t7.5 28l120 620q4 20 -1 27.5t-22 7.5h-145q-45 0 -76.5 -29t-62.5 -96h-10q10 26 19.5 46t17.5 37t15 34t13 38h575v0z" />
    <glyph glyph-name="uni021A" unicode="&#x21a;" horiz-adv-x="743" 
d="M276 10q27 4 42.5 8t24.5 11t13.5 18t7.5 28l120 620q4 20 -1 27.5t-22 7.5h-145q-45 0 -76.5 -29t-62.5 -96h-10q10 26 19.5 46t17.5 37t15 34t13 38h575q-2 -21 -2 -38t1.5 -34t3 -37t2.5 -46h-10q-6 68 -26 96.5t-65 28.5h-145q-17 0 -25 -7.5t-12 -27.5l-120 -620
q-4 -18 -4 -29t6.5 -18t21 -10.5t38.5 -7.5l-2 -10h-195zM356 -50q19 0 27.5 -15t8.5 -35q0 -14 -4 -29.5t-14.5 -32.5t-28.5 -37.5t-45 -44.5h-6q32 32 45.5 55t13.5 40q0 13 -7 20t-14.5 13t-13.5 13t-3 21q3 16 15 24t26 8z" />
    <glyph glyph-name="U" unicode="U" horiz-adv-x="746" 
d="M372 -11q-57 0 -96 13.5t-63 39t-35 60.5t-11 79q0 24 3.5 50.5t8.5 55.5l77 398q2 8 3 15t1 12q0 18 -14 25t-52 13l2 10h195l-2 -10q-26 -4 -41.5 -8t-25 -10.5t-14 -17.5t-7.5 -29l-77 -398q-10 -50 -10 -92q0 -46 12.5 -77.5t35 -51t54.5 -28t71 -8.5q48 0 87.5 13
t70.5 43t53 79.5t36 121.5l77 398q2 8 3 15t1 12q0 18 -14 25t-52 13l2 10h195l-2 -10q-26 -4 -41.5 -8t-25 -10.5t-14 -17.5t-7.5 -29l-77 -398q-13 -68 -36.5 -123t-60 -94t-88.5 -60t-122 -21z" />
    <glyph glyph-name="Uacute" unicode="&#xda;" horiz-adv-x="746" 
d="M471 810q38 55 66 91.5t48 58t33 30t21 8.5q14 0 14 -11q0 -12 -17 -33t-43 -45.5t-56.5 -50.5t-57.5 -48h-8zM372 -11q-57 0 -96 13.5t-63 39t-35 60.5t-11 79q0 24 3.5 50.5t8.5 55.5l77 398q2 8 3 15t1 12q0 18 -14 25t-52 13l2 10h195l-2 -10q-26 -4 -41.5 -8
t-25 -10.5t-14 -17.5t-7.5 -29l-77 -398q-10 -50 -10 -92q0 -46 12.5 -77.5t35 -51t54.5 -28t71 -8.5q48 0 87.5 13t70.5 43t53 79.5t36 121.5l77 398q2 8 3 15t1 12q0 18 -14 25t-52 13l2 10h195l-2 -10q-26 -4 -41.5 -8t-25 -10.5t-14 -17.5t-7.5 -29l-77 -398
q-13 -68 -36.5 -123t-60 -94t-88.5 -60t-122 -21z" />
    <glyph glyph-name="Ucircumflex" unicode="&#xdb;" horiz-adv-x="746" 
d="M394 810q43 56 69 92.5t42.5 57.5t26.5 29.5t19 8.5t15.5 -8.5t15 -29.5t20.5 -57.5t33 -92.5h-8q-24 37 -47 72.5t-38 68.5q-27 -33 -64.5 -68.5t-75.5 -72.5h-8zM372 -11q-57 0 -96 13.5t-63 39t-35 60.5t-11 79q0 24 3.5 50.5t8.5 55.5l77 398q2 8 3 15t1 12
q0 18 -14 25t-52 13l2 10h195l-2 -10q-26 -4 -41.5 -8t-25 -10.5t-14 -17.5t-7.5 -29l-77 -398q-10 -50 -10 -92q0 -46 12.5 -77.5t35 -51t54.5 -28t71 -8.5q48 0 87.5 13t70.5 43t53 79.5t36 121.5l77 398q2 8 3 15t1 12q0 18 -14 25t-52 13l2 10h195l-2 -10
q-26 -4 -41.5 -8t-25 -10.5t-14 -17.5t-7.5 -29l-77 -398q-13 -68 -36.5 -123t-60 -94t-88.5 -60t-122 -21z" />
    <glyph glyph-name="Udieresis" unicode="&#xdc;" horiz-adv-x="746" 
d="M449 859q-16 0 -24 8.5t-8 22.5q0 19 13.5 32.5t33.5 13.5q14 0 23 -9t9 -23q0 -19 -13.5 -32t-33.5 -13zM579 859q-16 0 -24 8.5t-8 22.5q0 19 13.5 32.5t33.5 13.5q14 0 23 -9t9 -23q0 -19 -13.5 -32t-33.5 -13zM372 -11q-57 0 -96 13.5t-63 39t-35 60.5t-11 79
q0 24 3.5 50.5t8.5 55.5l77 398q2 8 3 15t1 12q0 18 -14 25t-52 13l2 10h195l-2 -10q-26 -4 -41.5 -8t-25 -10.5t-14 -17.5t-7.5 -29l-77 -398q-10 -50 -10 -92q0 -46 12.5 -77.5t35 -51t54.5 -28t71 -8.5q48 0 87.5 13t70.5 43t53 79.5t36 121.5l77 398q2 8 3 15t1 12
q0 18 -14 25t-52 13l2 10h195l-2 -10q-26 -4 -41.5 -8t-25 -10.5t-14 -17.5t-7.5 -29l-77 -398q-13 -68 -36.5 -123t-60 -94t-88.5 -60t-122 -21z" />
    <glyph glyph-name="Ugrave" unicode="&#xd9;" horiz-adv-x="746" 
d="M531 810q-17 20 -36 44.5t-35 47.5t-26 43.5t-10 33.5q0 8 4 13.5t15 5.5q8 0 18 -8.5t22 -30t26 -58t30 -91.5h-8zM372 -11q-57 0 -96 13.5t-63 39t-35 60.5t-11 79q0 24 3.5 50.5t8.5 55.5l77 398q2 8 3 15t1 12q0 18 -14 25t-52 13l2 10h195l-2 -10q-26 -4 -41.5 -8
t-25 -10.5t-14 -17.5t-7.5 -29l-77 -398q-10 -50 -10 -92q0 -46 12.5 -77.5t35 -51t54.5 -28t71 -8.5q48 0 87.5 13t70.5 43t53 79.5t36 121.5l77 398q2 8 3 15t1 12q0 18 -14 25t-52 13l2 10h195l-2 -10q-26 -4 -41.5 -8t-25 -10.5t-14 -17.5t-7.5 -29l-77 -398
q-13 -68 -36.5 -123t-60 -94t-88.5 -60t-122 -21z" />
    <glyph glyph-name="Uhungarumlaut" unicode="&#x170;" horiz-adv-x="746" 
d="M411 810q38 55 66 91.5t48 58t33 30t21 8.5q14 0 14 -11q0 -12 -17 -33t-43 -45.5t-56.5 -50.5t-57.5 -48h-8zM541 810q38 55 66 91.5t48 58t33 30t21 8.5q14 0 14 -11q0 -12 -17 -33t-43 -45.5t-56.5 -50.5t-57.5 -48h-8zM372 -11q-57 0 -96 13.5t-63 39t-35 60.5
t-11 79q0 24 3.5 50.5t8.5 55.5l77 398q2 8 3 15t1 12q0 18 -14 25t-52 13l2 10h195l-2 -10q-26 -4 -41.5 -8t-25 -10.5t-14 -17.5t-7.5 -29l-77 -398q-10 -50 -10 -92q0 -46 12.5 -77.5t35 -51t54.5 -28t71 -8.5q48 0 87.5 13t70.5 43t53 79.5t36 121.5l77 398q2 8 3 15
t1 12q0 18 -14 25t-52 13l2 10h195l-2 -10q-26 -4 -41.5 -8t-25 -10.5t-14 -17.5t-7.5 -29l-77 -398q-13 -68 -36.5 -123t-60 -94t-88.5 -60t-122 -21z" />
    <glyph glyph-name="Umacron" unicode="&#x16a;" horiz-adv-x="746" 
d="M393 898h263l-7 -38h-263zM372 -11q-57 0 -96 13.5t-63 39t-35 60.5t-11 79q0 24 3.5 50.5t8.5 55.5l77 398q2 8 3 15t1 12q0 18 -14 25t-52 13l2 10h195l-2 -10q-26 -4 -41.5 -8t-25 -10.5t-14 -17.5t-7.5 -29l-77 -398q-10 -50 -10 -92q0 -46 12.5 -77.5t35 -51
t54.5 -28t71 -8.5q48 0 87.5 13t70.5 43t53 79.5t36 121.5l77 398q2 8 3 15t1 12q0 18 -14 25t-52 13l2 10h195l-2 -10q-26 -4 -41.5 -8t-25 -10.5t-14 -17.5t-7.5 -29l-77 -398q-13 -68 -36.5 -123t-60 -94t-88.5 -60t-122 -21z" />
    <glyph glyph-name="Uogonek" unicode="&#x172;" horiz-adv-x="746" 
d="M846 760l-2 -10q-26 -4 -41.5 -8t-25 -10.5t-14 -17.5t-7.5 -29l-77 -398q-12 -65 -33.5 -117.5t-55 -91t-80 -61.5t-108.5 -27q-11 -9 -24 -23t-25 -30.5t-20 -34.5t-8 -36q0 -22 11.5 -34.5t31.5 -12.5q14 0 30 7t33 21h5q-22 -26 -44.5 -40t-45.5 -14t-38 15.5
t-15 41.5q0 22 10.5 43t25.5 39.5t31.5 33t28.5 23.5h-17q-57 0 -96 13.5t-63 39t-35 60.5t-11 79q0 24 3.5 50.5t8.5 55.5l77 398q2 8 3 15t1 12q0 18 -14 25t-52 13l2 10h195l-2 -10q-26 -4 -41.5 -8t-25 -10.5t-14 -17.5t-7.5 -29l-77 -398q-10 -50 -10 -92
q0 -46 12.5 -77.5t35 -51t54.5 -28t71 -8.5q48 0 87.5 13t70.5 43t53 79.5t36 121.5l77 398q2 8 3 15t1 12q0 18 -14 25t-52 13l2 10h195z" />
    <glyph glyph-name="Uring" unicode="&#x16e;" horiz-adv-x="746" 
d="M511 832q-30 0 -48.5 20t-18.5 48q0 19 8.5 35.5t22 29.5t31 20.5t36.5 7.5q29 0 47.5 -19.5t18.5 -48.5q0 -18 -8.5 -35t-22 -30t-31 -20.5t-35.5 -7.5zM515 855q13 0 25.5 5.5t22.5 14.5t16 21t6 25q0 20 -13.5 34.5t-33.5 14.5q-14 0 -26.5 -5.5t-22 -14.5t-15.5 -21
t-6 -25q0 -20 13 -34.5t34 -14.5zM372 -11q-57 0 -96 13.5t-63 39t-35 60.5t-11 79q0 24 3.5 50.5t8.5 55.5l77 398q2 8 3 15t1 12q0 18 -14 25t-52 13l2 10h195l-2 -10q-26 -4 -41.5 -8t-25 -10.5t-14 -17.5t-7.5 -29l-77 -398q-10 -50 -10 -92q0 -46 12.5 -77.5t35 -51
t54.5 -28t71 -8.5q48 0 87.5 13t70.5 43t53 79.5t36 121.5l77 398q2 8 3 15t1 12q0 18 -14 25t-52 13l2 10h195l-2 -10q-26 -4 -41.5 -8t-25 -10.5t-14 -17.5t-7.5 -29l-77 -398q-13 -68 -36.5 -123t-60 -94t-88.5 -60t-122 -21z" />
    <glyph glyph-name="V" unicode="V" horiz-adv-x="853" 
d="M267 699q-6 28 -21.5 37.5t-51.5 13.5l2 10h195l-2 -10q-18 -3 -32.5 -4.5t-23.5 -6t-12.5 -13.5t0.5 -27l130 -643l374 647q10 17 7 25.5t-14.5 13t-28 5.5t-33.5 3l2 10h195l-2 -10q-39 -4 -58.5 -13.5t-35.5 -36.5l-412 -700h-30z" />
    <glyph glyph-name="W" unicode="W" horiz-adv-x="1212" 
d="M267 699q-4 29 -20.5 38t-52.5 13l2 10h195l-2 -10q-18 -3 -32 -4.5t-22.5 -5.5t-12 -13.5t-1.5 -27.5l73 -619l353 680h33l95 -680l312 623q9 18 5 26.5t-15 12.5t-28 5t-34 3l2 10h195l-2 -10q-39 -4 -60 -13t-34 -37l-352 -700h-30l-94 685l-355 -685h-30z" />
    <glyph glyph-name="Wacute" unicode="&#x1e82;" horiz-adv-x="1212" 
d="M715 810q38 55 66 91.5t48 58t33 30t21 8.5q14 0 14 -11q0 -12 -17 -33t-43 -45.5t-56.5 -50.5t-57.5 -48h-8zM267 699q-4 29 -20.5 38t-52.5 13l2 10h195l-2 -10q-18 -3 -32 -4.5t-22.5 -5.5t-12 -13.5t-1.5 -27.5l73 -619l353 680h33l95 -680l312 623q9 18 5 26.5
t-15 12.5t-28 5t-34 3l2 10h195l-2 -10q-39 -4 -60 -13t-34 -37l-352 -700h-30l-94 685l-355 -685h-30z" />
    <glyph glyph-name="Wcircumflex" unicode="&#x174;" horiz-adv-x="1212" 
d="M645 810q43 56 69 92.5t42.5 57.5t26.5 29.5t19 8.5t15.5 -8.5t15 -29.5t20.5 -57.5t33 -92.5h-8q-24 37 -47 72.5t-38 68.5q-27 -33 -64.5 -68.5t-75.5 -72.5h-8zM267 699q-4 29 -20.5 38t-52.5 13l2 10h195l-2 -10q-18 -3 -32 -4.5t-22.5 -5.5t-12 -13.5t-1.5 -27.5
l73 -619l353 680h33l95 -680l312 623q9 18 5 26.5t-15 12.5t-28 5t-34 3l2 10h195l-2 -10q-39 -4 -60 -13t-34 -37l-352 -700h-30l-94 685l-355 -685h-30z" />
    <glyph glyph-name="Wdieresis" unicode="&#x1e84;" horiz-adv-x="1212" 
d="M700 859q-16 0 -24 8.5t-8 22.5q0 19 13.5 32.5t33.5 13.5q14 0 23 -9t9 -23q0 -19 -13.5 -32t-33.5 -13zM830 859q-16 0 -24 8.5t-8 22.5q0 19 13.5 32.5t33.5 13.5q14 0 23 -9t9 -23q0 -19 -13.5 -32t-33.5 -13zM267 699q-4 29 -20.5 38t-52.5 13l2 10h195l-2 -10
q-18 -3 -32 -4.5t-22.5 -5.5t-12 -13.5t-1.5 -27.5l73 -619l353 680h33l95 -680l312 623q9 18 5 26.5t-15 12.5t-28 5t-34 3l2 10h195l-2 -10q-39 -4 -60 -13t-34 -37l-352 -700h-30l-94 685l-355 -685h-30z" />
    <glyph glyph-name="Wgrave" unicode="&#x1e80;" horiz-adv-x="1212" 
d="M800 810q-17 20 -36 44.5t-35 47.5t-26 43.5t-10 33.5q0 8 4 13.5t15 5.5q8 0 18 -8.5t22 -30t26 -58t30 -91.5h-8zM267 699q-4 29 -20.5 38t-52.5 13l2 10h195l-2 -10q-18 -3 -32 -4.5t-22.5 -5.5t-12 -13.5t-1.5 -27.5l73 -619l353 680h33l95 -680l312 623q9 18 5 26.5
t-15 12.5t-28 5t-34 3l2 10h195l-2 -10q-39 -4 -60 -13t-34 -37l-352 -700h-30l-94 685l-355 -685h-30z" />
    <glyph glyph-name="X" unicode="X" horiz-adv-x="722" 
d="M55 10q19 2 32.5 5.5t24 9.5t19 14.5t18.5 20.5l260 320l-141 319q-6 14 -11.5 23t-13 14.5t-19 8.5t-29.5 5l2 10h195l-2 -10q-31 -5 -51.5 -10.5t-20.5 -22.5q0 -9 4 -18l123 -281l216 271q17 21 17 35q0 9 -7.5 14t-19.5 7t-26 2.5t-27 2.5l2 10h195l-2 -10
q-20 -2 -33 -5t-23.5 -9t-19 -14.5t-18.5 -21.5l-243 -306l147 -333q6 -14 11.5 -23t13 -14.5t19 -8.5t29.5 -5l-2 -10h-195l2 10q15 3 28.5 5t23 5t15.5 8.5t6 14.5q0 6 -5 18l-130 295l-239 -292q-15 -18 -15 -30q0 -9 8.5 -13t21 -6t27.5 -3t28 -2l-2 -10h-195z" />
    <glyph glyph-name="Y" unicode="Y" horiz-adv-x="753" 
d="M285 10q27 4 42.5 8t24.5 10.5t13.5 17.5t7.5 29l40 206l-148 418q-5 14 -10 23t-13 14.5t-19.5 8.5t-28.5 5l2 10h195l-2 -10q-18 -3 -33.5 -5t-25 -6.5t-12.5 -13.5t3 -26l136 -376l273 380q11 15 8 23.5t-15 13t-30 6.5t-37 4l2 10h195l-2 -10q-20 -2 -33.5 -5t-24 -9
t-19 -14.5t-17.5 -21.5l-298 -413l-41 -212q-3 -18 -3 -29t6.5 -17.5t20.5 -10.5t38 -8l-2 -10h-195z" />
    <glyph glyph-name="Yacute" unicode="&#xdd;" horiz-adv-x="753" 
d="M485 810q38 55 66 91.5t48 58t33 30t21 8.5q14 0 14 -11q0 -12 -17 -33t-43 -45.5t-56.5 -50.5t-57.5 -48h-8zM285 10q27 4 42.5 8t24.5 10.5t13.5 17.5t7.5 29l40 206l-148 418q-5 14 -10 23t-13 14.5t-19.5 8.5t-28.5 5l2 10h195l-2 -10q-18 -3 -33.5 -5t-25 -6.5
t-12.5 -13.5t3 -26l136 -376l273 380q11 15 8 23.5t-15 13t-30 6.5t-37 4l2 10h195l-2 -10q-20 -2 -33.5 -5t-24 -9t-19 -14.5t-17.5 -21.5l-298 -413l-41 -212q-3 -18 -3 -29t6.5 -17.5t20.5 -10.5t38 -8l-2 -10h-195z" />
    <glyph glyph-name="Ycircumflex" unicode="&#x176;" horiz-adv-x="753" 
d="M405 810q43 56 69 92.5t42.5 57.5t26.5 29.5t19 8.5t15.5 -8.5t15 -29.5t20.5 -57.5t33 -92.5h-8q-24 37 -47 72.5t-38 68.5q-27 -33 -64.5 -68.5t-75.5 -72.5h-8zM285 10q27 4 42.5 8t24.5 10.5t13.5 17.5t7.5 29l40 206l-148 418q-5 14 -10 23t-13 14.5t-19.5 8.5
t-28.5 5l2 10h195l-2 -10q-18 -3 -33.5 -5t-25 -6.5t-12.5 -13.5t3 -26l136 -376l273 380q11 15 8 23.5t-15 13t-30 6.5t-37 4l2 10h195l-2 -10q-20 -2 -33.5 -5t-24 -9t-19 -14.5t-17.5 -21.5l-298 -413l-41 -212q-3 -18 -3 -29t6.5 -17.5t20.5 -10.5t38 -8l-2 -10h-195z
" />
    <glyph glyph-name="Ydieresis" unicode="&#x178;" horiz-adv-x="753" 
d="M461 860q-16 0 -24 8.5t-8 22.5q0 19 13.5 32.5t33.5 13.5q14 0 23 -9t9 -23q0 -19 -13.5 -32t-33.5 -13zM591 860q-16 0 -24 8.5t-8 22.5q0 19 13.5 32.5t33.5 13.5q14 0 23 -9t9 -23q0 -19 -13.5 -32t-33.5 -13zM285 10q27 4 42.5 8t24.5 10.5t13.5 17.5t7.5 29l40 206
l-148 418q-5 14 -10 23t-13 14.5t-19.5 8.5t-28.5 5l2 10h195l-2 -10q-18 -3 -33.5 -5t-25 -6.5t-12.5 -13.5t3 -26l136 -376l273 380q11 15 8 23.5t-15 13t-30 6.5t-37 4l2 10h195l-2 -10q-20 -2 -33.5 -5t-24 -9t-19 -14.5t-17.5 -21.5l-298 -413l-41 -212q-3 -18 -3 -29
t6.5 -17.5t20.5 -10.5t38 -8l-2 -10h-195z" />
    <glyph glyph-name="Ygrave" unicode="&#x1ef2;" horiz-adv-x="753" 
d="M535 810q-17 20 -36 44.5t-35 47.5t-26 43.5t-10 33.5q0 8 4 13.5t15 5.5q8 0 18 -8.5t22 -30t26 -58t30 -91.5h-8zM285 10q27 4 42.5 8t24.5 10.5t13.5 17.5t7.5 29l40 206l-148 418q-5 14 -10 23t-13 14.5t-19.5 8.5t-28.5 5l2 10h195l-2 -10q-18 -3 -33.5 -5t-25 -6.5
t-12.5 -13.5t3 -26l136 -376l273 380q11 15 8 23.5t-15 13t-30 6.5t-37 4l2 10h195l-2 -10q-20 -2 -33.5 -5t-24 -9t-19 -14.5t-17.5 -21.5l-298 -413l-41 -212q-3 -18 -3 -29t6.5 -17.5t20.5 -10.5t38 -8l-2 -10h-195z" />
    <glyph glyph-name="Z" unicode="Z" horiz-adv-x="568" 
d="M51 10l532 720h-257q-45 0 -76.5 -29.5t-63.5 -100.5h-10q11 28 20.5 49t17.5 38.5t15 34.5t13 38h400l3 -10l-528 -720h283q22 0 41 7t35.5 22t31.5 38.5t31 57.5h10q-11 -26 -20 -46t-17 -37t-15 -34t-13 -38h-430z" />
    <glyph glyph-name="Zacute" unicode="&#x179;" horiz-adv-x="568" 
d="M362 810q38 55 66 91.5t48 58t33 30t21 8.5q14 0 14 -11q0 -12 -17 -33t-43 -45.5t-56.5 -50.5t-57.5 -48h-8zM51 10l532 720h-257q-45 0 -76.5 -29.5t-63.5 -100.5h-10q11 28 20.5 49t17.5 38.5t15 34.5t13 38h400l3 -10l-528 -720h283q22 0 41 7t35.5 22t31.5 38.5
t31 57.5h10q-11 -26 -20 -46t-17 -37t-15 -34t-13 -38h-430z" />
    <glyph glyph-name="Zcaron" unicode="&#x17d;" horiz-adv-x="568" 
d="M575 998q-43 -56 -69 -92.5t-42.5 -57.5t-26.5 -29.5t-19 -8.5t-16 8.5t-15 29.5t-20 57.5t-33 92.5h8q24 -37 47 -72.5t38 -68.5q27 33 64.5 68.5t75.5 72.5h8zM51 10l532 720h-257q-45 0 -76.5 -29.5t-63.5 -100.5h-10q11 28 20.5 49t17.5 38.5t15 34.5t13 38h400
l3 -10l-528 -720h283q22 0 41 7t35.5 22t31.5 38.5t31 57.5h10q-11 -26 -20 -46t-17 -37t-15 -34t-13 -38h-430z" />
    <glyph glyph-name="Zdotaccent" unicode="&#x17b;" horiz-adv-x="568" 
d="M452 860q-21 0 -32 12t-11 30q0 25 18 43.5t45 18.5q20 0 31.5 -12.5t11.5 -30.5q0 -26 -18.5 -43.5t-44.5 -17.5zM51 10l532 720h-257q-45 0 -76.5 -29.5t-63.5 -100.5h-10q11 28 20.5 49t17.5 38.5t15 34.5t13 38h400l3 -10l-528 -720h283q22 0 41 7t35.5 22t31.5 38.5
t31 57.5h10q-11 -26 -20 -46t-17 -37t-15 -34t-13 -38h-430z" />
    <glyph glyph-name="B.ss01" horiz-adv-x="666" 
d="M51 10q27 4 42.5 6.5t24 7.5t12.5 14.5t7 26.5l124 638q1 5 1.5 9t0.5 7q0 15 -14 20.5t-54 10.5l2 10h275q106 0 163 -46t57 -120q0 -33 -11 -64t-30 -58t-44.5 -49.5t-54.5 -37.5q-23 -12 -46 -18q67 -13 109 -48.5t42 -100.5q0 -39 -17 -78t-51 -70t-86.5 -50.5
t-122.5 -19.5h-331zM378 16q71 0 115.5 24t69 57.5t33.5 69t9 59.5q0 63 -46 97t-121 34h-6q-15 0 -32 2.5t-35.5 11.5t-39.5 26.5t-45 47.5l264 197h6q-17 -14 -39.5 -33.5t-46 -41.5t-44 -46t-33.5 -46q-8 -15 -13.5 -30.5t-5.5 -29.5q0 -12 4 -20q8 -15 27 -18.5t32 -3.5
q20 0 38 3.5t35 9.5q28 12 53.5 34t45 51t31 63.5t11.5 70.5q0 70 -46 102.5t-139 32.5h-116q-19 0 -26 -5.5t-12 -31.5l-124 -638q-3 -14 -3 -23q0 -19 15 -22.5t53 -3.5h131z" />
    <glyph glyph-name="C.ss01" horiz-adv-x="816" 
d="M405 -11q-62 0 -115 21t-92 60.5t-61.5 96t-22.5 128.5q0 99 38 185.5t102.5 150t151 100.5t183.5 37q44 0 81 -9t65 -22.5t47 -29.5t27 -31l-276 -472h-5q31 57 63 115.5t58.5 112.5t43 101t16.5 80q0 31 -11 53.5t-30.5 37t-46 21t-57.5 6.5q-53 0 -114 -16.5
t-116.5 -55t-98.5 -101.5t-61 -156q-5 -26 -7 -49t-2 -45q0 -78 25 -132t64 -87.5t88 -48t97 -14.5q56 0 110 18t103 53t92 86.5t77 117.5h5q-33 -69 -78 -126.5t-99 -99t-116 -64t-128 -22.5z" />
    <glyph glyph-name="Cacute.ss01" horiz-adv-x="816" 
d="M499 810q38 55 66 91.5t48 58t33 30t21 8.5q14 0 14 -11q0 -12 -17 -33t-43 -45.5t-56.5 -50.5t-57.5 -48h-8zM405 -11q-62 0 -115 21t-92 60.5t-61.5 96t-22.5 128.5q0 99 38 185.5t102.5 150t151 100.5t183.5 37q44 0 81 -9t65 -22.5t47 -29.5t27 -31l-276 -472h-5
q31 57 63 115.5t58.5 112.5t43 101t16.5 80q0 31 -11 53.5t-30.5 37t-46 21t-57.5 6.5q-53 0 -114 -16.5t-116.5 -55t-98.5 -101.5t-61 -156q-5 -26 -7 -49t-2 -45q0 -78 25 -132t64 -87.5t88 -48t97 -14.5q56 0 110 18t103 53t92 86.5t77 117.5h5q-33 -69 -78 -126.5
t-99 -99t-116 -64t-128 -22.5z" />
    <glyph glyph-name="Ccaron.ss01" horiz-adv-x="816" 
d="M722 998q-43 -56 -69 -92.5t-42.5 -57.5t-26.5 -29.5t-19 -8.5t-16 8.5t-15 29.5t-20 57.5t-33 92.5h8q24 -37 47 -72.5t38 -68.5q27 33 64.5 68.5t75.5 72.5h8zM405 -11q-62 0 -115 21t-92 60.5t-61.5 96t-22.5 128.5q0 99 38 185.5t102.5 150t151 100.5t183.5 37
q44 0 81 -9t65 -22.5t47 -29.5t27 -31l-276 -472h-5q31 57 63 115.5t58.5 112.5t43 101t16.5 80q0 31 -11 53.5t-30.5 37t-46 21t-57.5 6.5q-53 0 -114 -16.5t-116.5 -55t-98.5 -101.5t-61 -156q-5 -26 -7 -49t-2 -45q0 -78 25 -132t64 -87.5t88 -48t97 -14.5q56 0 110 18
t103 53t92 86.5t77 117.5h5q-33 -69 -78 -126.5t-99 -99t-116 -64t-128 -22.5z" />
    <glyph glyph-name="Ccedilla.ss01" horiz-adv-x="816" 
d="M826 301q-32 -67 -75 -122.5t-94 -96.5t-109.5 -65t-121.5 -27l-36 -47q35 0 50 -15.5t15 -37.5q0 -15 -7.5 -31.5t-20.5 -30.5t-31 -23t-39 -9q-15 0 -29 4.5t-25 12.5l1 5q11 -5 22.5 -7.5t22.5 -2.5q34 0 55 19t21 41q0 17 -15 31t-49 14l4 19l44 57h-4q-62 0 -115 21
t-92 60.5t-61.5 96t-22.5 128.5q0 99 38 185.5t102.5 150t151 100.5t183.5 37q44 0 81 -9t65 -22.5t47 -29.5t27 -31l-276 -472h-5q31 57 63 115.5t58.5 112.5t43 101t16.5 80q0 31 -11 53.5t-30.5 37t-46 21t-57.5 6.5q-53 0 -114 -16.5t-116.5 -55t-98.5 -101.5t-61 -156
q-5 -26 -7 -49t-2 -45q0 -78 25 -132t64 -87.5t88 -48t97 -14.5q56 0 110 18t103 53t92 86.5t77 117.5h5v0z" />
    <glyph glyph-name="Cdotaccent.ss01" horiz-adv-x="816" 
d="M566 860q-21 0 -32 12t-11 30q0 25 18 43.5t45 18.5q20 0 31.5 -12.5t11.5 -30.5q0 -26 -18.5 -43.5t-44.5 -17.5zM405 -11q-62 0 -115 21t-92 60.5t-61.5 96t-22.5 128.5q0 99 38 185.5t102.5 150t151 100.5t183.5 37q44 0 81 -9t65 -22.5t47 -29.5t27 -31l-276 -472h-5
q31 57 63 115.5t58.5 112.5t43 101t16.5 80q0 31 -11 53.5t-30.5 37t-46 21t-57.5 6.5q-53 0 -114 -16.5t-116.5 -55t-98.5 -101.5t-61 -156q-5 -26 -7 -49t-2 -45q0 -78 25 -132t64 -87.5t88 -48t97 -14.5q56 0 110 18t103 53t92 86.5t77 117.5h5q-33 -69 -78 -126.5
t-99 -99t-116 -64t-128 -22.5z" />
    <glyph glyph-name="D.ss01" horiz-adv-x="780" 
d="M447 -11q-48 0 -82 10t-56.5 25.5t-37 33.5t-23.5 33l276 472h5q-35 -65 -68.5 -125t-59 -114t-41 -102.5t-15.5 -89.5q0 -65 29 -93.5t71 -28.5q61 0 119 39t104 102.5t74 145t28 166.5q0 140 -70.5 208.5t-199.5 68.5h-156q-19 0 -27.5 -12t-14.5 -41l-118 -612
q-3 -18 -3 -29t6.5 -17.5t20.5 -10.5t38 -8l-2 -10h-195l2 10q27 4 42.5 8t24.5 10.5t13.5 17.5t7.5 29l119 612q3 14 2.5 24.5t-7 18t-20.5 12.5t-38 8l2 10h335q139 0 215.5 -73.5t76.5 -219.5q0 -89 -31.5 -174.5t-84 -153t-120.5 -109t-141 -41.5z" />
    <glyph glyph-name="Eth.ss01" horiz-adv-x="780" 
d="M532 760q139 0 215.5 -73.5t76.5 -219.5q0 -89 -31.5 -174.5t-84 -153t-120.5 -109t-141 -41.5q-48 0 -82 10t-56.5 25.5t-37 33.5t-23.5 33l276 472h5q-35 -65 -68.5 -125t-59 -114t-41 -102.5t-15.5 -89.5q0 -65 29 -93.5t71 -28.5q61 0 119 39t104 102.5t74 145
t28 166.5q0 140 -70.5 208.5t-199.5 68.5h-156q-19 0 -27.5 -12t-14.5 -41l-56 -288h101l-7 -38h-101l-55 -286q-3 -18 -3 -29t6.5 -17.5t20.5 -10.5t38 -8l-2 -10h-195l2 10q27 4 42.5 8t24.5 10.5t13.5 17.5t7.5 29l56 286h-98l7 38h98l56 288q3 14 2.5 24.5t-7 18
t-20.5 12.5t-38 8l2 10h335v0z" />
    <glyph glyph-name="Dcaron.ss01" horiz-adv-x="780" 
d="M673 998q-43 -56 -69 -92.5t-42.5 -57.5t-26.5 -29.5t-19 -8.5t-16 8.5t-15 29.5t-20 57.5t-33 92.5h8q24 -37 47 -72.5t38 -68.5q27 33 64.5 68.5t75.5 72.5h8zM447 -11q-48 0 -82 10t-56.5 25.5t-37 33.5t-23.5 33l276 472h5q-35 -65 -68.5 -125t-59 -114t-41 -102.5
t-15.5 -89.5q0 -65 29 -93.5t71 -28.5q61 0 119 39t104 102.5t74 145t28 166.5q0 140 -70.5 208.5t-199.5 68.5h-156q-19 0 -27.5 -12t-14.5 -41l-118 -612q-3 -18 -3 -29t6.5 -17.5t20.5 -10.5t38 -8l-2 -10h-195l2 10q27 4 42.5 8t24.5 10.5t13.5 17.5t7.5 29l119 612
q3 14 2.5 24.5t-7 18t-20.5 12.5t-38 8l2 10h335q139 0 215.5 -73.5t76.5 -219.5q0 -89 -31.5 -174.5t-84 -153t-120.5 -109t-141 -41.5z" />
    <glyph glyph-name="Dcroat.ss01" horiz-adv-x="780" 
d="M532 760q139 0 215.5 -73.5t76.5 -219.5q0 -89 -31.5 -174.5t-84 -153t-120.5 -109t-141 -41.5q-48 0 -82 10t-56.5 25.5t-37 33.5t-23.5 33l276 472h5q-35 -65 -68.5 -125t-59 -114t-41 -102.5t-15.5 -89.5q0 -65 29 -93.5t71 -28.5q61 0 119 39t104 102.5t74 145
t28 166.5q0 140 -70.5 208.5t-199.5 68.5h-156q-19 0 -27.5 -12t-14.5 -41l-56 -288h101l-7 -38h-101l-55 -286q-3 -18 -3 -29t6.5 -17.5t20.5 -10.5t38 -8l-2 -10h-195l2 10q27 4 42.5 8t24.5 10.5t13.5 17.5t7.5 29l56 286h-98l7 38h98l56 288q3 14 2.5 24.5t-7 18
t-20.5 12.5t-38 8l2 10h335v0z" />
    <glyph glyph-name="G.ss01" horiz-adv-x="761" 
d="M402 -11q-67 0 -121.5 21.5t-93.5 62t-60.5 97.5t-21.5 129q0 99 38 184.5t103.5 148.5t151.5 99.5t182 36.5q54 0 93.5 -11.5t66 -26.5t40.5 -29t17 -19l-44 -222h-5q13 68 5.5 119t-33.5 84.5t-69 50.5t-100 17q-38 0 -82.5 -8.5t-88.5 -28t-84.5 -50.5t-71.5 -76
t-49.5 -104.5t-18.5 -135.5q0 -70 19.5 -126t55.5 -95t88 -60t117 -21q63 0 117 20.5t93 53t61 71.5t22 75q0 31 -26.5 51t-67 32.5t-88 18.5t-89.5 10l1 5h318l-19 -95q-14 -70 -52 -122t-89 -87t-108 -52.5t-107 -17.5z" />
    <glyph glyph-name="Gbreve.ss01" horiz-adv-x="761" 
d="M559 810q-24 0 -46.5 9.5t-37.5 32t-20 58t5 88.5h8q-5 -26 -3 -52t13 -47t32.5 -34t56.5 -13q34 0 61 13t46 34t31 47t17 52h8q-10 -53 -29 -88.5t-42.5 -58t-49.5 -32t-50 -9.5zM402 -11q-67 0 -121.5 21.5t-93.5 62t-60.5 97.5t-21.5 129q0 99 38 184.5t103.5 148.5
t151.5 99.5t182 36.5q54 0 93.5 -11.5t66 -26.5t40.5 -29t17 -19l-44 -222h-5q13 68 5.5 119t-33.5 84.5t-69 50.5t-100 17q-38 0 -82.5 -8.5t-88.5 -28t-84.5 -50.5t-71.5 -76t-49.5 -104.5t-18.5 -135.5q0 -70 19.5 -126t55.5 -95t88 -60t117 -21q63 0 117 20.5t93 53
t61 71.5t22 75q0 31 -26.5 51t-67 32.5t-88 18.5t-89.5 10l1 5h318l-19 -95q-14 -70 -52 -122t-89 -87t-108 -52.5t-107 -17.5z" />
    <glyph glyph-name="Gcommaaccent.ss01" horiz-adv-x="761" 
d="M402 -11q-67 0 -121.5 21.5t-93.5 62t-60.5 97.5t-21.5 129q0 99 38 184.5t103.5 148.5t151.5 99.5t182 36.5q54 0 93.5 -11.5t66 -26.5t40.5 -29t17 -19l-44 -222h-5q13 68 5.5 119t-33.5 84.5t-69 50.5t-100 17q-38 0 -82.5 -8.5t-88.5 -28t-84.5 -50.5t-71.5 -76
t-49.5 -104.5t-18.5 -135.5q0 -70 19.5 -126t55.5 -95t88 -60t117 -21q63 0 117 20.5t93 53t61 71.5t22 75q0 31 -26.5 51t-67 32.5t-88 18.5t-89.5 10l1 5h318l-19 -95q-14 -70 -52 -122t-89 -87t-108 -52.5t-107 -17.5zM370 -50q19 0 27.5 -15t8.5 -35q0 -14 -4 -29.5
t-14.5 -32.5t-28.5 -37.5t-45 -44.5h-6q32 32 45.5 55t13.5 40q0 13 -7 20t-14.5 13t-13.5 13t-3 21q3 16 15 24t26 8z" />
    <glyph glyph-name="Gdotaccent.ss01" horiz-adv-x="761" 
d="M568 860q-21 0 -32 12t-11 30q0 25 18 43.5t45 18.5q20 0 31.5 -12.5t11.5 -30.5q0 -26 -18.5 -43.5t-44.5 -17.5zM402 -11q-67 0 -121.5 21.5t-93.5 62t-60.5 97.5t-21.5 129q0 99 38 184.5t103.5 148.5t151.5 99.5t182 36.5q54 0 93.5 -11.5t66 -26.5t40.5 -29t17 -19
l-44 -222h-5q13 68 5.5 119t-33.5 84.5t-69 50.5t-100 17q-38 0 -82.5 -8.5t-88.5 -28t-84.5 -50.5t-71.5 -76t-49.5 -104.5t-18.5 -135.5q0 -70 19.5 -126t55.5 -95t88 -60t117 -21q63 0 117 20.5t93 53t61 71.5t22 75q0 31 -26.5 51t-67 32.5t-88 18.5t-89.5 10l1 5h318
l-19 -95q-14 -70 -52 -122t-89 -87t-108 -52.5t-107 -17.5z" />
    <glyph glyph-name="J.ss01" horiz-adv-x="484" 
d="M208 -11q-33 0 -56.5 8t-40 21t-27.5 29.5t-19 33.5l276 472h5q-51 -90 -90.5 -162t-67 -127.5t-41.5 -96.5t-14 -70q0 -36 21 -53.5t58 -17.5q25 0 46.5 6.5t40 27t33.5 58.5t27 101l90 466q3 18 3.5 29t-6 17.5t-20.5 10.5t-39 8l2 10h195l-2 -10q-26 -4 -41.5 -8
t-25 -10.5t-14 -17.5t-7.5 -29l-94 -483q-9 -44 -21.5 -82.5t-34 -67.5t-54.5 -46t-82 -17z" />
    <glyph glyph-name="K.ss01" horiz-adv-x="620" 
d="M701 750q-39 -4 -74.5 -14.5t-59.5 -35.5l-299 -306l203 -333q15 -25 45.5 -36t67.5 -15l-2 -10h-195l2 10q18 3 28 6t13 8.5t-0.5 14t-12.5 22.5l-179 293l-56 -289q-3 -14 -2.5 -23t7.5 -15t21 -9.5t38 -7.5l-2 -10h-195l2 10q27 4 42.5 7.5t24.5 9.5t12.5 15t6.5 23
l120 620q3 18 3.5 29t-6 17.5t-20.5 10.5t-39 8l2 10h195l-2 -10q-26 -4 -41.5 -8t-25 -10.5t-14 -17.5t-7.5 -29l-54 -279l281 283q18 18 25 29t3.5 17.5t-16.5 9.5t-35 5l2 10h195l-2 -10v0z" />
    <glyph glyph-name="Kcommaaccent.ss01" horiz-adv-x="620" 
d="M701 750q-39 -4 -74.5 -14.5t-59.5 -35.5l-299 -306l203 -333q15 -25 45.5 -36t67.5 -15l-2 -10h-195l2 10q18 3 28 6t13 8.5t-0.5 14t-12.5 22.5l-179 293l-56 -289q-3 -14 -2.5 -23t7.5 -15t21 -9.5t38 -7.5l-2 -10h-195l2 10q27 4 42.5 7.5t24.5 9.5t12.5 15t6.5 23
l120 620q3 18 3.5 29t-6 17.5t-20.5 10.5t-39 8l2 10h195l-2 -10q-26 -4 -41.5 -8t-25 -10.5t-14 -17.5t-7.5 -29l-54 -279l281 283q18 18 25 29t3.5 17.5t-16.5 9.5t-35 5l2 10h195zM299 -50q19 0 27.5 -15t8.5 -35q0 -14 -4 -29.5t-14.5 -32.5t-28.5 -37.5t-45 -44.5h-6
q32 32 45.5 55t13.5 40q0 13 -7 20t-14.5 13t-13.5 13t-3 21q3 16 15 24t26 8z" />
    <glyph glyph-name="P.ss01" horiz-adv-x="639" 
d="M51 10q27 4 42.5 8t24.5 10.5t13.5 17.5t7.5 29l120 618q3 13 2.5 22.5t-7.5 16t-21 11t-38 7.5l2 10h282q104 0 161.5 -48.5t57.5 -135.5q0 -56 -20 -105.5t-55 -87t-82 -59.5t-100 -22q-30 0 -56 7.5t-46 19.5t-34.5 27t-23.5 30l165 278h5q-12 -23 -28 -54t-31 -65
t-25 -67.5t-10 -62.5q0 -52 26 -74.5t64 -22.5q43 0 79.5 22t63 58.5t41.5 83.5t15 98q0 76 -41 118t-121 42h-140q-19 0 -27 -10.5t-13 -36.5l-120 -618q-3 -18 -3 -29t6.5 -17.5t20.5 -10.5t38 -8l-2 -10h-195z" />
    <glyph glyph-name="Q.ss01" horiz-adv-x="832" 
d="M560 -184q27 0 53.5 8.5t49.5 22.5t43 32t34 37h6q-9 -15 -27 -35.5t-43.5 -40t-60 -33t-76.5 -13.5q-27 0 -59.5 8t-59 29.5t-41.5 59.5t-9 98q-58 3 -106.5 27.5t-83.5 66t-54.5 98t-19.5 124.5t18.5 128.5t51 112t75.5 92.5t93 70t104 44.5t107 15.5q63 0 116 -24
t92 -66t60.5 -99.5t21.5 -124.5q0 -93 -35.5 -173t-93.5 -140.5t-132 -99.5t-150 -49q-5 -47 3.5 -80.5t26.5 -54.5t43 -31t53 -10zM157 316q0 -75 23 -129.5t60 -90.5t83 -53t92 -17q34 0 75 8.5t83 28.5t81 51.5t69 77.5t48.5 107.5t18.5 140.5q0 72 -21.5 126.5t-57.5 91
t-83 55t-98 18.5q-45 0 -101 -17t-108.5 -54.5t-95 -98.5t-59.5 -149q-9 -51 -9 -96z" />
    <glyph glyph-name="R.ss01" horiz-adv-x="657" 
d="M51 10q27 4 42.5 8t24.5 10.5t13.5 17.5t7.5 29l120 618q1 5 1.5 9.5t0.5 8.5q0 17 -13.5 25.5t-52.5 13.5l2 10h284q50 0 90.5 -12.5t69 -36t44 -56.5t15.5 -73q0 -43 -18 -87.5t-51.5 -80.5t-81 -59t-107.5 -23q-14 0 -28.5 2t-29.5 10l134 -283q14 -26 35.5 -37.5
t57.5 -13.5l-2 -10h-215l2 10q15 3 28.5 4.5t23 4.5t15.5 8.5t6 14.5q0 6 -5 19l-163 372l247 184h7q-17 -14 -40 -33.5t-46 -41.5t-44 -46t-34 -46q-8 -15 -13.5 -30.5t-5.5 -29.5q0 -12 4 -20t11.5 -12t16 -6.5t17.5 -3t15 -0.5q41 0 72.5 13t55.5 34t40 47.5t26 54
t14.5 52.5t4.5 44q0 32 -10 59t-31 46.5t-54 30.5t-80 11h-130q-19 0 -27 -10.5t-13 -36.5l-120 -618q-3 -17 -3 -26q0 -19 13.5 -26t51.5 -13l-2 -10h-195z" />
    <glyph glyph-name="S.ss01" horiz-adv-x="591" 
d="M455 419q60 -20 96.5 -58t36.5 -105q0 -61 -24.5 -110t-66 -84t-96.5 -54t-115 -19q-47 0 -83.5 11t-63.5 28.5t-44 38t-25 39.5l221 303q-43 23 -67 54.5t-24 79.5q0 33 13.5 72.5t43 73t77.5 56.5t117 23q37 0 66.5 -7t53 -18.5t41 -26t31.5 -29.5zM230 574
q0 -75 97 -116l91 124h10l-91 -128q20 -8 43.5 -14t51.5 -14q4 -1 7 -2t7 -2q42 61 67.5 100t39 63.5t18 38.5t4.5 27q0 25 -13 41.5t-32.5 26.5t-42.5 14t-44 4q-36 0 -73.5 -9.5t-68.5 -30t-51 -51t-20 -72.5zM305 16q43 0 87.5 12.5t80.5 39t59 67t23 96.5q0 57 -35 87.5
t-96 45.5q-2 1 -3 1t-3 1l-117 -167h-10l118 169q-21 5 -36 9t-27 8t-22.5 8.5t-22.5 10.5q-48 -68 -80 -113.5t-50.5 -76.5t-26 -51.5t-7.5 -39.5q0 -29 15.5 -49t40 -33t54 -19t58.5 -6z" />
    <glyph glyph-name="Sacute.ss01" horiz-adv-x="591" 
d="M607 987q0 -12 -17 -33t-43 -45.5t-56.5 -50.5t-57.5 -48h-8q38 55 66 91.5t48 58t33 30t21 8.5q14 0 14 -11zM455 419q60 -20 96.5 -58t36.5 -105q0 -61 -24.5 -110t-66 -84t-96.5 -54t-115 -19q-47 0 -83.5 11t-63.5 28.5t-44 38t-25 39.5l221 303q-43 23 -67 54.5
t-24 79.5q0 33 13.5 72.5t43 73t77.5 56.5t117 23q37 0 66.5 -7t53 -18.5t41 -26t31.5 -29.5zM230 574q0 -75 97 -116l91 124h10l-91 -128q20 -8 43.5 -14t51.5 -14q4 -1 7 -2t7 -2q42 61 67.5 100t39 63.5t18 38.5t4.5 27q0 25 -13 41.5t-32.5 26.5t-42.5 14t-44 4
q-36 0 -73.5 -9.5t-68.5 -30t-51 -51t-20 -72.5zM305 16q43 0 87.5 12.5t80.5 39t59 67t23 96.5q0 57 -35 87.5t-96 45.5q-2 1 -3 1t-3 1l-117 -167h-10l118 169q-21 5 -36 9t-27 8t-22.5 8.5t-22.5 10.5q-48 -68 -80 -113.5t-50.5 -76.5t-26 -51.5t-7.5 -39.5
q0 -29 15.5 -49t40 -33t54 -19t58.5 -6z" />
    <glyph glyph-name="Scaron.ss01" horiz-adv-x="591" 
d="M462 810q-9 0 -16 8.5t-15 29.5t-20 57.5t-33 92.5h8q24 -37 47 -72.5t38 -68.5q27 33 64.5 68.5t75.5 72.5h8q-43 -56 -69 -92.5t-42.5 -57.5t-26.5 -29.5t-19 -8.5zM455 419q60 -20 96.5 -58t36.5 -105q0 -61 -24.5 -110t-66 -84t-96.5 -54t-115 -19q-47 0 -83.5 11
t-63.5 28.5t-44 38t-25 39.5l221 303q-43 23 -67 54.5t-24 79.5q0 33 13.5 72.5t43 73t77.5 56.5t117 23q37 0 66.5 -7t53 -18.5t41 -26t31.5 -29.5zM230 574q0 -75 97 -116l91 124h10l-91 -128q20 -8 43.5 -14t51.5 -14q4 -1 7 -2t7 -2q42 61 67.5 100t39 63.5t18 38.5
t4.5 27q0 25 -13 41.5t-32.5 26.5t-42.5 14t-44 4q-36 0 -73.5 -9.5t-68.5 -30t-51 -51t-20 -72.5zM305 16q43 0 87.5 12.5t80.5 39t59 67t23 96.5q0 57 -35 87.5t-96 45.5q-2 1 -3 1t-3 1l-117 -167h-10l118 169q-21 5 -36 9t-27 8t-22.5 8.5t-22.5 10.5
q-48 -68 -80 -113.5t-50.5 -76.5t-26 -51.5t-7.5 -39.5q0 -29 15.5 -49t40 -33t54 -19t58.5 -6z" />
    <glyph glyph-name="Scedilla.ss01" horiz-adv-x="591" 
d="M455 419q60 -20 96.5 -58t36.5 -105q0 -57 -22 -104t-59.5 -81.5t-87 -55.5t-105.5 -25l-36 -47q35 0 50 -15.5t15 -37.5q0 -15 -7.5 -31.5t-20.5 -30.5t-31 -23t-39 -9q-15 0 -29 4.5t-25 12.5l1 5q11 -5 22.5 -7.5t22.5 -2.5q34 0 55 19t21 41q0 17 -15 31t-49 14l4 19
l44 57h-11q-47 0 -83.5 11t-63.5 28.5t-44 38t-25 39.5l221 303q-43 23 -67 54.5t-24 79.5q0 33 13.5 72.5t43 73t77.5 56.5t117 23q37 0 66.5 -7t53 -18.5t41 -26t31.5 -29.5zM230 574q0 -75 97 -116l91 124h10l-91 -128q20 -8 43.5 -14t51.5 -14q4 -1 7 -2t7 -2
q42 61 67.5 100t39 63.5t18 38.5t4.5 27q0 25 -13 41.5t-32.5 26.5t-42.5 14t-44 4q-36 0 -73.5 -9.5t-68.5 -30t-51 -51t-20 -72.5zM305 16q43 0 87.5 12.5t80.5 39t59 67t23 96.5q0 57 -35 87.5t-96 45.5q-2 1 -3 1t-3 1l-117 -167h-10l118 169q-21 5 -36 9t-27 8
t-22.5 8.5t-22.5 10.5q-48 -68 -80 -113.5t-50.5 -76.5t-26 -51.5t-7.5 -39.5q0 -29 15.5 -49t40 -33t54 -19t58.5 -6z" />
    <glyph glyph-name="Scommaaccent.ss01" horiz-adv-x="591" 
d="M455 419q60 -20 96.5 -58t36.5 -105q0 -61 -24.5 -110t-66 -84t-96.5 -54t-115 -19q-47 0 -83.5 11t-63.5 28.5t-44 38t-25 39.5l221 303q-43 23 -67 54.5t-24 79.5q0 33 13.5 72.5t43 73t77.5 56.5t117 23q37 0 66.5 -7t53 -18.5t41 -26t31.5 -29.5zM230 574
q0 -75 97 -116l91 124h10l-91 -128q20 -8 43.5 -14t51.5 -14q4 -1 7 -2t7 -2q42 61 67.5 100t39 63.5t18 38.5t4.5 27q0 25 -13 41.5t-32.5 26.5t-42.5 14t-44 4q-36 0 -73.5 -9.5t-68.5 -30t-51 -51t-20 -72.5zM305 16q43 0 87.5 12.5t80.5 39t59 67t23 96.5q0 57 -35 87.5
t-96 45.5q-2 1 -3 1t-3 1l-117 -167h-10l118 169q-21 5 -36 9t-27 8t-22.5 8.5t-22.5 10.5q-48 -68 -80 -113.5t-50.5 -76.5t-26 -51.5t-7.5 -39.5q0 -29 15.5 -49t40 -33t54 -19t58.5 -6zM280 -50q19 0 27.5 -15t8.5 -35q0 -14 -4 -29.5t-14.5 -32.5t-28.5 -37.5t-45 -44.5
h-6q32 32 45.5 55t13.5 40q0 13 -7 20t-14.5 13t-13.5 13t-3 21q3 16 15 24t26 8z" />
    <glyph glyph-name="Y.ss01" horiz-adv-x="783" 
d="M233 10q31 4 49.5 8.5t32.5 14t26 26t29 44.5l148 236q-25 -30 -46 -49.5t-40 -31t-37 -16.5t-37 -5q-59 0 -81.5 36t-22.5 96q0 38 6.5 84.5t15.5 98.5q3 17 6.5 42.5t3.5 51.5q0 20 -3 38.5t-10.5 33t-20.5 23.5t-33 9h-25l2 10h41q56 0 76.5 -27t20.5 -75
q0 -26 -4.5 -56t-11.5 -65q-6 -47 -12.5 -90.5t-6.5 -80.5q0 -47 17 -75.5t64 -28.5q12 0 29.5 5t46 29.5t70.5 75.5t103 144l110 175q8 13 13 21t5 14q0 10 -13 15t-48 9l2 10h185l-2 -10q-23 -2 -37.5 -5.5t-24.5 -10t-18.5 -17t-18.5 -26.5l-378 -603q-12 -20 -18 -31.5
t-6 -19.5q0 -11 16.5 -15t51.5 -12l-2 -10h-215z" />
    <glyph glyph-name="Yacute.ss01" horiz-adv-x="783" 
d="M456 810q38 55 66 91.5t48 58t33 30t21 8.5q14 0 14 -11q0 -12 -17 -33t-43 -45.5t-56.5 -50.5t-57.5 -48h-8zM233 10q31 4 49.5 8.5t32.5 14t26 26t29 44.5l148 236q-25 -30 -46 -49.5t-40 -31t-37 -16.5t-37 -5q-59 0 -81.5 36t-22.5 96q0 38 6.5 84.5t15.5 98.5
q3 17 6.5 42.5t3.5 51.5q0 20 -3 38.5t-10.5 33t-20.5 23.5t-33 9h-25l2 10h41q56 0 76.5 -27t20.5 -75q0 -26 -4.5 -56t-11.5 -65q-6 -47 -12.5 -90.5t-6.5 -80.5q0 -47 17 -75.5t64 -28.5q12 0 29.5 5t46 29.5t70.5 75.5t103 144l110 175q8 13 13 21t5 14q0 10 -13 15
t-48 9l2 10h185l-2 -10q-23 -2 -37.5 -5.5t-24.5 -10t-18.5 -17t-18.5 -26.5l-378 -603q-12 -20 -18 -31.5t-6 -19.5q0 -11 16.5 -15t51.5 -12l-2 -10h-215z" />
    <glyph glyph-name="Ycircumflex.ss01" horiz-adv-x="783" 
d="M389 810q43 56 69 92.5t42.5 57.5t26.5 29.5t19 8.5t15.5 -8.5t15 -29.5t20.5 -57.5t33 -92.5h-8q-24 37 -47 72.5t-38 68.5q-27 -33 -64.5 -68.5t-75.5 -72.5h-8zM233 10q31 4 49.5 8.5t32.5 14t26 26t29 44.5l148 236q-25 -30 -46 -49.5t-40 -31t-37 -16.5t-37 -5
q-59 0 -81.5 36t-22.5 96q0 38 6.5 84.5t15.5 98.5q3 17 6.5 42.5t3.5 51.5q0 20 -3 38.5t-10.5 33t-20.5 23.5t-33 9h-25l2 10h41q56 0 76.5 -27t20.5 -75q0 -26 -4.5 -56t-11.5 -65q-6 -47 -12.5 -90.5t-6.5 -80.5q0 -47 17 -75.5t64 -28.5q12 0 29.5 5t46 29.5t70.5 75.5
t103 144l110 175q8 13 13 21t5 14q0 10 -13 15t-48 9l2 10h185l-2 -10q-23 -2 -37.5 -5.5t-24.5 -10t-18.5 -17t-18.5 -26.5l-378 -603q-12 -20 -18 -31.5t-6 -19.5q0 -11 16.5 -15t51.5 -12l-2 -10h-215z" />
    <glyph glyph-name="Ydieresis.ss01" horiz-adv-x="783" 
d="M456 859q-16 0 -24 8.5t-8 22.5q0 19 13.5 32.5t33.5 13.5q14 0 23 -9t9 -23q0 -19 -13.5 -32t-33.5 -13zM586 859q-16 0 -24 8.5t-8 22.5q0 19 13.5 32.5t33.5 13.5q14 0 23 -9t9 -23q0 -19 -13.5 -32t-33.5 -13zM233 10q31 4 49.5 8.5t32.5 14t26 26t29 44.5l148 236
q-25 -30 -46 -49.5t-40 -31t-37 -16.5t-37 -5q-59 0 -81.5 36t-22.5 96q0 38 6.5 84.5t15.5 98.5q3 17 6.5 42.5t3.5 51.5q0 20 -3 38.5t-10.5 33t-20.5 23.5t-33 9h-25l2 10h41q56 0 76.5 -27t20.5 -75q0 -26 -4.5 -56t-11.5 -65q-6 -47 -12.5 -90.5t-6.5 -80.5
q0 -47 17 -75.5t64 -28.5q12 0 29.5 5t46 29.5t70.5 75.5t103 144l110 175q8 13 13 21t5 14q0 10 -13 15t-48 9l2 10h185l-2 -10q-23 -2 -37.5 -5.5t-24.5 -10t-18.5 -17t-18.5 -26.5l-378 -603q-12 -20 -18 -31.5t-6 -19.5q0 -11 16.5 -15t51.5 -12l-2 -10h-215z" />
    <glyph glyph-name="Ygrave.ss01" horiz-adv-x="783" 
d="M535 810q-17 20 -36 44.5t-35 47.5t-26 43.5t-10 33.5q0 8 4 13.5t15 5.5q8 0 18 -8.5t22 -30t26 -58t30 -91.5h-8zM233 10q31 4 49.5 8.5t32.5 14t26 26t29 44.5l148 236q-25 -30 -46 -49.5t-40 -31t-37 -16.5t-37 -5q-59 0 -81.5 36t-22.5 96q0 38 6.5 84.5t15.5 98.5
q3 17 6.5 42.5t3.5 51.5q0 20 -3 38.5t-10.5 33t-20.5 23.5t-33 9h-25l2 10h41q56 0 76.5 -27t20.5 -75q0 -26 -4.5 -56t-11.5 -65q-6 -47 -12.5 -90.5t-6.5 -80.5q0 -47 17 -75.5t64 -28.5q12 0 29.5 5t46 29.5t70.5 75.5t103 144l110 175q8 13 13 21t5 14q0 10 -13 15
t-48 9l2 10h185l-2 -10q-23 -2 -37.5 -5.5t-24.5 -10t-18.5 -17t-18.5 -26.5l-378 -603q-12 -20 -18 -31.5t-6 -19.5q0 -11 16.5 -15t51.5 -12l-2 -10h-215z" />
    <glyph glyph-name="Z.ss01" horiz-adv-x="569" 
d="M471 513l50 -502l-2 -11h-465l-3 10l209 282l-47 457l2 11h427l3 -10zM249 584q0 -41 4.5 -117t12.5 -166l317 429h-195q-36 0 -62.5 -7t-43.5 -24t-25 -45t-8 -70zM486 192q0 46 -5.5 130t-14.5 184l-195 -266q3 -35 6.5 -69.5t6.5 -67.5h-5l-13 130l-149 -203h229
q36 0 62.5 7.5t44 26t25.5 49.5t8 79z" />
    <glyph glyph-name="Zacute.ss01" horiz-adv-x="569" 
d="M575 987q0 -12 -17 -33t-43 -45.5t-56.5 -50.5t-57.5 -48h-8q38 55 66 91.5t48 58t33 30t21 8.5q14 0 14 -11zM471 513l50 -502l-2 -11h-465l-3 10l209 282l-47 457l2 11h427l3 -10zM249 584q0 -41 4.5 -117t12.5 -166l317 429h-195q-36 0 -62.5 -7t-43.5 -24t-25 -45
t-8 -70zM486 192q0 46 -5.5 130t-14.5 184l-195 -266q3 -35 6.5 -69.5t6.5 -67.5h-5l-13 130l-149 -203h229q36 0 62.5 7.5t44 26t25.5 49.5t8 79z" />
    <glyph glyph-name="Zcaron.ss01" horiz-adv-x="569" 
d="M415 810q-9 0 -16 8.5t-15 29.5t-20 57.5t-33 92.5h8q24 -37 47 -72.5t38 -68.5q27 33 64.5 68.5t75.5 72.5h8q-43 -56 -69 -92.5t-42.5 -57.5t-26.5 -29.5t-19 -8.5zM471 513l50 -502l-2 -11h-465l-3 10l209 282l-47 457l2 11h427l3 -10zM249 584q0 -41 4.5 -117
t12.5 -166l317 429h-195q-36 0 -62.5 -7t-43.5 -24t-25 -45t-8 -70zM486 192q0 46 -5.5 130t-14.5 184l-195 -266q3 -35 6.5 -69.5t6.5 -67.5h-5l-13 130l-149 -203h229q36 0 62.5 7.5t44 26t25.5 49.5t8 79z" />
    <glyph glyph-name="Zdotaccent.ss01" horiz-adv-x="569" 
d="M431 860q-21 0 -32 12t-11 30q0 25 18 43.5t45 18.5q20 0 31.5 -12.5t11.5 -30.5q0 -26 -18.5 -43.5t-44.5 -17.5zM471 513l50 -502l-2 -11h-465l-3 10l209 282l-47 457l2 11h427l3 -10zM249 584q0 -41 4.5 -117t12.5 -166l317 429h-195q-36 0 -62.5 -7t-43.5 -24
t-25 -45t-8 -70zM486 192q0 46 -5.5 130t-14.5 184l-195 -266q3 -35 6.5 -69.5t6.5 -67.5h-5l-13 130l-149 -203h229q36 0 62.5 7.5t44 26t25.5 49.5t8 79z" />
    <glyph glyph-name="B.ss02" horiz-adv-x="666" 
d="M51 10q27 4 42.5 6.5t24 7.5t12.5 14.5t7 26.5l124 638q3 13 2 21t-8 12.5t-21.5 7.5t-38.5 6l2 10h275q108 0 164.5 -46.5t56.5 -118.5q0 -44 -16.5 -79.5t-43 -63t-59.5 -45.5t-65 -27q67 -12 108 -49.5t41 -103.5q0 -43 -16.5 -84t-51 -72.5t-87 -51t-123.5 -19.5
h-331zM429 388q46 0 85.5 16.5t68.5 45.5t45 69t16 87q0 134 -184 134h-116q-19 0 -26 -5.5t-12 -31.5l-39 -201q23 -55 62.5 -84.5t99.5 -29.5zM378 16q71 0 115.5 24.5t69 58.5t33.5 70.5t9 60.5q0 71 -48 106.5t-128 35.5q-61 0 -102 29t-61 96l-84 -432q-3 -18 -2.5 -28
t8 -14.5t21.5 -5.5t38 -1h131z" />
    <glyph glyph-name="P.ss02" horiz-adv-x="639" 
d="M440 760q59 0 107 -12t81.5 -35t52 -57t18.5 -78q0 -57 -21 -107.5t-58.5 -88t-88.5 -59t-111 -21.5q-59 0 -103.5 22.5t-68.5 81.5l-64 -331q-3 -18 -3 -29t6.5 -18t20.5 -10.5t38 -7.5l-2 -10h-195l2 10q27 4 42.5 8t24.5 11t13 18t7 28l121 618q3 13 2.5 22.5t-7.5 16
t-21 11t-38 7.5l2 10h243zM423 318q47 0 87.5 20.5t70.5 55.5t47 81.5t17 99.5q0 79 -54.5 122t-144.5 43h-102q-19 0 -27 -10.5t-13 -36.5l-55 -282q27 -51 71.5 -72t102.5 -21z" />
    <glyph glyph-name="R.ss02" horiz-adv-x="682" 
d="M539 67q19 -30 40 -42.5t57 -14.5l-2 -10h-215l2 10q18 3 35 5t27.5 7t13 13.5t-7.5 25.5l-189 303q-24 29 -44 83l-72 -372q-3 -18 -3 -29t6.5 -18t20.5 -10.5t38 -7.5l-2 -10h-195l2 10q27 4 42.5 8t24.5 11t13 18t7 28l121 618q3 13 2.5 22.5t-7.5 16t-21 11t-38 7.5
l2 10h243q59 0 107 -12t81.5 -35t52 -57t18.5 -78q0 -58 -21 -107t-57.5 -84t-87.5 -55t-111 -20q-20 0 -38 3zM257 452q30 -67 70 -95.5t98 -28.5q47 0 87.5 18.5t70 51.5t46 78t16.5 99q0 79 -54.5 122t-144.5 43h-102q-19 0 -27 -10.5t-13 -36.5z" />
    <glyph glyph-name="Racute.ss02" horiz-adv-x="682" 
d="M589 987q0 -12 -17 -33t-43 -45.5t-56.5 -50.5t-57.5 -48h-8q38 55 66 91.5t48 58t33 30t21 8.5q14 0 14 -11zM539 67q19 -30 40 -42.5t57 -14.5l-2 -10h-215l2 10q18 3 35 5t27.5 7t13 13.5t-7.5 25.5l-189 303q-24 29 -44 83l-72 -372q-3 -18 -3 -29t6.5 -18
t20.5 -10.5t38 -7.5l-2 -10h-195l2 10q27 4 42.5 8t24.5 11t13 18t7 28l121 618q3 13 2.5 22.5t-7.5 16t-21 11t-38 7.5l2 10h243q59 0 107 -12t81.5 -35t52 -57t18.5 -78q0 -58 -21 -107t-57.5 -84t-87.5 -55t-111 -20q-20 0 -38 3zM257 452q30 -67 70 -95.5t98 -28.5
q47 0 87.5 18.5t70 51.5t46 78t16.5 99q0 79 -54.5 122t-144.5 43h-102q-19 0 -27 -10.5t-13 -36.5z" />
    <glyph glyph-name="Rcaron.ss02" horiz-adv-x="682" 
d="M446 810q-9 0 -16 8.5t-15 29.5t-20 57.5t-33 92.5h8q24 -37 47 -72.5t38 -68.5q27 33 64.5 68.5t75.5 72.5h8q-43 -56 -69 -92.5t-42.5 -57.5t-26.5 -29.5t-19 -8.5zM539 67q19 -30 40 -42.5t57 -14.5l-2 -10h-215l2 10q18 3 35 5t27.5 7t13 13.5t-7.5 25.5l-189 303
q-24 29 -44 83l-72 -372q-3 -18 -3 -29t6.5 -18t20.5 -10.5t38 -7.5l-2 -10h-195l2 10q27 4 42.5 8t24.5 11t13 18t7 28l121 618q3 13 2.5 22.5t-7.5 16t-21 11t-38 7.5l2 10h243q59 0 107 -12t81.5 -35t52 -57t18.5 -78q0 -58 -21 -107t-57.5 -84t-87.5 -55t-111 -20
q-20 0 -38 3zM257 452q30 -67 70 -95.5t98 -28.5q47 0 87.5 18.5t70 51.5t46 78t16.5 99q0 79 -54.5 122t-144.5 43h-102q-19 0 -27 -10.5t-13 -36.5z" />
    <glyph glyph-name="Rcommaaccent.ss02" horiz-adv-x="682" 
d="M539 67q19 -30 40 -42.5t57 -14.5l-2 -10h-215l2 10q18 3 35 5t27.5 7t13 13.5t-7.5 25.5l-189 303q-24 29 -44 83l-72 -372q-3 -18 -3 -29t6.5 -18t20.5 -10.5t38 -7.5l-2 -10h-195l2 10q27 4 42.5 8t24.5 11t13 18t7 28l121 618q3 13 2.5 22.5t-7.5 16t-21 11t-38 7.5
l2 10h243q59 0 107 -12t81.5 -35t52 -57t18.5 -78q0 -58 -21 -107t-57.5 -84t-87.5 -55t-111 -20q-20 0 -38 3zM257 452q30 -67 70 -95.5t98 -28.5q47 0 87.5 18.5t70 51.5t46 78t16.5 99q0 79 -54.5 122t-144.5 43h-102q-19 0 -27 -10.5t-13 -36.5zM288 -50q19 0 27.5 -15
t8.5 -35q0 -14 -4 -29.5t-14.5 -32.5t-28.5 -37.5t-45 -44.5h-6q32 32 45.5 55t13.5 40q0 13 -7 20t-14.5 13t-13.5 13t-3 21q3 16 15 24t26 8z" />
    <glyph glyph-name="a" unicode="a" horiz-adv-x="481" 
d="M181 -12q-48 0 -79 38t-31 118q0 73 28 137.5t77 113t116.5 77t146.5 28.5l-3 -15q-70 0 -129.5 -25.5t-103.5 -69t-69 -102t-25 -124.5q0 -69 25.5 -107t66.5 -38q23 0 46 12t46 34t45 51.5t43 64.5l58 319h40l-79 -412q-4 -20 -2 -31t9.5 -16t19.5 -4.5t29 3.5l-2 -10
l-101 -30h-10l17 80l15 67q-45 -72 -94 -115.5t-100 -43.5z" />
    <glyph glyph-name="aacute" unicode="&#xe1;" horiz-adv-x="481" 
d="M319 575q38 55 66 91.5t48 58t33 30t21 8.5q14 0 14 -11q0 -12 -17 -33t-43 -45.5t-56.5 -50.5t-57.5 -48h-8zM181 -12q-48 0 -79 38t-31 118q0 73 28 137.5t77 113t116.5 77t146.5 28.5l-3 -15q-70 0 -129.5 -25.5t-103.5 -69t-69 -102t-25 -124.5q0 -69 25.5 -107
t66.5 -38q23 0 46 12t46 34t45 51.5t43 64.5l58 319h40l-79 -412q-4 -20 -2 -31t9.5 -16t19.5 -4.5t29 3.5l-2 -10l-101 -30h-10l17 80l15 67q-45 -72 -94 -115.5t-100 -43.5z" />
    <glyph glyph-name="abreve" unicode="&#x103;" horiz-adv-x="481" 
d="M355 575q-24 0 -46.5 9.5t-37.5 32t-20 58t5 88.5h8q-5 -26 -3 -52t13 -47t32.5 -34t56.5 -13q34 0 61 13t46 34t31 47t17 52h8q-10 -53 -29 -88.5t-42.5 -58t-49.5 -32t-50 -9.5zM181 -12q-48 0 -79 38t-31 118q0 73 28 137.5t77 113t116.5 77t146.5 28.5l-3 -15
q-70 0 -129.5 -25.5t-103.5 -69t-69 -102t-25 -124.5q0 -69 25.5 -107t66.5 -38q23 0 46 12t46 34t45 51.5t43 64.5l58 319h40l-79 -412q-4 -20 -2 -31t9.5 -16t19.5 -4.5t29 3.5l-2 -10l-101 -30h-10l17 80l15 67q-45 -72 -94 -115.5t-100 -43.5z" />
    <glyph glyph-name="acircumflex" unicode="&#xe2;" horiz-adv-x="481" 
d="M240 575q43 56 69 92.5t42.5 57.5t26.5 29.5t19 8.5t15.5 -8.5t15 -29.5t20.5 -57.5t33 -92.5h-8q-24 37 -47 72.5t-38 68.5q-27 -33 -64.5 -68.5t-75.5 -72.5h-8zM181 -12q-48 0 -79 38t-31 118q0 73 28 137.5t77 113t116.5 77t146.5 28.5l-3 -15q-70 0 -129.5 -25.5
t-103.5 -69t-69 -102t-25 -124.5q0 -69 25.5 -107t66.5 -38q23 0 46 12t46 34t45 51.5t43 64.5l58 319h40l-79 -412q-4 -20 -2 -31t9.5 -16t19.5 -4.5t29 3.5l-2 -10l-101 -30h-10l17 80l15 67q-45 -72 -94 -115.5t-100 -43.5z" />
    <glyph glyph-name="adieresis" unicode="&#xe4;" horiz-adv-x="481" 
d="M327 628q-16 0 -24 8.5t-8 22.5q0 19 13.5 32.5t33.5 13.5q14 0 23 -9t9 -23q0 -19 -13.5 -32t-33.5 -13zM457 628q-16 0 -24 8.5t-8 22.5q0 19 13.5 32.5t33.5 13.5q14 0 23 -9t9 -23q0 -19 -13.5 -32t-33.5 -13zM181 -12q-48 0 -79 38t-31 118q0 73 28 137.5t77 113
t116.5 77t146.5 28.5l-3 -15q-70 0 -129.5 -25.5t-103.5 -69t-69 -102t-25 -124.5q0 -69 25.5 -107t66.5 -38q23 0 46 12t46 34t45 51.5t43 64.5l58 319h40l-79 -412q-4 -20 -2 -31t9.5 -16t19.5 -4.5t29 3.5l-2 -10l-101 -30h-10l17 80l15 67q-45 -72 -94 -115.5
t-100 -43.5z" />
    <glyph glyph-name="agrave" unicode="&#xe0;" horiz-adv-x="481" 
d="M418 575q-17 20 -36 44.5t-35 47.5t-26 43.5t-10 33.5q0 8 4 13.5t15 5.5q8 0 18 -8.5t22 -30t26 -58t30 -91.5h-8zM181 -12q-48 0 -79 38t-31 118q0 73 28 137.5t77 113t116.5 77t146.5 28.5l-3 -15q-70 0 -129.5 -25.5t-103.5 -69t-69 -102t-25 -124.5q0 -69 25.5 -107
t66.5 -38q23 0 46 12t46 34t45 51.5t43 64.5l58 319h40l-79 -412q-4 -20 -2 -31t9.5 -16t19.5 -4.5t29 3.5l-2 -10l-101 -30h-10l17 80l15 67q-45 -72 -94 -115.5t-100 -43.5z" />
    <glyph glyph-name="amacron" unicode="&#x101;" horiz-adv-x="481" 
d="M259 680h263l-7 -38h-263zM181 -12q-48 0 -79 38t-31 118q0 73 28 137.5t77 113t116.5 77t146.5 28.5l-3 -15q-70 0 -129.5 -25.5t-103.5 -69t-69 -102t-25 -124.5q0 -69 25.5 -107t66.5 -38q23 0 46 12t46 34t45 51.5t43 64.5l58 319h40l-79 -412q-4 -20 -2 -31t9.5 -16
t19.5 -4.5t29 3.5l-2 -10l-101 -30h-10l17 80l15 67q-45 -72 -94 -115.5t-100 -43.5z" />
    <glyph glyph-name="aogonek" unicode="&#x105;" horiz-adv-x="481" 
d="M181 -12q-48 0 -79 38t-31 118q0 73 28 137.5t77 113t116.5 77t146.5 28.5l-3 -15q-70 0 -129.5 -25.5t-103.5 -69t-69 -102t-25 -124.5q0 -69 25.5 -107t66.5 -38q23 0 46 12t46 34t45 51.5t43 64.5l58 319h40l-79 -412q-4 -20 -2 -31t9.5 -16t19.5 -4.5t29 3.5l-2 -10
l-101 -30h-10l17 80l15 67q-45 -72 -94 -115.5t-100 -43.5zM323 -207q-23 0 -38 15.5t-15 41.5q0 27 15.5 52.5t35 46t37.5 34.5t23 18h11q-7 -5 -22 -18.5t-30 -32.5t-26.5 -40.5t-11.5 -43.5t11.5 -34.5t31.5 -12.5q14 0 30 7t33 21h5q-22 -26 -44.5 -40t-45.5 -14z" />
    <glyph glyph-name="aring" unicode="&#xe5;" horiz-adv-x="481" 
d="M360 572q-30 0 -48.5 20t-18.5 48q0 19 8.5 35.5t22 29.5t31 20.5t36.5 7.5q29 0 47.5 -19.5t18.5 -48.5q0 -18 -8.5 -35t-22 -30t-31 -20.5t-35.5 -7.5zM364 595q13 0 25.5 5.5t22.5 14.5t16 21t6 25q0 20 -13.5 34.5t-33.5 14.5q-14 0 -26.5 -5.5t-22 -14.5t-15.5 -21
t-6 -25q0 -20 13 -34.5t34 -14.5zM181 -12q-48 0 -79 38t-31 118q0 73 28 137.5t77 113t116.5 77t146.5 28.5l-3 -15q-70 0 -129.5 -25.5t-103.5 -69t-69 -102t-25 -124.5q0 -69 25.5 -107t66.5 -38q23 0 46 12t46 34t45 51.5t43 64.5l58 319h40l-79 -412q-4 -20 -2 -31
t9.5 -16t19.5 -4.5t29 3.5l-2 -10l-101 -30h-10l17 80l15 67q-45 -72 -94 -115.5t-100 -43.5z" />
    <glyph glyph-name="atilde" unicode="&#xe3;" horiz-adv-x="481" 
d="M241 630q14 46 40 70.5t57 24.5q21 0 33.5 -8.5t23 -18t21 -18t27.5 -8.5q21 0 42 15.5t36 47.5h3q-14 -46 -40 -70.5t-58 -24.5q-21 0 -33.5 8.5t-22.5 18t-20.5 18t-26.5 8.5q-21 0 -42 -15.5t-37 -47.5h-3zM181 -12q-48 0 -79 38t-31 118q0 73 28 137.5t77 113
t116.5 77t146.5 28.5l-3 -15q-70 0 -129.5 -25.5t-103.5 -69t-69 -102t-25 -124.5q0 -69 25.5 -107t66.5 -38q23 0 46 12t46 34t45 51.5t43 64.5l58 319h40l-79 -412q-4 -20 -2 -31t9.5 -16t19.5 -4.5t29 3.5l-2 -10l-101 -30h-10l17 80l15 67q-45 -72 -94 -115.5
t-100 -43.5z" />
    <glyph glyph-name="ae" unicode="&#xe6;" horiz-adv-x="785" 
d="M185 -12q-53 0 -83.5 38.5t-30.5 116.5q0 74 28 139t77.5 113.5t117.5 76.5t147 28h37l-19 -100q33 51 82 83t109 32q29 0 54.5 -8.5t44.5 -24.5t30 -40.5t11 -55.5q0 -35 -13 -67t-31 -57.5t-37 -44t-31 -26.5l-239 107q-23 -86 -17 -140.5t28.5 -85t55.5 -41.5t64 -11
q64 0 115.5 38.5t99.5 117.5h5q-18 -38 -43.5 -72t-57.5 -59.5t-69.5 -40.5t-80.5 -15q-26 0 -51 6t-47 20t-39 36t-27 54q-54 -60 -99.5 -88.5t-90.5 -28.5zM214 19q45 0 83.5 28.5t70.5 73.5l70 364q-69 0 -129 -25.5t-104.5 -69t-69.5 -102t-25 -124.5q0 -69 27 -107
t77 -38zM642 254q32 0 55.5 10.5t39 27.5t23 38t7.5 43q0 29 -11.5 50t-30.5 34.5t-43 20t-49 6.5q-27 0 -55 -8.5t-53.5 -29.5t-47 -55.5t-37.5 -86.5q74 -29 123.5 -39.5t78.5 -10.5z" />
    <glyph glyph-name="b" unicode="b" horiz-adv-x="469" 
d="M236 -11q-67 0 -105.5 37.5t-38.5 113.5q0 17 1.5 34t5.5 37l95 484q6 27 6 42t-6 20.5t-20 5.5q-12 0 -31 -3l2 10l101 30h10l-56 -295q82 4 136 -16t86 -53.5t45 -76t13 -82.5q0 -44 -16 -94.5t-46.5 -93.5t-76 -71.5t-105.5 -28.5zM235 20q38 0 74.5 18t65 50.5
t45.5 78t17 99.5q0 42 -13 84t-41.5 74t-74 51t-110.5 15l-57 -271q-8 -43 -8 -74q0 -58 24.5 -91.5t77.5 -33.5z" />
    <glyph glyph-name="c" unicode="c" horiz-adv-x="512" 
d="M255 -11q-43 0 -75.5 17t-54.5 45.5t-33 66.5t-11 79q0 59 22 116t60 102t90.5 72.5t112.5 27.5q36 0 63 -8.5t45.5 -20.5t29.5 -25.5t16 -23.5l-102 -171h-5q41 76 41 129q0 42 -25.5 65.5t-76.5 23.5q-41 0 -82.5 -17.5t-74.5 -51t-53.5 -83.5t-20.5 -114
q0 -47 12 -83.5t32.5 -62t48 -39t59.5 -13.5q72 0 127.5 38t104.5 118h5q-19 -38 -44 -71.5t-56.5 -59.5t-70 -41t-84.5 -15z" />
    <glyph glyph-name="cacute" unicode="&#x107;" horiz-adv-x="512" 
d="M294 575q38 55 66 91.5t48 58t33 30t21 8.5q14 0 14 -11q0 -12 -17 -33t-43 -45.5t-56.5 -50.5t-57.5 -48h-8zM255 -11q-43 0 -75.5 17t-54.5 45.5t-33 66.5t-11 79q0 59 22 116t60 102t90.5 72.5t112.5 27.5q36 0 63 -8.5t45.5 -20.5t29.5 -25.5t16 -23.5l-102 -171h-5
q41 76 41 129q0 42 -25.5 65.5t-76.5 23.5q-41 0 -82.5 -17.5t-74.5 -51t-53.5 -83.5t-20.5 -114q0 -47 12 -83.5t32.5 -62t48 -39t59.5 -13.5q72 0 127.5 38t104.5 118h5q-19 -38 -44 -71.5t-56.5 -59.5t-70 -41t-84.5 -15z" />
    <glyph glyph-name="ccaron" unicode="&#x10d;" horiz-adv-x="512" 
d="M533 763q-43 -56 -69 -92.5t-42.5 -57.5t-26.5 -29.5t-19 -8.5t-16 8.5t-15 29.5t-20 57.5t-33 92.5h8q24 -37 47 -72.5t38 -68.5q27 33 64.5 68.5t75.5 72.5h8zM255 -11q-43 0 -75.5 17t-54.5 45.5t-33 66.5t-11 79q0 59 22 116t60 102t90.5 72.5t112.5 27.5
q36 0 63 -8.5t45.5 -20.5t29.5 -25.5t16 -23.5l-102 -171h-5q41 76 41 129q0 42 -25.5 65.5t-76.5 23.5q-41 0 -82.5 -17.5t-74.5 -51t-53.5 -83.5t-20.5 -114q0 -47 12 -83.5t32.5 -62t48 -39t59.5 -13.5q72 0 127.5 38t104.5 118h5q-19 -38 -44 -71.5t-56.5 -59.5t-70 -41
t-84.5 -15z" />
    <glyph glyph-name="ccedilla" unicode="&#xe7;" horiz-adv-x="512" 
d="M273 20q72 0 127.5 38t104.5 118h5q-18 -36 -41 -68t-52.5 -57.5t-65 -41.5t-77.5 -19l-36 -47q35 0 50 -15.5t15 -37.5q0 -15 -7.5 -31.5t-20.5 -30.5t-31 -23t-39 -9q-15 0 -29 4.5t-25 12.5l1 5q11 -5 22.5 -7.5t22.5 -2.5q34 0 55 19t21 41q0 17 -15 31t-49 14l4 19
l44 57h-2q-43 0 -75.5 17t-54.5 45.5t-33 66.5t-11 79q0 59 22 116t60 102t90.5 72.5t112.5 27.5q36 0 63 -8.5t45.5 -20.5t29.5 -25.5t16 -23.5l-102 -171h-5q41 76 41 129q0 42 -25.5 65.5t-76.5 23.5q-41 0 -82.5 -17.5t-74.5 -51t-53.5 -83.5t-20.5 -114q0 -47 12 -83.5
t32.5 -62t48 -39t59.5 -13.5z" />
    <glyph glyph-name="cdotaccent" unicode="&#x10b;" horiz-adv-x="512" 
d="M373 605q-21 0 -32 12t-11 30q0 25 18 43.5t45 18.5q20 0 31.5 -12.5t11.5 -30.5q0 -26 -18.5 -43.5t-44.5 -17.5zM255 -11q-43 0 -75.5 17t-54.5 45.5t-33 66.5t-11 79q0 59 22 116t60 102t90.5 72.5t112.5 27.5q36 0 63 -8.5t45.5 -20.5t29.5 -25.5t16 -23.5l-102 -171
h-5q41 76 41 129q0 42 -25.5 65.5t-76.5 23.5q-41 0 -82.5 -17.5t-74.5 -51t-53.5 -83.5t-20.5 -114q0 -47 12 -83.5t32.5 -62t48 -39t59.5 -13.5q72 0 127.5 38t104.5 118h5q-19 -38 -44 -71.5t-56.5 -59.5t-70 -41t-84.5 -15z" />
    <glyph glyph-name="d" unicode="d" horiz-adv-x="459" 
d="M565 800l-156 -800h-40q-83 0 -137.5 20t-86.5 52.5t-45.5 72.5t-13.5 80q0 43 16 94t47 94.5t76.5 72.5t105.5 29q47 0 76 -25.5t46 -56.5l51 262q5 25 5.5 40t-5 21.5t-18.5 7t-34 -3.5l2 10l101 30h10zM448 404q-8 14 -18.5 28t-25 25.5t-32.5 19t-40 7.5
q-38 0 -74.5 -19t-65 -52t-46 -78t-17.5 -98q0 -41 13.5 -79.5t42.5 -69t75.5 -50.5t111.5 -23z" />
    <glyph glyph-name="eth" unicode="&#xf0;" horiz-adv-x="529" 
d="M477 675q33 -61 55.5 -135.5t22.5 -162.5q0 -77 -19 -147t-56 -123.5t-90 -85.5t-122 -32q-50 0 -85.5 19.5t-57.5 51t-32 70t-10 76.5q0 48 20 102.5t56.5 100.5t88 76t115.5 30q48 0 82.5 -19.5t62.5 -57.5h5q-8 67 -29 123t-50 103l-128 -32l-3 23l119 30
q-23 35 -46 63.5t-43 51.5h57q19 -22 38 -48t37 -56l117 29l2 -23zM278 20q46 0 86.5 22t71 59.5t48 87t17.5 105.5q0 38 -9 72.5t-28 60.5t-47 41.5t-65 15.5q-48 0 -89.5 -21t-73 -57t-49.5 -83t-18 -99q0 -40 10.5 -76.5t30.5 -65t49 -45.5t66 -17z" />
    <glyph glyph-name="dcaron" unicode="&#x10f;" horiz-adv-x="538" 
d="M653 802q16 0 26 -9.5t10 -28.5q0 -3 -0.5 -6.5t-1.5 -8.5q-3 -16 -12.5 -39.5t-25.5 -50.5t-37 -54t-47 -50h-10q29 29 45 54t21 49q2 6 2 13.5v15.5q0 20 -4 41t-13 35q4 22 18.5 30.5t28.5 8.5zM565 800l-156 -800h-40q-83 0 -137.5 20t-86.5 52.5t-45.5 72.5
t-13.5 80q0 43 16 94t47 94.5t76.5 72.5t105.5 29q47 0 76 -25.5t46 -56.5l51 262q5 25 5.5 40t-5 21.5t-18.5 7t-34 -3.5l2 10l101 30h10zM448 404q-8 14 -18.5 28t-25 25.5t-32.5 19t-40 7.5q-38 0 -74.5 -19t-65 -52t-46 -78t-17.5 -98q0 -41 13.5 -79.5t42.5 -69
t75.5 -50.5t111.5 -23z" />
    <glyph glyph-name="dcroat" unicode="&#x111;" horiz-adv-x="459" 
d="M584 616h-55l-120 -616h-40q-83 0 -137.5 20t-86.5 52.5t-45.5 72.5t-13.5 80q0 43 16 94t47 94.5t76.5 72.5t105.5 29q47 0 76 -25.5t46 -56.5l36 183h-148l7 38h148l8 41q5 25 5.5 40t-5 21.5t-18.5 7t-34 -3.5l2 10l101 30h10l-28 -146h54zM448 404q-8 14 -18.5 28
t-25 25.5t-32.5 19t-40 7.5q-38 0 -74.5 -19t-65 -52t-46 -78t-17.5 -98q0 -41 13.5 -79.5t42.5 -69t75.5 -50.5t111.5 -23z" />
    <glyph glyph-name="e" unicode="e" horiz-adv-x="505" 
d="M273 20q72 0 127.5 38t104.5 118h5q-19 -38 -44.5 -71.5t-58 -59.5t-72 -41t-85.5 -15q-43 0 -75 17t-53 45.5t-31 65.5t-10 78q0 59 21.5 116.5t60.5 102.5t92.5 73t116.5 28q31 0 59 -10.5t47 -30.5t27.5 -48.5t1.5 -65.5q-6 -33 -20 -61t-30.5 -49.5t-33 -36.5
t-26.5 -22l-264 117q-12 -42 -12 -90q0 -47 12 -83.5t32.5 -62t48 -39t59.5 -13.5zM359 484q-80 0 -140 -45.5t-84 -125.5q76 -28 128.5 -43.5t92.5 -15.5q30 0 52 8.5t37.5 22t25 31t12.5 36.5q7 35 -2.5 60t-29 41t-44.5 23.5t-48 7.5z" />
    <glyph glyph-name="eacute" unicode="&#xe9;" horiz-adv-x="505" 
d="M503 752q0 -12 -17 -33t-43 -45.5t-56.5 -50.5t-57.5 -48h-8q38 55 66 91.5t48 58t33 30t21 8.5q14 0 14 -11zM273 20q72 0 127.5 38t104.5 118h5q-19 -38 -44.5 -71.5t-58 -59.5t-72 -41t-85.5 -15q-43 0 -75 17t-53 45.5t-31 65.5t-10 78q0 59 21.5 116.5t60.5 102.5
t92.5 73t116.5 28q31 0 59 -10.5t47 -30.5t27.5 -48.5t1.5 -65.5q-6 -33 -20 -61t-30.5 -49.5t-33 -36.5t-26.5 -22l-264 117q-12 -42 -12 -90q0 -47 12 -83.5t32.5 -62t48 -39t59.5 -13.5zM359 484q-80 0 -140 -45.5t-84 -125.5q76 -28 128.5 -43.5t92.5 -15.5q30 0 52 8.5
t37.5 22t25 31t12.5 36.5q7 35 -2.5 60t-29 41t-44.5 23.5t-48 7.5z" />
    <glyph glyph-name="ecaron" unicode="&#x11b;" horiz-adv-x="505" 
d="M358 575q-9 0 -16 8.5t-15 29.5t-20 57.5t-33 92.5h8q24 -37 47 -72.5t38 -68.5q27 33 64.5 68.5t75.5 72.5h8q-43 -56 -69 -92.5t-42.5 -57.5t-26.5 -29.5t-19 -8.5zM133 308q-12 -42 -12 -90q0 -47 12 -83.5t32.5 -62t48 -39t59.5 -13.5q72 0 127.5 38t104.5 118h5
q-19 -38 -44.5 -71.5t-58 -59.5t-72 -41t-85.5 -15q-43 0 -75 17t-53 45.5t-31 65.5t-10 78q0 59 21.5 116.5t60.5 102.5t92.5 73t116.5 28q31 0 59 -10.5t47 -30.5t27.5 -48.5t1.5 -65.5q-6 -33 -20 -61t-30.5 -49.5t-33 -36.5t-26.5 -22zM359 484q-80 0 -140 -45.5
t-84 -125.5q76 -28 128.5 -43.5t92.5 -15.5q30 0 52 8.5t37.5 22t25 31t12.5 36.5q7 35 -2.5 60t-29 41t-44.5 23.5t-48 7.5z" />
    <glyph glyph-name="ecircumflex" unicode="&#xea;" horiz-adv-x="505" 
d="M392 716q-27 -33 -64.5 -68.5t-75.5 -72.5h-8q43 56 69 92.5t42.5 57.5t26.5 29.5t19 8.5t15.5 -8.5t15 -29.5t20.5 -57.5t33 -92.5h-8q-24 37 -47 72.5t-38 68.5zM273 20q72 0 127.5 38t104.5 118h5q-19 -38 -44.5 -71.5t-58 -59.5t-72 -41t-85.5 -15q-43 0 -75 17
t-53 45.5t-31 65.5t-10 78q0 59 21.5 116.5t60.5 102.5t92.5 73t116.5 28q31 0 59 -10.5t47 -30.5t27.5 -48.5t1.5 -65.5q-6 -33 -20 -61t-30.5 -49.5t-33 -36.5t-26.5 -22l-264 117q-12 -42 -12 -90q0 -47 12 -83.5t32.5 -62t48 -39t59.5 -13.5zM359 484q-80 0 -140 -45.5
t-84 -125.5q76 -28 128.5 -43.5t92.5 -15.5q30 0 52 8.5t37.5 22t25 31t12.5 36.5q7 35 -2.5 60t-29 41t-44.5 23.5t-48 7.5z" />
    <glyph glyph-name="edieresis" unicode="&#xeb;" horiz-adv-x="505" 
d="M304 628q-16 0 -24 8.5t-8 22.5q0 19 13.5 32.5t33.5 13.5q14 0 23 -9t9 -23q0 -19 -13.5 -32t-33.5 -13zM434 628q-16 0 -24 8.5t-8 22.5q0 19 13.5 32.5t33.5 13.5q14 0 23 -9t9 -23q0 -19 -13.5 -32t-33.5 -13zM273 20q72 0 127.5 38t104.5 118h5q-19 -38 -44.5 -71.5
t-58 -59.5t-72 -41t-85.5 -15q-43 0 -75 17t-53 45.5t-31 65.5t-10 78q0 59 21.5 116.5t60.5 102.5t92.5 73t116.5 28q31 0 59 -10.5t47 -30.5t27.5 -48.5t1.5 -65.5q-6 -33 -20 -61t-30.5 -49.5t-33 -36.5t-26.5 -22l-264 117q-12 -42 -12 -90q0 -47 12 -83.5t32.5 -62
t48 -39t59.5 -13.5zM359 484q-80 0 -140 -45.5t-84 -125.5q76 -28 128.5 -43.5t92.5 -15.5q30 0 52 8.5t37.5 22t25 31t12.5 36.5q7 35 -2.5 60t-29 41t-44.5 23.5t-48 7.5z" />
    <glyph glyph-name="edotaccent" unicode="&#x117;" horiz-adv-x="505" 
d="M380 605q-21 0 -32 12t-11 30q0 25 18 43.5t45 18.5q20 0 31.5 -12.5t11.5 -30.5q0 -26 -18.5 -43.5t-44.5 -17.5zM273 20q72 0 127.5 38t104.5 118h5q-19 -38 -44.5 -71.5t-58 -59.5t-72 -41t-85.5 -15q-43 0 -75 17t-53 45.5t-31 65.5t-10 78q0 59 21.5 116.5
t60.5 102.5t92.5 73t116.5 28q31 0 59 -10.5t47 -30.5t27.5 -48.5t1.5 -65.5q-6 -33 -20 -61t-30.5 -49.5t-33 -36.5t-26.5 -22l-264 117q-12 -42 -12 -90q0 -47 12 -83.5t32.5 -62t48 -39t59.5 -13.5zM359 484q-80 0 -140 -45.5t-84 -125.5q76 -28 128.5 -43.5t92.5 -15.5
q30 0 52 8.5t37.5 22t25 31t12.5 36.5q7 35 -2.5 60t-29 41t-44.5 23.5t-48 7.5z" />
    <glyph glyph-name="egrave" unicode="&#xe8;" horiz-adv-x="505" 
d="M401 575q-17 20 -36 44.5t-35 47.5t-26 43.5t-10 33.5q0 8 4 13.5t15 5.5q8 0 18 -8.5t22 -30t26 -58t30 -91.5h-8zM273 20q72 0 127.5 38t104.5 118h5q-19 -38 -44.5 -71.5t-58 -59.5t-72 -41t-85.5 -15q-43 0 -75 17t-53 45.5t-31 65.5t-10 78q0 59 21.5 116.5
t60.5 102.5t92.5 73t116.5 28q31 0 59 -10.5t47 -30.5t27.5 -48.5t1.5 -65.5q-6 -33 -20 -61t-30.5 -49.5t-33 -36.5t-26.5 -22l-264 117q-12 -42 -12 -90q0 -47 12 -83.5t32.5 -62t48 -39t59.5 -13.5zM359 484q-80 0 -140 -45.5t-84 -125.5q76 -28 128.5 -43.5t92.5 -15.5
q30 0 52 8.5t37.5 22t25 31t12.5 36.5q7 35 -2.5 60t-29 41t-44.5 23.5t-48 7.5z" />
    <glyph glyph-name="emacron" unicode="&#x113;" horiz-adv-x="505" 
d="M500 642h-263l7 38h263zM273 20q72 0 127.5 38t104.5 118h5q-19 -38 -44.5 -71.5t-58 -59.5t-72 -41t-85.5 -15q-43 0 -75 17t-53 45.5t-31 65.5t-10 78q0 59 21.5 116.5t60.5 102.5t92.5 73t116.5 28q31 0 59 -10.5t47 -30.5t27.5 -48.5t1.5 -65.5q-6 -33 -20 -61
t-30.5 -49.5t-33 -36.5t-26.5 -22l-264 117q-12 -42 -12 -90q0 -47 12 -83.5t32.5 -62t48 -39t59.5 -13.5zM359 484q-80 0 -140 -45.5t-84 -125.5q76 -28 128.5 -43.5t92.5 -15.5q30 0 52 8.5t37.5 22t25 31t12.5 36.5q7 35 -2.5 60t-29 41t-44.5 23.5t-48 7.5z" />
    <glyph glyph-name="eogonek" unicode="&#x119;" horiz-adv-x="505" 
d="M273 20q72 0 127.5 38t104.5 118h5q-30 -60 -77 -108.5t-112 -68.5q-8 -6 -23 -20t-29.5 -32t-25 -39t-10.5 -42q0 -22 11.5 -34.5t31.5 -12.5q14 0 30 7t33 21h5q-22 -26 -44.5 -40t-45.5 -14t-38 15.5t-15 41.5q0 24 12.5 46.5t29 42t34 34t27.5 22.5q-26 -6 -54 -6
q-43 0 -75 17t-53 45.5t-31 65.5t-10 78q0 59 21.5 116.5t60.5 102.5t92.5 73t116.5 28q31 0 59 -10.5t47 -30.5t27.5 -48.5t1.5 -65.5q-6 -33 -20 -61t-30.5 -49.5t-33 -36.5t-26.5 -22l-264 117q-12 -42 -12 -90q0 -47 12 -83.5t32.5 -62t48 -39t59.5 -13.5zM359 484
q-80 0 -140 -45.5t-84 -125.5q76 -28 128.5 -43.5t92.5 -15.5q30 0 52 8.5t37.5 22t25 31t12.5 36.5q7 35 -2.5 60t-29 41t-44.5 23.5t-48 7.5z" />
    <glyph glyph-name="f" unicode="f" horiz-adv-x="311" 
d="M39 10q35 7 51 16t24 37l80 412h-61l5 25h61l23 117q18 93 54.5 146t101.5 53q27 0 47.5 -8.5t35 -20.5t24 -25t14.5 -23l-99 -154h-5q30 53 42.5 91.5t9.5 64t-20 37.5t-44 12q-49 0 -76.5 -43t-43.5 -125l-24 -122h132l-5 -25h-132l-77 -400q-7 -35 5.5 -46.5
t46.5 -18.5l-2 -10h-170z" />
    <glyph glyph-name="g" unicode="g" horiz-adv-x="511" 
d="M211 -206q-60 0 -98 31.5t-61 79.5h5q31 -49 69.5 -70t83.5 -21q27 0 51.5 8t44.5 26.5t35 48t23 72.5l28 147q-49 -68 -98 -98t-94 -30q-54 0 -85 45.5t-31 122.5q0 66 16.5 130.5t48 115.5t76.5 82t102 31q47 0 78 -25t49 -56l13 66h10l89 -30l-2 -10q-20 4 -32.5 3.5
t-20.5 -7t-13 -21.5t-10 -40l-83 -428q-10 -53 -32.5 -86.5t-50 -53t-57 -26.5t-54.5 -7zM222 5q21 0 44 12t46 31t44.5 43.5t39.5 50.5l53 263q-8 13 -18.5 27.5t-24.5 25.5t-32.5 18.5t-41.5 7.5q-33 0 -69 -17t-66 -54.5t-50 -96t-20 -140.5q0 -92 25 -131.5t70 -39.5z
" />
    <glyph glyph-name="gbreve" unicode="&#x11f;" horiz-adv-x="511" 
d="M368 575q-24 0 -46.5 9.5t-37.5 32t-20 58t5 88.5h8q-5 -26 -3 -52t13 -47t32.5 -34t56.5 -13q34 0 61 13t46 34t31 47t17 52h8q-10 -53 -29 -88.5t-42.5 -58t-49.5 -32t-50 -9.5zM211 -206q-60 0 -98 31.5t-61 79.5h5q31 -49 69.5 -70t83.5 -21q27 0 51.5 8t44.5 26.5
t35 48t23 72.5l28 147q-49 -68 -98 -98t-94 -30q-54 0 -85 45.5t-31 122.5q0 66 16.5 130.5t48 115.5t76.5 82t102 31q47 0 78 -25t49 -56l13 66h10l89 -30l-2 -10q-20 4 -32.5 3.5t-20.5 -7t-13 -21.5t-10 -40l-83 -428q-10 -53 -32.5 -86.5t-50 -53t-57 -26.5t-54.5 -7z
M222 5q21 0 44 12t46 31t44.5 43.5t39.5 50.5l53 263q-8 13 -18.5 27.5t-24.5 25.5t-32.5 18.5t-41.5 7.5q-33 0 -69 -17t-66 -54.5t-50 -96t-20 -140.5q0 -92 25 -131.5t70 -39.5z" />
    <glyph glyph-name="gcommaaccent" unicode="&#x123;" horiz-adv-x="511" 
d="M375 586q-19 0 -27.5 15t-8.5 35q0 14 4 29.5t14.5 32.5t28.5 37.5t45 44.5h6q-32 -32 -45.5 -55t-13.5 -40q0 -14 7 -20.5t14.5 -12.5t13.5 -13t3 -21q-3 -16 -15 -24t-26 -8zM211 -206q-60 0 -98 31.5t-61 79.5h5q31 -49 69.5 -70t83.5 -21q27 0 51.5 8t44.5 26.5
t35 48t23 72.5l28 147q-49 -68 -98 -98t-94 -30q-54 0 -85 45.5t-31 122.5q0 66 16.5 130.5t48 115.5t76.5 82t102 31q47 0 78 -25t49 -56l13 66h10l89 -30l-2 -10q-20 4 -32.5 3.5t-20.5 -7t-13 -21.5t-10 -40l-83 -428q-10 -53 -32.5 -86.5t-50 -53t-57 -26.5t-54.5 -7z
M222 5q21 0 44 12t46 31t44.5 43.5t39.5 50.5l53 263q-8 13 -18.5 27.5t-24.5 25.5t-32.5 18.5t-41.5 7.5q-33 0 -69 -17t-66 -54.5t-50 -96t-20 -140.5q0 -92 25 -131.5t70 -39.5z" />
    <glyph glyph-name="gdotaccent" unicode="&#x121;" horiz-adv-x="511" 
d="M373 605q-21 0 -32 12t-11 30q0 25 18 43.5t45 18.5q20 0 31.5 -12.5t11.5 -30.5q0 -26 -18.5 -43.5t-44.5 -17.5zM211 -206q-60 0 -98 31.5t-61 79.5h5q31 -49 69.5 -70t83.5 -21q27 0 51.5 8t44.5 26.5t35 48t23 72.5l28 147q-49 -68 -98 -98t-94 -30q-54 0 -85 45.5
t-31 122.5q0 66 16.5 130.5t48 115.5t76.5 82t102 31q47 0 78 -25t49 -56l13 66h10l89 -30l-2 -10q-20 4 -32.5 3.5t-20.5 -7t-13 -21.5t-10 -40l-83 -428q-10 -53 -32.5 -86.5t-50 -53t-57 -26.5t-54.5 -7zM222 5q21 0 44 12t46 31t44.5 43.5t39.5 50.5l53 263
q-8 13 -18.5 27.5t-24.5 25.5t-32.5 18.5t-41.5 7.5q-33 0 -69 -17t-66 -54.5t-50 -96t-20 -140.5q0 -92 25 -131.5t70 -39.5z" />
    <glyph glyph-name="h" unicode="h" horiz-adv-x="542" 
d="M236 695q5 25 5.5 40t-5.5 21.5t-19 7t-34 -3.5l2 10l101 30h10l-107 -563q5 16 16.5 43t27.5 57.5t37 62.5t46.5 57.5t54.5 41.5t62 16q21 0 39 -8t29.5 -26t15 -46.5t-4.5 -69.5l-56 -285q-5 -22 1 -32.5t26 -10.5q5 0 15.5 0.5t15.5 2.5l-2 -10l-104 -30h-8l65 335
q8 43 6.5 71.5t-10 46t-22 24.5t-28.5 7q-25 0 -49.5 -16t-47.5 -41.5t-44 -57.5t-38 -64.5t-29.5 -63t-19.5 -51.5l-43 -190h-40z" />
    <glyph glyph-name="hbar" unicode="&#x127;" horiz-adv-x="542" 
d="M454 63q0 -26 29 -26q5 0 15.5 0.5t15.5 2.5l-2 -10l-104 -30h-8l65 335q3 17 5 33t2 30q0 47 -22.5 66.5t-57.5 19.5q-32 0 -60.5 -14t-53 -35.5t-43 -48.5t-29.5 -53l-65 -333h-40l120 617h-67l7 38h67l8 40q2 8 3.5 20.5t1.5 21.5q0 26 -26 26q-12 0 -31 -3l2 10
l101 30h10l-28 -145h135l-7 -38h-136l-46 -236q8 15 25 38t42.5 44t59.5 36.5t76 15.5q46 0 72 -23t26 -78q0 -9 -1 -22t-4 -27l-55 -285q-1 -5 -1.5 -9t-0.5 -8z" />
    <glyph glyph-name="i" unicode="i" horiz-adv-x="243" 
d="M247 641q-17 0 -25.5 10t-8.5 25q0 20 14.5 34.5t35.5 14.5q17 0 25 -10t8 -24q0 -21 -14.5 -35.5t-34.5 -14.5zM181 405q4 23 4 33q0 26 -27 26q-7 0 -14.5 -1t-17.5 -3l2 10l101 30h11l-82 -420q-5 -22 1 -32.5t26 -10.5q5 0 15.5 0.5t15.5 2.5l-2 -10l-103 -30h-8z
" />
    <glyph glyph-name="dotlessi" unicode="&#x131;" horiz-adv-x="243" 
d="M181 405q2 10 3 17.5t1 13.5q0 28 -28 28q-6 0 -13.5 -1t-17.5 -3l2 10l101 30h11l-82 -420q-5 -22 1 -32.5t26 -10.5q5 0 15.5 0.5t15.5 2.5l-2 -10l-103 -30h-8z" />
    <glyph glyph-name="iacute" unicode="&#xed;" horiz-adv-x="243" 
d="M160 575q38 55 66 91.5t48 58t33 30t21 8.5q14 0 14 -11q0 -12 -17 -33t-43 -45.5t-56.5 -50.5t-57.5 -48h-8zM181 405q2 10 3 17.5t1 13.5q0 28 -28 28q-6 0 -13.5 -1t-17.5 -3l2 10l101 30h11l-82 -420q-5 -22 1 -32.5t26 -10.5q5 0 15.5 0.5t15.5 2.5l-2 -10l-103 -30
h-8z" />
    <glyph glyph-name="icircumflex" unicode="&#xee;" horiz-adv-x="247" 
d="M109 575q43 56 69 92.5t42.5 57.5t26.5 29.5t19 8.5t15.5 -8.5t15 -29.5t20.5 -57.5t33 -92.5h-8q-24 37 -47 72.5t-38 68.5q-27 -33 -64.5 -68.5t-75.5 -72.5h-8zM183 405q2 10 3 17.5t1 13.5q0 28 -28 28q-6 0 -13.5 -1t-17.5 -3l2 10l101 30h11l-82 -420
q-5 -22 1 -32.5t26 -10.5q5 0 15.5 0.5t15.5 2.5l-2 -10l-103 -30h-8z" />
    <glyph glyph-name="idieresis" unicode="&#xef;" horiz-adv-x="241" 
d="M177 628q-16 0 -24 8.5t-8 22.5q0 19 13.5 32.5t33.5 13.5q14 0 23 -9t9 -23q0 -19 -13.5 -32t-33.5 -13zM307 628q-16 0 -24 8.5t-8 22.5q0 19 13.5 32.5t33.5 13.5q14 0 23 -9t9 -23q0 -19 -13.5 -32t-33.5 -13zM181 405q2 10 3 17.5t1 13.5q0 28 -28 28q-6 0 -13.5 -1
t-17.5 -3l2 10l101 30h11l-82 -420q-5 -22 1 -32.5t26 -10.5q5 0 15.5 0.5t15.5 2.5l-2 -10l-103 -30h-8z" />
    <glyph glyph-name="i.loclTRK" horiz-adv-x="243" 
d="M234 605q-21 0 -32 12t-11 30q0 25 18 43.5t45 18.5q20 0 31.5 -12.5t11.5 -30.5q0 -26 -18.5 -43.5t-44.5 -17.5zM181 405q2 10 3 17.5t1 13.5q0 28 -28 28q-6 0 -13.5 -1t-17.5 -3l2 10l101 30h11l-82 -420q-5 -22 1 -32.5t26 -10.5q5 0 15.5 0.5t15.5 2.5l-2 -10
l-103 -30h-8z" />
    <glyph glyph-name="igrave" unicode="&#xec;" horiz-adv-x="243" 
d="M270 575q-17 20 -36 44.5t-35 47.5t-26 43.5t-10 33.5q0 8 4 13.5t15 5.5q8 0 18 -8.5t22 -30t26 -58t30 -91.5h-8zM181 405q2 10 3 17.5t1 13.5q0 28 -28 28q-6 0 -13.5 -1t-17.5 -3l2 10l101 30h11l-82 -420q-5 -22 1 -32.5t26 -10.5q5 0 15.5 0.5t15.5 2.5l-2 -10
l-103 -30h-8z" />
    <glyph glyph-name="imacron" unicode="&#x12b;" horiz-adv-x="243" 
d="M128 680h263l-7 -38h-263zM181 405q2 10 3 17.5t1 13.5q0 28 -28 28q-6 0 -13.5 -1t-17.5 -3l2 10l101 30h11l-82 -420q-5 -22 1 -32.5t26 -10.5q5 0 15.5 0.5t15.5 2.5l-2 -10l-103 -30h-8z" />
    <glyph glyph-name="iogonek" unicode="&#x12f;" horiz-adv-x="243" 
d="M263 725q17 0 25 -10t8 -24q0 -21 -14.5 -35.5t-34.5 -14.5q-17 0 -25.5 10t-8.5 25q0 20 14.5 34.5t35.5 14.5zM158 80q-5 -22 1 -32.5t26 -10.5q5 0 15.5 0.5t15.5 2.5l-2 -10l-101 -29q-11 -9 -26 -24t-29 -33t-24 -38t-10 -40q0 -22 11.5 -34.5t31.5 -12.5q14 0 30 7
t33 21h5q-22 -26 -44.5 -40t-45.5 -14t-38 15.5t-15 41.5q0 27 15 51.5t34 45t37.5 34.5t24.5 19l78 405q2 10 3 17.5t1 13.5q0 28 -28 28q-6 0 -13.5 -1t-17.5 -3l2 10l101 30h11z" />
    <glyph glyph-name="j" unicode="j" horiz-adv-x="191" 
d="M237 641q-17 0 -25.5 10t-8.5 25q0 20 14.5 34.5t35.5 14.5q17 0 25 -10t8 -24q0 -21 -14.5 -35.5t-34.5 -14.5zM0 -206q-35 0 -59.5 21.5t-30.5 49.5h5q11 -24 33 -37.5t45 -13.5q33 0 58 29t35 80l92 472q5 25 5.5 40t-5.5 21.5t-19 7t-34 -3.5l2 10l101 30h10
l-113 -580q-6 -32 -19.5 -56t-30.5 -39.5t-36.5 -23t-38.5 -7.5z" />
    <glyph glyph-name="k" unicode="k" horiz-adv-x="523" 
d="M214 685q6 28 6 45q0 32 -31 32h-11t-14 -2l2 10l101 30h10l-121 -624l249 253q22 23 22 35q0 14 -19.5 18.5t-48.5 7.5l2 10h195l-2 -10q-39 -4 -63 -15t-47 -35l-142 -144l114 -235q14 -28 34 -28q18 0 35 5l-2 -12l-83 -26h-8l-126 259l-117 -118l-28 -141h-41z" />
    <glyph glyph-name="kcommaaccent" unicode="&#x137;" horiz-adv-x="523" 
d="M214 685q6 28 6 45q0 32 -31 32h-11t-14 -2l2 10l101 30h10l-121 -624l249 253q22 23 22 35q0 14 -19.5 18.5t-48.5 7.5l2 10h195l-2 -10q-39 -4 -63 -15t-47 -35l-142 -144l114 -235q14 -28 34 -28q18 0 35 5l-2 -12l-83 -26h-8l-126 259l-117 -118l-28 -141h-41z
M246 -50q19 0 27.5 -15t8.5 -35q0 -14 -4 -29.5t-14.5 -32.5t-28.5 -37.5t-45 -44.5h-6q32 32 45.5 55t13.5 40q0 13 -7 20t-14.5 13t-13.5 13t-3 21q3 16 15 24t26 8z" />
    <glyph glyph-name="l" unicode="l" horiz-adv-x="212" 
d="M218 705q4 23 4 33q0 26 -27 26q-7 0 -14.5 -1t-17.5 -3l2 10l101 30h11l-140 -720q-5 -22 1 -32.5t26 -10.5q5 0 15.5 0.5t15.5 2.5l-2 -10l-103 -30h-8z" />
    <glyph glyph-name="lacute" unicode="&#x13a;" horiz-adv-x="244" 
d="M191 855q38 55 66 91.5t48 58t33 30t21 8.5q14 0 14 -11q0 -12 -17 -33t-43 -45.5t-56.5 -50.5t-57.5 -48h-8zM218 705q4 23 4 33q0 26 -27 26q-7 0 -14.5 -1t-17.5 -3l2 10l101 30h11l-140 -720q-5 -22 1 -32.5t26 -10.5q5 0 15.5 0.5t15.5 2.5l-2 -10l-103 -30h-8z" />
    <glyph glyph-name="lcaron" unicode="&#x13e;" horiz-adv-x="262" 
d="M289 554q29 29 45 54t21 49q2 6 2 13.5v15.5q0 20 -4 41t-13 35q4 22 18.5 30.5t28.5 8.5q16 0 26 -9.5t10 -28.5q0 -3 -0.5 -6.5t-1.5 -8.5q-3 -16 -12.5 -39.5t-25.5 -50.5t-37 -54t-47 -50h-10zM218 705q4 23 4 33q0 26 -27 26q-7 0 -14.5 -1t-17.5 -3l2 10l101 30h11
l-140 -720q-5 -22 1 -32.5t26 -10.5q5 0 15.5 0.5t15.5 2.5l-2 -10l-103 -30h-8z" />
    <glyph glyph-name="lcommaaccent" unicode="&#x13c;" horiz-adv-x="222" 
d="M218 705q4 23 4 33q0 26 -27 26q-7 0 -14.5 -1t-17.5 -3l2 10l101 30h11l-140 -720q-5 -22 1 -32.5t26 -10.5q5 0 15.5 0.5t15.5 2.5l-2 -10l-103 -30h-8zM95 -50q19 0 27.5 -15t8.5 -35q0 -14 -4 -29.5t-14.5 -32.5t-28.5 -37.5t-45 -44.5h-6q32 32 45.5 55t13.5 40
q0 13 -7 20t-14.5 13t-13.5 13t-3 21q3 16 15 24t26 8z" />
    <glyph glyph-name="lslash" unicode="&#x142;" horiz-adv-x="233" 
d="M29 10q19 4 32 8t22 10.5t14.5 17.5t8.5 29l75 382l-84 -32l7 38l84 33l37 189q5 25 5.5 41.5t-4.5 25t-17.5 10.5t-33.5 -2l2 10l101 30h10l-15 -75l-41 -212l78 30l-8 -39l-78 -30l-77 -399q-7 -35 5 -46.5t47 -18.5l-2 -10h-170z" />
    <glyph glyph-name="m" unicode="m" horiz-adv-x="802" 
d="M179 395q2 13 3.5 23t1.5 18q0 15 -6.5 21t-20.5 6q-12 0 -31 -3l2 10l101 30h10l-51 -256q17 57 39.5 106t50.5 86t61.5 58t72.5 21q16 0 30.5 -4.5t25.5 -16.5t17.5 -33.5t6.5 -55.5q0 -29 -5.5 -68.5t-18.5 -92.5q19 63 42 113t50 85t58.5 54t69.5 19q40 0 62.5 -23.5
t22.5 -80.5q0 -34 -9 -80l-48 -251q-1 -5 -1.5 -9t-0.5 -8q0 -26 29 -26q5 0 15.5 0.5t15.5 2.5l-2 -10l-104 -30h-8l65 335q7 35 7 63q0 49 -19 67.5t-47 18.5q-27 0 -53 -16.5t-51 -52.5t-51 -93.5t-53 -139.5l-38 -182h-40l64 324q7 35 7 66q0 48 -18.5 71t-47.5 23
q-53 0 -105.5 -72.5t-100.5 -229.5l-38 -182h-40z" />
    <glyph glyph-name="n" unicode="n" horiz-adv-x="542" 
d="M179 395q2 13 3.5 23t1.5 18q0 15 -6.5 21t-20.5 6q-12 0 -31 -3l2 10l101 30h10l-50 -263q5 16 16.5 43t27.5 57.5t37 62.5t46.5 57.5t54.5 41.5t62 16q35 0 59.5 -22.5t24.5 -76.5q0 -11 -1 -24t-4 -27l-56 -285q-1 -5 -1.5 -9t-0.5 -8q0 -26 29 -26q5 0 15.5 0.5
t15.5 2.5l-2 -10l-104 -30h-8l65 335q7 35 7 63q0 49 -18.5 67.5t-42.5 18.5q-25 0 -49.5 -16t-47.5 -41.5t-44 -57.5t-38 -64.5t-29.5 -63t-19.5 -51.5l-43 -190h-40z" />
    <glyph glyph-name="nacute" unicode="&#x144;" horiz-adv-x="542" 
d="M329 575q38 55 66 91.5t48 58t33 30t21 8.5q14 0 14 -11q0 -12 -17 -33t-43 -45.5t-56.5 -50.5t-57.5 -48h-8zM179 395q2 13 3.5 23t1.5 18q0 15 -6.5 21t-20.5 6q-12 0 -31 -3l2 10l101 30h10l-50 -263q5 16 16.5 43t27.5 57.5t37 62.5t46.5 57.5t54.5 41.5t62 16
q35 0 59.5 -22.5t24.5 -76.5q0 -11 -1 -24t-4 -27l-56 -285q-1 -5 -1.5 -9t-0.5 -8q0 -26 29 -26q5 0 15.5 0.5t15.5 2.5l-2 -10l-104 -30h-8l65 335q7 35 7 63q0 49 -18.5 67.5t-42.5 18.5q-25 0 -49.5 -16t-47.5 -41.5t-44 -57.5t-38 -64.5t-29.5 -63t-19.5 -51.5
l-43 -190h-40z" />
    <glyph glyph-name="ncaron" unicode="&#x148;" horiz-adv-x="542" 
d="M558 763q-43 -56 -69 -92.5t-42.5 -57.5t-26.5 -29.5t-19 -8.5t-16 8.5t-15 29.5t-20 57.5t-33 92.5h8q24 -37 47 -72.5t38 -68.5q27 33 64.5 68.5t75.5 72.5h8zM179 395q2 13 3.5 23t1.5 18q0 15 -6.5 21t-20.5 6q-12 0 -31 -3l2 10l101 30h10l-50 -263q5 16 16.5 43
t27.5 57.5t37 62.5t46.5 57.5t54.5 41.5t62 16q35 0 59.5 -22.5t24.5 -76.5q0 -11 -1 -24t-4 -27l-56 -285q-1 -5 -1.5 -9t-0.5 -8q0 -26 29 -26q5 0 15.5 0.5t15.5 2.5l-2 -10l-104 -30h-8l65 335q7 35 7 63q0 49 -18.5 67.5t-42.5 18.5q-25 0 -49.5 -16t-47.5 -41.5
t-44 -57.5t-38 -64.5t-29.5 -63t-19.5 -51.5l-43 -190h-40z" />
    <glyph glyph-name="ncommaaccent" unicode="&#x146;" horiz-adv-x="542" 
d="M179 395q2 13 3.5 23t1.5 18q0 15 -6.5 21t-20.5 6q-12 0 -31 -3l2 10l101 30h10l-50 -263q5 16 16.5 43t27.5 57.5t37 62.5t46.5 57.5t54.5 41.5t62 16q35 0 59.5 -22.5t24.5 -76.5q0 -11 -1 -24t-4 -27l-56 -285q-1 -5 -1.5 -9t-0.5 -8q0 -26 29 -26q5 0 15.5 0.5
t15.5 2.5l-2 -10l-104 -30h-8l65 335q7 35 7 63q0 49 -18.5 67.5t-42.5 18.5q-25 0 -49.5 -16t-47.5 -41.5t-44 -57.5t-38 -64.5t-29.5 -63t-19.5 -51.5l-43 -190h-40zM255 -50q19 0 27.5 -15t8.5 -35q0 -14 -4 -29.5t-14.5 -32.5t-28.5 -37.5t-45 -44.5h-6q32 32 45.5 55
t13.5 40q0 13 -7 20t-14.5 13t-13.5 13t-3 21q3 16 15 24t26 8z" />
    <glyph glyph-name="eng" unicode="&#x14b;" horiz-adv-x="480" 
d="M300 -206q-35 0 -59.5 21.5t-30.5 49.5h5q11 -24 33 -37.5t45 -13.5q33 0 58 29t35 80l79 412q16 82 -4.5 115.5t-74.5 33.5q-26 0 -53 -13.5t-51.5 -35.5t-44 -48.5t-30.5 -53.5l-65 -333h-40l77 395q5 25 5.5 40t-5.5 21.5t-19 7t-34 -3.5l2 10l101 30h10l-23 -120
q8 15 25 38t42.5 44.5t59.5 37t76 15.5q27 0 48 -8t33.5 -26t16 -46.5t-4.5 -69.5l-87 -445q-6 -32 -19.5 -56t-30.5 -39.5t-36.5 -23t-38.5 -7.5z" />
    <glyph glyph-name="ntilde" unicode="&#xf1;" horiz-adv-x="542" 
d="M262 630q14 46 40 70.5t57 24.5q21 0 33.5 -8.5t23 -18t21 -18t27.5 -8.5q21 0 42 15.5t36 47.5h3q-14 -46 -40 -70.5t-58 -24.5q-21 0 -33.5 8.5t-22.5 18t-20.5 18t-26.5 8.5q-21 0 -42 -15.5t-37 -47.5h-3zM179 395q2 13 3.5 23t1.5 18q0 15 -6.5 21t-20.5 6
q-12 0 -31 -3l2 10l101 30h10l-50 -263q5 16 16.5 43t27.5 57.5t37 62.5t46.5 57.5t54.5 41.5t62 16q35 0 59.5 -22.5t24.5 -76.5q0 -11 -1 -24t-4 -27l-56 -285q-1 -5 -1.5 -9t-0.5 -8q0 -26 29 -26q5 0 15.5 0.5t15.5 2.5l-2 -10l-104 -30h-8l65 335q7 35 7 63
q0 49 -18.5 67.5t-42.5 18.5q-25 0 -49.5 -16t-47.5 -41.5t-44 -57.5t-38 -64.5t-29.5 -63t-19.5 -51.5l-43 -190h-40z" />
    <glyph glyph-name="o" unicode="o" horiz-adv-x="528" 
d="M264 -11q-48 0 -82.5 19.5t-56.5 51t-32.5 70t-10.5 76.5q0 47 19 101t55.5 100.5t90 77t123.5 30.5q48 0 81 -19t53.5 -49.5t30 -68t9.5 -73.5q0 -47 -19 -102t-55 -102.5t-88 -79.5t-118 -32zM283 20q42 0 81.5 22t70 59.5t48.5 87t18 104.5q0 38 -9 72.5t-27.5 61
t-46 42t-64.5 15.5q-50 0 -92 -21t-73.5 -57t-49 -83.5t-17.5 -100.5q0 -39 10.5 -75t30.5 -64.5t50.5 -45.5t69.5 -17z" />
    <glyph glyph-name="oacute" unicode="&#xf3;" horiz-adv-x="528" 
d="M322 575q38 55 66 91.5t48 58t33 30t21 8.5q14 0 14 -11q0 -12 -17 -33t-43 -45.5t-56.5 -50.5t-57.5 -48h-8zM264 -11q-48 0 -82.5 19.5t-56.5 51t-32.5 70t-10.5 76.5q0 47 19 101t55.5 100.5t90 77t123.5 30.5q48 0 81 -19t53.5 -49.5t30 -68t9.5 -73.5
q0 -47 -19 -102t-55 -102.5t-88 -79.5t-118 -32zM283 20q42 0 81.5 22t70 59.5t48.5 87t18 104.5q0 38 -9 72.5t-27.5 61t-46 42t-64.5 15.5q-50 0 -92 -21t-73.5 -57t-49 -83.5t-17.5 -100.5q0 -39 10.5 -75t30.5 -64.5t50.5 -45.5t69.5 -17z" />
    <glyph glyph-name="ocircumflex" unicode="&#xf4;" horiz-adv-x="528" 
d="M255 575q43 56 69 92.5t42.5 57.5t26.5 29.5t19 8.5t15.5 -8.5t15 -29.5t20.5 -57.5t33 -92.5h-8q-24 37 -47 72.5t-38 68.5q-27 -33 -64.5 -68.5t-75.5 -72.5h-8zM264 -11q-48 0 -82.5 19.5t-56.5 51t-32.5 70t-10.5 76.5q0 47 19 101t55.5 100.5t90 77t123.5 30.5
q48 0 81 -19t53.5 -49.5t30 -68t9.5 -73.5q0 -47 -19 -102t-55 -102.5t-88 -79.5t-118 -32zM283 20q42 0 81.5 22t70 59.5t48.5 87t18 104.5q0 38 -9 72.5t-27.5 61t-46 42t-64.5 15.5q-50 0 -92 -21t-73.5 -57t-49 -83.5t-17.5 -100.5q0 -39 10.5 -75t30.5 -64.5
t50.5 -45.5t69.5 -17z" />
    <glyph glyph-name="odieresis" unicode="&#xf6;" horiz-adv-x="528" 
d="M325 628q-16 0 -24 8.5t-8 22.5q0 19 13.5 32.5t33.5 13.5q14 0 23 -9t9 -23q0 -19 -13.5 -32t-33.5 -13zM455 628q-16 0 -24 8.5t-8 22.5q0 19 13.5 32.5t33.5 13.5q14 0 23 -9t9 -23q0 -19 -13.5 -32t-33.5 -13zM264 -11q-48 0 -82.5 19.5t-56.5 51t-32.5 70
t-10.5 76.5q0 47 19 101t55.5 100.5t90 77t123.5 30.5q48 0 81 -19t53.5 -49.5t30 -68t9.5 -73.5q0 -47 -19 -102t-55 -102.5t-88 -79.5t-118 -32zM283 20q42 0 81.5 22t70 59.5t48.5 87t18 104.5q0 38 -9 72.5t-27.5 61t-46 42t-64.5 15.5q-50 0 -92 -21t-73.5 -57
t-49 -83.5t-17.5 -100.5q0 -39 10.5 -75t30.5 -64.5t50.5 -45.5t69.5 -17z" />
    <glyph glyph-name="ograve" unicode="&#xf2;" horiz-adv-x="528" 
d="M402 575q-17 20 -36 44.5t-35 47.5t-26 43.5t-10 33.5q0 8 4 13.5t15 5.5q8 0 18 -8.5t22 -30t26 -58t30 -91.5h-8zM264 -11q-48 0 -82.5 19.5t-56.5 51t-32.5 70t-10.5 76.5q0 47 19 101t55.5 100.5t90 77t123.5 30.5q48 0 81 -19t53.5 -49.5t30 -68t9.5 -73.5
q0 -47 -19 -102t-55 -102.5t-88 -79.5t-118 -32zM283 20q42 0 81.5 22t70 59.5t48.5 87t18 104.5q0 38 -9 72.5t-27.5 61t-46 42t-64.5 15.5q-50 0 -92 -21t-73.5 -57t-49 -83.5t-17.5 -100.5q0 -39 10.5 -75t30.5 -64.5t50.5 -45.5t69.5 -17z" />
    <glyph glyph-name="ohungarumlaut" unicode="&#x151;" horiz-adv-x="528" 
d="M227 575q38 55 66 91.5t48 58t33 30t21 8.5q14 0 14 -11q0 -12 -17 -33t-43 -45.5t-56.5 -50.5t-57.5 -48h-8zM357 575q38 55 66 91.5t48 58t33 30t21 8.5q14 0 14 -11q0 -12 -17 -33t-43 -45.5t-56.5 -50.5t-57.5 -48h-8zM264 -11q-48 0 -82.5 19.5t-56.5 51t-32.5 70
t-10.5 76.5q0 47 19 101t55.5 100.5t90 77t123.5 30.5q48 0 81 -19t53.5 -49.5t30 -68t9.5 -73.5q0 -47 -19 -102t-55 -102.5t-88 -79.5t-118 -32zM283 20q42 0 81.5 22t70 59.5t48.5 87t18 104.5q0 38 -9 72.5t-27.5 61t-46 42t-64.5 15.5q-50 0 -92 -21t-73.5 -57
t-49 -83.5t-17.5 -100.5q0 -39 10.5 -75t30.5 -64.5t50.5 -45.5t69.5 -17z" />
    <glyph glyph-name="omacron" unicode="&#x14d;" horiz-adv-x="528" 
d="M270 680h263l-7 -38h-263zM264 -11q-48 0 -82.5 19.5t-56.5 51t-32.5 70t-10.5 76.5q0 47 19 101t55.5 100.5t90 77t123.5 30.5q48 0 81 -19t53.5 -49.5t30 -68t9.5 -73.5q0 -47 -19 -102t-55 -102.5t-88 -79.5t-118 -32zM283 20q42 0 81.5 22t70 59.5t48.5 87t18 104.5
q0 38 -9 72.5t-27.5 61t-46 42t-64.5 15.5q-50 0 -92 -21t-73.5 -57t-49 -83.5t-17.5 -100.5q0 -39 10.5 -75t30.5 -64.5t50.5 -45.5t69.5 -17z" />
    <glyph glyph-name="oslash" unicode="&#xf8;" horiz-adv-x="528" 
d="M506 445q20 -31 29 -67.5t9 -72.5q0 -47 -19 -102t-55 -102.5t-88 -79.5t-118 -32q-40 0 -70.5 13.5t-52.5 36.5l-46 -51h-47l71 79q-19 31 -28 67.5t-9 71.5q0 47 19 101t55.5 100.5t90 77t123.5 30.5q37 0 65 -11.5t48 -31.5l40 44h47zM122 222q0 -67 29 -120l303 337
q-18 21 -43 33t-57 12q-50 0 -92 -21t-73.5 -57t-49 -83.5t-17.5 -100.5zM501 293q0 67 -27 117l-303 -338q20 -24 48 -38t64 -14q42 0 81.5 22t70 59.5t48.5 87t18 104.5z" />
    <glyph glyph-name="otilde" unicode="&#xf5;" horiz-adv-x="528" 
d="M255 630q14 46 40 70.5t57 24.5q21 0 33.5 -8.5t23 -18t21 -18t27.5 -8.5q21 0 42 15.5t36 47.5h3q-14 -46 -40 -70.5t-58 -24.5q-21 0 -33.5 8.5t-22.5 18t-20.5 18t-26.5 8.5q-21 0 -42 -15.5t-37 -47.5h-3zM264 -11q-48 0 -82.5 19.5t-56.5 51t-32.5 70t-10.5 76.5
q0 47 19 101t55.5 100.5t90 77t123.5 30.5q48 0 81 -19t53.5 -49.5t30 -68t9.5 -73.5q0 -47 -19 -102t-55 -102.5t-88 -79.5t-118 -32zM283 20q42 0 81.5 22t70 59.5t48.5 87t18 104.5q0 38 -9 72.5t-27.5 61t-46 42t-64.5 15.5q-50 0 -92 -21t-73.5 -57t-49 -83.5
t-17.5 -100.5q0 -39 10.5 -75t30.5 -64.5t50.5 -45.5t69.5 -17z" />
    <glyph glyph-name="oe" unicode="&#x153;" horiz-adv-x="922" 
d="M264 -11q-48 0 -82.5 19.5t-56.5 51t-32.5 70t-10.5 76.5q0 47 19 101t55.5 100.5t90 77t123.5 30.5q39 0 68.5 -13.5t50.5 -36t33.5 -51t17.5 -59.5q18 34 44 63.5t57.5 51t69 33.5t78.5 12q28 0 53 -8.5t44 -24t30 -38.5t11 -53q0 -15 -3 -31q-6 -33 -20 -61
t-30.5 -49.5t-33 -36.5t-26.5 -22l-262 116q-14 -44 -14 -89q0 -47 12 -83.5t32.5 -62t48 -39t59.5 -13.5q72 0 127.5 38t104.5 118h5q-19 -38 -44.5 -71.5t-58 -59.5t-72 -41t-85.5 -15q-37 0 -65.5 12.5t-49 34t-33.5 51t-18 63.5q-17 -33 -41 -62t-53.5 -51t-65.5 -35
t-77 -13zM283 20q42 0 81.5 22t70 59.5t48.5 87t18 104.5q0 38 -9 72.5t-27.5 61t-46 42t-64.5 15.5q-50 0 -92 -21t-73.5 -57t-49 -83.5t-17.5 -100.5q0 -39 10.5 -75t30.5 -64.5t50.5 -45.5t69.5 -17zM773 254q35 0 59.5 11.5t40.5 29.5t23 40t7 44q0 28 -12 47.5
t-30.5 32.5t-41 19t-43.5 6q-39 0 -73.5 -13t-63.5 -36t-50.5 -54.5t-34.5 -68.5q75 -27 127 -42.5t92 -15.5z" />
    <glyph glyph-name="p" unicode="p" horiz-adv-x="511" 
d="M-1 -190q19 4 32 8t22 11t14.5 18t8.5 28q30 151 49 249t31 158.5t17.5 89.5t7.5 42q2 9 2 13v8q0 16 -5.5 23t-19.5 7q-7 0 -14.5 -1.5t-18.5 -3.5l3 13q53 21 98.5 31t93.5 10q60 0 99 -20t62.5 -51t33 -70t9.5 -76q0 -53 -15 -107.5t-45.5 -99t-77 -73t-109.5 -28.5
q-24 0 -43 7t-34 18t-26 25t-20 29l-37 -193q-2 -7 -2 -12v-10q0 -22 13 -29.5t41 -13.5l-2 -10h-170zM276 20q42 0 79 17t65.5 50.5t45 83.5t16.5 116q0 34 -9.5 70.5t-30.5 66t-55.5 48.5t-84.5 19q-15 0 -32 -1.5t-35 -6.5l-77 -394q17 -26 47 -47.5t71 -21.5z" />
    <glyph glyph-name="thorn" unicode="&#xfe;" horiz-adv-x="460" 
d="M200 505q82 4 136 -16t86 -53.5t45 -76t13 -82.5q0 -44 -16 -94.5t-46.5 -93.5t-76 -71.5t-105.5 -28.5q-45 0 -77.5 16.5t-49.5 51.5l-35 -182q-2 -7 -2 -12v-10q0 -22 13 -29.5t41 -13.5l-2 -10h-170l2 10q19 4 32 8t22 11t14.5 18t8.5 28l161 820q6 27 6 42t-6 20.5
t-20 5.5q-12 0 -31 -3l2 10l101 30h10zM235 20q38 0 74.5 18t65 50.5t45.5 78t17 99.5q0 42 -13 84t-41.5 74t-74 51t-110.5 15l-57 -271q-8 -43 -8 -74q0 -58 24.5 -91.5t77.5 -33.5z" />
    <glyph glyph-name="q" unicode="q" horiz-adv-x="511" 
d="M268 -190q37 7 54 18.5t24 46.5l24 124q-47 -9 -83 -9q-60 0 -99 19.5t-62 50.5t-32.5 69t-9.5 75q0 53 15 108t46 100t77.5 74t109.5 29q47 0 76.5 -26t46.5 -56l12 67h10l89 -30l-2 -10q-9 2 -16 3t-14 1q-21 0 -30 -15t-17 -54l-100 -520q-3 -14 -3 -23q0 -20 13 -28
t41 -14l-2 -10h-170zM306 13q16 0 32.5 1.5t35.5 6.5l75 384q-7 13 -18 27.5t-25.5 25.5t-32.5 18.5t-40 7.5q-42 0 -79.5 -17.5t-66 -51.5t-45 -84t-16.5 -116q0 -35 9.5 -70.5t30.5 -65t55.5 -48t84.5 -18.5z" />
    <glyph glyph-name="r" unicode="r" horiz-adv-x="401" 
d="M179 395q5 28 5 41q0 28 -26 28q-7 0 -14.5 -1t-17.5 -3l2 10l101 30h10l-48 -253h1q19 52 40.5 100t45.5 85.5t50 60t53 22.5q15 0 27 -6.5t22 -16t17 -20.5t10 -20l-97 -150h-5q20 35 33.5 68t13.5 62q0 26 -10.5 41t-25.5 15q-18 0 -38 -20.5t-40 -52t-38.5 -70
t-33.5 -74.5t-25.5 -65t-13.5 -42l-37 -164h-40z" />
    <glyph glyph-name="racute" unicode="&#x155;" horiz-adv-x="401" 
d="M269 575q38 55 66 91.5t48 58t33 30t21 8.5q14 0 14 -11q0 -12 -17 -33t-43 -45.5t-56.5 -50.5t-57.5 -48h-8zM179 395q5 28 5 41q0 28 -26 28q-7 0 -14.5 -1t-17.5 -3l2 10l101 30h10l-48 -253h1q19 52 40.5 100t45.5 85.5t50 60t53 22.5q15 0 27 -6.5t22 -16t17 -20.5
t10 -20l-97 -150h-5q20 35 33.5 68t13.5 62q0 26 -10.5 41t-25.5 15q-18 0 -38 -20.5t-40 -52t-38.5 -70t-33.5 -74.5t-25.5 -65t-13.5 -42l-37 -164h-40z" />
    <glyph glyph-name="rcaron" unicode="&#x159;" horiz-adv-x="401" 
d="M478 763q-43 -56 -69 -92.5t-42.5 -57.5t-26.5 -29.5t-19 -8.5t-16 8.5t-15 29.5t-20 57.5t-33 92.5h8q24 -37 47 -72.5t38 -68.5q27 33 64.5 68.5t75.5 72.5h8zM179 395q5 28 5 41q0 28 -26 28q-7 0 -14.5 -1t-17.5 -3l2 10l101 30h10l-48 -253h1q19 52 40.5 100
t45.5 85.5t50 60t53 22.5q15 0 27 -6.5t22 -16t17 -20.5t10 -20l-97 -150h-5q20 35 33.5 68t13.5 62q0 26 -10.5 41t-25.5 15q-18 0 -38 -20.5t-40 -52t-38.5 -70t-33.5 -74.5t-25.5 -65t-13.5 -42l-37 -164h-40z" />
    <glyph glyph-name="rcommaaccent" unicode="&#x157;" horiz-adv-x="401" 
d="M179 395q5 28 5 41q0 28 -26 28q-7 0 -14.5 -1t-17.5 -3l2 10l101 30h10l-48 -253h1q19 52 40.5 100t45.5 85.5t50 60t53 22.5q15 0 27 -6.5t22 -16t17 -20.5t10 -20l-97 -150h-5q20 35 33.5 68t13.5 62q0 26 -10.5 41t-25.5 15q-18 0 -38 -20.5t-40 -52t-38.5 -70
t-33.5 -74.5t-25.5 -65t-13.5 -42l-37 -164h-40zM185 -50q19 0 27.5 -15t8.5 -35q0 -14 -4 -29.5t-14.5 -32.5t-28.5 -37.5t-45 -44.5h-6q32 32 45.5 55t13.5 40q0 13 -7 20t-14.5 13t-13.5 13t-3 21q3 16 15 24t26 8z" />
    <glyph glyph-name="s" unicode="s" horiz-adv-x="410" 
d="M203 -11q-35 0 -60.5 8.5t-44 21t-30 26.5t-18.5 25l84 134h5q-15 -28 -23.5 -52t-8.5 -47q0 -37 23 -62.5t78 -25.5q37 0 68.5 10t54.5 27.5t36 40t13 47.5q0 20 -11 35t-31 27t-48 22.5t-62 21.5q-46 15 -72 43t-26 71q0 38 14.5 67t39 48t56 28.5t65.5 9.5
q30 0 52.5 -7t39.5 -17.5t28 -23t18 -23.5l-68 -109h-5q11 20 16 36t5 32q0 39 -26.5 61t-69.5 22q-26 0 -51 -7.5t-45 -21t-32.5 -34t-12.5 -45.5q0 -29 25 -48t81 -37q27 -9 53 -17t46 -20.5t32.5 -32.5t12.5 -51q0 -44 -16.5 -78.5t-44 -57.5t-64 -35t-76.5 -12z" />
    <glyph glyph-name="sacute" unicode="&#x15b;" horiz-adv-x="410" 
d="M263 575q38 55 66 91.5t48 58t33 30t21 8.5q14 0 14 -11q0 -12 -17 -33t-43 -45.5t-56.5 -50.5t-57.5 -48h-8zM203 -11q-35 0 -60.5 8.5t-44 21t-30 26.5t-18.5 25l84 134h5q-15 -28 -23.5 -52t-8.5 -47q0 -37 23 -62.5t78 -25.5q37 0 68.5 10t54.5 27.5t36 40t13 47.5
q0 20 -11 35t-31 27t-48 22.5t-62 21.5q-46 15 -72 43t-26 71q0 38 14.5 67t39 48t56 28.5t65.5 9.5q30 0 52.5 -7t39.5 -17.5t28 -23t18 -23.5l-68 -109h-5q11 20 16 36t5 32q0 39 -26.5 61t-69.5 22q-26 0 -51 -7.5t-45 -21t-32.5 -34t-12.5 -45.5q0 -29 25 -48t81 -37
q27 -9 53 -17t46 -20.5t32.5 -32.5t12.5 -51q0 -44 -16.5 -78.5t-44 -57.5t-64 -35t-76.5 -12z" />
    <glyph glyph-name="scaron" unicode="&#x161;" horiz-adv-x="410" 
d="M482 763q-43 -56 -69 -92.5t-42.5 -57.5t-26.5 -29.5t-19 -8.5t-16 8.5t-15 29.5t-20 57.5t-33 92.5h8q24 -37 47 -72.5t38 -68.5q27 33 64.5 68.5t75.5 72.5h8zM203 -11q-35 0 -60.5 8.5t-44 21t-30 26.5t-18.5 25l84 134h5q-15 -28 -23.5 -52t-8.5 -47q0 -37 23 -62.5
t78 -25.5q37 0 68.5 10t54.5 27.5t36 40t13 47.5q0 20 -11 35t-31 27t-48 22.5t-62 21.5q-46 15 -72 43t-26 71q0 38 14.5 67t39 48t56 28.5t65.5 9.5q30 0 52.5 -7t39.5 -17.5t28 -23t18 -23.5l-68 -109h-5q11 20 16 36t5 32q0 39 -26.5 61t-69.5 22q-26 0 -51 -7.5
t-45 -21t-32.5 -34t-12.5 -45.5q0 -29 25 -48t81 -37q27 -9 53 -17t46 -20.5t32.5 -32.5t12.5 -51q0 -44 -16.5 -78.5t-44 -57.5t-64 -35t-76.5 -12z" />
    <glyph glyph-name="scedilla" unicode="&#x15f;" horiz-adv-x="410" 
d="M260 293q27 -9 53 -17t46 -20.5t32.5 -32.5t12.5 -51q0 -42 -14.5 -74.5t-39.5 -55.5t-57.5 -36t-69.5 -16l-36 -47q35 0 50 -15.5t15 -37.5q0 -15 -7.5 -31.5t-20.5 -30.5t-31 -23t-39 -9q-15 0 -29 4.5t-25 12.5l1 5q11 -5 22.5 -7.5t22.5 -2.5q34 0 55 19t21 41
q0 17 -15 31t-49 14l4 19l44 57h-3q-35 0 -60.5 8.5t-44 21t-30 26.5t-18.5 25l84 134h5q-15 -28 -23.5 -52t-8.5 -47q0 -37 23 -62.5t78 -25.5q37 0 68.5 10t54.5 27.5t36 40t13 47.5q0 20 -11 35t-31 27t-48 22.5t-62 21.5q-46 15 -72 43t-26 71q0 38 14.5 67t39 48
t56 28.5t65.5 9.5q30 0 52.5 -7t39.5 -17.5t28 -23t18 -23.5l-68 -109h-5q11 20 16 36t5 32q0 39 -26.5 61t-69.5 22q-26 0 -51 -7.5t-45 -21t-32.5 -34t-12.5 -45.5q0 -29 25 -48t81 -37z" />
    <glyph glyph-name="scommaaccent" unicode="&#x219;" horiz-adv-x="410" 
d="M203 -11q-35 0 -60.5 8.5t-44 21t-30 26.5t-18.5 25l84 134h5q-15 -28 -23.5 -52t-8.5 -47q0 -37 23 -62.5t78 -25.5q37 0 68.5 10t54.5 27.5t36 40t13 47.5q0 20 -11 35t-31 27t-48 22.5t-62 21.5q-46 15 -72 43t-26 71q0 38 14.5 67t39 48t56 28.5t65.5 9.5
q30 0 52.5 -7t39.5 -17.5t28 -23t18 -23.5l-68 -109h-5q11 20 16 36t5 32q0 39 -26.5 61t-69.5 22q-26 0 -51 -7.5t-45 -21t-32.5 -34t-12.5 -45.5q0 -29 25 -48t81 -37q27 -9 53 -17t46 -20.5t32.5 -32.5t12.5 -51q0 -44 -16.5 -78.5t-44 -57.5t-64 -35t-76.5 -12zM189 -50
q19 0 27.5 -15t8.5 -35q0 -14 -4 -29.5t-14.5 -32.5t-28.5 -37.5t-45 -44.5h-6q32 32 45.5 55t13.5 40q0 13 -7 20t-14.5 13t-13.5 13t-3 21q3 16 15 24t26 8z" />
    <glyph glyph-name="germandbls" unicode="&#xdf;" horiz-adv-x="581" 
d="M393 -11q-29 0 -53 8.5t-42.5 21t-31 26.5t-18.5 25l84 134h5q-15 -27 -23.5 -51t-8.5 -47q0 -38 22.5 -63.5t71.5 -25.5q22 0 47 6t46 20.5t35 39.5t14 63q0 24 -8 41.5t-19.5 30t-25.5 21t-26 14.5q-23 12 -43 24t-34.5 26t-23 31t-8.5 40q0 32 10.5 53.5t26 38.5
t33.5 31.5t33.5 32.5t26 43t10.5 63q0 28 -8 56t-23.5 49.5t-38 35t-51.5 13.5q-41 0 -64 -28.5t-36 -94.5l-115 -592q-2 -6 -2 -11.5v-10.5q0 -21 13 -29t41 -14l-2 -10h-170l2 10q19 4 32.5 8t22.5 10.5t14.5 17.5t8.5 29l114 587q15 78 48 116t96 38q38 0 67 -14
t48.5 -36.5t29 -52.5t9.5 -61q0 -39 -11 -66.5t-27 -48t-35 -36.5t-35 -31.5t-27 -32.5t-11 -39q0 -31 29.5 -52t81.5 -47q37 -19 59.5 -45t22.5 -73q0 -54 -18 -90.5t-45 -59t-59.5 -32.5t-60.5 -10z" />
    <glyph glyph-name="t" unicode="t" horiz-adv-x="317" 
d="M180 -11q-45 0 -61.5 33t-0.5 113l66 340h-76l2 10q31 4 51 13.5t35 29.5t26.5 54t24.5 88h15l-33 -170h132l-5 -25h-132l-65 -335q-14 -69 -3 -97t47 -28q9 0 22 2.5t28 11t31 24.5t31 43h5q-27 -56 -63 -81.5t-77 -25.5z" />
    <glyph glyph-name="tbar" unicode="&#x167;" horiz-adv-x="317" 
d="M224 475l-40 -206h148l-7 -38h-148l-18 -91q-14 -69 -3 -97t47 -28q9 0 22 2.5t28 11t31 24.5t31 43h5q-27 -56 -63 -81.5t-77 -25.5q-45 0 -61.5 33t-0.5 113l19 96h-55l7 38h55l40 206h-76l2 10q31 4 51 13.5t35 29.5t26.5 54t24.5 88h15l-33 -170h132l-5 -25h-132z
" />
    <glyph glyph-name="tcaron" unicode="&#x165;" horiz-adv-x="317" 
d="M288 554q29 29 45 54t21 49q2 6 2 13.5v15.5q0 20 -4 41t-13 35q4 22 18.5 30.5t28.5 8.5q16 0 26 -9.5t10 -28.5q0 -3 -0.5 -6.5t-1.5 -8.5q-3 -16 -12.5 -39.5t-25.5 -50.5t-37 -54t-47 -50h-10zM180 -11q-45 0 -61.5 33t-0.5 113l66 340h-76l2 10q31 4 51 13.5
t35 29.5t26.5 54t24.5 88h15l-33 -170h132l-5 -25h-132l-65 -335q-14 -69 -3 -97t47 -28q9 0 22 2.5t28 11t31 24.5t31 43h5q-27 -56 -63 -81.5t-77 -25.5z" />
    <glyph glyph-name="uni0163" unicode="&#x163;" horiz-adv-x="317" 
d="M159 140q-14 -69 -3 -97t47 -28q9 0 22 2.5t28 11t31 24.5t31 43h5q-27 -56 -63 -81.5t-77 -25.5h-3l-36 -46q35 0 50 -15.5t15 -37.5q0 -15 -7.5 -31.5t-20.5 -30.5t-31 -23t-39 -9q-15 0 -29 4.5t-25 12.5l1 5q11 -5 22.5 -7.5t22.5 -2.5q34 0 55 19t21 41q0 17 -15 31
t-49 14l4 19l45 59q-34 6 -45.5 39.5t2.5 104.5l66 340h-76l2 10q31 4 51 13.5t35 29.5t26.5 54t24.5 88h15l-33 -170h132l-5 -25h-132z" />
    <glyph glyph-name="uni021B" unicode="&#x21b;" horiz-adv-x="317" 
d="M180 -11q-45 0 -61.5 33t-0.5 113l66 340h-76l2 10q31 4 51 13.5t35 29.5t26.5 54t24.5 88h15l-33 -170h132l-5 -25h-132l-65 -335q-14 -69 -3 -97t47 -28q9 0 22 2.5t28 11t31 24.5t31 43h5q-27 -56 -63 -81.5t-77 -25.5zM143 -50q19 0 27.5 -15t8.5 -35q0 -14 -4 -29.5
t-14.5 -32.5t-28.5 -37.5t-45 -44.5h-6q32 32 45.5 55t13.5 40q0 13 -7 20t-14.5 13t-13.5 13t-3 21q3 16 15 24t26 8z" />
    <glyph glyph-name="u" unicode="u" horiz-adv-x="521" 
d="M214 -11q-42 0 -67 21.5t-25 78.5q0 36 10.5 89.5t28.5 134.5q7 34 11.5 54.5t7 33.5t3 20t0.5 13q0 11 -4 20.5t-22 9.5q-7 0 -14.5 -1t-17.5 -3l2 10l101 30h10l-64 -332q-4 -19 -5.5 -34.5t-1.5 -27.5q0 -46 20 -66t54 -20q110 0 181 196l35 179q2 13 3.5 23t1.5 18
q0 15 -6.5 21t-20.5 6q-12 0 -31 -3l2 10l101 30h10l-77 -395q-2 -13 -3.5 -23t-1.5 -18q0 -15 6.5 -21t20.5 -6q11 0 31 3l-2 -10l-101 -30h-10l31 159q-14 -36 -33.5 -67t-44 -54t-54 -36t-65.5 -13z" />
    <glyph glyph-name="uacute" unicode="&#xfa;" horiz-adv-x="521" 
d="M319 575q38 55 66 91.5t48 58t33 30t21 8.5q14 0 14 -11q0 -12 -17 -33t-43 -45.5t-56.5 -50.5t-57.5 -48h-8zM214 -11q-42 0 -67 21.5t-25 78.5q0 36 10.5 89.5t28.5 134.5q7 34 11.5 54.5t7 33.5t3 20t0.5 13q0 11 -4 20.5t-22 9.5q-7 0 -14.5 -1t-17.5 -3l2 10l101 30
h10l-64 -332q-4 -19 -5.5 -34.5t-1.5 -27.5q0 -46 20 -66t54 -20q110 0 181 196l35 179q2 13 3.5 23t1.5 18q0 15 -6.5 21t-20.5 6q-12 0 -31 -3l2 10l101 30h10l-77 -395q-2 -13 -3.5 -23t-1.5 -18q0 -15 6.5 -21t20.5 -6q11 0 31 3l-2 -10l-101 -30h-10l31 159
q-14 -36 -33.5 -67t-44 -54t-54 -36t-65.5 -13z" />
    <glyph glyph-name="ucircumflex" unicode="&#xfb;" horiz-adv-x="521" 
d="M252 575q43 56 69 92.5t42.5 57.5t26.5 29.5t19 8.5t15.5 -8.5t15 -29.5t20.5 -57.5t33 -92.5h-8q-24 37 -47 72.5t-38 68.5q-27 -33 -64.5 -68.5t-75.5 -72.5h-8zM214 -11q-42 0 -67 21.5t-25 78.5q0 36 10.5 89.5t28.5 134.5q7 34 11.5 54.5t7 33.5t3 20t0.5 13
q0 11 -4 20.5t-22 9.5q-7 0 -14.5 -1t-17.5 -3l2 10l101 30h10l-64 -332q-4 -19 -5.5 -34.5t-1.5 -27.5q0 -46 20 -66t54 -20q110 0 181 196l35 179q2 13 3.5 23t1.5 18q0 15 -6.5 21t-20.5 6q-12 0 -31 -3l2 10l101 30h10l-77 -395q-2 -13 -3.5 -23t-1.5 -18q0 -15 6.5 -21
t20.5 -6q11 0 31 3l-2 -10l-101 -30h-10l31 159q-14 -36 -33.5 -67t-44 -54t-54 -36t-65.5 -13z" />
    <glyph glyph-name="udieresis" unicode="&#xfc;" horiz-adv-x="521" 
d="M300 628q-16 0 -24 8.5t-8 22.5q0 19 13.5 32.5t33.5 13.5q14 0 23 -9t9 -23q0 -19 -13.5 -32t-33.5 -13zM430 628q-16 0 -24 8.5t-8 22.5q0 19 13.5 32.5t33.5 13.5q14 0 23 -9t9 -23q0 -19 -13.5 -32t-33.5 -13zM214 -11q-42 0 -67 21.5t-25 78.5q0 36 10.5 89.5
t28.5 134.5q7 34 11.5 54.5t7 33.5t3 20t0.5 13q0 11 -4 20.5t-22 9.5q-7 0 -14.5 -1t-17.5 -3l2 10l101 30h10l-64 -332q-4 -19 -5.5 -34.5t-1.5 -27.5q0 -46 20 -66t54 -20q110 0 181 196l35 179q2 13 3.5 23t1.5 18q0 15 -6.5 21t-20.5 6q-12 0 -31 -3l2 10l101 30h10
l-77 -395q-2 -13 -3.5 -23t-1.5 -18q0 -15 6.5 -21t20.5 -6q11 0 31 3l-2 -10l-101 -30h-10l31 159q-14 -36 -33.5 -67t-44 -54t-54 -36t-65.5 -13z" />
    <glyph glyph-name="ugrave" unicode="&#xf9;" horiz-adv-x="521" 
d="M369 575q-17 20 -36 44.5t-35 47.5t-26 43.5t-10 33.5q0 8 4 13.5t15 5.5q8 0 18 -8.5t22 -30t26 -58t30 -91.5h-8zM214 -11q-42 0 -67 21.5t-25 78.5q0 36 10.5 89.5t28.5 134.5q7 34 11.5 54.5t7 33.5t3 20t0.5 13q0 11 -4 20.5t-22 9.5q-7 0 -14.5 -1t-17.5 -3l2 10
l101 30h10l-64 -332q-4 -19 -5.5 -34.5t-1.5 -27.5q0 -46 20 -66t54 -20q110 0 181 196l35 179q2 13 3.5 23t1.5 18q0 15 -6.5 21t-20.5 6q-12 0 -31 -3l2 10l101 30h10l-77 -395q-2 -13 -3.5 -23t-1.5 -18q0 -15 6.5 -21t20.5 -6q11 0 31 3l-2 -10l-101 -30h-10l31 159
q-14 -36 -33.5 -67t-44 -54t-54 -36t-65.5 -13z" />
    <glyph glyph-name="uhungarumlaut" unicode="&#x171;" horiz-adv-x="521" 
d="M224 575q38 55 66 91.5t48 58t33 30t21 8.5q14 0 14 -11q0 -12 -17 -33t-43 -45.5t-56.5 -50.5t-57.5 -48h-8zM354 575q38 55 66 91.5t48 58t33 30t21 8.5q14 0 14 -11q0 -12 -17 -33t-43 -45.5t-56.5 -50.5t-57.5 -48h-8zM214 -11q-42 0 -67 21.5t-25 78.5
q0 36 10.5 89.5t28.5 134.5q7 34 11.5 54.5t7 33.5t3 20t0.5 13q0 11 -4 20.5t-22 9.5q-7 0 -14.5 -1t-17.5 -3l2 10l101 30h10l-64 -332q-4 -19 -5.5 -34.5t-1.5 -27.5q0 -46 20 -66t54 -20q110 0 181 196l35 179q2 13 3.5 23t1.5 18q0 15 -6.5 21t-20.5 6q-12 0 -31 -3
l2 10l101 30h10l-77 -395q-2 -13 -3.5 -23t-1.5 -18q0 -15 6.5 -21t20.5 -6q11 0 31 3l-2 -10l-101 -30h-10l31 159q-14 -36 -33.5 -67t-44 -54t-54 -36t-65.5 -13z" />
    <glyph glyph-name="umacron" unicode="&#x16b;" horiz-adv-x="521" 
d="M267 680h263l-7 -38h-263zM214 -11q-42 0 -67 21.5t-25 78.5q0 36 10.5 89.5t28.5 134.5q7 34 11.5 54.5t7 33.5t3 20t0.5 13q0 11 -4 20.5t-22 9.5q-7 0 -14.5 -1t-17.5 -3l2 10l101 30h10l-64 -332q-4 -19 -5.5 -34.5t-1.5 -27.5q0 -46 20 -66t54 -20q110 0 181 196
l35 179q2 13 3.5 23t1.5 18q0 15 -6.5 21t-20.5 6q-12 0 -31 -3l2 10l101 30h10l-77 -395q-2 -13 -3.5 -23t-1.5 -18q0 -15 6.5 -21t20.5 -6q11 0 31 3l-2 -10l-101 -30h-10l31 159q-14 -36 -33.5 -67t-44 -54t-54 -36t-65.5 -13z" />
    <glyph glyph-name="uogonek" unicode="&#x173;" horiz-adv-x="521" 
d="M435 64q0 -15 6.5 -21t20.5 -6q11 0 31 3l-2 -10l-100 -30q-8 -6 -22.5 -19.5t-29.5 -32t-26 -40t-11 -42.5q0 -22 11.5 -34.5t31.5 -12.5q14 0 30 7t33 21h5q-22 -26 -44.5 -40t-45.5 -14t-38 15.5t-15 41.5q0 27 15 51.5t34 45t37 34.5t24 19l31 159q-14 -36 -33.5 -67
t-44 -54t-54 -36t-65.5 -13q-42 0 -67 21.5t-25 78.5q0 36 10.5 89.5t28.5 134.5q7 34 11.5 54.5t7 33.5t3 20t0.5 13q0 11 -4 20.5t-22 9.5q-7 0 -14.5 -1t-17.5 -3l2 10l101 30h10l-64 -332q-4 -19 -5.5 -34.5t-1.5 -27.5q0 -46 20 -66t54 -20q110 0 181 196l35 179
q2 13 3.5 23t1.5 18q0 15 -6.5 21t-20.5 6q-12 0 -31 -3l2 10l101 30h10l-77 -395q-2 -13 -3.5 -23t-1.5 -18z" />
    <glyph glyph-name="uring" unicode="&#x16f;" horiz-adv-x="521" 
d="M358 572q-30 0 -48.5 20t-18.5 48q0 19 8.5 35.5t22 29.5t31 20.5t36.5 7.5q29 0 47.5 -19.5t18.5 -48.5q0 -18 -8.5 -35t-22 -30t-31 -20.5t-35.5 -7.5zM362 595q13 0 25.5 5.5t22.5 14.5t16 21t6 25q0 20 -13.5 34.5t-33.5 14.5q-14 0 -26.5 -5.5t-22 -14.5t-15.5 -21
t-6 -25q0 -20 13 -34.5t34 -14.5zM214 -11q-42 0 -67 21.5t-25 78.5q0 36 10.5 89.5t28.5 134.5q7 34 11.5 54.5t7 33.5t3 20t0.5 13q0 11 -4 20.5t-22 9.5q-7 0 -14.5 -1t-17.5 -3l2 10l101 30h10l-64 -332q-4 -19 -5.5 -34.5t-1.5 -27.5q0 -46 20 -66t54 -20
q110 0 181 196l35 179q2 13 3.5 23t1.5 18q0 15 -6.5 21t-20.5 6q-12 0 -31 -3l2 10l101 30h10l-77 -395q-2 -13 -3.5 -23t-1.5 -18q0 -15 6.5 -21t20.5 -6q11 0 31 3l-2 -10l-101 -30h-10l31 159q-14 -36 -33.5 -67t-44 -54t-54 -36t-65.5 -13z" />
    <glyph glyph-name="v" unicode="v" horiz-adv-x="490" 
d="M204 439q-2 11 -13.5 18t-26.5 7q-7 0 -17 -1t-22 -3l2 10l101 30h10l74 -451l155 271q20 36 32 69.5t12 57.5q0 20 -8.5 31.5t-27.5 11.5q-16 0 -39.5 -12.5t-46.5 -33.5v10q23 23 49.5 37.5t49.5 14.5q30 0 43.5 -15.5t13.5 -41.5q0 -45 -34 -104l-194 -345h-39z" />
    <glyph glyph-name="w" unicode="w" horiz-adv-x="720" 
d="M205 428q-2 23 -13 31t-28 9q-10 0 -19 -0.5t-19 -1.5l2 10l102 24h10l43 -445l216 445h35l40 -445l136 282q15 31 24 59.5t9 51.5q0 19 -8 30.5t-26 11.5t-41.5 -12.5t-46.5 -33.5v10q21 21 46.5 36.5t55.5 15.5q29 0 41 -15t12 -38q0 -22 -9 -49.5t-23 -55.5l-172 -348
h-30l-42 451l-218 -451h-30z" />
    <glyph glyph-name="wacute" unicode="&#x1e83;" horiz-adv-x="720" 
d="M500 575q38 55 66 91.5t48 58t33 30t21 8.5q14 0 14 -11q0 -12 -17 -33t-43 -45.5t-56.5 -50.5t-57.5 -48h-8zM205 428q-2 23 -13 31t-28 9q-10 0 -19 -0.5t-19 -1.5l2 10l102 24h10l43 -445l216 445h35l40 -445l136 282q15 31 24 59.5t9 51.5q0 19 -8 30.5t-26 11.5
t-41.5 -12.5t-46.5 -33.5v10q21 21 46.5 36.5t55.5 15.5q29 0 41 -15t12 -38q0 -22 -9 -49.5t-23 -55.5l-172 -348h-30l-42 451l-218 -451h-30z" />
    <glyph glyph-name="wcircumflex" unicode="&#x175;" horiz-adv-x="720" 
d="M407 575q43 56 69 92.5t42.5 57.5t26.5 29.5t19 8.5t15.5 -8.5t15 -29.5t20.5 -57.5t33 -92.5h-8q-24 37 -47 72.5t-38 68.5q-27 -33 -64.5 -68.5t-75.5 -72.5h-8zM205 428q-2 23 -13 31t-28 9q-10 0 -19 -0.5t-19 -1.5l2 10l102 24h10l43 -445l216 445h35l40 -445
l136 282q15 31 24 59.5t9 51.5q0 19 -8 30.5t-26 11.5t-41.5 -12.5t-46.5 -33.5v10q21 21 46.5 36.5t55.5 15.5q29 0 41 -15t12 -38q0 -22 -9 -49.5t-23 -55.5l-172 -348h-30l-42 451l-218 -451h-30z" />
    <glyph glyph-name="wdieresis" unicode="&#x1e85;" horiz-adv-x="720" 
d="M477 628q-16 0 -24 8.5t-8 22.5q0 19 13.5 32.5t33.5 13.5q14 0 23 -9t9 -23q0 -19 -13.5 -32t-33.5 -13zM607 628q-16 0 -24 8.5t-8 22.5q0 19 13.5 32.5t33.5 13.5q14 0 23 -9t9 -23q0 -19 -13.5 -32t-33.5 -13zM205 428q-2 23 -13 31t-28 9q-10 0 -19 -0.5t-19 -1.5
l2 10l102 24h10l43 -445l216 445h35l40 -445l136 282q15 31 24 59.5t9 51.5q0 19 -8 30.5t-26 11.5t-41.5 -12.5t-46.5 -33.5v10q21 21 46.5 36.5t55.5 15.5q29 0 41 -15t12 -38q0 -22 -9 -49.5t-23 -55.5l-172 -348h-30l-42 451l-218 -451h-30z" />
    <glyph glyph-name="wgrave" unicode="&#x1e81;" horiz-adv-x="720" 
d="M570 575q-17 20 -36 44.5t-35 47.5t-26 43.5t-10 33.5q0 8 4 13.5t15 5.5q8 0 18 -8.5t22 -30t26 -58t30 -91.5h-8zM205 428q-2 23 -13 31t-28 9q-10 0 -19 -0.5t-19 -1.5l2 10l102 24h10l43 -445l216 445h35l40 -445l136 282q15 31 24 59.5t9 51.5q0 19 -8 30.5
t-26 11.5t-41.5 -12.5t-46.5 -33.5v10q21 21 46.5 36.5t55.5 15.5q29 0 41 -15t12 -38q0 -22 -9 -49.5t-23 -55.5l-172 -348h-30l-42 451l-218 -451h-30z" />
    <glyph glyph-name="x" unicode="x" horiz-adv-x="498" 
d="M296 230q-26 -42 -54 -83.5t-56.5 -74.5t-56.5 -53.5t-53 -20.5q-17 0 -25 9t-8 24q0 17 10.5 39t32.5 45h10q-15 -19 -24.5 -40t-9.5 -35q0 -19 16 -19q17 0 40.5 19t50.5 51.5t56.5 75.5t59.5 91l-67 181q-8 18 -18 23.5t-26 5.5q-8 0 -17.5 -0.5t-21.5 -1.5l2 10
l101 24l76 -200q19 31 40.5 67t44.5 67t48 51.5t52 20.5q35 0 35 -34q0 -17 -10 -39.5t-31 -49.5h-9q13 17 21.5 39t8.5 39q0 25 -20 25q-14 0 -29.5 -13.5t-35 -40t-45.5 -66t-60 -92.5l81 -216q9 -18 19 -23.5t25 -5.5q8 0 17.5 0.5t21.5 1.5l-2 -10l-101 -24z" />
    <glyph glyph-name="y" unicode="y" horiz-adv-x="476" 
d="M112 -206q-33 0 -53 22t-34 54h5q15 -32 37 -45t39 -13q19 0 40.5 12.5t44 35.5t45 55t42.5 71l-74 453q-3 17 -15.5 21t-26.5 4q-11 0 -19 -1t-18 -3l2 10l101 30h10l74 -465l155 285q44 82 44 128q0 42 -37 42q-15 0 -35.5 -10t-49.5 -36v10q31 32 55.5 42t42.5 10
q24 0 39 -12t15 -40q0 -23 -12 -58.5t-36 -79.5l-184 -330q-32 -57 -59.5 -94t-52 -58.5t-46 -30.5t-39.5 -9z" />
    <glyph glyph-name="yacute" unicode="&#xfd;" horiz-adv-x="476" 
d="M340 575q38 55 66 91.5t48 58t33 30t21 8.5q14 0 14 -11q0 -12 -17 -33t-43 -45.5t-56.5 -50.5t-57.5 -48h-8zM112 -206q-33 0 -53 22t-34 54h5q15 -32 37 -45t39 -13q19 0 40.5 12.5t44 35.5t45 55t42.5 71l-74 453q-3 17 -15.5 21t-26.5 4q-11 0 -19 -1t-18 -3l2 10
l101 30h10l74 -465l155 285q44 82 44 128q0 42 -37 42q-15 0 -35.5 -10t-49.5 -36v10q31 32 55.5 42t42.5 10q24 0 39 -12t15 -40q0 -23 -12 -58.5t-36 -79.5l-184 -330q-32 -57 -59.5 -94t-52 -58.5t-46 -30.5t-39.5 -9z" />
    <glyph glyph-name="ycircumflex" unicode="&#x177;" horiz-adv-x="476" 
d="M258 575q43 56 69 92.5t42.5 57.5t26.5 29.5t19 8.5t15.5 -8.5t15 -29.5t20.5 -57.5t33 -92.5h-8q-24 37 -47 72.5t-38 68.5q-27 -33 -64.5 -68.5t-75.5 -72.5h-8zM112 -206q-33 0 -53 22t-34 54h5q15 -32 37 -45t39 -13q19 0 40.5 12.5t44 35.5t45 55t42.5 71l-74 453
q-3 17 -15.5 21t-26.5 4q-11 0 -19 -1t-18 -3l2 10l101 30h10l74 -465l155 285q44 82 44 128q0 42 -37 42q-15 0 -35.5 -10t-49.5 -36v10q31 32 55.5 42t42.5 10q24 0 39 -12t15 -40q0 -23 -12 -58.5t-36 -79.5l-184 -330q-32 -57 -59.5 -94t-52 -58.5t-46 -30.5t-39.5 -9z
" />
    <glyph glyph-name="ydieresis" unicode="&#xff;" horiz-adv-x="476" 
d="M308 628q-16 0 -24 8.5t-8 22.5q0 19 13.5 32.5t33.5 13.5q14 0 23 -9t9 -23q0 -19 -13.5 -32t-33.5 -13zM438 628q-16 0 -24 8.5t-8 22.5q0 19 13.5 32.5t33.5 13.5q14 0 23 -9t9 -23q0 -19 -13.5 -32t-33.5 -13zM112 -206q-33 0 -53 22t-34 54h5q15 -32 37 -45t39 -13
q19 0 40.5 12.5t44 35.5t45 55t42.5 71l-74 453q-3 17 -15.5 21t-26.5 4q-11 0 -19 -1t-18 -3l2 10l101 30h10l74 -465l155 285q44 82 44 128q0 42 -37 42q-15 0 -35.5 -10t-49.5 -36v10q31 32 55.5 42t42.5 10q24 0 39 -12t15 -40q0 -23 -12 -58.5t-36 -79.5l-184 -330
q-32 -57 -59.5 -94t-52 -58.5t-46 -30.5t-39.5 -9z" />
    <glyph glyph-name="ygrave" unicode="&#x1ef3;" horiz-adv-x="476" 
d="M400 575q-17 20 -36 44.5t-35 47.5t-26 43.5t-10 33.5q0 8 4 13.5t15 5.5q8 0 18 -8.5t22 -30t26 -58t30 -91.5h-8zM112 -206q-33 0 -53 22t-34 54h5q15 -32 37 -45t39 -13q19 0 40.5 12.5t44 35.5t45 55t42.5 71l-74 453q-3 17 -15.5 21t-26.5 4q-11 0 -19 -1t-18 -3
l2 10l101 30h10l74 -465l155 285q44 82 44 128q0 42 -37 42q-15 0 -35.5 -10t-49.5 -36v10q31 32 55.5 42t42.5 10q24 0 39 -12t15 -40q0 -23 -12 -58.5t-36 -79.5l-184 -330q-32 -57 -59.5 -94t-52 -58.5t-46 -30.5t-39.5 -9z" />
    <glyph glyph-name="z" unicode="z" horiz-adv-x="428" 
d="M272 30q22 0 41 7t35.5 22t31.5 38.5t31 57.5h10q-11 -26 -20 -46t-17 -37t-15 -34t-13 -38h-315l-3 10l366 460h-141q-45 0 -76 -29.5t-64 -100.5h-10q11 28 20.5 49t17.5 38.5t15 34.5t13 38h285l3 -10l-363 -460h168v0z" />
    <glyph glyph-name="zacute" unicode="&#x17a;" horiz-adv-x="428" 
d="M454 752q0 -12 -17 -33t-43 -45.5t-56.5 -50.5t-57.5 -48h-8q38 55 66 91.5t48 58t33 30t21 8.5q14 0 14 -11zM272 30q22 0 41 7t35.5 22t31.5 38.5t31 57.5h10q-11 -26 -20 -46t-17 -37t-15 -34t-13 -38h-315l-3 10l366 460h-141q-45 0 -76 -29.5t-64 -100.5h-10
q11 28 20.5 49t17.5 38.5t15 34.5t13 38h285l3 -10l-363 -460h168z" />
    <glyph glyph-name="zcaron" unicode="&#x17e;" horiz-adv-x="428" 
d="M334 575q-9 0 -16 8.5t-15 29.5t-20 57.5t-33 92.5h8q24 -37 47 -72.5t38 -68.5q27 33 64.5 68.5t75.5 72.5h8q-43 -56 -69 -92.5t-42.5 -57.5t-26.5 -29.5t-19 -8.5zM467 490l-363 -460h168q22 0 41 7t35.5 22t31.5 38.5t31 57.5h10q-11 -26 -20 -46t-17 -37t-15 -34
t-13 -38h-315l-3 10l366 460h-141q-45 0 -76 -29.5t-64 -100.5h-10q11 28 20.5 49t17.5 38.5t15 34.5t13 38h285z" />
    <glyph glyph-name="zdotaccent" unicode="&#x17c;" horiz-adv-x="428" 
d="M331 605q-21 0 -32 12t-11 30q0 25 18 43.5t45 18.5q20 0 31.5 -12.5t11.5 -30.5q0 -26 -18.5 -43.5t-44.5 -17.5zM272 30q22 0 41 7t35.5 22t31.5 38.5t31 57.5h10q-11 -26 -20 -46t-17 -37t-15 -34t-13 -38h-315l-3 10l366 460h-141q-45 0 -76 -29.5t-64 -100.5h-10
q11 28 20.5 49t17.5 38.5t15 34.5t13 38h285l3 -10l-363 -460h168z" />
    <glyph glyph-name="a.ss01" horiz-adv-x="474" 
d="M167 -11q-51 0 -79.5 28.5t-28.5 81.5q0 44 20 76.5t51 56t70 39t76.5 25t70 15t51.5 8.5l6 30q2 13 3.5 24t1.5 22q0 53 -28.5 75t-66.5 22q-30 0 -58.5 -12t-50 -32.5t-34.5 -49t-13 -61.5q0 -8 0.5 -17t1.5 -15h-5l-25 128q11 12 28 26.5t41 26.5t55.5 20.5t71.5 8.5
q127 0 127 -101q0 -11 -1.5 -22.5t-3.5 -24.5l-54 -282q-3 -17 -3 -27q0 -22 23 -22q8 0 16 1t19 3l-2 -10l-101 -30h-10l24 124q-6 -12 -21.5 -34.5t-40.5 -45t-58 -39t-73 -16.5zM183 18q27 0 54 12t50.5 30t43 40t33.5 43l31 161q-15 -3 -42 -8t-59 -14.5t-65.5 -24
t-60.5 -35.5t-44.5 -50t-17.5 -67q0 -37 18 -62t59 -25z" />
    <glyph glyph-name="aacute.ss01" horiz-adv-x="474" 
d="M269 575q38 55 66 91.5t48 58t33 30t21 8.5q14 0 14 -11q0 -12 -17 -33t-43 -45.5t-56.5 -50.5t-57.5 -48h-8zM167 -11q-51 0 -79.5 28.5t-28.5 81.5q0 44 20 76.5t51 56t70 39t76.5 25t70 15t51.5 8.5l6 30q2 13 3.5 24t1.5 22q0 53 -28.5 75t-66.5 22q-30 0 -58.5 -12
t-50 -32.5t-34.5 -49t-13 -61.5q0 -8 0.5 -17t1.5 -15h-5l-25 128q11 12 28 26.5t41 26.5t55.5 20.5t71.5 8.5q127 0 127 -101q0 -11 -1.5 -22.5t-3.5 -24.5l-54 -282q-3 -17 -3 -27q0 -22 23 -22q8 0 16 1t19 3l-2 -10l-101 -30h-10l24 124q-6 -12 -21.5 -34.5t-40.5 -45
t-58 -39t-73 -16.5zM183 18q27 0 54 12t50.5 30t43 40t33.5 43l31 161q-15 -3 -42 -8t-59 -14.5t-65.5 -24t-60.5 -35.5t-44.5 -50t-17.5 -67q0 -37 18 -62t59 -25z" />
    <glyph glyph-name="abreve.ss01" horiz-adv-x="474" 
d="M325 575q-24 0 -46.5 9.5t-37.5 32t-20 58t5 88.5h8q-5 -26 -3 -52t13 -47t32.5 -34t56.5 -13q34 0 61 13t46 34t31 47t17 52h8q-10 -53 -29 -88.5t-42.5 -58t-49.5 -32t-50 -9.5zM167 -11q-51 0 -79.5 28.5t-28.5 81.5q0 44 20 76.5t51 56t70 39t76.5 25t70 15t51.5 8.5
l6 30q2 13 3.5 24t1.5 22q0 53 -28.5 75t-66.5 22q-30 0 -58.5 -12t-50 -32.5t-34.5 -49t-13 -61.5q0 -8 0.5 -17t1.5 -15h-5l-25 128q11 12 28 26.5t41 26.5t55.5 20.5t71.5 8.5q127 0 127 -101q0 -11 -1.5 -22.5t-3.5 -24.5l-54 -282q-3 -17 -3 -27q0 -22 23 -22q8 0 16 1
t19 3l-2 -10l-101 -30h-10l24 124q-6 -12 -21.5 -34.5t-40.5 -45t-58 -39t-73 -16.5zM183 18q27 0 54 12t50.5 30t43 40t33.5 43l31 161q-15 -3 -42 -8t-59 -14.5t-65.5 -24t-60.5 -35.5t-44.5 -50t-17.5 -67q0 -37 18 -62t59 -25z" />
    <glyph glyph-name="acircumflex.ss01" horiz-adv-x="474" 
d="M210 575q43 56 69 92.5t42.5 57.5t26.5 29.5t19 8.5t15.5 -8.5t15 -29.5t20.5 -57.5t33 -92.5h-8q-24 37 -47 72.5t-38 68.5q-27 -33 -64.5 -68.5t-75.5 -72.5h-8zM167 -11q-51 0 -79.5 28.5t-28.5 81.5q0 44 20 76.5t51 56t70 39t76.5 25t70 15t51.5 8.5l6 30
q2 13 3.5 24t1.5 22q0 53 -28.5 75t-66.5 22q-30 0 -58.5 -12t-50 -32.5t-34.5 -49t-13 -61.5q0 -8 0.5 -17t1.5 -15h-5l-25 128q11 12 28 26.5t41 26.5t55.5 20.5t71.5 8.5q127 0 127 -101q0 -11 -1.5 -22.5t-3.5 -24.5l-54 -282q-3 -17 -3 -27q0 -22 23 -22q8 0 16 1t19 3
l-2 -10l-101 -30h-10l24 124q-6 -12 -21.5 -34.5t-40.5 -45t-58 -39t-73 -16.5zM183 18q27 0 54 12t50.5 30t43 40t33.5 43l31 161q-15 -3 -42 -8t-59 -14.5t-65.5 -24t-60.5 -35.5t-44.5 -50t-17.5 -67q0 -37 18 -62t59 -25z" />
    <glyph glyph-name="adieresis.ss01" horiz-adv-x="475" 
d="M198 628q-16 0 -24 8.5t-8 22.5q0 19 13.5 32.5t33.5 13.5q14 0 23 -9t9 -23q0 -19 -13.5 -32t-33.5 -13zM328 628q-16 0 -24 8.5t-8 22.5q0 19 13.5 32.5t33.5 13.5q14 0 23 -9t9 -23q0 -19 -13.5 -32t-33.5 -13zM168 -11q-51 0 -79.5 28.5t-28.5 81.5q0 44 20 76.5
t51 56t70 39t76.5 25t70 15t51.5 8.5l6 30q2 13 3.5 24t1.5 22q0 53 -28.5 75t-66.5 22q-30 0 -58.5 -12t-50 -32.5t-34.5 -49t-13 -61.5q0 -8 0.5 -17t1.5 -15h-5l-25 128q11 12 28 26.5t41 26.5t55.5 20.5t71.5 8.5q127 0 127 -101q0 -11 -1.5 -22.5t-3.5 -24.5l-54 -282
q-3 -17 -3 -27q0 -22 23 -22q8 0 16 1t19 3l-2 -10l-101 -30h-10l24 124q-6 -12 -21.5 -34.5t-40.5 -45t-58 -39t-73 -16.5zM184 18q27 0 54 12t50.5 30t43 40t33.5 43l31 161q-15 -3 -42 -8t-59 -14.5t-65.5 -24t-60.5 -35.5t-44.5 -50t-17.5 -67q0 -37 18 -62t59 -25z" />
    <glyph glyph-name="agrave.ss01" horiz-adv-x="474" 
d="M361 575q-17 20 -36 44.5t-35 47.5t-26 43.5t-10 33.5q0 8 4 13.5t15 5.5q8 0 18 -8.5t22 -30t26 -58t30 -91.5h-8zM167 -11q-51 0 -79.5 28.5t-28.5 81.5q0 44 20 76.5t51 56t70 39t76.5 25t70 15t51.5 8.5l6 30q2 13 3.5 24t1.5 22q0 53 -28.5 75t-66.5 22
q-30 0 -58.5 -12t-50 -32.5t-34.5 -49t-13 -61.5q0 -8 0.5 -17t1.5 -15h-5l-25 128q11 12 28 26.5t41 26.5t55.5 20.5t71.5 8.5q127 0 127 -101q0 -11 -1.5 -22.5t-3.5 -24.5l-54 -282q-3 -17 -3 -27q0 -22 23 -22q8 0 16 1t19 3l-2 -10l-101 -30h-10l24 124
q-6 -12 -21.5 -34.5t-40.5 -45t-58 -39t-73 -16.5zM183 18q27 0 54 12t50.5 30t43 40t33.5 43l31 161q-15 -3 -42 -8t-59 -14.5t-65.5 -24t-60.5 -35.5t-44.5 -50t-17.5 -67q0 -37 18 -62t59 -25z" />
    <glyph glyph-name="amacron.ss01" horiz-adv-x="474" 
d="M229 680h263l-7 -38h-263zM167 -11q-51 0 -79.5 28.5t-28.5 81.5q0 44 20 76.5t51 56t70 39t76.5 25t70 15t51.5 8.5l6 30q2 13 3.5 24t1.5 22q0 53 -28.5 75t-66.5 22q-30 0 -58.5 -12t-50 -32.5t-34.5 -49t-13 -61.5q0 -8 0.5 -17t1.5 -15h-5l-25 128q11 12 28 26.5
t41 26.5t55.5 20.5t71.5 8.5q127 0 127 -101q0 -11 -1.5 -22.5t-3.5 -24.5l-54 -282q-3 -17 -3 -27q0 -22 23 -22q8 0 16 1t19 3l-2 -10l-101 -30h-10l24 124q-6 -12 -21.5 -34.5t-40.5 -45t-58 -39t-73 -16.5zM183 18q27 0 54 12t50.5 30t43 40t33.5 43l31 161
q-15 -3 -42 -8t-59 -14.5t-65.5 -24t-60.5 -35.5t-44.5 -50t-17.5 -67q0 -37 18 -62t59 -25z" />
    <glyph glyph-name="aogonek.ss01" horiz-adv-x="474" 
d="M391 58q0 -22 23 -22q8 0 16 1t19 3l-2 -10l-100 -30q-8 -6 -22.5 -19.5t-29.5 -32t-26 -40t-11 -42.5q0 -22 11.5 -34.5t31.5 -12.5q14 0 30 7t33 21h5q-22 -26 -44.5 -40t-45.5 -14t-38 15.5t-15 41.5q0 27 15 51.5t34 45t37 34.5t24 19l24 124q-6 -12 -21.5 -34.5
t-40.5 -45t-58 -39t-73 -16.5q-51 0 -79.5 28.5t-28.5 81.5q0 44 20 76.5t51 56t70 39t76.5 25t70 15t51.5 8.5l6 30q2 13 3.5 24t1.5 22q0 53 -28.5 75t-66.5 22q-30 0 -58.5 -12t-50 -32.5t-34.5 -49t-13 -61.5q0 -8 0.5 -17t1.5 -15h-5l-25 128q11 12 28 26.5t41 26.5
t55.5 20.5t71.5 8.5q127 0 127 -101q0 -11 -1.5 -22.5t-3.5 -24.5l-54 -282q-3 -17 -3 -27zM183 18q27 0 54 12t50.5 30t43 40t33.5 43l31 161q-15 -3 -42 -8t-59 -14.5t-65.5 -24t-60.5 -35.5t-44.5 -50t-17.5 -67q0 -37 18 -62t59 -25z" />
    <glyph glyph-name="aring.ss01" horiz-adv-x="474" 
d="M330 572q-30 0 -48.5 20t-18.5 48q0 19 8.5 35.5t22 29.5t31 20.5t36.5 7.5q29 0 47.5 -19.5t18.5 -48.5q0 -18 -8.5 -35t-22 -30t-31 -20.5t-35.5 -7.5zM334 595q13 0 25.5 5.5t22.5 14.5t16 21t6 25q0 20 -13.5 34.5t-33.5 14.5q-14 0 -26.5 -5.5t-22 -14.5t-15.5 -21
t-6 -25q0 -20 13 -34.5t34 -14.5zM167 -11q-51 0 -79.5 28.5t-28.5 81.5q0 44 20 76.5t51 56t70 39t76.5 25t70 15t51.5 8.5l6 30q2 13 3.5 24t1.5 22q0 53 -28.5 75t-66.5 22q-30 0 -58.5 -12t-50 -32.5t-34.5 -49t-13 -61.5q0 -8 0.5 -17t1.5 -15h-5l-25 128
q11 12 28 26.5t41 26.5t55.5 20.5t71.5 8.5q127 0 127 -101q0 -11 -1.5 -22.5t-3.5 -24.5l-54 -282q-3 -17 -3 -27q0 -22 23 -22q8 0 16 1t19 3l-2 -10l-101 -30h-10l24 124q-6 -12 -21.5 -34.5t-40.5 -45t-58 -39t-73 -16.5zM183 18q27 0 54 12t50.5 30t43 40t33.5 43
l31 161q-15 -3 -42 -8t-59 -14.5t-65.5 -24t-60.5 -35.5t-44.5 -50t-17.5 -67q0 -37 18 -62t59 -25z" />
    <glyph glyph-name="atilde.ss01" horiz-adv-x="474" 
d="M211 630q14 46 40 70.5t57 24.5q21 0 33.5 -8.5t23 -18t21 -18t27.5 -8.5q21 0 42 15.5t36 47.5h3q-14 -46 -40 -70.5t-58 -24.5q-21 0 -33.5 8.5t-22.5 18t-20.5 18t-26.5 8.5q-21 0 -42 -15.5t-37 -47.5h-3zM167 -11q-51 0 -79.5 28.5t-28.5 81.5q0 44 20 76.5t51 56
t70 39t76.5 25t70 15t51.5 8.5l6 30q2 13 3.5 24t1.5 22q0 53 -28.5 75t-66.5 22q-30 0 -58.5 -12t-50 -32.5t-34.5 -49t-13 -61.5q0 -8 0.5 -17t1.5 -15h-5l-25 128q11 12 28 26.5t41 26.5t55.5 20.5t71.5 8.5q127 0 127 -101q0 -11 -1.5 -22.5t-3.5 -24.5l-54 -282
q-3 -17 -3 -27q0 -22 23 -22q8 0 16 1t19 3l-2 -10l-101 -30h-10l24 124q-6 -12 -21.5 -34.5t-40.5 -45t-58 -39t-73 -16.5zM183 18q27 0 54 12t50.5 30t43 40t33.5 43l31 161q-15 -3 -42 -8t-59 -14.5t-65.5 -24t-60.5 -35.5t-44.5 -50t-17.5 -67q0 -37 18 -62t59 -25z" />
    <glyph glyph-name="c.ss01" horiz-adv-x="512" 
d="M252 -11q-42 0 -74 17t-53.5 46t-32.5 66.5t-11 79.5q0 59 22 116t60 101.5t90.5 72t112.5 27.5q36 0 63 -8.5t45.5 -20.5t29.5 -25.5t16 -23.5l-171 -296h-5q23 42 43.5 79.5t35.5 69.5t24 58t9 45q0 41 -28.5 66t-79.5 25q-38 0 -78 -16.5t-73 -49.5t-54.5 -83.5
t-21.5 -118.5q0 -44 11.5 -80.5t32 -62t48.5 -39.5t60 -14q72 0 127.5 38t104.5 118h5q-19 -38 -43.5 -71.5t-56.5 -59.5t-71 -41t-87 -15z" />
    <glyph glyph-name="cacute.ss01" horiz-adv-x="512" 
d="M294 575q38 55 66 91.5t48 58t33 30t21 8.5q14 0 14 -11q0 -12 -17 -33t-43 -45.5t-56.5 -50.5t-57.5 -48h-8zM252 -11q-42 0 -74 17t-53.5 46t-32.5 66.5t-11 79.5q0 59 22 116t60 101.5t90.5 72t112.5 27.5q36 0 63 -8.5t45.5 -20.5t29.5 -25.5t16 -23.5l-171 -296h-5
q23 42 43.5 79.5t35.5 69.5t24 58t9 45q0 41 -28.5 66t-79.5 25q-38 0 -78 -16.5t-73 -49.5t-54.5 -83.5t-21.5 -118.5q0 -44 11.5 -80.5t32 -62t48.5 -39.5t60 -14q72 0 127.5 38t104.5 118h5q-19 -38 -43.5 -71.5t-56.5 -59.5t-71 -41t-87 -15z" />
    <glyph glyph-name="ccaron.ss01" horiz-adv-x="512" 
d="M518 763q-43 -56 -69 -92.5t-42.5 -57.5t-26.5 -29.5t-19 -8.5t-16 8.5t-15 29.5t-20 57.5t-33 92.5h8q24 -37 47 -72.5t38 -68.5q27 33 64.5 68.5t75.5 72.5h8zM252 -11q-42 0 -74 17t-53.5 46t-32.5 66.5t-11 79.5q0 59 22 116t60 101.5t90.5 72t112.5 27.5
q36 0 63 -8.5t45.5 -20.5t29.5 -25.5t16 -23.5l-171 -296h-5q23 42 43.5 79.5t35.5 69.5t24 58t9 45q0 41 -28.5 66t-79.5 25q-38 0 -78 -16.5t-73 -49.5t-54.5 -83.5t-21.5 -118.5q0 -44 11.5 -80.5t32 -62t48.5 -39.5t60 -14q72 0 127.5 38t104.5 118h5
q-19 -38 -43.5 -71.5t-56.5 -59.5t-71 -41t-87 -15z" />
    <glyph glyph-name="ccedilla.ss01" horiz-adv-x="512" 
d="M273 20q72 0 127.5 38t104.5 118h5q-18 -35 -40.5 -67.5t-52 -57.5t-65 -41.5t-78.5 -19.5l-36 -47q35 0 50 -15.5t15 -37.5q0 -15 -7.5 -31.5t-20.5 -30.5t-31 -23t-39 -9q-15 0 -29 4.5t-25 12.5l1 5q11 -5 22.5 -7.5t22.5 -2.5q34 0 55 19t21 41q0 17 -15 31t-49 14
l4 19l44 57h-5q-42 0 -74 17t-53.5 46t-32.5 66.5t-11 79.5q0 59 22 116t60 101.5t90.5 72t112.5 27.5q36 0 63 -8.5t45.5 -20.5t29.5 -25.5t16 -23.5l-171 -296h-5q23 42 43.5 79.5t35.5 69.5t24 58t9 45q0 41 -28.5 66t-79.5 25q-38 0 -78 -16.5t-73 -49.5t-54.5 -83.5
t-21.5 -118.5q0 -44 11.5 -80.5t32 -62t48.5 -39.5t60 -14z" />
    <glyph glyph-name="cdotaccent.ss01" horiz-adv-x="512" 
d="M373 605q-21 0 -32 12t-11 30q0 25 18 43.5t45 18.5q20 0 31.5 -12.5t11.5 -30.5q0 -26 -18.5 -43.5t-44.5 -17.5zM252 -11q-42 0 -74 17t-53.5 46t-32.5 66.5t-11 79.5q0 59 22 116t60 101.5t90.5 72t112.5 27.5q36 0 63 -8.5t45.5 -20.5t29.5 -25.5t16 -23.5l-171 -296
h-5q23 42 43.5 79.5t35.5 69.5t24 58t9 45q0 41 -28.5 66t-79.5 25q-38 0 -78 -16.5t-73 -49.5t-54.5 -83.5t-21.5 -118.5q0 -44 11.5 -80.5t32 -62t48.5 -39.5t60 -14q72 0 127.5 38t104.5 118h5q-19 -38 -43.5 -71.5t-56.5 -59.5t-71 -41t-87 -15z" />
    <glyph glyph-name="e.ss01" horiz-adv-x="507" 
d="M256 -11q-45 0 -78 16.5t-54.5 45t-31.5 66t-10 79.5q0 70 25 128.5t65.5 101t91 66t101.5 23.5q63 0 101 -37.5t38 -111.5q0 -31 -7 -65l-3 -16h-369l-2 -9q-7 -34 -7 -68q0 -45 12.5 -80t34.5 -59t52.5 -36.5t66.5 -12.5q63 0 120 39t105 117h5q-20 -39 -46.5 -73
t-59 -59.5t-70.5 -40t-80 -14.5zM464 312q2 13 3.5 25t1.5 25q0 26 -6.5 48.5t-20.5 39t-36 25.5t-53 9q-36 0 -70 -13t-62.5 -36t-50.5 -54.5t-35 -68.5h329z" />
    <glyph glyph-name="eacute.ss01" horiz-adv-x="507" 
d="M321 575q38 55 66 91.5t48 58t33 30t21 8.5q14 0 14 -11q0 -12 -17 -33t-43 -45.5t-56.5 -50.5t-57.5 -48h-8zM256 -11q-45 0 -78 16.5t-54.5 45t-31.5 66t-10 79.5q0 70 25 128.5t65.5 101t91 66t101.5 23.5q63 0 101 -37.5t38 -111.5q0 -31 -7 -65l-3 -16h-369l-2 -9
q-7 -34 -7 -68q0 -45 12.5 -80t34.5 -59t52.5 -36.5t66.5 -12.5q63 0 120 39t105 117h5q-20 -39 -46.5 -73t-59 -59.5t-70.5 -40t-80 -14.5zM464 312q2 13 3.5 25t1.5 25q0 26 -6.5 48.5t-20.5 39t-36 25.5t-53 9q-36 0 -70 -13t-62.5 -36t-50.5 -54.5t-35 -68.5h329z" />
    <glyph glyph-name="ecaron.ss01" horiz-adv-x="507" 
d="M515 763q-43 -56 -69 -92.5t-42.5 -57.5t-26.5 -29.5t-19 -8.5t-16 8.5t-15 29.5t-20 57.5t-33 92.5h8q24 -37 47 -72.5t38 -68.5q27 33 64.5 68.5t75.5 72.5h8zM256 -11q-45 0 -78 16.5t-54.5 45t-31.5 66t-10 79.5q0 70 25 128.5t65.5 101t91 66t101.5 23.5
q63 0 101 -37.5t38 -111.5q0 -31 -7 -65l-3 -16h-369l-2 -9q-7 -34 -7 -68q0 -45 12.5 -80t34.5 -59t52.5 -36.5t66.5 -12.5q63 0 120 39t105 117h5q-20 -39 -46.5 -73t-59 -59.5t-70.5 -40t-80 -14.5zM464 312q2 13 3.5 25t1.5 25q0 26 -6.5 48.5t-20.5 39t-36 25.5t-53 9
q-36 0 -70 -13t-62.5 -36t-50.5 -54.5t-35 -68.5h329z" />
    <glyph glyph-name="ecircumflex.ss01" horiz-adv-x="507" 
d="M234 575q43 56 69 92.5t42.5 57.5t26.5 29.5t19 8.5t15.5 -8.5t15 -29.5t20.5 -57.5t33 -92.5h-8q-24 37 -47 72.5t-38 68.5q-27 -33 -64.5 -68.5t-75.5 -72.5h-8zM256 -11q-45 0 -78 16.5t-54.5 45t-31.5 66t-10 79.5q0 70 25 128.5t65.5 101t91 66t101.5 23.5
q63 0 101 -37.5t38 -111.5q0 -31 -7 -65l-3 -16h-369l-2 -9q-7 -34 -7 -68q0 -45 12.5 -80t34.5 -59t52.5 -36.5t66.5 -12.5q63 0 120 39t105 117h5q-20 -39 -46.5 -73t-59 -59.5t-70.5 -40t-80 -14.5zM464 312q2 13 3.5 25t1.5 25q0 26 -6.5 48.5t-20.5 39t-36 25.5t-53 9
q-36 0 -70 -13t-62.5 -36t-50.5 -54.5t-35 -68.5h329z" />
    <glyph glyph-name="edieresis.ss01" horiz-adv-x="507" 
d="M304 628q-16 0 -24 8.5t-8 22.5q0 19 13.5 32.5t33.5 13.5q14 0 23 -9t9 -23q0 -19 -13.5 -32t-33.5 -13zM434 628q-16 0 -24 8.5t-8 22.5q0 19 13.5 32.5t33.5 13.5q14 0 23 -9t9 -23q0 -19 -13.5 -32t-33.5 -13zM256 -11q-45 0 -78 16.5t-54.5 45t-31.5 66t-10 79.5
q0 70 25 128.5t65.5 101t91 66t101.5 23.5q63 0 101 -37.5t38 -111.5q0 -31 -7 -65l-3 -16h-369l-2 -9q-7 -34 -7 -68q0 -45 12.5 -80t34.5 -59t52.5 -36.5t66.5 -12.5q63 0 120 39t105 117h5q-20 -39 -46.5 -73t-59 -59.5t-70.5 -40t-80 -14.5zM464 312q2 13 3.5 25t1.5 25
q0 26 -6.5 48.5t-20.5 39t-36 25.5t-53 9q-36 0 -70 -13t-62.5 -36t-50.5 -54.5t-35 -68.5h329z" />
    <glyph glyph-name="edotaccent.ss01" horiz-adv-x="507" 
d="M380 605q-21 0 -32 12t-11 30q0 25 18 43.5t45 18.5q20 0 31.5 -12.5t11.5 -30.5q0 -26 -18.5 -43.5t-44.5 -17.5zM256 -11q-45 0 -78 16.5t-54.5 45t-31.5 66t-10 79.5q0 70 25 128.5t65.5 101t91 66t101.5 23.5q63 0 101 -37.5t38 -111.5q0 -31 -7 -65l-3 -16h-369
l-2 -9q-7 -34 -7 -68q0 -45 12.5 -80t34.5 -59t52.5 -36.5t66.5 -12.5q63 0 120 39t105 117h5q-20 -39 -46.5 -73t-59 -59.5t-70.5 -40t-80 -14.5zM464 312q2 13 3.5 25t1.5 25q0 26 -6.5 48.5t-20.5 39t-36 25.5t-53 9q-36 0 -70 -13t-62.5 -36t-50.5 -54.5t-35 -68.5h329z
" />
    <glyph glyph-name="egrave.ss01" horiz-adv-x="507" 
d="M411 575q-17 20 -36 44.5t-35 47.5t-26 43.5t-10 33.5q0 8 4 13.5t15 5.5q8 0 18 -8.5t22 -30t26 -58t30 -91.5h-8zM256 -11q-45 0 -78 16.5t-54.5 45t-31.5 66t-10 79.5q0 70 25 128.5t65.5 101t91 66t101.5 23.5q63 0 101 -37.5t38 -111.5q0 -31 -7 -65l-3 -16h-369
l-2 -9q-7 -34 -7 -68q0 -45 12.5 -80t34.5 -59t52.5 -36.5t66.5 -12.5q63 0 120 39t105 117h5q-20 -39 -46.5 -73t-59 -59.5t-70.5 -40t-80 -14.5zM464 312q2 13 3.5 25t1.5 25q0 26 -6.5 48.5t-20.5 39t-36 25.5t-53 9q-36 0 -70 -13t-62.5 -36t-50.5 -54.5t-35 -68.5h329z
" />
    <glyph glyph-name="emacron.ss01" horiz-adv-x="507" 
d="M244 680h263l-7 -38h-263zM256 -11q-45 0 -78 16.5t-54.5 45t-31.5 66t-10 79.5q0 70 25 128.5t65.5 101t91 66t101.5 23.5q63 0 101 -37.5t38 -111.5q0 -31 -7 -65l-3 -16h-369l-2 -9q-7 -34 -7 -68q0 -45 12.5 -80t34.5 -59t52.5 -36.5t66.5 -12.5q63 0 120 39t105 117
h5q-20 -39 -46.5 -73t-59 -59.5t-70.5 -40t-80 -14.5zM464 312q2 13 3.5 25t1.5 25q0 26 -6.5 48.5t-20.5 39t-36 25.5t-53 9q-36 0 -70 -13t-62.5 -36t-50.5 -54.5t-35 -68.5h329z" />
    <glyph glyph-name="eogonek.ss01" horiz-adv-x="507" 
d="M319 -2q-9 -7 -23.5 -20.5t-28.5 -31.5t-24 -38.5t-10 -41.5q0 -22 11.5 -34.5t31.5 -12.5q14 0 30 7t33 21h5q-22 -26 -44.5 -40t-45.5 -14t-38 15.5t-15 41.5q0 24 12 46t28.5 41t33.5 34t28 23q-25 -5 -47 -5q-45 0 -78 16.5t-54.5 45t-31.5 66t-10 79.5
q0 70 25 128.5t65.5 101t91 66t101.5 23.5q63 0 101 -37.5t38 -111.5q0 -31 -7 -65l-3 -16h-369l-2 -9q-7 -34 -7 -68q0 -45 12.5 -80t34.5 -59t52.5 -36.5t66.5 -12.5q63 0 120 39t105 117h5q-32 -63 -81 -111.5t-112 -66.5zM353 484q-36 0 -70 -13t-62.5 -36t-50.5 -54.5
t-35 -68.5h329q2 13 3.5 25t1.5 25q0 26 -6.5 48.5t-20.5 39t-36 25.5t-53 9z" />
    <glyph glyph-name="f.ss01" horiz-adv-x="311" 
d="M39 10q35 7 51.5 16.5t23.5 37.5l81 411h-62l5 25h61l23 116q18 94 54.5 147t101.5 53q27 0 47.5 -8.5t35 -20.5t24 -25t14.5 -23l-270 -469h-5q36 63 64.5 113.5t51.5 91.5h-105l-30 -153l-48 -247q-3 -18 -2 -29t7.5 -18t18 -10.5t28.5 -7.5l-2 -10h-170zM354 500
q22 42 38 74t25.5 56t14 42t4.5 33q0 35 -16.5 60t-46.5 25q-42 0 -68 -43t-42 -126l-24 -121h115z" />
    <glyph glyph-name="g.ss01" horiz-adv-x="512" 
d="M207 -206q-36 0 -65.5 9t-52 21t-36.5 25.5t-19 22.5l94 148q-20 22 -31.5 54.5t-11.5 85.5q0 64 17 127.5t48.5 114t75.5 82t99 31.5q26 0 46 -7t36 -18.5t27.5 -26t20.5 -29.5l13 66h10l89 -30l-2 -10q-9 2 -16 3t-13 1q-22 0 -30.5 -15t-16.5 -54l-77 -395
q-11 -57 -31.5 -96.5t-47 -63.5t-59 -35t-67.5 -11zM219 5q23 0 47 11.5t46.5 30.5t44 43.5t40.5 51.5l53 263q-8 13 -18.5 27.5t-24.5 25.5t-32.5 18.5t-41.5 7.5q-33 0 -69 -17t-66 -54t-50 -95.5t-20 -140.5q0 -92 25 -132t66 -40zM201 -180q60 0 105 42t62 126l25 128
q-48 -67 -97.5 -97.5t-93.5 -30.5q-43 0 -71 28q-20 -32 -28.5 -58.5t-8.5 -48.5q0 -23 9 -40t24 -28t34 -16t40 -5z" />
    <glyph glyph-name="gbreve.ss01" horiz-adv-x="512" 
d="M348 575q-24 0 -46.5 9.5t-37.5 32t-20 58t5 88.5h8q-5 -26 -3 -52t13 -47t32.5 -34t56.5 -13q34 0 61 13t46 34t31 47t17 52h8q-10 -53 -29 -88.5t-42.5 -58t-49.5 -32t-50 -9.5zM207 -206q-36 0 -65.5 9t-52 21t-36.5 25.5t-19 22.5l94 148q-20 22 -31.5 54.5
t-11.5 85.5q0 64 17 127.5t48.5 114t75.5 82t99 31.5q26 0 46 -7t36 -18.5t27.5 -26t20.5 -29.5l13 66h10l89 -30l-2 -10q-9 2 -16 3t-13 1q-22 0 -30.5 -15t-16.5 -54l-77 -395q-11 -57 -31.5 -96.5t-47 -63.5t-59 -35t-67.5 -11zM219 5q23 0 47 11.5t46.5 30.5t44 43.5
t40.5 51.5l53 263q-8 13 -18.5 27.5t-24.5 25.5t-32.5 18.5t-41.5 7.5q-33 0 -69 -17t-66 -54t-50 -95.5t-20 -140.5q0 -92 25 -132t66 -40zM201 -180q60 0 105 42t62 126l25 128q-48 -67 -97.5 -97.5t-93.5 -30.5q-43 0 -71 28q-20 -32 -28.5 -58.5t-8.5 -48.5q0 -23 9 -40
t24 -28t34 -16t40 -5z" />
    <glyph glyph-name="gcommaaccent.ss01" horiz-adv-x="512" 
d="M375 586q-19 0 -27.5 15t-8.5 35q0 14 4 29.5t14.5 32.5t28.5 37.5t45 44.5h6q-32 -32 -45.5 -55t-13.5 -40q0 -14 7 -20.5t14.5 -12.5t13.5 -13t3 -21q-3 -16 -15 -24t-26 -8zM207 -206q-36 0 -65.5 9t-52 21t-36.5 25.5t-19 22.5l94 148q-20 22 -31.5 54.5t-11.5 85.5
q0 64 17 127.5t48.5 114t75.5 82t99 31.5q26 0 46 -7t36 -18.5t27.5 -26t20.5 -29.5l13 66h10l89 -30l-2 -10q-9 2 -16 3t-13 1q-22 0 -30.5 -15t-16.5 -54l-77 -395q-11 -57 -31.5 -96.5t-47 -63.5t-59 -35t-67.5 -11zM219 5q23 0 47 11.5t46.5 30.5t44 43.5t40.5 51.5
l53 263q-8 13 -18.5 27.5t-24.5 25.5t-32.5 18.5t-41.5 7.5q-33 0 -69 -17t-66 -54t-50 -95.5t-20 -140.5q0 -92 25 -132t66 -40zM201 -180q60 0 105 42t62 126l25 128q-48 -67 -97.5 -97.5t-93.5 -30.5q-43 0 -71 28q-20 -32 -28.5 -58.5t-8.5 -48.5q0 -23 9 -40t24 -28
t34 -16t40 -5z" />
    <glyph glyph-name="gdotaccent.ss01" horiz-adv-x="512" 
d="M373 605q-21 0 -32 12t-11 30q0 25 18 43.5t45 18.5q20 0 31.5 -12.5t11.5 -30.5q0 -26 -18.5 -43.5t-44.5 -17.5zM207 -206q-36 0 -65.5 9t-52 21t-36.5 25.5t-19 22.5l94 148q-20 22 -31.5 54.5t-11.5 85.5q0 64 17 127.5t48.5 114t75.5 82t99 31.5q26 0 46 -7
t36 -18.5t27.5 -26t20.5 -29.5l13 66h10l89 -30l-2 -10q-9 2 -16 3t-13 1q-22 0 -30.5 -15t-16.5 -54l-77 -395q-11 -57 -31.5 -96.5t-47 -63.5t-59 -35t-67.5 -11zM219 5q23 0 47 11.5t46.5 30.5t44 43.5t40.5 51.5l53 263q-8 13 -18.5 27.5t-24.5 25.5t-32.5 18.5
t-41.5 7.5q-33 0 -69 -17t-66 -54t-50 -95.5t-20 -140.5q0 -92 25 -132t66 -40zM201 -180q60 0 105 42t62 126l25 128q-48 -67 -97.5 -97.5t-93.5 -30.5q-43 0 -71 28q-20 -32 -28.5 -58.5t-8.5 -48.5q0 -23 9 -40t24 -28t34 -16t40 -5z" />
    <glyph glyph-name="j.ss01" horiz-adv-x="200" 
d="M252 676q-15 0 -24 10t-9 24q0 21 14.5 35.5t35.5 14.5q16 0 24.5 -10t8.5 -24q0 -21 -14.5 -35.5t-35.5 -14.5zM-3 -205q-34 0 -54.5 15.5t-33.5 51.5l110 184h5q-38 -66 -54 -106t-16 -69q0 -27 12 -38.5t32 -11.5q38 0 62 35t38 108l84 431q8 39 4 54t-26 15
q-6 0 -13.5 -1t-17.5 -3l2 10l101 30h10l-107 -551q-15 -79 -48.5 -116.5t-89.5 -37.5z" />
    <glyph glyph-name="r.ss01" horiz-adv-x="401" 
d="M179 395q8 39 4 54t-25 15q-7 0 -14.5 -1t-17.5 -3l2 10l101 30h10l-48 -253h1q19 52 40.5 100t45.5 85.5t50 60t53 22.5q15 0 27 -6.5t22 -16t17 -20.5t10 -20l-164 -254h-5q35 57 57 95t35 64t17.5 43t4.5 32q0 26 -10.5 41t-25.5 15q-18 0 -38 -20.5t-40 -52
t-38.5 -70t-33.5 -74.5t-25.5 -65t-13.5 -42l-37 -164h-40z" />
    <glyph glyph-name="racute.ss01" horiz-adv-x="401" 
d="M269 575q38 55 66 91.5t48 58t33 30t21 8.5q14 0 14 -11q0 -12 -17 -33t-43 -45.5t-56.5 -50.5t-57.5 -48h-8zM179 395q8 39 4 54t-25 15q-7 0 -14.5 -1t-17.5 -3l2 10l101 30h10l-48 -253h1q19 52 40.5 100t45.5 85.5t50 60t53 22.5q15 0 27 -6.5t22 -16t17 -20.5
t10 -20l-164 -254h-5q35 57 57 95t35 64t17.5 43t4.5 32q0 26 -10.5 41t-25.5 15q-18 0 -38 -20.5t-40 -52t-38.5 -70t-33.5 -74.5t-25.5 -65t-13.5 -42l-37 -164h-40z" />
    <glyph glyph-name="rcaron.ss01" horiz-adv-x="401" 
d="M433 763q-43 -56 -69 -92.5t-42.5 -57.5t-26.5 -29.5t-19 -8.5t-16 8.5t-15 29.5t-20 57.5t-33 92.5h8q24 -37 47 -72.5t38 -68.5q27 33 64.5 68.5t75.5 72.5h8zM179 395q8 39 4 54t-25 15q-7 0 -14.5 -1t-17.5 -3l2 10l101 30h10l-48 -253h1q19 52 40.5 100t45.5 85.5
t50 60t53 22.5q15 0 27 -6.5t22 -16t17 -20.5t10 -20l-164 -254h-5q35 57 57 95t35 64t17.5 43t4.5 32q0 26 -10.5 41t-25.5 15q-18 0 -38 -20.5t-40 -52t-38.5 -70t-33.5 -74.5t-25.5 -65t-13.5 -42l-37 -164h-40z" />
    <glyph glyph-name="rcommaaccent.ss01" horiz-adv-x="401" 
d="M179 395q8 39 4 54t-25 15q-7 0 -14.5 -1t-17.5 -3l2 10l101 30h10l-48 -253h1q19 52 40.5 100t45.5 85.5t50 60t53 22.5q15 0 27 -6.5t22 -16t17 -20.5t10 -20l-164 -254h-5q35 57 57 95t35 64t17.5 43t4.5 32q0 26 -10.5 41t-25.5 15q-18 0 -38 -20.5t-40 -52
t-38.5 -70t-33.5 -74.5t-25.5 -65t-13.5 -42l-37 -164h-40zM185 -50q19 0 27.5 -15t8.5 -35q0 -14 -4 -29.5t-14.5 -32.5t-28.5 -37.5t-45 -44.5h-6q32 32 45.5 55t13.5 40q0 13 -7 20t-14.5 13t-13.5 13t-3 21q3 16 15 24t26 8z" />
    <glyph glyph-name="s.ss01" horiz-adv-x="410" 
d="M203 -11q-35 0 -60.5 8.5t-44 21t-30 26.5t-18.5 25l104 169h5q-23 -42 -35.5 -75t-12.5 -62q0 -39 23 -62t74 -23q37 0 68.5 10t54.5 27.5t36 40t13 47.5q0 20 -11 35t-31 27t-48 22.5t-62 21.5q-94 31 -94 112q0 40 14.5 69.5t38.5 48.5t55 28t63 9q30 0 52.5 -7
t39.5 -17.5t28 -23t18 -23.5l-87 -139h-5q17 29 26.5 53t9.5 47q0 42 -26.5 61.5t-69.5 19.5q-21 0 -44.5 -7t-44 -20.5t-34 -33.5t-13.5 -46q0 -30 24 -49t81 -37q27 -9 53 -17t46 -20.5t32.5 -32.5t12.5 -51q0 -44 -16.5 -78.5t-44 -57.5t-64 -35t-76.5 -12z" />
    <glyph glyph-name="sacute.ss01" horiz-adv-x="410" 
d="M263 575q38 55 66 91.5t48 58t33 30t21 8.5q14 0 14 -11q0 -12 -17 -33t-43 -45.5t-56.5 -50.5t-57.5 -48h-8zM203 -11q-35 0 -60.5 8.5t-44 21t-30 26.5t-18.5 25l104 169h5q-23 -42 -35.5 -75t-12.5 -62q0 -39 23 -62t74 -23q37 0 68.5 10t54.5 27.5t36 40t13 47.5
q0 20 -11 35t-31 27t-48 22.5t-62 21.5q-94 31 -94 112q0 40 14.5 69.5t38.5 48.5t55 28t63 9q30 0 52.5 -7t39.5 -17.5t28 -23t18 -23.5l-87 -139h-5q17 29 26.5 53t9.5 47q0 42 -26.5 61.5t-69.5 19.5q-21 0 -44.5 -7t-44 -20.5t-34 -33.5t-13.5 -46q0 -30 24 -49t81 -37
q27 -9 53 -17t46 -20.5t32.5 -32.5t12.5 -51q0 -44 -16.5 -78.5t-44 -57.5t-64 -35t-76.5 -12z" />
    <glyph glyph-name="scaron.ss01" horiz-adv-x="410" 
d="M477 763q-43 -56 -69 -92.5t-42.5 -57.5t-26.5 -29.5t-19 -8.5t-16 8.5t-15 29.5t-20 57.5t-33 92.5h8q24 -37 47 -72.5t38 -68.5q27 33 64.5 68.5t75.5 72.5h8zM203 -11q-35 0 -60.5 8.5t-44 21t-30 26.5t-18.5 25l104 169h5q-23 -42 -35.5 -75t-12.5 -62q0 -39 23 -62
t74 -23q37 0 68.5 10t54.5 27.5t36 40t13 47.5q0 20 -11 35t-31 27t-48 22.5t-62 21.5q-94 31 -94 112q0 40 14.5 69.5t38.5 48.5t55 28t63 9q30 0 52.5 -7t39.5 -17.5t28 -23t18 -23.5l-87 -139h-5q17 29 26.5 53t9.5 47q0 42 -26.5 61.5t-69.5 19.5q-21 0 -44.5 -7
t-44 -20.5t-34 -33.5t-13.5 -46q0 -30 24 -49t81 -37q27 -9 53 -17t46 -20.5t32.5 -32.5t12.5 -51q0 -44 -16.5 -78.5t-44 -57.5t-64 -35t-76.5 -12z" />
    <glyph glyph-name="scedilla.ss01" horiz-adv-x="410" 
d="M260 293q27 -9 53 -17t46 -20.5t32.5 -32.5t12.5 -51q0 -42 -14.5 -74.5t-39.5 -55.5t-57.5 -36t-69.5 -16l-36 -47q35 0 50 -15.5t15 -37.5q0 -15 -7.5 -31.5t-20.5 -30.5t-31 -23t-39 -9q-15 0 -29 4.5t-25 12.5l1 5q11 -5 22.5 -7.5t22.5 -2.5q34 0 55 19t21 41
q0 17 -15 31t-49 14l4 19l44 57h-3q-35 0 -60.5 8.5t-44 21t-30 26.5t-18.5 25l104 169h5q-23 -42 -35.5 -75t-12.5 -62q0 -39 23 -62t74 -23q37 0 68.5 10t54.5 27.5t36 40t13 47.5q0 20 -11 35t-31 27t-48 22.5t-62 21.5q-94 31 -94 112q0 40 14.5 69.5t38.5 48.5t55 28
t63 9q30 0 52.5 -7t39.5 -17.5t28 -23t18 -23.5l-87 -139h-5q17 29 26.5 53t9.5 47q0 42 -26.5 61.5t-69.5 19.5q-21 0 -44.5 -7t-44 -20.5t-34 -33.5t-13.5 -46q0 -30 24 -49t81 -37z" />
    <glyph glyph-name="scommaaccent.ss01" horiz-adv-x="410" 
d="M203 -11q-35 0 -60.5 8.5t-44 21t-30 26.5t-18.5 25l104 169h5q-23 -42 -35.5 -75t-12.5 -62q0 -39 23 -62t74 -23q37 0 68.5 10t54.5 27.5t36 40t13 47.5q0 20 -11 35t-31 27t-48 22.5t-62 21.5q-94 31 -94 112q0 40 14.5 69.5t38.5 48.5t55 28t63 9q30 0 52.5 -7
t39.5 -17.5t28 -23t18 -23.5l-87 -139h-5q17 29 26.5 53t9.5 47q0 42 -26.5 61.5t-69.5 19.5q-21 0 -44.5 -7t-44 -20.5t-34 -33.5t-13.5 -46q0 -30 24 -49t81 -37q27 -9 53 -17t46 -20.5t32.5 -32.5t12.5 -51q0 -44 -16.5 -78.5t-44 -57.5t-64 -35t-76.5 -12zM189 -50
q19 0 27.5 -15t8.5 -35q0 -14 -4 -29.5t-14.5 -32.5t-28.5 -37.5t-45 -44.5h-6q32 32 45.5 55t13.5 40q0 13 -7 20t-14.5 13t-13.5 13t-3 21q3 16 15 24t26 8z" />
    <glyph glyph-name="y.ss01" horiz-adv-x="475" 
d="M488 506q22 0 37.5 -13t15.5 -38q0 -23 -13 -61.5t-35 -77.5l-176 -316q-36 -59 -62.5 -98.5t-48.5 -63.5t-40 -34t-37 -10q-24 0 -39.5 8.5t-25.5 20.5t-15.5 25.5t-9.5 23.5l108 184h5q-32 -57 -46.5 -101t-14.5 -74t12.5 -45.5t35.5 -15.5q11 0 23.5 8.5t28.5 28
t37 52t51 80.5l-75 450q-2 11 -13.5 18t-26.5 7q-7 0 -17 -1t-22 -3l2 10l101 30h10l74 -451l155 271q19 33 30.5 68t11.5 58q0 20 -9.5 32t-24.5 12q-16 0 -39.5 -12.5t-46.5 -33.5v10q23 23 49.5 37.5t49.5 14.5z" />
    <glyph glyph-name="yacute.ss01" horiz-adv-x="475" 
d="M508 752q0 -12 -17 -33t-43 -45.5t-56.5 -50.5t-57.5 -48h-8q38 55 66 91.5t48 58t33 30t21 8.5q14 0 14 -11zM488 506q22 0 37.5 -13t15.5 -38q0 -23 -13 -61.5t-35 -77.5l-176 -316q-36 -59 -62.5 -98.5t-48.5 -63.5t-40 -34t-37 -10q-24 0 -39.5 8.5t-25.5 20.5
t-15.5 25.5t-9.5 23.5l108 184h5q-32 -57 -46.5 -101t-14.5 -74t12.5 -45.5t35.5 -15.5q11 0 23.5 8.5t28.5 28t37 52t51 80.5l-75 450q-2 11 -13.5 18t-26.5 7q-7 0 -17 -1t-22 -3l2 10l101 30h10l74 -451l155 271q19 33 30.5 68t11.5 58q0 20 -9.5 32t-24.5 12
q-16 0 -39.5 -12.5t-46.5 -33.5v10q23 23 49.5 37.5t49.5 14.5z" />
    <glyph glyph-name="ycircumflex.ss01" horiz-adv-x="475" 
d="M392 716q-27 -33 -64.5 -68.5t-75.5 -72.5h-8q43 56 69 92.5t42.5 57.5t26.5 29.5t19 8.5t15.5 -8.5t15 -29.5t20.5 -57.5t33 -92.5h-8q-24 37 -47 72.5t-38 68.5zM488 506q22 0 37.5 -13t15.5 -38q0 -23 -13 -61.5t-35 -77.5l-176 -316q-36 -59 -62.5 -98.5t-48.5 -63.5
t-40 -34t-37 -10q-24 0 -39.5 8.5t-25.5 20.5t-15.5 25.5t-9.5 23.5l108 184h5q-32 -57 -46.5 -101t-14.5 -74t12.5 -45.5t35.5 -15.5q11 0 23.5 8.5t28.5 28t37 52t51 80.5l-75 450q-2 11 -13.5 18t-26.5 7q-7 0 -17 -1t-22 -3l2 10l101 30h10l74 -451l155 271
q19 33 30.5 68t11.5 58q0 20 -9.5 32t-24.5 12q-16 0 -39.5 -12.5t-46.5 -33.5v10q23 23 49.5 37.5t49.5 14.5z" />
    <glyph glyph-name="ydieresis.ss01" horiz-adv-x="475" 
d="M314 628q-16 0 -24 8.5t-8 22.5q0 19 13.5 32.5t33.5 13.5q14 0 23 -9t9 -23q0 -19 -13.5 -32t-33.5 -13zM444 628q-16 0 -24 8.5t-8 22.5q0 19 13.5 32.5t33.5 13.5q14 0 23 -9t9 -23q0 -19 -13.5 -32t-33.5 -13zM488 506q22 0 37.5 -13t15.5 -38q0 -23 -13 -61.5
t-35 -77.5l-176 -316q-36 -59 -62.5 -98.5t-48.5 -63.5t-40 -34t-37 -10q-24 0 -39.5 8.5t-25.5 20.5t-15.5 25.5t-9.5 23.5l108 184h5q-32 -57 -46.5 -101t-14.5 -74t12.5 -45.5t35.5 -15.5q11 0 23.5 8.5t28.5 28t37 52t51 80.5l-75 450q-2 11 -13.5 18t-26.5 7
q-7 0 -17 -1t-22 -3l2 10l101 30h10l74 -451l155 271q19 33 30.5 68t11.5 58q0 20 -9.5 32t-24.5 12q-16 0 -39.5 -12.5t-46.5 -33.5v10q23 23 49.5 37.5t49.5 14.5z" />
    <glyph glyph-name="ygrave.ss01" horiz-adv-x="475" 
d="M386 575q-17 20 -36 44.5t-35 47.5t-26 43.5t-10 33.5q0 8 4 13.5t15 5.5q8 0 18 -8.5t22 -30t26 -58t30 -91.5h-8zM488 506q22 0 37.5 -13t15.5 -38q0 -23 -13 -61.5t-35 -77.5l-176 -316q-36 -59 -62.5 -98.5t-48.5 -63.5t-40 -34t-37 -10q-24 0 -39.5 8.5t-25.5 20.5
t-15.5 25.5t-9.5 23.5l108 184h5q-32 -57 -46.5 -101t-14.5 -74t12.5 -45.5t35.5 -15.5q11 0 23.5 8.5t28.5 28t37 52t51 80.5l-75 450q-2 11 -13.5 18t-26.5 7q-7 0 -17 -1t-22 -3l2 10l101 30h10l74 -451l155 271q19 33 30.5 68t11.5 58q0 20 -9.5 32t-24.5 12
q-16 0 -39.5 -12.5t-46.5 -33.5v10q23 23 49.5 37.5t49.5 14.5z" />
    <glyph glyph-name="e.ss02" horiz-adv-x="505" 
d="M273 20q72 0 127.5 38t104.5 118h5q-19 -38 -44.5 -71.5t-58 -59.5t-72 -41t-85.5 -15q-43 0 -75 17t-53 45.5t-31 65.5t-10 78q0 63 25 124l-77 34l1 5q22 -9 41.5 -16.5t37.5 -14.5q17 39 43 73.5t60 60t74.5 40t85.5 14.5q31 0 59 -10.5t47 -30.5t27.5 -48.5
t1.5 -65.5q-6 -33 -20 -61t-30.5 -49.5t-33 -36.5t-26.5 -22l-264 116q-12 -41 -12 -89q0 -47 12 -83.5t32.5 -62t48 -39t59.5 -13.5zM359 484q-79 0 -138.5 -45t-84.5 -123q46 -18 79 -29.5t57.5 -19t42.5 -10.5t34 -3q32 0 56 8.5t40 22t25.5 31t12.5 36.5q7 35 -2.5 60
t-29 41t-44.5 23.5t-48 7.5z" />
    <glyph glyph-name="eacute.ss02" horiz-adv-x="505" 
d="M503 752q0 -12 -17 -33t-43 -45.5t-56.5 -50.5t-57.5 -48h-8q38 55 66 91.5t48 58t33 30t21 8.5q14 0 14 -11zM273 20q72 0 127.5 38t104.5 118h5q-19 -38 -44.5 -71.5t-58 -59.5t-72 -41t-85.5 -15q-43 0 -75 17t-53 45.5t-31 65.5t-10 78q0 63 25 124l-77 34l1 5
q22 -9 41.5 -16.5t37.5 -14.5q17 39 43 73.5t60 60t74.5 40t85.5 14.5q31 0 59 -10.5t47 -30.5t27.5 -48.5t1.5 -65.5q-6 -33 -20 -61t-30.5 -49.5t-33 -36.5t-26.5 -22l-264 116q-12 -41 -12 -89q0 -47 12 -83.5t32.5 -62t48 -39t59.5 -13.5zM359 484q-79 0 -138.5 -45
t-84.5 -123q46 -18 79 -29.5t57.5 -19t42.5 -10.5t34 -3q32 0 56 8.5t40 22t25.5 31t12.5 36.5q7 35 -2.5 60t-29 41t-44.5 23.5t-48 7.5z" />
    <glyph glyph-name="ecaron.ss02" horiz-adv-x="505" 
d="M358 575q-9 0 -16 8.5t-15 29.5t-20 57.5t-33 92.5h8q24 -37 47 -72.5t38 -68.5q27 33 64.5 68.5t75.5 72.5h8q-43 -56 -69 -92.5t-42.5 -57.5t-26.5 -29.5t-19 -8.5zM133 307q-12 -41 -12 -89q0 -47 12 -83.5t32.5 -62t48 -39t59.5 -13.5q72 0 127.5 38t104.5 118h5
q-19 -38 -44.5 -71.5t-58 -59.5t-72 -41t-85.5 -15q-43 0 -75 17t-53 45.5t-31 65.5t-10 78q0 63 25 124l-77 34l1 5q22 -9 41.5 -16.5t37.5 -14.5q17 39 43 73.5t60 60t74.5 40t85.5 14.5q31 0 59 -10.5t47 -30.5t27.5 -48.5t1.5 -65.5q-6 -33 -20 -61t-30.5 -49.5
t-33 -36.5t-26.5 -22zM359 484q-79 0 -138.5 -45t-84.5 -123q46 -18 79 -29.5t57.5 -19t42.5 -10.5t34 -3q32 0 56 8.5t40 22t25.5 31t12.5 36.5q7 35 -2.5 60t-29 41t-44.5 23.5t-48 7.5z" />
    <glyph glyph-name="ecircumflex.ss02" horiz-adv-x="505" 
d="M382 716q-27 -33 -64.5 -68.5t-75.5 -72.5h-8q43 56 69 92.5t42.5 57.5t26.5 29.5t19 8.5t15.5 -8.5t15 -29.5t20.5 -57.5t33 -92.5h-8q-24 37 -47 72.5t-38 68.5zM273 20q72 0 127.5 38t104.5 118h5q-19 -38 -44.5 -71.5t-58 -59.5t-72 -41t-85.5 -15q-43 0 -75 17
t-53 45.5t-31 65.5t-10 78q0 63 25 124l-77 34l1 5q22 -9 41.5 -16.5t37.5 -14.5q17 39 43 73.5t60 60t74.5 40t85.5 14.5q31 0 59 -10.5t47 -30.5t27.5 -48.5t1.5 -65.5q-6 -33 -20 -61t-30.5 -49.5t-33 -36.5t-26.5 -22l-264 116q-12 -41 -12 -89q0 -47 12 -83.5t32.5 -62
t48 -39t59.5 -13.5zM359 484q-79 0 -138.5 -45t-84.5 -123q46 -18 79 -29.5t57.5 -19t42.5 -10.5t34 -3q32 0 56 8.5t40 22t25.5 31t12.5 36.5q7 35 -2.5 60t-29 41t-44.5 23.5t-48 7.5z" />
    <glyph glyph-name="edieresis.ss02" horiz-adv-x="505" 
d="M304 628q-16 0 -24 8.5t-8 22.5q0 19 13.5 32.5t33.5 13.5q14 0 23 -9t9 -23q0 -19 -13.5 -32t-33.5 -13zM434 628q-16 0 -24 8.5t-8 22.5q0 19 13.5 32.5t33.5 13.5q14 0 23 -9t9 -23q0 -19 -13.5 -32t-33.5 -13zM273 20q72 0 127.5 38t104.5 118h5q-19 -38 -44.5 -71.5
t-58 -59.5t-72 -41t-85.5 -15q-43 0 -75 17t-53 45.5t-31 65.5t-10 78q0 63 25 124l-77 34l1 5q22 -9 41.5 -16.5t37.5 -14.5q17 39 43 73.5t60 60t74.5 40t85.5 14.5q31 0 59 -10.5t47 -30.5t27.5 -48.5t1.5 -65.5q-6 -33 -20 -61t-30.5 -49.5t-33 -36.5t-26.5 -22
l-264 116q-12 -41 -12 -89q0 -47 12 -83.5t32.5 -62t48 -39t59.5 -13.5zM359 484q-79 0 -138.5 -45t-84.5 -123q46 -18 79 -29.5t57.5 -19t42.5 -10.5t34 -3q32 0 56 8.5t40 22t25.5 31t12.5 36.5q7 35 -2.5 60t-29 41t-44.5 23.5t-48 7.5z" />
    <glyph glyph-name="edotaccent.ss02" horiz-adv-x="505" 
d="M380 605q-21 0 -32 12t-11 30q0 25 18 43.5t45 18.5q20 0 31.5 -12.5t11.5 -30.5q0 -26 -18.5 -43.5t-44.5 -17.5zM273 20q72 0 127.5 38t104.5 118h5q-19 -38 -44.5 -71.5t-58 -59.5t-72 -41t-85.5 -15q-43 0 -75 17t-53 45.5t-31 65.5t-10 78q0 63 25 124l-77 34l1 5
q22 -9 41.5 -16.5t37.5 -14.5q17 39 43 73.5t60 60t74.5 40t85.5 14.5q31 0 59 -10.5t47 -30.5t27.5 -48.5t1.5 -65.5q-6 -33 -20 -61t-30.5 -49.5t-33 -36.5t-26.5 -22l-264 116q-12 -41 -12 -89q0 -47 12 -83.5t32.5 -62t48 -39t59.5 -13.5zM359 484q-79 0 -138.5 -45
t-84.5 -123q46 -18 79 -29.5t57.5 -19t42.5 -10.5t34 -3q32 0 56 8.5t40 22t25.5 31t12.5 36.5q7 35 -2.5 60t-29 41t-44.5 23.5t-48 7.5z" />
    <glyph glyph-name="egrave.ss02" horiz-adv-x="505" 
d="M411 575q-17 20 -36 44.5t-35 47.5t-26 43.5t-10 33.5q0 8 4 13.5t15 5.5q8 0 18 -8.5t22 -30t26 -58t30 -91.5h-8zM273 20q72 0 127.5 38t104.5 118h5q-19 -38 -44.5 -71.5t-58 -59.5t-72 -41t-85.5 -15q-43 0 -75 17t-53 45.5t-31 65.5t-10 78q0 63 25 124l-77 34l1 5
q22 -9 41.5 -16.5t37.5 -14.5q17 39 43 73.5t60 60t74.5 40t85.5 14.5q31 0 59 -10.5t47 -30.5t27.5 -48.5t1.5 -65.5q-6 -33 -20 -61t-30.5 -49.5t-33 -36.5t-26.5 -22l-264 116q-12 -41 -12 -89q0 -47 12 -83.5t32.5 -62t48 -39t59.5 -13.5zM359 484q-79 0 -138.5 -45
t-84.5 -123q46 -18 79 -29.5t57.5 -19t42.5 -10.5t34 -3q32 0 56 8.5t40 22t25.5 31t12.5 36.5q7 35 -2.5 60t-29 41t-44.5 23.5t-48 7.5z" />
    <glyph glyph-name="emacron.ss02" horiz-adv-x="505" 
d="M500 642h-263l7 38h263zM273 20q72 0 127.5 38t104.5 118h5q-19 -38 -44.5 -71.5t-58 -59.5t-72 -41t-85.5 -15q-43 0 -75 17t-53 45.5t-31 65.5t-10 78q0 63 25 124l-77 34l1 5q22 -9 41.5 -16.5t37.5 -14.5q17 39 43 73.5t60 60t74.5 40t85.5 14.5q31 0 59 -10.5
t47 -30.5t27.5 -48.5t1.5 -65.5q-6 -33 -20 -61t-30.5 -49.5t-33 -36.5t-26.5 -22l-264 116q-12 -41 -12 -89q0 -47 12 -83.5t32.5 -62t48 -39t59.5 -13.5zM359 484q-79 0 -138.5 -45t-84.5 -123q46 -18 79 -29.5t57.5 -19t42.5 -10.5t34 -3q32 0 56 8.5t40 22t25.5 31
t12.5 36.5q7 35 -2.5 60t-29 41t-44.5 23.5t-48 7.5z" />
    <glyph glyph-name="eogonek.ss02" horiz-adv-x="505" 
d="M273 20q72 0 127.5 38t104.5 118h5q-30 -60 -77 -108.5t-112 -68.5q-8 -6 -23 -20t-29.5 -32t-25 -39t-10.5 -42q0 -22 11.5 -34.5t31.5 -12.5q14 0 30 7t33 21h5q-22 -26 -44.5 -40t-45.5 -14t-38 15.5t-15 41.5q0 24 12.5 46.5t29 42t34 34t27.5 22.5q-26 -6 -54 -6
q-43 0 -75 17t-53 45.5t-31 65.5t-10 78q0 63 25 124l-77 34l1 5q22 -9 41.5 -16.5t37.5 -14.5q17 39 43 73.5t60 60t74.5 40t85.5 14.5q31 0 59 -10.5t47 -30.5t27.5 -48.5t1.5 -65.5q-6 -33 -20 -61t-30.5 -49.5t-33 -36.5t-26.5 -22l-264 116q-12 -41 -12 -89
q0 -47 12 -83.5t32.5 -62t48 -39t59.5 -13.5zM359 484q-79 0 -138.5 -45t-84.5 -123q46 -18 79 -29.5t57.5 -19t42.5 -10.5t34 -3q32 0 56 8.5t40 22t25.5 31t12.5 36.5q7 35 -2.5 60t-29 41t-44.5 23.5t-48 7.5z" />
    <glyph glyph-name="g.ss02" horiz-adv-x="512" 
d="M206 -206q-39 0 -69 8.5t-51 20.5t-34 25.5t-18 23.5l90 152q-19 23 -29 55t-10 82q0 63 17 126.5t48 114t75.5 82t99.5 31.5q26 0 46 -7t36 -18.5t27.5 -26t20.5 -29.5l13 66h10l89 -30l-2 -10q-9 2 -16 3t-13 1q-22 0 -30.5 -15t-16.5 -54l-83 -426q-17 -88 -66 -131.5
t-134 -43.5zM220 5q23 0 47 12t47.5 31.5t44.5 44t38 49.5l53 263q-8 13 -18.5 27.5t-24.5 25.5t-32.5 18.5t-41.5 7.5q-33 0 -69 -17t-66 -54.5t-50 -96t-20 -140.5q0 -73 17 -116l155 264h3q-55 -97 -92.5 -162t-61.5 -110q11 -24 30.5 -35.5t40.5 -11.5zM209 -180
q65 0 104.5 43.5t52.5 110.5l27 142q-48 -67 -97.5 -97.5t-93.5 -30.5q-41 0 -71 28q-19 -38 -26.5 -61.5t-7.5 -41.5q0 -38 29.5 -65.5t82.5 -27.5z" />
    <glyph glyph-name="gbreve.ss02" horiz-adv-x="512" 
d="M368 575q-24 0 -46.5 9.5t-37.5 32t-20 58t5 88.5h8q-5 -26 -3 -52t13 -47t32.5 -34t56.5 -13q34 0 61 13t46 34t31 47t17 52h8q-10 -53 -29 -88.5t-42.5 -58t-49.5 -32t-50 -9.5zM206 -206q-39 0 -69 8.5t-51 20.5t-34 25.5t-18 23.5l90 152q-19 23 -29 55t-10 82
q0 63 17 126.5t48 114t75.5 82t99.5 31.5q26 0 46 -7t36 -18.5t27.5 -26t20.5 -29.5l13 66h10l89 -30l-2 -10q-9 2 -16 3t-13 1q-22 0 -30.5 -15t-16.5 -54l-83 -426q-17 -88 -66 -131.5t-134 -43.5zM220 5q23 0 47 12t47.5 31.5t44.5 44t38 49.5l53 263q-8 13 -18.5 27.5
t-24.5 25.5t-32.5 18.5t-41.5 7.5q-33 0 -69 -17t-66 -54.5t-50 -96t-20 -140.5q0 -73 17 -116l155 264h3q-55 -97 -92.5 -162t-61.5 -110q11 -24 30.5 -35.5t40.5 -11.5zM209 -180q65 0 104.5 43.5t52.5 110.5l27 142q-48 -67 -97.5 -97.5t-93.5 -30.5q-41 0 -71 28
q-19 -38 -26.5 -61.5t-7.5 -41.5q0 -38 29.5 -65.5t82.5 -27.5z" />
    <glyph glyph-name="gcommaaccent.ss02" horiz-adv-x="512" 
d="M375 586q-19 0 -27.5 15t-8.5 35q0 14 4 29.5t14.5 32.5t28.5 37.5t45 44.5h6q-32 -32 -45.5 -55t-13.5 -40q0 -14 7 -20.5t14.5 -12.5t13.5 -13t3 -21q-3 -16 -15 -24t-26 -8zM206 -206q-39 0 -69 8.5t-51 20.5t-34 25.5t-18 23.5l90 152q-19 23 -29 55t-10 82
q0 63 17 126.5t48 114t75.5 82t99.5 31.5q26 0 46 -7t36 -18.5t27.5 -26t20.5 -29.5l13 66h10l89 -30l-2 -10q-9 2 -16 3t-13 1q-22 0 -30.5 -15t-16.5 -54l-83 -426q-17 -88 -66 -131.5t-134 -43.5zM220 5q23 0 47 12t47.5 31.5t44.5 44t38 49.5l53 263q-8 13 -18.5 27.5
t-24.5 25.5t-32.5 18.5t-41.5 7.5q-33 0 -69 -17t-66 -54.5t-50 -96t-20 -140.5q0 -73 17 -116l155 264h3q-55 -97 -92.5 -162t-61.5 -110q11 -24 30.5 -35.5t40.5 -11.5zM209 -180q65 0 104.5 43.5t52.5 110.5l27 142q-48 -67 -97.5 -97.5t-93.5 -30.5q-41 0 -71 28
q-19 -38 -26.5 -61.5t-7.5 -41.5q0 -38 29.5 -65.5t82.5 -27.5z" />
    <glyph glyph-name="gdotaccent.ss02" horiz-adv-x="512" 
d="M373 605q-21 0 -32 12t-11 30q0 25 18 43.5t45 18.5q20 0 31.5 -12.5t11.5 -30.5q0 -26 -18.5 -43.5t-44.5 -17.5zM206 -206q-39 0 -69 8.5t-51 20.5t-34 25.5t-18 23.5l90 152q-19 23 -29 55t-10 82q0 63 17 126.5t48 114t75.5 82t99.5 31.5q26 0 46 -7t36 -18.5
t27.5 -26t20.5 -29.5l13 66h10l89 -30l-2 -10q-9 2 -16 3t-13 1q-22 0 -30.5 -15t-16.5 -54l-83 -426q-17 -88 -66 -131.5t-134 -43.5zM220 5q23 0 47 12t47.5 31.5t44.5 44t38 49.5l53 263q-8 13 -18.5 27.5t-24.5 25.5t-32.5 18.5t-41.5 7.5q-33 0 -69 -17t-66 -54.5
t-50 -96t-20 -140.5q0 -73 17 -116l155 264h3q-55 -97 -92.5 -162t-61.5 -110q11 -24 30.5 -35.5t40.5 -11.5zM209 -180q65 0 104.5 43.5t52.5 110.5l27 142q-48 -67 -97.5 -97.5t-93.5 -30.5q-41 0 -71 28q-19 -38 -26.5 -61.5t-7.5 -41.5q0 -38 29.5 -65.5t82.5 -27.5z
" />
    <glyph glyph-name="y.ss02" horiz-adv-x="475" 
d="M488 506q22 0 37.5 -13t15.5 -38q0 -23 -13 -61.5t-35 -77.5l-176 -316q-26 -42 -46.5 -74.5t-37.5 -55.5q-36 -49 -63 -64q-21 -12 -40 -12h-5q-24 0 -39.5 8.5t-26 20.5t-17 25.5t-11.5 23.5l208 358l-35 209q-2 11 -13.5 18t-26.5 7q-7 0 -17 -1t-22 -3l2 10l101 30
h10l35 -212l57 98h5q-17 -29 -32 -55.5t-29 -50.5l38 -231l155 271q19 33 30.5 68t11.5 58q0 20 -9.5 32t-24.5 12q-16 0 -39.5 -12.5t-46.5 -33.5v10q23 23 49.5 37.5t49.5 14.5zM91 -108q0 -29 11 -50.5t38 -21.5q18 0 39 21t56 76l6 10t7 10q8 11 15.5 24t16.5 27
l-39 234q-47 -83 -76.5 -136t-46 -88.5t-22 -59t-5.5 -46.5z" />
    <glyph glyph-name="yacute.ss02" horiz-adv-x="475" 
d="M518 752q0 -12 -17 -33t-43 -45.5t-56.5 -50.5t-57.5 -48h-8q38 55 66 91.5t48 58t33 30t21 8.5q14 0 14 -11zM488 506q22 0 37.5 -13t15.5 -38q0 -23 -13 -61.5t-35 -77.5l-176 -316q-26 -42 -46.5 -74.5t-37.5 -55.5q-36 -49 -63 -64q-21 -12 -40 -12h-5
q-24 0 -39.5 8.5t-26 20.5t-17 25.5t-11.5 23.5l208 358l-35 209q-2 11 -13.5 18t-26.5 7q-7 0 -17 -1t-22 -3l2 10l101 30h10l35 -212l57 98h5q-17 -29 -32 -55.5t-29 -50.5l38 -231l155 271q19 33 30.5 68t11.5 58q0 20 -9.5 32t-24.5 12q-16 0 -39.5 -12.5t-46.5 -33.5
v10q23 23 49.5 37.5t49.5 14.5zM91 -108q0 -29 11 -50.5t38 -21.5q18 0 39 21t56 76l6 10t7 10q8 11 15.5 24t16.5 27l-39 234q-47 -83 -76.5 -136t-46 -88.5t-22 -59t-5.5 -46.5z" />
    <glyph glyph-name="ycircumflex.ss02" horiz-adv-x="475" 
d="M392 716q-27 -33 -64.5 -68.5t-75.5 -72.5h-8q43 56 69 92.5t42.5 57.5t26.5 29.5t19 8.5t15.5 -8.5t15 -29.5t20.5 -57.5t33 -92.5h-8q-24 37 -47 72.5t-38 68.5zM488 506q22 0 37.5 -13t15.5 -38q0 -23 -13 -61.5t-35 -77.5l-176 -316q-26 -42 -46.5 -74.5t-37.5 -55.5
q-36 -49 -63 -64q-21 -12 -40 -12h-5q-24 0 -39.5 8.5t-26 20.5t-17 25.5t-11.5 23.5l208 358l-35 209q-2 11 -13.5 18t-26.5 7q-7 0 -17 -1t-22 -3l2 10l101 30h10l35 -212l57 98h5q-17 -29 -32 -55.5t-29 -50.5l38 -231l155 271q19 33 30.5 68t11.5 58q0 20 -9.5 32
t-24.5 12q-16 0 -39.5 -12.5t-46.5 -33.5v10q23 23 49.5 37.5t49.5 14.5zM91 -108q0 -29 11 -50.5t38 -21.5q18 0 39 21t56 76l6 10t7 10q8 11 15.5 24t16.5 27l-39 234q-47 -83 -76.5 -136t-46 -88.5t-22 -59t-5.5 -46.5z" />
    <glyph glyph-name="ydieresis.ss02" horiz-adv-x="475" 
d="M294 628q-16 0 -24 8.5t-8 22.5q0 19 13.5 32.5t33.5 13.5q14 0 23 -9t9 -23q0 -19 -13.5 -32t-33.5 -13zM424 628q-16 0 -24 8.5t-8 22.5q0 19 13.5 32.5t33.5 13.5q14 0 23 -9t9 -23q0 -19 -13.5 -32t-33.5 -13zM488 506q22 0 37.5 -13t15.5 -38q0 -23 -13 -61.5
t-35 -77.5l-176 -316q-26 -42 -46.5 -74.5t-37.5 -55.5q-36 -49 -63 -64q-21 -12 -40 -12h-5q-24 0 -39.5 8.5t-26 20.5t-17 25.5t-11.5 23.5l208 358l-35 209q-2 11 -13.5 18t-26.5 7q-7 0 -17 -1t-22 -3l2 10l101 30h10l35 -212l57 98h5q-17 -29 -32 -55.5t-29 -50.5
l38 -231l155 271q19 33 30.5 68t11.5 58q0 20 -9.5 32t-24.5 12q-16 0 -39.5 -12.5t-46.5 -33.5v10q23 23 49.5 37.5t49.5 14.5zM91 -108q0 -29 11 -50.5t38 -21.5q18 0 39 21t56 76l6 10t7 10q8 11 15.5 24t16.5 27l-39 234q-47 -83 -76.5 -136t-46 -88.5t-22 -59
t-5.5 -46.5z" />
    <glyph glyph-name="ygrave.ss02" horiz-adv-x="475" 
d="M386 575q-17 20 -36 44.5t-35 47.5t-26 43.5t-10 33.5q0 8 4 13.5t15 5.5q8 0 18 -8.5t22 -30t26 -58t30 -91.5h-8zM488 506q22 0 37.5 -13t15.5 -38q0 -23 -13 -61.5t-35 -77.5l-176 -316q-26 -42 -46.5 -74.5t-37.5 -55.5q-36 -49 -63 -64q-21 -12 -40 -12h-5
q-24 0 -39.5 8.5t-26 20.5t-17 25.5t-11.5 23.5l208 358l-35 209q-2 11 -13.5 18t-26.5 7q-7 0 -17 -1t-22 -3l2 10l101 30h10l35 -212l57 98h5q-17 -29 -32 -55.5t-29 -50.5l38 -231l155 271q19 33 30.5 68t11.5 58q0 20 -9.5 32t-24.5 12q-16 0 -39.5 -12.5t-46.5 -33.5
v10q23 23 49.5 37.5t49.5 14.5zM91 -108q0 -29 11 -50.5t38 -21.5q18 0 39 21t56 76l6 10t7 10q8 11 15.5 24t16.5 27l-39 234q-47 -83 -76.5 -136t-46 -88.5t-22 -59t-5.5 -46.5z" />
    <glyph glyph-name="fi" unicode="&#xfb01;" horiz-adv-x="522" 
d="M39 10q19 4 32.5 8t22.5 10.5t14.5 17.5t8.5 29l78 400h-62l5 25h61l25 129q7 39 19.5 73t31.5 59.5t45.5 40t61.5 14.5q31 0 44.5 -11t23.5 -25.5t25.5 -29.5t51.5 -23q45 -10 45 -39q0 -22 -13.5 -34.5t-33.5 -12.5q-16 0 -27 11t-20 27.5t-17.5 36t-19.5 36t-26 27.5
t-37 11q-45 0 -71.5 -40t-40.5 -113l-27 -137h281l-83 -420q-5 -22 1 -32.5t26 -10.5q5 0 15.5 0.5t15.5 2.5l-2 -10l-103 -30h-8l79 405q8 38 -3.5 54t-48.5 16h-174l-78 -400q-7 -35 5.5 -46.5t46.5 -18.5l-2 -10h-170z" />
    <glyph glyph-name="fl" unicode="&#xfb02;" horiz-adv-x="533" 
d="M39 10q19 4 32.5 8t22.5 10.5t14.5 17.5t8.5 29l78 400h-62l5 25h61l26 132q8 39 20.5 73t31.5 58.5t43.5 38.5t56.5 14q27 0 47 -5.5t37.5 -12t33.5 -12t35 -5.5q14 0 28.5 4t30.5 15h10l-141 -720q-5 -22 1 -32.5t26 -10.5q5 0 15.5 0.5t15.5 2.5l-2 -10l-103 -30h-8
l128 660q1 5 1.5 9.5t0.5 9.5q0 29 -16.5 50t-41 34.5t-52 20t-48.5 6.5q-44 0 -69.5 -42.5t-39.5 -110.5l-27 -137h132l-5 -25h-131l-78 -400q-2 -6 -2 -11.5v-10.5q0 -21 13 -29t41 -14l-2 -10h-170z" />
    <glyph glyph-name="ordfeminine" unicode="&#xaa;" horiz-adv-x="385" 
d="M175 350q-38 0 -63 34.5t-25 98.5q0 58 22.5 108.5t62 88t94 59t117.5 21.5h34l-65 -334q-6 -32 0 -37t33 3l-3 -8l-69 -24h-8l25 122q-36 -58 -75 -95t-80 -37zM191 375q37 0 74 36.5t70 93.5l46 243q-56 0 -104 -20t-83.5 -55t-56 -82t-20.5 -100q0 -55 21 -85.5
t53 -30.5z" />
    <glyph glyph-name="ordmasculine" unicode="&#xba;" horiz-adv-x="423" 
d="M212 348q-40 0 -68.5 16t-46.5 41t-26 56t-8 61q0 37 15 80.5t44.5 80.5t73 61.5t100.5 24.5q39 0 66.5 -15.5t44.5 -39.5t24.5 -54t7.5 -59q0 -37 -15.5 -81t-44.5 -82.5t-71 -64t-96 -25.5zM227 373q33 0 64 18t55 48t38 69.5t14 82.5q0 31 -7.5 58.5t-21.5 48.5
t-35.5 33.5t-49.5 12.5q-38 0 -71.5 -16.5t-58.5 -45t-39 -66.5t-14 -81q0 -32 8.5 -61t24.5 -51.5t39.5 -36t53.5 -13.5z" />
    <glyph glyph-name="uni0394" unicode="&#x394;" horiz-adv-x="530" 
d="M319 643h30l127 -643h-520zM439 35l-114 557l-316 -557h430z" />
    <glyph glyph-name="uni03A9" unicode="&#x3a9;" horiz-adv-x="699" 
d="M66 10q60 3 103.5 9.5t64.5 31.5q-32 16 -56.5 41t-42 56.5t-26.5 68t-9 74.5q0 79 32.5 145.5t85.5 114.5t120.5 75t137.5 27q54 0 101 -18.5t81 -52.5t53.5 -82t19.5 -106q0 -56 -19 -108t-52.5 -97t-78.5 -80.5t-97 -57.5q11 -25 52.5 -31.5t99.5 -9.5l-2 -10h-140
l-42 58q50 16 93.5 48.5t75.5 77.5t50.5 98.5t18.5 111.5q0 52 -16 95.5t-44.5 75t-68.5 49t-89 17.5q-65 0 -125 -26.5t-106 -73.5t-73.5 -110.5t-27.5 -138.5q0 -79 33.5 -140.5t94.5 -83.5l-64 -58h-140z" />
    <glyph glyph-name="uni03BC" unicode="&#x3bc;" horiz-adv-x="472" 
d="M-47 -180q19 4 32 6.5t21.5 7.5t14 14.5t8.5 26.5l101 520q2 12 3.5 22t1.5 18q0 15 -6 22t-21 7q-7 0 -14.5 -1t-17.5 -3l2 10l101 30h10l-64 -332q-7 -34 -7 -62q0 -45 19 -65.5t54 -20.5q27 0 52 11t46.5 29t39 40t30.5 45l49 250q5 28 5 41q0 28 -26 28
q-7 0 -14.5 -1t-17.5 -3l2 10l101 30h10l-77 -395q-5 -28 -5 -41q0 -28 26 -28q7 0 14.5 1t17.5 3l-2 -10l-101 -30h-10l20 105q-12 -18 -29 -38.5t-39 -37.5t-49.5 -28.5t-59.5 -11.5q-21 0 -40 8.5t-34 38.5l-31 -161q-2 -6 -2 -11v-9q0 -20 14 -24.5t42 -10.5l-2 -10
h-170z" />
    <glyph glyph-name="pi" unicode="&#x3c0;" horiz-adv-x="511" 
d="M38 10q19 4 32 6.5t21.5 7.5t14 14.5t8.5 26.5l84 435h311l-85 -435q-2 -6 -2 -11v-9q0 -20 14 -24.5t42 -10.5l-2 -10h-170l2 10q19 4 32 6.5t21.5 7.5t14 14.5t8.5 26.5l78 400h-230l-78 -400q-2 -6 -2 -11v-9q0 -20 14 -24.5t42 -10.5l-2 -10h-170z" />
    <glyph glyph-name="zero" unicode="0" horiz-adv-x="619" 
d="M295 -11q-50 0 -85.5 23t-58 61.5t-33 88.5t-10.5 104q0 60 12.5 120t35 116t54.5 104.5t71.5 84.5t85.5 56.5t96 20.5q51 0 87.5 -25.5t59.5 -67t34 -94t11 -107.5q0 -89 -28 -175.5t-76.5 -155.5t-114 -111.5t-141.5 -42.5zM322 21q46 0 94.5 28.5t89 83t66.5 134.5
t26 184q0 61 -11.5 113t-32.5 90.5t-50 60t-65 21.5q-45 0 -94.5 -31t-91 -88.5t-68.5 -139t-27 -181.5q0 -60 12 -110.5t33.5 -87t52 -57t66.5 -20.5z" />
    <glyph glyph-name="one" unicode="1" horiz-adv-x="373" 
d="M134 10q27 4 42 6.5t23.5 7.5t12.5 14t8 27l98 507q5 27 5 41.5t-9 14.5q-12 0 -28.5 -19t-37.5 -42.5t-46.5 -42.5t-54.5 -19h-3l1 5h3q16 0 36.5 16.5t42.5 42t43 56t38 58t27.5 49t12.5 28.5h127l-2 -10q-26 -4 -41.5 -6.5t-24 -7.5t-13 -14t-7.5 -27l-122 -630
q-3 -18 -3 -27t7 -14t21.5 -7.5t38.5 -6.5l-2 -10h-195z" />
    <glyph glyph-name="two" unicode="2" horiz-adv-x="582" 
d="M48 10q19 3 62.5 26t97 61t110.5 90t104 114t77.5 132.5t30.5 145.5q0 74 -33 115.5t-89 41.5q-45 0 -84.5 -24t-68.5 -67t-46 -101t-17 -127v-31h-5l-17 202q18 32 41.5 64.5t55 58t71 41.5t87.5 16q26 0 55 -6.5t53 -25t39.5 -51t15.5 -84.5q0 -71 -22.5 -133.5
t-58 -117t-78.5 -99.5t-84 -80t-75.5 -59t-52.5 -36q-28 -19 -36.5 -27t-8.5 -12q0 -5 11 -6t33 -1h201q22 0 41 7t35.5 22t31.5 38.5t31 57.5h10q-11 -26 -20 -46t-17 -37t-15 -34t-13 -38h-455z" />
    <glyph glyph-name="three" unicode="3" horiz-adv-x="573" 
d="M263 -11q-35 0 -68.5 8t-61 23t-45.5 37.5t-21 51.5l80 158h5q-16 -38 -27 -72t-11 -58q0 -36 16 -59.5t40 -37t52.5 -19t52.5 -5.5q57 0 102.5 21t77 55.5t48.5 80t17 95.5q0 55 -28.5 89.5t-91.5 34.5q-26 0 -52 -7t-67 -23l-5 -2l2 10l30 13q29 13 69 35t76.5 52.5
t62 68.5t25.5 85q0 46 -32 79t-96 33q-33 0 -65.5 -9.5t-59 -31.5t-42.5 -58.5t-16 -89.5v-36t2 -39h-5l-39 158q14 18 35 42t50.5 45.5t68 36t87.5 14.5q31 0 61 -7.5t54 -23t38.5 -40.5t14.5 -59q0 -38 -16 -72t-44.5 -63.5t-67.5 -54t-85 -43.5q35 6 69 1t61 -22.5
t43.5 -47t16.5 -71.5q0 -57 -26 -107.5t-69.5 -88t-99.5 -59t-116 -21.5z" />
    <glyph glyph-name="four" unicode="4" horiz-adv-x="575" 
d="M655 750q-27 -4 -42.5 -6.5t-24 -7.5t-12.5 -14.5t-7 -26.5l-79 -411l-10 -51v-1q0 -9 3.5 -14t13.5 -8t27 -5t44 -5l-2 -10h-94l-25 -125q-3 -18 -3 -27t7 -14t21.5 -7.5t38.5 -6.5l-2 -10h-195l2 10q27 4 42.5 6.5t24 7.5t12.5 14t7 27l25 125h-344l4 20
q14 25 49.5 72.5t81.5 104.5t96.5 118t95 113.5t77 91t42.5 50.5h128zM402 220q14 0 23 4.5t12 20.5l94 484q-32 -42 -73.5 -92.5t-85 -102.5t-86 -102.5t-75.5 -91.5t-53 -69.5t-20 -37.5q0 -13 37 -13h227z" />
    <glyph glyph-name="five" unicode="5" horiz-adv-x="679" 
d="M339 -9q-61 0 -103 21.5t-70.5 57t-45.5 82t-26 97.5h5q12 -47 28.5 -87.5t42 -71t63 -48t92.5 -17.5q63 0 119 22t97 61t65 92t24 116q0 37 -10.5 68t-30 53.5t-48 35t-64.5 12.5q-32 0 -64 -9.5t-63 -30.5t-58.5 -55t-49.5 -83h-52l147 400q8 25 -9.5 31.5t-51.5 11.5
l2 10h408q-2 -21 -2 -38t1.5 -34.5t3 -38.5t1.5 -49h-10q-5 71 -25 100.5t-65 29.5h-194l-124 -328q-3 -8 1 -8q2 0 7 6q19 27 45 48.5t55 36t60.5 22.5t61.5 8q40 0 74 -14t59 -40.5t39.5 -63t14.5 -81.5q0 -69 -30 -128.5t-79 -103t-112 -68.5t-129 -25z" />
    <glyph glyph-name="six" unicode="6" horiz-adv-x="618" 
d="M308 -11q-48 0 -85.5 19t-63.5 54t-39.5 85t-13.5 112q0 112 32.5 205.5t86.5 161t124 105t144 37.5q38 0 66 -9.5t47.5 -22t30.5 -25.5t15 -19l-32 -162h-10q10 50 3 87.5t-27 63t-51.5 38t-71.5 12.5q-71 0 -123.5 -36t-89 -95t-58.5 -135t-31 -157q19 50 48.5 88.5
t65 65t75.5 40t81 13.5q43 0 79 -15.5t62 -43.5t40.5 -66t14.5 -83q0 -58 -25 -115t-68.5 -102t-101.5 -73t-124 -28zM329 26q49 0 93 21.5t77 59.5t52.5 89t19.5 111q0 81 -41.5 129.5t-115.5 48.5q-57 0 -104 -25t-80 -63.5t-51.5 -85.5t-18.5 -91q0 -38 11.5 -73t33 -62
t53 -43t71.5 -16z" />
    <glyph glyph-name="seven" unicode="7" horiz-adv-x="540" 
d="M336 369h-130l6 30h140l181 331h-220q-45 0 -76.5 -29.5t-63.5 -100.5h-10q11 28 20.5 49t17.5 38.5t15 34.5t13 38h413l-2 -10l-30 -5t-20.5 -6.5t-15 -11.5t-13.5 -20l-159 -291q-6 -11 -6 -17q0 -16 23.5 -17.5t60.5 -2.5l-2 -10h-101l-192 -369h-41z" />
    <glyph glyph-name="eight" unicode="8" horiz-adv-x="571" 
d="M275 -11q-42 0 -77.5 12.5t-61 35t-40 54t-14.5 70.5q0 40 16.5 80t44.5 74t65 59t77 34q-26 6 -45 20t-32 32.5t-19 41t-6 45.5q0 45 20 85.5t54 70.5t79.5 47.5t96.5 17.5q39 0 70 -11.5t53.5 -32.5t34.5 -50t12 -63q0 -66 -45 -119.5t-125 -82.5q33 -5 58.5 -21
t42 -39t25 -51.5t8.5 -58.5q0 -55 -25 -101t-66 -79t-93.5 -51.5t-107.5 -18.5zM366 423q40 0 73.5 13.5t57.5 37t37.5 55t13.5 67.5q0 30 -9.5 55.5t-27.5 44t-43.5 29.5t-56.5 11q-37 0 -70 -13.5t-57.5 -37.5t-39 -57.5t-14.5 -73.5q0 -57 35.5 -94t100.5 -37zM297 21
q40 0 79 13.5t70 40.5t49.5 67t18.5 93q0 69 -41.5 111.5t-119.5 42.5q-53 0 -94 -17t-70 -46t-44 -66.5t-15 -78.5q0 -36 12.5 -65.5t35 -50.5t53 -32.5t66.5 -11.5z" />
    <glyph glyph-name="nine" unicode="9" horiz-adv-x="608" 
d="M262 -11q-36 0 -67 9t-54 22t-37.5 25.5t-16.5 20.5l31 162h10q-10 -50 -2.5 -89.5t28.5 -66.5t53.5 -41t72.5 -14q66 0 117.5 36t89.5 96t65 137.5t44 160.5q-16 -41 -43 -78t-61.5 -65t-75.5 -44.5t-86 -16.5q-43 0 -78 16t-60 44.5t-38.5 67.5t-13.5 84
q0 59 23.5 115.5t65 100.5t98 70.5t121.5 26.5q45 0 82.5 -16.5t64.5 -48.5t42 -80.5t15 -112.5q0 -70 -15 -135.5t-41 -123.5t-62.5 -106t-80 -83t-92 -54t-99.5 -19zM344 273q57 0 103.5 25t78.5 64.5t49.5 90t17.5 101.5q0 42 -12.5 75t-34 55.5t-51.5 34.5t-65 12
q-50 0 -94 -20t-77 -57t-52 -88t-19 -113q0 -39 10 -72t29.5 -57t48.5 -37.5t68 -13.5z" />
    <glyph glyph-name="zero.osf" horiz-adv-x="549" 
d="M273 -11q-95 0 -143.5 57.5t-48.5 153.5q0 69 24.5 127t66 100t97 65.5t117.5 23.5q95 0 143.5 -53t48.5 -147q0 -67 -24 -126.5t-65.5 -104t-97 -70.5t-118.5 -26zM292 21q50 0 92.5 21t73 57.5t47.5 87t17 109.5q0 86 -40 137t-122 51q-46 0 -87.5 -18t-73 -52t-50 -82
t-18.5 -108q0 -44 11 -81.5t31.5 -64.5t50.5 -42t68 -15z" />
    <glyph glyph-name="one.osf" horiz-adv-x="431" 
d="M52 10q53 4 82.5 6.5t44.5 7.5t20 14t9 27l75 390l-173 -133l1 8l171 170h150l-2 -10q-33 -4 -52.5 -6.5t-30.5 -7.5t-15.5 -14t-7.5 -27l-71 -370q-3 -18 -1.5 -27t14.5 -14t41.5 -7.5t79.5 -6.5l-2 -10h-335z" />
    <glyph glyph-name="two.osf" horiz-adv-x="518" 
d="M48 10q19 4 55.5 20t79.5 41.5t88 59t81.5 73t60 83t23.5 88.5q0 46 -25.5 77.5t-73.5 31.5q-35 0 -67.5 -17t-58 -51.5t-40.5 -87t-15 -123.5v-31h-5l-17 202q35 65 87 102.5t121 37.5q30 0 55.5 -8t44.5 -24t30 -40.5t11 -56.5q0 -54 -23 -98.5t-57.5 -80t-75 -64
t-75 -49t-57.5 -35t-23 -23.5q0 -5 13.5 -6t45.5 -1h121q22 0 41 7t35.5 22t31.5 38.5t31 57.5h10q-11 -26 -20 -46t-17 -37t-15 -34t-13 -38h-390z" />
    <glyph glyph-name="three.osf" horiz-adv-x="514" 
d="M190 -207q-34 0 -65.5 8t-56 23t-40.5 37.5t-18 51.5l80 158h5q-17 -38 -27.5 -73t-10.5 -61q0 -35 13.5 -57.5t34.5 -35.5t47 -18.5t50 -5.5q58 0 99.5 21.5t67.5 54.5t38 73t12 77q0 54 -26 82t-74 28t-112 -26l-5 -2l2 10l30 13q33 15 68 34.5t64 46.5t47.5 61
t18.5 78q0 49 -28 81t-80 32q-28 0 -56.5 -9.5t-52 -32t-38.5 -58.5t-15 -89v-36t2 -39h-5l-39 158q8 10 25 32.5t44 46t64 41.5t84 18q27 0 54 -7.5t48.5 -23t35.5 -40.5t14 -60q0 -36 -13 -68t-36.5 -59t-56.5 -48.5t-73 -36.5q37 6 67 -1t51 -24.5t32.5 -44t11.5 -59.5
q0 -47 -21.5 -92.5t-59.5 -80.5t-89.5 -56.5t-111.5 -21.5z" />
    <glyph glyph-name="four.osf" horiz-adv-x="526" 
d="M555 490q-27 -4 -42.5 -6.5t-24 -7.5t-12.5 -14.5t-7 -26.5l-65 -341l-10 -51v-1q0 -9 3.5 -14t13.5 -8t27 -5t44 -5l-2 -10h-94l-27 -135q-3 -18 -3 -27t7 -14t21.5 -7.5t38.5 -6.5l-2 -10h-195l2 10q27 4 42.5 6.5t24 7.5t12.5 14t7 27l27 135h-304l4 20q14 25 46 67
t72 91.5t83.5 101.5t82 97t66.5 78t38 45h128zM316 30q14 0 23 4.5t12 20.5l78 402q-24 -28 -58.5 -67.5t-71.5 -83t-73 -87t-64.5 -80t-46.5 -62.5t-18 -34q0 -13 36 -13h183z" />
    <glyph glyph-name="five.osf" horiz-adv-x="651" 
d="M313 -207q-66 0 -113.5 24t-78.5 60t-48 77.5t-21 76.5h5q7 -32 23.5 -68t45 -66t70.5 -50t100 -20q60 0 108 20.5t81.5 54.5t52 79t18.5 94q0 66 -36 108t-102 42q-26 0 -56 -7.5t-60 -25.5t-58 -48.5t-49 -76.5h-52l144 380q7 25 -10.5 31.5t-51.5 11.5l2 10h388
q-2 -21 -2 -38t1.5 -34.5t3 -38.5t1.5 -49h-10q-5 71 -25 100.5t-65 29.5h-174l-120 -308q-3 -8 1 -8q2 0 7 6q25 28 53.5 46.5t56.5 29t54 15t46 4.5q31 0 61.5 -10t55.5 -31.5t40.5 -54.5t15.5 -79q0 -60 -23.5 -112t-64.5 -91t-96 -61.5t-119 -22.5z" />
    <glyph glyph-name="six.osf" horiz-adv-x="601" 
d="M298 -11q-47 0 -82.5 19t-59.5 53.5t-36.5 83t-12.5 107.5q0 114 33 209t87 163.5t122 106t138 37.5q35 0 60.5 -9t43 -21.5t28 -25.5t15.5 -20l-32 -162h-10q10 50 4 87.5t-24.5 63t-48 38t-66.5 12.5q-66 0 -117.5 -37t-88 -96.5t-58.5 -135.5t-30 -154q20 51 50 90
t65.5 65t75.5 39t79 13q42 0 74.5 -15.5t55.5 -42t35 -63t12 -78.5q0 -62 -25 -121t-67.5 -104.5t-99.5 -73.5t-120 -28zM319 26q46 0 89 21.5t75.5 60t52 92.5t19.5 119q0 73 -34.5 119.5t-105.5 46.5q-57 0 -103.5 -25t-80 -64.5t-52 -87t-18.5 -92.5q0 -37 10.5 -71
t30.5 -60.5t49.5 -42.5t67.5 -16z" />
    </font>
</defs>
</svg>
