<?xml version="1.0" standalone="no"?>
<!DOCTYPE svg PUBLIC "-//W3C//DTD SVG 1.1//EN" "http://www.w3.org/Graphics/SVG/1.1/DTD/svg11.dtd" >
<svg xmlns="http://www.w3.org/2000/svg" xmlns:xlink="http://www.w3.org/1999/xlink" version="1.1">
<metadata>
Created by FontForge 20190801 at Tue Mar 27 11:47:23 2018
 By Jimmy Wärting
Copyright (c) 2017 by Matthieu Salvaggio. All rights reserved.
</metadata>
<defs>
<font id="ATApoc-Light" horiz-adv-x="505" >
  <font-face 
    font-family="AT Apoc"
    font-weight="300"
    font-stretch="normal"
    units-per-em="1000"
    panose-1="0 0 5 0 0 0 0 0 0 0"
    ascent="800"
    descent="-200"
    x-height="500"
    cap-height="760"
    bbox="-653 -244 1218 1043"
    underline-thickness="50"
    underline-position="-150"
    unicode-range="U+0020-FB04"
  />
<missing-glyph horiz-adv-x="634" 
d="M61 10l75 26v684l-75 30v10h512v-10l-75 -30v-684l75 -26v-10h-512v10zM451 730h-270v-677zM453 30v648l-260 -648h260z" />
    <glyph glyph-name=".notdef" horiz-adv-x="634" 
d="M61 10l75 26v684l-75 30v10h512v-10l-75 -30v-684l75 -26v-10h-512v10zM451 730h-270v-677zM453 30v648l-260 -648h260z" />
    <glyph glyph-name=".null" horiz-adv-x="0" 
 />
    <glyph glyph-name="nonmarkingreturn" horiz-adv-x="333" 
 />
    <glyph glyph-name="space" unicode=" " horiz-adv-x="220" 
 />
    <glyph glyph-name="exclam" unicode="!" horiz-adv-x="206" 
d="M96 148q-1 22 -3 71.5t-4.5 111t-5 128.5t-4.5 124t-3.5 97t-1.5 49q0 44 8 57.5t21 13.5t21 -13.5t8 -57.5q0 -9 -1.5 -49t-3.5 -97t-4.5 -124t-5 -128.5t-4.5 -111t-3 -71.5h-14zM103 -11q-21 0 -34 13t-13 33t13 34t34 14t34 -14t13 -34t-13 -33t-34 -13z" />
    <glyph glyph-name="quotedbl" unicode="&#x22;" horiz-adv-x="175" 
d="M41 515q-10 79 -15 128t-5 77t6 37.5t18 9.5t17.5 -9.5t5.5 -37.5t-5 -77t-14 -128h-8zM126 515q-10 79 -15 128t-5 77t6 37.5t18 9.5t17.5 -9.5t5.5 -37.5t-5 -77t-14 -128h-8z" />
    <glyph glyph-name="numbersign" unicode="#" horiz-adv-x="615" 
d="M453 495l-64 -248h100v-32h-109l-55 -215h-30l55 215h-160l-55 -215h-30l55 215h-104v32h113l64 248h-107v32h115l60 233h30l-60 -233h160l60 233h30l-60 -233h98v-32h-106zM423 495h-160l-64 -248h160z" />
    <glyph glyph-name="dollar" unicode="$" horiz-adv-x="530" 
d="M463 265q0 -41 -14.5 -74.5t-39 -57.5t-58 -37.5t-70.5 -16.5v-109h-23v108q-37 1 -69 11t-56.5 24.5t-41.5 31t-25 30.5l35 146h17q-5 -20 -9 -41.5t-4 -41.5q0 -39 16 -64t39 -39.5t50 -20t48 -6.5v262q-28 8 -52 15.5t-41 17.5q-67 37 -67 121q0 37 12 65t33.5 47.5
t51 30t63.5 12.5v91h23v-91q57 -3 95.5 -25.5t62.5 -44.5l-46 -111h-17q7 15 13 35t6 37q0 21 -11 35.5t-28 23t-37 12.5t-38 5v-223q17 -5 37 -11t40 -14q50 -19 77.5 -47.5t27.5 -85.5zM238 435q5 -2 10 -2.5t10 -2.5v216q-25 -2 -49.5 -8.5t-43.5 -20t-30.5 -33.5
t-11.5 -47q0 -16 5 -30.5t18 -27.5t35.5 -24t56.5 -20zM281 108q31 2 58.5 12.5t48.5 28t33 41.5t12 54q0 48 -31 73.5t-89 39.5l-16 4l-16 4v-257z" />
    <glyph glyph-name="percent" unicode="%" horiz-adv-x="876" 
d="M169 398q-37 0 -64 17t-45 44.5t-26.5 62.5t-8.5 71q0 40 10 77.5t29.5 67t48.5 47.5t66 18q38 0 66 -18.5t46.5 -47.5t27.5 -65t9 -71q0 -38 -10.5 -74.5t-31 -65t-50 -46t-67.5 -17.5zM181 415q21 0 40.5 10.5t35.5 32t25.5 53.5t9.5 74t-10 78.5t-26.5 64t-39 43.5
t-47.5 16q-21 0 -41 -12t-35.5 -35t-25.5 -56t-10 -76q0 -40 10 -75t26.5 -61.5t39 -41.5t48.5 -15zM661 760h32l-530 -760h-30zM692 -6q-37 0 -64 17t-45 44.5t-26.5 62.5t-8.5 71q0 40 10 77.5t29.5 67t48.5 47.5t66 18q38 0 66 -18.5t46.5 -47.5t27.5 -65t9 -71
q0 -38 -10.5 -74.5t-31 -65t-50 -46t-67.5 -17.5zM704 11q21 0 40.5 10.5t35.5 32t25.5 53.5t9.5 74t-10 78.5t-26.5 64t-39 43.5t-47.5 16q-21 0 -41 -12t-35.5 -35t-25.5 -56t-10 -76q0 -40 10 -75t26.5 -61.5t39 -41.5t48.5 -15z" />
    <glyph glyph-name="ampersand" unicode="&#x26;" horiz-adv-x="691" 
d="M645 -26q-42 27 -82.5 56t-78.5 58q-44 -46 -102 -73t-118 -27q-41 0 -77.5 13.5t-64 38.5t-43.5 60t-16 79q0 71 41 120.5t104 90.5q-21 41 -32.5 82.5t-11.5 84.5q0 47 13.5 86t37.5 66.5t56 43t69 15.5q31 0 57.5 -10.5t46 -29t31 -44t11.5 -54.5q0 -48 -24.5 -83
t-61 -62t-79 -48.5t-79.5 -43.5q38 -69 100 -137.5t135 -133.5q25 29 41 65t19 77.5t-9.5 87t-45.5 94.5h15q36 -48 50.5 -95t12.5 -91t-18.5 -83.5t-43.5 -72.5q39 -34 80 -66.5t82 -63.5h-15zM335 739q-33 0 -59 -16.5t-44 -42.5t-27.5 -60t-9.5 -68q0 -35 10.5 -71.5
t29.5 -73.5q37 22 75.5 44.5t70 48.5t51.5 56t20 67q0 28 -10 49.5t-26 36.5t-37.5 22.5t-43.5 7.5zM272 20q48 0 99 22.5t91 62.5q-79 64 -143 131.5t-104 139.5q-23 -16 -44 -36t-37 -43.5t-25.5 -51.5t-9.5 -59q0 -39 14.5 -70t38.5 -52.5t55.5 -32.5t64.5 -11z" />
    <glyph glyph-name="quotesingle" unicode="'" horiz-adv-x="90" 
d="M41 515q-10 79 -15 128t-5 77t6 37.5t18 9.5t17.5 -9.5t5.5 -37.5t-5 -77t-14 -128h-8v0z" />
    <glyph glyph-name="parenleft" unicode="(" horiz-adv-x="266" 
d="M203 -60q-15 17 -41 55.5t-51 95t-43.5 129t-18.5 158.5q0 74 18.5 145.5t43.5 131t51 102t41 59.5h17q-18 -21 -39 -63.5t-38.5 -101t-29.5 -128.5t-12 -145q0 -86 12 -157.5t29.5 -127t38.5 -94t39 -59.5h-17v0z" />
    <glyph glyph-name="parenright" unicode=")" horiz-adv-x="266" 
d="M46 -60q18 21 39 59.5t38.5 94t29.5 127t12 157.5q0 75 -12 145t-29.5 128.5t-38.5 101t-39 63.5h17q15 -17 41 -59.5t51 -102t43.5 -131t18.5 -145.5q0 -86 -18.5 -158.5t-43.5 -129t-51 -95t-41 -55.5h-17v0z" />
    <glyph glyph-name="asterisk" unicode="*" horiz-adv-x="322" 
d="M161 557q-9 0 -12 8t-3 22v11t1 12l11 63l-45 -46q-12 -10 -23 -16.5t-19 -6.5q-6 0 -10 5q-6 10 5 20t31 22l59 27l-59 28q-20 11 -31 21.5t-5 20.5q4 5 10 5q8 0 18.5 -6.5t22.5 -17.5l46 -45l-11 63q-1 6 -1 12v11q0 14 3 22t12 8t12 -8.5t3 -22.5v-10.5t-1 -11.5
l-11 -63l46 45q12 11 22.5 17.5t18.5 6.5q6 0 10 -5q6 -10 -5 -20.5t-31 -21.5l-59 -28l59 -27q20 -12 31 -22t5 -20q-4 -5 -10 -5q-8 0 -19 6.5t-23 16.5l-45 46l11 -63q1 -6 1 -11.5v-10.5q0 -14 -3 -22.5t-12 -8.5z" />
    <glyph glyph-name="plus" unicode="+" horiz-adv-x="479" 
d="M416 263h-160v-160h-32v160h-161v32h161v161h32v-161h160v-32z" />
    <glyph glyph-name="comma" unicode="," horiz-adv-x="142" 
d="M18 -144q25 32 35.5 56.5t10.5 47.5q0 22 -10 38.5t-26 35.5q0 22 13.5 35.5t32.5 13.5q22 0 35 -13.5t13 -36.5q0 -33 -24.5 -80.5t-69.5 -96.5h-10v0z" />
    <glyph glyph-name="hyphen" unicode="-" horiz-adv-x="353" 
d="M50 300h253v-38h-253v38z" />
    <glyph glyph-name="period" unicode="." horiz-adv-x="130" 
d="M65 -11q-21 0 -34 13t-13 33t13 34t34 14t34 -14t13 -34t-13 -33t-34 -13z" />
    <glyph glyph-name="slash" unicode="/" horiz-adv-x="543" 
d="M475 800h32l-441 -919h-30z" />
    <glyph glyph-name="zero" unicode="0" horiz-adv-x="619" 
d="M297 -11q-63 0 -110 32.5t-77.5 85t-45.5 120t-15 137.5q0 77 18 149.5t51.5 129t83 91t112.5 34.5q64 0 112.5 -35t80 -91t47.5 -125.5t16 -137.5q0 -74 -18.5 -144.5t-54 -125t-86 -87.5t-114.5 -33zM318 21q37 0 73 20.5t64 62t45.5 103t17.5 142.5q0 82 -18 153
t-48.5 123t-70.5 81.5t-85 29.5q-37 0 -73.5 -23t-65 -67.5t-46 -108t-17.5 -144.5t18 -149.5t49 -118t71.5 -77t85.5 -27.5z" />
    <glyph glyph-name="one" unicode="1" horiz-adv-x="373" 
d="M132 10l75 16v640l-158 -161h-3v5l174 250h107v-10l-75 -30v-694l75 -16v-10h-195v10z" />
    <glyph glyph-name="two" unicode="2" horiz-adv-x="582" 
d="M46 10q17 3 51.5 23.5t76.5 54.5t85.5 81t79.5 103.5t59 121t23 134.5q0 49 -12 87.5t-33 65.5t-49.5 41t-61.5 14q-39 0 -69 -18.5t-50.5 -48.5t-31.5 -68.5t-11 -78.5q0 -13 1 -30.5t3 -36.5t4.5 -37.5t5.5 -31.5h-15l-46 202q11 32 29 64.5t44 58t62.5 41.5t84.5 16
q30 0 65 -8.5t64.5 -32.5t49.5 -67.5t20 -112.5q0 -65 -16.5 -121.5t-42 -105.5t-57 -89t-62 -71t-56 -52t-39.5 -32q-23 -18 -30 -26t-7 -12q0 -6 11 -7t34 -1h251l65 125h10q-6 -26 -11.5 -46t-10 -37t-8 -34t-5.5 -38h-455v10z" />
    <glyph glyph-name="three" unicode="3" horiz-adv-x="573" 
d="M265 -11q-35 0 -70 8t-65.5 23t-53 37.5t-30.5 51.5l39 158h15q-7 -29 -10.5 -58t-3.5 -48q0 -44 19 -72t47 -44t60.5 -22.5t59.5 -6.5q49 0 86 16.5t62 45t38 67t13 83.5q0 73 -35.5 118.5t-111.5 45.5q-26 0 -50.5 -9t-62.5 -26l-5 -2v15q110 54 162.5 109t52.5 122
q0 27 -10 51.5t-29 43t-47 29.5t-65 11q-29 0 -56.5 -7.5t-49 -23.5t-34.5 -40t-13 -58q0 -23 6 -58t17 -77h-15l-59 158q10 18 26.5 42t42 45.5t61 36t84.5 14.5q34 0 69 -8.5t63 -27.5t45.5 -48t17.5 -71q0 -69 -47.5 -121t-122.5 -87q37 7 76.5 0.5t71 -28t52 -58
t20.5 -88.5t-20.5 -96t-56 -76.5t-82.5 -51t-101 -18.5z" />
    <glyph glyph-name="four" unicode="4" horiz-adv-x="575" 
d="M314 10l75 16v164h-343v20l335 550h128v-10l-75 -24v-503l95 -23v-10h-95v-164l75 -16v-10h-195v10zM389 220v496l-301 -496h301z" />
    <glyph glyph-name="five" unicode="5" horiz-adv-x="679" 
d="M341 -9q-61 0 -107.5 21.5t-81.5 57t-61 82t-45 97.5h15q21 -47 43.5 -87.5t52 -71t69 -48t94.5 -17.5t101.5 18t80 50.5t52 78t18.5 100.5q0 46 -13.5 85.5t-38.5 67.5t-59.5 44t-77.5 16q-32 0 -62.5 -9.5t-57 -30.5t-47.5 -55t-34 -83h-52l71 411l-71 32v10h408
q2 -21 5.5 -38t8 -34.5t10 -38.5t11.5 -49h-10l-65 130h-244l-60 -328q-1 -8 2 -8q2 0 6 6q29 54 84 84.5t116 30.5q46 0 87.5 -17.5t73 -49t50 -76.5t18.5 -100q0 -61 -23 -112.5t-62.5 -89t-92.5 -58.5t-112 -21z" />
    <glyph glyph-name="six" unicode="6" horiz-adv-x="618" 
d="M310 -11q-59 0 -107.5 25.5t-82.5 73t-52.5 115.5t-18.5 153q0 95 23 171.5t62.5 130t93.5 82t116 28.5q38 0 68 -9.5t51.5 -22t35 -25.5t18.5 -19v-162h-20q0 100 -47.5 150.5t-128.5 50.5q-62 0 -104.5 -28t-69 -75t-38 -109.5t-11.5 -132.5q0 -38 3 -78
q10 50 31.5 88.5t52 65t68 40t78.5 13.5q49 0 92.5 -19t76 -52.5t51.5 -79t19 -99.5q0 -53 -18.5 -102.5t-53 -88t-82.5 -62t-106 -23.5zM324 26q42 0 77 17t60.5 47.5t39.5 73.5t14 94t-14.5 93t-40 72t-61.5 46t-79 16q-50 0 -88.5 -20.5t-64.5 -53.5t-39.5 -73.5
t-13.5 -80.5q0 -44 15.5 -85.5t43.5 -73.5t66.5 -52t84.5 -20z" />
    <glyph glyph-name="seven" unicode="7" horiz-adv-x="540" 
d="M264 369h-130v30h140l117 331h-270l-65 -130h-10q6 28 11.5 49t10 38.5t8 34.5t5.5 38h413v-10l-65 -30l-114 -320l91 -21v-10h-101l-120 -369h-41z" />
    <glyph glyph-name="eight" unicode="8" horiz-adv-x="571" 
d="M277 -11q-48 0 -89.5 14.5t-72.5 41.5t-49 64.5t-18 83.5q0 35 12 70t33 64.5t50 51t63 29.5q-32 7 -56.5 24t-41 39.5t-25 49t-8.5 53.5q0 42 15.5 77.5t43.5 61.5t66.5 40.5t83.5 14.5q44 0 81 -14t64 -39t42 -59.5t15 -75.5q0 -54 -34 -100t-99 -71q40 -5 71.5 -24.5
t53.5 -47.5t33.5 -62t11.5 -68q0 -49 -20 -89.5t-53.5 -69t-78.5 -44t-94 -15.5zM284 423q35 0 63 11t47.5 30.5t29.5 46t10 56.5q0 36 -12.5 66.5t-35 53.5t-52.5 36t-66 13q-32 0 -59.5 -11t-47 -31t-30.5 -48.5t-11 -62.5q0 -35 11.5 -64t33 -50.5t52 -33.5t67.5 -12z
M293 21q35 0 67.5 11t57 33.5t39 55.5t14.5 77q0 43 -13.5 78t-38.5 60t-61 39t-81 14t-79.5 -14t-58 -38t-35 -56t-11.5 -69q0 -42 16 -77.5t43 -60.5t63.5 -39t77.5 -14z" />
    <glyph glyph-name="nine" unicode="9" horiz-adv-x="608" 
d="M264 -11q-36 0 -68.5 9t-58.5 22t-42.5 25.5t-20.5 20.5v162h20q0 -50 13.5 -89.5t38 -66.5t58 -41t73.5 -14q66 0 110.5 36t71 96t38 137.5t12.5 160.5q-8 -41 -27.5 -78t-48.5 -65t-67 -44.5t-83 -16.5q-50 0 -93 20t-74.5 55t-49.5 82t-18 101q0 52 17.5 100.5
t50.5 85.5t79.5 59t103.5 22q55 0 102.5 -21.5t82.5 -65t55 -109.5t20 -154q0 -92 -22 -170.5t-61.5 -136t-93.5 -90t-118 -32.5zM291 273q49 0 86 19.5t62 52t37.5 75t12.5 88.5q0 54 -16 95.5t-43.5 70t-64 43t-77.5 14.5q-42 0 -77.5 -15.5t-61 -45t-39.5 -71.5t-14 -94
q0 -50 13 -92.5t38 -73.5t61.5 -48.5t82.5 -17.5z" />
    <glyph glyph-name="colon" unicode=":" horiz-adv-x="130" 
d="M65 370q-21 0 -34 13t-13 33t13 34t34 14t34 -14t13 -34t-13 -33t-34 -13zM65 -11q-21 0 -34 13t-13 33t13 34t34 14t34 -14t13 -34t-13 -33t-34 -13z" />
    <glyph glyph-name="semicolon" unicode=";" horiz-adv-x="142" 
d="M75 370q-21 0 -34 13t-13 33t13 34t34 14t34 -14t13 -34t-13 -33t-34 -13zM18 -144q25 32 35.5 56.5t10.5 47.5q0 22 -10 38.5t-26 35.5q0 22 13.5 35.5t32.5 13.5q22 0 35 -13.5t13 -36.5q0 -33 -24.5 -80.5t-69.5 -96.5h-10z" />
    <glyph glyph-name="less" unicode="&#x3c;" horiz-adv-x="528" 
d="M63 276v10l402 233v-35l-353 -203l353 -204v-35z" />
    <glyph glyph-name="equal" unicode="=" horiz-adv-x="479" 
d="M63 387h353v-32h-353v32zM63 207h353v-32h-353v32z" />
    <glyph glyph-name="greater" unicode="&#x3e;" horiz-adv-x="528" 
d="M63 77l353 204l-353 203v35l402 -233v-10l-402 -234v35z" />
    <glyph glyph-name="question" unicode="?" horiz-adv-x="483" 
d="M211 150q-6 48 -6 81q0 29 4 50.5t13.5 42t24.5 43t36 52.5q16 23 32 47t28.5 50t20 55t7.5 62q0 40 -11.5 68.5t-30.5 46.5t-43 26.5t-49 8.5q-60 0 -97 -41.5t-37 -120.5q0 -13 1 -31t3 -37.5t4.5 -38t5.5 -31.5h-15l-46 202q9 25 26 48.5t41.5 41.5t55.5 29t67 11
q27 0 58 -7.5t58 -28t45 -56.5t18 -93q0 -48 -14.5 -88t-48.5 -87q-29 -41 -55 -68t-45 -57t-30 -70.5t-11 -109.5h-10zM219 -11q-21 0 -34 13t-13 33t13 34t34 14t34 -14t13 -34t-13 -33t-34 -13z" />
    <glyph glyph-name="at" unicode="@" horiz-adv-x="828" 
d="M399 -77q-67 0 -127.5 24t-106.5 69t-73.5 110.5t-27.5 148.5q0 81 27 149.5t75 118t115 77t147 27.5q77 0 139.5 -26t106 -73t67 -114.5t23.5 -149.5q0 -54 -10 -100t-29 -79t-46.5 -51.5t-61.5 -18.5q-23 0 -39.5 8t-27.5 21t-17.5 30t-9.5 35q-32 -42 -71 -66t-83 -24
q-33 0 -61.5 14t-49 40t-32 63t-11.5 83q0 62 22 111.5t62.5 84t99 52.5t132.5 18h27v-341q0 -45 16.5 -72t46.5 -27q23 0 43 16t35 44.5t23.5 68t8.5 87.5q0 73 -21 135t-61 106t-96.5 69t-126.5 25q-72 0 -132 -25.5t-103.5 -71.5t-68 -109.5t-24.5 -138.5
q0 -80 26.5 -141t70.5 -102.5t102 -63t121 -21.5q38 0 77.5 9t77.5 28v-15q-43 -22 -87 -32t-87 -10zM387 70q42 0 76.5 20.5t58.5 50.5v349q-61 0 -110.5 -17.5t-85 -50t-55 -78t-19.5 -102.5q0 -82 37.5 -127t97.5 -45z" />
    <glyph glyph-name="A" unicode="A" horiz-adv-x="891" 
d="M48 10l74 26l301 732h30l319 -732l71 -26v-10h-195v10l69 26l-131 307h-306l-123 -307l86 -26v-10h-195v10zM573 373l-145 339l-136 -339h281z" />
    <glyph glyph-name="B" unicode="B" horiz-adv-x="666" 
d="M49 10l75 26v684l-75 30v10h274q60 0 107.5 -14t80.5 -39.5t50.5 -60t17.5 -76.5q0 -39 -13 -69.5t-34.5 -53.5t-49 -38.5t-56.5 -24.5q40 -7 74.5 -22t60 -38.5t40.5 -55t15 -70.5q0 -41 -13.5 -77t-42.5 -63t-73.5 -42.5t-106.5 -15.5h-331v10zM327 390q41 0 77.5 11.5
t64.5 34t44 56.5t16 79q0 84 -50.5 126.5t-159.5 42.5h-150v-350h158zM375 16q58 0 95 18t57.5 45.5t28 60.5t7.5 63q0 40 -15.5 71.5t-43 52.5t-65 32t-82.5 11h-188v-354h206z" />
    <glyph glyph-name="C" unicode="C" horiz-adv-x="816" 
d="M406 -11q-70 0 -134.5 25.5t-113.5 74.5t-78 120t-29 162q0 86 29.5 159t81.5 126t122.5 82.5t153.5 29.5q54 0 96.5 -11.5t72.5 -26.5t47 -29t20 -19v-222h-15q0 76 -19.5 127.5t-51.5 83.5t-74 46t-88 14q-24 0 -57.5 -4.5t-70 -17t-73 -35t-65 -59t-46.5 -89
t-18 -124.5q2 -106 35 -178t82 -116t108 -63t113 -19q112 0 194 70.5t124 204.5h15q-19 -67 -52 -124t-78.5 -99t-103.5 -65.5t-127 -23.5z" />
    <glyph glyph-name="D" unicode="D" horiz-adv-x="780" 
d="M49 10l75 26v684l-75 30v10h335q82 0 148 -24t112 -72.5t70.5 -121t24.5 -169.5q0 -76 -24.5 -144t-70.5 -119t-111.5 -80.5t-147.5 -29.5h-336v10zM356 20q77 0 138 31t104 80.5t65.5 112t22.5 124.5q0 95 -22.5 165t-65.5 116t-104 68.5t-138 22.5h-187v-720h187z" />
    <glyph glyph-name="E" unicode="E" horiz-adv-x="568" 
d="M49 10l75 26v684l-75 30v10h425q2 -21 5.5 -38t8 -34t10 -37t11.5 -46h-10l-65 125h-265v-306h185l25 85h10v-200h-10l-25 85h-185v-364h275l65 125h10q-6 -26 -11.5 -46t-10 -37t-8 -34t-5.5 -38h-435v10z" />
    <glyph glyph-name="F" unicode="F" horiz-adv-x="558" 
d="M49 10l75 26v684l-75 30v10h425q2 -21 5.5 -38t8 -34t10 -37t11.5 -46h-10l-65 125h-265v-306h185l25 85h10v-200h-10l-25 85h-185v-358l75 -26v-10h-195v10z" />
    <glyph glyph-name="G" unicode="G" horiz-adv-x="761" 
d="M404 -11q-78 0 -144 26.5t-115 77t-76.5 122.5t-27.5 162q0 84 29 155.5t81 124t123.5 82t156.5 29.5q52 0 93.5 -11.5t71.5 -26.5t47.5 -29t20.5 -19v-222h-15q0 127 -59 199t-178 72q-32 0 -69 -6.5t-73 -21.5t-69.5 -39.5t-59 -60.5t-40.5 -83.5t-15 -109.5
q0 -89 25 -160.5t71 -121t109 -76t140 -26.5q69 0 117 18t77.5 45.5t43 61t13.5 64.5q0 42 -29 66.5t-73 38t-95.5 19t-96.5 9.5v15h318v-363h-21v125q-45 -64 -111.5 -100t-169.5 -36z" />
    <glyph glyph-name="H" unicode="H" horiz-adv-x="748" 
d="M624 720v-684l75 -26v-10h-195v10l75 26v349h-410v-349l75 -26v-10h-195v10l75 26v684l-75 30v10h195v-10l-75 -30v-305h410v305l-75 30v10h195v-10z" />
    <glyph glyph-name="I" unicode="I" horiz-adv-x="293" 
d="M49 10l75 26v684l-75 30v10h195v-10l-75 -30v-684l75 -26v-10h-195v10z" />
    <glyph glyph-name="J" unicode="J" horiz-adv-x="482" 
d="M209 -11q-34 0 -59.5 8t-44.5 21t-32.5 29.5t-23.5 33.5l80 203h15q-14 -47 -27 -84.5t-13 -67.5q0 -53 25.5 -79.5t82.5 -26.5q20 0 38.5 7t32.5 27.5t22.5 58.5t8.5 100v501l-75 30v10h195v-10l-75 -30v-518q0 -44 -5.5 -82.5t-21.5 -67.5t-45.5 -46t-77.5 -17z" />
    <glyph glyph-name="K" unicode="K" horiz-adv-x="630" 
d="M592 10v-10h-195v10l72 26l-253 358l-47 -65v-293l75 -26v-10h-195v10l75 26v684l-75 30v10h195v-10l-75 -30v-350l263 356l-72 24v10h195v-10l-95 -24l-214 -291l276 -399z" />
    <glyph glyph-name="L" unicode="L" horiz-adv-x="528" 
d="M49 10l75 26v684l-75 30v10h195v-10l-75 -30v-655q0 -16 8 -25.5t22 -9.5h245l65 125h10q-6 -26 -11.5 -46t-10 -37t-8 -34t-5.5 -38h-435v10z" />
    <glyph glyph-name="M" unicode="M" horiz-adv-x="877" 
d="M49 10l75 26v684l-75 30v10h121l280 -704l269 704h109v-10l-75 -30v-684l75 -26v-10h-195v10l75 26v606l-253 -642h-30l-255 628v-592l74 -26v-10h-195v10z" />
    <glyph glyph-name="N" unicode="N" horiz-adv-x="702" 
d="M49 10l75 26v684l-75 30v10h121l364 -629v589l-75 30v10h195v-10l-75 -30v-720h-25l-384 669v-633l74 -26v-10h-195v10z" />
    <glyph glyph-name="O" unicode="O" horiz-adv-x="803" 
d="M388 -11q-71 0 -134 28.5t-110 80t-75 123t-28 157.5q0 87 30.5 158.5t81.5 123t116.5 80t136.5 28.5q72 0 136.5 -29t113.5 -80t77.5 -120t28.5 -149q0 -89 -31.5 -162.5t-83.5 -126.5t-119.5 -82.5t-139.5 -29.5zM410 26q30 0 63.5 7t67 23t64 41.5t54 63t37.5 87
t14 114.5q0 93 -28 162.5t-73.5 115t-103 68.5t-117.5 23q-45 0 -97.5 -17t-98 -54.5t-76 -98.5t-30.5 -149q0 -101 31 -173.5t78.5 -120t104.5 -70t110 -22.5z" />
    <glyph glyph-name="P" unicode="P" horiz-adv-x="629" 
d="M49 10l75 26v684l-75 30v10h289q46 0 89.5 -12.5t77 -36.5t54 -59.5t20.5 -81.5q0 -52 -20.5 -90t-54 -62.5t-77 -36t-89.5 -11.5h-169v-334l75 -26v-10h-195v10zM333 390q91 0 143.5 48t52.5 133q0 84 -52.5 126.5t-143.5 42.5h-164v-350h164z" />
    <glyph glyph-name="Q" unicode="Q" horiz-adv-x="835" 
d="M767 -13q-28 -46 -75 -76t-104 -30q-45 0 -79 17.5t-63 38.5t-57.5 38.5t-62.5 17.5q-23 0 -45.5 -8.5t-41.5 -22.5t-34.5 -31.5t-24.5 -34.5h-15q16 36 45 66t66 47q-51 18 -94 52.5t-74.5 82t-49 106.5t-17.5 128q0 87 30.5 158.5t81.5 123t116.5 80t136.5 28.5
q72 0 136.5 -29t113.5 -80t77.5 -120t28.5 -149q0 -81 -26.5 -150t-71 -120.5t-103.5 -84.5t-124 -42q18 -12 35.5 -24.5t38 -23.5t44.5 -18t55 -7q42 0 79 15.5t63 51.5h15zM86 412q0 -101 31 -173.5t78.5 -120t104.5 -70t110 -22.5q30 0 63.5 7t67 23t64 41.5t54 63
t37.5 87t14 114.5q0 93 -28 162.5t-73.5 115t-103 68.5t-117.5 23q-45 0 -97.5 -17t-98 -54.5t-76 -98.5t-30.5 -149z" />
    <glyph glyph-name="R" unicode="R" horiz-adv-x="657" 
d="M609 10v-10h-215v10l73 26l-203 334h-95v-334l75 -26v-10h-195v10l75 26v684l-75 30v10h289q46 0 89.5 -12.5t77 -36.5t54 -59.5t20.5 -81.5q0 -52 -20.5 -90t-54 -62.5t-77 -36t-89.5 -11.5h-22l204 -334zM169 390h164q91 0 143.5 48t52.5 133q0 84 -52.5 126.5
t-143.5 42.5h-164v-350z" />
    <glyph glyph-name="S" unicode="S" horiz-adv-x="591" 
d="M288 -11q-47 0 -86 11t-69 28.5t-51 38t-33 39.5l50 195h20q-7 -27 -12.5 -55.5t-5.5 -57.5q0 -54 21 -88t51.5 -52.5t65.5 -25t62 -6.5q39 0 76.5 10.5t67.5 33t48.5 57.5t18.5 84q0 37 -11 63.5t-31.5 45.5t-50 32t-66.5 22q-25 6 -43 10.5t-33 9t-28 9.5t-27 11
q-64 29 -97 68.5t-33 101.5q0 32 10.5 66.5t35 63t64.5 46.5t100 18q37 0 68 -7t56.5 -18.5t46 -26t36.5 -29.5l-65 -148h-20q9 20 17.5 47t8.5 50q0 30 -15 49.5t-37.5 31t-49 16t-48.5 4.5q-32 0 -65 -8.5t-59 -26t-42.5 -44t-16.5 -63.5q0 -48 30 -81t92 -56
q24 -9 51 -16.5t59 -15.5q41 -11 76.5 -27t61 -40.5t40 -59t14.5 -80.5q0 -54 -19.5 -96.5t-53.5 -72.5t-80.5 -45.5t-99.5 -15.5z" />
    <glyph glyph-name="T" unicode="T" horiz-adv-x="743" 
d="M274 10l75 26v694h-225l-65 -125h-10q6 26 11.5 46t10 37t8 34t5.5 38h575q2 -21 5.5 -38t8 -34t10 -37t11.5 -46h-10l-65 125h-225v-694l75 -26v-10h-195v10z" />
    <glyph glyph-name="U" unicode="U" horiz-adv-x="746" 
d="M374 -11q-72 0 -120.5 22t-77.5 61.5t-41 94.5t-12 120v433l-75 30v10h195v-10l-75 -30v-433q0 -73 15.5 -122t43.5 -79t67 -43t87 -13t85 13t62 43t37.5 79.5t12.5 121.5v433l-75 30v10h195v-10l-75 -30v-433q0 -68 -12.5 -123t-42 -94t-77 -60t-117.5 -21z" />
    <glyph glyph-name="V" unicode="V" horiz-adv-x="853" 
d="M120 726l-72 24v10h195v-10l-68 -24l265 -670l257 670l-87 24v10h195v-10l-74 -24l-286 -726h-30z" />
    <glyph glyph-name="W" unicode="W" horiz-adv-x="1212" 
d="M124 720l-76 30v10h195v-10l-65 -30l201 -640l215 680h33l232 -680l196 640l-86 30v10h195v-10l-78 -30l-222 -720h-30l-232 685l-217 -685h-30z" />
    <glyph glyph-name="X" unicode="X" horiz-adv-x="722" 
d="M53 10l69 26l213 344l-216 340l-70 30v10h195v-10l-71 -30l191 -302l182 302l-94 30v10h195v-10l-72 -30l-195 -326l227 -358l67 -26v-10h-195v10l74 26l-203 320l-199 -320l97 -26v-10h-195v10z" />
    <glyph glyph-name="Y" unicode="Y" horiz-adv-x="753" 
d="M283 10l75 26v245l-244 445l-66 24v10h195v-10l-73 -24l224 -403l211 403l-95 24v10h195v-10l-70 -24l-232 -439v-251l75 -26v-10h-195v10z" />
    <glyph glyph-name="Z" unicode="Z" horiz-adv-x="568" 
d="M49 10l392 720h-307l-65 -130h-10q6 28 11.5 49t10 38.5t8 34.5t5.5 38h400l5 -10l-388 -720h333l65 125h10q-6 -26 -11.5 -46t-10 -37t-8 -34t-5.5 -38h-430z" />
    <glyph glyph-name="bracketleft" unicode="[" horiz-adv-x="266" 
d="M49 816h171v-10l-126 -45v-766l126 -45v-10h-171v876z" />
    <glyph glyph-name="backslash" unicode="\" horiz-adv-x="543" 
d="M477 -119l-441 919h32l439 -919h-30z" />
    <glyph glyph-name="bracketright" unicode="]" horiz-adv-x="266" 
d="M46 -50l126 45v766l-126 45v10h171v-876h-171v10z" />
    <glyph glyph-name="asciicircum" unicode="^" horiz-adv-x="359" 
d="M42 435q28 80 48 132.5t35.5 83.5t28 43.5t25.5 12.5t27 -12.5t30.5 -43.5t36 -83.5t44.5 -132.5h-13l-125 235l-124 -235h-13v0z" />
    <glyph glyph-name="underscore" unicode="_" horiz-adv-x="573" 
d="M70 -62h433v-38h-433v38z" />
    <glyph glyph-name="grave" unicode="`" horiz-adv-x="600" 
d="M172 575q-22 21 -46.5 46.5t-45.5 49.5t-34.5 44.5t-13.5 32.5q0 15 16 15q8 0 20.5 -8.5t29.5 -30t38.5 -58t48.5 -91.5h-13v0z" />
    <glyph glyph-name="a" unicode="a" horiz-adv-x="476" 
d="M167 -11q-57 0 -93 35.5t-36 95.5q0 39 16 67.5t41 49.5t57.5 35t65.5 23t63.5 14.5t53.5 9.5v30q0 40 -10 67.5t-26.5 44t-37.5 24t-43 7.5q-27 0 -50.5 -10t-41 -27t-27 -40.5t-9.5 -51.5q0 -29 10 -58h-15l-40 128q9 12 23.5 26.5t36 26.5t51.5 20.5t70 8.5
q78 0 114 -35.5t36 -112.5v-327h64v-10l-95 -30h-10v124q-4 -13 -15.5 -35.5t-32 -44.5t-50.5 -38.5t-70 -16.5zM178 18q28 0 52.5 12t44.5 30t35.5 40t24.5 43v161q-14 -3 -38 -8t-52 -13t-57 -21t-52 -32t-38 -45t-15 -60q0 -21 6 -40t17.5 -34t29.5 -24t42 -9z" />
    <glyph glyph-name="b" unicode="b" horiz-adv-x="469" 
d="M100 515q97 0 161 -28t101.5 -70.5t52.5 -92.5t15 -95q0 -40 -11 -82.5t-34 -77.5t-59.5 -57.5t-87.5 -22.5q-24 0 -45 7.5t-39 19.5t-32.5 27t-25.5 30l-22 -73h-15v760h-64v10l95 30h10v-285zM231 20q33 0 61.5 14t50 40t34 62.5t12.5 81.5q0 48 -16.5 98.5t-51.5 91
t-89.5 66.5t-131.5 26v-410q21 -26 55 -48t76 -22z" />
    <glyph glyph-name="c" unicode="c" horiz-adv-x="512" 
d="M257 -11q-51 0 -91.5 21.5t-68.5 57.5t-43 83t-15 97q0 52 16 100.5t45 85.5t71 59t95 22q36 0 64.5 -8.5t49.5 -20.5t34.5 -25.5t20.5 -23.5l-59 -171h-15q19 53 19 97q0 57 -31 89t-91 32q-36 0 -69 -14t-58.5 -40.5t-40.5 -65t-15 -88.5q0 -60 16 -107.5t43 -80.5
t62 -50.5t73 -17.5q36 0 64 9.5t51 29t41.5 48.5t35.5 69h15q-12 -38 -30 -71.5t-45 -59.5t-62.5 -41t-81.5 -15z" />
    <glyph glyph-name="d" unicode="d" horiz-adv-x="459" 
d="M409 800v-800h-40q-98 0 -161.5 25.5t-101 65.5t-52.5 87.5t-15 92.5q0 40 11 83t34 79t59.5 59t87.5 23q24 0 44 -7t37.5 -19t31.5 -26.5t25 -29.5v327h-65v10l95 30h10zM80 282q0 -48 16.5 -94.5t51.5 -83.5t89.5 -61t131.5 -28v389q-10 14 -23.5 28t-30 25.5t-36 19
t-41.5 7.5q-33 0 -61.5 -15t-50 -41.5t-34 -63.5t-12.5 -82z" />
    <glyph glyph-name="e" unicode="e" 
d="M260 -11q-56 0 -97 25.5t-69 64t-41.5 84t-13.5 86.5q0 60 17.5 109t47.5 84t70.5 54t86.5 19q41 0 74.5 -15.5t57 -44t36.5 -69t13 -89.5v-15h-369v-6q0 -53 16 -100t43.5 -81.5t65 -54.5t79.5 -20q63 0 107.5 39t76.5 117h15q-12 -39 -31 -73t-46 -59.5t-61.5 -40
t-77.5 -14.5zM399 312q0 39 -10 70.5t-29 54t-45 35t-58 12.5q-38 0 -68.5 -13.5t-53.5 -36.5t-37.5 -54.5t-19.5 -67.5h321z" />
    <glyph glyph-name="f" unicode="f" horiz-adv-x="311" 
d="M37 10l65 16v449h-61v25h61v117q0 93 26 146t91 53q27 0 49 -8.5t39 -20.5t29 -25t19 -23l-59 -154h-15q20 53 25 91.5t-3 64t-27.5 37.5t-46.5 12q-49 0 -68 -43t-19 -125v-122h132v-25h-132v-449l65 -16v-10h-170v10z" />
    <glyph glyph-name="g" unicode="g" horiz-adv-x="511" 
d="M244 -206q-27 0 -50 5.5t-43.5 18t-40 34t-40.5 53.5h15q23 -29 43.5 -47t39 -27.5t35 -13t33.5 -3.5q66 0 100 39t34 96v51q-65 -15 -114.5 -10.5t-86.5 22.5t-61.5 47t-39.5 63.5t-21.5 71.5t-6.5 72q0 48 11.5 92.5t34.5 79.5t58 56t83 21q27 0 48 -7t38.5 -18t31 -26
t25.5 -30v66h10l95 -30v-10h-64v-493q0 -51 -14.5 -84.5t-37.5 -53t-53.5 -27.5t-61.5 -8zM370 405q-11 15 -24.5 29t-30 25t-36 18t-42.5 7q-32 0 -60.5 -14t-49.5 -41t-33.5 -66t-12.5 -89q0 -55 16.5 -109t52 -93t90 -56.5t130.5 -0.5v390z" />
    <glyph glyph-name="h" unicode="h" horiz-adv-x="541" 
d="M36 10l65 16v734h-65v10l95 30h10v-419q5 15 17.5 38t34 44t52.5 36.5t73 15.5q55 0 88.5 -34t33.5 -116v-339l65 -16v-10h-170v10l65 16v309q0 83 -27.5 116t-81.5 33q-26 0 -50.5 -13.5t-45 -35t-34.5 -48.5t-20 -54v-307l65 -16v-10h-170v10z" />
    <glyph glyph-name="i" unicode="i" horiz-adv-x="243" 
d="M115 641q-18 0 -29.5 12t-11.5 30t11.5 30t29.5 12t29.5 -12t11.5 -30t-11.5 -30t-29.5 -12zM37 10l65 16v434h-65v10l95 30h10v-474l65 -16v-10h-170v10z" />
    <glyph glyph-name="j" unicode="j" horiz-adv-x="191" 
d="M115 641q-18 0 -29.5 12t-11.5 30t11.5 30t29.5 12t29.5 -12t11.5 -30t-11.5 -30t-29.5 -12zM40 -206q-35 0 -64 21.5t-40 49.5h15q15 -24 35 -37.5t43 -13.5q33 0 52.5 29t19.5 80v537h-65v10l95 30h10v-580q0 -32 -8.5 -56t-23 -39.5t-32.5 -23t-37 -7.5z" />
    <glyph glyph-name="k" unicode="k" horiz-adv-x="523" 
d="M487 10v-10h-195v10l82 16l-157 232l-86 -110v-122l65 -16v-10h-170v10l65 16v734h-65v10l95 30h10v-612l224 282l-91 20v10h195v-10l-79 -22l-134 -173l182 -269z" />
    <glyph glyph-name="l" unicode="l" horiz-adv-x="222" 
d="M26 10l65 16v734h-65v10l95 30h10v-774l65 -16v-10h-170v10z" />
    <glyph glyph-name="m" unicode="m" horiz-adv-x="801" 
d="M37 10l65 16v436l-65 -2v10l95 30h10v-119q4 14 16.5 36.5t33.5 44.5t50 37.5t67 15.5q48 0 76 -29t35 -91q7 17 20.5 38t33.5 39t47 30.5t60 12.5q55 0 87 -34t32 -116v-339l65 -16v-10h-169v10l64 16v309q0 82 -26.5 115.5t-70.5 33.5q-23 0 -44.5 -10.5t-40 -27.5
t-33.5 -40t-24 -48v-332l65 -16v-10h-170v10l65 16v309q0 41 -7 69.5t-19 46t-28.5 25.5t-35.5 8q-26 0 -50.5 -13t-44 -34.5t-34 -48.5t-20.5 -55v-307l65 -16v-10h-170v10z" />
    <glyph glyph-name="n" unicode="n" horiz-adv-x="542" 
d="M37 10l65 16v434h-65v10l95 30h10v-120q5 15 17.5 38t34 44.5t52.5 37t73 15.5q55 0 88.5 -34t33.5 -116v-339l65 -16v-10h-170v10l64 16v309q0 83 -27 116t-81 33q-26 0 -50.5 -13.5t-45 -35.5t-34.5 -48.5t-20 -53.5v-307l65 -16v-10h-170v10z" />
    <glyph glyph-name="o" unicode="o" horiz-adv-x="528" 
d="M266 -11q-57 0 -99.5 25t-71 63t-42.5 84.5t-14 88.5q0 44 13.5 91t41.5 85.5t71.5 63.5t104.5 25q57 0 98.5 -25t68.5 -63t39.5 -83.5t12.5 -86.5q0 -42 -13 -89t-40.5 -86.5t-69.5 -66t-100 -26.5zM279 20q36 0 67 17.5t53.5 47.5t35.5 70.5t13 87.5q0 46 -13 89.5
t-37 77.5t-59 54t-79 20q-42 0 -76.5 -16.5t-58.5 -46t-37 -69t-13 -85.5t14.5 -90t41.5 -79t64.5 -56.5t83.5 -21.5z" />
    <glyph glyph-name="p" unicode="p" horiz-adv-x="511" 
d="M36 -190l65 16v634h-65v13l95 30q52 12 96 12q72 0 119.5 -27.5t75 -68.5t38.5 -90t11 -91q0 -49 -11 -94t-34 -79.5t-59.5 -55t-87.5 -20.5q-24 0 -44 7t-37.5 18t-31.5 25t-25 29v-242l65 -16v-10h-170v10zM272 20q33 0 61.5 12t50 39t34 69.5t12.5 104.5
q0 37 -12.5 80.5t-39.5 80.5t-68.5 61.5t-99.5 24.5q-32 0 -69 -9v-394q22 -26 56 -47.5t75 -21.5z" />
    <glyph glyph-name="q" unicode="q" horiz-adv-x="511" 
d="M305 -190l65 16v173q-46 -10 -87 -10q-72 0 -119 27t-74.5 67.5t-38.5 89t-11 90.5q0 49 11 94.5t34 80.5t59.5 56t87.5 21q24 0 44 -7t37.5 -18.5t31.5 -26t25 -29.5v66h10l95 -30v-10h-65v-634l65 -16v-10h-170v10zM300 12q32 0 70 9v384q-10 14 -23.5 28t-30 25.5
t-36 18.5t-41.5 7q-33 0 -61.5 -12.5t-50 -40t-34 -71t-12.5 -104.5q0 -38 12.5 -80.5t39 -79t68 -60.5t99.5 -24z" />
    <glyph glyph-name="r" unicode="r" horiz-adv-x="401" 
d="M37 10l65 16v434h-65v10l95 30h10v-144h1q6 25 18 53.5t28.5 51.5t38 38.5t48.5 15.5q20 0 35 -6.5t26 -16t18.5 -20.5t13.5 -20l-58 -150h-15q11 29 17 56t6 51q0 35 -12.5 57t-40.5 22q-25 0 -46 -23.5t-37.5 -58.5t-27 -76t-13.5 -77v-227l65 -16v-10h-170v10z" />
    <glyph glyph-name="s" unicode="s" horiz-adv-x="410" 
d="M205 -11q-35 0 -62.5 8.5t-48 21t-35 26.5t-23.5 25l48 134h14q-13 -38 -13 -76q0 -46 27.5 -78.5t92.5 -32.5q33 0 60.5 9t47 24t30 35.5t10.5 43.5q0 24 -12 41t-34.5 30t-54.5 24.5t-72 23.5q-57 18 -89.5 50.5t-32.5 87.5q0 33 11.5 57t32 40t47 24t56.5 8t54 -7
t42.5 -17.5t32.5 -23t23 -23.5l-37 -109h-15q9 28 9 51q0 48 -32.5 74t-80.5 26q-23 0 -45 -6.5t-39 -18.5t-27 -29.5t-10 -40.5q0 -35 28 -56.5t95 -41.5q32 -10 62.5 -19t54 -24t38 -39.5t14.5 -65.5q0 -39 -13 -68.5t-35.5 -49t-53 -29t-65.5 -9.5z" />
    <glyph glyph-name="t" unicode="t" horiz-adv-x="317" 
d="M182 -11q-45 0 -67.5 33t-22.5 113v340h-76v10l77 15l24 170h15v-170h132v-25h-132v-335q0 -69 16 -97t52 -28q9 0 19.5 2.5t22 11t23 24.5t21.5 43h15q-16 -56 -47 -81.5t-72 -25.5z" />
    <glyph glyph-name="u" unicode="u" horiz-adv-x="521" 
d="M217 -11q-25 0 -46 7.5t-36.5 26.5t-24.5 51t-9 81v305h-65v10l95 30h10v-332q0 -81 25.5 -114.5t69.5 -33.5q27 0 49.5 11t40.5 28.5t31.5 40t22.5 45.5v315h-65v10l95 30h10v-460h65v-10l-95 -30h-10v105q-8 -17 -21.5 -37.5t-33 -38t-46.5 -29t-62 -11.5z" />
    <glyph glyph-name="v" unicode="v" horiz-adv-x="604" 
d="M108 467l-72 23v10h195v-10l-79 -23l158 -418l144 418l-81 23v10h195v-10l-84 -23l-168 -467h-30z" />
    <glyph glyph-name="w" unicode="w" horiz-adv-x="834" 
d="M110 467l-74 23v10h195v-10l-77 -23l120 -412l129 445h35l126 -445l120 412l-81 23v10h195v-10l-86 -23l-139 -467h-30l-130 451l-130 -451h-30z" />
    <glyph glyph-name="x" unicode="x" horiz-adv-x="555" 
d="M36 10l61 16l153 226l-145 215l-64 23v10h195v-10l-77 -23l122 -180l114 180l-99 23v10h195v-10l-67 -23l-128 -203l164 -238l59 -16v-10h-195v10l82 16l-140 203l-141 -203l106 -16v-10h-195v10z" />
    <glyph glyph-name="y" unicode="y" horiz-adv-x="594" 
d="M152 -206q-33 0 -57.5 22t-44.5 54h15q22 -32 41 -45t36 -13q19 0 39.5 14.5t39.5 40t35.5 60t29.5 73.5l-178 467l-72 23v10h195v-10l-79 -23l158 -418l144 418l-81 23v10h195v-10l-84 -23l-154 -429q-26 -72 -49.5 -119.5t-45 -75t-42 -38.5t-41.5 -11z" />
    <glyph glyph-name="z" unicode="z" horiz-adv-x="428" 
d="M391 155q-6 -26 -11.5 -46t-10 -37t-8 -34t-5.5 -38h-315l-5 10l277 460h-186l-70 -130h-10q6 28 11.5 49t10 38.5t8 34.5t5.5 38h285l5 -10l-274 -460h213l70 125h10z" />
    <glyph glyph-name="braceleft" unicode="{" horiz-adv-x="316" 
d="M239 -60q-75 0 -108.5 36t-33.5 104v196q0 44 -16.5 62t-31.5 18h-3v44h3q15 0 31.5 18t16.5 62v196q0 68 33.5 104t108.5 36h28v-10h-22q-33 0 -53.5 -13.5t-31.5 -36.5t-15 -52.5t-4 -62.5v-141q0 -51 -14.5 -80.5t-38.5 -36.5v-10q24 -6 38.5 -34.5t14.5 -82.5v-141
q0 -33 4 -62.5t15 -52.5t31.5 -36.5t53.5 -13.5h22v-10h-28v0z" />
    <glyph glyph-name="bar" unicode="|" horiz-adv-x="317" 
d="M61 -190l75 35v900l-75 45v10h195v-10l-75 -45v-900l75 -35v-10h-195v10z" />
    <glyph glyph-name="braceright" unicode="}" horiz-adv-x="313" 
d="M46 -50h22q33 0 53.5 13.5t31.5 36.5t15 52.5t4 62.5v141q0 54 14.5 82.5t38.5 34.5v10q-24 7 -38.5 36.5t-14.5 80.5v141q0 33 -4 62.5t-15 52.5t-31.5 36.5t-53.5 13.5h-22v10h28q75 0 108.5 -36t33.5 -104v-196q0 -44 16.5 -62t31.5 -18h3v-44h-3q-15 0 -31.5 -18
t-16.5 -62v-196q0 -68 -33.5 -104t-108.5 -36h-28v10z" />
    <glyph glyph-name="asciitilde" unicode="~" horiz-adv-x="464" 
d="M63 245q1 42 24.5 66t65.5 24q27 0 47 -9t38 -19.5t37 -19t43 -8.5q10 0 22 2.5t22 9t16.5 17.5t7.5 29h15q-2 -42 -25.5 -66t-67.5 -24q-28 0 -48.5 8.5t-38 19t-35.5 19.5t-40 9q-10 0 -21.5 -2.5t-21.5 -9t-17 -17.5t-8 -29h-15v0z" />
    <glyph glyph-name="exclamdown" unicode="&#xa1;" horiz-adv-x="206" 
d="M103 800q21 0 34 -13t13 -33t-13 -34t-34 -14t-34 14t-13 34t13 33t34 13zM110 641q1 -22 3 -71.5t4.5 -111t5 -128.5t4.5 -124t3.5 -97.5t1.5 -48.5q0 -44 -8 -57.5t-21 -13.5t-21 13.5t-8 57.5q0 9 1.5 49t3.5 97t4.5 124t5 128.5t4.5 111t3 71.5h14z" />
    <glyph glyph-name="cent" unicode="&#xa2;" horiz-adv-x="594" 
d="M528 311q-11 -36 -28.5 -68.5t-42.5 -57.5t-58.5 -41t-77.5 -19v-125h-45v125q-51 5 -90 28t-65 58.5t-39.5 80.5t-13.5 94q0 51 14 95.5t41 79t65.5 57t87.5 29.5v153h45v-150q39 0 68.5 -9t51 -21t35.5 -25t21 -23l-59 -171h-15q19 55 19 95q0 56 -33 89.5t-104 33.5
q-39 0 -75.5 -12t-64.5 -37.5t-44.5 -64.5t-16.5 -94q0 -60 16.5 -107.5t45 -80.5t68 -50.5t84.5 -17.5q37 0 65.5 9.5t52 29t42 48.5t35.5 69h15v0z" />
    <glyph glyph-name="sterling" unicode="&#xa3;" horiz-adv-x="562" 
d="M516 155q-6 -26 -11.5 -46t-10 -37t-8 -34t-5.5 -38h-435v15q106 17 154.5 75t48.5 139q0 56 -21 118q0 1 -0.5 1.5t-0.5 1.5h-156v32h144q-11 27 -24.5 57.5t-25 63.5t-19.5 66.5t-8 66.5q0 63 31.5 97.5t92.5 34.5q33 0 60.5 -10.5t48.5 -24t34 -25.5t16 -16v-172h-20
q0 57 -13 99t-34 69t-46.5 40t-50.5 13q-39 0 -62.5 -28t-23.5 -79t22.5 -111.5t54.5 -140.5h176v-32h-163q11 -29 16.5 -58.5t5.5 -57.5q0 -63 -26.5 -116.5t-77.5 -82.5v-5h262l65 125h10z" />
    <glyph glyph-name="currency" unicode="&#xa4;" horiz-adv-x="589" 
d="M489 377q0 -91 -47 -147l81 -97l-18 -15l-79 95q-23 -21 -53.5 -32.5t-66.5 -11.5q-83 0 -134 54l-88 -105l-18 15l91 108q-18 25 -28 57.5t-10 71.5q0 45 13 82.5t37 63.5l-103 123l18 15l102 -121q50 42 124 42q60 0 103 -31l92 110l18 -15l-92 -109q28 -26 43 -65
t15 -88zM319 200q58 0 93.5 44.5t35.5 118.5q0 82 -40.5 131.5t-107.5 49.5q-66 0 -105.5 -43t-39.5 -114q0 -42 12 -76.5t33.5 -59t51.5 -38t67 -13.5z" />
    <glyph glyph-name="yen" unicode="&#xa5;" horiz-adv-x="669" 
d="M603 760v-10l-73 -24l-158 -374h139v-32h-150v-68h150v-32h-150v-194l75 -16v-10h-195v10l75 16v194h-158v32h158v68h-158v32h143l-166 374l-69 24v10h185v-10l-71 -24l172 -374l154 374l-98 24v10h195z" />
    <glyph glyph-name="brokenbar" unicode="&#xa6;" horiz-adv-x="323" 
d="M64 390l75 35v320l-75 45v10h195v-10l-75 -45v-320l75 -35v-10h-195v10zM64 -190l75 35v320l-75 45v10h195v-10l-75 -45v-320l75 -35v-10h-195v10z" />
    <glyph glyph-name="section" unicode="&#xa7;" horiz-adv-x="461" 
d="M230 -11q-35 0 -62.5 8.5t-48 21t-35 26.5t-23.5 25l48 134h15q-14 -40 -14 -76q0 -46 27.5 -78.5t92.5 -32.5q33 0 60.5 9t47 24t30 35.5t10.5 43.5q0 24 -12 41t-34.5 30t-54.5 24t-72 24q-51 17 -84.5 47.5t-33.5 84.5q0 26 8.5 47t22.5 36.5t32.5 26.5t39.5 18v4
q-42 17 -67.5 49t-25.5 80q0 31 11 55t30 40t44 24t53 8t51.5 -7.5t42 -18.5t32 -23t21.5 -22l-37 -109h-15q9 28 9 51q0 48 -31 74t-75 26q-21 0 -42 -6.5t-38 -18.5t-27.5 -29.5t-10.5 -40.5q0 -38 30 -59.5t83 -38.5q30 -9 60 -17.5t54 -23.5t39.5 -40t15.5 -67
q0 -48 -20 -81.5t-56 -50.5v-4q35 -16 55.5 -42t20.5 -75q0 -39 -13 -68.5t-35.5 -49t-53 -29t-65.5 -9.5zM283 277q45 11 70 40t25 65q0 38 -33.5 63t-109.5 45q-26 0 -49.5 -7t-41.5 -20t-28.5 -31.5t-10.5 -41.5q0 -35 29 -56.5t94 -40.5z" />
    <glyph glyph-name="dieresis" unicode="&#xa8;" horiz-adv-x="600" 
d="M87 629q-17 0 -27.5 10.5t-10.5 27.5t10.5 28t27.5 11q18 0 28.5 -11t10.5 -28t-10.5 -27.5t-28.5 -10.5zM217 629q-17 0 -27.5 10.5t-10.5 27.5t10.5 28t27.5 11q18 0 28.5 -11t10.5 -28t-10.5 -27.5t-28.5 -10.5z" />
    <glyph glyph-name="copyright" unicode="&#xa9;" horiz-adv-x="901" 
d="M451 -11q-81 0 -151.5 30.5t-123 83t-83 123.5t-30.5 151t30.5 150.5t83 123t123 83t151.5 30.5q80 0 150.5 -30.5t123 -83t83 -123t30.5 -150.5t-30.5 -151t-83 -123.5t-123 -83t-150.5 -30.5zM451 17q74 0 139.5 28.5t114 77t77 114t28.5 140.5q0 74 -28.5 139.5
t-77 114t-114 77t-139.5 28.5q-75 0 -140.5 -28.5t-114 -77t-77 -114t-28.5 -139.5q0 -75 28.5 -140.5t77 -114t114 -77t140.5 -28.5zM453 144q-53 0 -92.5 21t-65.5 54.5t-39 74t-13 79.5q0 41 14 83t41.5 76.5t68.5 56t95 21.5q34 0 61 -8.5t48 -20.5t35 -25.5t22 -23.5
l-59 -171h-15q18 50 19 90.5t-13 69t-41.5 43.5t-66.5 15q-36 0 -67.5 -13t-55 -37t-37 -58.5t-13.5 -77.5q0 -45 14.5 -84.5t39 -69t58 -47t71.5 -17.5q36 0 64 9.5t51 29t41.5 48.5t35.5 69h15q-12 -38 -30.5 -72t-45.5 -59.5t-62 -40.5t-78 -15z" />
    <glyph glyph-name="ordfeminine" unicode="&#xaa;" horiz-adv-x="381" 
d="M133 348q-48 0 -77 28.5t-29 76.5q0 34 14 58.5t43 43t74 32t107 25.5v24q0 33 -8 55t-20.5 35.5t-29 19t-33.5 5.5q-43 0 -71 -29.5t-28 -74.5q0 -25 8 -46h-15l-34 102q7 9 18.5 20.5t29 21.5t41.5 17t57 7q64 0 93.5 -28.5t29.5 -89.5v-262h52v-8l-78 -24h-12v84
q-6 -13 -17 -29t-27 -30.5t-38 -24t-50 -9.5zM142 375q22 0 41 10t34.5 26t27.5 34.5t20 35.5v108q-18 -3 -51 -9t-65.5 -20t-56 -38.5t-23.5 -64.5q0 -34 18.5 -58t54.5 -24z" />
    <glyph glyph-name="guillemotleft" unicode="&#xab;" horiz-adv-x="462" 
d="M237 71l-191 186v6l191 185h15q-41 -48 -81.5 -94t-85.5 -94q45 -48 85.5 -94.5t81.5 -94.5h-15zM400 71l-191 186v6l191 185h15q-41 -48 -81.5 -94t-85.5 -94q45 -48 85.5 -94.5t81.5 -94.5h-15z" />
    <glyph glyph-name="logicalnot" unicode="&#xac;" horiz-adv-x="479" 
d="M384 265h-321v32h353v-193h-32v161z" />
    <glyph glyph-name="uni00AD" unicode="&#xad;" horiz-adv-x="353" 
d="M50 300h253v-38h-253v38z" />
    <glyph glyph-name="registered" unicode="&#xae;" horiz-adv-x="619" 
d="M310 259q-51 0 -96 19.5t-78 52.5t-52.5 78t-19.5 96t19.5 95.5t52.5 77.5t78 52.5t96 19.5t95.5 -19.5t77.5 -52.5t52.5 -77.5t19.5 -95.5t-19.5 -96t-52.5 -78t-77.5 -52.5t-95.5 -19.5zM310 283q46 0 86 17.5t70 47.5t47.5 70.5t17.5 86.5t-17.5 86t-47.5 70t-70 47.5
t-86 17.5t-86.5 -17.5t-70.5 -47.5t-47.5 -70t-17.5 -86t17.5 -86.5t47.5 -70.5t70.5 -47.5t86.5 -17.5zM207 371q20 3 24.5 7t4.5 18v242l-29 18v4h123q44 0 65 -22t21 -51q0 -30 -19.5 -53.5t-59.5 -23.5l51 -117q6 -13 17 -17t25 -5v-8h-87v8q11 2 18.5 3.5t0.5 16.5
l-52 119h-50v-114q0 -14 4 -18t21 -7v-8h-78v8zM329 527q38 0 50 17.5t12 42.5q0 22 -17 39t-55 17h-59v-116h69z" />
    <glyph glyph-name="macron" unicode="&#xaf;" horiz-adv-x="600" 
d="M30 680h263v-38h-263v38z" />
    <glyph glyph-name="degree" unicode="&#xb0;" horiz-adv-x="319" 
d="M160 549q-20 0 -37 7.5t-29.5 20.5t-20 30t-7.5 36t7.5 36t20 29.5t29.5 20t37 7.5q19 0 35.5 -7.5t29.5 -20t20.5 -29.5t7.5 -36t-7.5 -36t-20.5 -30t-29.5 -20.5t-35.5 -7.5zM160 577q26 0 45.5 19.5t19.5 46.5t-19.5 46t-45.5 19q-28 0 -47 -19t-19 -46t19 -46.5
t47 -19.5z" />
    <glyph glyph-name="plusminus" unicode="&#xb1;" horiz-adv-x="479" 
d="M416 295v-32h-160v-160h-32v160h-161v32h161v161h32v-161h160zM63 32h353v-32h-353v32z" />
    <glyph glyph-name="uni00B2" unicode="&#xb2;" horiz-adv-x="331" 
d="M23 409q33 6 70.5 34t69.5 67.5t53 85.5t21 87q0 22 -6.5 41t-17.5 33t-27 22t-35 8q-21 0 -37.5 -9.5t-28.5 -25t-18 -35.5t-6 -41q0 -14 2.5 -36t5.5 -35h-18l-22 105q7 17 17.5 33.5t26 30t36.5 21.5t49 8q18 0 38 -4.5t37.5 -17t29 -35.5t11.5 -59q0 -49 -20.5 -90.5
t-49.5 -75t-59.5 -59t-51.5 -42.5h161l43 65h11q-6 -27 -12 -43t-8 -38h-265v5z" />
    <glyph glyph-name="uni00B3" unicode="&#xb3;" horiz-adv-x="326" 
d="M176 615q21 3 43.5 -1t41 -15.5t30 -30t11.5 -44.5q0 -27 -12 -50t-32.5 -40t-48 -26.5t-58.5 -9.5q-20 0 -41 4.5t-38.5 12.5t-30.5 19.5t-18 26.5l18 82h19q-4 -14 -6 -29.5t-2 -25.5q0 -23 10.5 -38t26 -23.5t33.5 -11.5t33 -3q54 0 82 31.5t28 79.5q0 38 -19.5 59
t-61.5 21q-11 0 -33.5 -6t-36.5 -16v22q63 24 93 51.5t30 62.5q0 29 -20.5 48.5t-62.5 19.5q-16 0 -31.5 -3.5t-27.5 -11.5t-19 -20t-7 -30q0 -11 3 -28t11 -43h-19l-30 83q6 9 17 21t26.5 23.5t36 19t45.5 7.5q20 0 40.5 -4.5t37 -14.5t27 -25.5t10.5 -36.5
q0 -32 -25 -59.5t-73 -47.5z" />
    <glyph glyph-name="acute" unicode="&#xb4;" horiz-adv-x="600" 
d="M27 575q27 55 48.5 91.5t38.5 58t29.5 30t20.5 8.5q16 0 16 -15q0 -12 -13.5 -32.5t-34.5 -44.5t-45.5 -49.5t-46.5 -46.5h-13v0z" />
    <glyph glyph-name="uni00B5" unicode="&#xb5;" horiz-adv-x="521" 
d="M37 -180l65 16v624h-66v10l95 30h10v-332q0 -81 25.5 -114.5t69.5 -33.5q27 0 49.5 11t40.5 28.5t31.5 40t22.5 45.5v315h-65v10l95 30h10v-460h65v-10l-95 -30h-10v105q-8 -17 -20.5 -37.5t-30.5 -38t-42.5 -29t-57.5 -11.5q-24 0 -46.5 9t-40.5 35v-197l65 -16v-10
h-170v10z" />
    <glyph glyph-name="paragraph" unicode="&#xb6;" horiz-adv-x="718" 
d="M268 10l75 16v344h-39q-46 0 -89.5 11.5t-77 36t-54 62.5t-20.5 90q0 46 20.5 81.5t54 59.5t77 36.5t89.5 12.5h353v-10l-75 -30v-694l75 -16v-10h-389v10zM537 26v694h-149v-694h149z" />
    <glyph glyph-name="periodcentered" unicode="&#xb7;" horiz-adv-x="220" 
d="M110 209q-21 0 -34 13t-13 33t13 34t34 14t34 -14t13 -34t-13 -33t-34 -13z" />
    <glyph glyph-name="cedilla" unicode="&#xb8;" horiz-adv-x="600" 
d="M95 -204q-15 0 -30 4.5t-28 12.5v8q28 -11 52 -11q26 0 43 12.5t17 38.5q0 20 -17.5 36t-55.5 16v19l46 81h17l-40 -70q40 0 58 -19.5t18 -45.5q0 -14 -5.5 -28.5t-15.5 -26.5t-25 -19.5t-34 -7.5z" />
    <glyph glyph-name="uni00B9" unicode="&#xb9;" horiz-adv-x="212" 
d="M72 409l43 16v336l-92 -104v12l88 130h78v-5l-43 -19v-350l43 -16v-5h-117v5z" />
    <glyph glyph-name="ordmasculine" unicode="&#xba;" horiz-adv-x="422" 
d="M213 348q-47 0 -81.5 20t-57.5 51t-34.5 68t-11.5 70q0 35 10.5 72.5t33.5 68.5t58.5 51t85.5 20q47 0 80.5 -20t55.5 -50.5t32 -66.5t10 -69t-10.5 -70.5t-32.5 -70t-56 -53.5t-82 -21zM223 373q28 0 52 13.5t42 37.5t28 56.5t10 70.5t-10.5 73t-29.5 61.5t-46 42.5
t-61 16q-33 0 -60 -13t-46 -36.5t-29 -55t-10 -68.5t11.5 -72.5t32.5 -63.5t50.5 -45t65.5 -17z" />
    <glyph glyph-name="guillemotright" unicode="&#xbb;" horiz-adv-x="462" 
d="M47 71q41 48 81.5 94.5t85.5 94.5q-45 48 -85.5 94t-81.5 94h15l191 -185v-6l-191 -186h-15zM210 71q41 48 81.5 94.5t85.5 94.5q-45 48 -85.5 94t-81.5 94h15l191 -185v-6l-191 -186h-15z" />
    <glyph glyph-name="onequarter" unicode="&#xbc;" horiz-adv-x="679" 
d="M72 409l43 16v336l-92 -104v12l88 130h78v-5l-43 -19v-350l43 -16v-5h-117v5zM570 760h32l-530 -760h-30zM528 5l43 19v75h-196v10l191 286h79v-5l-43 -19v-249l54 -18v-5h-54v-75l43 -19v-5h-117v5zM571 114v257l-172 -257h172z" />
    <glyph glyph-name="onehalf" unicode="&#xbd;" horiz-adv-x="723" 
d="M72 409l43 16v336l-92 -104v12l88 130h78v-5l-43 -19v-350l43 -16v-5h-117v5zM570 760h32l-530 -760h-30zM415 5q33 6 70.5 34t69.5 67.5t53 85.5t21 87q0 22 -6.5 41t-17.5 33t-27 22t-35 8q-21 0 -37.5 -9.5t-28.5 -25t-18 -35.5t-6 -41q0 -14 2.5 -36t5.5 -35h-18
l-22 105q7 17 17.5 33.5t26 30t36.5 21.5t49 8q18 0 38 -4.5t37.5 -17t29 -35.5t11.5 -59q0 -49 -20.5 -90.5t-49.5 -75t-59.5 -59t-51.5 -42.5h161l43 65h11q-6 -27 -12 -43t-8 -38h-265v5z" />
    <glyph glyph-name="threequarters" unicode="&#xbe;" horiz-adv-x="773" 
d="M302 524q0 -27 -12 -50t-32.5 -40t-48 -26.5t-58.5 -9.5q-20 0 -41 4.5t-38.5 12.5t-30.5 19.5t-18 26.5l18 82h19q-4 -14 -6 -29.5t-2 -25.5q0 -23 10.5 -38t26 -23.5t33.5 -11.5t33 -3q54 0 82 31.5t28 79.5q0 38 -19.5 59t-61.5 21q-11 0 -33.5 -6t-36.5 -16v22
q63 24 93 51.5t30 62.5q0 29 -20.5 48.5t-62.5 19.5q-16 0 -31.5 -3.5t-27.5 -11.5t-19 -20t-7 -30q0 -11 3 -28t11 -43h-19l-30 83q6 9 17 21t26.5 23.5t36 19t45.5 7.5q20 0 40.5 -4.5t37 -14.5t27 -25.5t10.5 -36.5q0 -32 -25 -59.5t-73 -47.5q21 3 43.5 -1t41 -15.5
t30 -30t11.5 -44.5zM696 760l-530 -760h-30l528 760h32zM696 99v-75l43 -19v-5h-117v5l43 19v75h-196v10l191 286h79v-5l-43 -19v-249l54 -18v-5h-54zM665 371l-172 -257h172v257z" />
    <glyph glyph-name="questiondown" unicode="&#xbf;" horiz-adv-x="483" 
d="M264 815q21 0 34 -13t13 -33t-13 -34t-34 -14t-34 14t-13 34t13 33t34 13zM272 654q6 -48 6 -81q0 -29 -4 -50.5t-13.5 -42t-24.5 -43t-36 -52.5q-17 -23 -32.5 -47t-28 -50t-20 -55t-7.5 -62q0 -41 11.5 -69.5t30.5 -46.5t43 -26t49 -8q60 0 97 41.5t37 120.5
q0 13 -1 31t-3 37.5t-4.5 37.5t-5.5 32h15l46 -202q-9 -26 -26 -49.5t-41.5 -41.5t-55.5 -28.5t-67 -10.5q-27 0 -58 7.5t-58 28t-45 56.5t-18 93q0 48 14.5 88t48.5 87q29 41 55 68t45 57t30 70.5t11 109.5h10z" />
    <glyph glyph-name="Agrave" unicode="&#xc0;" horiz-adv-x="891" 
d="M432 810q-22 21 -46.5 46.5t-45.5 49.5t-34.5 44.5t-13.5 32.5q0 15 16 15q8 0 20.5 -8.5t29.5 -30t38.5 -58t48.5 -91.5h-13zM48 10l74 26l301 732h30l319 -732l71 -26v-10h-195v10l69 26l-131 307h-306l-123 -307l86 -26v-10h-195v10zM573 373l-145 339l-136 -339h281z
" />
    <glyph glyph-name="Aacute" unicode="&#xc1;" horiz-adv-x="891" 
d="M416 810q27 55 48.5 91.5t38.5 58t29.5 30t20.5 8.5q16 0 16 -15q0 -12 -13.5 -32.5t-34.5 -44.5t-45.5 -49.5t-46.5 -46.5h-13zM48 10l74 26l301 732h30l319 -732l71 -26v-10h-195v10l69 26l-131 307h-306l-123 -307l86 -26v-10h-195v10zM573 373l-145 339l-136 -339
h281z" />
    <glyph glyph-name="Acircumflex" unicode="&#xc2;" horiz-adv-x="891" 
d="M315 810q32 56 52 92.5t33.5 57.5t22.5 29.5t18 8.5t18 -8.5t22.5 -29.5t33 -57.5t51.5 -92.5h-13q-31 37 -61 72.5t-51 68.5q-21 -33 -51 -68.5t-62 -72.5h-13zM48 10l74 26l301 732h30l319 -732l71 -26v-10h-195v10l69 26l-131 307h-306l-123 -307l86 -26v-10h-195v10z
M573 373l-145 339l-136 -339h281z" />
    <glyph glyph-name="Atilde" unicode="&#xc3;" horiz-adv-x="891" 
d="M319 839q5 46 26 70.5t52 24.5q21 0 35 -8.5t26.5 -18t24.5 -18t29 -8.5q43 0 61 63h8q-5 -46 -26 -70.5t-53 -24.5q-21 0 -35 8.5t-26.5 18t-24.5 18t-28 8.5q-43 0 -61 -63h-8zM48 10l74 26l301 732h30l319 -732l71 -26v-10h-195v10l69 26l-131 307h-306l-123 -307
l86 -26v-10h-195v10zM573 373l-145 339l-136 -339h281z" />
    <glyph glyph-name="Adieresis" unicode="&#xc4;" horiz-adv-x="891" 
d="M371 862q-17 0 -27.5 10.5t-10.5 27.5t10.5 28t27.5 11q18 0 28.5 -11t10.5 -28t-10.5 -27.5t-28.5 -10.5zM501 862q-17 0 -27.5 10.5t-10.5 27.5t10.5 28t27.5 11q18 0 28.5 -11t10.5 -28t-10.5 -27.5t-28.5 -10.5zM48 10l74 26l301 732h30l319 -732l71 -26v-10h-195v10
l69 26l-131 307h-306l-123 -307l86 -26v-10h-195v10zM573 373l-145 339l-136 -339h281z" />
    <glyph glyph-name="Aring" unicode="&#xc5;" horiz-adv-x="891" 
d="M436 832q-34 0 -57.5 24t-23.5 57t23.5 56.5t57.5 23.5q16 0 30.5 -6.5t25.5 -17t17.5 -25.5t6.5 -31q0 -17 -6.5 -31.5t-17.5 -25.5t-25.5 -17.5t-30.5 -6.5zM436 855q23 0 40 17.5t17 40.5t-17 40t-40 17q-24 0 -41 -17t-17 -40t17 -40.5t41 -17.5zM48 10l74 26
l301 732h30l319 -732l71 -26v-10h-195v10l69 26l-131 307h-306l-123 -307l86 -26v-10h-195v10zM573 373l-145 339l-136 -339h281z" />
    <glyph glyph-name="AE" unicode="&#xc6;" horiz-adv-x="948" 
d="M48 10l71 26l381 724h354q2 -21 5.5 -38t8 -34t10 -37t11.5 -46h-10l-65 125h-265v-306h185l25 85h10v-200h-10l-25 85h-185v-364h275l65 125h10q-6 -26 -11.5 -46t-10 -37t-8 -34t-5.5 -38h-435v10l75 26v307h-191l-159 -307l89 -26v-10h-195v10zM504 373v335h-2
l-173 -335h175z" />
    <glyph glyph-name="Ccedilla" unicode="&#xc7;" horiz-adv-x="816" 
d="M767 301q-18 -65 -49 -120t-74 -96.5t-97.5 -66t-118.5 -28.5l-27 -47q40 0 58 -19.5t18 -45.5q0 -14 -5.5 -28.5t-15.5 -26.5t-25 -19.5t-34 -7.5q-15 0 -30 4.5t-28 12.5v8q28 -11 52 -11q26 0 43 12.5t17 38.5q0 20 -17.5 36t-55.5 16v19l32 57h-4q-70 0 -134.5 25.5
t-113.5 74.5t-78 120t-29 162q0 86 29.5 159t81.5 126t122.5 82.5t153.5 29.5q54 0 96.5 -11.5t72.5 -26.5t47 -29t20 -19v-222h-15q0 76 -19.5 127.5t-51.5 83.5t-74 46t-88 14q-24 0 -57.5 -4.5t-70 -17t-73 -35t-65 -59t-46.5 -89t-18 -124.5q2 -106 35 -178t82 -116
t108 -63t113 -19q112 0 194 70.5t124 204.5h15v0z" />
    <glyph glyph-name="Egrave" unicode="&#xc8;" horiz-adv-x="568" 
d="M310 810q-22 21 -46.5 46.5t-45.5 49.5t-34.5 44.5t-13.5 32.5q0 15 16 15q8 0 20.5 -8.5t29.5 -30t38.5 -58t48.5 -91.5h-13zM49 10l75 26v684l-75 30v10h425q2 -21 5.5 -38t8 -34t10 -37t11.5 -46h-10l-65 125h-265v-306h185l25 85h10v-200h-10l-25 85h-185v-364h275
l65 125h10q-6 -26 -11.5 -46t-10 -37t-8 -34t-5.5 -38h-435v10z" />
    <glyph glyph-name="Eacute" unicode="&#xc9;" horiz-adv-x="568" 
d="M245 810q27 55 48.5 91.5t38.5 58t29.5 30t20.5 8.5q16 0 16 -15q0 -12 -13.5 -32.5t-34.5 -44.5t-45.5 -49.5t-46.5 -46.5h-13zM49 10l75 26v684l-75 30v10h425q2 -21 5.5 -38t8 -34t10 -37t11.5 -46h-10l-65 125h-265v-306h185l25 85h10v-200h-10l-25 85h-185v-364h275
l65 125h10q-6 -26 -11.5 -46t-10 -37t-8 -34t-5.5 -38h-435v10z" />
    <glyph glyph-name="Ecircumflex" unicode="&#xca;" horiz-adv-x="568" 
d="M158 810q32 56 52 92.5t33.5 57.5t22.5 29.5t18 8.5t18 -8.5t22.5 -29.5t33 -57.5t51.5 -92.5h-13q-31 37 -61 72.5t-51 68.5q-21 -33 -51 -68.5t-62 -72.5h-13zM49 10l75 26v684l-75 30v10h425q2 -21 5.5 -38t8 -34t10 -37t11.5 -46h-10l-65 125h-265v-306h185l25 85h10
v-200h-10l-25 85h-185v-364h275l65 125h10q-6 -26 -11.5 -46t-10 -37t-8 -34t-5.5 -38h-435v10z" />
    <glyph glyph-name="Edieresis" unicode="&#xcb;" horiz-adv-x="568" 
d="M219 860q-17 0 -27.5 10.5t-10.5 27.5t10.5 28t27.5 11q18 0 28.5 -11t10.5 -28t-10.5 -27.5t-28.5 -10.5zM349 860q-17 0 -27.5 10.5t-10.5 27.5t10.5 28t27.5 11q18 0 28.5 -11t10.5 -28t-10.5 -27.5t-28.5 -10.5zM49 10l75 26v684l-75 30v10h425q2 -21 5.5 -38t8 -34
t10 -37t11.5 -46h-10l-65 125h-265v-306h185l25 85h10v-200h-10l-25 85h-185v-364h275l65 125h10q-6 -26 -11.5 -46t-10 -37t-8 -34t-5.5 -38h-435v10z" />
    <glyph glyph-name="Igrave" unicode="&#xcc;" horiz-adv-x="310" 
d="M189 810q-22 21 -46.5 46.5t-45.5 49.5t-34.5 44.5t-13.5 32.5q0 15 16 15q8 0 20.5 -8.5t29.5 -30t38.5 -58t48.5 -91.5h-13zM66 0v10l75 26v684l-75 30v10h195v-10l-75 -30v-684l75 -26v-10h-195z" />
    <glyph glyph-name="Iacute" unicode="&#xcd;" horiz-adv-x="310" 
d="M108 810q27 55 48.5 91.5t38.5 58t29.5 30t20.5 8.5q16 0 16 -15q0 -12 -13.5 -32.5t-34.5 -44.5t-45.5 -49.5t-46.5 -46.5h-13zM49 10l75 26v684l-75 30v10h195v-10l-75 -30v-684l75 -26v-10h-195v10z" />
    <glyph glyph-name="Icircumflex" unicode="&#xce;" horiz-adv-x="293" 
d="M21 810q32 56 52 92.5t33.5 57.5t22.5 29.5t18 8.5t18 -8.5t22.5 -29.5t33 -57.5t51.5 -92.5h-13q-31 37 -61 72.5t-51 68.5q-21 -33 -51 -68.5t-62 -72.5h-13zM49 10l75 26v684l-75 30v10h195v-10l-75 -30v-684l75 -26v-10h-195v10z" />
    <glyph glyph-name="Idieresis" unicode="&#xcf;" horiz-adv-x="293" 
d="M82 860q-17 0 -27.5 10.5t-10.5 27.5t10.5 28t27.5 11q18 0 28.5 -11t10.5 -28t-10.5 -27.5t-28.5 -10.5zM212 860q-17 0 -27.5 10.5t-10.5 27.5t10.5 28t27.5 11q18 0 28.5 -11t10.5 -28t-10.5 -27.5t-28.5 -10.5zM49 10l75 26v684l-75 30v10h195v-10l-75 -30v-684
l75 -26v-10h-195v10z" />
    <glyph glyph-name="Eth" unicode="&#xd0;" horiz-adv-x="780" 
d="M384 760q82 0 148 -24t112 -72.5t70.5 -121t24.5 -169.5q0 -76 -24.5 -144t-70.5 -119t-111.5 -80.5t-147.5 -29.5h-336v10l75 26v325h-97v38h97v321l-75 30v10h335zM356 20q77 0 138 31t104 80.5t65.5 112t22.5 124.5q0 95 -22.5 165t-65.5 116t-104 68.5t-138 22.5
h-187v-341h101v-38h-101v-341h187z" />
    <glyph glyph-name="Ntilde" unicode="&#xd1;" horiz-adv-x="702" 
d="M219 829q5 46 26 70.5t52 24.5q21 0 35 -8.5t26.5 -18t24.5 -18t29 -8.5q43 0 61 63h8q-5 -46 -26 -70.5t-53 -24.5q-21 0 -35 8.5t-26.5 18t-24.5 18t-28 8.5q-43 0 -61 -63h-8zM49 10l75 26v684l-75 30v10h121l364 -629v589l-75 30v10h195v-10l-75 -30v-720h-25
l-384 669v-633l74 -26v-10h-195v10z" />
    <glyph glyph-name="Ograve" unicode="&#xd2;" horiz-adv-x="803" 
d="M438 810q-22 21 -46.5 46.5t-45.5 49.5t-34.5 44.5t-13.5 32.5q0 15 16 15q8 0 20.5 -8.5t29.5 -30t38.5 -58t48.5 -91.5h-13zM388 -11q-71 0 -134 28.5t-110 80t-75 123t-28 157.5q0 87 30.5 158.5t81.5 123t116.5 80t136.5 28.5q72 0 136.5 -29t113.5 -80t77.5 -120
t28.5 -149q0 -89 -31.5 -162.5t-83.5 -126.5t-119.5 -82.5t-139.5 -29.5zM410 26q30 0 63.5 7t67 23t64 41.5t54 63t37.5 87t14 114.5q0 93 -28 162.5t-73.5 115t-103 68.5t-117.5 23q-45 0 -97.5 -17t-98 -54.5t-76 -98.5t-30.5 -149q0 -101 31 -173.5t78.5 -120t104.5 -70
t110 -22.5z" />
    <glyph glyph-name="Oacute" unicode="&#xd3;" horiz-adv-x="803" 
d="M363 810q27 55 48.5 91.5t38.5 58t29.5 30t20.5 8.5q16 0 16 -15q0 -12 -13.5 -32.5t-34.5 -44.5t-45.5 -49.5t-46.5 -46.5h-13zM388 -11q-71 0 -134 28.5t-110 80t-75 123t-28 157.5q0 87 30.5 158.5t81.5 123t116.5 80t136.5 28.5q72 0 136.5 -29t113.5 -80t77.5 -120
t28.5 -149q0 -89 -31.5 -162.5t-83.5 -126.5t-119.5 -82.5t-139.5 -29.5zM410 26q30 0 63.5 7t67 23t64 41.5t54 63t37.5 87t14 114.5q0 93 -28 162.5t-73.5 115t-103 68.5t-117.5 23q-45 0 -97.5 -17t-98 -54.5t-76 -98.5t-30.5 -149q0 -101 31 -173.5t78.5 -120t104.5 -70
t110 -22.5z" />
    <glyph glyph-name="Ocircumflex" unicode="&#xd4;" horiz-adv-x="803" 
d="M276 810q32 56 52 92.5t33.5 57.5t22.5 29.5t18 8.5t18 -8.5t22.5 -29.5t33 -57.5t51.5 -92.5h-13q-31 37 -61 72.5t-51 68.5q-21 -33 -51 -68.5t-62 -72.5h-13zM388 -11q-71 0 -134 28.5t-110 80t-75 123t-28 157.5q0 87 30.5 158.5t81.5 123t116.5 80t136.5 28.5
q72 0 136.5 -29t113.5 -80t77.5 -120t28.5 -149q0 -89 -31.5 -162.5t-83.5 -126.5t-119.5 -82.5t-139.5 -29.5zM410 26q30 0 63.5 7t67 23t64 41.5t54 63t37.5 87t14 114.5q0 93 -28 162.5t-73.5 115t-103 68.5t-117.5 23q-45 0 -97.5 -17t-98 -54.5t-76 -98.5t-30.5 -149
q0 -101 31 -173.5t78.5 -120t104.5 -70t110 -22.5z" />
    <glyph glyph-name="Otilde" unicode="&#xd5;" horiz-adv-x="803" 
d="M269 829q5 46 26 70.5t52 24.5q21 0 35 -8.5t26.5 -18t24.5 -18t29 -8.5q43 0 61 63h8q-5 -46 -26 -70.5t-53 -24.5q-21 0 -35 8.5t-26.5 18t-24.5 18t-28 8.5q-43 0 -61 -63h-8zM388 -11q-71 0 -134 28.5t-110 80t-75 123t-28 157.5q0 87 30.5 158.5t81.5 123t116.5 80
t136.5 28.5q72 0 136.5 -29t113.5 -80t77.5 -120t28.5 -149q0 -89 -31.5 -162.5t-83.5 -126.5t-119.5 -82.5t-139.5 -29.5zM410 26q30 0 63.5 7t67 23t64 41.5t54 63t37.5 87t14 114.5q0 93 -28 162.5t-73.5 115t-103 68.5t-117.5 23q-45 0 -97.5 -17t-98 -54.5t-76 -98.5
t-30.5 -149q0 -101 31 -173.5t78.5 -120t104.5 -70t110 -22.5z" />
    <glyph glyph-name="Odieresis" unicode="&#xd6;" horiz-adv-x="803" 
d="M337 860q-17 0 -27.5 10.5t-10.5 27.5t10.5 28t27.5 11q18 0 28.5 -11t10.5 -28t-10.5 -27.5t-28.5 -10.5zM467 860q-17 0 -27.5 10.5t-10.5 27.5t10.5 28t27.5 11q18 0 28.5 -11t10.5 -28t-10.5 -27.5t-28.5 -10.5zM388 -11q-71 0 -134 28.5t-110 80t-75 123t-28 157.5
q0 87 30.5 158.5t81.5 123t116.5 80t136.5 28.5q72 0 136.5 -29t113.5 -80t77.5 -120t28.5 -149q0 -89 -31.5 -162.5t-83.5 -126.5t-119.5 -82.5t-139.5 -29.5zM410 26q30 0 63.5 7t67 23t64 41.5t54 63t37.5 87t14 114.5q0 93 -28 162.5t-73.5 115t-103 68.5t-117.5 23
q-45 0 -97.5 -17t-98 -54.5t-76 -98.5t-30.5 -149q0 -101 31 -173.5t78.5 -120t104.5 -70t110 -22.5z" />
    <glyph glyph-name="multiply" unicode="&#xd7;" horiz-adv-x="398" 
d="M63 189l114 114l-114 114l23 22l114 -113l113 113l22 -23l-113 -113l113 -113l-22 -23l-113 114l-114 -114z" />
    <glyph glyph-name="Oslash" unicode="&#xd8;" horiz-adv-x="803" 
d="M636 678q58 -51 92 -125.5t34 -162.5q0 -89 -31.5 -162.5t-83.5 -126.5t-119.5 -82.5t-139.5 -29.5q-54 0 -102.5 16.5t-90.5 46.5l-45 -63h-46l61 87q-57 52 -90.5 129t-33.5 173q0 87 30.5 158.5t81.5 123t116.5 80t136.5 28.5q55 0 106 -17t94 -49l41 58h47zM86 412
q0 -101 30.5 -173t78.5 -120l385 546q-42 33 -91.5 49.5t-100.5 16.5q-45 0 -97.5 -17t-98 -54.5t-76 -98.5t-30.5 -149zM410 26q30 0 63.5 7t67 23t64 41.5t54 63t37.5 87t14 114.5q0 94 -28 162.5t-73 114.5l-385 -545q44 -35 92.5 -51.5t93.5 -16.5z" />
    <glyph glyph-name="Ugrave" unicode="&#xd9;" horiz-adv-x="746" 
d="M389 810q-22 21 -46.5 46.5t-45.5 49.5t-34.5 44.5t-13.5 32.5q0 15 16 15q8 0 20.5 -8.5t29.5 -30t38.5 -58t48.5 -91.5h-13zM374 -11q-72 0 -120.5 22t-77.5 61.5t-41 94.5t-12 120v433l-75 30v10h195v-10l-75 -30v-433q0 -73 15.5 -122t43.5 -79t67 -43t87 -13t85 13
t62 43t37.5 79.5t12.5 121.5v433l-75 30v10h195v-10l-75 -30v-433q0 -68 -12.5 -123t-42 -94t-77 -60t-117.5 -21z" />
    <glyph glyph-name="Uacute" unicode="&#xda;" horiz-adv-x="746" 
d="M324 810q27 55 48.5 91.5t38.5 58t29.5 30t20.5 8.5q16 0 16 -15q0 -12 -13.5 -32.5t-34.5 -44.5t-45.5 -49.5t-46.5 -46.5h-13zM374 -11q-72 0 -120.5 22t-77.5 61.5t-41 94.5t-12 120v433l-75 30v10h195v-10l-75 -30v-433q0 -73 15.5 -122t43.5 -79t67 -43t87 -13
t85 13t62 43t37.5 79.5t12.5 121.5v433l-75 30v10h195v-10l-75 -30v-433q0 -68 -12.5 -123t-42 -94t-77 -60t-117.5 -21z" />
    <glyph glyph-name="Ucircumflex" unicode="&#xdb;" horiz-adv-x="746" 
d="M247 810q32 56 52 92.5t33.5 57.5t22.5 29.5t18 8.5t18 -8.5t22.5 -29.5t33 -57.5t51.5 -92.5h-13q-31 37 -61 72.5t-51 68.5q-21 -33 -51 -68.5t-62 -72.5h-13zM374 -11q-72 0 -120.5 22t-77.5 61.5t-41 94.5t-12 120v433l-75 30v10h195v-10l-75 -30v-433
q0 -73 15.5 -122t43.5 -79t67 -43t87 -13t85 13t62 43t37.5 79.5t12.5 121.5v433l-75 30v10h195v-10l-75 -30v-433q0 -68 -12.5 -123t-42 -94t-77 -60t-117.5 -21z" />
    <glyph glyph-name="Udieresis" unicode="&#xdc;" horiz-adv-x="746" 
d="M303 860q-17 0 -27.5 10.5t-10.5 27.5t10.5 28t27.5 11q18 0 28.5 -11t10.5 -28t-10.5 -27.5t-28.5 -10.5zM433 860q-17 0 -27.5 10.5t-10.5 27.5t10.5 28t27.5 11q18 0 28.5 -11t10.5 -28t-10.5 -27.5t-28.5 -10.5zM374 -11q-72 0 -120.5 22t-77.5 61.5t-41 94.5
t-12 120v433l-75 30v10h195v-10l-75 -30v-433q0 -73 15.5 -122t43.5 -79t67 -43t87 -13t85 13t62 43t37.5 79.5t12.5 121.5v433l-75 30v10h195v-10l-75 -30v-433q0 -68 -12.5 -123t-42 -94t-77 -60t-117.5 -21z" />
    <glyph glyph-name="Yacute" unicode="&#xdd;" horiz-adv-x="753" 
d="M348 810q27 55 48.5 91.5t38.5 58t29.5 30t20.5 8.5q16 0 16 -15q0 -12 -13.5 -32.5t-34.5 -44.5t-45.5 -49.5t-46.5 -46.5h-13zM283 10l75 26v245l-244 445l-66 24v10h195v-10l-73 -24l224 -403l211 403l-95 24v10h195v-10l-70 -24l-232 -439v-251l75 -26v-10h-195v10z
" />
    <glyph glyph-name="Thorn" unicode="&#xde;" horiz-adv-x="629" 
d="M49 10l75 26v684l-75 30v10h195v-10l-75 -30v-120h169q46 0 89.5 -12.5t77 -36.5t54 -59.5t20.5 -81.5q0 -52 -20.5 -90t-54 -62.5t-77 -36t-89.5 -11.5h-169v-174l75 -26v-10h-195v10zM333 230q91 0 143.5 48t52.5 133q0 84 -52.5 126.5t-143.5 42.5h-164v-350h164z" />
    <glyph glyph-name="germandbls" unicode="&#xdf;" horiz-adv-x="581" 
d="M395 -11q-29 0 -54.5 8.5t-46.5 21t-36.5 26.5t-23.5 25l48 134h15q-14 -40 -14 -75q0 -47 27.5 -79.5t85.5 -32.5q19 0 40 5t38 17t28.5 32.5t11.5 52.5q0 30 -10 51.5t-25.5 36.5t-33 24.5t-32.5 16.5q-29 14 -53.5 27t-42.5 29t-28 36.5t-10 48.5q0 36 14.5 58.5
t32 43t32 45t14.5 64.5q0 33 -11.5 66t-32 59.5t-48.5 43t-62 16.5q-41 0 -58.5 -28.5t-17.5 -94.5v-641l65 -16v-10h-170v10l65 16v636q0 78 25.5 116t88.5 38q44 0 79 -17t59.5 -44.5t37.5 -63t13 -71.5q0 -44 -15.5 -72t-34.5 -50t-34.5 -42t-15.5 -47q0 -18 9 -32.5
t25.5 -27t41 -24.5t55.5 -26q24 -11 44 -24t34 -30t21.5 -40.5t7.5 -55.5q0 -45 -14 -76t-35.5 -49.5t-47.5 -26.5t-51 -8z" />
    <glyph glyph-name="agrave" unicode="&#xe0;" horiz-adv-x="476" 
d="M249 575q-22 21 -46.5 46.5t-45.5 49.5t-34.5 44.5t-13.5 32.5q0 15 16 15q8 0 20.5 -8.5t29.5 -30t38.5 -58t48.5 -91.5h-13zM167 -11q-57 0 -93 35.5t-36 95.5q0 39 16 67.5t41 49.5t57.5 35t65.5 23t63.5 14.5t53.5 9.5v30q0 40 -10 67.5t-26.5 44t-37.5 24t-43 7.5
q-27 0 -50.5 -10t-41 -27t-27 -40.5t-9.5 -51.5q0 -29 10 -58h-15l-40 128q9 12 23.5 26.5t36 26.5t51.5 20.5t70 8.5q78 0 114 -35.5t36 -112.5v-327h64v-10l-95 -30h-10v124q-4 -13 -15.5 -35.5t-32 -44.5t-50.5 -38.5t-70 -16.5zM178 18q28 0 52.5 12t44.5 30t35.5 40
t24.5 43v161q-14 -3 -38 -8t-52 -13t-57 -21t-52 -32t-38 -45t-15 -60q0 -21 6 -40t17.5 -34t29.5 -24t42 -9z" />
    <glyph glyph-name="aacute" unicode="&#xe1;" horiz-adv-x="476" 
d="M152 575q27 55 48.5 91.5t38.5 58t29.5 30t20.5 8.5q16 0 16 -15q0 -12 -13.5 -32.5t-34.5 -44.5t-45.5 -49.5t-46.5 -46.5h-13zM167 -11q-57 0 -93 35.5t-36 95.5q0 39 16 67.5t41 49.5t57.5 35t65.5 23t63.5 14.5t53.5 9.5v30q0 40 -10 67.5t-26.5 44t-37.5 24t-43 7.5
q-27 0 -50.5 -10t-41 -27t-27 -40.5t-9.5 -51.5q0 -29 10 -58h-15l-40 128q9 12 23.5 26.5t36 26.5t51.5 20.5t70 8.5q78 0 114 -35.5t36 -112.5v-327h64v-10l-95 -30h-10v124q-4 -13 -15.5 -35.5t-32 -44.5t-50.5 -38.5t-70 -16.5zM178 18q28 0 52.5 12t44.5 30t35.5 40
t24.5 43v161q-14 -3 -38 -8t-52 -13t-57 -21t-52 -32t-38 -45t-15 -60q0 -21 6 -40t17.5 -34t29.5 -24t42 -9z" />
    <glyph glyph-name="acircumflex" unicode="&#xe2;" horiz-adv-x="476" 
d="M93 575q32 56 52 92.5t33.5 57.5t22.5 29.5t18 8.5t18 -8.5t22.5 -29.5t33 -57.5t51.5 -92.5h-13q-31 37 -61 72.5t-51 68.5q-21 -33 -51 -68.5t-62 -72.5h-13zM167 -11q-57 0 -93 35.5t-36 95.5q0 39 16 67.5t41 49.5t57.5 35t65.5 23t63.5 14.5t53.5 9.5v30
q0 40 -10 67.5t-26.5 44t-37.5 24t-43 7.5q-27 0 -50.5 -10t-41 -27t-27 -40.5t-9.5 -51.5q0 -29 10 -58h-15l-40 128q9 12 23.5 26.5t36 26.5t51.5 20.5t70 8.5q78 0 114 -35.5t36 -112.5v-327h64v-10l-95 -30h-10v124q-4 -13 -15.5 -35.5t-32 -44.5t-50.5 -38.5t-70 -16.5
zM178 18q28 0 52.5 12t44.5 30t35.5 40t24.5 43v161q-14 -3 -38 -8t-52 -13t-57 -21t-52 -32t-38 -45t-15 -60q0 -21 6 -40t17.5 -34t29.5 -24t42 -9z" />
    <glyph glyph-name="atilde" unicode="&#xe3;" horiz-adv-x="476" 
d="M89 630q5 46 26 70.5t52 24.5q21 0 35 -8.5t26.5 -18t24.5 -18t29 -8.5q43 0 61 63h8q-5 -46 -26 -70.5t-53 -24.5q-21 0 -35 8.5t-26.5 18t-24.5 18t-28 8.5q-43 0 -61 -63h-8zM167 -11q-57 0 -93 35.5t-36 95.5q0 39 16 67.5t41 49.5t57.5 35t65.5 23t63.5 14.5
t53.5 9.5v30q0 40 -10 67.5t-26.5 44t-37.5 24t-43 7.5q-27 0 -50.5 -10t-41 -27t-27 -40.5t-9.5 -51.5q0 -29 10 -58h-15l-40 128q9 12 23.5 26.5t36 26.5t51.5 20.5t70 8.5q78 0 114 -35.5t36 -112.5v-327h64v-10l-95 -30h-10v124q-4 -13 -15.5 -35.5t-32 -44.5
t-50.5 -38.5t-70 -16.5zM178 18q28 0 52.5 12t44.5 30t35.5 40t24.5 43v161q-14 -3 -38 -8t-52 -13t-57 -21t-52 -32t-38 -45t-15 -60q0 -21 6 -40t17.5 -34t29.5 -24t42 -9z" />
    <glyph glyph-name="adieresis" unicode="&#xe4;" horiz-adv-x="476" 
d="M151 629q-17 0 -27.5 10.5t-10.5 27.5t10.5 28t27.5 11q18 0 28.5 -11t10.5 -28t-10.5 -27.5t-28.5 -10.5zM281 629q-17 0 -27.5 10.5t-10.5 27.5t10.5 28t27.5 11q18 0 28.5 -11t10.5 -28t-10.5 -27.5t-28.5 -10.5zM167 -11q-57 0 -93 35.5t-36 95.5q0 39 16 67.5
t41 49.5t57.5 35t65.5 23t63.5 14.5t53.5 9.5v30q0 40 -10 67.5t-26.5 44t-37.5 24t-43 7.5q-27 0 -50.5 -10t-41 -27t-27 -40.5t-9.5 -51.5q0 -29 10 -58h-15l-40 128q9 12 23.5 26.5t36 26.5t51.5 20.5t70 8.5q78 0 114 -35.5t36 -112.5v-327h64v-10l-95 -30h-10v124
q-4 -13 -15.5 -35.5t-32 -44.5t-50.5 -38.5t-70 -16.5zM178 18q28 0 52.5 12t44.5 30t35.5 40t24.5 43v161q-14 -3 -38 -8t-52 -13t-57 -21t-52 -32t-38 -45t-15 -60q0 -21 6 -40t17.5 -34t29.5 -24t42 -9z" />
    <glyph glyph-name="aring" unicode="&#xe5;" horiz-adv-x="476" 
d="M213 572q-34 0 -57.5 24t-23.5 57t23.5 56.5t57.5 23.5q16 0 30.5 -6.5t25.5 -17t17.5 -25.5t6.5 -31q0 -17 -6.5 -31.5t-17.5 -25.5t-25.5 -17.5t-30.5 -6.5zM213 595q23 0 40 17.5t17 40.5t-17 40t-40 17q-24 0 -41 -17t-17 -40t17 -40.5t41 -17.5zM167 -11
q-57 0 -93 35.5t-36 95.5q0 39 16 67.5t41 49.5t57.5 35t65.5 23t63.5 14.5t53.5 9.5v30q0 40 -10 67.5t-26.5 44t-37.5 24t-43 7.5q-27 0 -50.5 -10t-41 -27t-27 -40.5t-9.5 -51.5q0 -29 10 -58h-15l-40 128q9 12 23.5 26.5t36 26.5t51.5 20.5t70 8.5q78 0 114 -35.5
t36 -112.5v-327h64v-10l-95 -30h-10v124q-4 -13 -15.5 -35.5t-32 -44.5t-50.5 -38.5t-70 -16.5zM178 18q28 0 52.5 12t44.5 30t35.5 40t24.5 43v161q-14 -3 -38 -8t-52 -13t-57 -21t-52 -32t-38 -45t-15 -60q0 -21 6 -40t17.5 -34t29.5 -24t42 -9z" />
    <glyph glyph-name="ae" unicode="&#xe6;" horiz-adv-x="808" 
d="M167 -11q-57 0 -93 35.5t-36 95.5q0 39 16 67.5t41 49.5t57.5 35t65.5 23t63.5 14.5t53.5 9.5v30q0 40 -10 67.5t-26.5 44t-37.5 24t-43 7.5q-27 0 -50.5 -10t-41 -27t-27 -40.5t-9.5 -51.5q0 -29 10 -58h-15l-40 128q9 12 23.5 26.5t36 26.5t51.5 20.5t70 8.5
q71 0 107 -29.5t42 -92.5q29 57 79 89.5t110 32.5q41 0 74.5 -15.5t57 -44t36.5 -69t13 -89.5v-15h-369v-6q0 -53 16 -100t43.5 -81.5t65 -54.5t79.5 -20q63 0 107.5 39t76.5 117h15q-12 -39 -31 -73t-46 -59.5t-61.5 -40t-77.5 -14.5q-36 0 -65.5 11t-53.5 29.5t-42.5 43.5
t-31.5 53q-10 -15 -28 -38t-43.5 -45t-58.5 -38t-73 -16zM702 312q0 39 -10 70.5t-29 54t-45 35t-58 12.5q-38 0 -68.5 -13.5t-53.5 -36.5t-37.5 -54.5t-19.5 -67.5h321zM178 18q28 0 52.5 11.5t44.5 28t35.5 34.5t24.5 32v180q-14 -3 -38 -8t-52 -13t-57 -21t-52 -32
t-38 -45t-15 -60q0 -21 6 -40t17.5 -34t29.5 -24t42 -9z" />
    <glyph glyph-name="ccedilla" unicode="&#xe7;" horiz-adv-x="512" 
d="M476 176q-11 -36 -28 -68t-41.5 -57.5t-56.5 -41.5t-74 -19l-27 -47q40 0 58 -19.5t18 -45.5q0 -14 -5.5 -28.5t-15.5 -26.5t-25 -19.5t-34 -7.5q-15 0 -30 4.5t-28 12.5v8q28 -11 52 -11q26 0 43 12.5t17 38.5q0 20 -17.5 36t-55.5 16v19l32 57h-1q-51 0 -91.5 21.5
t-68.5 57.5t-43 83t-15 97q0 52 16 100.5t45 85.5t71 59t95 22q36 0 64.5 -8.5t49.5 -20.5t34.5 -25.5t20.5 -23.5l-59 -171h-15q19 53 19 97q0 57 -31 89t-91 32q-36 0 -69 -14t-58.5 -40.5t-40.5 -65t-15 -88.5q0 -60 16 -107.5t43 -80.5t62 -50.5t73 -17.5q36 0 64 9.5
t51 29t41.5 48.5t35.5 69h15v0z" />
    <glyph glyph-name="egrave" unicode="&#xe8;" 
d="M289 575q-22 21 -46.5 46.5t-45.5 49.5t-34.5 44.5t-13.5 32.5q0 15 16 15q8 0 20.5 -8.5t29.5 -30t38.5 -58t48.5 -91.5h-13zM260 -11q-56 0 -97 25.5t-69 64t-41.5 84t-13.5 86.5q0 60 17.5 109t47.5 84t70.5 54t86.5 19q41 0 74.5 -15.5t57 -44t36.5 -69t13 -89.5v-15
h-369v-6q0 -53 16 -100t43.5 -81.5t65 -54.5t79.5 -20q63 0 107.5 39t76.5 117h15q-12 -39 -31 -73t-46 -59.5t-61.5 -40t-77.5 -14.5zM399 312q0 39 -10 70.5t-29 54t-45 35t-58 12.5q-38 0 -68.5 -13.5t-53.5 -36.5t-37.5 -54.5t-19.5 -67.5h321z" />
    <glyph glyph-name="eacute" unicode="&#xe9;" 
d="M204 575q27 55 48.5 91.5t38.5 58t29.5 30t20.5 8.5q16 0 16 -15q0 -12 -13.5 -32.5t-34.5 -44.5t-45.5 -49.5t-46.5 -46.5h-13zM260 -11q-56 0 -97 25.5t-69 64t-41.5 84t-13.5 86.5q0 60 17.5 109t47.5 84t70.5 54t86.5 19q41 0 74.5 -15.5t57 -44t36.5 -69t13 -89.5
v-15h-369v-6q0 -53 16 -100t43.5 -81.5t65 -54.5t79.5 -20q63 0 107.5 39t76.5 117h15q-12 -39 -31 -73t-46 -59.5t-61.5 -40t-77.5 -14.5zM399 312q0 39 -10 70.5t-29 54t-45 35t-58 12.5q-38 0 -68.5 -13.5t-53.5 -36.5t-37.5 -54.5t-19.5 -67.5h321z" />
    <glyph glyph-name="ecircumflex" unicode="&#xea;" 
d="M127 575q32 56 52 92.5t33.5 57.5t22.5 29.5t18 8.5t18 -8.5t22.5 -29.5t33 -57.5t51.5 -92.5h-13q-31 37 -61 72.5t-51 68.5q-21 -33 -51 -68.5t-62 -72.5h-13zM260 -11q-56 0 -97 25.5t-69 64t-41.5 84t-13.5 86.5q0 60 17.5 109t47.5 84t70.5 54t86.5 19
q41 0 74.5 -15.5t57 -44t36.5 -69t13 -89.5v-15h-369v-6q0 -53 16 -100t43.5 -81.5t65 -54.5t79.5 -20q63 0 107.5 39t76.5 117h15q-12 -39 -31 -73t-46 -59.5t-61.5 -40t-77.5 -14.5zM399 312q0 39 -10 70.5t-29 54t-45 35t-58 12.5q-38 0 -68.5 -13.5t-53.5 -36.5
t-37.5 -54.5t-19.5 -67.5h321z" />
    <glyph glyph-name="edieresis" unicode="&#xeb;" 
d="M188 629q-17 0 -27.5 10.5t-10.5 27.5t10.5 28t27.5 11q18 0 28.5 -11t10.5 -28t-10.5 -27.5t-28.5 -10.5zM318 629q-17 0 -27.5 10.5t-10.5 27.5t10.5 28t27.5 11q18 0 28.5 -11t10.5 -28t-10.5 -27.5t-28.5 -10.5zM260 -11q-56 0 -97 25.5t-69 64t-41.5 84t-13.5 86.5
q0 60 17.5 109t47.5 84t70.5 54t86.5 19q41 0 74.5 -15.5t57 -44t36.5 -69t13 -89.5v-15h-369v-6q0 -53 16 -100t43.5 -81.5t65 -54.5t79.5 -20q63 0 107.5 39t76.5 117h15q-12 -39 -31 -73t-46 -59.5t-61.5 -40t-77.5 -14.5zM399 312q0 39 -10 70.5t-29 54t-45 35t-58 12.5
q-38 0 -68.5 -13.5t-53.5 -36.5t-37.5 -54.5t-19.5 -67.5h321z" />
    <glyph glyph-name="igrave" unicode="&#xec;" horiz-adv-x="243" 
d="M158 575q-22 21 -46.5 46.5t-45.5 49.5t-34.5 44.5t-13.5 32.5q0 15 16 15q8 0 20.5 -8.5t29.5 -30t38.5 -58t48.5 -91.5h-13zM37 10l65 16v434h-65v10l95 30h10v-474l65 -16v-10h-170v10z" />
    <glyph glyph-name="iacute" unicode="&#xed;" horiz-adv-x="243" 
d="M33 575q27 55 48.5 91.5t38.5 58t29.5 30t20.5 8.5q16 0 16 -15q0 -12 -13.5 -32.5t-34.5 -44.5t-45.5 -49.5t-46.5 -46.5h-13zM37 10l65 16v434h-65v10l95 30h10v-474l65 -16v-10h-170v10z" />
    <glyph glyph-name="icircumflex" unicode="&#xee;" horiz-adv-x="247" 
d="M-8 575q32 56 52 92.5t33.5 57.5t22.5 29.5t18 8.5t18 -8.5t22.5 -29.5t33 -57.5t51.5 -92.5h-13q-31 37 -61 72.5t-51 68.5q-21 -33 -51 -68.5t-62 -72.5h-13zM39 10l65 16v434h-65v10l95 30h10v-474l65 -16v-10h-170v10z" />
    <glyph glyph-name="idieresis" unicode="&#xef;" horiz-adv-x="241" 
d="M51 629q-17 0 -27.5 10.5t-10.5 27.5t10.5 28t27.5 11q18 0 28.5 -11t10.5 -28t-10.5 -27.5t-28.5 -10.5zM181 629q-17 0 -27.5 10.5t-10.5 27.5t10.5 28t27.5 11q18 0 28.5 -11t10.5 -28t-10.5 -27.5t-28.5 -10.5zM37 10l65 16v434h-65v10l95 30h10v-474l65 -16v-10
h-170v10z" />
    <glyph glyph-name="eth" unicode="&#xf0;" horiz-adv-x="529" 
d="M348 676q29 -38 54.5 -81.5t45 -92t30.5 -102.5t11 -114q0 -63 -13.5 -117.5t-41 -94t-68.5 -62.5t-96 -23q-60 0 -103.5 25t-72 63.5t-42 85t-13.5 89.5t14 90t42 85t70 63t98 25q48 0 86.5 -19.5t73.5 -57.5h5q-20 67 -52.5 123t-70.5 103l-122 -32l-7 23l112 30
q-29 35 -57.5 63.5t-53.5 51.5h57q48 -44 98 -104l109 29l7 -23zM274 20q39 0 71 17.5t55 47.5t35.5 70.5t12.5 87.5t-13 90.5t-37 77t-59.5 53.5t-80.5 20q-41 0 -75 -17t-58 -46t-37 -68t-13 -83q0 -47 14.5 -92t41 -80t63 -56.5t80.5 -21.5z" />
    <glyph glyph-name="ntilde" unicode="&#xf1;" horiz-adv-x="542" 
d="M140 630q5 46 26 70.5t52 24.5q21 0 35 -8.5t26.5 -18t24.5 -18t29 -8.5q43 0 61 63h8q-5 -46 -26 -70.5t-53 -24.5q-21 0 -35 8.5t-26.5 18t-24.5 18t-28 8.5q-43 0 -61 -63h-8zM37 10l65 16v434h-65v10l95 30h10v-120q5 15 17.5 38t34 44.5t52.5 37t73 15.5
q55 0 88.5 -34t33.5 -116v-339l65 -16v-10h-170v10l64 16v309q0 83 -27 116t-81 33q-26 0 -50.5 -13.5t-45 -35.5t-34.5 -48.5t-20 -53.5v-307l65 -16v-10h-170v10z" />
    <glyph glyph-name="ograve" unicode="&#xf2;" horiz-adv-x="528" 
d="M290 575q-22 21 -46.5 46.5t-45.5 49.5t-34.5 44.5t-13.5 32.5q0 15 16 15q8 0 20.5 -8.5t29.5 -30t38.5 -58t48.5 -91.5h-13zM266 -11q-57 0 -99.5 25t-71 63t-42.5 84.5t-14 88.5q0 44 13.5 91t41.5 85.5t71.5 63.5t104.5 25q57 0 98.5 -25t68.5 -63t39.5 -83.5
t12.5 -86.5q0 -42 -13 -89t-40.5 -86.5t-69.5 -66t-100 -26.5zM279 20q36 0 67 17.5t53.5 47.5t35.5 70.5t13 87.5q0 46 -13 89.5t-37 77.5t-59 54t-79 20q-42 0 -76.5 -16.5t-58.5 -46t-37 -69t-13 -85.5t14.5 -90t41.5 -79t64.5 -56.5t83.5 -21.5z" />
    <glyph glyph-name="oacute" unicode="&#xf3;" horiz-adv-x="528" 
d="M205 575q27 55 48.5 91.5t38.5 58t29.5 30t20.5 8.5q16 0 16 -15q0 -12 -13.5 -32.5t-34.5 -44.5t-45.5 -49.5t-46.5 -46.5h-13zM266 -11q-57 0 -99.5 25t-71 63t-42.5 84.5t-14 88.5q0 44 13.5 91t41.5 85.5t71.5 63.5t104.5 25q57 0 98.5 -25t68.5 -63t39.5 -83.5
t12.5 -86.5q0 -42 -13 -89t-40.5 -86.5t-69.5 -66t-100 -26.5zM279 20q36 0 67 17.5t53.5 47.5t35.5 70.5t13 87.5q0 46 -13 89.5t-37 77.5t-59 54t-79 20q-42 0 -76.5 -16.5t-58.5 -46t-37 -69t-13 -85.5t14.5 -90t41.5 -79t64.5 -56.5t83.5 -21.5z" />
    <glyph glyph-name="ocircumflex" unicode="&#xf4;" horiz-adv-x="528" 
d="M138 575q32 56 52 92.5t33.5 57.5t22.5 29.5t18 8.5t18 -8.5t22.5 -29.5t33 -57.5t51.5 -92.5h-13q-31 37 -61 72.5t-51 68.5q-21 -33 -51 -68.5t-62 -72.5h-13zM266 -11q-57 0 -99.5 25t-71 63t-42.5 84.5t-14 88.5q0 44 13.5 91t41.5 85.5t71.5 63.5t104.5 25
q57 0 98.5 -25t68.5 -63t39.5 -83.5t12.5 -86.5q0 -42 -13 -89t-40.5 -86.5t-69.5 -66t-100 -26.5zM279 20q36 0 67 17.5t53.5 47.5t35.5 70.5t13 87.5q0 46 -13 89.5t-37 77.5t-59 54t-79 20q-42 0 -76.5 -16.5t-58.5 -46t-37 -69t-13 -85.5t14.5 -90t41.5 -79t64.5 -56.5
t83.5 -21.5z" />
    <glyph glyph-name="otilde" unicode="&#xf5;" horiz-adv-x="528" 
d="M133 630q5 46 26 70.5t52 24.5q21 0 35 -8.5t26.5 -18t24.5 -18t29 -8.5q43 0 61 63h8q-5 -46 -26 -70.5t-53 -24.5q-21 0 -35 8.5t-26.5 18t-24.5 18t-28 8.5q-43 0 -61 -63h-8zM266 -11q-57 0 -99.5 25t-71 63t-42.5 84.5t-14 88.5q0 44 13.5 91t41.5 85.5t71.5 63.5
t104.5 25q57 0 98.5 -25t68.5 -63t39.5 -83.5t12.5 -86.5q0 -42 -13 -89t-40.5 -86.5t-69.5 -66t-100 -26.5zM279 20q36 0 67 17.5t53.5 47.5t35.5 70.5t13 87.5q0 46 -13 89.5t-37 77.5t-59 54t-79 20q-42 0 -76.5 -16.5t-58.5 -46t-37 -69t-13 -85.5t14.5 -90t41.5 -79
t64.5 -56.5t83.5 -21.5z" />
    <glyph glyph-name="odieresis" unicode="&#xf6;" horiz-adv-x="528" 
d="M199 629q-17 0 -27.5 10.5t-10.5 27.5t10.5 28t27.5 11q18 0 28.5 -11t10.5 -28t-10.5 -27.5t-28.5 -10.5zM329 629q-17 0 -27.5 10.5t-10.5 27.5t10.5 28t27.5 11q18 0 28.5 -11t10.5 -28t-10.5 -27.5t-28.5 -10.5zM266 -11q-57 0 -99.5 25t-71 63t-42.5 84.5t-14 88.5
q0 44 13.5 91t41.5 85.5t71.5 63.5t104.5 25q57 0 98.5 -25t68.5 -63t39.5 -83.5t12.5 -86.5q0 -42 -13 -89t-40.5 -86.5t-69.5 -66t-100 -26.5zM279 20q36 0 67 17.5t53.5 47.5t35.5 70.5t13 87.5q0 46 -13 89.5t-37 77.5t-59 54t-79 20q-42 0 -76.5 -16.5t-58.5 -46
t-37 -69t-13 -85.5t14.5 -90t41.5 -79t64.5 -56.5t83.5 -21.5z" />
    <glyph glyph-name="divide" unicode="&#xf7;" horiz-adv-x="479" 
d="M240 372q-21 0 -34 13t-13 33t13 34t34 14t34 -14t13 -34t-13 -33t-34 -13zM63 297h353v-32h-353v32zM240 96q-21 0 -34 13t-13 33t13 34t34 14t34 -14t13 -34t-13 -33t-34 -13z" />
    <glyph glyph-name="oslash" unicode="&#xf8;" horiz-adv-x="528" 
d="M425 443q33 -39 48.5 -89.5t15.5 -96.5q0 -42 -13 -89t-40.5 -86.5t-69.5 -66t-100 -26.5q-39 0 -71.5 12t-58.5 33l-32 -46h-47l51 73q-35 40 -52 90.5t-17 98.5q0 44 13.5 91t41.5 85.5t71.5 63.5t104.5 25q39 0 70.5 -12t55.5 -32l32 45h48zM75 267q0 -47 15 -91.5
t43 -79.5l240 342q-23 22 -51 34t-62 12q-42 0 -76.5 -16.5t-58.5 -46t-37 -69t-13 -85.5zM279 20q36 0 67 17.5t53.5 47.5t35.5 70.5t13 87.5q0 46 -12.5 88.5t-35.5 76.5l-240 -341q24 -22 54 -34.5t65 -12.5z" />
    <glyph glyph-name="ugrave" unicode="&#xf9;" horiz-adv-x="521" 
d="M277 575q-22 21 -46.5 46.5t-45.5 49.5t-34.5 44.5t-13.5 32.5q0 15 16 15q8 0 20.5 -8.5t29.5 -30t38.5 -58t48.5 -91.5h-13zM217 -11q-25 0 -46 7.5t-36.5 26.5t-24.5 51t-9 81v305h-65v10l95 30h10v-332q0 -81 25.5 -114.5t69.5 -33.5q27 0 49.5 11t40.5 28.5t31.5 40
t22.5 45.5v315h-65v10l95 30h10v-460h65v-10l-95 -30h-10v105q-8 -17 -21.5 -37.5t-33 -38t-46.5 -29t-62 -11.5z" />
    <glyph glyph-name="uacute" unicode="&#xfa;" horiz-adv-x="521" 
d="M202 575q27 55 48.5 91.5t38.5 58t29.5 30t20.5 8.5q16 0 16 -15q0 -12 -13.5 -32.5t-34.5 -44.5t-45.5 -49.5t-46.5 -46.5h-13zM217 -11q-25 0 -46 7.5t-36.5 26.5t-24.5 51t-9 81v305h-65v10l95 30h10v-332q0 -81 25.5 -114.5t69.5 -33.5q27 0 49.5 11t40.5 28.5
t31.5 40t22.5 45.5v315h-65v10l95 30h10v-460h65v-10l-95 -30h-10v105q-8 -17 -21.5 -37.5t-33 -38t-46.5 -29t-62 -11.5z" />
    <glyph glyph-name="ucircumflex" unicode="&#xfb;" horiz-adv-x="521" 
d="M135 575q32 56 52 92.5t33.5 57.5t22.5 29.5t18 8.5t18 -8.5t22.5 -29.5t33 -57.5t51.5 -92.5h-13q-31 37 -61 72.5t-51 68.5q-21 -33 -51 -68.5t-62 -72.5h-13zM217 -11q-25 0 -46 7.5t-36.5 26.5t-24.5 51t-9 81v305h-65v10l95 30h10v-332q0 -81 25.5 -114.5
t69.5 -33.5q27 0 49.5 11t40.5 28.5t31.5 40t22.5 45.5v315h-65v10l95 30h10v-460h65v-10l-95 -30h-10v105q-8 -17 -21.5 -37.5t-33 -38t-46.5 -29t-62 -11.5z" />
    <glyph glyph-name="udieresis" unicode="&#xfc;" horiz-adv-x="521" 
d="M189 629q-17 0 -27.5 10.5t-10.5 27.5t10.5 28t27.5 11q18 0 28.5 -11t10.5 -28t-10.5 -27.5t-28.5 -10.5zM319 629q-17 0 -27.5 10.5t-10.5 27.5t10.5 28t27.5 11q18 0 28.5 -11t10.5 -28t-10.5 -27.5t-28.5 -10.5zM217 -11q-25 0 -46 7.5t-36.5 26.5t-24.5 51t-9 81
v305h-65v10l95 30h10v-332q0 -81 25.5 -114.5t69.5 -33.5q27 0 49.5 11t40.5 28.5t31.5 40t22.5 45.5v315h-65v10l95 30h10v-460h65v-10l-95 -30h-10v105q-8 -17 -21.5 -37.5t-33 -38t-46.5 -29t-62 -11.5z" />
    <glyph glyph-name="yacute" unicode="&#xfd;" horiz-adv-x="594" 
d="M263 575q27 55 48.5 91.5t38.5 58t29.5 30t20.5 8.5q16 0 16 -15q0 -12 -13.5 -32.5t-34.5 -44.5t-45.5 -49.5t-46.5 -46.5h-13zM152 -206q-33 0 -57.5 22t-44.5 54h15q22 -32 41 -45t36 -13q19 0 39.5 14.5t39.5 40t35.5 60t29.5 73.5l-178 467l-72 23v10h195v-10
l-79 -23l158 -418l144 418l-81 23v10h195v-10l-84 -23l-154 -429q-26 -72 -49.5 -119.5t-45 -75t-42 -38.5t-41.5 -11z" />
    <glyph glyph-name="thorn" unicode="&#xfe;" horiz-adv-x="460" 
d="M-15 -190l65 16v934h-64v10l95 30h10v-285q97 0 161 -28t101.5 -70.5t52.5 -92.5t15 -95q0 -40 -11 -82.5t-34 -77.5t-59.5 -57.5t-87.5 -22.5q-24 0 -44.5 7t-37.5 18.5t-31.5 25.5t-25.5 29v-243l65 -16v-10h-170v10zM222 20q33 0 61.5 14t50 40t34 62.5t12.5 81.5
q0 48 -16.5 98.5t-51.5 91t-89.5 66.5t-131.5 26v-410q21 -26 55 -48t76 -22z" />
    <glyph glyph-name="ydieresis" unicode="&#xff;" horiz-adv-x="594" 
d="M232 629q-17 0 -27.5 10.5t-10.5 27.5t10.5 28t27.5 11q18 0 28.5 -11t10.5 -28t-10.5 -27.5t-28.5 -10.5zM362 629q-17 0 -27.5 10.5t-10.5 27.5t10.5 28t27.5 11q18 0 28.5 -11t10.5 -28t-10.5 -27.5t-28.5 -10.5zM152 -206q-33 0 -57.5 22t-44.5 54h15q22 -32 41 -45
t36 -13q19 0 39.5 14.5t39.5 40t35.5 60t29.5 73.5l-178 467l-72 23v10h195v-10l-79 -23l158 -418l144 418l-81 23v10h195v-10l-84 -23l-154 -429q-26 -72 -49.5 -119.5t-45 -75t-42 -38.5t-41.5 -11z" />
    <glyph glyph-name="Amacron" unicode="&#x100;" horiz-adv-x="891" 
d="M314 898h263v-38h-263v38zM48 10l74 26l301 732h30l319 -732l71 -26v-10h-195v10l69 26l-131 307h-306l-123 -307l86 -26v-10h-195v10zM573 373l-145 339l-136 -339h281z" />
    <glyph glyph-name="amacron" unicode="&#x101;" horiz-adv-x="476" 
d="M91 680h263v-38h-263v38zM167 -11q-57 0 -93 35.5t-36 95.5q0 39 16 67.5t41 49.5t57.5 35t65.5 23t63.5 14.5t53.5 9.5v30q0 40 -10 67.5t-26.5 44t-37.5 24t-43 7.5q-27 0 -50.5 -10t-41 -27t-27 -40.5t-9.5 -51.5q0 -29 10 -58h-15l-40 128q9 12 23.5 26.5t36 26.5
t51.5 20.5t70 8.5q78 0 114 -35.5t36 -112.5v-327h64v-10l-95 -30h-10v124q-4 -13 -15.5 -35.5t-32 -44.5t-50.5 -38.5t-70 -16.5zM178 18q28 0 52.5 12t44.5 30t35.5 40t24.5 43v161q-14 -3 -38 -8t-52 -13t-57 -21t-52 -32t-38 -45t-15 -60q0 -21 6 -40t17.5 -34t29.5 -24
t42 -9z" />
    <glyph glyph-name="Abreve" unicode="&#x102;" horiz-adv-x="891" 
d="M438 810q-24 0 -48.5 9.5t-43.5 32t-31 58t-12 88.5h13q0 -26 6 -52t20.5 -47t37.5 -34t58 -13q34 0 57.5 13t38 34t20.5 47t6 52h13q0 -53 -12 -88.5t-31 -58t-43.5 -32t-48.5 -9.5zM48 10l74 26l301 732h30l319 -732l71 -26v-10h-195v10l69 26l-131 307h-306l-123 -307
l86 -26v-10h-195v10zM573 373l-145 339l-136 -339h281z" />
    <glyph glyph-name="abreve" unicode="&#x103;" horiz-adv-x="476" 
d="M213 575q-24 0 -48.5 9.5t-43.5 32t-31 58t-12 88.5h13q0 -26 6 -52t20.5 -47t37.5 -34t58 -13q34 0 57.5 13t38 34t20.5 47t6 52h13q0 -53 -12 -88.5t-31 -58t-43.5 -32t-48.5 -9.5zM167 -11q-57 0 -93 35.5t-36 95.5q0 39 16 67.5t41 49.5t57.5 35t65.5 23t63.5 14.5
t53.5 9.5v30q0 40 -10 67.5t-26.5 44t-37.5 24t-43 7.5q-27 0 -50.5 -10t-41 -27t-27 -40.5t-9.5 -51.5q0 -29 10 -58h-15l-40 128q9 12 23.5 26.5t36 26.5t51.5 20.5t70 8.5q78 0 114 -35.5t36 -112.5v-327h64v-10l-95 -30h-10v124q-4 -13 -15.5 -35.5t-32 -44.5
t-50.5 -38.5t-70 -16.5zM178 18q28 0 52.5 12t44.5 30t35.5 40t24.5 43v161q-14 -3 -38 -8t-52 -13t-57 -21t-52 -32t-38 -45t-15 -60q0 -21 6 -40t17.5 -34t29.5 -24t42 -9z" />
    <glyph glyph-name="Aogonek" unicode="&#x104;" horiz-adv-x="891" 
d="M750 0q-6 -6 -17 -18t-21.5 -28.5t-18 -36t-7.5 -38.5q0 -28 15 -44t38 -16q26 0 54 28h9q-17 -26 -37 -40t-43 -14q-27 0 -46 19t-19 51q0 24 11 47t25 41t27.5 31t18.5 18h-91v10l69 26l-131 307h-306l-123 -307l86 -26v-10h-195v10l74 26l301 732h30l319 -732l71 -26
v-10h-93zM573 373l-145 339l-136 -339h281z" />
    <glyph glyph-name="aogonek" unicode="&#x105;" horiz-adv-x="476" 
d="M345 0q-6 -6 -17 -18t-21.5 -28.5t-18 -36t-7.5 -38.5q0 -28 15 -44t38 -16q26 0 54 28h9q-17 -26 -37 -40t-43 -14q-27 0 -46 19t-19 51q0 25 11.5 48.5t26 42t28 31t17.5 16.5v123q-4 -13 -15.5 -35.5t-32 -44.5t-50.5 -38.5t-70 -16.5q-57 0 -93 35.5t-36 95.5
q0 39 16 67.5t41 49.5t57.5 35t65.5 23t63.5 14.5t53.5 9.5v30q0 40 -10 67.5t-26.5 44t-37.5 24t-43 7.5q-27 0 -50.5 -10t-41 -27t-27 -40.5t-9.5 -51.5q0 -29 10 -58h-15l-40 128q9 12 23.5 26.5t36 26.5t51.5 20.5t70 8.5q78 0 114 -35.5t36 -112.5v-327h64v-10zM178 18
q28 0 52.5 12t44.5 30t35.5 40t24.5 43v161q-14 -3 -38 -8t-52 -13t-57 -21t-52 -32t-38 -45t-15 -60q0 -21 6 -40t17.5 -34t29.5 -24t42 -9z" />
    <glyph glyph-name="Cacute" unicode="&#x106;" horiz-adv-x="816" 
d="M382 810q27 55 48.5 91.5t38.5 58t29.5 30t20.5 8.5q16 0 16 -15q0 -12 -13.5 -32.5t-34.5 -44.5t-45.5 -49.5t-46.5 -46.5h-13zM406 -11q-70 0 -134.5 25.5t-113.5 74.5t-78 120t-29 162q0 86 29.5 159t81.5 126t122.5 82.5t153.5 29.5q54 0 96.5 -11.5t72.5 -26.5
t47 -29t20 -19v-222h-15q0 76 -19.5 127.5t-51.5 83.5t-74 46t-88 14q-24 0 -57.5 -4.5t-70 -17t-73 -35t-65 -59t-46.5 -89t-18 -124.5q2 -106 35 -178t82 -116t108 -63t113 -19q112 0 194 70.5t124 204.5h15q-19 -67 -52 -124t-78.5 -99t-103.5 -65.5t-127 -23.5z" />
    <glyph glyph-name="cacute" unicode="&#x107;" horiz-adv-x="512" 
d="M167 575q27 55 48.5 91.5t38.5 58t29.5 30t20.5 8.5q16 0 16 -15q0 -12 -13.5 -32.5t-34.5 -44.5t-45.5 -49.5t-46.5 -46.5h-13zM257 -11q-51 0 -91.5 21.5t-68.5 57.5t-43 83t-15 97q0 52 16 100.5t45 85.5t71 59t95 22q36 0 64.5 -8.5t49.5 -20.5t34.5 -25.5
t20.5 -23.5l-59 -171h-15q19 53 19 97q0 57 -31 89t-91 32q-36 0 -69 -14t-58.5 -40.5t-40.5 -65t-15 -88.5q0 -60 16 -107.5t43 -80.5t62 -50.5t73 -17.5q36 0 64 9.5t51 29t41.5 48.5t35.5 69h15q-12 -38 -30 -71.5t-45 -59.5t-62.5 -41t-81.5 -15z" />
    <glyph glyph-name="Cdotaccent" unicode="&#x10a;" horiz-adv-x="816" 
d="M408 860q-23 0 -37.5 14.5t-14.5 36.5t14.5 37.5t37.5 15.5t37 -15.5t14 -37.5t-14 -36.5t-37 -14.5zM406 -11q-70 0 -134.5 25.5t-113.5 74.5t-78 120t-29 162q0 86 29.5 159t81.5 126t122.5 82.5t153.5 29.5q54 0 96.5 -11.5t72.5 -26.5t47 -29t20 -19v-222h-15
q0 76 -19.5 127.5t-51.5 83.5t-74 46t-88 14q-24 0 -57.5 -4.5t-70 -17t-73 -35t-65 -59t-46.5 -89t-18 -124.5q2 -106 35 -178t82 -116t108 -63t113 -19q112 0 194 70.5t124 204.5h15q-19 -67 -52 -124t-78.5 -99t-103.5 -65.5t-127 -23.5z" />
    <glyph glyph-name="cdotaccent" unicode="&#x10b;" horiz-adv-x="512" 
d="M256 605q-23 0 -37.5 14.5t-14.5 36.5t14.5 37.5t37.5 15.5t37 -15.5t14 -37.5t-14 -36.5t-37 -14.5zM257 -11q-51 0 -91.5 21.5t-68.5 57.5t-43 83t-15 97q0 52 16 100.5t45 85.5t71 59t95 22q36 0 64.5 -8.5t49.5 -20.5t34.5 -25.5t20.5 -23.5l-59 -171h-15
q19 53 19 97q0 57 -31 89t-91 32q-36 0 -69 -14t-58.5 -40.5t-40.5 -65t-15 -88.5q0 -60 16 -107.5t43 -80.5t62 -50.5t73 -17.5q36 0 64 9.5t51 29t41.5 48.5t35.5 69h15q-12 -38 -30 -71.5t-45 -59.5t-62.5 -41t-81.5 -15z" />
    <glyph glyph-name="Ccaron" unicode="&#x10c;" horiz-adv-x="816" 
d="M295 998q32 -37 62 -72.5t51 -68.5q21 33 51 68.5t61 72.5h13q-32 -56 -51.5 -92.5t-33 -57.5t-22.5 -29.5t-18 -8.5t-18 8.5t-22.5 29.5t-33.5 57.5t-52 92.5h13zM406 -11q-70 0 -134.5 25.5t-113.5 74.5t-78 120t-29 162q0 86 29.5 159t81.5 126t122.5 82.5t153.5 29.5
q54 0 96.5 -11.5t72.5 -26.5t47 -29t20 -19v-222h-15q0 76 -19.5 127.5t-51.5 83.5t-74 46t-88 14q-24 0 -57.5 -4.5t-70 -17t-73 -35t-65 -59t-46.5 -89t-18 -124.5q2 -106 35 -178t82 -116t108 -63t113 -19q112 0 194 70.5t124 204.5h15q-19 -67 -52 -124t-78.5 -99
t-103.5 -65.5t-127 -23.5z" />
    <glyph glyph-name="ccaron" unicode="&#x10d;" horiz-adv-x="512" 
d="M143 763q32 -37 62 -72.5t51 -68.5q21 33 51 68.5t61 72.5h13q-32 -56 -51.5 -92.5t-33 -57.5t-22.5 -29.5t-18 -8.5t-18 8.5t-22.5 29.5t-33.5 57.5t-52 92.5h13zM257 -11q-51 0 -91.5 21.5t-68.5 57.5t-43 83t-15 97q0 52 16 100.5t45 85.5t71 59t95 22q36 0 64.5 -8.5
t49.5 -20.5t34.5 -25.5t20.5 -23.5l-59 -171h-15q19 53 19 97q0 57 -31 89t-91 32q-36 0 -69 -14t-58.5 -40.5t-40.5 -65t-15 -88.5q0 -60 16 -107.5t43 -80.5t62 -50.5t73 -17.5q36 0 64 9.5t51 29t41.5 48.5t35.5 69h15q-12 -38 -30 -71.5t-45 -59.5t-62.5 -41t-81.5 -15z
" />
    <glyph glyph-name="Dcaron" unicode="&#x10e;" horiz-adv-x="780" 
d="M239 998q32 -37 62 -72.5t51 -68.5q21 33 51 68.5t61 72.5h13q-32 -56 -51.5 -92.5t-33 -57.5t-22.5 -29.5t-18 -8.5t-18 8.5t-22.5 29.5t-33.5 57.5t-52 92.5h13zM49 10l75 26v684l-75 30v10h335q82 0 148 -24t112 -72.5t70.5 -121t24.5 -169.5q0 -76 -24.5 -144
t-70.5 -119t-111.5 -80.5t-147.5 -29.5h-336v10zM356 20q77 0 138 31t104 80.5t65.5 112t22.5 124.5q0 95 -22.5 165t-65.5 116t-104 68.5t-138 22.5h-187v-720h187z" />
    <glyph glyph-name="dcaron" unicode="&#x10f;" horiz-adv-x="508" 
d="M514 802q19 0 31.5 -13.5t12.5 -39.5q0 -16 -5 -39.5t-15.5 -50.5t-26.5 -54t-37 -50h-10q23 29 34.5 54t11.5 49q0 12 -2.5 26t-7.5 28.5t-11.5 28t-14.5 22.5q0 22 13 30.5t27 8.5zM399 800h10v-800h-40q-98 0 -161.5 25.5t-101 65.5t-52.5 87.5t-15 92.5q0 40 11 83
t34 79t59.5 59t87.5 23q24 0 44 -7t37.5 -19t31.5 -26.5t25 -29.5v327h-65v10zM80 282q0 -48 16.5 -94.5t51.5 -83.5t89.5 -61t131.5 -28v389q-10 14 -23.5 28t-30 25.5t-36 19t-41.5 7.5q-33 0 -61.5 -15t-50 -41.5t-34 -63.5t-12.5 -82z" />
    <glyph glyph-name="Dcroat" unicode="&#x110;" horiz-adv-x="780" 
d="M384 760q82 0 148 -24t112 -72.5t70.5 -121t24.5 -169.5q0 -76 -24.5 -144t-70.5 -119t-111.5 -80.5t-147.5 -29.5h-336v10l75 26v325h-97v38h97v321l-75 30v10h335zM356 20q77 0 138 31t104 80.5t65.5 112t22.5 124.5q0 95 -22.5 165t-65.5 116t-104 68.5t-138 22.5
h-187v-341h101v-38h-101v-341h187z" />
    <glyph glyph-name="dcroat" unicode="&#x111;" horiz-adv-x="459" 
d="M465 616h-56v-616h-40q-98 0 -161.5 25.5t-101 65.5t-52.5 87.5t-15 92.5q0 40 11 83t34 79t59.5 59t87.5 23q24 0 44 -7t37.5 -19t31.5 -26.5t25 -29.5v183h-147v38h147v106h-65v10l95 30h10v-146h56v-38zM80 282q0 -48 16.5 -94.5t51.5 -83.5t89.5 -61t131.5 -28v389
q-10 14 -23.5 28t-30 25.5t-36 19t-41.5 7.5q-33 0 -61.5 -15t-50 -41.5t-34 -63.5t-12.5 -82z" />
    <glyph glyph-name="Emacron" unicode="&#x112;" horiz-adv-x="568" 
d="M152 898h263v-38h-263v38zM49 10l75 26v684l-75 30v10h425q2 -21 5.5 -38t8 -34t10 -37t11.5 -46h-10l-65 125h-265v-306h185l25 85h10v-200h-10l-25 85h-185v-364h275l65 125h10q-6 -26 -11.5 -46t-10 -37t-8 -34t-5.5 -38h-435v10z" />
    <glyph glyph-name="emacron" unicode="&#x113;" 
d="M126 680h263v-38h-263v38zM260 -11q-56 0 -97 25.5t-69 64t-41.5 84t-13.5 86.5q0 60 17.5 109t47.5 84t70.5 54t86.5 19q41 0 74.5 -15.5t57 -44t36.5 -69t13 -89.5v-15h-369v-6q0 -53 16 -100t43.5 -81.5t65 -54.5t79.5 -20q63 0 107.5 39t76.5 117h15q-12 -39 -31 -73
t-46 -59.5t-61.5 -40t-77.5 -14.5zM399 312q0 39 -10 70.5t-29 54t-45 35t-58 12.5q-38 0 -68.5 -13.5t-53.5 -36.5t-37.5 -54.5t-19.5 -67.5h321z" />
    <glyph glyph-name="Edotaccent" unicode="&#x116;" horiz-adv-x="568" 
d="M284 860q-23 0 -37.5 14.5t-14.5 36.5t14.5 37.5t37.5 15.5t37 -15.5t14 -37.5t-14 -36.5t-37 -14.5zM49 10l75 26v684l-75 30v10h425q2 -21 5.5 -38t8 -34t10 -37t11.5 -46h-10l-65 125h-265v-306h185l25 85h10v-200h-10l-25 85h-185v-364h275l65 125h10
q-6 -26 -11.5 -46t-10 -37t-8 -34t-5.5 -38h-435v10z" />
    <glyph glyph-name="edotaccent" unicode="&#x117;" 
d="M253 605q-23 0 -37.5 14.5t-14.5 36.5t14.5 37.5t37.5 15.5t37 -15.5t14 -37.5t-14 -36.5t-37 -14.5zM260 -11q-56 0 -97 25.5t-69 64t-41.5 84t-13.5 86.5q0 60 17.5 109t47.5 84t70.5 54t86.5 19q41 0 74.5 -15.5t57 -44t36.5 -69t13 -89.5v-15h-369v-6q0 -53 16 -100
t43.5 -81.5t65 -54.5t79.5 -20q63 0 107.5 39t76.5 117h15q-12 -39 -31 -73t-46 -59.5t-61.5 -40t-77.5 -14.5zM399 312q0 39 -10 70.5t-29 54t-45 35t-58 12.5q-38 0 -68.5 -13.5t-53.5 -36.5t-37.5 -54.5t-19.5 -67.5h321z" />
    <glyph glyph-name="Eogonek" unicode="&#x118;" horiz-adv-x="568" 
d="M448 -181q26 0 54 28h9q-17 -26 -37 -40t-43 -14q-27 0 -46 19t-19 51q0 24 11 47t25 41t27.5 31t18.5 18h-399v10l75 26v684l-75 30v10h425q2 -21 5.5 -38t8 -34t10 -37t11.5 -46h-10l-65 125h-265v-306h185l25 85h10v-200h-10l-25 85h-185v-364h275l65 125h10
q-6 -26 -11.5 -46t-10 -37t-8 -34t-5.5 -38h-25q-6 -6 -17 -18t-21.5 -28.5t-18 -36t-7.5 -38.5q0 -28 15 -44t38 -16z" />
    <glyph glyph-name="eogonek" unicode="&#x119;" 
d="M319 -3q-7 -7 -17.5 -19.5t-20 -28t-16.5 -34t-7 -36.5q0 -28 15 -44t38 -16q26 0 54 28h9q-17 -26 -37 -40t-43 -14q-27 0 -46 19t-19 51q0 21 8.5 41.5t20.5 37.5t24.5 30t20.5 21q-10 -2 -21 -3t-22 -1q-56 0 -97 25.5t-69 64t-41.5 84t-13.5 86.5q0 60 17.5 109
t47.5 84t70.5 54t86.5 19q41 0 74.5 -15.5t57 -44t36.5 -69t13 -89.5v-15h-369v-6q0 -53 16 -100t43.5 -81.5t65 -54.5t79.5 -20q63 0 107.5 39t76.5 117h15q-20 -64 -58.5 -113t-98.5 -66zM257 484q-38 0 -68.5 -13.5t-53.5 -36.5t-37.5 -54.5t-19.5 -67.5h321
q0 39 -10 70.5t-29 54t-45 35t-58 12.5z" />
    <glyph glyph-name="Ecaron" unicode="&#x11a;" horiz-adv-x="568" 
d="M171 998q32 -37 62 -72.5t51 -68.5q21 33 51 68.5t61 72.5h13q-32 -56 -51.5 -92.5t-33 -57.5t-22.5 -29.5t-18 -8.5t-18 8.5t-22.5 29.5t-33.5 57.5t-52 92.5h13zM49 10l75 26v684l-75 30v10h425q2 -21 5.5 -38t8 -34t10 -37t11.5 -46h-10l-65 125h-265v-306h185l25 85
h10v-200h-10l-25 85h-185v-364h275l65 125h10q-6 -26 -11.5 -46t-10 -37t-8 -34t-5.5 -38h-435v10z" />
    <glyph glyph-name="ecaron" unicode="&#x11b;" 
d="M140 763q32 -37 62 -72.5t51 -68.5q21 33 51 68.5t61 72.5h13q-32 -56 -51.5 -92.5t-33 -57.5t-22.5 -29.5t-18 -8.5t-18 8.5t-22.5 29.5t-33.5 57.5t-52 92.5h13zM260 -11q-56 0 -97 25.5t-69 64t-41.5 84t-13.5 86.5q0 60 17.5 109t47.5 84t70.5 54t86.5 19
q41 0 74.5 -15.5t57 -44t36.5 -69t13 -89.5v-15h-369v-6q0 -53 16 -100t43.5 -81.5t65 -54.5t79.5 -20q63 0 107.5 39t76.5 117h15q-12 -39 -31 -73t-46 -59.5t-61.5 -40t-77.5 -14.5zM399 312q0 39 -10 70.5t-29 54t-45 35t-58 12.5q-38 0 -68.5 -13.5t-53.5 -36.5
t-37.5 -54.5t-19.5 -67.5h321z" />
    <glyph glyph-name="Gbreve" unicode="&#x11e;" horiz-adv-x="761" 
d="M386 810q-24 0 -48.5 9.5t-43.5 32t-31 58t-12 88.5h13q0 -26 6 -52t20.5 -47t37.5 -34t58 -13q34 0 57.5 13t38 34t20.5 47t6 52h13q0 -53 -12 -88.5t-31 -58t-43.5 -32t-48.5 -9.5zM404 -11q-78 0 -144 26.5t-115 77t-76.5 122.5t-27.5 162q0 84 29 155.5t81 124
t123.5 82t156.5 29.5q52 0 93.5 -11.5t71.5 -26.5t47.5 -29t20.5 -19v-222h-15q0 127 -59 199t-178 72q-32 0 -69 -6.5t-73 -21.5t-69.5 -39.5t-59 -60.5t-40.5 -83.5t-15 -109.5q0 -89 25 -160.5t71 -121t109 -76t140 -26.5q69 0 117 18t77.5 45.5t43 61t13.5 64.5
q0 42 -29 66.5t-73 38t-95.5 19t-96.5 9.5v15h318v-363h-21v125q-45 -64 -111.5 -100t-169.5 -36z" />
    <glyph glyph-name="gbreve" unicode="&#x11f;" horiz-adv-x="511" 
d="M256 575q-24 0 -48.5 9.5t-43.5 32t-31 58t-12 88.5h13q0 -26 6 -52t20.5 -47t37.5 -34t58 -13q34 0 57.5 13t38 34t20.5 47t6 52h13q0 -53 -12 -88.5t-31 -58t-43.5 -32t-48.5 -9.5zM244 -206q-27 0 -50 5.5t-43.5 18t-40 34t-40.5 53.5h15q23 -29 43.5 -47t39 -27.5
t35 -13t33.5 -3.5q66 0 100 39t34 96v51q-65 -15 -114.5 -10.5t-86.5 22.5t-61.5 47t-39.5 63.5t-21.5 71.5t-6.5 72q0 48 11.5 92.5t34.5 79.5t58 56t83 21q27 0 48 -7t38.5 -18t31 -26t25.5 -30v66h10l95 -30v-10h-64v-493q0 -51 -14.5 -84.5t-37.5 -53t-53.5 -27.5
t-61.5 -8zM370 405q-11 15 -24.5 29t-30 25t-36 18t-42.5 7q-32 0 -60.5 -14t-49.5 -41t-33.5 -66t-12.5 -89q0 -55 16.5 -109t52 -93t90 -56.5t130.5 -0.5v390z" />
    <glyph glyph-name="Gdotaccent" unicode="&#x120;" horiz-adv-x="761" 
d="M391 860q-23 0 -37.5 14.5t-14.5 36.5t14.5 37.5t37.5 15.5t37 -15.5t14 -37.5t-14 -36.5t-37 -14.5zM404 -11q-78 0 -144 26.5t-115 77t-76.5 122.5t-27.5 162q0 84 29 155.5t81 124t123.5 82t156.5 29.5q52 0 93.5 -11.5t71.5 -26.5t47.5 -29t20.5 -19v-222h-15
q0 127 -59 199t-178 72q-32 0 -69 -6.5t-73 -21.5t-69.5 -39.5t-59 -60.5t-40.5 -83.5t-15 -109.5q0 -89 25 -160.5t71 -121t109 -76t140 -26.5q69 0 117 18t77.5 45.5t43 61t13.5 64.5q0 42 -29 66.5t-73 38t-95.5 19t-96.5 9.5v15h318v-363h-21v125q-45 -64 -111.5 -100
t-169.5 -36z" />
    <glyph glyph-name="gdotaccent" unicode="&#x121;" horiz-adv-x="511" 
d="M256 605q-23 0 -37.5 14.5t-14.5 36.5t14.5 37.5t37.5 15.5t37 -15.5t14 -37.5t-14 -36.5t-37 -14.5zM244 -206q-27 0 -50 5.5t-43.5 18t-40 34t-40.5 53.5h15q23 -29 43.5 -47t39 -27.5t35 -13t33.5 -3.5q66 0 100 39t34 96v51q-65 -15 -114.5 -10.5t-86.5 22.5
t-61.5 47t-39.5 63.5t-21.5 71.5t-6.5 72q0 48 11.5 92.5t34.5 79.5t58 56t83 21q27 0 48 -7t38.5 -18t31 -26t25.5 -30v66h10l95 -30v-10h-64v-493q0 -51 -14.5 -84.5t-37.5 -53t-53.5 -27.5t-61.5 -8zM370 405q-11 15 -24.5 29t-30 25t-36 18t-42.5 7q-32 0 -60.5 -14
t-49.5 -41t-33.5 -66t-12.5 -89q0 -55 16.5 -109t52 -93t90 -56.5t130.5 -0.5v390z" />
    <glyph glyph-name="Gcommaaccent" unicode="&#x122;" horiz-adv-x="761" 
d="M404 -11q-78 0 -144 26.5t-115 77t-76.5 122.5t-27.5 162q0 84 29 155.5t81 124t123.5 82t156.5 29.5q52 0 93.5 -11.5t71.5 -26.5t47.5 -29t20.5 -19v-222h-15q0 127 -59 199t-178 72q-32 0 -69 -6.5t-73 -21.5t-69.5 -39.5t-59 -60.5t-40.5 -83.5t-15 -109.5
q0 -89 25 -160.5t71 -121t109 -76t140 -26.5q69 0 117 18t77.5 45.5t43 61t13.5 64.5q0 42 -29 66.5t-73 38t-95.5 19t-96.5 9.5v15h318v-363h-21v125q-45 -64 -111.5 -100t-169.5 -36zM400 -50q24 0 35.5 -21t11.5 -47q0 -8 -1.5 -19t-8.5 -27t-20 -36t-35 -44h-11
q22 28 34 49.5t12 37.5q0 17 -8 25t-18 14t-18 13.5t-8 22.5q0 16 10.5 24t24.5 8z" />
    <glyph glyph-name="gcommaaccent" unicode="&#x123;" horiz-adv-x="511" 
d="M261 586q-24 0 -35.5 21t-11.5 47q0 7 1.5 18.5t8.5 27.5t19.5 36t35.5 44h11q-22 -28 -34 -49.5t-12 -37.5q0 -17 8 -25t18 -14t18 -13.5t8 -22.5q0 -16 -10.5 -24t-24.5 -8zM244 -206q-27 0 -50 5.5t-43.5 18t-40 34t-40.5 53.5h15q23 -29 43.5 -47t39 -27.5t35 -13
t33.5 -3.5q66 0 100 39t34 96v51q-65 -15 -114.5 -10.5t-86.5 22.5t-61.5 47t-39.5 63.5t-21.5 71.5t-6.5 72q0 48 11.5 92.5t34.5 79.5t58 56t83 21q27 0 48 -7t38.5 -18t31 -26t25.5 -30v66h10l95 -30v-10h-64v-493q0 -51 -14.5 -84.5t-37.5 -53t-53.5 -27.5t-61.5 -8z
M370 405q-11 15 -24.5 29t-30 25t-36 18t-42.5 7q-32 0 -60.5 -14t-49.5 -41t-33.5 -66t-12.5 -89q0 -55 16.5 -109t52 -93t90 -56.5t130.5 -0.5v390z" />
    <glyph glyph-name="Hbar" unicode="&#x126;" horiz-adv-x="748" 
d="M624 720v-121h51v-38h-51v-525l75 -26v-10h-195v10l75 26v349h-410v-349l75 -26v-10h-195v10l75 26v525h-52v38h52v121l-75 30v10h195v-10l-75 -30v-121h410v121l-75 30v10h195v-10zM579 561h-410v-146h410v146z" />
    <glyph glyph-name="hbar" unicode="&#x127;" horiz-adv-x="541" 
d="M440 71q0 -32 15 -43t50 -18v-10h-170v10q34 7 49.5 18t15.5 43v264q0 83 -27.5 116t-81.5 33q-26 0 -50.5 -13.5t-45 -35t-34.5 -48.5t-20 -54v-262q0 -32 15 -43t50 -18v-10h-170v10q37 7 51 18t14 43v546h-67v38h67v40q0 25 -2.5 40t-9.5 21.5t-19.5 7t-33.5 -3.5v10
l95 30h10v-145h136v-38h-136v-236q5 15 17.5 38t34 44t52.5 36.5t73 15.5q55 0 88.5 -34t33.5 -116v-294v0z" />
    <glyph glyph-name="Imacron" unicode="&#x12a;" horiz-adv-x="361" 
d="M49 898h263v-38h-263v38zM83 10l75 26v684l-75 30v10h195v-10l-75 -30v-684l75 -26v-10h-195v10z" />
    <glyph glyph-name="imacron" unicode="&#x12b;" horiz-adv-x="243" 
d="M-10 680h263v-38h-263v38zM37 10l65 16v434h-65v10l95 30h10v-474l65 -16v-10h-170v10z" />
    <glyph glyph-name="Iogonek" unicode="&#x12e;" horiz-adv-x="293" 
d="M169 720v-684l75 -26v-10h-92q-6 -6 -17 -18t-21.5 -28.5t-18 -36t-7.5 -38.5q0 -28 15 -44t38 -16q26 0 54 28h9q-17 -26 -37 -40t-43 -14q-27 0 -46 19t-19 51q0 24 11 47t25 41t27.5 31t18.5 18h-92v10l75 26v684l-75 30v10h195v-10z" />
    <glyph glyph-name="iogonek" unicode="&#x12f;" horiz-adv-x="243" 
d="M115 641q-18 0 -29.5 12t-11.5 30t11.5 30t29.5 12t29.5 -12t11.5 -30t-11.5 -30t-29.5 -12zM136 0q-6 -6 -17 -18t-21.5 -28.5t-18 -36t-7.5 -38.5q0 -28 15 -44t38 -16q26 0 54 28h9q-17 -26 -37 -40t-43 -14q-27 0 -46 19t-19 51q0 24 11 47t25 41t27.5 31t18.5 18
h-88v10l65 16v434h-65v10l95 30h10v-474l65 -16v-10h-71z" />
    <glyph glyph-name="Idotaccent" unicode="&#x130;" horiz-adv-x="293" 
d="M147 860q-23 0 -37.5 14.5t-14.5 36.5t14.5 37.5t37.5 15.5t37 -15.5t14 -37.5t-14 -36.5t-37 -14.5zM49 10l75 26v684l-75 30v10h195v-10l-75 -30v-684l75 -26v-10h-195v10z" />
    <glyph glyph-name="dotlessi" unicode="&#x131;" horiz-adv-x="243" 
d="M37 10l65 16v434h-65v10l95 30h10v-474l65 -16v-10h-170v10z" />
    <glyph glyph-name="Kcommaaccent" unicode="&#x136;" horiz-adv-x="630" 
d="M592 10v-10h-195v10l72 26l-253 358l-47 -65v-293l75 -26v-10h-195v10l75 26v684l-75 30v10h195v-10l-75 -30v-350l263 356l-72 24v10h195v-10l-95 -24l-214 -291l276 -399zM309 -50q24 0 35.5 -21t11.5 -47q0 -8 -1.5 -19t-8.5 -27t-20 -36t-35 -44h-11q22 28 34 49.5
t12 37.5q0 17 -8 25t-18 14t-18 13.5t-8 22.5q0 16 10.5 24t24.5 8z" />
    <glyph glyph-name="kcommaaccent" unicode="&#x137;" horiz-adv-x="523" 
d="M487 10v-10h-195v10l82 16l-157 232l-86 -110v-122l65 -16v-10h-170v10l65 16v734h-65v10l95 30h10v-612l224 282l-91 20v10h195v-10l-79 -22l-134 -173l182 -269zM256 -50q24 0 35.5 -21t11.5 -47q0 -8 -1.5 -19t-8.5 -27t-20 -36t-35 -44h-11q22 28 34 49.5t12 37.5
q0 17 -8 25t-18 14t-18 13.5t-8 22.5q0 16 10.5 24t24.5 8z" />
    <glyph glyph-name="Lacute" unicode="&#x139;" horiz-adv-x="528" 
d="M126 810q27 55 48.5 91.5t38.5 58t29.5 30t20.5 8.5q16 0 16 -15q0 -12 -13.5 -32.5t-34.5 -44.5t-45.5 -49.5t-46.5 -46.5h-13zM49 10l75 26v684l-75 30v10h195v-10l-75 -30v-655q0 -16 8 -25.5t22 -9.5h245l65 125h10q-6 -26 -11.5 -46t-10 -37t-8 -34t-5.5 -38h-435
v10z" />
    <glyph glyph-name="lacute" unicode="&#x13a;" horiz-adv-x="242" 
d="M72 855q27 55 48.5 91.5t38.5 58t29.5 30t20.5 8.5q16 0 16 -15q0 -12 -13.5 -32.5t-34.5 -44.5t-45.5 -49.5t-46.5 -46.5h-13zM26 10l65 16v734h-65v10l95 30h10v-774l65 -16v-10h-170v10z" />
    <glyph glyph-name="Lcommaaccent" unicode="&#x13b;" horiz-adv-x="528" 
d="M49 10l75 26v684l-75 30v10h195v-10l-75 -30v-655q0 -16 8 -25.5t22 -9.5h245l65 125h10q-6 -26 -11.5 -46t-10 -37t-8 -34t-5.5 -38h-435v10zM298 -50q24 0 35.5 -21t11.5 -47q0 -8 -1.5 -19t-8.5 -27t-20 -36t-35 -44h-11q22 28 34 49.5t12 37.5q0 17 -8 25t-18 14
t-18 13.5t-8 22.5q0 16 10.5 24t24.5 8z" />
    <glyph glyph-name="lcommaaccent" unicode="&#x13c;" horiz-adv-x="222" 
d="M26 10l65 16v734h-65v10l95 30h10v-774l65 -16v-10h-170v10zM105 -50q24 0 35.5 -21t11.5 -47q0 -8 -1.5 -19t-8.5 -27t-20 -36t-35 -44h-11q22 28 34 49.5t12 37.5q0 17 -8 25t-18 14t-18 13.5t-8 22.5q0 16 10.5 24t24.5 8z" />
    <glyph glyph-name="Lcaron" unicode="&#x13d;" horiz-adv-x="528" 
d="M338 525q23 29 34.5 54t11.5 49q0 12 -2.5 26t-7.5 28.5t-11.5 28t-14.5 22.5q0 22 13 30.5t27 8.5q19 0 31.5 -13.5t12.5 -39.5q0 -16 -5 -39.5t-15.5 -50.5t-26.5 -54t-37 -50h-10zM49 10l75 26v684l-75 30v10h195v-10l-75 -30v-655q0 -16 8 -25.5t22 -9.5h245l65 125
h10q-6 -26 -11.5 -46t-10 -37t-8 -34t-5.5 -38h-435v10z" />
    <glyph glyph-name="lcaron" unicode="&#x13e;" horiz-adv-x="222" 
d="M188 554q23 29 34.5 54t11.5 49q0 12 -2.5 26t-7.5 28.5t-11.5 28t-14.5 22.5q0 22 13 30.5t27 8.5q19 0 31.5 -13.5t12.5 -39.5q0 -16 -5 -39.5t-15.5 -50.5t-26.5 -54t-37 -50h-10zM26 10l65 16v734h-65v10l95 30h10v-774l65 -16v-10h-170v10z" />
    <glyph glyph-name="Lslash" unicode="&#x141;" horiz-adv-x="528" 
d="M519 155q-6 -26 -11.5 -46t-10 -37t-8 -34t-5.5 -38h-435v10l75 26v314l-127 -53v38l127 53v332l-75 30v10h195v-10l-75 -30v-313l133 56v-39l-133 -55v-304q0 -16 8 -25.5t22 -9.5h245l65 125h10z" />
    <glyph glyph-name="lslash" unicode="&#x142;" horiz-adv-x="242" 
d="M36 10q37 7 51 18.5t14 46.5v382l-78 -32v38l78 33v189q0 25 -2.5 41.5t-9.5 25t-19.5 10.5t-33.5 -2v10l95 30h10v-287l72 30v-39l-72 -30v-399q0 -35 14.5 -46.5t50.5 -18.5v-10h-170v10z" />
    <glyph glyph-name="Nacute" unicode="&#x143;" horiz-adv-x="702" 
d="M302 810q27 55 48.5 91.5t38.5 58t29.5 30t20.5 8.5q16 0 16 -15q0 -12 -13.5 -32.5t-34.5 -44.5t-45.5 -49.5t-46.5 -46.5h-13zM49 10l75 26v684l-75 30v10h121l364 -629v589l-75 30v10h195v-10l-75 -30v-720h-25l-384 669v-633l74 -26v-10h-195v10z" />
    <glyph glyph-name="nacute" unicode="&#x144;" horiz-adv-x="542" 
d="M222 550q27 55 48.5 91.5t38.5 58t29.5 30t20.5 8.5q16 0 16 -15q0 -12 -13.5 -32.5t-34.5 -44.5t-45.5 -49.5t-46.5 -46.5h-13zM37 10l65 16v434h-65v10l95 30h10v-120q5 15 17.5 38t34 44.5t52.5 37t73 15.5q55 0 88.5 -34t33.5 -116v-339l65 -16v-10h-170v10l64 16
v309q0 83 -27 116t-81 33q-26 0 -50.5 -13.5t-45 -35.5t-34.5 -48.5t-20 -53.5v-307l65 -16v-10h-170v10z" />
    <glyph glyph-name="Ncommaaccent" unicode="&#x145;" horiz-adv-x="702" 
d="M49 10l75 26v684l-75 30v10h121l364 -629v589l-75 30v10h195v-10l-75 -30v-720h-25l-384 669v-633l74 -26v-10h-195v10zM375 -50q24 0 35.5 -21t11.5 -47q0 -8 -1.5 -19t-8.5 -27t-20 -36t-35 -44h-11q22 28 34 49.5t12 37.5q0 17 -8 25t-18 14t-18 13.5t-8 22.5
q0 16 10.5 24t24.5 8z" />
    <glyph glyph-name="ncommaaccent" unicode="&#x146;" horiz-adv-x="542" 
d="M37 10l65 16v434h-65v10l95 30h10v-120q5 15 17.5 38t34 44.5t52.5 37t73 15.5q55 0 88.5 -34t33.5 -116v-339l65 -16v-10h-170v10l64 16v309q0 83 -27 116t-81 33q-26 0 -50.5 -13.5t-45 -35.5t-34.5 -48.5t-20 -53.5v-307l65 -16v-10h-170v10zM265 -50q24 0 35.5 -21
t11.5 -47q0 -8 -1.5 -19t-8.5 -27t-20 -36t-35 -44h-11q22 28 34 49.5t12 37.5q0 17 -8 25t-18 14t-18 13.5t-8 22.5q0 16 10.5 24t24.5 8z" />
    <glyph glyph-name="Ncaron" unicode="&#x147;" horiz-adv-x="702" 
d="M238 998q32 -37 62 -72.5t51 -68.5q21 33 51 68.5t61 72.5h13q-32 -56 -51.5 -92.5t-33 -57.5t-22.5 -29.5t-18 -8.5t-18 8.5t-22.5 29.5t-33.5 57.5t-52 92.5h13zM49 10l75 26v684l-75 30v10h121l364 -629v589l-75 30v10h195v-10l-75 -30v-720h-25l-384 669v-633l74 -26
v-10h-195v10z" />
    <glyph glyph-name="ncaron" unicode="&#x148;" horiz-adv-x="542" 
d="M168 763q32 -37 62 -72.5t51 -68.5q21 33 51 68.5t61 72.5h13q-32 -56 -51.5 -92.5t-33 -57.5t-22.5 -29.5t-18 -8.5t-18 8.5t-22.5 29.5t-33.5 57.5t-52 92.5h13zM37 10l65 16v434h-65v10l95 30h10v-120q5 15 17.5 38t34 44.5t52.5 37t73 15.5q55 0 88.5 -34t33.5 -116
v-339l65 -16v-10h-170v10l64 16v309q0 83 -27 116t-81 33q-26 0 -50.5 -13.5t-45 -35.5t-34.5 -48.5t-20 -53.5v-307l65 -16v-10h-170v10z" />
    <glyph glyph-name="Eng" unicode="&#x14a;" horiz-adv-x="702" 
d="M654 760v-10l-75 -30v-720q0 -43 -6 -80.5t-22 -65.5t-45.5 -44.5t-76.5 -16.5q-34 0 -59.5 8t-44.5 21t-32.5 29.5t-23.5 33.5l80 203h15q-14 -47 -27 -84.5t-13 -67.5q0 -53 25.5 -79.5t82.5 -26.5q20 0 38.5 7t32.5 27.5t22.5 58.5t8.5 100v12l-364 634v-633l74 -26
v-10h-195v10l75 26v684l-75 30v10h121l364 -629v589l-75 30v10h195z" />
    <glyph glyph-name="eng" unicode="&#x14b;" horiz-adv-x="476" 
d="M340 -206q-35 0 -64 21.5t-40 49.5h5q15 -24 40 -37.5t48 -13.5q33 0 52 29t19 80v412q0 83 -27 116t-81 33q-26 0 -50.5 -13.5t-45 -35.5t-34.5 -48.5t-20 -53.5v-307l65 -16v-10h-170v10l65 16v434h-65v10l95 30h10v-120q5 15 17.5 38t34 44.5t52.5 37t73 15.5
q55 0 88.5 -34t33.5 -116v-445q0 -32 -8.5 -56t-23 -39.5t-32.5 -23t-37 -7.5z" />
    <glyph glyph-name="Omacron" unicode="&#x14c;" horiz-adv-x="803" 
d="M271 898h263v-38h-263v38zM388 -11q-71 0 -134 28.5t-110 80t-75 123t-28 157.5q0 87 30.5 158.5t81.5 123t116.5 80t136.5 28.5q72 0 136.5 -29t113.5 -80t77.5 -120t28.5 -149q0 -89 -31.5 -162.5t-83.5 -126.5t-119.5 -82.5t-139.5 -29.5zM410 26q30 0 63.5 7t67 23
t64 41.5t54 63t37.5 87t14 114.5q0 93 -28 162.5t-73.5 115t-103 68.5t-117.5 23q-45 0 -97.5 -17t-98 -54.5t-76 -98.5t-30.5 -149q0 -101 31 -173.5t78.5 -120t104.5 -70t110 -22.5z" />
    <glyph glyph-name="omacron" unicode="&#x14d;" horiz-adv-x="528" 
d="M132 680h263v-38h-263v38zM266 -11q-57 0 -99.5 25t-71 63t-42.5 84.5t-14 88.5q0 44 13.5 91t41.5 85.5t71.5 63.5t104.5 25q57 0 98.5 -25t68.5 -63t39.5 -83.5t12.5 -86.5q0 -42 -13 -89t-40.5 -86.5t-69.5 -66t-100 -26.5zM279 20q36 0 67 17.5t53.5 47.5t35.5 70.5
t13 87.5q0 46 -13 89.5t-37 77.5t-59 54t-79 20q-42 0 -76.5 -16.5t-58.5 -46t-37 -69t-13 -85.5t14.5 -90t41.5 -79t64.5 -56.5t83.5 -21.5z" />
    <glyph glyph-name="Ohungarumlaut" unicode="&#x150;" horiz-adv-x="803" 
d="M298 810q27 55 48.5 91.5t38.5 58t29.5 30t20.5 8.5q16 0 16 -15q0 -12 -13.5 -32.5t-34.5 -44.5t-45.5 -49.5t-46.5 -46.5h-13zM418 810q27 55 48.5 91.5t38.5 58t29.5 30t20.5 8.5q16 0 16 -15q0 -12 -13.5 -32.5t-34.5 -44.5t-45.5 -49.5t-46.5 -46.5h-13zM388 -11
q-71 0 -134 28.5t-110 80t-75 123t-28 157.5q0 87 30.5 158.5t81.5 123t116.5 80t136.5 28.5q72 0 136.5 -29t113.5 -80t77.5 -120t28.5 -149q0 -89 -31.5 -162.5t-83.5 -126.5t-119.5 -82.5t-139.5 -29.5zM410 26q30 0 63.5 7t67 23t64 41.5t54 63t37.5 87t14 114.5
q0 93 -28 162.5t-73.5 115t-103 68.5t-117.5 23q-45 0 -97.5 -17t-98 -54.5t-76 -98.5t-30.5 -149q0 -101 31 -173.5t78.5 -120t104.5 -70t110 -22.5z" />
    <glyph glyph-name="ohungarumlaut" unicode="&#x151;" horiz-adv-x="528" 
d="M140 575q27 55 48.5 91.5t38.5 58t29.5 30t20.5 8.5q16 0 16 -15q0 -12 -13.5 -32.5t-34.5 -44.5t-45.5 -49.5t-46.5 -46.5h-13zM260 575q27 55 48.5 91.5t38.5 58t29.5 30t20.5 8.5q16 0 16 -15q0 -12 -13.5 -32.5t-34.5 -44.5t-45.5 -49.5t-46.5 -46.5h-13zM266 -11
q-57 0 -99.5 25t-71 63t-42.5 84.5t-14 88.5q0 44 13.5 91t41.5 85.5t71.5 63.5t104.5 25q57 0 98.5 -25t68.5 -63t39.5 -83.5t12.5 -86.5q0 -42 -13 -89t-40.5 -86.5t-69.5 -66t-100 -26.5zM279 20q36 0 67 17.5t53.5 47.5t35.5 70.5t13 87.5q0 46 -13 89.5t-37 77.5
t-59 54t-79 20q-42 0 -76.5 -16.5t-58.5 -46t-37 -69t-13 -85.5t14.5 -90t41.5 -79t64.5 -56.5t83.5 -21.5z" />
    <glyph glyph-name="OE" unicode="&#x152;" horiz-adv-x="1008" 
d="M388 -11q-71 0 -134 28.5t-110 80t-75 123t-28 157.5q0 87 30.5 158.5t81.5 123t116.5 80t136.5 28.5q39 0 80 -10t78 -29v31h350q2 -21 5.5 -38t8 -34t10 -37t11.5 -46h-10l-65 125h-265v-306h185l25 85h10v-200h-10l-25 85h-185v-364h275l65 125h10q-6 -26 -11.5 -46
t-10 -37t-8 -34t-5.5 -38h-360v37q-49 -28 -94.5 -38t-81.5 -10zM410 26q52 0 93.5 15t60.5 27v609q-29 21 -75.5 37.5t-100.5 16.5q-45 0 -97.5 -17t-98 -54.5t-76 -98.5t-30.5 -149q0 -101 31 -173.5t78.5 -120t104.5 -70t110 -22.5z" />
    <glyph glyph-name="oe" unicode="&#x153;" horiz-adv-x="923" 
d="M266 -11q-57 0 -99.5 25t-71 63t-42.5 84.5t-14 88.5q0 44 13.5 91t41.5 85.5t71.5 63.5t104.5 25q41 0 74 -13.5t58 -35.5t42.5 -51.5t28.5 -60.5q25 75 80.5 118t125.5 43q41 0 74.5 -15.5t57 -44t36.5 -69t13 -89.5v-12h-369v-9q0 -53 16 -100t43.5 -81.5t65 -54.5
t79.5 -20q63 0 107.5 39t76.5 117h15q-12 -39 -31 -73t-46 -59.5t-61.5 -40t-77.5 -14.5q-41 0 -74 14t-58.5 37.5t-44 54t-28.5 62.5q-11 -33 -29 -63t-43.5 -53.5t-59 -37.5t-75.5 -14zM279 20q36 0 67 17.5t53.5 47.5t35.5 70.5t13 87.5q0 46 -13 89.5t-37 77.5t-59 54
t-79 20q-42 0 -76.5 -16.5t-58.5 -46t-37 -69t-13 -85.5t14.5 -90t41.5 -79t64.5 -56.5t83.5 -21.5zM817 312q0 39 -10 70.5t-29 54t-45 35t-58 12.5q-38 0 -68.5 -13.5t-53.5 -36.5t-37.5 -54.5t-19.5 -67.5h321z" />
    <glyph glyph-name="Racute" unicode="&#x154;" horiz-adv-x="657" 
d="M423 983q0 -12 -13.5 -32.5t-34.5 -44.5t-45.5 -49.5t-46.5 -46.5h-13q27 55 48.5 91.5t38.5 58t29.5 30t20.5 8.5q16 0 16 -15zM609 10v-10h-215v10l73 26l-203 334h-95v-334l75 -26v-10h-195v10l75 26v684l-75 30v10h289q46 0 89.5 -12.5t77 -36.5t54 -59.5t20.5 -81.5
q0 -52 -20.5 -90t-54 -62.5t-77 -36t-89.5 -11.5h-22l204 -334zM169 390h164q91 0 143.5 48t52.5 133q0 84 -52.5 126.5t-143.5 42.5h-164v-350z" />
    <glyph glyph-name="racute" unicode="&#x155;" horiz-adv-x="401" 
d="M152 575q27 55 48.5 91.5t38.5 58t29.5 30t20.5 8.5q16 0 16 -15q0 -12 -13.5 -32.5t-34.5 -44.5t-45.5 -49.5t-46.5 -46.5h-13zM37 10l65 16v434h-65v10l95 30h10v-144h1q6 25 18 53.5t28.5 51.5t38 38.5t48.5 15.5q20 0 35 -6.5t26 -16t18.5 -20.5t13.5 -20l-58 -150
h-15q11 29 17 56t6 51q0 35 -12.5 57t-40.5 22q-25 0 -46 -23.5t-37.5 -58.5t-27 -76t-13.5 -77v-227l65 -16v-10h-170v10z" />
    <glyph glyph-name="Rcommaaccent" unicode="&#x156;" horiz-adv-x="657" 
d="M609 10v-10h-215v10l73 26l-203 334h-95v-334l75 -26v-10h-195v10l75 26v684l-75 30v10h289q46 0 89.5 -12.5t77 -36.5t54 -59.5t20.5 -81.5q0 -52 -20.5 -90t-54 -62.5t-77 -36t-89.5 -11.5h-22l204 -334zM169 390h164q91 0 143.5 48t52.5 133q0 84 -52.5 126.5
t-143.5 42.5h-164v-350zM298 -50q24 0 35.5 -21t11.5 -47q0 -8 -1.5 -19t-8.5 -27t-20 -36t-35 -44h-11q22 28 34 49.5t12 37.5q0 17 -8 25t-18 14t-18 13.5t-8 22.5q0 16 10.5 24t24.5 8z" />
    <glyph glyph-name="rcommaaccent" unicode="&#x157;" horiz-adv-x="401" 
d="M37 10l65 16v434h-65v10l95 30h10v-144h1q6 25 18 53.5t28.5 51.5t38 38.5t48.5 15.5q20 0 35 -6.5t26 -16t18.5 -20.5t13.5 -20l-58 -150h-15q11 29 17 56t6 51q0 35 -12.5 57t-40.5 22q-25 0 -46 -23.5t-37.5 -58.5t-27 -76t-13.5 -77v-227l65 -16v-10h-170v10z
M195 -50q24 0 35.5 -21t11.5 -47q0 -8 -1.5 -19t-8.5 -27t-20 -36t-35 -44h-11q22 28 34 49.5t12 37.5q0 17 -8 25t-18 14t-18 13.5t-8 22.5q0 16 10.5 24t24.5 8z" />
    <glyph glyph-name="Rcaron" unicode="&#x158;" horiz-adv-x="657" 
d="M314 810q-9 0 -18 8.5t-22.5 29.5t-33.5 57.5t-52 92.5h13q32 -37 62 -72.5t51 -68.5q21 33 51 68.5t61 72.5h13q-32 -56 -51.5 -92.5t-33 -57.5t-22.5 -29.5t-18 -8.5zM609 10v-10h-215v10l73 26l-203 334h-95v-334l75 -26v-10h-195v10l75 26v684l-75 30v10h289
q46 0 89.5 -12.5t77 -36.5t54 -59.5t20.5 -81.5q0 -52 -20.5 -90t-54 -62.5t-77 -36t-89.5 -11.5h-22l204 -334zM169 390h164q91 0 143.5 48t52.5 133q0 84 -52.5 126.5t-143.5 42.5h-164v-350z" />
    <glyph glyph-name="rcaron" unicode="&#x159;" horiz-adv-x="401" 
d="M88 763q32 -37 62 -72.5t51 -68.5q21 33 51 68.5t61 72.5h13q-32 -56 -51.5 -92.5t-33 -57.5t-22.5 -29.5t-18 -8.5t-18 8.5t-22.5 29.5t-33.5 57.5t-52 92.5h13zM37 10l65 16v434h-65v10l95 30h10v-144h1q6 25 18 53.5t28.5 51.5t38 38.5t48.5 15.5q20 0 35 -6.5t26 -16
t18.5 -20.5t13.5 -20l-58 -150h-15q11 29 17 56t6 51q0 35 -12.5 57t-40.5 22q-25 0 -46 -23.5t-37.5 -58.5t-27 -76t-13.5 -77v-227l65 -16v-10h-170v10z" />
    <glyph glyph-name="Sacute" unicode="&#x15a;" horiz-adv-x="591" 
d="M257 810q27 55 48.5 91.5t38.5 58t29.5 30t20.5 8.5q16 0 16 -15q0 -12 -13.5 -32.5t-34.5 -44.5t-45.5 -49.5t-46.5 -46.5h-13zM288 -11q-47 0 -86 11t-69 28.5t-51 38t-33 39.5l50 195h20q-7 -27 -12.5 -55.5t-5.5 -57.5q0 -54 21 -88t51.5 -52.5t65.5 -25t62 -6.5
q39 0 76.5 10.5t67.5 33t48.5 57.5t18.5 84q0 37 -11 63.5t-31.5 45.5t-50 32t-66.5 22q-25 6 -43 10.5t-33 9t-28 9.5t-27 11q-64 29 -97 68.5t-33 101.5q0 32 10.5 66.5t35 63t64.5 46.5t100 18q37 0 68 -7t56.5 -18.5t46 -26t36.5 -29.5l-65 -148h-20q9 20 17.5 47
t8.5 50q0 30 -15 49.5t-37.5 31t-49 16t-48.5 4.5q-32 0 -65 -8.5t-59 -26t-42.5 -44t-16.5 -63.5q0 -48 30 -81t92 -56q24 -9 51 -16.5t59 -15.5q41 -11 76.5 -27t61 -40.5t40 -59t14.5 -80.5q0 -54 -19.5 -96.5t-53.5 -72.5t-80.5 -45.5t-99.5 -15.5z" />
    <glyph glyph-name="sacute" unicode="&#x15b;" horiz-adv-x="410" 
d="M146 575q27 55 48.5 91.5t38.5 58t29.5 30t20.5 8.5q16 0 16 -15q0 -12 -13.5 -32.5t-34.5 -44.5t-45.5 -49.5t-46.5 -46.5h-13zM205 -11q-35 0 -62.5 8.5t-48 21t-35 26.5t-23.5 25l48 134h14q-13 -38 -13 -76q0 -46 27.5 -78.5t92.5 -32.5q33 0 60.5 9t47 24t30 35.5
t10.5 43.5q0 24 -12 41t-34.5 30t-54.5 24.5t-72 23.5q-57 18 -89.5 50.5t-32.5 87.5q0 33 11.5 57t32 40t47 24t56.5 8t54 -7t42.5 -17.5t32.5 -23t23 -23.5l-37 -109h-15q9 28 9 51q0 48 -32.5 74t-80.5 26q-23 0 -45 -6.5t-39 -18.5t-27 -29.5t-10 -40.5q0 -35 28 -56.5
t95 -41.5q32 -10 62.5 -19t54 -24t38 -39.5t14.5 -65.5q0 -39 -13 -68.5t-35.5 -49t-53 -29t-65.5 -9.5z" />
    <glyph glyph-name="Scedilla" unicode="&#x15e;" horiz-adv-x="591" 
d="M541 219q0 -50 -17 -90.5t-47.5 -70t-71.5 -47t-89 -21.5l-27 -47q40 0 58 -19.5t18 -45.5q0 -14 -5.5 -28.5t-15.5 -26.5t-25 -19.5t-34 -7.5q-15 0 -30 4.5t-28 12.5v8q28 -11 52 -11q26 0 43 12.5t17 38.5q0 20 -17.5 36t-55.5 16v19l32 57h-10q-47 0 -86 11t-69 28.5
t-51 38t-33 39.5l50 195h20q-7 -27 -12.5 -55.5t-5.5 -57.5q0 -54 21 -88t51.5 -52.5t65.5 -25t62 -6.5q39 0 76.5 10.5t67.5 33t48.5 57.5t18.5 84q0 37 -11 63.5t-31.5 45.5t-50 32t-66.5 22q-25 6 -43 10.5t-33 9t-28 9.5t-27 11q-64 29 -97 68.5t-33 101.5
q0 32 10.5 66.5t35 63t64.5 46.5t100 18q37 0 68 -7t56.5 -18.5t46 -26t36.5 -29.5l-65 -148h-20q9 20 17.5 47t8.5 50q0 30 -15 49.5t-37.5 31t-49 16t-48.5 4.5q-32 0 -65 -8.5t-59 -26t-42.5 -44t-16.5 -63.5q0 -48 30 -81t92 -56q24 -9 51 -16.5t59 -15.5
q41 -11 76.5 -27t61 -40.5t40 -59t14.5 -80.5z" />
    <glyph glyph-name="scedilla" unicode="&#x15f;" horiz-adv-x="410" 
d="M372 145q0 -36 -11.5 -64t-31 -47.5t-46.5 -30t-58 -13.5l-27 -47q40 0 58 -19.5t18 -45.5q0 -14 -5.5 -28.5t-15.5 -26.5t-25 -19.5t-34 -7.5q-15 0 -30 4.5t-28 12.5v8q28 -11 52 -11q26 0 43 12.5t17 38.5q0 20 -17.5 36t-55.5 16v19l32 57h-2q-35 0 -62.5 8.5t-48 21
t-35 26.5t-23.5 25l48 134h14q-13 -38 -13 -76q0 -46 27.5 -78.5t92.5 -32.5q33 0 60.5 9t47 24t30 35.5t10.5 43.5q0 24 -12 41t-34.5 30t-54.5 24.5t-72 23.5q-57 18 -89.5 50.5t-32.5 87.5q0 33 11.5 57t32 40t47 24t56.5 8t54 -7t42.5 -17.5t32.5 -23t23 -23.5l-37 -109
h-15q9 28 9 51q0 48 -32.5 74t-80.5 26q-23 0 -45 -6.5t-39 -18.5t-27 -29.5t-10 -40.5q0 -35 28 -56.5t95 -41.5q32 -10 62.5 -19t54 -24t38 -39.5t14.5 -65.5z" />
    <glyph glyph-name="Scaron" unicode="&#x160;" horiz-adv-x="591" 
d="M183 998q32 -37 62 -72.5t51 -68.5q21 33 51 68.5t61 72.5h13q-32 -56 -51.5 -92.5t-33 -57.5t-22.5 -29.5t-18 -8.5t-18 8.5t-22.5 29.5t-33.5 57.5t-52 92.5h13zM288 -11q-47 0 -86 11t-69 28.5t-51 38t-33 39.5l50 195h20q-7 -27 -12.5 -55.5t-5.5 -57.5q0 -54 21 -88
t51.5 -52.5t65.5 -25t62 -6.5q39 0 76.5 10.5t67.5 33t48.5 57.5t18.5 84q0 37 -11 63.5t-31.5 45.5t-50 32t-66.5 22q-25 6 -43 10.5t-33 9t-28 9.5t-27 11q-64 29 -97 68.5t-33 101.5q0 32 10.5 66.5t35 63t64.5 46.5t100 18q37 0 68 -7t56.5 -18.5t46 -26t36.5 -29.5
l-65 -148h-20q9 20 17.5 47t8.5 50q0 30 -15 49.5t-37.5 31t-49 16t-48.5 4.5q-32 0 -65 -8.5t-59 -26t-42.5 -44t-16.5 -63.5q0 -48 30 -81t92 -56q24 -9 51 -16.5t59 -15.5q41 -11 76.5 -27t61 -40.5t40 -59t14.5 -80.5q0 -54 -19.5 -96.5t-53.5 -72.5t-80.5 -45.5
t-99.5 -15.5z" />
    <glyph glyph-name="scaron" unicode="&#x161;" horiz-adv-x="410" 
d="M92 763q32 -37 62 -72.5t51 -68.5q21 33 51 68.5t61 72.5h13q-32 -56 -51.5 -92.5t-33 -57.5t-22.5 -29.5t-18 -8.5t-18 8.5t-22.5 29.5t-33.5 57.5t-52 92.5h13zM205 -11q-35 0 -62.5 8.5t-48 21t-35 26.5t-23.5 25l48 134h14q-13 -38 -13 -76q0 -46 27.5 -78.5
t92.5 -32.5q33 0 60.5 9t47 24t30 35.5t10.5 43.5q0 24 -12 41t-34.5 30t-54.5 24.5t-72 23.5q-57 18 -89.5 50.5t-32.5 87.5q0 33 11.5 57t32 40t47 24t56.5 8t54 -7t42.5 -17.5t32.5 -23t23 -23.5l-37 -109h-15q9 28 9 51q0 48 -32.5 74t-80.5 26q-23 0 -45 -6.5
t-39 -18.5t-27 -29.5t-10 -40.5q0 -35 28 -56.5t95 -41.5q32 -10 62.5 -19t54 -24t38 -39.5t14.5 -65.5q0 -39 -13 -68.5t-35.5 -49t-53 -29t-65.5 -9.5z" />
    <glyph glyph-name="uni0162" unicode="&#x162;" horiz-adv-x="743" 
d="M659 760q2 -21 5.5 -38t8 -34t10 -37t11.5 -46h-10l-65 125h-225v-694l75 -26v-10h-86l-33 -57q40 0 58 -19.5t18 -45.5q0 -14 -5.5 -28.5t-15.5 -26.5t-25 -19.5t-34 -7.5q-15 0 -30 4.5t-28 12.5v8q28 -11 52 -11q26 0 43 12.5t17 38.5q0 20 -17.5 36t-55.5 16v19
l39 68h-92v10l75 26v694h-225l-65 -125h-10q6 26 11.5 46t10 37t8 34t5.5 38h575v0z" />
    <glyph glyph-name="uni0163" unicode="&#x163;" horiz-adv-x="317" 
d="M178 -11l-26 -46q40 0 58 -19.5t18 -45.5q0 -14 -5.5 -28.5t-15.5 -26.5t-25 -19.5t-34 -7.5q-15 0 -30 4.5t-28 12.5v8q28 -11 52 -11q26 0 43 12.5t17 38.5q0 20 -17.5 36t-55.5 16v19l33 59q-35 6 -52.5 39.5t-17.5 104.5v340h-76v10l77 15l24 170h15v-170h132v-25
h-132v-335q0 -69 16 -97t52 -28q9 0 19.5 2.5t22 11t23 24.5t21.5 43h15q-16 -56 -47 -81.5t-72 -25.5h-4z" />
    <glyph glyph-name="Tcaron" unicode="&#x164;" horiz-adv-x="743" 
d="M261 998q32 -37 62 -72.5t51 -68.5q21 33 51 68.5t61 72.5h13q-32 -56 -51.5 -92.5t-33 -57.5t-22.5 -29.5t-18 -8.5t-18 8.5t-22.5 29.5t-33.5 57.5t-52 92.5h13zM274 10l75 26v694h-225l-65 -125h-10q6 26 11.5 46t10 37t8 34t5.5 38h575q2 -21 5.5 -38t8 -34t10 -37
t11.5 -46h-10l-65 125h-225v-694l75 -26v-10h-195v10z" />
    <glyph glyph-name="tcaron" unicode="&#x165;" horiz-adv-x="317" 
d="M207 554q23 29 34.5 54t11.5 49q0 12 -2.5 26t-7.5 28.5t-11.5 28t-14.5 22.5q0 22 13 30.5t27 8.5q19 0 31.5 -13.5t12.5 -39.5q0 -16 -5 -39.5t-15.5 -50.5t-26.5 -54t-37 -50h-10zM182 -11q-45 0 -67.5 33t-22.5 113v340h-76v10l77 15l24 170h15v-170h132v-25h-132
v-335q0 -69 16 -97t52 -28q9 0 19.5 2.5t22 11t23 24.5t21.5 43h15q-16 -56 -47 -81.5t-72 -25.5z" />
    <glyph glyph-name="Tbar" unicode="&#x166;" horiz-adv-x="743" 
d="M659 760q2 -21 5.5 -38t8 -34t10 -37t11.5 -46h-10l-65 125h-225v-331h99v-38h-99v-325l75 -26v-10h-195v10l75 26v325h-99v38h99v331h-225l-65 -125h-10q6 26 11.5 46t10 37t8 34t5.5 38h575v0z" />
    <glyph glyph-name="tbar" unicode="&#x167;" horiz-adv-x="317" 
d="M301 96q-16 -56 -47 -81.5t-72 -25.5q-45 0 -67.5 33t-22.5 113v96h-55v38h55v206h-76v10l77 15l24 170h15v-170h132v-25h-132v-206h148v-38h-148v-91q0 -69 16 -97t52 -28q9 0 19.5 2.5t22 11t23 24.5t21.5 43h15z" />
    <glyph glyph-name="Umacron" unicode="&#x16a;" horiz-adv-x="746" 
d="M246 898h263v-38h-263v38zM374 -11q-72 0 -120.5 22t-77.5 61.5t-41 94.5t-12 120v433l-75 30v10h195v-10l-75 -30v-433q0 -73 15.5 -122t43.5 -79t67 -43t87 -13t85 13t62 43t37.5 79.5t12.5 121.5v433l-75 30v10h195v-10l-75 -30v-433q0 -68 -12.5 -123t-42 -94
t-77 -60t-117.5 -21z" />
    <glyph glyph-name="umacron" unicode="&#x16b;" horiz-adv-x="521" 
d="M129 680h263v-38h-263v38zM217 -11q-25 0 -46 7.5t-36.5 26.5t-24.5 51t-9 81v305h-65v10l95 30h10v-332q0 -81 25.5 -114.5t69.5 -33.5q27 0 49.5 11t40.5 28.5t31.5 40t22.5 45.5v315h-65v10l95 30h10v-460h65v-10l-95 -30h-10v105q-8 -17 -21.5 -37.5t-33 -38
t-46.5 -29t-62 -11.5z" />
    <glyph glyph-name="Uring" unicode="&#x16e;" horiz-adv-x="746" 
d="M370 832q-34 0 -57.5 24t-23.5 57t23.5 56.5t57.5 23.5q16 0 30.5 -6.5t25.5 -17t17.5 -25.5t6.5 -31q0 -17 -6.5 -31.5t-17.5 -25.5t-25.5 -17.5t-30.5 -6.5zM370 855q23 0 40 17.5t17 40.5t-17 40t-40 17q-24 0 -41 -17t-17 -40t17 -40.5t41 -17.5zM374 -11
q-72 0 -120.5 22t-77.5 61.5t-41 94.5t-12 120v433l-75 30v10h195v-10l-75 -30v-433q0 -73 15.5 -122t43.5 -79t67 -43t87 -13t85 13t62 43t37.5 79.5t12.5 121.5v433l-75 30v10h195v-10l-75 -30v-433q0 -68 -12.5 -123t-42 -94t-77 -60t-117.5 -21z" />
    <glyph glyph-name="uring" unicode="&#x16f;" horiz-adv-x="521" 
d="M254 572q-34 0 -57.5 24t-23.5 57t23.5 56.5t57.5 23.5q16 0 30.5 -6.5t25.5 -17t17.5 -25.5t6.5 -31q0 -17 -6.5 -31.5t-17.5 -25.5t-25.5 -17.5t-30.5 -6.5zM254 595q23 0 40 17.5t17 40.5t-17 40t-40 17q-24 0 -41 -17t-17 -40t17 -40.5t41 -17.5zM217 -11
q-25 0 -46 7.5t-36.5 26.5t-24.5 51t-9 81v305h-65v10l95 30h10v-332q0 -81 25.5 -114.5t69.5 -33.5q27 0 49.5 11t40.5 28.5t31.5 40t22.5 45.5v315h-65v10l95 30h10v-460h65v-10l-95 -30h-10v105q-8 -17 -21.5 -37.5t-33 -38t-46.5 -29t-62 -11.5z" />
    <glyph glyph-name="Uhungarumlaut" unicode="&#x170;" horiz-adv-x="746" 
d="M268 810q27 55 48.5 91.5t38.5 58t29.5 30t20.5 8.5q16 0 16 -15q0 -12 -13.5 -32.5t-34.5 -44.5t-45.5 -49.5t-46.5 -46.5h-13zM388 810q27 55 48.5 91.5t38.5 58t29.5 30t20.5 8.5q16 0 16 -15q0 -12 -13.5 -32.5t-34.5 -44.5t-45.5 -49.5t-46.5 -46.5h-13zM374 -11
q-72 0 -120.5 22t-77.5 61.5t-41 94.5t-12 120v433l-75 30v10h195v-10l-75 -30v-433q0 -73 15.5 -122t43.5 -79t67 -43t87 -13t85 13t62 43t37.5 79.5t12.5 121.5v433l-75 30v10h195v-10l-75 -30v-433q0 -68 -12.5 -123t-42 -94t-77 -60t-117.5 -21z" />
    <glyph glyph-name="uhungarumlaut" unicode="&#x171;" horiz-adv-x="521" 
d="M127 575q27 55 48.5 91.5t38.5 58t29.5 30t20.5 8.5q16 0 16 -15q0 -12 -13.5 -32.5t-34.5 -44.5t-45.5 -49.5t-46.5 -46.5h-13zM247 575q27 55 48.5 91.5t38.5 58t29.5 30t20.5 8.5q16 0 16 -15q0 -12 -13.5 -32.5t-34.5 -44.5t-45.5 -49.5t-46.5 -46.5h-13zM217 -11
q-25 0 -46 7.5t-36.5 26.5t-24.5 51t-9 81v305h-65v10l95 30h10v-332q0 -81 25.5 -114.5t69.5 -33.5q27 0 49.5 11t40.5 28.5t31.5 40t22.5 45.5v315h-65v10l95 30h10v-460h65v-10l-95 -30h-10v105q-8 -17 -21.5 -37.5t-33 -38t-46.5 -29t-62 -11.5z" />
    <glyph glyph-name="Uogonek" unicode="&#x172;" horiz-adv-x="746" 
d="M698 760v-10l-75 -30v-433q0 -65 -11 -117.5t-37 -91t-68 -61.5t-103 -27q-8 -8 -17 -20.5t-17.5 -27t-14 -31t-5.5 -32.5q0 -28 15 -44t38 -16q26 0 54 28h9q-17 -26 -37 -40t-43 -14q-27 0 -46 19t-19 51q0 20 7.5 39t18.5 35.5t23 30t21 21.5h-17q-72 0 -120.5 22
t-77.5 61.5t-41 94.5t-12 120v433l-75 30v10h195v-10l-75 -30v-433q0 -73 15.5 -122t43.5 -79t67 -43t87 -13t85 13t62 43t37.5 79.5t12.5 121.5v433l-75 30v10h195z" />
    <glyph glyph-name="uogonek" unicode="&#x173;" horiz-adv-x="521" 
d="M391 0q-6 -5 -16.5 -17.5t-21 -29t-18.5 -36t-8 -38.5q0 -28 15 -44t38 -16q26 0 54 28h9q-17 -26 -37 -40t-43 -14q-27 0 -46 19t-19 51q0 24 11 47t25 41.5t27.5 31t18.5 17.5v105q-8 -17 -21.5 -37.5t-33 -38t-46.5 -29t-62 -11.5q-25 0 -46 7.5t-36.5 26.5t-24.5 51
t-9 81v305h-65v10l95 30h10v-332q0 -81 25.5 -114.5t69.5 -33.5q27 0 49.5 11t40.5 28.5t31.5 40t22.5 45.5v315h-65v10l95 30h10v-460h65v-10l-94 -30v0z" />
    <glyph glyph-name="Wcircumflex" unicode="&#x174;" horiz-adv-x="1212" 
d="M480 810q32 56 52 92.5t33.5 57.5t22.5 29.5t18 8.5t18 -8.5t22.5 -29.5t33 -57.5t51.5 -92.5h-13q-31 37 -61 72.5t-51 68.5q-21 -33 -51 -68.5t-62 -72.5h-13zM124 720l-76 30v10h195v-10l-65 -30l201 -640l215 680h33l232 -680l196 640l-86 30v10h195v-10l-78 -30
l-222 -720h-30l-232 685l-217 -685h-30z" />
    <glyph glyph-name="wcircumflex" unicode="&#x175;" horiz-adv-x="834" 
d="M291 575q32 56 52 92.5t33.5 57.5t22.5 29.5t18 8.5t18 -8.5t22.5 -29.5t33 -57.5t51.5 -92.5h-13q-31 37 -61 72.5t-51 68.5q-21 -33 -51 -68.5t-62 -72.5h-13zM110 467l-74 23v10h195v-10l-77 -23l120 -412l129 445h35l126 -445l120 412l-81 23v10h195v-10l-86 -23
l-139 -467h-30l-130 451l-130 -451h-30z" />
    <glyph glyph-name="Ycircumflex" unicode="&#x176;" horiz-adv-x="753" 
d="M251 810q32 56 52 92.5t33.5 57.5t22.5 29.5t18 8.5t18 -8.5t22.5 -29.5t33 -57.5t51.5 -92.5h-13q-31 37 -61 72.5t-51 68.5q-21 -33 -51 -68.5t-62 -72.5h-13zM283 10l75 26v245l-244 445l-66 24v10h195v-10l-73 -24l224 -403l211 403l-95 24v10h195v-10l-70 -24
l-232 -439v-251l75 -26v-10h-195v10z" />
    <glyph glyph-name="ycircumflex" unicode="&#x177;" horiz-adv-x="594" 
d="M171 575q32 56 52 92.5t33.5 57.5t22.5 29.5t18 8.5t18 -8.5t22.5 -29.5t33 -57.5t51.5 -92.5h-13q-31 37 -61 72.5t-51 68.5q-21 -33 -51 -68.5t-62 -72.5h-13zM152 -206q-33 0 -57.5 22t-44.5 54h15q22 -32 41 -45t36 -13q19 0 39.5 14.5t39.5 40t35.5 60t29.5 73.5
l-178 467l-72 23v10h195v-10l-79 -23l158 -418l144 418l-81 23v10h195v-10l-84 -23l-154 -429q-26 -72 -49.5 -119.5t-45 -75t-42 -38.5t-41.5 -11z" />
    <glyph glyph-name="Ydieresis" unicode="&#x178;" horiz-adv-x="753" 
d="M322 860q-17 0 -27.5 10.5t-10.5 27.5t10.5 28t27.5 11q18 0 28.5 -11t10.5 -28t-10.5 -27.5t-28.5 -10.5zM452 860q-17 0 -27.5 10.5t-10.5 27.5t10.5 28t27.5 11q18 0 28.5 -11t10.5 -28t-10.5 -27.5t-28.5 -10.5zM283 10l75 26v245l-244 445l-66 24v10h195v-10
l-73 -24l224 -403l211 403l-95 24v10h195v-10l-70 -24l-232 -439v-251l75 -26v-10h-195v10z" />
    <glyph glyph-name="Zacute" unicode="&#x179;" horiz-adv-x="568" 
d="M245 810q27 55 48.5 91.5t38.5 58t29.5 30t20.5 8.5q16 0 16 -15q0 -12 -13.5 -32.5t-34.5 -44.5t-45.5 -49.5t-46.5 -46.5h-13zM49 10l392 720h-307l-65 -130h-10q6 28 11.5 49t10 38.5t8 34.5t5.5 38h400l5 -10l-388 -720h333l65 125h10q-6 -26 -11.5 -46t-10 -37
t-8 -34t-5.5 -38h-430z" />
    <glyph glyph-name="zacute" unicode="&#x17a;" horiz-adv-x="428" 
d="M308 748q0 -12 -13.5 -32.5t-34.5 -44.5t-45.5 -49.5t-46.5 -46.5h-13q27 55 48.5 91.5t38.5 58t29.5 30t20.5 8.5q16 0 16 -15zM391 155q-6 -26 -11.5 -46t-10 -37t-8 -34t-5.5 -38h-315l-5 10l277 460h-186l-70 -130h-10q6 28 11.5 49t10 38.5t8 34.5t5.5 38h285l5 -10
l-274 -460h213l70 125h10z" />
    <glyph glyph-name="Zdotaccent" unicode="&#x17b;" horiz-adv-x="568" 
d="M284 860q-23 0 -37.5 14.5t-14.5 36.5t14.5 37.5t37.5 15.5t37 -15.5t14 -37.5t-14 -36.5t-37 -14.5zM49 10l392 720h-307l-65 -130h-10q6 28 11.5 49t10 38.5t8 34.5t5.5 38h400l5 -10l-388 -720h333l65 125h10q-6 -26 -11.5 -46t-10 -37t-8 -34t-5.5 -38h-430z" />
    <glyph glyph-name="zdotaccent" unicode="&#x17c;" horiz-adv-x="428" 
d="M214 605q-23 0 -37.5 14.5t-14.5 36.5t14.5 37.5t37.5 15.5t37 -15.5t14 -37.5t-14 -36.5t-37 -14.5zM391 155q-6 -26 -11.5 -46t-10 -37t-8 -34t-5.5 -38h-315l-5 10l277 460h-186l-70 -130h-10q6 28 11.5 49t10 38.5t8 34.5t5.5 38h285l5 -10l-274 -460h213l70 125h10z
" />
    <glyph glyph-name="Zcaron" unicode="&#x17d;" horiz-adv-x="568" 
d="M171 998q32 -37 62 -72.5t51 -68.5q21 33 51 68.5t61 72.5h13q-32 -56 -51.5 -92.5t-33 -57.5t-22.5 -29.5t-18 -8.5t-18 8.5t-22.5 29.5t-33.5 57.5t-52 92.5h13zM49 10l392 720h-307l-65 -130h-10q6 28 11.5 49t10 38.5t8 34.5t5.5 38h400l5 -10l-388 -720h333l65 125
h10q-6 -26 -11.5 -46t-10 -37t-8 -34t-5.5 -38h-430z" />
    <glyph glyph-name="zcaron" unicode="&#x17e;" horiz-adv-x="428" 
d="M214 575q-9 0 -18 8.5t-22.5 29.5t-33.5 57.5t-52 92.5h13q32 -37 62 -72.5t51 -68.5q21 33 51 68.5t61 72.5h13q-32 -56 -51.5 -92.5t-33 -57.5t-22.5 -29.5t-18 -8.5zM391 155q-6 -26 -11.5 -46t-10 -37t-8 -34t-5.5 -38h-315l-5 10l277 460h-186l-70 -130h-10
q6 28 11.5 49t10 38.5t8 34.5t5.5 38h285l5 -10l-274 -460h213l70 125h10z" />
    <glyph glyph-name="florin" unicode="&#x192;" horiz-adv-x="557" 
d="M148 -12q-31 0 -52 12t-29 32l13 134h18q-3 -27 -3 -49q0 -61 14 -87.5t43 -26.5q34 0 54 31t30.5 84t13.5 123.5t3 150.5h-127v32h127v42q0 79 6.5 136.5t21.5 94t40 54t63 17.5q26 0 44.5 -7t31 -18t19.5 -23.5t11 -24.5l-13 -135h-18q1 11 1.5 21.5t0.5 22.5
q0 32 -4 59t-13.5 46.5t-25 30.5t-37.5 11q-27 0 -45 -17t-28.5 -54t-15 -95t-3.5 -139v-22h150v-32h-150v-47q0 -70 -4 -134.5t-18.5 -114t-42.5 -79t-76 -29.5z" />
    <glyph glyph-name="Scommaaccent" unicode="&#x218;" horiz-adv-x="591" 
d="M288 -11q-47 0 -86 11t-69 28.5t-51 38t-33 39.5l50 195h20q-7 -27 -12.5 -55.5t-5.5 -57.5q0 -54 21 -88t51.5 -52.5t65.5 -25t62 -6.5q39 0 76.5 10.5t67.5 33t48.5 57.5t18.5 84q0 37 -11 63.5t-31.5 45.5t-50 32t-66.5 22q-25 6 -43 10.5t-33 9t-28 9.5t-27 11
q-64 29 -97 68.5t-33 101.5q0 32 10.5 66.5t35 63t64.5 46.5t100 18q37 0 68 -7t56.5 -18.5t46 -26t36.5 -29.5l-65 -148h-20q9 20 17.5 47t8.5 50q0 30 -15 49.5t-37.5 31t-49 16t-48.5 4.5q-32 0 -65 -8.5t-59 -26t-42.5 -44t-16.5 -63.5q0 -48 30 -81t92 -56
q24 -9 51 -16.5t59 -15.5q41 -11 76.5 -27t61 -40.5t40 -59t14.5 -80.5q0 -54 -19.5 -96.5t-53.5 -72.5t-80.5 -45.5t-99.5 -15.5zM290 -50q24 0 35.5 -21t11.5 -47q0 -8 -1.5 -19t-8.5 -27t-20 -36t-35 -44h-11q22 28 34 49.5t12 37.5q0 17 -8 25t-18 14t-18 13.5t-8 22.5
q0 16 10.5 24t24.5 8z" />
    <glyph glyph-name="scommaaccent" unicode="&#x219;" horiz-adv-x="410" 
d="M205 -11q-35 0 -62.5 8.5t-48 21t-35 26.5t-23.5 25l48 134h14q-13 -38 -13 -76q0 -46 27.5 -78.5t92.5 -32.5q33 0 60.5 9t47 24t30 35.5t10.5 43.5q0 24 -12 41t-34.5 30t-54.5 24.5t-72 23.5q-57 18 -89.5 50.5t-32.5 87.5q0 33 11.5 57t32 40t47 24t56.5 8t54 -7
t42.5 -17.5t32.5 -23t23 -23.5l-37 -109h-15q9 28 9 51q0 48 -32.5 74t-80.5 26q-23 0 -45 -6.5t-39 -18.5t-27 -29.5t-10 -40.5q0 -35 28 -56.5t95 -41.5q32 -10 62.5 -19t54 -24t38 -39.5t14.5 -65.5q0 -39 -13 -68.5t-35.5 -49t-53 -29t-65.5 -9.5zM199 -50
q24 0 35.5 -21t11.5 -47q0 -8 -1.5 -19t-8.5 -27t-20 -36t-35 -44h-11q22 28 34 49.5t12 37.5q0 17 -8 25t-18 14t-18 13.5t-8 22.5q0 16 10.5 24t24.5 8z" />
    <glyph glyph-name="uni021A" unicode="&#x21a;" horiz-adv-x="743" 
d="M274 10l75 26v694h-225l-65 -125h-10q6 26 11.5 46t10 37t8 34t5.5 38h575q2 -21 5.5 -38t8 -34t10 -37t11.5 -46h-10l-65 125h-225v-694l75 -26v-10h-195v10zM366 -50q24 0 35.5 -21t11.5 -47q0 -8 -1.5 -19t-8.5 -27t-20 -36t-35 -44h-11q22 28 34 49.5t12 37.5
q0 17 -8 25t-18 14t-18 13.5t-8 22.5q0 16 10.5 24t24.5 8z" />
    <glyph glyph-name="uni021B" unicode="&#x21b;" horiz-adv-x="317" 
d="M182 -11q-45 0 -67.5 33t-22.5 113v340h-76v10l77 15l24 170h15v-170h132v-25h-132v-335q0 -69 16 -97t52 -28q9 0 19.5 2.5t22 11t23 24.5t21.5 43h15q-16 -56 -47 -81.5t-72 -25.5zM153 -50q24 0 35.5 -21t11.5 -47q0 -8 -1.5 -19t-8.5 -27t-20 -36t-35 -44h-11
q22 28 34 49.5t12 37.5q0 17 -8 25t-18 14t-18 13.5t-8 22.5q0 16 10.5 24t24.5 8z" />
    <glyph glyph-name="circumflex" unicode="&#x2c6;" horiz-adv-x="600" 
d="M46 575q32 56 52 92.5t33.5 57.5t22.5 29.5t18 8.5t18 -8.5t22.5 -29.5t33 -57.5t51.5 -92.5h-13q-31 37 -61 72.5t-51 68.5q-21 -33 -51 -68.5t-62 -72.5h-13v0z" />
    <glyph glyph-name="caron" unicode="&#x2c7;" horiz-adv-x="600" 
d="M59 763q32 -37 62 -72.5t51 -68.5q21 33 51 68.5t61 72.5h13q-32 -56 -51.5 -92.5t-33 -57.5t-22.5 -29.5t-18 -8.5t-18 8.5t-22.5 29.5t-33.5 57.5t-52 92.5h13z" />
    <glyph glyph-name="breve" unicode="&#x2d8;" horiz-adv-x="600" 
d="M172 575q-24 0 -48.5 9.5t-43.5 32t-31 58t-12 88.5h13q0 -26 6 -52t20.5 -47t37.5 -34t58 -13q34 0 57.5 13t38 34t20.5 47t6 52h13q0 -53 -12 -88.5t-31 -58t-43.5 -32t-48.5 -9.5z" />
    <glyph glyph-name="dotaccent" unicode="&#x2d9;" horiz-adv-x="600" 
d="M95 605q-23 0 -37.5 14.5t-14.5 36.5t14.5 37.5t37.5 15.5t37 -15.5t14 -37.5t-14 -36.5t-37 -14.5z" />
    <glyph glyph-name="ring" unicode="&#x2da;" horiz-adv-x="600" 
d="M122 572q-34 0 -57.5 24t-23.5 57t23.5 56.5t57.5 23.5q16 0 30.5 -6.5t25.5 -17t17.5 -25.5t6.5 -31q0 -17 -6.5 -31.5t-17.5 -25.5t-25.5 -17.5t-30.5 -6.5zM122 595q23 0 40 17.5t17 40.5t-17 40t-40 17q-24 0 -41 -17t-17 -40t17 -40.5t41 -17.5z" />
    <glyph glyph-name="ogonek" unicode="&#x2db;" horiz-adv-x="600" 
d="M106 -207q-27 0 -46 19t-19 51q0 25 11.5 48.5t26 42t28 31t17.5 16.5h11q-6 -5 -16.5 -17t-21.5 -29t-19 -36.5t-8 -39.5q0 -28 15 -44t38 -16q26 0 54 28h9q-17 -26 -37 -40t-43 -14z" />
    <glyph glyph-name="tilde" unicode="&#x2dc;" horiz-adv-x="600" 
d="M28 630q5 46 26 70.5t52 24.5q21 0 35 -8.5t26.5 -18t24.5 -18t29 -8.5q43 0 61 63h8q-5 -46 -26 -70.5t-53 -24.5q-21 0 -35 8.5t-26.5 18t-24.5 18t-28 8.5q-43 0 -61 -63h-8v0z" />
    <glyph glyph-name="hungarumlaut" unicode="&#x2dd;" horiz-adv-x="600" 
d="M52 575q27 55 48.5 91.5t38.5 58t29.5 30t20.5 8.5q16 0 16 -15q0 -12 -13.5 -32.5t-34.5 -44.5t-45.5 -49.5t-46.5 -46.5h-13zM172 575q27 55 48.5 91.5t38.5 58t29.5 30t20.5 8.5q16 0 16 -15q0 -12 -13.5 -32.5t-34.5 -44.5t-45.5 -49.5t-46.5 -46.5h-13z" />
    <glyph glyph-name="gravecomb" unicode="&#x300;" horiz-adv-x="0" 
d="M-34 575q-22 21 -46.5 46.5t-45.5 49.5t-34.5 44.5t-13.5 32.5q0 15 16 15q8 0 20.5 -8.5t29.5 -30t38.5 -58t48.5 -91.5h-13v0z" />
    <glyph glyph-name="acutecomb" unicode="&#x301;" horiz-adv-x="0" 
d="M-179 575q27 55 48.5 91.5t38.5 58t29.5 30t20.5 8.5q16 0 16 -15q0 -12 -13.5 -32.5t-34.5 -44.5t-45.5 -49.5t-46.5 -46.5h-13v0z" />
    <glyph glyph-name="uni0302" unicode="&#x302;" horiz-adv-x="0" 
d="M-298 575q32 56 52 92.5t33.5 57.5t22.5 29.5t18 8.5t18 -8.5t22.5 -29.5t33 -57.5t51.5 -92.5h-13q-31 37 -61 72.5t-51 68.5q-21 -33 -51 -68.5t-62 -72.5h-13v0z" />
    <glyph glyph-name="tildecomb" unicode="&#x303;" horiz-adv-x="0" 
d="M-290 630q5 46 26 70.5t52 24.5q21 0 35 -8.5t26.5 -18t24.5 -18t29 -8.5q43 0 61 63h8q-5 -46 -26 -70.5t-53 -24.5q-21 0 -35 8.5t-26.5 18t-24.5 18t-28 8.5q-43 0 -61 -63h-8v0z" />
    <glyph glyph-name="uni0304" unicode="&#x304;" horiz-adv-x="0" 
d="M-293 680h263v-38h-263v38z" />
    <glyph glyph-name="uni0306" unicode="&#x306;" horiz-adv-x="0" 
d="M-172 575q-24 0 -48.5 9.5t-43.5 32t-31 58t-12 88.5h13q0 -26 6 -52t20.5 -47t37.5 -34t58 -13q34 0 57.5 13t38 34t20.5 47t6 52h13q0 -53 -12 -88.5t-31 -58t-43.5 -32t-48.5 -9.5z" />
    <glyph glyph-name="uni0307" unicode="&#x307;" horiz-adv-x="0" 
d="M-94 605q-23 0 -37.5 14.5t-14.5 36.5t14.5 37.5t37.5 15.5t37 -15.5t14 -37.5t-14 -36.5t-37 -14.5z" />
    <glyph glyph-name="uni0308" unicode="&#x308;" horiz-adv-x="0" 
d="M-218 629q-17 0 -27.5 10.5t-10.5 27.5t10.5 28t27.5 11q18 0 28.5 -11t10.5 -28t-10.5 -27.5t-28.5 -10.5zM-88 629q-17 0 -27.5 10.5t-10.5 27.5t10.5 28t27.5 11q18 0 28.5 -11t10.5 -28t-10.5 -27.5t-28.5 -10.5z" />
    <glyph glyph-name="uni030A" unicode="&#x30a;" horiz-adv-x="0" 
d="M-121 572q-34 0 -57.5 24t-23.5 57t23.5 56.5t57.5 23.5q16 0 30.5 -6.5t25.5 -17t17.5 -25.5t6.5 -31q0 -17 -6.5 -31.5t-17.5 -25.5t-25.5 -17.5t-30.5 -6.5zM-121 595q23 0 40 17.5t17 40.5t-17 40t-40 17q-24 0 -41 -17t-17 -40t17 -40.5t41 -17.5z" />
    <glyph glyph-name="uni030B" unicode="&#x30b;" horiz-adv-x="0" 
d="M-321 575q27 55 48.5 91.5t38.5 58t29.5 30t20.5 8.5q16 0 16 -15q0 -12 -13.5 -32.5t-34.5 -44.5t-45.5 -49.5t-46.5 -46.5h-13zM-201 575q27 55 48.5 91.5t38.5 58t29.5 30t20.5 8.5q16 0 16 -15q0 -12 -13.5 -32.5t-34.5 -44.5t-45.5 -49.5t-46.5 -46.5h-13z" />
    <glyph glyph-name="uni030C" unicode="&#x30c;" horiz-adv-x="0" 
d="M-285 763q32 -37 62 -72.5t51 -68.5q21 33 51 68.5t61 72.5h13q-32 -56 -51.5 -92.5t-33 -57.5t-22.5 -29.5t-18 -8.5t-18 8.5t-22.5 29.5t-33.5 57.5t-52 92.5h13z" />
    <glyph glyph-name="uni0312" unicode="&#x312;" horiz-adv-x="0" 
d="M-76 586q-24 0 -35.5 21t-11.5 47q0 7 1.5 18.5t8.5 27.5t19.5 36t35.5 44h11q-22 -28 -34 -49.5t-12 -37.5q0 -17 8 -25t18 -14t18 -13.5t8 -22.5q0 -16 -10.5 -24t-24.5 -8z" />
    <glyph glyph-name="uni0326" unicode="&#x326;" horiz-adv-x="0" 
d="M-65 -50q24 0 35.5 -21t11.5 -47q0 -8 -1.5 -19t-8.5 -27t-20 -36t-35 -44h-11q22 28 34 49.5t12 37.5q0 17 -8 25t-18 14t-18 13.5t-8 22.5q0 16 10.5 24t24.5 8z" />
    <glyph glyph-name="uni0327" unicode="&#x327;" horiz-adv-x="0" 
d="M-120 -204q-15 0 -30 4.5t-28 12.5v8q28 -11 52 -11q26 0 43 12.5t17 38.5q0 20 -17.5 36t-55.5 16v19l46 81h17l-40 -70q40 0 58 -19.5t18 -45.5q0 -14 -5.5 -28.5t-15.5 -26.5t-25 -19.5t-34 -7.5z" />
    <glyph glyph-name="uni0328" unicode="&#x328;" horiz-adv-x="0" 
d="M-117 -207q-27 0 -46 19t-19 51q0 25 11.5 48.5t26 42t28 31t17.5 16.5h11q-6 -5 -16.5 -17t-21.5 -29t-19 -36.5t-8 -39.5q0 -28 15 -44t38 -16q26 0 54 28h9q-17 -26 -37 -40t-43 -14z" />
    <glyph glyph-name="uni0335" unicode="&#x335;" horiz-adv-x="0" 
d="M-293 300h243v-38h-243v38z" />
    <glyph glyph-name="uni0336" unicode="&#x336;" horiz-adv-x="0" 
d="M-653 300h603v-38h-603v38z" />
    <glyph glyph-name="uni0337" unicode="&#x337;" horiz-adv-x="0" 
d="M-345 287l305 128v-39l-305 -127v38z" />
    <glyph glyph-name="uni0338" unicode="&#x338;" horiz-adv-x="0" 
d="M-65 725h47l-544 -771h-46z" />
    <glyph glyph-name="uni0394" unicode="&#x394;" horiz-adv-x="530" 
d="M243 643h30l252 -643h-520zM481 35l-222 557l-208 -557h430z" />
    <glyph glyph-name="uni03A9" unicode="&#x3a9;" horiz-adv-x="696" 
d="M63 10l160 41q-41 19 -75 49t-58 68t-37.5 82t-13.5 90q0 70 25 128t67.5 99t98.5 63.5t118 22.5t118 -22.5t98.5 -63.5t67.5 -99t25 -128q0 -46 -13.5 -90t-37.5 -82t-58 -68t-75 -49l160 -41v-10h-140l-53 58q40 13 72.5 40t55.5 64t35.5 82.5t12.5 95.5
q0 63 -20.5 116.5t-56.5 92.5t-85 60.5t-106 21.5t-106 -21.5t-85 -60.5t-56.5 -92.5t-20.5 -116.5q0 -50 12.5 -95.5t35.5 -82.5t55.5 -64t72.5 -40l-53 -58h-140v10z" />
    <glyph glyph-name="uni03BC" unicode="&#x3bc;" horiz-adv-x="521" 
d="M37 -180l65 16v624h-66v10l95 30h10v-332q0 -81 25.5 -114.5t69.5 -33.5q27 0 49.5 11t40.5 28.5t31.5 40t22.5 45.5v315h-65v10l95 30h10v-460h65v-10l-95 -30h-10v105q-8 -17 -20.5 -37.5t-30.5 -38t-42.5 -29t-57.5 -11.5q-24 0 -46.5 9t-40.5 35v-197l65 -16v-10
h-170v10z" />
    <glyph glyph-name="pi" unicode="&#x3c0;" horiz-adv-x="513" 
d="M37 10l65 16v474h310v-474l65 -16v-10h-170v10l65 16v439h-230v-439l65 -16v-10h-170v10z" />
    <glyph glyph-name="Wgrave" unicode="&#x1e80;" horiz-adv-x="1212" 
d="M662 810q-22 21 -46.5 46.5t-45.5 49.5t-34.5 44.5t-13.5 32.5q0 15 16 15q8 0 20.5 -8.5t29.5 -30t38.5 -58t48.5 -91.5h-13zM124 720l-76 30v10h195v-10l-65 -30l201 -640l215 680h33l232 -680l196 640l-86 30v10h195v-10l-78 -30l-222 -720h-30l-232 685l-217 -685
h-30z" />
    <glyph glyph-name="wgrave" unicode="&#x1e81;" horiz-adv-x="834" 
d="M458 575q-22 21 -46.5 46.5t-45.5 49.5t-34.5 44.5t-13.5 32.5q0 15 16 15q8 0 20.5 -8.5t29.5 -30t38.5 -58t48.5 -91.5h-13zM110 467l-74 23v10h195v-10l-77 -23l120 -412l129 445h35l126 -445l120 412l-81 23v10h195v-10l-86 -23l-139 -467h-30l-130 451l-130 -451
h-30z" />
    <glyph glyph-name="Wacute" unicode="&#x1e82;" horiz-adv-x="1212" 
d="M561 810q27 55 48.5 91.5t38.5 58t29.5 30t20.5 8.5q16 0 16 -15q0 -12 -13.5 -32.5t-34.5 -44.5t-45.5 -49.5t-46.5 -46.5h-13zM124 720l-76 30v10h195v-10l-65 -30l201 -640l215 680h33l232 -680l196 640l-86 30v10h195v-10l-78 -30l-222 -720h-30l-232 685l-217 -685
h-30z" />
    <glyph glyph-name="wacute" unicode="&#x1e83;" horiz-adv-x="834" 
d="M413 575q27 55 48.5 91.5t38.5 58t29.5 30t20.5 8.5q16 0 16 -15q0 -12 -13.5 -32.5t-34.5 -44.5t-45.5 -49.5t-46.5 -46.5h-13zM110 467l-74 23v10h195v-10l-77 -23l120 -412l129 445h35l126 -445l120 412l-81 23v10h195v-10l-86 -23l-139 -467h-30l-130 451l-130 -451
h-30z" />
    <glyph glyph-name="Wdieresis" unicode="&#x1e84;" horiz-adv-x="1212" 
d="M541 860q-17 0 -27.5 10.5t-10.5 27.5t10.5 28t27.5 11q18 0 28.5 -11t10.5 -28t-10.5 -27.5t-28.5 -10.5zM671 860q-17 0 -27.5 10.5t-10.5 27.5t10.5 28t27.5 11q18 0 28.5 -11t10.5 -28t-10.5 -27.5t-28.5 -10.5zM124 720l-76 30v10h195v-10l-65 -30l201 -640l215 680
h33l232 -680l196 640l-86 30v10h195v-10l-78 -30l-222 -720h-30l-232 685l-217 -685h-30z" />
    <glyph glyph-name="wdieresis" unicode="&#x1e85;" horiz-adv-x="834" 
d="M352 629q-17 0 -27.5 10.5t-10.5 27.5t10.5 28t27.5 11q18 0 28.5 -11t10.5 -28t-10.5 -27.5t-28.5 -10.5zM482 629q-17 0 -27.5 10.5t-10.5 27.5t10.5 28t27.5 11q18 0 28.5 -11t10.5 -28t-10.5 -27.5t-28.5 -10.5zM110 467l-74 23v10h195v-10l-77 -23l120 -412l129 445
h35l126 -445l120 412l-81 23v10h195v-10l-86 -23l-139 -467h-30l-130 451l-130 -451h-30z" />
    <glyph glyph-name="Ygrave" unicode="&#x1ef2;" horiz-adv-x="753" 
d="M413 810q-22 21 -46.5 46.5t-45.5 49.5t-34.5 44.5t-13.5 32.5q0 15 16 15q8 0 20.5 -8.5t29.5 -30t38.5 -58t48.5 -91.5h-13zM283 10l75 26v245l-244 445l-66 24v10h195v-10l-73 -24l224 -403l211 403l-95 24v10h195v-10l-70 -24l-232 -439v-251l75 -26v-10h-195v10z
" />
    <glyph glyph-name="ygrave" unicode="&#x1ef3;" horiz-adv-x="594" 
d="M318 575q-22 21 -46.5 46.5t-45.5 49.5t-34.5 44.5t-13.5 32.5q0 15 16 15q8 0 20.5 -8.5t29.5 -30t38.5 -58t48.5 -91.5h-13zM152 -206q-33 0 -57.5 22t-44.5 54h15q22 -32 41 -45t36 -13q19 0 39.5 14.5t39.5 40t35.5 60t29.5 73.5l-178 467l-72 23v10h195v-10l-79 -23
l158 -418l144 418l-81 23v10h195v-10l-84 -23l-154 -429q-26 -72 -49.5 -119.5t-45 -75t-42 -38.5t-41.5 -11z" />
    <glyph glyph-name="uni2009" unicode="&#x2009;" horiz-adv-x="150" 
 />
    <glyph glyph-name="endash" unicode="&#x2013;" horiz-adv-x="453" 
d="M50 300h353v-38h-353v38z" />
    <glyph glyph-name="emdash" unicode="&#x2014;" horiz-adv-x="653" 
d="M50 300h553v-38h-553v38z" />
    <glyph glyph-name="quoteleft" unicode="&#x2018;" horiz-adv-x="132" 
d="M112 767q-23 -29 -34.5 -54t-11.5 -49q0 -12 2.5 -26t7.5 -28.5t11.5 -28t14.5 -22.5q0 -22 -13 -30.5t-27 -8.5q-19 0 -31.5 13.5t-12.5 39.5q0 16 5 39.5t15.5 50.5t26.5 54t37 50h10v0z" />
    <glyph glyph-name="quoteright" unicode="&#x2019;" horiz-adv-x="132" 
d="M18 520q23 29 34.5 54t11.5 49q0 12 -2.5 26t-7.5 28.5t-11.5 28t-14.5 22.5q0 22 13 30.5t27 8.5q19 0 31.5 -13.5t12.5 -39.5q0 -16 -5 -39.5t-15.5 -50.5t-26.5 -54t-37 -50h-10v0z" />
    <glyph glyph-name="quotesinglbase" unicode="&#x201a;" horiz-adv-x="142" 
d="M18 -144q25 32 35.5 56.5t10.5 47.5q0 22 -10 38.5t-26 35.5q0 22 13.5 35.5t32.5 13.5q22 0 35 -13.5t13 -36.5q0 -33 -24.5 -80.5t-69.5 -96.5h-10v0z" />
    <glyph glyph-name="quotedblleft" unicode="&#x201c;" horiz-adv-x="254" 
d="M112 767q-23 -29 -34.5 -54t-11.5 -49q0 -12 2.5 -26t7.5 -28.5t11.5 -28t14.5 -22.5q0 -22 -13 -30.5t-27 -8.5q-19 0 -31.5 13.5t-12.5 39.5q0 16 5 39.5t15.5 50.5t26.5 54t37 50h10zM234 767q-23 -29 -34.5 -54t-11.5 -49q0 -12 2.5 -26t7.5 -28.5t11.5 -28
t14.5 -22.5q0 -22 -13 -30.5t-27 -8.5q-19 0 -31.5 13.5t-12.5 39.5q0 16 5 39.5t15.5 50.5t26.5 54t37 50h10z" />
    <glyph glyph-name="quotedblright" unicode="&#x201d;" horiz-adv-x="254" 
d="M18 520q23 29 34.5 54t11.5 49q0 12 -2.5 26t-7.5 28.5t-11.5 28t-14.5 22.5q0 22 13 30.5t27 8.5q19 0 31.5 -13.5t12.5 -39.5q0 -16 -5 -39.5t-15.5 -50.5t-26.5 -54t-37 -50h-10zM140 520q23 29 34.5 54t11.5 49q0 12 -2.5 26t-7.5 28.5t-11.5 28t-14.5 22.5
q0 22 13 30.5t27 8.5q19 0 31.5 -13.5t12.5 -39.5q0 -16 -5 -39.5t-15.5 -50.5t-26.5 -54t-37 -50h-10z" />
    <glyph glyph-name="quotedblbase" unicode="&#x201e;" horiz-adv-x="264" 
d="M18 -164q23 29 34.5 54t11.5 49q0 12 -2.5 26t-7.5 28.5t-11.5 28t-14.5 22.5q0 22 13 30.5t27 8.5q19 0 31.5 -13.5t12.5 -39.5q0 -16 -5 -39.5t-15.5 -50.5t-26.5 -54t-37 -50h-10zM150 -164q23 29 34.5 54t11.5 49q0 12 -2.5 26t-7.5 28.5t-11.5 28t-14.5 22.5
q0 22 13 30.5t27 8.5q19 0 31.5 -13.5t12.5 -39.5q0 -16 -5 -39.5t-15.5 -50.5t-26.5 -54t-37 -50h-10z" />
    <glyph glyph-name="dagger" unicode="&#x2020;" horiz-adv-x="523" 
d="M462 649v-200h-10l-45 85h-123v-489l75 -35v-10h-195v10l75 35v489h-123l-45 -85h-10v200h10l45 -85h123v181l-75 45v10h195v-10l-75 -45v-181h123l45 85h10z" />
    <glyph glyph-name="daggerdbl" unicode="&#x2021;" horiz-adv-x="435" 
d="M120 490l75 25v110h-88l-35 -85h-10v200h10l35 -85h88v100l-75 35v10h195v-10l-75 -35v-100h88l35 85h10v-200h-10l-35 85h-88v-110l75 -25v-10h-195v10zM120 10l75 25v110h-88l-35 -85h-10v200h10l35 -85h88v100l-75 35v10h195v-10l-75 -35v-100h88l35 85h10v-200h-10
l-35 85h-88v-110l75 -25v-10h-195v10z" />
    <glyph glyph-name="bullet" unicode="&#x2022;" horiz-adv-x="270" 
d="M135 183q-33 0 -53 20.5t-20 50.5q0 32 20 53.5t53 21.5q32 0 52.5 -21.5t20.5 -53.5q0 -30 -20.5 -50.5t-52.5 -20.5z" />
    <glyph glyph-name="ellipsis" unicode="&#x2026;" horiz-adv-x="430" 
d="M65 -11q-21 0 -34 13t-13 33t13 34t34 14t34 -14t13 -34t-13 -33t-34 -13zM215 -11q-21 0 -34 13t-13 33t13 34t34 14t34 -14t13 -34t-13 -33t-34 -13zM365 -11q-21 0 -34 13t-13 33t13 34t34 14t34 -14t13 -34t-13 -33t-34 -13z" />
    <glyph glyph-name="perthousand" unicode="&#x2030;" horiz-adv-x="1243" 
d="M169 398q-37 0 -64 17t-45 44.5t-26.5 62.5t-8.5 71q0 40 10 77.5t29.5 67t48.5 47.5t66 18q38 0 66 -18.5t46.5 -47.5t27.5 -65t9 -71q0 -38 -10.5 -74.5t-31 -65t-50 -46t-67.5 -17.5zM181 415q21 0 40.5 10.5t35.5 32t25.5 53.5t9.5 74t-10 78.5t-26.5 64t-39 43.5
t-47.5 16q-21 0 -41 -12t-35.5 -35t-25.5 -56t-10 -76q0 -40 10 -75t26.5 -61.5t39 -41.5t48.5 -15zM661 760h32l-530 -760h-30zM692 -6q-37 0 -64 17t-45 44.5t-26.5 62.5t-8.5 71q0 40 10 77.5t29.5 67t48.5 47.5t66 18q38 0 66 -18.5t46.5 -47.5t27.5 -65t9 -71
q0 -38 -10.5 -74.5t-31 -65t-50 -46t-67.5 -17.5zM1059 -6q-37 0 -64 17t-45 44.5t-26.5 62.5t-8.5 71q0 40 10 77.5t29.5 67t48.5 47.5t66 18q38 0 66 -18.5t46.5 -47.5t27.5 -65t9 -71q0 -38 -10.5 -74.5t-31 -65t-50 -46t-67.5 -17.5zM704 11q21 0 40.5 10.5t35.5 32
t25.5 53.5t9.5 74t-10 78.5t-26.5 64t-39 43.5t-47.5 16q-21 0 -41 -12t-35.5 -35t-25.5 -56t-10 -76q0 -40 10 -75t26.5 -61.5t39 -41.5t48.5 -15zM1071 11q21 0 40.5 10.5t35.5 32t25.5 53.5t9.5 74t-10 78.5t-26.5 64t-39 43.5t-47.5 16q-21 0 -41 -12t-35.5 -35
t-25.5 -56t-10 -76q0 -40 10 -75t26.5 -61.5t39 -41.5t48.5 -15z" />
    <glyph glyph-name="guilsinglleft" unicode="&#x2039;" horiz-adv-x="299" 
d="M237 71l-191 186v6l191 185h15q-41 -48 -81.5 -94t-85.5 -94q45 -48 85.5 -94.5t81.5 -94.5h-15z" />
    <glyph glyph-name="guilsinglright" unicode="&#x203a;" horiz-adv-x="299" 
d="M47 71q41 48 81.5 94.5t85.5 94.5q-45 48 -85.5 94t-81.5 94h15l191 -185v-6l-191 -186h-15v0z" />
    <glyph glyph-name="fraction" unicode="&#x2044;" horiz-adv-x="220" 
d="M358 760h32l-530 -760h-30z" />
    <glyph glyph-name="Euro" unicode="&#x20ac;" horiz-adv-x="653" 
d="M408 741q-39 0 -74.5 -16.5t-63 -53.5t-45 -95.5t-21.5 -143.5h197v-32h-198v-13q0 -14 0.5 -27.5t0.5 -27.5h197v-32h-194q7 -74 26 -128t46 -88.5t60.5 -51t71.5 -16.5q31 0 58.5 11.5t47.5 36.5t32 65t12 96h20v-150q-3 -5 -14 -19t-30.5 -29t-49.5 -26.5t-72 -11.5
q-63 0 -108 28.5t-74.5 73t-46 100t-23.5 109.5h-115v32h112q-1 14 -1.5 27.5t-0.5 26.5v14h-110v32h112q3 56 17.5 115.5t44 108.5t76.5 80.5t116 31.5q43 0 73 -11.5t50 -26.5t30.5 -29t13.5 -19v-150h-20q0 56 -11.5 96t-32 65t-48.5 36.5t-61 11.5z" />
    <glyph glyph-name="trademark" unicode="&#x2122;" horiz-adv-x="713" 
d="M150 470l25 15v258h-74l-31 -43h-7q4 20 8 32t5 28h222q2 -16 5.5 -28t8.5 -32h-7l-31 43h-75v-258l27 -15v-7h-76v7zM350 470l25 15v255l-25 11v9h49l106 -257l102 257h44v-9l-24 -11v-255l24 -15v-7h-76v7l28 15v226l-96 -248h-12l-96 234v-212l26 -15v-7h-75v7z" />
    <glyph glyph-name="oneeighth" unicode="&#x215b;" horiz-adv-x="727" 
d="M72 409l43 16v336l-92 -104v12l88 130h78v-5l-43 -19v-350l43 -16v-5h-117v5zM570 760h32l-530 -760h-30zM560 -6q-60 0 -97 29t-37 77q0 42 25 73t67 39q-35 7 -56 30.5t-21 55.5q0 46 33.5 73.5t89.5 27.5q54 0 86 -26.5t32 -70.5q0 -28 -21.5 -52.5t-56.5 -36.5h-1
q45 -6 72.5 -34.5t27.5 -70.5q0 -51 -39 -82.5t-104 -31.5zM564 220q37 0 59.5 20.5t22.5 54.5q0 40 -25 64t-67 24q-37 0 -59 -22t-22 -58q0 -38 24.5 -60.5t66.5 -22.5zM569 11q45 0 71.5 25t26.5 67q0 45 -29.5 72t-77.5 27q-46 0 -74 -25t-28 -67q0 -45 30 -72t81 -27z
" />
    <glyph glyph-name="threeeighths" unicode="&#x215c;" horiz-adv-x="821" 
d="M302 524q0 -27 -12 -50t-32.5 -40t-48 -26.5t-58.5 -9.5q-20 0 -41 4.5t-38.5 12.5t-30.5 19.5t-18 26.5l18 82h19q-4 -14 -6 -29.5t-2 -25.5q0 -23 10.5 -38t26 -23.5t33.5 -11.5t33 -3q54 0 82 31.5t28 79.5q0 38 -19.5 59t-61.5 21q-11 0 -33.5 -6t-36.5 -16v22
q63 24 93 51.5t30 62.5q0 29 -20.5 48.5t-62.5 19.5q-16 0 -31.5 -3.5t-27.5 -11.5t-19 -20t-7 -30q0 -11 3 -28t11 -43h-19l-30 83q6 9 17 21t26.5 23.5t36 19t45.5 7.5q20 0 40.5 -4.5t37 -14.5t27 -25.5t10.5 -36.5q0 -32 -25 -59.5t-73 -47.5q21 3 43.5 -1t41 -15.5
t30 -30t11.5 -44.5zM696 760l-530 -760h-30l528 760h32zM697 213q45 -6 72.5 -34.5t27.5 -70.5q0 -51 -39 -82.5t-104 -31.5q-60 0 -97 29t-37 77q0 42 25 73t67 39q-35 7 -56 30.5t-21 55.5q0 46 33.5 73.5t89.5 27.5q54 0 86 -26.5t32 -70.5q0 -28 -21.5 -52.5
t-56.5 -36.5h-1zM567 303q0 -38 24.5 -60.5t66.5 -22.5q37 0 59.5 20.5t22.5 54.5q0 40 -25 64t-67 24q-37 0 -59 -22t-22 -58zM663 11q45 0 71.5 25t26.5 67q0 45 -29.5 72t-77.5 27q-46 0 -74 -25t-28 -67q0 -45 30 -72t81 -27z" />
    <glyph glyph-name="fiveeighths" unicode="&#x215d;" horiz-adv-x="871" 
d="M194 399q-35 0 -62 11t-47.5 30t-35.5 43t-26 50h17q13 -25 26.5 -46t30 -36.5t38 -24.5t50.5 -9q30 0 55.5 9.5t43.5 26.5t28.5 40.5t10.5 52.5q0 48 -29 79t-77 31q-35 0 -65.5 -20.5t-44.5 -71.5h-36l40 208l-40 22v5h238q1 -11 3 -20t5 -18t6 -20t6 -25h-11l-43 68
h-127l-35 -170q17 26 48.5 42t67.5 16q27 0 51 -9t42 -26t29 -40.5t11 -51.5q0 -31 -13 -57.5t-36 -46t-53.5 -31t-65.5 -11.5zM714 760h32l-530 -760h-30zM704 -6q-60 0 -97 29t-37 77q0 42 25 73t67 39q-35 7 -56 30.5t-21 55.5q0 46 33.5 73.5t89.5 27.5q54 0 86 -26.5
t32 -70.5q0 -28 -21.5 -52.5t-56.5 -36.5h-1q45 -6 72.5 -34.5t27.5 -70.5q0 -51 -39 -82.5t-104 -31.5zM708 220q37 0 59.5 20.5t22.5 54.5q0 40 -25 64t-67 24q-37 0 -59 -22t-22 -58q0 -38 24.5 -60.5t66.5 -22.5zM713 11q45 0 71.5 25t26.5 67q0 45 -29.5 72t-77.5 27
q-46 0 -74 -25t-28 -67q0 -45 30 -72t81 -27z" />
    <glyph glyph-name="seveneighths" unicode="&#x215e;" horiz-adv-x="722" 
d="M147 596h-74v15h80l67 173h-146l-39 -68h-12q7 29 12.5 45t7.5 38h241v-5l-39 -23l-60 -155l49 -9v-11h-57l-69 -192h-29zM565 760h32l-530 -760h-30zM555 -6q-60 0 -97 29t-37 77q0 42 25 73t67 39q-35 7 -56 30.5t-21 55.5q0 46 33.5 73.5t89.5 27.5q54 0 86 -26.5
t32 -70.5q0 -28 -21.5 -52.5t-56.5 -36.5h-1q45 -6 72.5 -34.5t27.5 -70.5q0 -51 -39 -82.5t-104 -31.5zM559 220q37 0 59.5 20.5t22.5 54.5q0 40 -25 64t-67 24q-37 0 -59 -22t-22 -58q0 -38 24.5 -60.5t66.5 -22.5zM564 11q45 0 71.5 25t26.5 67q0 45 -29.5 72t-77.5 27
q-46 0 -74 -25t-28 -67q0 -45 30 -72t81 -27z" />
    <glyph glyph-name="arrowleft" unicode="&#x2190;" horiz-adv-x="1218" 
d="M304 151l-242 186v6l242 185h15l-159 -171h997v-34h-997l159 -172h-15z" />
    <glyph glyph-name="arrowup" unicode="&#x2191;" horiz-adv-x="499" 
d="M232 702l-171 -159v15l185 242h6l186 -242v-15l-172 159v-902h-34v902z" />
    <glyph glyph-name="arrowright" unicode="&#x2192;" horiz-adv-x="1218" 
d="M1059 323h-997v34h997l-159 171h15l242 -185v-6l-242 -186h-15z" />
    <glyph glyph-name="arrowdown" unicode="&#x2193;" horiz-adv-x="499" 
d="M266 800v-902l172 159v-15l-186 -242h-6l-185 242v15l171 -159v902h34z" />
    <glyph glyph-name="arrowboth" unicode="&#x2194;" horiz-adv-x="1218" 
d="M62 337v6l242 185h15l-159 -171h899l-159 171h15l242 -185v-6l-242 -186h-15l159 172h-899l159 -172h-15z" />
    <glyph glyph-name="arrowupdn" unicode="&#x2195;" horiz-adv-x="500" 
d="M62 42v15l171 -159v804l-171 -159v15l185 242h6l186 -242v-15l-172 159v-804l172 159v-15l-186 -242h-6z" />
    <glyph glyph-name="uni2196" unicode="&#x2196;" horiz-adv-x="749" 
d="M137 705l-69 -223l-8 12l41 303l5 3l281 -117l7 -13l-227 52l520 -905l-30 -17z" />
    <glyph glyph-name="uni2197" unicode="&#x2197;" horiz-adv-x="749" 
d="M62 -183l520 905l-227 -52l7 13l281 117l5 -3l41 -303l-8 -12l-69 223l-520 -905z" />
    <glyph glyph-name="uni2198" unicode="&#x2198;" horiz-adv-x="749" 
d="M612 -105l69 223l8 -12l-41 -303l-5 -3l-281 117l-7 13l227 -52l-520 905l30 17z" />
    <glyph glyph-name="uni2199" unicode="&#x2199;" horiz-adv-x="749" 
d="M687 783l-520 -905l227 52l-7 -13l-281 -117l-5 3l-41 303l8 12l69 -223l520 905z" />
    <glyph glyph-name="partialdiff" unicode="&#x2202;" horiz-adv-x="586" 
d="M267 -11q-48 0 -85.5 18.5t-64 50t-40.5 73t-14 86.5q0 44 14 89.5t41.5 82.5t68.5 60.5t95 23.5q36 0 66.5 -10t56 -25t45 -33t33.5 -33l5 -1q0 73 -23 136t-60 112t-84 82.5t-95 48.5l3 18q39 -14 90 -41.5t96.5 -76.5t77 -122.5t31.5 -178.5q0 -80 -19.5 -146
t-53.5 -113.5t-81.5 -74t-102.5 -26.5zM268 23q42 0 80.5 18.5t68.5 57.5t48 98t18 140q-16 18 -38 37t-47.5 34.5t-55 25t-60.5 9.5q-39 0 -72.5 -16t-57.5 -45t-38 -69.5t-14 -88.5q0 -44 11.5 -80.5t33 -63.5t53 -42t70.5 -15z" />
    <glyph glyph-name="emptyset" unicode="&#x2205;" horiz-adv-x="769" 
d="M615 567q42 -47 66 -108t24 -130q0 -74 -26.5 -136.5t-72 -107.5t-106 -70.5t-128.5 -25.5q-57 0 -106 17.5t-88 49.5l-58 -68l-22 18l59 69q-44 44 -68.5 105t-24.5 135q0 76 25.5 141t70 112t103.5 73.5t126 26.5q61 0 113 -21.5t93 -59.5l53 62l22 -18zM113 343
q0 -75 22 -131t57 -96l372 434q-42 43 -91.5 64.5t-97.5 21.5q-41 0 -87 -15.5t-85 -50t-64.5 -90.5t-25.5 -137zM397 21q41 0 86.5 13t84 44.5t64 85.5t25.5 135q0 73 -20.5 130.5t-53.5 99.5l-371 -434q41 -37 89 -55.5t96 -18.5z" />
    <glyph glyph-name="product" unicode="&#x220f;" horiz-adv-x="634" 
d="M61 -90l75 24v796l-75 20v10h512v-10l-75 -20v-796l75 -24v-10h-195v10l75 24v796h-272v-796l75 -24v-10h-195v10z" />
    <glyph glyph-name="summation" unicode="&#x2211;" horiz-adv-x="590" 
d="M61 -90l53 19l222 391l-190 400l-58 30v10h387v-10q2 -18 5.5 -34t8 -32.5t10 -35t10.5 -43.5h-10l-65 125h-247l194 -410l-226 -390h289l75 125h10q-5 -25 -10.5 -43.5t-10 -35t-8 -32.5t-5.5 -34v-10h-434v10z" />
    <glyph glyph-name="minus" unicode="&#x2212;" horiz-adv-x="479" 
d="M63 297h353v-32h-353v32z" />
    <glyph glyph-name="radical" unicode="&#x221a;" horiz-adv-x="799" 
d="M136 293l-75 27v10h195v-10l-76 -27l115 -333l213 800h230v-8l-210 -32l-224 -820h-30z" />
    <glyph glyph-name="infinity" unicode="&#x221e;" horiz-adv-x="792" 
d="M211 131q-29 0 -55 10.5t-46.5 29.5t-32.5 46.5t-12 62.5q0 34 11.5 61.5t31 47t45.5 30t55 10.5q51 0 100.5 -31.5t87.5 -85.5q38 54 87.5 85.5t100.5 31.5q29 0 55 -10.5t45.5 -30t31 -47t11.5 -61.5q0 -35 -12.5 -62.5t-32.5 -47t-46.5 -29.5t-54.5 -10
q-51 0 -99 31.5t-86 85.5q-38 -54 -86 -85.5t-99 -31.5zM215 162q50 0 91 33.5t68 84.5q-32 54 -74 87t-90 33q-45 0 -76 -31t-31 -86q0 -57 32 -89t80 -32zM577 162q47 0 79.5 32t32.5 88q0 28 -8.5 50t-23.5 37t-35 23t-42 8q-44 0 -85.5 -31t-76.5 -89q29 -53 70 -85.5
t89 -32.5z" />
    <glyph glyph-name="integral" unicode="&#x222b;" horiz-adv-x="517" 
d="M150 -133q-20 0 -34.5 8t-25 19.5t-17.5 24t-11 22.5l16 154h14q0 -59 2 -99t8 -64t16 -34t25 -10q24 0 40 22t26.5 60.5t16 91.5t9.5 115t6.5 130.5t6.5 138.5q5 85 12 146t20 100t34.5 57.5t54.5 18.5q23 0 38 -7.5t24.5 -18.5t15 -24t8.5 -23l-16 -155h-15
q0 61 -3 100.5t-9.5 62.5t-17 32.5t-25.5 9.5q-18 0 -32 -13t-24 -45.5t-17 -86t-12 -134.5q-5 -73 -7.5 -146t-6 -140t-10.5 -124t-20.5 -99t-35 -66t-54.5 -24z" />
    <glyph glyph-name="approxequal" unicode="&#x2248;" horiz-adv-x="464" 
d="M63 310q1 42 24.5 66t65.5 24q27 0 47 -9t38 -19.5t37 -19t43 -8.5q10 0 22 2.5t22 9t16.5 17.5t7.5 29h15q-2 -42 -25.5 -66t-67.5 -24q-28 0 -48.5 8.5t-38 19t-35.5 19.5t-40 9q-10 0 -21.5 -2.5t-21.5 -9t-17 -17.5t-8 -29h-15zM63 155q1 42 24.5 66t65.5 24
q27 0 47 -9t38 -19.5t37 -19t43 -8.5q10 0 22 2.5t22 9t16.5 17.5t7.5 29h15q-2 -42 -25.5 -66t-67.5 -24q-28 0 -48.5 8.5t-38 19t-35.5 19.5t-40 9q-10 0 -21.5 -2.5t-21.5 -9t-17 -17.5t-8 -29h-15z" />
    <glyph glyph-name="notequal" unicode="&#x2260;" horiz-adv-x="479" 
d="M295 355l-57 -148h178v-32h-190l-55 -145h-30l55 145h-133v32h145l56 148h-201v32h213l55 145h31l-55 -145h109v-32h-121z" />
    <glyph glyph-name="lessequal" unicode="&#x2264;" horiz-adv-x="531" 
d="M66 276v10l402 233v-35l-353 -203l353 -204v-35zM63 0v32h403v-32h-403z" />
    <glyph glyph-name="greaterequal" unicode="&#x2265;" horiz-adv-x="531" 
d="M63 77l353 204l-353 203v35l402 -233v-10l-402 -234v35zM65 32h403v-32h-403v32z" />
    <glyph glyph-name="lozenge" unicode="&#x25ca;" horiz-adv-x="520" 
d="M459 300l-185 -314h-30l-183 314l183 314h30zM429 300l-161 275l-158 -275l158 -275z" />
    <glyph glyph-name="ff" unicode="&#xfb00;" horiz-adv-x="589" 
d="M37 10l65 16v449h-61v25h61v132q0 40 6 73.5t20 58t36.5 38.5t54.5 14q27 0 49.5 -8t43 -20t40.5 -26t43 -26q12 38 37 59t65 21q27 0 49 -8.5t39 -20.5t29 -25t19 -23l-59 -154h-15q14 35 20 64t6 52q0 46 -23 67.5t-65 21.5t-59.5 -43t-17.5 -125v-122h132v-25h-132
v-449l65 -16v-10h-170v10l65 16v449h-238v-449l65 -16v-10h-170v10zM380 500v117q0 37 -12.5 68.5t-34.5 55t-51.5 36.5t-62.5 13q-41 0 -59 -42.5t-18 -110.5v-137h238z" />
    <glyph glyph-name="fi" unicode="&#xfb01;" horiz-adv-x="523" 
d="M487 10v-10h-170v10l65 16v449h-240v-439l65 -26v-10h-170v10l65 26v439h-61v25h61v129q0 39 5.5 73t19.5 59.5t37.5 40t58.5 14.5q31 0 46.5 -11t29 -25.5t31.5 -29.5t56 -23q28 -6 40.5 -16.5t12.5 -30.5q0 -19 -11 -29t-28 -10q-16 0 -29 11t-25.5 27.5t-25 36
t-26.5 36t-31 27.5t-39 11q-45 0 -63.5 -40t-18.5 -113v-137h280v-474z" />
    <glyph glyph-name="fl" unicode="&#xfb02;" horiz-adv-x="534" 
d="M37 10l65 16v449h-61v25h61v132q0 39 6 73t20 58.5t36 38.5t54 14q27 0 48.5 -5.5t40 -12t35.5 -12t36 -5.5q14 0 27.5 4t27.5 15h10v-774l65 -16v-10h-170v10l65 16v634q0 34 -19.5 59t-48 40.5t-60 23t-54.5 7.5q-22 0 -37 -11.5t-24.5 -31.5t-13.5 -48t-4 -62v-137
h132v-25h-132v-449l65 -16v-10h-170v10z" />
    <glyph glyph-name="ffi" unicode="&#xfb03;" horiz-adv-x="803" 
d="M767 10v-10h-170v10l65 16v449h-240v-439l65 -26v-10h-170v10l65 26v439h-240v-439l65 -26v-10h-170v10l65 26v439h-61v25h61v132q0 40 6 73.5t20 58t36 38.5t55 14q27 0 50 -8t43.5 -20.5t40.5 -26.5t43 -26q13 37 38 59t69 22q31 0 46.5 -11t29 -25.5t31.5 -29.5
t56 -23q28 -6 40.5 -16.5t12.5 -30.5q0 -19 -11 -29t-28 -10q-16 0 -29 11t-25.5 27.5t-25 36t-26.5 36t-31 27.5t-39 11q-45 0 -63.5 -40t-18.5 -113v-137h280v-474zM382 640q0 26 -13.5 52.5t-36.5 48.5t-52.5 35.5t-60.5 13.5q-42 0 -59.5 -42t-17.5 -111v-137h240v140z
" />
    <glyph glyph-name="ffl" unicode="&#xfb04;" horiz-adv-x="814" 
d="M37 10l65 16v449h-61v25h61v128q0 41 6 75.5t20 59.5t36.5 39t54.5 14q27 0 49.5 -8.5t43 -20.5t41 -26t43.5 -26q12 38 36.5 59.5t65.5 21.5q27 0 48.5 -5.5t40 -12t35.5 -12t36 -5.5q14 0 27.5 4t27.5 15h10v-774l65 -16v-10h-170v10l65 16v634q0 34 -19.5 59t-48 40.5
t-60 23t-54.5 7.5q-22 0 -37 -11.5t-24.5 -31.5t-13.5 -48t-4 -62v-137h132v-25h-132v-449l65 -16v-10h-170v10l65 16v449h-240v-449l65 -16v-10h-170v10zM382 500v132q0 31 -14.5 60t-37.5 50.5t-52 34.5t-59 13q-41 0 -59 -42.5t-18 -110.5v-137h240z" />
    <glyph glyph-name="B.ss01" horiz-adv-x="666" 
d="M49 10l75 26v684l-75 30v10h275q57 0 104 -13t80.5 -38.5t52 -62t18.5 -82.5q0 -53 -24 -98.5t-72 -76.5q-21 -14 -48 -22q37 -7 70 -20t58 -34.5t39 -51t14 -69.5q0 -38 -13.5 -72.5t-42.5 -61t-73.5 -42.5t-106.5 -16h-331v10zM375 16q58 0 95 18t57.5 45t28 58t7.5 57
q0 78 -52 120.5t-149 42.5q-15 0 -32.5 2.5t-38 11.5t-44.5 26.5t-54 47.5l225 197h15q-14 -14 -34 -33.5t-40.5 -41.5t-38 -46t-26.5 -46q-9 -23 -9 -46q0 -22 9 -34q11 -15 31 -18.5t34 -3.5q41 0 73 15.5t53.5 42.5t33 62t11.5 74q0 91 -53 132t-161 41h-147v-724h206z
" />
    <glyph glyph-name="C.ss01" horiz-adv-x="816" 
d="M407 -11q-71 0 -135 25.5t-113.5 74.5t-78.5 119t-29 159q0 87 29 160.5t80.5 127t123 83.5t156.5 30q44 0 82.5 -9t69.5 -22.5t53 -29.5t33 -31l-185 -472h-15q18 51 38 104.5t37 103.5t28 94.5t11 77.5q0 40 -13.5 68t-36.5 45.5t-54 25.5t-66 8q-53 0 -110.5 -16.5
t-105.5 -55t-79 -101.5t-31 -156q0 -106 32.5 -178t82 -116t109.5 -63t114 -19q112 0 194 70.5t124 204.5h15q-20 -69 -53.5 -126.5t-79.5 -99t-103.5 -64t-123.5 -22.5z" />
    <glyph glyph-name="Cacute.ss01" horiz-adv-x="816" 
d="M382 810q27 55 48.5 91.5t38.5 58t29.5 30t20.5 8.5q16 0 16 -15q0 -12 -13.5 -32.5t-34.5 -44.5t-45.5 -49.5t-46.5 -46.5h-13zM407 -11q-71 0 -135 25.5t-113.5 74.5t-78.5 119t-29 159q0 87 29 160.5t80.5 127t123 83.5t156.5 30q44 0 82.5 -9t69.5 -22.5t53 -29.5
t33 -31l-185 -472h-15q18 51 38 104.5t37 103.5t28 94.5t11 77.5q0 40 -13.5 68t-36.5 45.5t-54 25.5t-66 8q-53 0 -110.5 -16.5t-105.5 -55t-79 -101.5t-31 -156q0 -106 32.5 -178t82 -116t109.5 -63t114 -19q112 0 194 70.5t124 204.5h15q-20 -69 -53.5 -126.5t-79.5 -99
t-103.5 -64t-123.5 -22.5z" />
    <glyph glyph-name="Ccaron.ss01" horiz-adv-x="816" 
d="M295 998q32 -37 62 -72.5t51 -68.5q21 33 51 68.5t61 72.5h13q-32 -56 -51.5 -92.5t-33 -57.5t-22.5 -29.5t-18 -8.5t-18 8.5t-22.5 29.5t-33.5 57.5t-52 92.5h13zM407 -11q-71 0 -135 25.5t-113.5 74.5t-78.5 119t-29 159q0 87 29 160.5t80.5 127t123 83.5t156.5 30
q44 0 82.5 -9t69.5 -22.5t53 -29.5t33 -31l-185 -472h-15q18 51 38 104.5t37 103.5t28 94.5t11 77.5q0 40 -13.5 68t-36.5 45.5t-54 25.5t-66 8q-53 0 -110.5 -16.5t-105.5 -55t-79 -101.5t-31 -156q0 -106 32.5 -178t82 -116t109.5 -63t114 -19q112 0 194 70.5t124 204.5
h15q-20 -69 -53.5 -126.5t-79.5 -99t-103.5 -64t-123.5 -22.5z" />
    <glyph glyph-name="Ccedilla.ss01" horiz-adv-x="816" 
d="M767 301q-19 -67 -51 -122.5t-75 -96.5t-97 -65t-116 -27l-27 -47q40 0 58 -19.5t18 -45.5q0 -14 -5.5 -28.5t-15.5 -26.5t-25 -19.5t-34 -7.5q-15 0 -30 4.5t-28 12.5v8q28 -11 52 -11q26 0 43 12.5t17 38.5q0 20 -17.5 36t-55.5 16v19l32 57h-3q-71 0 -135 25.5
t-113.5 74.5t-78.5 119t-29 159q0 87 29 160.5t80.5 127t123 83.5t156.5 30q44 0 82.5 -9t69.5 -22.5t53 -29.5t33 -31l-185 -472h-15q18 51 38 104.5t37 103.5t28 94.5t11 77.5q0 40 -13.5 68t-36.5 45.5t-54 25.5t-66 8q-53 0 -110.5 -16.5t-105.5 -55t-79 -101.5
t-31 -156q0 -106 32.5 -178t82 -116t109.5 -63t114 -19q112 0 194 70.5t124 204.5h15v0z" />
    <glyph glyph-name="Cdotaccent.ss01" horiz-adv-x="816" 
d="M418 860q-23 0 -37.5 14.5t-14.5 36.5t14.5 37.5t37.5 15.5t37 -15.5t14 -37.5t-14 -36.5t-37 -14.5zM407 -11q-71 0 -135 25.5t-113.5 74.5t-78.5 119t-29 159q0 87 29 160.5t80.5 127t123 83.5t156.5 30q44 0 82.5 -9t69.5 -22.5t53 -29.5t33 -31l-185 -472h-15
q18 51 38 104.5t37 103.5t28 94.5t11 77.5q0 40 -13.5 68t-36.5 45.5t-54 25.5t-66 8q-53 0 -110.5 -16.5t-105.5 -55t-79 -101.5t-31 -156q0 -106 32.5 -178t82 -116t109.5 -63t114 -19q112 0 194 70.5t124 204.5h15q-20 -69 -53.5 -126.5t-79.5 -99t-103.5 -64
t-123.5 -22.5z" />
    <glyph glyph-name="D.ss01" horiz-adv-x="780" 
d="M449 -11q-48 0 -84 10t-61.5 25.5t-43.5 33.5t-30 33l185 472h15q-20 -57 -40 -111t-36.5 -103t-27 -92.5t-10.5 -78.5q0 -45 10.5 -77t27.5 -52.5t40 -29.5t49 -9q52 0 97 31t77 81.5t50.5 114.5t18.5 131q0 95 -22.5 165t-65.5 116t-104 68.5t-138 22.5h-156
q-19 0 -25 -12t-6 -41v-651l75 -26v-10h-195v10l75 26v684l-75 30v10h335q82 0 148 -24t112 -72.5t70.5 -121t24.5 -169.5q0 -71 -21.5 -139.5t-59.5 -123t-91.5 -88t-117.5 -33.5z" />
    <glyph glyph-name="Eth.ss01" horiz-adv-x="780" 
d="M384 760q82 0 148 -24t112 -72.5t70.5 -121t24.5 -169.5q0 -71 -21.5 -139.5t-59.5 -123t-91.5 -88t-117.5 -33.5q-48 0 -84 10t-61.5 25.5t-43.5 33.5t-30 33l185 472h15q-20 -57 -40 -111t-36.5 -103t-27 -92.5t-10.5 -78.5q0 -45 10.5 -77t27.5 -52.5t40 -29.5t49 -9
q52 0 97 31t77 81.5t50.5 114.5t18.5 131q0 95 -22.5 165t-65.5 116t-104 68.5t-138 22.5h-156q-19 0 -25 -12t-6 -41v-288h101v-38h-101v-325l75 -26v-10h-195v10l75 26v325h-97v38h97v321l-75 30v10h335v0z" />
    <glyph glyph-name="Dcaron.ss01" horiz-adv-x="780" 
d="M262 998q32 -37 62 -72.5t51 -68.5q21 33 51 68.5t61 72.5h13q-32 -56 -51.5 -92.5t-33 -57.5t-22.5 -29.5t-18 -8.5t-18 8.5t-22.5 29.5t-33.5 57.5t-52 92.5h13zM449 -11q-48 0 -84 10t-61.5 25.5t-43.5 33.5t-30 33l185 472h15q-20 -57 -40 -111t-36.5 -103t-27 -92.5
t-10.5 -78.5q0 -45 10.5 -77t27.5 -52.5t40 -29.5t49 -9q52 0 97 31t77 81.5t50.5 114.5t18.5 131q0 95 -22.5 165t-65.5 116t-104 68.5t-138 22.5h-156q-19 0 -25 -12t-6 -41v-651l75 -26v-10h-195v10l75 26v684l-75 30v10h335q82 0 148 -24t112 -72.5t70.5 -121
t24.5 -169.5q0 -71 -21.5 -139.5t-59.5 -123t-91.5 -88t-117.5 -33.5z" />
    <glyph glyph-name="Dcroat.ss01" horiz-adv-x="780" 
d="M384 760q82 0 148 -24t112 -72.5t70.5 -121t24.5 -169.5q0 -71 -21.5 -139.5t-59.5 -123t-91.5 -88t-117.5 -33.5q-48 0 -84 10t-61.5 25.5t-43.5 33.5t-30 33l185 472h15q-20 -57 -40 -111t-36.5 -103t-27 -92.5t-10.5 -78.5q0 -45 10.5 -77t27.5 -52.5t40 -29.5t49 -9
q52 0 97 31t77 81.5t50.5 114.5t18.5 131q0 95 -22.5 165t-65.5 116t-104 68.5t-138 22.5h-156q-19 0 -25 -12t-6 -41v-288h101v-38h-101v-325l75 -26v-10h-195v10l75 26v325h-97v38h97v321l-75 30v10h335v0z" />
    <glyph glyph-name="G.ss01" horiz-adv-x="761" 
d="M404 -11q-78 0 -144 27t-115 77t-76.5 122t-27.5 162q0 83 29 154.5t81 124t123.5 82.5t156.5 30q54 0 96 -11.5t71 -26.5t46 -29t20 -19v-222h-15q0 137 -62.5 204t-177.5 67q-51 0 -108 -16.5t-104.5 -54t-79 -98.5t-31.5 -151q0 -89 25 -160.5t71 -121.5t109 -76.5
t140 -26.5q58 0 104.5 18t79 47.5t50 67t17.5 76.5q0 35 -29 55.5t-73 32t-95.5 16.5t-96.5 9v15h318v-95q0 -70 -28.5 -122t-72.5 -87t-97.5 -52.5t-103.5 -17.5z" />
    <glyph glyph-name="Gbreve.ss01" horiz-adv-x="761" 
d="M396 810q-24 0 -48.5 9.5t-43.5 32t-31 58t-12 88.5h13q0 -26 6 -52t20.5 -47t37.5 -34t58 -13q34 0 57.5 13t38 34t20.5 47t6 52h13q0 -53 -12 -88.5t-31 -58t-43.5 -32t-48.5 -9.5zM404 -11q-78 0 -144 27t-115 77t-76.5 122t-27.5 162q0 83 29 154.5t81 124
t123.5 82.5t156.5 30q54 0 96 -11.5t71 -26.5t46 -29t20 -19v-222h-15q0 137 -62.5 204t-177.5 67q-51 0 -108 -16.5t-104.5 -54t-79 -98.5t-31.5 -151q0 -89 25 -160.5t71 -121.5t109 -76.5t140 -26.5q58 0 104.5 18t79 47.5t50 67t17.5 76.5q0 35 -29 55.5t-73 32
t-95.5 16.5t-96.5 9v15h318v-95q0 -70 -28.5 -122t-72.5 -87t-97.5 -52.5t-103.5 -17.5z" />
    <glyph glyph-name="Gcommaaccent.ss01" horiz-adv-x="761" 
d="M404 -11q-78 0 -144 27t-115 77t-76.5 122t-27.5 162q0 83 29 154.5t81 124t123.5 82.5t156.5 30q54 0 96 -11.5t71 -26.5t46 -29t20 -19v-222h-15q0 137 -62.5 204t-177.5 67q-51 0 -108 -16.5t-104.5 -54t-79 -98.5t-31.5 -151q0 -89 25 -160.5t71 -121.5t109 -76.5
t140 -26.5q58 0 104.5 18t79 47.5t50 67t17.5 76.5q0 35 -29 55.5t-73 32t-95.5 16.5t-96.5 9v15h318v-95q0 -70 -28.5 -122t-72.5 -87t-97.5 -52.5t-103.5 -17.5zM380 -50q24 0 35.5 -21t11.5 -47q0 -8 -1.5 -19t-8.5 -27t-20 -36t-35 -44h-11q22 28 34 49.5t12 37.5
q0 17 -8 25t-18 14t-18 13.5t-8 22.5q0 16 10.5 24t24.5 8z" />
    <glyph glyph-name="Gdotaccent.ss01" horiz-adv-x="761" 
d="M391 860q-23 0 -37.5 14.5t-14.5 36.5t14.5 37.5t37.5 15.5t37 -15.5t14 -37.5t-14 -36.5t-37 -14.5zM404 -11q-78 0 -144 27t-115 77t-76.5 122t-27.5 162q0 83 29 154.5t81 124t123.5 82.5t156.5 30q54 0 96 -11.5t71 -26.5t46 -29t20 -19v-222h-15q0 137 -62.5 204
t-177.5 67q-51 0 -108 -16.5t-104.5 -54t-79 -98.5t-31.5 -151q0 -89 25 -160.5t71 -121.5t109 -76.5t140 -26.5q58 0 104.5 18t79 47.5t50 67t17.5 76.5q0 35 -29 55.5t-73 32t-95.5 16.5t-96.5 9v15h318v-95q0 -70 -28.5 -122t-72.5 -87t-97.5 -52.5t-103.5 -17.5z" />
    <glyph glyph-name="J.ss01" horiz-adv-x="484" 
d="M210 -11q-33 0 -58 8t-44 21t-33 29.5t-26 33.5l185 472h15q-29 -80 -54 -146t-43 -120t-28.5 -96t-10.5 -74q0 -47 25.5 -69t68.5 -22q25 0 45 6.5t34 27t22 58.5t8 101v501l-75 30v10h195v-10l-75 -30v-518q0 -44 -5 -82.5t-21 -67.5t-46 -46t-79 -17z" />
    <glyph glyph-name="K.ss01" horiz-adv-x="620" 
d="M582 10v-10h-195v10l38 26l-256 318v-318l75 -26v-10h-195v10l75 26v684l-75 30v10h195v-10l-75 -30v-314l254 320l-63 24v10h195v-10l-103 -24l-261 -332l288 -358z" />
    <glyph glyph-name="Kcommaaccent.ss01" horiz-adv-x="620" 
d="M582 10v-10h-195v10l38 26l-256 318v-318l75 -26v-10h-195v10l75 26v684l-75 30v10h195v-10l-75 -30v-314l254 320l-63 24v10h195v-10l-103 -24l-261 -332l288 -358zM309 -50q24 0 35.5 -21t11.5 -47q0 -8 -1.5 -19t-8.5 -27t-20 -36t-35 -44h-11q22 28 34 49.5t12 37.5
q0 17 -8 25t-18 14t-18 13.5t-8 22.5q0 16 10.5 24t24.5 8z" />
    <glyph glyph-name="P.ss01" horiz-adv-x="639" 
d="M49 10l75 26v684l-75 30v10h282q60 0 107.5 -15.5t81 -44.5t51.5 -71t18 -95q0 -49 -15 -91.5t-42.5 -73.5t-65.5 -49t-84 -18q-30 0 -57 7.5t-49.5 19.5t-40 27t-29.5 30l111 278h15q-6 -20 -16 -46.5t-19.5 -56t-16 -59t-6.5 -56.5q0 -35 9 -59t24.5 -39.5t35.5 -22.5
t42 -7q35 0 63 16.5t47.5 45.5t30 68t10.5 84q0 100 -50.5 154t-145.5 54h-140q-19 0 -25 -10.5t-6 -36.5v-618l75 -65v-10h-195v10z" />
    <glyph glyph-name="Q.ss01" horiz-adv-x="830" 
d="M596 -184q27 0 50 8.5t42 22.5t33 32t25 37h16q-6 -15 -19.5 -35.5t-36 -40t-54 -33t-73.5 -13.5q-27 0 -61 8t-64.5 29.5t-53.5 59.5t-28 98q-68 3 -128 33t-105 81t-71.5 121t-26.5 154q0 87 30.5 158.5t81.5 123t116.5 80t136.5 28.5q72 0 136.5 -29t113.5 -80
t77.5 -120t28.5 -149q0 -81 -26.5 -150t-71.5 -121t-104 -85t-124 -42q4 -47 19 -80.5t37 -54.5t49 -31t55 -10zM86 412q0 -101 31 -173.5t78.5 -120t104.5 -70t110 -22.5q30 0 63.5 7t67 23t64 41.5t54 63t37.5 87t14 114.5q0 93 -28 162.5t-73.5 115t-103 68.5t-117.5 23
q-45 0 -97.5 -17t-98 -54.5t-76 -98.5t-30.5 -149z" />
    <glyph glyph-name="R.ss01" horiz-adv-x="657" 
d="M49 10l75 26v684l-75 30v10h284q57 0 104 -15t80.5 -43t52.5 -67t19 -87q0 -40 -13.5 -78.5t-40 -69t-66.5 -49.5t-92 -19q-14 0 -28.5 2t-31.5 10l212 -318l80 -16v-10h-215v10l80 16l-257 407l211 184h15q-14 -14 -34 -33.5t-40.5 -41.5t-38 -46t-26.5 -46
q-9 -23 -9 -46q0 -22 9 -34q11 -15 31 -18.5t33 -3.5q51 0 83.5 21t51.5 52t26 67t7 66q0 40 -11 74t-36 59t-64 39t-95 14h-161v-704l75 -26v-10h-195v10z" />
    <glyph glyph-name="S.ss01" horiz-adv-x="591" 
d="M373 419q37 -11 67.5 -27.5t53 -40.5t35 -56.5t12.5 -75.5q0 -54 -19.5 -96.5t-53.5 -72.5t-80.5 -45.5t-99.5 -15.5q-47 0 -86 11t-69 28.5t-51 38t-33 39.5l163 303q-57 27 -88.5 65t-31.5 99q0 33 10.5 67.5t35 63t64.5 46.5t100 18q37 0 68 -7t56.5 -18.5t46 -26
t36.5 -29.5zM117 595q0 -48 30 -81t91 -56l67 124h20q-19 -37 -36 -69t-32 -61q20 -7 43 -13t49 -13q2 -1 3.5 -1t3.5 -1q30 60 48.5 97.5t28.5 60t13.5 34t3.5 20.5q0 30 -15 49.5t-37.5 31t-49 16t-48.5 4.5q-32 0 -65 -8.5t-59 -26t-42.5 -44t-16.5 -63.5zM302 16
q38 0 75.5 10.5t67.5 33t48.5 57.5t18.5 84q0 37 -11 63.5t-31.5 45.5t-50 32t-66.5 22q-2 1 -3.5 1t-3.5 1l-84 -167h-20q26 51 47 93.5t39 77.5q-36 9 -56 15t-42 15q-31 -58 -53.5 -99.5t-36.5 -71.5t-21 -51.5t-7 -38.5q0 -33 18 -56.5t46 -38t61.5 -21.5t64.5 -7z" />
    <glyph glyph-name="Sacute.ss01" horiz-adv-x="591" 
d="M410 983q0 -12 -13.5 -32.5t-34.5 -44.5t-45.5 -49.5t-46.5 -46.5h-13q27 55 48.5 91.5t38.5 58t29.5 30t20.5 8.5q16 0 16 -15zM373 419q37 -11 67.5 -27.5t53 -40.5t35 -56.5t12.5 -75.5q0 -54 -19.5 -96.5t-53.5 -72.5t-80.5 -45.5t-99.5 -15.5q-47 0 -86 11t-69 28.5
t-51 38t-33 39.5l163 303q-57 27 -88.5 65t-31.5 99q0 33 10.5 67.5t35 63t64.5 46.5t100 18q37 0 68 -7t56.5 -18.5t46 -26t36.5 -29.5zM117 595q0 -48 30 -81t91 -56l67 124h20q-19 -37 -36 -69t-32 -61q20 -7 43 -13t49 -13q2 -1 3.5 -1t3.5 -1q30 60 48.5 97.5t28.5 60
t13.5 34t3.5 20.5q0 30 -15 49.5t-37.5 31t-49 16t-48.5 4.5q-32 0 -65 -8.5t-59 -26t-42.5 -44t-16.5 -63.5zM302 16q38 0 75.5 10.5t67.5 33t48.5 57.5t18.5 84q0 37 -11 63.5t-31.5 45.5t-50 32t-66.5 22q-2 1 -3.5 1t-3.5 1l-84 -167h-20q26 51 47 93.5t39 77.5
q-36 9 -56 15t-42 15q-31 -58 -53.5 -99.5t-36.5 -71.5t-21 -51.5t-7 -38.5q0 -33 18 -56.5t46 -38t61.5 -21.5t64.5 -7z" />
    <glyph glyph-name="Scaron.ss01" horiz-adv-x="591" 
d="M296 810q-9 0 -18 8.5t-22.5 29.5t-33.5 57.5t-52 92.5h13q32 -37 62 -72.5t51 -68.5q21 33 51 68.5t61 72.5h13q-32 -56 -51.5 -92.5t-33 -57.5t-22.5 -29.5t-18 -8.5zM373 419q37 -11 67.5 -27.5t53 -40.5t35 -56.5t12.5 -75.5q0 -54 -19.5 -96.5t-53.5 -72.5
t-80.5 -45.5t-99.5 -15.5q-47 0 -86 11t-69 28.5t-51 38t-33 39.5l163 303q-57 27 -88.5 65t-31.5 99q0 33 10.5 67.5t35 63t64.5 46.5t100 18q37 0 68 -7t56.5 -18.5t46 -26t36.5 -29.5zM117 595q0 -48 30 -81t91 -56l67 124h20q-19 -37 -36 -69t-32 -61q20 -7 43 -13
t49 -13q2 -1 3.5 -1t3.5 -1q30 60 48.5 97.5t28.5 60t13.5 34t3.5 20.5q0 30 -15 49.5t-37.5 31t-49 16t-48.5 4.5q-32 0 -65 -8.5t-59 -26t-42.5 -44t-16.5 -63.5zM302 16q38 0 75.5 10.5t67.5 33t48.5 57.5t18.5 84q0 37 -11 63.5t-31.5 45.5t-50 32t-66.5 22q-2 1 -3.5 1
t-3.5 1l-84 -167h-20q26 51 47 93.5t39 77.5q-36 9 -56 15t-42 15q-31 -58 -53.5 -99.5t-36.5 -71.5t-21 -51.5t-7 -38.5q0 -33 18 -56.5t46 -38t61.5 -21.5t64.5 -7z" />
    <glyph glyph-name="Scedilla.ss01" horiz-adv-x="591" 
d="M541 219q0 -50 -17 -90.5t-47.5 -70t-71.5 -47t-89 -21.5l-27 -47q40 0 58 -19.5t18 -45.5q0 -14 -5.5 -28.5t-15.5 -26.5t-25 -19.5t-34 -7.5q-15 0 -30 4.5t-28 12.5v8q28 -11 52 -11q26 0 43 12.5t17 38.5q0 20 -17.5 36t-55.5 16v19l32 57h-10q-47 0 -86 11t-69 28.5
t-51 38t-33 39.5l163 303q-57 27 -88.5 65t-31.5 99q0 33 10.5 67.5t35 63t64.5 46.5t100 18q37 0 68 -7t56.5 -18.5t46 -26t36.5 -29.5l-136 -268q37 -11 67.5 -27.5t53 -40.5t35 -56.5t12.5 -75.5zM117 595q0 -48 30 -81t91 -56l67 124h20q-19 -37 -36 -69t-32 -61
q20 -7 43 -13t49 -13q2 -1 3.5 -1t3.5 -1q30 60 48.5 97.5t28.5 60t13.5 34t3.5 20.5q0 30 -15 49.5t-37.5 31t-49 16t-48.5 4.5q-32 0 -65 -8.5t-59 -26t-42.5 -44t-16.5 -63.5zM112 139q0 -33 18 -56.5t46 -38t61.5 -21.5t64.5 -7q38 0 75.5 10.5t67.5 33t48.5 57.5
t18.5 84q0 37 -11 63.5t-31.5 45.5t-50 32t-66.5 22q-2 1 -3.5 1t-3.5 1l-84 -167h-20q26 51 47 93.5t39 77.5q-36 9 -56 15t-42 15q-31 -58 -53.5 -99.5t-36.5 -71.5t-21 -51.5t-7 -38.5z" />
    <glyph glyph-name="Scommaaccent.ss01" horiz-adv-x="591" 
d="M373 419q37 -11 67.5 -27.5t53 -40.5t35 -56.5t12.5 -75.5q0 -54 -19.5 -96.5t-53.5 -72.5t-80.5 -45.5t-99.5 -15.5q-47 0 -86 11t-69 28.5t-51 38t-33 39.5l163 303q-57 27 -88.5 65t-31.5 99q0 33 10.5 67.5t35 63t64.5 46.5t100 18q37 0 68 -7t56.5 -18.5t46 -26
t36.5 -29.5zM117 595q0 -48 30 -81t91 -56l67 124h20q-19 -37 -36 -69t-32 -61q20 -7 43 -13t49 -13q2 -1 3.5 -1t3.5 -1q30 60 48.5 97.5t28.5 60t13.5 34t3.5 20.5q0 30 -15 49.5t-37.5 31t-49 16t-48.5 4.5q-32 0 -65 -8.5t-59 -26t-42.5 -44t-16.5 -63.5zM302 16
q38 0 75.5 10.5t67.5 33t48.5 57.5t18.5 84q0 37 -11 63.5t-31.5 45.5t-50 32t-66.5 22q-2 1 -3.5 1t-3.5 1l-84 -167h-20q26 51 47 93.5t39 77.5q-36 9 -56 15t-42 15q-31 -58 -53.5 -99.5t-36.5 -71.5t-21 -51.5t-7 -38.5q0 -33 18 -56.5t46 -38t61.5 -21.5t64.5 -7z
M290 -50q24 0 35.5 -21t11.5 -47q0 -8 -1.5 -19t-8.5 -27t-20 -36t-35 -44h-11q22 28 34 49.5t12 37.5q0 17 -8 25t-18 14t-18 13.5t-8 22.5q0 16 10.5 24t24.5 8z" />
    <glyph glyph-name="Y.ss01" horiz-adv-x="783" 
d="M231 10l86 16l113 263q-25 -23 -55 -37.5t-68 -14.5q-49 0 -76 24.5t-40.5 67t-17 100t-4.5 123.5q0 22 -2.5 55.5t-12.5 65t-29 54.5t-52 23h-25v10h41q43 0 67.5 -16.5t37.5 -46t16.5 -70.5t3.5 -90q0 -53 4 -102.5t17.5 -88t39 -61.5t69.5 -23q10 0 23.5 3t30 16
t36 39.5t42.5 73.5l142 326l-68 30v10h185v-10l-74 -30l-301 -694l86 -16v-10h-215v10z" />
    <glyph glyph-name="Yacute.ss01" horiz-adv-x="783" 
d="M329 810q27 55 48.5 91.5t38.5 58t29.5 30t20.5 8.5q16 0 16 -15q0 -12 -13.5 -32.5t-34.5 -44.5t-45.5 -49.5t-46.5 -46.5h-13zM231 10l86 16l113 263q-25 -23 -55 -37.5t-68 -14.5q-49 0 -76 24.5t-40.5 67t-17 100t-4.5 123.5q0 22 -2.5 55.5t-12.5 65t-29 54.5
t-52 23h-25v10h41q43 0 67.5 -16.5t37.5 -46t16.5 -70.5t3.5 -90q0 -53 4 -102.5t17.5 -88t39 -61.5t69.5 -23q10 0 23.5 3t30 16t36 39.5t42.5 73.5l142 326l-68 30v10h185v-10l-74 -30l-301 -694l86 -16v-10h-215v10z" />
    <glyph glyph-name="Ycircumflex.ss01" horiz-adv-x="783" 
d="M251 810q32 56 52 92.5t33.5 57.5t22.5 29.5t18 8.5t18 -8.5t22.5 -29.5t33 -57.5t51.5 -92.5h-13q-31 37 -61 72.5t-51 68.5q-21 -33 -51 -68.5t-62 -72.5h-13zM231 10l86 16l113 263q-25 -23 -55 -37.5t-68 -14.5q-49 0 -76 24.5t-40.5 67t-17 100t-4.5 123.5
q0 22 -2.5 55.5t-12.5 65t-29 54.5t-52 23h-25v10h41q43 0 67.5 -16.5t37.5 -46t16.5 -70.5t3.5 -90q0 -53 4 -102.5t17.5 -88t39 -61.5t69.5 -23q10 0 23.5 3t30 16t36 39.5t42.5 73.5l142 326l-68 30v10h185v-10l-74 -30l-301 -694l86 -16v-10h-215v10z" />
    <glyph glyph-name="Ydieresis.ss01" horiz-adv-x="783" 
d="M317 860q-17 0 -27.5 10.5t-10.5 27.5t10.5 28t27.5 11q18 0 28.5 -11t10.5 -28t-10.5 -27.5t-28.5 -10.5zM447 860q-17 0 -27.5 10.5t-10.5 27.5t10.5 28t27.5 11q18 0 28.5 -11t10.5 -28t-10.5 -27.5t-28.5 -10.5zM231 10l86 16l113 263q-25 -23 -55 -37.5t-68 -14.5
q-49 0 -76 24.5t-40.5 67t-17 100t-4.5 123.5q0 22 -2.5 55.5t-12.5 65t-29 54.5t-52 23h-25v10h41q43 0 67.5 -16.5t37.5 -46t16.5 -70.5t3.5 -90q0 -53 4 -102.5t17.5 -88t39 -61.5t69.5 -23q10 0 23.5 3t30 16t36 39.5t42.5 73.5l142 326l-68 30v10h185v-10l-74 -30
l-301 -694l86 -16v-10h-215v10z" />
    <glyph glyph-name="Ygrave.ss01" horiz-adv-x="783" 
d="M423 810q-22 21 -46.5 46.5t-45.5 49.5t-34.5 44.5t-13.5 32.5q0 15 16 15q8 0 20.5 -8.5t29.5 -30t38.5 -58t48.5 -91.5h-13zM231 10l86 16l113 263q-25 -23 -55 -37.5t-68 -14.5q-49 0 -76 24.5t-40.5 67t-17 100t-4.5 123.5q0 22 -2.5 55.5t-12.5 65t-29 54.5t-52 23
h-25v10h41q43 0 67.5 -16.5t37.5 -46t16.5 -70.5t3.5 -90q0 -53 4 -102.5t17.5 -88t39 -61.5t69.5 -23q10 0 23.5 3t30 16t36 39.5t42.5 73.5l142 326l-68 30v10h185v-10l-74 -30l-301 -694l86 -16v-10h-215v10z" />
    <glyph glyph-name="Z.ss01" horiz-adv-x="568" 
d="M519 11v-11h-465l-5 10l154 282l-136 457v11h427l5 -10l-127 -237zM131 623q0 -14 6.5 -44.5t18 -71.5t26 -91.5t30.5 -105.5l229 420h-195q-36 0 -58.5 -6.5t-35 -20t-17 -33.5t-4.5 -47zM340 30q36 0 58.5 6.5t35 20t17 33.5t4.5 47q0 19 -7.5 52.5t-20 79.5t-30 102
l-37.5 120l-130 -240q11 -37 22 -74.5t22 -73.5h-15l-39 130l-109 -203h229z" />
    <glyph glyph-name="Zacute.ss01" horiz-adv-x="568" 
d="M378 983q0 -12 -13.5 -32.5t-34.5 -44.5t-45.5 -49.5t-46.5 -46.5h-13q27 55 48.5 91.5t38.5 58t29.5 30t20.5 8.5q16 0 16 -15zM519 11v-11h-465l-5 10l154 282l-136 457v11h427l5 -10l-127 -237zM131 623q0 -14 6.5 -44.5t18 -71.5t26 -91.5t30.5 -105.5l229 420h-195
q-36 0 -58.5 -6.5t-35 -20t-17 -33.5t-4.5 -47zM340 30q36 0 58.5 6.5t35 20t17 33.5t4.5 47q0 19 -7.5 52.5t-20 79.5t-30 102l-37.5 120l-130 -240q11 -37 22 -74.5t22 -73.5h-15l-39 130l-109 -203h229z" />
    <glyph glyph-name="Zcaron.ss01" horiz-adv-x="568" 
d="M284 810q-9 0 -18 8.5t-22.5 29.5t-33.5 57.5t-52 92.5h13q32 -37 62 -72.5t51 -68.5q21 33 51 68.5t61 72.5h13q-32 -56 -51.5 -92.5t-33 -57.5t-22.5 -29.5t-18 -8.5zM519 11v-11h-465l-5 10l154 282l-136 457v11h427l5 -10l-127 -237zM131 623q0 -14 6.5 -44.5
t18 -71.5t26 -91.5t30.5 -105.5l229 420h-195q-36 0 -58.5 -6.5t-35 -20t-17 -33.5t-4.5 -47zM340 30q36 0 58.5 6.5t35 20t17 33.5t4.5 47q0 19 -7.5 52.5t-20 79.5t-30 102l-37.5 120l-130 -240q11 -37 22 -74.5t22 -73.5h-15l-39 130l-109 -203h229z" />
    <glyph glyph-name="Zdotaccent.ss01" horiz-adv-x="568" 
d="M284 860q-23 0 -37.5 14.5t-14.5 36.5t14.5 37.5t37.5 15.5t37 -15.5t14 -37.5t-14 -36.5t-37 -14.5zM519 11v-11h-465l-5 10l154 282l-136 457v11h427l5 -10l-127 -237zM131 623q0 -14 6.5 -44.5t18 -71.5t26 -91.5t30.5 -105.5l229 420h-195q-36 0 -58.5 -6.5t-35 -20
t-17 -33.5t-4.5 -47zM340 30q36 0 58.5 6.5t35 20t17 33.5t4.5 47q0 19 -7.5 52.5t-20 79.5t-30 102l-37.5 120l-130 -240q11 -37 22 -74.5t22 -73.5h-15l-39 130l-109 -203h229z" />
    <glyph glyph-name="B.ss02" horiz-adv-x="666" 
d="M49 10q26 4 41 6.5t22.5 7.5t9.5 14.5t2 26.5v638q0 13 -2.5 21t-10 12.5t-22.5 7.5t-40 6v10h275q61 0 108.5 -14.5t80 -40.5t49.5 -62t17 -78q0 -38 -12.5 -68.5t-32.5 -54t-46 -39.5t-53 -23q40 -7 73 -21.5t57 -37.5t37.5 -54.5t13.5 -71.5q0 -39 -13.5 -74.5
t-42.5 -62.5t-73.5 -42.5t-106.5 -15.5h-331v10zM354 388q80 0 127.5 49.5t47.5 133.5q0 87 -53.5 128t-159.5 41h-147v-238q35 -55 80 -84.5t105 -29.5zM375 16q58 0 95 18t57.5 45.5t28 59t7.5 58.5q0 44 -15.5 77t-42.5 54.5t-65 32.5t-83 11q-61 0 -107.5 29t-80.5 96
v-481h206z" />
    <glyph glyph-name="P.ss02" horiz-adv-x="639" 
d="M292 760q66 0 120.5 -14t93.5 -41.5t61 -68t22 -92.5q0 -54 -16.5 -99t-46.5 -76.5t-72 -49t-93 -17.5q-60 0 -108.5 22.5t-83.5 82.5v-371l75 -26v-10h-195v10l75 26v684l-75 30v10h243zM361 318q39 0 71.5 16t55.5 44.5t35.5 69t12.5 90.5q0 49 -17.5 87t-48.5 63.5
t-74 38.5t-94 13h-133v-328q37 -52 85.5 -73t106.5 -21z" />
    <glyph glyph-name="R.ss02" horiz-adv-x="682" 
d="M634 10v-10h-215v10l78 26l-272 332q-30 32 -56 79v-411l75 -26v-10h-195v10l75 26v684l-75 30v10h243q66 0 120.5 -14t93.5 -41.5t61 -68t22 -92.5q0 -54 -16.5 -97t-46.5 -73t-72 -46t-93 -16q-20 0 -38 3l228 -279zM169 452q43 -67 88.5 -95.5t103.5 -28.5
q79 0 127 55t48 155q0 49 -17.5 87t-48.5 63.5t-74 38.5t-94 13h-133v-288z" />
    <glyph glyph-name="Racute.ss02" horiz-adv-x="682" 
d="M407 983q0 -12 -13.5 -32.5t-34.5 -44.5t-45.5 -49.5t-46.5 -46.5h-13q27 55 48.5 91.5t38.5 58t29.5 30t20.5 8.5q16 0 16 -15zM634 10v-10h-215v10l78 26l-272 332q-30 32 -56 79v-411l75 -26v-10h-195v10l75 26v684l-75 30v10h243q66 0 120.5 -14t93.5 -41.5t61 -68
t22 -92.5q0 -54 -16.5 -97t-46.5 -73t-72 -46t-93 -16q-20 0 -38 3l228 -279zM169 452q43 -67 88.5 -95.5t103.5 -28.5q79 0 127 55t48 155q0 49 -17.5 87t-48.5 63.5t-74 38.5t-94 13h-133v-288z" />
    <glyph glyph-name="Rcaron.ss02" horiz-adv-x="682" 
d="M304 810q-9 0 -18 8.5t-22.5 29.5t-33.5 57.5t-52 92.5h13q32 -37 62 -72.5t51 -68.5q21 33 51 68.5t61 72.5h13q-32 -56 -51.5 -92.5t-33 -57.5t-22.5 -29.5t-18 -8.5zM634 10v-10h-215v10l78 26l-272 332q-30 32 -56 79v-411l75 -26v-10h-195v10l75 26v684l-75 30v10
h243q66 0 120.5 -14t93.5 -41.5t61 -68t22 -92.5q0 -54 -16.5 -97t-46.5 -73t-72 -46t-93 -16q-20 0 -38 3l228 -279zM169 452q43 -67 88.5 -95.5t103.5 -28.5q79 0 127 55t48 155q0 49 -17.5 87t-48.5 63.5t-74 38.5t-94 13h-133v-288z" />
    <glyph glyph-name="Rcommaaccent.ss02" horiz-adv-x="682" 
d="M634 10v-10h-215v10l78 26l-272 332q-30 32 -56 79v-411l75 -26v-10h-195v10l75 26v684l-75 30v10h243q66 0 120.5 -14t93.5 -41.5t61 -68t22 -92.5q0 -54 -16.5 -97t-46.5 -73t-72 -46t-93 -16q-20 0 -38 3l228 -279zM169 452q43 -67 88.5 -95.5t103.5 -28.5
q79 0 127 55t48 155q0 49 -17.5 87t-48.5 63.5t-74 38.5t-94 13h-133v-288zM298 -50q24 0 35.5 -21t11.5 -47q0 -8 -1.5 -19t-8.5 -27t-20 -36t-35 -44h-11q22 28 34 49.5t12 37.5q0 17 -8 25t-18 14t-18 13.5t-8 22.5q0 16 10.5 24t24.5 8z" />
    <glyph glyph-name="i.loclTRK" horiz-adv-x="243" 
d="M117 605q-23 0 -37.5 14.5t-14.5 36.5t14.5 37.5t37.5 15.5t37 -15.5t14 -37.5t-14 -36.5t-37 -14.5zM37 10l65 16v434h-65v10l95 30h10v-474l65 -16v-10h-170v10z" />
    <glyph glyph-name="a.ss01" horiz-adv-x="486" 
d="M450 40v-10l-93 -30h-9v147q-32 -75 -72.5 -117t-91.5 -42q-29 0 -55.5 14t-46.5 40.5t-32 65t-12 87.5q0 65 21.5 120.5t62 96.5t98 64.5t128.5 23.5h37v-460h65zM348 485q-63 0 -114 -21t-86.5 -57.5t-55 -86t-19.5 -107.5q0 -43 10 -78.5t27.5 -61t40 -40t47.5 -14.5
q24 0 45.5 12.5t40 34.5t34.5 51.5t30 63.5v304z" />
    <glyph glyph-name="aacute.ss01" horiz-adv-x="486" 
d="M369 748q0 -12 -13.5 -32.5t-34.5 -44.5t-45.5 -49.5t-46.5 -46.5h-13q27 55 48.5 91.5t38.5 58t29.5 30t20.5 8.5q16 0 16 -15zM450 40v-10l-93 -30h-9v147q-32 -75 -72.5 -117t-91.5 -42q-29 0 -55.5 14t-46.5 40.5t-32 65t-12 87.5q0 65 21.5 120.5t62 96.5t98 64.5
t128.5 23.5h37v-460h65zM348 485q-63 0 -114 -21t-86.5 -57.5t-55 -86t-19.5 -107.5q0 -43 10 -78.5t27.5 -61t40 -40t47.5 -14.5q24 0 45.5 12.5t40 34.5t34.5 51.5t30 63.5v304z" />
    <glyph glyph-name="abreve.ss01" horiz-adv-x="486" 
d="M249 575q-24 0 -48.5 9.5t-43.5 32t-31 58t-12 88.5h13q0 -26 6 -52t20.5 -47t37.5 -34t58 -13q34 0 57.5 13t38 34t20.5 47t6 52h13q0 -53 -12 -88.5t-31 -58t-43.5 -32t-48.5 -9.5zM450 40v-10l-93 -30h-9v147q-32 -75 -72.5 -117t-91.5 -42q-29 0 -55.5 14t-46.5 40.5
t-32 65t-12 87.5q0 65 21.5 120.5t62 96.5t98 64.5t128.5 23.5h37v-460h65zM348 485q-63 0 -114 -21t-86.5 -57.5t-55 -86t-19.5 -107.5q0 -43 10 -78.5t27.5 -61t40 -40t47.5 -14.5q24 0 45.5 12.5t40 34.5t34.5 51.5t30 63.5v304z" />
    <glyph glyph-name="acircumflex.ss01" horiz-adv-x="486" 
d="M250 716q-21 -33 -51 -68.5t-62 -72.5h-13q32 56 52 92.5t33.5 57.5t22.5 29.5t18 8.5t18 -8.5t22.5 -29.5t33 -57.5t51.5 -92.5h-13q-31 37 -61 72.5t-51 68.5zM450 40v-10l-93 -30h-9v147q-32 -75 -72.5 -117t-91.5 -42q-29 0 -55.5 14t-46.5 40.5t-32 65t-12 87.5
q0 65 21.5 120.5t62 96.5t98 64.5t128.5 23.5h37v-460h65zM348 485q-63 0 -114 -21t-86.5 -57.5t-55 -86t-19.5 -107.5q0 -43 10 -78.5t27.5 -61t40 -40t47.5 -14.5q24 0 45.5 12.5t40 34.5t34.5 51.5t30 63.5v304z" />
    <glyph glyph-name="adieresis.ss01" horiz-adv-x="486" 
d="M180 629q-17 0 -27.5 10.5t-10.5 27.5t10.5 28t27.5 11q18 0 28.5 -11t10.5 -28t-10.5 -27.5t-28.5 -10.5zM310 629q-17 0 -27.5 10.5t-10.5 27.5t10.5 28t27.5 11q18 0 28.5 -11t10.5 -28t-10.5 -27.5t-28.5 -10.5zM450 40v-10l-93 -30h-9v147q-32 -75 -72.5 -117
t-91.5 -42q-29 0 -55.5 14t-46.5 40.5t-32 65t-12 87.5q0 65 21.5 120.5t62 96.5t98 64.5t128.5 23.5h37v-460h65zM348 485q-63 0 -114 -21t-86.5 -57.5t-55 -86t-19.5 -107.5q0 -43 10 -78.5t27.5 -61t40 -40t47.5 -14.5q24 0 45.5 12.5t40 34.5t34.5 51.5t30 63.5v304z
" />
    <glyph glyph-name="agrave.ss01" horiz-adv-x="486" 
d="M293 575q-22 21 -46.5 46.5t-45.5 49.5t-34.5 44.5t-13.5 32.5q0 15 16 15q8 0 20.5 -8.5t29.5 -30t38.5 -58t48.5 -91.5h-13zM450 40v-10l-93 -30h-9v147q-32 -75 -72.5 -117t-91.5 -42q-29 0 -55.5 14t-46.5 40.5t-32 65t-12 87.5q0 65 21.5 120.5t62 96.5t98 64.5
t128.5 23.5h37v-460h65zM348 485q-63 0 -114 -21t-86.5 -57.5t-55 -86t-19.5 -107.5q0 -43 10 -78.5t27.5 -61t40 -40t47.5 -14.5q24 0 45.5 12.5t40 34.5t34.5 51.5t30 63.5v304z" />
    <glyph glyph-name="amacron.ss01" horiz-adv-x="486" 
d="M393 642h-263v38h263v-38zM450 40v-10l-93 -30h-9v147q-32 -75 -72.5 -117t-91.5 -42q-29 0 -55.5 14t-46.5 40.5t-32 65t-12 87.5q0 65 21.5 120.5t62 96.5t98 64.5t128.5 23.5h37v-460h65zM348 485q-63 0 -114 -21t-86.5 -57.5t-55 -86t-19.5 -107.5q0 -43 10 -78.5
t27.5 -61t40 -40t47.5 -14.5q24 0 45.5 12.5t40 34.5t34.5 51.5t30 63.5v304z" />
    <glyph glyph-name="aogonek.ss01" horiz-adv-x="486" 
d="M358 0q-6 -5 -16.5 -17.5t-21 -29t-18.5 -36t-8 -38.5q0 -28 15 -44t38 -16q26 0 54 28h9q-17 -26 -37 -40t-43 -14q-27 0 -46 19t-19 51q0 25 11.5 48.5t26 42t28 31t17.5 16.5v146q-32 -75 -72.5 -117t-91.5 -42q-29 0 -55.5 14t-46.5 40.5t-32 65t-12 87.5
q0 65 21.5 120.5t62 96.5t98 64.5t128.5 23.5h37v-460h65v-10zM198 19q24 0 45.5 12.5t40 34.5t34.5 51.5t30 63.5v304q-63 0 -114 -21t-86.5 -57.5t-55 -86t-19.5 -107.5q0 -43 10 -78.5t27.5 -61t40 -40t47.5 -14.5z" />
    <glyph glyph-name="aring.ss01" horiz-adv-x="486" 
d="M245 572q-34 0 -57.5 24t-23.5 57t23.5 56.5t57.5 23.5q16 0 30.5 -6.5t25.5 -17t17.5 -25.5t6.5 -31q0 -17 -6.5 -31.5t-17.5 -25.5t-25.5 -17.5t-30.5 -6.5zM245 710q-24 0 -41 -17t-17 -40t17 -40.5t41 -17.5q23 0 40 17.5t17 40.5t-17 40t-40 17zM450 40v-10l-93 -30
h-9v147q-32 -75 -72.5 -117t-91.5 -42q-29 0 -55.5 14t-46.5 40.5t-32 65t-12 87.5q0 65 21.5 120.5t62 96.5t98 64.5t128.5 23.5h37v-460h65zM348 485q-63 0 -114 -21t-86.5 -57.5t-55 -86t-19.5 -107.5q0 -43 10 -78.5t27.5 -61t40 -40t47.5 -14.5q24 0 45.5 12.5t40 34.5
t34.5 51.5t30 63.5v304z" />
    <glyph glyph-name="atilde.ss01" horiz-adv-x="486" 
d="M197 693q-43 0 -61 -63h-8q5 46 26 70.5t52 24.5q21 0 35 -8.5t26.5 -18t24.5 -18t29 -8.5q43 0 61 63h8q-5 -46 -26 -70.5t-53 -24.5q-21 0 -35 8.5t-26.5 18t-24.5 18t-28 8.5zM450 40v-10l-93 -30h-9v147q-32 -75 -72.5 -117t-91.5 -42q-29 0 -55.5 14t-46.5 40.5
t-32 65t-12 87.5q0 65 21.5 120.5t62 96.5t98 64.5t128.5 23.5h37v-460h65zM348 485q-63 0 -114 -21t-86.5 -57.5t-55 -86t-19.5 -107.5q0 -43 10 -78.5t27.5 -61t40 -40t47.5 -14.5q24 0 45.5 12.5t40 34.5t34.5 51.5t30 63.5v304z" />
    <glyph glyph-name="c.ss01" horiz-adv-x="512" 
d="M254 -11q-50 0 -89.5 21.5t-67.5 57.5t-43 83t-15 98q0 52 16 100t45 85t71 59t95 22q36 0 64.5 -8.5t49.5 -20.5t34.5 -25.5t20.5 -23.5l-103 -296h-15q26 75 45 136t19 98q0 49 -35 79t-92 30q-32 0 -64 -13t-57.5 -39.5t-41.5 -67t-16 -96.5t16 -101.5t43 -78
t62 -50.5t73 -18q36 0 64 9.5t51 29t41.5 48.5t35.5 69h15q-12 -38 -30 -71.5t-45 -59.5t-63 -41t-84 -15z" />
    <glyph glyph-name="cacute.ss01" horiz-adv-x="512" 
d="M177 575q27 55 48.5 91.5t38.5 58t29.5 30t20.5 8.5q16 0 16 -15q0 -12 -13.5 -32.5t-34.5 -44.5t-45.5 -49.5t-46.5 -46.5h-13zM254 -11q-50 0 -89.5 21.5t-67.5 57.5t-43 83t-15 98q0 52 16 100t45 85t71 59t95 22q36 0 64.5 -8.5t49.5 -20.5t34.5 -25.5t20.5 -23.5
l-103 -296h-15q26 75 45 136t19 98q0 49 -35 79t-92 30q-32 0 -64 -13t-57.5 -39.5t-41.5 -67t-16 -96.5t16 -101.5t43 -78t62 -50.5t73 -18q36 0 64 9.5t51 29t41.5 48.5t35.5 69h15q-12 -38 -30 -71.5t-45 -59.5t-63 -41t-84 -15z" />
    <glyph glyph-name="ccaron.ss01" horiz-adv-x="512" 
d="M143 763q32 -37 62 -72.5t51 -68.5q21 33 51 68.5t61 72.5h13q-32 -56 -51.5 -92.5t-33 -57.5t-22.5 -29.5t-18 -8.5t-18 8.5t-22.5 29.5t-33.5 57.5t-52 92.5h13zM254 -11q-50 0 -89.5 21.5t-67.5 57.5t-43 83t-15 98q0 52 16 100t45 85t71 59t95 22q36 0 64.5 -8.5
t49.5 -20.5t34.5 -25.5t20.5 -23.5l-103 -296h-15q26 75 45 136t19 98q0 49 -35 79t-92 30q-32 0 -64 -13t-57.5 -39.5t-41.5 -67t-16 -96.5t16 -101.5t43 -78t62 -50.5t73 -18q36 0 64 9.5t51 29t41.5 48.5t35.5 69h15q-12 -38 -30 -71.5t-45 -59.5t-63 -41t-84 -15z" />
    <glyph glyph-name="ccedilla.ss01" horiz-adv-x="512" 
d="M476 176q-11 -35 -28 -67.5t-41 -57.5t-56.5 -41.5t-74.5 -19.5l-27 -47q40 0 58 -19.5t18 -45.5q0 -14 -5.5 -28.5t-15.5 -26.5t-25 -19.5t-34 -7.5q-15 0 -30 4.5t-28 12.5v8q28 -11 52 -11q26 0 43 12.5t17 38.5q0 20 -17.5 36t-55.5 16v19l32 57h-4q-50 0 -89.5 21.5
t-67.5 57.5t-43 83t-15 98q0 52 16 100t45 85t71 59t95 22q36 0 64.5 -8.5t49.5 -20.5t34.5 -25.5t20.5 -23.5l-103 -296h-15q26 75 45 136t19 98q0 49 -35 79t-92 30q-32 0 -64 -13t-57.5 -39.5t-41.5 -67t-16 -96.5t16 -101.5t43 -78t62 -50.5t73 -18q36 0 64 9.5t51 29
t41.5 48.5t35.5 69h15v0z" />
    <glyph glyph-name="cdotaccent.ss01" horiz-adv-x="512" 
d="M256 605q-23 0 -37.5 14.5t-14.5 36.5t14.5 37.5t37.5 15.5t37 -15.5t14 -37.5t-14 -36.5t-37 -14.5zM254 -11q-50 0 -89.5 21.5t-67.5 57.5t-43 83t-15 98q0 52 16 100t45 85t71 59t95 22q36 0 64.5 -8.5t49.5 -20.5t34.5 -25.5t20.5 -23.5l-103 -296h-15q26 75 45 136
t19 98q0 49 -35 79t-92 30q-32 0 -64 -13t-57.5 -39.5t-41.5 -67t-16 -96.5t16 -101.5t43 -78t62 -50.5t73 -18q36 0 64 9.5t51 29t41.5 48.5t35.5 69h15q-12 -38 -30 -71.5t-45 -59.5t-63 -41t-84 -15z" />
    <glyph glyph-name="e.ss01" 
d="M476 176q-12 -38 -31 -71.5t-46.5 -59.5t-64 -41t-82.5 -15q-52 0 -91.5 22t-66.5 58t-41 82.5t-14 96.5q0 51 15.5 99.5t45.5 85.5t73.5 59.5t98.5 22.5q31 0 61 -10.5t53 -30.5t37 -48.5t14 -65.5q0 -33 -8.5 -61t-21 -49.5t-25.5 -36.5t-22 -22l-283 116
q-1 -8 -1.5 -15.5t-0.5 -15.5q0 -60 16 -107.5t43 -80.5t62 -50.5t73 -17.5q36 0 64 9.5t51 29t41.5 48.5t35.5 69h15zM265 484q-78 0 -128 -46.5t-60 -125.5q81 -27 135.5 -42.5t94.5 -15.5q30 0 50.5 8.5t33 22t18.5 31t6 36.5q0 35 -14.5 60t-37 41t-49 23.5t-49.5 7.5z
" />
    <glyph glyph-name="eacute.ss01" 
d="M377 748q0 -12 -13.5 -32.5t-34.5 -44.5t-45.5 -49.5t-46.5 -46.5h-13q27 55 48.5 91.5t38.5 58t29.5 30t20.5 8.5q16 0 16 -15zM476 176q-12 -38 -31 -71.5t-46.5 -59.5t-64 -41t-82.5 -15q-52 0 -91.5 22t-66.5 58t-41 82.5t-14 96.5q0 51 15.5 99.5t45.5 85.5
t73.5 59.5t98.5 22.5q31 0 61 -10.5t53 -30.5t37 -48.5t14 -65.5q0 -33 -8.5 -61t-21 -49.5t-25.5 -36.5t-22 -22l-283 116q-1 -8 -1.5 -15.5t-0.5 -15.5q0 -60 16 -107.5t43 -80.5t62 -50.5t73 -17.5q36 0 64 9.5t51 29t41.5 48.5t35.5 69h15zM265 484q-78 0 -128 -46.5
t-60 -125.5q81 -27 135.5 -42.5t94.5 -15.5q30 0 50.5 8.5t33 22t18.5 31t6 36.5q0 35 -14.5 60t-37 41t-49 23.5t-49.5 7.5z" />
    <glyph glyph-name="ecaron.ss01" 
d="M253 575q-9 0 -18 8.5t-22.5 29.5t-33.5 57.5t-52 92.5h13q32 -37 62 -72.5t51 -68.5q21 33 51 68.5t61 72.5h13q-32 -56 -51.5 -92.5t-33 -57.5t-22.5 -29.5t-18 -8.5zM476 176q-12 -38 -31 -71.5t-46.5 -59.5t-64 -41t-82.5 -15q-52 0 -91.5 22t-66.5 58t-41 82.5
t-14 96.5q0 51 15.5 99.5t45.5 85.5t73.5 59.5t98.5 22.5q31 0 61 -10.5t53 -30.5t37 -48.5t14 -65.5q0 -33 -8.5 -61t-21 -49.5t-25.5 -36.5t-22 -22l-283 116q-1 -8 -1.5 -15.5t-0.5 -15.5q0 -60 16 -107.5t43 -80.5t62 -50.5t73 -17.5q36 0 64 9.5t51 29t41.5 48.5
t35.5 69h15zM265 484q-78 0 -128 -46.5t-60 -125.5q81 -27 135.5 -42.5t94.5 -15.5q30 0 50.5 8.5t33 22t18.5 31t6 36.5q0 35 -14.5 60t-37 41t-49 23.5t-49.5 7.5z" />
    <glyph glyph-name="ecircumflex.ss01" 
d="M253 716q-21 -33 -51 -68.5t-62 -72.5h-13q32 56 52 92.5t33.5 57.5t22.5 29.5t18 8.5t18 -8.5t22.5 -29.5t33 -57.5t51.5 -92.5h-13q-31 37 -61 72.5t-51 68.5zM476 176q-12 -38 -31 -71.5t-46.5 -59.5t-64 -41t-82.5 -15q-52 0 -91.5 22t-66.5 58t-41 82.5t-14 96.5
q0 51 15.5 99.5t45.5 85.5t73.5 59.5t98.5 22.5q31 0 61 -10.5t53 -30.5t37 -48.5t14 -65.5q0 -33 -8.5 -61t-21 -49.5t-25.5 -36.5t-22 -22l-283 116q-1 -8 -1.5 -15.5t-0.5 -15.5q0 -60 16 -107.5t43 -80.5t62 -50.5t73 -17.5q36 0 64 9.5t51 29t41.5 48.5t35.5 69h15z
M265 484q-78 0 -128 -46.5t-60 -125.5q81 -27 135.5 -42.5t94.5 -15.5q30 0 50.5 8.5t33 22t18.5 31t6 36.5q0 35 -14.5 60t-37 41t-49 23.5t-49.5 7.5z" />
    <glyph glyph-name="edieresis.ss01" 
d="M188 629q-17 0 -27.5 10.5t-10.5 27.5t10.5 28t27.5 11q18 0 28.5 -11t10.5 -28t-10.5 -27.5t-28.5 -10.5zM318 629q-17 0 -27.5 10.5t-10.5 27.5t10.5 28t27.5 11q18 0 28.5 -11t10.5 -28t-10.5 -27.5t-28.5 -10.5zM476 176q-12 -38 -31 -71.5t-46.5 -59.5t-64 -41
t-82.5 -15q-52 0 -91.5 22t-66.5 58t-41 82.5t-14 96.5q0 51 15.5 99.5t45.5 85.5t73.5 59.5t98.5 22.5q31 0 61 -10.5t53 -30.5t37 -48.5t14 -65.5q0 -33 -8.5 -61t-21 -49.5t-25.5 -36.5t-22 -22l-283 116q-1 -8 -1.5 -15.5t-0.5 -15.5q0 -60 16 -107.5t43 -80.5t62 -50.5
t73 -17.5q36 0 64 9.5t51 29t41.5 48.5t35.5 69h15zM265 484q-78 0 -128 -46.5t-60 -125.5q81 -27 135.5 -42.5t94.5 -15.5q30 0 50.5 8.5t33 22t18.5 31t6 36.5q0 35 -14.5 60t-37 41t-49 23.5t-49.5 7.5z" />
    <glyph glyph-name="edotaccent.ss01" 
d="M253 605q-23 0 -37.5 14.5t-14.5 36.5t14.5 37.5t37.5 15.5t37 -15.5t14 -37.5t-14 -36.5t-37 -14.5zM476 176q-12 -38 -31 -71.5t-46.5 -59.5t-64 -41t-82.5 -15q-52 0 -91.5 22t-66.5 58t-41 82.5t-14 96.5q0 51 15.5 99.5t45.5 85.5t73.5 59.5t98.5 22.5
q31 0 61 -10.5t53 -30.5t37 -48.5t14 -65.5q0 -33 -8.5 -61t-21 -49.5t-25.5 -36.5t-22 -22l-283 116q-1 -8 -1.5 -15.5t-0.5 -15.5q0 -60 16 -107.5t43 -80.5t62 -50.5t73 -17.5q36 0 64 9.5t51 29t41.5 48.5t35.5 69h15zM265 484q-78 0 -128 -46.5t-60 -125.5
q81 -27 135.5 -42.5t94.5 -15.5q30 0 50.5 8.5t33 22t18.5 31t6 36.5q0 35 -14.5 60t-37 41t-49 23.5t-49.5 7.5z" />
    <glyph glyph-name="egrave.ss01" 
d="M299 575q-22 21 -46.5 46.5t-45.5 49.5t-34.5 44.5t-13.5 32.5q0 15 16 15q8 0 20.5 -8.5t29.5 -30t38.5 -58t48.5 -91.5h-13zM476 176q-12 -38 -31 -71.5t-46.5 -59.5t-64 -41t-82.5 -15q-52 0 -91.5 22t-66.5 58t-41 82.5t-14 96.5q0 51 15.5 99.5t45.5 85.5t73.5 59.5
t98.5 22.5q31 0 61 -10.5t53 -30.5t37 -48.5t14 -65.5q0 -33 -8.5 -61t-21 -49.5t-25.5 -36.5t-22 -22l-283 116q-1 -8 -1.5 -15.5t-0.5 -15.5q0 -60 16 -107.5t43 -80.5t62 -50.5t73 -17.5q36 0 64 9.5t51 29t41.5 48.5t35.5 69h15zM265 484q-78 0 -128 -46.5t-60 -125.5
q81 -27 135.5 -42.5t94.5 -15.5q30 0 50.5 8.5t33 22t18.5 31t6 36.5q0 35 -14.5 60t-37 41t-49 23.5t-49.5 7.5z" />
    <glyph glyph-name="emacron.ss01" 
d="M389 642h-263v38h263v-38zM476 176q-12 -38 -31 -71.5t-46.5 -59.5t-64 -41t-82.5 -15q-52 0 -91.5 22t-66.5 58t-41 82.5t-14 96.5q0 51 15.5 99.5t45.5 85.5t73.5 59.5t98.5 22.5q31 0 61 -10.5t53 -30.5t37 -48.5t14 -65.5q0 -33 -8.5 -61t-21 -49.5t-25.5 -36.5
t-22 -22l-283 116q-1 -8 -1.5 -15.5t-0.5 -15.5q0 -60 16 -107.5t43 -80.5t62 -50.5t73 -17.5q36 0 64 9.5t51 29t41.5 48.5t35.5 69h15zM265 484q-78 0 -128 -46.5t-60 -125.5q81 -27 135.5 -42.5t94.5 -15.5q30 0 50.5 8.5t33 22t18.5 31t6 36.5q0 35 -14.5 60t-37 41
t-49 23.5t-49.5 7.5z" />
    <glyph glyph-name="eogonek.ss01" 
d="M321 -1q-6 -6 -17 -18t-21 -28.5t-17.5 -35.5t-7.5 -38q0 -28 15 -44t38 -16q26 0 54 28h9q-17 -26 -37 -40t-43 -14q-27 0 -46 19t-19 51q0 22 9 43t21 38t25 30.5t21 20.5q-24 -6 -53 -6q-52 0 -91.5 22t-66.5 58t-41 82.5t-14 96.5q0 51 15.5 99.5t45.5 85.5
t73.5 59.5t98.5 22.5q31 0 61 -10.5t53 -30.5t37 -48.5t14 -65.5q0 -33 -8.5 -61t-21 -49.5t-25.5 -36.5t-22 -22l-283 116q-1 -8 -1.5 -15.5t-0.5 -15.5q0 -60 16 -107.5t43 -80.5t62 -50.5t73 -17.5q36 0 64 9.5t51 29t41.5 48.5t35.5 69h15q-19 -60 -56.5 -108.5
t-98.5 -68.5zM265 484q-78 0 -128 -46.5t-60 -125.5q81 -27 135.5 -42.5t94.5 -15.5q30 0 50.5 8.5t33 22t18.5 31t6 36.5q0 35 -14.5 60t-37 41t-49 23.5t-49.5 7.5z" />
    <glyph glyph-name="f.ss01" horiz-adv-x="311" 
d="M37 10q18 4 30.5 8t20 11t11 18t3.5 28v400h-61v25h61v116q0 94 26 147t91 53q27 0 49 -8.5t39 -20.5t29 -25t19 -23l-178 -469h-15q23 63 42.5 113t35.5 92h-98v-400q0 -18 3.5 -29t11.5 -18t20 -10.5t30 -7.5v-10h-170v10zM249 500q26 71 39 113.5t13 69.5
q0 21 -6 40.5t-16.5 34.5t-26 23.5t-33.5 8.5q-42 0 -59.5 -43t-17.5 -126v-121h107z" />
    <glyph glyph-name="g.ss01" horiz-adv-x="511" 
d="M475 470v-10h-64v-491q0 -44 -12.5 -76.5t-35 -54.5t-53 -33t-66.5 -11q-33 0 -64 8.5t-55.5 20.5t-42 25.5t-24.5 23.5l72 166q-26 21 -43 48.5t-27.5 57.5t-15 61t-4.5 60q0 48 11.5 93t34.5 80t58 56t83 21q27 0 48 -7t38.5 -18t31 -26t25.5 -30v66h10zM370 405
q-11 15 -24.5 29t-30 25t-36 18t-42.5 7q-32 0 -60.5 -14t-49.5 -41t-33.5 -66t-12.5 -89q0 -49 13 -96.5t40 -85.5t69 -61.5t100 -23.5q29 0 67 8v390zM370 0q-26 -6 -48.5 -8.5t-43.5 -2.5q-45 0 -78.5 11t-56.5 28q-14 -26 -22.5 -49.5t-8.5 -43.5q0 -31 11 -53
t28.5 -35.5t39.5 -20t44 -6.5q33 0 58.5 13t42.5 34.5t25.5 49.5t8.5 57v26z" />
    <glyph glyph-name="gbreve.ss01" horiz-adv-x="511" 
d="M256 575q-24 0 -48.5 9.5t-43.5 32t-31 58t-12 88.5h13q0 -26 6 -52t20.5 -47t37.5 -34t58 -13q34 0 57.5 13t38 34t20.5 47t6 52h13q0 -53 -12 -88.5t-31 -58t-43.5 -32t-48.5 -9.5zM475 470v-10h-64v-491q0 -44 -12.5 -76.5t-35 -54.5t-53 -33t-66.5 -11q-33 0 -64 8.5
t-55.5 20.5t-42 25.5t-24.5 23.5l72 166q-26 21 -43 48.5t-27.5 57.5t-15 61t-4.5 60q0 48 11.5 93t34.5 80t58 56t83 21q27 0 48 -7t38.5 -18t31 -26t25.5 -30v66h10zM370 405q-11 15 -24.5 29t-30 25t-36 18t-42.5 7q-32 0 -60.5 -14t-49.5 -41t-33.5 -66t-12.5 -89
q0 -49 13 -96.5t40 -85.5t69 -61.5t100 -23.5q29 0 67 8v390zM370 0q-26 -6 -48.5 -8.5t-43.5 -2.5q-45 0 -78.5 11t-56.5 28q-14 -26 -22.5 -49.5t-8.5 -43.5q0 -31 11 -53t28.5 -35.5t39.5 -20t44 -6.5q33 0 58.5 13t42.5 34.5t25.5 49.5t8.5 57v26z" />
    <glyph glyph-name="gcommaaccent.ss01" horiz-adv-x="511" 
d="M261 586q-24 0 -35.5 21t-11.5 47q0 7 1.5 18.5t8.5 27.5t19.5 36t35.5 44h11q-22 -28 -34 -49.5t-12 -37.5q0 -17 8 -25t18 -14t18 -13.5t8 -22.5q0 -16 -10.5 -24t-24.5 -8zM475 470v-10h-64v-491q0 -44 -12.5 -76.5t-35 -54.5t-53 -33t-66.5 -11q-33 0 -64 8.5
t-55.5 20.5t-42 25.5t-24.5 23.5l72 166q-26 21 -43 48.5t-27.5 57.5t-15 61t-4.5 60q0 48 11.5 93t34.5 80t58 56t83 21q27 0 48 -7t38.5 -18t31 -26t25.5 -30v66h10zM370 405q-11 15 -24.5 29t-30 25t-36 18t-42.5 7q-32 0 -60.5 -14t-49.5 -41t-33.5 -66t-12.5 -89
q0 -49 13 -96.5t40 -85.5t69 -61.5t100 -23.5q29 0 67 8v390zM370 0q-26 -6 -48.5 -8.5t-43.5 -2.5q-45 0 -78.5 11t-56.5 28q-14 -26 -22.5 -49.5t-8.5 -43.5q0 -31 11 -53t28.5 -35.5t39.5 -20t44 -6.5q33 0 58.5 13t42.5 34.5t25.5 49.5t8.5 57v26z" />
    <glyph glyph-name="gdotaccent.ss01" horiz-adv-x="511" 
d="M256 605q-23 0 -37.5 14.5t-14.5 36.5t14.5 37.5t37.5 15.5t37 -15.5t14 -37.5t-14 -36.5t-37 -14.5zM475 470v-10h-64v-491q0 -44 -12.5 -76.5t-35 -54.5t-53 -33t-66.5 -11q-33 0 -64 8.5t-55.5 20.5t-42 25.5t-24.5 23.5l72 166q-26 21 -43 48.5t-27.5 57.5t-15 61
t-4.5 60q0 48 11.5 93t34.5 80t58 56t83 21q27 0 48 -7t38.5 -18t31 -26t25.5 -30v66h10zM370 405q-11 15 -24.5 29t-30 25t-36 18t-42.5 7q-32 0 -60.5 -14t-49.5 -41t-33.5 -66t-12.5 -89q0 -49 13 -96.5t40 -85.5t69 -61.5t100 -23.5q29 0 67 8v390zM370 0
q-26 -6 -48.5 -8.5t-43.5 -2.5q-45 0 -78.5 11t-56.5 28q-14 -26 -22.5 -49.5t-8.5 -43.5q0 -31 11 -53t28.5 -35.5t39.5 -20t44 -6.5q33 0 58.5 13t42.5 34.5t25.5 49.5t8.5 57v26z" />
    <glyph glyph-name="j.ss01" horiz-adv-x="197" 
d="M121 676q-18 0 -29.5 12t-11.5 30t11.5 30t29.5 12t29.5 -12t11.5 -30t-11.5 -30t-29.5 -12zM37 -205q-34 0 -57.5 15.5t-43.5 51.5l74 184h15q-20 -52 -33.5 -90t-13.5 -64q0 -39 15.5 -55t39.5 -16q38 0 55 35t17 108v496h-65v10l95 30h10v-551q0 -79 -26 -116.5
t-82 -37.5z" />
    <glyph glyph-name="r.ss01" horiz-adv-x="401" 
d="M37 10l65 16v434h-65v10l95 30h10v-150q6 26 17 55t28 53.5t39.5 40.5t49.5 16q20 0 35 -6.5t26 -16t18.5 -20.5t13.5 -20l-115 -254h-5q23 53 36.5 88t21 58.5t10 38t2.5 26.5q0 35 -12.5 57t-40.5 22q-25 0 -46 -23.5t-37.5 -58.5t-27 -76t-13.5 -77v-227l65 -16v-10
h-170v10z" />
    <glyph glyph-name="racute.ss01" horiz-adv-x="401" 
d="M152 575q27 55 48.5 91.5t38.5 58t29.5 30t20.5 8.5q16 0 16 -15q0 -12 -13.5 -32.5t-34.5 -44.5t-45.5 -49.5t-46.5 -46.5h-13zM37 10l65 16v434h-65v10l95 30h10v-150q6 26 17 55t28 53.5t39.5 40.5t49.5 16q20 0 35 -6.5t26 -16t18.5 -20.5t13.5 -20l-115 -254h-5
q23 53 36.5 88t21 58.5t10 38t2.5 26.5q0 35 -12.5 57t-40.5 22q-25 0 -46 -23.5t-37.5 -58.5t-27 -76t-13.5 -77v-227l65 -16v-10h-170v10z" />
    <glyph glyph-name="rcaron.ss01" horiz-adv-x="401" 
d="M88 763q32 -37 62 -72.5t51 -68.5q21 33 51 68.5t61 72.5h13q-32 -56 -51.5 -92.5t-33 -57.5t-22.5 -29.5t-18 -8.5t-18 8.5t-22.5 29.5t-33.5 57.5t-52 92.5h13zM37 10l65 16v434h-65v10l95 30h10v-150q6 26 17 55t28 53.5t39.5 40.5t49.5 16q20 0 35 -6.5t26 -16
t18.5 -20.5t13.5 -20l-115 -254h-5q23 53 36.5 88t21 58.5t10 38t2.5 26.5q0 35 -12.5 57t-40.5 22q-25 0 -46 -23.5t-37.5 -58.5t-27 -76t-13.5 -77v-227l65 -16v-10h-170v10z" />
    <glyph glyph-name="rcommaaccent.ss01" horiz-adv-x="401" 
d="M37 10l65 16v434h-65v10l95 30h10v-150q6 26 17 55t28 53.5t39.5 40.5t49.5 16q20 0 35 -6.5t26 -16t18.5 -20.5t13.5 -20l-115 -254h-5q23 53 36.5 88t21 58.5t10 38t2.5 26.5q0 35 -12.5 57t-40.5 22q-25 0 -46 -23.5t-37.5 -58.5t-27 -76t-13.5 -77v-227l65 -16v-10
h-170v10zM195 -50q24 0 35.5 -21t11.5 -47q0 -8 -1.5 -19t-8.5 -27t-20 -36t-35 -44h-11q22 28 34 49.5t12 37.5q0 17 -8 25t-18 14t-18 13.5t-8 22.5q0 16 10.5 24t24.5 8z" />
    <glyph glyph-name="s.ss01" horiz-adv-x="410" 
d="M205 -11q-35 0 -62.5 8.5t-48 21t-35 26.5t-23.5 25l62 169h15q-23 -64 -23 -112q0 -51 27 -80.5t88 -29.5q33 0 60.5 9t47 24t30 35.5t10.5 43.5q0 24 -12 41t-34.5 30t-54.5 24.5t-72 23.5q-57 18 -87.5 50.5t-30.5 84.5q0 35 12 60t31.5 41t45.5 23.5t54 7.5
q30 0 54 -7t42.5 -17.5t32.5 -23t23 -23.5l-50 -139h-15q8 23 13 43.5t5 37.5q0 51 -32 75.5t-81 24.5q-19 0 -39.5 -6t-38 -17.5t-28.5 -29t-11 -40.5q0 -19 6.5 -33t21 -25.5t38 -21.5t57.5 -20q32 -10 62.5 -19t54 -24t38 -39.5t14.5 -65.5q0 -39 -13 -68.5t-35.5 -49
t-53 -29t-65.5 -9.5z" />
    <glyph glyph-name="sacute.ss01" horiz-adv-x="410" 
d="M146 575q27 55 48.5 91.5t38.5 58t29.5 30t20.5 8.5q16 0 16 -15q0 -12 -13.5 -32.5t-34.5 -44.5t-45.5 -49.5t-46.5 -46.5h-13zM205 -11q-35 0 -62.5 8.5t-48 21t-35 26.5t-23.5 25l62 169h15q-23 -64 -23 -112q0 -51 27 -80.5t88 -29.5q33 0 60.5 9t47 24t30 35.5
t10.5 43.5q0 24 -12 41t-34.5 30t-54.5 24.5t-72 23.5q-57 18 -87.5 50.5t-30.5 84.5q0 35 12 60t31.5 41t45.5 23.5t54 7.5q30 0 54 -7t42.5 -17.5t32.5 -23t23 -23.5l-50 -139h-15q8 23 13 43.5t5 37.5q0 51 -32 75.5t-81 24.5q-19 0 -39.5 -6t-38 -17.5t-28.5 -29
t-11 -40.5q0 -19 6.5 -33t21 -25.5t38 -21.5t57.5 -20q32 -10 62.5 -19t54 -24t38 -39.5t14.5 -65.5q0 -39 -13 -68.5t-35.5 -49t-53 -29t-65.5 -9.5z" />
    <glyph glyph-name="scaron.ss01" horiz-adv-x="410" 
d="M92 763q32 -37 62 -72.5t51 -68.5q21 33 51 68.5t61 72.5h13q-32 -56 -51.5 -92.5t-33 -57.5t-22.5 -29.5t-18 -8.5t-18 8.5t-22.5 29.5t-33.5 57.5t-52 92.5h13zM205 -11q-35 0 -62.5 8.5t-48 21t-35 26.5t-23.5 25l62 169h15q-23 -64 -23 -112q0 -51 27 -80.5t88 -29.5
q33 0 60.5 9t47 24t30 35.5t10.5 43.5q0 24 -12 41t-34.5 30t-54.5 24.5t-72 23.5q-57 18 -87.5 50.5t-30.5 84.5q0 35 12 60t31.5 41t45.5 23.5t54 7.5q30 0 54 -7t42.5 -17.5t32.5 -23t23 -23.5l-50 -139h-15q8 23 13 43.5t5 37.5q0 51 -32 75.5t-81 24.5q-19 0 -39.5 -6
t-38 -17.5t-28.5 -29t-11 -40.5q0 -19 6.5 -33t21 -25.5t38 -21.5t57.5 -20q32 -10 62.5 -19t54 -24t38 -39.5t14.5 -65.5q0 -39 -13 -68.5t-35.5 -49t-53 -29t-65.5 -9.5z" />
    <glyph glyph-name="scedilla.ss01" horiz-adv-x="410" 
d="M372 145q0 -36 -11.5 -64t-31 -47.5t-46.5 -30t-58 -13.5l-27 -47q40 0 58 -19.5t18 -45.5q0 -14 -5.5 -28.5t-15.5 -26.5t-25 -19.5t-34 -7.5q-15 0 -30 4.5t-28 12.5v8q28 -11 52 -11q26 0 43 12.5t17 38.5q0 20 -17.5 36t-55.5 16v19l32 57h-2q-35 0 -62.5 8.5t-48 21
t-35 26.5t-23.5 25l62 169h15q-23 -64 -23 -112q0 -51 27 -80.5t88 -29.5q33 0 60.5 9t47 24t30 35.5t10.5 43.5q0 24 -12 41t-34.5 30t-54.5 24.5t-72 23.5q-57 18 -87.5 50.5t-30.5 84.5q0 35 12 60t31.5 41t45.5 23.5t54 7.5q30 0 54 -7t42.5 -17.5t32.5 -23t23 -23.5
l-50 -139h-15q8 23 13 43.5t5 37.5q0 51 -32 75.5t-81 24.5q-19 0 -39.5 -6t-38 -17.5t-28.5 -29t-11 -40.5q0 -19 6.5 -33t21 -25.5t38 -21.5t57.5 -20q32 -10 62.5 -19t54 -24t38 -39.5t14.5 -65.5z" />
    <glyph glyph-name="scommaaccent.ss01" horiz-adv-x="410" 
d="M205 -11q-35 0 -62.5 8.5t-48 21t-35 26.5t-23.5 25l62 169h15q-23 -64 -23 -112q0 -51 27 -80.5t88 -29.5q33 0 60.5 9t47 24t30 35.5t10.5 43.5q0 24 -12 41t-34.5 30t-54.5 24.5t-72 23.5q-57 18 -87.5 50.5t-30.5 84.5q0 35 12 60t31.5 41t45.5 23.5t54 7.5
q30 0 54 -7t42.5 -17.5t32.5 -23t23 -23.5l-50 -139h-15q8 23 13 43.5t5 37.5q0 51 -32 75.5t-81 24.5q-19 0 -39.5 -6t-38 -17.5t-28.5 -29t-11 -40.5q0 -19 6.5 -33t21 -25.5t38 -21.5t57.5 -20q32 -10 62.5 -19t54 -24t38 -39.5t14.5 -65.5q0 -39 -13 -68.5t-35.5 -49
t-53 -29t-65.5 -9.5zM199 -50q24 0 35.5 -21t11.5 -47q0 -8 -1.5 -19t-8.5 -27t-20 -36t-35 -44h-11q22 28 34 49.5t12 37.5q0 17 -8 25t-18 14t-18 13.5t-8 22.5q0 16 10.5 24t24.5 8z" />
    <glyph glyph-name="y.ss01" horiz-adv-x="594" 
d="M568 500v-10l-84 -23l-168 -467q-26 -64 -45.5 -104.5t-36 -63t-32 -30.5t-34.5 -8q-24 0 -41 8.5t-29.5 20.5t-20.5 25.5t-14 23.5l72 184h15q-43 -114 -32.5 -175t55.5 -61q12 0 22 6.5t22.5 26t29 55t39.5 92.5l-178 467l-72 23v10h195v-10l-79 -23l158 -418l144 418
l-81 23v10h195z" />
    <glyph glyph-name="yacute.ss01" horiz-adv-x="594" 
d="M452 748q0 -12 -13.5 -32.5t-34.5 -44.5t-45.5 -49.5t-46.5 -46.5h-13q27 55 48.5 91.5t38.5 58t29.5 30t20.5 8.5q16 0 16 -15zM568 500v-10l-84 -23l-168 -467q-26 -64 -45.5 -104.5t-36 -63t-32 -30.5t-34.5 -8q-24 0 -41 8.5t-29.5 20.5t-20.5 25.5t-14 23.5l72 184
h15q-43 -114 -32.5 -175t55.5 -61q12 0 22 6.5t22.5 26t29 55t39.5 92.5l-178 467l-72 23v10h195v-10l-79 -23l158 -418l144 418l-81 23v10h195z" />
    <glyph glyph-name="ycircumflex.ss01" horiz-adv-x="594" 
d="M333 716q-21 -33 -51 -68.5t-62 -72.5h-13q32 56 52 92.5t33.5 57.5t22.5 29.5t18 8.5t18 -8.5t22.5 -29.5t33 -57.5t51.5 -92.5h-13q-31 37 -61 72.5t-51 68.5zM568 500v-10l-84 -23l-168 -467q-26 -64 -45.5 -104.5t-36 -63t-32 -30.5t-34.5 -8q-24 0 -41 8.5
t-29.5 20.5t-20.5 25.5t-14 23.5l72 184h15q-43 -114 -32.5 -175t55.5 -61q12 0 22 6.5t22.5 26t29 55t39.5 92.5l-178 467l-72 23v10h195v-10l-79 -23l158 -418l144 418l-81 23v10h195z" />
    <glyph glyph-name="ydieresis.ss01" horiz-adv-x="594" 
d="M268 629q-17 0 -27.5 10.5t-10.5 27.5t10.5 28t27.5 11q18 0 28.5 -11t10.5 -28t-10.5 -27.5t-28.5 -10.5zM398 629q-17 0 -27.5 10.5t-10.5 27.5t10.5 28t27.5 11q18 0 28.5 -11t10.5 -28t-10.5 -27.5t-28.5 -10.5zM568 500v-10l-84 -23l-168 -467q-26 -64 -45.5 -104.5
t-36 -63t-32 -30.5t-34.5 -8q-24 0 -41 8.5t-29.5 20.5t-20.5 25.5t-14 23.5l72 184h15q-43 -114 -32.5 -175t55.5 -61q12 0 22 6.5t22.5 26t29 55t39.5 92.5l-178 467l-72 23v10h195v-10l-79 -23l158 -418l144 418l-81 23v10h195z" />
    <glyph glyph-name="ygrave.ss01" horiz-adv-x="594" 
d="M354 575q-22 21 -46.5 46.5t-45.5 49.5t-34.5 44.5t-13.5 32.5q0 15 16 15q8 0 20.5 -8.5t29.5 -30t38.5 -58t48.5 -91.5h-13zM568 500v-10l-84 -23l-168 -467q-26 -64 -45.5 -104.5t-36 -63t-32 -30.5t-34.5 -8q-24 0 -41 8.5t-29.5 20.5t-20.5 25.5t-14 23.5l72 184h15
q-43 -114 -32.5 -175t55.5 -61q12 0 22 6.5t22.5 26t29 55t39.5 92.5l-178 467l-72 23v10h195v-10l-79 -23l158 -418l144 418l-81 23v10h195z" />
    <glyph glyph-name="e.ss02" 
d="M476 176q-12 -38 -31 -71.5t-46.5 -59.5t-64 -41t-82.5 -15q-52 0 -91.5 22t-66.5 58t-41 82.5t-14 96.5q0 18 2 35.5t6 34.5l-87 35v5q25 -9 46.5 -17t41.5 -15q10 39 29.5 73.5t48 60t65 40.5t81.5 15q31 0 61 -10.5t53 -30.5t37 -48.5t14 -65.5q0 -33 -8.5 -61
t-21 -49.5t-25.5 -36.5t-22 -22l-284 115q-1 -8 -1 -15v-15q0 -60 16 -107.5t43 -80.5t62 -50.5t73 -17.5q72 0 120 38t82 118h5zM265 484q-78 0 -127 -45.5t-60 -123.5q48 -17 83 -29t60.5 -19t44 -10t34.5 -3q32 0 54 8.5t35.5 22t19.5 31t6 36.5q0 35 -14.5 60t-37 41
t-49 23.5t-49.5 7.5z" />
    <glyph glyph-name="eacute.ss02" 
d="M377 748q0 -12 -13.5 -32.5t-34.5 -44.5t-45.5 -49.5t-46.5 -46.5h-13q27 55 48.5 91.5t38.5 58t29.5 30t20.5 8.5q16 0 16 -15zM476 176q-12 -38 -31 -71.5t-46.5 -59.5t-64 -41t-82.5 -15q-52 0 -91.5 22t-66.5 58t-41 82.5t-14 96.5q0 18 2 35.5t6 34.5l-87 35v5
q25 -9 46.5 -17t41.5 -15q10 39 29.5 73.5t48 60t65 40.5t81.5 15q31 0 61 -10.5t53 -30.5t37 -48.5t14 -65.5q0 -33 -8.5 -61t-21 -49.5t-25.5 -36.5t-22 -22l-284 115q-1 -8 -1 -15v-15q0 -60 16 -107.5t43 -80.5t62 -50.5t73 -17.5q72 0 120 38t82 118h5zM265 484
q-78 0 -127 -45.5t-60 -123.5q48 -17 83 -29t60.5 -19t44 -10t34.5 -3q32 0 54 8.5t35.5 22t19.5 31t6 36.5q0 35 -14.5 60t-37 41t-49 23.5t-49.5 7.5z" />
    <glyph glyph-name="ecaron.ss02" 
d="M253 575q-9 0 -18 8.5t-22.5 29.5t-33.5 57.5t-52 92.5h13q32 -37 62 -72.5t51 -68.5q21 33 51 68.5t61 72.5h13q-32 -56 -51.5 -92.5t-33 -57.5t-22.5 -29.5t-18 -8.5zM476 176q-12 -38 -31 -71.5t-46.5 -59.5t-64 -41t-82.5 -15q-52 0 -91.5 22t-66.5 58t-41 82.5
t-14 96.5q0 18 2 35.5t6 34.5l-87 35v5q25 -9 46.5 -17t41.5 -15q10 39 29.5 73.5t48 60t65 40.5t81.5 15q31 0 61 -10.5t53 -30.5t37 -48.5t14 -65.5q0 -33 -8.5 -61t-21 -49.5t-25.5 -36.5t-22 -22l-284 115q-1 -8 -1 -15v-15q0 -60 16 -107.5t43 -80.5t62 -50.5t73 -17.5
q72 0 120 38t82 118h5zM265 484q-78 0 -127 -45.5t-60 -123.5q48 -17 83 -29t60.5 -19t44 -10t34.5 -3q32 0 54 8.5t35.5 22t19.5 31t6 36.5q0 35 -14.5 60t-37 41t-49 23.5t-49.5 7.5z" />
    <glyph glyph-name="ecircumflex.ss02" 
d="M253 716q-21 -33 -51 -68.5t-62 -72.5h-13q32 56 52 92.5t33.5 57.5t22.5 29.5t18 8.5t18 -8.5t22.5 -29.5t33 -57.5t51.5 -92.5h-13q-31 37 -61 72.5t-51 68.5zM476 176q-12 -38 -31 -71.5t-46.5 -59.5t-64 -41t-82.5 -15q-52 0 -91.5 22t-66.5 58t-41 82.5t-14 96.5
q0 18 2 35.5t6 34.5l-87 35v5q25 -9 46.5 -17t41.5 -15q10 39 29.5 73.5t48 60t65 40.5t81.5 15q31 0 61 -10.5t53 -30.5t37 -48.5t14 -65.5q0 -33 -8.5 -61t-21 -49.5t-25.5 -36.5t-22 -22l-284 115q-1 -8 -1 -15v-15q0 -60 16 -107.5t43 -80.5t62 -50.5t73 -17.5
q72 0 120 38t82 118h5zM265 484q-78 0 -127 -45.5t-60 -123.5q48 -17 83 -29t60.5 -19t44 -10t34.5 -3q32 0 54 8.5t35.5 22t19.5 31t6 36.5q0 35 -14.5 60t-37 41t-49 23.5t-49.5 7.5z" />
    <glyph glyph-name="edieresis.ss02" 
d="M188 629q-17 0 -27.5 10.5t-10.5 27.5t10.5 28t27.5 11q18 0 28.5 -11t10.5 -28t-10.5 -27.5t-28.5 -10.5zM318 629q-17 0 -27.5 10.5t-10.5 27.5t10.5 28t27.5 11q18 0 28.5 -11t10.5 -28t-10.5 -27.5t-28.5 -10.5zM476 176q-12 -38 -31 -71.5t-46.5 -59.5t-64 -41
t-82.5 -15q-52 0 -91.5 22t-66.5 58t-41 82.5t-14 96.5q0 18 2 35.5t6 34.5l-87 35v5q25 -9 46.5 -17t41.5 -15q10 39 29.5 73.5t48 60t65 40.5t81.5 15q31 0 61 -10.5t53 -30.5t37 -48.5t14 -65.5q0 -33 -8.5 -61t-21 -49.5t-25.5 -36.5t-22 -22l-284 115q-1 -8 -1 -15v-15
q0 -60 16 -107.5t43 -80.5t62 -50.5t73 -17.5q72 0 120 38t82 118h5zM265 484q-78 0 -127 -45.5t-60 -123.5q48 -17 83 -29t60.5 -19t44 -10t34.5 -3q32 0 54 8.5t35.5 22t19.5 31t6 36.5q0 35 -14.5 60t-37 41t-49 23.5t-49.5 7.5z" />
    <glyph glyph-name="edotaccent.ss02" 
d="M253 605q-23 0 -37.5 14.5t-14.5 36.5t14.5 37.5t37.5 15.5t37 -15.5t14 -37.5t-14 -36.5t-37 -14.5zM476 176q-12 -38 -31 -71.5t-46.5 -59.5t-64 -41t-82.5 -15q-52 0 -91.5 22t-66.5 58t-41 82.5t-14 96.5q0 18 2 35.5t6 34.5l-87 35v5q25 -9 46.5 -17t41.5 -15
q10 39 29.5 73.5t48 60t65 40.5t81.5 15q31 0 61 -10.5t53 -30.5t37 -48.5t14 -65.5q0 -33 -8.5 -61t-21 -49.5t-25.5 -36.5t-22 -22l-284 115q-1 -8 -1 -15v-15q0 -60 16 -107.5t43 -80.5t62 -50.5t73 -17.5q72 0 120 38t82 118h5zM265 484q-78 0 -127 -45.5t-60 -123.5
q48 -17 83 -29t60.5 -19t44 -10t34.5 -3q32 0 54 8.5t35.5 22t19.5 31t6 36.5q0 35 -14.5 60t-37 41t-49 23.5t-49.5 7.5z" />
    </font>
</defs>
</svg>
