<?xml version="1.0" standalone="no"?>
<!DOCTYPE svg PUBLIC "-//W3C//DTD SVG 1.1//EN" "http://www.w3.org/Graphics/SVG/1.1/DTD/svg11.dtd" >
<svg xmlns="http://www.w3.org/2000/svg" xmlns:xlink="http://www.w3.org/1999/xlink" version="1.1">
<metadata>
Created by FontForge 20190801 at Tue Mar 27 11:47:24 2018
 By Jimmy Wärting
Copyright (c) 2017 by Matthieu Salvaggio. All rights reserved.
</metadata>
<defs>
<font id="ATApoc-LightItalic" horiz-adv-x="0" >
  <font-face 
    font-family="AT Apoc"
    font-weight="300"
    font-style="italic"
    font-stretch="normal"
    units-per-em="1000"
    panose-1="0 0 5 0 0 0 0 0 0 0"
    ascent="800"
    descent="-200"
    x-height="500"
    cap-height="760"
    bbox="-617 -244 1312 1043"
    underline-thickness="50"
    underline-position="-150"
    slope="-11"
    unicode-range="U+0020-FB04"
  />
<missing-glyph horiz-adv-x="634" 
d="M63 10l77 16l136 697l-69 27l2 10h512l-2 -10l-81 -27l-136 -697l73 -16l-2 -10h-512zM593 730h-270l-132 -677zM459 30l126 648l-386 -648h260z" />
    <glyph glyph-name=".notdef" horiz-adv-x="634" 
d="M63 10l77 16l136 697l-69 27l2 10h512l-2 -10l-81 -27l-136 -697l73 -16l-2 -10h-512zM593 730h-270l-132 -677zM459 30l126 648l-386 -648h260z" />
    <glyph glyph-name=".null" 
 />
    <glyph glyph-name="nonmarkingreturn" horiz-adv-x="333" 
 />
    <glyph glyph-name="space" unicode=" " horiz-adv-x="220" 
 />
    <glyph glyph-name="exclam" unicode="!" horiz-adv-x="206" 
d="M125 148q3 22 10.5 71.5t17 111t20 128.5t19.5 124t15.5 97t8.5 49q9 44 19.5 57.5t23.5 13.5q8 0 14 -7t6 -30q0 -12 -9 -55.5t-22.5 -104t-30 -130.5t-32 -134.5t-28 -116t-18.5 -74.5h-14zM95 -11q-19 0 -29 10.5t-10 27.5q0 23 16.5 39.5t40.5 16.5q18 0 28.5 -11
t10.5 -28q0 -23 -16.5 -39t-40.5 -16z" />
    <glyph glyph-name="quotedbl" unicode="&#x22;" horiz-adv-x="175" 
d="M141 515q6 79 10.5 128t9.5 77t13 37.5t20 9.5t15.5 -9.5t-1.5 -37.5t-19.5 -77t-39.5 -128h-8zM226 515q6 79 10.5 128t9.5 77t13 37.5t20 9.5t15.5 -9.5t-1.5 -37.5t-19.5 -77t-39.5 -128h-8z" />
    <glyph glyph-name="numbersign" unicode="#" horiz-adv-x="615" 
d="M564 527h97l-6 -32h-106l-112 -248h100l-6 -32h-109l-97 -215h-30l97 215h-160l-97 -215h-30l97 215h-104l6 32h113l112 248h-107l6 32h116l105 233h30l-105 -233h160l105 233h30zM519 495h-160l-112 -248h160z" />
    <glyph glyph-name="dollar" unicode="$" horiz-adv-x="530" 
d="M435 398q38 -16 60.5 -39.5t22.5 -66.5q0 -46 -18.5 -84t-49 -65.5t-71 -44t-83.5 -19.5l-21 -109h-23l21 108q-37 1 -67 11t-51.5 24.5t-35.5 31t-19 30.5l63 146h17q-12 -27 -22 -53.5t-10 -52.5q0 -32 13 -52.5t33 -32.5t42.5 -16.5t42.5 -5.5l51 262q-26 8 -49 15.5
t-38 17.5q-47 30 -47 94q0 42 15.5 75.5t42 56.5t62 35.5t74.5 14.5l18 91h23l-18 -91q28 -2 50.5 -9t39.5 -17t30.5 -22t23.5 -22l-67 -111h-17q11 17 22.5 40.5t11.5 41.5t-9.5 30.5t-24.5 20t-32.5 11t-33.5 4.5l-44 -223q17 -5 35 -11t37 -14zM323 435q5 -2 9.5 -2.5
t9.5 -2.5l42 216q-29 -2 -57 -9.5t-50.5 -22.5t-36.5 -38t-14 -54q0 -26 20.5 -48.5t76.5 -38.5zM302 108q35 2 68 14t58 32t40 47.5t15 60.5q0 38 -26.5 60.5t-74.5 34.5q-8 2 -15 3.5t-15 3.5z" />
    <glyph glyph-name="percent" unicode="%" horiz-adv-x="916" 
d="M247 398q-30 0 -51.5 12.5t-35 33.5t-19.5 47.5t-6 54.5q0 46 15 91.5t41.5 82.5t63.5 60t81 23q31 0 52.5 -13.5t35.5 -36t20.5 -50.5t6.5 -56q0 -45 -15.5 -90t-43 -80t-65 -57t-80.5 -22zM262 415q25 0 52 14t49 42t36 68.5t14 93.5q0 33 -7 61.5t-19 49t-29 32
t-36 11.5q-24 0 -51 -15.5t-49.5 -45t-37.5 -71t-15 -92.5q0 -65 26 -106.5t67 -41.5zM761 760h32l-530 -760h-30zM731 -6q-30 0 -51.5 12.5t-35 33.5t-19.5 47.5t-6 54.5q0 46 15 91.5t41.5 82.5t63.5 60t81 23q31 0 52.5 -13.5t35.5 -36t20.5 -50.5t6.5 -56
q0 -45 -15.5 -90t-43 -80t-65 -57t-80.5 -22zM746 11q25 0 52 14t49 42t36 68.5t14 93.5q0 33 -7 61.5t-19 49t-29 32t-36 11.5q-24 0 -51 -15.5t-49.5 -45t-37.5 -71t-15 -92.5q0 -65 26 -106.5t67 -41.5z" />
    <glyph glyph-name="ampersand" unicode="&#x26;" horiz-adv-x="691" 
d="M640 -26q-37 27 -72 56t-67 58q-53 -46 -116 -73t-123 -27q-36 0 -67 10.5t-53.5 30t-35 47.5t-12.5 63q0 21 4 40q14 71 64 120t122 91q-18 52 -18 107q0 30 6 60q9 47 30.5 86t50.5 66.5t64 43t72 15.5q54 0 88 -31t34 -80q0 -14 -3 -27q-9 -48 -40 -83t-73 -62
t-88.5 -48.5t-87.5 -43.5q24 -69 72.5 -137.5t109.5 -133.5q42 40 69 92.5t27 113.5q0 28 -6.5 57.5t-21.5 60.5h15q18 -32 26 -63.5t8 -62.5q0 -62 -27.5 -117t-72.5 -99q33 -35 67.5 -67t69.5 -63h-15zM302 552q-2 -12 -3 -24t-1 -24q0 -24 4 -48.5t12 -48.5
q41 22 84 44.5t79.5 48.5t62.5 56t33 67q2 7 2 13v12q0 44 -28 67.5t-68 23.5q-33 0 -62.5 -16.5t-52.5 -42.5t-39 -60t-23 -68zM276 20q48 0 103 22.5t103 62.5q-67 64 -117.5 131.5t-76.5 139.5q-52 -32 -96 -79.5t-57 -110.5q-3 -18 -3 -34q0 -32 11.5 -56.5t31 -41
t45.5 -25.5t56 -9z" />
    <glyph glyph-name="quotesingle" unicode="'" horiz-adv-x="90" 
d="M141 515q6 79 10.5 128t9.5 77t13 37.5t20 9.5t15.5 -9.5t-1.5 -37.5t-19.5 -77t-39.5 -128h-8v0z" />
    <glyph glyph-name="parenleft" unicode="(" horiz-adv-x="266" 
d="M191 -60q-9 13 -23 40.5t-27 67t-22.5 89.5t-9.5 110q0 31 3 63.5t10 67.5q15 74 47 145.5t69 131t71.5 102t52.5 59.5h17q-22 -21 -51.5 -63.5t-58.5 -101t-54.5 -128.5t-40.5 -145q-11 -54 -15 -101t-4 -89q0 -94 16.5 -156.5t36.5 -91.5h-17v0z" />
    <glyph glyph-name="parenright" unicode=")" horiz-adv-x="266" 
d="M34 -60q22 21 50.5 59.5t57 94t54 127t42.5 157.5q9 47 13 91.5t4 86.5q0 93 -15 162t-35 98h17q9 -14 22.5 -44.5t26 -73t21.5 -95t9 -110.5q0 -28 -2.5 -57t-8.5 -58q-17 -86 -49.5 -158.5t-68.5 -129t-69.5 -95t-51.5 -55.5h-17v0z" />
    <glyph glyph-name="asterisk" unicode="*" horiz-adv-x="322" 
d="M269 557q-11 0 -11 15t9 38l23 63l-56 -45q-14 -11 -25.5 -18t-19.5 -7q-6 0 -9 6q-5 10 8 20t36 22l64 27l-53 29q-14 8 -23 16t-9 16q0 5 4 9q4 6 11 6q8 0 16.5 -7t18.5 -18l38 -46l2 64q1 23 6.5 38t17.5 15q11 0 11 -14q0 -7 -2.5 -17t-7.5 -22l-22 -64l56 46
q14 11 25.5 18t19.5 7q6 0 9 -6q5 -10 -8 -20.5t-36 -21.5l-64 -28l54 -27q14 -9 22.5 -17t8.5 -16q0 -5 -4 -9q-5 -6 -12 -6q-8 0 -17 7t-18 18l-37 44l-1 -62q-3 -23 -8 -38t-17 -15z" />
    <glyph glyph-name="plus" unicode="+" horiz-adv-x="479" 
d="M467 263h-160l-31 -160h-32l31 160h-161l6 32h162l31 161h32l-31 -161h159z" />
    <glyph glyph-name="comma" unicode="," horiz-adv-x="130" 
d="M-20 -144q39 41 53.5 66.5t14.5 49.5q0 17 -6.5 31.5t-16.5 30.5q4 22 20 35.5t35 13.5t29.5 -11t10.5 -29q0 -32 -34.5 -82.5t-95.5 -104.5h-10v0z" />
    <glyph glyph-name="hyphen" unicode="-" horiz-adv-x="353" 
d="M108 300h253l-7 -38h-253z" />
    <glyph glyph-name="period" unicode="." horiz-adv-x="134" 
d="M57 -11q-19 0 -29 10.5t-10 27.5q0 23 16.5 39.5t40.5 16.5q18 0 28.5 -11t10.5 -28q0 -23 -16.5 -39t-40.5 -16z" />
    <glyph glyph-name="slash" unicode="/" horiz-adv-x="543" 
d="M631 800h32l-620 -919h-30z" />
    <glyph glyph-name="zero" unicode="0" horiz-adv-x="619" 
d="M295 -11q-50 0 -85.5 23t-58 61.5t-33 88.5t-10.5 104q0 60 12.5 120t35 116t54.5 104.5t71.5 84.5t85.5 56.5t96 20.5q51 0 87.5 -25.5t59.5 -67t34 -94t11 -107.5q0 -89 -28 -175.5t-76.5 -155.5t-114 -111.5t-141.5 -42.5zM322 21q46 0 94.5 28.5t89 83t66.5 134.5
t26 184q0 61 -11.5 113t-32.5 90.5t-50 60t-65 21.5q-45 0 -94.5 -31t-91 -88.5t-68.5 -139t-27 -181.5q0 -60 12 -110.5t33.5 -87t52 -57t66.5 -20.5z" />
    <glyph glyph-name="one" unicode="1" horiz-adv-x="373" 
d="M134 10l78 16l124 640l-189 -161h-3l1 5l223 250h107l-2 -10l-81 -30l-135 -694l72 -16l-2 -10h-195z" />
    <glyph glyph-name="two" unicode="2" horiz-adv-x="582" 
d="M48 10q19 3 62.5 26t97 61t110.5 90t104 114t77.5 132.5t30.5 145.5q0 74 -33 115.5t-89 41.5q-45 0 -84.5 -24t-68.5 -67t-46 -101t-17 -127v-31h-15l-7 202q18 32 41.5 64.5t55 58t71 41.5t87.5 16q26 0 55 -6.5t53 -25t39.5 -51t15.5 -84.5q0 -71 -22.5 -133.5
t-58 -117t-78.5 -99.5t-84 -80t-75.5 -59t-52.5 -36q-28 -19 -36.5 -27t-8.5 -12q0 -5 11 -6t33 -1h251l89 125h10q-11 -26 -20 -46t-17 -37t-15 -34t-13 -38h-455z" />
    <glyph glyph-name="three" unicode="3" horiz-adv-x="573" 
d="M263 -11q-35 0 -68.5 8t-61 23t-45.5 37.5t-21 51.5l70 158h15q-16 -38 -27 -72t-11 -58q0 -36 16 -59.5t40 -37t52.5 -19t52.5 -5.5q57 0 102.5 21t77 55.5t48.5 80t17 95.5q0 55 -28.5 89.5t-91.5 34.5q-26 0 -52.5 -9.5t-67.5 -25.5l-5 -2l3 15q68 31 117.5 60.5
t82 60.5t48 63.5t15.5 69.5q0 46 -32 79t-96 33q-33 0 -65.5 -9.5t-59 -31.5t-42.5 -58.5t-16 -89.5v-36t2 -39h-15l-29 158q14 18 35 42t50.5 45.5t68 36t87.5 14.5q31 0 61 -7.5t54 -23t38.5 -40.5t14.5 -59q0 -38 -16 -72t-44.5 -63.5t-67.5 -54t-85 -43.5q35 6 69 1
t61 -22.5t43.5 -47t16.5 -71.5q0 -57 -26 -107.5t-69.5 -88t-99.5 -59t-116 -21.5z" />
    <glyph glyph-name="four" unicode="4" horiz-adv-x="575" 
d="M316 10l78 16l32 164h-343l4 20l442 550h128l-2 -10l-80 -24l-98 -503l91 -23l-2 -10h-95l-32 -164l72 -16l-2 -10h-195zM432 220l96 496l-397 -496h301z" />
    <glyph glyph-name="five" unicode="5" horiz-adv-x="679" 
d="M339 -9q-61 0 -103 21.5t-70.5 57t-45.5 82t-26 97.5h15q12 -47 27 -87.5t38.5 -71t59.5 -48t91 -17.5q63 0 119 22t97 61t65 92t24 116q0 37 -10.5 68t-30 53.5t-48 35t-64.5 12.5q-32 0 -64 -9.5t-63 -30.5t-58.5 -55t-49.5 -83h-52l151 411l-65 32l2 10h408
q-2 -21 -2 -38t1.5 -34.5t3 -38.5t1.5 -49h-10l-40 130h-244l-124 -328q-3 -8 1 -8q2 0 7 6q19 27 45 48.5t55 36t60.5 22.5t61.5 8q40 0 74 -14t59 -40.5t39.5 -63t14.5 -81.5q0 -69 -30 -128.5t-79 -103t-112 -68.5t-129 -25z" />
    <glyph glyph-name="six" unicode="6" horiz-adv-x="618" 
d="M308 -11q-48 0 -85.5 19t-63.5 54t-39.5 85t-13.5 112q0 112 32.5 205.5t86.5 161t124 105t144 37.5q38 0 66 -9.5t47.5 -22t30.5 -25.5t15 -19l-32 -162h-20q6 33 6 60q0 70 -38 105.5t-105 35.5q-62 0 -109.5 -28t-83 -75t-59.5 -109.5t-38 -132.5q-4 -18 -7 -38
t-5 -40q19 50 48.5 88.5t65 65t75.5 40t81 13.5q43 0 79 -15.5t62 -43.5t40.5 -66t14.5 -83q0 -58 -25 -115t-68.5 -102t-101.5 -73t-124 -28zM329 26q49 0 93 21.5t77 59.5t52.5 89t19.5 111q0 81 -41.5 129.5t-115.5 48.5q-57 0 -104 -25t-80 -63.5t-51.5 -85.5t-18.5 -91
q0 -38 11.5 -73t33 -62t53 -43t71.5 -16z" />
    <glyph glyph-name="seven" unicode="7" horiz-adv-x="540" 
d="M336 369h-130l6 30h140l181 331h-270l-90 -130h-10q11 28 20.5 49t17.5 38.5t15 34.5t13 38h413l-2 -10l-71 -30l-176 -320l87 -21l-2 -10h-101l-192 -369h-41z" />
    <glyph glyph-name="eight" unicode="8" horiz-adv-x="571" 
d="M275 -11q-42 0 -77.5 12.5t-61 35t-40 54t-14.5 70.5q0 40 16.5 80t44.5 74t65 59t77 34q-26 6 -45 20t-32 32.5t-19 41t-6 45.5q0 45 20 85.5t54 70.5t79.5 47.5t96.5 17.5q39 0 70 -11.5t53.5 -32.5t34.5 -50t12 -63q0 -66 -45 -119.5t-125 -82.5q33 -5 58.5 -21
t42 -39t25 -51.5t8.5 -58.5q0 -55 -25 -101t-66 -79t-93.5 -51.5t-107.5 -18.5zM366 423q40 0 73.5 13.5t57.5 37t37.5 55t13.5 67.5q0 30 -9.5 55.5t-27.5 44t-43.5 29.5t-56.5 11q-37 0 -70 -13.5t-57.5 -37.5t-39 -57.5t-14.5 -73.5q0 -57 35.5 -94t100.5 -37zM297 21
q40 0 79 13.5t70 40.5t49.5 67t18.5 93q0 69 -41.5 111.5t-119.5 42.5q-53 0 -94 -17t-70 -46t-44 -66.5t-15 -78.5q0 -36 12.5 -65.5t35 -50.5t53 -32.5t66.5 -11.5z" />
    <glyph glyph-name="nine" unicode="9" horiz-adv-x="608" 
d="M262 -11q-36 0 -67 9t-54 22t-37.5 25.5t-16.5 20.5l31 162h20q-6 -32 -6 -58q0 -74 40 -113.5t108 -39.5q66 0 117.5 36t89.5 96t65 137.5t44 160.5q-16 -41 -43 -78t-61.5 -65t-75.5 -44.5t-86 -16.5q-43 0 -78.5 15t-60.5 42t-38.5 64t-13.5 81q0 27 6 56
q10 52 37.5 100.5t67 85.5t90.5 59t108 22q45 0 82.5 -14.5t64.5 -44t42 -74t15 -104.5q0 -52 -12 -113q-18 -92 -55.5 -170.5t-88 -136t-110.5 -90t-124 -32.5zM344 273q49 0 89.5 19.5t72 52t52.5 75t30 88.5q6 30 6 56q0 40 -12.5 71.5t-34.5 52.5t-52 32t-65 11
q-42 0 -80.5 -15.5t-69.5 -45t-53.5 -71.5t-32.5 -94q-6 -33 -6 -63q0 -75 39 -122t117 -47z" />
    <glyph glyph-name="colon" unicode=":" horiz-adv-x="168" 
d="M131 370q-19 0 -29 10.5t-10 27.5q0 23 16.5 39.5t40.5 16.5q18 0 28.5 -11t10.5 -28q0 -23 -16.5 -39t-40.5 -16zM91 -11q-19 0 -29 10.5t-10 27.5q0 23 16.5 39.5t40.5 16.5q18 0 28.5 -11t10.5 -28q0 -23 -16.5 -39t-40.5 -16z" />
    <glyph glyph-name="semicolon" unicode=";" horiz-adv-x="156" 
d="M128 370q-19 0 -29 10.5t-10 27.5q0 23 16.5 39.5t40.5 16.5q18 0 28.5 -11t10.5 -28q0 -23 -16.5 -39t-40.5 -16zM1 -144q39 41 53.5 66.5t14.5 49.5q0 17 -6.5 31.5t-16.5 30.5q4 22 20 35.5t35 13.5t29.5 -11t10.5 -29q0 -32 -34.5 -82.5t-95.5 -104.5h-10z" />
    <glyph glyph-name="less" unicode="&#x3c;" horiz-adv-x="529" 
d="M116 276l2 10l447 233l-7 -35l-398 -205l319 -208l-7 -29z" />
    <glyph glyph-name="equal" unicode="=" horiz-adv-x="498" 
d="M138 387h353l-6 -32h-353zM121 207h353l-6 -32h-353z" />
    <glyph glyph-name="greater" unicode="&#x3e;" horiz-adv-x="529" 
d="M521 285l-2 -10l-447 -233l7 35l398 205l-319 208l7 29z" />
    <glyph glyph-name="question" unicode="?" horiz-adv-x="483" 
d="M240 150q2 24 4.5 44t5.5 37q6 29 14 50.5t21.5 42t32.5 43t46 52.5q25 28 49 55.5t43 57.5t30.5 63t11.5 72q0 31 -9 53t-24 36t-34.5 20.5t-41.5 6.5q-36 0 -68 -15t-56.5 -47.5t-39 -83.5t-14.5 -123v-31h-5l-17 202q14 25 35.5 48.5t49.5 41.5t61 29t69 11
q24 0 50 -6t48 -22t36.5 -44t14.5 -72q0 -25 -4 -48.5t-15 -49t-31 -54.5t-52 -64q-38 -41 -69 -68t-55.5 -57t-44 -70.5t-32.5 -109.5h-10zM211 -11q-19 0 -29 10.5t-10 27.5q0 23 16.5 39.5t40.5 16.5q18 0 28.5 -11t10.5 -28q0 -23 -16.5 -39t-40.5 -16z" />
    <glyph glyph-name="at" unicode="@" horiz-adv-x="828" 
d="M384 -77q-58 0 -108.5 18t-87.5 53t-58 85t-21 115q0 19 1.5 39t6.5 42q16 81 56.5 149.5t98 118t130 77t152.5 27.5q132 0 203.5 -72t71.5 -197q0 -22 -2.5 -45.5t-7.5 -48.5q-11 -54 -29.5 -100t-44 -79t-56.5 -51.5t-65 -18.5q-23 0 -38 8t-23.5 21t-11.5 30t-3 35
q-41 -42 -84 -66t-87 -24q-56 0 -89 38t-33 105q0 27 6 57q12 62 43.5 111.5t79 84t109.5 52.5t136 18h27l-66 -341q-4 -17 -4 -36q0 -29 12.5 -46t35.5 -17t46 16t43.5 44.5t37 68t25.5 87.5q9 45 9 85q0 56 -16.5 102t-48 79t-78 51t-106.5 18q-72 0 -137 -25.5
t-117.5 -71.5t-89 -109.5t-51.5 -138.5q-8 -43 -8 -77q0 -61 20.5 -108t56.5 -78.5t84 -48t103 -16.5q79 0 162 37l-3 -15q-47 -22 -93 -32t-89 -10zM401 70q42 0 80.5 20.5t67.5 50.5l68 349q-61 0 -114 -17.5t-95 -50t-70 -78t-39 -102.5q-3 -14 -4 -26.5t-1 -24.5
q0 -58 28.5 -89.5t78.5 -31.5z" />
    <glyph glyph-name="A" unicode="A" horiz-adv-x="891" 
d="M50 10l79 26l443 732h30l177 -732l66 -26l-2 -10h-195l2 10l74 26l-71 307h-306l-183 -307l81 -26l-2 -10h-195zM646 373l-80 339l-201 -339h281z" />
    <glyph glyph-name="B" unicode="B" horiz-adv-x="666" 
d="M51 10l80 26l133 684l-69 30l2 10h274q108 0 165 -45t57 -117q0 -45 -17 -80t-44 -61.5t-61.5 -44.5t-69.5 -28q34 -6 62.5 -19t49.5 -33t33 -46.5t12 -59.5q0 -43 -16.5 -83.5t-51 -72t-86.5 -51t-124 -19.5h-331zM403 390q46 0 90 13.5t77.5 41t54 68t20.5 94.5
q0 66 -44 99.5t-138 33.5h-150l-68 -350h158zM378 16q75 0 120 25.5t69 61t31.5 71.5t7.5 57q0 67 -48.5 103t-128.5 36h-188l-69 -354h206z" />
    <glyph glyph-name="C" unicode="C" horiz-adv-x="816" 
d="M404 -11q-61 0 -114 19.5t-92 57t-61.5 91.5t-22.5 124q0 42 9 90q17 86 60.5 159t106 126t138.5 82.5t159 29.5q54 0 94.5 -11.5t67.5 -26.5t41.5 -29t16.5 -19l-44 -222h-15q9 46 9 84q0 52 -15 87.5t-41 57.5t-60 32t-73 10q-24 0 -58 -4.5t-73.5 -17t-80 -35
t-76.5 -59t-64 -89t-42 -124.5q-9 -51 -9 -94q0 -78 25 -132t64 -87.5t88 -48t97 -14.5q112 0 207.5 70.5t164.5 204.5h15q-32 -67 -76 -124t-98 -99t-116.5 -65.5t-131.5 -23.5z" />
    <glyph glyph-name="D" unicode="D" horiz-adv-x="780" 
d="M51 10l80 26l133 684l-69 30l2 10h335q139 0 215.5 -73.5t76.5 -219.5q0 -96 -33.5 -181t-92 -148.5t-139 -100.5t-174.5 -37h-336zM360 20q86 0 161 37.5t130.5 99.5t87 142t31.5 164q0 140 -70.5 208.5t-199.5 68.5h-187l-140 -720h187z" />
    <glyph glyph-name="E" unicode="E" horiz-adv-x="568" 
d="M51 10l80 26l133 684l-69 30l2 10h425q-2 -21 -2 -38t1.5 -34t3 -37t2.5 -46h-10l-41 125h-265l-60 -306h185l42 85h10l-39 -200h-10l-8 85h-185l-71 -364h275l89 125h10q-11 -26 -20 -46t-17 -37t-15 -34t-13 -38h-435z" />
    <glyph glyph-name="F" unicode="F" horiz-adv-x="558" 
d="M51 10l80 26l133 684l-69 30l2 10h425q-2 -21 -2 -38t1.5 -34t3 -37t2.5 -46h-10l-41 125h-265l-60 -306h185l42 85h10l-39 -200h-10l-8 85h-185l-70 -358l70 -26l-2 -10h-195z" />
    <glyph glyph-name="G" unicode="G" horiz-adv-x="761" 
d="M402 -11q-67 0 -122 20t-94 57.5t-60.5 92t-21.5 123.5q0 46 10 95q16 84 59 155.5t105 124t139.5 82t162.5 29.5q52 0 91.5 -11.5t66.5 -26.5t41.5 -29t17.5 -19l-44 -222h-15q9 45 9 84q0 89 -47.5 138t-145.5 49q-48 0 -108 -15.5t-116.5 -52.5t-101 -98.5
t-62.5 -154.5q-5 -27 -8 -52.5t-3 -49.5q0 -66 19.5 -118.5t56 -89t88.5 -55.5t117 -19q69 0 120.5 18t86.5 45.5t55 61t26 64.5q1 5 1.5 9.5t0.5 9.5q0 36 -26.5 56.5t-67 32t-88 16.5t-88.5 9l3 15h318l-71 -363h-21l24 125q-57 -64 -130.5 -100t-176.5 -36z" />
    <glyph glyph-name="H" unicode="H" horiz-adv-x="748" 
d="M847 760l-2 -10l-81 -30l-133 -684l70 -26l-2 -10h-195l2 10l80 26l68 349h-410l-68 -349l70 -26l-2 -10h-195l2 10l80 26l133 684l-69 30l2 10h195l-2 -10l-81 -30l-59 -305h410l59 305l-69 30l2 10h195z" />
    <glyph glyph-name="I" unicode="I" horiz-adv-x="293" 
d="M51 10l80 26l133 684l-69 30l2 10h195l-2 -10l-81 -30l-133 -684l70 -26l-2 -10h-195z" />
    <glyph glyph-name="J" unicode="J" horiz-adv-x="482" 
d="M207 -11q-34 0 -58 8t-40.5 21t-26.5 29.5t-17 33.5l119 203h15q-14 -27 -27 -50.5t-23 -45.5t-16.5 -42t-6.5 -41q0 -79 91 -79q20 0 40 7t38 27.5t34 58.5t28 100l97 501l-69 30l2 10h195l-2 -10l-81 -30l-101 -518q-8 -44 -21 -82.5t-35 -67.5t-54.5 -46t-80.5 -17z
" />
    <glyph glyph-name="K" unicode="K" horiz-adv-x="630" 
d="M703 760l-2 -10l-100 -24l-269 -293l197 -397l65 -26l-2 -10h-195l2 10l77 26l-183 358l-60 -65l-57 -293l70 -26l-2 -10h-195l2 10l80 26l133 684l-69 30l2 10h195l-2 -10l-81 -30l-68 -349l330 355l-65 24l2 10h195z" />
    <glyph glyph-name="L" unicode="L" horiz-adv-x="528" 
d="M51 10l80 26l133 684l-69 30l2 10h195l-2 -10l-81 -30l-127 -655q-3 -16 3 -25.5t20 -9.5h245l89 125h10q-11 -26 -20 -46t-17 -37t-15 -34t-13 -38h-435z" />
    <glyph glyph-name="M" unicode="M" horiz-adv-x="877" 
d="M51 10l80 26l133 684l-69 30l2 10h121l143 -704l406 704h109l-2 -10l-81 -30l-133 -684l70 -26l-2 -10h-195l2 10l80 26l118 606l-378 -642h-30l-133 628l-115 -592l69 -26l-2 -10h-195z" />
    <glyph glyph-name="N" unicode="N" horiz-adv-x="702" 
d="M51 10l80 26l133 684l-69 30l2 10h121l241 -629l115 589l-69 30l2 10h195l-2 -10l-81 -30l-140 -720h-25l-254 669l-123 -633l69 -26l-2 -10h-195z" />
    <glyph glyph-name="O" unicode="O" horiz-adv-x="803" 
d="M386 -11q-61 0 -112.5 23t-88.5 65t-58 100t-21 128q0 68 18.5 128.5t51 112t75.5 92.5t93 70t104 44.5t107 15.5q63 0 116 -24t92 -66t60.5 -99.5t21.5 -124.5q0 -100 -41.5 -185t-107 -147.5t-147.5 -97.5t-163 -35zM415 26q34 0 75 8.5t83 28.5t81 51.5t69 77.5
t48.5 107.5t18.5 140.5q0 72 -21.5 126.5t-57.5 91t-83 55t-98 18.5q-45 0 -101 -17t-108.5 -54.5t-95 -98.5t-59.5 -149q-9 -51 -9 -96q0 -75 23 -129.5t60 -90.5t83 -53t92 -17z" />
    <glyph glyph-name="P" unicode="P" horiz-adv-x="629" 
d="M51 10l80 26l133 684l-69 30l2 10h289q42 0 79.5 -10.5t66 -31t45 -51t16.5 -69.5q0 -58 -25 -101t-65 -71t-90.5 -42t-102.5 -14h-169l-65 -334l70 -26l-2 -10h-195zM409 390q52 0 95.5 15.5t74.5 43.5t48 67.5t17 87.5q0 67 -44 101.5t-123 34.5h-164l-68 -350h164z
" />
    <glyph glyph-name="Q" unicode="Q" horiz-adv-x="835" 
d="M595 -80q42 0 82 15.5t73 51.5h15q-37 -46 -90 -76t-110 -30q-45 0 -75.5 17.5t-55.5 38.5t-50 38.5t-59 17.5q-23 0 -47 -8.5t-46 -22.5t-40.5 -31.5t-31.5 -34.5h-15q23 37 58.5 67t76.5 46q-39 16 -71.5 44t-55 66.5t-35 85t-12.5 100.5q0 68 18.5 128.5t51 112
t75.5 92.5t93 70t104 44.5t107 15.5q63 0 116 -24t92 -66t60.5 -99.5t21.5 -124.5q0 -92 -35.5 -172t-93.5 -141t-131 -100t-149 -49q16 -11 31 -24t33.5 -23.5t41 -17.5t53.5 -7zM157 316q0 -75 23 -129.5t60 -90.5t83 -53t92 -17q34 0 75 8.5t83 28.5t81 51.5t69 77.5
t48.5 107.5t18.5 140.5q0 72 -21.5 126.5t-57.5 91t-83 55t-98 18.5q-45 0 -101 -17t-108.5 -54.5t-95 -98.5t-59.5 -149q-9 -51 -9 -96z" />
    <glyph glyph-name="R" unicode="R" horiz-adv-x="657" 
d="M693 598q0 -58 -25 -101t-65 -71t-90.5 -42t-102.5 -14h-22l139 -334l84 -26l-2 -10h-215l2 10l78 26l-138 334h-95l-65 -334l70 -26l-2 -10h-195l2 10l80 26l133 684l-69 30l2 10h289q42 0 79.5 -10.5t66 -31t45 -51t16.5 -69.5zM409 390q52 0 95.5 15.5t74.5 43.5
t48 67.5t17 87.5q0 67 -44 101.5t-123 34.5h-164l-68 -350h164z" />
    <glyph glyph-name="S" unicode="S" horiz-adv-x="591" 
d="M286 -11q-47 0 -83.5 11t-63.5 28.5t-44 38t-25 39.5l88 195h20q-12 -27 -23.5 -55.5t-16.5 -57.5q-2 -11 -3 -21.5t-1 -19.5q0 -41 17.5 -66.5t43 -40t55.5 -19.5t54 -5q39 0 78.5 10.5t74 33t60 57.5t34.5 84q2 10 3 19.5t1 17.5q0 54 -35.5 82t-95.5 44
q-24 6 -41 10.5t-31 9t-26 9.5t-25 11q-50 24 -75.5 55.5t-25.5 77.5q0 20 4 37q6 32 23 66.5t47 63t73.5 46.5t103.5 18q37 0 66.5 -7t53 -18.5t41 -26t31.5 -29.5l-94 -148h-20q7 12 15.5 26.5t15.5 30.5t11.5 30.5t4.5 26.5q0 24 -13 40.5t-33 26t-43 13.5t-44 4
q-32 0 -66.5 -8.5t-64 -26t-51 -44t-28.5 -63.5q-3 -14 -3 -26q0 -37 24.5 -64t73.5 -47q23 -9 48 -16.5t56 -15.5q34 -9 62.5 -22.5t49.5 -33t33 -45.5t12 -61q0 -11 -1.5 -22t-3.5 -23q-11 -54 -38.5 -96.5t-67.5 -72.5t-89.5 -45.5t-102.5 -15.5z" />
    <glyph glyph-name="T" unicode="T" horiz-adv-x="743" 
d="M276 10l80 26l135 694h-225l-89 -125h-10q10 26 19.5 46t17.5 37t15 34t13 38h575q-2 -21 -2 -38t1.5 -34t3 -37t2.5 -46h-10l-41 125h-225l-135 -694l70 -26l-2 -10h-195z" />
    <glyph glyph-name="U" unicode="U" horiz-adv-x="746" 
d="M372 -11q-57 0 -96 13.5t-63 39t-35 60.5t-11 79q0 24 3.5 50.5t8.5 55.5l84 433l-69 30l2 10h195l-2 -10l-81 -30l-84 -433q-10 -50 -10 -92q0 -46 12.5 -77.5t35 -51t54.5 -28t71 -8.5q48 0 87.5 13t70 43t53 79.5t36.5 121.5l84 433l-69 30l2 10h195l-2 -10l-81 -30
l-84 -433q-13 -68 -36.5 -123t-60 -94t-88.5 -60t-122 -21z" />
    <glyph glyph-name="V" unicode="V" horiz-adv-x="853" 
d="M261 726l-67 24l2 10h195l-2 -10l-73 -24l135 -670l387 670l-82 24l2 10h195l-2 -10l-79 -24l-427 -726h-30z" />
    <glyph glyph-name="W" unicode="W" horiz-adv-x="1212" 
d="M264 720l-70 30l2 10h195l-2 -10l-71 -30l77 -640l347 680h33l100 -680l320 640l-80 30l2 10h195l-2 -10l-84 -30l-362 -720h-30l-99 685l-350 -685h-30z" />
    <glyph glyph-name="X" unicode="X" horiz-adv-x="722" 
d="M55 10l74 26l280 344l-150 340l-64 30l2 10h195l-2 -10l-77 -30l132 -302l241 302l-88 30l2 10h195l-2 -10l-78 -30l-258 -326l157 -358l62 -26l-2 -10h-195l2 10l79 26l-141 320l-261 -320l92 -26l-2 -10h-195z" />
    <glyph glyph-name="Y" unicode="Y" horiz-adv-x="753" 
d="M299 10l79 26l44 245l-166 445l-62 24l2 10h195l-2 -10l-77 -24l153 -403l282 403l-91 24l2 10h195l-2 -10l-74 -24l-309 -439l-45 -251l71 -26l-2 -10h-195z" />
    <glyph glyph-name="Z" unicode="Z" horiz-adv-x="568" 
d="M51 10l532 720h-307l-90 -130h-10q11 28 20.5 49t17.5 38.5t15 34.5t13 38h400l3 -10l-528 -720h333l89 125h10q-11 -26 -20 -46t-17 -37t-15 -34t-13 -38h-430z" />
    <glyph glyph-name="bracketleft" unicode="[" horiz-adv-x="266" 
d="M208 816h171l-2 -10l-135 -45l-149 -766l117 -45l-2 -10h-171z" />
    <glyph glyph-name="backslash" unicode="\" horiz-adv-x="901" 
d="M714 -119l-620 919h32l618 -919h-30z" />
    <glyph glyph-name="bracketright" unicode="]" horiz-adv-x="267" 
d="M36 -50l135 45l149 766l-117 45l2 10h171l-171 -876h-171z" />
    <glyph glyph-name="asciicircum" unicode="^" horiz-adv-x="359" 
d="M127 435q43 80 73 132.5t51.5 83.5t36.5 43.5t28 12.5t24.5 -12.5t22 -43.5t20.5 -83.5t19 -132.5h-13l-80 235l-169 -235h-13v0z" />
    <glyph glyph-name="underscore" unicode="_" horiz-adv-x="573" 
d="M58 -62h433l-7 -38h-433z" />
    <glyph glyph-name="grave" unicode="`" horiz-adv-x="600" 
d="M284 575q-18 21 -38 46.5t-36 49.5t-25.5 44.5t-7.5 32.5q3 15 19 15q8 0 19 -8.5t23.5 -30t27.5 -58t31 -91.5h-13v0z" />
    <glyph glyph-name="a" unicode="a" horiz-adv-x="481" 
d="M181 -12q-48 0 -79 38t-31 118q0 73 28 137.5t77 113t116.5 77t146.5 28.5l-3 -15q-70 0 -129.5 -25.5t-103.5 -69t-69 -102t-25 -124.5q0 -69 25.5 -107t66.5 -38q23 0 46 12t46 34t45 51.5t43 64.5l58 319h40l-88 -460h65l-2 -10l-101 -30h-10l17 80l15 67
q-45 -72 -94 -115.5t-100 -43.5z" />
    <glyph glyph-name="b" unicode="b" horiz-adv-x="469" 
d="M236 -11q-67 0 -105.5 37.5t-38.5 113.5q0 17 1.5 34t5.5 37l108 549h-64l2 10l101 30h10l-56 -295q82 4 136 -16t86 -53.5t45 -76t13 -82.5q0 -44 -16 -94.5t-46.5 -93.5t-76 -71.5t-105.5 -28.5zM235 20q38 0 74.5 18t65 50.5t45.5 78t17 99.5q0 42 -13 84t-41.5 74
t-74 51t-110.5 15l-57 -271q-8 -43 -8 -74q0 -58 24.5 -91.5t77.5 -33.5z" />
    <glyph glyph-name="c" unicode="c" horiz-adv-x="512" 
d="M255 -11q-43 0 -75.5 17t-54.5 45.5t-33 66.5t-11 79q0 59 22 116t60 102t90.5 72.5t112.5 27.5q36 0 63 -8.5t45.5 -20.5t29.5 -25.5t16 -23.5l-92 -171h-15q41 76 41 129q0 42 -25.5 65.5t-76.5 23.5q-41 0 -82.5 -17.5t-74.5 -51t-53.5 -83.5t-20.5 -114
q0 -47 12 -83.5t32.5 -62t48 -39t59.5 -13.5q36 0 66 9.5t56.5 29t51 48.5t48.5 69h15q-19 -38 -44 -71.5t-56.5 -59.5t-70 -41t-84.5 -15z" />
    <glyph glyph-name="d" unicode="d" horiz-adv-x="459" 
d="M565 800l-156 -800h-40q-83 0 -137.5 20t-86.5 52.5t-45.5 72.5t-13.5 80q0 43 16 94t47 94.5t76.5 72.5t105.5 29q24 0 42.5 -7t33.5 -19t26.5 -26.5t19.5 -29.5l64 327h-65l2 10l101 30h10zM448 404q-8 14 -18.5 28t-25 25.5t-32.5 19t-40 7.5q-38 0 -74.5 -19t-65 -52
t-46 -78t-17.5 -98q0 -41 13.5 -79.5t42.5 -69t75.5 -50.5t111.5 -23z" />
    <glyph glyph-name="e" unicode="e" horiz-adv-x="505" 
d="M273 20q36 0 66 9.5t56.5 29t51 48.5t48.5 69h15q-19 -38 -44.5 -71.5t-58 -59.5t-72 -41t-85.5 -15q-43 0 -75 17t-53 45.5t-31 65.5t-10 78q0 59 21.5 116.5t60.5 102.5t92.5 73t116.5 28q31 0 59 -10.5t47 -30.5t27.5 -48.5t1.5 -65.5q-6 -33 -20 -61t-30.5 -49.5
t-33 -36.5t-26.5 -22l-266 108q-10 -36 -10 -81q0 -47 12 -83.5t32.5 -62t48 -39t59.5 -13.5zM359 484q-80 0 -140 -45.5t-84 -125.5q76 -28 128.5 -43.5t92.5 -15.5q30 0 52 8.5t37.5 22t25 31t12.5 36.5q7 35 -2.5 60t-29 41t-44.5 23.5t-48 7.5z" />
    <glyph glyph-name="f" unicode="f" horiz-adv-x="311" 
d="M39 10l68 16l87 449h-61l5 25h61l23 117q18 93 54.5 146t101.5 53q27 0 47.5 -8.5t35 -20.5t24 -25t14.5 -23l-89 -154h-15q30 53 42.5 91.5t9.5 64t-20 37.5t-44 12q-49 0 -76.5 -43t-43.5 -125l-24 -122h132l-5 -25h-132l-87 -449l62 -16l-2 -10h-170z" />
    <glyph glyph-name="g" unicode="g" horiz-adv-x="511" 
d="M211 -206q-60 0 -98 31.5t-61 79.5h15q31 -49 64.5 -70t78.5 -21q27 0 51.5 8t44.5 26.5t35 48t23 72.5l28 147q-49 -68 -98 -98t-94 -30q-54 0 -85 45.5t-31 122.5q0 66 16.5 130.5t48 115.5t76.5 82t102 31q47 0 78 -25t49 -56l13 66h10l89 -30l-2 -10h-64l-95 -493
q-10 -53 -32.5 -86.5t-50 -53t-57 -26.5t-54.5 -7zM222 5q21 0 44 12t46 31t44.5 43.5t39.5 50.5l53 263q-8 13 -18.5 27.5t-24.5 25.5t-32.5 18.5t-41.5 7.5q-33 0 -69 -17t-66 -54.5t-50 -96t-20 -140.5q0 -92 25 -131.5t70 -39.5z" />
    <glyph glyph-name="h" unicode="h" horiz-adv-x="542" 
d="M249 760h-66l2 10l101 30h10l-107 -563q5 16 16.5 43t27.5 57.5t37 62.5t46.5 57.5t54.5 41.5t62 16q21 0 39 -8t29.5 -26t15 -46.5t-4.5 -69.5l-64 -325h66l-2 -10l-104 -30h-8l65 335q8 43 6.5 71.5t-10 46t-22 24.5t-28.5 7q-25 0 -49.5 -16t-47.5 -41.5t-44 -57.5
t-38 -64.5t-29.5 -63t-19.5 -51.5l-43 -190h-40z" />
    <glyph glyph-name="i" unicode="i" horiz-adv-x="243" 
d="M247 641q-17 0 -25.5 10t-8.5 25q0 20 14.5 34.5t35.5 14.5q17 0 25 -10t8 -24q0 -21 -14.5 -35.5t-34.5 -14.5zM192 462l-66 -2l2 10l101 30h11l-90 -460h66l-2 -10l-103 -30h-8z" />
    <glyph glyph-name="j" unicode="j" horiz-adv-x="191" 
d="M237 641q-17 0 -25.5 10t-8.5 25q0 20 14.5 34.5t35.5 14.5q17 0 25 -10t8 -24q0 -21 -14.5 -35.5t-34.5 -14.5zM0 -206q-35 0 -59.5 21.5t-30.5 49.5h15q11 -24 28 -37.5t40 -13.5q33 0 58 29t35 80l105 537h-66l2 10l101 30h10l-113 -580q-6 -32 -19.5 -56t-30.5 -39.5
t-36.5 -23t-38.5 -7.5z" />
    <glyph glyph-name="k" unicode="k" horiz-adv-x="523" 
d="M229 760h-65l2 10l101 30h10l-121 -624l287 292l-84 22l2 10h195l-2 -10l-84 -23l-168 -171l125 -258h58l-2 -12l-83 -26h-8l-126 259l-117 -118l-28 -141h-41z" />
    <glyph glyph-name="l" unicode="l" horiz-adv-x="212" 
d="M229 760h-66l2 10l101 30h11l-148 -760h66l-2 -10l-103 -30h-8z" />
    <glyph glyph-name="m" unicode="m" horiz-adv-x="802" 
d="M192 460h-66l2 10l101 30h10l-51 -256q17 57 39.5 106t50.5 86t61.5 58t72.5 21q16 0 30.5 -4.5t25.5 -16.5t17.5 -33.5t6.5 -55.5q0 -29 -5.5 -68.5t-18.5 -92.5q19 63 42 113t50 85t58.5 54t69.5 19q40 0 62.5 -23.5t22.5 -80.5q0 -34 -9 -80l-56 -291h66l-2 -10
l-104 -30h-8l65 335q7 35 7 63q0 49 -19 67.5t-47 18.5q-27 0 -53 -16.5t-51 -52.5t-51 -93.5t-53 -139.5l-38 -182h-40l64 324q7 35 7 66q0 48 -18.5 71t-47.5 23q-53 0 -105.5 -72.5t-100.5 -229.5l-38 -182h-40z" />
    <glyph glyph-name="n" unicode="n" horiz-adv-x="542" 
d="M192 460h-66l2 10l101 30h10l-50 -263q5 16 16.5 43t27.5 57.5t37 62.5t46.5 57.5t54.5 41.5t62 16q35 0 59.5 -22.5t24.5 -76.5q0 -11 -1 -24t-4 -27l-64 -325h66l-2 -10l-104 -30h-8l65 335q7 35 7 63q0 49 -18.5 67.5t-42.5 18.5q-25 0 -49.5 -16t-47.5 -41.5
t-44 -57.5t-38 -64.5t-29.5 -63t-19.5 -51.5l-43 -190h-40z" />
    <glyph glyph-name="o" unicode="o" horiz-adv-x="528" 
d="M264 -11q-48 0 -82.5 19.5t-56.5 51t-32.5 70t-10.5 76.5q0 47 19 101t55.5 100.5t90 77t123.5 30.5q48 0 81 -19t53.5 -49.5t30 -68t9.5 -73.5q0 -47 -19 -102t-55 -102.5t-88 -79.5t-118 -32zM283 20q42 0 81.5 22t70 59.5t48.5 87t18 104.5q0 38 -9 72.5t-27.5 61
t-46 42t-64.5 15.5q-50 0 -92 -21t-73.5 -57t-49 -83.5t-17.5 -100.5q0 -39 10.5 -75t30.5 -64.5t50.5 -45.5t69.5 -17z" />
    <glyph glyph-name="p" unicode="p" horiz-adv-x="511" 
d="M-1 -190l67 16l124 634h-65l3 13q36 12 61.5 19.5t46.5 12.5t40.5 7t43.5 2q60 0 99 -20t62.5 -51t33 -70t9.5 -76q0 -53 -15 -107.5t-45.5 -99t-77 -73t-109.5 -28.5q-24 0 -43 7t-34 18t-26 25t-20 29l-47 -242l62 -16l-2 -10h-170zM276 20q42 0 79 17t65.5 50.5
t45 83.5t16.5 116q0 34 -9.5 70.5t-30.5 66t-55.5 48.5t-84.5 19q-15 0 -32 -1.5t-35 -6.5l-77 -394q17 -26 47 -47.5t71 -21.5z" />
    <glyph glyph-name="q" unicode="q" horiz-adv-x="511" 
d="M268 -190l69 16l33 173q-47 -9 -83 -9q-60 0 -99 19.5t-62 50.5t-32.5 69t-9.5 75q0 53 15 108t46 100t77.5 74t109.5 29q47 0 76.5 -26t46.5 -56l12 67h10l89 -30l-2 -10h-65l-121 -634l60 -16l-2 -10h-170zM306 13q16 0 32.5 1.5t35.5 6.5l75 384q-7 13 -18 27.5
t-25.5 25.5t-32.5 18.5t-40 7.5q-42 0 -79.5 -17.5t-66 -51.5t-45 -84t-16.5 -116q0 -35 9.5 -70.5t30.5 -65t55.5 -48t84.5 -18.5z" />
    <glyph glyph-name="r" unicode="r" horiz-adv-x="401" 
d="M192 460h-66l2 10l101 30h10l-48 -253h1q19 52 40.5 100t45.5 85.5t50 60t53 22.5q15 0 27 -6.5t22 -16t17 -20.5t10 -20l-87 -150h-15q20 35 33.5 68t13.5 62q0 26 -10.5 41t-25.5 15q-18 0 -38 -20.5t-40 -52t-39 -70t-34 -74.5t-25 -65t-13 -42l-37 -164h-40z" />
    <glyph glyph-name="s" unicode="s" horiz-adv-x="410" 
d="M203 -11q-35 0 -60.5 8.5t-44 21t-30 26.5t-18.5 25l74 134h15q-15 -28 -23.5 -52t-8.5 -47q0 -37 23 -62.5t78 -25.5q37 0 68.5 10t54.5 27.5t36 40t13 47.5q0 20 -11 35t-31 27t-48 22.5t-62 21.5q-46 15 -72 43t-26 71q0 38 14.5 67t39 48t56 28.5t65.5 9.5
q30 0 52.5 -7t39.5 -17.5t28 -23t18 -23.5l-58 -109h-15q11 20 16 36t5 32q0 39 -26.5 61t-69.5 22q-26 0 -51 -7.5t-45 -21t-32.5 -34t-12.5 -45.5q0 -29 25 -48t81 -37q27 -9 53 -17t46 -20.5t32.5 -32.5t12.5 -51q0 -44 -16.5 -78.5t-44 -57.5t-64 -35t-76.5 -12z" />
    <glyph glyph-name="t" unicode="t" horiz-adv-x="317" 
d="M180 -11q-34 0 -51.5 18.5t-17.5 62.5q0 14 1.5 30t5.5 35l66 340h-76l2 10l80 15l57 170h15l-33 -170h132l-5 -25h-132l-65 -335q-8 -40 -8 -63q0 -33 13 -47.5t39 -14.5q9 0 20 2.5t24.5 11t28 24.5t29.5 43h15q-27 -56 -63 -81.5t-77 -25.5z" />
    <glyph glyph-name="u" unicode="u" horiz-adv-x="521" 
d="M214 -11q-42 0 -67 21.5t-25 78.5q0 18 7.5 63t18 100t22.5 111t21 97h-66l2 10l101 30h10l-64 -332q-4 -19 -5.5 -34.5t-1.5 -27.5q0 -46 20 -66t54 -20q110 0 181 196l48 244h-66l2 10l101 30h10l-90 -460h66l-2 -10l-101 -30h-10l31 159q-14 -36 -33.5 -67t-44 -54
t-54 -36t-65.5 -13z" />
    <glyph glyph-name="v" unicode="v" horiz-adv-x="490" 
d="M200 460h-75l2 10l101 30h10l74 -451l155 271q18 32 31.5 65t13.5 57q0 17 -8.5 27.5t-28.5 10.5q-16 0 -39.5 -12.5t-46.5 -33.5v20q23 23 49.5 37.5t49.5 14.5q30 0 43.5 -15.5t13.5 -41.5q0 -45 -34 -104l-194 -345h-39z" />
    <glyph glyph-name="w" unicode="w" horiz-adv-x="720" 
d="M200 466h-74l2 10l102 24h10l43 -445l216 445h35l40 -445l136 282q14 29 24 57t10 49q0 17 -8 27t-27 10q-18 0 -41.5 -12.5t-46.5 -33.5v20q21 21 46.5 36.5t55.5 15.5q29 0 41 -15t12 -38q0 -22 -9 -49.5t-23 -55.5l-172 -348h-30l-42 451l-218 -451h-30z" />
    <glyph glyph-name="x" unicode="x" horiz-adv-x="498" 
d="M296 230q-26 -42 -54 -83.5t-56.5 -74.5t-56.5 -53.5t-53 -20.5q-17 0 -25 9t-8 24q0 17 8 39t30 45h15q-15 -19 -24.5 -40t-9.5 -35q0 -19 16 -19q17 0 40.5 19t50.5 51.5t56.5 75.5t59.5 91l-77 208h-73l2 10l101 24l76 -200q19 31 40.5 67t44.5 67t48 51.5t52 20.5
q35 0 35 -34q0 -17 -10 -39.5t-31 -49.5h-14q16 22 25.5 45t9.5 39q0 19 -20 19q-14 0 -29.5 -13.5t-35 -40t-45.5 -66t-60 -92.5l91 -243h73l-2 -10l-101 -24z" />
    <glyph glyph-name="y" unicode="y" horiz-adv-x="476" 
d="M112 -206q-33 0 -53 22t-34 54h15q15 -32 32 -45t34 -13q19 0 40.5 12.5t44 35.5t45 55t42.5 71l-77 474h-76l2 10l101 30h10l74 -465l155 285q19 36 32 68t13 55q0 37 -38 37q-15 0 -35.5 -10t-49.5 -36v20q31 32 55.5 42t42.5 10q24 0 39 -12t15 -40q0 -23 -12 -58.5
t-36 -79.5l-184 -330q-32 -57 -59.5 -94t-52 -58.5t-46 -30.5t-39.5 -9z" />
    <glyph glyph-name="z" unicode="z" horiz-adv-x="428" 
d="M411 155h10q-11 -26 -20 -46t-17 -37t-15 -34t-13 -38h-315l-3 10l366 460h-191l-90 -130h-10q11 28 20.5 49t17.5 38.5t15 34.5t13 38h285l3 -10l-363 -460h218z" />
    <glyph glyph-name="braceleft" unicode="{" horiz-adv-x="317" 
d="M227 -60q-63 0 -91 24.5t-28 72.5q0 10 1.5 20.5t3.5 22.5l38 196q3 15 3 27q0 29 -11.5 41t-24.5 12h-3l9 44h3q7 0 16.5 4.5t18.5 14t16.5 24.5t11.5 37l38 196q13 68 54 104t116 36h28l-2 -10h-22q-33 0 -56 -13.5t-38.5 -36.5t-25.5 -52.5t-16 -62.5l-28 -141
q-10 -51 -30 -80.5t-46 -36.5l-1 -10q17 -5 26 -21t9 -46q0 -11 -1 -23.5t-4 -26.5l-28 -141q-4 -20 -6.5 -38.5t-2.5 -35.5q0 -40 17 -65.5t64 -25.5h22l-2 -10h-28v0z" />
    <glyph glyph-name="bar" unicode="|" horiz-adv-x="317" 
d="M24 -190l82 35l175 900l-66 45l2 10h195l-2 -10l-84 -45l-175 -900l68 -35l-2 -10h-195z" />
    <glyph glyph-name="braceright" unicode="}" horiz-adv-x="253" 
d="M-24 -50h22q33 0 56 13.5t38.5 36.5t25.5 52.5t16 62.5l28 141q11 54 30.5 82.5t45.5 34.5l1 10q-35 11 -35 69q0 11 1.5 22.5t3.5 25.5l28 141q4 20 6.5 38.5t2.5 35.5q0 40 -17 65.5t-64 25.5h-22l2 10h28q63 0 91 -24.5t28 -72.5q0 -10 -1.5 -20.5t-3.5 -22.5
l-38 -196q-3 -15 -3 -27q0 -29 11.5 -41t24.5 -12h3l-9 -44h-3q-15 0 -35 -18.5t-28 -61.5l-38 -196q-14 -68 -54.5 -104t-115.5 -36h-28z" />
    <glyph glyph-name="asciitilde" unicode="~" horiz-adv-x="464" 
d="M355 247q-28 0 -46.5 8.5t-34.5 19t-32 19.5t-38 9q-10 0 -22 -2.5t-23 -8.5t-20 -16t-13 -26h-15q8 38 36 61.5t70 23.5q27 0 45.5 -9t34.5 -19.5t33 -19t41 -8.5q10 0 22.5 2.5t23.5 8.5t20 16t13 26h15q-10 -38 -38 -61.5t-72 -23.5z" />
    <glyph glyph-name="exclamdown" unicode="&#xa1;" horiz-adv-x="205" 
d="M252 800q19 0 29 -10.5t10 -27.5q0 -23 -16.5 -39.5t-40.5 -16.5q-18 0 -28.5 11t-10.5 28q0 23 16.5 39t40.5 16zM222 641q-3 -22 -10.5 -71.5t-17 -111t-20 -128.5t-19.5 -124t-15.5 -97.5t-8.5 -48.5q-9 -44 -19.5 -57.5t-23.5 -13.5q-8 0 -14 7t-6 30q0 11 9 55
t22.5 104.5t30 130.5t32 134.5t28 116t18.5 74.5h14z" />
    <glyph glyph-name="cent" unicode="&#xa2;" horiz-adv-x="604" 
d="M348 155q74 0 130 38t105 118h15q-18 -36 -43 -68.5t-56.5 -57.5t-70 -41t-83.5 -19l-24 -125h-45l24 125q-41 5 -72 23.5t-51 46.5t-30 63.5t-10 75.5q0 59 19.5 112.5t54 95.5t83 69.5t107.5 35.5l31 153h45l-30 -150q39 0 67 -9t47 -21t30.5 -25t16.5 -23l-102 -171
h-15q20 36 35 68t15 58q0 42 -28 67t-88 25q-39 0 -78 -12t-71.5 -37.5t-57 -64.5t-34.5 -94q-6 -36 -6 -68q0 -90 46 -139t124 -49z" />
    <glyph glyph-name="sterling" unicode="&#xa3;" horiz-adv-x="562" 
d="M536 155h10q-11 -26 -20 -46t-17 -37t-15 -34t-13 -38h-435l3 15q65 10 112 35.5t78 62t45.5 82.5t14.5 97q0 14 -1 27.5t-3 27.5v3h-156l6 32h144q-9 44 -20.5 99t-11.5 109q0 84 40 131t114 47q33 0 58.5 -10.5t44 -24t29 -25.5t13.5 -16l-24 -172h-20q7 34 7 66
q0 40 -10.5 69.5t-27.5 48.5t-38 28t-42 9q-48 0 -79.5 -38t-31.5 -108q0 -42 10 -96t23 -117h175l-6 -32h-163q2 -14 3.5 -27.5t1.5 -27.5q0 -40 -10 -79t-29 -73t-46.5 -62t-62.5 -46l-1 -5h262z" />
    <glyph glyph-name="currency" unicode="&#xa4;" horiz-adv-x="589" 
d="M567 418q0 -59 -21 -108t-58 -83l61 -94l-21 -15l-60 93q-56 -42 -129 -42q-41 0 -71.5 14.5t-50.5 40.5l-110 -106l-15 15l113 110q-19 38 -19 86q0 60 22 108.5t60 81.5l-78 120l21 15l77 -120q29 20 62.5 30.5t71.5 10.5q58 0 95 -32l115 111l15 -15l-115 -111
q35 -41 35 -110zM225 347q0 -66 35 -106.5t98 -40.5q34 0 64.5 15.5t53 42.5t35.5 64.5t13 82.5q0 63 -31 101t-87 38q-38 0 -71 -14.5t-57.5 -40.5t-38.5 -62t-14 -80z" />
    <glyph glyph-name="yen" unicode="&#xa5;" horiz-adv-x="669" 
d="M751 760l-2 -10l-78 -24l-230 -374h138l-6 -32h-150l-13 -68h150l-6 -32h-150l-38 -194l72 -16l-2 -10h-195l2 10l78 16l38 194h-158l6 32h158l13 67v1h-158l6 32h144l-94 374l-64 24l2 10h185l-2 -10l-76 -24l99 -374l227 374l-93 24l2 10h195z" />
    <glyph glyph-name="brokenbar" unicode="&#xa6;" horiz-adv-x="323" 
d="M140 390l82 35l62 320l-66 45l2 10h195l-2 -10l-84 -45l-62 -320l68 -35l-2 -10h-195zM27 -190l82 35l62 320l-66 45l2 10h195l-2 -10l-84 -45l-62 -320l68 -35l-2 -10h-195z" />
    <glyph glyph-name="section" unicode="&#xa7;" horiz-adv-x="461" 
d="M228 -11q-35 0 -60.5 8.5t-44 21t-30 26.5t-18.5 25l74 134h15q-21 -40 -29 -76q-3 -15 -3 -28q0 -36 23 -59.5t78 -23.5q36 0 67.5 10.5t55 28t36.5 40.5t13 49q0 19 -11 33.5t-31 26t-48 21.5t-62 22q-42 14 -68.5 39t-26.5 67q0 12 3 26q10 53 46.5 83.5t81.5 44.5
l1 4q-33 14 -52 39t-19 61q0 14 3 29q6 31 21.5 55t37.5 40t48.5 24t54.5 8t50.5 -7.5t38.5 -18.5t27 -23t17 -22l-58 -109h-15q14 27 19 51q1 6 1.5 11.5t0.5 10.5q0 37 -25 57.5t-63 20.5q-21 0 -43.5 -6.5t-41.5 -18.5t-33.5 -29.5t-18.5 -40.5q-2 -10 -2 -15
q0 -30 25.5 -49t70.5 -34q25 -8 50.5 -15.5t46 -19.5t33.5 -30.5t13 -49.5q0 -15 -3 -33q-9 -48 -35.5 -81.5t-65.5 -50.5l-1 -4q26 -13 41.5 -32.5t15.5 -51.5q0 -8 -1 -16t-3 -17q-8 -39 -26.5 -68.5t-44.5 -49t-58.5 -29t-67.5 -9.5zM337 277q52 13 84.5 46t32.5 75
q0 31 -29.5 52.5t-94.5 39.5q-26 0 -51 -7t-45 -20t-34.5 -31.5t-18.5 -41.5q-2 -10 -2 -15q0 -28 25.5 -46.5t80.5 -35.5z" />
    <glyph glyph-name="dieresis" unicode="&#xa8;" horiz-adv-x="600" 
d="M133 628q-16 0 -24 8.5t-8 22.5q0 19 13.5 32.5t33.5 13.5q14 0 23 -9t9 -23q0 -19 -13.5 -32t-33.5 -13zM263 628q-16 0 -24 8.5t-8 22.5q0 19 13.5 32.5t33.5 13.5q14 0 23 -9t9 -23q0 -19 -13.5 -32t-33.5 -13z" />
    <glyph glyph-name="copyright" unicode="&#xa9;" horiz-adv-x="901" 
d="M449 -11q-71 0 -130 25.5t-101 69.5t-65.5 103.5t-23.5 128.5q0 91 39.5 172t105.5 142.5t151 97.5t175 36q70 0 129 -25.5t101 -69.5t65.5 -103.5t23.5 -127.5q0 -60 -18 -117t-50.5 -107t-77 -91.5t-96.5 -71t-110 -46t-118 -16.5zM454 17q83 0 161.5 33.5t139.5 90.5
t98 132.5t37 159.5q0 63 -21.5 118.5t-60.5 96.5t-93.5 64.5t-120.5 23.5q-83 0 -162 -33.5t-140 -90.5t-98 -132.5t-37 -159.5q0 -63 22 -118.5t61 -96.5t93.5 -64.5t120.5 -23.5zM481 144q-45 0 -77 17t-53 44t-30.5 61t-9.5 68q0 45 19.5 94t54.5 89.5t85 66.5t111 26
q34 0 59.5 -8.5t44 -20.5t30 -25.5t16.5 -23.5l-102 -171h-15q55 101 42.5 159.5t-91.5 58.5q-42 0 -80.5 -16t-68 -45.5t-47.5 -71t-18 -93.5q0 -37 10.5 -69.5t29.5 -56.5t45.5 -38t59.5 -14q72 0 127.5 38t104.5 118h15q-19 -38 -46 -72t-60.5 -59.5t-73 -40.5t-82.5 -15
z" />
    <glyph glyph-name="ordfeminine" unicode="&#xaa;" horiz-adv-x="385" 
d="M175 350q-38 0 -63 34.5t-25 98.5q0 58 22.5 108.5t62 88t94 59t117.5 21.5h34l-72 -368h40l-3 -8l-69 -24h-8l25 122q-36 -58 -75 -95t-80 -37zM191 375q18 0 37 11.5t37 30.5t35.5 44.5t34.5 53.5l46 233q-56 0 -104 -20t-83.5 -55t-56 -82t-20.5 -100q0 -55 21 -85.5
t53 -30.5z" />
    <glyph glyph-name="guillemotleft" unicode="&#xab;" horiz-adv-x="462" 
d="M301 448q-50 -48 -99.5 -94.5t-104.5 -94.5q36 -48 67.5 -94t63.5 -94h-15l-155 185l1 6l227 186h15zM464 448q-50 -48 -99.5 -94.5t-104.5 -94.5q36 -48 67.5 -94t63.5 -94h-15l-155 185l1 6l227 186h15z" />
    <glyph glyph-name="logicalnot" unicode="&#xac;" horiz-adv-x="479" 
d="M435 265h-321l6 32h353l-38 -193h-32z" />
    <glyph glyph-name="uni00AD" unicode="&#xad;" horiz-adv-x="353" 
d="M108 300h253l-7 -38h-253z" />
    <glyph glyph-name="registered" unicode="&#xae;" horiz-adv-x="619" 
d="M360 259q-45 0 -82.5 15t-64 42t-41.5 63.5t-15 78.5q0 11 1.5 23t3.5 24q10 51 38 95.5t68 77.5t88.5 52.5t99.5 19.5q45 0 82 -15t63.5 -42t41.5 -63t15 -78q0 -11 -1.5 -23t-3.5 -24q-10 -51 -38 -96t-67.5 -78t-88 -52.5t-99.5 -19.5zM365 283q46 0 89.5 17.5
t79.5 47.5t61 70.5t34 86.5q4 20 4 43q0 38 -13.5 70.5t-37.5 56.5t-57.5 37.5t-73.5 13.5q-46 0 -90 -17.5t-80 -47.5t-61 -70t-34 -86q-4 -20 -4 -43q0 -38 13.5 -71t37.5 -57t57.5 -37.5t74.5 -13.5zM279 371q21 3 26 7t8 18l47 242l-25 18v4h123q38 0 55.5 -17.5
t17.5 -41.5q0 -9 -1 -14q-6 -30 -30 -53.5t-64 -23.5l28 -117q4 -13 14 -17t24 -5l-1 -8h-87l1 8q12 2 19.5 3.5t3.5 16.5l-29 119h-50l-22 -114q-1 -4 -1.5 -6.5t-0.5 -4.5q0 -7 5 -9.5t17 -4.5l-1 -8h-78zM431 527q38 0 53.5 17.5t20.5 42.5q1 4 1 11q0 19 -14.5 32
t-47.5 13h-59l-23 -116h69z" />
    <glyph glyph-name="macron" unicode="&#xaf;" horiz-adv-x="600" 
d="M168 680h263l-7 -38h-263z" />
    <glyph glyph-name="degree" unicode="&#xb0;" horiz-adv-x="319" 
d="M267 549q-35 0 -56.5 23.5t-21.5 56.5q0 21 9.5 40.5t25.5 34.5t36.5 23.5t42.5 8.5q33 0 55 -23t22 -56q0 -21 -10 -40.5t-26 -34.5t-36 -24t-41 -9zM272 577q15 0 29 6t25 16.5t18 24.5t7 29q0 23 -15 39t-38 16q-16 0 -30.5 -6t-25.5 -16.5t-17.5 -24t-6.5 -28.5
q0 -23 15 -39.5t39 -16.5z" />
    <glyph glyph-name="plusminus" unicode="&#xb1;" horiz-adv-x="491" 
d="M473 295l-6 -32h-160l-31 -160h-32l31 160h-161l6 32h162l31 161h32l-31 -161h159zM80 32h353l-6 -32h-353z" />
    <glyph glyph-name="uni00B2" unicode="&#xb2;" horiz-adv-x="331" 
d="M103 409q24 4 54 20t60 39t58 52.5t50 60.5t35 63t13 60q0 35 -18 59t-51 24q-24 0 -45.5 -12.5t-37 -34t-25 -51.5t-9.5 -66v-18h-18l-2 105q10 17 24 33.5t32 30t41 21.5t51 8q15 0 32 -3.5t31.5 -13.5t23.5 -27.5t9 -45.5q0 -54 -27 -99.5t-64.5 -82.5t-78 -65
t-66.5 -46h161l56 65h11q-11 -27 -20 -43t-16 -38h-265z" />
    <glyph glyph-name="uni00B3" unicode="&#xb3;" horiz-adv-x="327" 
d="M296 615q20 3 39.5 0t35.5 -12.5t25.5 -25.5t9.5 -38q0 -29 -15 -54.5t-39.5 -45t-56.5 -30.5t-66 -11q-20 0 -40 4.5t-36.5 12.5t-27 19.5t-12.5 26.5l34 82h19q-8 -17 -14 -35.5t-6 -32.5q0 -19 9 -31.5t22.5 -19.5t29 -9.5t29.5 -2.5q31 0 56 10.5t42.5 28.5
t26.5 41.5t9 49.5q0 61 -68 61q-6 0 -15 -1.5t-19.5 -4.5t-21.5 -7t-19 -9l5 22q76 27 111 57t35 68q0 24 -17.5 40.5t-53.5 16.5q-18 0 -36 -4.5t-32 -14.5t-23 -27t-9 -42q0 -8 0.5 -21.5t2.5 -26.5h-19l-14 83q7 9 20.5 21t31.5 23.5t40 19t47 7.5q18 0 36 -4t32 -12.5
t23 -22t9 -31.5q0 -35 -30.5 -65t-89.5 -53z" />
    <glyph glyph-name="acute" unicode="&#xb4;" horiz-adv-x="600" 
d="M139 575q38 55 66.5 91.5t49.5 58t35 30t22 8.5q16 0 13 -15q-2 -12 -19.5 -32.5t-43 -44.5t-55 -49.5t-55.5 -46.5h-13v0z" />
    <glyph glyph-name="uni00B5" unicode="&#xb5;" horiz-adv-x="472" 
d="M-47 -180l68 16l122 624h-67l2 10l101 30h10l-64 -332q-7 -34 -7 -62q0 -45 19 -65.5t54 -20.5q27 0 52 11t46.5 29t39 40t30.5 45l62 315h-66l2 10l101 30h10l-90 -460h66l-2 -10l-101 -30h-10l20 105q-12 -18 -29 -38.5t-39 -37.5t-49.5 -28.5t-59.5 -11.5
q-21 0 -40 8.5t-34 38.5l-39 -200l62 -16l-2 -10h-170z" />
    <glyph glyph-name="paragraph" unicode="&#xb6;" horiz-adv-x="718" 
d="M270 10l78 16l67 344h-39q-41 0 -78.5 9.5t-66 29t-45 49t-16.5 70.5q0 22 4 42q9 46 36.5 81.5t65.5 59.5t84 36.5t92 12.5h353l-2 -10l-81 -30l-135 -694l72 -16l-2 -10h-389zM542 26l135 694h-149l-135 -694h149z" />
    <glyph glyph-name="periodcentered" unicode="&#xb7;" horiz-adv-x="220" 
d="M145 209q-19 0 -29 10.5t-10 27.5q0 23 16.5 39.5t40.5 16.5q18 0 28.5 -11t10.5 -28q0 -23 -16.5 -39t-40.5 -16z" />
    <glyph glyph-name="cedilla" unicode="&#xb8;" horiz-adv-x="600" 
d="M55 -204q-15 0 -29 4.5t-25 12.5l1 8q21 -10 46 -10q30 0 52.5 15.5t22.5 41.5q0 17 -15 31t-49 14l4 19l62 81h17l-54 -70q35 0 50 -15.5t15 -37.5q0 -15 -7.5 -31.5t-20.5 -30.5t-31 -23t-39 -9z" />
    <glyph glyph-name="uni00B9" unicode="&#xb9;" horiz-adv-x="212" 
d="M152 409l46 16l65 336l-112 -104l3 12l113 130h78l-1 -5l-47 -19l-68 -350l40 -16l-1 -5h-117z" />
    <glyph glyph-name="ordmasculine" unicode="&#xba;" horiz-adv-x="423" 
d="M212 348q-40 0 -68.5 16t-46.5 41t-26 56t-8 61q0 37 15 80.5t44.5 80.5t73 61.5t100.5 24.5q39 0 66.5 -15.5t44.5 -39.5t24.5 -54t7.5 -59q0 -37 -15.5 -81t-44.5 -82.5t-71 -64t-96 -25.5zM227 373q33 0 64 18t55 48t38 69.5t14 82.5q0 31 -7.5 58.5t-21.5 48.5
t-35.5 33.5t-49.5 12.5q-38 0 -71.5 -16.5t-58.5 -45t-39 -66.5t-14 -81q0 -32 8.5 -61t24.5 -51.5t39.5 -36t53.5 -13.5z" />
    <glyph glyph-name="guillemotright" unicode="&#xbb;" horiz-adv-x="472" 
d="M11 71q50 48 99.5 94.5t104.5 94.5q-36 48 -67.5 94t-63.5 94h15l155 -185l-1 -6l-227 -186h-15zM174 71q50 48 99.5 94.5t104.5 94.5q-36 48 -67.5 94t-63.5 94h15l155 -185l-1 -6l-227 -186h-15z" />
    <glyph glyph-name="onequarter" unicode="&#xbc;" horiz-adv-x="670" 
d="M152 409l46 16l65 336l-112 -104l3 12l113 130h78l-1 -5l-47 -19l-68 -350l40 -16l-1 -5h-117zM620 760h32l-530 -760h-30zM519 5l47 19l14 75h-196l2 10l247 286h79l-1 -5l-47 -19l-48 -249l50 -18l-1 -5h-54l-14 -75l39 -19l-1 -5h-117zM583 114l50 257l-222 -257h172z
" />
    <glyph glyph-name="onehalf" unicode="&#xbd;" horiz-adv-x="753" 
d="M152 409l46 16l65 336l-112 -104l3 12l113 130h78l-1 -5l-47 -19l-68 -350l40 -16l-1 -5h-117zM620 760h32l-530 -760h-30zM446 5q24 4 54 20t60 39t58 52.5t50 60.5t35 63t13 60q0 35 -18 59t-51 24q-24 0 -45.5 -12.5t-37 -34t-25 -51.5t-9.5 -66v-18h-18l-2 105
q10 17 24 33.5t32 30t41 21.5t51 8q15 0 32 -3.5t31.5 -13.5t23.5 -27.5t9 -45.5q0 -54 -27 -99.5t-64.5 -82.5t-78 -65t-66.5 -46h161l56 65h11q-11 -27 -20 -43t-16 -38h-265z" />
    <glyph glyph-name="threequarters" unicode="&#xbe;" horiz-adv-x="765" 
d="M406 539q0 -29 -15 -54.5t-39.5 -45t-56.5 -30.5t-66 -11q-20 0 -40 4.5t-36.5 12.5t-27 19.5t-12.5 26.5l34 82h19q-8 -17 -14 -35.5t-6 -32.5q0 -19 9 -31.5t22.5 -19.5t29 -9.5t29.5 -2.5q31 0 56 10.5t42.5 28.5t26.5 41.5t9 49.5q0 61 -68 61q-6 0 -15 -1.5
t-19.5 -4.5t-21.5 -7t-19 -9l5 22q76 27 111 57t35 68q0 24 -17.5 40.5t-53.5 16.5q-18 0 -36 -4.5t-32 -14.5t-23 -27t-9 -42q0 -8 0.5 -21.5t2.5 -26.5h-19l-14 83q7 9 20.5 21t31.5 23.5t40 19t47 7.5q18 0 36 -4t32 -12.5t23 -22t9 -31.5q0 -35 -30.5 -65t-89.5 -53
q20 3 39.5 0t35.5 -12.5t25.5 -25.5t9.5 -38zM747 760l-530 -760h-30l528 760h32zM759 371l-48 -249l50 -18l-1 -5h-54l-14 -75l39 -19l-1 -5h-117l1 5l47 19l14 75h-196l2 10l247 286h79l-1 -5zM728 371l-222 -257h172z" />
    <glyph glyph-name="questiondown" unicode="&#xbf;" horiz-adv-x="483" 
d="M272 815q19 0 29 -10.5t10 -27.5q0 -23 -16.5 -39.5t-40.5 -16.5q-18 0 -28.5 11t-10.5 28q0 23 16.5 39t40.5 16zM243 654q-2 -24 -4.5 -44t-5.5 -37q-6 -29 -14 -50.5t-21.5 -42t-32.5 -43t-46 -52.5q-25 -28 -49 -55.5t-43 -57.5t-30.5 -63t-11.5 -72q0 -31 9 -53
t24 -36t34.5 -20.5t41.5 -6.5q36 0 68 15t56.5 47.5t39 83.5t14.5 123v31h5l17 -202q-14 -26 -35.5 -49.5t-49.5 -41.5t-61 -28.5t-69 -10.5q-24 0 -50 6t-48 22t-36.5 44t-14.5 72q0 25 4 48.5t15 49t31 54.5t52 64q37 41 68.5 68t56 57t43.5 70.5t33 109.5h10z" />
    <glyph glyph-name="Agrave" unicode="&#xc0;" horiz-adv-x="891" 
d="M585 810q-18 21 -38 46.5t-36 49.5t-25.5 44.5t-7.5 32.5q3 15 19 15q8 0 19 -8.5t23.5 -30t27.5 -58t31 -91.5h-13zM50 10l79 26l443 732h30l177 -732l66 -26l-2 -10h-195l2 10l74 26l-71 307h-306l-183 -307l81 -26l-2 -10h-195zM646 373l-80 339l-201 -339h281z" />
    <glyph glyph-name="Aacute" unicode="&#xc1;" horiz-adv-x="891" 
d="M580 810q38 55 66.5 91.5t49.5 58t35 30t22 8.5q16 0 13 -15q-2 -12 -19.5 -32.5t-43 -44.5t-55 -49.5t-55.5 -46.5h-13zM50 10l79 26l443 732h30l177 -732l66 -26l-2 -10h-195l2 10l74 26l-71 307h-306l-183 -307l81 -26l-2 -10h-195zM646 373l-80 339l-201 -339h281z
" />
    <glyph glyph-name="Acircumflex" unicode="&#xc2;" horiz-adv-x="891" 
d="M478 810q43 56 70 92.5t44.5 57.5t28 29.5t19.5 8.5t16.5 -8.5t16.5 -29.5t22 -57.5t34 -92.5h-13q-24 37 -47 72.5t-38 68.5q-27 -33 -64.5 -68.5t-75.5 -72.5h-13zM50 10l79 26l443 732h30l177 -732l66 -26l-2 -10h-195l2 10l74 26l-71 307h-306l-183 -307l81 -26
l-2 -10h-195zM646 373l-80 339l-201 -339h281z" />
    <glyph glyph-name="Atilde" unicode="&#xc3;" horiz-adv-x="891" 
d="M474 839q14 46 40 70.5t57 24.5q21 0 33.5 -8.5t23 -18t21 -18t27.5 -8.5q43 0 73 63h8q-14 -46 -40 -70.5t-58 -24.5q-21 0 -33.5 8.5t-22.5 18t-20.5 18t-26.5 8.5q-43 0 -74 -63h-8zM50 10l79 26l443 732h30l177 -732l66 -26l-2 -10h-195l2 10l74 26l-71 307h-306
l-183 -307l81 -26l-2 -10h-195zM646 373l-80 339l-201 -339h281z" />
    <glyph glyph-name="Adieresis" unicode="&#xc4;" horiz-adv-x="891" 
d="M527 862q-16 0 -24 8.5t-8 22.5q0 19 13.5 32.5t33.5 13.5q14 0 23 -9t9 -23q0 -19 -13.5 -32t-33.5 -13zM657 862q-16 0 -24 8.5t-8 22.5q0 19 13.5 32.5t33.5 13.5q14 0 23 -9t9 -23q0 -19 -13.5 -32t-33.5 -13zM50 10l79 26l443 732h30l177 -732l66 -26l-2 -10h-195
l2 10l74 26l-71 307h-306l-183 -307l81 -26l-2 -10h-195zM646 373l-80 339l-201 -339h281z" />
    <glyph glyph-name="Aring" unicode="&#xc5;" horiz-adv-x="891" 
d="M600 832q-30 0 -48.5 20t-18.5 48q0 19 8.5 35.5t22 29.5t31 20.5t36.5 7.5q29 0 47.5 -19.5t18.5 -48.5q0 -18 -8.5 -35t-22 -30t-31 -20.5t-35.5 -7.5zM604 855q13 0 25.5 5.5t22.5 14.5t16 21t6 25q0 20 -13.5 34.5t-33.5 14.5q-14 0 -26.5 -5.5t-22 -14.5t-15.5 -21
t-6 -25q0 -20 13 -34.5t34 -14.5zM50 10l79 26l443 732h30l177 -732l66 -26l-2 -10h-195l2 10l74 26l-71 307h-306l-183 -307l81 -26l-2 -10h-195zM646 373l-80 339l-201 -339h281z" />
    <glyph glyph-name="AE" unicode="&#xc6;" horiz-adv-x="948" 
d="M50 10l76 26l522 724h354q-2 -21 -2 -38t1.5 -34t3 -37t2.5 -46h-10l-41 125h-265l-60 -306h185l42 85h10l-39 -200h-10l-8 85h-185l-71 -364h275l89 125h10q-11 -26 -20 -46t-17 -37t-15 -34t-13 -38h-435l2 10l80 26l60 307h-191l-219 -307l84 -26l-2 -10h-195z
M577 373l65 335h-2l-238 -335h175z" />
    <glyph glyph-name="Ccedilla" unicode="&#xc7;" horiz-adv-x="816" 
d="M826 301q-31 -65 -73 -120t-93 -96.5t-110 -66t-124 -28.5l-36 -47q35 0 50 -15.5t15 -37.5q0 -15 -7.5 -31.5t-20.5 -30.5t-31 -23t-39 -9q-15 0 -29 4.5t-25 12.5l1 8q21 -10 46 -10q30 0 52.5 15.5t22.5 41.5q0 17 -15 31t-49 14l4 19l44 57h-5q-61 0 -114 19.5
t-92 57t-61.5 91.5t-22.5 124q0 42 9 90q17 86 60.5 159t106 126t138.5 82.5t159 29.5q54 0 94.5 -11.5t67.5 -26.5t41.5 -29t16.5 -19l-44 -222h-15q9 46 9 84q0 52 -15 87.5t-41 57.5t-60 32t-73 10q-24 0 -58 -4.5t-73.5 -17t-80 -35t-76.5 -59t-64 -89t-42 -124.5
q-9 -51 -9 -94q0 -78 25 -132t64 -87.5t88 -48t97 -14.5q112 0 207.5 70.5t164.5 204.5h15v0z" />
    <glyph glyph-name="Egrave" unicode="&#xc8;" horiz-adv-x="568" 
d="M452 810q-18 21 -38 46.5t-36 49.5t-25.5 44.5t-7.5 32.5q3 15 19 15q8 0 19 -8.5t23.5 -30t27.5 -58t31 -91.5h-13zM51 10l80 26l133 684l-69 30l2 10h425q-2 -21 -2 -38t1.5 -34t3 -37t2.5 -46h-10l-41 125h-265l-60 -306h185l42 85h10l-39 -200h-10l-8 85h-185
l-71 -364h275l89 125h10q-11 -26 -20 -46t-17 -37t-15 -34t-13 -38h-435z" />
    <glyph glyph-name="Eacute" unicode="&#xc9;" horiz-adv-x="568" 
d="M357 810q38 55 66.5 91.5t49.5 58t35 30t22 8.5q16 0 13 -15q-2 -12 -19.5 -32.5t-43 -44.5t-55 -49.5t-55.5 -46.5h-13zM51 10l80 26l133 684l-69 30l2 10h425q-2 -21 -2 -38t1.5 -34t3 -37t2.5 -46h-10l-41 125h-265l-60 -306h185l42 85h10l-39 -200h-10l-8 85h-185
l-71 -364h275l89 125h10q-11 -26 -20 -46t-17 -37t-15 -34t-13 -38h-435z" />
    <glyph glyph-name="Ecircumflex" unicode="&#xca;" horiz-adv-x="568" 
d="M321 810q43 56 70 92.5t44.5 57.5t28 29.5t19.5 8.5t16.5 -8.5t16.5 -29.5t22 -57.5t34 -92.5h-13q-24 37 -47 72.5t-38 68.5q-27 -33 -64.5 -68.5t-75.5 -72.5h-13zM51 10l80 26l133 684l-69 30l2 10h425q-2 -21 -2 -38t1.5 -34t3 -37t2.5 -46h-10l-41 125h-265
l-60 -306h185l42 85h10l-39 -200h-10l-8 85h-185l-71 -364h275l89 125h10q-11 -26 -20 -46t-17 -37t-15 -34t-13 -38h-435z" />
    <glyph glyph-name="Edieresis" unicode="&#xcb;" horiz-adv-x="568" 
d="M382 859q-16 0 -24 8.5t-8 22.5q0 19 13.5 32.5t33.5 13.5q14 0 23 -9t9 -23q0 -19 -13.5 -32t-33.5 -13zM512 859q-16 0 -24 8.5t-8 22.5q0 19 13.5 32.5t33.5 13.5q14 0 23 -9t9 -23q0 -19 -13.5 -32t-33.5 -13zM51 10l80 26l133 684l-69 30l2 10h425q-2 -21 -2 -38
t1.5 -34t3 -37t2.5 -46h-10l-41 125h-265l-60 -306h185l42 85h10l-39 -200h-10l-8 85h-185l-71 -364h275l89 125h10q-11 -26 -20 -46t-17 -37t-15 -34t-13 -38h-435z" />
    <glyph glyph-name="Igrave" unicode="&#xcc;" horiz-adv-x="293" 
d="M311 810q-18 21 -38 46.5t-36 49.5t-25.5 44.5t-7.5 32.5q3 15 19 15q8 0 19 -8.5t23.5 -30t27.5 -58t31 -91.5h-13zM51 10l80 26l133 684l-69 30l2 10h195l-2 -10l-81 -30l-133 -684l70 -26l-2 -10h-195z" />
    <glyph glyph-name="Iacute" unicode="&#xcd;" horiz-adv-x="324" 
d="M280 810q38 55 66.5 91.5t49.5 58t35 30t22 8.5q16 0 13 -15q-2 -12 -19.5 -32.5t-43 -44.5t-55 -49.5t-55.5 -46.5h-13zM51 10l80 26l133 684l-69 30l2 10h195l-2 -10l-81 -30l-133 -684l70 -26l-2 -10h-195z" />
    <glyph glyph-name="Icircumflex" unicode="&#xce;" horiz-adv-x="293" 
d="M182 810q43 56 70 92.5t44.5 57.5t28 29.5t19.5 8.5t16.5 -8.5t16.5 -29.5t22 -57.5t34 -92.5h-13q-24 37 -47 72.5t-38 68.5q-27 -33 -64.5 -68.5t-75.5 -72.5h-13zM51 10l80 26l133 684l-69 30l2 10h195l-2 -10l-81 -30l-133 -684l70 -26l-2 -10h-195z" />
    <glyph glyph-name="Idieresis" unicode="&#xcf;" horiz-adv-x="293" 
d="M249 860q-16 0 -24 8.5t-8 22.5q0 19 13.5 32.5t33.5 13.5q14 0 23 -9t9 -23q0 -19 -13.5 -32t-33.5 -13zM379 860q-16 0 -24 8.5t-8 22.5q0 19 13.5 32.5t33.5 13.5q14 0 23 -9t9 -23q0 -19 -13.5 -32t-33.5 -13zM51 10l80 26l133 684l-69 30l2 10h195l-2 -10l-81 -30
l-133 -684l70 -26l-2 -10h-195z" />
    <glyph glyph-name="Eth" unicode="&#xd0;" horiz-adv-x="780" 
d="M532 760q139 0 215.5 -73.5t76.5 -219.5q0 -96 -33.5 -181t-92 -148.5t-139 -100.5t-174.5 -37h-336l2 10l80 26l63 325h-97l7 38h98l62 321l-69 30l2 10h335zM360 20q86 0 161 37.5t130.5 99.5t87 142t31.5 164q0 140 -70.5 208.5t-199.5 68.5h-187l-66 -341h100l-7 -38
h-101l-66 -341h187z" />
    <glyph glyph-name="Ntilde" unicode="&#xd1;" horiz-adv-x="702" 
d="M351 829q14 46 40 70.5t57 24.5q21 0 33.5 -8.5t23 -18t21 -18t27.5 -8.5q43 0 73 63h8q-14 -46 -40 -70.5t-58 -24.5q-21 0 -33.5 8.5t-22.5 18t-20.5 18t-26.5 8.5q-43 0 -74 -63h-8zM51 10l80 26l133 684l-69 30l2 10h121l241 -629l115 589l-69 30l2 10h195l-2 -10
l-81 -30l-140 -720h-25l-254 669l-123 -633l69 -26l-2 -10h-195z" />
    <glyph glyph-name="Ograve" unicode="&#xd2;" horiz-adv-x="803" 
d="M550 810q-18 21 -38 46.5t-36 49.5t-25.5 44.5t-7.5 32.5q3 15 19 15q8 0 19 -8.5t23.5 -30t27.5 -58t31 -91.5h-13zM386 -11q-61 0 -112.5 23t-88.5 65t-58 100t-21 128q0 68 18.5 128.5t51 112t75.5 92.5t93 70t104 44.5t107 15.5q63 0 116 -24t92 -66t60.5 -99.5
t21.5 -124.5q0 -100 -41.5 -185t-107 -147.5t-147.5 -97.5t-163 -35zM415 26q34 0 75 8.5t83 28.5t81 51.5t69 77.5t48.5 107.5t18.5 140.5q0 72 -21.5 126.5t-57.5 91t-83 55t-98 18.5q-45 0 -101 -17t-108.5 -54.5t-95 -98.5t-59.5 -149q-9 -51 -9 -96q0 -75 23 -129.5
t60 -90.5t83 -53t92 -17z" />
    <glyph glyph-name="Oacute" unicode="&#xd3;" horiz-adv-x="803" 
d="M525 810q38 55 66.5 91.5t49.5 58t35 30t22 8.5q16 0 13 -15q-2 -12 -19.5 -32.5t-43 -44.5t-55 -49.5t-55.5 -46.5h-13zM386 -11q-61 0 -112.5 23t-88.5 65t-58 100t-21 128q0 68 18.5 128.5t51 112t75.5 92.5t93 70t104 44.5t107 15.5q63 0 116 -24t92 -66t60.5 -99.5
t21.5 -124.5q0 -100 -41.5 -185t-107 -147.5t-147.5 -97.5t-163 -35zM415 26q34 0 75 8.5t83 28.5t81 51.5t69 77.5t48.5 107.5t18.5 140.5q0 72 -21.5 126.5t-57.5 91t-83 55t-98 18.5q-45 0 -101 -17t-108.5 -54.5t-95 -98.5t-59.5 -149q-9 -51 -9 -96q0 -75 23 -129.5
t60 -90.5t83 -53t92 -17z" />
    <glyph glyph-name="Ocircumflex" unicode="&#xd4;" horiz-adv-x="803" 
d="M428 810q43 56 70 92.5t44.5 57.5t28 29.5t19.5 8.5t16.5 -8.5t16.5 -29.5t22 -57.5t34 -92.5h-13q-24 37 -47 72.5t-38 68.5q-27 -33 -64.5 -68.5t-75.5 -72.5h-13zM386 -11q-61 0 -112.5 23t-88.5 65t-58 100t-21 128q0 68 18.5 128.5t51 112t75.5 92.5t93 70t104 44.5
t107 15.5q63 0 116 -24t92 -66t60.5 -99.5t21.5 -124.5q0 -100 -41.5 -185t-107 -147.5t-147.5 -97.5t-163 -35zM415 26q34 0 75 8.5t83 28.5t81 51.5t69 77.5t48.5 107.5t18.5 140.5q0 72 -21.5 126.5t-57.5 91t-83 55t-98 18.5q-45 0 -101 -17t-108.5 -54.5t-95 -98.5
t-59.5 -149q-9 -51 -9 -96q0 -75 23 -129.5t60 -90.5t83 -53t92 -17z" />
    <glyph glyph-name="Otilde" unicode="&#xd5;" horiz-adv-x="803" 
d="M441 829q14 46 40 70.5t57 24.5q21 0 33.5 -8.5t23 -18t21 -18t27.5 -8.5q43 0 73 63h8q-14 -46 -40 -70.5t-58 -24.5q-21 0 -33.5 8.5t-22.5 18t-20.5 18t-26.5 8.5q-43 0 -74 -63h-8zM386 -11q-61 0 -112.5 23t-88.5 65t-58 100t-21 128q0 68 18.5 128.5t51 112
t75.5 92.5t93 70t104 44.5t107 15.5q63 0 116 -24t92 -66t60.5 -99.5t21.5 -124.5q0 -100 -41.5 -185t-107 -147.5t-147.5 -97.5t-163 -35zM415 26q34 0 75 8.5t83 28.5t81 51.5t69 77.5t48.5 107.5t18.5 140.5q0 72 -21.5 126.5t-57.5 91t-83 55t-98 18.5q-45 0 -101 -17
t-108.5 -54.5t-95 -98.5t-59.5 -149q-9 -51 -9 -96q0 -75 23 -129.5t60 -90.5t83 -53t92 -17z" />
    <glyph glyph-name="Odieresis" unicode="&#xd6;" horiz-adv-x="803" 
d="M483 859q-16 0 -24 8.5t-8 22.5q0 19 13.5 32.5t33.5 13.5q14 0 23 -9t9 -23q0 -19 -13.5 -32t-33.5 -13zM613 859q-16 0 -24 8.5t-8 22.5q0 19 13.5 32.5t33.5 13.5q14 0 23 -9t9 -23q0 -19 -13.5 -32t-33.5 -13zM386 -11q-61 0 -112.5 23t-88.5 65t-58 100t-21 128
q0 68 18.5 128.5t51 112t75.5 92.5t93 70t104 44.5t107 15.5q63 0 116 -24t92 -66t60.5 -99.5t21.5 -124.5q0 -100 -41.5 -185t-107 -147.5t-147.5 -97.5t-163 -35zM415 26q34 0 75 8.5t83 28.5t81 51.5t69 77.5t48.5 107.5t18.5 140.5q0 72 -21.5 126.5t-57.5 91t-83 55
t-98 18.5q-45 0 -101 -17t-108.5 -54.5t-95 -98.5t-59.5 -149q-9 -51 -9 -96q0 -75 23 -129.5t60 -90.5t83 -53t92 -17z" />
    <glyph glyph-name="multiply" unicode="&#xd7;" horiz-adv-x="398" 
d="M99 189l136 114l-92 114l27 22l92 -113l135 113l18 -23l-135 -113l91 -113l-27 -23l-90 114l-137 -114z" />
    <glyph glyph-name="Oslash" unicode="&#xd8;" horiz-adv-x="803" 
d="M762 679q39 -42 61 -99.5t22 -125.5q0 -100 -41.5 -185t-107 -147.5t-147.5 -97.5t-163 -35q-54 0 -100.5 18t-82.5 51l-62 -69h-46l85 94q-35 42 -54.5 98t-19.5 124t18.5 128.5t51 112t75.5 92.5t93 70t104 44.5t107 15.5q54 0 99.5 -17t82.5 -48l51 57h47zM157 316
q0 -62 16 -110t43 -83l487 543q-35 32 -79.5 48.5t-93.5 16.5q-45 0 -101 -17t-108.5 -54.5t-95 -98.5t-59.5 -149q-9 -51 -9 -96zM415 26q34 0 75 8.5t83 28.5t81 51.5t69 77.5t48.5 107.5t18.5 140.5q0 64 -17 114t-46 86l-488 -542q37 -37 83 -54.5t93 -17.5z" />
    <glyph glyph-name="Ugrave" unicode="&#xd9;" horiz-adv-x="746" 
d="M531 810q-18 21 -38 46.5t-36 49.5t-25.5 44.5t-7.5 32.5q3 15 19 15q8 0 19 -8.5t23.5 -30t27.5 -58t31 -91.5h-13zM372 -11q-57 0 -96 13.5t-63 39t-35 60.5t-11 79q0 24 3.5 50.5t8.5 55.5l84 433l-69 30l2 10h195l-2 -10l-81 -30l-84 -433q-10 -50 -10 -92
q0 -46 12.5 -77.5t35 -51t54.5 -28t71 -8.5q48 0 87.5 13t70 43t53 79.5t36.5 121.5l84 433l-69 30l2 10h195l-2 -10l-81 -30l-84 -433q-13 -68 -36.5 -123t-60 -94t-88.5 -60t-122 -21z" />
    <glyph glyph-name="Uacute" unicode="&#xda;" horiz-adv-x="746" 
d="M466 810q38 55 66.5 91.5t49.5 58t35 30t22 8.5q16 0 13 -15q-2 -12 -19.5 -32.5t-43 -44.5t-55 -49.5t-55.5 -46.5h-13zM372 -11q-57 0 -96 13.5t-63 39t-35 60.5t-11 79q0 24 3.5 50.5t8.5 55.5l84 433l-69 30l2 10h195l-2 -10l-81 -30l-84 -433q-10 -50 -10 -92
q0 -46 12.5 -77.5t35 -51t54.5 -28t71 -8.5q48 0 87.5 13t70 43t53 79.5t36.5 121.5l84 433l-69 30l2 10h195l-2 -10l-81 -30l-84 -433q-13 -68 -36.5 -123t-60 -94t-88.5 -60t-122 -21z" />
    <glyph glyph-name="Ucircumflex" unicode="&#xdb;" horiz-adv-x="746" 
d="M389 810q43 56 70 92.5t44.5 57.5t28 29.5t19.5 8.5t16.5 -8.5t16.5 -29.5t22 -57.5t34 -92.5h-13q-24 37 -47 72.5t-38 68.5q-27 -33 -64.5 -68.5t-75.5 -72.5h-13zM372 -11q-57 0 -96 13.5t-63 39t-35 60.5t-11 79q0 24 3.5 50.5t8.5 55.5l84 433l-69 30l2 10h195
l-2 -10l-81 -30l-84 -433q-10 -50 -10 -92q0 -46 12.5 -77.5t35 -51t54.5 -28t71 -8.5q48 0 87.5 13t70 43t53 79.5t36.5 121.5l84 433l-69 30l2 10h195l-2 -10l-81 -30l-84 -433q-13 -68 -36.5 -123t-60 -94t-88.5 -60t-122 -21z" />
    <glyph glyph-name="Udieresis" unicode="&#xdc;" horiz-adv-x="746" 
d="M449 859q-16 0 -24 8.5t-8 22.5q0 19 13.5 32.5t33.5 13.5q14 0 23 -9t9 -23q0 -19 -13.5 -32t-33.5 -13zM579 859q-16 0 -24 8.5t-8 22.5q0 19 13.5 32.5t33.5 13.5q14 0 23 -9t9 -23q0 -19 -13.5 -32t-33.5 -13zM372 -11q-57 0 -96 13.5t-63 39t-35 60.5t-11 79
q0 24 3.5 50.5t8.5 55.5l84 433l-69 30l2 10h195l-2 -10l-81 -30l-84 -433q-10 -50 -10 -92q0 -46 12.5 -77.5t35 -51t54.5 -28t71 -8.5q48 0 87.5 13t70 43t53 79.5t36.5 121.5l84 433l-69 30l2 10h195l-2 -10l-81 -30l-84 -433q-13 -68 -36.5 -123t-60 -94t-88.5 -60
t-122 -21z" />
    <glyph glyph-name="Yacute" unicode="&#xdd;" horiz-adv-x="753" 
d="M480 810q38 55 66.5 91.5t49.5 58t35 30t22 8.5q16 0 13 -15q-2 -12 -19.5 -32.5t-43 -44.5t-55 -49.5t-55.5 -46.5h-13zM299 10l79 26l44 245l-166 445l-62 24l2 10h195l-2 -10l-77 -24l153 -403l282 403l-91 24l2 10h195l-2 -10l-74 -24l-309 -439l-45 -251l71 -26
l-2 -10h-195z" />
    <glyph glyph-name="Thorn" unicode="&#xde;" horiz-adv-x="629" 
d="M51 10l80 26l133 684l-69 30l2 10h195l-2 -10l-81 -30l-23 -120h169q42 0 79.5 -10.5t66 -31t45 -51t16.5 -69.5q0 -58 -25 -101t-65 -71t-90.5 -42t-102.5 -14h-169l-34 -174l70 -26l-2 -10h-195zM378 230q52 0 95.5 15.5t74.5 43.5t48 67.5t17 87.5q0 67 -44 101.5
t-123 34.5h-164l-68 -350h164z" />
    <glyph glyph-name="germandbls" unicode="&#xdf;" horiz-adv-x="581" 
d="M393 -11q-29 0 -53 8.5t-42.5 21t-31 26.5t-18.5 25l74 134h15q-15 -27 -23.5 -51t-8.5 -47q0 -38 22.5 -63.5t71.5 -25.5q22 0 47 6t46 20.5t35 39.5t14 63q0 24 -8 41.5t-19.5 30t-25.5 21t-26 14.5q-23 12 -43 24t-34.5 26t-23 31t-8.5 40q0 32 10.5 53.5t26 38.5
t33.5 31.5t33.5 32.5t26 43t10.5 63q0 28 -8 56t-23.5 49.5t-38 35t-51.5 13.5q-41 0 -64 -28.5t-36 -94.5l-123 -631l60 -26l-2 -10h-170l2 10l70 26l122 626q15 78 48 116t96 38q38 0 67 -14t48.5 -36.5t29 -52.5t9.5 -61q0 -39 -11 -66.5t-27 -48t-35 -36.5t-35 -31.5
t-27 -32.5t-11 -39q0 -31 29.5 -52t81.5 -47q37 -19 59.5 -45t22.5 -73q0 -54 -18 -90.5t-45 -59t-59.5 -32.5t-60.5 -10z" />
    <glyph glyph-name="agrave" unicode="&#xe0;" horiz-adv-x="481" 
d="M418 575q-18 21 -38 46.5t-36 49.5t-25.5 44.5t-7.5 32.5q3 15 19 15q8 0 19 -8.5t23.5 -30t27.5 -58t31 -91.5h-13zM181 -12q-48 0 -79 38t-31 118q0 73 28 137.5t77 113t116.5 77t146.5 28.5l-3 -15q-70 0 -129.5 -25.5t-103.5 -69t-69 -102t-25 -124.5
q0 -69 25.5 -107t66.5 -38q23 0 46 12t46 34t45 51.5t43 64.5l58 319h40l-88 -460h65l-2 -10l-101 -30h-10l17 80l15 67q-45 -72 -94 -115.5t-100 -43.5z" />
    <glyph glyph-name="aacute" unicode="&#xe1;" horiz-adv-x="481" 
d="M314 575q38 55 66.5 91.5t49.5 58t35 30t22 8.5q16 0 13 -15q-2 -12 -19.5 -32.5t-43 -44.5t-55 -49.5t-55.5 -46.5h-13zM181 -12q-48 0 -79 38t-31 118q0 73 28 137.5t77 113t116.5 77t146.5 28.5l-3 -15q-70 0 -129.5 -25.5t-103.5 -69t-69 -102t-25 -124.5
q0 -69 25.5 -107t66.5 -38q23 0 46 12t46 34t45 51.5t43 64.5l58 319h40l-88 -460h65l-2 -10l-101 -30h-10l17 80l15 67q-45 -72 -94 -115.5t-100 -43.5z" />
    <glyph glyph-name="acircumflex" unicode="&#xe2;" horiz-adv-x="481" 
d="M235 575q43 56 70 92.5t44.5 57.5t28 29.5t19.5 8.5t16.5 -8.5t16.5 -29.5t22 -57.5t34 -92.5h-13q-24 37 -47 72.5t-38 68.5q-27 -33 -64.5 -68.5t-75.5 -72.5h-13zM181 -12q-48 0 -79 38t-31 118q0 73 28 137.5t77 113t116.5 77t146.5 28.5l-3 -15q-70 0 -129.5 -25.5
t-103.5 -69t-69 -102t-25 -124.5q0 -69 25.5 -107t66.5 -38q23 0 46 12t46 34t45 51.5t43 64.5l58 319h40l-88 -460h65l-2 -10l-101 -30h-10l17 80l15 67q-45 -72 -94 -115.5t-100 -43.5z" />
    <glyph glyph-name="atilde" unicode="&#xe3;" horiz-adv-x="481" 
d="M241 630q14 46 40 70.5t57 24.5q21 0 33.5 -8.5t23 -18t21 -18t27.5 -8.5q43 0 73 63h8q-14 -46 -40 -70.5t-58 -24.5q-21 0 -33.5 8.5t-22.5 18t-20.5 18t-26.5 8.5q-43 0 -74 -63h-8zM181 -12q-48 0 -79 38t-31 118q0 73 28 137.5t77 113t116.5 77t146.5 28.5l-3 -15
q-70 0 -129.5 -25.5t-103.5 -69t-69 -102t-25 -124.5q0 -69 25.5 -107t66.5 -38q23 0 46 12t46 34t45 51.5t43 64.5l58 319h40l-88 -460h65l-2 -10l-101 -30h-10l17 80l15 67q-45 -72 -94 -115.5t-100 -43.5z" />
    <glyph glyph-name="adieresis" unicode="&#xe4;" horiz-adv-x="481" 
d="M327 628q-16 0 -24 8.5t-8 22.5q0 19 13.5 32.5t33.5 13.5q14 0 23 -9t9 -23q0 -19 -13.5 -32t-33.5 -13zM457 628q-16 0 -24 8.5t-8 22.5q0 19 13.5 32.5t33.5 13.5q14 0 23 -9t9 -23q0 -19 -13.5 -32t-33.5 -13zM181 -12q-48 0 -79 38t-31 118q0 73 28 137.5t77 113
t116.5 77t146.5 28.5l-3 -15q-70 0 -129.5 -25.5t-103.5 -69t-69 -102t-25 -124.5q0 -69 25.5 -107t66.5 -38q23 0 46 12t46 34t45 51.5t43 64.5l58 319h40l-88 -460h65l-2 -10l-101 -30h-10l17 80l15 67q-45 -72 -94 -115.5t-100 -43.5z" />
    <glyph glyph-name="aring" unicode="&#xe5;" horiz-adv-x="481" 
d="M360 572q-30 0 -48.5 20t-18.5 48q0 19 8.5 35.5t22 29.5t31 20.5t36.5 7.5q29 0 47.5 -19.5t18.5 -48.5q0 -18 -8.5 -35t-22 -30t-31 -20.5t-35.5 -7.5zM364 595q13 0 25.5 5.5t22.5 14.5t16 21t6 25q0 20 -13.5 34.5t-33.5 14.5q-14 0 -26.5 -5.5t-22 -14.5t-15.5 -21
t-6 -25q0 -20 13 -34.5t34 -14.5zM181 -12q-48 0 -79 38t-31 118q0 73 28 137.5t77 113t116.5 77t146.5 28.5l-3 -15q-70 0 -129.5 -25.5t-103.5 -69t-69 -102t-25 -124.5q0 -69 25.5 -107t66.5 -38q23 0 46 12t46 34t45 51.5t43 64.5l58 319h40l-88 -460h65l-2 -10
l-101 -30h-10l17 80l15 67q-45 -72 -94 -115.5t-100 -43.5z" />
    <glyph glyph-name="ae" unicode="&#xe6;" horiz-adv-x="785" 
d="M185 -12q-53 0 -83.5 38.5t-30.5 116.5q0 74 28 139t77.5 113.5t117.5 76.5t147 28h37l-19 -100q33 51 82 83t109 32q29 0 54.5 -8.5t44.5 -24.5t30 -40.5t11 -55.5q0 -35 -13 -67t-31 -57.5t-37 -44t-31 -26.5l-239 97q-23 -83 -17 -135t28.5 -81.5t55.5 -40.5t64 -11
q64 0 110.5 38.5t94.5 117.5h15q-18 -38 -43.5 -72t-57.5 -59.5t-69.5 -40.5t-80.5 -15q-26 0 -51 6t-47 20t-39 36t-27 54q-54 -60 -99.5 -88.5t-90.5 -28.5zM214 19q45 0 83.5 28.5t70.5 73.5l70 364q-69 0 -129 -25.5t-104.5 -69t-69.5 -102t-25 -124.5q0 -69 27 -107
t77 -38zM642 254q32 0 55.5 10.5t39 27.5t23 38t7.5 43q0 29 -11.5 50t-30.5 34.5t-43 20t-49 6.5q-27 0 -55 -8.5t-53.5 -29.5t-47 -55.5t-37.5 -86.5q74 -29 123.5 -39.5t78.5 -10.5z" />
    <glyph glyph-name="ccedilla" unicode="&#xe7;" horiz-adv-x="512" 
d="M273 20q36 0 66 9.5t56.5 29t51 48.5t48.5 69h15q-18 -36 -41 -68t-52.5 -57.5t-65 -41.5t-77.5 -19l-36 -47q35 0 50 -15.5t15 -37.5q0 -15 -7.5 -31.5t-20.5 -30.5t-31 -23t-39 -9q-15 0 -29 4.5t-25 12.5l1 8q21 -10 46 -10q30 0 52.5 15.5t22.5 41.5q0 17 -15 31
t-49 14l4 19l44 57h-2q-43 0 -75.5 17t-54.5 45.5t-33 66.5t-11 79q0 59 22 116t60 102t90.5 72.5t112.5 27.5q36 0 63 -8.5t45.5 -20.5t29.5 -25.5t16 -23.5l-92 -171h-15q41 76 41 129q0 42 -25.5 65.5t-76.5 23.5q-41 0 -82.5 -17.5t-74.5 -51t-53.5 -83.5t-20.5 -114
q0 -47 12 -83.5t32.5 -62t48 -39t59.5 -13.5z" />
    <glyph glyph-name="egrave" unicode="&#xe8;" horiz-adv-x="505" 
d="M401 575q-18 21 -38 46.5t-36 49.5t-25.5 44.5t-7.5 32.5q3 15 19 15q8 0 19 -8.5t23.5 -30t27.5 -58t31 -91.5h-13zM273 20q36 0 66 9.5t56.5 29t51 48.5t48.5 69h15q-19 -38 -44.5 -71.5t-58 -59.5t-72 -41t-85.5 -15q-43 0 -75 17t-53 45.5t-31 65.5t-10 78
q0 59 21.5 116.5t60.5 102.5t92.5 73t116.5 28q31 0 59 -10.5t47 -30.5t27.5 -48.5t1.5 -65.5q-6 -33 -20 -61t-30.5 -49.5t-33 -36.5t-26.5 -22l-266 108q-10 -36 -10 -81q0 -47 12 -83.5t32.5 -62t48 -39t59.5 -13.5zM359 484q-80 0 -140 -45.5t-84 -125.5
q76 -28 128.5 -43.5t92.5 -15.5q30 0 52 8.5t37.5 22t25 31t12.5 36.5q7 35 -2.5 60t-29 41t-44.5 23.5t-48 7.5z" />
    <glyph glyph-name="eacute" unicode="&#xe9;" horiz-adv-x="505" 
d="M502 748q-2 -12 -19.5 -32.5t-43 -44.5t-55 -49.5t-55.5 -46.5h-13q38 55 66.5 91.5t49.5 58t35 30t22 8.5q16 0 13 -15zM273 20q36 0 66 9.5t56.5 29t51 48.5t48.5 69h15q-19 -38 -44.5 -71.5t-58 -59.5t-72 -41t-85.5 -15q-43 0 -75 17t-53 45.5t-31 65.5t-10 78
q0 59 21.5 116.5t60.5 102.5t92.5 73t116.5 28q31 0 59 -10.5t47 -30.5t27.5 -48.5t1.5 -65.5q-6 -33 -20 -61t-30.5 -49.5t-33 -36.5t-26.5 -22l-266 108q-10 -36 -10 -81q0 -47 12 -83.5t32.5 -62t48 -39t59.5 -13.5zM359 484q-80 0 -140 -45.5t-84 -125.5
q76 -28 128.5 -43.5t92.5 -15.5q30 0 52 8.5t37.5 22t25 31t12.5 36.5q7 35 -2.5 60t-29 41t-44.5 23.5t-48 7.5z" />
    <glyph glyph-name="ecircumflex" unicode="&#xea;" horiz-adv-x="505" 
d="M392 716q-27 -33 -64.5 -68.5t-75.5 -72.5h-13q43 56 70 92.5t44.5 57.5t28 29.5t19.5 8.5t16.5 -8.5t16.5 -29.5t22 -57.5t34 -92.5h-13q-24 37 -47 72.5t-38 68.5zM273 20q36 0 66 9.5t56.5 29t51 48.5t48.5 69h15q-19 -38 -44.5 -71.5t-58 -59.5t-72 -41t-85.5 -15
q-43 0 -75 17t-53 45.5t-31 65.5t-10 78q0 59 21.5 116.5t60.5 102.5t92.5 73t116.5 28q31 0 59 -10.5t47 -30.5t27.5 -48.5t1.5 -65.5q-6 -33 -20 -61t-30.5 -49.5t-33 -36.5t-26.5 -22l-266 108q-10 -36 -10 -81q0 -47 12 -83.5t32.5 -62t48 -39t59.5 -13.5zM359 484
q-80 0 -140 -45.5t-84 -125.5q76 -28 128.5 -43.5t92.5 -15.5q30 0 52 8.5t37.5 22t25 31t12.5 36.5q7 35 -2.5 60t-29 41t-44.5 23.5t-48 7.5z" />
    <glyph glyph-name="edieresis" unicode="&#xeb;" horiz-adv-x="505" 
d="M304 628q-16 0 -24 8.5t-8 22.5q0 19 13.5 32.5t33.5 13.5q14 0 23 -9t9 -23q0 -19 -13.5 -32t-33.5 -13zM434 628q-16 0 -24 8.5t-8 22.5q0 19 13.5 32.5t33.5 13.5q14 0 23 -9t9 -23q0 -19 -13.5 -32t-33.5 -13zM273 20q36 0 66 9.5t56.5 29t51 48.5t48.5 69h15
q-19 -38 -44.5 -71.5t-58 -59.5t-72 -41t-85.5 -15q-43 0 -75 17t-53 45.5t-31 65.5t-10 78q0 59 21.5 116.5t60.5 102.5t92.5 73t116.5 28q31 0 59 -10.5t47 -30.5t27.5 -48.5t1.5 -65.5q-6 -33 -20 -61t-30.5 -49.5t-33 -36.5t-26.5 -22l-266 108q-10 -36 -10 -81
q0 -47 12 -83.5t32.5 -62t48 -39t59.5 -13.5zM359 484q-80 0 -140 -45.5t-84 -125.5q76 -28 128.5 -43.5t92.5 -15.5q30 0 52 8.5t37.5 22t25 31t12.5 36.5q7 35 -2.5 60t-29 41t-44.5 23.5t-48 7.5z" />
    <glyph glyph-name="igrave" unicode="&#xec;" horiz-adv-x="243" 
d="M270 575q-18 21 -38 46.5t-36 49.5t-25.5 44.5t-7.5 32.5q3 15 19 15q8 0 19 -8.5t23.5 -30t27.5 -58t31 -91.5h-13zM192 462l-66 -2l2 10l101 30h11l-90 -460h66l-2 -10l-103 -30h-8z" />
    <glyph glyph-name="iacute" unicode="&#xed;" horiz-adv-x="243" 
d="M145 575q38 55 66.5 91.5t49.5 58t35 30t22 8.5q16 0 13 -15q-2 -12 -19.5 -32.5t-43 -44.5t-55 -49.5t-55.5 -46.5h-13zM192 462l-66 -2l2 10l101 30h11l-90 -460h66l-2 -10l-103 -30h-8z" />
    <glyph glyph-name="icircumflex" unicode="&#xee;" horiz-adv-x="247" 
d="M104 575q43 56 70 92.5t44.5 57.5t28 29.5t19.5 8.5t16.5 -8.5t16.5 -29.5t22 -57.5t34 -92.5h-13q-24 37 -47 72.5t-38 68.5q-27 -33 -64.5 -68.5t-75.5 -72.5h-13zM194 462l-66 -2l2 10l101 30h11l-90 -460h66l-2 -10l-103 -30h-8z" />
    <glyph glyph-name="idieresis" unicode="&#xef;" horiz-adv-x="241" 
d="M177 628q-16 0 -24 8.5t-8 22.5q0 19 13.5 32.5t33.5 13.5q14 0 23 -9t9 -23q0 -19 -13.5 -32t-33.5 -13zM307 628q-16 0 -24 8.5t-8 22.5q0 19 13.5 32.5t33.5 13.5q14 0 23 -9t9 -23q0 -19 -13.5 -32t-33.5 -13zM192 462l-66 -2l2 10l101 30h11l-90 -460h66l-2 -10
l-103 -30h-8z" />
    <glyph glyph-name="eth" unicode="&#xf0;" horiz-adv-x="529" 
d="M477 675q33 -61 55.5 -135.5t22.5 -162.5q0 -77 -19 -147t-56 -123.5t-90 -85.5t-122 -32q-50 0 -85.5 19.5t-57.5 51t-32 70t-10 76.5q0 48 20 102.5t56.5 100.5t88 76t115.5 30q48 0 82.5 -19.5t62.5 -57.5h5q-8 67 -29 123t-50 103l-128 -32l-3 23l119 30
q-23 35 -46 63.5t-43 51.5h57q19 -22 38 -48t37 -56l117 29l2 -23zM278 20q46 0 86.5 22t71 59.5t48 87t17.5 105.5q0 38 -9 72.5t-28 60.5t-47 41.5t-65 15.5q-48 0 -89.5 -21t-73 -57t-49.5 -83t-18 -99q0 -40 10.5 -76.5t30.5 -65t49 -45.5t66 -17z" />
    <glyph glyph-name="ntilde" unicode="&#xf1;" horiz-adv-x="542" 
d="M262 630q14 46 40 70.5t57 24.5q21 0 33.5 -8.5t23 -18t21 -18t27.5 -8.5q43 0 73 63h8q-14 -46 -40 -70.5t-58 -24.5q-21 0 -33.5 8.5t-22.5 18t-20.5 18t-26.5 8.5q-43 0 -74 -63h-8zM192 460h-66l2 10l101 30h10l-50 -263q5 16 16.5 43t27.5 57.5t37 62.5t46.5 57.5
t54.5 41.5t62 16q35 0 59.5 -22.5t24.5 -76.5q0 -11 -1 -24t-4 -27l-64 -325h66l-2 -10l-104 -30h-8l65 335q7 35 7 63q0 49 -18.5 67.5t-42.5 18.5q-25 0 -49.5 -16t-47.5 -41.5t-44 -57.5t-38 -64.5t-29.5 -63t-19.5 -51.5l-43 -190h-40z" />
    <glyph glyph-name="ograve" unicode="&#xf2;" horiz-adv-x="528" 
d="M402 575q-18 21 -38 46.5t-36 49.5t-25.5 44.5t-7.5 32.5q3 15 19 15q8 0 19 -8.5t23.5 -30t27.5 -58t31 -91.5h-13zM264 -11q-48 0 -82.5 19.5t-56.5 51t-32.5 70t-10.5 76.5q0 47 19 101t55.5 100.5t90 77t123.5 30.5q48 0 81 -19t53.5 -49.5t30 -68t9.5 -73.5
q0 -47 -19 -102t-55 -102.5t-88 -79.5t-118 -32zM283 20q42 0 81.5 22t70 59.5t48.5 87t18 104.5q0 38 -9 72.5t-27.5 61t-46 42t-64.5 15.5q-50 0 -92 -21t-73.5 -57t-49 -83.5t-17.5 -100.5q0 -39 10.5 -75t30.5 -64.5t50.5 -45.5t69.5 -17z" />
    <glyph glyph-name="oacute" unicode="&#xf3;" horiz-adv-x="528" 
d="M317 575q38 55 66.5 91.5t49.5 58t35 30t22 8.5q16 0 13 -15q-2 -12 -19.5 -32.5t-43 -44.5t-55 -49.5t-55.5 -46.5h-13zM264 -11q-48 0 -82.5 19.5t-56.5 51t-32.5 70t-10.5 76.5q0 47 19 101t55.5 100.5t90 77t123.5 30.5q48 0 81 -19t53.5 -49.5t30 -68t9.5 -73.5
q0 -47 -19 -102t-55 -102.5t-88 -79.5t-118 -32zM283 20q42 0 81.5 22t70 59.5t48.5 87t18 104.5q0 38 -9 72.5t-27.5 61t-46 42t-64.5 15.5q-50 0 -92 -21t-73.5 -57t-49 -83.5t-17.5 -100.5q0 -39 10.5 -75t30.5 -64.5t50.5 -45.5t69.5 -17z" />
    <glyph glyph-name="ocircumflex" unicode="&#xf4;" horiz-adv-x="528" 
d="M250 575q43 56 70 92.5t44.5 57.5t28 29.5t19.5 8.5t16.5 -8.5t16.5 -29.5t22 -57.5t34 -92.5h-13q-24 37 -47 72.5t-38 68.5q-27 -33 -64.5 -68.5t-75.5 -72.5h-13zM264 -11q-48 0 -82.5 19.5t-56.5 51t-32.5 70t-10.5 76.5q0 47 19 101t55.5 100.5t90 77t123.5 30.5
q48 0 81 -19t53.5 -49.5t30 -68t9.5 -73.5q0 -47 -19 -102t-55 -102.5t-88 -79.5t-118 -32zM283 20q42 0 81.5 22t70 59.5t48.5 87t18 104.5q0 38 -9 72.5t-27.5 61t-46 42t-64.5 15.5q-50 0 -92 -21t-73.5 -57t-49 -83.5t-17.5 -100.5q0 -39 10.5 -75t30.5 -64.5
t50.5 -45.5t69.5 -17z" />
    <glyph glyph-name="otilde" unicode="&#xf5;" horiz-adv-x="528" 
d="M255 630q14 46 40 70.5t57 24.5q21 0 33.5 -8.5t23 -18t21 -18t27.5 -8.5q43 0 73 63h8q-14 -46 -40 -70.5t-58 -24.5q-21 0 -33.5 8.5t-22.5 18t-20.5 18t-26.5 8.5q-43 0 -74 -63h-8zM264 -11q-48 0 -82.5 19.5t-56.5 51t-32.5 70t-10.5 76.5q0 47 19 101t55.5 100.5
t90 77t123.5 30.5q48 0 81 -19t53.5 -49.5t30 -68t9.5 -73.5q0 -47 -19 -102t-55 -102.5t-88 -79.5t-118 -32zM283 20q42 0 81.5 22t70 59.5t48.5 87t18 104.5q0 38 -9 72.5t-27.5 61t-46 42t-64.5 15.5q-50 0 -92 -21t-73.5 -57t-49 -83.5t-17.5 -100.5q0 -39 10.5 -75
t30.5 -64.5t50.5 -45.5t69.5 -17z" />
    <glyph glyph-name="odieresis" unicode="&#xf6;" horiz-adv-x="528" 
d="M325 628q-16 0 -24 8.5t-8 22.5q0 19 13.5 32.5t33.5 13.5q14 0 23 -9t9 -23q0 -19 -13.5 -32t-33.5 -13zM455 628q-16 0 -24 8.5t-8 22.5q0 19 13.5 32.5t33.5 13.5q14 0 23 -9t9 -23q0 -19 -13.5 -32t-33.5 -13zM264 -11q-48 0 -82.5 19.5t-56.5 51t-32.5 70
t-10.5 76.5q0 47 19 101t55.5 100.5t90 77t123.5 30.5q48 0 81 -19t53.5 -49.5t30 -68t9.5 -73.5q0 -47 -19 -102t-55 -102.5t-88 -79.5t-118 -32zM283 20q42 0 81.5 22t70 59.5t48.5 87t18 104.5q0 38 -9 72.5t-27.5 61t-46 42t-64.5 15.5q-50 0 -92 -21t-73.5 -57
t-49 -83.5t-17.5 -100.5q0 -39 10.5 -75t30.5 -64.5t50.5 -45.5t69.5 -17z" />
    <glyph glyph-name="divide" unicode="&#xf7;" horiz-adv-x="479" 
d="M306 372q-19 0 -29 10.5t-10 27.5q0 23 16.5 39.5t40.5 16.5q18 0 28.5 -11t10.5 -28q0 -23 -16.5 -39t-40.5 -16zM120 297h353l-6 -32h-353zM232 96q-19 0 -29 10.5t-10 27.5q0 23 16.5 39.5t40.5 16.5q18 0 28.5 -11t10.5 -28q0 -23 -16.5 -39t-40.5 -16z" />
    <glyph glyph-name="oslash" unicode="&#xf8;" horiz-adv-x="528" 
d="M506 445q20 -31 29 -67.5t9 -72.5q0 -47 -19 -102t-55 -102.5t-88 -79.5t-118 -32q-40 0 -70.5 13.5t-52.5 36.5l-46 -51h-47l71 79q-19 31 -28 67.5t-9 71.5q0 47 19 101t55.5 100.5t90 77t123.5 30.5q37 0 65 -11.5t48 -31.5l40 44h47zM122 222q0 -67 29 -120l303 337
q-18 21 -43 33t-57 12q-50 0 -92 -21t-73.5 -57t-49 -83.5t-17.5 -100.5zM501 293q0 67 -27 117l-303 -338q20 -24 48 -38t64 -14q42 0 81.5 22t70 59.5t48.5 87t18 104.5z" />
    <glyph glyph-name="ugrave" unicode="&#xf9;" horiz-adv-x="521" 
d="M369 575q-18 21 -38 46.5t-36 49.5t-25.5 44.5t-7.5 32.5q3 15 19 15q8 0 19 -8.5t23.5 -30t27.5 -58t31 -91.5h-13zM214 -11q-42 0 -67 21.5t-25 78.5q0 18 7.5 63t18 100t22.5 111t21 97h-66l2 10l101 30h10l-64 -332q-4 -19 -5.5 -34.5t-1.5 -27.5q0 -46 20 -66
t54 -20q110 0 181 196l48 244h-66l2 10l101 30h10l-90 -460h66l-2 -10l-101 -30h-10l31 159q-14 -36 -33.5 -67t-44 -54t-54 -36t-65.5 -13z" />
    <glyph glyph-name="uacute" unicode="&#xfa;" horiz-adv-x="521" 
d="M314 575q38 55 66.5 91.5t49.5 58t35 30t22 8.5q16 0 13 -15q-2 -12 -19.5 -32.5t-43 -44.5t-55 -49.5t-55.5 -46.5h-13zM214 -11q-42 0 -67 21.5t-25 78.5q0 18 7.5 63t18 100t22.5 111t21 97h-66l2 10l101 30h10l-64 -332q-4 -19 -5.5 -34.5t-1.5 -27.5q0 -46 20 -66
t54 -20q110 0 181 196l48 244h-66l2 10l101 30h10l-90 -460h66l-2 -10l-101 -30h-10l31 159q-14 -36 -33.5 -67t-44 -54t-54 -36t-65.5 -13z" />
    <glyph glyph-name="ucircumflex" unicode="&#xfb;" horiz-adv-x="521" 
d="M247 575q43 56 70 92.5t44.5 57.5t28 29.5t19.5 8.5t16.5 -8.5t16.5 -29.5t22 -57.5t34 -92.5h-13q-24 37 -47 72.5t-38 68.5q-27 -33 -64.5 -68.5t-75.5 -72.5h-13zM214 -11q-42 0 -67 21.5t-25 78.5q0 18 7.5 63t18 100t22.5 111t21 97h-66l2 10l101 30h10l-64 -332
q-4 -19 -5.5 -34.5t-1.5 -27.5q0 -46 20 -66t54 -20q110 0 181 196l48 244h-66l2 10l101 30h10l-90 -460h66l-2 -10l-101 -30h-10l31 159q-14 -36 -33.5 -67t-44 -54t-54 -36t-65.5 -13z" />
    <glyph glyph-name="udieresis" unicode="&#xfc;" horiz-adv-x="521" 
d="M300 628q-16 0 -24 8.5t-8 22.5q0 19 13.5 32.5t33.5 13.5q14 0 23 -9t9 -23q0 -19 -13.5 -32t-33.5 -13zM430 628q-16 0 -24 8.5t-8 22.5q0 19 13.5 32.5t33.5 13.5q14 0 23 -9t9 -23q0 -19 -13.5 -32t-33.5 -13zM214 -11q-42 0 -67 21.5t-25 78.5q0 18 7.5 63t18 100
t22.5 111t21 97h-66l2 10l101 30h10l-64 -332q-4 -19 -5.5 -34.5t-1.5 -27.5q0 -46 20 -66t54 -20q110 0 181 196l48 244h-66l2 10l101 30h10l-90 -460h66l-2 -10l-101 -30h-10l31 159q-14 -36 -33.5 -67t-44 -54t-54 -36t-65.5 -13z" />
    <glyph glyph-name="yacute" unicode="&#xfd;" horiz-adv-x="476" 
d="M335 575q38 55 66.5 91.5t49.5 58t35 30t22 8.5q16 0 13 -15q-2 -12 -19.5 -32.5t-43 -44.5t-55 -49.5t-55.5 -46.5h-13zM112 -206q-33 0 -53 22t-34 54h15q15 -32 32 -45t34 -13q19 0 40.5 12.5t44 35.5t45 55t42.5 71l-77 474h-76l2 10l101 30h10l74 -465l155 285
q19 36 32 68t13 55q0 37 -38 37q-15 0 -35.5 -10t-49.5 -36v20q31 32 55.5 42t42.5 10q24 0 39 -12t15 -40q0 -23 -12 -58.5t-36 -79.5l-184 -330q-32 -57 -59.5 -94t-52 -58.5t-46 -30.5t-39.5 -9z" />
    <glyph glyph-name="thorn" unicode="&#xfe;" horiz-adv-x="460" 
d="M-44 -190l67 16l184 934h-64l2 10l101 30h10l-56 -295q82 4 136 -16t86 -53.5t45 -76t13 -82.5q0 -44 -16 -94.5t-46.5 -93.5t-76 -71.5t-105.5 -28.5q-92 0 -127 68l-45 -231l62 -16l-2 -10h-170zM235 20q38 0 74.5 18t65 50.5t45.5 78t17 99.5q0 42 -13 84t-41.5 74
t-74 51t-110.5 15l-57 -271q-8 -43 -8 -74q0 -58 24.5 -91.5t77.5 -33.5z" />
    <glyph glyph-name="ydieresis" unicode="&#xff;" horiz-adv-x="476" 
d="M308 628q-16 0 -24 8.5t-8 22.5q0 19 13.5 32.5t33.5 13.5q14 0 23 -9t9 -23q0 -19 -13.5 -32t-33.5 -13zM438 628q-16 0 -24 8.5t-8 22.5q0 19 13.5 32.5t33.5 13.5q14 0 23 -9t9 -23q0 -19 -13.5 -32t-33.5 -13zM112 -206q-33 0 -53 22t-34 54h15q15 -32 32 -45t34 -13
q19 0 40.5 12.5t44 35.5t45 55t42.5 71l-77 474h-76l2 10l101 30h10l74 -465l155 285q19 36 32 68t13 55q0 37 -38 37q-15 0 -35.5 -10t-49.5 -36v20q31 32 55.5 42t42.5 10q24 0 39 -12t15 -40q0 -23 -12 -58.5t-36 -79.5l-184 -330q-32 -57 -59.5 -94t-52 -58.5t-46 -30.5
t-39.5 -9z" />
    <glyph glyph-name="Amacron" unicode="&#x100;" horiz-adv-x="891" 
d="M474 898h263l-7 -38h-263zM50 10l79 26l443 732h30l177 -732l66 -26l-2 -10h-195l2 10l74 26l-71 307h-306l-183 -307l81 -26l-2 -10h-195zM646 373l-80 339l-201 -339h281z" />
    <glyph glyph-name="amacron" unicode="&#x101;" horiz-adv-x="481" 
d="M259 680h263l-7 -38h-263zM181 -12q-48 0 -79 38t-31 118q0 73 28 137.5t77 113t116.5 77t146.5 28.5l-3 -15q-70 0 -129.5 -25.5t-103.5 -69t-69 -102t-25 -124.5q0 -69 25.5 -107t66.5 -38q23 0 46 12t46 34t45 51.5t43 64.5l58 319h40l-88 -460h65l-2 -10l-101 -30
h-10l17 80l15 67q-45 -72 -94 -115.5t-100 -43.5z" />
    <glyph glyph-name="Abreve" unicode="&#x102;" horiz-adv-x="891" 
d="M601 810q-24 0 -46.5 9.5t-37.5 32t-20 58t5 88.5h13q-5 -26 -4 -52t11.5 -47t31 -34t55.5 -13q34 0 60 13t44.5 34t29.5 47t16 52h13q-10 -53 -29 -88.5t-42.5 -58t-49.5 -32t-50 -9.5zM50 10l79 26l443 732h30l177 -732l66 -26l-2 -10h-195l2 10l74 26l-71 307h-306
l-183 -307l81 -26l-2 -10h-195zM646 373l-80 339l-201 -339h281z" />
    <glyph glyph-name="abreve" unicode="&#x103;" horiz-adv-x="481" 
d="M355 575q-24 0 -46.5 9.5t-37.5 32t-20 58t5 88.5h13q-5 -26 -4 -52t11.5 -47t31 -34t55.5 -13q34 0 60 13t44.5 34t29.5 47t16 52h13q-10 -53 -29 -88.5t-42.5 -58t-49.5 -32t-50 -9.5zM181 -12q-48 0 -79 38t-31 118q0 73 28 137.5t77 113t116.5 77t146.5 28.5l-3 -15
q-70 0 -129.5 -25.5t-103.5 -69t-69 -102t-25 -124.5q0 -69 25.5 -107t66.5 -38q23 0 46 12t46 34t45 51.5t43 64.5l58 319h40l-88 -460h65l-2 -10l-101 -30h-10l17 80l15 67q-45 -72 -94 -115.5t-100 -43.5z" />
    <glyph glyph-name="Aogonek" unicode="&#x104;" horiz-adv-x="891" 
d="M752 0q-8 -6 -23 -19.5t-29.5 -32t-25.5 -40t-11 -42.5q0 -22 11.5 -34.5t31.5 -12.5q14 0 30 7t33 21h5q-22 -26 -44.5 -40t-45.5 -14t-38 15.5t-15 41.5t14.5 51t33.5 45t37 34.5t25 19.5h-93l2 10l74 26l-71 307h-306l-183 -307l81 -26l-2 -10h-195l2 10l79 26
l443 732h30l177 -732l66 -26l-2 -10h-91zM646 373l-80 339l-201 -339h281z" />
    <glyph glyph-name="aogonek" unicode="&#x105;" horiz-adv-x="481" 
d="M391 40h65l-2 -10l-100 -30q-8 -6 -22.5 -19.5t-29.5 -32t-26 -40t-11 -42.5q0 -22 11.5 -34.5t31.5 -12.5q14 0 30 7t33 21h5q-22 -26 -44.5 -40t-45.5 -14t-38 15.5t-15 41.5q0 27 15 51.5t34 45t37 34.5t24 19l17 80l15 67q-45 -72 -94 -115.5t-100 -43.5
q-48 0 -79 38t-31 118q0 73 28 137.5t77 113t116.5 77t146.5 28.5l-3 -15q-70 0 -129.5 -25.5t-103.5 -69t-69 -102t-25 -124.5q0 -69 25.5 -107t66.5 -38q23 0 46 12t46 34t45 51.5t43 64.5l58 319h40z" />
    <glyph glyph-name="Cacute" unicode="&#x106;" horiz-adv-x="816" 
d="M494 810q38 55 66.5 91.5t49.5 58t35 30t22 8.5q16 0 13 -15q-2 -12 -19.5 -32.5t-43 -44.5t-55 -49.5t-55.5 -46.5h-13zM404 -11q-61 0 -114 19.5t-92 57t-61.5 91.5t-22.5 124q0 42 9 90q17 86 60.5 159t106 126t138.5 82.5t159 29.5q54 0 94.5 -11.5t67.5 -26.5
t41.5 -29t16.5 -19l-44 -222h-15q9 46 9 84q0 52 -15 87.5t-41 57.5t-60 32t-73 10q-24 0 -58 -4.5t-73.5 -17t-80 -35t-76.5 -59t-64 -89t-42 -124.5q-9 -51 -9 -94q0 -78 25 -132t64 -87.5t88 -48t97 -14.5q112 0 207.5 70.5t164.5 204.5h15q-32 -67 -76 -124t-98 -99
t-116.5 -65.5t-131.5 -23.5z" />
    <glyph glyph-name="cacute" unicode="&#x107;" horiz-adv-x="512" 
d="M279 575q38 55 66.5 91.5t49.5 58t35 30t22 8.5q16 0 13 -15q-2 -12 -19.5 -32.5t-43 -44.5t-55 -49.5t-55.5 -46.5h-13zM255 -11q-43 0 -75.5 17t-54.5 45.5t-33 66.5t-11 79q0 59 22 116t60 102t90.5 72.5t112.5 27.5q36 0 63 -8.5t45.5 -20.5t29.5 -25.5t16 -23.5
l-92 -171h-15q41 76 41 129q0 42 -25.5 65.5t-76.5 23.5q-41 0 -82.5 -17.5t-74.5 -51t-53.5 -83.5t-20.5 -114q0 -47 12 -83.5t32.5 -62t48 -39t59.5 -13.5q36 0 66 9.5t56.5 29t51 48.5t48.5 69h15q-19 -38 -44 -71.5t-56.5 -59.5t-70 -41t-84.5 -15z" />
    <glyph glyph-name="Cdotaccent" unicode="&#x10a;" horiz-adv-x="816" 
d="M576 860q-21 0 -32 12t-11 30q0 25 18 43.5t45 18.5q20 0 31.5 -12.5t11.5 -30.5q0 -26 -18.5 -43.5t-44.5 -17.5zM404 -11q-61 0 -114 19.5t-92 57t-61.5 91.5t-22.5 124q0 42 9 90q17 86 60.5 159t106 126t138.5 82.5t159 29.5q54 0 94.5 -11.5t67.5 -26.5t41.5 -29
t16.5 -19l-44 -222h-15q9 46 9 84q0 52 -15 87.5t-41 57.5t-60 32t-73 10q-24 0 -58 -4.5t-73.5 -17t-80 -35t-76.5 -59t-64 -89t-42 -124.5q-9 -51 -9 -94q0 -78 25 -132t64 -87.5t88 -48t97 -14.5q112 0 207.5 70.5t164.5 204.5h15q-32 -67 -76 -124t-98 -99t-116.5 -65.5
t-131.5 -23.5z" />
    <glyph glyph-name="cdotaccent" unicode="&#x10b;" horiz-adv-x="512" 
d="M373 605q-21 0 -32 12t-11 30q0 25 18 43.5t45 18.5q20 0 31.5 -12.5t11.5 -30.5q0 -26 -18.5 -43.5t-44.5 -17.5zM255 -11q-43 0 -75.5 17t-54.5 45.5t-33 66.5t-11 79q0 59 22 116t60 102t90.5 72.5t112.5 27.5q36 0 63 -8.5t45.5 -20.5t29.5 -25.5t16 -23.5l-92 -171
h-15q41 76 41 129q0 42 -25.5 65.5t-76.5 23.5q-41 0 -82.5 -17.5t-74.5 -51t-53.5 -83.5t-20.5 -114q0 -47 12 -83.5t32.5 -62t48 -39t59.5 -13.5q36 0 66 9.5t56.5 29t51 48.5t48.5 69h15q-19 -38 -44 -71.5t-56.5 -59.5t-70 -41t-84.5 -15z" />
    <glyph glyph-name="Ccaron" unicode="&#x10c;" horiz-adv-x="816" 
d="M735 998q-43 -56 -70 -92.5t-44.5 -57.5t-28 -29.5t-19.5 -8.5t-16.5 8.5t-16.5 29.5t-22 57.5t-34 92.5h13q24 -37 47 -72.5t38 -68.5q27 33 64.5 68.5t75.5 72.5h13zM404 -11q-61 0 -114 19.5t-92 57t-61.5 91.5t-22.5 124q0 42 9 90q17 86 60.5 159t106 126
t138.5 82.5t159 29.5q54 0 94.5 -11.5t67.5 -26.5t41.5 -29t16.5 -19l-44 -222h-15q9 46 9 84q0 52 -15 87.5t-41 57.5t-60 32t-73 10q-24 0 -58 -4.5t-73.5 -17t-80 -35t-76.5 -59t-64 -89t-42 -124.5q-9 -51 -9 -94q0 -78 25 -132t64 -87.5t88 -48t97 -14.5
q112 0 207.5 70.5t164.5 204.5h15q-32 -67 -76 -124t-98 -99t-116.5 -65.5t-131.5 -23.5z" />
    <glyph glyph-name="ccaron" unicode="&#x10d;" horiz-adv-x="512" 
d="M538 763q-43 -56 -70 -92.5t-44.5 -57.5t-28 -29.5t-19.5 -8.5t-16.5 8.5t-16.5 29.5t-22 57.5t-34 92.5h13q24 -37 47 -72.5t38 -68.5q27 33 64.5 68.5t75.5 72.5h13zM255 -11q-43 0 -75.5 17t-54.5 45.5t-33 66.5t-11 79q0 59 22 116t60 102t90.5 72.5t112.5 27.5
q36 0 63 -8.5t45.5 -20.5t29.5 -25.5t16 -23.5l-92 -171h-15q41 76 41 129q0 42 -25.5 65.5t-76.5 23.5q-41 0 -82.5 -17.5t-74.5 -51t-53.5 -83.5t-20.5 -114q0 -47 12 -83.5t32.5 -62t48 -39t59.5 -13.5q36 0 66 9.5t56.5 29t51 48.5t48.5 69h15q-19 -38 -44 -71.5
t-56.5 -59.5t-70 -41t-84.5 -15z" />
    <glyph glyph-name="Dcaron" unicode="&#x10e;" horiz-adv-x="780" 
d="M678 998q-43 -56 -70 -92.5t-44.5 -57.5t-28 -29.5t-19.5 -8.5t-16.5 8.5t-16.5 29.5t-22 57.5t-34 92.5h13q24 -37 47 -72.5t38 -68.5q27 33 64.5 68.5t75.5 72.5h13zM51 10l80 26l133 684l-69 30l2 10h335q139 0 215.5 -73.5t76.5 -219.5q0 -96 -33.5 -181t-92 -148.5
t-139 -100.5t-174.5 -37h-336zM360 20q86 0 161 37.5t130.5 99.5t87 142t31.5 164q0 140 -70.5 208.5t-199.5 68.5h-187l-140 -720h187z" />
    <glyph glyph-name="dcaron" unicode="&#x10f;" horiz-adv-x="538" 
d="M653 802q16 0 26 -9.5t10 -28.5q0 -3 -0.5 -6.5t-1.5 -8.5q-3 -16 -12.5 -39.5t-25.5 -50.5t-37 -54t-47 -50h-10q29 29 45 54t21 49q2 6 2 13.5v15.5q0 20 -4 41t-13 35q4 22 18.5 30.5t28.5 8.5zM565 800l-156 -800h-40q-83 0 -137.5 20t-86.5 52.5t-45.5 72.5
t-13.5 80q0 43 16 94t47 94.5t76.5 72.5t105.5 29q24 0 42.5 -7t33.5 -19t26.5 -26.5t19.5 -29.5l64 327h-65l2 10l101 30h10zM448 404q-8 14 -18.5 28t-25 25.5t-32.5 19t-40 7.5q-38 0 -74.5 -19t-65 -52t-46 -78t-17.5 -98q0 -41 13.5 -79.5t42.5 -69t75.5 -50.5
t111.5 -23z" />
    <glyph glyph-name="Dcroat" unicode="&#x110;" horiz-adv-x="780" 
d="M532 760q139 0 215.5 -73.5t76.5 -219.5q0 -96 -33.5 -181t-92 -148.5t-139 -100.5t-174.5 -37h-336l2 10l80 26l63 325h-97l7 38h98l62 321l-69 30l2 10h335zM360 20q86 0 161 37.5t130.5 99.5t87 142t31.5 164q0 140 -70.5 208.5t-199.5 68.5h-187l-66 -341h100l-7 -38
h-101l-66 -341h187z" />
    <glyph glyph-name="dcroat" unicode="&#x111;" horiz-adv-x="459" 
d="M584 616h-55l-120 -616h-40q-83 0 -137.5 20t-86.5 52.5t-45.5 72.5t-13.5 80q0 43 16 94t47 94.5t76.5 72.5t105.5 29q24 0 42.5 -7t33.5 -19t26.5 -26.5t19.5 -29.5l36 183h-148l7 38h148l21 106h-65l2 10l101 30h10l-28 -146h54zM448 404q-8 14 -18.5 28t-25 25.5
t-32.5 19t-40 7.5q-38 0 -74.5 -19t-65 -52t-46 -78t-17.5 -98q0 -41 13.5 -79.5t42.5 -69t75.5 -50.5t111.5 -23z" />
    <glyph glyph-name="Emacron" unicode="&#x112;" horiz-adv-x="568" 
d="M321 898h263l-7 -38h-263zM51 10l80 26l133 684l-69 30l2 10h425q-2 -21 -2 -38t1.5 -34t3 -37t2.5 -46h-10l-41 125h-265l-60 -306h185l42 85h10l-39 -200h-10l-8 85h-185l-71 -364h275l89 125h10q-11 -26 -20 -46t-17 -37t-15 -34t-13 -38h-435z" />
    <glyph glyph-name="emacron" unicode="&#x113;" horiz-adv-x="505" 
d="M508 642h-263l7 38h263zM131 299q-10 -36 -10 -81q0 -47 12 -83.5t32.5 -62t48 -39t59.5 -13.5q36 0 66 9.5t56.5 29t51 48.5t48.5 69h15q-19 -38 -44.5 -71.5t-58 -59.5t-72 -41t-85.5 -15q-43 0 -75 17t-53 45.5t-31 65.5t-10 78q0 59 21.5 116.5t60.5 102.5t92.5 73
t116.5 28q31 0 59 -10.5t47 -30.5t27.5 -48.5t1.5 -65.5q-6 -33 -20 -61t-30.5 -49.5t-33 -36.5t-26.5 -22zM359 484q-80 0 -140 -45.5t-84 -125.5q76 -28 128.5 -43.5t92.5 -15.5q30 0 52 8.5t37.5 22t25 31t12.5 36.5q7 35 -2.5 60t-29 41t-44.5 23.5t-48 7.5z" />
    <glyph glyph-name="Edotaccent" unicode="&#x116;" horiz-adv-x="568" 
d="M442 860q-21 0 -32 12t-11 30q0 25 18 43.5t45 18.5q20 0 31.5 -12.5t11.5 -30.5q0 -26 -18.5 -43.5t-44.5 -17.5zM51 10l80 26l133 684l-69 30l2 10h425q-2 -21 -2 -38t1.5 -34t3 -37t2.5 -46h-10l-41 125h-265l-60 -306h185l42 85h10l-39 -200h-10l-8 85h-185l-71 -364
h275l89 125h10q-11 -26 -20 -46t-17 -37t-15 -34t-13 -38h-435z" />
    <glyph glyph-name="edotaccent" unicode="&#x117;" horiz-adv-x="505" 
d="M380 605q-21 0 -32 12t-11 30q0 25 18 43.5t45 18.5q20 0 31.5 -12.5t11.5 -30.5q0 -26 -18.5 -43.5t-44.5 -17.5zM273 20q36 0 66 9.5t56.5 29t51 48.5t48.5 69h15q-19 -38 -44.5 -71.5t-58 -59.5t-72 -41t-85.5 -15q-43 0 -75 17t-53 45.5t-31 65.5t-10 78
q0 59 21.5 116.5t60.5 102.5t92.5 73t116.5 28q31 0 59 -10.5t47 -30.5t27.5 -48.5t1.5 -65.5q-6 -33 -20 -61t-30.5 -49.5t-33 -36.5t-26.5 -22l-266 108q-10 -36 -10 -81q0 -47 12 -83.5t32.5 -62t48 -39t59.5 -13.5zM359 484q-80 0 -140 -45.5t-84 -125.5
q76 -28 128.5 -43.5t92.5 -15.5q30 0 52 8.5t37.5 22t25 31t12.5 36.5q7 35 -2.5 60t-29 41t-44.5 23.5t-48 7.5z" />
    <glyph glyph-name="Eogonek" unicode="&#x118;" horiz-adv-x="568" 
d="M622 760q-2 -21 -2 -38t1.5 -34t3 -37t2.5 -46h-10l-41 125h-265l-60 -306h185l42 85h10l-39 -200h-10l-8 85h-185l-71 -364h275l89 125h10q-11 -26 -20 -46t-17 -37t-15 -34t-13 -38h-23q-8 -6 -23 -19.5t-29.5 -32t-25.5 -40t-11 -42.5q0 -22 11.5 -34.5t31.5 -12.5
q14 0 30 7t33 21h5q-22 -26 -44.5 -40t-45.5 -14t-38 15.5t-15 41.5t14.5 51t33.5 45t37 34.5t25 19.5h-401l2 10l80 26l133 684l-69 30l2 10h425v0z" />
    <glyph glyph-name="eogonek" unicode="&#x119;" horiz-adv-x="505" 
d="M273 20q36 0 66 9.5t56.5 29t51 48.5t48.5 69h15q-30 -60 -77 -108.5t-112 -68.5q-8 -6 -23 -20t-29.5 -32t-25 -39t-10.5 -42q0 -22 11.5 -34.5t31.5 -12.5q14 0 30 7t33 21h5q-22 -26 -44.5 -40t-45.5 -14t-38 15.5t-15 41.5q0 24 12.5 46.5t29 42t34 34t27.5 22.5
q-26 -6 -54 -6q-43 0 -75 17t-53 45.5t-31 65.5t-10 78q0 59 21.5 116.5t60.5 102.5t92.5 73t116.5 28q31 0 59 -10.5t47 -30.5t27.5 -48.5t1.5 -65.5q-6 -33 -20 -61t-30.5 -49.5t-33 -36.5t-26.5 -22l-266 108q-10 -36 -10 -81q0 -47 12 -83.5t32.5 -62t48 -39t59.5 -13.5
zM359 484q-80 0 -140 -45.5t-84 -125.5q76 -28 128.5 -43.5t92.5 -15.5q30 0 52 8.5t37.5 22t25 31t12.5 36.5q7 35 -2.5 60t-29 41t-44.5 23.5t-48 7.5z" />
    <glyph glyph-name="Ecaron" unicode="&#x11a;" horiz-adv-x="568" 
d="M597 998q-43 -56 -70 -92.5t-44.5 -57.5t-28 -29.5t-19.5 -8.5t-16.5 8.5t-16.5 29.5t-22 57.5t-34 92.5h13q24 -37 47 -72.5t38 -68.5q27 33 64.5 68.5t75.5 72.5h13zM51 10l80 26l133 684l-69 30l2 10h425q-2 -21 -2 -38t1.5 -34t3 -37t2.5 -46h-10l-41 125h-265
l-60 -306h185l42 85h10l-39 -200h-10l-8 85h-185l-71 -364h275l89 125h10q-11 -26 -20 -46t-17 -37t-15 -34t-13 -38h-435z" />
    <glyph glyph-name="ecaron" unicode="&#x11b;" horiz-adv-x="505" 
d="M358 575q-9 0 -16.5 8.5t-16.5 29.5t-22 57.5t-34 92.5h13q24 -37 47 -72.5t38 -68.5q27 33 64.5 68.5t75.5 72.5h13q-43 -56 -70 -92.5t-44.5 -57.5t-28 -29.5t-19.5 -8.5zM131 299q-10 -36 -10 -81q0 -47 12 -83.5t32.5 -62t48 -39t59.5 -13.5q36 0 66 9.5t56.5 29
t51 48.5t48.5 69h15q-19 -38 -44.5 -71.5t-58 -59.5t-72 -41t-85.5 -15q-43 0 -75 17t-53 45.5t-31 65.5t-10 78q0 59 21.5 116.5t60.5 102.5t92.5 73t116.5 28q31 0 59 -10.5t47 -30.5t27.5 -48.5t1.5 -65.5q-6 -33 -20 -61t-30.5 -49.5t-33 -36.5t-26.5 -22zM359 484
q-80 0 -140 -45.5t-84 -125.5q76 -28 128.5 -43.5t92.5 -15.5q30 0 52 8.5t37.5 22t25 31t12.5 36.5q7 35 -2.5 60t-29 41t-44.5 23.5t-48 7.5z" />
    <glyph glyph-name="Gbreve" unicode="&#x11e;" horiz-adv-x="761" 
d="M558 810q-24 0 -46.5 9.5t-37.5 32t-20 58t5 88.5h13q-5 -26 -4 -52t11.5 -47t31 -34t55.5 -13q34 0 60 13t44.5 34t29.5 47t16 52h13q-10 -53 -29 -88.5t-42.5 -58t-49.5 -32t-50 -9.5zM402 -11q-67 0 -122 20t-94 57.5t-60.5 92t-21.5 123.5q0 46 10 95q16 84 59 155.5
t105 124t139.5 82t162.5 29.5q52 0 91.5 -11.5t66.5 -26.5t41.5 -29t17.5 -19l-44 -222h-15q9 45 9 84q0 89 -47.5 138t-145.5 49q-48 0 -108 -15.5t-116.5 -52.5t-101 -98.5t-62.5 -154.5q-5 -27 -8 -52.5t-3 -49.5q0 -66 19.5 -118.5t56 -89t88.5 -55.5t117 -19
q69 0 120.5 18t86.5 45.5t55 61t26 64.5q1 5 1.5 9.5t0.5 9.5q0 36 -26.5 56.5t-67 32t-88 16.5t-88.5 9l3 15h318l-71 -363h-21l24 125q-57 -64 -130.5 -100t-176.5 -36z" />
    <glyph glyph-name="gbreve" unicode="&#x11f;" horiz-adv-x="511" 
d="M368 575q-24 0 -46.5 9.5t-37.5 32t-20 58t5 88.5h13q-5 -26 -4 -52t11.5 -47t31 -34t55.5 -13q34 0 60 13t44.5 34t29.5 47t16 52h13q-10 -53 -29 -88.5t-42.5 -58t-49.5 -32t-50 -9.5zM211 -206q-60 0 -98 31.5t-61 79.5h15q31 -49 64.5 -70t78.5 -21q27 0 51.5 8
t44.5 26.5t35 48t23 72.5l28 147q-49 -68 -98 -98t-94 -30q-54 0 -85 45.5t-31 122.5q0 66 16.5 130.5t48 115.5t76.5 82t102 31q47 0 78 -25t49 -56l13 66h10l89 -30l-2 -10h-64l-95 -493q-10 -53 -32.5 -86.5t-50 -53t-57 -26.5t-54.5 -7zM222 5q21 0 44 12t46 31
t44.5 43.5t39.5 50.5l53 263q-8 13 -18.5 27.5t-24.5 25.5t-32.5 18.5t-41.5 7.5q-33 0 -69 -17t-66 -54.5t-50 -96t-20 -140.5q0 -92 25 -131.5t70 -39.5z" />
    <glyph glyph-name="Gdotaccent" unicode="&#x120;" horiz-adv-x="761" 
d="M589 860q-21 0 -32 12t-11 30q0 25 18 43.5t45 18.5q20 0 31.5 -12.5t11.5 -30.5q0 -26 -18.5 -43.5t-44.5 -17.5zM402 -11q-67 0 -122 20t-94 57.5t-60.5 92t-21.5 123.5q0 46 10 95q16 84 59 155.5t105 124t139.5 82t162.5 29.5q52 0 91.5 -11.5t66.5 -26.5t41.5 -29
t17.5 -19l-44 -222h-15q9 45 9 84q0 89 -47.5 138t-145.5 49q-48 0 -108 -15.5t-116.5 -52.5t-101 -98.5t-62.5 -154.5q-5 -27 -8 -52.5t-3 -49.5q0 -66 19.5 -118.5t56 -89t88.5 -55.5t117 -19q69 0 120.5 18t86.5 45.5t55 61t26 64.5q1 5 1.5 9.5t0.5 9.5q0 36 -26.5 56.5
t-67 32t-88 16.5t-88.5 9l3 15h318l-71 -363h-21l24 125q-57 -64 -130.5 -100t-176.5 -36z" />
    <glyph glyph-name="gdotaccent" unicode="&#x121;" horiz-adv-x="511" 
d="M373 605q-21 0 -32 12t-11 30q0 25 18 43.5t45 18.5q20 0 31.5 -12.5t11.5 -30.5q0 -26 -18.5 -43.5t-44.5 -17.5zM211 -206q-60 0 -98 31.5t-61 79.5h15q31 -49 64.5 -70t78.5 -21q27 0 51.5 8t44.5 26.5t35 48t23 72.5l28 147q-49 -68 -98 -98t-94 -30q-54 0 -85 45.5
t-31 122.5q0 66 16.5 130.5t48 115.5t76.5 82t102 31q47 0 78 -25t49 -56l13 66h10l89 -30l-2 -10h-64l-95 -493q-10 -53 -32.5 -86.5t-50 -53t-57 -26.5t-54.5 -7zM222 5q21 0 44 12t46 31t44.5 43.5t39.5 50.5l53 263q-8 13 -18.5 27.5t-24.5 25.5t-32.5 18.5t-41.5 7.5
q-33 0 -69 -17t-66 -54.5t-50 -96t-20 -140.5q0 -92 25 -131.5t70 -39.5z" />
    <glyph glyph-name="Gcommaaccent" unicode="&#x122;" horiz-adv-x="761" 
d="M402 -11q-67 0 -122 20t-94 57.5t-60.5 92t-21.5 123.5q0 46 10 95q16 84 59 155.5t105 124t139.5 82t162.5 29.5q52 0 91.5 -11.5t66.5 -26.5t41.5 -29t17.5 -19l-44 -222h-15q9 45 9 84q0 89 -47.5 138t-145.5 49q-48 0 -108 -15.5t-116.5 -52.5t-101 -98.5
t-62.5 -154.5q-5 -27 -8 -52.5t-3 -49.5q0 -66 19.5 -118.5t56 -89t88.5 -55.5t117 -19q69 0 120.5 18t86.5 45.5t55 61t26 64.5q1 5 1.5 9.5t0.5 9.5q0 36 -26.5 56.5t-67 32t-88 16.5t-88.5 9l3 15h318l-71 -363h-21l24 125q-57 -64 -130.5 -100t-176.5 -36zM400 -50
q24 0 31.5 -21t2.5 -47q-2 -8 -5.5 -19t-13.5 -27t-27 -36t-44 -44h-11q57 57 63 87q3 17 -3.5 25t-15 14t-15 13.5t-3.5 22.5q3 16 15 24t26 8z" />
    <glyph glyph-name="gcommaaccent" unicode="&#x123;" horiz-adv-x="511" 
d="M375 586q-24 0 -31.5 21t-2.5 47q1 7 5 18.5t14 27.5t27 36t44 44h11q-57 -57 -63 -87q-3 -17 3.5 -25t15 -14t15 -13.5t3.5 -22.5q-3 -16 -15 -24t-26 -8zM211 -206q-60 0 -98 31.5t-61 79.5h15q31 -49 64.5 -70t78.5 -21q27 0 51.5 8t44.5 26.5t35 48t23 72.5l28 147
q-49 -68 -98 -98t-94 -30q-54 0 -85 45.5t-31 122.5q0 66 16.5 130.5t48 115.5t76.5 82t102 31q47 0 78 -25t49 -56l13 66h10l89 -30l-2 -10h-64l-95 -493q-10 -53 -32.5 -86.5t-50 -53t-57 -26.5t-54.5 -7zM222 5q21 0 44 12t46 31t44.5 43.5t39.5 50.5l53 263
q-8 13 -18.5 27.5t-24.5 25.5t-32.5 18.5t-41.5 7.5q-33 0 -69 -17t-66 -54.5t-50 -96t-20 -140.5q0 -92 25 -131.5t70 -39.5z" />
    <glyph glyph-name="Hbar" unicode="&#x126;" horiz-adv-x="748" 
d="M764 720l-24 -121h51l-7 -38h-51l-102 -525l70 -26l-2 -10h-195l2 10l80 26l68 349h-410l-68 -349l70 -26l-2 -10h-195l2 10l80 26l102 525h-52l7 38h52l24 121l-69 30l2 10h195l-2 -10l-81 -30l-24 -121h410l24 121l-69 30l2 10h195l-2 -10zM688 561h-410l-28 -146h410z
" />
    <glyph glyph-name="hbar" unicode="&#x127;" horiz-adv-x="542" 
d="M454 63q0 -26 29 -26q5 0 15.5 0.5t15.5 2.5l-2 -10l-104 -30h-8l65 335q3 17 5 33t2 30q0 47 -22.5 66.5t-57.5 19.5q-32 0 -60.5 -14t-53 -35.5t-43 -48.5t-29.5 -53l-65 -333h-40l120 617h-67l7 38h67l8 40q2 8 3.5 20.5t1.5 21.5q0 26 -26 26q-12 0 -31 -3l2 10
l101 30h10l-28 -145h135l-7 -38h-136l-46 -236q8 15 25 38t42.5 44t59.5 36.5t76 15.5q46 0 72 -23t26 -78q0 -9 -1 -22t-4 -27l-55 -285q-1 -5 -1.5 -9t-0.5 -8z" />
    <glyph glyph-name="Imacron" unicode="&#x12a;" horiz-adv-x="361" 
d="M224 898h263l-7 -38h-263zM82 10l80 26l133 684l-69 30l2 10h195l-2 -10l-81 -30l-133 -684l70 -26l-2 -10h-195z" />
    <glyph glyph-name="imacron" unicode="&#x12b;" horiz-adv-x="243" 
d="M128 680h263l-7 -38h-263zM192 462l-66 -2l2 10l101 30h11l-90 -460h66l-2 -10l-103 -30h-8z" />
    <glyph glyph-name="Iogonek" unicode="&#x12e;" horiz-adv-x="293" 
d="M392 760l-2 -10l-81 -30l-133 -684l70 -26l-2 -10h-92q-8 -6 -23 -19.5t-29.5 -32t-25.5 -40t-11 -42.5q0 -22 11.5 -34.5t31.5 -12.5q14 0 30 7t33 21h5q-22 -26 -44.5 -40t-45.5 -14t-38 15.5t-15 41.5t14.5 51t33.5 45t37 34.5t25 19.5h-92l2 10l80 26l133 684l-69 30
l2 10h195z" />
    <glyph glyph-name="iogonek" unicode="&#x12f;" horiz-adv-x="243" 
d="M263 725q17 0 25 -10t8 -24q0 -21 -14.5 -35.5t-34.5 -14.5q-17 0 -25.5 10t-8.5 25q0 20 14.5 34.5t35.5 14.5zM240 500l-90 -460h66l-2 -10l-101 -29q-11 -9 -26 -24t-29 -33t-24 -38t-10 -40q0 -22 11.5 -34.5t31.5 -12.5q14 0 30 7t33 21h5q-22 -26 -44.5 -40
t-45.5 -14t-38 15.5t-15 41.5q0 27 15 51.5t34 45t37.5 34.5t24.5 19l89 462l-66 -2l2 10l101 30h11z" />
    <glyph glyph-name="Idotaccent" unicode="&#x130;" horiz-adv-x="293" 
d="M306 860q-21 0 -32 12t-11 30q0 25 18 43.5t45 18.5q20 0 31.5 -12.5t11.5 -30.5q0 -26 -18.5 -43.5t-44.5 -17.5zM51 10l80 26l133 684l-69 30l2 10h195l-2 -10l-81 -30l-133 -684l70 -26l-2 -10h-195z" />
    <glyph glyph-name="dotlessi" unicode="&#x131;" horiz-adv-x="243" 
d="M192 462l-66 -2l2 10l101 30h11l-90 -460h66l-2 -10l-103 -30h-8z" />
    <glyph glyph-name="Kcommaaccent" unicode="&#x136;" horiz-adv-x="630" 
d="M703 760l-2 -10l-100 -24l-269 -293l197 -397l65 -26l-2 -10h-195l2 10l77 26l-183 358l-60 -65l-57 -293l70 -26l-2 -10h-195l2 10l80 26l133 684l-69 30l2 10h195l-2 -10l-81 -30l-68 -349l330 355l-65 24l2 10h195zM299 -50q24 0 31.5 -21t2.5 -47q-2 -8 -5.5 -19
t-13.5 -27t-27 -36t-44 -44h-11q57 57 63 87q3 17 -3.5 25t-15 14t-15 13.5t-3.5 22.5q3 16 15 24t26 8z" />
    <glyph glyph-name="kcommaaccent" unicode="&#x137;" horiz-adv-x="523" 
d="M229 760h-65l2 10l101 30h10l-121 -624l287 292l-84 22l2 10h195l-2 -10l-84 -23l-168 -171l125 -258h58l-2 -12l-83 -26h-8l-126 259l-117 -118l-28 -141h-41zM246 -50q24 0 31.5 -21t2.5 -47q-2 -8 -5.5 -19t-13.5 -27t-27 -36t-44 -44h-11q57 57 63 87q3 17 -3.5 25
t-15 14t-15 13.5t-3.5 22.5q3 16 15 24t26 8z" />
    <glyph glyph-name="Lacute" unicode="&#x139;" horiz-adv-x="528" 
d="M278 810q38 55 66.5 91.5t49.5 58t35 30t22 8.5q16 0 13 -15q-2 -12 -19.5 -32.5t-43 -44.5t-55 -49.5t-55.5 -46.5h-13zM51 10l80 26l133 684l-69 30l2 10h195l-2 -10l-81 -30l-127 -655q-3 -16 3 -25.5t20 -9.5h245l89 125h10q-11 -26 -20 -46t-17 -37t-15 -34t-13 -38
h-435z" />
    <glyph glyph-name="lacute" unicode="&#x13a;" horiz-adv-x="244" 
d="M186 855q38 55 66.5 91.5t49.5 58t35 30t22 8.5q16 0 13 -15q-2 -12 -19.5 -32.5t-43 -44.5t-55 -49.5t-55.5 -46.5h-13zM229 760h-66l2 10l101 30h11l-148 -760h66l-2 -10l-103 -30h-8z" />
    <glyph glyph-name="Lcommaaccent" unicode="&#x13b;" horiz-adv-x="528" 
d="M51 10l80 26l133 684l-69 30l2 10h195l-2 -10l-81 -30l-127 -655q-3 -16 3 -25.5t20 -9.5h245l89 125h10q-11 -26 -20 -46t-17 -37t-15 -34t-13 -38h-435zM288 -50q24 0 31.5 -21t2.5 -47q-2 -8 -5.5 -19t-13.5 -27t-27 -36t-44 -44h-11q57 57 63 87q3 17 -3.5 25t-15 14
t-15 13.5t-3.5 22.5q3 16 15 24t26 8z" />
    <glyph glyph-name="lcommaaccent" unicode="&#x13c;" horiz-adv-x="222" 
d="M229 760h-66l2 10l101 30h11l-148 -760h66l-2 -10l-103 -30h-8zM95 -50q24 0 31.5 -21t2.5 -47q-2 -8 -5.5 -19t-13.5 -27t-27 -36t-44 -44h-11q57 57 63 87q3 17 -3.5 25t-15 14t-15 13.5t-3.5 22.5q3 16 15 24t26 8z" />
    <glyph glyph-name="Lcaron" unicode="&#x13d;" horiz-adv-x="528" 
d="M399 525q29 29 45 54t21 49q2 6 2 13.5v15.5q0 20 -4 41t-13 35q4 22 18.5 30.5t28.5 8.5q16 0 26 -9.5t10 -28.5q0 -3 -0.5 -6.5t-1.5 -8.5q-3 -16 -12.5 -39.5t-25.5 -50.5t-37 -54t-47 -50h-10zM51 10l80 26l133 684l-69 30l2 10h195l-2 -10l-81 -30l-127 -655
q-3 -16 3 -25.5t20 -9.5h245l89 125h10q-11 -26 -20 -46t-17 -37t-15 -34t-13 -38h-435z" />
    <glyph glyph-name="lcaron" unicode="&#x13e;" horiz-adv-x="262" 
d="M289 554q29 29 45 54t21 49q2 6 2 13.5v15.5q0 20 -4 41t-13 35q4 22 18.5 30.5t28.5 8.5q16 0 26 -9.5t10 -28.5q0 -3 -0.5 -6.5t-1.5 -8.5q-3 -16 -12.5 -39.5t-25.5 -50.5t-37 -54t-47 -50h-10zM229 760h-66l2 10l101 30h11l-148 -760h66l-2 -10l-103 -30h-8z" />
    <glyph glyph-name="Lslash" unicode="&#x141;" horiz-adv-x="528" 
d="M549 155q-11 -26 -20 -46t-17 -37t-15 -34t-13 -38h-435l2 10l80 26l61 314l-138 -53l8 38l138 53l64 332l-69 30l2 10h195l-2 -10l-81 -30l-61 -313l144 56l-8 -39l-143 -55l-59 -304q-3 -16 3 -25.5t20 -9.5h245l89 125h10z" />
    <glyph glyph-name="lslash" unicode="&#x142;" horiz-adv-x="233" 
d="M29 10q19 4 32 8t22 10.5t14.5 17.5t8.5 29l75 382l-84 -32l7 38l84 33l37 189q5 25 5.5 41.5t-4.5 25t-17.5 10.5t-33.5 -2l2 10l101 30h10l-15 -75l-41 -212l78 30l-8 -39l-78 -30l-77 -399q-7 -35 5 -46.5t47 -18.5l-2 -10h-170z" />
    <glyph glyph-name="Nacute" unicode="&#x143;" horiz-adv-x="702" 
d="M435 810q38 55 66.5 91.5t49.5 58t35 30t22 8.5q16 0 13 -15q-2 -12 -19.5 -32.5t-43 -44.5t-55 -49.5t-55.5 -46.5h-13zM51 10l80 26l133 684l-69 30l2 10h121l241 -629l115 589l-69 30l2 10h195l-2 -10l-81 -30l-140 -720h-25l-254 669l-123 -633l69 -26l-2 -10h-195z
" />
    <glyph glyph-name="nacute" unicode="&#x144;" horiz-adv-x="542" 
d="M324 575q38 55 66.5 91.5t49.5 58t35 30t22 8.5q16 0 13 -15q-2 -12 -19.5 -32.5t-43 -44.5t-55 -49.5t-55.5 -46.5h-13zM192 460h-66l2 10l101 30h10l-50 -263q5 16 16.5 43t27.5 57.5t37 62.5t46.5 57.5t54.5 41.5t62 16q35 0 59.5 -22.5t24.5 -76.5q0 -11 -1 -24
t-4 -27l-64 -325h66l-2 -10l-104 -30h-8l65 335q7 35 7 63q0 49 -18.5 67.5t-42.5 18.5q-25 0 -49.5 -16t-47.5 -41.5t-44 -57.5t-38 -64.5t-29.5 -63t-19.5 -51.5l-43 -190h-40z" />
    <glyph glyph-name="Ncommaaccent" unicode="&#x145;" horiz-adv-x="702" 
d="M51 10l80 26l133 684l-69 30l2 10h121l241 -629l115 589l-69 30l2 10h195l-2 -10l-81 -30l-140 -720h-25l-254 669l-123 -633l69 -26l-2 -10h-195zM365 -50q24 0 31.5 -21t2.5 -47q-2 -8 -5.5 -19t-13.5 -27t-27 -36t-44 -44h-11q57 57 63 87q3 17 -3.5 25t-15 14
t-15 13.5t-3.5 22.5q3 16 15 24t26 8z" />
    <glyph glyph-name="ncommaaccent" unicode="&#x146;" horiz-adv-x="542" 
d="M192 460h-66l2 10l101 30h10l-50 -263q5 16 16.5 43t27.5 57.5t37 62.5t46.5 57.5t54.5 41.5t62 16q35 0 59.5 -22.5t24.5 -76.5q0 -11 -1 -24t-4 -27l-64 -325h66l-2 -10l-104 -30h-8l65 335q7 35 7 63q0 49 -18.5 67.5t-42.5 18.5q-25 0 -49.5 -16t-47.5 -41.5
t-44 -57.5t-38 -64.5t-29.5 -63t-19.5 -51.5l-43 -190h-40zM255 -50q24 0 31.5 -21t2.5 -47q-2 -8 -5.5 -19t-13.5 -27t-27 -36t-44 -44h-11q57 57 63 87q3 17 -3.5 25t-15 14t-15 13.5t-3.5 22.5q3 16 15 24t26 8z" />
    <glyph glyph-name="Ncaron" unicode="&#x147;" horiz-adv-x="702" 
d="M647 998q-43 -56 -70 -92.5t-44.5 -57.5t-28 -29.5t-19.5 -8.5t-16.5 8.5t-16.5 29.5t-22 57.5t-34 92.5h13q24 -37 47 -72.5t38 -68.5q27 33 64.5 68.5t75.5 72.5h13zM51 10l80 26l133 684l-69 30l2 10h121l241 -629l115 589l-69 30l2 10h195l-2 -10l-81 -30l-140 -720
h-25l-254 669l-123 -633l69 -26l-2 -10h-195z" />
    <glyph glyph-name="ncaron" unicode="&#x148;" horiz-adv-x="542" 
d="M563 763q-43 -56 -70 -92.5t-44.5 -57.5t-28 -29.5t-19.5 -8.5t-16.5 8.5t-16.5 29.5t-22 57.5t-34 92.5h13q24 -37 47 -72.5t38 -68.5q27 33 64.5 68.5t75.5 72.5h13zM192 460h-66l2 10l101 30h10l-50 -263q5 16 16.5 43t27.5 57.5t37 62.5t46.5 57.5t54.5 41.5t62 16
q35 0 59.5 -22.5t24.5 -76.5q0 -11 -1 -24t-4 -27l-64 -325h66l-2 -10l-104 -30h-8l65 335q7 35 7 63q0 49 -18.5 67.5t-42.5 18.5q-25 0 -49.5 -16t-47.5 -41.5t-44 -57.5t-38 -64.5t-29.5 -63t-19.5 -51.5l-43 -190h-40z" />
    <glyph glyph-name="Eng" unicode="&#x14a;" horiz-adv-x="702" 
d="M802 760l-2 -10l-81 -30l-62 -321l-66 -339l-12 -60q-9 -43 -22 -80.5t-34.5 -65.5t-54 -44.5t-79.5 -16.5q-34 0 -58 8t-40.5 21t-26.5 29.5t-17 33.5l119 203h15q-14 -27 -27 -50.5t-23 -45.5t-16.5 -42t-6.5 -41q0 -79 91 -79q20 0 40 7t38 27.5t33.5 58.5t27.5 100
l2 13l-240 633l-123 -633l69 -26l-2 -10h-195l2 10l80 26l133 684l-69 30l2 10h121l241 -629l52 268l63 321l-69 30l2 10h195z" />
    <glyph glyph-name="eng" unicode="&#x14b;" horiz-adv-x="480" 
d="M300 -206q-35 0 -59.5 21.5t-30.5 49.5h15q11 -24 28 -37.5t40 -13.5q33 0 58 29t35 80l79 412q16 82 -4.5 115.5t-74.5 33.5q-26 0 -53 -13.5t-51.5 -35.5t-44 -48.5t-30.5 -53.5l-65 -333h-40l90 460h-66l2 10l101 30h10l-23 -120q8 15 25 38t42.5 44.5t59.5 37
t76 15.5q27 0 48 -8t33.5 -26t16 -46.5t-4.5 -69.5l-87 -445q-6 -32 -19.5 -56t-30.5 -39.5t-36.5 -23t-38.5 -7.5z" />
    <glyph glyph-name="Omacron" unicode="&#x14c;" horiz-adv-x="803" 
d="M439 898h263l-7 -38h-263zM386 -11q-61 0 -112.5 23t-88.5 65t-58 100t-21 128q0 68 18.5 128.5t51 112t75.5 92.5t93 70t104 44.5t107 15.5q63 0 116 -24t92 -66t60.5 -99.5t21.5 -124.5q0 -100 -41.5 -185t-107 -147.5t-147.5 -97.5t-163 -35zM415 26q34 0 75 8.5
t83 28.5t81 51.5t69 77.5t48.5 107.5t18.5 140.5q0 72 -21.5 126.5t-57.5 91t-83 55t-98 18.5q-45 0 -101 -17t-108.5 -54.5t-95 -98.5t-59.5 -149q-9 -51 -9 -96q0 -75 23 -129.5t60 -90.5t83 -53t92 -17z" />
    <glyph glyph-name="omacron" unicode="&#x14d;" horiz-adv-x="528" 
d="M270 680h263l-7 -38h-263zM264 -11q-48 0 -82.5 19.5t-56.5 51t-32.5 70t-10.5 76.5q0 47 19 101t55.5 100.5t90 77t123.5 30.5q48 0 81 -19t53.5 -49.5t30 -68t9.5 -73.5q0 -47 -19 -102t-55 -102.5t-88 -79.5t-118 -32zM283 20q42 0 81.5 22t70 59.5t48.5 87t18 104.5
q0 38 -9 72.5t-27.5 61t-46 42t-64.5 15.5q-50 0 -92 -21t-73.5 -57t-49 -83.5t-17.5 -100.5q0 -39 10.5 -75t30.5 -64.5t50.5 -45.5t69.5 -17z" />
    <glyph glyph-name="Ohungarumlaut" unicode="&#x150;" horiz-adv-x="803" 
d="M430 810q38 55 66.5 91.5t49.5 58t35 30t22 8.5q16 0 13 -15q-2 -12 -19.5 -32.5t-43 -44.5t-55 -49.5t-55.5 -46.5h-13zM560 810q38 55 66.5 91.5t49.5 58t35 30t22 8.5q16 0 13 -15q-2 -12 -19.5 -32.5t-43 -44.5t-55 -49.5t-55.5 -46.5h-13zM386 -11q-61 0 -112.5 23
t-88.5 65t-58 100t-21 128q0 68 18.5 128.5t51 112t75.5 92.5t93 70t104 44.5t107 15.5q63 0 116 -24t92 -66t60.5 -99.5t21.5 -124.5q0 -100 -41.5 -185t-107 -147.5t-147.5 -97.5t-163 -35zM415 26q34 0 75 8.5t83 28.5t81 51.5t69 77.5t48.5 107.5t18.5 140.5
q0 72 -21.5 126.5t-57.5 91t-83 55t-98 18.5q-45 0 -101 -17t-108.5 -54.5t-95 -98.5t-59.5 -149q-9 -51 -9 -96q0 -75 23 -129.5t60 -90.5t83 -53t92 -17z" />
    <glyph glyph-name="ohungarumlaut" unicode="&#x151;" horiz-adv-x="528" 
d="M222 575q38 55 66.5 91.5t49.5 58t35 30t22 8.5q16 0 13 -15q-2 -12 -19.5 -32.5t-43 -44.5t-55 -49.5t-55.5 -46.5h-13zM352 575q38 55 66.5 91.5t49.5 58t35 30t22 8.5q16 0 13 -15q-2 -12 -19.5 -32.5t-43 -44.5t-55 -49.5t-55.5 -46.5h-13zM264 -11q-48 0 -82.5 19.5
t-56.5 51t-32.5 70t-10.5 76.5q0 47 19 101t55.5 100.5t90 77t123.5 30.5q48 0 81 -19t53.5 -49.5t30 -68t9.5 -73.5q0 -47 -19 -102t-55 -102.5t-88 -79.5t-118 -32zM283 20q42 0 81.5 22t70 59.5t48.5 87t18 104.5q0 38 -9 72.5t-27.5 61t-46 42t-64.5 15.5q-50 0 -92 -21
t-73.5 -57t-49 -83.5t-17.5 -100.5q0 -39 10.5 -75t30.5 -64.5t50.5 -45.5t69.5 -17z" />
    <glyph glyph-name="OE" unicode="&#x152;" horiz-adv-x="1006" 
d="M384 -11q-61 0 -112.5 21.5t-89 61t-58.5 95t-21 123.5q0 41 9 88q17 87 61.5 158.5t105.5 123t132 80t142 28.5q39 0 78.5 -10t72.5 -29l6 31h350q-1 -10 -1.5 -19t-0.5 -18q0 -26 2.5 -52t4.5 -66h-10l-41 125h-265l-60 -306h185l42 85h10l-39 -200h-10l-8 85h-185
l-71 -364h275l89 125h10q-11 -26 -20 -46t-17 -37t-15 -34t-13 -38h-360l7 37q-54 -28 -101.5 -38t-83.5 -10zM413 26q26 0 50.5 4.5t46 10.5t38 13.5t27.5 13.5l119 609q-26 21 -69 37.5t-97 16.5q-45 0 -101 -17t-108.5 -54.5t-95 -98.5t-59.5 -149q-5 -26 -7.5 -50.5
t-2.5 -47.5q0 -75 23.5 -129t60.5 -89.5t83 -52.5t92 -17z" />
    <glyph glyph-name="oe" unicode="&#x153;" horiz-adv-x="922" 
d="M264 -11q-48 0 -82.5 19.5t-56.5 51t-32.5 70t-10.5 76.5q0 47 19 101t55.5 100.5t90 77t123.5 30.5q39 0 68.5 -13.5t50.5 -36t33.5 -51t17.5 -59.5q18 34 44 63.5t57.5 51t69 33.5t78.5 12q28 0 53 -8.5t44 -24t30 -38.5t11 -53q0 -15 -3 -31q-6 -33 -20 -61
t-30.5 -49.5t-33 -36.5t-26.5 -22l-262 106q-7 -14 -10.5 -35t-3.5 -44q0 -47 12 -83.5t32.5 -62t48 -39t59.5 -13.5q36 0 66 9.5t56.5 29t51 48.5t48.5 69h15q-19 -38 -44.5 -71.5t-58 -59.5t-72 -41t-85.5 -15q-37 0 -65.5 12.5t-49 34t-33.5 51t-18 63.5q-17 -33 -41 -62
t-53.5 -51t-65.5 -35t-77 -13zM283 20q42 0 81.5 22t70 59.5t48.5 87t18 104.5q0 38 -9 72.5t-27.5 61t-46 42t-64.5 15.5q-50 0 -92 -21t-73.5 -57t-49 -83.5t-17.5 -100.5q0 -39 10.5 -75t30.5 -64.5t50.5 -45.5t69.5 -17zM773 254q35 0 59.5 11.5t40.5 29.5t23 40t7 44
q0 28 -12 47.5t-30.5 32.5t-41 19t-43.5 6q-39 0 -73.5 -13t-63.5 -36t-50.5 -54.5t-34.5 -68.5q75 -27 127 -42.5t92 -15.5z" />
    <glyph glyph-name="Racute" unicode="&#x154;" horiz-adv-x="657" 
d="M588 983q-2 -12 -19.5 -32.5t-43 -44.5t-55 -49.5t-55.5 -46.5h-13q38 55 66.5 91.5t49.5 58t35 30t22 8.5q16 0 13 -15zM693 598q0 -58 -25 -101t-65 -71t-90.5 -42t-102.5 -14h-22l139 -334l84 -26l-2 -10h-215l2 10l78 26l-138 334h-95l-65 -334l70 -26l-2 -10h-195
l2 10l80 26l133 684l-69 30l2 10h289q42 0 79.5 -10.5t66 -31t45 -51t16.5 -69.5zM409 390q52 0 95.5 15.5t74.5 43.5t48 67.5t17 87.5q0 67 -44 101.5t-123 34.5h-164l-68 -350h164z" />
    <glyph glyph-name="racute" unicode="&#x155;" horiz-adv-x="401" 
d="M264 575q38 55 66.5 91.5t49.5 58t35 30t22 8.5q16 0 13 -15q-2 -12 -19.5 -32.5t-43 -44.5t-55 -49.5t-55.5 -46.5h-13zM192 460h-66l2 10l101 30h10l-48 -253h1q19 52 40.5 100t45.5 85.5t50 60t53 22.5q15 0 27 -6.5t22 -16t17 -20.5t10 -20l-87 -150h-15
q20 35 33.5 68t13.5 62q0 26 -10.5 41t-25.5 15q-18 0 -38 -20.5t-40 -52t-39 -70t-34 -74.5t-25 -65t-13 -42l-37 -164h-40z" />
    <glyph glyph-name="Rcommaaccent" unicode="&#x156;" horiz-adv-x="657" 
d="M693 598q0 -58 -25 -101t-65 -71t-90.5 -42t-102.5 -14h-22l139 -334l84 -26l-2 -10h-215l2 10l78 26l-138 334h-95l-65 -334l70 -26l-2 -10h-195l2 10l80 26l133 684l-69 30l2 10h289q42 0 79.5 -10.5t66 -31t45 -51t16.5 -69.5zM409 390q52 0 95.5 15.5t74.5 43.5
t48 67.5t17 87.5q0 67 -44 101.5t-123 34.5h-164l-68 -350h164zM288 -50q24 0 31.5 -21t2.5 -47q-2 -8 -5.5 -19t-13.5 -27t-27 -36t-44 -44h-11q57 57 63 87q3 17 -3.5 25t-15 14t-15 13.5t-3.5 22.5q3 16 15 24t26 8z" />
    <glyph glyph-name="rcommaaccent" unicode="&#x157;" horiz-adv-x="401" 
d="M192 460h-66l2 10l101 30h10l-48 -253h1q19 52 40.5 100t45.5 85.5t50 60t53 22.5q15 0 27 -6.5t22 -16t17 -20.5t10 -20l-87 -150h-15q20 35 33.5 68t13.5 62q0 26 -10.5 41t-25.5 15q-18 0 -38 -20.5t-40 -52t-39 -70t-34 -74.5t-25 -65t-13 -42l-37 -164h-40zM185 -50
q24 0 31.5 -21t2.5 -47q-2 -8 -5.5 -19t-13.5 -27t-27 -36t-44 -44h-11q57 57 63 87q3 17 -3.5 25t-15 14t-15 13.5t-3.5 22.5q3 16 15 24t26 8z" />
    <glyph glyph-name="Rcaron" unicode="&#x158;" horiz-adv-x="657" 
d="M447 810q-9 0 -16.5 8.5t-16.5 29.5t-22 57.5t-34 92.5h13q24 -37 47 -72.5t38 -68.5q27 33 64.5 68.5t75.5 72.5h13q-43 -56 -70 -92.5t-44.5 -57.5t-28 -29.5t-19.5 -8.5zM693 598q0 -58 -25 -101t-65 -71t-90.5 -42t-102.5 -14h-22l139 -334l84 -26l-2 -10h-215l2 10
l78 26l-138 334h-95l-65 -334l70 -26l-2 -10h-195l2 10l80 26l133 684l-69 30l2 10h289q42 0 79.5 -10.5t66 -31t45 -51t16.5 -69.5zM409 390q52 0 95.5 15.5t74.5 43.5t48 67.5t17 87.5q0 67 -44 101.5t-123 34.5h-164l-68 -350h164z" />
    <glyph glyph-name="rcaron" unicode="&#x159;" horiz-adv-x="401" 
d="M483 763q-43 -56 -70 -92.5t-44.5 -57.5t-28 -29.5t-19.5 -8.5t-16.5 8.5t-16.5 29.5t-22 57.5t-34 92.5h13q24 -37 47 -72.5t38 -68.5q27 33 64.5 68.5t75.5 72.5h13zM192 460h-66l2 10l101 30h10l-48 -253h1q19 52 40.5 100t45.5 85.5t50 60t53 22.5q15 0 27 -6.5
t22 -16t17 -20.5t10 -20l-87 -150h-15q20 35 33.5 68t13.5 62q0 26 -10.5 41t-25.5 15q-18 0 -38 -20.5t-40 -52t-39 -70t-34 -74.5t-25 -65t-13 -42l-37 -164h-40z" />
    <glyph glyph-name="Sacute" unicode="&#x15a;" horiz-adv-x="591" 
d="M409 810q38 55 66.5 91.5t49.5 58t35 30t22 8.5q16 0 13 -15q-2 -12 -19.5 -32.5t-43 -44.5t-55 -49.5t-55.5 -46.5h-13zM286 -11q-47 0 -83.5 11t-63.5 28.5t-44 38t-25 39.5l88 195h20q-12 -27 -23.5 -55.5t-16.5 -57.5q-2 -11 -3 -21.5t-1 -19.5q0 -41 17.5 -66.5
t43 -40t55.5 -19.5t54 -5q39 0 78.5 10.5t74 33t60 57.5t34.5 84q2 10 3 19.5t1 17.5q0 54 -35.5 82t-95.5 44q-24 6 -41 10.5t-31 9t-26 9.5t-25 11q-50 24 -75.5 55.5t-25.5 77.5q0 20 4 37q6 32 23 66.5t47 63t73.5 46.5t103.5 18q37 0 66.5 -7t53 -18.5t41 -26
t31.5 -29.5l-94 -148h-20q7 12 15.5 26.5t15.5 30.5t11.5 30.5t4.5 26.5q0 24 -13 40.5t-33 26t-43 13.5t-44 4q-32 0 -66.5 -8.5t-64 -26t-51 -44t-28.5 -63.5q-3 -14 -3 -26q0 -37 24.5 -64t73.5 -47q23 -9 48 -16.5t56 -15.5q34 -9 62.5 -22.5t49.5 -33t33 -45.5t12 -61
q0 -11 -1.5 -22t-3.5 -23q-11 -54 -38.5 -96.5t-67.5 -72.5t-89.5 -45.5t-102.5 -15.5z" />
    <glyph glyph-name="sacute" unicode="&#x15b;" horiz-adv-x="410" 
d="M258 575q38 55 66.5 91.5t49.5 58t35 30t22 8.5q16 0 13 -15q-2 -12 -19.5 -32.5t-43 -44.5t-55 -49.5t-55.5 -46.5h-13zM203 -11q-35 0 -60.5 8.5t-44 21t-30 26.5t-18.5 25l74 134h15q-15 -28 -23.5 -52t-8.5 -47q0 -37 23 -62.5t78 -25.5q37 0 68.5 10t54.5 27.5
t36 40t13 47.5q0 20 -11 35t-31 27t-48 22.5t-62 21.5q-46 15 -72 43t-26 71q0 38 14.5 67t39 48t56 28.5t65.5 9.5q30 0 52.5 -7t39.5 -17.5t28 -23t18 -23.5l-58 -109h-15q11 20 16 36t5 32q0 39 -26.5 61t-69.5 22q-26 0 -51 -7.5t-45 -21t-32.5 -34t-12.5 -45.5
q0 -29 25 -48t81 -37q27 -9 53 -17t46 -20.5t32.5 -32.5t12.5 -51q0 -44 -16.5 -78.5t-44 -57.5t-64 -35t-76.5 -12z" />
    <glyph glyph-name="Scedilla" unicode="&#x15e;" horiz-adv-x="591" 
d="M432 426q34 -9 62.5 -22.5t49.5 -33t33 -45.5t12 -61q0 -11 -1.5 -22t-3.5 -23q-10 -50 -35 -90.5t-61 -70t-80.5 -47t-93.5 -21.5l-36 -47q35 0 50 -15.5t15 -37.5q0 -15 -7.5 -31.5t-20.5 -30.5t-31 -23t-39 -9q-15 0 -29 4.5t-25 12.5l1 8q21 -10 46 -10
q30 0 52.5 15.5t22.5 41.5q0 17 -15 31t-49 14l4 19l44 57h-11q-47 0 -83.5 11t-63.5 28.5t-44 38t-25 39.5l88 195h20q-12 -27 -23.5 -55.5t-16.5 -57.5q-2 -11 -3 -21.5t-1 -19.5q0 -41 17.5 -66.5t43 -40t55.5 -19.5t54 -5q39 0 78.5 10.5t74 33t60 57.5t34.5 84
q2 10 3 19.5t1 17.5q0 54 -35.5 82t-95.5 44q-24 6 -41 10.5t-31 9t-26 9.5t-25 11q-50 24 -75.5 55.5t-25.5 77.5q0 20 4 37q6 32 23 66.5t47 63t73.5 46.5t103.5 18q37 0 66.5 -7t53 -18.5t41 -26t31.5 -29.5l-94 -148h-20q7 12 15.5 26.5t15.5 30.5t11.5 30.5t4.5 26.5
q0 24 -13 40.5t-33 26t-43 13.5t-44 4q-32 0 -66.5 -8.5t-64 -26t-51 -44t-28.5 -63.5q-3 -14 -3 -26q0 -37 24.5 -64t73.5 -47q23 -9 48 -16.5t56 -15.5z" />
    <glyph glyph-name="scedilla" unicode="&#x15f;" horiz-adv-x="410" 
d="M260 293q27 -9 53 -17t46 -20.5t32.5 -32.5t12.5 -51q0 -42 -14.5 -74.5t-39.5 -55.5t-57.5 -36t-69.5 -16l-36 -47q35 0 50 -15.5t15 -37.5q0 -15 -7.5 -31.5t-20.5 -30.5t-31 -23t-39 -9q-15 0 -29 4.5t-25 12.5l1 8q21 -10 46 -10q30 0 52.5 15.5t22.5 41.5
q0 17 -15 31t-49 14l4 19l44 57h-3q-35 0 -60.5 8.5t-44 21t-30 26.5t-18.5 25l74 134h15q-15 -28 -23.5 -52t-8.5 -47q0 -37 23 -62.5t78 -25.5q37 0 68.5 10t54.5 27.5t36 40t13 47.5q0 20 -11 35t-31 27t-48 22.5t-62 21.5q-46 15 -72 43t-26 71q0 38 14.5 67t39 48
t56 28.5t65.5 9.5q30 0 52.5 -7t39.5 -17.5t28 -23t18 -23.5l-58 -109h-15q11 20 16 36t5 32q0 39 -26.5 61t-69.5 22q-26 0 -51 -7.5t-45 -21t-32.5 -34t-12.5 -45.5q0 -29 25 -48t81 -37z" />
    <glyph glyph-name="Scaron" unicode="&#x160;" horiz-adv-x="591" 
d="M611 998q-43 -56 -70 -92.5t-44.5 -57.5t-28 -29.5t-19.5 -8.5t-16.5 8.5t-16.5 29.5t-22 57.5t-34 92.5h13q24 -37 47 -72.5t38 -68.5q27 33 64.5 68.5t75.5 72.5h13zM286 -11q-47 0 -83.5 11t-63.5 28.5t-44 38t-25 39.5l88 195h20q-12 -27 -23.5 -55.5t-16.5 -57.5
q-2 -11 -3 -21.5t-1 -19.5q0 -41 17.5 -66.5t43 -40t55.5 -19.5t54 -5q39 0 78.5 10.5t74 33t60 57.5t34.5 84q2 10 3 19.5t1 17.5q0 54 -35.5 82t-95.5 44q-24 6 -41 10.5t-31 9t-26 9.5t-25 11q-50 24 -75.5 55.5t-25.5 77.5q0 20 4 37q6 32 23 66.5t47 63t73.5 46.5
t103.5 18q37 0 66.5 -7t53 -18.5t41 -26t31.5 -29.5l-94 -148h-20q7 12 15.5 26.5t15.5 30.5t11.5 30.5t4.5 26.5q0 24 -13 40.5t-33 26t-43 13.5t-44 4q-32 0 -66.5 -8.5t-64 -26t-51 -44t-28.5 -63.5q-3 -14 -3 -26q0 -37 24.5 -64t73.5 -47q23 -9 48 -16.5t56 -15.5
q34 -9 62.5 -22.5t49.5 -33t33 -45.5t12 -61q0 -11 -1.5 -22t-3.5 -23q-11 -54 -38.5 -96.5t-67.5 -72.5t-89.5 -45.5t-102.5 -15.5z" />
    <glyph glyph-name="scaron" unicode="&#x161;" horiz-adv-x="410" 
d="M487 763q-43 -56 -70 -92.5t-44.5 -57.5t-28 -29.5t-19.5 -8.5t-16.5 8.5t-16.5 29.5t-22 57.5t-34 92.5h13q24 -37 47 -72.5t38 -68.5q27 33 64.5 68.5t75.5 72.5h13zM203 -11q-35 0 -60.5 8.5t-44 21t-30 26.5t-18.5 25l74 134h15q-15 -28 -23.5 -52t-8.5 -47
q0 -37 23 -62.5t78 -25.5q37 0 68.5 10t54.5 27.5t36 40t13 47.5q0 20 -11 35t-31 27t-48 22.5t-62 21.5q-46 15 -72 43t-26 71q0 38 14.5 67t39 48t56 28.5t65.5 9.5q30 0 52.5 -7t39.5 -17.5t28 -23t18 -23.5l-58 -109h-15q11 20 16 36t5 32q0 39 -26.5 61t-69.5 22
q-26 0 -51 -7.5t-45 -21t-32.5 -34t-12.5 -45.5q0 -29 25 -48t81 -37q27 -9 53 -17t46 -20.5t32.5 -32.5t12.5 -51q0 -44 -16.5 -78.5t-44 -57.5t-64 -35t-76.5 -12z" />
    <glyph glyph-name="uni0162" unicode="&#x162;" horiz-adv-x="743" 
d="M807 760q-2 -21 -2 -38t1.5 -34t3 -37t2.5 -46h-10l-41 125h-225l-135 -694l70 -26l-2 -10h-86l-44 -57q35 0 50 -15.5t15 -37.5q0 -15 -7.5 -31.5t-20.5 -30.5t-31 -23t-39 -9q-15 0 -29 4.5t-25 12.5l1 8q21 -10 46 -10q30 0 52.5 15.5t22.5 41.5q0 17 -15 31t-49 14
l4 19l52 68h-92l2 10l80 26l135 694h-225l-89 -125h-10q10 26 19.5 46t17.5 37t15 34t13 38h575v0z" />
    <glyph glyph-name="uni0163" unicode="&#x163;" horiz-adv-x="317" 
d="M159 140q-8 -40 -8 -63q0 -33 13 -47.5t39 -14.5q9 0 20 2.5t24.5 11t28 24.5t29.5 43h15q-27 -56 -63 -81.5t-77 -25.5h-3l-36 -46q35 0 50 -15.5t15 -37.5q0 -15 -7.5 -31.5t-20.5 -30.5t-31 -23t-39 -9q-15 0 -29 4.5t-25 12.5l1 8q21 -10 46 -10q30 0 52.5 15.5
t22.5 41.5q0 17 -15 31t-49 14l4 19l45 59q-25 5 -37.5 23.5t-12.5 55.5q0 14 1.5 30t5.5 35l66 340h-76l2 10l80 15l57 170h15l-33 -170h132l-5 -25h-132z" />
    <glyph glyph-name="Tcaron" unicode="&#x164;" horiz-adv-x="743" 
d="M688 998q-43 -56 -70 -92.5t-44.5 -57.5t-28 -29.5t-19.5 -8.5t-16.5 8.5t-16.5 29.5t-22 57.5t-34 92.5h13q24 -37 47 -72.5t38 -68.5q27 33 64.5 68.5t75.5 72.5h13zM276 10l80 26l135 694h-225l-89 -125h-10q10 26 19.5 46t17.5 37t15 34t13 38h575q-2 -21 -2 -38
t1.5 -34t3 -37t2.5 -46h-10l-41 125h-225l-135 -694l70 -26l-2 -10h-195z" />
    <glyph glyph-name="tcaron" unicode="&#x165;" horiz-adv-x="317" 
d="M288 554q29 29 45 54t21 49q2 6 2 13.5v15.5q0 20 -4 41t-13 35q4 22 18.5 30.5t28.5 8.5q16 0 26 -9.5t10 -28.5q0 -3 -0.5 -6.5t-1.5 -8.5q-3 -16 -12.5 -39.5t-25.5 -50.5t-37 -54t-47 -50h-10zM180 -11q-34 0 -51.5 18.5t-17.5 62.5q0 14 1.5 30t5.5 35l66 340h-76
l2 10l80 15l57 170h15l-33 -170h132l-5 -25h-132l-65 -335q-8 -40 -8 -63q0 -33 13 -47.5t39 -14.5q9 0 20 2.5t24.5 11t28 24.5t29.5 43h15q-27 -56 -63 -81.5t-77 -25.5z" />
    <glyph glyph-name="Tbar" unicode="&#x166;" horiz-adv-x="743" 
d="M807 760q-2 -21 -2 -38t1.5 -34t3 -37t2.5 -46h-10l-41 125h-225l-64 -331h98l-7 -38h-99l-63 -325l70 -26l-2 -10h-195l2 10l80 26l63 325h-99l7 38h100l64 331h-225l-89 -125h-10q10 26 19.5 46t17.5 37t15 34t13 38h575v0z" />
    <glyph glyph-name="tbar" unicode="&#x167;" horiz-adv-x="317" 
d="M224 475l-40 -206h148l-7 -38h-148l-18 -91q-8 -40 -8 -63q0 -33 13 -47.5t39 -14.5q9 0 20 2.5t24.5 11t28 24.5t29.5 43h15q-27 -56 -63 -81.5t-77 -25.5q-34 0 -51.5 18.5t-17.5 62.5q0 14 1.5 30t5.5 35l19 96h-55l7 38h55l40 206h-76l2 10l80 15l57 170h15l-33 -170
h132l-5 -25h-132z" />
    <glyph glyph-name="Umacron" unicode="&#x16a;" horiz-adv-x="746" 
d="M393 898h263l-7 -38h-263zM372 -11q-57 0 -96 13.5t-63 39t-35 60.5t-11 79q0 24 3.5 50.5t8.5 55.5l84 433l-69 30l2 10h195l-2 -10l-81 -30l-84 -433q-10 -50 -10 -92q0 -46 12.5 -77.5t35 -51t54.5 -28t71 -8.5q48 0 87.5 13t70 43t53 79.5t36.5 121.5l84 433l-69 30
l2 10h195l-2 -10l-81 -30l-84 -433q-13 -68 -36.5 -123t-60 -94t-88.5 -60t-122 -21z" />
    <glyph glyph-name="umacron" unicode="&#x16b;" horiz-adv-x="521" 
d="M247 680h263l-7 -38h-263zM214 -11q-42 0 -67 21.5t-25 78.5q0 18 7.5 63t18 100t22.5 111t21 97h-66l2 10l101 30h10l-64 -332q-4 -19 -5.5 -34.5t-1.5 -27.5q0 -46 20 -66t54 -20q110 0 181 196l48 244h-66l2 10l101 30h10l-90 -460h66l-2 -10l-101 -30h-10l31 159
q-14 -36 -33.5 -67t-44 -54t-54 -36t-65.5 -13z" />
    <glyph glyph-name="Uring" unicode="&#x16e;" horiz-adv-x="746" 
d="M511 832q-30 0 -48.5 20t-18.5 48q0 19 8.5 35.5t22 29.5t31 20.5t36.5 7.5q29 0 47.5 -19.5t18.5 -48.5q0 -18 -8.5 -35t-22 -30t-31 -20.5t-35.5 -7.5zM515 855q13 0 25.5 5.5t22.5 14.5t16 21t6 25q0 20 -13.5 34.5t-33.5 14.5q-14 0 -26.5 -5.5t-22 -14.5t-15.5 -21
t-6 -25q0 -20 13 -34.5t34 -14.5zM372 -11q-57 0 -96 13.5t-63 39t-35 60.5t-11 79q0 24 3.5 50.5t8.5 55.5l84 433l-69 30l2 10h195l-2 -10l-81 -30l-84 -433q-10 -50 -10 -92q0 -46 12.5 -77.5t35 -51t54.5 -28t71 -8.5q48 0 87.5 13t70 43t53 79.5t36.5 121.5l84 433
l-69 30l2 10h195l-2 -10l-81 -30l-84 -433q-13 -68 -36.5 -123t-60 -94t-88.5 -60t-122 -21z" />
    <glyph glyph-name="uring" unicode="&#x16f;" horiz-adv-x="521" 
d="M358 572q-30 0 -48.5 20t-18.5 48q0 19 8.5 35.5t22 29.5t31 20.5t36.5 7.5q29 0 47.5 -19.5t18.5 -48.5q0 -18 -8.5 -35t-22 -30t-31 -20.5t-35.5 -7.5zM362 595q13 0 25.5 5.5t22.5 14.5t16 21t6 25q0 20 -13.5 34.5t-33.5 14.5q-14 0 -26.5 -5.5t-22 -14.5t-15.5 -21
t-6 -25q0 -20 13 -34.5t34 -14.5zM214 -11q-42 0 -67 21.5t-25 78.5q0 18 7.5 63t18 100t22.5 111t21 97h-66l2 10l101 30h10l-64 -332q-4 -19 -5.5 -34.5t-1.5 -27.5q0 -46 20 -66t54 -20q110 0 181 196l48 244h-66l2 10l101 30h10l-90 -460h66l-2 -10l-101 -30h-10l31 159
q-14 -36 -33.5 -67t-44 -54t-54 -36t-65.5 -13z" />
    <glyph glyph-name="Uhungarumlaut" unicode="&#x170;" horiz-adv-x="746" 
d="M406 810q38 55 66.5 91.5t49.5 58t35 30t22 8.5q16 0 13 -15q-2 -12 -19.5 -32.5t-43 -44.5t-55 -49.5t-55.5 -46.5h-13zM536 810q38 55 66.5 91.5t49.5 58t35 30t22 8.5q16 0 13 -15q-2 -12 -19.5 -32.5t-43 -44.5t-55 -49.5t-55.5 -46.5h-13zM372 -11q-57 0 -96 13.5
t-63 39t-35 60.5t-11 79q0 24 3.5 50.5t8.5 55.5l84 433l-69 30l2 10h195l-2 -10l-81 -30l-84 -433q-10 -50 -10 -92q0 -46 12.5 -77.5t35 -51t54.5 -28t71 -8.5q48 0 87.5 13t70 43t53 79.5t36.5 121.5l84 433l-69 30l2 10h195l-2 -10l-81 -30l-84 -433q-13 -68 -36.5 -123
t-60 -94t-88.5 -60t-122 -21z" />
    <glyph glyph-name="uhungarumlaut" unicode="&#x171;" horiz-adv-x="521" 
d="M219 575q38 55 66.5 91.5t49.5 58t35 30t22 8.5q16 0 13 -15q-2 -12 -19.5 -32.5t-43 -44.5t-55 -49.5t-55.5 -46.5h-13zM349 575q38 55 66.5 91.5t49.5 58t35 30t22 8.5q16 0 13 -15q-2 -12 -19.5 -32.5t-43 -44.5t-55 -49.5t-55.5 -46.5h-13zM214 -11q-42 0 -67 21.5
t-25 78.5q0 18 7.5 63t18 100t22.5 111t21 97h-66l2 10l101 30h10l-64 -332q-4 -19 -5.5 -34.5t-1.5 -27.5q0 -46 20 -66t54 -20q110 0 181 196l48 244h-66l2 10l101 30h10l-90 -460h66l-2 -10l-101 -30h-10l31 159q-14 -36 -33.5 -67t-44 -54t-54 -36t-65.5 -13z" />
    <glyph glyph-name="Uogonek" unicode="&#x172;" horiz-adv-x="746" 
d="M846 760l-2 -10l-81 -30l-84 -433q-12 -65 -33.5 -117.5t-55 -91t-80 -61.5t-108.5 -27q-11 -9 -24 -23t-25 -30.5t-20 -34.5t-8 -36q0 -22 11.5 -34.5t31.5 -12.5q14 0 30 7t33 21h5q-22 -26 -44.5 -40t-45.5 -14t-38 15.5t-15 41.5q0 22 10.5 43t25.5 39.5t31.5 33
t28.5 23.5h-17q-57 0 -96 13.5t-63 39t-35 60.5t-11 79q0 24 3.5 50.5t8.5 55.5l84 433l-69 30l2 10h195l-2 -10l-81 -30l-84 -433q-10 -50 -10 -92q0 -46 12.5 -77.5t35 -51t54.5 -28t71 -8.5q48 0 87.5 13t70 43t53 79.5t36.5 121.5l84 433l-69 30l2 10h195z" />
    <glyph glyph-name="uogonek" unicode="&#x173;" horiz-adv-x="521" 
d="M427 40h66l-2 -10l-100 -30q-8 -6 -22.5 -19.5t-29.5 -32t-26 -40t-11 -42.5q0 -22 11.5 -34.5t31.5 -12.5q14 0 30 7t33 21h5q-22 -26 -44.5 -40t-45.5 -14t-38 15.5t-15 41.5q0 27 15 51.5t34 45t37 34.5t24 19l31 159q-14 -36 -33.5 -67t-44 -54t-54 -36t-65.5 -13
q-42 0 -67 21.5t-25 78.5q0 18 7.5 63t18 100t22.5 111t21 97h-66l2 10l101 30h10l-64 -332q-4 -19 -5.5 -34.5t-1.5 -27.5q0 -46 20 -66t54 -20q110 0 181 196l48 244h-66l2 10l101 30h10z" />
    <glyph glyph-name="Wcircumflex" unicode="&#x174;" horiz-adv-x="1212" 
d="M640 810q43 56 70 92.5t44.5 57.5t28 29.5t19.5 8.5t16.5 -8.5t16.5 -29.5t22 -57.5t34 -92.5h-13q-24 37 -47 72.5t-38 68.5q-27 -33 -64.5 -68.5t-75.5 -72.5h-13zM264 720l-70 30l2 10h195l-2 -10l-71 -30l77 -640l347 680h33l100 -680l320 640l-80 30l2 10h195
l-2 -10l-84 -30l-362 -720h-30l-99 685l-350 -685h-30z" />
    <glyph glyph-name="wcircumflex" unicode="&#x175;" horiz-adv-x="720" 
d="M402 575q43 56 70 92.5t44.5 57.5t28 29.5t19.5 8.5t16.5 -8.5t16.5 -29.5t22 -57.5t34 -92.5h-13q-24 37 -47 72.5t-38 68.5q-27 -33 -64.5 -68.5t-75.5 -72.5h-13zM200 466h-74l2 10l102 24h10l43 -445l216 445h35l40 -445l136 282q14 29 24 57t10 49q0 17 -8 27
t-27 10q-18 0 -41.5 -12.5t-46.5 -33.5v20q21 21 46.5 36.5t55.5 15.5q29 0 41 -15t12 -38q0 -22 -9 -49.5t-23 -55.5l-172 -348h-30l-42 451l-218 -451h-30z" />
    <glyph glyph-name="Ycircumflex" unicode="&#x176;" horiz-adv-x="753" 
d="M400 810q43 56 70 92.5t44.5 57.5t28 29.5t19.5 8.5t16.5 -8.5t16.5 -29.5t22 -57.5t34 -92.5h-13q-24 37 -47 72.5t-38 68.5q-27 -33 -64.5 -68.5t-75.5 -72.5h-13zM299 10l79 26l44 245l-166 445l-62 24l2 10h195l-2 -10l-77 -24l153 -403l282 403l-91 24l2 10h195
l-2 -10l-74 -24l-309 -439l-45 -251l71 -26l-2 -10h-195z" />
    <glyph glyph-name="ycircumflex" unicode="&#x177;" horiz-adv-x="476" 
d="M253 575q43 56 70 92.5t44.5 57.5t28 29.5t19.5 8.5t16.5 -8.5t16.5 -29.5t22 -57.5t34 -92.5h-13q-24 37 -47 72.5t-38 68.5q-27 -33 -64.5 -68.5t-75.5 -72.5h-13zM112 -206q-33 0 -53 22t-34 54h15q15 -32 32 -45t34 -13q19 0 40.5 12.5t44 35.5t45 55t42.5 71
l-77 474h-76l2 10l101 30h10l74 -465l155 285q19 36 32 68t13 55q0 37 -38 37q-15 0 -35.5 -10t-49.5 -36v20q31 32 55.5 42t42.5 10q24 0 39 -12t15 -40q0 -23 -12 -58.5t-36 -79.5l-184 -330q-32 -57 -59.5 -94t-52 -58.5t-46 -30.5t-39.5 -9z" />
    <glyph glyph-name="Ydieresis" unicode="&#x178;" horiz-adv-x="753" 
d="M451 860q-16 0 -24 8.5t-8 22.5q0 19 13.5 32.5t33.5 13.5q14 0 23 -9t9 -23q0 -19 -13.5 -32t-33.5 -13zM581 860q-16 0 -24 8.5t-8 22.5q0 19 13.5 32.5t33.5 13.5q14 0 23 -9t9 -23q0 -19 -13.5 -32t-33.5 -13zM299 10l79 26l44 245l-166 445l-62 24l2 10h195l-2 -10
l-77 -24l153 -403l282 403l-91 24l2 10h195l-2 -10l-74 -24l-309 -439l-45 -251l71 -26l-2 -10h-195z" />
    <glyph glyph-name="Zacute" unicode="&#x179;" horiz-adv-x="568" 
d="M357 810q38 55 66.5 91.5t49.5 58t35 30t22 8.5q16 0 13 -15q-2 -12 -19.5 -32.5t-43 -44.5t-55 -49.5t-55.5 -46.5h-13zM51 10l532 720h-307l-90 -130h-10q11 28 20.5 49t17.5 38.5t15 34.5t13 38h400l3 -10l-528 -720h333l89 125h10q-11 -26 -20 -46t-17 -37t-15 -34
t-13 -38h-430z" />
    <glyph glyph-name="zacute" unicode="&#x17a;" horiz-adv-x="428" 
d="M453 748q-2 -12 -19.5 -32.5t-43 -44.5t-55 -49.5t-55.5 -46.5h-13q38 55 66.5 91.5t49.5 58t35 30t22 8.5q16 0 13 -15zM411 155h10q-11 -26 -20 -46t-17 -37t-15 -34t-13 -38h-315l-3 10l366 460h-191l-90 -130h-10q11 28 20.5 49t17.5 38.5t15 34.5t13 38h285l3 -10
l-363 -460h218z" />
    <glyph glyph-name="Zdotaccent" unicode="&#x17b;" horiz-adv-x="568" 
d="M452 860q-21 0 -32 12t-11 30q0 25 18 43.5t45 18.5q20 0 31.5 -12.5t11.5 -30.5q0 -26 -18.5 -43.5t-44.5 -17.5zM51 10l532 720h-307l-90 -130h-10q11 28 20.5 49t17.5 38.5t15 34.5t13 38h400l3 -10l-528 -720h333l89 125h10q-11 -26 -20 -46t-17 -37t-15 -34t-13 -38
h-430z" />
    <glyph glyph-name="zdotaccent" unicode="&#x17c;" horiz-adv-x="428" 
d="M331 605q-21 0 -32 12t-11 30q0 25 18 43.5t45 18.5q20 0 31.5 -12.5t11.5 -30.5q0 -26 -18.5 -43.5t-44.5 -17.5zM411 155h10q-11 -26 -20 -46t-17 -37t-15 -34t-13 -38h-315l-3 10l366 460h-191l-90 -130h-10q11 28 20.5 49t17.5 38.5t15 34.5t13 38h285l3 -10
l-363 -460h218z" />
    <glyph glyph-name="Zcaron" unicode="&#x17d;" horiz-adv-x="568" 
d="M580 998q-43 -56 -70 -92.5t-44.5 -57.5t-28 -29.5t-19.5 -8.5t-16.5 8.5t-16.5 29.5t-22 57.5t-34 92.5h13q24 -37 47 -72.5t38 -68.5q27 33 64.5 68.5t75.5 72.5h13zM51 10l532 720h-307l-90 -130h-10q11 28 20.5 49t17.5 38.5t15 34.5t13 38h400l3 -10l-528 -720h333
l89 125h10q-11 -26 -20 -46t-17 -37t-15 -34t-13 -38h-430z" />
    <glyph glyph-name="zcaron" unicode="&#x17e;" horiz-adv-x="428" 
d="M334 575q-9 0 -16.5 8.5t-16.5 29.5t-22 57.5t-34 92.5h13q24 -37 47 -72.5t38 -68.5q27 33 64.5 68.5t75.5 72.5h13q-43 -56 -70 -92.5t-44.5 -57.5t-28 -29.5t-19.5 -8.5zM467 490l-363 -460h218l89 125h10q-11 -26 -20 -46t-17 -37t-15 -34t-13 -38h-315l-3 10
l366 460h-191l-90 -130h-10q11 28 20.5 49t17.5 38.5t15 34.5t13 38h285z" />
    <glyph glyph-name="florin" unicode="&#x192;" horiz-adv-x="557" 
d="M146 -12q-31 0 -50 12t-23 32l39 134h18q-9 -29 -15 -56.5t-6 -50.5q0 -26 10 -41t34 -15q34 0 60 31t47 84t37.5 123.5t32.5 150.5h-127l6 32h127l8 42q15 79 32.5 136.5t39.5 94t50.5 54t66.5 17.5q26 0 43 -7t27.5 -18t15 -23.5t6.5 -24.5l-39 -135h-18q8 32 13 60
t5 51q0 37 -13.5 58.5t-45.5 21.5q-27 0 -48 -17t-39 -54t-33.5 -95t-30.5 -139l-4 -22h150l-6 -32h-150q-6 -25 -10 -47q-13 -70 -29.5 -134.5t-41 -114t-58 -79t-81.5 -29.5z" />
    <glyph glyph-name="Scommaaccent" unicode="&#x218;" horiz-adv-x="591" 
d="M286 -11q-47 0 -83.5 11t-63.5 28.5t-44 38t-25 39.5l88 195h20q-12 -27 -23.5 -55.5t-16.5 -57.5q-2 -11 -3 -21.5t-1 -19.5q0 -41 17.5 -66.5t43 -40t55.5 -19.5t54 -5q39 0 78.5 10.5t74 33t60 57.5t34.5 84q2 10 3 19.5t1 17.5q0 54 -35.5 82t-95.5 44
q-24 6 -41 10.5t-31 9t-26 9.5t-25 11q-50 24 -75.5 55.5t-25.5 77.5q0 20 4 37q6 32 23 66.5t47 63t73.5 46.5t103.5 18q37 0 66.5 -7t53 -18.5t41 -26t31.5 -29.5l-94 -148h-20q7 12 15.5 26.5t15.5 30.5t11.5 30.5t4.5 26.5q0 24 -13 40.5t-33 26t-43 13.5t-44 4
q-32 0 -66.5 -8.5t-64 -26t-51 -44t-28.5 -63.5q-3 -14 -3 -26q0 -37 24.5 -64t73.5 -47q23 -9 48 -16.5t56 -15.5q34 -9 62.5 -22.5t49.5 -33t33 -45.5t12 -61q0 -11 -1.5 -22t-3.5 -23q-11 -54 -38.5 -96.5t-67.5 -72.5t-89.5 -45.5t-102.5 -15.5zM280 -50q24 0 31.5 -21
t2.5 -47q-2 -8 -5.5 -19t-13.5 -27t-27 -36t-44 -44h-11q57 57 63 87q3 17 -3.5 25t-15 14t-15 13.5t-3.5 22.5q3 16 15 24t26 8z" />
    <glyph glyph-name="scommaaccent" unicode="&#x219;" horiz-adv-x="410" 
d="M203 -11q-35 0 -60.5 8.5t-44 21t-30 26.5t-18.5 25l74 134h15q-15 -28 -23.5 -52t-8.5 -47q0 -37 23 -62.5t78 -25.5q37 0 68.5 10t54.5 27.5t36 40t13 47.5q0 20 -11 35t-31 27t-48 22.5t-62 21.5q-46 15 -72 43t-26 71q0 38 14.5 67t39 48t56 28.5t65.5 9.5
q30 0 52.5 -7t39.5 -17.5t28 -23t18 -23.5l-58 -109h-15q11 20 16 36t5 32q0 39 -26.5 61t-69.5 22q-26 0 -51 -7.5t-45 -21t-32.5 -34t-12.5 -45.5q0 -29 25 -48t81 -37q27 -9 53 -17t46 -20.5t32.5 -32.5t12.5 -51q0 -44 -16.5 -78.5t-44 -57.5t-64 -35t-76.5 -12z
M189 -50q24 0 31.5 -21t2.5 -47q-2 -8 -5.5 -19t-13.5 -27t-27 -36t-44 -44h-11q57 57 63 87q3 17 -3.5 25t-15 14t-15 13.5t-3.5 22.5q3 16 15 24t26 8z" />
    <glyph glyph-name="uni021A" unicode="&#x21a;" horiz-adv-x="743" 
d="M276 10l80 26l135 694h-225l-89 -125h-10q10 26 19.5 46t17.5 37t15 34t13 38h575q-2 -21 -2 -38t1.5 -34t3 -37t2.5 -46h-10l-41 125h-225l-135 -694l70 -26l-2 -10h-195zM356 -50q24 0 31.5 -21t2.5 -47q-2 -8 -5.5 -19t-13.5 -27t-27 -36t-44 -44h-11q57 57 63 87
q3 17 -3.5 25t-15 14t-15 13.5t-3.5 22.5q3 16 15 24t26 8z" />
    <glyph glyph-name="uni021B" unicode="&#x21b;" horiz-adv-x="317" 
d="M180 -11q-34 0 -51.5 18.5t-17.5 62.5q0 14 1.5 30t5.5 35l66 340h-76l2 10l80 15l57 170h15l-33 -170h132l-5 -25h-132l-65 -335q-8 -40 -8 -63q0 -33 13 -47.5t39 -14.5q9 0 20 2.5t24.5 11t28 24.5t29.5 43h15q-27 -56 -63 -81.5t-77 -25.5zM143 -50q24 0 31.5 -21
t2.5 -47q-2 -8 -5.5 -19t-13.5 -27t-27 -36t-44 -44h-11q57 57 63 87q3 17 -3.5 25t-15 14t-15 13.5t-3.5 22.5q3 16 15 24t26 8z" />
    <glyph glyph-name="circumflex" unicode="&#x2c6;" horiz-adv-x="600" 
d="M158 575q43 56 70 92.5t44.5 57.5t28 29.5t19.5 8.5t16.5 -8.5t16.5 -29.5t22 -57.5t34 -92.5h-13q-24 37 -47 72.5t-38 68.5q-27 -33 -64.5 -68.5t-75.5 -72.5h-13v0z" />
    <glyph glyph-name="caron" unicode="&#x2c7;" horiz-adv-x="600" 
d="M409 763q-43 -56 -70 -92.5t-44.5 -57.5t-28 -29.5t-19.5 -8.5t-16.5 8.5t-16.5 29.5t-22 57.5t-34 92.5h13q24 -37 47 -72.5t38 -68.5q27 33 64.5 68.5t75.5 72.5h13v0z" />
    <glyph glyph-name="breve" unicode="&#x2d8;" horiz-adv-x="600" 
d="M284 575q-24 0 -46.5 9.5t-37.5 32t-20 58t5 88.5h13q-5 -26 -4 -52t11.5 -47t31 -34t55.5 -13q34 0 60 13t44.5 34t29.5 47t16 52h13q-10 -53 -29 -88.5t-42.5 -58t-49.5 -32t-50 -9.5z" />
    <glyph glyph-name="dotaccent" unicode="&#x2d9;" horiz-adv-x="600" 
d="M212 605q-21 0 -32 12t-11 30q0 25 18 43.5t45 18.5q20 0 31.5 -12.5t11.5 -30.5q0 -26 -18.5 -43.5t-44.5 -17.5z" />
    <glyph glyph-name="ring" unicode="&#x2da;" horiz-adv-x="600" 
d="M239 572q-30 0 -48.5 20t-18.5 48q0 19 8.5 35.5t22 29.5t31 20.5t36.5 7.5q29 0 47.5 -19.5t18.5 -48.5q0 -18 -8.5 -35t-22 -30t-31 -20.5t-35.5 -7.5zM243 595q13 0 25.5 5.5t22.5 14.5t16 21t6 25q0 20 -13.5 34.5t-33.5 14.5q-14 0 -26.5 -5.5t-22 -14.5t-15.5 -21
t-6 -25q0 -20 13 -34.5t34 -14.5z" />
    <glyph glyph-name="ogonek" unicode="&#x2db;" horiz-adv-x="600" 
d="M66 -207q-23 0 -38 15.5t-15 41.5q0 27 15.5 52.5t35 46t37.5 34.5t23 18h11q-7 -5 -22 -18.5t-30 -32.5t-26.5 -40.5t-11.5 -43.5t11.5 -34.5t31.5 -12.5q14 0 30 7t33 21h5q-22 -26 -44.5 -40t-45.5 -14z" />
    <glyph glyph-name="tilde" unicode="&#x2dc;" horiz-adv-x="600" 
d="M150 630q14 46 40 70.5t57 24.5q21 0 33.5 -8.5t23 -18t21 -18t27.5 -8.5q43 0 73 63h8q-14 -46 -40 -70.5t-58 -24.5q-21 0 -33.5 8.5t-22.5 18t-20.5 18t-26.5 8.5q-43 0 -74 -63h-8v0z" />
    <glyph glyph-name="hungarumlaut" unicode="&#x2dd;" horiz-adv-x="600" 
d="M144 575q38 55 66.5 91.5t49.5 58t35 30t22 8.5q16 0 13 -15q-2 -12 -19.5 -32.5t-43 -44.5t-55 -49.5t-55.5 -46.5h-13zM274 575q38 55 66.5 91.5t49.5 58t35 30t22 8.5q16 0 13 -15q-2 -12 -19.5 -32.5t-43 -44.5t-55 -49.5t-55.5 -46.5h-13z" />
    <glyph glyph-name="gravecomb" unicode="&#x300;" 
d="M78 575q-18 21 -38 46.5t-36 49.5t-25.5 44.5t-7.5 32.5q3 15 19 15q8 0 19 -8.5t23.5 -30t27.5 -58t31 -91.5h-13v0z" />
    <glyph glyph-name="acutecomb" unicode="&#x301;" 
d="M-67 575q38 55 66.5 91.5t49.5 58t35 30t22 8.5q16 0 13 -15q-2 -12 -19.5 -32.5t-43 -44.5t-55 -49.5t-55.5 -46.5h-13v0z" />
    <glyph glyph-name="uni0302" unicode="&#x302;" 
d="M-186 575q43 56 70 92.5t44.5 57.5t28 29.5t19.5 8.5t16.5 -8.5t16.5 -29.5t22 -57.5t34 -92.5h-13q-24 37 -47 72.5t-38 68.5q-27 -33 -64.5 -68.5t-75.5 -72.5h-13v0z" />
    <glyph glyph-name="tildecomb" unicode="&#x303;" 
d="M-168 630q14 46 40 70.5t57 24.5q21 0 33.5 -8.5t23 -18t21 -18t27.5 -8.5q43 0 73 63h8q-14 -46 -40 -70.5t-58 -24.5q-21 0 -33.5 8.5t-22.5 18t-20.5 18t-26.5 8.5q-43 0 -74 -63h-8v0z" />
    <glyph glyph-name="uni0304" unicode="&#x304;" 
d="M-155 680h263l-7 -38h-263z" />
    <glyph glyph-name="uni0306" unicode="&#x306;" 
d="M-60 575q-24 0 -46.5 9.5t-37.5 32t-20 58t5 88.5h13q-5 -26 -4 -52t11.5 -47t31 -34t55.5 -13q34 0 60 13t44.5 34t29.5 47t16 52h13q-10 -53 -29 -88.5t-42.5 -58t-49.5 -32t-50 -9.5z" />
    <glyph glyph-name="uni0307" unicode="&#x307;" 
d="M23 605q-21 0 -32 12t-11 30q0 25 18 43.5t45 18.5q20 0 31.5 -12.5t11.5 -30.5q0 -26 -18.5 -43.5t-44.5 -17.5z" />
    <glyph glyph-name="uni0308" unicode="&#x308;" 
d="M-172 628q-16 0 -24 8.5t-8 22.5q0 19 13.5 32.5t33.5 13.5q14 0 23 -9t9 -23q0 -19 -13.5 -32t-33.5 -13zM-42 628q-16 0 -24 8.5t-8 22.5q0 19 13.5 32.5t33.5 13.5q14 0 23 -9t9 -23q0 -19 -13.5 -32t-33.5 -13z" />
    <glyph glyph-name="uni030A" unicode="&#x30a;" 
d="M-4 572q-30 0 -48.5 20t-18.5 48q0 19 8.5 35.5t22 29.5t31 20.5t36.5 7.5q29 0 47.5 -19.5t18.5 -48.5q0 -18 -8.5 -35t-22 -30t-31 -20.5t-35.5 -7.5zM0 595q13 0 25.5 5.5t22.5 14.5t16 21t6 25q0 20 -13.5 34.5t-33.5 14.5q-14 0 -26.5 -5.5t-22 -14.5t-15.5 -21
t-6 -25q0 -20 13 -34.5t34 -14.5z" />
    <glyph glyph-name="uni030B" unicode="&#x30b;" 
d="M-229 575q38 55 66.5 91.5t49.5 58t35 30t22 8.5q16 0 13 -15q-2 -12 -19.5 -32.5t-43 -44.5t-55 -49.5t-55.5 -46.5h-13zM-99 575q38 55 66.5 91.5t49.5 58t35 30t22 8.5q16 0 13 -15q-2 -12 -19.5 -32.5t-43 -44.5t-55 -49.5t-55.5 -46.5h-13z" />
    <glyph glyph-name="uni030C" unicode="&#x30c;" 
d="M65 763q-43 -56 -70 -92.5t-44.5 -57.5t-28 -29.5t-19.5 -8.5t-16.5 8.5t-16.5 29.5t-22 57.5t-34 92.5h13q24 -37 47 -72.5t38 -68.5q27 33 64.5 68.5t75.5 72.5h13v0z" />
    <glyph glyph-name="uni0312" unicode="&#x312;" 
d="M38 586q-24 0 -31.5 21t-2.5 47q1 7 5 18.5t14 27.5t27 36t44 44h11q-57 -57 -63 -87q-3 -17 3.5 -25t15 -14t15 -13.5t3.5 -22.5q-3 -16 -15 -24t-26 -8z" />
    <glyph glyph-name="uni0326" unicode="&#x326;" 
d="M-75 -50q24 0 31.5 -21t2.5 -47q-2 -8 -5.5 -19t-13.5 -27t-27 -36t-44 -44h-11q57 57 63 87q3 17 -3.5 25t-15 14t-15 13.5t-3.5 22.5q3 16 15 24t26 8z" />
    <glyph glyph-name="uni0327" unicode="&#x327;" 
d="M-160 -204q-15 0 -29 4.5t-25 12.5l1 8q21 -10 46 -10q30 0 52.5 15.5t22.5 41.5q0 17 -15 31t-49 14l4 19l62 81h17l-54 -70q35 0 50 -15.5t15 -37.5q0 -15 -7.5 -31.5t-20.5 -30.5t-31 -23t-39 -9z" />
    <glyph glyph-name="uni0328" unicode="&#x328;" 
d="M-157 -207q-23 0 -38 15.5t-15 41.5q0 27 15.5 52.5t35 46t37.5 34.5t23 18h11q-7 -5 -22 -18.5t-30 -32.5t-26.5 -40.5t-11.5 -43.5t11.5 -34.5t31.5 -12.5q14 0 30 7t33 21h5q-22 -26 -44.5 -40t-45.5 -14z" />
    <glyph glyph-name="uni0335" unicode="&#x335;" 
d="M-235 300h243l-7 -38h-243z" />
    <glyph glyph-name="uni0336" unicode="&#x336;" 
d="M-595 300h603l-7 -38h-603z" />
    <glyph glyph-name="uni0337" unicode="&#x337;" 
d="M-289 287l330 128l-8 -39l-330 -127z" />
    <glyph glyph-name="uni0338" unicode="&#x338;" 
d="M76 725h47l-694 -771h-46z" />
    <glyph glyph-name="uni0394" unicode="&#x394;" horiz-adv-x="530" 
d="M319 643h30l127 -643h-520zM439 35l-114 557l-316 -557h430z" />
    <glyph glyph-name="uni03A9" unicode="&#x3a9;" horiz-adv-x="699" 
d="M66 10l168 41q-32 16 -56.5 41t-42 56.5t-26.5 68t-9 74.5q0 79 32.5 145.5t85.5 114.5t120.5 75t137.5 27q54 0 101 -18.5t81 -52.5t53.5 -82t19.5 -106q0 -56 -19 -108t-52.5 -97t-78.5 -80.5t-97 -57.5l152 -41l-2 -10h-140l-42 58q50 16 93.5 48.5t75.5 77.5
t50.5 98.5t18.5 111.5q0 52 -16 95.5t-44.5 75t-68.5 49t-89 17.5q-65 0 -125 -26.5t-106 -73.5t-73.5 -110.5t-27.5 -138.5q0 -79 33.5 -140.5t94.5 -83.5l-64 -58h-140z" />
    <glyph glyph-name="uni03BC" unicode="&#x3bc;" horiz-adv-x="472" 
d="M-47 -180l68 16l122 624h-67l2 10l101 30h10l-64 -332q-7 -34 -7 -62q0 -45 19 -65.5t54 -20.5q27 0 52 11t46.5 29t39 40t30.5 45l62 315h-66l2 10l101 30h10l-90 -460h66l-2 -10l-101 -30h-10l20 105q-12 -18 -29 -38.5t-39 -37.5t-49.5 -28.5t-59.5 -11.5
q-21 0 -40 8.5t-34 38.5l-39 -200l62 -16l-2 -10h-170z" />
    <glyph glyph-name="pi" unicode="&#x3c0;" horiz-adv-x="511" 
d="M38 10l70 26l90 464h311l-91 -464l60 -26l-2 -10h-170l2 10l70 26l84 429h-230l-84 -429l60 -26l-2 -10h-170z" />
    <glyph glyph-name="Wgrave" unicode="&#x1e80;" horiz-adv-x="1212" 
d="M800 810q-18 21 -38 46.5t-36 49.5t-25.5 44.5t-7.5 32.5q3 15 19 15q8 0 19 -8.5t23.5 -30t27.5 -58t31 -91.5h-13zM264 720l-70 30l2 10h195l-2 -10l-71 -30l77 -640l347 680h33l100 -680l320 640l-80 30l2 10h195l-2 -10l-84 -30l-362 -720h-30l-99 685l-350 -685h-30
z" />
    <glyph glyph-name="wgrave" unicode="&#x1e81;" horiz-adv-x="720" 
d="M570 575q-18 21 -38 46.5t-36 49.5t-25.5 44.5t-7.5 32.5q3 15 19 15q8 0 19 -8.5t23.5 -30t27.5 -58t31 -91.5h-13zM200 466h-74l2 10l102 24h10l43 -445l216 445h35l40 -445l136 282q14 29 24 57t10 49q0 17 -8 27t-27 10q-18 0 -41.5 -12.5t-46.5 -33.5v20
q21 21 46.5 36.5t55.5 15.5q29 0 41 -15t12 -38q0 -22 -9 -49.5t-23 -55.5l-172 -348h-30l-42 451l-218 -451h-30z" />
    <glyph glyph-name="Wacute" unicode="&#x1e82;" horiz-adv-x="1212" 
d="M710 810q38 55 66.5 91.5t49.5 58t35 30t22 8.5q16 0 13 -15q-2 -12 -19.5 -32.5t-43 -44.5t-55 -49.5t-55.5 -46.5h-13zM264 720l-70 30l2 10h195l-2 -10l-71 -30l77 -640l347 680h33l100 -680l320 640l-80 30l2 10h195l-2 -10l-84 -30l-362 -720h-30l-99 685l-350 -685
h-30z" />
    <glyph glyph-name="wacute" unicode="&#x1e83;" horiz-adv-x="720" 
d="M495 575q38 55 66.5 91.5t49.5 58t35 30t22 8.5q16 0 13 -15q-2 -12 -19.5 -32.5t-43 -44.5t-55 -49.5t-55.5 -46.5h-13zM200 466h-74l2 10l102 24h10l43 -445l216 445h35l40 -445l136 282q14 29 24 57t10 49q0 17 -8 27t-27 10q-18 0 -41.5 -12.5t-46.5 -33.5v20
q21 21 46.5 36.5t55.5 15.5q29 0 41 -15t12 -38q0 -22 -9 -49.5t-23 -55.5l-172 -348h-30l-42 451l-218 -451h-30z" />
    <glyph glyph-name="Wdieresis" unicode="&#x1e84;" horiz-adv-x="1212" 
d="M700 859q-16 0 -24 8.5t-8 22.5q0 19 13.5 32.5t33.5 13.5q14 0 23 -9t9 -23q0 -19 -13.5 -32t-33.5 -13zM830 859q-16 0 -24 8.5t-8 22.5q0 19 13.5 32.5t33.5 13.5q14 0 23 -9t9 -23q0 -19 -13.5 -32t-33.5 -13zM264 720l-70 30l2 10h195l-2 -10l-71 -30l77 -640
l347 680h33l100 -680l320 640l-80 30l2 10h195l-2 -10l-84 -30l-362 -720h-30l-99 685l-350 -685h-30z" />
    <glyph glyph-name="wdieresis" unicode="&#x1e85;" horiz-adv-x="720" 
d="M477 628q-16 0 -24 8.5t-8 22.5q0 19 13.5 32.5t33.5 13.5q14 0 23 -9t9 -23q0 -19 -13.5 -32t-33.5 -13zM607 628q-16 0 -24 8.5t-8 22.5q0 19 13.5 32.5t33.5 13.5q14 0 23 -9t9 -23q0 -19 -13.5 -32t-33.5 -13zM200 466h-74l2 10l102 24h10l43 -445l216 445h35
l40 -445l136 282q14 29 24 57t10 49q0 17 -8 27t-27 10q-18 0 -41.5 -12.5t-46.5 -33.5v20q21 21 46.5 36.5t55.5 15.5q29 0 41 -15t12 -38q0 -22 -9 -49.5t-23 -55.5l-172 -348h-30l-42 451l-218 -451h-30z" />
    <glyph glyph-name="Ygrave" unicode="&#x1ef2;" horiz-adv-x="753" 
d="M535 810q-18 21 -38 46.5t-36 49.5t-25.5 44.5t-7.5 32.5q3 15 19 15q8 0 19 -8.5t23.5 -30t27.5 -58t31 -91.5h-13zM299 10l79 26l44 245l-166 445l-62 24l2 10h195l-2 -10l-77 -24l153 -403l282 403l-91 24l2 10h195l-2 -10l-74 -24l-309 -439l-45 -251l71 -26l-2 -10
h-195z" />
    <glyph glyph-name="ygrave" unicode="&#x1ef3;" horiz-adv-x="476" 
d="M400 575q-18 21 -38 46.5t-36 49.5t-25.5 44.5t-7.5 32.5q3 15 19 15q8 0 19 -8.5t23.5 -30t27.5 -58t31 -91.5h-13zM112 -206q-33 0 -53 22t-34 54h15q15 -32 32 -45t34 -13q19 0 40.5 12.5t44 35.5t45 55t42.5 71l-77 474h-76l2 10l101 30h10l74 -465l155 285
q19 36 32 68t13 55q0 37 -38 37q-15 0 -35.5 -10t-49.5 -36v20q31 32 55.5 42t42.5 10q24 0 39 -12t15 -40q0 -23 -12 -58.5t-36 -79.5l-184 -330q-32 -57 -59.5 -94t-52 -58.5t-46 -30.5t-39.5 -9z" />
    <glyph glyph-name="uni2009" unicode="&#x2009;" horiz-adv-x="150" 
 />
    <glyph glyph-name="endash" unicode="&#x2013;" horiz-adv-x="453" 
d="M108 300h353l-7 -38h-353z" />
    <glyph glyph-name="emdash" unicode="&#x2014;" horiz-adv-x="653" 
d="M108 300h553l-7 -38h-553z" />
    <glyph glyph-name="quoteleft" unicode="&#x2018;" horiz-adv-x="112" 
d="M236 767q-29 -29 -45 -54t-21 -49q-2 -6 -2 -13.5v-15.5q0 -20 4 -41t13 -35q-4 -22 -18.5 -30.5t-28.5 -8.5q-16 0 -26 9.5t-10 28.5q0 3 0.5 6.5t1.5 8.5q3 16 12.5 39.5t25.5 50.5t37 54t47 50h10v0z" />
    <glyph glyph-name="quoteright" unicode="&#x2019;" horiz-adv-x="120" 
d="M79 520q29 29 45 54t21 49q2 6 2 13.5v15.5q0 20 -4 41t-13 35q4 22 18.5 30.5t28.5 8.5q16 0 26 -9.5t10 -28.5q0 -3 -0.5 -6.5t-1.5 -8.5q-3 -16 -12.5 -39.5t-25.5 -50.5t-37 -54t-47 -50h-10v0z" />
    <glyph glyph-name="quotesinglbase" unicode="&#x201a;" horiz-adv-x="130" 
d="M-20 -144q39 41 53.5 66.5t14.5 49.5q0 17 -6.5 31.5t-16.5 30.5q4 22 20 35.5t35 13.5t29.5 -11t10.5 -29q0 -32 -34.5 -82.5t-95.5 -104.5h-10v0z" />
    <glyph glyph-name="quotedblleft" unicode="&#x201c;" horiz-adv-x="234" 
d="M236 767q-29 -29 -45 -54t-21 -49q-2 -6 -2 -13.5v-15.5q0 -20 4 -41t13 -35q-4 -22 -18.5 -30.5t-28.5 -8.5q-16 0 -26 9.5t-10 28.5q0 3 0.5 6.5t1.5 8.5q3 16 12.5 39.5t25.5 50.5t37 54t47 50h10zM358 767q-29 -29 -45 -54t-21 -49q-2 -6 -2 -13.5v-15.5q0 -20 4 -41
t13 -35q-4 -22 -18.5 -30.5t-28.5 -8.5q-16 0 -26 9.5t-10 28.5q0 3 0.5 6.5t1.5 8.5q3 16 12.5 39.5t25.5 50.5t37 54t47 50h10z" />
    <glyph glyph-name="quotedblright" unicode="&#x201d;" horiz-adv-x="242" 
d="M79 520q29 29 45 54t21 49q2 6 2 13.5v15.5q0 20 -4 41t-13 35q4 22 18.5 30.5t28.5 8.5q16 0 26 -9.5t10 -28.5q0 -3 -0.5 -6.5t-1.5 -8.5q-3 -16 -12.5 -39.5t-25.5 -50.5t-37 -54t-47 -50h-10zM201 520q29 29 45 54t21 49q2 6 2 13.5v15.5q0 20 -4 41t-13 35
q4 22 18.5 30.5t28.5 8.5q16 0 26 -9.5t10 -28.5q0 -3 -0.5 -6.5t-1.5 -8.5q-3 -16 -12.5 -39.5t-25.5 -50.5t-37 -54t-47 -50h-10z" />
    <glyph glyph-name="quotedblbase" unicode="&#x201e;" horiz-adv-x="253" 
d="M-23 -164q29 29 45 54t21 49q2 12 2.5 26t-1.5 28.5t-6 28t-10 22.5q4 22 18.5 30.5t28.5 8.5q19 0 29 -13.5t5 -39.5q-3 -16 -12.5 -39.5t-25.5 -50.5t-37 -54t-47 -50h-10zM109 -164q29 29 45 54t21 49q2 12 2.5 26t-1.5 28.5t-6 28t-10 22.5q4 22 18.5 30.5t28.5 8.5
q19 0 29 -13.5t5 -39.5q-3 -16 -12.5 -39.5t-25.5 -50.5t-37 -54t-47 -50h-10z" />
    <glyph glyph-name="dagger" unicode="&#x2020;" horiz-adv-x="523" 
d="M588 649l-39 -200h-10l-28 85h-123l-95 -489l68 -35l-2 -10h-195l2 10l82 35l95 489h-123l-62 -85h-10l39 200h10l29 -85h123l35 181l-66 45l2 10h195l-2 -10l-84 -45l-35 -181h123l61 85h10z" />
    <glyph glyph-name="daggerdbl" unicode="&#x2021;" horiz-adv-x="435" 
d="M215 490l80 25l21 110h-88l-51 -85h-10l39 200h10l18 -85h88l20 100l-68 35l2 10h195l-2 -10l-82 -35l-20 -100h88l52 85h10l-39 -200h-10l-19 85h-88l-21 -110l70 -25l-2 -10h-195zM122 10l80 25l21 110h-88l-51 -85h-10l39 200h10l18 -85h88l19 100l-68 35l2 10h195
l-2 -10l-82 -35l-19 -100h88l52 85h10l-39 -200h-10l-19 85h-88l-21 -110l70 -25l-2 -10h-195z" />
    <glyph glyph-name="bullet" unicode="&#x2022;" horiz-adv-x="270" 
d="M161 183q-29 0 -44.5 16.5t-15.5 42.5q0 17 7 33t19 28t28 19t34 7q29 0 45 -17.5t16 -43.5q0 -36 -25.5 -60.5t-63.5 -24.5z" />
    <glyph glyph-name="ellipsis" unicode="&#x2026;" horiz-adv-x="434" 
d="M57 -11q-19 0 -29 10.5t-10 27.5q0 23 16.5 39.5t40.5 16.5q18 0 28.5 -11t10.5 -28q0 -23 -16.5 -39t-40.5 -16zM207 -11q-19 0 -29 10.5t-10 27.5q0 23 16.5 39.5t40.5 16.5q18 0 28.5 -11t10.5 -28q0 -23 -16.5 -39t-40.5 -16zM357 -11q-19 0 -29 10.5t-10 27.5
q0 23 16.5 39.5t40.5 16.5q18 0 28.5 -11t10.5 -28q0 -23 -16.5 -39t-40.5 -16z" />
    <glyph glyph-name="perthousand" unicode="&#x2030;" horiz-adv-x="1283" 
d="M247 398q-30 0 -51.5 12.5t-35 33.5t-19.5 47.5t-6 54.5q0 46 15 91.5t41.5 82.5t63.5 60t81 23q31 0 52.5 -13.5t35.5 -36t20.5 -50.5t6.5 -56q0 -45 -15.5 -90t-43 -80t-65 -57t-80.5 -22zM262 415q25 0 52 14t49 42t36 68.5t14 93.5q0 33 -7 61.5t-19 49t-29 32
t-36 11.5q-24 0 -51 -15.5t-49.5 -45t-37.5 -71t-15 -92.5q0 -65 26 -106.5t67 -41.5zM761 760h32l-530 -760h-30zM731 -6q-30 0 -51.5 12.5t-35 33.5t-19.5 47.5t-6 54.5q0 46 15 91.5t41.5 82.5t63.5 60t81 23q31 0 52.5 -13.5t35.5 -36t20.5 -50.5t6.5 -56
q0 -45 -15.5 -90t-43 -80t-65 -57t-80.5 -22zM1098 -6q-30 0 -51.5 12.5t-35 33.5t-19.5 47.5t-6 54.5q0 46 15 91.5t41.5 82.5t63.5 60t81 23q31 0 52.5 -13.5t35.5 -36t20.5 -50.5t6.5 -56q0 -45 -15.5 -90t-43 -80t-65 -57t-80.5 -22zM746 11q25 0 52 14t49 42t36 68.5
t14 93.5q0 33 -7 61.5t-19 49t-29 32t-36 11.5q-24 0 -51 -15.5t-49.5 -45t-37.5 -71t-15 -92.5q0 -65 26 -106.5t67 -41.5zM1113 11q25 0 52 14t49 42t36 68.5t14 93.5q0 33 -7 61.5t-19 49t-29 32t-36 11.5q-24 0 -51 -15.5t-49.5 -45t-37.5 -71t-15 -92.5
q0 -65 26 -106.5t67 -41.5z" />
    <glyph glyph-name="guilsinglleft" unicode="&#x2039;" horiz-adv-x="299" 
d="M301 448q-50 -48 -99.5 -94.5t-104.5 -94.5q36 -48 67.5 -94t63.5 -94h-15l-155 185l1 6l227 186h15v0z" />
    <glyph glyph-name="guilsinglright" unicode="&#x203a;" horiz-adv-x="299" 
d="M11 71q50 48 99.5 94.5t104.5 94.5q-36 48 -67.5 94t-63.5 94h15l155 -185l-1 -6l-227 -186h-15v0z" />
    <glyph glyph-name="fraction" unicode="&#x2044;" horiz-adv-x="210" 
d="M408 760h32l-530 -760h-30z" />
    <glyph glyph-name="Euro" unicode="&#x20ac;" horiz-adv-x="653" 
d="M563 768q43 0 71 -11.5t45 -26.5t24.5 -29t10.5 -19l-30 -150h-20q5 26 7.5 48.5t2.5 42.5q0 55 -26.5 86.5t-95.5 31.5q-45 0 -88.5 -19t-80 -57t-64 -96t-42.5 -137h208l-6 -32h-208q-2 -17 -3.5 -33.5t-3.5 -34.5h202l-7 -32h-196q-1 -9 -1 -18v-19q0 -127 42.5 -187
t109.5 -60q31 0 60.5 11.5t55 36.5t45 65t30.5 96h20l-29 -150q-5 -5 -18 -19t-36 -29t-55 -26.5t-74 -11.5q-57 0 -94 27t-59 68.5t-31 92.5t-9 99v12t1 12h-115l7 32h110q2 17 4 33.5t6 34.5h-107l6 32h108q14 60 40 120t65.5 108t93.5 78t124 30z" />
    <glyph glyph-name="trademark" unicode="&#x2122;" horiz-adv-x="713" 
d="M241 470l28 15l50 258h-74l-39 -43h-7q8 20 14.5 32t10.5 28h222q-1 -16 0 -28t2 -32h-7l-23 43h-75l-50 -258l24 -15l-1 -7h-76zM441 470l28 15l50 255l-23 11l2 9h49l56 -257l152 257h44l-2 -9l-26 -11l-50 -255l21 -15l-1 -7h-76l1 7l31 15l44 226l-144 -248h-12
l-51 234l-41 -212l23 -15l-1 -7h-75z" />
    <glyph glyph-name="oneeighth" unicode="&#x215b;" horiz-adv-x="718" 
d="M152 409l46 16l65 336l-112 -104l3 12l113 130h78l-1 -5l-47 -19l-68 -350l40 -16l-1 -5h-117zM620 760h32l-530 -760h-30zM549 -6q-52 0 -83.5 24.5t-31.5 66.5q0 48 31.5 82t83.5 45q-28 7 -44.5 27t-16.5 47q0 51 39 82t104 31q46 0 74 -22.5t28 -60.5
q0 -32 -26.5 -60.5t-70.5 -42.5h-1q37 -5 59 -29.5t22 -60.5q0 -58 -46 -93.5t-121 -35.5zM596 220q45 0 72 24.5t27 64.5q0 33 -20.5 53.5t-55.5 20.5q-45 0 -71.5 -25.5t-26.5 -67.5q0 -32 20.5 -51t54.5 -19zM561 11q54 0 86.5 30t32.5 79q0 37 -24.5 59.5t-66.5 22.5
q-55 0 -88.5 -29t-33.5 -77q0 -38 26 -61.5t68 -23.5z" />
    <glyph glyph-name="threeeighths" unicode="&#x215c;" horiz-adv-x="813" 
d="M406 539q0 -29 -15 -54.5t-39.5 -45t-56.5 -30.5t-66 -11q-20 0 -40 4.5t-36.5 12.5t-27 19.5t-12.5 26.5l34 82h19q-8 -17 -14 -35.5t-6 -32.5q0 -19 9 -31.5t22.5 -19.5t29 -9.5t29.5 -2.5q31 0 56 10.5t42.5 28.5t26.5 41.5t9 49.5q0 61 -68 61q-6 0 -15 -1.5
t-19.5 -4.5t-21.5 -7t-19 -9l5 22q76 27 111 57t35 68q0 24 -17.5 40.5t-53.5 16.5q-18 0 -36 -4.5t-32 -14.5t-23 -27t-9 -42q0 -8 0.5 -21.5t2.5 -26.5h-19l-14 83q7 9 20.5 21t31.5 23.5t40 19t47 7.5q18 0 36 -4t32 -12.5t23 -22t9 -31.5q0 -35 -30.5 -65t-89.5 -53
q20 3 39.5 0t35.5 -12.5t25.5 -25.5t9.5 -38zM747 760l-530 -760h-30l528 760h32zM730 213q37 -5 59 -29.5t22 -60.5q0 -58 -46 -93.5t-121 -35.5q-52 0 -83.5 24.5t-31.5 66.5q0 48 31.5 82t83.5 45q-28 7 -44.5 27t-16.5 47q0 51 39 82t104 31q46 0 74 -22.5t28 -60.5
q0 -32 -26.5 -60.5t-70.5 -42.5h-1zM616 290q0 -32 20.5 -51t54.5 -19q45 0 72 24.5t27 64.5q0 33 -20.5 53.5t-55.5 20.5q-45 0 -71.5 -25.5t-26.5 -67.5zM656 11q54 0 86.5 30t32.5 79q0 37 -24.5 59.5t-66.5 22.5q-55 0 -88.5 -29t-33.5 -77q0 -38 26 -61.5t68 -23.5z
" />
    <glyph glyph-name="fiveeighths" unicode="&#x215d;" horiz-adv-x="863" 
d="M272 399q-35 0 -60 11t-42 30t-27 43t-16 50h17q8 -25 17.5 -46t23.5 -36.5t33.5 -24.5t48.5 -9q34 0 64 11.5t52.5 31.5t35.5 47.5t13 59.5q0 39 -22.5 64t-64.5 25q-35 0 -69.5 -20.5t-58.5 -71.5h-36l81 208l-36 22l1 5h238q-1 -11 -0.5 -20l1 -18t2 -20t1.5 -25h-11
l-30 68h-127l-68 -170q21 26 56 42t71 16q48 0 79.5 -29t31.5 -77q0 -35 -16.5 -65t-44.5 -53t-63.5 -36t-74.5 -13zM765 760h32l-530 -760h-30zM694 -6q-52 0 -83.5 24.5t-31.5 66.5q0 48 31.5 82t83.5 45q-28 7 -44.5 27t-16.5 47q0 51 39 82t104 31q46 0 74 -22.5
t28 -60.5q0 -32 -26.5 -60.5t-70.5 -42.5h-1q37 -5 59 -29.5t22 -60.5q0 -58 -46 -93.5t-121 -35.5zM741 220q45 0 72 24.5t27 64.5q0 33 -20.5 53.5t-55.5 20.5q-45 0 -71.5 -25.5t-26.5 -67.5q0 -32 20.5 -51t54.5 -19zM706 11q54 0 86.5 30t32.5 79q0 37 -24.5 59.5
t-66.5 22.5q-55 0 -88.5 -29t-33.5 -77q0 -38 26 -61.5t68 -23.5z" />
    <glyph glyph-name="seveneighths" unicode="&#x215e;" horiz-adv-x="733" 
d="M263 596h-74l3 15h80l101 173h-146l-52 -68h-12q12 29 20.5 45t15.5 38h241l-1 -5l-44 -23l-90 -155l47 -9l-2 -11h-57l-106 -192h-29zM635 760h32l-530 -760h-30zM564 -6q-52 0 -83.5 24.5t-31.5 66.5q0 48 31.5 82t83.5 45q-28 7 -44.5 27t-16.5 47q0 51 39 82t104 31
q46 0 74 -22.5t28 -60.5q0 -32 -26.5 -60.5t-70.5 -42.5h-1q37 -5 59 -29.5t22 -60.5q0 -58 -46 -93.5t-121 -35.5zM611 220q45 0 72 24.5t27 64.5q0 33 -20.5 53.5t-55.5 20.5q-45 0 -71.5 -25.5t-26.5 -67.5q0 -32 20.5 -51t54.5 -19zM576 11q54 0 86.5 30t32.5 79
q0 37 -24.5 59.5t-66.5 22.5q-55 0 -88.5 -29t-33.5 -77q0 -38 26 -61.5t68 -23.5z" />
    <glyph glyph-name="arrowleft" unicode="&#x2190;" horiz-adv-x="1218" 
d="M97 356h997l-6 -34h-997l125 -171h-15l-206 185l1 6l279 186h15z" />
    <glyph glyph-name="arrowup" unicode="&#x2191;" horiz-adv-x="499" 
d="M368 702l-201 -159l2 15l233 242h6l138 -242l-2 -15l-142 159l-175 -902h-34z" />
    <glyph glyph-name="arrowright" unicode="&#x2192;" horiz-adv-x="1218" 
d="M1122 323h-997l6 34h997l-125 171h15l206 -185l-1 -6l-279 -186h-15z" />
    <glyph glyph-name="arrowdown" unicode="&#x2193;" horiz-adv-x="498" 
d="M247 -102l201 159l-2 -15l-233 -242h-6l-138 242l2 15l142 -159l175 902h34z" />
    <glyph glyph-name="arrowboth" unicode="&#x2194;" horiz-adv-x="1218" 
d="M128 337l1 6l278 185h15l-193 -171h899l-125 171h15l206 -185l-1 -6l-279 -186h-15l193 172h-899l125 -172h-15z" />
    <glyph glyph-name="arrowupdn" unicode="&#x2195;" horiz-adv-x="500" 
d="M70 42l3 15l140 -159l156 804l-201 -159l2 15l233 242h6l138 -242l-2 -15l-142 159l-156 -804l203 159l-3 -15l-233 -242h-6z" />
    <glyph glyph-name="uni2196" unicode="&#x2196;" horiz-adv-x="749" 
d="M0 705l-26 -223l-10 12l-18 303l4 3l304 -117l10 -13l-237 52l696 -905l-27 -17z" />
    <glyph glyph-name="uni2197" unicode="&#x2197;" horiz-adv-x="749" 
d="M26 -183l696 905l-237 -52l10 13l304 117l4 -3l-18 -303l-10 -12l-26 223l-696 -905z" />
    <glyph glyph-name="uni2198" unicode="&#x2198;" horiz-adv-x="839" 
d="M786 -105l26 223l10 -12l18 -303l-4 -3l-304 117l-10 13l237 -52l-696 905l27 17z" />
    <glyph glyph-name="uni2199" unicode="&#x2199;" horiz-adv-x="749" 
d="M840 783l-696 -905l237 52l-10 -13l-304 -117l-4 3l18 303l10 12l26 -223l696 905z" />
    <glyph glyph-name="partialdiff" unicode="&#x2202;" horiz-adv-x="586" 
d="M265 -11q-41 0 -71.5 14t-51.5 38t-31.5 56t-10.5 68q0 13 1.5 25.5t3.5 26.5q9 44 31.5 89.5t57 82.5t80.5 60.5t100 23.5q36 0 64.5 -10t51 -25t38.5 -33t27 -33l5 -1q4 21 6 40.5t2 39.5q0 58 -16 107t-43 87.5t-62.5 65t-74.5 39.5l6 18q31 -12 70 -34t73.5 -59.5
t57.5 -92.5t23 -131q0 -49 -10 -102q-15 -80 -47.5 -146t-76 -113.5t-96 -74t-107.5 -26.5zM272 23q42 0 84.5 18.5t80 57.5t67 98t45.5 140q-13 18 -31 37t-41 34.5t-50.5 25t-58.5 9.5q-39 0 -75.5 -16t-66.5 -45t-51.5 -69.5t-30.5 -88.5q-6 -30 -6 -56q0 -65 34 -105
t100 -40z" />
    <glyph glyph-name="emptyset" unicode="&#x2205;" horiz-adv-x="769" 
d="M723 564q26 -37 39.5 -82t13.5 -96q0 -85 -35 -157.5t-92 -126t-130 -83.5t-149 -30q-56 0 -101 18t-78 51l-73 -70l-19 18l75 72q-27 35 -41.5 79.5t-14.5 97.5q0 87 34 162t90.5 131t128.5 88t148 32q60 0 107 -22.5t81 -60.5l67 64l19 -18zM172 279q0 -50 12 -90
t33 -71l451 430q-32 44 -76.5 66t-92.5 22q-47 0 -104 -19t-106.5 -61.5t-83 -110.5t-33.5 -166zM723 366q0 48 -10.5 88t-29.5 72l-450 -428q33 -38 77 -57.5t91 -19.5q31 0 67.5 7t72 23t68.5 42t58.5 64.5t40.5 90t15 118.5z" />
    <glyph glyph-name="product" unicode="&#x220f;" horiz-adv-x="634" 
d="M44 -90l79 24l155 796l-71 20l2 10h512l-2 -10l-79 -20l-155 -796l71 -24l-2 -10h-195l2 10l79 24l155 796h-272l-155 -796l71 -24l-2 -10h-195z" />
    <glyph glyph-name="summation" unicode="&#x2211;" horiz-adv-x="590" 
d="M44 -90l56 19l298 391l-112 400l-52 30l2 10h387l-2 -10q-2 -18 -1.5 -34t2 -32.5t3 -35t2.5 -43.5h-10l-41 125h-247l114 -410l-302 -390h289l100 125h10q-10 -25 -19 -43.5t-16.5 -35t-14 -32.5t-12.5 -34l-2 -10h-434z" />
    <glyph glyph-name="minus" unicode="&#x2212;" horiz-adv-x="479" 
d="M120 297h353l-6 -32h-353z" />
    <glyph glyph-name="radical" unicode="&#x221a;" horiz-adv-x="799" 
d="M193 293l-70 27l2 10h195l-2 -10l-81 -27l50 -333l369 800h230l-2 -8l-216 -32l-383 -820h-30z" />
    <glyph glyph-name="infinity" unicode="&#x221e;" horiz-adv-x="792" 
d="M236 131q-25 0 -46.5 8.5t-38 24.5t-26 38.5t-9.5 51.5q0 39 15 71t40 55t56 36t64 13q51 0 94.5 -31.5t71.5 -85.5q49 54 104 85.5t106 31.5t84.5 -33t33.5 -89q0 -41 -16 -73.5t-41.5 -55t-57.5 -35t-64 -12.5q-51 0 -92.5 31.5t-69.5 85.5q-49 -54 -103 -85.5
t-105 -31.5zM246 162q50 0 97.5 33.5t84.5 84.5q-21 54 -56.5 87t-83.5 33q-26 0 -50 -10t-42.5 -28.5t-29.5 -44.5t-11 -58q0 -45 25 -71t66 -26zM608 162q27 0 52 10t44.5 29t31 45.5t11.5 58.5q0 45 -25.5 70t-63.5 25q-44 0 -92 -31t-94 -89q19 -53 53.5 -85.5
t82.5 -32.5z" />
    <glyph glyph-name="integral" unicode="&#x222b;" horiz-adv-x="517" 
d="M124 -133q-20 0 -33 8t-21.5 19.5t-12.5 24t-6 22.5l35 154h14q-18 -92 -18 -138q0 -38 10 -53.5t29 -15.5q36 0 64 48t52.5 126t47.5 178.5t50 205.5q21 85 40 146t39.5 100t45.5 57.5t58 18.5q23 0 36.5 -7.5t21 -18.5t10.5 -24t4 -23l-36 -155h-15q16 86 16 133
q0 41 -10.5 56.5t-30.5 15.5q-18 0 -34.5 -13t-33 -45.5t-33.5 -86t-38 -134.5q-19 -73 -36 -146t-33.5 -140t-35 -124t-40 -99t-47.5 -66t-59 -24z" />
    <glyph glyph-name="approxequal" unicode="&#x2248;" horiz-adv-x="482" 
d="M368 312q-28 0 -46.5 8.5t-34.5 19t-32 19.5t-38 9q-10 0 -22 -2.5t-23 -8.5t-20 -16t-13 -26h-15q8 38 36 61.5t70 23.5q27 0 45.5 -9t34.5 -19.5t33 -19t41 -8.5q10 0 22.5 2.5t23.5 8.5t20 16t13 26h15q-10 -38 -38 -61.5t-72 -23.5zM355 157q-28 0 -46.5 8.5
t-34.5 19t-32 19.5t-38 9q-10 0 -22 -2.5t-23 -8.5t-20 -16t-13 -26h-15q8 38 36 61.5t70 23.5q27 0 45.5 -9t34.5 -19.5t33 -19t41 -8.5q10 0 22.5 2.5t23.5 8.5t20 16t13 26h15q-10 -38 -38 -61.5t-72 -23.5z" />
    <glyph glyph-name="notequal" unicode="&#x2260;" horiz-adv-x="498" 
d="M363 355l-84 -148h195l-6 -32h-208l-83 -145h-30l83 145h-115l6 32h127l85 148h-201l6 32h213l83 145h31l-83 -145h109l-6 -32h-122z" />
    <glyph glyph-name="lessequal" unicode="&#x2264;" horiz-adv-x="533" 
d="M116 276l2 10l447 233l-7 -35l-398 -205l319 -208l-7 -29zM72 32h403l-6 -32h-403z" />
    <glyph glyph-name="greaterequal" unicode="&#x2265;" horiz-adv-x="530" 
d="M80 77l398 205l-319 208l7 29l356 -234l-2 -10l-447 -233zM69 32h403l-6 -32h-403z" />
    <glyph glyph-name="lozenge" unicode="&#x25ca;" horiz-adv-x="520" 
d="M517 300l-246 -314h-30l-122 314l244 314h30zM487 300l-107 275l-212 -275l105 -275z" />
    <glyph glyph-name="ff" unicode="&#xfb00;" horiz-adv-x="589" 
d="M39 10l68 16l87 449h-61l5 25h61l26 132q8 40 20.5 73.5t31.5 58t44 38.5t57 14q27 0 48 -8t39 -20t35.5 -26t37.5 -26q20 38 49 59t69 21q27 0 47.5 -8.5t35 -20.5t24 -25t14.5 -23l-89 -154h-15q26 47 38.5 82t12.5 60q0 63 -73 63q-42 0 -68 -43t-42 -125l-24 -122
h132l-5 -25h-132l-88 -449l63 -16l-2 -10h-170l2 10l68 16l87 449h-238l-86 -449l61 -16l-2 -10h-170zM477 500l23 117q2 10 4.5 24.5t2.5 18.5q0 24 -10.5 47.5t-28.5 41.5t-42.5 29.5t-52.5 11.5q-42 0 -67.5 -42t-39.5 -111l-27 -137h238z" />
    <glyph glyph-name="fi" unicode="&#xfb01;" horiz-adv-x="522" 
d="M39 10l70 26l86 439h-62l5 25h61l25 129q7 39 19.5 73t31.5 59.5t45.5 40t61.5 14.5q31 0 44.5 -11t23.5 -25.5t25.5 -29.5t51.5 -23q45 -10 45 -39q0 -22 -13.5 -34.5t-33.5 -12.5q-16 0 -27 11t-20 27.5t-17.5 36t-19.5 36t-26 27.5t-37 11q-45 0 -71.5 -40t-40.5 -113
l-27 -137h281l-91 -460h66l-2 -10l-103 -30h-8l93 475h-240l-86 -439l60 -26l-2 -10h-170z" />
    <glyph glyph-name="fl" unicode="&#xfb02;" horiz-adv-x="533" 
d="M39 10l70 26l86 439h-62l5 25h61l26 132q8 39 20.5 73t31.5 58.5t43.5 38.5t56.5 14q27 0 47 -5.5t37.5 -12t33.5 -12t35 -5.5q14 0 28.5 4t30.5 15h10l-149 -760h66l-2 -10l-103 -30h-8l128 660q1 5 1.5 9.5t0.5 9.5q0 29 -16.5 50t-41 34.5t-52 20t-48.5 6.5
q-44 0 -69.5 -42.5t-39.5 -110.5l-27 -137h132l-5 -25h-131l-86 -439l60 -26l-2 -10h-170z" />
    <glyph glyph-name="ffi" unicode="&#xfb03;" horiz-adv-x="801" 
d="M39 10l68 16l87 449h-61l5 25h61l26 132q8 40 20.5 73.5t31.5 58t44 38.5t57 14q27 0 48 -8t39 -20t35.5 -26t37.5 -26q20 36 49.5 58t73.5 22q31 0 44.5 -11t23.5 -25.5t25.5 -29.5t51.5 -23q45 -10 45 -39q0 -22 -13.5 -34.5t-33.5 -12.5q-16 0 -27 11t-20 27.5
t-17.5 36t-19.5 36t-26 27.5t-37 11q-45 0 -71.5 -40t-40.5 -113l-27 -137h281l-89 -460h64l-2 -10l-103 -30h-8l93 475h-240l-85 -449l59 -16l-2 -10h-170l2 10l68 16l88 449h-240l-84 -449l59 -16l-2 -10h-170zM478 500l27 140q1 5 1.5 10t0.5 10q0 24 -10.5 47.5
t-28.5 41.5t-42.5 29.5t-52.5 11.5q-42 0 -67.5 -42t-39.5 -111l-27 -137h239z" />
    <glyph glyph-name="ffl" unicode="&#xfb04;" horiz-adv-x="813" 
d="M39 10l68 16l87 449h-61l5 25h61l25 128q8 41 21 75.5t31.5 59.5t44 39t57.5 14q27 0 48 -8.5t39 -20.5t35.5 -26t38.5 -26q20 38 48.5 59.5t69.5 21.5q27 0 47 -5.5t37.5 -12t33.5 -12t35 -5.5q14 0 28.5 4t30.5 15h10l-149 -760h66l-2 -10l-103 -30h-8l128 660
q1 5 1.5 9.5t0.5 9.5q0 29 -16.5 50t-41 34.5t-52 20t-48.5 6.5q-44 0 -69.5 -42.5t-39.5 -110.5l-27 -137h132l-5 -25h-131l-88 -449l62 -16l-2 -10h-170l2 10l68 16l88 449h-241l-88 -449l63 -16l-2 -10h-170zM479 500l26 133q1 5 1.5 11t0.5 12q0 27 -11 51.5t-29.5 43
t-42.5 29t-51 10.5q-42 0 -67.5 -42t-39.5 -111l-27 -137h240z" />
    <glyph glyph-name="B.ss01" horiz-adv-x="665" 
d="M51 10l80 26l133 684l-69 30l2 10h275q102 0 161.5 -43t59.5 -121q0 -61 -35 -115t-99 -92q-13 -8 -26 -13t-27 -9q32 -6 59.5 -17.5t48 -29.5t32 -42.5t11.5 -56.5q0 -41 -17 -80.5t-51 -70.5t-86.5 -50.5t-122.5 -19.5h-331zM378 16q70 0 114 24t69 57t34 68.5t9 58.5
q0 64 -44 98.5t-129 34.5q-15 0 -32 2.5t-35.5 11.5t-39.5 26.5t-45 47.5l264 197h15q-17 -14 -41 -33.5t-48.5 -42t-47 -46t-35.5 -45.5q-19 -32 -19 -59q0 -5 1 -11t3 -10q4 -8 11.5 -12t16.5 -6.5t17.5 -3t15.5 -0.5q48 0 87.5 20t67 52.5t43 74t15.5 85.5
q0 70 -46 102.5t-139 32.5h-147l-141 -724h206z" />
    <glyph glyph-name="C.ss01" horiz-adv-x="816" 
d="M405 -11q-62 0 -115 19.5t-92.5 57t-62 91.5t-22.5 123q0 40 9 87q17 87 60 160.5t105 127t139.5 83.5t162.5 30q44 0 81 -9t65 -22.5t47 -29.5t27 -31l-276 -472h-15q28 51 58 104.5t57 103.5t46.5 94.5t26.5 77.5q3 18 3 35q0 30 -11 51t-30.5 34.5t-46 20t-57.5 6.5
q-53 0 -114 -16.5t-116.5 -55t-98.5 -101.5t-61 -156q-5 -27 -7.5 -52t-2.5 -48q0 -77 25 -129.5t65 -85t89 -47t96 -14.5q112 0 207.5 70.5t164.5 204.5h15q-33 -69 -78 -126.5t-99 -99t-116 -64t-128 -22.5z" />
    <glyph glyph-name="Cacute.ss01" horiz-adv-x="816" 
d="M494 810q38 55 66.5 91.5t49.5 58t35 30t22 8.5q16 0 13 -15q-2 -12 -19.5 -32.5t-43 -44.5t-55 -49.5t-55.5 -46.5h-13zM405 -11q-62 0 -115 19.5t-92.5 57t-62 91.5t-22.5 123q0 40 9 87q17 87 60 160.5t105 127t139.5 83.5t162.5 30q44 0 81 -9t65 -22.5t47 -29.5
t27 -31l-276 -472h-15q28 51 58 104.5t57 103.5t46.5 94.5t26.5 77.5q3 18 3 35q0 30 -11 51t-30.5 34.5t-46 20t-57.5 6.5q-53 0 -114 -16.5t-116.5 -55t-98.5 -101.5t-61 -156q-5 -27 -7.5 -52t-2.5 -48q0 -77 25 -129.5t65 -85t89 -47t96 -14.5q112 0 207.5 70.5
t164.5 204.5h15q-33 -69 -78 -126.5t-99 -99t-116 -64t-128 -22.5z" />
    <glyph glyph-name="Ccaron.ss01" horiz-adv-x="816" 
d="M727 998q-43 -56 -70 -92.5t-44.5 -57.5t-28 -29.5t-19.5 -8.5t-16.5 8.5t-16.5 29.5t-22 57.5t-34 92.5h13q24 -37 47 -72.5t38 -68.5q27 33 64.5 68.5t75.5 72.5h13zM405 -11q-62 0 -115 19.5t-92.5 57t-62 91.5t-22.5 123q0 40 9 87q17 87 60 160.5t105 127
t139.5 83.5t162.5 30q44 0 81 -9t65 -22.5t47 -29.5t27 -31l-276 -472h-15q28 51 58 104.5t57 103.5t46.5 94.5t26.5 77.5q3 18 3 35q0 30 -11 51t-30.5 34.5t-46 20t-57.5 6.5q-53 0 -114 -16.5t-116.5 -55t-98.5 -101.5t-61 -156q-5 -27 -7.5 -52t-2.5 -48
q0 -77 25 -129.5t65 -85t89 -47t96 -14.5q112 0 207.5 70.5t164.5 204.5h15q-33 -69 -78 -126.5t-99 -99t-116 -64t-128 -22.5z" />
    <glyph glyph-name="Ccedilla.ss01" horiz-adv-x="816" 
d="M826 301q-32 -67 -75 -122.5t-94 -96.5t-109.5 -65t-121.5 -27l-36 -47q35 0 50 -15.5t15 -37.5q0 -15 -7.5 -31.5t-20.5 -30.5t-31 -23t-39 -9q-15 0 -29 4.5t-25 12.5l1 8q21 -10 46 -10q30 0 52.5 15.5t22.5 41.5q0 17 -15 31t-49 14l4 19l44 57h-4q-62 0 -115 19.5
t-92.5 57t-62 91.5t-22.5 123q0 40 9 87q17 87 60 160.5t105 127t139.5 83.5t162.5 30q44 0 81 -9t65 -22.5t47 -29.5t27 -31l-276 -472h-15q28 51 58 104.5t57 103.5t46.5 94.5t26.5 77.5q3 18 3 35q0 30 -11 51t-30.5 34.5t-46 20t-57.5 6.5q-53 0 -114 -16.5t-116.5 -55
t-98.5 -101.5t-61 -156q-5 -27 -7.5 -52t-2.5 -48q0 -77 25 -129.5t65 -85t89 -47t96 -14.5q112 0 207.5 70.5t164.5 204.5h15v0z" />
    <glyph glyph-name="Cdotaccent.ss01" horiz-adv-x="816" 
d="M566 860q-21 0 -32 12t-11 30q0 25 18 43.5t45 18.5q20 0 31.5 -12.5t11.5 -30.5q0 -26 -18.5 -43.5t-44.5 -17.5zM405 -11q-62 0 -115 19.5t-92.5 57t-62 91.5t-22.5 123q0 40 9 87q17 87 60 160.5t105 127t139.5 83.5t162.5 30q44 0 81 -9t65 -22.5t47 -29.5t27 -31
l-276 -472h-15q28 51 58 104.5t57 103.5t46.5 94.5t26.5 77.5q3 18 3 35q0 30 -11 51t-30.5 34.5t-46 20t-57.5 6.5q-53 0 -114 -16.5t-116.5 -55t-98.5 -101.5t-61 -156q-5 -27 -7.5 -52t-2.5 -48q0 -77 25 -129.5t65 -85t89 -47t96 -14.5q112 0 207.5 70.5t164.5 204.5h15
q-33 -69 -78 -126.5t-99 -99t-116 -64t-128 -22.5z" />
    <glyph glyph-name="D.ss01" horiz-adv-x="780" 
d="M447 -11q-48 0 -82 10t-56.5 25.5t-37 33.5t-23.5 33l276 472h15q-35 -63 -69.5 -122.5t-62 -113.5t-45 -103t-17.5 -92q0 -65 29 -93.5t71 -28.5q61 0 119 39t104 102.5t74 145t28 166.5q0 140 -70.5 208.5t-199.5 68.5h-156q-19 0 -27.5 -12t-13.5 -41l-127 -651
l70 -26l-2 -10h-195l2 10l80 26l133 684l-69 30l2 10h335q139 0 215.5 -73.5t76.5 -219.5q0 -89 -31.5 -174.5t-84 -153t-120.5 -109t-141 -41.5z" />
    <glyph glyph-name="Eth.ss01" horiz-adv-x="780" 
d="M532 760q139 0 215.5 -73.5t76.5 -219.5q0 -89 -31.5 -174.5t-84 -153t-120.5 -109t-141 -41.5q-48 0 -82 10t-56.5 25.5t-37 33.5t-23.5 33l276 472h15q-35 -63 -69.5 -122.5t-62 -113.5t-45 -103t-17.5 -92q0 -65 29 -93.5t71 -28.5q61 0 119 39t104 102.5t74 145
t28 166.5q0 140 -70.5 208.5t-199.5 68.5h-156q-19 0 -27.5 -12t-13.5 -41l-56 -288h100l-7 -38h-101l-63 -325l70 -26l-2 -10h-195l2 10l80 26l63 325h-97l7 38h98l62 321l-69 30l2 10h335v0z" />
    <glyph glyph-name="Dcaron.ss01" horiz-adv-x="780" 
d="M678 998q-43 -56 -70 -92.5t-44.5 -57.5t-28 -29.5t-19.5 -8.5t-16.5 8.5t-16.5 29.5t-22 57.5t-34 92.5h13q24 -37 47 -72.5t38 -68.5q27 33 64.5 68.5t75.5 72.5h13zM447 -11q-48 0 -82 10t-56.5 25.5t-37 33.5t-23.5 33l276 472h15q-35 -63 -69.5 -122.5t-62 -113.5
t-45 -103t-17.5 -92q0 -65 29 -93.5t71 -28.5q61 0 119 39t104 102.5t74 145t28 166.5q0 140 -70.5 208.5t-199.5 68.5h-156q-19 0 -27.5 -12t-13.5 -41l-127 -651l70 -26l-2 -10h-195l2 10l80 26l133 684l-69 30l2 10h335q139 0 215.5 -73.5t76.5 -219.5
q0 -89 -31.5 -174.5t-84 -153t-120.5 -109t-141 -41.5z" />
    <glyph glyph-name="Dcroat.ss01" horiz-adv-x="780" 
d="M532 760q139 0 215.5 -73.5t76.5 -219.5q0 -89 -31.5 -174.5t-84 -153t-120.5 -109t-141 -41.5q-48 0 -82 10t-56.5 25.5t-37 33.5t-23.5 33l276 472h15q-35 -63 -69.5 -122.5t-62 -113.5t-45 -103t-17.5 -92q0 -65 29 -93.5t71 -28.5q61 0 119 39t104 102.5t74 145
t28 166.5q0 140 -70.5 208.5t-199.5 68.5h-156q-19 0 -27.5 -12t-13.5 -41l-56 -288h100l-7 -38h-101l-63 -325l70 -26l-2 -10h-195l2 10l80 26l63 325h-97l7 38h98l62 321l-69 30l2 10h335v0z" />
    <glyph glyph-name="G.ss01" horiz-adv-x="761" 
d="M402 -11q-67 0 -121.5 20t-93.5 58t-60.5 92.5t-21.5 123.5q0 44 9 94q16 83 59 154.5t105.5 124t139.5 82.5t162 30q54 0 93.5 -11.5t66 -26.5t40.5 -29t17 -19l-44 -222h-15q9 46 9 86q0 93 -50 139t-146 46q-51 0 -111 -16.5t-115 -54t-98 -98.5t-61 -151
q-5 -27 -7.5 -52t-2.5 -49q0 -67 19.5 -119.5t55.5 -89t88 -56t117 -19.5q58 0 108 18t88.5 47.5t63 67t32.5 76.5q1 5 1 13q0 30 -27 48t-68 28.5t-88.5 15t-89.5 8.5l3 15h318l-19 -95q-14 -70 -52 -122t-89 -87t-108 -52.5t-107 -17.5z" />
    <glyph glyph-name="Gbreve.ss01" horiz-adv-x="761" 
d="M559 810q-24 0 -46.5 9.5t-37.5 32t-20 58t5 88.5h13q-5 -26 -4 -52t11.5 -47t31 -34t55.5 -13q34 0 60 13t44.5 34t29.5 47t16 52h13q-10 -53 -29 -88.5t-42.5 -58t-49.5 -32t-50 -9.5zM402 -11q-67 0 -121.5 20t-93.5 58t-60.5 92.5t-21.5 123.5q0 44 9 94
q16 83 59 154.5t105.5 124t139.5 82.5t162 30q54 0 93.5 -11.5t66 -26.5t40.5 -29t17 -19l-44 -222h-15q9 46 9 86q0 93 -50 139t-146 46q-51 0 -111 -16.5t-115 -54t-98 -98.5t-61 -151q-5 -27 -7.5 -52t-2.5 -49q0 -67 19.5 -119.5t55.5 -89t88 -56t117 -19.5q58 0 108 18
t88.5 47.5t63 67t32.5 76.5q1 5 1 13q0 30 -27 48t-68 28.5t-88.5 15t-89.5 8.5l3 15h318l-19 -95q-14 -70 -52 -122t-89 -87t-108 -52.5t-107 -17.5z" />
    <glyph glyph-name="Gcommaaccent.ss01" horiz-adv-x="761" 
d="M402 -11q-67 0 -121.5 20t-93.5 58t-60.5 92.5t-21.5 123.5q0 44 9 94q16 83 59 154.5t105.5 124t139.5 82.5t162 30q54 0 93.5 -11.5t66 -26.5t40.5 -29t17 -19l-44 -222h-15q9 46 9 86q0 93 -50 139t-146 46q-51 0 -111 -16.5t-115 -54t-98 -98.5t-61 -151
q-5 -27 -7.5 -52t-2.5 -49q0 -67 19.5 -119.5t55.5 -89t88 -56t117 -19.5q58 0 108 18t88.5 47.5t63 67t32.5 76.5q1 5 1 13q0 30 -27 48t-68 28.5t-88.5 15t-89.5 8.5l3 15h318l-19 -95q-14 -70 -52 -122t-89 -87t-108 -52.5t-107 -17.5zM370 -50q24 0 31.5 -21t2.5 -47
q-2 -8 -5.5 -19t-13.5 -27t-27 -36t-44 -44h-11q57 57 63 87q3 17 -3.5 25t-15 14t-15 13.5t-3.5 22.5q3 16 15 24t26 8z" />
    <glyph glyph-name="Gdotaccent.ss01" horiz-adv-x="761" 
d="M568 860q-21 0 -32 12t-11 30q0 25 18 43.5t45 18.5q20 0 31.5 -12.5t11.5 -30.5q0 -26 -18.5 -43.5t-44.5 -17.5zM402 -11q-67 0 -121.5 20t-93.5 58t-60.5 92.5t-21.5 123.5q0 44 9 94q16 83 59 154.5t105.5 124t139.5 82.5t162 30q54 0 93.5 -11.5t66 -26.5t40.5 -29
t17 -19l-44 -222h-15q9 46 9 86q0 93 -50 139t-146 46q-51 0 -111 -16.5t-115 -54t-98 -98.5t-61 -151q-5 -27 -7.5 -52t-2.5 -49q0 -67 19.5 -119.5t55.5 -89t88 -56t117 -19.5q58 0 108 18t88.5 47.5t63 67t32.5 76.5q1 5 1 13q0 30 -27 48t-68 28.5t-88.5 15t-89.5 8.5
l3 15h318l-19 -95q-14 -70 -52 -122t-89 -87t-108 -52.5t-107 -17.5z" />
    <glyph glyph-name="J.ss01" horiz-adv-x="484" 
d="M208 -11q-33 0 -56.5 8t-40 21t-27.5 29.5t-19 33.5l276 472h15q-50 -89 -91 -160t-70 -126.5t-45.5 -97t-16.5 -72.5q0 -36 21 -53.5t58 -17.5q25 0 46.5 6.5t40 27t33.5 58.5t27 101l97 501l-69 30l2 10h195l-2 -10l-81 -30l-101 -518q-8 -44 -20.5 -82.5t-34.5 -67.5
t-55 -46t-82 -17z" />
    <glyph glyph-name="K.ss01" horiz-adv-x="620" 
d="M703 760l-2 -10l-108 -24l-325 -332l218 -358l98 -26l-2 -10h-195l2 10l43 26l-194 318l-62 -318l70 -26l-2 -10h-195l2 10l80 26l133 684l-69 30l2 10h195l-2 -10l-81 -30l-61 -314l316 320l-58 24l2 10h195z" />
    <glyph glyph-name="Kcommaaccent.ss01" horiz-adv-x="620" 
d="M703 760l-2 -10l-108 -24l-325 -332l218 -358l98 -26l-2 -10h-195l2 10l43 26l-194 318l-62 -318l70 -26l-2 -10h-195l2 10l80 26l133 684l-69 30l2 10h195l-2 -10l-81 -30l-61 -314l316 320l-58 24l2 10h195zM299 -50q24 0 31.5 -21t2.5 -47q-2 -8 -5.5 -19t-13.5 -27
t-27 -36t-44 -44h-11q57 57 63 87q3 17 -3.5 25t-15 14t-15 13.5t-3.5 22.5q3 16 15 24t26 8z" />
    <glyph glyph-name="P.ss01" horiz-adv-x="639" 
d="M51 10l80 26l133 684l-69 30l2 10h282q104 0 161.5 -48.5t57.5 -135.5q0 -56 -20 -105.5t-55 -87t-82 -59.5t-100 -22q-30 0 -56 7.5t-46 19.5t-34.5 27t-23.5 30l165 278h15q-12 -23 -29.5 -53t-34 -63.5t-28.5 -67.5t-12 -65q0 -52 26 -74.5t64 -22.5q43 0 79.5 22
t63 58.5t41.5 83.5t15 98q0 76 -41 118t-121 42h-140q-19 0 -27 -10.5t-13 -36.5l-128 -657l70 -26l-2 -10h-195z" />
    <glyph glyph-name="Q.ss01" horiz-adv-x="832" 
d="M560 -184q27 0 52 8.5t46.5 22.5t39.5 32t32 37h16q-9 -15 -27 -35.5t-43.5 -40t-60 -33t-76.5 -13.5q-27 0 -59.5 8t-59 29.5t-41.5 59.5t-9 98q-58 3 -106.5 27.5t-83.5 66t-54.5 98t-19.5 124.5t18.5 128.5t51 112t75.5 92.5t93 70t104 44.5t107 15.5q63 0 116 -24
t92 -66t60.5 -99.5t21.5 -124.5q0 -93 -35.5 -173t-93.5 -140.5t-132 -99.5t-150 -49q-5 -47 3.5 -80.5t26.5 -54.5t43 -31t53 -10zM157 316q0 -75 23 -129.5t60 -90.5t83 -53t92 -17q34 0 75 8.5t83 28.5t81 51.5t69 77.5t48.5 107.5t18.5 140.5q0 72 -21.5 126.5t-57.5 91
t-83 55t-98 18.5q-45 0 -101 -17t-108.5 -54.5t-95 -98.5t-59.5 -149q-9 -51 -9 -96z" />
    <glyph glyph-name="R.ss01" horiz-adv-x="657" 
d="M51 10l80 26l133 684l-69 30l2 10h284q50 0 90.5 -12.5t69 -36t44 -56.5t15.5 -73q0 -43 -18 -87.5t-51.5 -80.5t-81 -59t-107.5 -23q-14 0 -28.5 2t-29.5 10l150 -318l77 -16l-2 -10h-215l2 10l83 16l-178 407l247 184h15q-17 -14 -41 -33.5t-49 -41.5t-47 -46t-35 -46
q-19 -33 -19 -59q0 -5 1 -11t3 -10q4 -8 11.5 -12t16 -6.5t17.5 -3t15 -0.5q41 0 72.5 13t55.5 34t40 47.5t26 54t14.5 52.5t4.5 44q0 32 -10 59t-31 46.5t-54 30.5t-80 11h-161l-137 -704l70 -26l-2 -10h-195z" />
    <glyph glyph-name="S.ss01" horiz-adv-x="591" 
d="M455 419q59 -19 96.5 -55t37.5 -100q0 -11 -1.5 -22t-3.5 -23q-11 -54 -38.5 -96.5t-67.5 -72.5t-89.5 -45.5t-102.5 -15.5q-47 0 -83.5 11t-63.5 28.5t-44 38t-25 39.5l222 303q-44 23 -68 53t-24 76q0 15 3 35q6 33 23.5 67.5t47.5 63t73.5 46.5t103.5 18q37 0 66.5 -7
t53 -18.5t41 -26t31.5 -29.5zM230 569q0 -37 24.5 -64t72.5 -47l91 124h20l-93 -130q19 -7 40 -13t47 -13q2 -1 3 -1t3 -1q42 60 68 97.5t40.5 60t20 34t7.5 20.5q1 5 1.5 9t0.5 8q0 24 -13 40.5t-33 26t-43 13.5t-44 4q-32 0 -66.5 -8.5t-64 -26t-51 -44t-28.5 -63.5
q-3 -14 -3 -26zM551 201q2 10 3 19.5t1 17.5q0 54 -35.5 82t-95.5 44q-2 1 -3 1t-3 1l-117 -167h-20q35 51 64.5 93.5t54.5 77.5q-35 9 -53.5 15t-38.5 16q-49 -67 -81.5 -112t-52.5 -76.5t-28.5 -52.5t-8.5 -40q0 -28 15.5 -47.5t40 -32t54 -18.5t58.5 -6q38 0 78 10.5
t74 33t59.5 57.5t34.5 84z" />
    <glyph glyph-name="Sacute.ss01" horiz-adv-x="591" 
d="M606 983q-2 -12 -19.5 -32.5t-43 -44.5t-55 -49.5t-55.5 -46.5h-13q38 55 66.5 91.5t49.5 58t35 30t22 8.5q16 0 13 -15zM455 419q59 -19 96.5 -55t37.5 -100q0 -11 -1.5 -22t-3.5 -23q-11 -54 -38.5 -96.5t-67.5 -72.5t-89.5 -45.5t-102.5 -15.5q-47 0 -83.5 11
t-63.5 28.5t-44 38t-25 39.5l222 303q-44 23 -68 53t-24 76q0 15 3 35q6 33 23.5 67.5t47.5 63t73.5 46.5t103.5 18q37 0 66.5 -7t53 -18.5t41 -26t31.5 -29.5zM230 569q0 -37 24.5 -64t72.5 -47l91 124h20l-93 -130q19 -7 40 -13t47 -13q2 -1 3 -1t3 -1q42 60 68 97.5
t40.5 60t20 34t7.5 20.5q1 5 1.5 9t0.5 8q0 24 -13 40.5t-33 26t-43 13.5t-44 4q-32 0 -66.5 -8.5t-64 -26t-51 -44t-28.5 -63.5q-3 -14 -3 -26zM551 201q2 10 3 19.5t1 17.5q0 54 -35.5 82t-95.5 44q-2 1 -3 1t-3 1l-117 -167h-20q35 51 64.5 93.5t54.5 77.5
q-35 9 -53.5 15t-38.5 16q-49 -67 -81.5 -112t-52.5 -76.5t-28.5 -52.5t-8.5 -40q0 -28 15.5 -47.5t40 -32t54 -18.5t58.5 -6q38 0 78 10.5t74 33t59.5 57.5t34.5 84z" />
    <glyph glyph-name="Scaron.ss01" horiz-adv-x="591" 
d="M462 810q-9 0 -16.5 8.5t-16.5 29.5t-22 57.5t-34 92.5h13q24 -37 47 -72.5t38 -68.5q27 33 64.5 68.5t75.5 72.5h13q-43 -56 -70 -92.5t-44.5 -57.5t-28 -29.5t-19.5 -8.5zM455 419q59 -19 96.5 -55t37.5 -100q0 -11 -1.5 -22t-3.5 -23q-11 -54 -38.5 -96.5t-67.5 -72.5
t-89.5 -45.5t-102.5 -15.5q-47 0 -83.5 11t-63.5 28.5t-44 38t-25 39.5l222 303q-44 23 -68 53t-24 76q0 15 3 35q6 33 23.5 67.5t47.5 63t73.5 46.5t103.5 18q37 0 66.5 -7t53 -18.5t41 -26t31.5 -29.5zM230 569q0 -37 24.5 -64t72.5 -47l91 124h20l-93 -130q19 -7 40 -13
t47 -13q2 -1 3 -1t3 -1q42 60 68 97.5t40.5 60t20 34t7.5 20.5q1 5 1.5 9t0.5 8q0 24 -13 40.5t-33 26t-43 13.5t-44 4q-32 0 -66.5 -8.5t-64 -26t-51 -44t-28.5 -63.5q-3 -14 -3 -26zM551 201q2 10 3 19.5t1 17.5q0 54 -35.5 82t-95.5 44q-2 1 -3 1t-3 1l-117 -167h-20
q35 51 64.5 93.5t54.5 77.5q-35 9 -53.5 15t-38.5 16q-49 -67 -81.5 -112t-52.5 -76.5t-28.5 -52.5t-8.5 -40q0 -28 15.5 -47.5t40 -32t54 -18.5t58.5 -6q38 0 78 10.5t74 33t59.5 57.5t34.5 84z" />
    <glyph glyph-name="Scedilla.ss01" horiz-adv-x="591" 
d="M455 419q59 -19 96.5 -55t37.5 -100q0 -11 -1.5 -22t-3.5 -23q-10 -50 -35 -90.5t-61 -70t-80.5 -47t-93.5 -21.5l-36 -47q35 0 50 -15.5t15 -37.5q0 -15 -7.5 -31.5t-20.5 -30.5t-31 -23t-39 -9q-15 0 -29 4.5t-25 12.5l1 8q21 -10 46 -10q30 0 52.5 15.5t22.5 41.5
q0 17 -15 31t-49 14l4 19l44 57h-11q-47 0 -83.5 11t-63.5 28.5t-44 38t-25 39.5l222 303q-44 23 -68 53t-24 76q0 15 3 35q6 33 23.5 67.5t47.5 63t73.5 46.5t103.5 18q37 0 66.5 -7t53 -18.5t41 -26t31.5 -29.5zM230 569q0 -37 24.5 -64t72.5 -47l91 124h20l-93 -130
q19 -7 40 -13t47 -13q2 -1 3 -1t3 -1q42 60 68 97.5t40.5 60t20 34t7.5 20.5q1 5 1.5 9t0.5 8q0 24 -13 40.5t-33 26t-43 13.5t-44 4q-32 0 -66.5 -8.5t-64 -26t-51 -44t-28.5 -63.5q-3 -14 -3 -26zM551 201q2 10 3 19.5t1 17.5q0 54 -35.5 82t-95.5 44q-2 1 -3 1t-3 1
l-117 -167h-20q35 51 64.5 93.5t54.5 77.5q-35 9 -53.5 15t-38.5 16q-49 -67 -81.5 -112t-52.5 -76.5t-28.5 -52.5t-8.5 -40q0 -28 15.5 -47.5t40 -32t54 -18.5t58.5 -6q38 0 78 10.5t74 33t59.5 57.5t34.5 84z" />
    <glyph glyph-name="Scommaaccent.ss01" horiz-adv-x="591" 
d="M455 419q59 -19 96.5 -55t37.5 -100q0 -11 -1.5 -22t-3.5 -23q-11 -54 -38.5 -96.5t-67.5 -72.5t-89.5 -45.5t-102.5 -15.5q-47 0 -83.5 11t-63.5 28.5t-44 38t-25 39.5l222 303q-44 23 -68 53t-24 76q0 15 3 35q6 33 23.5 67.5t47.5 63t73.5 46.5t103.5 18q37 0 66.5 -7
t53 -18.5t41 -26t31.5 -29.5zM230 569q0 -37 24.5 -64t72.5 -47l91 124h20l-93 -130q19 -7 40 -13t47 -13q2 -1 3 -1t3 -1q42 60 68 97.5t40.5 60t20 34t7.5 20.5q1 5 1.5 9t0.5 8q0 24 -13 40.5t-33 26t-43 13.5t-44 4q-32 0 -66.5 -8.5t-64 -26t-51 -44t-28.5 -63.5
q-3 -14 -3 -26zM551 201q2 10 3 19.5t1 17.5q0 54 -35.5 82t-95.5 44q-2 1 -3 1t-3 1l-117 -167h-20q35 51 64.5 93.5t54.5 77.5q-35 9 -53.5 15t-38.5 16q-49 -67 -81.5 -112t-52.5 -76.5t-28.5 -52.5t-8.5 -40q0 -28 15.5 -47.5t40 -32t54 -18.5t58.5 -6q38 0 78 10.5
t74 33t59.5 57.5t34.5 84zM280 -50q24 0 31.5 -21t2.5 -47q-2 -8 -5.5 -19t-13.5 -27t-27 -36t-44 -44h-11q57 57 63 87q3 17 -3.5 25t-15 14t-15 13.5t-3.5 22.5q3 16 15 24t26 8z" />
    <glyph glyph-name="Y.ss01" horiz-adv-x="783" 
d="M233 10l89 16l164 263q-29 -23 -62 -37.5t-71 -14.5q-49 0 -71 24.5t-27.5 67t2.5 100t19 123.5q4 22 8 55.5t1 65t-18 54.5t-48 23h-25l2 10h41q43 0 64.5 -16.5t28.5 -46t2.5 -70.5t-14.5 -90q-10 -53 -16 -102.5t0 -88t27.5 -61.5t65.5 -23q10 0 24 3t33 16t44 39.5
t57 73.5l205 326l-62 30l2 10h185l-2 -10l-80 -30l-436 -694l83 -16l-2 -10h-215z" />
    <glyph glyph-name="Yacute.ss01" horiz-adv-x="783" 
d="M451 810q38 55 66.5 91.5t49.5 58t35 30t22 8.5q16 0 13 -15q-2 -12 -19.5 -32.5t-43 -44.5t-55 -49.5t-55.5 -46.5h-13zM233 10l89 16l164 263q-29 -23 -62 -37.5t-71 -14.5q-49 0 -71 24.5t-27.5 67t2.5 100t19 123.5q4 22 8 55.5t1 65t-18 54.5t-48 23h-25l2 10h41
q43 0 64.5 -16.5t28.5 -46t2.5 -70.5t-14.5 -90q-10 -53 -16 -102.5t0 -88t27.5 -61.5t65.5 -23q10 0 24 3t33 16t44 39.5t57 73.5l205 326l-62 30l2 10h185l-2 -10l-80 -30l-436 -694l83 -16l-2 -10h-215z" />
    <glyph glyph-name="Ycircumflex.ss01" horiz-adv-x="783" 
d="M384 810q43 56 70 92.5t44.5 57.5t28 29.5t19.5 8.5t16.5 -8.5t16.5 -29.5t22 -57.5t34 -92.5h-13q-24 37 -47 72.5t-38 68.5q-27 -33 -64.5 -68.5t-75.5 -72.5h-13zM233 10l89 16l164 263q-29 -23 -62 -37.5t-71 -14.5q-49 0 -71 24.5t-27.5 67t2.5 100t19 123.5
q4 22 8 55.5t1 65t-18 54.5t-48 23h-25l2 10h41q43 0 64.5 -16.5t28.5 -46t2.5 -70.5t-14.5 -90q-10 -53 -16 -102.5t0 -88t27.5 -61.5t65.5 -23q10 0 24 3t33 16t44 39.5t57 73.5l205 326l-62 30l2 10h185l-2 -10l-80 -30l-436 -694l83 -16l-2 -10h-215z" />
    <glyph glyph-name="Ydieresis.ss01" horiz-adv-x="783" 
d="M456 859q-16 0 -24 8.5t-8 22.5q0 19 13.5 32.5t33.5 13.5q14 0 23 -9t9 -23q0 -19 -13.5 -32t-33.5 -13zM586 859q-16 0 -24 8.5t-8 22.5q0 19 13.5 32.5t33.5 13.5q14 0 23 -9t9 -23q0 -19 -13.5 -32t-33.5 -13zM233 10l89 16l164 263q-29 -23 -62 -37.5t-71 -14.5
q-49 0 -71 24.5t-27.5 67t2.5 100t19 123.5q4 22 8 55.5t1 65t-18 54.5t-48 23h-25l2 10h41q43 0 64.5 -16.5t28.5 -46t2.5 -70.5t-14.5 -90q-10 -53 -16 -102.5t0 -88t27.5 -61.5t65.5 -23q10 0 24 3t33 16t44 39.5t57 73.5l205 326l-62 30l2 10h185l-2 -10l-80 -30
l-436 -694l83 -16l-2 -10h-215z" />
    <glyph glyph-name="Ygrave.ss01" horiz-adv-x="783" 
d="M535 810q-18 21 -38 46.5t-36 49.5t-25.5 44.5t-7.5 32.5q3 15 19 15q8 0 19 -8.5t23.5 -30t27.5 -58t31 -91.5h-13zM233 10l89 16l164 263q-29 -23 -62 -37.5t-71 -14.5q-49 0 -71 24.5t-27.5 67t2.5 100t19 123.5q4 22 8 55.5t1 65t-18 54.5t-48 23h-25l2 10h41
q43 0 64.5 -16.5t28.5 -46t2.5 -70.5t-14.5 -90q-10 -53 -16 -102.5t0 -88t27.5 -61.5t65.5 -23q10 0 24 3t33 16t44 39.5t57 73.5l205 326l-62 30l2 10h185l-2 -10l-80 -30l-436 -694l83 -16l-2 -10h-215z" />
    <glyph glyph-name="Z.ss01" horiz-adv-x="569" 
d="M471 513l50 -502l-2 -11h-465l-3 10l209 282l-47 457l2 11h427l3 -10zM252 623q-5 -42 1.5 -120.5t18.5 -192.5l311 420h-195q-24 0 -46.5 -4t-41 -15t-31.5 -32.5t-17 -55.5zM482 137q3 18 3 42t-3 63.5t-9.5 99.5t-17.5 149l-176 -240q4 -35 7.5 -71.5t7.5 -76.5h-15
l-13 130l-149 -203h229q59 0 93 22.5t43 84.5z" />
    <glyph glyph-name="Zacute.ss01" horiz-adv-x="569" 
d="M574 983q-2 -12 -19.5 -32.5t-43 -44.5t-55 -49.5t-55.5 -46.5h-13q38 55 66.5 91.5t49.5 58t35 30t22 8.5q16 0 13 -15zM471 513l50 -502l-2 -11h-465l-3 10l209 282l-47 457l2 11h427l3 -10zM252 623q-5 -42 1.5 -120.5t18.5 -192.5l311 420h-195q-24 0 -46.5 -4
t-41 -15t-31.5 -32.5t-17 -55.5zM482 137q3 18 3 42t-3 63.5t-9.5 99.5t-17.5 149l-176 -240q4 -35 7.5 -71.5t7.5 -76.5h-15l-13 130l-149 -203h229q59 0 93 22.5t43 84.5z" />
    <glyph glyph-name="Zcaron.ss01" horiz-adv-x="569" 
d="M415 810q-9 0 -16.5 8.5t-16.5 29.5t-22 57.5t-34 92.5h13q24 -37 47 -72.5t38 -68.5q27 33 64.5 68.5t75.5 72.5h13q-43 -56 -70 -92.5t-44.5 -57.5t-28 -29.5t-19.5 -8.5zM471 513l50 -502l-2 -11h-465l-3 10l209 282l-47 457l2 11h427l3 -10zM252 623
q-5 -42 1.5 -120.5t18.5 -192.5l311 420h-195q-24 0 -46.5 -4t-41 -15t-31.5 -32.5t-17 -55.5zM482 137q3 18 3 42t-3 63.5t-9.5 99.5t-17.5 149l-176 -240q4 -35 7.5 -71.5t7.5 -76.5h-15l-13 130l-149 -203h229q59 0 93 22.5t43 84.5z" />
    <glyph glyph-name="Zdotaccent.ss01" horiz-adv-x="569" 
d="M431 860q-21 0 -32 12t-11 30q0 25 18 43.5t45 18.5q20 0 31.5 -12.5t11.5 -30.5q0 -26 -18.5 -43.5t-44.5 -17.5zM471 513l50 -502l-2 -11h-465l-3 10l209 282l-47 457l2 11h427l3 -10zM252 623q-5 -42 1.5 -120.5t18.5 -192.5l311 420h-195q-24 0 -46.5 -4t-41 -15
t-31.5 -32.5t-17 -55.5zM482 137q3 18 3 42t-3 63.5t-9.5 99.5t-17.5 149l-176 -240q4 -35 7.5 -71.5t7.5 -76.5h-15l-13 130l-149 -203h229q59 0 93 22.5t43 84.5z" />
    <glyph glyph-name="B.ss02" horiz-adv-x="666" 
d="M51 10q27 4 42.5 6.5t24 7.5t12.5 14.5t7 26.5l124 638q3 13 2 21t-8 12.5t-21.5 7.5t-38.5 6l2 10h275q108 0 164.5 -46.5t56.5 -118.5q0 -44 -16.5 -79.5t-43 -63t-59.5 -45.5t-65 -27q67 -12 108 -49.5t41 -103.5q0 -43 -16.5 -84t-51 -72.5t-87 -51t-123.5 -19.5
h-331zM429 388q46 0 85.5 16.5t68.5 45.5t45 69t16 87q0 134 -184 134h-147l-46 -238q23 -55 62.5 -84.5t99.5 -29.5zM378 16q71 0 115.5 24.5t69 58.5t33.5 70.5t9 60.5q0 71 -48 106.5t-128 35.5q-61 0 -102 29t-61 96l-94 -481h206z" />
    <glyph glyph-name="P.ss02" horiz-adv-x="639" 
d="M440 760q59 0 107 -12t81.5 -35t52 -57t18.5 -78q0 -57 -21 -107.5t-58.5 -88t-88.5 -59t-111 -21.5t-104 22.5t-68 82.5l-72 -371l70 -26l-2 -10h-195l2 10l80 26l133 684l-69 30l2 10h243zM423 318q47 0 87.5 20.5t70.5 55.5t47 81.5t17 99.5q0 79 -54.5 122t-144.5 43
h-133l-64 -328q27 -52 71.5 -73t102.5 -21z" />
    <glyph glyph-name="R.ss02" horiz-adv-x="682" 
d="M558 36l78 -26l-2 -10h-215l2 10l83 26l-208 333q-23 29 -40 78l1 5q30 -67 70 -95.5t98 -28.5q47 0 87.5 18.5t70 51.5t46 78t16.5 99q0 79 -54.5 122t-144.5 43h-133l-137 -704l70 -26l-2 -10h-195l2 10l80 26l133 684l-69 30l2 10h243q59 0 107 -12t81.5 -35t52 -57
t18.5 -78q0 -58 -21 -107t-57.5 -84t-87.5 -55t-111 -20q-20 0 -38 3z" />
    <glyph glyph-name="Racute.ss02" horiz-adv-x="682" 
d="M588 983q-2 -12 -19.5 -32.5t-43 -44.5t-55 -49.5t-55.5 -46.5h-13q38 55 66.5 91.5t49.5 58t35 30t22 8.5q16 0 13 -15zM558 36l78 -26l-2 -10h-215l2 10l83 26l-208 333q-23 29 -40 78l1 5q30 -67 70 -95.5t98 -28.5q47 0 87.5 18.5t70 51.5t46 78t16.5 99
q0 79 -54.5 122t-144.5 43h-133l-137 -704l70 -26l-2 -10h-195l2 10l80 26l133 684l-69 30l2 10h243q59 0 107 -12t81.5 -35t52 -57t18.5 -78q0 -58 -21 -107t-57.5 -84t-87.5 -55t-111 -20q-20 0 -38 3z" />
    <glyph glyph-name="Rcaron.ss02" horiz-adv-x="682" 
d="M446 810q-9 0 -16.5 8.5t-16.5 29.5t-22 57.5t-34 92.5h13q24 -37 47 -72.5t38 -68.5q27 33 64.5 68.5t75.5 72.5h13q-43 -56 -70 -92.5t-44.5 -57.5t-28 -29.5t-19.5 -8.5zM558 36l78 -26l-2 -10h-215l2 10l83 26l-208 333q-23 29 -40 78l1 5q30 -67 70 -95.5t98 -28.5
q47 0 87.5 18.5t70 51.5t46 78t16.5 99q0 79 -54.5 122t-144.5 43h-133l-137 -704l70 -26l-2 -10h-195l2 10l80 26l133 684l-69 30l2 10h243q59 0 107 -12t81.5 -35t52 -57t18.5 -78q0 -58 -21 -107t-57.5 -84t-87.5 -55t-111 -20q-20 0 -38 3z" />
    <glyph glyph-name="Rcommaaccent.ss02" horiz-adv-x="682" 
d="M558 36l78 -26l-2 -10h-215l2 10l83 26l-208 333q-23 29 -40 78l1 5q30 -67 70 -95.5t98 -28.5q47 0 87.5 18.5t70 51.5t46 78t16.5 99q0 79 -54.5 122t-144.5 43h-133l-137 -704l70 -26l-2 -10h-195l2 10l80 26l133 684l-69 30l2 10h243q59 0 107 -12t81.5 -35t52 -57
t18.5 -78q0 -58 -21 -107t-57.5 -84t-87.5 -55t-111 -20q-20 0 -38 3zM288 -50q24 0 31.5 -21t2.5 -47q-2 -8 -5.5 -19t-13.5 -27t-27 -36t-44 -44h-11q57 57 63 87q3 17 -3.5 25t-15 14t-15 13.5t-3.5 22.5q3 16 15 24t26 8z" />
    <glyph glyph-name="i.loclTRK" horiz-adv-x="243" 
d="M234 605q-21 0 -32 12t-11 30q0 25 18 43.5t45 18.5q20 0 31.5 -12.5t11.5 -30.5q0 -26 -18.5 -43.5t-44.5 -17.5zM192 462l-66 -2l2 10l101 30h11l-90 -460h66l-2 -10l-103 -30h-8z" />
    <glyph glyph-name="a.ss01" horiz-adv-x="474" 
d="M167 -11q-51 0 -79.5 28.5t-28.5 81.5q0 44 20 76.5t51 56t70 39t76.5 25t70 15t51.5 8.5l6 30q2 13 3.5 24t1.5 22q0 53 -28.5 75t-66.5 22q-30 0 -58.5 -12t-50 -32.5t-34.5 -49t-13 -61.5q0 -8 0.5 -17t1.5 -15h-15l-15 128q11 12 28 26.5t41 26.5t55.5 20.5t71.5 8.5
q127 0 127 -101q0 -11 -1.5 -22.5t-3.5 -24.5l-63 -327h64l-2 -10l-101 -30h-10l24 124q-6 -12 -21.5 -34.5t-40.5 -45t-58 -39t-73 -16.5zM183 18q27 0 54 12t50.5 30t43 40t33.5 43l31 161q-15 -3 -42 -8t-59 -14.5t-65.5 -24t-60.5 -35.5t-44.5 -50t-17.5 -67
q0 -37 18 -62t59 -25z" />
    <glyph glyph-name="aacute.ss01" horiz-adv-x="474" 
d="M264 575q38 55 66.5 91.5t49.5 58t35 30t22 8.5q16 0 13 -15q-2 -12 -19.5 -32.5t-43 -44.5t-55 -49.5t-55.5 -46.5h-13zM167 -11q-51 0 -79.5 28.5t-28.5 81.5q0 44 20 76.5t51 56t70 39t76.5 25t70 15t51.5 8.5l6 30q2 13 3.5 24t1.5 22q0 53 -28.5 75t-66.5 22
q-30 0 -58.5 -12t-50 -32.5t-34.5 -49t-13 -61.5q0 -8 0.5 -17t1.5 -15h-15l-15 128q11 12 28 26.5t41 26.5t55.5 20.5t71.5 8.5q127 0 127 -101q0 -11 -1.5 -22.5t-3.5 -24.5l-63 -327h64l-2 -10l-101 -30h-10l24 124q-6 -12 -21.5 -34.5t-40.5 -45t-58 -39t-73 -16.5z
M183 18q27 0 54 12t50.5 30t43 40t33.5 43l31 161q-15 -3 -42 -8t-59 -14.5t-65.5 -24t-60.5 -35.5t-44.5 -50t-17.5 -67q0 -37 18 -62t59 -25z" />
    <glyph glyph-name="abreve.ss01" horiz-adv-x="474" 
d="M325 575q-24 0 -46.5 9.5t-37.5 32t-20 58t5 88.5h13q-5 -26 -4 -52t11.5 -47t31 -34t55.5 -13q34 0 60 13t44.5 34t29.5 47t16 52h13q-10 -53 -29 -88.5t-42.5 -58t-49.5 -32t-50 -9.5zM167 -11q-51 0 -79.5 28.5t-28.5 81.5q0 44 20 76.5t51 56t70 39t76.5 25t70 15
t51.5 8.5l6 30q2 13 3.5 24t1.5 22q0 53 -28.5 75t-66.5 22q-30 0 -58.5 -12t-50 -32.5t-34.5 -49t-13 -61.5q0 -8 0.5 -17t1.5 -15h-15l-15 128q11 12 28 26.5t41 26.5t55.5 20.5t71.5 8.5q127 0 127 -101q0 -11 -1.5 -22.5t-3.5 -24.5l-63 -327h64l-2 -10l-101 -30h-10
l24 124q-6 -12 -21.5 -34.5t-40.5 -45t-58 -39t-73 -16.5zM183 18q27 0 54 12t50.5 30t43 40t33.5 43l31 161q-15 -3 -42 -8t-59 -14.5t-65.5 -24t-60.5 -35.5t-44.5 -50t-17.5 -67q0 -37 18 -62t59 -25z" />
    <glyph glyph-name="acircumflex.ss01" horiz-adv-x="474" 
d="M205 575q43 56 70 92.5t44.5 57.5t28 29.5t19.5 8.5t16.5 -8.5t16.5 -29.5t22 -57.5t34 -92.5h-13q-24 37 -47 72.5t-38 68.5q-27 -33 -64.5 -68.5t-75.5 -72.5h-13zM167 -11q-51 0 -79.5 28.5t-28.5 81.5q0 44 20 76.5t51 56t70 39t76.5 25t70 15t51.5 8.5l6 30
q2 13 3.5 24t1.5 22q0 53 -28.5 75t-66.5 22q-30 0 -58.5 -12t-50 -32.5t-34.5 -49t-13 -61.5q0 -8 0.5 -17t1.5 -15h-15l-15 128q11 12 28 26.5t41 26.5t55.5 20.5t71.5 8.5q127 0 127 -101q0 -11 -1.5 -22.5t-3.5 -24.5l-63 -327h64l-2 -10l-101 -30h-10l24 124
q-6 -12 -21.5 -34.5t-40.5 -45t-58 -39t-73 -16.5zM183 18q27 0 54 12t50.5 30t43 40t33.5 43l31 161q-15 -3 -42 -8t-59 -14.5t-65.5 -24t-60.5 -35.5t-44.5 -50t-17.5 -67q0 -37 18 -62t59 -25z" />
    <glyph glyph-name="adieresis.ss01" horiz-adv-x="474" 
d="M266 628q-16 0 -24 8.5t-8 22.5q0 19 13.5 32.5t33.5 13.5q14 0 23 -9t9 -23q0 -19 -13.5 -32t-33.5 -13zM396 628q-16 0 -24 8.5t-8 22.5q0 19 13.5 32.5t33.5 13.5q14 0 23 -9t9 -23q0 -19 -13.5 -32t-33.5 -13zM167 -11q-51 0 -79.5 28.5t-28.5 81.5q0 44 20 76.5
t51 56t70 39t76.5 25t70 15t51.5 8.5l6 30q2 13 3.5 24t1.5 22q0 53 -28.5 75t-66.5 22q-30 0 -58.5 -12t-50 -32.5t-34.5 -49t-13 -61.5q0 -8 0.5 -17t1.5 -15h-15l-15 128q11 12 28 26.5t41 26.5t55.5 20.5t71.5 8.5q127 0 127 -101q0 -11 -1.5 -22.5t-3.5 -24.5l-63 -327
h64l-2 -10l-101 -30h-10l24 124q-6 -12 -21.5 -34.5t-40.5 -45t-58 -39t-73 -16.5zM183 18q27 0 54 12t50.5 30t43 40t33.5 43l31 161q-15 -3 -42 -8t-59 -14.5t-65.5 -24t-60.5 -35.5t-44.5 -50t-17.5 -67q0 -37 18 -62t59 -25z" />
    <glyph glyph-name="agrave.ss01" horiz-adv-x="474" 
d="M361 575q-18 21 -38 46.5t-36 49.5t-25.5 44.5t-7.5 32.5q3 15 19 15q8 0 19 -8.5t23.5 -30t27.5 -58t31 -91.5h-13zM167 -11q-51 0 -79.5 28.5t-28.5 81.5q0 44 20 76.5t51 56t70 39t76.5 25t70 15t51.5 8.5l6 30q2 13 3.5 24t1.5 22q0 53 -28.5 75t-66.5 22
q-30 0 -58.5 -12t-50 -32.5t-34.5 -49t-13 -61.5q0 -8 0.5 -17t1.5 -15h-15l-15 128q11 12 28 26.5t41 26.5t55.5 20.5t71.5 8.5q127 0 127 -101q0 -11 -1.5 -22.5t-3.5 -24.5l-63 -327h64l-2 -10l-101 -30h-10l24 124q-6 -12 -21.5 -34.5t-40.5 -45t-58 -39t-73 -16.5z
M183 18q27 0 54 12t50.5 30t43 40t33.5 43l31 161q-15 -3 -42 -8t-59 -14.5t-65.5 -24t-60.5 -35.5t-44.5 -50t-17.5 -67q0 -37 18 -62t59 -25z" />
    <glyph glyph-name="amacron.ss01" horiz-adv-x="474" 
d="M229 680h263l-7 -38h-263zM167 -11q-51 0 -79.5 28.5t-28.5 81.5q0 44 20 76.5t51 56t70 39t76.5 25t70 15t51.5 8.5l6 30q2 13 3.5 24t1.5 22q0 53 -28.5 75t-66.5 22q-30 0 -58.5 -12t-50 -32.5t-34.5 -49t-13 -61.5q0 -8 0.5 -17t1.5 -15h-15l-15 128q11 12 28 26.5
t41 26.5t55.5 20.5t71.5 8.5q127 0 127 -101q0 -11 -1.5 -22.5t-3.5 -24.5l-63 -327h64l-2 -10l-101 -30h-10l24 124q-6 -12 -21.5 -34.5t-40.5 -45t-58 -39t-73 -16.5zM183 18q27 0 54 12t50.5 30t43 40t33.5 43l31 161q-15 -3 -42 -8t-59 -14.5t-65.5 -24t-60.5 -35.5
t-44.5 -50t-17.5 -67q0 -37 18 -62t59 -25z" />
    <glyph glyph-name="aogonek.ss01" horiz-adv-x="474" 
d="M385 40h64l-2 -10l-100 -30q-8 -6 -22.5 -19.5t-29.5 -32t-26 -40t-11 -42.5q0 -22 11.5 -34.5t31.5 -12.5q14 0 30 7t33 21h5q-22 -26 -44.5 -40t-45.5 -14t-38 15.5t-15 41.5q0 27 15 51.5t34 45t37 34.5t24 19l24 124q-6 -12 -21.5 -34.5t-40.5 -45t-58 -39t-73 -16.5
q-51 0 -79.5 28.5t-28.5 81.5q0 44 20 76.5t51 56t70 39t76.5 25t70 15t51.5 8.5l6 30q2 13 3.5 24t1.5 22q0 53 -28.5 75t-66.5 22q-30 0 -58.5 -12t-50 -32.5t-34.5 -49t-13 -61.5q0 -8 0.5 -17t1.5 -15h-15l-15 128q11 12 28 26.5t41 26.5t55.5 20.5t71.5 8.5
q127 0 127 -101q0 -11 -1.5 -22.5t-3.5 -24.5zM183 18q27 0 54 12t50.5 30t43 40t33.5 43l31 161q-15 -3 -42 -8t-59 -14.5t-65.5 -24t-60.5 -35.5t-44.5 -50t-17.5 -67q0 -37 18 -62t59 -25z" />
    <glyph glyph-name="aring.ss01" horiz-adv-x="474" 
d="M330 572q-30 0 -48.5 20t-18.5 48q0 19 8.5 35.5t22 29.5t31 20.5t36.5 7.5q29 0 47.5 -19.5t18.5 -48.5q0 -18 -8.5 -35t-22 -30t-31 -20.5t-35.5 -7.5zM334 595q13 0 25.5 5.5t22.5 14.5t16 21t6 25q0 20 -13.5 34.5t-33.5 14.5q-14 0 -26.5 -5.5t-22 -14.5t-15.5 -21
t-6 -25q0 -20 13 -34.5t34 -14.5zM167 -11q-51 0 -79.5 28.5t-28.5 81.5q0 44 20 76.5t51 56t70 39t76.5 25t70 15t51.5 8.5l6 30q2 13 3.5 24t1.5 22q0 53 -28.5 75t-66.5 22q-30 0 -58.5 -12t-50 -32.5t-34.5 -49t-13 -61.5q0 -8 0.5 -17t1.5 -15h-15l-15 128
q11 12 28 26.5t41 26.5t55.5 20.5t71.5 8.5q127 0 127 -101q0 -11 -1.5 -22.5t-3.5 -24.5l-63 -327h64l-2 -10l-101 -30h-10l24 124q-6 -12 -21.5 -34.5t-40.5 -45t-58 -39t-73 -16.5zM183 18q27 0 54 12t50.5 30t43 40t33.5 43l31 161q-15 -3 -42 -8t-59 -14.5t-65.5 -24
t-60.5 -35.5t-44.5 -50t-17.5 -67q0 -37 18 -62t59 -25z" />
    <glyph glyph-name="atilde.ss01" horiz-adv-x="474" 
d="M211 630q14 46 40 70.5t57 24.5q21 0 33.5 -8.5t23 -18t21 -18t27.5 -8.5q43 0 73 63h8q-14 -46 -40 -70.5t-58 -24.5q-21 0 -33.5 8.5t-22.5 18t-20.5 18t-26.5 8.5q-43 0 -74 -63h-8zM167 -11q-51 0 -79.5 28.5t-28.5 81.5q0 44 20 76.5t51 56t70 39t76.5 25t70 15
t51.5 8.5l6 30q2 13 3.5 24t1.5 22q0 53 -28.5 75t-66.5 22q-30 0 -58.5 -12t-50 -32.5t-34.5 -49t-13 -61.5q0 -8 0.5 -17t1.5 -15h-15l-15 128q11 12 28 26.5t41 26.5t55.5 20.5t71.5 8.5q127 0 127 -101q0 -11 -1.5 -22.5t-3.5 -24.5l-63 -327h64l-2 -10l-101 -30h-10
l24 124q-6 -12 -21.5 -34.5t-40.5 -45t-58 -39t-73 -16.5zM183 18q27 0 54 12t50.5 30t43 40t33.5 43l31 161q-15 -3 -42 -8t-59 -14.5t-65.5 -24t-60.5 -35.5t-44.5 -50t-17.5 -67q0 -37 18 -62t59 -25z" />
    <glyph glyph-name="c.ss01" horiz-adv-x="512" 
d="M252 -11q-42 0 -74 17t-53.5 46t-32.5 66.5t-11 79.5q0 59 22 116t60 101.5t90.5 72t112.5 27.5q36 0 63 -8.5t45.5 -20.5t29.5 -25.5t16 -23.5l-161 -296h-15q23 42 43.5 79.5t35.5 69.5t24 58t9 45q0 41 -28.5 66t-79.5 25q-38 0 -78 -16.5t-73 -49.5t-54.5 -83.5
t-21.5 -118.5q0 -44 11.5 -80.5t32 -62t48.5 -39.5t60 -14q36 0 66 9.5t56.5 29t51 48.5t48.5 69h15q-19 -38 -43.5 -71.5t-56.5 -59.5t-71 -41t-87 -15z" />
    <glyph glyph-name="cacute.ss01" horiz-adv-x="512" 
d="M289 575q38 55 66.5 91.5t49.5 58t35 30t22 8.5q16 0 13 -15q-2 -12 -19.5 -32.5t-43 -44.5t-55 -49.5t-55.5 -46.5h-13zM252 -11q-42 0 -74 17t-53.5 46t-32.5 66.5t-11 79.5q0 59 22 116t60 101.5t90.5 72t112.5 27.5q36 0 63 -8.5t45.5 -20.5t29.5 -25.5t16 -23.5
l-161 -296h-15q23 42 43.5 79.5t35.5 69.5t24 58t9 45q0 41 -28.5 66t-79.5 25q-38 0 -78 -16.5t-73 -49.5t-54.5 -83.5t-21.5 -118.5q0 -44 11.5 -80.5t32 -62t48.5 -39.5t60 -14q36 0 66 9.5t56.5 29t51 48.5t48.5 69h15q-19 -38 -43.5 -71.5t-56.5 -59.5t-71 -41t-87 -15
z" />
    <glyph glyph-name="ccaron.ss01" horiz-adv-x="512" 
d="M523 763q-43 -56 -70 -92.5t-44.5 -57.5t-28 -29.5t-19.5 -8.5t-16.5 8.5t-16.5 29.5t-22 57.5t-34 92.5h13q24 -37 47 -72.5t38 -68.5q27 33 64.5 68.5t75.5 72.5h13zM252 -11q-42 0 -74 17t-53.5 46t-32.5 66.5t-11 79.5q0 59 22 116t60 101.5t90.5 72t112.5 27.5
q36 0 63 -8.5t45.5 -20.5t29.5 -25.5t16 -23.5l-161 -296h-15q23 42 43.5 79.5t35.5 69.5t24 58t9 45q0 41 -28.5 66t-79.5 25q-38 0 -78 -16.5t-73 -49.5t-54.5 -83.5t-21.5 -118.5q0 -44 11.5 -80.5t32 -62t48.5 -39.5t60 -14q36 0 66 9.5t56.5 29t51 48.5t48.5 69h15
q-19 -38 -43.5 -71.5t-56.5 -59.5t-71 -41t-87 -15z" />
    <glyph glyph-name="ccedilla.ss01" horiz-adv-x="512" 
d="M273 20q36 0 66 9.5t56.5 29t51 48.5t48.5 69h15q-18 -35 -40.5 -67.5t-52 -57.5t-65 -41.5t-78.5 -19.5l-36 -47q35 0 50 -15.5t15 -37.5q0 -15 -7.5 -31.5t-20.5 -30.5t-31 -23t-39 -9q-15 0 -29 4.5t-25 12.5l1 8q21 -10 46 -10q30 0 52.5 15.5t22.5 41.5q0 17 -15 31
t-49 14l4 19l44 57h-5q-42 0 -74 17t-53.5 46t-32.5 66.5t-11 79.5q0 59 22 116t60 101.5t90.5 72t112.5 27.5q36 0 63 -8.5t45.5 -20.5t29.5 -25.5t16 -23.5l-161 -296h-15q23 42 43.5 79.5t35.5 69.5t24 58t9 45q0 41 -28.5 66t-79.5 25q-38 0 -78 -16.5t-73 -49.5
t-54.5 -83.5t-21.5 -118.5q0 -44 11.5 -80.5t32 -62t48.5 -39.5t60 -14z" />
    <glyph glyph-name="cdotaccent.ss01" horiz-adv-x="512" 
d="M373 605q-21 0 -32 12t-11 30q0 25 18 43.5t45 18.5q20 0 31.5 -12.5t11.5 -30.5q0 -26 -18.5 -43.5t-44.5 -17.5zM252 -11q-42 0 -74 17t-53.5 46t-32.5 66.5t-11 79.5q0 59 22 116t60 101.5t90.5 72t112.5 27.5q36 0 63 -8.5t45.5 -20.5t29.5 -25.5t16 -23.5l-161 -296
h-15q23 42 43.5 79.5t35.5 69.5t24 58t9 45q0 41 -28.5 66t-79.5 25q-38 0 -78 -16.5t-73 -49.5t-54.5 -83.5t-21.5 -118.5q0 -44 11.5 -80.5t32 -62t48.5 -39.5t60 -14q36 0 66 9.5t56.5 29t51 48.5t48.5 69h15q-19 -38 -43.5 -71.5t-56.5 -59.5t-71 -41t-87 -15z" />
    <glyph glyph-name="e.ss01" horiz-adv-x="507" 
d="M256 -11q-45 0 -78 16.5t-54.5 45t-31.5 66t-10 79.5q0 70 25 128.5t65.5 101t91 66t101.5 23.5q63 0 101 -37.5t38 -111.5q0 -31 -7 -65l-3 -16h-369l-2 -9q-7 -34 -7 -68q0 -45 12.5 -80t34.5 -59t52.5 -36.5t66.5 -12.5q63 0 115 39t100 117h15q-20 -39 -46.5 -73
t-59 -59.5t-70.5 -40t-80 -14.5zM464 312q2 13 3.5 25t1.5 25q0 26 -6.5 48.5t-20.5 39t-36 25.5t-53 9q-36 0 -70 -13t-62.5 -36t-50.5 -54.5t-35 -68.5h329z" />
    <glyph glyph-name="eacute.ss01" horiz-adv-x="507" 
d="M316 575q38 55 66.5 91.5t49.5 58t35 30t22 8.5q16 0 13 -15q-2 -12 -19.5 -32.5t-43 -44.5t-55 -49.5t-55.5 -46.5h-13zM256 -11q-45 0 -78 16.5t-54.5 45t-31.5 66t-10 79.5q0 70 25 128.5t65.5 101t91 66t101.5 23.5q63 0 101 -37.5t38 -111.5q0 -31 -7 -65l-3 -16
h-369l-2 -9q-7 -34 -7 -68q0 -45 12.5 -80t34.5 -59t52.5 -36.5t66.5 -12.5q63 0 115 39t100 117h15q-20 -39 -46.5 -73t-59 -59.5t-70.5 -40t-80 -14.5zM464 312q2 13 3.5 25t1.5 25q0 26 -6.5 48.5t-20.5 39t-36 25.5t-53 9q-36 0 -70 -13t-62.5 -36t-50.5 -54.5
t-35 -68.5h329z" />
    <glyph glyph-name="ecaron.ss01" horiz-adv-x="507" 
d="M520 763q-43 -56 -70 -92.5t-44.5 -57.5t-28 -29.5t-19.5 -8.5t-16.5 8.5t-16.5 29.5t-22 57.5t-34 92.5h13q24 -37 47 -72.5t38 -68.5q27 33 64.5 68.5t75.5 72.5h13zM256 -11q-45 0 -78 16.5t-54.5 45t-31.5 66t-10 79.5q0 70 25 128.5t65.5 101t91 66t101.5 23.5
q63 0 101 -37.5t38 -111.5q0 -31 -7 -65l-3 -16h-369l-2 -9q-7 -34 -7 -68q0 -45 12.5 -80t34.5 -59t52.5 -36.5t66.5 -12.5q63 0 115 39t100 117h15q-20 -39 -46.5 -73t-59 -59.5t-70.5 -40t-80 -14.5zM464 312q2 13 3.5 25t1.5 25q0 26 -6.5 48.5t-20.5 39t-36 25.5t-53 9
q-36 0 -70 -13t-62.5 -36t-50.5 -54.5t-35 -68.5h329z" />
    <glyph glyph-name="ecircumflex.ss01" horiz-adv-x="507" 
d="M229 575q43 56 70 92.5t44.5 57.5t28 29.5t19.5 8.5t16.5 -8.5t16.5 -29.5t22 -57.5t34 -92.5h-13q-24 37 -47 72.5t-38 68.5q-27 -33 -64.5 -68.5t-75.5 -72.5h-13zM256 -11q-45 0 -78 16.5t-54.5 45t-31.5 66t-10 79.5q0 70 25 128.5t65.5 101t91 66t101.5 23.5
q63 0 101 -37.5t38 -111.5q0 -31 -7 -65l-3 -16h-369l-2 -9q-7 -34 -7 -68q0 -45 12.5 -80t34.5 -59t52.5 -36.5t66.5 -12.5q63 0 115 39t100 117h15q-20 -39 -46.5 -73t-59 -59.5t-70.5 -40t-80 -14.5zM464 312q2 13 3.5 25t1.5 25q0 26 -6.5 48.5t-20.5 39t-36 25.5t-53 9
q-36 0 -70 -13t-62.5 -36t-50.5 -54.5t-35 -68.5h329z" />
    <glyph glyph-name="edieresis.ss01" horiz-adv-x="507" 
d="M304 628q-16 0 -24 8.5t-8 22.5q0 19 13.5 32.5t33.5 13.5q14 0 23 -9t9 -23q0 -19 -13.5 -32t-33.5 -13zM434 628q-16 0 -24 8.5t-8 22.5q0 19 13.5 32.5t33.5 13.5q14 0 23 -9t9 -23q0 -19 -13.5 -32t-33.5 -13zM256 -11q-45 0 -78 16.5t-54.5 45t-31.5 66t-10 79.5
q0 70 25 128.5t65.5 101t91 66t101.5 23.5q63 0 101 -37.5t38 -111.5q0 -31 -7 -65l-3 -16h-369l-2 -9q-7 -34 -7 -68q0 -45 12.5 -80t34.5 -59t52.5 -36.5t66.5 -12.5q63 0 115 39t100 117h15q-20 -39 -46.5 -73t-59 -59.5t-70.5 -40t-80 -14.5zM464 312q2 13 3.5 25
t1.5 25q0 26 -6.5 48.5t-20.5 39t-36 25.5t-53 9q-36 0 -70 -13t-62.5 -36t-50.5 -54.5t-35 -68.5h329z" />
    <glyph glyph-name="edotaccent.ss01" horiz-adv-x="507" 
d="M380 605q-21 0 -32 12t-11 30q0 25 18 43.5t45 18.5q20 0 31.5 -12.5t11.5 -30.5q0 -26 -18.5 -43.5t-44.5 -17.5zM256 -11q-45 0 -78 16.5t-54.5 45t-31.5 66t-10 79.5q0 70 25 128.5t65.5 101t91 66t101.5 23.5q63 0 101 -37.5t38 -111.5q0 -31 -7 -65l-3 -16h-369
l-2 -9q-7 -34 -7 -68q0 -45 12.5 -80t34.5 -59t52.5 -36.5t66.5 -12.5q63 0 115 39t100 117h15q-20 -39 -46.5 -73t-59 -59.5t-70.5 -40t-80 -14.5zM464 312q2 13 3.5 25t1.5 25q0 26 -6.5 48.5t-20.5 39t-36 25.5t-53 9q-36 0 -70 -13t-62.5 -36t-50.5 -54.5t-35 -68.5h329
z" />
    <glyph glyph-name="egrave.ss01" horiz-adv-x="507" 
d="M381 575q-18 21 -38 46.5t-36 49.5t-25.5 44.5t-7.5 32.5q3 15 19 15q8 0 19 -8.5t23.5 -30t27.5 -58t31 -91.5h-13zM256 -11q-45 0 -78 16.5t-54.5 45t-31.5 66t-10 79.5q0 70 25 128.5t65.5 101t91 66t101.5 23.5q63 0 101 -37.5t38 -111.5q0 -31 -7 -65l-3 -16h-369
l-2 -9q-7 -34 -7 -68q0 -45 12.5 -80t34.5 -59t52.5 -36.5t66.5 -12.5q63 0 115 39t100 117h15q-20 -39 -46.5 -73t-59 -59.5t-70.5 -40t-80 -14.5zM464 312q2 13 3.5 25t1.5 25q0 26 -6.5 48.5t-20.5 39t-36 25.5t-53 9q-36 0 -70 -13t-62.5 -36t-50.5 -54.5t-35 -68.5h329
z" />
    <glyph glyph-name="emacron.ss01" horiz-adv-x="507" 
d="M244 680h263l-7 -38h-263zM256 -11q-45 0 -78 16.5t-54.5 45t-31.5 66t-10 79.5q0 70 25 128.5t65.5 101t91 66t101.5 23.5q63 0 101 -37.5t38 -111.5q0 -31 -7 -65l-3 -16h-369l-2 -9q-7 -34 -7 -68q0 -45 12.5 -80t34.5 -59t52.5 -36.5t66.5 -12.5q63 0 115 39t100 117
h15q-20 -39 -46.5 -73t-59 -59.5t-70.5 -40t-80 -14.5zM464 312q2 13 3.5 25t1.5 25q0 26 -6.5 48.5t-20.5 39t-36 25.5t-53 9q-36 0 -70 -13t-62.5 -36t-50.5 -54.5t-35 -68.5h329z" />
    <glyph glyph-name="eogonek.ss01" horiz-adv-x="507" 
d="M319 -2q-9 -7 -23.5 -20.5t-28.5 -31.5t-24 -38.5t-10 -41.5q0 -22 11.5 -34.5t31.5 -12.5q14 0 30 7t33 21h5q-22 -26 -44.5 -40t-45.5 -14t-38 15.5t-15 41.5q0 24 12 46t28.5 41t33.5 34t28 23q-25 -5 -47 -5q-45 0 -78 16.5t-54.5 45t-31.5 66t-10 79.5
q0 70 25 128.5t65.5 101t91 66t101.5 23.5q63 0 101 -37.5t38 -111.5q0 -31 -7 -65l-3 -16h-369l-2 -9q-7 -34 -7 -68q0 -45 12.5 -80t34.5 -59t52.5 -36.5t66.5 -12.5q63 0 115 39t100 117h15q-32 -63 -81 -111.5t-112 -66.5zM353 484q-36 0 -70 -13t-62.5 -36t-50.5 -54.5
t-35 -68.5h329q2 13 3.5 25t1.5 25q0 26 -6.5 48.5t-20.5 39t-36 25.5t-53 9z" />
    <glyph glyph-name="f.ss01" horiz-adv-x="311" 
d="M39 10l69 26l87 439h-62l5 25h61l23 116q18 94 54.5 147t101.5 53q27 0 47.5 -8.5t35 -20.5t24 -25t14.5 -23l-270 -469h-15q36 63 65.5 113.5t52.5 91.5h-97l-86 -439l60 -26l-2 -10h-170zM347 500q24 42 40.5 74t27.5 56t16 42t5 33q0 35 -16.5 60t-46.5 25
q-42 0 -68 -43t-42 -126l-24 -121h108z" />
    <glyph glyph-name="g.ss01" horiz-adv-x="512" 
d="M567 470l-2 -10h-63l-90 -460q-11 -57 -31.5 -96.5t-47 -63.5t-59 -35t-67.5 -11q-36 0 -65.5 9t-52 21t-36.5 25.5t-19 22.5l93 149q-20 22 -31 54.5t-11 84.5q0 64 17 127.5t48.5 114t75.5 82t99 31.5q26 0 46 -7t36 -18.5t27.5 -26t20.5 -29.5l13 66h10zM450 405
q-8 13 -18.5 27.5t-24.5 25.5t-32.5 18.5t-41.5 7.5q-33 0 -69 -17t-66 -54t-50 -95.5t-20 -140.5q0 -92 25 -132t66 -40q23 0 47 11.5t46.5 30.5t44 43.5t40.5 51.5zM393 116q-48 -67 -97.5 -97.5t-93.5 -30.5q-37 0 -64 22q-21 -36 -32.5 -59t-11.5 -42q0 -23 9 -40
t24 -28t34 -16t40 -5q60 0 105 42t62 126z" />
    <glyph glyph-name="gbreve.ss01" horiz-adv-x="512" 
d="M348 575q-24 0 -46.5 9.5t-37.5 32t-20 58t5 88.5h13q-5 -26 -4 -52t11.5 -47t31 -34t55.5 -13q34 0 60 13t44.5 34t29.5 47t16 52h13q-10 -53 -29 -88.5t-42.5 -58t-49.5 -32t-50 -9.5zM567 470l-2 -10h-63l-90 -460q-11 -57 -31.5 -96.5t-47 -63.5t-59 -35t-67.5 -11
q-36 0 -65.5 9t-52 21t-36.5 25.5t-19 22.5l93 149q-20 22 -31 54.5t-11 84.5q0 64 17 127.5t48.5 114t75.5 82t99 31.5q26 0 46 -7t36 -18.5t27.5 -26t20.5 -29.5l13 66h10zM450 405q-8 13 -18.5 27.5t-24.5 25.5t-32.5 18.5t-41.5 7.5q-33 0 -69 -17t-66 -54t-50 -95.5
t-20 -140.5q0 -92 25 -132t66 -40q23 0 47 11.5t46.5 30.5t44 43.5t40.5 51.5zM393 116q-48 -67 -97.5 -97.5t-93.5 -30.5q-37 0 -64 22q-21 -36 -32.5 -59t-11.5 -42q0 -23 9 -40t24 -28t34 -16t40 -5q60 0 105 42t62 126z" />
    <glyph glyph-name="gcommaaccent.ss01" horiz-adv-x="512" 
d="M375 586q-24 0 -31.5 21t-2.5 47q1 7 5 18.5t14 27.5t27 36t44 44h11q-57 -57 -63 -87q-3 -17 3.5 -25t15 -14t15 -13.5t3.5 -22.5q-3 -16 -15 -24t-26 -8zM567 470l-2 -10h-63l-90 -460q-11 -57 -31.5 -96.5t-47 -63.5t-59 -35t-67.5 -11q-36 0 -65.5 9t-52 21
t-36.5 25.5t-19 22.5l93 149q-20 22 -31 54.5t-11 84.5q0 64 17 127.5t48.5 114t75.5 82t99 31.5q26 0 46 -7t36 -18.5t27.5 -26t20.5 -29.5l13 66h10zM450 405q-8 13 -18.5 27.5t-24.5 25.5t-32.5 18.5t-41.5 7.5q-33 0 -69 -17t-66 -54t-50 -95.5t-20 -140.5
q0 -92 25 -132t66 -40q23 0 47 11.5t46.5 30.5t44 43.5t40.5 51.5zM393 116q-48 -67 -97.5 -97.5t-93.5 -30.5q-37 0 -64 22q-21 -36 -32.5 -59t-11.5 -42q0 -23 9 -40t24 -28t34 -16t40 -5q60 0 105 42t62 126z" />
    <glyph glyph-name="gdotaccent.ss01" horiz-adv-x="512" 
d="M373 605q-21 0 -32 12t-11 30q0 25 18 43.5t45 18.5q20 0 31.5 -12.5t11.5 -30.5q0 -26 -18.5 -43.5t-44.5 -17.5zM567 470l-2 -10h-63l-90 -460q-11 -57 -31.5 -96.5t-47 -63.5t-59 -35t-67.5 -11q-36 0 -65.5 9t-52 21t-36.5 25.5t-19 22.5l93 149q-20 22 -31 54.5
t-11 84.5q0 64 17 127.5t48.5 114t75.5 82t99 31.5q26 0 46 -7t36 -18.5t27.5 -26t20.5 -29.5l13 66h10zM450 405q-8 13 -18.5 27.5t-24.5 25.5t-32.5 18.5t-41.5 7.5q-33 0 -69 -17t-66 -54t-50 -95.5t-20 -140.5q0 -92 25 -132t66 -40q23 0 47 11.5t46.5 30.5t44 43.5
t40.5 51.5zM393 116q-48 -67 -97.5 -97.5t-93.5 -30.5q-37 0 -64 22q-21 -36 -32.5 -59t-11.5 -42q0 -23 9 -40t24 -28t34 -16t40 -5q60 0 105 42t62 126z" />
    <glyph glyph-name="j.ss01" horiz-adv-x="200" 
d="M252 676q-15 0 -24 10t-9 24q0 21 14.5 35.5t35.5 14.5q16 0 24.5 -10t8.5 -24q0 -21 -14.5 -35.5t-35.5 -14.5zM-3 -205q-34 0 -54.5 15.5t-33.5 51.5l100 184h15q-38 -66 -54 -106t-16 -69q0 -27 12 -38.5t32 -11.5q38 0 62 35t38 108l97 496h-66l2 10l101 30h10
l-107 -551q-15 -79 -48.5 -116.5t-89.5 -37.5z" />
    <glyph glyph-name="r.ss01" horiz-adv-x="401" 
d="M192 460h-66l2 10l101 30h10l-48 -253h1q19 52 40.5 100t45.5 85.5t50 60t53 22.5q15 0 27 -6.5t22 -16t17 -20.5t10 -20l-164 -254h-15q35 57 58.5 95t38 64t21 43t6.5 32q0 26 -10.5 41t-25.5 15q-18 0 -38 -20.5t-40 -52t-39 -70t-34 -74.5t-25 -65t-13 -42l-37 -164
h-40z" />
    <glyph glyph-name="racute.ss01" horiz-adv-x="401" 
d="M264 575q38 55 66.5 91.5t49.5 58t35 30t22 8.5q16 0 13 -15q-2 -12 -19.5 -32.5t-43 -44.5t-55 -49.5t-55.5 -46.5h-13zM192 460h-66l2 10l101 30h10l-48 -253h1q19 52 40.5 100t45.5 85.5t50 60t53 22.5q15 0 27 -6.5t22 -16t17 -20.5t10 -20l-164 -254h-15
q35 57 58.5 95t38 64t21 43t6.5 32q0 26 -10.5 41t-25.5 15q-18 0 -38 -20.5t-40 -52t-39 -70t-34 -74.5t-25 -65t-13 -42l-37 -164h-40z" />
    <glyph glyph-name="rcaron.ss01" horiz-adv-x="401" 
d="M438 763q-43 -56 -70 -92.5t-44.5 -57.5t-28 -29.5t-19.5 -8.5t-16.5 8.5t-16.5 29.5t-22 57.5t-34 92.5h13q24 -37 47 -72.5t38 -68.5q27 33 64.5 68.5t75.5 72.5h13zM192 460h-66l2 10l101 30h10l-48 -253h1q19 52 40.5 100t45.5 85.5t50 60t53 22.5q15 0 27 -6.5
t22 -16t17 -20.5t10 -20l-164 -254h-15q35 57 58.5 95t38 64t21 43t6.5 32q0 26 -10.5 41t-25.5 15q-18 0 -38 -20.5t-40 -52t-39 -70t-34 -74.5t-25 -65t-13 -42l-37 -164h-40z" />
    <glyph glyph-name="rcommaaccent.ss01" horiz-adv-x="401" 
d="M192 460h-66l2 10l101 30h10l-48 -253h1q19 52 40.5 100t45.5 85.5t50 60t53 22.5q15 0 27 -6.5t22 -16t17 -20.5t10 -20l-164 -254h-15q35 57 58.5 95t38 64t21 43t6.5 32q0 26 -10.5 41t-25.5 15q-18 0 -38 -20.5t-40 -52t-39 -70t-34 -74.5t-25 -65t-13 -42l-37 -164
h-40zM185 -50q24 0 31.5 -21t2.5 -47q-2 -8 -5.5 -19t-13.5 -27t-27 -36t-44 -44h-11q57 57 63 87q3 17 -3.5 25t-15 14t-15 13.5t-3.5 22.5q3 16 15 24t26 8z" />
    <glyph glyph-name="s.ss01" horiz-adv-x="410" 
d="M203 -11q-35 0 -60.5 8.5t-44 21t-30 26.5t-18.5 25l94 169h15q-23 -42 -35.5 -75t-12.5 -62q0 -39 23 -62t74 -23q37 0 68.5 10t54.5 27.5t36 40t13 47.5q0 20 -11 35t-31 27t-48 22.5t-62 21.5q-94 31 -94 112q0 40 14.5 69.5t38.5 48.5t55 28t63 9q30 0 52.5 -7
t39.5 -17.5t28 -23t18 -23.5l-77 -139h-15q17 29 26.5 53t9.5 47q0 42 -26.5 61.5t-69.5 19.5q-21 0 -44.5 -7t-44 -20.5t-34 -33.5t-13.5 -46q0 -30 24 -49t81 -37q27 -9 53 -17t46 -20.5t32.5 -32.5t12.5 -51q0 -44 -16.5 -78.5t-44 -57.5t-64 -35t-76.5 -12z" />
    </font>
</defs>
</svg>
